solid 
 facet normal  0.000000e+00 -1.000000e+00  0.000000e+00
   outer loop
     vertex -7.129934e-02 -3.359375e-01  0.000000e+00
     vertex -2.578125e-01 -3.359375e-01  7.031250e-02
     vertex -2.578125e-01 -3.359375e-01  0.000000e+00
   endloop
 endfacet
 facet normal  0.000000e+00 -1.000000e+00  0.000000e+00
   outer loop
     vertex -7.129934e-02 -3.359375e-01  0.000000e+00
     vertex -7.129934e-02 -3.359375e-01  7.031250e-02
     vertex -2.578125e-01 -3.359375e-01  7.031250e-02
   endloop
 endfacet
 facet normal -1.000000e+00  0.000000e+00  0.000000e+00
   outer loop
     vertex -2.578125e-01  2.236020e-01  0.000000e+00
     vertex -2.578125e-01  1.562500e-01  7.031250e-02
     vertex -2.578125e-01  2.236020e-01  7.031250e-02
   endloop
 endfacet
 facet normal -1.000000e+00  0.000000e+00  0.000000e+00
   outer loop
     vertex -2.578125e-01 -3.359375e-01  0.000000e+00
     vertex -2.578125e-01 -3.359375e-01  7.031250e-02
     vertex -2.578125e-01  1.562500e-01  7.031250e-02
   endloop
 endfacet
 facet normal -1.000000e+00  0.000000e+00  0.000000e+00
   outer loop
     vertex -2.578125e-01 -3.359375e-01  0.000000e+00
     vertex -2.578125e-01  1.562500e-01  7.031250e-02
     vertex -2.578125e-01  2.236020e-01  0.000000e+00
   endloop
 endfacet
 facet normal  6.964754e-01 -7.175807e-01  0.000000e+00
   outer loop
     vertex  3.984375e-01  1.199836e-01  0.000000e+00
     vertex -7.129934e-02 -3.359375e-01  7.031250e-02
     vertex -7.129934e-02 -3.359375e-01  0.000000e+00
   endloop
 endfacet
 facet normal  6.964754e-01 -7.175807e-01  0.000000e+00
   outer loop
     vertex  3.984375e-01  1.199836e-01  0.000000e+00
     vertex  3.984375e-01  1.199836e-01  7.031250e-02
     vertex -7.129934e-02 -3.359375e-01  7.031250e-02
   endloop
 endfacet
 facet normal  0.000000e+00 -0.000000e+00 -1.000000e+00
   outer loop
     vertex -7.820724e-02 -2.599507e-01  0.000000e+00
     vertex -7.129934e-02 -3.359375e-01  0.000000e+00
     vertex -2.578125e-01 -3.359375e-01  0.000000e+00
   endloop
 endfacet
 facet normal -0.000000e+00  0.000000e+00 -1.000000e+00
   outer loop
     vertex -7.820724e-02 -2.599507e-01  0.000000e+00
     vertex -2.578125e-01 -3.359375e-01  0.000000e+00
     vertex -1.265625e-01 -2.115954e-01  0.000000e+00
   endloop
 endfacet
 facet normal  0.000000e+00  0.000000e+00 -1.000000e+00
   outer loop
     vertex -2.985197e-02 -2.115954e-01  0.000000e+00
     vertex -7.129934e-02 -3.359375e-01  0.000000e+00
     vertex -7.820724e-02 -2.599507e-01  0.000000e+00
   endloop
 endfacet
 facet normal  0.000000e+00 -0.000000e+00 -1.000000e+00
   outer loop
     vertex -1.265625e-01  7.162829e-02  0.000000e+00
     vertex -1.265625e-01 -2.115954e-01  0.000000e+00
     vertex -2.578125e-01 -3.359375e-01  0.000000e+00
   endloop
 endfacet
 facet normal  0.000000e+00 -0.000000e+00 -1.000000e+00
   outer loop
     vertex -7.820724e-02  2.327303e-02  0.000000e+00
     vertex -7.820724e-02 -1.632401e-01  0.000000e+00
     vertex -1.265625e-01 -2.115954e-01  0.000000e+00
   endloop
 endfacet
 facet normal -0.000000e+00  0.000000e+00 -1.000000e+00
   outer loop
     vertex -7.820724e-02  2.327303e-02  0.000000e+00
     vertex -1.265625e-01 -2.115954e-01  0.000000e+00
     vertex -1.265625e-01  7.162829e-02  0.000000e+00
   endloop
 endfacet
 facet normal  0.000000e+00  0.000000e+00 -1.000000e+00
   outer loop
     vertex -2.578125e-01  2.236020e-01  0.000000e+00
     vertex -1.265625e-01  7.162829e-02  0.000000e+00
     vertex -2.578125e-01 -3.359375e-01  0.000000e+00
   endloop
 endfacet
 facet normal -0.000000e+00  0.000000e+00 -1.000000e+00
   outer loop
     vertex -7.820724e-02  1.199836e-01  0.000000e+00
     vertex -1.265625e-01  7.162829e-02  0.000000e+00
     vertex -2.578125e-01  2.236020e-01  0.000000e+00
   endloop
 endfacet
 facet normal  0.000000e+00 -0.000000e+00 -1.000000e+00
   outer loop
     vertex -2.985197e-02  7.162829e-02  0.000000e+00
     vertex -2.985197e-02 -2.115954e-01  0.000000e+00
     vertex -7.820724e-02 -1.632401e-01  0.000000e+00
   endloop
 endfacet
 facet normal  0.000000e+00  0.000000e+00 -1.000000e+00
   outer loop
     vertex -2.985197e-02  7.162829e-02  0.000000e+00
     vertex -7.820724e-02 -1.632401e-01  0.000000e+00
     vertex -7.820724e-02  2.327303e-02  0.000000e+00
   endloop
 endfacet
 facet normal -0.000000e+00  0.000000e+00 -1.000000e+00
   outer loop
     vertex  1.981086e-01  7.162829e-02  0.000000e+00
     vertex -2.985197e-02 -2.115954e-01  0.000000e+00
     vertex -2.985197e-02  7.162829e-02  0.000000e+00
   endloop
 endfacet
 facet normal  0.000000e+00  0.000000e+00 -1.000000e+00
   outer loop
     vertex  2.464638e-01  2.327303e-02  0.000000e+00
     vertex -7.129934e-02 -3.359375e-01  0.000000e+00
     vertex -2.985197e-02 -2.115954e-01  0.000000e+00
   endloop
 endfacet
 facet normal -0.000000e+00  0.000000e+00 -1.000000e+00
   outer loop
     vertex  2.464638e-01  2.327303e-02  0.000000e+00
     vertex -2.985197e-02 -2.115954e-01  0.000000e+00
     vertex  1.981086e-01  7.162829e-02  0.000000e+00
   endloop
 endfacet
 facet normal -0.000000e+00  0.000000e+00 -1.000000e+00
   outer loop
     vertex  2.464638e-01  1.199836e-01  0.000000e+00
     vertex -2.985197e-02  7.162829e-02  0.000000e+00
     vertex -7.820724e-02  1.199836e-01  0.000000e+00
   endloop
 endfacet
 facet normal  0.000000e+00  0.000000e+00 -1.000000e+00
   outer loop
     vertex  2.464638e-01  1.199836e-01  0.000000e+00
     vertex  1.981086e-01  7.162829e-02  0.000000e+00
     vertex -2.985197e-02  7.162829e-02  0.000000e+00
   endloop
 endfacet
 facet normal  0.000000e+00  0.000000e+00 -1.000000e+00
   outer loop
     vertex  3.984375e-01  1.199836e-01  0.000000e+00
     vertex  2.948191e-01  7.162829e-02  0.000000e+00
     vertex  2.464638e-01  1.199836e-01  0.000000e+00
   endloop
 endfacet
 facet normal  0.000000e+00  0.000000e+00 -1.000000e+00
   outer loop
     vertex  3.984375e-01  1.199836e-01  0.000000e+00
     vertex  2.464638e-01  2.327303e-02  0.000000e+00
     vertex  2.948191e-01  7.162829e-02  0.000000e+00
   endloop
 endfacet
 facet normal  0.000000e+00 -0.000000e+00 -1.000000e+00
   outer loop
     vertex  3.984375e-01  2.236020e-01  0.000000e+00
     vertex  3.984375e-01  1.199836e-01  0.000000e+00
     vertex  2.464638e-01  1.199836e-01  0.000000e+00
   endloop
 endfacet
 facet normal  0.000000e+00  0.000000e+00 -1.000000e+00
   outer loop
     vertex -7.129934e-02 -3.359375e-01  0.000000e+00
     vertex  2.464638e-01  2.327303e-02  0.000000e+00
     vertex  3.984375e-01  1.199836e-01  0.000000e+00
   endloop
 endfacet
 facet normal -0.000000e+00  0.000000e+00 -1.000000e+00
   outer loop
     vertex  3.984375e-01  2.236020e-01  0.000000e+00
     vertex -7.820724e-02  1.199836e-01  0.000000e+00
     vertex -2.578125e-01  2.236020e-01  0.000000e+00
   endloop
 endfacet
 facet normal  0.000000e+00  0.000000e+00 -1.000000e+00
   outer loop
     vertex  3.984375e-01  2.236020e-01  0.000000e+00
     vertex  2.464638e-01  1.199836e-01  0.000000e+00
     vertex -7.820724e-02  1.199836e-01  0.000000e+00
   endloop
 endfacet
 facet normal  0.000000e+00  0.000000e+00  1.000000e+00
   outer loop
     vertex -7.820724e-02 -2.599507e-01  7.031250e-02
     vertex -2.578125e-01 -3.359375e-01  7.031250e-02
     vertex -7.129934e-02 -3.359375e-01  7.031250e-02
   endloop
 endfacet
 facet normal  0.000000e+00  0.000000e+00  1.000000e+00
   outer loop
     vertex -7.820724e-02 -2.599507e-01  7.031250e-02
     vertex -1.265625e-01 -2.115954e-01  7.031250e-02
     vertex -2.578125e-01 -3.359375e-01  7.031250e-02
   endloop
 endfacet
 facet normal  0.000000e+00  0.000000e+00  1.000000e+00
   outer loop
     vertex -2.985197e-02 -2.115954e-01  7.031250e-02
     vertex -7.820724e-02 -2.599507e-01  7.031250e-02
     vertex -7.129934e-02 -3.359375e-01  7.031250e-02
   endloop
 endfacet
 facet normal  0.000000e+00  0.000000e+00  1.000000e+00
   outer loop
     vertex -2.578125e-01  1.562500e-01  7.031250e-02
     vertex -2.578125e-01 -3.359375e-01  7.031250e-02
     vertex -1.265625e-01 -2.115954e-01  7.031250e-02
   endloop
 endfacet
 facet normal  0.000000e+00  0.000000e+00  1.000000e+00
   outer loop
     vertex -1.265625e-01  7.162829e-02  7.031250e-02
     vertex -2.578125e-01  1.562500e-01  7.031250e-02
     vertex -1.265625e-01 -2.115954e-01  7.031250e-02
   endloop
 endfacet
 facet normal  0.000000e+00  0.000000e+00  1.000000e+00
   outer loop
     vertex -7.820724e-02  2.327303e-02  7.031250e-02
     vertex -1.265625e-01 -2.115954e-01  7.031250e-02
     vertex -7.820724e-02 -1.632401e-01  7.031250e-02
   endloop
 endfacet
 facet normal  0.000000e+00  0.000000e+00  1.000000e+00
   outer loop
     vertex -7.820724e-02  2.327303e-02  7.031250e-02
     vertex -1.265625e-01  7.162829e-02  7.031250e-02
     vertex -1.265625e-01 -2.115954e-01  7.031250e-02
   endloop
 endfacet
 facet normal  0.000000e+00  0.000000e+00  1.000000e+00
   outer loop
     vertex -2.985197e-02  7.162829e-02  7.031250e-02
     vertex -7.820724e-02 -1.632401e-01  7.031250e-02
     vertex -2.985197e-02 -2.115954e-01  7.031250e-02
   endloop
 endfacet
 facet normal  0.000000e+00  0.000000e+00  1.000000e+00
   outer loop
     vertex -2.985197e-02  7.162829e-02  7.031250e-02
     vertex -7.820724e-02  2.327303e-02  7.031250e-02
     vertex -7.820724e-02 -1.632401e-01  7.031250e-02
   endloop
 endfacet
 facet normal  0.000000e+00  0.000000e+00  1.000000e+00
   outer loop
     vertex -7.820724e-02  1.199836e-01  7.031250e-02
     vertex -2.578125e-01  1.562500e-01  7.031250e-02
     vertex -1.265625e-01  7.162829e-02  7.031250e-02
   endloop
 endfacet
 facet normal  0.000000e+00  0.000000e+00  1.000000e+00
   outer loop
     vertex  1.981086e-01  7.162829e-02  7.031250e-02
     vertex -2.985197e-02  7.162829e-02  7.031250e-02
     vertex -2.985197e-02 -2.115954e-01  7.031250e-02
   endloop
 endfacet
 facet normal  0.000000e+00  0.000000e+00  1.000000e+00
   outer loop
     vertex  2.464638e-01  2.327303e-02  7.031250e-02
     vertex -2.985197e-02 -2.115954e-01  7.031250e-02
     vertex -7.129934e-02 -3.359375e-01  7.031250e-02
   endloop
 endfacet
 facet normal  0.000000e+00  0.000000e+00  1.000000e+00
   outer loop
     vertex  2.464638e-01  2.327303e-02  7.031250e-02
     vertex  1.981086e-01  7.162829e-02  7.031250e-02
     vertex -2.985197e-02 -2.115954e-01  7.031250e-02
   endloop
 endfacet
 facet normal  0.000000e+00  0.000000e+00  1.000000e+00
   outer loop
     vertex  2.464638e-01  1.199836e-01  7.031250e-02
     vertex -7.820724e-02  1.199836e-01  7.031250e-02
     vertex -2.985197e-02  7.162829e-02  7.031250e-02
   endloop
 endfacet
 facet normal  0.000000e+00  0.000000e+00  1.000000e+00
   outer loop
     vertex  2.464638e-01  1.199836e-01  7.031250e-02
     vertex -2.985197e-02  7.162829e-02  7.031250e-02
     vertex  1.981086e-01  7.162829e-02  7.031250e-02
   endloop
 endfacet
 facet normal  0.000000e+00  0.000000e+00  1.000000e+00
   outer loop
     vertex  3.984375e-01  1.199836e-01  7.031250e-02
     vertex  2.948191e-01  7.162829e-02  7.031250e-02
     vertex  2.464638e-01  2.327303e-02  7.031250e-02
   endloop
 endfacet
 facet normal  0.000000e+00  0.000000e+00  1.000000e+00
   outer loop
     vertex  3.984375e-01  1.562500e-01  7.031250e-02
     vertex  2.464638e-01  1.199836e-01  7.031250e-02
     vertex  2.948191e-01  7.162829e-02  7.031250e-02
   endloop
 endfacet
 facet normal  0.000000e+00  0.000000e+00  1.000000e+00
   outer loop
     vertex  3.984375e-01  1.562500e-01  7.031250e-02
     vertex  2.948191e-01  7.162829e-02  7.031250e-02
     vertex  3.984375e-01  1.199836e-01  7.031250e-02
   endloop
 endfacet
 facet normal  0.000000e+00  0.000000e+00  1.000000e+00
   outer loop
     vertex -7.129934e-02 -3.359375e-01  7.031250e-02
     vertex  3.984375e-01  1.199836e-01  7.031250e-02
     vertex  2.464638e-01  2.327303e-02  7.031250e-02
   endloop
 endfacet
 facet normal  0.000000e+00  0.000000e+00  1.000000e+00
   outer loop
     vertex  3.984375e-01  1.562500e-01  7.031250e-02
     vertex -2.578125e-01  1.562500e-01  7.031250e-02
     vertex -7.820724e-02  1.199836e-01  7.031250e-02
   endloop
 endfacet
 facet normal  0.000000e+00  0.000000e+00  1.000000e+00
   outer loop
     vertex  3.984375e-01  1.562500e-01  7.031250e-02
     vertex -7.820724e-02  1.199836e-01  7.031250e-02
     vertex  2.464638e-01  1.199836e-01  7.031250e-02
   endloop
 endfacet
 facet normal  0.000000e+00  1.000000e+00  0.000000e+00
   outer loop
     vertex -2.578125e-01  2.236020e-01  0.000000e+00
     vertex  3.984375e-01  2.236020e-01  7.031250e-02
     vertex  3.984375e-01  2.236020e-01  0.000000e+00
   endloop
 endfacet
 facet normal  0.000000e+00  1.000000e+00  0.000000e+00
   outer loop
     vertex -2.578125e-01  2.236020e-01  0.000000e+00
     vertex -2.578125e-01  2.236020e-01  7.031250e-02
     vertex  3.984375e-01  2.236020e-01  7.031250e-02
   endloop
 endfacet
 facet normal -1.000000e+00  0.000000e+00  0.000000e+00
   outer loop
     vertex -2.578125e-01  2.236020e-01  7.031250e-02
     vertex -2.578125e-01  2.253289e-01  7.500000e-01
     vertex -2.578125e-01  2.253289e-01  7.031250e-02
   endloop
 endfacet
 facet normal -1.000000e+00  0.000000e+00  0.000000e+00
   outer loop
     vertex -2.578125e-01  2.236020e-01  7.031250e-02
     vertex -2.578125e-01  1.562500e-01  7.500000e-01
     vertex -2.578125e-01  2.253289e-01  7.500000e-01
   endloop
 endfacet
 facet normal -1.000000e+00  0.000000e+00  0.000000e+00
   outer loop
     vertex -2.578125e-01  1.562500e-01  7.031250e-02
     vertex -2.578125e-01  1.562500e-01  7.500000e-01
     vertex -2.578125e-01  2.236020e-01  7.031250e-02
   endloop
 endfacet
 facet normal  1.000000e+00  0.000000e+00  0.000000e+00
   outer loop
     vertex  3.984375e-01  1.199836e-01  0.000000e+00
     vertex  3.984375e-01  1.562500e-01  7.031250e-02
     vertex  3.984375e-01  1.199836e-01  7.031250e-02
   endloop
 endfacet
 facet normal  1.000000e+00  0.000000e+00 -0.000000e+00
   outer loop
     vertex  3.984375e-01  2.236020e-01  0.000000e+00
     vertex  3.984375e-01  2.236020e-01  7.031250e-02
     vertex  3.984375e-01  1.562500e-01  7.031250e-02
   endloop
 endfacet
 facet normal  1.000000e+00  0.000000e+00  0.000000e+00
   outer loop
     vertex  3.984375e-01  2.236020e-01  0.000000e+00
     vertex  3.984375e-01  1.562500e-01  7.031250e-02
     vertex  3.984375e-01  1.199836e-01  0.000000e+00
   endloop
 endfacet
 facet normal -7.071068e-01  7.071068e-01  0.000000e+00
   outer loop
     vertex -7.820724e-02 -2.599507e-01  0.000000e+00
     vertex -2.985197e-02 -2.115954e-01  7.031250e-02
     vertex -2.985197e-02 -2.115954e-01  0.000000e+00
   endloop
 endfacet
 facet normal -7.071068e-01  7.071068e-01  0.000000e+00
   outer loop
     vertex -7.820724e-02 -2.599507e-01  0.000000e+00
     vertex -7.820724e-02 -2.599507e-01  7.031250e-02
     vertex -2.985197e-02 -2.115954e-01  7.031250e-02
   endloop
 endfacet
 facet normal  7.071068e-01  7.071068e-01 -0.000000e+00
   outer loop
     vertex -1.265625e-01 -2.115954e-01  0.000000e+00
     vertex -1.265625e-01 -2.115954e-01  7.031250e-02
     vertex -7.820724e-02 -2.599507e-01  7.031250e-02
   endloop
 endfacet
 facet normal  7.071068e-01  7.071068e-01  0.000000e+00
   outer loop
     vertex -1.265625e-01 -2.115954e-01  0.000000e+00
     vertex -7.820724e-02 -2.599507e-01  7.031250e-02
     vertex -7.820724e-02 -2.599507e-01  0.000000e+00
   endloop
 endfacet
 facet normal  7.071068e-01 -7.071068e-01  0.000000e+00
   outer loop
     vertex -7.820724e-02 -1.632401e-01  0.000000e+00
     vertex -7.820724e-02 -1.632401e-01  7.031250e-02
     vertex -1.265625e-01 -2.115954e-01  7.031250e-02
   endloop
 endfacet
 facet normal  7.071068e-01 -7.071068e-01  0.000000e+00
   outer loop
     vertex -7.820724e-02 -1.632401e-01  0.000000e+00
     vertex -1.265625e-01 -2.115954e-01  7.031250e-02
     vertex -1.265625e-01 -2.115954e-01  0.000000e+00
   endloop
 endfacet
 facet normal -7.071068e-01 -7.071068e-01  0.000000e+00
   outer loop
     vertex -2.985197e-02 -2.115954e-01  0.000000e+00
     vertex -2.985197e-02 -2.115954e-01  7.031250e-02
     vertex -7.820724e-02 -1.632401e-01  7.031250e-02
   endloop
 endfacet
 facet normal -7.071068e-01 -7.071068e-01  0.000000e+00
   outer loop
     vertex -2.985197e-02 -2.115954e-01  0.000000e+00
     vertex -7.820724e-02 -1.632401e-01  7.031250e-02
     vertex -7.820724e-02 -1.632401e-01  0.000000e+00
   endloop
 endfacet
 facet normal -7.071068e-01  7.071068e-01  0.000000e+00
   outer loop
     vertex -7.820724e-02  2.327303e-02  0.000000e+00
     vertex -2.985197e-02  7.162829e-02  7.031250e-02
     vertex -2.985197e-02  7.162829e-02  0.000000e+00
   endloop
 endfacet
 facet normal -7.071068e-01  7.071068e-01  0.000000e+00
   outer loop
     vertex -7.820724e-02  2.327303e-02  0.000000e+00
     vertex -7.820724e-02  2.327303e-02  7.031250e-02
     vertex -2.985197e-02  7.162829e-02  7.031250e-02
   endloop
 endfacet
 facet normal  7.071068e-01  7.071068e-01 -0.000000e+00
   outer loop
     vertex -1.265625e-01  7.162829e-02  0.000000e+00
     vertex -1.265625e-01  7.162829e-02  7.031250e-02
     vertex -7.820724e-02  2.327303e-02  7.031250e-02
   endloop
 endfacet
 facet normal  7.071068e-01  7.071068e-01  0.000000e+00
   outer loop
     vertex -1.265625e-01  7.162829e-02  0.000000e+00
     vertex -7.820724e-02  2.327303e-02  7.031250e-02
     vertex -7.820724e-02  2.327303e-02  0.000000e+00
   endloop
 endfacet
 facet normal  7.071068e-01 -7.071068e-01  0.000000e+00
   outer loop
     vertex -7.820724e-02  1.199836e-01  0.000000e+00
     vertex -7.820724e-02  1.199836e-01  7.031250e-02
     vertex -1.265625e-01  7.162829e-02  7.031250e-02
   endloop
 endfacet
 facet normal  7.071068e-01 -7.071068e-01  0.000000e+00
   outer loop
     vertex -7.820724e-02  1.199836e-01  0.000000e+00
     vertex -1.265625e-01  7.162829e-02  7.031250e-02
     vertex -1.265625e-01  7.162829e-02  0.000000e+00
   endloop
 endfacet
 facet normal -7.071068e-01 -7.071068e-01  0.000000e+00
   outer loop
     vertex -2.985197e-02  7.162829e-02  0.000000e+00
     vertex -2.985197e-02  7.162829e-02  7.031250e-02
     vertex -7.820724e-02  1.199836e-01  7.031250e-02
   endloop
 endfacet
 facet normal -7.071068e-01 -7.071068e-01  0.000000e+00
   outer loop
     vertex -2.985197e-02  7.162829e-02  0.000000e+00
     vertex -7.820724e-02  1.199836e-01  7.031250e-02
     vertex -7.820724e-02  1.199836e-01  0.000000e+00
   endloop
 endfacet
 facet normal -7.071068e-01  7.071068e-01  0.000000e+00
   outer loop
     vertex  2.464638e-01  2.327303e-02  0.000000e+00
     vertex  2.948191e-01  7.162829e-02  7.031250e-02
     vertex  2.948191e-01  7.162829e-02  0.000000e+00
   endloop
 endfacet
 facet normal -7.071068e-01  7.071068e-01  0.000000e+00
   outer loop
     vertex  2.464638e-01  2.327303e-02  0.000000e+00
     vertex  2.464638e-01  2.327303e-02  7.031250e-02
     vertex  2.948191e-01  7.162829e-02  7.031250e-02
   endloop
 endfacet
 facet normal  7.071068e-01  7.071068e-01 -0.000000e+00
   outer loop
     vertex  1.981086e-01  7.162829e-02  0.000000e+00
     vertex  1.981086e-01  7.162829e-02  7.031250e-02
     vertex  2.464638e-01  2.327303e-02  7.031250e-02
   endloop
 endfacet
 facet normal  7.071068e-01  7.071068e-01  0.000000e+00
   outer loop
     vertex  1.981086e-01  7.162829e-02  0.000000e+00
     vertex  2.464638e-01  2.327303e-02  7.031250e-02
     vertex  2.464638e-01  2.327303e-02  0.000000e+00
   endloop
 endfacet
 facet normal  7.071068e-01 -7.071068e-01  0.000000e+00
   outer loop
     vertex  2.464638e-01  1.199836e-01  0.000000e+00
     vertex  2.464638e-01  1.199836e-01  7.031250e-02
     vertex  1.981086e-01  7.162829e-02  7.031250e-02
   endloop
 endfacet
 facet normal  7.071068e-01 -7.071068e-01  0.000000e+00
   outer loop
     vertex  2.464638e-01  1.199836e-01  0.000000e+00
     vertex  1.981086e-01  7.162829e-02  7.031250e-02
     vertex  1.981086e-01  7.162829e-02  0.000000e+00
   endloop
 endfacet
 facet normal -7.071068e-01 -7.071068e-01  0.000000e+00
   outer loop
     vertex  2.948191e-01  7.162829e-02  0.000000e+00
     vertex  2.948191e-01  7.162829e-02  7.031250e-02
     vertex  2.464638e-01  1.199836e-01  7.031250e-02
   endloop
 endfacet
 facet normal -7.071068e-01 -7.071068e-01  0.000000e+00
   outer loop
     vertex  2.948191e-01  7.162829e-02  0.000000e+00
     vertex  2.464638e-01  1.199836e-01  7.031250e-02
     vertex  2.464638e-01  1.199836e-01  0.000000e+00
   endloop
 endfacet
 facet normal  0.000000e+00 -1.000000e+00  0.000000e+00
   outer loop
     vertex  3.984375e-01  1.562500e-01  7.031250e-02
     vertex -2.578125e-01  1.562500e-01  7.500000e-01
     vertex -2.578125e-01  1.562500e-01  7.031250e-02
   endloop
 endfacet
 facet normal  0.000000e+00 -1.000000e+00  0.000000e+00
   outer loop
     vertex  3.984375e-01  1.562500e-01  7.031250e-02
     vertex  3.984375e-01  1.562500e-01  7.500000e-01
     vertex -2.578125e-01  1.562500e-01  7.500000e-01
   endloop
 endfacet
 facet normal -0.000000e+00  0.000000e+00 -1.000000e+00
   outer loop
     vertex  3.984375e-01  2.253289e-01  7.031250e-02
     vertex -2.578125e-01  2.236020e-01  7.031250e-02
     vertex -2.578125e-01  2.253289e-01  7.031250e-02
   endloop
 endfacet
 facet normal  0.000000e+00 -0.000000e+00 -1.000000e+00
   outer loop
     vertex  3.984375e-01  2.253289e-01  7.031250e-02
     vertex  3.984375e-01  2.236020e-01  7.031250e-02
     vertex -2.578125e-01  2.236020e-01  7.031250e-02
   endloop
 endfacet
 facet normal  0.000000e+00  1.000000e+00  0.000000e+00
   outer loop
     vertex -2.578125e-01  2.253289e-01  7.031250e-02
     vertex  3.984375e-01  2.253289e-01  7.500000e-01
     vertex  3.984375e-01  2.253289e-01  7.031250e-02
   endloop
 endfacet
 facet normal  0.000000e+00  1.000000e+00  0.000000e+00
   outer loop
     vertex -2.578125e-01  2.253289e-01  7.031250e-02
     vertex -2.578125e-01  2.253289e-01  7.500000e-01
     vertex  3.984375e-01  2.253289e-01  7.500000e-01
   endloop
 endfacet
 facet normal  0.000000e+00  0.000000e+00  1.000000e+00
   outer loop
     vertex  3.984375e-01  2.253289e-01  7.500000e-01
     vertex -2.578125e-01  1.562500e-01  7.500000e-01
     vertex  3.984375e-01  1.562500e-01  7.500000e-01
   endloop
 endfacet
 facet normal  0.000000e+00  0.000000e+00  1.000000e+00
   outer loop
     vertex  3.984375e-01  2.253289e-01  7.500000e-01
     vertex -2.578125e-01  2.253289e-01  7.500000e-01
     vertex -2.578125e-01  1.562500e-01  7.500000e-01
   endloop
 endfacet
 facet normal  1.000000e+00  0.000000e+00  0.000000e+00
   outer loop
     vertex  3.984375e-01  2.236020e-01  7.031250e-02
     vertex  3.984375e-01  1.562500e-01  7.500000e-01
     vertex  3.984375e-01  1.562500e-01  7.031250e-02
   endloop
 endfacet
 facet normal  1.000000e+00  0.000000e+00 -0.000000e+00
   outer loop
     vertex  3.984375e-01  2.236020e-01  7.031250e-02
     vertex  3.984375e-01  2.253289e-01  7.500000e-01
     vertex  3.984375e-01  1.562500e-01  7.500000e-01
   endloop
 endfacet
 facet normal  1.000000e+00  0.000000e+00 -0.000000e+00
   outer loop
     vertex  3.984375e-01  2.253289e-01  7.031250e-02
     vertex  3.984375e-01  2.253289e-01  7.500000e-01
     vertex  3.984375e-01  2.236020e-01  7.031250e-02
   endloop
 endfacet
endsolid
