solid 
 facet normal  0.000000e+00 -0.000000e+00 -1.000000e+00
   outer loop
     vertex  3.222140e-34  3.906250e-02 -4.687500e-02
     vertex  7.500000e-01 -4.687500e-02 -4.687500e-02
     vertex  0.000000e+00 -4.687500e-02 -4.687500e-02
   endloop
 endfacet
 facet normal  0.000000e+00  0.000000e+00 -1.000000e+00
   outer loop
     vertex  3.222140e-34  3.906250e-02 -4.687500e-02
     vertex  7.500000e-01  3.906250e-02 -4.687500e-02
     vertex  7.500000e-01 -4.687500e-02 -4.687500e-02
   endloop
 endfacet
 facet normal  0.000000e+00 -1.000000e+00  0.000000e+00
   outer loop
     vertex  0.000000e+00 -4.687500e-02 -4.687500e-02
     vertex  7.500000e-01 -4.687500e-02  3.906250e-02
     vertex -5.262154e-18 -4.687500e-02  3.906250e-02
   endloop
 endfacet
 facet normal  0.000000e+00 -1.000000e+00  0.000000e+00
   outer loop
     vertex  0.000000e+00 -4.687500e-02 -4.687500e-02
     vertex  7.500000e-01 -4.687500e-02 -4.687500e-02
     vertex  7.500000e-01 -4.687500e-02  3.906250e-02
   endloop
 endfacet
 facet normal  0.000000e+00  1.000000e+00  0.000000e+00
   outer loop
     vertex -5.262154e-18  3.906250e-02  3.906250e-02
     vertex  7.500000e-01  3.906250e-02 -4.687500e-02
     vertex  3.222140e-34  3.906250e-02 -4.687500e-02
   endloop
 endfacet
 facet normal -0.000000e+00  1.000000e+00  0.000000e+00
   outer loop
     vertex -5.262154e-18  3.906250e-02  3.906250e-02
     vertex  7.500000e-01  3.906250e-02  3.906250e-02
     vertex  7.500000e-01  3.906250e-02 -4.687500e-02
   endloop
 endfacet
 facet normal  0.000000e+00  0.000000e+00 -1.000000e+00
   outer loop
     vertex  3.222140e-34  3.906250e-02 -4.687500e-02
     vertex  0.000000e+00 -4.687500e-02 -4.687500e-02
     vertex -7.500000e-01 -4.687500e-02 -4.687500e-02
   endloop
 endfacet
 facet normal -0.000000e+00  0.000000e+00 -1.000000e+00
   outer loop
     vertex  3.222140e-34  3.906250e-02 -4.687500e-02
     vertex -7.500000e-01 -4.687500e-02 -4.687500e-02
     vertex -7.500000e-01  3.906250e-02 -4.687500e-02
   endloop
 endfacet
 facet normal  1.000000e+00  0.000000e+00  0.000000e+00
   outer loop
     vertex  7.500000e-01  3.906250e-02  3.906250e-02
     vertex  7.500000e-01 -4.687500e-02 -4.687500e-02
     vertex  7.500000e-01  3.906250e-02 -4.687500e-02
   endloop
 endfacet
 facet normal  1.000000e+00  0.000000e+00  0.000000e+00
   outer loop
     vertex  7.500000e-01  3.906250e-02  3.906250e-02
     vertex  7.500000e-01 -4.687500e-02  3.906250e-02
     vertex  7.500000e-01 -4.687500e-02 -4.687500e-02
   endloop
 endfacet
 facet normal  0.000000e+00  0.000000e+00  1.000000e+00
   outer loop
     vertex -5.262154e-18 -4.687500e-02  3.906250e-02
     vertex  7.500000e-01  3.906250e-02  3.906250e-02
     vertex -5.262154e-18  3.906250e-02  3.906250e-02
   endloop
 endfacet
 facet normal  0.000000e+00  0.000000e+00  1.000000e+00
   outer loop
     vertex -5.262154e-18 -4.687500e-02  3.906250e-02
     vertex  7.500000e-01 -4.687500e-02  3.906250e-02
     vertex  7.500000e-01  3.906250e-02  3.906250e-02
   endloop
 endfacet
 facet normal  0.000000e+00 -1.000000e+00  0.000000e+00
   outer loop
     vertex  0.000000e+00 -4.687500e-02 -4.687500e-02
     vertex -5.262154e-18 -4.687500e-02  3.906250e-02
     vertex -7.500000e-01 -4.687500e-02  3.906250e-02
   endloop
 endfacet
 facet normal  0.000000e+00 -1.000000e+00  0.000000e+00
   outer loop
     vertex  0.000000e+00 -4.687500e-02 -4.687500e-02
     vertex -7.500000e-01 -4.687500e-02  3.906250e-02
     vertex -7.500000e-01 -4.687500e-02 -4.687500e-02
   endloop
 endfacet
 facet normal  0.000000e+00  1.000000e+00  0.000000e+00
   outer loop
     vertex -5.262154e-18  3.906250e-02  3.906250e-02
     vertex  3.222140e-34  3.906250e-02 -4.687500e-02
     vertex -7.500000e-01  3.906250e-02 -4.687500e-02
   endloop
 endfacet
 facet normal  0.000000e+00  1.000000e+00  0.000000e+00
   outer loop
     vertex -5.262154e-18  3.906250e-02  3.906250e-02
     vertex -7.500000e-01  3.906250e-02 -4.687500e-02
     vertex -7.500000e-01  3.906250e-02  3.906250e-02
   endloop
 endfacet
 facet normal -1.000000e+00  0.000000e+00 -0.000000e+00
   outer loop
     vertex -7.500000e-01  3.906250e-02  3.906250e-02
     vertex -7.500000e-01  3.906250e-02 -4.687500e-02
     vertex -7.500000e-01 -4.687500e-02 -4.687500e-02
   endloop
 endfacet
 facet normal -1.000000e+00 -0.000000e+00  0.000000e+00
   outer loop
     vertex -7.500000e-01  3.906250e-02  3.906250e-02
     vertex -7.500000e-01 -4.687500e-02 -4.687500e-02
     vertex -7.500000e-01 -4.687500e-02  3.906250e-02
   endloop
 endfacet
 facet normal  0.000000e+00 -0.000000e+00  1.000000e+00
   outer loop
     vertex -5.262154e-18 -4.687500e-02  3.906250e-02
     vertex -5.262154e-18  3.906250e-02  3.906250e-02
     vertex -7.500000e-01  3.906250e-02  3.906250e-02
   endloop
 endfacet
 facet normal  0.000000e+00  0.000000e+00  1.000000e+00
   outer loop
     vertex -5.262154e-18 -4.687500e-02  3.906250e-02
     vertex -7.500000e-01  3.906250e-02  3.906250e-02
     vertex -7.500000e-01 -4.687500e-02  3.906250e-02
   endloop
 endfacet
endsolid
