solid 
 facet normal  8.337566e-01  5.521322e-01  0.000000e+00
   outer loop
     vertex  5.699219e-01  2.866508e-01  0.000000e+00
     vertex  4.880110e-01  4.103417e-01  0.000000e+00
     vertex  4.880110e-01  4.103417e-01  9.375000e-02
   endloop
 endfacet
 facet normal  8.337566e-01  5.521322e-01 -0.000000e+00
   outer loop
     vertex  5.699219e-01  2.866508e-01  0.000000e+00
     vertex  4.880110e-01  4.103417e-01  9.375000e-02
     vertex  5.699219e-01  2.866508e-01  9.375000e-02
   endloop
 endfacet
 facet normal  9.390460e-01  3.437916e-01 -0.000000e+00
   outer loop
     vertex  6.209247e-01  1.473398e-01  0.000000e+00
     vertex  5.699219e-01  2.866508e-01  9.375000e-02
     vertex  6.209247e-01  1.473398e-01  9.375000e-02
   endloop
 endfacet
 facet normal  9.390460e-01  3.437916e-01  0.000000e+00
   outer loop
     vertex  6.209247e-01  1.473398e-01  0.000000e+00
     vertex  5.699219e-01  2.866508e-01  0.000000e+00
     vertex  5.699219e-01  2.866508e-01  9.375000e-02
   endloop
 endfacet
 facet normal  9.931652e-01  1.167172e-01 -0.000000e+00
   outer loop
     vertex  6.382401e-01  0.000000e+00  0.000000e+00
     vertex  6.209247e-01  1.473398e-01  9.375000e-02
     vertex  6.382401e-01  0.000000e+00  9.375000e-02
   endloop
 endfacet
 facet normal  9.931652e-01  1.167172e-01  0.000000e+00
   outer loop
     vertex  6.382401e-01  0.000000e+00  0.000000e+00
     vertex  6.209247e-01  1.473398e-01  0.000000e+00
     vertex  6.209247e-01  1.473398e-01  9.375000e-02
   endloop
 endfacet
 facet normal  0.000000e+00  0.000000e+00 -1.000000e+00
   outer loop
     vertex  5.699219e-01 -2.866508e-01  0.000000e+00
     vertex  3.749451e-01 -5.139708e-01  0.000000e+00
     vertex  2.402340e-01 -5.872907e-01  0.000000e+00
   endloop
 endfacet
 facet normal  0.000000e+00  0.000000e+00 -1.000000e+00
   outer loop
     vertex  5.699219e-01 -2.866508e-01  0.000000e+00
     vertex  4.880110e-01 -4.103417e-01  0.000000e+00
     vertex  3.749451e-01 -5.139708e-01  0.000000e+00
   endloop
 endfacet
 facet normal  0.000000e+00  0.000000e+00 -1.000000e+00
   outer loop
     vertex  6.209247e-01 -1.473398e-01  0.000000e+00
     vertex -3.471766e-01 -5.223182e-01  0.000000e+00
     vertex -4.626078e-01 -4.213304e-01  0.000000e+00
   endloop
 endfacet
 facet normal  0.000000e+00  0.000000e+00 -1.000000e+00
   outer loop
     vertex  6.209247e-01 -1.473398e-01  0.000000e+00
     vertex -2.108067e-01 -5.925046e-01  0.000000e+00
     vertex -3.471766e-01 -5.223182e-01  0.000000e+00
   endloop
 endfacet
 facet normal  0.000000e+00  0.000000e+00 -1.000000e+00
   outer loop
     vertex  6.209247e-01 -1.473398e-01  0.000000e+00
     vertex -6.153976e-02 -6.277506e-01  0.000000e+00
     vertex -2.108067e-01 -5.925046e-01  0.000000e+00
   endloop
 endfacet
 facet normal  0.000000e+00  0.000000e+00 -1.000000e+00
   outer loop
     vertex  6.209247e-01 -1.473398e-01  0.000000e+00
     vertex  9.182175e-02 -6.259778e-01  0.000000e+00
     vertex -6.153976e-02 -6.277506e-01  0.000000e+00
   endloop
 endfacet
 facet normal  0.000000e+00  0.000000e+00 -1.000000e+00
   outer loop
     vertex  6.209247e-01 -1.473398e-01  0.000000e+00
     vertex  2.402340e-01 -5.872907e-01  0.000000e+00
     vertex  9.182175e-02 -6.259778e-01  0.000000e+00
   endloop
 endfacet
 facet normal  0.000000e+00  0.000000e+00 -1.000000e+00
   outer loop
     vertex  6.209247e-01 -1.473398e-01  0.000000e+00
     vertex  5.699219e-01 -2.866508e-01  0.000000e+00
     vertex  2.402340e-01 -5.872907e-01  0.000000e+00
   endloop
 endfacet
 facet normal  0.000000e+00  0.000000e+00 -1.000000e+00
   outer loop
     vertex  6.382401e-01  0.000000e+00  0.000000e+00
     vertex -5.502932e-01  2.954965e-01  0.000000e+00
     vertex -4.626078e-01  4.213304e-01  0.000000e+00
   endloop
 endfacet
 facet normal  0.000000e+00  0.000000e+00 -1.000000e+00
   outer loop
     vertex  6.382401e-01  0.000000e+00  0.000000e+00
     vertex -6.050619e-01  1.522370e-01  0.000000e+00
     vertex -5.502932e-01  2.954965e-01  0.000000e+00
   endloop
 endfacet
 facet normal -0.000000e+00  0.000000e+00 -1.000000e+00
   outer loop
     vertex  6.382401e-01  0.000000e+00  0.000000e+00
     vertex -6.236842e-01 -2.031313e-16  0.000000e+00
     vertex -6.050619e-01  1.522370e-01  0.000000e+00
   endloop
 endfacet
 facet normal  0.000000e+00  0.000000e+00 -1.000000e+00
   outer loop
     vertex  6.382401e-01  0.000000e+00  0.000000e+00
     vertex -6.050619e-01 -1.522370e-01  0.000000e+00
     vertex -6.236842e-01 -2.031313e-16  0.000000e+00
   endloop
 endfacet
 facet normal  0.000000e+00  0.000000e+00 -1.000000e+00
   outer loop
     vertex  6.382401e-01  0.000000e+00  0.000000e+00
     vertex -5.502932e-01 -2.954965e-01  0.000000e+00
     vertex -6.050619e-01 -1.522370e-01  0.000000e+00
   endloop
 endfacet
 facet normal  0.000000e+00  0.000000e+00 -1.000000e+00
   outer loop
     vertex  6.382401e-01  0.000000e+00  0.000000e+00
     vertex -4.626078e-01 -4.213304e-01  0.000000e+00
     vertex -5.502932e-01 -2.954965e-01  0.000000e+00
   endloop
 endfacet
 facet normal  0.000000e+00  0.000000e+00 -1.000000e+00
   outer loop
     vertex  6.382401e-01  0.000000e+00  0.000000e+00
     vertex  6.209247e-01 -1.473398e-01  0.000000e+00
     vertex -4.626078e-01 -4.213304e-01  0.000000e+00
   endloop
 endfacet
 facet normal  0.000000e+00  0.000000e+00 -1.000000e+00
   outer loop
     vertex  6.209247e-01  1.473398e-01  0.000000e+00
     vertex -6.153976e-02  6.277506e-01  0.000000e+00
     vertex  9.182175e-02  6.259778e-01  0.000000e+00
   endloop
 endfacet
 facet normal  0.000000e+00  0.000000e+00 -1.000000e+00
   outer loop
     vertex  6.209247e-01  1.473398e-01  0.000000e+00
     vertex -2.108067e-01  5.925046e-01  0.000000e+00
     vertex -6.153976e-02  6.277506e-01  0.000000e+00
   endloop
 endfacet
 facet normal  0.000000e+00  0.000000e+00 -1.000000e+00
   outer loop
     vertex  6.209247e-01  1.473398e-01  0.000000e+00
     vertex -3.471766e-01  5.223182e-01  0.000000e+00
     vertex -2.108067e-01  5.925046e-01  0.000000e+00
   endloop
 endfacet
 facet normal  0.000000e+00  0.000000e+00 -1.000000e+00
   outer loop
     vertex  6.209247e-01  1.473398e-01  0.000000e+00
     vertex -4.626078e-01  4.213304e-01  0.000000e+00
     vertex -3.471766e-01  5.223182e-01  0.000000e+00
   endloop
 endfacet
 facet normal -0.000000e+00 -0.000000e+00 -1.000000e+00
   outer loop
     vertex  6.209247e-01  1.473398e-01  0.000000e+00
     vertex  6.382401e-01  0.000000e+00  0.000000e+00
     vertex -4.626078e-01  4.213304e-01  0.000000e+00
   endloop
 endfacet
 facet normal -0.000000e+00 -0.000000e+00 -1.000000e+00
   outer loop
     vertex  2.402340e-01  5.872907e-01  0.000000e+00
     vertex  6.209247e-01  1.473398e-01  0.000000e+00
     vertex  9.182175e-02  6.259778e-01  0.000000e+00
   endloop
 endfacet
 facet normal -0.000000e+00 -0.000000e+00 -1.000000e+00
   outer loop
     vertex  5.699219e-01  2.866508e-01  0.000000e+00
     vertex  6.209247e-01  1.473398e-01  0.000000e+00
     vertex  2.402340e-01  5.872907e-01  0.000000e+00
   endloop
 endfacet
 facet normal -0.000000e+00 -0.000000e+00 -1.000000e+00
   outer loop
     vertex  3.749451e-01  5.139708e-01  0.000000e+00
     vertex  5.699219e-01  2.866508e-01  0.000000e+00
     vertex  2.402340e-01  5.872907e-01  0.000000e+00
   endloop
 endfacet
 facet normal -0.000000e+00 -0.000000e+00 -1.000000e+00
   outer loop
     vertex  4.880110e-01  4.103417e-01  0.000000e+00
     vertex  5.699219e-01  2.866508e-01  0.000000e+00
     vertex  3.749451e-01  5.139708e-01  0.000000e+00
   endloop
 endfacet
 facet normal -9.930618e-01  1.175939e-01  0.000000e+00
   outer loop
     vertex  6.220063e-01 -1.475091e-01  0.000000e+00
     vertex  6.394737e-01  0.000000e+00  7.500000e-01
     vertex  6.394737e-01  0.000000e+00  0.000000e+00
   endloop
 endfacet
 facet normal -9.927087e-01  1.205367e-01 -5.869981e-04
   outer loop
     vertex  6.220063e-01 -1.475091e-01  0.000000e+00
     vertex  6.211211e-01 -1.511467e-01  7.500000e-01
     vertex  6.394737e-01  0.000000e+00  7.500000e-01
   endloop
 endfacet
 facet normal -9.350156e-01  3.546047e-01 -1.144601e-03
   outer loop
     vertex  5.705704e-01 -2.868589e-01  0.000000e+00
     vertex  5.671301e-01 -2.935094e-01  7.500000e-01
     vertex  6.211211e-01 -1.511467e-01  7.500000e-01
   endloop
 endfacet
 facet normal -9.381321e-01  3.462772e-01  5.723035e-04
   outer loop
     vertex  5.705704e-01 -2.868589e-01  0.000000e+00
     vertex  6.211211e-01 -1.511467e-01  7.500000e-01
     vertex  6.220063e-01 -1.475091e-01  0.000000e+00
   endloop
 endfacet
 facet normal -8.229824e-01  5.680637e-01 -1.911759e-03
   outer loop
     vertex  4.880110e-01 -4.103417e-01  9.375000e-02
     vertex  4.806384e-01 -4.188143e-01  7.500000e-01
     vertex  5.671301e-01 -2.935094e-01  7.500000e-01
   endloop
 endfacet
 facet normal -8.309171e-01  5.563951e-01  1.122229e-03
   outer loop
     vertex  4.880110e-01 -4.103417e-01  9.375000e-02
     vertex  5.671301e-01 -2.935094e-01  7.500000e-01
     vertex  5.705704e-01 -2.868589e-01  0.000000e+00
   endloop
 endfacet
 facet normal -8.313115e-01  5.558068e-01  0.000000e+00
   outer loop
     vertex  4.880110e-01 -4.103417e-01  0.000000e+00
     vertex  4.880110e-01 -4.103417e-01  9.375000e-02
     vertex  5.705704e-01 -2.868589e-01  0.000000e+00
   endloop
 endfacet
 facet normal -6.631217e-01  7.485096e-01 -1.734197e-03
   outer loop
     vertex  3.749451e-01 -5.139708e-01  9.375000e-02
     vertex  3.666725e-01 -5.197793e-01  7.500000e-01
     vertex  4.806384e-01 -4.188143e-01  7.500000e-01
   endloop
 endfacet
 facet normal -6.756715e-01  7.372003e-01  1.926880e-03
   outer loop
     vertex  3.749451e-01 -5.139708e-01  9.375000e-02
     vertex  4.806384e-01 -4.188143e-01  7.500000e-01
     vertex  4.880110e-01 -4.103417e-01  9.375000e-02
   endloop
 endfacet
 facet normal -4.647226e-01  8.854550e-01 -1.553608e-03
   outer loop
     vertex  2.402340e-01 -5.872907e-01  9.375000e-02
     vertex  2.318557e-01 -5.905366e-01  7.500000e-01
     vertex  3.666725e-01 -5.197793e-01  7.500000e-01
   endloop
 endfacet
 facet normal -4.780531e-01  8.783292e-01  1.747805e-03
   outer loop
     vertex  2.402340e-01 -5.872907e-01  9.375000e-02
     vertex  3.666725e-01 -5.197793e-01  7.500000e-01
     vertex  3.749451e-01 -5.139708e-01  9.375000e-02
   endloop
 endfacet
 facet normal -2.393154e-01  9.709409e-01 -1.369993e-03
   outer loop
     vertex  9.182175e-02 -6.259778e-01  9.375000e-02
     vertex  8.402317e-02 -6.269740e-01  7.500000e-01
     vertex  2.318557e-01 -5.905366e-01  7.500000e-01
   endloop
 endfacet
 facet normal -2.522435e-01  9.676625e-01  1.565703e-03
   outer loop
     vertex  9.182175e-02 -6.259778e-01  9.375000e-02
     vertex  2.318557e-01 -5.905366e-01  7.500000e-01
     vertex  2.402340e-01 -5.872907e-01  9.375000e-02
   endloop
 endfacet
 facet normal  2.187531e-15  9.999993e-01 -1.183352e-03
   outer loop
     vertex -6.153976e-02 -6.277506e-01  9.375000e-02
     vertex -6.823369e-02 -6.269740e-01  7.500000e-01
     vertex  8.402317e-02 -6.269740e-01  7.500000e-01
   endloop
 endfacet
 facet normal -1.155875e-02  9.999322e-01  1.380575e-03
   outer loop
     vertex -6.153976e-02 -6.277506e-01  9.375000e-02
     vertex  8.402317e-02 -6.269740e-01  7.500000e-01
     vertex  9.182175e-02 -6.259778e-01  9.375000e-02
   endloop
 endfacet
 facet normal  2.393155e-01  9.709413e-01 -9.936860e-04
   outer loop
     vertex -2.108067e-01 -5.925046e-01  9.375000e-02
     vertex -2.160662e-01 -5.905366e-01  7.500000e-01
     vertex -6.823369e-02 -6.269740e-01  7.500000e-01
   endloop
 endfacet
 facet normal  2.298077e-01  9.732353e-01  1.192421e-03
   outer loop
     vertex -2.108067e-01 -5.925046e-01  9.375000e-02
     vertex -6.823369e-02 -6.269740e-01  7.500000e-01
     vertex -6.153976e-02 -6.277506e-01  9.375000e-02
   endloop
 endfacet
 facet normal  4.647230e-01  8.854557e-01 -8.009954e-04
   outer loop
     vertex -3.471766e-01 -5.223182e-01  9.375000e-02
     vertex -3.508830e-01 -5.197793e-01  7.500000e-01
     vertex -2.160662e-01 -5.905366e-01  7.500000e-01
   endloop
 endfacet
 facet normal  4.576224e-01  8.891461e-01  1.001243e-03
   outer loop
     vertex -3.471766e-01 -5.223182e-01  9.375000e-02
     vertex -2.160662e-01 -5.905366e-01  7.500000e-01
     vertex -2.108067e-01 -5.925046e-01  9.375000e-02
   endloop
 endfacet
 facet normal  6.584508e-01  7.526233e-01  8.070402e-04
   outer loop
     vertex -4.626078e-01 -4.213304e-01  9.375000e-02
     vertex -3.508830e-01 -5.197793e-01  7.500000e-01
     vertex -3.471766e-01 -5.223182e-01  9.375000e-02
   endloop
 endfacet
 facet normal  6.631225e-01  7.485106e-01 -6.052808e-04
   outer loop
     vertex -4.626078e-01 -4.213304e-01  9.375000e-02
     vertex -4.648489e-01 -4.188143e-01  7.500000e-01
     vertex -3.508830e-01 -5.197793e-01  7.500000e-01
   endloop
 endfacet
 facet normal  8.204501e-01  5.717178e-01  6.098140e-04
   outer loop
     vertex -5.502932e-01 -2.954965e-01  9.375000e-02
     vertex -4.648489e-01 -4.188143e-01  7.500000e-01
     vertex -4.626078e-01 -4.213304e-01  9.375000e-02
   endloop
 endfacet
 facet normal  8.229838e-01  5.680647e-01 -4.065430e-04
   outer loop
     vertex -5.502932e-01 -2.954965e-01  9.375000e-02
     vertex -5.513406e-01 -2.935094e-01  7.500000e-01
     vertex -4.648489e-01 -4.188143e-01  7.500000e-01
   endloop
 endfacet
 facet normal  9.340669e-01  3.570977e-01  4.095648e-04
   outer loop
     vertex -6.050619e-01 -1.522370e-01  9.375000e-02
     vertex -5.513406e-01 -2.935094e-01  7.500000e-01
     vertex -5.502932e-01 -2.954965e-01  9.375000e-02
   endloop
 endfacet
 facet normal  9.350162e-01  3.546049e-01 -2.047825e-04
   outer loop
     vertex -6.050619e-01 -1.522370e-01  9.375000e-02
     vertex -6.053317e-01 -1.511467e-01  7.500000e-01
     vertex -5.513406e-01 -2.935094e-01  7.500000e-01
   endloop
 endfacet
 facet normal  9.926013e-01  1.214193e-01  2.062932e-04
   outer loop
     vertex -6.236842e-01  2.031313e-16  9.375000e-02
     vertex -6.053317e-01 -1.511467e-01  7.500000e-01
     vertex -6.050619e-01 -1.522370e-01  9.375000e-02
   endloop
 endfacet
 facet normal  9.927089e-01 -1.205367e-01  7.992975e-17
   outer loop
     vertex -6.236842e-01  2.031313e-16  9.375000e-02
     vertex -6.053317e-01  1.511467e-01  7.500000e-01
     vertex -6.236842e-01  6.383009e-16  7.500000e-01
   endloop
 endfacet
 facet normal  9.927089e-01  1.205367e-01 -7.992975e-17
   outer loop
     vertex -6.236842e-01  2.031313e-16  9.375000e-02
     vertex -6.236842e-01  6.383009e-16  7.500000e-01
     vertex -6.053317e-01 -1.511467e-01  7.500000e-01
   endloop
 endfacet
 facet normal  9.926013e-01 -1.214193e-01  2.062932e-04
   outer loop
     vertex -6.050619e-01  1.522370e-01  9.375000e-02
     vertex -6.053317e-01  1.511467e-01  7.500000e-01
     vertex -6.236842e-01  2.031313e-16  9.375000e-02
   endloop
 endfacet
 facet normal  9.350162e-01 -3.546049e-01 -2.047825e-04
   outer loop
     vertex -6.050619e-01  1.522370e-01  9.375000e-02
     vertex -5.513406e-01  2.935094e-01  7.500000e-01
     vertex -6.053317e-01  1.511467e-01  7.500000e-01
   endloop
 endfacet
 facet normal  9.340669e-01 -3.570977e-01  4.095648e-04
   outer loop
     vertex -5.502932e-01  2.954965e-01  9.375000e-02
     vertex -5.513406e-01  2.935094e-01  7.500000e-01
     vertex -6.050619e-01  1.522370e-01  9.375000e-02
   endloop
 endfacet
 facet normal  8.229838e-01 -5.680647e-01 -4.065430e-04
   outer loop
     vertex -5.502932e-01  2.954965e-01  9.375000e-02
     vertex -4.648489e-01  4.188143e-01  7.500000e-01
     vertex -5.513406e-01  2.935094e-01  7.500000e-01
   endloop
 endfacet
 facet normal  8.204501e-01 -5.717178e-01  6.098140e-04
   outer loop
     vertex -4.626078e-01  4.213304e-01  9.375000e-02
     vertex -4.648489e-01  4.188143e-01  7.500000e-01
     vertex -5.502932e-01  2.954965e-01  9.375000e-02
   endloop
 endfacet
 facet normal  6.631225e-01 -7.485106e-01 -6.052808e-04
   outer loop
     vertex -4.626078e-01  4.213304e-01  9.375000e-02
     vertex -3.508830e-01  5.197793e-01  7.500000e-01
     vertex -4.648489e-01  4.188143e-01  7.500000e-01
   endloop
 endfacet
 facet normal  6.584508e-01 -7.526233e-01  8.070402e-04
   outer loop
     vertex -3.471766e-01  5.223182e-01  9.375000e-02
     vertex -3.508830e-01  5.197793e-01  7.500000e-01
     vertex -4.626078e-01  4.213304e-01  9.375000e-02
   endloop
 endfacet
 facet normal  4.647230e-01 -8.854557e-01 -8.009954e-04
   outer loop
     vertex -3.471766e-01  5.223182e-01  9.375000e-02
     vertex -2.160662e-01  5.905366e-01  7.500000e-01
     vertex -3.508830e-01  5.197793e-01  7.500000e-01
   endloop
 endfacet
 facet normal  2.393155e-01 -9.709413e-01 -9.936860e-04
   outer loop
     vertex -2.108067e-01  5.925046e-01  9.375000e-02
     vertex -6.823369e-02  6.269740e-01  7.500000e-01
     vertex -2.160662e-01  5.905366e-01  7.500000e-01
   endloop
 endfacet
 facet normal  4.576224e-01 -8.891461e-01  1.001243e-03
   outer loop
     vertex -2.108067e-01  5.925046e-01  9.375000e-02
     vertex -2.160662e-01  5.905366e-01  7.500000e-01
     vertex -3.471766e-01  5.223182e-01  9.375000e-02
   endloop
 endfacet
 facet normal  0.000000e+00 -9.999993e-01 -1.183352e-03
   outer loop
     vertex -6.153976e-02  6.277506e-01  9.375000e-02
     vertex  8.402317e-02  6.269740e-01  7.500000e-01
     vertex -6.823369e-02  6.269740e-01  7.500000e-01
   endloop
 endfacet
 facet normal  2.298077e-01 -9.732353e-01  1.192421e-03
   outer loop
     vertex -6.153976e-02  6.277506e-01  9.375000e-02
     vertex -6.823369e-02  6.269740e-01  7.500000e-01
     vertex -2.108067e-01  5.925046e-01  9.375000e-02
   endloop
 endfacet
 facet normal -2.393154e-01 -9.709409e-01 -1.369993e-03
   outer loop
     vertex  9.182175e-02  6.259778e-01  9.375000e-02
     vertex  2.318557e-01  5.905366e-01  7.500000e-01
     vertex  8.402317e-02  6.269740e-01  7.500000e-01
   endloop
 endfacet
 facet normal -1.155875e-02 -9.999322e-01  1.380575e-03
   outer loop
     vertex  9.182175e-02  6.259778e-01  9.375000e-02
     vertex  8.402317e-02  6.269740e-01  7.500000e-01
     vertex -6.153976e-02  6.277506e-01  9.375000e-02
   endloop
 endfacet
 facet normal -4.647226e-01 -8.854550e-01 -1.553608e-03
   outer loop
     vertex  2.402340e-01  5.872907e-01  9.375000e-02
     vertex  3.666725e-01  5.197793e-01  7.500000e-01
     vertex  2.318557e-01  5.905366e-01  7.500000e-01
   endloop
 endfacet
 facet normal -2.522435e-01 -9.676625e-01  1.565703e-03
   outer loop
     vertex  2.402340e-01  5.872907e-01  9.375000e-02
     vertex  2.318557e-01  5.905366e-01  7.500000e-01
     vertex  9.182175e-02  6.259778e-01  9.375000e-02
   endloop
 endfacet
 facet normal -6.631217e-01 -7.485096e-01 -1.734197e-03
   outer loop
     vertex  3.749451e-01  5.139708e-01  9.375000e-02
     vertex  4.806384e-01  4.188143e-01  7.500000e-01
     vertex  3.666725e-01  5.197793e-01  7.500000e-01
   endloop
 endfacet
 facet normal -4.780531e-01 -8.783292e-01  1.747805e-03
   outer loop
     vertex  3.749451e-01  5.139708e-01  9.375000e-02
     vertex  3.666725e-01  5.197793e-01  7.500000e-01
     vertex  2.402340e-01  5.872907e-01  9.375000e-02
   endloop
 endfacet
 facet normal -8.229824e-01 -5.680637e-01 -1.911759e-03
   outer loop
     vertex  4.880110e-01  4.103417e-01  9.375000e-02
     vertex  5.671301e-01  2.935094e-01  7.500000e-01
     vertex  4.806384e-01  4.188143e-01  7.500000e-01
   endloop
 endfacet
 facet normal -6.756715e-01 -7.372003e-01  1.926880e-03
   outer loop
     vertex  4.880110e-01  4.103417e-01  9.375000e-02
     vertex  4.806384e-01  4.188143e-01  7.500000e-01
     vertex  3.749451e-01  5.139708e-01  9.375000e-02
   endloop
 endfacet
 facet normal -8.313115e-01 -5.558068e-01  0.000000e+00
   outer loop
     vertex  5.705704e-01  2.868589e-01  0.000000e+00
     vertex  4.880110e-01  4.103417e-01  9.375000e-02
     vertex  4.880110e-01  4.103417e-01  0.000000e+00
   endloop
 endfacet
 facet normal -9.350156e-01 -3.546047e-01 -1.144601e-03
   outer loop
     vertex  5.705704e-01  2.868589e-01  0.000000e+00
     vertex  6.211211e-01  1.511467e-01  7.500000e-01
     vertex  5.671301e-01  2.935094e-01  7.500000e-01
   endloop
 endfacet
 facet normal -8.309171e-01 -5.563951e-01  1.122229e-03
   outer loop
     vertex  5.705704e-01  2.868589e-01  0.000000e+00
     vertex  5.671301e-01  2.935094e-01  7.500000e-01
     vertex  4.880110e-01  4.103417e-01  9.375000e-02
   endloop
 endfacet
 facet normal -9.927087e-01 -1.205367e-01 -5.869981e-04
   outer loop
     vertex  6.220063e-01  1.475091e-01  0.000000e+00
     vertex  6.394737e-01  0.000000e+00  7.500000e-01
     vertex  6.211211e-01  1.511467e-01  7.500000e-01
   endloop
 endfacet
 facet normal -9.381321e-01 -3.462772e-01  5.723035e-04
   outer loop
     vertex  6.220063e-01  1.475091e-01  0.000000e+00
     vertex  6.211211e-01  1.511467e-01  7.500000e-01
     vertex  5.705704e-01  2.868589e-01  0.000000e+00
   endloop
 endfacet
 facet normal -9.930618e-01 -1.175939e-01  0.000000e+00
   outer loop
     vertex  6.394737e-01  0.000000e+00  0.000000e+00
     vertex  6.394737e-01  0.000000e+00  7.500000e-01
     vertex  6.220063e-01  1.475091e-01  0.000000e+00
   endloop
 endfacet
 facet normal  0.000000e+00  0.000000e+00  1.000000e+00
   outer loop
     vertex  5.699219e-01 -2.866508e-01  9.375000e-02
     vertex  3.749451e-01 -5.139708e-01  9.375000e-02
     vertex  4.880110e-01 -4.103417e-01  9.375000e-02
   endloop
 endfacet
 facet normal  0.000000e+00  0.000000e+00  1.000000e+00
   outer loop
     vertex  5.699219e-01 -2.866508e-01  9.375000e-02
     vertex  2.402340e-01 -5.872907e-01  9.375000e-02
     vertex  3.749451e-01 -5.139708e-01  9.375000e-02
   endloop
 endfacet
 facet normal  0.000000e+00  0.000000e+00  1.000000e+00
   outer loop
     vertex  6.209247e-01 -1.473398e-01  9.375000e-02
     vertex  9.182175e-02 -6.259778e-01  9.375000e-02
     vertex  2.402340e-01 -5.872907e-01  9.375000e-02
   endloop
 endfacet
 facet normal  0.000000e+00  0.000000e+00  1.000000e+00
   outer loop
     vertex  6.209247e-01 -1.473398e-01  9.375000e-02
     vertex -6.153976e-02 -6.277506e-01  9.375000e-02
     vertex  9.182175e-02 -6.259778e-01  9.375000e-02
   endloop
 endfacet
 facet normal  0.000000e+00  0.000000e+00  1.000000e+00
   outer loop
     vertex  6.209247e-01 -1.473398e-01  9.375000e-02
     vertex -2.108067e-01 -5.925046e-01  9.375000e-02
     vertex -6.153976e-02 -6.277506e-01  9.375000e-02
   endloop
 endfacet
 facet normal  0.000000e+00  0.000000e+00  1.000000e+00
   outer loop
     vertex  6.209247e-01 -1.473398e-01  9.375000e-02
     vertex -3.471766e-01 -5.223182e-01  9.375000e-02
     vertex -2.108067e-01 -5.925046e-01  9.375000e-02
   endloop
 endfacet
 facet normal  0.000000e+00  0.000000e+00  1.000000e+00
   outer loop
     vertex  6.209247e-01 -1.473398e-01  9.375000e-02
     vertex -4.626078e-01 -4.213304e-01  9.375000e-02
     vertex -3.471766e-01 -5.223182e-01  9.375000e-02
   endloop
 endfacet
 facet normal  0.000000e+00  0.000000e+00  1.000000e+00
   outer loop
     vertex  6.209247e-01 -1.473398e-01  9.375000e-02
     vertex  2.402340e-01 -5.872907e-01  9.375000e-02
     vertex  5.699219e-01 -2.866508e-01  9.375000e-02
   endloop
 endfacet
 facet normal  0.000000e+00  0.000000e+00  1.000000e+00
   outer loop
     vertex  6.382401e-01  0.000000e+00  9.375000e-02
     vertex -5.502932e-01 -2.954965e-01  9.375000e-02
     vertex -4.626078e-01 -4.213304e-01  9.375000e-02
   endloop
 endfacet
 facet normal  0.000000e+00  0.000000e+00  1.000000e+00
   outer loop
     vertex  6.382401e-01  0.000000e+00  9.375000e-02
     vertex -6.050619e-01 -1.522370e-01  9.375000e-02
     vertex -5.502932e-01 -2.954965e-01  9.375000e-02
   endloop
 endfacet
 facet normal  0.000000e+00  0.000000e+00  1.000000e+00
   outer loop
     vertex  6.382401e-01  0.000000e+00  9.375000e-02
     vertex -6.236842e-01  2.031313e-16  9.375000e-02
     vertex -6.050619e-01 -1.522370e-01  9.375000e-02
   endloop
 endfacet
 facet normal  0.000000e+00  0.000000e+00  1.000000e+00
   outer loop
     vertex  6.382401e-01  0.000000e+00  9.375000e-02
     vertex -6.050619e-01  1.522370e-01  9.375000e-02
     vertex -6.236842e-01  2.031313e-16  9.375000e-02
   endloop
 endfacet
 facet normal  0.000000e+00  0.000000e+00  1.000000e+00
   outer loop
     vertex  6.382401e-01  0.000000e+00  9.375000e-02
     vertex -5.502932e-01  2.954965e-01  9.375000e-02
     vertex -6.050619e-01  1.522370e-01  9.375000e-02
   endloop
 endfacet
 facet normal  0.000000e+00  0.000000e+00  1.000000e+00
   outer loop
     vertex  6.382401e-01  0.000000e+00  9.375000e-02
     vertex -4.626078e-01  4.213304e-01  9.375000e-02
     vertex -5.502932e-01  2.954965e-01  9.375000e-02
   endloop
 endfacet
 facet normal  0.000000e+00  0.000000e+00  1.000000e+00
   outer loop
     vertex  6.382401e-01  0.000000e+00  9.375000e-02
     vertex -4.626078e-01 -4.213304e-01  9.375000e-02
     vertex  6.209247e-01 -1.473398e-01  9.375000e-02
   endloop
 endfacet
 facet normal  0.000000e+00  0.000000e+00  1.000000e+00
   outer loop
     vertex  6.209247e-01  1.473398e-01  9.375000e-02
     vertex -3.471766e-01  5.223182e-01  9.375000e-02
     vertex -4.626078e-01  4.213304e-01  9.375000e-02
   endloop
 endfacet
 facet normal  0.000000e+00  0.000000e+00  1.000000e+00
   outer loop
     vertex  6.209247e-01  1.473398e-01  9.375000e-02
     vertex -2.108067e-01  5.925046e-01  9.375000e-02
     vertex -3.471766e-01  5.223182e-01  9.375000e-02
   endloop
 endfacet
 facet normal  0.000000e+00  0.000000e+00  1.000000e+00
   outer loop
     vertex  6.209247e-01  1.473398e-01  9.375000e-02
     vertex -6.153976e-02  6.277506e-01  9.375000e-02
     vertex -2.108067e-01  5.925046e-01  9.375000e-02
   endloop
 endfacet
 facet normal  0.000000e+00  0.000000e+00  1.000000e+00
   outer loop
     vertex  6.209247e-01  1.473398e-01  9.375000e-02
     vertex  9.182175e-02  6.259778e-01  9.375000e-02
     vertex -6.153976e-02  6.277506e-01  9.375000e-02
   endloop
 endfacet
 facet normal  0.000000e+00  0.000000e+00  1.000000e+00
   outer loop
     vertex  6.209247e-01  1.473398e-01  9.375000e-02
     vertex -4.626078e-01  4.213304e-01  9.375000e-02
     vertex  6.382401e-01  0.000000e+00  9.375000e-02
   endloop
 endfacet
 facet normal  0.000000e+00  0.000000e+00  1.000000e+00
   outer loop
     vertex  2.402340e-01  5.872907e-01  9.375000e-02
     vertex  9.182175e-02  6.259778e-01  9.375000e-02
     vertex  6.209247e-01  1.473398e-01  9.375000e-02
   endloop
 endfacet
 facet normal  0.000000e+00  0.000000e+00  1.000000e+00
   outer loop
     vertex  5.699219e-01  2.866508e-01  9.375000e-02
     vertex  2.402340e-01  5.872907e-01  9.375000e-02
     vertex  6.209247e-01  1.473398e-01  9.375000e-02
   endloop
 endfacet
 facet normal  0.000000e+00  0.000000e+00  1.000000e+00
   outer loop
     vertex  3.749451e-01  5.139708e-01  9.375000e-02
     vertex  2.402340e-01  5.872907e-01  9.375000e-02
     vertex  5.699219e-01  2.866508e-01  9.375000e-02
   endloop
 endfacet
 facet normal  0.000000e+00  0.000000e+00  1.000000e+00
   outer loop
     vertex  4.880110e-01  4.103417e-01  9.375000e-02
     vertex  3.749451e-01  5.139708e-01  9.375000e-02
     vertex  5.699219e-01  2.866508e-01  9.375000e-02
   endloop
 endfacet
 facet normal  9.931652e-01 -1.167172e-01  0.000000e+00
   outer loop
     vertex  6.209247e-01 -1.473398e-01  0.000000e+00
     vertex  6.382401e-01  0.000000e+00  9.375000e-02
     vertex  6.209247e-01 -1.473398e-01  9.375000e-02
   endloop
 endfacet
 facet normal  9.931652e-01 -1.167172e-01  0.000000e+00
   outer loop
     vertex  6.209247e-01 -1.473398e-01  0.000000e+00
     vertex  6.382401e-01  0.000000e+00  0.000000e+00
     vertex  6.382401e-01  0.000000e+00  9.375000e-02
   endloop
 endfacet
 facet normal  9.390460e-01 -3.437916e-01  0.000000e+00
   outer loop
     vertex  5.699219e-01 -2.866508e-01  0.000000e+00
     vertex  6.209247e-01 -1.473398e-01  9.375000e-02
     vertex  5.699219e-01 -2.866508e-01  9.375000e-02
   endloop
 endfacet
 facet normal  9.390460e-01 -3.437916e-01  0.000000e+00
   outer loop
     vertex  5.699219e-01 -2.866508e-01  0.000000e+00
     vertex  6.209247e-01 -1.473398e-01  0.000000e+00
     vertex  6.209247e-01 -1.473398e-01  9.375000e-02
   endloop
 endfacet
 facet normal  8.337566e-01 -5.521322e-01  0.000000e+00
   outer loop
     vertex  4.880110e-01 -4.103417e-01  0.000000e+00
     vertex  5.699219e-01 -2.866508e-01  9.375000e-02
     vertex  4.880110e-01 -4.103417e-01  9.375000e-02
   endloop
 endfacet
 facet normal  8.337566e-01 -5.521322e-01  0.000000e+00
   outer loop
     vertex  4.880110e-01 -4.103417e-01  0.000000e+00
     vertex  5.699219e-01 -2.866508e-01  0.000000e+00
     vertex  5.699219e-01 -2.866508e-01  9.375000e-02
   endloop
 endfacet
 facet normal  0.000000e+00  0.000000e+00 -1.000000e+00
   outer loop
     vertex -3.534624e-01 -5.263385e-01  0.000000e+00
     vertex -4.700551e-01 -4.247155e-01  0.000000e+00
     vertex -4.626078e-01 -4.213304e-01  0.000000e+00
   endloop
 endfacet
 facet normal -0.000000e+00  0.000000e+00 -1.000000e+00
   outer loop
     vertex -3.471766e-01 -5.223182e-01  0.000000e+00
     vertex -3.534624e-01 -5.263385e-01  0.000000e+00
     vertex -4.626078e-01 -4.213304e-01  0.000000e+00
   endloop
 endfacet
 facet normal  0.000000e+00 -0.000000e+00 -1.000000e+00
   outer loop
     vertex -5.502932e-01 -2.954965e-01  0.000000e+00
     vertex -4.700551e-01 -4.247155e-01  0.000000e+00
     vertex -5.586475e-01 -2.979382e-01  0.000000e+00
   endloop
 endfacet
 facet normal  0.000000e+00  0.000000e+00 -1.000000e+00
   outer loop
     vertex -5.502932e-01 -2.954965e-01  0.000000e+00
     vertex -4.626078e-01 -4.213304e-01  0.000000e+00
     vertex -4.700551e-01 -4.247155e-01  0.000000e+00
   endloop
 endfacet
 facet normal  0.000000e+00  0.000000e+00 -1.000000e+00
   outer loop
     vertex -2.157748e-01 -5.967884e-01  0.000000e+00
     vertex -3.534624e-01 -5.263385e-01  0.000000e+00
     vertex -3.471766e-01 -5.223182e-01  0.000000e+00
   endloop
 endfacet
 facet normal -0.000000e+00  0.000000e+00 -1.000000e+00
   outer loop
     vertex -2.108067e-01 -5.925046e-01  0.000000e+00
     vertex -2.157748e-01 -5.967884e-01  0.000000e+00
     vertex -3.471766e-01 -5.223182e-01  0.000000e+00
   endloop
 endfacet
 facet normal  0.000000e+00 -0.000000e+00 -1.000000e+00
   outer loop
     vertex -6.050619e-01 -1.522370e-01  0.000000e+00
     vertex -5.586475e-01 -2.979382e-01  0.000000e+00
     vertex -6.139926e-01 -1.535151e-01  0.000000e+00
   endloop
 endfacet
 facet normal  0.000000e+00  0.000000e+00 -1.000000e+00
   outer loop
     vertex -6.050619e-01 -1.522370e-01  0.000000e+00
     vertex -5.502932e-01 -2.954965e-01  0.000000e+00
     vertex -5.586475e-01 -2.979382e-01  0.000000e+00
   endloop
 endfacet
 facet normal  0.000000e+00  0.000000e+00 -1.000000e+00
   outer loop
     vertex -6.514688e-02 -6.318929e-01  0.000000e+00
     vertex -2.157748e-01 -5.967884e-01  0.000000e+00
     vertex -2.108067e-01 -5.925046e-01  0.000000e+00
   endloop
 endfacet
 facet normal -0.000000e+00  0.000000e+00 -1.000000e+00
   outer loop
     vertex -6.153976e-02 -6.277506e-01  0.000000e+00
     vertex -6.514688e-02 -6.318929e-01  0.000000e+00
     vertex -2.108067e-01 -5.925046e-01  0.000000e+00
   endloop
 endfacet
 facet normal  0.000000e+00 -0.000000e+00 -1.000000e+00
   outer loop
     vertex -6.236842e-01 -2.031313e-16  0.000000e+00
     vertex -6.139926e-01 -1.535151e-01  0.000000e+00
     vertex -6.328125e-01 -4.866312e-16  0.000000e+00
   endloop
 endfacet
 facet normal  0.000000e+00  0.000000e+00 -1.000000e+00
   outer loop
     vertex -6.236842e-01 -2.031313e-16  0.000000e+00
     vertex -6.050619e-01 -1.522370e-01  0.000000e+00
     vertex -6.139926e-01 -1.535151e-01  0.000000e+00
   endloop
 endfacet
 facet normal -0.000000e+00  0.000000e+00 -1.000000e+00
   outer loop
     vertex  8.950016e-02 -6.295727e-01  0.000000e+00
     vertex -6.514688e-02 -6.318929e-01  0.000000e+00
     vertex -6.153976e-02 -6.277506e-01  0.000000e+00
   endloop
 endfacet
 facet normal  0.000000e+00  0.000000e+00 -1.000000e+00
   outer loop
     vertex  9.182175e-02 -6.259778e-01  0.000000e+00
     vertex  8.950016e-02 -6.295727e-01  0.000000e+00
     vertex -6.153976e-02 -6.277506e-01  0.000000e+00
   endloop
 endfacet
 facet normal  0.000000e+00  0.000000e+00 -1.000000e+00
   outer loop
     vertex -6.139926e-01  1.535151e-01  0.000000e+00
     vertex -6.236842e-01 -2.031313e-16  0.000000e+00
     vertex -6.328125e-01 -4.866312e-16  0.000000e+00
   endloop
 endfacet
 facet normal -0.000000e+00  0.000000e+00 -1.000000e+00
   outer loop
     vertex -6.050619e-01  1.522370e-01  0.000000e+00
     vertex -6.236842e-01 -2.031313e-16  0.000000e+00
     vertex -6.139926e-01  1.535151e-01  0.000000e+00
   endloop
 endfacet
 facet normal  0.000000e+00  0.000000e+00 -1.000000e+00
   outer loop
     vertex  2.390072e-01 -5.899654e-01  0.000000e+00
     vertex  8.950016e-02 -6.295727e-01  0.000000e+00
     vertex  9.182175e-02 -6.259778e-01  0.000000e+00
   endloop
 endfacet
 facet normal  0.000000e+00  0.000000e+00 -1.000000e+00
   outer loop
     vertex  2.402340e-01 -5.872907e-01  0.000000e+00
     vertex  2.390072e-01 -5.899654e-01  0.000000e+00
     vertex  9.182175e-02 -6.259778e-01  0.000000e+00
   endloop
 endfacet
 facet normal  0.000000e+00  0.000000e+00 -1.000000e+00
   outer loop
     vertex -5.586475e-01  2.979382e-01  0.000000e+00
     vertex -6.050619e-01  1.522370e-01  0.000000e+00
     vertex -6.139926e-01  1.535151e-01  0.000000e+00
   endloop
 endfacet
 facet normal -0.000000e+00  0.000000e+00 -1.000000e+00
   outer loop
     vertex -5.502932e-01  2.954965e-01  0.000000e+00
     vertex -6.050619e-01  1.522370e-01  0.000000e+00
     vertex -5.586475e-01  2.979382e-01  0.000000e+00
   endloop
 endfacet
 facet normal  0.000000e+00  0.000000e+00 -1.000000e+00
   outer loop
     vertex  3.745194e-01 -5.154166e-01  0.000000e+00
     vertex  2.390072e-01 -5.899654e-01  0.000000e+00
     vertex  2.402340e-01 -5.872907e-01  0.000000e+00
   endloop
 endfacet
 facet normal  0.000000e+00  0.000000e+00 -1.000000e+00
   outer loop
     vertex  3.749451e-01 -5.139708e-01  0.000000e+00
     vertex  3.745194e-01 -5.154166e-01  0.000000e+00
     vertex  2.402340e-01 -5.872907e-01  0.000000e+00
   endloop
 endfacet
 facet normal  0.000000e+00  0.000000e+00 -1.000000e+00
   outer loop
     vertex -4.700551e-01  4.247155e-01  0.000000e+00
     vertex -5.502932e-01  2.954965e-01  0.000000e+00
     vertex -5.586475e-01  2.979382e-01  0.000000e+00
   endloop
 endfacet
 facet normal -0.000000e+00  0.000000e+00 -1.000000e+00
   outer loop
     vertex -4.626078e-01  4.213304e-01  0.000000e+00
     vertex -5.502932e-01  2.954965e-01  0.000000e+00
     vertex -4.700551e-01  4.247155e-01  0.000000e+00
   endloop
 endfacet
 facet normal  0.000000e+00  0.000000e+00 -1.000000e+00
   outer loop
     vertex  4.880110e-01 -4.103417e-01  0.000000e+00
     vertex  3.745194e-01 -5.154166e-01  0.000000e+00
     vertex  3.749451e-01 -5.139708e-01  0.000000e+00
   endloop
 endfacet
 facet normal  0.000000e+00  0.000000e+00 -1.000000e+00
   outer loop
     vertex -3.534624e-01  5.263385e-01  0.000000e+00
     vertex -4.626078e-01  4.213304e-01  0.000000e+00
     vertex -4.700551e-01  4.247155e-01  0.000000e+00
   endloop
 endfacet
 facet normal -0.000000e+00  0.000000e+00 -1.000000e+00
   outer loop
     vertex -3.471766e-01  5.223182e-01  0.000000e+00
     vertex -4.626078e-01  4.213304e-01  0.000000e+00
     vertex -3.534624e-01  5.263385e-01  0.000000e+00
   endloop
 endfacet
 facet normal  0.000000e+00  0.000000e+00 -1.000000e+00
   outer loop
     vertex -2.157748e-01  5.967884e-01  0.000000e+00
     vertex -3.471766e-01  5.223182e-01  0.000000e+00
     vertex -3.534624e-01  5.263385e-01  0.000000e+00
   endloop
 endfacet
 facet normal -0.000000e+00  0.000000e+00 -1.000000e+00
   outer loop
     vertex -2.108067e-01  5.925046e-01  0.000000e+00
     vertex -3.471766e-01  5.223182e-01  0.000000e+00
     vertex -2.157748e-01  5.967884e-01  0.000000e+00
   endloop
 endfacet
 facet normal  0.000000e+00  0.000000e+00 -1.000000e+00
   outer loop
     vertex -6.514688e-02  6.318929e-01  0.000000e+00
     vertex -2.108067e-01  5.925046e-01  0.000000e+00
     vertex -2.157748e-01  5.967884e-01  0.000000e+00
   endloop
 endfacet
 facet normal  0.000000e+00 -0.000000e+00 -1.000000e+00
   outer loop
     vertex -6.514688e-02  6.318929e-01  0.000000e+00
     vertex -6.153976e-02  6.277506e-01  0.000000e+00
     vertex -2.108067e-01  5.925046e-01  0.000000e+00
   endloop
 endfacet
 facet normal  0.000000e+00 -0.000000e+00 -1.000000e+00
   outer loop
     vertex  8.950016e-02  6.295727e-01  0.000000e+00
     vertex  9.182175e-02  6.259778e-01  0.000000e+00
     vertex -6.153976e-02  6.277506e-01  0.000000e+00
   endloop
 endfacet
 facet normal -0.000000e+00  0.000000e+00 -1.000000e+00
   outer loop
     vertex  8.950016e-02  6.295727e-01  0.000000e+00
     vertex -6.153976e-02  6.277506e-01  0.000000e+00
     vertex -6.514688e-02  6.318929e-01  0.000000e+00
   endloop
 endfacet
 facet normal -0.000000e+00 -0.000000e+00 -1.000000e+00
   outer loop
     vertex  2.390072e-01  5.899654e-01  0.000000e+00
     vertex  2.402340e-01  5.872907e-01  0.000000e+00
     vertex  9.182175e-02  6.259778e-01  0.000000e+00
   endloop
 endfacet
 facet normal  0.000000e+00  0.000000e+00 -1.000000e+00
   outer loop
     vertex  2.390072e-01  5.899654e-01  0.000000e+00
     vertex  9.182175e-02  6.259778e-01  0.000000e+00
     vertex  8.950016e-02  6.295727e-01  0.000000e+00
   endloop
 endfacet
 facet normal -0.000000e+00 -0.000000e+00 -1.000000e+00
   outer loop
     vertex  3.745194e-01  5.154166e-01  0.000000e+00
     vertex  3.749451e-01  5.139708e-01  0.000000e+00
     vertex  2.402340e-01  5.872907e-01  0.000000e+00
   endloop
 endfacet
 facet normal  0.000000e+00  0.000000e+00 -1.000000e+00
   outer loop
     vertex  3.745194e-01  5.154166e-01  0.000000e+00
     vertex  2.402340e-01  5.872907e-01  0.000000e+00
     vertex  2.390072e-01  5.899654e-01  0.000000e+00
   endloop
 endfacet
 facet normal  0.000000e+00  0.000000e+00 -1.000000e+00
   outer loop
     vertex  4.880110e-01  4.103417e-01  0.000000e+00
     vertex  3.749451e-01  5.139708e-01  0.000000e+00
     vertex  3.745194e-01  5.154166e-01  0.000000e+00
   endloop
 endfacet
 facet normal  0.000000e+00 -0.000000e+00 -1.000000e+00
   outer loop
     vertex -4.700551e-01 -4.247155e-01  0.000000e+00
     vertex -4.226385e-01 -6.237351e-01  0.000000e+00
     vertex -5.593976e-01 -5.025772e-01  0.000000e+00
   endloop
 endfacet
 facet normal  0.000000e+00 -0.000000e+00 -1.000000e+00
   outer loop
     vertex -3.534624e-01 -5.263385e-01  0.000000e+00
     vertex -2.608584e-01 -7.086439e-01  0.000000e+00
     vertex -4.226385e-01 -6.237351e-01  0.000000e+00
   endloop
 endfacet
 facet normal -0.000000e+00  0.000000e+00 -1.000000e+00
   outer loop
     vertex -3.534624e-01 -5.263385e-01  0.000000e+00
     vertex -4.226385e-01 -6.237351e-01  0.000000e+00
     vertex -4.700551e-01 -4.247155e-01  0.000000e+00
   endloop
 endfacet
 facet normal  0.000000e+00  0.000000e+00 -1.000000e+00
   outer loop
     vertex -5.586475e-01 -2.979382e-01  0.000000e+00
     vertex -5.593976e-01 -5.025772e-01  0.000000e+00
     vertex -6.631877e-01 -3.522112e-01  0.000000e+00
   endloop
 endfacet
 facet normal  0.000000e+00 -0.000000e+00 -1.000000e+00
   outer loop
     vertex -5.586475e-01 -2.979382e-01  0.000000e+00
     vertex -4.700551e-01 -4.247155e-01  0.000000e+00
     vertex -5.593976e-01 -5.025772e-01  0.000000e+00
   endloop
 endfacet
 facet normal  0.000000e+00 -0.000000e+00 -1.000000e+00
   outer loop
     vertex -2.157748e-01 -5.967884e-01  0.000000e+00
     vertex -8.345938e-02 -7.523688e-01  0.000000e+00
     vertex -2.608584e-01 -7.086439e-01  0.000000e+00
   endloop
 endfacet
 facet normal -0.000000e+00  0.000000e+00 -1.000000e+00
   outer loop
     vertex -2.157748e-01 -5.967884e-01  0.000000e+00
     vertex -2.608584e-01 -7.086439e-01  0.000000e+00
     vertex -3.534624e-01 -5.263385e-01  0.000000e+00
   endloop
 endfacet
 facet normal  0.000000e+00  0.000000e+00 -1.000000e+00
   outer loop
     vertex -6.139926e-01 -1.535151e-01  0.000000e+00
     vertex -6.631877e-01 -3.522112e-01  0.000000e+00
     vertex -7.279770e-01 -1.813761e-01  0.000000e+00
   endloop
 endfacet
 facet normal  0.000000e+00 -0.000000e+00 -1.000000e+00
   outer loop
     vertex -6.139926e-01 -1.535151e-01  0.000000e+00
     vertex -5.586475e-01 -2.979382e-01  0.000000e+00
     vertex -6.631877e-01 -3.522112e-01  0.000000e+00
   endloop
 endfacet
 facet normal -0.000000e+00  0.000000e+00 -1.000000e+00
   outer loop
     vertex -6.514688e-02 -6.318929e-01  0.000000e+00
     vertex -8.345938e-02 -7.523688e-01  0.000000e+00
     vertex -2.157748e-01 -5.967884e-01  0.000000e+00
   endloop
 endfacet
 facet normal  0.000000e+00  0.000000e+00 -1.000000e+00
   outer loop
     vertex  9.924885e-02 -7.523688e-01  0.000000e+00
     vertex -8.345938e-02 -7.523688e-01  0.000000e+00
     vertex -6.514688e-02 -6.318929e-01  0.000000e+00
   endloop
 endfacet
 facet normal -0.000000e+00  0.000000e+00 -1.000000e+00
   outer loop
     vertex -6.328125e-01 -4.866312e-16  0.000000e+00
     vertex -7.279770e-01 -1.813761e-01  0.000000e+00
     vertex -7.500000e-01  7.659611e-16  0.000000e+00
   endloop
 endfacet
 facet normal  0.000000e+00 -0.000000e+00 -1.000000e+00
   outer loop
     vertex -6.328125e-01 -4.866312e-16  0.000000e+00
     vertex -6.139926e-01 -1.535151e-01  0.000000e+00
     vertex -7.279770e-01 -1.813761e-01  0.000000e+00
   endloop
 endfacet
 facet normal  0.000000e+00 -0.000000e+00 -1.000000e+00
   outer loop
     vertex -7.279770e-01  1.813761e-01  0.000000e+00
     vertex -6.328125e-01 -4.866312e-16  0.000000e+00
     vertex -7.500000e-01  7.659611e-16  0.000000e+00
   endloop
 endfacet
 facet normal  0.000000e+00 -0.000000e+00 -1.000000e+00
   outer loop
     vertex  8.950016e-02 -6.295727e-01  0.000000e+00
     vertex  9.924885e-02 -7.523688e-01  0.000000e+00
     vertex -6.514688e-02 -6.318929e-01  0.000000e+00
   endloop
 endfacet
 facet normal -0.000000e+00  0.000000e+00 -1.000000e+00
   outer loop
     vertex -6.139926e-01  1.535151e-01  0.000000e+00
     vertex -6.328125e-01 -4.866312e-16  0.000000e+00
     vertex -7.279770e-01  1.813761e-01  0.000000e+00
   endloop
 endfacet
 facet normal -0.000000e+00  0.000000e+00 -1.000000e+00
   outer loop
     vertex  2.766479e-01 -7.086439e-01  0.000000e+00
     vertex  9.924885e-02 -7.523688e-01  0.000000e+00
     vertex  8.950016e-02 -6.295727e-01  0.000000e+00
   endloop
 endfacet
 facet normal  0.000000e+00 -0.000000e+00 -1.000000e+00
   outer loop
     vertex  2.390072e-01 -5.899654e-01  0.000000e+00
     vertex  2.766479e-01 -7.086439e-01  0.000000e+00
     vertex  8.950016e-02 -6.295727e-01  0.000000e+00
   endloop
 endfacet
 facet normal  0.000000e+00 -0.000000e+00 -1.000000e+00
   outer loop
     vertex -6.631877e-01  3.522112e-01  0.000000e+00
     vertex -6.139926e-01  1.535151e-01  0.000000e+00
     vertex -7.279770e-01  1.813761e-01  0.000000e+00
   endloop
 endfacet
 facet normal -0.000000e+00  0.000000e+00 -1.000000e+00
   outer loop
     vertex -5.586475e-01  2.979382e-01  0.000000e+00
     vertex -6.139926e-01  1.535151e-01  0.000000e+00
     vertex -6.631877e-01  3.522112e-01  0.000000e+00
   endloop
 endfacet
 facet normal -0.000000e+00  0.000000e+00 -1.000000e+00
   outer loop
     vertex  4.384280e-01 -6.237351e-01  0.000000e+00
     vertex  2.766479e-01 -7.086439e-01  0.000000e+00
     vertex  2.390072e-01 -5.899654e-01  0.000000e+00
   endloop
 endfacet
 facet normal  0.000000e+00 -0.000000e+00 -1.000000e+00
   outer loop
     vertex  3.745194e-01 -5.154166e-01  0.000000e+00
     vertex  4.384280e-01 -6.237351e-01  0.000000e+00
     vertex  2.390072e-01 -5.899654e-01  0.000000e+00
   endloop
 endfacet
 facet normal  0.000000e+00 -0.000000e+00 -1.000000e+00
   outer loop
     vertex -5.593976e-01  5.025772e-01  0.000000e+00
     vertex -5.586475e-01  2.979382e-01  0.000000e+00
     vertex -6.631877e-01  3.522112e-01  0.000000e+00
   endloop
 endfacet
 facet normal -0.000000e+00  0.000000e+00 -1.000000e+00
   outer loop
     vertex -4.700551e-01  4.247155e-01  0.000000e+00
     vertex -5.586475e-01  2.979382e-01  0.000000e+00
     vertex -5.593976e-01  5.025772e-01  0.000000e+00
   endloop
 endfacet
 facet normal  0.000000e+00  0.000000e+00 -1.000000e+00
   outer loop
     vertex  5.751871e-01 -5.025772e-01  0.000000e+00
     vertex  4.384280e-01 -6.237351e-01  0.000000e+00
     vertex  3.745194e-01 -5.154166e-01  0.000000e+00
   endloop
 endfacet
 facet normal  0.000000e+00 -0.000000e+00 -1.000000e+00
   outer loop
     vertex  4.880110e-01 -4.103417e-01  0.000000e+00
     vertex  5.751871e-01 -5.025772e-01  0.000000e+00
     vertex  3.745194e-01 -5.154166e-01  0.000000e+00
   endloop
 endfacet
 facet normal  0.000000e+00  0.000000e+00 -1.000000e+00
   outer loop
     vertex -4.226385e-01  6.237351e-01  0.000000e+00
     vertex -4.700551e-01  4.247155e-01  0.000000e+00
     vertex -5.593976e-01  5.025772e-01  0.000000e+00
   endloop
 endfacet
 facet normal  0.000000e+00 -0.000000e+00 -1.000000e+00
   outer loop
     vertex -4.226385e-01  6.237351e-01  0.000000e+00
     vertex -3.534624e-01  5.263385e-01  0.000000e+00
     vertex -4.700551e-01  4.247155e-01  0.000000e+00
   endloop
 endfacet
 facet normal  0.000000e+00  0.000000e+00 -1.000000e+00
   outer loop
     vertex  6.789772e-01 -3.522112e-01  0.000000e+00
     vertex  5.751871e-01 -5.025772e-01  0.000000e+00
     vertex  4.880110e-01 -4.103417e-01  0.000000e+00
   endloop
 endfacet
 facet normal -0.000000e+00  0.000000e+00 -1.000000e+00
   outer loop
     vertex  6.789772e-01 -3.522112e-01  0.000000e+00
     vertex  4.880110e-01 -4.103417e-01  0.000000e+00
     vertex  5.705704e-01 -2.868589e-01  0.000000e+00
   endloop
 endfacet
 facet normal  0.000000e+00  0.000000e+00 -1.000000e+00
   outer loop
     vertex -2.608584e-01  7.086439e-01  0.000000e+00
     vertex -3.534624e-01  5.263385e-01  0.000000e+00
     vertex -4.226385e-01  6.237351e-01  0.000000e+00
   endloop
 endfacet
 facet normal  0.000000e+00 -0.000000e+00 -1.000000e+00
   outer loop
     vertex -2.608584e-01  7.086439e-01  0.000000e+00
     vertex -2.157748e-01  5.967884e-01  0.000000e+00
     vertex -3.534624e-01  5.263385e-01  0.000000e+00
   endloop
 endfacet
 facet normal  0.000000e+00  0.000000e+00 -1.000000e+00
   outer loop
     vertex  7.437664e-01 -1.813761e-01  0.000000e+00
     vertex  6.789772e-01 -3.522112e-01  0.000000e+00
     vertex  5.705704e-01 -2.868589e-01  0.000000e+00
   endloop
 endfacet
 facet normal -0.000000e+00  0.000000e+00 -1.000000e+00
   outer loop
     vertex  7.437664e-01 -1.813761e-01  0.000000e+00
     vertex  5.705704e-01 -2.868589e-01  0.000000e+00
     vertex  6.220063e-01 -1.475091e-01  0.000000e+00
   endloop
 endfacet
 facet normal  0.000000e+00  0.000000e+00 -1.000000e+00
   outer loop
     vertex -8.345938e-02  7.523688e-01  0.000000e+00
     vertex -2.157748e-01  5.967884e-01  0.000000e+00
     vertex -2.608584e-01  7.086439e-01  0.000000e+00
   endloop
 endfacet
 facet normal  0.000000e+00 -0.000000e+00 -1.000000e+00
   outer loop
     vertex -8.345938e-02  7.523688e-01  0.000000e+00
     vertex -6.514688e-02  6.318929e-01  0.000000e+00
     vertex -2.157748e-01  5.967884e-01  0.000000e+00
   endloop
 endfacet
 facet normal  0.000000e+00  0.000000e+00 -1.000000e+00
   outer loop
     vertex  7.657895e-01  0.000000e+00  0.000000e+00
     vertex  7.437664e-01 -1.813761e-01  0.000000e+00
     vertex  6.220063e-01 -1.475091e-01  0.000000e+00
   endloop
 endfacet
 facet normal -0.000000e+00  0.000000e+00 -1.000000e+00
   outer loop
     vertex  7.657895e-01  0.000000e+00  0.000000e+00
     vertex  6.220063e-01 -1.475091e-01  0.000000e+00
     vertex  6.394737e-01  0.000000e+00  0.000000e+00
   endloop
 endfacet
 facet normal  0.000000e+00  0.000000e+00 -1.000000e+00
   outer loop
     vertex  6.220063e-01  1.475091e-01  0.000000e+00
     vertex  7.657895e-01  0.000000e+00  0.000000e+00
     vertex  6.394737e-01  0.000000e+00  0.000000e+00
   endloop
 endfacet
 facet normal -0.000000e+00  0.000000e+00 -1.000000e+00
   outer loop
     vertex  9.924885e-02  7.523688e-01  0.000000e+00
     vertex -6.514688e-02  6.318929e-01  0.000000e+00
     vertex -8.345938e-02  7.523688e-01  0.000000e+00
   endloop
 endfacet
 facet normal  0.000000e+00  0.000000e+00 -1.000000e+00
   outer loop
     vertex  9.924885e-02  7.523688e-01  0.000000e+00
     vertex  8.950016e-02  6.295727e-01  0.000000e+00
     vertex -6.514688e-02  6.318929e-01  0.000000e+00
   endloop
 endfacet
 facet normal -0.000000e+00  0.000000e+00 -1.000000e+00
   outer loop
     vertex  7.437664e-01  1.813761e-01  0.000000e+00
     vertex  6.220063e-01  1.475091e-01  0.000000e+00
     vertex  5.705704e-01  2.868589e-01  0.000000e+00
   endloop
 endfacet
 facet normal  0.000000e+00 -0.000000e+00 -1.000000e+00
   outer loop
     vertex  7.437664e-01  1.813761e-01  0.000000e+00
     vertex  7.657895e-01  0.000000e+00  0.000000e+00
     vertex  6.220063e-01  1.475091e-01  0.000000e+00
   endloop
 endfacet
 facet normal  0.000000e+00  0.000000e+00 -1.000000e+00
   outer loop
     vertex  2.766479e-01  7.086439e-01  0.000000e+00
     vertex  2.390072e-01  5.899654e-01  0.000000e+00
     vertex  8.950016e-02  6.295727e-01  0.000000e+00
   endloop
 endfacet
 facet normal -0.000000e+00  0.000000e+00 -1.000000e+00
   outer loop
     vertex  2.766479e-01  7.086439e-01  0.000000e+00
     vertex  8.950016e-02  6.295727e-01  0.000000e+00
     vertex  9.924885e-02  7.523688e-01  0.000000e+00
   endloop
 endfacet
 facet normal -0.000000e+00  0.000000e+00 -1.000000e+00
   outer loop
     vertex  6.789772e-01  3.522112e-01  0.000000e+00
     vertex  5.705704e-01  2.868589e-01  0.000000e+00
     vertex  4.880110e-01  4.103417e-01  0.000000e+00
   endloop
 endfacet
 facet normal  0.000000e+00 -0.000000e+00 -1.000000e+00
   outer loop
     vertex  6.789772e-01  3.522112e-01  0.000000e+00
     vertex  7.437664e-01  1.813761e-01  0.000000e+00
     vertex  5.705704e-01  2.868589e-01  0.000000e+00
   endloop
 endfacet
 facet normal  0.000000e+00  0.000000e+00 -1.000000e+00
   outer loop
     vertex  4.384280e-01  6.237351e-01  0.000000e+00
     vertex  3.745194e-01  5.154166e-01  0.000000e+00
     vertex  2.390072e-01  5.899654e-01  0.000000e+00
   endloop
 endfacet
 facet normal -0.000000e+00  0.000000e+00 -1.000000e+00
   outer loop
     vertex  4.384280e-01  6.237351e-01  0.000000e+00
     vertex  2.390072e-01  5.899654e-01  0.000000e+00
     vertex  2.766479e-01  7.086439e-01  0.000000e+00
   endloop
 endfacet
 facet normal -0.000000e+00  0.000000e+00 -1.000000e+00
   outer loop
     vertex  5.751871e-01  5.025772e-01  0.000000e+00
     vertex  4.880110e-01  4.103417e-01  0.000000e+00
     vertex  3.745194e-01  5.154166e-01  0.000000e+00
   endloop
 endfacet
 facet normal  0.000000e+00 -0.000000e+00 -1.000000e+00
   outer loop
     vertex  5.751871e-01  5.025772e-01  0.000000e+00
     vertex  6.789772e-01  3.522112e-01  0.000000e+00
     vertex  4.880110e-01  4.103417e-01  0.000000e+00
   endloop
 endfacet
 facet normal  0.000000e+00  0.000000e+00 -1.000000e+00
   outer loop
     vertex  5.751871e-01  5.025772e-01  0.000000e+00
     vertex  3.745194e-01  5.154166e-01  0.000000e+00
     vertex  4.384280e-01  6.237351e-01  0.000000e+00
   endloop
 endfacet
 facet normal  0.000000e+00  0.000000e+00  1.000000e+00
   outer loop
     vertex -3.508830e-01 -5.197793e-01  7.500000e-01
     vertex -5.593976e-01 -5.025772e-01  7.500000e-01
     vertex -4.226385e-01 -6.237351e-01  7.500000e-01
   endloop
 endfacet
 facet normal  0.000000e+00  0.000000e+00  1.000000e+00
   outer loop
     vertex -3.508830e-01 -5.197793e-01  7.500000e-01
     vertex -4.648489e-01 -4.188143e-01  7.500000e-01
     vertex -5.593976e-01 -5.025772e-01  7.500000e-01
   endloop
 endfacet
 facet normal  0.000000e+00  0.000000e+00  1.000000e+00
   outer loop
     vertex -5.513406e-01 -2.935094e-01  7.500000e-01
     vertex -6.631877e-01 -3.522112e-01  7.500000e-01
     vertex -5.593976e-01 -5.025772e-01  7.500000e-01
   endloop
 endfacet
 facet normal  0.000000e+00  0.000000e+00  1.000000e+00
   outer loop
     vertex -5.513406e-01 -2.935094e-01  7.500000e-01
     vertex -5.593976e-01 -5.025772e-01  7.500000e-01
     vertex -4.648489e-01 -4.188143e-01  7.500000e-01
   endloop
 endfacet
 facet normal  0.000000e+00  0.000000e+00  1.000000e+00
   outer loop
     vertex -2.160662e-01 -5.905366e-01  7.500000e-01
     vertex -4.226385e-01 -6.237351e-01  7.500000e-01
     vertex -2.608584e-01 -7.086439e-01  7.500000e-01
   endloop
 endfacet
 facet normal  0.000000e+00  0.000000e+00  1.000000e+00
   outer loop
     vertex -2.160662e-01 -5.905366e-01  7.500000e-01
     vertex -3.508830e-01 -5.197793e-01  7.500000e-01
     vertex -4.226385e-01 -6.237351e-01  7.500000e-01
   endloop
 endfacet
 facet normal  0.000000e+00  0.000000e+00  1.000000e+00
   outer loop
     vertex -6.053317e-01 -1.511467e-01  7.500000e-01
     vertex -7.279770e-01 -1.813761e-01  7.500000e-01
     vertex -6.631877e-01 -3.522112e-01  7.500000e-01
   endloop
 endfacet
 facet normal  0.000000e+00  0.000000e+00  1.000000e+00
   outer loop
     vertex -6.053317e-01 -1.511467e-01  7.500000e-01
     vertex -6.631877e-01 -3.522112e-01  7.500000e-01
     vertex -5.513406e-01 -2.935094e-01  7.500000e-01
   endloop
 endfacet
 facet normal  0.000000e+00  0.000000e+00  1.000000e+00
   outer loop
     vertex -6.823369e-02 -6.269740e-01  7.500000e-01
     vertex -2.608584e-01 -7.086439e-01  7.500000e-01
     vertex -8.345938e-02 -7.523688e-01  7.500000e-01
   endloop
 endfacet
 facet normal  0.000000e+00  0.000000e+00  1.000000e+00
   outer loop
     vertex -6.823369e-02 -6.269740e-01  7.500000e-01
     vertex -2.160662e-01 -5.905366e-01  7.500000e-01
     vertex -2.608584e-01 -7.086439e-01  7.500000e-01
   endloop
 endfacet
 facet normal  0.000000e+00  0.000000e+00  1.000000e+00
   outer loop
     vertex -6.236842e-01  6.383009e-16  7.500000e-01
     vertex -7.500000e-01  7.659611e-16  7.500000e-01
     vertex -7.279770e-01 -1.813761e-01  7.500000e-01
   endloop
 endfacet
 facet normal  0.000000e+00  0.000000e+00  1.000000e+00
   outer loop
     vertex -6.236842e-01  6.383009e-16  7.500000e-01
     vertex -7.279770e-01 -1.813761e-01  7.500000e-01
     vertex -6.053317e-01 -1.511467e-01  7.500000e-01
   endloop
 endfacet
 facet normal  0.000000e+00  0.000000e+00  1.000000e+00
   outer loop
     vertex  8.402317e-02 -6.269740e-01  7.500000e-01
     vertex -8.345938e-02 -7.523688e-01  7.500000e-01
     vertex  9.924885e-02 -7.523688e-01  7.500000e-01
   endloop
 endfacet
 facet normal  0.000000e+00  0.000000e+00  1.000000e+00
   outer loop
     vertex  8.402317e-02 -6.269740e-01  7.500000e-01
     vertex -6.823369e-02 -6.269740e-01  7.500000e-01
     vertex -8.345938e-02 -7.523688e-01  7.500000e-01
   endloop
 endfacet
 facet normal  0.000000e+00  0.000000e+00  1.000000e+00
   outer loop
     vertex -6.053317e-01  1.511467e-01  7.500000e-01
     vertex -7.279770e-01  1.813761e-01  7.500000e-01
     vertex -7.500000e-01  7.659611e-16  7.500000e-01
   endloop
 endfacet
 facet normal  0.000000e+00  0.000000e+00  1.000000e+00
   outer loop
     vertex -6.053317e-01  1.511467e-01  7.500000e-01
     vertex -7.500000e-01  7.659611e-16  7.500000e-01
     vertex -6.236842e-01  6.383009e-16  7.500000e-01
   endloop
 endfacet
 facet normal  0.000000e+00  0.000000e+00  1.000000e+00
   outer loop
     vertex  2.318557e-01 -5.905366e-01  7.500000e-01
     vertex  9.924885e-02 -7.523688e-01  7.500000e-01
     vertex  2.766479e-01 -7.086439e-01  7.500000e-01
   endloop
 endfacet
 facet normal  0.000000e+00  0.000000e+00  1.000000e+00
   outer loop
     vertex  2.318557e-01 -5.905366e-01  7.500000e-01
     vertex  8.402317e-02 -6.269740e-01  7.500000e-01
     vertex  9.924885e-02 -7.523688e-01  7.500000e-01
   endloop
 endfacet
 facet normal  0.000000e+00  0.000000e+00  1.000000e+00
   outer loop
     vertex -5.513406e-01  2.935094e-01  7.500000e-01
     vertex -6.631877e-01  3.522112e-01  7.500000e-01
     vertex -7.279770e-01  1.813761e-01  7.500000e-01
   endloop
 endfacet
 facet normal  0.000000e+00  0.000000e+00  1.000000e+00
   outer loop
     vertex -5.513406e-01  2.935094e-01  7.500000e-01
     vertex -7.279770e-01  1.813761e-01  7.500000e-01
     vertex -6.053317e-01  1.511467e-01  7.500000e-01
   endloop
 endfacet
 facet normal  0.000000e+00  0.000000e+00  1.000000e+00
   outer loop
     vertex  3.666725e-01 -5.197793e-01  7.500000e-01
     vertex  2.766479e-01 -7.086439e-01  7.500000e-01
     vertex  4.384280e-01 -6.237351e-01  7.500000e-01
   endloop
 endfacet
 facet normal  0.000000e+00  0.000000e+00  1.000000e+00
   outer loop
     vertex  3.666725e-01 -5.197793e-01  7.500000e-01
     vertex  2.318557e-01 -5.905366e-01  7.500000e-01
     vertex  2.766479e-01 -7.086439e-01  7.500000e-01
   endloop
 endfacet
 facet normal  0.000000e+00  0.000000e+00  1.000000e+00
   outer loop
     vertex -4.648489e-01  4.188143e-01  7.500000e-01
     vertex -5.593976e-01  5.025772e-01  7.500000e-01
     vertex -6.631877e-01  3.522112e-01  7.500000e-01
   endloop
 endfacet
 facet normal  0.000000e+00  0.000000e+00  1.000000e+00
   outer loop
     vertex -4.648489e-01  4.188143e-01  7.500000e-01
     vertex -6.631877e-01  3.522112e-01  7.500000e-01
     vertex -5.513406e-01  2.935094e-01  7.500000e-01
   endloop
 endfacet
 facet normal  0.000000e+00  0.000000e+00  1.000000e+00
   outer loop
     vertex  5.751871e-01 -5.025772e-01  7.500000e-01
     vertex  4.806384e-01 -4.188143e-01  7.500000e-01
     vertex  3.666725e-01 -5.197793e-01  7.500000e-01
   endloop
 endfacet
 facet normal  0.000000e+00  0.000000e+00  1.000000e+00
   outer loop
     vertex  5.751871e-01 -5.025772e-01  7.500000e-01
     vertex  3.666725e-01 -5.197793e-01  7.500000e-01
     vertex  4.384280e-01 -6.237351e-01  7.500000e-01
   endloop
 endfacet
 facet normal  0.000000e+00  0.000000e+00  1.000000e+00
   outer loop
     vertex -4.226385e-01  6.237351e-01  7.500000e-01
     vertex -5.593976e-01  5.025772e-01  7.500000e-01
     vertex -4.648489e-01  4.188143e-01  7.500000e-01
   endloop
 endfacet
 facet normal  0.000000e+00  0.000000e+00  1.000000e+00
   outer loop
     vertex -4.226385e-01  6.237351e-01  7.500000e-01
     vertex -4.648489e-01  4.188143e-01  7.500000e-01
     vertex -3.508830e-01  5.197793e-01  7.500000e-01
   endloop
 endfacet
 facet normal  0.000000e+00  0.000000e+00  1.000000e+00
   outer loop
     vertex  6.789772e-01 -3.522112e-01  7.500000e-01
     vertex  4.806384e-01 -4.188143e-01  7.500000e-01
     vertex  5.751871e-01 -5.025772e-01  7.500000e-01
   endloop
 endfacet
 facet normal  0.000000e+00  0.000000e+00  1.000000e+00
   outer loop
     vertex  6.789772e-01 -3.522112e-01  7.500000e-01
     vertex  5.671301e-01 -2.935094e-01  7.500000e-01
     vertex  4.806384e-01 -4.188143e-01  7.500000e-01
   endloop
 endfacet
 facet normal  0.000000e+00  0.000000e+00  1.000000e+00
   outer loop
     vertex -2.608584e-01  7.086439e-01  7.500000e-01
     vertex -4.226385e-01  6.237351e-01  7.500000e-01
     vertex -3.508830e-01  5.197793e-01  7.500000e-01
   endloop
 endfacet
 facet normal  0.000000e+00  0.000000e+00  1.000000e+00
   outer loop
     vertex -2.608584e-01  7.086439e-01  7.500000e-01
     vertex -3.508830e-01  5.197793e-01  7.500000e-01
     vertex -2.160662e-01  5.905366e-01  7.500000e-01
   endloop
 endfacet
 facet normal  0.000000e+00  0.000000e+00  1.000000e+00
   outer loop
     vertex  7.437664e-01 -1.813761e-01  7.500000e-01
     vertex  5.671301e-01 -2.935094e-01  7.500000e-01
     vertex  6.789772e-01 -3.522112e-01  7.500000e-01
   endloop
 endfacet
 facet normal  0.000000e+00  0.000000e+00  1.000000e+00
   outer loop
     vertex  7.437664e-01 -1.813761e-01  7.500000e-01
     vertex  6.211211e-01 -1.511467e-01  7.500000e-01
     vertex  5.671301e-01 -2.935094e-01  7.500000e-01
   endloop
 endfacet
 facet normal  0.000000e+00  0.000000e+00  1.000000e+00
   outer loop
     vertex -8.345938e-02  7.523688e-01  7.500000e-01
     vertex -2.608584e-01  7.086439e-01  7.500000e-01
     vertex -2.160662e-01  5.905366e-01  7.500000e-01
   endloop
 endfacet
 facet normal  0.000000e+00  0.000000e+00  1.000000e+00
   outer loop
     vertex -8.345938e-02  7.523688e-01  7.500000e-01
     vertex -2.160662e-01  5.905366e-01  7.500000e-01
     vertex -6.823369e-02  6.269740e-01  7.500000e-01
   endloop
 endfacet
 facet normal  0.000000e+00  0.000000e+00  1.000000e+00
   outer loop
     vertex  7.657895e-01  0.000000e+00  7.500000e-01
     vertex  6.211211e-01 -1.511467e-01  7.500000e-01
     vertex  7.437664e-01 -1.813761e-01  7.500000e-01
   endloop
 endfacet
 facet normal  0.000000e+00  0.000000e+00  1.000000e+00
   outer loop
     vertex  7.657895e-01  0.000000e+00  7.500000e-01
     vertex  6.394737e-01  0.000000e+00  7.500000e-01
     vertex  6.211211e-01 -1.511467e-01  7.500000e-01
   endloop
 endfacet
 facet normal  0.000000e+00  0.000000e+00  1.000000e+00
   outer loop
     vertex  9.924885e-02  7.523688e-01  7.500000e-01
     vertex -8.345938e-02  7.523688e-01  7.500000e-01
     vertex -6.823369e-02  6.269740e-01  7.500000e-01
   endloop
 endfacet
 facet normal  0.000000e+00  0.000000e+00  1.000000e+00
   outer loop
     vertex  9.924885e-02  7.523688e-01  7.500000e-01
     vertex  8.402317e-02  6.269740e-01  7.500000e-01
     vertex  2.318557e-01  5.905366e-01  7.500000e-01
   endloop
 endfacet
 facet normal  0.000000e+00  0.000000e+00  1.000000e+00
   outer loop
     vertex  9.924885e-02  7.523688e-01  7.500000e-01
     vertex -6.823369e-02  6.269740e-01  7.500000e-01
     vertex  8.402317e-02  6.269740e-01  7.500000e-01
   endloop
 endfacet
 facet normal  0.000000e+00  0.000000e+00  1.000000e+00
   outer loop
     vertex  7.437664e-01  1.813761e-01  7.500000e-01
     vertex  6.211211e-01  1.511467e-01  7.500000e-01
     vertex  6.394737e-01  0.000000e+00  7.500000e-01
   endloop
 endfacet
 facet normal  0.000000e+00  0.000000e+00  1.000000e+00
   outer loop
     vertex  7.437664e-01  1.813761e-01  7.500000e-01
     vertex  6.394737e-01  0.000000e+00  7.500000e-01
     vertex  7.657895e-01  0.000000e+00  7.500000e-01
   endloop
 endfacet
 facet normal  0.000000e+00  0.000000e+00  1.000000e+00
   outer loop
     vertex  2.766479e-01  7.086439e-01  7.500000e-01
     vertex  9.924885e-02  7.523688e-01  7.500000e-01
     vertex  2.318557e-01  5.905366e-01  7.500000e-01
   endloop
 endfacet
 facet normal  0.000000e+00  0.000000e+00  1.000000e+00
   outer loop
     vertex  6.789772e-01  3.522112e-01  7.500000e-01
     vertex  6.211211e-01  1.511467e-01  7.500000e-01
     vertex  7.437664e-01  1.813761e-01  7.500000e-01
   endloop
 endfacet
 facet normal  0.000000e+00  0.000000e+00  1.000000e+00
   outer loop
     vertex  6.789772e-01  3.522112e-01  7.500000e-01
     vertex  5.671301e-01  2.935094e-01  7.500000e-01
     vertex  6.211211e-01  1.511467e-01  7.500000e-01
   endloop
 endfacet
 facet normal  0.000000e+00  0.000000e+00  1.000000e+00
   outer loop
     vertex  4.384280e-01  6.237351e-01  7.500000e-01
     vertex  2.318557e-01  5.905366e-01  7.500000e-01
     vertex  3.666725e-01  5.197793e-01  7.500000e-01
   endloop
 endfacet
 facet normal  0.000000e+00  0.000000e+00  1.000000e+00
   outer loop
     vertex  4.384280e-01  6.237351e-01  7.500000e-01
     vertex  2.766479e-01  7.086439e-01  7.500000e-01
     vertex  2.318557e-01  5.905366e-01  7.500000e-01
   endloop
 endfacet
 facet normal  0.000000e+00  0.000000e+00  1.000000e+00
   outer loop
     vertex  5.751871e-01  5.025772e-01  7.500000e-01
     vertex  4.806384e-01  4.188143e-01  7.500000e-01
     vertex  5.671301e-01  2.935094e-01  7.500000e-01
   endloop
 endfacet
 facet normal  0.000000e+00  0.000000e+00  1.000000e+00
   outer loop
     vertex  5.751871e-01  5.025772e-01  7.500000e-01
     vertex  3.666725e-01  5.197793e-01  7.500000e-01
     vertex  4.806384e-01  4.188143e-01  7.500000e-01
   endloop
 endfacet
 facet normal  0.000000e+00  0.000000e+00  1.000000e+00
   outer loop
     vertex  5.751871e-01  5.025772e-01  7.500000e-01
     vertex  5.671301e-01  2.935094e-01  7.500000e-01
     vertex  6.789772e-01  3.522112e-01  7.500000e-01
   endloop
 endfacet
 facet normal  0.000000e+00  0.000000e+00  1.000000e+00
   outer loop
     vertex  5.751871e-01  5.025772e-01  7.500000e-01
     vertex  4.384280e-01  6.237351e-01  7.500000e-01
     vertex  3.666725e-01  5.197793e-01  7.500000e-01
   endloop
 endfacet
 facet normal  9.927089e-01 -1.205367e-01  0.000000e+00
   outer loop
     vertex  7.437664e-01 -1.813761e-01  0.000000e+00
     vertex  7.657895e-01  0.000000e+00  0.000000e+00
     vertex  7.657895e-01  0.000000e+00  7.500000e-01
   endloop
 endfacet
 facet normal  9.927089e-01 -1.205367e-01  0.000000e+00
   outer loop
     vertex  7.437664e-01 -1.813761e-01  0.000000e+00
     vertex  7.657895e-01  0.000000e+00  7.500000e-01
     vertex  7.437664e-01 -1.813761e-01  7.500000e-01
   endloop
 endfacet
 facet normal  9.350162e-01 -3.546049e-01  0.000000e+00
   outer loop
     vertex  6.789772e-01 -3.522112e-01  0.000000e+00
     vertex  7.437664e-01 -1.813761e-01  7.500000e-01
     vertex  6.789772e-01 -3.522112e-01  7.500000e-01
   endloop
 endfacet
 facet normal  9.350162e-01 -3.546049e-01  0.000000e+00
   outer loop
     vertex  6.789772e-01 -3.522112e-01  0.000000e+00
     vertex  7.437664e-01 -1.813761e-01  0.000000e+00
     vertex  7.437664e-01 -1.813761e-01  7.500000e-01
   endloop
 endfacet
 facet normal  8.229839e-01 -5.680647e-01  0.000000e+00
   outer loop
     vertex  5.751871e-01 -5.025772e-01  0.000000e+00
     vertex  6.789772e-01 -3.522112e-01  7.500000e-01
     vertex  5.751871e-01 -5.025772e-01  7.500000e-01
   endloop
 endfacet
 facet normal  8.229839e-01 -5.680647e-01  0.000000e+00
   outer loop
     vertex  5.751871e-01 -5.025772e-01  0.000000e+00
     vertex  6.789772e-01 -3.522112e-01  0.000000e+00
     vertex  6.789772e-01 -3.522112e-01  7.500000e-01
   endloop
 endfacet
 facet normal  6.631227e-01 -7.485107e-01  0.000000e+00
   outer loop
     vertex  4.384280e-01 -6.237351e-01  0.000000e+00
     vertex  5.751871e-01 -5.025772e-01  7.500000e-01
     vertex  4.384280e-01 -6.237351e-01  7.500000e-01
   endloop
 endfacet
 facet normal  6.631227e-01 -7.485107e-01  0.000000e+00
   outer loop
     vertex  4.384280e-01 -6.237351e-01  0.000000e+00
     vertex  5.751871e-01 -5.025772e-01  0.000000e+00
     vertex  5.751871e-01 -5.025772e-01  7.500000e-01
   endloop
 endfacet
 facet normal  4.647232e-01 -8.854560e-01  0.000000e+00
   outer loop
     vertex  2.766479e-01 -7.086439e-01  0.000000e+00
     vertex  4.384280e-01 -6.237351e-01  7.500000e-01
     vertex  2.766479e-01 -7.086439e-01  7.500000e-01
   endloop
 endfacet
 facet normal  4.647232e-01 -8.854560e-01  0.000000e+00
   outer loop
     vertex  2.766479e-01 -7.086439e-01  0.000000e+00
     vertex  4.384280e-01 -6.237351e-01  0.000000e+00
     vertex  4.384280e-01 -6.237351e-01  7.500000e-01
   endloop
 endfacet
 facet normal  2.393157e-01 -9.709418e-01  0.000000e+00
   outer loop
     vertex  9.924885e-02 -7.523688e-01  0.000000e+00
     vertex  2.766479e-01 -7.086439e-01  7.500000e-01
     vertex  9.924885e-02 -7.523688e-01  7.500000e-01
   endloop
 endfacet
 facet normal  2.393157e-01 -9.709418e-01  0.000000e+00
   outer loop
     vertex  9.924885e-02 -7.523688e-01  0.000000e+00
     vertex  2.766479e-01 -7.086439e-01  0.000000e+00
     vertex  2.766479e-01 -7.086439e-01  7.500000e-01
   endloop
 endfacet
 facet normal -2.393157e-01 -9.709418e-01  0.000000e+00
   outer loop
     vertex -8.345938e-02 -7.523688e-01  0.000000e+00
     vertex -8.345938e-02 -7.523688e-01  7.500000e-01
     vertex -2.608584e-01 -7.086439e-01  7.500000e-01
   endloop
 endfacet
 facet normal -1.822944e-15 -1.000000e+00  0.000000e+00
   outer loop
     vertex -8.345938e-02 -7.523688e-01  0.000000e+00
     vertex  9.924885e-02 -7.523688e-01  7.500000e-01
     vertex -8.345938e-02 -7.523688e-01  7.500000e-01
   endloop
 endfacet
 facet normal -1.822944e-15 -1.000000e+00  0.000000e+00
   outer loop
     vertex -8.345938e-02 -7.523688e-01  0.000000e+00
     vertex  9.924885e-02 -7.523688e-01  0.000000e+00
     vertex  9.924885e-02 -7.523688e-01  7.500000e-01
   endloop
 endfacet
 facet normal -2.393157e-01 -9.709418e-01  0.000000e+00
   outer loop
     vertex -2.608584e-01 -7.086439e-01  0.000000e+00
     vertex -8.345938e-02 -7.523688e-01  0.000000e+00
     vertex -2.608584e-01 -7.086439e-01  7.500000e-01
   endloop
 endfacet
 facet normal -4.647232e-01 -8.854560e-01  0.000000e+00
   outer loop
     vertex -4.226385e-01 -6.237351e-01  0.000000e+00
     vertex -2.608584e-01 -7.086439e-01  7.500000e-01
     vertex -4.226385e-01 -6.237351e-01  7.500000e-01
   endloop
 endfacet
 facet normal -4.647232e-01 -8.854560e-01  0.000000e+00
   outer loop
     vertex -4.226385e-01 -6.237351e-01  0.000000e+00
     vertex -2.608584e-01 -7.086439e-01  0.000000e+00
     vertex -2.608584e-01 -7.086439e-01  7.500000e-01
   endloop
 endfacet
 facet normal -6.631227e-01 -7.485107e-01  0.000000e+00
   outer loop
     vertex -5.593976e-01 -5.025772e-01  0.000000e+00
     vertex -4.226385e-01 -6.237351e-01  7.500000e-01
     vertex -5.593976e-01 -5.025772e-01  7.500000e-01
   endloop
 endfacet
 facet normal -6.631227e-01 -7.485107e-01  0.000000e+00
   outer loop
     vertex -5.593976e-01 -5.025772e-01  0.000000e+00
     vertex -4.226385e-01 -6.237351e-01  0.000000e+00
     vertex -4.226385e-01 -6.237351e-01  7.500000e-01
   endloop
 endfacet
 facet normal -8.229839e-01 -5.680647e-01  0.000000e+00
   outer loop
     vertex -6.631877e-01 -3.522112e-01  0.000000e+00
     vertex -5.593976e-01 -5.025772e-01  0.000000e+00
     vertex -5.593976e-01 -5.025772e-01  7.500000e-01
   endloop
 endfacet
 facet normal -8.229839e-01 -5.680647e-01  0.000000e+00
   outer loop
     vertex -6.631877e-01 -3.522112e-01  0.000000e+00
     vertex -5.593976e-01 -5.025772e-01  7.500000e-01
     vertex -6.631877e-01 -3.522112e-01  7.500000e-01
   endloop
 endfacet
 facet normal -9.350162e-01 -3.546049e-01  0.000000e+00
   outer loop
     vertex -7.279770e-01 -1.813761e-01  0.000000e+00
     vertex -6.631877e-01 -3.522112e-01  0.000000e+00
     vertex -6.631877e-01 -3.522112e-01  7.500000e-01
   endloop
 endfacet
 facet normal -9.927089e-01 -1.205367e-01  0.000000e+00
   outer loop
     vertex -7.279770e-01 -1.813761e-01  0.000000e+00
     vertex -7.279770e-01 -1.813761e-01  7.500000e-01
     vertex -7.500000e-01  7.659611e-16  7.500000e-01
   endloop
 endfacet
 facet normal -9.350162e-01 -3.546049e-01  0.000000e+00
   outer loop
     vertex -7.279770e-01 -1.813761e-01  0.000000e+00
     vertex -6.631877e-01 -3.522112e-01  7.500000e-01
     vertex -7.279770e-01 -1.813761e-01  7.500000e-01
   endloop
 endfacet
 facet normal -9.927089e-01 -1.205367e-01  0.000000e+00
   outer loop
     vertex -7.500000e-01  7.659611e-16  0.000000e+00
     vertex -7.279770e-01 -1.813761e-01  0.000000e+00
     vertex -7.500000e-01  7.659611e-16  7.500000e-01
   endloop
 endfacet
 facet normal -9.927089e-01  1.205367e-01  0.000000e+00
   outer loop
     vertex -7.500000e-01  7.659611e-16  0.000000e+00
     vertex -7.500000e-01  7.659611e-16  7.500000e-01
     vertex -7.279770e-01  1.813761e-01  7.500000e-01
   endloop
 endfacet
 facet normal -9.927089e-01  1.205367e-01  0.000000e+00
   outer loop
     vertex -7.279770e-01  1.813761e-01  0.000000e+00
     vertex -7.500000e-01  7.659611e-16  0.000000e+00
     vertex -7.279770e-01  1.813761e-01  7.500000e-01
   endloop
 endfacet
 facet normal -9.350162e-01  3.546049e-01  0.000000e+00
   outer loop
     vertex -6.631877e-01  3.522112e-01  0.000000e+00
     vertex -7.279770e-01  1.813761e-01  0.000000e+00
     vertex -7.279770e-01  1.813761e-01  7.500000e-01
   endloop
 endfacet
 facet normal -8.229839e-01  5.680647e-01  0.000000e+00
   outer loop
     vertex -6.631877e-01  3.522112e-01  0.000000e+00
     vertex -6.631877e-01  3.522112e-01  7.500000e-01
     vertex -5.593976e-01  5.025772e-01  7.500000e-01
   endloop
 endfacet
 facet normal -9.350162e-01  3.546049e-01  0.000000e+00
   outer loop
     vertex -6.631877e-01  3.522112e-01  0.000000e+00
     vertex -7.279770e-01  1.813761e-01  7.500000e-01
     vertex -6.631877e-01  3.522112e-01  7.500000e-01
   endloop
 endfacet
 facet normal -8.229839e-01  5.680647e-01  0.000000e+00
   outer loop
     vertex -5.593976e-01  5.025772e-01  0.000000e+00
     vertex -6.631877e-01  3.522112e-01  0.000000e+00
     vertex -5.593976e-01  5.025772e-01  7.500000e-01
   endloop
 endfacet
 facet normal -6.631227e-01  7.485107e-01  0.000000e+00
   outer loop
     vertex -5.593976e-01  5.025772e-01  0.000000e+00
     vertex -5.593976e-01  5.025772e-01  7.500000e-01
     vertex -4.226385e-01  6.237351e-01  7.500000e-01
   endloop
 endfacet
 facet normal -6.631227e-01  7.485107e-01  0.000000e+00
   outer loop
     vertex -4.226385e-01  6.237351e-01  0.000000e+00
     vertex -5.593976e-01  5.025772e-01  0.000000e+00
     vertex -4.226385e-01  6.237351e-01  7.500000e-01
   endloop
 endfacet
 facet normal -4.647232e-01  8.854560e-01  0.000000e+00
   outer loop
     vertex -2.608584e-01  7.086439e-01  0.000000e+00
     vertex -4.226385e-01  6.237351e-01  0.000000e+00
     vertex -4.226385e-01  6.237351e-01  7.500000e-01
   endloop
 endfacet
 facet normal -4.647232e-01  8.854560e-01  0.000000e+00
   outer loop
     vertex -2.608584e-01  7.086439e-01  0.000000e+00
     vertex -4.226385e-01  6.237351e-01  7.500000e-01
     vertex -2.608584e-01  7.086439e-01  7.500000e-01
   endloop
 endfacet
 facet normal  0.000000e+00  1.000000e+00  0.000000e+00
   outer loop
     vertex -8.345938e-02  7.523688e-01  0.000000e+00
     vertex -8.345938e-02  7.523688e-01  7.500000e-01
     vertex  9.924885e-02  7.523688e-01  7.500000e-01
   endloop
 endfacet
 facet normal -2.393157e-01  9.709418e-01  0.000000e+00
   outer loop
     vertex -8.345938e-02  7.523688e-01  0.000000e+00
     vertex -2.608584e-01  7.086439e-01  7.500000e-01
     vertex -8.345938e-02  7.523688e-01  7.500000e-01
   endloop
 endfacet
 facet normal -2.393157e-01  9.709418e-01  0.000000e+00
   outer loop
     vertex -8.345938e-02  7.523688e-01  0.000000e+00
     vertex -2.608584e-01  7.086439e-01  0.000000e+00
     vertex -2.608584e-01  7.086439e-01  7.500000e-01
   endloop
 endfacet
 facet normal  0.000000e+00  1.000000e+00 -0.000000e+00
   outer loop
     vertex  9.924885e-02  7.523688e-01  0.000000e+00
     vertex -8.345938e-02  7.523688e-01  0.000000e+00
     vertex  9.924885e-02  7.523688e-01  7.500000e-01
   endloop
 endfacet
 facet normal  4.647232e-01  8.854560e-01 -0.000000e+00
   outer loop
     vertex  2.766479e-01  7.086439e-01  0.000000e+00
     vertex  2.766479e-01  7.086439e-01  7.500000e-01
     vertex  4.384280e-01  6.237351e-01  7.500000e-01
   endloop
 endfacet
 facet normal  2.393157e-01  9.709418e-01 -0.000000e+00
   outer loop
     vertex  2.766479e-01  7.086439e-01  0.000000e+00
     vertex  9.924885e-02  7.523688e-01  7.500000e-01
     vertex  2.766479e-01  7.086439e-01  7.500000e-01
   endloop
 endfacet
 facet normal  2.393157e-01  9.709418e-01  0.000000e+00
   outer loop
     vertex  2.766479e-01  7.086439e-01  0.000000e+00
     vertex  9.924885e-02  7.523688e-01  0.000000e+00
     vertex  9.924885e-02  7.523688e-01  7.500000e-01
   endloop
 endfacet
 facet normal  4.647232e-01  8.854560e-01 -0.000000e+00
   outer loop
     vertex  4.384280e-01  6.237351e-01  0.000000e+00
     vertex  2.766479e-01  7.086439e-01  0.000000e+00
     vertex  4.384280e-01  6.237351e-01  7.500000e-01
   endloop
 endfacet
 facet normal  8.229839e-01  5.680647e-01 -0.000000e+00
   outer loop
     vertex  5.751871e-01  5.025772e-01  0.000000e+00
     vertex  5.751871e-01  5.025772e-01  7.500000e-01
     vertex  6.789772e-01  3.522112e-01  7.500000e-01
   endloop
 endfacet
 facet normal  6.631227e-01  7.485107e-01 -0.000000e+00
   outer loop
     vertex  5.751871e-01  5.025772e-01  0.000000e+00
     vertex  4.384280e-01  6.237351e-01  7.500000e-01
     vertex  5.751871e-01  5.025772e-01  7.500000e-01
   endloop
 endfacet
 facet normal  6.631227e-01  7.485107e-01  0.000000e+00
   outer loop
     vertex  5.751871e-01  5.025772e-01  0.000000e+00
     vertex  4.384280e-01  6.237351e-01  0.000000e+00
     vertex  4.384280e-01  6.237351e-01  7.500000e-01
   endloop
 endfacet
 facet normal  9.350162e-01  3.546049e-01 -0.000000e+00
   outer loop
     vertex  6.789772e-01  3.522112e-01  0.000000e+00
     vertex  6.789772e-01  3.522112e-01  7.500000e-01
     vertex  7.437664e-01  1.813761e-01  7.500000e-01
   endloop
 endfacet
 facet normal  8.229839e-01  5.680647e-01 -0.000000e+00
   outer loop
     vertex  6.789772e-01  3.522112e-01  0.000000e+00
     vertex  5.751871e-01  5.025772e-01  0.000000e+00
     vertex  6.789772e-01  3.522112e-01  7.500000e-01
   endloop
 endfacet
 facet normal  9.350162e-01  3.546049e-01 -0.000000e+00
   outer loop
     vertex  7.437664e-01  1.813761e-01  0.000000e+00
     vertex  6.789772e-01  3.522112e-01  0.000000e+00
     vertex  7.437664e-01  1.813761e-01  7.500000e-01
   endloop
 endfacet
 facet normal  9.927089e-01  1.205367e-01 -0.000000e+00
   outer loop
     vertex  7.657895e-01  0.000000e+00  0.000000e+00
     vertex  7.437664e-01  1.813761e-01  7.500000e-01
     vertex  7.657895e-01  0.000000e+00  7.500000e-01
   endloop
 endfacet
 facet normal  9.927089e-01  1.205367e-01  0.000000e+00
   outer loop
     vertex  7.657895e-01  0.000000e+00  0.000000e+00
     vertex  7.437664e-01  1.813761e-01  0.000000e+00
     vertex  7.437664e-01  1.813761e-01  7.500000e-01
   endloop
 endfacet
endsolid
