solid 
 facet normal  0.000000e+00 -1.000000e+00  0.000000e+00
   outer loop
     vertex  6.394737e-01  0.000000e+00  0.000000e+00
     vertex  0.000000e+00  0.000000e+00  7.500000e-01
     vertex  0.000000e+00  0.000000e+00  0.000000e+00
   endloop
 endfacet
 facet normal  0.000000e+00 -1.000000e+00  0.000000e+00
   outer loop
     vertex  6.394737e-01  0.000000e+00  0.000000e+00
     vertex  6.394737e-01  0.000000e+00  7.500000e-01
     vertex  0.000000e+00  0.000000e+00  7.500000e-01
   endloop
 endfacet
 facet normal -1.000000e+00  5.990001e-33 -5.258198e-33
   outer loop
     vertex  6.216110e-34  5.245888e-01  3.750000e-01
     vertex  0.000000e+00  4.693257e-01  4.302632e-01
     vertex  0.000000e+00  7.500000e-01  7.500000e-01
   endloop
 endfacet
 facet normal -1.000000e+00 -3.824400e-17 -2.298834e-17
   outer loop
     vertex  0.000000e+00  7.500000e-01  0.000000e+00
     vertex  3.383892e-18  4.693257e-01  3.197368e-01
     vertex  6.216110e-34  5.245888e-01  3.750000e-01
   endloop
 endfacet
 facet normal -1.000000e+00 -2.757676e-33  0.000000e+00
   outer loop
     vertex  0.000000e+00  7.500000e-01  0.000000e+00
     vertex  6.216110e-34  5.245888e-01  3.750000e-01
     vertex  0.000000e+00  7.500000e-01  7.500000e-01
   endloop
 endfacet
 facet normal -1.000000e+00  1.519298e-33  2.230101e-33
   outer loop
     vertex  0.000000e+00  0.000000e+00  7.500000e-01
     vertex  0.000000e+00  4.693257e-01  4.302632e-01
     vertex -2.072037e-34  4.140625e-01  3.750000e-01
   endloop
 endfacet
 facet normal -1.000000e+00  0.000000e+00  0.000000e+00
   outer loop
     vertex  0.000000e+00  0.000000e+00  7.500000e-01
     vertex  0.000000e+00  7.500000e-01  7.500000e-01
     vertex  0.000000e+00  4.693257e-01  4.302632e-01
   endloop
 endfacet
 facet normal -1.000000e+00  2.910052e-17 -3.213182e-17
   outer loop
     vertex  0.000000e+00  0.000000e+00  0.000000e+00
     vertex -2.072037e-34  4.140625e-01  3.750000e-01
     vertex  3.383892e-18  4.693257e-01  3.197368e-01
   endloop
 endfacet
 facet normal -1.000000e+00 -5.004164e-34  0.000000e+00
   outer loop
     vertex  0.000000e+00  0.000000e+00  0.000000e+00
     vertex  0.000000e+00  0.000000e+00  7.500000e-01
     vertex -2.072037e-34  4.140625e-01  3.750000e-01
   endloop
 endfacet
 facet normal -1.000000e+00  0.000000e+00  1.058337e-17
   outer loop
     vertex  0.000000e+00  0.000000e+00  0.000000e+00
     vertex  3.383892e-18  4.693257e-01  3.197368e-01
     vertex  0.000000e+00  7.500000e-01  0.000000e+00
   endloop
 endfacet
 facet normal  1.000000e+00  0.000000e+00 -0.000000e+00
   outer loop
     vertex  6.394737e-01  4.693257e-01  4.302632e-01
     vertex  6.394737e-01  7.500000e-01  7.500000e-01
     vertex  6.394737e-01  0.000000e+00  7.500000e-01
   endloop
 endfacet
 facet normal  1.000000e+00  0.000000e+00  0.000000e+00
   outer loop
     vertex  6.394737e-01  4.140625e-01  3.750000e-01
     vertex  6.394737e-01  0.000000e+00  7.500000e-01
     vertex  6.394737e-01  0.000000e+00  0.000000e+00
   endloop
 endfacet
 facet normal  1.000000e+00  0.000000e+00 -0.000000e+00
   outer loop
     vertex  6.394737e-01  4.140625e-01  3.750000e-01
     vertex  6.394737e-01  4.693257e-01  4.302632e-01
     vertex  6.394737e-01  0.000000e+00  7.500000e-01
   endloop
 endfacet
 facet normal  1.000000e+00  0.000000e+00  0.000000e+00
   outer loop
     vertex  6.394737e-01  4.693257e-01  3.197368e-01
     vertex  6.394737e-01  4.140625e-01  3.750000e-01
     vertex  6.394737e-01  0.000000e+00  0.000000e+00
   endloop
 endfacet
 facet normal  1.000000e+00  0.000000e+00 -0.000000e+00
   outer loop
     vertex  6.394737e-01  5.245888e-01  3.750000e-01
     vertex  6.394737e-01  7.500000e-01  7.500000e-01
     vertex  6.394737e-01  4.693257e-01  4.302632e-01
   endloop
 endfacet
 facet normal  1.000000e+00  0.000000e+00  0.000000e+00
   outer loop
     vertex  6.394737e-01  7.500000e-01  0.000000e+00
     vertex  6.394737e-01  5.245888e-01  3.750000e-01
     vertex  6.394737e-01  4.693257e-01  3.197368e-01
   endloop
 endfacet
 facet normal  1.000000e+00  0.000000e+00  0.000000e+00
   outer loop
     vertex  6.394737e-01  7.500000e-01  0.000000e+00
     vertex  6.394737e-01  4.693257e-01  3.197368e-01
     vertex  6.394737e-01  0.000000e+00  0.000000e+00
   endloop
 endfacet
 facet normal  1.000000e+00  0.000000e+00 -0.000000e+00
   outer loop
     vertex  6.394737e-01  7.500000e-01  0.000000e+00
     vertex  6.394737e-01  7.500000e-01  7.500000e-01
     vertex  6.394737e-01  5.245888e-01  3.750000e-01
   endloop
 endfacet
 facet normal  0.000000e+00  0.000000e+00 -1.000000e+00
   outer loop
     vertex  6.394737e-01  0.000000e+00  0.000000e+00
     vertex  1.894737e-01  1.894737e-01  0.000000e+00
     vertex  4.500000e-01  1.894737e-01  0.000000e+00
   endloop
 endfacet
 facet normal  0.000000e+00  0.000000e+00 -1.000000e+00
   outer loop
     vertex  6.394737e-01  0.000000e+00  0.000000e+00
     vertex  0.000000e+00  0.000000e+00  0.000000e+00
     vertex  1.894737e-01  1.894737e-01  0.000000e+00
   endloop
 endfacet
 facet normal  0.000000e+00  0.000000e+00 -1.000000e+00
   outer loop
     vertex  0.000000e+00  7.500000e-01  0.000000e+00
     vertex  1.894737e-01  1.894737e-01  0.000000e+00
     vertex  0.000000e+00  0.000000e+00  0.000000e+00
   endloop
 endfacet
 facet normal -0.000000e+00 -0.000000e+00 -1.000000e+00
   outer loop
     vertex  1.894737e-01  7.500000e-01  0.000000e+00
     vertex  1.894737e-01  1.894737e-01  0.000000e+00
     vertex  0.000000e+00  7.500000e-01  0.000000e+00
   endloop
 endfacet
 facet normal -0.000000e+00  0.000000e+00 -1.000000e+00
   outer loop
     vertex  6.394737e-01  7.500000e-01  0.000000e+00
     vertex  4.500000e-01  1.894737e-01  0.000000e+00
     vertex  4.500000e-01  7.500000e-01  0.000000e+00
   endloop
 endfacet
 facet normal  0.000000e+00 -0.000000e+00 -1.000000e+00
   outer loop
     vertex  6.394737e-01  7.500000e-01  0.000000e+00
     vertex  6.394737e-01  0.000000e+00  0.000000e+00
     vertex  4.500000e-01  1.894737e-01  0.000000e+00
   endloop
 endfacet
 facet normal  0.000000e+00  0.000000e+00  1.000000e+00
   outer loop
     vertex  6.394737e-01  0.000000e+00  7.500000e-01
     vertex  4.500000e-01  1.894737e-01  7.500000e-01
     vertex  1.894737e-01  1.894737e-01  7.500000e-01
   endloop
 endfacet
 facet normal  0.000000e+00  0.000000e+00  1.000000e+00
   outer loop
     vertex  6.394737e-01  0.000000e+00  7.500000e-01
     vertex  1.894737e-01  1.894737e-01  7.500000e-01
     vertex  0.000000e+00  0.000000e+00  7.500000e-01
   endloop
 endfacet
 facet normal  0.000000e+00  0.000000e+00  1.000000e+00
   outer loop
     vertex  0.000000e+00  7.500000e-01  7.500000e-01
     vertex  0.000000e+00  0.000000e+00  7.500000e-01
     vertex  1.894737e-01  1.894737e-01  7.500000e-01
   endloop
 endfacet
 facet normal  0.000000e+00  0.000000e+00  1.000000e+00
   outer loop
     vertex  1.894737e-01  7.500000e-01  7.500000e-01
     vertex  0.000000e+00  7.500000e-01  7.500000e-01
     vertex  1.894737e-01  1.894737e-01  7.500000e-01
   endloop
 endfacet
 facet normal  0.000000e+00  0.000000e+00  1.000000e+00
   outer loop
     vertex  6.394737e-01  7.500000e-01  7.500000e-01
     vertex  4.500000e-01  7.500000e-01  7.500000e-01
     vertex  4.500000e-01  1.894737e-01  7.500000e-01
   endloop
 endfacet
 facet normal  0.000000e+00  0.000000e+00  1.000000e+00
   outer loop
     vertex  6.394737e-01  7.500000e-01  7.500000e-01
     vertex  4.500000e-01  1.894737e-01  7.500000e-01
     vertex  6.394737e-01  0.000000e+00  7.500000e-01
   endloop
 endfacet
 facet normal  0.000000e+00  1.000000e+00  0.000000e+00
   outer loop
     vertex  0.000000e+00  7.500000e-01  0.000000e+00
     vertex  1.894737e-01  7.500000e-01  7.500000e-01
     vertex  1.894737e-01  7.500000e-01  0.000000e+00
   endloop
 endfacet
 facet normal  0.000000e+00  1.000000e+00  0.000000e+00
   outer loop
     vertex  0.000000e+00  7.500000e-01  0.000000e+00
     vertex  0.000000e+00  7.500000e-01  7.500000e-01
     vertex  1.894737e-01  7.500000e-01  7.500000e-01
   endloop
 endfacet
 facet normal  0.000000e+00  7.071068e-01 -7.071068e-01
   outer loop
     vertex  1.894737e-01  4.693257e-01  4.302632e-01
     vertex -2.072037e-34  4.140625e-01  3.750000e-01
     vertex  0.000000e+00  4.693257e-01  4.302632e-01
   endloop
 endfacet
 facet normal  0.000000e+00  7.071068e-01 -7.071068e-01
   outer loop
     vertex  1.894737e-01  4.140625e-01  3.750000e-01
     vertex -2.072037e-34  4.140625e-01  3.750000e-01
     vertex  1.894737e-01  4.693257e-01  4.302632e-01
   endloop
 endfacet
 facet normal  0.000000e+00  7.071068e-01  7.071068e-01
   outer loop
     vertex  1.894737e-01  4.693257e-01  3.197368e-01
     vertex  3.383892e-18  4.693257e-01  3.197368e-01
     vertex -2.072037e-34  4.140625e-01  3.750000e-01
   endloop
 endfacet
 facet normal  0.000000e+00  7.071068e-01  7.071068e-01
   outer loop
     vertex  1.894737e-01  4.693257e-01  3.197368e-01
     vertex -2.072037e-34  4.140625e-01  3.750000e-01
     vertex  1.894737e-01  4.140625e-01  3.750000e-01
   endloop
 endfacet
 facet normal  0.000000e+00 -7.071068e-01  7.071068e-01
   outer loop
     vertex  1.894737e-01  5.245888e-01  3.750000e-01
     vertex  6.216110e-34  5.245888e-01  3.750000e-01
     vertex  3.383892e-18  4.693257e-01  3.197368e-01
   endloop
 endfacet
 facet normal  0.000000e+00 -7.071068e-01  7.071068e-01
   outer loop
     vertex  1.894737e-01  5.245888e-01  3.750000e-01
     vertex  3.383892e-18  4.693257e-01  3.197368e-01
     vertex  1.894737e-01  4.693257e-01  3.197368e-01
   endloop
 endfacet
 facet normal -0.000000e+00 -7.071068e-01 -7.071068e-01
   outer loop
     vertex  1.894737e-01  4.693257e-01  4.302632e-01
     vertex  0.000000e+00  4.693257e-01  4.302632e-01
     vertex  6.216110e-34  5.245888e-01  3.750000e-01
   endloop
 endfacet
 facet normal  0.000000e+00 -7.071068e-01 -7.071068e-01
   outer loop
     vertex  1.894737e-01  4.693257e-01  4.302632e-01
     vertex  6.216110e-34  5.245888e-01  3.750000e-01
     vertex  1.894737e-01  5.245888e-01  3.750000e-01
   endloop
 endfacet
 facet normal  0.000000e+00  1.000000e+00  0.000000e+00
   outer loop
     vertex  4.500000e-01  7.500000e-01  0.000000e+00
     vertex  6.394737e-01  7.500000e-01  7.500000e-01
     vertex  6.394737e-01  7.500000e-01  0.000000e+00
   endloop
 endfacet
 facet normal  0.000000e+00  1.000000e+00  0.000000e+00
   outer loop
     vertex  4.500000e-01  7.500000e-01  0.000000e+00
     vertex  4.500000e-01  7.500000e-01  7.500000e-01
     vertex  6.394737e-01  7.500000e-01  7.500000e-01
   endloop
 endfacet
 facet normal  0.000000e+00  7.071068e-01 -7.071068e-01
   outer loop
     vertex  6.394737e-01  4.140625e-01  3.750000e-01
     vertex  4.500000e-01  4.693257e-01  4.302632e-01
     vertex  6.394737e-01  4.693257e-01  4.302632e-01
   endloop
 endfacet
 facet normal  0.000000e+00  7.071068e-01 -7.071068e-01
   outer loop
     vertex  6.394737e-01  4.140625e-01  3.750000e-01
     vertex  4.500000e-01  4.140625e-01  3.750000e-01
     vertex  4.500000e-01  4.693257e-01  4.302632e-01
   endloop
 endfacet
 facet normal  0.000000e+00  7.071068e-01  7.071068e-01
   outer loop
     vertex  6.394737e-01  4.693257e-01  3.197368e-01
     vertex  4.500000e-01  4.693257e-01  3.197368e-01
     vertex  4.500000e-01  4.140625e-01  3.750000e-01
   endloop
 endfacet
 facet normal  0.000000e+00  7.071068e-01  7.071068e-01
   outer loop
     vertex  6.394737e-01  4.693257e-01  3.197368e-01
     vertex  4.500000e-01  4.140625e-01  3.750000e-01
     vertex  6.394737e-01  4.140625e-01  3.750000e-01
   endloop
 endfacet
 facet normal  0.000000e+00 -7.071068e-01  7.071068e-01
   outer loop
     vertex  6.394737e-01  5.245888e-01  3.750000e-01
     vertex  4.500000e-01  5.245888e-01  3.750000e-01
     vertex  4.500000e-01  4.693257e-01  3.197368e-01
   endloop
 endfacet
 facet normal  0.000000e+00 -7.071068e-01  7.071068e-01
   outer loop
     vertex  6.394737e-01  5.245888e-01  3.750000e-01
     vertex  4.500000e-01  4.693257e-01  3.197368e-01
     vertex  6.394737e-01  4.693257e-01  3.197368e-01
   endloop
 endfacet
 facet normal  0.000000e+00 -7.071068e-01 -7.071068e-01
   outer loop
     vertex  4.500000e-01  4.693257e-01  4.302632e-01
     vertex  4.500000e-01  5.245888e-01  3.750000e-01
     vertex  6.394737e-01  5.245888e-01  3.750000e-01
   endloop
 endfacet
 facet normal -0.000000e+00 -7.071068e-01 -7.071068e-01
   outer loop
     vertex  6.394737e-01  4.693257e-01  4.302632e-01
     vertex  4.500000e-01  4.693257e-01  4.302632e-01
     vertex  6.394737e-01  5.245888e-01  3.750000e-01
   endloop
 endfacet
 facet normal -1.000000e+00  0.000000e+00  0.000000e+00
   outer loop
     vertex  4.500000e-01  4.693257e-01  4.302632e-01
     vertex  4.500000e-01  1.894737e-01  7.500000e-01
     vertex  4.500000e-01  7.500000e-01  7.500000e-01
   endloop
 endfacet
 facet normal -1.000000e+00  0.000000e+00  0.000000e+00
   outer loop
     vertex  4.500000e-01  4.693257e-01  4.302632e-01
     vertex  4.500000e-01  7.500000e-01  7.500000e-01
     vertex  4.500000e-01  5.245888e-01  3.750000e-01
   endloop
 endfacet
 facet normal -1.000000e+00  0.000000e+00  0.000000e+00
   outer loop
     vertex  4.500000e-01  4.140625e-01  3.750000e-01
     vertex  4.500000e-01  1.894737e-01  7.500000e-01
     vertex  4.500000e-01  4.693257e-01  4.302632e-01
   endloop
 endfacet
 facet normal -1.000000e+00  0.000000e+00  0.000000e+00
   outer loop
     vertex  4.500000e-01  7.500000e-01  0.000000e+00
     vertex  4.500000e-01  4.693257e-01  3.197368e-01
     vertex  4.500000e-01  5.245888e-01  3.750000e-01
   endloop
 endfacet
 facet normal -1.000000e+00  0.000000e+00  0.000000e+00
   outer loop
     vertex  4.500000e-01  7.500000e-01  0.000000e+00
     vertex  4.500000e-01  5.245888e-01  3.750000e-01
     vertex  4.500000e-01  7.500000e-01  7.500000e-01
   endloop
 endfacet
 facet normal -1.000000e+00  0.000000e+00  0.000000e+00
   outer loop
     vertex  4.500000e-01  1.894737e-01  0.000000e+00
     vertex  4.500000e-01  4.140625e-01  3.750000e-01
     vertex  4.500000e-01  4.693257e-01  3.197368e-01
   endloop
 endfacet
 facet normal -1.000000e+00  0.000000e+00  0.000000e+00
   outer loop
     vertex  4.500000e-01  1.894737e-01  0.000000e+00
     vertex  4.500000e-01  4.693257e-01  3.197368e-01
     vertex  4.500000e-01  7.500000e-01  0.000000e+00
   endloop
 endfacet
 facet normal -1.000000e+00  0.000000e+00  0.000000e+00
   outer loop
     vertex  4.500000e-01  1.894737e-01  0.000000e+00
     vertex  4.500000e-01  1.894737e-01  7.500000e-01
     vertex  4.500000e-01  4.140625e-01  3.750000e-01
   endloop
 endfacet
 facet normal  0.000000e+00  1.000000e+00  0.000000e+00
   outer loop
     vertex  1.894737e-01  1.894737e-01  0.000000e+00
     vertex  4.500000e-01  1.894737e-01  7.500000e-01
     vertex  4.500000e-01  1.894737e-01  0.000000e+00
   endloop
 endfacet
 facet normal  0.000000e+00  1.000000e+00  0.000000e+00
   outer loop
     vertex  1.894737e-01  1.894737e-01  0.000000e+00
     vertex  1.894737e-01  1.894737e-01  7.500000e-01
     vertex  4.500000e-01  1.894737e-01  7.500000e-01
   endloop
 endfacet
 facet normal  1.000000e+00  0.000000e+00 -0.000000e+00
   outer loop
     vertex  1.894737e-01  4.693257e-01  4.302632e-01
     vertex  1.894737e-01  7.500000e-01  7.500000e-01
     vertex  1.894737e-01  1.894737e-01  7.500000e-01
   endloop
 endfacet
 facet normal  1.000000e+00  0.000000e+00 -0.000000e+00
   outer loop
     vertex  1.894737e-01  4.140625e-01  3.750000e-01
     vertex  1.894737e-01  4.693257e-01  4.302632e-01
     vertex  1.894737e-01  1.894737e-01  7.500000e-01
   endloop
 endfacet
 facet normal  1.000000e+00  0.000000e+00 -0.000000e+00
   outer loop
     vertex  1.894737e-01  5.245888e-01  3.750000e-01
     vertex  1.894737e-01  7.500000e-01  7.500000e-01
     vertex  1.894737e-01  4.693257e-01  4.302632e-01
   endloop
 endfacet
 facet normal  1.000000e+00  0.000000e+00  0.000000e+00
   outer loop
     vertex  1.894737e-01  1.894737e-01  0.000000e+00
     vertex  1.894737e-01  4.693257e-01  3.197368e-01
     vertex  1.894737e-01  4.140625e-01  3.750000e-01
   endloop
 endfacet
 facet normal  1.000000e+00  0.000000e+00  0.000000e+00
   outer loop
     vertex  1.894737e-01  1.894737e-01  0.000000e+00
     vertex  1.894737e-01  4.140625e-01  3.750000e-01
     vertex  1.894737e-01  1.894737e-01  7.500000e-01
   endloop
 endfacet
 facet normal  1.000000e+00  0.000000e+00  0.000000e+00
   outer loop
     vertex  1.894737e-01  7.500000e-01  0.000000e+00
     vertex  1.894737e-01  5.245888e-01  3.750000e-01
     vertex  1.894737e-01  4.693257e-01  3.197368e-01
   endloop
 endfacet
 facet normal  1.000000e+00  0.000000e+00  0.000000e+00
   outer loop
     vertex  1.894737e-01  7.500000e-01  0.000000e+00
     vertex  1.894737e-01  4.693257e-01  3.197368e-01
     vertex  1.894737e-01  1.894737e-01  0.000000e+00
   endloop
 endfacet
 facet normal  1.000000e+00  0.000000e+00 -0.000000e+00
   outer loop
     vertex  1.894737e-01  7.500000e-01  0.000000e+00
     vertex  1.894737e-01  7.500000e-01  7.500000e-01
     vertex  1.894737e-01  5.245888e-01  3.750000e-01
   endloop
 endfacet
endsolid
