solid 
 facet normal  0.000000e+00 -1.000000e+00  0.000000e+00
   outer loop
     vertex  8.634868e-02  0.000000e+00  0.000000e+00
     vertex  0.000000e+00  0.000000e+00  7.500000e-01
     vertex  0.000000e+00  0.000000e+00  0.000000e+00
   endloop
 endfacet
 facet normal  0.000000e+00 -1.000000e+00  0.000000e+00
   outer loop
     vertex  8.634868e-02  0.000000e+00  0.000000e+00
     vertex  8.634868e-02  0.000000e+00  7.500000e-01
     vertex  0.000000e+00  0.000000e+00  7.500000e-01
   endloop
 endfacet
 facet normal  9.550641e-01 -2.963992e-01  0.000000e+00
   outer loop
     vertex  1.381579e-01  1.669408e-01  0.000000e+00
     vertex  8.634868e-02  0.000000e+00  7.500000e-01
     vertex  8.634868e-02  0.000000e+00  0.000000e+00
   endloop
 endfacet
 facet normal  9.550641e-01 -2.963992e-01  0.000000e+00
   outer loop
     vertex  1.381579e-01  1.669408e-01  0.000000e+00
     vertex  1.381579e-01  1.669408e-01  7.500000e-01
     vertex  8.634868e-02  0.000000e+00  7.500000e-01
   endloop
 endfacet
 facet normal  6.105079e-01  7.920102e-01  0.000000e+00
   outer loop
     vertex  0.000000e+00  2.734375e-01  0.000000e+00
     vertex  1.381579e-01  1.669408e-01  7.500000e-01
     vertex  1.381579e-01  1.669408e-01  0.000000e+00
   endloop
 endfacet
 facet normal  6.105079e-01  7.920102e-01 -0.000000e+00
   outer loop
     vertex  0.000000e+00  2.734375e-01  0.000000e+00
     vertex  0.000000e+00  2.734375e-01  7.500000e-01
     vertex  1.381579e-01  1.669408e-01  7.500000e-01
   endloop
 endfacet
 facet normal -1.000000e+00  0.000000e+00  0.000000e+00
   outer loop
     vertex  0.000000e+00  1.381579e-01  0.000000e+00
     vertex  0.000000e+00  2.734375e-01  7.500000e-01
     vertex  0.000000e+00  2.734375e-01  0.000000e+00
   endloop
 endfacet
 facet normal -1.000000e+00  0.000000e+00  0.000000e+00
   outer loop
     vertex  0.000000e+00  1.381579e-01  0.000000e+00
     vertex  0.000000e+00  1.381579e-01  7.500000e-01
     vertex  0.000000e+00  2.734375e-01  7.500000e-01
   endloop
 endfacet
 facet normal -1.000000e+00  0.000000e+00  0.000000e+00
   outer loop
     vertex  0.000000e+00  0.000000e+00  0.000000e+00
     vertex  0.000000e+00  1.381579e-01  7.500000e-01
     vertex  0.000000e+00  1.381579e-01  0.000000e+00
   endloop
 endfacet
 facet normal -1.000000e+00  0.000000e+00  0.000000e+00
   outer loop
     vertex  0.000000e+00  0.000000e+00  0.000000e+00
     vertex  0.000000e+00  0.000000e+00  7.500000e-01
     vertex  0.000000e+00  1.381579e-01  7.500000e-01
   endloop
 endfacet
 facet normal  0.000000e+00  0.000000e+00 -1.000000e+00
   outer loop
     vertex  0.000000e+00  1.381579e-01  0.000000e+00
     vertex  8.634868e-02  0.000000e+00  0.000000e+00
     vertex  0.000000e+00  0.000000e+00  0.000000e+00
   endloop
 endfacet
 facet normal -0.000000e+00  0.000000e+00 -1.000000e+00
   outer loop
     vertex  1.381579e-01  1.669408e-01  0.000000e+00
     vertex  0.000000e+00  1.381579e-01  0.000000e+00
     vertex  0.000000e+00  2.734375e-01  0.000000e+00
   endloop
 endfacet
 facet normal  0.000000e+00  0.000000e+00 -1.000000e+00
   outer loop
     vertex  1.381579e-01  1.669408e-01  0.000000e+00
     vertex  8.634868e-02  0.000000e+00  0.000000e+00
     vertex  0.000000e+00  1.381579e-01  0.000000e+00
   endloop
 endfacet
 facet normal  0.000000e+00  0.000000e+00  1.000000e+00
   outer loop
     vertex  0.000000e+00  1.381579e-01  7.500000e-01
     vertex  0.000000e+00  0.000000e+00  7.500000e-01
     vertex  8.634868e-02  0.000000e+00  7.500000e-01
   endloop
 endfacet
 facet normal  0.000000e+00  0.000000e+00  1.000000e+00
   outer loop
     vertex  1.381579e-01  1.669408e-01  7.500000e-01
     vertex  0.000000e+00  2.734375e-01  7.500000e-01
     vertex  0.000000e+00  1.381579e-01  7.500000e-01
   endloop
 endfacet
 facet normal  0.000000e+00  0.000000e+00  1.000000e+00
   outer loop
     vertex  1.381579e-01  1.669408e-01  7.500000e-01
     vertex  0.000000e+00  1.381579e-01  7.500000e-01
     vertex  8.634868e-02  0.000000e+00  7.500000e-01
   endloop
 endfacet
 facet normal -9.564297e-01 -2.919627e-01  0.000000e+00
   outer loop
     vertex -9.054276e-02  0.000000e+00  0.000000e+00
     vertex -1.406250e-01  1.640625e-01  7.500000e-01
     vertex -1.406250e-01  1.640625e-01  0.000000e+00
   endloop
 endfacet
 facet normal -9.564297e-01 -2.919627e-01  0.000000e+00
   outer loop
     vertex -9.054276e-02  0.000000e+00  0.000000e+00
     vertex -9.054276e-02  0.000000e+00  7.500000e-01
     vertex -1.406250e-01  1.640625e-01  7.500000e-01
   endloop
 endfacet
 facet normal  0.000000e+00 -1.000000e+00  0.000000e+00
   outer loop
     vertex -4.194079e-03  0.000000e+00  0.000000e+00
     vertex -9.054276e-02  0.000000e+00  7.500000e-01
     vertex -9.054276e-02  0.000000e+00  0.000000e+00
   endloop
 endfacet
 facet normal  0.000000e+00 -1.000000e+00  0.000000e+00
   outer loop
     vertex -4.194079e-03  0.000000e+00  0.000000e+00
     vertex -4.194079e-03  0.000000e+00  7.500000e-01
     vertex -9.054276e-02  0.000000e+00  7.500000e-01
   endloop
 endfacet
 facet normal  1.000000e+00  0.000000e+00  0.000000e+00
   outer loop
     vertex -4.194079e-03  1.347039e-01  0.000000e+00
     vertex -4.194079e-03  0.000000e+00  7.500000e-01
     vertex -4.194079e-03  0.000000e+00  0.000000e+00
   endloop
 endfacet
 facet normal  1.000000e+00  0.000000e+00 -0.000000e+00
   outer loop
     vertex -4.194079e-03  1.347039e-01  0.000000e+00
     vertex -4.194079e-03  1.347039e-01  7.500000e-01
     vertex -4.194079e-03  0.000000e+00  7.500000e-01
   endloop
 endfacet
 facet normal  1.000000e+00  0.000000e+00  0.000000e+00
   outer loop
     vertex -4.194079e-03  2.694079e-01  0.000000e+00
     vertex -4.194079e-03  1.347039e-01  7.500000e-01
     vertex -4.194079e-03  1.347039e-01  0.000000e+00
   endloop
 endfacet
 facet normal  1.000000e+00  0.000000e+00 -0.000000e+00
   outer loop
     vertex -4.194079e-03  2.694079e-01  0.000000e+00
     vertex -4.194079e-03  2.694079e-01  7.500000e-01
     vertex -4.194079e-03  1.347039e-01  7.500000e-01
   endloop
 endfacet
 facet normal -6.111623e-01  7.915053e-01  0.000000e+00
   outer loop
     vertex -1.406250e-01  1.640625e-01  0.000000e+00
     vertex -4.194079e-03  2.694079e-01  7.500000e-01
     vertex -4.194079e-03  2.694079e-01  0.000000e+00
   endloop
 endfacet
 facet normal -6.111623e-01  7.915053e-01  0.000000e+00
   outer loop
     vertex -1.406250e-01  1.640625e-01  0.000000e+00
     vertex -1.406250e-01  1.640625e-01  7.500000e-01
     vertex -4.194079e-03  2.694079e-01  7.500000e-01
   endloop
 endfacet
 facet normal -0.000000e+00  0.000000e+00 -1.000000e+00
   outer loop
     vertex -4.194079e-03  1.347039e-01  0.000000e+00
     vertex -9.054276e-02  0.000000e+00  0.000000e+00
     vertex -1.406250e-01  1.640625e-01  0.000000e+00
   endloop
 endfacet
 facet normal  0.000000e+00 -0.000000e+00 -1.000000e+00
   outer loop
     vertex -4.194079e-03  1.347039e-01  0.000000e+00
     vertex -4.194079e-03  0.000000e+00  0.000000e+00
     vertex -9.054276e-02  0.000000e+00  0.000000e+00
   endloop
 endfacet
 facet normal  0.000000e+00 -0.000000e+00 -1.000000e+00
   outer loop
     vertex -4.194079e-03  2.694079e-01  0.000000e+00
     vertex -4.194079e-03  1.347039e-01  0.000000e+00
     vertex -1.406250e-01  1.640625e-01  0.000000e+00
   endloop
 endfacet
 facet normal  0.000000e+00  0.000000e+00  1.000000e+00
   outer loop
     vertex -4.194079e-03  1.347039e-01  7.500000e-01
     vertex -1.406250e-01  1.640625e-01  7.500000e-01
     vertex -9.054276e-02  0.000000e+00  7.500000e-01
   endloop
 endfacet
 facet normal  0.000000e+00  0.000000e+00  1.000000e+00
   outer loop
     vertex -4.194079e-03  1.347039e-01  7.500000e-01
     vertex -9.054276e-02  0.000000e+00  7.500000e-01
     vertex -4.194079e-03  0.000000e+00  7.500000e-01
   endloop
 endfacet
 facet normal  0.000000e+00  0.000000e+00  1.000000e+00
   outer loop
     vertex -4.194079e-03  2.694079e-01  7.500000e-01
     vertex -1.406250e-01  1.640625e-01  7.500000e-01
     vertex -4.194079e-03  1.347039e-01  7.500000e-01
   endloop
 endfacet
endsolid
