solid 
 facet normal -1.776773e-01 -9.840888e-01  0.000000e+00
   outer loop
     vertex  1.973684e-01 -1.809211e-03  0.000000e+00
     vertex  1.973684e-01 -1.809211e-03  1.015625e-01
     vertex  1.270556e-01  1.088578e-02  1.015625e-01
   endloop
 endfacet
 facet normal -1.776773e-01 -9.840888e-01  0.000000e+00
   outer loop
     vertex  1.270556e-01  1.088578e-02  0.000000e+00
     vertex  1.973684e-01 -1.809211e-03  0.000000e+00
     vertex  1.270556e-01  1.088578e-02  1.015625e-01
   endloop
 endfacet
 facet normal -5.146892e-01 -8.573768e-01  0.000000e+00
   outer loop
     vertex  6.579622e-02  4.766018e-02  0.000000e+00
     vertex  1.270556e-01  1.088578e-02  1.015625e-01
     vertex  6.579622e-02  4.766018e-02  1.015625e-01
   endloop
 endfacet
 facet normal -5.146892e-01 -8.573768e-01  0.000000e+00
   outer loop
     vertex  6.579622e-02  4.766018e-02  0.000000e+00
     vertex  1.270556e-01  1.088578e-02  0.000000e+00
     vertex  1.270556e-01  1.088578e-02  1.015625e-01
   endloop
 endfacet
 facet normal -7.849805e-01 -6.195205e-01  0.000000e+00
   outer loop
     vertex  2.153165e-02  1.037468e-01  0.000000e+00
     vertex  6.579622e-02  4.766018e-02  1.015625e-01
     vertex  2.153165e-02  1.037468e-01  1.015625e-01
   endloop
 endfacet
 facet normal -7.849805e-01 -6.195205e-01  0.000000e+00
   outer loop
     vertex  2.153165e-02  1.037468e-01  0.000000e+00
     vertex  6.579622e-02  4.766018e-02  0.000000e+00
     vertex  6.579622e-02  4.766018e-02  1.015625e-01
   endloop
 endfacet
 facet normal -9.535124e-01 -3.013539e-01  0.000000e+00
   outer loop
     vertex -2.775558e-17  1.718750e-01  0.000000e+00
     vertex  2.153165e-02  1.037468e-01  1.015625e-01
     vertex -2.775558e-17  1.718750e-01  1.015625e-01
   endloop
 endfacet
 facet normal -9.535124e-01 -3.013539e-01  0.000000e+00
   outer loop
     vertex -2.775558e-17  1.718750e-01  0.000000e+00
     vertex  2.153165e-02  1.037468e-01  0.000000e+00
     vertex  2.153165e-02  1.037468e-01  1.015625e-01
   endloop
 endfacet
 facet normal -9.535124e-01  3.013539e-01  0.000000e+00
   outer loop
     vertex -2.775558e-17  1.718750e-01  0.000000e+00
     vertex -2.775558e-17  1.718750e-01  1.015625e-01
     vertex  2.153165e-02  2.400032e-01  1.015625e-01
   endloop
 endfacet
 facet normal -9.535124e-01  3.013539e-01  0.000000e+00
   outer loop
     vertex  2.153165e-02  2.400032e-01  0.000000e+00
     vertex -2.775558e-17  1.718750e-01  0.000000e+00
     vertex  2.153165e-02  2.400032e-01  1.015625e-01
   endloop
 endfacet
 facet normal -7.849805e-01  6.195205e-01  0.000000e+00
   outer loop
     vertex  6.579622e-02  2.960898e-01  0.000000e+00
     vertex  2.153165e-02  2.400032e-01  1.015625e-01
     vertex  6.579622e-02  2.960898e-01  1.015625e-01
   endloop
 endfacet
 facet normal -7.849805e-01  6.195205e-01  0.000000e+00
   outer loop
     vertex  6.579622e-02  2.960898e-01  0.000000e+00
     vertex  2.153165e-02  2.400032e-01  0.000000e+00
     vertex  2.153165e-02  2.400032e-01  1.015625e-01
   endloop
 endfacet
 facet normal -5.146892e-01  8.573768e-01  0.000000e+00
   outer loop
     vertex  1.270556e-01  3.328642e-01  0.000000e+00
     vertex  6.579622e-02  2.960898e-01  1.015625e-01
     vertex  1.270556e-01  3.328642e-01  1.015625e-01
   endloop
 endfacet
 facet normal -5.146892e-01  8.573768e-01  0.000000e+00
   outer loop
     vertex  1.270556e-01  3.328642e-01  0.000000e+00
     vertex  6.579622e-02  2.960898e-01  0.000000e+00
     vertex  6.579622e-02  2.960898e-01  1.015625e-01
   endloop
 endfacet
 facet normal -1.776773e-01  9.840888e-01  0.000000e+00
   outer loop
     vertex  1.973684e-01  3.455592e-01  0.000000e+00
     vertex  1.270556e-01  3.328642e-01  1.015625e-01
     vertex  1.973684e-01  3.455592e-01  1.015625e-01
   endloop
 endfacet
 facet normal -1.776773e-01  9.840888e-01  0.000000e+00
   outer loop
     vertex  1.973684e-01  3.455592e-01  0.000000e+00
     vertex  1.270556e-01  3.328642e-01  0.000000e+00
     vertex  1.270556e-01  3.328642e-01  1.015625e-01
   endloop
 endfacet
 facet normal  0.000000e+00 -1.000000e+00  0.000000e+00
   outer loop
     vertex  7.026316e-01 -1.809211e-03  0.000000e+00
     vertex  1.973684e-01 -1.809211e-03  1.015625e-01
     vertex  1.973684e-01 -1.809211e-03  0.000000e+00
   endloop
 endfacet
 facet normal  0.000000e+00 -1.000000e+00  0.000000e+00
   outer loop
     vertex  7.026316e-01 -1.809211e-03  0.000000e+00
     vertex  7.026316e-01 -1.809211e-03  1.015625e-01
     vertex  1.973684e-01 -1.809211e-03  1.015625e-01
   endloop
 endfacet
 facet normal  0.000000e+00 -0.000000e+00 -1.000000e+00
   outer loop
     vertex  1.105263e-01  6.248232e-02  0.000000e+00
     vertex  1.270556e-01  1.088578e-02  0.000000e+00
     vertex  6.579622e-02  4.766018e-02  0.000000e+00
   endloop
 endfacet
 facet normal -0.000000e+00  0.000000e+00 -1.000000e+00
   outer loop
     vertex  5.498620e-02  1.286725e-01  0.000000e+00
     vertex  2.153165e-02  1.037468e-01  0.000000e+00
     vertex -2.775558e-17  1.718750e-01  0.000000e+00
   endloop
 endfacet
 facet normal  0.000000e+00 -0.000000e+00 -1.000000e+00
   outer loop
     vertex  5.498620e-02  1.286725e-01  0.000000e+00
     vertex  6.579622e-02  4.766018e-02  0.000000e+00
     vertex  2.153165e-02  1.037468e-01  0.000000e+00
   endloop
 endfacet
 facet normal  0.000000e+00  0.000000e+00 -1.000000e+00
   outer loop
     vertex  5.498620e-02  1.286725e-01  0.000000e+00
     vertex  1.105263e-01  6.248232e-02  0.000000e+00
     vertex  6.579622e-02  4.766018e-02  0.000000e+00
   endloop
 endfacet
 facet normal  0.000000e+00 -0.000000e+00 -1.000000e+00
   outer loop
     vertex  1.956187e-01  4.747823e-02  0.000000e+00
     vertex  1.973684e-01 -1.809211e-03  0.000000e+00
     vertex  1.270556e-01  1.088578e-02  0.000000e+00
   endloop
 endfacet
 facet normal -0.000000e+00  0.000000e+00 -1.000000e+00
   outer loop
     vertex  1.956187e-01  4.747823e-02  0.000000e+00
     vertex  1.270556e-01  1.088578e-02  0.000000e+00
     vertex  1.105263e-01  6.248232e-02  0.000000e+00
   endloop
 endfacet
 facet normal -0.000000e+00  0.000000e+00 -1.000000e+00
   outer loop
     vertex  5.498620e-02  2.150775e-01  0.000000e+00
     vertex -2.775558e-17  1.718750e-01  0.000000e+00
     vertex  2.153165e-02  2.400032e-01  0.000000e+00
   endloop
 endfacet
 facet normal  0.000000e+00  0.000000e+00 -1.000000e+00
   outer loop
     vertex  5.498620e-02  2.150775e-01  0.000000e+00
     vertex  5.498620e-02  1.286725e-01  0.000000e+00
     vertex -2.775558e-17  1.718750e-01  0.000000e+00
   endloop
 endfacet
 facet normal  0.000000e+00  0.000000e+00 -1.000000e+00
   outer loop
     vertex  2.704477e-01  9.068078e-02  0.000000e+00
     vertex  1.973684e-01 -1.809211e-03  0.000000e+00
     vertex  1.956187e-01  4.747823e-02  0.000000e+00
   endloop
 endfacet
 facet normal  0.000000e+00  0.000000e+00 -1.000000e+00
   outer loop
     vertex  6.579622e-02  2.960898e-01  0.000000e+00
     vertex  5.498620e-02  2.150775e-01  0.000000e+00
     vertex  2.153165e-02  2.400032e-01  0.000000e+00
   endloop
 endfacet
 facet normal -0.000000e+00  0.000000e+00 -1.000000e+00
   outer loop
     vertex  1.105263e-01  2.812677e-01  0.000000e+00
     vertex  5.498620e-02  2.150775e-01  0.000000e+00
     vertex  6.579622e-02  2.960898e-01  0.000000e+00
   endloop
 endfacet
 facet normal  0.000000e+00  0.000000e+00 -1.000000e+00
   outer loop
     vertex  1.270556e-01  3.328642e-01  0.000000e+00
     vertex  1.105263e-01  2.812677e-01  0.000000e+00
     vertex  6.579622e-02  2.960898e-01  0.000000e+00
   endloop
 endfacet
 facet normal -0.000000e+00  0.000000e+00 -1.000000e+00
   outer loop
     vertex  1.956187e-01  2.962718e-01  0.000000e+00
     vertex  1.105263e-01  2.812677e-01  0.000000e+00
     vertex  1.270556e-01  3.328642e-01  0.000000e+00
   endloop
 endfacet
 facet normal  0.000000e+00 -0.000000e+00 -1.000000e+00
   outer loop
     vertex  1.973684e-01  3.455592e-01  0.000000e+00
     vertex  2.704477e-01  2.530692e-01  0.000000e+00
     vertex  1.956187e-01  2.962718e-01  0.000000e+00
   endloop
 endfacet
 facet normal  0.000000e+00  0.000000e+00 -1.000000e+00
   outer loop
     vertex  1.973684e-01  3.455592e-01  0.000000e+00
     vertex  1.956187e-01  2.962718e-01  0.000000e+00
     vertex  1.270556e-01  3.328642e-01  0.000000e+00
   endloop
 endfacet
 facet normal  0.000000e+00  0.000000e+00 -1.000000e+00
   outer loop
     vertex  7.026316e-01 -1.809211e-03  0.000000e+00
     vertex  2.704477e-01  9.068078e-02  0.000000e+00
     vertex  3.000000e-01  1.718750e-01  0.000000e+00
   endloop
 endfacet
 facet normal  0.000000e+00  0.000000e+00 -1.000000e+00
   outer loop
     vertex  7.026316e-01 -1.809211e-03  0.000000e+00
     vertex  1.973684e-01 -1.809211e-03  0.000000e+00
     vertex  2.704477e-01  9.068078e-02  0.000000e+00
   endloop
 endfacet
 facet normal  0.000000e+00  0.000000e+00 -1.000000e+00
   outer loop
     vertex  7.436538e-01  2.187500e-02  0.000000e+00
     vertex  7.263158e-01  4.536955e-03  0.000000e+00
     vertex  7.026316e-01 -1.809211e-03  0.000000e+00
   endloop
 endfacet
 facet normal  0.000000e+00  0.000000e+00 -1.000000e+00
   outer loop
     vertex  7.500000e-01  4.555921e-02  0.000000e+00
     vertex  7.436538e-01  2.187500e-02  0.000000e+00
     vertex  7.026316e-01 -1.809211e-03  0.000000e+00
   endloop
 endfacet
 facet normal  0.000000e+00  0.000000e+00 -1.000000e+00
   outer loop
     vertex  7.026316e-01  3.455592e-01  0.000000e+00
     vertex  3.000000e-01  1.718750e-01  0.000000e+00
     vertex  2.704477e-01  2.530692e-01  0.000000e+00
   endloop
 endfacet
 facet normal  0.000000e+00 -0.000000e+00 -1.000000e+00
   outer loop
     vertex  7.026316e-01  3.455592e-01  0.000000e+00
     vertex  7.026316e-01 -1.809211e-03  0.000000e+00
     vertex  3.000000e-01  1.718750e-01  0.000000e+00
   endloop
 endfacet
 facet normal -0.000000e+00  0.000000e+00 -1.000000e+00
   outer loop
     vertex  7.026316e-01  3.455592e-01  0.000000e+00
     vertex  2.704477e-01  2.530692e-01  0.000000e+00
     vertex  1.973684e-01  3.455592e-01  0.000000e+00
   endloop
 endfacet
 facet normal  0.000000e+00  0.000000e+00 -1.000000e+00
   outer loop
     vertex  7.026316e-01  3.455592e-01  0.000000e+00
     vertex  7.500000e-01  4.555921e-02  0.000000e+00
     vertex  7.026316e-01 -1.809211e-03  0.000000e+00
   endloop
 endfacet
 facet normal -0.000000e+00 -0.000000e+00 -1.000000e+00
   outer loop
     vertex  7.500000e-01  2.981908e-01  0.000000e+00
     vertex  7.500000e-01  4.555921e-02  0.000000e+00
     vertex  7.026316e-01  3.455592e-01  0.000000e+00
   endloop
 endfacet
 facet normal -0.000000e+00 -0.000000e+00 -1.000000e+00
   outer loop
     vertex  7.436538e-01  3.218750e-01  0.000000e+00
     vertex  7.500000e-01  2.981908e-01  0.000000e+00
     vertex  7.026316e-01  3.455592e-01  0.000000e+00
   endloop
 endfacet
 facet normal -0.000000e+00 -0.000000e+00 -1.000000e+00
   outer loop
     vertex  7.263158e-01  3.392130e-01  0.000000e+00
     vertex  7.436538e-01  3.218750e-01  0.000000e+00
     vertex  7.026316e-01  3.455592e-01  0.000000e+00
   endloop
 endfacet
 facet normal  0.000000e+00  0.000000e+00  1.000000e+00
   outer loop
     vertex  1.105263e-01  6.248232e-02  1.015625e-01
     vertex  6.579622e-02  4.766018e-02  1.015625e-01
     vertex  1.270556e-01  1.088578e-02  1.015625e-01
   endloop
 endfacet
 facet normal  0.000000e+00  0.000000e+00  1.000000e+00
   outer loop
     vertex  5.498620e-02  1.286725e-01  1.015625e-01
     vertex -2.775558e-17  1.718750e-01  1.015625e-01
     vertex  2.153165e-02  1.037468e-01  1.015625e-01
   endloop
 endfacet
 facet normal  0.000000e+00  0.000000e+00  1.000000e+00
   outer loop
     vertex  5.498620e-02  1.286725e-01  1.015625e-01
     vertex  2.153165e-02  1.037468e-01  1.015625e-01
     vertex  6.579622e-02  4.766018e-02  1.015625e-01
   endloop
 endfacet
 facet normal  0.000000e+00  0.000000e+00  1.000000e+00
   outer loop
     vertex  5.498620e-02  1.286725e-01  1.015625e-01
     vertex  6.579622e-02  4.766018e-02  1.015625e-01
     vertex  1.105263e-01  6.248232e-02  1.015625e-01
   endloop
 endfacet
 facet normal  0.000000e+00  0.000000e+00  1.000000e+00
   outer loop
     vertex  1.956187e-01  4.747823e-02  1.015625e-01
     vertex  1.270556e-01  1.088578e-02  1.015625e-01
     vertex  1.973684e-01 -1.809211e-03  1.015625e-01
   endloop
 endfacet
 facet normal  0.000000e+00  0.000000e+00  1.000000e+00
   outer loop
     vertex  1.956187e-01  4.747823e-02  1.015625e-01
     vertex  1.105263e-01  6.248232e-02  1.015625e-01
     vertex  1.270556e-01  1.088578e-02  1.015625e-01
   endloop
 endfacet
 facet normal  0.000000e+00  0.000000e+00  1.000000e+00
   outer loop
     vertex  5.498620e-02  2.150775e-01  1.015625e-01
     vertex  2.153165e-02  2.400032e-01  1.015625e-01
     vertex -2.775558e-17  1.718750e-01  1.015625e-01
   endloop
 endfacet
 facet normal  0.000000e+00  0.000000e+00  1.000000e+00
   outer loop
     vertex  5.498620e-02  2.150775e-01  1.015625e-01
     vertex -2.775558e-17  1.718750e-01  1.015625e-01
     vertex  5.498620e-02  1.286725e-01  1.015625e-01
   endloop
 endfacet
 facet normal  0.000000e+00  0.000000e+00  1.000000e+00
   outer loop
     vertex  2.704477e-01  9.068078e-02  1.015625e-01
     vertex  1.956187e-01  4.747823e-02  1.015625e-01
     vertex  1.973684e-01 -1.809211e-03  1.015625e-01
   endloop
 endfacet
 facet normal  0.000000e+00  0.000000e+00  1.000000e+00
   outer loop
     vertex  6.579622e-02  2.960898e-01  1.015625e-01
     vertex  2.153165e-02  2.400032e-01  1.015625e-01
     vertex  5.498620e-02  2.150775e-01  1.015625e-01
   endloop
 endfacet
 facet normal  0.000000e+00  0.000000e+00  1.000000e+00
   outer loop
     vertex  1.105263e-01  2.812677e-01  1.015625e-01
     vertex  6.579622e-02  2.960898e-01  1.015625e-01
     vertex  5.498620e-02  2.150775e-01  1.015625e-01
   endloop
 endfacet
 facet normal  0.000000e+00  0.000000e+00  1.000000e+00
   outer loop
     vertex  1.270556e-01  3.328642e-01  1.015625e-01
     vertex  6.579622e-02  2.960898e-01  1.015625e-01
     vertex  1.105263e-01  2.812677e-01  1.015625e-01
   endloop
 endfacet
 facet normal  0.000000e+00  0.000000e+00  1.000000e+00
   outer loop
     vertex  1.956187e-01  2.962718e-01  1.015625e-01
     vertex  1.270556e-01  3.328642e-01  1.015625e-01
     vertex  1.105263e-01  2.812677e-01  1.015625e-01
   endloop
 endfacet
 facet normal  0.000000e+00  0.000000e+00  1.000000e+00
   outer loop
     vertex  3.898437e-01  1.082763e-01  1.015625e-01
     vertex  2.704477e-01  9.068078e-02  1.015625e-01
     vertex  1.973684e-01 -1.809211e-03  1.015625e-01
   endloop
 endfacet
 facet normal  0.000000e+00  0.000000e+00  1.000000e+00
   outer loop
     vertex  3.531250e-01  1.718750e-01  1.015625e-01
     vertex  2.704477e-01  2.530692e-01  1.015625e-01
     vertex  3.000000e-01  1.718750e-01  1.015625e-01
   endloop
 endfacet
 facet normal  0.000000e+00  0.000000e+00  1.000000e+00
   outer loop
     vertex  3.531250e-01  1.718750e-01  1.015625e-01
     vertex  3.000000e-01  1.718750e-01  1.015625e-01
     vertex  2.704477e-01  9.068078e-02  1.015625e-01
   endloop
 endfacet
 facet normal  0.000000e+00  0.000000e+00  1.000000e+00
   outer loop
     vertex  3.531250e-01  1.718750e-01  1.015625e-01
     vertex  2.704477e-01  9.068078e-02  1.015625e-01
     vertex  3.898437e-01  1.082763e-01  1.015625e-01
   endloop
 endfacet
 facet normal  0.000000e+00  0.000000e+00  1.000000e+00
   outer loop
     vertex  1.973684e-01  3.455592e-01  1.015625e-01
     vertex  1.956187e-01  2.962718e-01  1.015625e-01
     vertex  2.704477e-01  2.530692e-01  1.015625e-01
   endloop
 endfacet
 facet normal  0.000000e+00  0.000000e+00  1.000000e+00
   outer loop
     vertex  1.973684e-01  3.455592e-01  1.015625e-01
     vertex  1.270556e-01  3.328642e-01  1.015625e-01
     vertex  1.956187e-01  2.962718e-01  1.015625e-01
   endloop
 endfacet
 facet normal  0.000000e+00  0.000000e+00  1.000000e+00
   outer loop
     vertex  4.632812e-01  1.082763e-01  1.015625e-01
     vertex  3.898437e-01  1.082763e-01  1.015625e-01
     vertex  1.973684e-01 -1.809211e-03  1.015625e-01
   endloop
 endfacet
 facet normal  0.000000e+00  0.000000e+00  1.000000e+00
   outer loop
     vertex  3.898438e-01  2.354737e-01  1.015625e-01
     vertex  2.704477e-01  2.530692e-01  1.015625e-01
     vertex  3.531250e-01  1.718750e-01  1.015625e-01
   endloop
 endfacet
 facet normal  0.000000e+00  0.000000e+00  1.000000e+00
   outer loop
     vertex  3.898438e-01  2.354737e-01  1.015625e-01
     vertex  1.973684e-01  3.455592e-01  1.015625e-01
     vertex  2.704477e-01  2.530692e-01  1.015625e-01
   endloop
 endfacet
 facet normal  0.000000e+00  0.000000e+00  1.000000e+00
   outer loop
     vertex  4.632813e-01  2.354737e-01  1.015625e-01
     vertex  1.973684e-01  3.455592e-01  1.015625e-01
     vertex  3.898438e-01  2.354737e-01  1.015625e-01
   endloop
 endfacet
 facet normal  0.000000e+00  0.000000e+00  1.000000e+00
   outer loop
     vertex  7.026316e-01 -1.809211e-03  1.015625e-01
     vertex  5.851562e-01  1.082763e-01  1.015625e-01
     vertex  4.632812e-01  1.082763e-01  1.015625e-01
   endloop
 endfacet
 facet normal  0.000000e+00  0.000000e+00  1.000000e+00
   outer loop
     vertex  7.026316e-01 -1.809211e-03  1.015625e-01
     vertex  4.632812e-01  1.082763e-01  1.015625e-01
     vertex  1.973684e-01 -1.809211e-03  1.015625e-01
   endloop
 endfacet
 facet normal  0.000000e+00  0.000000e+00  1.000000e+00
   outer loop
     vertex  5.484375e-01  1.718750e-01  1.015625e-01
     vertex  5.000000e-01  1.718750e-01  1.015625e-01
     vertex  4.632812e-01  1.082763e-01  1.015625e-01
   endloop
 endfacet
 facet normal  0.000000e+00  0.000000e+00  1.000000e+00
   outer loop
     vertex  5.484375e-01  1.718750e-01  1.015625e-01
     vertex  4.632812e-01  1.082763e-01  1.015625e-01
     vertex  5.851562e-01  1.082763e-01  1.015625e-01
   endloop
 endfacet
 facet normal  0.000000e+00  0.000000e+00  1.000000e+00
   outer loop
     vertex  7.436538e-01  2.187500e-02  1.015625e-01
     vertex  7.026316e-01 -1.809211e-03  1.015625e-01
     vertex  7.263158e-01  4.536955e-03  1.015625e-01
   endloop
 endfacet
 facet normal  0.000000e+00  0.000000e+00  1.000000e+00
   outer loop
     vertex  6.585937e-01  1.082763e-01  1.015625e-01
     vertex  5.851562e-01  1.082763e-01  1.015625e-01
     vertex  7.026316e-01 -1.809211e-03  1.015625e-01
   endloop
 endfacet
 facet normal  0.000000e+00  0.000000e+00  1.000000e+00
   outer loop
     vertex  7.500000e-01  4.555921e-02  1.015625e-01
     vertex  6.585937e-01  1.082763e-01  1.015625e-01
     vertex  7.026316e-01 -1.809211e-03  1.015625e-01
   endloop
 endfacet
 facet normal  0.000000e+00  0.000000e+00  1.000000e+00
   outer loop
     vertex  7.500000e-01  4.555921e-02  1.015625e-01
     vertex  7.026316e-01 -1.809211e-03  1.015625e-01
     vertex  7.436538e-01  2.187500e-02  1.015625e-01
   endloop
 endfacet
 facet normal  0.000000e+00  0.000000e+00  1.000000e+00
   outer loop
     vertex  5.851562e-01  2.354737e-01  1.015625e-01
     vertex  4.632813e-01  2.354737e-01  1.015625e-01
     vertex  5.000000e-01  1.718750e-01  1.015625e-01
   endloop
 endfacet
 facet normal  0.000000e+00  0.000000e+00  1.000000e+00
   outer loop
     vertex  5.851562e-01  2.354737e-01  1.015625e-01
     vertex  5.000000e-01  1.718750e-01  1.015625e-01
     vertex  5.484375e-01  1.718750e-01  1.015625e-01
   endloop
 endfacet
 facet normal  0.000000e+00  0.000000e+00  1.000000e+00
   outer loop
     vertex  6.953125e-01  1.718750e-01  1.015625e-01
     vertex  6.585937e-01  1.082763e-01  1.015625e-01
     vertex  7.500000e-01  4.555921e-02  1.015625e-01
   endloop
 endfacet
 facet normal  0.000000e+00  0.000000e+00  1.000000e+00
   outer loop
     vertex  7.026316e-01  3.455592e-01  1.015625e-01
     vertex  5.851562e-01  2.354737e-01  1.015625e-01
     vertex  6.585937e-01  2.354737e-01  1.015625e-01
   endloop
 endfacet
 facet normal  0.000000e+00  0.000000e+00  1.000000e+00
   outer loop
     vertex  7.026316e-01  3.455592e-01  1.015625e-01
     vertex  1.973684e-01  3.455592e-01  1.015625e-01
     vertex  4.632813e-01  2.354737e-01  1.015625e-01
   endloop
 endfacet
 facet normal  0.000000e+00  0.000000e+00  1.000000e+00
   outer loop
     vertex  7.026316e-01  3.455592e-01  1.015625e-01
     vertex  4.632813e-01  2.354737e-01  1.015625e-01
     vertex  5.851562e-01  2.354737e-01  1.015625e-01
   endloop
 endfacet
 facet normal  0.000000e+00  0.000000e+00  1.000000e+00
   outer loop
     vertex  7.500000e-01  2.981908e-01  1.015625e-01
     vertex  6.953125e-01  1.718750e-01  1.015625e-01
     vertex  7.500000e-01  4.555921e-02  1.015625e-01
   endloop
 endfacet
 facet normal  0.000000e+00  0.000000e+00  1.000000e+00
   outer loop
     vertex  7.500000e-01  2.981908e-01  1.015625e-01
     vertex  6.585937e-01  2.354737e-01  1.015625e-01
     vertex  6.953125e-01  1.718750e-01  1.015625e-01
   endloop
 endfacet
 facet normal  0.000000e+00  0.000000e+00  1.000000e+00
   outer loop
     vertex  7.500000e-01  2.981908e-01  1.015625e-01
     vertex  7.026316e-01  3.455592e-01  1.015625e-01
     vertex  6.585937e-01  2.354737e-01  1.015625e-01
   endloop
 endfacet
 facet normal  0.000000e+00  0.000000e+00  1.000000e+00
   outer loop
     vertex  7.436538e-01  3.218750e-01  1.015625e-01
     vertex  7.026316e-01  3.455592e-01  1.015625e-01
     vertex  7.500000e-01  2.981908e-01  1.015625e-01
   endloop
 endfacet
 facet normal  0.000000e+00  0.000000e+00  1.000000e+00
   outer loop
     vertex  7.263158e-01  3.392130e-01  1.015625e-01
     vertex  7.026316e-01  3.455592e-01  1.015625e-01
     vertex  7.436538e-01  3.218750e-01  1.015625e-01
   endloop
 endfacet
 facet normal  0.000000e+00  1.000000e+00  0.000000e+00
   outer loop
     vertex  1.973684e-01  3.455592e-01  0.000000e+00
     vertex  7.026316e-01  3.455592e-01  1.015625e-01
     vertex  7.026316e-01  3.455592e-01  0.000000e+00
   endloop
 endfacet
 facet normal  0.000000e+00  1.000000e+00  0.000000e+00
   outer loop
     vertex  1.973684e-01  3.455592e-01  0.000000e+00
     vertex  1.973684e-01  3.455592e-01  1.015625e-01
     vertex  7.026316e-01  3.455592e-01  1.015625e-01
   endloop
 endfacet
 facet normal  9.659258e-01 -2.588190e-01  0.000000e+00
   outer loop
     vertex  7.436538e-01  2.187500e-02  0.000000e+00
     vertex  7.500000e-01  4.555921e-02  0.000000e+00
     vertex  7.500000e-01  4.555921e-02  1.015625e-01
   endloop
 endfacet
 facet normal  9.659258e-01 -2.588190e-01  0.000000e+00
   outer loop
     vertex  7.436538e-01  2.187500e-02  0.000000e+00
     vertex  7.500000e-01  4.555921e-02  1.015625e-01
     vertex  7.436538e-01  2.187500e-02  1.015625e-01
   endloop
 endfacet
 facet normal  7.071068e-01 -7.071068e-01  0.000000e+00
   outer loop
     vertex  7.263158e-01  4.536955e-03  0.000000e+00
     vertex  7.436538e-01  2.187500e-02  1.015625e-01
     vertex  7.263158e-01  4.536955e-03  1.015625e-01
   endloop
 endfacet
 facet normal  7.071068e-01 -7.071068e-01  0.000000e+00
   outer loop
     vertex  7.263158e-01  4.536955e-03  0.000000e+00
     vertex  7.436538e-01  2.187500e-02  0.000000e+00
     vertex  7.436538e-01  2.187500e-02  1.015625e-01
   endloop
 endfacet
 facet normal  2.588190e-01 -9.659258e-01  0.000000e+00
   outer loop
     vertex  7.026316e-01 -1.809211e-03  0.000000e+00
     vertex  7.263158e-01  4.536955e-03  1.015625e-01
     vertex  7.026316e-01 -1.809211e-03  1.015625e-01
   endloop
 endfacet
 facet normal  2.588190e-01 -9.659258e-01  0.000000e+00
   outer loop
     vertex  7.026316e-01 -1.809211e-03  0.000000e+00
     vertex  7.263158e-01  4.536955e-03  0.000000e+00
     vertex  7.263158e-01  4.536955e-03  1.015625e-01
   endloop
 endfacet
 facet normal  1.000000e+00  0.000000e+00  0.000000e+00
   outer loop
     vertex  7.500000e-01  2.981908e-01  0.000000e+00
     vertex  7.500000e-01  4.555921e-02  1.015625e-01
     vertex  7.500000e-01  4.555921e-02  0.000000e+00
   endloop
 endfacet
 facet normal  1.000000e+00  0.000000e+00 -0.000000e+00
   outer loop
     vertex  7.500000e-01  2.981908e-01  0.000000e+00
     vertex  7.500000e-01  2.981908e-01  1.015625e-01
     vertex  7.500000e-01  4.555921e-02  1.015625e-01
   endloop
 endfacet
 facet normal  2.588190e-01  9.659258e-01  0.000000e+00
   outer loop
     vertex  7.263158e-01  3.392130e-01  0.000000e+00
     vertex  7.026316e-01  3.455592e-01  0.000000e+00
     vertex  7.026316e-01  3.455592e-01  1.015625e-01
   endloop
 endfacet
 facet normal  2.588190e-01  9.659258e-01 -0.000000e+00
   outer loop
     vertex  7.263158e-01  3.392130e-01  0.000000e+00
     vertex  7.026316e-01  3.455592e-01  1.015625e-01
     vertex  7.263158e-01  3.392130e-01  1.015625e-01
   endloop
 endfacet
 facet normal  7.071068e-01  7.071068e-01 -0.000000e+00
   outer loop
     vertex  7.436538e-01  3.218750e-01  0.000000e+00
     vertex  7.263158e-01  3.392130e-01  1.015625e-01
     vertex  7.436538e-01  3.218750e-01  1.015625e-01
   endloop
 endfacet
 facet normal  7.071068e-01  7.071068e-01  0.000000e+00
   outer loop
     vertex  7.436538e-01  3.218750e-01  0.000000e+00
     vertex  7.263158e-01  3.392130e-01  0.000000e+00
     vertex  7.263158e-01  3.392130e-01  1.015625e-01
   endloop
 endfacet
 facet normal  9.659258e-01  2.588190e-01 -0.000000e+00
   outer loop
     vertex  7.500000e-01  2.981908e-01  0.000000e+00
     vertex  7.436538e-01  3.218750e-01  1.015625e-01
     vertex  7.500000e-01  2.981908e-01  1.015625e-01
   endloop
 endfacet
 facet normal  9.659258e-01  2.588190e-01  0.000000e+00
   outer loop
     vertex  7.500000e-01  2.981908e-01  0.000000e+00
     vertex  7.436538e-01  3.218750e-01  0.000000e+00
     vertex  7.436538e-01  3.218750e-01  1.015625e-01
   endloop
 endfacet
 facet normal -9.396926e-01  3.420201e-01  0.000000e+00
   outer loop
     vertex  2.704477e-01  9.068078e-02  0.000000e+00
     vertex  3.000000e-01  1.718750e-01  1.015625e-01
     vertex  3.000000e-01  1.718750e-01  0.000000e+00
   endloop
 endfacet
 facet normal -9.396926e-01  3.420201e-01  0.000000e+00
   outer loop
     vertex  2.704477e-01  9.068078e-02  0.000000e+00
     vertex  2.704477e-01  9.068078e-02  1.015625e-01
     vertex  3.000000e-01  1.718750e-01  1.015625e-01
   endloop
 endfacet
 facet normal -5.000000e-01  8.660254e-01  0.000000e+00
   outer loop
     vertex  1.956187e-01  4.747823e-02  0.000000e+00
     vertex  1.956187e-01  4.747823e-02  1.015625e-01
     vertex  2.704477e-01  9.068078e-02  1.015625e-01
   endloop
 endfacet
 facet normal -5.000000e-01  8.660254e-01  0.000000e+00
   outer loop
     vertex  1.956187e-01  4.747823e-02  0.000000e+00
     vertex  2.704477e-01  9.068078e-02  1.015625e-01
     vertex  2.704477e-01  9.068078e-02  0.000000e+00
   endloop
 endfacet
 facet normal  1.736482e-01  9.848078e-01 -0.000000e+00
   outer loop
     vertex  1.105263e-01  6.248232e-02  0.000000e+00
     vertex  1.105263e-01  6.248232e-02  1.015625e-01
     vertex  1.956187e-01  4.747823e-02  1.015625e-01
   endloop
 endfacet
 facet normal  1.736482e-01  9.848078e-01  0.000000e+00
   outer loop
     vertex  1.105263e-01  6.248232e-02  0.000000e+00
     vertex  1.956187e-01  4.747823e-02  1.015625e-01
     vertex  1.956187e-01  4.747823e-02  0.000000e+00
   endloop
 endfacet
 facet normal  7.660444e-01  6.427876e-01 -0.000000e+00
   outer loop
     vertex  5.498620e-02  1.286725e-01  0.000000e+00
     vertex  5.498620e-02  1.286725e-01  1.015625e-01
     vertex  1.105263e-01  6.248232e-02  1.015625e-01
   endloop
 endfacet
 facet normal  7.660444e-01  6.427876e-01  0.000000e+00
   outer loop
     vertex  5.498620e-02  1.286725e-01  0.000000e+00
     vertex  1.105263e-01  6.248232e-02  1.015625e-01
     vertex  1.105263e-01  6.248232e-02  0.000000e+00
   endloop
 endfacet
 facet normal  1.000000e+00 -1.606131e-16  0.000000e+00
   outer loop
     vertex  5.498620e-02  2.150775e-01  0.000000e+00
     vertex  5.498620e-02  2.150775e-01  1.015625e-01
     vertex  5.498620e-02  1.286725e-01  1.015625e-01
   endloop
 endfacet
 facet normal  1.000000e+00 -1.606131e-16  0.000000e+00
   outer loop
     vertex  5.498620e-02  2.150775e-01  0.000000e+00
     vertex  5.498620e-02  1.286725e-01  1.015625e-01
     vertex  5.498620e-02  1.286725e-01  0.000000e+00
   endloop
 endfacet
 facet normal  7.660444e-01 -6.427876e-01  0.000000e+00
   outer loop
     vertex  1.105263e-01  2.812677e-01  0.000000e+00
     vertex  1.105263e-01  2.812677e-01  1.015625e-01
     vertex  5.498620e-02  2.150775e-01  1.015625e-01
   endloop
 endfacet
 facet normal  7.660444e-01 -6.427876e-01  0.000000e+00
   outer loop
     vertex  1.105263e-01  2.812677e-01  0.000000e+00
     vertex  5.498620e-02  2.150775e-01  1.015625e-01
     vertex  5.498620e-02  2.150775e-01  0.000000e+00
   endloop
 endfacet
 facet normal  1.736482e-01 -9.848078e-01  0.000000e+00
   outer loop
     vertex  1.956187e-01  2.962718e-01  0.000000e+00
     vertex  1.956187e-01  2.962718e-01  1.015625e-01
     vertex  1.105263e-01  2.812677e-01  1.015625e-01
   endloop
 endfacet
 facet normal  1.736482e-01 -9.848078e-01  0.000000e+00
   outer loop
     vertex  1.956187e-01  2.962718e-01  0.000000e+00
     vertex  1.105263e-01  2.812677e-01  1.015625e-01
     vertex  1.105263e-01  2.812677e-01  0.000000e+00
   endloop
 endfacet
 facet normal -5.000000e-01 -8.660254e-01  0.000000e+00
   outer loop
     vertex  2.704477e-01  2.530692e-01  0.000000e+00
     vertex  2.704477e-01  2.530692e-01  1.015625e-01
     vertex  1.956187e-01  2.962718e-01  1.015625e-01
   endloop
 endfacet
 facet normal -5.000000e-01 -8.660254e-01  0.000000e+00
   outer loop
     vertex  2.704477e-01  2.530692e-01  0.000000e+00
     vertex  1.956187e-01  2.962718e-01  1.015625e-01
     vertex  1.956187e-01  2.962718e-01  0.000000e+00
   endloop
 endfacet
 facet normal -9.396926e-01 -3.420201e-01  0.000000e+00
   outer loop
     vertex  3.000000e-01  1.718750e-01  0.000000e+00
     vertex  3.000000e-01  1.718750e-01  1.015625e-01
     vertex  2.704477e-01  2.530692e-01  1.015625e-01
   endloop
 endfacet
 facet normal -9.396926e-01 -3.420201e-01  0.000000e+00
   outer loop
     vertex  3.000000e-01  1.718750e-01  0.000000e+00
     vertex  2.704477e-01  2.530692e-01  1.015625e-01
     vertex  2.704477e-01  2.530692e-01  0.000000e+00
   endloop
 endfacet
 facet normal  8.660254e-01 -5.000000e-01  0.000000e+00
   outer loop
     vertex  4.632812e-01  1.082763e-01  1.015625e-01
     vertex  5.000000e-01  1.718750e-01  1.015625e-01
     vertex  5.000000e-01  1.718750e-01  1.093750e-01
   endloop
 endfacet
 facet normal  8.660254e-01 -5.000000e-01  0.000000e+00
   outer loop
     vertex  4.632812e-01  1.082763e-01  1.015625e-01
     vertex  5.000000e-01  1.718750e-01  1.093750e-01
     vertex  4.632812e-01  1.082763e-01  1.093750e-01
   endloop
 endfacet
 facet normal -5.669224e-16 -1.000000e+00  0.000000e+00
   outer loop
     vertex  3.898437e-01  1.082763e-01  1.015625e-01
     vertex  4.632812e-01  1.082763e-01  1.093750e-01
     vertex  3.898437e-01  1.082763e-01  1.093750e-01
   endloop
 endfacet
 facet normal -5.669224e-16 -1.000000e+00  0.000000e+00
   outer loop
     vertex  3.898437e-01  1.082763e-01  1.015625e-01
     vertex  4.632812e-01  1.082763e-01  1.015625e-01
     vertex  4.632812e-01  1.082763e-01  1.093750e-01
   endloop
 endfacet
 facet normal -8.660254e-01 -5.000000e-01  0.000000e+00
   outer loop
     vertex  3.531250e-01  1.718750e-01  1.015625e-01
     vertex  3.898437e-01  1.082763e-01  1.093750e-01
     vertex  3.531250e-01  1.718750e-01  1.093750e-01
   endloop
 endfacet
 facet normal -8.660254e-01 -5.000000e-01  0.000000e+00
   outer loop
     vertex  3.531250e-01  1.718750e-01  1.015625e-01
     vertex  3.898437e-01  1.082763e-01  1.015625e-01
     vertex  3.898437e-01  1.082763e-01  1.093750e-01
   endloop
 endfacet
 facet normal -8.660254e-01  5.000000e-01  0.000000e+00
   outer loop
     vertex  3.898438e-01  2.354737e-01  1.015625e-01
     vertex  3.531250e-01  1.718750e-01  1.093750e-01
     vertex  3.898438e-01  2.354737e-01  1.093750e-01
   endloop
 endfacet
 facet normal -8.660254e-01  5.000000e-01  0.000000e+00
   outer loop
     vertex  3.898438e-01  2.354737e-01  1.015625e-01
     vertex  3.531250e-01  1.718750e-01  1.015625e-01
     vertex  3.531250e-01  1.718750e-01  1.093750e-01
   endloop
 endfacet
 facet normal  0.000000e+00  1.000000e+00 -0.000000e+00
   outer loop
     vertex  4.632813e-01  2.354737e-01  1.015625e-01
     vertex  3.898438e-01  2.354737e-01  1.093750e-01
     vertex  4.632813e-01  2.354737e-01  1.093750e-01
   endloop
 endfacet
 facet normal  0.000000e+00  1.000000e+00  0.000000e+00
   outer loop
     vertex  4.632813e-01  2.354737e-01  1.015625e-01
     vertex  3.898438e-01  2.354737e-01  1.015625e-01
     vertex  3.898438e-01  2.354737e-01  1.093750e-01
   endloop
 endfacet
 facet normal  8.660254e-01  5.000000e-01 -0.000000e+00
   outer loop
     vertex  5.000000e-01  1.718750e-01  1.015625e-01
     vertex  4.632813e-01  2.354737e-01  1.093750e-01
     vertex  5.000000e-01  1.718750e-01  1.093750e-01
   endloop
 endfacet
 facet normal  8.660254e-01  5.000000e-01  0.000000e+00
   outer loop
     vertex  5.000000e-01  1.718750e-01  1.015625e-01
     vertex  4.632813e-01  2.354737e-01  1.015625e-01
     vertex  4.632813e-01  2.354737e-01  1.093750e-01
   endloop
 endfacet
 facet normal  8.660254e-01 -5.000000e-01  0.000000e+00
   outer loop
     vertex  6.585937e-01  1.082763e-01  1.015625e-01
     vertex  6.953125e-01  1.718750e-01  1.015625e-01
     vertex  6.953125e-01  1.718750e-01  1.093750e-01
   endloop
 endfacet
 facet normal  8.660254e-01 -5.000000e-01  0.000000e+00
   outer loop
     vertex  6.585937e-01  1.082763e-01  1.015625e-01
     vertex  6.953125e-01  1.718750e-01  1.093750e-01
     vertex  6.585937e-01  1.082763e-01  1.093750e-01
   endloop
 endfacet
 facet normal -5.669224e-16 -1.000000e+00  0.000000e+00
   outer loop
     vertex  5.851562e-01  1.082763e-01  1.015625e-01
     vertex  6.585937e-01  1.082763e-01  1.093750e-01
     vertex  5.851562e-01  1.082763e-01  1.093750e-01
   endloop
 endfacet
 facet normal -5.669224e-16 -1.000000e+00  0.000000e+00
   outer loop
     vertex  5.851562e-01  1.082763e-01  1.015625e-01
     vertex  6.585937e-01  1.082763e-01  1.015625e-01
     vertex  6.585937e-01  1.082763e-01  1.093750e-01
   endloop
 endfacet
 facet normal -8.660254e-01 -5.000000e-01  0.000000e+00
   outer loop
     vertex  5.484375e-01  1.718750e-01  1.015625e-01
     vertex  5.851562e-01  1.082763e-01  1.093750e-01
     vertex  5.484375e-01  1.718750e-01  1.093750e-01
   endloop
 endfacet
 facet normal -8.660254e-01 -5.000000e-01  0.000000e+00
   outer loop
     vertex  5.484375e-01  1.718750e-01  1.015625e-01
     vertex  5.851562e-01  1.082763e-01  1.015625e-01
     vertex  5.851562e-01  1.082763e-01  1.093750e-01
   endloop
 endfacet
 facet normal -8.660254e-01  5.000000e-01  0.000000e+00
   outer loop
     vertex  5.851562e-01  2.354737e-01  1.015625e-01
     vertex  5.484375e-01  1.718750e-01  1.093750e-01
     vertex  5.851562e-01  2.354737e-01  1.093750e-01
   endloop
 endfacet
 facet normal -8.660254e-01  5.000000e-01  0.000000e+00
   outer loop
     vertex  5.851562e-01  2.354737e-01  1.015625e-01
     vertex  5.484375e-01  1.718750e-01  1.015625e-01
     vertex  5.484375e-01  1.718750e-01  1.093750e-01
   endloop
 endfacet
 facet normal  0.000000e+00  1.000000e+00 -0.000000e+00
   outer loop
     vertex  6.585937e-01  2.354737e-01  1.015625e-01
     vertex  5.851562e-01  2.354737e-01  1.093750e-01
     vertex  6.585937e-01  2.354737e-01  1.093750e-01
   endloop
 endfacet
 facet normal  0.000000e+00  1.000000e+00  0.000000e+00
   outer loop
     vertex  6.585937e-01  2.354737e-01  1.015625e-01
     vertex  5.851562e-01  2.354737e-01  1.015625e-01
     vertex  5.851562e-01  2.354737e-01  1.093750e-01
   endloop
 endfacet
 facet normal  8.660254e-01  5.000000e-01 -0.000000e+00
   outer loop
     vertex  6.953125e-01  1.718750e-01  1.015625e-01
     vertex  6.585937e-01  2.354737e-01  1.093750e-01
     vertex  6.953125e-01  1.718750e-01  1.093750e-01
   endloop
 endfacet
 facet normal  8.660254e-01  5.000000e-01  0.000000e+00
   outer loop
     vertex  6.953125e-01  1.718750e-01  1.015625e-01
     vertex  6.585937e-01  2.354737e-01  1.015625e-01
     vertex  6.585937e-01  2.354737e-01  1.093750e-01
   endloop
 endfacet
 facet normal  0.000000e+00  0.000000e+00  1.000000e+00
   outer loop
     vertex  3.890625e-01  1.718750e-01  1.093750e-01
     vertex  3.531250e-01  1.718750e-01  1.093750e-01
     vertex  3.898437e-01  1.082763e-01  1.093750e-01
   endloop
 endfacet
 facet normal  0.000000e+00  0.000000e+00  1.000000e+00
   outer loop
     vertex  3.890625e-01  1.718750e-01  1.093750e-01
     vertex  3.898437e-01  1.082763e-01  1.093750e-01
     vertex  4.265625e-01  1.343750e-01  1.093750e-01
   endloop
 endfacet
 facet normal  0.000000e+00  0.000000e+00  1.000000e+00
   outer loop
     vertex  4.632812e-01  1.082763e-01  1.093750e-01
     vertex  4.265625e-01  1.343750e-01  1.093750e-01
     vertex  3.898437e-01  1.082763e-01  1.093750e-01
   endloop
 endfacet
 facet normal  0.000000e+00  0.000000e+00  1.000000e+00
   outer loop
     vertex  3.898438e-01  2.354737e-01  1.093750e-01
     vertex  3.531250e-01  1.718750e-01  1.093750e-01
     vertex  3.890625e-01  1.718750e-01  1.093750e-01
   endloop
 endfacet
 facet normal  0.000000e+00  0.000000e+00  1.000000e+00
   outer loop
     vertex  4.640625e-01  1.718750e-01  1.093750e-01
     vertex  4.265625e-01  1.343750e-01  1.093750e-01
     vertex  4.632812e-01  1.082763e-01  1.093750e-01
   endloop
 endfacet
 facet normal  0.000000e+00  0.000000e+00  1.000000e+00
   outer loop
     vertex  4.265625e-01  2.093750e-01  1.093750e-01
     vertex  3.898438e-01  2.354737e-01  1.093750e-01
     vertex  3.890625e-01  1.718750e-01  1.093750e-01
   endloop
 endfacet
 facet normal  0.000000e+00  0.000000e+00  1.000000e+00
   outer loop
     vertex  5.000000e-01  1.718750e-01  1.093750e-01
     vertex  4.640625e-01  1.718750e-01  1.093750e-01
     vertex  4.632812e-01  1.082763e-01  1.093750e-01
   endloop
 endfacet
 facet normal  0.000000e+00  0.000000e+00  1.000000e+00
   outer loop
     vertex  4.632813e-01  2.354737e-01  1.093750e-01
     vertex  4.265625e-01  2.093750e-01  1.093750e-01
     vertex  4.640625e-01  1.718750e-01  1.093750e-01
   endloop
 endfacet
 facet normal  0.000000e+00  0.000000e+00  1.000000e+00
   outer loop
     vertex  4.632813e-01  2.354737e-01  1.093750e-01
     vertex  4.640625e-01  1.718750e-01  1.093750e-01
     vertex  5.000000e-01  1.718750e-01  1.093750e-01
   endloop
 endfacet
 facet normal  0.000000e+00  0.000000e+00  1.000000e+00
   outer loop
     vertex  4.632813e-01  2.354737e-01  1.093750e-01
     vertex  3.898438e-01  2.354737e-01  1.093750e-01
     vertex  4.265625e-01  2.093750e-01  1.093750e-01
   endloop
 endfacet
 facet normal  0.000000e+00  0.000000e+00  1.000000e+00
   outer loop
     vertex  5.843750e-01  1.718750e-01  1.093750e-01
     vertex  5.484375e-01  1.718750e-01  1.093750e-01
     vertex  5.851562e-01  1.082763e-01  1.093750e-01
   endloop
 endfacet
 facet normal  0.000000e+00  0.000000e+00  1.000000e+00
   outer loop
     vertex  5.843750e-01  1.718750e-01  1.093750e-01
     vertex  5.851562e-01  1.082763e-01  1.093750e-01
     vertex  6.218750e-01  1.343750e-01  1.093750e-01
   endloop
 endfacet
 facet normal  0.000000e+00  0.000000e+00  1.000000e+00
   outer loop
     vertex  6.585937e-01  1.082763e-01  1.093750e-01
     vertex  6.218750e-01  1.343750e-01  1.093750e-01
     vertex  5.851562e-01  1.082763e-01  1.093750e-01
   endloop
 endfacet
 facet normal  0.000000e+00  0.000000e+00  1.000000e+00
   outer loop
     vertex  5.851562e-01  2.354737e-01  1.093750e-01
     vertex  5.484375e-01  1.718750e-01  1.093750e-01
     vertex  5.843750e-01  1.718750e-01  1.093750e-01
   endloop
 endfacet
 facet normal  0.000000e+00  0.000000e+00  1.000000e+00
   outer loop
     vertex  6.218750e-01  2.093750e-01  1.093750e-01
     vertex  5.851562e-01  2.354737e-01  1.093750e-01
     vertex  5.843750e-01  1.718750e-01  1.093750e-01
   endloop
 endfacet
 facet normal  0.000000e+00  0.000000e+00  1.000000e+00
   outer loop
     vertex  6.593750e-01  1.718750e-01  1.093750e-01
     vertex  6.218750e-01  1.343750e-01  1.093750e-01
     vertex  6.585937e-01  1.082763e-01  1.093750e-01
   endloop
 endfacet
 facet normal  0.000000e+00  0.000000e+00  1.000000e+00
   outer loop
     vertex  6.953125e-01  1.718750e-01  1.093750e-01
     vertex  6.593750e-01  1.718750e-01  1.093750e-01
     vertex  6.585937e-01  1.082763e-01  1.093750e-01
   endloop
 endfacet
 facet normal  0.000000e+00  0.000000e+00  1.000000e+00
   outer loop
     vertex  6.585937e-01  2.354737e-01  1.093750e-01
     vertex  6.218750e-01  2.093750e-01  1.093750e-01
     vertex  6.593750e-01  1.718750e-01  1.093750e-01
   endloop
 endfacet
 facet normal  0.000000e+00  0.000000e+00  1.000000e+00
   outer loop
     vertex  6.585937e-01  2.354737e-01  1.093750e-01
     vertex  6.593750e-01  1.718750e-01  1.093750e-01
     vertex  6.953125e-01  1.718750e-01  1.093750e-01
   endloop
 endfacet
 facet normal  0.000000e+00  0.000000e+00  1.000000e+00
   outer loop
     vertex  6.585937e-01  2.354737e-01  1.093750e-01
     vertex  5.851562e-01  2.354737e-01  1.093750e-01
     vertex  6.218750e-01  2.093750e-01  1.093750e-01
   endloop
 endfacet
 facet normal -7.071068e-01  7.071068e-01  0.000000e+00
   outer loop
     vertex  4.265625e-01  1.343750e-01  1.015625e-01
     vertex  4.640625e-01  1.718750e-01  1.093750e-01
     vertex  4.640625e-01  1.718750e-01  1.015625e-01
   endloop
 endfacet
 facet normal -7.071068e-01  7.071068e-01  0.000000e+00
   outer loop
     vertex  4.265625e-01  1.343750e-01  1.015625e-01
     vertex  4.265625e-01  1.343750e-01  1.093750e-01
     vertex  4.640625e-01  1.718750e-01  1.093750e-01
   endloop
 endfacet
 facet normal  7.071068e-01  7.071068e-01 -0.000000e+00
   outer loop
     vertex  3.890625e-01  1.718750e-01  1.015625e-01
     vertex  3.890625e-01  1.718750e-01  1.093750e-01
     vertex  4.265625e-01  1.343750e-01  1.093750e-01
   endloop
 endfacet
 facet normal  7.071068e-01  7.071068e-01  0.000000e+00
   outer loop
     vertex  3.890625e-01  1.718750e-01  1.015625e-01
     vertex  4.265625e-01  1.343750e-01  1.093750e-01
     vertex  4.265625e-01  1.343750e-01  1.015625e-01
   endloop
 endfacet
 facet normal  7.071068e-01 -7.071068e-01  0.000000e+00
   outer loop
     vertex  4.265625e-01  2.093750e-01  1.015625e-01
     vertex  4.265625e-01  2.093750e-01  1.093750e-01
     vertex  3.890625e-01  1.718750e-01  1.093750e-01
   endloop
 endfacet
 facet normal  7.071068e-01 -7.071068e-01  0.000000e+00
   outer loop
     vertex  4.265625e-01  2.093750e-01  1.015625e-01
     vertex  3.890625e-01  1.718750e-01  1.093750e-01
     vertex  3.890625e-01  1.718750e-01  1.015625e-01
   endloop
 endfacet
 facet normal -7.071068e-01 -7.071068e-01  0.000000e+00
   outer loop
     vertex  4.640625e-01  1.718750e-01  1.015625e-01
     vertex  4.640625e-01  1.718750e-01  1.093750e-01
     vertex  4.265625e-01  2.093750e-01  1.093750e-01
   endloop
 endfacet
 facet normal -7.071068e-01 -7.071068e-01  0.000000e+00
   outer loop
     vertex  4.640625e-01  1.718750e-01  1.015625e-01
     vertex  4.265625e-01  2.093750e-01  1.093750e-01
     vertex  4.265625e-01  2.093750e-01  1.015625e-01
   endloop
 endfacet
 facet normal -7.071068e-01  7.071068e-01  0.000000e+00
   outer loop
     vertex  6.218750e-01  1.343750e-01  1.015625e-01
     vertex  6.593750e-01  1.718750e-01  1.093750e-01
     vertex  6.593750e-01  1.718750e-01  1.015625e-01
   endloop
 endfacet
 facet normal -7.071068e-01  7.071068e-01  0.000000e+00
   outer loop
     vertex  6.218750e-01  1.343750e-01  1.015625e-01
     vertex  6.218750e-01  1.343750e-01  1.093750e-01
     vertex  6.593750e-01  1.718750e-01  1.093750e-01
   endloop
 endfacet
 facet normal  7.071068e-01  7.071068e-01 -0.000000e+00
   outer loop
     vertex  5.843750e-01  1.718750e-01  1.015625e-01
     vertex  5.843750e-01  1.718750e-01  1.093750e-01
     vertex  6.218750e-01  1.343750e-01  1.093750e-01
   endloop
 endfacet
 facet normal  7.071068e-01  7.071068e-01  0.000000e+00
   outer loop
     vertex  5.843750e-01  1.718750e-01  1.015625e-01
     vertex  6.218750e-01  1.343750e-01  1.093750e-01
     vertex  6.218750e-01  1.343750e-01  1.015625e-01
   endloop
 endfacet
 facet normal  7.071068e-01 -7.071068e-01  0.000000e+00
   outer loop
     vertex  6.218750e-01  2.093750e-01  1.015625e-01
     vertex  6.218750e-01  2.093750e-01  1.093750e-01
     vertex  5.843750e-01  1.718750e-01  1.093750e-01
   endloop
 endfacet
 facet normal  7.071068e-01 -7.071068e-01  0.000000e+00
   outer loop
     vertex  6.218750e-01  2.093750e-01  1.015625e-01
     vertex  5.843750e-01  1.718750e-01  1.093750e-01
     vertex  5.843750e-01  1.718750e-01  1.015625e-01
   endloop
 endfacet
 facet normal -7.071068e-01 -7.071068e-01  0.000000e+00
   outer loop
     vertex  6.593750e-01  1.718750e-01  1.015625e-01
     vertex  6.593750e-01  1.718750e-01  1.093750e-01
     vertex  6.218750e-01  2.093750e-01  1.093750e-01
   endloop
 endfacet
 facet normal -7.071068e-01 -7.071068e-01  0.000000e+00
   outer loop
     vertex  6.593750e-01  1.718750e-01  1.015625e-01
     vertex  6.218750e-01  2.093750e-01  1.093750e-01
     vertex  6.218750e-01  2.093750e-01  1.015625e-01
   endloop
 endfacet
 facet normal  0.000000e+00  0.000000e+00  1.000000e+00
   outer loop
     vertex  4.265625e-01  2.093750e-01  1.015625e-01
     vertex  3.890625e-01  1.718750e-01  1.015625e-01
     vertex  4.265625e-01  1.343750e-01  1.015625e-01
   endloop
 endfacet
 facet normal  0.000000e+00  0.000000e+00  1.000000e+00
   outer loop
     vertex  4.265625e-01  2.093750e-01  1.015625e-01
     vertex  4.265625e-01  1.343750e-01  1.015625e-01
     vertex  4.640625e-01  1.718750e-01  1.015625e-01
   endloop
 endfacet
 facet normal  0.000000e+00  0.000000e+00  1.000000e+00
   outer loop
     vertex  6.218750e-01  2.093750e-01  1.015625e-01
     vertex  5.843750e-01  1.718750e-01  1.015625e-01
     vertex  6.218750e-01  1.343750e-01  1.015625e-01
   endloop
 endfacet
 facet normal  0.000000e+00  0.000000e+00  1.000000e+00
   outer loop
     vertex  6.593750e-01  1.718750e-01  1.015625e-01
     vertex  6.218750e-01  2.093750e-01  1.015625e-01
     vertex  6.218750e-01  1.343750e-01  1.015625e-01
   endloop
 endfacet
endsolid
