solid 
 facet normal -0.000000e+00  0.000000e+00 -1.000000e+00
   outer loop
     vertex  4.453125e-01  7.271340e-17 -5.468750e-01
     vertex -7.421875e-01  0.000000e+00 -5.468750e-01
     vertex -7.421875e-01  3.984375e-01 -5.468750e-01
   endloop
 endfacet
 facet normal  0.000000e+00  0.000000e+00 -1.000000e+00
   outer loop
     vertex  4.453125e-01  7.271340e-17 -5.468750e-01
     vertex -7.421875e-01  3.984375e-01 -5.468750e-01
     vertex  4.453125e-01  3.984375e-01 -5.468750e-01
   endloop
 endfacet
 facet normal -1.000000e+00  0.000000e+00  0.000000e+00
   outer loop
     vertex -7.421875e-01  2.497131e-17 -1.390625e-01
     vertex -7.421875e-01  4.822047e-17  2.406250e-01
     vertex -7.421875e-01  3.984375e-01  2.406250e-01
   endloop
 endfacet
 facet normal -1.000000e+00  0.000000e+00  0.000000e+00
   outer loop
     vertex -7.421875e-01  3.984375e-01 -5.468750e-01
     vertex -7.421875e-01  2.497131e-17 -1.390625e-01
     vertex -7.421875e-01  3.984375e-01  2.406250e-01
   endloop
 endfacet
 facet normal -1.000000e+00  0.000000e+00  0.000000e+00
   outer loop
     vertex -7.421875e-01  4.783777e-19 -5.390625e-01
     vertex -7.421875e-01  2.497131e-17 -1.390625e-01
     vertex -7.421875e-01  3.984375e-01 -5.468750e-01
   endloop
 endfacet
 facet normal -1.000000e+00  0.000000e+00  0.000000e+00
   outer loop
     vertex -7.421875e-01  0.000000e+00 -5.468750e-01
     vertex -7.421875e-01  4.783777e-19 -5.390625e-01
     vertex -7.421875e-01  3.984375e-01 -5.468750e-01
   endloop
 endfacet
 facet normal  1.000000e+00  0.000000e+00  0.000000e+00
   outer loop
     vertex  4.453125e-01  1.094528e-16  5.312500e-02
     vertex  4.453125e-01  7.271340e-17 -5.468750e-01
     vertex  4.453125e-01  3.984375e-01 -5.468750e-01
   endloop
 endfacet
 facet normal  1.000000e+00 -0.000000e+00  0.000000e+00
   outer loop
     vertex  4.453125e-01  1.094528e-16  5.312500e-02
     vertex  4.453125e-01  3.984375e-01 -5.468750e-01
     vertex  4.453125e-01  3.984375e-01  5.312500e-02
   endloop
 endfacet
 facet normal  6.123234e-17 -1.000000e+00  6.123234e-17
   outer loop
     vertex -1.562500e-01  3.635670e-17 -5.390625e-01
     vertex -7.421875e-01  4.783777e-19 -5.390625e-01
     vertex -7.421875e-01  0.000000e+00 -5.468750e-01
   endloop
 endfacet
 facet normal  6.123234e-17 -1.000000e+00  6.123234e-17
   outer loop
     vertex -1.562500e-01  6.084964e-17 -1.390625e-01
     vertex -7.421875e-01  4.822047e-17  2.406250e-01
     vertex -7.421875e-01  2.497131e-17 -1.390625e-01
   endloop
 endfacet
 facet normal  6.123234e-17 -1.000000e+00  6.123234e-17
   outer loop
     vertex  4.453125e-01  7.271340e-17 -5.468750e-01
     vertex -1.562500e-01  6.084964e-17 -1.390625e-01
     vertex -1.562500e-01  3.635670e-17 -5.390625e-01
   endloop
 endfacet
 facet normal  6.123234e-17 -1.000000e+00  6.123234e-17
   outer loop
     vertex  4.531250e-02  8.495987e-17  5.312500e-02
     vertex -1.562500e-01  6.084964e-17 -1.390625e-01
     vertex  4.453125e-01  7.271340e-17 -5.468750e-01
   endloop
 endfacet
 facet normal  6.123234e-17 -1.000000e+00  6.123234e-17
   outer loop
     vertex  4.531250e-02  9.644094e-17  2.406250e-01
     vertex -7.421875e-01  4.822047e-17  2.406250e-01
     vertex -1.562500e-01  6.084964e-17 -1.390625e-01
   endloop
 endfacet
 facet normal  6.123234e-17 -1.000000e+00  6.123234e-17
   outer loop
     vertex  4.531250e-02  9.644094e-17  2.406250e-01
     vertex -1.562500e-01  6.084964e-17 -1.390625e-01
     vertex  4.531250e-02  8.495987e-17  5.312500e-02
   endloop
 endfacet
 facet normal  6.123234e-17 -1.000000e+00  6.123234e-17
   outer loop
     vertex  4.453125e-01  1.094528e-16  5.312500e-02
     vertex  4.531250e-02  8.495987e-17  5.312500e-02
     vertex  4.453125e-01  7.271340e-17 -5.468750e-01
   endloop
 endfacet
 facet normal  6.123234e-17 -1.000000e+00  6.123234e-17
   outer loop
     vertex -7.421875e-01  0.000000e+00 -5.468750e-01
     vertex  4.453125e-01  7.271340e-17 -5.468750e-01
     vertex -1.562500e-01  3.635670e-17 -5.390625e-01
   endloop
 endfacet
 facet normal  0.000000e+00  1.000000e+00  0.000000e+00
   outer loop
     vertex  4.531250e-02  3.984375e-01  5.312500e-02
     vertex  4.453125e-01  3.984375e-01 -5.468750e-01
     vertex -7.421875e-01  3.984375e-01 -5.468750e-01
   endloop
 endfacet
 facet normal  0.000000e+00  1.000000e+00  0.000000e+00
   outer loop
     vertex  4.531250e-02  3.984375e-01  5.312500e-02
     vertex -7.421875e-01  3.984375e-01 -5.468750e-01
     vertex -7.421875e-01  3.984375e-01  2.406250e-01
   endloop
 endfacet
 facet normal  0.000000e+00  1.000000e+00  0.000000e+00
   outer loop
     vertex  4.531250e-02  3.984375e-01  2.406250e-01
     vertex  4.531250e-02  3.984375e-01  5.312500e-02
     vertex -7.421875e-01  3.984375e-01  2.406250e-01
   endloop
 endfacet
 facet normal  0.000000e+00  1.000000e+00  0.000000e+00
   outer loop
     vertex  4.453125e-01  3.984375e-01  5.312500e-02
     vertex  4.453125e-01  3.984375e-01 -5.468750e-01
     vertex  4.531250e-02  3.984375e-01  5.312500e-02
   endloop
 endfacet
 facet normal  0.000000e+00  0.000000e+00  1.000000e+00
   outer loop
     vertex -7.421875e-01  4.822047e-17  2.406250e-01
     vertex  4.531250e-02  9.644094e-17  2.406250e-01
     vertex  4.531250e-02  3.984375e-01  2.406250e-01
   endloop
 endfacet
 facet normal  0.000000e+00  0.000000e+00  1.000000e+00
   outer loop
     vertex -7.421875e-01  4.822047e-17  2.406250e-01
     vertex  4.531250e-02  3.984375e-01  2.406250e-01
     vertex -7.421875e-01  3.984375e-01  2.406250e-01
   endloop
 endfacet
 facet normal -6.123234e-17  1.000000e+00 -6.123234e-17
   outer loop
     vertex -7.421875e-01  2.497131e-17 -1.390625e-01
     vertex -7.500000e-01  0.000000e+00 -5.390625e-01
     vertex -7.500000e-01  2.449294e-17 -1.390625e-01
   endloop
 endfacet
 facet normal -6.123234e-17  1.000000e+00 -6.123234e-17
   outer loop
     vertex -7.421875e-01  2.497131e-17 -1.390625e-01
     vertex -7.421875e-01  4.783777e-19 -5.390625e-01
     vertex -7.500000e-01  0.000000e+00 -5.390625e-01
   endloop
 endfacet
 facet normal  0.000000e+00  0.000000e+00  1.000000e+00
   outer loop
     vertex  4.531250e-02  8.495987e-17  5.312500e-02
     vertex  4.453125e-01  1.094528e-16  5.312500e-02
     vertex  4.453125e-01  3.984375e-01  5.312500e-02
   endloop
 endfacet
 facet normal  0.000000e+00  0.000000e+00  1.000000e+00
   outer loop
     vertex  4.531250e-02  8.495987e-17  5.312500e-02
     vertex  4.453125e-01  3.984375e-01  5.312500e-02
     vertex  4.531250e-02  3.984375e-01  5.312500e-02
   endloop
 endfacet
 facet normal  0.000000e+00  0.000000e+00 -1.000000e+00
   outer loop
     vertex -7.421875e-01  4.783777e-19 -5.390625e-01
     vertex -7.500000e-01 -3.984375e-01 -5.390625e-01
     vertex -7.500000e-01  0.000000e+00 -5.390625e-01
   endloop
 endfacet
 facet normal  0.000000e+00  0.000000e+00 -1.000000e+00
   outer loop
     vertex -1.562500e-01 -3.984375e-01 -5.390625e-01
     vertex -7.500000e-01 -3.984375e-01 -5.390625e-01
     vertex -7.421875e-01  4.783777e-19 -5.390625e-01
   endloop
 endfacet
 facet normal  0.000000e+00 -0.000000e+00 -1.000000e+00
   outer loop
     vertex -1.562500e-01  3.635670e-17 -5.390625e-01
     vertex -1.562500e-01 -3.984375e-01 -5.390625e-01
     vertex -7.421875e-01  4.783777e-19 -5.390625e-01
   endloop
 endfacet
 facet normal  1.000000e+00  0.000000e+00  0.000000e+00
   outer loop
     vertex -1.562500e-01  6.084964e-17 -1.390625e-01
     vertex -1.562500e-01 -3.984375e-01 -5.390625e-01
     vertex -1.562500e-01  3.635670e-17 -5.390625e-01
   endloop
 endfacet
 facet normal  1.000000e+00  0.000000e+00  0.000000e+00
   outer loop
     vertex -1.562500e-01  6.084964e-17 -1.390625e-01
     vertex -1.562500e-01 -3.984375e-01 -1.390625e-01
     vertex -1.562500e-01 -3.984375e-01 -5.390625e-01
   endloop
 endfacet
 facet normal -0.000000e+00  0.000000e+00  1.000000e+00
   outer loop
     vertex -7.421875e-01  2.497131e-17 -1.390625e-01
     vertex -1.562500e-01 -3.984375e-01 -1.390625e-01
     vertex -1.562500e-01  6.084964e-17 -1.390625e-01
   endloop
 endfacet
 facet normal  0.000000e+00  0.000000e+00  1.000000e+00
   outer loop
     vertex -7.421875e-01  2.497131e-17 -1.390625e-01
     vertex -7.500000e-01 -3.984375e-01 -1.390625e-01
     vertex -1.562500e-01 -3.984375e-01 -1.390625e-01
   endloop
 endfacet
 facet normal -0.000000e+00  0.000000e+00  1.000000e+00
   outer loop
     vertex -7.500000e-01  2.449294e-17 -1.390625e-01
     vertex -7.500000e-01 -3.984375e-01 -1.390625e-01
     vertex -7.421875e-01  2.497131e-17 -1.390625e-01
   endloop
 endfacet
 facet normal  1.000000e+00  0.000000e+00  0.000000e+00
   outer loop
     vertex  4.531250e-02  9.644094e-17  2.406250e-01
     vertex  4.531250e-02  8.495987e-17  5.312500e-02
     vertex  4.531250e-02  3.984375e-01  5.312500e-02
   endloop
 endfacet
 facet normal  1.000000e+00 -0.000000e+00  0.000000e+00
   outer loop
     vertex  4.531250e-02  9.644094e-17  2.406250e-01
     vertex  4.531250e-02  3.984375e-01  5.312500e-02
     vertex  4.531250e-02  3.984375e-01  2.406250e-01
   endloop
 endfacet
 facet normal -1.000000e+00  0.000000e+00  0.000000e+00
   outer loop
     vertex -7.500000e-01  0.000000e+00 -5.390625e-01
     vertex -7.500000e-01 -3.984375e-01 -1.390625e-01
     vertex -7.500000e-01  2.449294e-17 -1.390625e-01
   endloop
 endfacet
 facet normal -1.000000e+00  0.000000e+00  0.000000e+00
   outer loop
     vertex -7.500000e-01  0.000000e+00 -5.390625e-01
     vertex -7.500000e-01 -3.984375e-01 -5.390625e-01
     vertex -7.500000e-01 -3.984375e-01 -1.390625e-01
   endloop
 endfacet
 facet normal  0.000000e+00 -1.000000e+00 -0.000000e+00
   outer loop
     vertex -1.562500e-01 -3.984375e-01 -1.390625e-01
     vertex -7.500000e-01 -3.984375e-01 -5.390625e-01
     vertex -1.562500e-01 -3.984375e-01 -5.390625e-01
   endloop
 endfacet
 facet normal -0.000000e+00 -1.000000e+00  0.000000e+00
   outer loop
     vertex -1.562500e-01 -3.984375e-01 -1.390625e-01
     vertex -7.500000e-01 -3.984375e-01 -1.390625e-01
     vertex -7.500000e-01 -3.984375e-01 -5.390625e-01
   endloop
 endfacet
endsolid
