solid 
 facet normal -5.465366e-01  0.000000e+00 -8.374352e-01
   outer loop
     vertex  0.000000e+00  1.595264e-17 -5.988487e-01
     vertex -7.500000e-01 -3.906250e-02 -1.093750e-01
     vertex -7.500000e-01  0.000000e+00 -1.093750e-01
   endloop
 endfacet
 facet normal -5.465366e-01 -3.346572e-17 -8.374352e-01
   outer loop
     vertex  0.000000e+00  1.595264e-17 -5.988487e-01
     vertex  2.391888e-18 -3.906250e-02 -5.988487e-01
     vertex -7.500000e-01 -3.906250e-02 -1.093750e-01
   endloop
 endfacet
 facet normal  1.000000e+00  6.123234e-17 -3.749399e-33
   outer loop
     vertex  0.000000e+00  5.269204e-17  1.151316e-03
     vertex  2.391888e-18 -3.906250e-02 -5.988487e-01
     vertex  0.000000e+00  1.595264e-17 -5.988487e-01
   endloop
 endfacet
 facet normal  1.000000e+00  6.123234e-17  0.000000e+00
   outer loop
     vertex  0.000000e+00  5.269204e-17  1.151316e-03
     vertex  2.391888e-18 -3.906250e-02  1.151316e-03
     vertex  2.391888e-18 -3.906250e-02 -5.988487e-01
   endloop
 endfacet
 facet normal -0.000000e+00  0.000000e+00  1.000000e+00
   outer loop
     vertex -7.500000e-01  6.767785e-18  1.151316e-03
     vertex  2.391888e-18 -3.906250e-02  1.151316e-03
     vertex  0.000000e+00  5.269204e-17  1.151316e-03
   endloop
 endfacet
 facet normal  0.000000e+00  0.000000e+00  1.000000e+00
   outer loop
     vertex -7.500000e-01  6.767785e-18  1.151316e-03
     vertex -7.500000e-01 -3.906250e-02  1.151316e-03
     vertex  2.391888e-18 -3.906250e-02  1.151316e-03
   endloop
 endfacet
 facet normal -1.000000e+00  0.000000e+00  0.000000e+00
   outer loop
     vertex -7.500000e-01  0.000000e+00 -1.093750e-01
     vertex -7.500000e-01 -3.906250e-02  1.151316e-03
     vertex -7.500000e-01  6.767785e-18  1.151316e-03
   endloop
 endfacet
 facet normal -1.000000e+00  0.000000e+00  0.000000e+00
   outer loop
     vertex -7.500000e-01  0.000000e+00 -1.093750e-01
     vertex -7.500000e-01 -3.906250e-02 -1.093750e-01
     vertex -7.500000e-01 -3.906250e-02  1.151316e-03
   endloop
 endfacet
 facet normal -6.123234e-17  1.000000e+00 -6.123234e-17
   outer loop
     vertex  0.000000e+00  5.269204e-17  1.151316e-03
     vertex  0.000000e+00  1.595264e-17 -5.988487e-01
     vertex -7.500000e-01  0.000000e+00 -1.093750e-01
   endloop
 endfacet
 facet normal -6.123234e-17  1.000000e+00 -6.123234e-17
   outer loop
     vertex  0.000000e+00  5.269204e-17  1.151316e-03
     vertex -7.500000e-01  0.000000e+00 -1.093750e-01
     vertex -7.500000e-01  6.767785e-18  1.151316e-03
   endloop
 endfacet
 facet normal  0.000000e+00 -1.000000e+00 -0.000000e+00
   outer loop
     vertex  2.391888e-18 -3.906250e-02  1.151316e-03
     vertex -7.500000e-01 -3.906250e-02 -1.093750e-01
     vertex  2.391888e-18 -3.906250e-02 -5.988487e-01
   endloop
 endfacet
 facet normal -0.000000e+00 -1.000000e+00  0.000000e+00
   outer loop
     vertex  2.391888e-18 -3.906250e-02  1.151316e-03
     vertex -7.500000e-01 -3.906250e-02  1.151316e-03
     vertex -7.500000e-01 -3.906250e-02 -1.093750e-01
   endloop
 endfacet
endsolid
