solid 
 facet normal  9.993775e-01  0.000000e+00 -3.527892e-02
   outer loop
     vertex  1.530413e-02  1.521023e-17  1.862228e-01
     vertex  1.562500e-02  1.578646e-17  1.953125e-01
     vertex  1.562500e-02 -7.500000e-01  1.953125e-01
   endloop
 endfacet
 facet normal  9.993775e-01  0.000000e+00 -3.527892e-02
   outer loop
     vertex  1.530413e-02  1.521023e-17  1.862228e-01
     vertex  1.562500e-02 -7.500000e-01  1.953125e-01
     vertex  1.530413e-02 -7.500000e-01  1.862228e-01
   endloop
 endfacet
 facet normal  9.844763e-01  0.000000e+00 -1.755173e-01
   outer loop
     vertex  1.434310e-02  1.459757e-17  1.771784e-01
     vertex  1.434310e-02 -7.500000e-01  1.771784e-01
     vertex  1.274671e-02 -7.500000e-01  1.682242e-01
   endloop
 endfacet
 facet normal  9.944022e-01  0.000000e+00 -1.056611e-01
   outer loop
     vertex  1.434310e-02  1.459757e-17  1.771784e-01
     vertex  1.530413e-02 -7.500000e-01  1.862228e-01
     vertex  1.434310e-02 -7.500000e-01  1.771784e-01
   endloop
 endfacet
 facet normal  9.944022e-01  0.000000e+00 -1.056611e-01
   outer loop
     vertex  1.434310e-02  1.459757e-17  1.771784e-01
     vertex  1.530413e-02  1.521023e-17  1.862228e-01
     vertex  1.530413e-02 -7.500000e-01  1.862228e-01
   endloop
 endfacet
 facet normal  9.844763e-01  0.000000e+00 -1.755173e-01
   outer loop
     vertex  1.274671e-02  2.591098e-17  1.682242e-01
     vertex  1.434310e-02  1.459757e-17  1.771784e-01
     vertex  1.274671e-02 -7.500000e-01  1.682242e-01
   endloop
 endfacet
 facet normal  8.248871e-15  1.000000e+00 -3.545864e-16
   outer loop
     vertex  1.562500e-02  1.578646e-17  1.953125e-01
     vertex  1.530413e-02  1.521023e-17  1.862228e-01
     vertex  1.274671e-02  3.952910e-17  1.953125e-01
   endloop
 endfacet
 facet normal  9.906684e-15  1.000000e+00 -5.027312e-16
   outer loop
     vertex  1.274671e-02  3.952910e-17  1.953125e-01
     vertex  1.434310e-02  1.459757e-17  1.771784e-01
     vertex  1.274671e-02  2.591098e-17  1.682242e-01
   endloop
 endfacet
 facet normal  6.727640e-15  1.000000e+00 -7.825903e-16
   outer loop
     vertex  1.274671e-02  3.952910e-17  1.953125e-01
     vertex  1.530413e-02  1.521023e-17  1.862228e-01
     vertex  1.434310e-02  1.459757e-17  1.771784e-01
   endloop
 endfacet
 facet normal  0.000000e+00  0.000000e+00  1.000000e+00
   outer loop
     vertex  1.274671e-02  3.952910e-17  1.953125e-01
     vertex  1.562500e-02 -7.500000e-01  1.953125e-01
     vertex  1.562500e-02  1.578646e-17  1.953125e-01
   endloop
 endfacet
 facet normal  0.000000e+00  0.000000e+00  1.000000e+00
   outer loop
     vertex  1.274671e-02  3.952910e-17  1.953125e-01
     vertex  1.274671e-02 -7.500000e-01  1.953125e-01
     vertex  1.562500e-02 -7.500000e-01  1.953125e-01
   endloop
 endfacet
 facet normal -0.000000e+00 -1.000000e+00  0.000000e+00
   outer loop
     vertex  1.562500e-02 -7.500000e-01  1.953125e-01
     vertex  1.274671e-02 -7.500000e-01  1.953125e-01
     vertex  1.530413e-02 -7.500000e-01  1.862228e-01
   endloop
 endfacet
 facet normal  0.000000e+00 -1.000000e+00  0.000000e+00
   outer loop
     vertex  1.274671e-02 -7.500000e-01  1.953125e-01
     vertex  1.274671e-02 -7.500000e-01  1.682242e-01
     vertex  1.434310e-02 -7.500000e-01  1.771784e-01
   endloop
 endfacet
 facet normal  0.000000e+00 -1.000000e+00  0.000000e+00
   outer loop
     vertex  1.274671e-02 -7.500000e-01  1.953125e-01
     vertex  1.434310e-02 -7.500000e-01  1.771784e-01
     vertex  1.530413e-02 -7.500000e-01  1.862228e-01
   endloop
 endfacet
 facet normal  1.000000e+00  0.000000e+00  0.000000e+00
   outer loop
     vertex  1.274671e-02  2.591098e-17  1.682242e-01
     vertex  1.274671e-02 -7.500000e-01 -1.953125e-01
     vertex  1.274671e-02  1.561022e-17 -1.953125e-01
   endloop
 endfacet
 facet normal  1.000000e+00  0.000000e+00  0.000000e+00
   outer loop
     vertex  1.274671e-02  2.591098e-17  1.682242e-01
     vertex  1.274671e-02 -7.500000e-01  1.682242e-01
     vertex  1.274671e-02 -7.500000e-01 -1.953125e-01
   endloop
 endfacet
 facet normal  4.058048e-16  1.000000e+00 -5.027312e-16
   outer loop
     vertex -2.325826e-02  7.755997e-18  1.030483e-01
     vertex  1.274671e-02  3.952910e-17  1.953125e-01
     vertex  1.274671e-02  2.591098e-17  1.682242e-01
   endloop
 endfacet
 facet normal -0.000000e+00  0.000000e+00  1.000000e+00
   outer loop
     vertex -4.950658e-02  1.179830e-17  1.953125e-01
     vertex  1.274671e-02 -7.500000e-01  1.953125e-01
     vertex  1.274671e-02  3.952910e-17  1.953125e-01
   endloop
 endfacet
 facet normal  0.000000e+00  0.000000e+00  1.000000e+00
   outer loop
     vertex -4.950658e-02  1.179830e-17  1.953125e-01
     vertex -4.950658e-02 -7.500000e-01  1.953125e-01
     vertex  1.274671e-02 -7.500000e-01  1.953125e-01
   endloop
 endfacet
 facet normal  0.000000e+00 -1.000000e+00  0.000000e+00
   outer loop
     vertex -2.325826e-02 -7.500000e-01  1.030483e-01
     vertex  1.274671e-02 -7.500000e-01  1.682242e-01
     vertex  1.274671e-02 -7.500000e-01  1.953125e-01
   endloop
 endfacet
 facet normal -2.460992e-18  1.000000e+00  9.711248e-18
   outer loop
     vertex -1.633427e-01 -2.445837e-18  7.652414e-02
     vertex -2.421875e-01  0.000000e+00 -1.953125e-01
     vertex -2.206825e-01 -3.048250e-18  1.240258e-01
   endloop
 endfacet
 facet normal -6.123234e-17  1.000000e+00  2.938008e-17
   outer loop
     vertex -8.929971e-02  1.606242e-18  6.865664e-02
     vertex  1.274671e-02  1.561022e-17 -1.953125e-01
     vertex -2.421875e-01  0.000000e+00 -1.953125e-01
   endloop
 endfacet
 facet normal -5.216242e-17  1.000000e+00  2.412689e-17
   outer loop
     vertex -8.929971e-02  1.606242e-18  6.865664e-02
     vertex -2.421875e-01  0.000000e+00 -1.953125e-01
     vertex -1.633427e-01 -2.445837e-18  7.652414e-02
   endloop
 endfacet
 facet normal -1.005119e-16  1.000000e+00  1.419521e-17
   outer loop
     vertex -2.325826e-02  7.755997e-18  1.030483e-01
     vertex  1.274671e-02  1.561022e-17 -1.953125e-01
     vertex -8.929971e-02  1.606242e-18  6.865664e-02
   endloop
 endfacet
 facet normal -4.529439e-16  1.000000e+00 -2.833486e-17
   outer loop
     vertex  1.274671e-02  2.591098e-17  1.682242e-01
     vertex  1.274671e-02  1.561022e-17 -1.953125e-01
     vertex -2.325826e-02  7.755997e-18  1.030483e-01
   endloop
 endfacet
 facet normal  7.479252e-16  1.000000e+00 -4.082156e-17
   outer loop
     vertex -2.421875e-01  1.594592e-17  1.953125e-01
     vertex -2.206825e-01 -3.048250e-18  1.240258e-01
     vertex -2.421875e-01  0.000000e+00 -1.953125e-01
   endloop
 endfacet
 facet normal -0.000000e+00 -1.000000e+00  0.000000e+00
   outer loop
     vertex -1.633427e-01 -7.500000e-01  7.652414e-02
     vertex -2.206825e-01 -7.500000e-01  1.240258e-01
     vertex -2.421875e-01 -7.500000e-01 -1.953125e-01
   endloop
 endfacet
 facet normal  0.000000e+00 -1.000000e+00 -0.000000e+00
   outer loop
     vertex -8.929971e-02 -7.500000e-01  6.865664e-02
     vertex -2.421875e-01 -7.500000e-01 -1.953125e-01
     vertex  1.274671e-02 -7.500000e-01 -1.953125e-01
   endloop
 endfacet
 facet normal -0.000000e+00 -1.000000e+00  0.000000e+00
   outer loop
     vertex -8.929971e-02 -7.500000e-01  6.865664e-02
     vertex -1.633427e-01 -7.500000e-01  7.652414e-02
     vertex -2.421875e-01 -7.500000e-01 -1.953125e-01
   endloop
 endfacet
 facet normal  0.000000e+00 -1.000000e+00 -0.000000e+00
   outer loop
     vertex -2.325826e-02 -7.500000e-01  1.030483e-01
     vertex -8.929971e-02 -7.500000e-01  6.865664e-02
     vertex  1.274671e-02 -7.500000e-01 -1.953125e-01
   endloop
 endfacet
 facet normal  0.000000e+00 -1.000000e+00 -0.000000e+00
   outer loop
     vertex  1.274671e-02 -7.500000e-01  1.682242e-01
     vertex -2.325826e-02 -7.500000e-01  1.030483e-01
     vertex  1.274671e-02 -7.500000e-01 -1.953125e-01
   endloop
 endfacet
 facet normal  0.000000e+00 -1.000000e+00  0.000000e+00
   outer loop
     vertex -2.421875e-01 -7.500000e-01  1.953125e-01
     vertex -2.421875e-01 -7.500000e-01 -1.953125e-01
     vertex -2.206825e-01 -7.500000e-01  1.240258e-01
   endloop
 endfacet
 facet normal  0.000000e+00  0.000000e+00 -1.000000e+00
   outer loop
     vertex  1.274671e-02  1.561022e-17 -1.953125e-01
     vertex -2.421875e-01 -7.500000e-01 -1.953125e-01
     vertex -2.421875e-01  0.000000e+00 -1.953125e-01
   endloop
 endfacet
 facet normal  0.000000e+00 -0.000000e+00 -1.000000e+00
   outer loop
     vertex  1.274671e-02  1.561022e-17 -1.953125e-01
     vertex  1.274671e-02 -7.500000e-01 -1.953125e-01
     vertex -2.421875e-01 -7.500000e-01 -1.953125e-01
   endloop
 endfacet
 facet normal  1.784846e-16  1.000000e+00  2.687098e-16
   outer loop
     vertex -1.451686e-01  2.558803e-18  1.400820e-01
     vertex -1.541099e-01  2.188898e-17  7.408408e-02
     vertex -2.178434e-01  2.082180e-17  1.203892e-01
   endloop
 endfacet
 facet normal -6.123234e-17  1.000000e+00  3.011863e-16
   outer loop
     vertex -7.533089e-02  2.671280e-17  7.408408e-02
     vertex -1.541099e-01  2.188898e-17  7.408408e-02
     vertex -1.451686e-01  2.558803e-18  1.400820e-01
   endloop
 endfacet
 facet normal  1.835939e-16  1.000000e+00  1.247315e-16
   outer loop
     vertex -1.770559e-01  3.988159e-18  1.953125e-01
     vertex -2.178434e-01  2.082180e-17  1.203892e-01
     vertex -2.421875e-01  1.594592e-17  1.953125e-01
   endloop
 endfacet
 facet normal  2.233655e-16  1.000000e+00  1.030803e-16
   outer loop
     vertex -1.770559e-01  3.988159e-18  1.953125e-01
     vertex -1.451686e-01  2.558803e-18  1.400820e-01
     vertex -2.178434e-01  2.082180e-17  1.203892e-01
   endloop
 endfacet
 facet normal -6.123234e-17  1.000000e+00  3.011863e-16
   outer loop
     vertex -8.139391e-02  6.463876e-18  1.400820e-01
     vertex -7.533089e-02  2.671280e-17  7.408408e-02
     vertex -1.451686e-01  2.558803e-18  1.400820e-01
   endloop
 endfacet
 facet normal -3.080697e-16  1.000000e+00  2.785101e-16
   outer loop
     vertex -1.159734e-02  3.345073e-17  1.203892e-01
     vertex -7.533089e-02  2.671280e-17  7.408408e-02
     vertex -8.139391e-02  6.463876e-18  1.400820e-01
   endloop
 endfacet
 facet normal -3.559225e-16  1.000000e+00  1.089071e-16
   outer loop
     vertex -4.950658e-02  1.179830e-17  1.953125e-01
     vertex -1.159734e-02  3.345073e-17  1.203892e-01
     vertex -8.139391e-02  6.463876e-18  1.400820e-01
   endloop
 endfacet
 facet normal -4.454511e-16  1.000000e+00  6.360791e-17
   outer loop
     vertex  1.274671e-02  3.952910e-17  1.953125e-01
     vertex -1.159734e-02  3.345073e-17  1.203892e-01
     vertex -4.950658e-02  1.179830e-17  1.953125e-01
   endloop
 endfacet
 facet normal -8.660254e-01  0.000000e+00  5.000000e-01
   outer loop
     vertex -8.139391e-02  6.463876e-18  1.400820e-01
     vertex -4.950658e-02 -7.500000e-01  1.953125e-01
     vertex -4.950658e-02  1.179830e-17  1.953125e-01
   endloop
 endfacet
 facet normal -8.660254e-01  0.000000e+00  5.000000e-01
   outer loop
     vertex -8.139391e-02  6.463876e-18  1.400820e-01
     vertex -8.139391e-02 -7.500000e-01  1.400820e-01
     vertex -4.950658e-02 -7.500000e-01  1.953125e-01
   endloop
 endfacet
 facet normal -4.352132e-16  0.000000e+00  1.000000e+00
   outer loop
     vertex -1.451686e-01  2.558803e-18  1.400820e-01
     vertex -1.451686e-01 -7.500000e-01  1.400820e-01
     vertex -8.139391e-02 -7.500000e-01  1.400820e-01
   endloop
 endfacet
 facet normal -4.352132e-16  0.000000e+00  1.000000e+00
   outer loop
     vertex -1.451686e-01  2.558803e-18  1.400820e-01
     vertex -8.139391e-02 -7.500000e-01  1.400820e-01
     vertex -8.139391e-02  6.463876e-18  1.400820e-01
   endloop
 endfacet
 facet normal  8.660254e-01  0.000000e+00  5.000000e-01
   outer loop
     vertex -1.770559e-01  3.988159e-18  1.953125e-01
     vertex -1.770559e-01 -7.500000e-01  1.953125e-01
     vertex -1.451686e-01 -7.500000e-01  1.400820e-01
   endloop
 endfacet
 facet normal  8.660254e-01  0.000000e+00  5.000000e-01
   outer loop
     vertex -1.770559e-01  3.988159e-18  1.953125e-01
     vertex -1.451686e-01 -7.500000e-01  1.400820e-01
     vertex -1.451686e-01  2.558803e-18  1.400820e-01
   endloop
 endfacet
 facet normal  0.000000e+00 -1.000000e+00  0.000000e+00
   outer loop
     vertex -1.451686e-01 -7.500000e-01  1.400820e-01
     vertex -2.178434e-01 -7.500000e-01  1.203892e-01
     vertex -1.541099e-01 -7.500000e-01  7.408408e-02
   endloop
 endfacet
 facet normal -0.000000e+00 -1.000000e+00  0.000000e+00
   outer loop
     vertex -7.533089e-02 -7.500000e-01  7.408408e-02
     vertex -1.451686e-01 -7.500000e-01  1.400820e-01
     vertex -1.541099e-01 -7.500000e-01  7.408408e-02
   endloop
 endfacet
 facet normal -0.000000e+00 -1.000000e+00  0.000000e+00
   outer loop
     vertex -1.770559e-01 -7.500000e-01  1.953125e-01
     vertex -2.421875e-01 -7.500000e-01  1.953125e-01
     vertex -2.178434e-01 -7.500000e-01  1.203892e-01
   endloop
 endfacet
 facet normal  0.000000e+00 -1.000000e+00 -0.000000e+00
   outer loop
     vertex -1.770559e-01 -7.500000e-01  1.953125e-01
     vertex -2.178434e-01 -7.500000e-01  1.203892e-01
     vertex -1.451686e-01 -7.500000e-01  1.400820e-01
   endloop
 endfacet
 facet normal  0.000000e+00 -1.000000e+00 -0.000000e+00
   outer loop
     vertex -8.139391e-02 -7.500000e-01  1.400820e-01
     vertex -1.451686e-01 -7.500000e-01  1.400820e-01
     vertex -7.533089e-02 -7.500000e-01  7.408408e-02
   endloop
 endfacet
 facet normal -0.000000e+00 -1.000000e+00  0.000000e+00
   outer loop
     vertex -1.159734e-02 -7.500000e-01  1.203892e-01
     vertex -8.139391e-02 -7.500000e-01  1.400820e-01
     vertex -7.533089e-02 -7.500000e-01  7.408408e-02
   endloop
 endfacet
 facet normal  0.000000e+00 -1.000000e+00 -0.000000e+00
   outer loop
     vertex -4.950658e-02 -7.500000e-01  1.953125e-01
     vertex -8.139391e-02 -7.500000e-01  1.400820e-01
     vertex -1.159734e-02 -7.500000e-01  1.203892e-01
   endloop
 endfacet
 facet normal -0.000000e+00 -1.000000e+00  0.000000e+00
   outer loop
     vertex  1.274671e-02 -7.500000e-01  1.953125e-01
     vertex -4.950658e-02 -7.500000e-01  1.953125e-01
     vertex -1.159734e-02 -7.500000e-01  1.203892e-01
   endloop
 endfacet
 facet normal -1.000000e+00  0.000000e+00  0.000000e+00
   outer loop
     vertex -2.421875e-01  0.000000e+00 -1.953125e-01
     vertex -2.421875e-01 -7.500000e-01  1.953125e-01
     vertex -2.421875e-01  1.594592e-17  1.953125e-01
   endloop
 endfacet
 facet normal -1.000000e+00  0.000000e+00  0.000000e+00
   outer loop
     vertex -2.421875e-01  0.000000e+00 -1.953125e-01
     vertex -2.421875e-01 -7.500000e-01 -1.953125e-01
     vertex -2.421875e-01 -7.500000e-01  1.953125e-01
   endloop
 endfacet
 facet normal  0.000000e+00  0.000000e+00  1.000000e+00
   outer loop
     vertex -2.421875e-01  1.594592e-17  1.953125e-01
     vertex -1.770559e-01 -7.500000e-01  1.953125e-01
     vertex -1.770559e-01  3.988159e-18  1.953125e-01
   endloop
 endfacet
 facet normal  0.000000e+00  0.000000e+00  1.000000e+00
   outer loop
     vertex -2.421875e-01  1.594592e-17  1.953125e-01
     vertex -2.421875e-01 -7.500000e-01  1.953125e-01
     vertex -1.770559e-01 -7.500000e-01  1.953125e-01
   endloop
 endfacet
endsolid
