solid 
 facet normal -8.153569e-17  1.000000e+00 -7.429524e-15
   outer loop
     vertex  3.167163e-01  4.802760e-18 -4.687500e-02
     vertex  2.578125e-01  0.000000e+00 -4.687500e-02
     vertex  2.578125e-01  9.164709e-18 -4.564145e-02
   endloop
 endfacet
 facet normal  1.945899e-16  1.000000e+00  5.755840e-15
   outer loop
     vertex  3.167163e-01  4.802760e-18 -4.687500e-02
     vertex  2.578125e-01  9.164709e-18 -4.564145e-02
     vertex  2.578125e-01  2.537919e-18 -4.449013e-02
   endloop
 endfacet
 facet normal -6.123234e-17  1.000000e+00 -5.627041e-16
   outer loop
     vertex  3.203125e-01  6.364941e-18 -4.449013e-02
     vertex  3.167163e-01  4.802760e-18 -4.687500e-02
     vertex  2.578125e-01  2.537919e-18 -4.449013e-02
   endloop
 endfacet
 facet normal -6.123234e-17  1.000000e+00 -6.123234e-17
   outer loop
     vertex  1.653521e-01  2.829634e-18 -5.664062e-02
     vertex  1.484375e-01  2.391888e-18 -4.687500e-02
     vertex  1.484375e-01  2.467422e-18 -4.564145e-02
   endloop
 endfacet
 facet normal -4.082156e-17  1.000000e+00 -9.658485e-17
   outer loop
     vertex  2.578125e-01  4.464858e-18 -8.593750e-02
     vertex  1.484375e-01  0.000000e+00 -8.593750e-02
     vertex  1.653521e-01  1.633690e-18 -7.617188e-02
   endloop
 endfacet
 facet normal  3.707106e-17  1.000000e+00 -6.123234e-17
   outer loop
     vertex  2.578125e-01  0.000000e+00 -4.687500e-02
     vertex  1.653521e-01  1.633690e-18 -7.617188e-02
     vertex  1.653521e-01  2.829634e-18 -5.664062e-02
   endloop
 endfacet
 facet normal -1.854797e-17  1.000000e+00  1.143004e-16
   outer loop
     vertex  2.578125e-01  0.000000e+00 -4.687500e-02
     vertex  2.578125e-01  4.464858e-18 -8.593750e-02
     vertex  1.653521e-01  1.633690e-18 -7.617188e-02
   endloop
 endfacet
 facet normal  8.153063e-16  1.000000e+00 -7.429524e-15
   outer loop
     vertex  2.578125e-01  9.164709e-18 -4.564145e-02
     vertex  2.578125e-01  0.000000e+00 -4.687500e-02
     vertex  1.653521e-01  2.829634e-18 -5.664062e-02
   endloop
 endfacet
 facet normal -6.123234e-17  1.000000e+00 -6.123234e-17
   outer loop
     vertex  2.578125e-01  9.164709e-18 -4.564145e-02
     vertex  1.653521e-01  2.829634e-18 -5.664062e-02
     vertex  1.484375e-01  2.467422e-18 -4.564145e-02
   endloop
 endfacet
 facet normal -6.123234e-17  1.000000e+00  4.898587e-17
   outer loop
     vertex  1.484375e-01  0.000000e+00 -8.593750e-02
     vertex  3.908717e-01  4.737449e-17 -7.500000e-01
     vertex -3.828125e-01  0.000000e+00 -7.500000e-01
   endloop
 endfacet
 facet normal  7.654042e-17  1.000000e+00 -6.123234e-17
   outer loop
     vertex  1.484375e-01  2.391888e-18 -4.687500e-02
     vertex  1.484375e-01  0.000000e+00 -8.593750e-02
     vertex -3.828125e-01  0.000000e+00 -7.500000e-01
   endloop
 endfacet
 facet normal  7.654042e-17  1.000000e+00 -6.123234e-17
   outer loop
     vertex  1.484375e-01  2.467422e-18 -4.564145e-02
     vertex  1.484375e-01  2.391888e-18 -4.687500e-02
     vertex -3.828125e-01  0.000000e+00 -7.500000e-01
   endloop
 endfacet
 facet normal -4.082156e-17  1.000000e+00  5.643739e-17
   outer loop
     vertex  2.578125e-01  4.464858e-18 -8.593750e-02
     vertex  3.908717e-01  4.737449e-17 -7.500000e-01
     vertex  1.484375e-01  0.000000e+00 -8.593750e-02
   endloop
 endfacet
 facet normal -6.123234e-17  1.000000e+00  5.755840e-15
   outer loop
     vertex  2.578125e-01  2.537919e-18 -4.449013e-02
     vertex  2.578125e-01  9.164709e-18 -4.564145e-02
     vertex  1.484375e-01  2.467422e-18 -4.564145e-02
   endloop
 endfacet
 facet normal -5.597106e-19  1.000000e+00 -8.059833e-18
   outer loop
     vertex  2.578125e-01  2.900479e-18  4.934211e-04
     vertex  2.578125e-01  2.537919e-18 -4.449013e-02
     vertex  1.484375e-01  2.467422e-18 -4.564145e-02
   endloop
 endfacet
 facet normal  2.713226e-16  1.000000e+00 -4.177876e-16
   outer loop
     vertex  3.203125e-01  3.827021e-18 -4.687500e-02
     vertex  2.578125e-01  4.464858e-18 -8.593750e-02
     vertex  3.167163e-01  4.802760e-18 -4.687500e-02
   endloop
 endfacet
 facet normal -2.682126e-17  1.000000e+00  5.924265e-17
   outer loop
     vertex  3.203125e-01  3.827021e-18 -4.687500e-02
     vertex  3.908717e-01  4.737449e-17 -7.500000e-01
     vertex  2.578125e-01  4.464858e-18 -8.593750e-02
   endloop
 endfacet
 facet normal  7.654042e-17  1.000000e+00 -6.123234e-17
   outer loop
     vertex -3.828125e-01  9.184851e-17  7.500000e-01
     vertex  1.484375e-01  2.467422e-18 -4.564145e-02
     vertex -3.828125e-01  0.000000e+00 -7.500000e-01
   endloop
 endfacet
 facet normal -6.123234e-17  1.000000e+00 -1.710125e-16
   outer loop
     vertex  3.908717e-01  1.392230e-16  7.500000e-01
     vertex  3.203125e-01  6.727501e-18  4.934211e-04
     vertex  2.578125e-01  2.900479e-18  4.934211e-04
   endloop
 endfacet
 facet normal  7.864915e-17  1.000000e+00 -1.958455e-16
   outer loop
     vertex  3.908717e-01  1.392230e-16  7.500000e-01
     vertex  2.578125e-01  2.900479e-18  4.934211e-04
     vertex  1.484375e-01  2.467422e-18 -4.564145e-02
   endloop
 endfacet
 facet normal -6.123234e-17  1.000000e+00 -1.532233e-16
   outer loop
     vertex  3.908717e-01  1.392230e-16  7.500000e-01
     vertex  1.484375e-01  2.467422e-18 -4.564145e-02
     vertex -3.828125e-01  9.184851e-17  7.500000e-01
   endloop
 endfacet
 facet normal -1.227359e-15  1.000000e+00 -6.123234e-17
   outer loop
     vertex  3.908717e-01  4.737449e-17 -7.500000e-01
     vertex  3.203125e-01  6.727501e-18  4.934211e-04
     vertex  3.908717e-01  1.392230e-16  7.500000e-01
   endloop
 endfacet
 facet normal -6.617966e-16  1.000000e+00 -8.059833e-18
   outer loop
     vertex  3.908717e-01  4.737449e-17 -7.500000e-01
     vertex  3.203125e-01  6.364941e-18 -4.449013e-02
     vertex  3.203125e-01  6.727501e-18  4.934211e-04
   endloop
 endfacet
 facet normal -1.122173e-14  1.000000e+00 -1.064176e-15
   outer loop
     vertex  3.908717e-01  4.737449e-17 -7.500000e-01
     vertex  3.203125e-01  3.827021e-18 -4.687500e-02
     vertex  3.203125e-01  6.364941e-18 -4.449013e-02
   endloop
 endfacet
 facet normal -6.123234e-17  1.000000e+00 -8.059833e-18
   outer loop
     vertex  3.203125e-01  6.727501e-18  4.934211e-04
     vertex  3.203125e-01  6.364941e-18 -4.449013e-02
     vertex  2.578125e-01  2.537919e-18 -4.449013e-02
   endloop
 endfacet
 facet normal -6.123234e-17  1.000000e+00 -8.059833e-18
   outer loop
     vertex  3.203125e-01  6.727501e-18  4.934211e-04
     vertex  2.578125e-01  2.537919e-18 -4.449013e-02
     vertex  2.578125e-01  2.900479e-18  4.934211e-04
   endloop
 endfacet
 facet normal  2.713226e-16  1.000000e+00 -1.064176e-15
   outer loop
     vertex  3.203125e-01  6.364941e-18 -4.449013e-02
     vertex  3.203125e-01  3.827021e-18 -4.687500e-02
     vertex  3.167163e-01  4.802760e-18 -4.687500e-02
   endloop
 endfacet
 facet normal -8.153569e-17  1.000000e+00  1.143004e-16
   outer loop
     vertex  3.167163e-01  4.802760e-18 -4.687500e-02
     vertex  2.578125e-01  4.464858e-18 -8.593750e-02
     vertex  2.578125e-01  0.000000e+00 -4.687500e-02
   endloop
 endfacet
 facet normal -6.123234e-17  1.000000e+00 -6.123234e-17
   outer loop
     vertex  1.653521e-01  2.829634e-18 -5.664062e-02
     vertex  1.653521e-01  1.633690e-18 -7.617188e-02
     vertex  1.484375e-01  0.000000e+00 -8.593750e-02
   endloop
 endfacet
 facet normal -6.123234e-17  1.000000e+00 -6.123234e-17
   outer loop
     vertex  1.653521e-01  2.829634e-18 -5.664062e-02
     vertex  1.484375e-01  0.000000e+00 -8.593750e-02
     vertex  1.484375e-01  2.391888e-18 -4.687500e-02
   endloop
 endfacet
 facet normal  0.000000e+00  0.000000e+00 -1.000000e+00
   outer loop
     vertex  3.908717e-01  4.737449e-17 -7.500000e-01
     vertex -3.828125e-01 -1.171875e-01 -7.500000e-01
     vertex -3.828125e-01  0.000000e+00 -7.500000e-01
   endloop
 endfacet
 facet normal  0.000000e+00 -0.000000e+00 -1.000000e+00
   outer loop
     vertex  3.908717e-01  4.737449e-17 -7.500000e-01
     vertex  3.908717e-01 -1.171875e-01 -7.500000e-01
     vertex -3.828125e-01 -1.171875e-01 -7.500000e-01
   endloop
 endfacet
 facet normal -1.000000e+00  0.000000e+00  0.000000e+00
   outer loop
     vertex -3.828125e-01  0.000000e+00 -7.500000e-01
     vertex -3.828125e-01 -1.171875e-01  7.500000e-01
     vertex -3.828125e-01  9.184851e-17  7.500000e-01
   endloop
 endfacet
 facet normal -1.000000e+00  0.000000e+00  0.000000e+00
   outer loop
     vertex -3.828125e-01  0.000000e+00 -7.500000e-01
     vertex -3.828125e-01 -1.171875e-01 -7.500000e-01
     vertex -3.828125e-01 -1.171875e-01  7.500000e-01
   endloop
 endfacet
 facet normal  1.000000e+00  0.000000e+00  0.000000e+00
   outer loop
     vertex  3.908717e-01  1.392230e-16  7.500000e-01
     vertex  3.908717e-01 -1.171875e-01 -7.500000e-01
     vertex  3.908717e-01  4.737449e-17 -7.500000e-01
   endloop
 endfacet
 facet normal  1.000000e+00  0.000000e+00  0.000000e+00
   outer loop
     vertex  3.908717e-01  1.392230e-16  7.500000e-01
     vertex  3.908717e-01 -1.171875e-01  7.500000e-01
     vertex  3.908717e-01 -1.171875e-01 -7.500000e-01
   endloop
 endfacet
 facet normal -0.000000e+00  0.000000e+00  1.000000e+00
   outer loop
     vertex -3.828125e-01  9.184851e-17  7.500000e-01
     vertex  3.908717e-01 -1.171875e-01  7.500000e-01
     vertex  3.908717e-01  1.392230e-16  7.500000e-01
   endloop
 endfacet
 facet normal  0.000000e+00  0.000000e+00  1.000000e+00
   outer loop
     vertex -3.828125e-01  9.184851e-17  7.500000e-01
     vertex -3.828125e-01 -1.171875e-01  7.500000e-01
     vertex  3.908717e-01 -1.171875e-01  7.500000e-01
   endloop
 endfacet
 facet normal  0.000000e+00 -1.000000e+00 -0.000000e+00
   outer loop
     vertex  1.484375e-01 -1.171875e-01 -8.593750e-02
     vertex -3.828125e-01 -1.171875e-01 -7.500000e-01
     vertex  3.908717e-01 -1.171875e-01 -7.500000e-01
   endloop
 endfacet
 facet normal  0.000000e+00 -1.000000e+00 -0.000000e+00
   outer loop
     vertex  1.484375e-01 -1.171875e-01 -4.687500e-02
     vertex -3.828125e-01 -1.171875e-01 -7.500000e-01
     vertex  1.484375e-01 -1.171875e-01 -8.593750e-02
   endloop
 endfacet
 facet normal  0.000000e+00 -1.000000e+00 -0.000000e+00
   outer loop
     vertex  1.484375e-01 -1.171875e-01 -4.564145e-02
     vertex -3.828125e-01 -1.171875e-01 -7.500000e-01
     vertex  1.484375e-01 -1.171875e-01 -4.687500e-02
   endloop
 endfacet
 facet normal -0.000000e+00 -1.000000e+00 -0.000000e+00
   outer loop
     vertex  2.578125e-01 -1.171875e-01 -8.593750e-02
     vertex  1.484375e-01 -1.171875e-01 -8.593750e-02
     vertex  3.908717e-01 -1.171875e-01 -7.500000e-01
   endloop
 endfacet
 facet normal  0.000000e+00 -1.000000e+00 -0.000000e+00
   outer loop
     vertex  2.578125e-01 -1.171875e-01 -4.449013e-02
     vertex  1.484375e-01 -1.171875e-01 -4.564145e-02
     vertex  2.578125e-01 -1.171875e-01 -4.564145e-02
   endloop
 endfacet
 facet normal  0.000000e+00 -1.000000e+00 -0.000000e+00
   outer loop
     vertex  2.578125e-01 -1.171875e-01  4.934211e-04
     vertex  1.484375e-01 -1.171875e-01 -4.564145e-02
     vertex  2.578125e-01 -1.171875e-01 -4.449013e-02
   endloop
 endfacet
 facet normal -0.000000e+00 -1.000000e+00  0.000000e+00
   outer loop
     vertex  3.203125e-01 -1.171875e-01 -4.687500e-02
     vertex  3.167163e-01 -1.171875e-01 -4.687500e-02
     vertex  2.578125e-01 -1.171875e-01 -8.593750e-02
   endloop
 endfacet
 facet normal  0.000000e+00 -1.000000e+00 -0.000000e+00
   outer loop
     vertex  3.203125e-01 -1.171875e-01 -4.687500e-02
     vertex  2.578125e-01 -1.171875e-01 -8.593750e-02
     vertex  3.908717e-01 -1.171875e-01 -7.500000e-01
   endloop
 endfacet
 facet normal  0.000000e+00 -1.000000e+00  0.000000e+00
   outer loop
     vertex -3.828125e-01 -1.171875e-01  7.500000e-01
     vertex -3.828125e-01 -1.171875e-01 -7.500000e-01
     vertex  1.484375e-01 -1.171875e-01 -4.564145e-02
   endloop
 endfacet
 facet normal  0.000000e+00 -1.000000e+00  0.000000e+00
   outer loop
     vertex  3.908717e-01 -1.171875e-01  7.500000e-01
     vertex  2.578125e-01 -1.171875e-01  4.934211e-04
     vertex  3.203125e-01 -1.171875e-01  4.934211e-04
   endloop
 endfacet
 facet normal  0.000000e+00 -1.000000e+00  0.000000e+00
   outer loop
     vertex  3.908717e-01 -1.171875e-01  7.500000e-01
     vertex  1.484375e-01 -1.171875e-01 -4.564145e-02
     vertex  2.578125e-01 -1.171875e-01  4.934211e-04
   endloop
 endfacet
 facet normal -0.000000e+00 -1.000000e+00  0.000000e+00
   outer loop
     vertex  3.908717e-01 -1.171875e-01  7.500000e-01
     vertex -3.828125e-01 -1.171875e-01  7.500000e-01
     vertex  1.484375e-01 -1.171875e-01 -4.564145e-02
   endloop
 endfacet
 facet normal  0.000000e+00 -1.000000e+00  0.000000e+00
   outer loop
     vertex  3.908717e-01 -1.171875e-01 -7.500000e-01
     vertex  3.908717e-01 -1.171875e-01  7.500000e-01
     vertex  3.203125e-01 -1.171875e-01  4.934211e-04
   endloop
 endfacet
 facet normal  0.000000e+00 -1.000000e+00  0.000000e+00
   outer loop
     vertex  3.908717e-01 -1.171875e-01 -7.500000e-01
     vertex  3.203125e-01 -1.171875e-01  4.934211e-04
     vertex  3.203125e-01 -1.171875e-01 -4.449013e-02
   endloop
 endfacet
 facet normal  0.000000e+00 -1.000000e+00  0.000000e+00
   outer loop
     vertex  3.908717e-01 -1.171875e-01 -7.500000e-01
     vertex  3.203125e-01 -1.171875e-01 -4.449013e-02
     vertex  3.203125e-01 -1.171875e-01 -4.687500e-02
   endloop
 endfacet
 facet normal  5.526741e-01  0.000000e+00 -8.333975e-01
   outer loop
     vertex  3.167163e-01 -1.171875e-01 -4.687500e-02
     vertex  2.578125e-01 -1.796875e-01 -8.593750e-02
     vertex  2.578125e-01 -1.171875e-01 -8.593750e-02
   endloop
 endfacet
 facet normal  5.526741e-01  0.000000e+00 -8.333975e-01
   outer loop
     vertex  3.167163e-01 -1.171875e-01 -4.687500e-02
     vertex  3.167163e-01 -1.796875e-01 -4.687500e-02
     vertex  2.578125e-01 -1.796875e-01 -8.593750e-02
   endloop
 endfacet
 facet normal -0.000000e+00  0.000000e+00 -1.000000e+00
   outer loop
     vertex  3.203125e-01 -1.171875e-01 -4.687500e-02
     vertex  3.167163e-01 -1.796875e-01 -4.687500e-02
     vertex  3.167163e-01 -1.171875e-01 -4.687500e-02
   endloop
 endfacet
 facet normal  0.000000e+00 -0.000000e+00 -1.000000e+00
   outer loop
     vertex  3.203125e-01 -1.171875e-01 -4.687500e-02
     vertex  3.203125e-01 -1.796875e-01 -4.687500e-02
     vertex  3.167163e-01 -1.796875e-01 -4.687500e-02
   endloop
 endfacet
 facet normal  1.000000e+00  0.000000e+00  0.000000e+00
   outer loop
     vertex  3.203125e-01 -1.171875e-01 -4.449013e-02
     vertex  3.203125e-01 -1.796875e-01 -4.687500e-02
     vertex  3.203125e-01 -1.171875e-01 -4.687500e-02
   endloop
 endfacet
 facet normal  1.000000e+00  0.000000e+00  0.000000e+00
   outer loop
     vertex  3.203125e-01 -1.171875e-01 -4.449013e-02
     vertex  3.203125e-01 -1.796875e-01 -4.449013e-02
     vertex  3.203125e-01 -1.796875e-01 -4.687500e-02
   endloop
 endfacet
 facet normal  1.000000e+00  0.000000e+00  0.000000e+00
   outer loop
     vertex  3.203125e-01 -1.171875e-01  4.934211e-04
     vertex  3.203125e-01 -1.796875e-01 -4.449013e-02
     vertex  3.203125e-01 -1.171875e-01 -4.449013e-02
   endloop
 endfacet
 facet normal  1.000000e+00  0.000000e+00  0.000000e+00
   outer loop
     vertex  3.203125e-01 -1.171875e-01  4.934211e-04
     vertex  3.203125e-01 -1.796875e-01  4.934211e-04
     vertex  3.203125e-01 -1.796875e-01 -4.449013e-02
   endloop
 endfacet
 facet normal -0.000000e+00  0.000000e+00  1.000000e+00
   outer loop
     vertex  2.578125e-01 -1.171875e-01  4.934211e-04
     vertex  3.203125e-01 -1.796875e-01  4.934211e-04
     vertex  3.203125e-01 -1.171875e-01  4.934211e-04
   endloop
 endfacet
 facet normal  0.000000e+00  0.000000e+00  1.000000e+00
   outer loop
     vertex  2.578125e-01 -1.171875e-01  4.934211e-04
     vertex  2.578125e-01 -1.796875e-01  4.934211e-04
     vertex  3.203125e-01 -1.796875e-01  4.934211e-04
   endloop
 endfacet
 facet normal -1.000000e+00  0.000000e+00  0.000000e+00
   outer loop
     vertex  2.578125e-01 -1.171875e-01 -4.449013e-02
     vertex  2.578125e-01 -1.796875e-01  4.934211e-04
     vertex  2.578125e-01 -1.171875e-01  4.934211e-04
   endloop
 endfacet
 facet normal -1.000000e+00  0.000000e+00  0.000000e+00
   outer loop
     vertex  2.578125e-01 -1.171875e-01 -4.449013e-02
     vertex  2.578125e-01 -1.796875e-01 -4.449013e-02
     vertex  2.578125e-01 -1.796875e-01  4.934211e-04
   endloop
 endfacet
 facet normal -1.000000e+00  0.000000e+00  0.000000e+00
   outer loop
     vertex  2.578125e-01 -1.171875e-01 -4.564145e-02
     vertex  2.578125e-01 -1.796875e-01 -4.449013e-02
     vertex  2.578125e-01 -1.171875e-01 -4.449013e-02
   endloop
 endfacet
 facet normal -1.000000e+00  0.000000e+00  0.000000e+00
   outer loop
     vertex  2.578125e-01 -1.171875e-01 -4.564145e-02
     vertex  2.578125e-01 -1.796875e-01 -4.564145e-02
     vertex  2.578125e-01 -1.796875e-01 -4.449013e-02
   endloop
 endfacet
 facet normal -0.000000e+00  0.000000e+00  1.000000e+00
   outer loop
     vertex  1.484375e-01 -1.171875e-01 -4.564145e-02
     vertex  2.578125e-01 -1.796875e-01 -4.564145e-02
     vertex  2.578125e-01 -1.171875e-01 -4.564145e-02
   endloop
 endfacet
 facet normal  0.000000e+00  0.000000e+00  1.000000e+00
   outer loop
     vertex  1.484375e-01 -1.171875e-01 -4.564145e-02
     vertex  1.484375e-01 -1.796875e-01 -4.564145e-02
     vertex  2.578125e-01 -1.796875e-01 -4.564145e-02
   endloop
 endfacet
 facet normal -1.000000e+00  0.000000e+00  0.000000e+00
   outer loop
     vertex  1.484375e-01 -1.171875e-01 -4.687500e-02
     vertex  1.484375e-01 -1.796875e-01 -4.564145e-02
     vertex  1.484375e-01 -1.171875e-01 -4.564145e-02
   endloop
 endfacet
 facet normal -1.000000e+00  0.000000e+00  0.000000e+00
   outer loop
     vertex  1.484375e-01 -1.171875e-01 -4.687500e-02
     vertex  1.484375e-01 -1.796875e-01 -4.687500e-02
     vertex  1.484375e-01 -1.796875e-01 -4.564145e-02
   endloop
 endfacet
 facet normal -1.000000e+00  0.000000e+00  0.000000e+00
   outer loop
     vertex  1.484375e-01 -1.171875e-01 -8.593750e-02
     vertex  1.484375e-01 -1.796875e-01 -4.687500e-02
     vertex  1.484375e-01 -1.171875e-01 -4.687500e-02
   endloop
 endfacet
 facet normal -1.000000e+00  0.000000e+00  0.000000e+00
   outer loop
     vertex  1.484375e-01 -1.171875e-01 -8.593750e-02
     vertex  1.484375e-01 -1.796875e-01 -8.593750e-02
     vertex  1.484375e-01 -1.796875e-01 -4.687500e-02
   endloop
 endfacet
 facet normal -0.000000e+00  0.000000e+00 -1.000000e+00
   outer loop
     vertex  2.578125e-01 -1.171875e-01 -8.593750e-02
     vertex  1.484375e-01 -1.796875e-01 -8.593750e-02
     vertex  1.484375e-01 -1.171875e-01 -8.593750e-02
   endloop
 endfacet
 facet normal  0.000000e+00 -0.000000e+00 -1.000000e+00
   outer loop
     vertex  2.578125e-01 -1.171875e-01 -8.593750e-02
     vertex  2.578125e-01 -1.796875e-01 -8.593750e-02
     vertex  1.484375e-01 -1.796875e-01 -8.593750e-02
   endloop
 endfacet
 facet normal -0.000000e+00 -1.000000e+00  0.000000e+00
   outer loop
     vertex  3.167163e-01 -1.796875e-01 -4.687500e-02
     vertex  2.578125e-01 -1.796875e-01 -4.687500e-02
     vertex  2.578125e-01 -1.796875e-01 -8.593750e-02
   endloop
 endfacet
 facet normal  0.000000e+00 -1.000000e+00 -0.000000e+00
   outer loop
     vertex  3.203125e-01 -1.796875e-01 -4.449013e-02
     vertex  3.167163e-01 -1.796875e-01 -4.687500e-02
     vertex  3.203125e-01 -1.796875e-01 -4.687500e-02
   endloop
 endfacet
 facet normal  0.000000e+00 -1.000000e+00 -0.000000e+00
   outer loop
     vertex  3.203125e-01 -1.796875e-01  4.934211e-04
     vertex  2.578125e-01 -1.796875e-01 -4.449013e-02
     vertex  3.203125e-01 -1.796875e-01 -4.449013e-02
   endloop
 endfacet
 facet normal -0.000000e+00 -1.000000e+00  0.000000e+00
   outer loop
     vertex  3.203125e-01 -1.796875e-01  4.934211e-04
     vertex  2.578125e-01 -1.796875e-01  4.934211e-04
     vertex  2.578125e-01 -1.796875e-01 -4.449013e-02
   endloop
 endfacet
 facet normal  0.000000e+00 -1.000000e+00  0.000000e+00
   outer loop
     vertex  3.167163e-01 -1.796875e-01 -4.687500e-02
     vertex  2.578125e-01 -1.796875e-01 -4.564145e-02
     vertex  2.578125e-01 -1.796875e-01 -4.687500e-02
   endloop
 endfacet
 facet normal  0.000000e+00 -1.000000e+00  0.000000e+00
   outer loop
     vertex  3.167163e-01 -1.796875e-01 -4.687500e-02
     vertex  2.578125e-01 -1.796875e-01 -4.449013e-02
     vertex  2.578125e-01 -1.796875e-01 -4.564145e-02
   endloop
 endfacet
 facet normal -0.000000e+00 -1.000000e+00  0.000000e+00
   outer loop
     vertex  3.203125e-01 -1.796875e-01 -4.449013e-02
     vertex  2.578125e-01 -1.796875e-01 -4.449013e-02
     vertex  3.167163e-01 -1.796875e-01 -4.687500e-02
   endloop
 endfacet
 facet normal  0.000000e+00 -1.000000e+00  0.000000e+00
   outer loop
     vertex  1.653521e-01 -1.796875e-01 -5.664062e-02
     vertex  1.484375e-01 -1.796875e-01 -4.564145e-02
     vertex  1.484375e-01 -1.796875e-01 -4.687500e-02
   endloop
 endfacet
 facet normal  0.000000e+00 -1.000000e+00  0.000000e+00
   outer loop
     vertex  2.578125e-01 -1.796875e-01 -8.593750e-02
     vertex  1.653521e-01 -1.796875e-01 -7.617188e-02
     vertex  1.484375e-01 -1.796875e-01 -8.593750e-02
   endloop
 endfacet
 facet normal  0.000000e+00 -1.000000e+00  0.000000e+00
   outer loop
     vertex  2.578125e-01 -1.796875e-01 -4.687500e-02
     vertex  1.653521e-01 -1.796875e-01 -5.664062e-02
     vertex  1.653521e-01 -1.796875e-01 -7.617188e-02
   endloop
 endfacet
 facet normal  0.000000e+00 -1.000000e+00 -0.000000e+00
   outer loop
     vertex  2.578125e-01 -1.796875e-01 -4.687500e-02
     vertex  1.653521e-01 -1.796875e-01 -7.617188e-02
     vertex  2.578125e-01 -1.796875e-01 -8.593750e-02
   endloop
 endfacet
 facet normal  0.000000e+00 -1.000000e+00 -0.000000e+00
   outer loop
     vertex  2.578125e-01 -1.796875e-01 -4.564145e-02
     vertex  1.653521e-01 -1.796875e-01 -5.664062e-02
     vertex  2.578125e-01 -1.796875e-01 -4.687500e-02
   endloop
 endfacet
 facet normal -0.000000e+00 -1.000000e+00  0.000000e+00
   outer loop
     vertex  2.578125e-01 -1.796875e-01 -4.564145e-02
     vertex  1.484375e-01 -1.796875e-01 -4.564145e-02
     vertex  1.653521e-01 -1.796875e-01 -5.664062e-02
   endloop
 endfacet
 facet normal  0.000000e+00 -1.000000e+00 -0.000000e+00
   outer loop
     vertex  1.653521e-01 -1.796875e-01 -5.664062e-02
     vertex  1.484375e-01 -1.796875e-01 -8.593750e-02
     vertex  1.653521e-01 -1.796875e-01 -7.617188e-02
   endloop
 endfacet
 facet normal -0.000000e+00 -1.000000e+00  0.000000e+00
   outer loop
     vertex  1.653521e-01 -1.796875e-01 -5.664062e-02
     vertex  1.484375e-01 -1.796875e-01 -4.687500e-02
     vertex  1.484375e-01 -1.796875e-01 -8.593750e-02
   endloop
 endfacet
endsolid
