solid 
 facet normal  9.807853e-01 -1.950903e-01  0.000000e+00
   outer loop
     vertex  2.139047e-01 -8.761436e-02  0.000000e+00
     vertex  2.313322e-01  0.000000e+00  0.000000e+00
     vertex  2.313322e-01  0.000000e+00  7.500000e-01
   endloop
 endfacet
 facet normal  9.807853e-01 -1.950903e-01  0.000000e+00
   outer loop
     vertex  2.139047e-01 -8.761436e-02  0.000000e+00
     vertex  2.313322e-01  0.000000e+00  7.500000e-01
     vertex  2.139047e-01 -8.761436e-02  7.500000e-01
   endloop
 endfacet
 facet normal  8.314696e-01 -5.555702e-01  0.000000e+00
   outer loop
     vertex  1.642751e-01 -1.618902e-01  0.000000e+00
     vertex  2.139047e-01 -8.761436e-02  7.500000e-01
     vertex  1.642751e-01 -1.618902e-01  7.500000e-01
   endloop
 endfacet
 facet normal  8.314696e-01 -5.555702e-01  0.000000e+00
   outer loop
     vertex  1.642751e-01 -1.618902e-01  0.000000e+00
     vertex  2.139047e-01 -8.761436e-02  0.000000e+00
     vertex  2.139047e-01 -8.761436e-02  7.500000e-01
   endloop
 endfacet
 facet normal  5.555702e-01 -8.314696e-01  0.000000e+00
   outer loop
     vertex  8.999923e-02 -2.115198e-01  0.000000e+00
     vertex  1.642751e-01 -1.618902e-01  7.500000e-01
     vertex  8.999923e-02 -2.115198e-01  7.500000e-01
   endloop
 endfacet
 facet normal  5.555702e-01 -8.314696e-01  0.000000e+00
   outer loop
     vertex  8.999923e-02 -2.115198e-01  0.000000e+00
     vertex  1.642751e-01 -1.618902e-01  0.000000e+00
     vertex  1.642751e-01 -1.618902e-01  7.500000e-01
   endloop
 endfacet
 facet normal  1.950903e-01 -9.807853e-01  0.000000e+00
   outer loop
     vertex  2.384868e-03 -2.289474e-01  0.000000e+00
     vertex  8.999923e-02 -2.115198e-01  7.500000e-01
     vertex  2.384868e-03 -2.289474e-01  7.500000e-01
   endloop
 endfacet
 facet normal  1.950903e-01 -9.807853e-01  0.000000e+00
   outer loop
     vertex  2.384868e-03 -2.289474e-01  0.000000e+00
     vertex  8.999923e-02 -2.115198e-01  0.000000e+00
     vertex  8.999923e-02 -2.115198e-01  7.500000e-01
   endloop
 endfacet
 facet normal -1.950903e-01 -9.807853e-01  0.000000e+00
   outer loop
     vertex -8.522950e-02 -2.115198e-01  0.000000e+00
     vertex  2.384868e-03 -2.289474e-01  7.500000e-01
     vertex -8.522950e-02 -2.115198e-01  7.500000e-01
   endloop
 endfacet
 facet normal -1.950903e-01 -9.807853e-01  0.000000e+00
   outer loop
     vertex -8.522950e-02 -2.115198e-01  0.000000e+00
     vertex  2.384868e-03 -2.289474e-01  0.000000e+00
     vertex  2.384868e-03 -2.289474e-01  7.500000e-01
   endloop
 endfacet
 facet normal -5.555702e-01 -8.314696e-01  0.000000e+00
   outer loop
     vertex -1.595054e-01 -1.618902e-01  0.000000e+00
     vertex -8.522950e-02 -2.115198e-01  7.500000e-01
     vertex -1.595054e-01 -1.618902e-01  7.500000e-01
   endloop
 endfacet
 facet normal -5.555702e-01 -8.314696e-01  0.000000e+00
   outer loop
     vertex -1.595054e-01 -1.618902e-01  0.000000e+00
     vertex -8.522950e-02 -2.115198e-01  0.000000e+00
     vertex -8.522950e-02 -2.115198e-01  7.500000e-01
   endloop
 endfacet
 facet normal -8.314696e-01 -5.555702e-01  0.000000e+00
   outer loop
     vertex -2.091349e-01 -8.761436e-02  0.000000e+00
     vertex -1.595054e-01 -1.618902e-01  7.500000e-01
     vertex -2.091349e-01 -8.761436e-02  7.500000e-01
   endloop
 endfacet
 facet normal -8.314696e-01 -5.555702e-01  0.000000e+00
   outer loop
     vertex -2.091349e-01 -8.761436e-02  0.000000e+00
     vertex -1.595054e-01 -1.618902e-01  0.000000e+00
     vertex -1.595054e-01 -1.618902e-01  7.500000e-01
   endloop
 endfacet
 facet normal -9.807853e-01 -1.950903e-01  0.000000e+00
   outer loop
     vertex -2.265625e-01  2.803797e-17  0.000000e+00
     vertex -2.091349e-01 -8.761436e-02  7.500000e-01
     vertex -2.265625e-01  2.803797e-17  7.500000e-01
   endloop
 endfacet
 facet normal -9.807853e-01 -1.950903e-01  0.000000e+00
   outer loop
     vertex -2.265625e-01  2.803797e-17  0.000000e+00
     vertex -2.091349e-01 -8.761436e-02  0.000000e+00
     vertex -2.091349e-01 -8.761436e-02  7.500000e-01
   endloop
 endfacet
 facet normal -8.314696e-01  5.555702e-01  0.000000e+00
   outer loop
     vertex -2.091349e-01  8.761436e-02  0.000000e+00
     vertex -2.091349e-01  8.761436e-02  7.500000e-01
     vertex -1.595054e-01  1.618902e-01  7.500000e-01
   endloop
 endfacet
 facet normal -9.807853e-01  1.950903e-01  0.000000e+00
   outer loop
     vertex -2.091349e-01  8.761436e-02  0.000000e+00
     vertex -2.265625e-01  2.803797e-17  7.500000e-01
     vertex -2.091349e-01  8.761436e-02  7.500000e-01
   endloop
 endfacet
 facet normal -9.807853e-01  1.950903e-01  0.000000e+00
   outer loop
     vertex -2.091349e-01  8.761436e-02  0.000000e+00
     vertex -2.265625e-01  2.803797e-17  0.000000e+00
     vertex -2.265625e-01  2.803797e-17  7.500000e-01
   endloop
 endfacet
 facet normal -8.314696e-01  5.555702e-01  0.000000e+00
   outer loop
     vertex -1.595054e-01  1.618902e-01  0.000000e+00
     vertex -2.091349e-01  8.761436e-02  0.000000e+00
     vertex -1.595054e-01  1.618902e-01  7.500000e-01
   endloop
 endfacet
 facet normal -5.555702e-01  8.314696e-01  0.000000e+00
   outer loop
     vertex -8.522950e-02  2.115198e-01  0.000000e+00
     vertex -1.595054e-01  1.618902e-01  7.500000e-01
     vertex -8.522950e-02  2.115198e-01  7.500000e-01
   endloop
 endfacet
 facet normal -5.555702e-01  8.314696e-01  0.000000e+00
   outer loop
     vertex -8.522950e-02  2.115198e-01  0.000000e+00
     vertex -1.595054e-01  1.618902e-01  0.000000e+00
     vertex -1.595054e-01  1.618902e-01  7.500000e-01
   endloop
 endfacet
 facet normal -1.950903e-01  9.807853e-01  0.000000e+00
   outer loop
     vertex  2.384868e-03  2.289474e-01  0.000000e+00
     vertex -8.522950e-02  2.115198e-01  7.500000e-01
     vertex  2.384868e-03  2.289474e-01  7.500000e-01
   endloop
 endfacet
 facet normal -1.950903e-01  9.807853e-01  0.000000e+00
   outer loop
     vertex  2.384868e-03  2.289474e-01  0.000000e+00
     vertex -8.522950e-02  2.115198e-01  0.000000e+00
     vertex -8.522950e-02  2.115198e-01  7.500000e-01
   endloop
 endfacet
 facet normal  1.950903e-01  9.807853e-01 -0.000000e+00
   outer loop
     vertex  8.999923e-02  2.115198e-01  0.000000e+00
     vertex  2.384868e-03  2.289474e-01  7.500000e-01
     vertex  8.999923e-02  2.115198e-01  7.500000e-01
   endloop
 endfacet
 facet normal  1.950903e-01  9.807853e-01  0.000000e+00
   outer loop
     vertex  8.999923e-02  2.115198e-01  0.000000e+00
     vertex  2.384868e-03  2.289474e-01  0.000000e+00
     vertex  2.384868e-03  2.289474e-01  7.500000e-01
   endloop
 endfacet
 facet normal  5.555702e-01  8.314696e-01 -0.000000e+00
   outer loop
     vertex  1.642751e-01  1.618902e-01  0.000000e+00
     vertex  8.999923e-02  2.115198e-01  7.500000e-01
     vertex  1.642751e-01  1.618902e-01  7.500000e-01
   endloop
 endfacet
 facet normal  5.555702e-01  8.314696e-01  0.000000e+00
   outer loop
     vertex  1.642751e-01  1.618902e-01  0.000000e+00
     vertex  8.999923e-02  2.115198e-01  0.000000e+00
     vertex  8.999923e-02  2.115198e-01  7.500000e-01
   endloop
 endfacet
 facet normal  8.314696e-01  5.555702e-01 -0.000000e+00
   outer loop
     vertex  2.139047e-01  8.761436e-02  0.000000e+00
     vertex  1.642751e-01  1.618902e-01  7.500000e-01
     vertex  2.139047e-01  8.761436e-02  7.500000e-01
   endloop
 endfacet
 facet normal  8.314696e-01  5.555702e-01  0.000000e+00
   outer loop
     vertex  2.139047e-01  8.761436e-02  0.000000e+00
     vertex  1.642751e-01  1.618902e-01  0.000000e+00
     vertex  1.642751e-01  1.618902e-01  7.500000e-01
   endloop
 endfacet
 facet normal  9.807853e-01  1.950903e-01  0.000000e+00
   outer loop
     vertex  2.313322e-01  0.000000e+00  0.000000e+00
     vertex  2.139047e-01  8.761436e-02  0.000000e+00
     vertex  2.139047e-01  8.761436e-02  7.500000e-01
   endloop
 endfacet
 facet normal  9.807853e-01  1.950903e-01 -0.000000e+00
   outer loop
     vertex  2.313322e-01  0.000000e+00  0.000000e+00
     vertex  2.139047e-01  8.761436e-02  7.500000e-01
     vertex  2.313322e-01  0.000000e+00  7.500000e-01
   endloop
 endfacet
 facet normal -9.709418e-01  2.393157e-01  0.000000e+00
   outer loop
     vertex  1.586504e-01 -8.201447e-02  0.000000e+00
     vertex  1.788651e-01  0.000000e+00  7.500000e-01
     vertex  1.788651e-01  0.000000e+00  0.000000e+00
   endloop
 endfacet
 facet normal -9.709418e-01  2.393157e-01  0.000000e+00
   outer loop
     vertex  1.586504e-01 -8.201447e-02  0.000000e+00
     vertex  1.586504e-01 -8.201447e-02  7.500000e-01
     vertex  1.788651e-01  0.000000e+00  7.500000e-01
   endloop
 endfacet
 facet normal -7.485107e-01  6.631227e-01  0.000000e+00
   outer loop
     vertex  1.026371e-01 -1.452404e-01  0.000000e+00
     vertex  1.026371e-01 -1.452404e-01  7.500000e-01
     vertex  1.586504e-01 -8.201447e-02  7.500000e-01
   endloop
 endfacet
 facet normal -7.485107e-01  6.631227e-01  0.000000e+00
   outer loop
     vertex  1.026371e-01 -1.452404e-01  0.000000e+00
     vertex  1.586504e-01 -8.201447e-02  7.500000e-01
     vertex  1.586504e-01 -8.201447e-02  0.000000e+00
   endloop
 endfacet
 facet normal -3.546049e-01  9.350162e-01  0.000000e+00
   outer loop
     vertex  2.365721e-02 -1.751935e-01  0.000000e+00
     vertex  2.365721e-02 -1.751935e-01  7.500000e-01
     vertex  1.026371e-01 -1.452404e-01  7.500000e-01
   endloop
 endfacet
 facet normal -3.546049e-01  9.350162e-01  0.000000e+00
   outer loop
     vertex  2.365721e-02 -1.751935e-01  0.000000e+00
     vertex  1.026371e-01 -1.452404e-01  7.500000e-01
     vertex  1.026371e-01 -1.452404e-01  0.000000e+00
   endloop
 endfacet
 facet normal  1.205367e-01  9.927089e-01 -0.000000e+00
   outer loop
     vertex -6.019590e-02 -1.650119e-01  0.000000e+00
     vertex -6.019590e-02 -1.650119e-01  7.500000e-01
     vertex  2.365721e-02 -1.751935e-01  7.500000e-01
   endloop
 endfacet
 facet normal  1.205367e-01  9.927089e-01  0.000000e+00
   outer loop
     vertex -6.019590e-02 -1.650119e-01  0.000000e+00
     vertex  2.365721e-02 -1.751935e-01  7.500000e-01
     vertex  2.365721e-02 -1.751935e-01  0.000000e+00
   endloop
 endfacet
 facet normal  5.680647e-01  8.229839e-01 -0.000000e+00
   outer loop
     vertex -1.297125e-01 -1.170281e-01  0.000000e+00
     vertex -1.297125e-01 -1.170281e-01  7.500000e-01
     vertex -6.019590e-02 -1.650119e-01  7.500000e-01
   endloop
 endfacet
 facet normal  5.680647e-01  8.229839e-01  0.000000e+00
   outer loop
     vertex -1.297125e-01 -1.170281e-01  0.000000e+00
     vertex -6.019590e-02 -1.650119e-01  7.500000e-01
     vertex -6.019590e-02 -1.650119e-01  0.000000e+00
   endloop
 endfacet
 facet normal  8.854560e-01  4.647232e-01 -0.000000e+00
   outer loop
     vertex -1.689672e-01 -4.223449e-02  0.000000e+00
     vertex -1.689672e-01 -4.223449e-02  7.500000e-01
     vertex -1.297125e-01 -1.170281e-01  7.500000e-01
   endloop
 endfacet
 facet normal  8.854560e-01  4.647232e-01  0.000000e+00
   outer loop
     vertex -1.689672e-01 -4.223449e-02  0.000000e+00
     vertex -1.297125e-01 -1.170281e-01  7.500000e-01
     vertex -1.297125e-01 -1.170281e-01  0.000000e+00
   endloop
 endfacet
 facet normal  1.000000e+00 -6.571779e-16  0.000000e+00
   outer loop
     vertex -1.689672e-01  4.223449e-02  0.000000e+00
     vertex -1.689672e-01  4.223449e-02  7.500000e-01
     vertex -1.689672e-01 -4.223449e-02  7.500000e-01
   endloop
 endfacet
 facet normal  1.000000e+00 -6.571779e-16  0.000000e+00
   outer loop
     vertex -1.689672e-01  4.223449e-02  0.000000e+00
     vertex -1.689672e-01 -4.223449e-02  7.500000e-01
     vertex -1.689672e-01 -4.223449e-02  0.000000e+00
   endloop
 endfacet
 facet normal  5.680647e-01 -8.229839e-01  0.000000e+00
   outer loop
     vertex -1.297125e-01  1.170281e-01  0.000000e+00
     vertex -6.019590e-02  1.650119e-01  7.500000e-01
     vertex -1.297125e-01  1.170281e-01  7.500000e-01
   endloop
 endfacet
 facet normal  8.854560e-01 -4.647232e-01  0.000000e+00
   outer loop
     vertex -1.297125e-01  1.170281e-01  0.000000e+00
     vertex -1.297125e-01  1.170281e-01  7.500000e-01
     vertex -1.689672e-01  4.223449e-02  7.500000e-01
   endloop
 endfacet
 facet normal  8.854560e-01 -4.647232e-01  0.000000e+00
   outer loop
     vertex -1.297125e-01  1.170281e-01  0.000000e+00
     vertex -1.689672e-01  4.223449e-02  7.500000e-01
     vertex -1.689672e-01  4.223449e-02  0.000000e+00
   endloop
 endfacet
 facet normal  5.680647e-01 -8.229839e-01  0.000000e+00
   outer loop
     vertex -6.019590e-02  1.650119e-01  0.000000e+00
     vertex -6.019590e-02  1.650119e-01  7.500000e-01
     vertex -1.297125e-01  1.170281e-01  0.000000e+00
   endloop
 endfacet
 facet normal  1.205367e-01 -9.927089e-01  0.000000e+00
   outer loop
     vertex  2.365721e-02  1.751935e-01  0.000000e+00
     vertex  2.365721e-02  1.751935e-01  7.500000e-01
     vertex -6.019590e-02  1.650119e-01  7.500000e-01
   endloop
 endfacet
 facet normal  1.205367e-01 -9.927089e-01  0.000000e+00
   outer loop
     vertex  2.365721e-02  1.751935e-01  0.000000e+00
     vertex -6.019590e-02  1.650119e-01  7.500000e-01
     vertex -6.019590e-02  1.650119e-01  0.000000e+00
   endloop
 endfacet
 facet normal -3.546049e-01 -9.350162e-01  0.000000e+00
   outer loop
     vertex  1.026371e-01  1.452404e-01  0.000000e+00
     vertex  1.026371e-01  1.452404e-01  7.500000e-01
     vertex  2.365721e-02  1.751935e-01  7.500000e-01
   endloop
 endfacet
 facet normal -3.546049e-01 -9.350162e-01  0.000000e+00
   outer loop
     vertex  1.026371e-01  1.452404e-01  0.000000e+00
     vertex  2.365721e-02  1.751935e-01  7.500000e-01
     vertex  2.365721e-02  1.751935e-01  0.000000e+00
   endloop
 endfacet
 facet normal -9.709418e-01 -2.393157e-01  0.000000e+00
   outer loop
     vertex  1.586504e-01  8.201447e-02  0.000000e+00
     vertex  1.788651e-01  0.000000e+00  7.500000e-01
     vertex  1.586504e-01  8.201447e-02  7.500000e-01
   endloop
 endfacet
 facet normal -7.485107e-01 -6.631227e-01  0.000000e+00
   outer loop
     vertex  1.586504e-01  8.201447e-02  0.000000e+00
     vertex  1.586504e-01  8.201447e-02  7.500000e-01
     vertex  1.026371e-01  1.452404e-01  7.500000e-01
   endloop
 endfacet
 facet normal -7.485107e-01 -6.631227e-01  0.000000e+00
   outer loop
     vertex  1.586504e-01  8.201447e-02  0.000000e+00
     vertex  1.026371e-01  1.452404e-01  7.500000e-01
     vertex  1.026371e-01  1.452404e-01  0.000000e+00
   endloop
 endfacet
 facet normal -9.709418e-01 -2.393157e-01  0.000000e+00
   outer loop
     vertex  1.788651e-01  0.000000e+00  0.000000e+00
     vertex  1.788651e-01  0.000000e+00  7.500000e-01
     vertex  1.586504e-01  8.201447e-02  0.000000e+00
   endloop
 endfacet
 facet normal -0.000000e+00  0.000000e+00 -1.000000e+00
   outer loop
     vertex -1.297125e-01 -1.170281e-01  0.000000e+00
     vertex -1.595054e-01 -1.618902e-01  0.000000e+00
     vertex -2.091349e-01 -8.761436e-02  0.000000e+00
   endloop
 endfacet
 facet normal -0.000000e+00  0.000000e+00 -1.000000e+00
   outer loop
     vertex -6.019590e-02 -1.650119e-01  0.000000e+00
     vertex -8.522950e-02 -2.115198e-01  0.000000e+00
     vertex -1.595054e-01 -1.618902e-01  0.000000e+00
   endloop
 endfacet
 facet normal  0.000000e+00 -0.000000e+00 -1.000000e+00
   outer loop
     vertex -6.019590e-02 -1.650119e-01  0.000000e+00
     vertex  2.384868e-03 -2.289474e-01  0.000000e+00
     vertex -8.522950e-02 -2.115198e-01  0.000000e+00
   endloop
 endfacet
 facet normal  0.000000e+00  0.000000e+00 -1.000000e+00
   outer loop
     vertex -6.019590e-02 -1.650119e-01  0.000000e+00
     vertex -1.595054e-01 -1.618902e-01  0.000000e+00
     vertex -1.297125e-01 -1.170281e-01  0.000000e+00
   endloop
 endfacet
 facet normal -0.000000e+00  0.000000e+00 -1.000000e+00
   outer loop
     vertex -1.689672e-01 -4.223449e-02  0.000000e+00
     vertex -2.091349e-01 -8.761436e-02  0.000000e+00
     vertex -2.265625e-01  2.803797e-17  0.000000e+00
   endloop
 endfacet
 facet normal  0.000000e+00 -0.000000e+00 -1.000000e+00
   outer loop
     vertex -1.689672e-01 -4.223449e-02  0.000000e+00
     vertex -1.297125e-01 -1.170281e-01  0.000000e+00
     vertex -2.091349e-01 -8.761436e-02  0.000000e+00
   endloop
 endfacet
 facet normal -0.000000e+00  0.000000e+00 -1.000000e+00
   outer loop
     vertex  2.365721e-02 -1.751935e-01  0.000000e+00
     vertex  2.384868e-03 -2.289474e-01  0.000000e+00
     vertex -6.019590e-02 -1.650119e-01  0.000000e+00
   endloop
 endfacet
 facet normal  0.000000e+00  0.000000e+00 -1.000000e+00
   outer loop
     vertex -1.689672e-01  4.223449e-02  0.000000e+00
     vertex -1.689672e-01 -4.223449e-02  0.000000e+00
     vertex -2.265625e-01  2.803797e-17  0.000000e+00
   endloop
 endfacet
 facet normal -0.000000e+00  0.000000e+00 -1.000000e+00
   outer loop
     vertex  8.999923e-02 -2.115198e-01  0.000000e+00
     vertex  2.384868e-03 -2.289474e-01  0.000000e+00
     vertex  2.365721e-02 -1.751935e-01  0.000000e+00
   endloop
 endfacet
 facet normal  0.000000e+00 -0.000000e+00 -1.000000e+00
   outer loop
     vertex -2.091349e-01  8.761436e-02  0.000000e+00
     vertex -1.689672e-01  4.223449e-02  0.000000e+00
     vertex -2.265625e-01  2.803797e-17  0.000000e+00
   endloop
 endfacet
 facet normal  0.000000e+00  0.000000e+00 -1.000000e+00
   outer loop
     vertex  1.026371e-01 -1.452404e-01  0.000000e+00
     vertex  8.999923e-02 -2.115198e-01  0.000000e+00
     vertex  2.365721e-02 -1.751935e-01  0.000000e+00
   endloop
 endfacet
 facet normal  0.000000e+00  0.000000e+00 -1.000000e+00
   outer loop
     vertex -1.297125e-01  1.170281e-01  0.000000e+00
     vertex -1.689672e-01  4.223449e-02  0.000000e+00
     vertex -2.091349e-01  8.761436e-02  0.000000e+00
   endloop
 endfacet
 facet normal  0.000000e+00 -0.000000e+00 -1.000000e+00
   outer loop
     vertex -1.595054e-01  1.618902e-01  0.000000e+00
     vertex -1.297125e-01  1.170281e-01  0.000000e+00
     vertex -2.091349e-01  8.761436e-02  0.000000e+00
   endloop
 endfacet
 facet normal -0.000000e+00  0.000000e+00 -1.000000e+00
   outer loop
     vertex  1.642751e-01 -1.618902e-01  0.000000e+00
     vertex  8.999923e-02 -2.115198e-01  0.000000e+00
     vertex  1.026371e-01 -1.452404e-01  0.000000e+00
   endloop
 endfacet
 facet normal  0.000000e+00 -0.000000e+00 -1.000000e+00
   outer loop
     vertex  1.586504e-01 -8.201447e-02  0.000000e+00
     vertex  1.642751e-01 -1.618902e-01  0.000000e+00
     vertex  1.026371e-01 -1.452404e-01  0.000000e+00
   endloop
 endfacet
 facet normal  0.000000e+00  0.000000e+00 -1.000000e+00
   outer loop
     vertex -6.019590e-02  1.650119e-01  0.000000e+00
     vertex -1.297125e-01  1.170281e-01  0.000000e+00
     vertex -1.595054e-01  1.618902e-01  0.000000e+00
   endloop
 endfacet
 facet normal  0.000000e+00 -0.000000e+00 -1.000000e+00
   outer loop
     vertex -8.522950e-02  2.115198e-01  0.000000e+00
     vertex -6.019590e-02  1.650119e-01  0.000000e+00
     vertex -1.595054e-01  1.618902e-01  0.000000e+00
   endloop
 endfacet
 facet normal -0.000000e+00  0.000000e+00 -1.000000e+00
   outer loop
     vertex  2.139047e-01 -8.761436e-02  0.000000e+00
     vertex  1.642751e-01 -1.618902e-01  0.000000e+00
     vertex  1.586504e-01 -8.201447e-02  0.000000e+00
   endloop
 endfacet
 facet normal  0.000000e+00 -0.000000e+00 -1.000000e+00
   outer loop
     vertex  1.788651e-01  0.000000e+00  0.000000e+00
     vertex  2.139047e-01 -8.761436e-02  0.000000e+00
     vertex  1.586504e-01 -8.201447e-02  0.000000e+00
   endloop
 endfacet
 facet normal -0.000000e+00  0.000000e+00 -1.000000e+00
   outer loop
     vertex  2.313322e-01  0.000000e+00  0.000000e+00
     vertex  2.139047e-01 -8.761436e-02  0.000000e+00
     vertex  1.788651e-01  0.000000e+00  0.000000e+00
   endloop
 endfacet
 facet normal  0.000000e+00 -0.000000e+00 -1.000000e+00
   outer loop
     vertex  2.384868e-03  2.289474e-01  0.000000e+00
     vertex  2.365721e-02  1.751935e-01  0.000000e+00
     vertex -6.019590e-02  1.650119e-01  0.000000e+00
   endloop
 endfacet
 facet normal  0.000000e+00  0.000000e+00 -1.000000e+00
   outer loop
     vertex  2.384868e-03  2.289474e-01  0.000000e+00
     vertex -6.019590e-02  1.650119e-01  0.000000e+00
     vertex -8.522950e-02  2.115198e-01  0.000000e+00
   endloop
 endfacet
 facet normal  0.000000e+00  0.000000e+00 -1.000000e+00
   outer loop
     vertex  2.139047e-01  8.761436e-02  0.000000e+00
     vertex  1.788651e-01  0.000000e+00  0.000000e+00
     vertex  1.586504e-01  8.201447e-02  0.000000e+00
   endloop
 endfacet
 facet normal  0.000000e+00 -0.000000e+00 -1.000000e+00
   outer loop
     vertex  2.139047e-01  8.761436e-02  0.000000e+00
     vertex  2.313322e-01  0.000000e+00  0.000000e+00
     vertex  1.788651e-01  0.000000e+00  0.000000e+00
   endloop
 endfacet
 facet normal  0.000000e+00 -0.000000e+00 -1.000000e+00
   outer loop
     vertex  8.999923e-02  2.115198e-01  0.000000e+00
     vertex  1.026371e-01  1.452404e-01  0.000000e+00
     vertex  2.365721e-02  1.751935e-01  0.000000e+00
   endloop
 endfacet
 facet normal -0.000000e+00  0.000000e+00 -1.000000e+00
   outer loop
     vertex  8.999923e-02  2.115198e-01  0.000000e+00
     vertex  2.365721e-02  1.751935e-01  0.000000e+00
     vertex  2.384868e-03  2.289474e-01  0.000000e+00
   endloop
 endfacet
 facet normal  0.000000e+00  0.000000e+00 -1.000000e+00
   outer loop
     vertex  1.642751e-01  1.618902e-01  0.000000e+00
     vertex  1.586504e-01  8.201447e-02  0.000000e+00
     vertex  1.026371e-01  1.452404e-01  0.000000e+00
   endloop
 endfacet
 facet normal  0.000000e+00 -0.000000e+00 -1.000000e+00
   outer loop
     vertex  1.642751e-01  1.618902e-01  0.000000e+00
     vertex  2.139047e-01  8.761436e-02  0.000000e+00
     vertex  1.586504e-01  8.201447e-02  0.000000e+00
   endloop
 endfacet
 facet normal -0.000000e+00  0.000000e+00 -1.000000e+00
   outer loop
     vertex  1.642751e-01  1.618902e-01  0.000000e+00
     vertex  1.026371e-01  1.452404e-01  0.000000e+00
     vertex  8.999923e-02  2.115198e-01  0.000000e+00
   endloop
 endfacet
 facet normal  0.000000e+00  0.000000e+00  1.000000e+00
   outer loop
     vertex -1.297125e-01 -1.170281e-01  7.500000e-01
     vertex -2.091349e-01 -8.761436e-02  7.500000e-01
     vertex -1.595054e-01 -1.618902e-01  7.500000e-01
   endloop
 endfacet
 facet normal  0.000000e+00  0.000000e+00  1.000000e+00
   outer loop
     vertex -6.019590e-02 -1.650119e-01  7.500000e-01
     vertex -1.595054e-01 -1.618902e-01  7.500000e-01
     vertex -8.522950e-02 -2.115198e-01  7.500000e-01
   endloop
 endfacet
 facet normal  0.000000e+00  0.000000e+00  1.000000e+00
   outer loop
     vertex -6.019590e-02 -1.650119e-01  7.500000e-01
     vertex -8.522950e-02 -2.115198e-01  7.500000e-01
     vertex  2.384868e-03 -2.289474e-01  7.500000e-01
   endloop
 endfacet
 facet normal  0.000000e+00  0.000000e+00  1.000000e+00
   outer loop
     vertex -6.019590e-02 -1.650119e-01  7.500000e-01
     vertex -1.297125e-01 -1.170281e-01  7.500000e-01
     vertex -1.595054e-01 -1.618902e-01  7.500000e-01
   endloop
 endfacet
 facet normal  0.000000e+00  0.000000e+00  1.000000e+00
   outer loop
     vertex -1.689672e-01 -4.223449e-02  7.500000e-01
     vertex -2.265625e-01  2.803797e-17  7.500000e-01
     vertex -2.091349e-01 -8.761436e-02  7.500000e-01
   endloop
 endfacet
 facet normal  0.000000e+00  0.000000e+00  1.000000e+00
   outer loop
     vertex -1.689672e-01 -4.223449e-02  7.500000e-01
     vertex -2.091349e-01 -8.761436e-02  7.500000e-01
     vertex -1.297125e-01 -1.170281e-01  7.500000e-01
   endloop
 endfacet
 facet normal  0.000000e+00  0.000000e+00  1.000000e+00
   outer loop
     vertex  2.365721e-02 -1.751935e-01  7.500000e-01
     vertex -6.019590e-02 -1.650119e-01  7.500000e-01
     vertex  2.384868e-03 -2.289474e-01  7.500000e-01
   endloop
 endfacet
 facet normal  0.000000e+00  0.000000e+00  1.000000e+00
   outer loop
     vertex -1.689672e-01  4.223449e-02  7.500000e-01
     vertex -2.265625e-01  2.803797e-17  7.500000e-01
     vertex -1.689672e-01 -4.223449e-02  7.500000e-01
   endloop
 endfacet
 facet normal  0.000000e+00  0.000000e+00  1.000000e+00
   outer loop
     vertex  8.999923e-02 -2.115198e-01  7.500000e-01
     vertex  2.365721e-02 -1.751935e-01  7.500000e-01
     vertex  2.384868e-03 -2.289474e-01  7.500000e-01
   endloop
 endfacet
 facet normal  0.000000e+00  0.000000e+00  1.000000e+00
   outer loop
     vertex -2.091349e-01  8.761436e-02  7.500000e-01
     vertex -2.265625e-01  2.803797e-17  7.500000e-01
     vertex -1.689672e-01  4.223449e-02  7.500000e-01
   endloop
 endfacet
 facet normal  0.000000e+00  0.000000e+00  1.000000e+00
   outer loop
     vertex  1.026371e-01 -1.452404e-01  7.500000e-01
     vertex  2.365721e-02 -1.751935e-01  7.500000e-01
     vertex  8.999923e-02 -2.115198e-01  7.500000e-01
   endloop
 endfacet
 facet normal  0.000000e+00  0.000000e+00  1.000000e+00
   outer loop
     vertex -1.297125e-01  1.170281e-01  7.500000e-01
     vertex -2.091349e-01  8.761436e-02  7.500000e-01
     vertex -1.689672e-01  4.223449e-02  7.500000e-01
   endloop
 endfacet
 facet normal  0.000000e+00  0.000000e+00  1.000000e+00
   outer loop
     vertex -1.595054e-01  1.618902e-01  7.500000e-01
     vertex -2.091349e-01  8.761436e-02  7.500000e-01
     vertex -1.297125e-01  1.170281e-01  7.500000e-01
   endloop
 endfacet
 facet normal  0.000000e+00  0.000000e+00  1.000000e+00
   outer loop
     vertex  1.642751e-01 -1.618902e-01  7.500000e-01
     vertex  1.026371e-01 -1.452404e-01  7.500000e-01
     vertex  8.999923e-02 -2.115198e-01  7.500000e-01
   endloop
 endfacet
 facet normal  0.000000e+00  0.000000e+00  1.000000e+00
   outer loop
     vertex  1.586504e-01 -8.201447e-02  7.500000e-01
     vertex  1.026371e-01 -1.452404e-01  7.500000e-01
     vertex  1.642751e-01 -1.618902e-01  7.500000e-01
   endloop
 endfacet
 facet normal  0.000000e+00  0.000000e+00  1.000000e+00
   outer loop
     vertex -6.019590e-02  1.650119e-01  7.500000e-01
     vertex -1.595054e-01  1.618902e-01  7.500000e-01
     vertex -1.297125e-01  1.170281e-01  7.500000e-01
   endloop
 endfacet
 facet normal  0.000000e+00  0.000000e+00  1.000000e+00
   outer loop
     vertex -8.522950e-02  2.115198e-01  7.500000e-01
     vertex -1.595054e-01  1.618902e-01  7.500000e-01
     vertex -6.019590e-02  1.650119e-01  7.500000e-01
   endloop
 endfacet
 facet normal  0.000000e+00  0.000000e+00  1.000000e+00
   outer loop
     vertex  2.139047e-01 -8.761436e-02  7.500000e-01
     vertex  1.586504e-01 -8.201447e-02  7.500000e-01
     vertex  1.642751e-01 -1.618902e-01  7.500000e-01
   endloop
 endfacet
 facet normal  0.000000e+00  0.000000e+00  1.000000e+00
   outer loop
     vertex  1.788651e-01  0.000000e+00  7.500000e-01
     vertex  1.586504e-01 -8.201447e-02  7.500000e-01
     vertex  2.139047e-01 -8.761436e-02  7.500000e-01
   endloop
 endfacet
 facet normal  0.000000e+00  0.000000e+00  1.000000e+00
   outer loop
     vertex  2.313322e-01  0.000000e+00  7.500000e-01
     vertex  1.788651e-01  0.000000e+00  7.500000e-01
     vertex  2.139047e-01 -8.761436e-02  7.500000e-01
   endloop
 endfacet
 facet normal  0.000000e+00  0.000000e+00  1.000000e+00
   outer loop
     vertex  2.384868e-03  2.289474e-01  7.500000e-01
     vertex -6.019590e-02  1.650119e-01  7.500000e-01
     vertex  2.365721e-02  1.751935e-01  7.500000e-01
   endloop
 endfacet
 facet normal  0.000000e+00  0.000000e+00  1.000000e+00
   outer loop
     vertex  2.384868e-03  2.289474e-01  7.500000e-01
     vertex -8.522950e-02  2.115198e-01  7.500000e-01
     vertex -6.019590e-02  1.650119e-01  7.500000e-01
   endloop
 endfacet
 facet normal  0.000000e+00  0.000000e+00  1.000000e+00
   outer loop
     vertex  2.139047e-01  8.761436e-02  7.500000e-01
     vertex  1.586504e-01  8.201447e-02  7.500000e-01
     vertex  1.788651e-01  0.000000e+00  7.500000e-01
   endloop
 endfacet
 facet normal  0.000000e+00  0.000000e+00  1.000000e+00
   outer loop
     vertex  2.139047e-01  8.761436e-02  7.500000e-01
     vertex  1.788651e-01  0.000000e+00  7.500000e-01
     vertex  2.313322e-01  0.000000e+00  7.500000e-01
   endloop
 endfacet
 facet normal  0.000000e+00  0.000000e+00  1.000000e+00
   outer loop
     vertex  8.999923e-02  2.115198e-01  7.500000e-01
     vertex  2.365721e-02  1.751935e-01  7.500000e-01
     vertex  1.026371e-01  1.452404e-01  7.500000e-01
   endloop
 endfacet
 facet normal  0.000000e+00  0.000000e+00  1.000000e+00
   outer loop
     vertex  8.999923e-02  2.115198e-01  7.500000e-01
     vertex  2.384868e-03  2.289474e-01  7.500000e-01
     vertex  2.365721e-02  1.751935e-01  7.500000e-01
   endloop
 endfacet
 facet normal  0.000000e+00  0.000000e+00  1.000000e+00
   outer loop
     vertex  1.642751e-01  1.618902e-01  7.500000e-01
     vertex  1.026371e-01  1.452404e-01  7.500000e-01
     vertex  1.586504e-01  8.201447e-02  7.500000e-01
   endloop
 endfacet
 facet normal  0.000000e+00  0.000000e+00  1.000000e+00
   outer loop
     vertex  1.642751e-01  1.618902e-01  7.500000e-01
     vertex  1.586504e-01  8.201447e-02  7.500000e-01
     vertex  2.139047e-01  8.761436e-02  7.500000e-01
   endloop
 endfacet
 facet normal  0.000000e+00  0.000000e+00  1.000000e+00
   outer loop
     vertex  1.642751e-01  1.618902e-01  7.500000e-01
     vertex  8.999923e-02  2.115198e-01  7.500000e-01
     vertex  1.026371e-01  1.452404e-01  7.500000e-01
   endloop
 endfacet
endsolid
