solid 
 facet normal  0.000000e+00  0.000000e+00 -1.000000e+00
   outer loop
     vertex  3.828125e-01  4.592425e-17 -1.562500e-02
     vertex -3.671875e-01 -7.500000e-01 -1.562500e-02
     vertex -3.671875e-01  0.000000e+00 -1.562500e-02
   endloop
 endfacet
 facet normal  0.000000e+00 -0.000000e+00 -1.000000e+00
   outer loop
     vertex  3.828125e-01  4.592425e-17 -1.562500e-02
     vertex  3.828125e-01 -7.500000e-01 -1.562500e-02
     vertex -3.671875e-01 -7.500000e-01 -1.562500e-02
   endloop
 endfacet
 facet normal  1.000000e+00  0.000000e+00  0.000000e+00
   outer loop
     vertex  3.828125e-01  4.834132e-17  2.384868e-02
     vertex  3.828125e-01 -7.500000e-01 -1.562500e-02
     vertex  3.828125e-01  4.592425e-17 -1.562500e-02
   endloop
 endfacet
 facet normal  1.000000e+00  0.000000e+00  0.000000e+00
   outer loop
     vertex  3.828125e-01  4.834132e-17  2.384868e-02
     vertex  3.828125e-01 -7.500000e-01  2.384868e-02
     vertex  3.828125e-01 -7.500000e-01 -1.562500e-02
   endloop
 endfacet
 facet normal -0.000000e+00  0.000000e+00  1.000000e+00
   outer loop
     vertex -3.671875e-01  2.417066e-18  2.384868e-02
     vertex  3.828125e-01 -7.500000e-01  2.384868e-02
     vertex  3.828125e-01  4.834132e-17  2.384868e-02
   endloop
 endfacet
 facet normal  0.000000e+00  0.000000e+00  1.000000e+00
   outer loop
     vertex -3.671875e-01  2.417066e-18  2.384868e-02
     vertex -3.671875e-01 -7.500000e-01  2.384868e-02
     vertex  3.828125e-01 -7.500000e-01  2.384868e-02
   endloop
 endfacet
 facet normal -1.000000e+00  0.000000e+00  0.000000e+00
   outer loop
     vertex -3.671875e-01  0.000000e+00 -1.562500e-02
     vertex -3.671875e-01 -7.500000e-01  2.384868e-02
     vertex -3.671875e-01  2.417066e-18  2.384868e-02
   endloop
 endfacet
 facet normal -1.000000e+00  0.000000e+00  0.000000e+00
   outer loop
     vertex -3.671875e-01  0.000000e+00 -1.562500e-02
     vertex -3.671875e-01 -7.500000e-01 -1.562500e-02
     vertex -3.671875e-01 -7.500000e-01  2.384868e-02
   endloop
 endfacet
 facet normal -6.123234e-17  1.000000e+00 -6.123234e-17
   outer loop
     vertex  3.828125e-01  4.834132e-17  2.384868e-02
     vertex  3.828125e-01  4.592425e-17 -1.562500e-02
     vertex -3.671875e-01  0.000000e+00 -1.562500e-02
   endloop
 endfacet
 facet normal -6.123234e-17  1.000000e+00 -6.123234e-17
   outer loop
     vertex  3.828125e-01  4.834132e-17  2.384868e-02
     vertex -3.671875e-01  0.000000e+00 -1.562500e-02
     vertex -3.671875e-01  2.417066e-18  2.384868e-02
   endloop
 endfacet
 facet normal  0.000000e+00 -1.000000e+00 -0.000000e+00
   outer loop
     vertex  3.828125e-01 -7.500000e-01  2.384868e-02
     vertex -3.671875e-01 -7.500000e-01 -1.562500e-02
     vertex  3.828125e-01 -7.500000e-01 -1.562500e-02
   endloop
 endfacet
 facet normal -0.000000e+00 -1.000000e+00  0.000000e+00
   outer loop
     vertex  3.828125e-01 -7.500000e-01  2.384868e-02
     vertex -3.671875e-01 -7.500000e-01  2.384868e-02
     vertex -3.671875e-01 -7.500000e-01 -1.562500e-02
   endloop
 endfacet
endsolid
