solid 
 facet normal  9.927089e-01 -1.205367e-01  0.000000e+00
   outer loop
     vertex  7.437664e-01 -1.813761e-01  0.000000e+00
     vertex  7.657895e-01  0.000000e+00  0.000000e+00
     vertex  7.657895e-01  0.000000e+00  1.250000e-01
   endloop
 endfacet
 facet normal  9.927089e-01 -1.205367e-01  0.000000e+00
   outer loop
     vertex  7.437664e-01 -1.813761e-01  0.000000e+00
     vertex  7.657895e-01  0.000000e+00  1.250000e-01
     vertex  7.437664e-01 -1.813761e-01  1.250000e-01
   endloop
 endfacet
 facet normal  9.350162e-01 -3.546049e-01  0.000000e+00
   outer loop
     vertex  6.789772e-01 -3.522112e-01  0.000000e+00
     vertex  7.437664e-01 -1.813761e-01  1.250000e-01
     vertex  6.789772e-01 -3.522112e-01  1.250000e-01
   endloop
 endfacet
 facet normal  9.350162e-01 -3.546049e-01  0.000000e+00
   outer loop
     vertex  6.789772e-01 -3.522112e-01  0.000000e+00
     vertex  7.437664e-01 -1.813761e-01  0.000000e+00
     vertex  7.437664e-01 -1.813761e-01  1.250000e-01
   endloop
 endfacet
 facet normal  8.229839e-01 -5.680647e-01  0.000000e+00
   outer loop
     vertex  5.751871e-01 -5.025772e-01  0.000000e+00
     vertex  6.789772e-01 -3.522112e-01  1.250000e-01
     vertex  5.751871e-01 -5.025772e-01  1.250000e-01
   endloop
 endfacet
 facet normal  8.229839e-01 -5.680647e-01  0.000000e+00
   outer loop
     vertex  5.751871e-01 -5.025772e-01  0.000000e+00
     vertex  6.789772e-01 -3.522112e-01  0.000000e+00
     vertex  6.789772e-01 -3.522112e-01  1.250000e-01
   endloop
 endfacet
 facet normal  6.631227e-01 -7.485107e-01  0.000000e+00
   outer loop
     vertex  4.384280e-01 -6.237351e-01  0.000000e+00
     vertex  5.751871e-01 -5.025772e-01  1.250000e-01
     vertex  4.384280e-01 -6.237351e-01  1.250000e-01
   endloop
 endfacet
 facet normal  6.631227e-01 -7.485107e-01  0.000000e+00
   outer loop
     vertex  4.384280e-01 -6.237351e-01  0.000000e+00
     vertex  5.751871e-01 -5.025772e-01  0.000000e+00
     vertex  5.751871e-01 -5.025772e-01  1.250000e-01
   endloop
 endfacet
 facet normal  4.647232e-01 -8.854560e-01  0.000000e+00
   outer loop
     vertex  2.766479e-01 -7.086439e-01  0.000000e+00
     vertex  4.384280e-01 -6.237351e-01  1.250000e-01
     vertex  2.766479e-01 -7.086439e-01  1.250000e-01
   endloop
 endfacet
 facet normal  4.647232e-01 -8.854560e-01  0.000000e+00
   outer loop
     vertex  2.766479e-01 -7.086439e-01  0.000000e+00
     vertex  4.384280e-01 -6.237351e-01  0.000000e+00
     vertex  4.384280e-01 -6.237351e-01  1.250000e-01
   endloop
 endfacet
 facet normal  2.393157e-01 -9.709418e-01  0.000000e+00
   outer loop
     vertex  9.924885e-02 -7.523688e-01  0.000000e+00
     vertex  2.766479e-01 -7.086439e-01  1.250000e-01
     vertex  9.924885e-02 -7.523688e-01  1.250000e-01
   endloop
 endfacet
 facet normal  2.393157e-01 -9.709418e-01  0.000000e+00
   outer loop
     vertex  9.924885e-02 -7.523688e-01  0.000000e+00
     vertex  2.766479e-01 -7.086439e-01  0.000000e+00
     vertex  2.766479e-01 -7.086439e-01  1.250000e-01
   endloop
 endfacet
 facet normal -1.822944e-15 -1.000000e+00  0.000000e+00
   outer loop
     vertex -8.345938e-02 -7.523688e-01  0.000000e+00
     vertex  9.924885e-02 -7.523688e-01  1.250000e-01
     vertex -8.345938e-02 -7.523688e-01  1.250000e-01
   endloop
 endfacet
 facet normal -1.822944e-15 -1.000000e+00  0.000000e+00
   outer loop
     vertex -8.345938e-02 -7.523688e-01  0.000000e+00
     vertex  9.924885e-02 -7.523688e-01  0.000000e+00
     vertex  9.924885e-02 -7.523688e-01  1.250000e-01
   endloop
 endfacet
 facet normal -2.393157e-01 -9.709418e-01  0.000000e+00
   outer loop
     vertex -2.608584e-01 -7.086439e-01  0.000000e+00
     vertex -8.345938e-02 -7.523688e-01  1.250000e-01
     vertex -2.608584e-01 -7.086439e-01  1.250000e-01
   endloop
 endfacet
 facet normal -2.393157e-01 -9.709418e-01  0.000000e+00
   outer loop
     vertex -2.608584e-01 -7.086439e-01  0.000000e+00
     vertex -8.345938e-02 -7.523688e-01  0.000000e+00
     vertex -8.345938e-02 -7.523688e-01  1.250000e-01
   endloop
 endfacet
 facet normal -4.647232e-01 -8.854560e-01  0.000000e+00
   outer loop
     vertex -4.226385e-01 -6.237351e-01  0.000000e+00
     vertex -2.608584e-01 -7.086439e-01  1.250000e-01
     vertex -4.226385e-01 -6.237351e-01  1.250000e-01
   endloop
 endfacet
 facet normal -4.647232e-01 -8.854560e-01  0.000000e+00
   outer loop
     vertex -4.226385e-01 -6.237351e-01  0.000000e+00
     vertex -2.608584e-01 -7.086439e-01  0.000000e+00
     vertex -2.608584e-01 -7.086439e-01  1.250000e-01
   endloop
 endfacet
 facet normal -6.631227e-01 -7.485107e-01  0.000000e+00
   outer loop
     vertex -5.593976e-01 -5.025772e-01  0.000000e+00
     vertex -4.226385e-01 -6.237351e-01  1.250000e-01
     vertex -5.593976e-01 -5.025772e-01  1.250000e-01
   endloop
 endfacet
 facet normal -6.631227e-01 -7.485107e-01  0.000000e+00
   outer loop
     vertex -5.593976e-01 -5.025772e-01  0.000000e+00
     vertex -4.226385e-01 -6.237351e-01  0.000000e+00
     vertex -4.226385e-01 -6.237351e-01  1.250000e-01
   endloop
 endfacet
 facet normal -8.229839e-01 -5.680647e-01  0.000000e+00
   outer loop
     vertex -6.631877e-01 -3.522112e-01  0.000000e+00
     vertex -5.593976e-01 -5.025772e-01  0.000000e+00
     vertex -5.593976e-01 -5.025772e-01  1.250000e-01
   endloop
 endfacet
 facet normal -8.229839e-01 -5.680647e-01  0.000000e+00
   outer loop
     vertex -6.631877e-01 -3.522112e-01  0.000000e+00
     vertex -5.593976e-01 -5.025772e-01  1.250000e-01
     vertex -6.631877e-01 -3.522112e-01  1.250000e-01
   endloop
 endfacet
 facet normal -9.350162e-01 -3.546049e-01  0.000000e+00
   outer loop
     vertex -7.279770e-01 -1.813761e-01  0.000000e+00
     vertex -6.631877e-01 -3.522112e-01  0.000000e+00
     vertex -6.631877e-01 -3.522112e-01  1.250000e-01
   endloop
 endfacet
 facet normal -9.350162e-01 -3.546049e-01  0.000000e+00
   outer loop
     vertex -7.279770e-01 -1.813761e-01  0.000000e+00
     vertex -6.631877e-01 -3.522112e-01  1.250000e-01
     vertex -7.279770e-01 -1.813761e-01  1.250000e-01
   endloop
 endfacet
 facet normal -9.927089e-01 -1.205367e-01  0.000000e+00
   outer loop
     vertex -7.500000e-01  7.659611e-16  0.000000e+00
     vertex -7.279770e-01 -1.813761e-01  0.000000e+00
     vertex -7.279770e-01 -1.813761e-01  1.250000e-01
   endloop
 endfacet
 facet normal -9.927089e-01 -1.205367e-01  0.000000e+00
   outer loop
     vertex -7.500000e-01  7.659611e-16  0.000000e+00
     vertex -7.279770e-01 -1.813761e-01  1.250000e-01
     vertex -7.500000e-01  7.659611e-16  1.250000e-01
   endloop
 endfacet
 facet normal -9.927089e-01  1.205367e-01  0.000000e+00
   outer loop
     vertex -7.279770e-01  1.813761e-01  0.000000e+00
     vertex -7.500000e-01  7.659611e-16  0.000000e+00
     vertex -7.500000e-01  7.659611e-16  1.250000e-01
   endloop
 endfacet
 facet normal -9.927089e-01  1.205367e-01  0.000000e+00
   outer loop
     vertex -7.279770e-01  1.813761e-01  0.000000e+00
     vertex -7.500000e-01  7.659611e-16  1.250000e-01
     vertex -7.279770e-01  1.813761e-01  1.250000e-01
   endloop
 endfacet
 facet normal -9.350162e-01  3.546049e-01  0.000000e+00
   outer loop
     vertex -6.631877e-01  3.522112e-01  0.000000e+00
     vertex -7.279770e-01  1.813761e-01  0.000000e+00
     vertex -7.279770e-01  1.813761e-01  1.250000e-01
   endloop
 endfacet
 facet normal -9.350162e-01  3.546049e-01  0.000000e+00
   outer loop
     vertex -6.631877e-01  3.522112e-01  0.000000e+00
     vertex -7.279770e-01  1.813761e-01  1.250000e-01
     vertex -6.631877e-01  3.522112e-01  1.250000e-01
   endloop
 endfacet
 facet normal -8.229839e-01  5.680647e-01  0.000000e+00
   outer loop
     vertex -5.593976e-01  5.025772e-01  0.000000e+00
     vertex -6.631877e-01  3.522112e-01  0.000000e+00
     vertex -6.631877e-01  3.522112e-01  1.250000e-01
   endloop
 endfacet
 facet normal -8.229839e-01  5.680647e-01  0.000000e+00
   outer loop
     vertex -5.593976e-01  5.025772e-01  0.000000e+00
     vertex -6.631877e-01  3.522112e-01  1.250000e-01
     vertex -5.593976e-01  5.025772e-01  1.250000e-01
   endloop
 endfacet
 facet normal -6.631227e-01  7.485107e-01  0.000000e+00
   outer loop
     vertex -4.226385e-01  6.237351e-01  0.000000e+00
     vertex -5.593976e-01  5.025772e-01  0.000000e+00
     vertex -5.593976e-01  5.025772e-01  1.250000e-01
   endloop
 endfacet
 facet normal -6.631227e-01  7.485107e-01  0.000000e+00
   outer loop
     vertex -4.226385e-01  6.237351e-01  0.000000e+00
     vertex -5.593976e-01  5.025772e-01  1.250000e-01
     vertex -4.226385e-01  6.237351e-01  1.250000e-01
   endloop
 endfacet
 facet normal -4.647232e-01  8.854560e-01  0.000000e+00
   outer loop
     vertex -2.608584e-01  7.086439e-01  0.000000e+00
     vertex -4.226385e-01  6.237351e-01  0.000000e+00
     vertex -4.226385e-01  6.237351e-01  1.250000e-01
   endloop
 endfacet
 facet normal -4.647232e-01  8.854560e-01  0.000000e+00
   outer loop
     vertex -2.608584e-01  7.086439e-01  0.000000e+00
     vertex -4.226385e-01  6.237351e-01  1.250000e-01
     vertex -2.608584e-01  7.086439e-01  1.250000e-01
   endloop
 endfacet
 facet normal -2.393157e-01  9.709418e-01  0.000000e+00
   outer loop
     vertex -8.345938e-02  7.523688e-01  0.000000e+00
     vertex -2.608584e-01  7.086439e-01  1.250000e-01
     vertex -8.345938e-02  7.523688e-01  1.250000e-01
   endloop
 endfacet
 facet normal -2.393157e-01  9.709418e-01  0.000000e+00
   outer loop
     vertex -8.345938e-02  7.523688e-01  0.000000e+00
     vertex -2.608584e-01  7.086439e-01  0.000000e+00
     vertex -2.608584e-01  7.086439e-01  1.250000e-01
   endloop
 endfacet
 facet normal  0.000000e+00  1.000000e+00 -0.000000e+00
   outer loop
     vertex  9.924885e-02  7.523688e-01  0.000000e+00
     vertex -8.345938e-02  7.523688e-01  1.250000e-01
     vertex  9.924885e-02  7.523688e-01  1.250000e-01
   endloop
 endfacet
 facet normal  0.000000e+00  1.000000e+00  0.000000e+00
   outer loop
     vertex  9.924885e-02  7.523688e-01  0.000000e+00
     vertex -8.345938e-02  7.523688e-01  0.000000e+00
     vertex -8.345938e-02  7.523688e-01  1.250000e-01
   endloop
 endfacet
 facet normal  2.393157e-01  9.709418e-01 -0.000000e+00
   outer loop
     vertex  2.766479e-01  7.086439e-01  0.000000e+00
     vertex  9.924885e-02  7.523688e-01  1.250000e-01
     vertex  2.766479e-01  7.086439e-01  1.250000e-01
   endloop
 endfacet
 facet normal  2.393157e-01  9.709418e-01  0.000000e+00
   outer loop
     vertex  2.766479e-01  7.086439e-01  0.000000e+00
     vertex  9.924885e-02  7.523688e-01  0.000000e+00
     vertex  9.924885e-02  7.523688e-01  1.250000e-01
   endloop
 endfacet
 facet normal  4.647232e-01  8.854560e-01 -0.000000e+00
   outer loop
     vertex  4.384280e-01  6.237351e-01  0.000000e+00
     vertex  2.766479e-01  7.086439e-01  1.250000e-01
     vertex  4.384280e-01  6.237351e-01  1.250000e-01
   endloop
 endfacet
 facet normal  4.647232e-01  8.854560e-01  0.000000e+00
   outer loop
     vertex  4.384280e-01  6.237351e-01  0.000000e+00
     vertex  2.766479e-01  7.086439e-01  0.000000e+00
     vertex  2.766479e-01  7.086439e-01  1.250000e-01
   endloop
 endfacet
 facet normal  6.631227e-01  7.485107e-01 -0.000000e+00
   outer loop
     vertex  5.751871e-01  5.025772e-01  0.000000e+00
     vertex  4.384280e-01  6.237351e-01  1.250000e-01
     vertex  5.751871e-01  5.025772e-01  1.250000e-01
   endloop
 endfacet
 facet normal  6.631227e-01  7.485107e-01  0.000000e+00
   outer loop
     vertex  5.751871e-01  5.025772e-01  0.000000e+00
     vertex  4.384280e-01  6.237351e-01  0.000000e+00
     vertex  4.384280e-01  6.237351e-01  1.250000e-01
   endloop
 endfacet
 facet normal  9.350162e-01  3.546049e-01 -0.000000e+00
   outer loop
     vertex  6.789772e-01  3.522112e-01  0.000000e+00
     vertex  6.789772e-01  3.522112e-01  1.250000e-01
     vertex  7.437664e-01  1.813761e-01  1.250000e-01
   endloop
 endfacet
 facet normal  8.229839e-01  5.680647e-01 -0.000000e+00
   outer loop
     vertex  6.789772e-01  3.522112e-01  0.000000e+00
     vertex  5.751871e-01  5.025772e-01  1.250000e-01
     vertex  6.789772e-01  3.522112e-01  1.250000e-01
   endloop
 endfacet
 facet normal  8.229839e-01  5.680647e-01  0.000000e+00
   outer loop
     vertex  6.789772e-01  3.522112e-01  0.000000e+00
     vertex  5.751871e-01  5.025772e-01  0.000000e+00
     vertex  5.751871e-01  5.025772e-01  1.250000e-01
   endloop
 endfacet
 facet normal  9.350162e-01  3.546049e-01 -0.000000e+00
   outer loop
     vertex  7.437664e-01  1.813761e-01  0.000000e+00
     vertex  6.789772e-01  3.522112e-01  0.000000e+00
     vertex  7.437664e-01  1.813761e-01  1.250000e-01
   endloop
 endfacet
 facet normal  9.927089e-01  1.205367e-01 -0.000000e+00
   outer loop
     vertex  7.657895e-01  0.000000e+00  0.000000e+00
     vertex  7.437664e-01  1.813761e-01  1.250000e-01
     vertex  7.657895e-01  0.000000e+00  1.250000e-01
   endloop
 endfacet
 facet normal  9.927089e-01  1.205367e-01  0.000000e+00
   outer loop
     vertex  7.657895e-01  0.000000e+00  0.000000e+00
     vertex  7.437664e-01  1.813761e-01  0.000000e+00
     vertex  7.437664e-01  1.813761e-01  1.250000e-01
   endloop
 endfacet
 facet normal -7.071068e-01  7.071068e-01  0.000000e+00
   outer loop
     vertex -6.868421e-01 -4.736842e-02  0.000000e+00
     vertex -6.394737e-01  0.000000e+00  1.250000e-01
     vertex -6.394737e-01  0.000000e+00  0.000000e+00
   endloop
 endfacet
 facet normal -7.071068e-01  7.071068e-01  0.000000e+00
   outer loop
     vertex -6.868421e-01 -4.736842e-02  0.000000e+00
     vertex -6.868421e-01 -4.736842e-02  1.250000e-01
     vertex -6.394737e-01  0.000000e+00  1.250000e-01
   endloop
 endfacet
 facet normal  7.071068e-01  7.071068e-01 -0.000000e+00
   outer loop
     vertex -7.342105e-01  5.800959e-18  0.000000e+00
     vertex -7.342105e-01  5.800959e-18  1.250000e-01
     vertex -6.868421e-01 -4.736842e-02  1.250000e-01
   endloop
 endfacet
 facet normal  7.071068e-01  7.071068e-01  0.000000e+00
   outer loop
     vertex -7.342105e-01  5.800959e-18  0.000000e+00
     vertex -6.868421e-01 -4.736842e-02  1.250000e-01
     vertex -6.868421e-01 -4.736842e-02  0.000000e+00
   endloop
 endfacet
 facet normal  7.071068e-01 -7.071068e-01  0.000000e+00
   outer loop
     vertex -6.868421e-01  4.736842e-02  0.000000e+00
     vertex -6.868421e-01  4.736842e-02  1.250000e-01
     vertex -7.342105e-01  5.800959e-18  1.250000e-01
   endloop
 endfacet
 facet normal  7.071068e-01 -7.071068e-01  0.000000e+00
   outer loop
     vertex -6.868421e-01  4.736842e-02  0.000000e+00
     vertex -7.342105e-01  5.800959e-18  1.250000e-01
     vertex -7.342105e-01  5.800959e-18  0.000000e+00
   endloop
 endfacet
 facet normal -7.071068e-01 -7.071068e-01  0.000000e+00
   outer loop
     vertex -6.394737e-01  0.000000e+00  0.000000e+00
     vertex -6.394737e-01  0.000000e+00  1.250000e-01
     vertex -6.868421e-01  4.736842e-02  1.250000e-01
   endloop
 endfacet
 facet normal -7.071068e-01 -7.071068e-01  0.000000e+00
   outer loop
     vertex -6.394737e-01  0.000000e+00  0.000000e+00
     vertex -6.868421e-01  4.736842e-02  1.250000e-01
     vertex -6.868421e-01  4.736842e-02  0.000000e+00
   endloop
 endfacet
 facet normal -8.090170e-01  5.877853e-01  0.000000e+00
   outer loop
     vertex  2.741160e-02 -6.006673e-02  0.000000e+00
     vertex  7.105263e-02  0.000000e+00  1.250000e-01
     vertex  7.105263e-02  0.000000e+00  0.000000e+00
   endloop
 endfacet
 facet normal -8.090170e-01  5.877853e-01  0.000000e+00
   outer loop
     vertex  2.741160e-02 -6.006673e-02  0.000000e+00
     vertex  2.741160e-02 -6.006673e-02  1.250000e-01
     vertex  7.105263e-02  0.000000e+00  1.250000e-01
   endloop
 endfacet
 facet normal  3.090170e-01  9.510565e-01 -0.000000e+00
   outer loop
     vertex -4.320107e-02 -3.712328e-02  0.000000e+00
     vertex -4.320107e-02 -3.712328e-02  1.250000e-01
     vertex  2.741160e-02 -6.006673e-02  1.250000e-01
   endloop
 endfacet
 facet normal  3.090170e-01  9.510565e-01  0.000000e+00
   outer loop
     vertex -4.320107e-02 -3.712328e-02  0.000000e+00
     vertex  2.741160e-02 -6.006673e-02  1.250000e-01
     vertex  2.741160e-02 -6.006673e-02  0.000000e+00
   endloop
 endfacet
 facet normal  1.000000e+00 -1.869149e-16  0.000000e+00
   outer loop
     vertex -4.320107e-02  3.712328e-02  0.000000e+00
     vertex -4.320107e-02  3.712328e-02  1.250000e-01
     vertex -4.320107e-02 -3.712328e-02  1.250000e-01
   endloop
 endfacet
 facet normal  1.000000e+00 -1.869149e-16  0.000000e+00
   outer loop
     vertex -4.320107e-02  3.712328e-02  0.000000e+00
     vertex -4.320107e-02 -3.712328e-02  1.250000e-01
     vertex -4.320107e-02 -3.712328e-02  0.000000e+00
   endloop
 endfacet
 facet normal  3.090170e-01 -9.510565e-01  0.000000e+00
   outer loop
     vertex  2.741160e-02  6.006673e-02  0.000000e+00
     vertex  2.741160e-02  6.006673e-02  1.250000e-01
     vertex -4.320107e-02  3.712328e-02  1.250000e-01
   endloop
 endfacet
 facet normal  3.090170e-01 -9.510565e-01  0.000000e+00
   outer loop
     vertex  2.741160e-02  6.006673e-02  0.000000e+00
     vertex -4.320107e-02  3.712328e-02  1.250000e-01
     vertex -4.320107e-02  3.712328e-02  0.000000e+00
   endloop
 endfacet
 facet normal -8.090170e-01 -5.877853e-01  0.000000e+00
   outer loop
     vertex  7.105263e-02  0.000000e+00  0.000000e+00
     vertex  7.105263e-02  0.000000e+00  1.250000e-01
     vertex  2.741160e-02  6.006673e-02  1.250000e-01
   endloop
 endfacet
 facet normal -8.090170e-01 -5.877853e-01  0.000000e+00
   outer loop
     vertex  7.105263e-02  0.000000e+00  0.000000e+00
     vertex  2.741160e-02  6.006673e-02  1.250000e-01
     vertex  2.741160e-02  6.006673e-02  0.000000e+00
   endloop
 endfacet
 facet normal -7.071068e-01  7.071068e-01  0.000000e+00
   outer loop
     vertex  7.894737e-03 -7.263158e-01  0.000000e+00
     vertex  5.526316e-02 -6.789474e-01  1.250000e-01
     vertex  5.526316e-02 -6.789474e-01  0.000000e+00
   endloop
 endfacet
 facet normal -7.071068e-01  7.071068e-01  0.000000e+00
   outer loop
     vertex  7.894737e-03 -7.263158e-01  0.000000e+00
     vertex  7.894737e-03 -7.263158e-01  1.250000e-01
     vertex  5.526316e-02 -6.789474e-01  1.250000e-01
   endloop
 endfacet
 facet normal  7.071068e-01  7.071068e-01 -0.000000e+00
   outer loop
     vertex -3.947368e-02 -6.789474e-01  0.000000e+00
     vertex -3.947368e-02 -6.789474e-01  1.250000e-01
     vertex  7.894737e-03 -7.263158e-01  1.250000e-01
   endloop
 endfacet
 facet normal  7.071068e-01  7.071068e-01  0.000000e+00
   outer loop
     vertex -3.947368e-02 -6.789474e-01  0.000000e+00
     vertex  7.894737e-03 -7.263158e-01  1.250000e-01
     vertex  7.894737e-03 -7.263158e-01  0.000000e+00
   endloop
 endfacet
 facet normal  7.071068e-01 -7.071068e-01  0.000000e+00
   outer loop
     vertex  7.894737e-03 -6.315789e-01  0.000000e+00
     vertex  7.894737e-03 -6.315789e-01  1.250000e-01
     vertex -3.947368e-02 -6.789474e-01  1.250000e-01
   endloop
 endfacet
 facet normal  7.071068e-01 -7.071068e-01  0.000000e+00
   outer loop
     vertex  7.894737e-03 -6.315789e-01  0.000000e+00
     vertex -3.947368e-02 -6.789474e-01  1.250000e-01
     vertex -3.947368e-02 -6.789474e-01  0.000000e+00
   endloop
 endfacet
 facet normal -7.071068e-01 -7.071068e-01  0.000000e+00
   outer loop
     vertex  5.526316e-02 -6.789474e-01  0.000000e+00
     vertex  5.526316e-02 -6.789474e-01  1.250000e-01
     vertex  7.894737e-03 -6.315789e-01  1.250000e-01
   endloop
 endfacet
 facet normal -7.071068e-01 -7.071068e-01  0.000000e+00
   outer loop
     vertex  5.526316e-02 -6.789474e-01  0.000000e+00
     vertex  7.894737e-03 -6.315789e-01  1.250000e-01
     vertex  7.894737e-03 -6.315789e-01  0.000000e+00
   endloop
 endfacet
 facet normal -7.071068e-01  7.071068e-01  0.000000e+00
   outer loop
     vertex  7.894737e-03  6.315789e-01  0.000000e+00
     vertex  5.526316e-02  6.789474e-01  1.250000e-01
     vertex  5.526316e-02  6.789474e-01  0.000000e+00
   endloop
 endfacet
 facet normal -7.071068e-01  7.071068e-01  0.000000e+00
   outer loop
     vertex  7.894737e-03  6.315789e-01  0.000000e+00
     vertex  7.894737e-03  6.315789e-01  1.250000e-01
     vertex  5.526316e-02  6.789474e-01  1.250000e-01
   endloop
 endfacet
 facet normal  7.071068e-01  7.071068e-01 -0.000000e+00
   outer loop
     vertex -3.947368e-02  6.789474e-01  0.000000e+00
     vertex -3.947368e-02  6.789474e-01  1.250000e-01
     vertex  7.894737e-03  6.315789e-01  1.250000e-01
   endloop
 endfacet
 facet normal  7.071068e-01  7.071068e-01  0.000000e+00
   outer loop
     vertex -3.947368e-02  6.789474e-01  0.000000e+00
     vertex  7.894737e-03  6.315789e-01  1.250000e-01
     vertex  7.894737e-03  6.315789e-01  0.000000e+00
   endloop
 endfacet
 facet normal  7.071068e-01 -7.071068e-01  0.000000e+00
   outer loop
     vertex  7.894737e-03  7.263158e-01  0.000000e+00
     vertex  7.894737e-03  7.263158e-01  1.250000e-01
     vertex -3.947368e-02  6.789474e-01  1.250000e-01
   endloop
 endfacet
 facet normal  7.071068e-01 -7.071068e-01  0.000000e+00
   outer loop
     vertex  7.894737e-03  7.263158e-01  0.000000e+00
     vertex -3.947368e-02  6.789474e-01  1.250000e-01
     vertex -3.947368e-02  6.789474e-01  0.000000e+00
   endloop
 endfacet
 facet normal -7.071068e-01 -7.071068e-01  0.000000e+00
   outer loop
     vertex  5.526316e-02  6.789474e-01  0.000000e+00
     vertex  5.526316e-02  6.789474e-01  1.250000e-01
     vertex  7.894737e-03  7.263158e-01  1.250000e-01
   endloop
 endfacet
 facet normal -7.071068e-01 -7.071068e-01  0.000000e+00
   outer loop
     vertex  5.526316e-02  6.789474e-01  0.000000e+00
     vertex  7.894737e-03  7.263158e-01  1.250000e-01
     vertex  7.894737e-03  7.263158e-01  0.000000e+00
   endloop
 endfacet
 facet normal -7.071068e-01  7.071068e-01  0.000000e+00
   outer loop
     vertex  6.868421e-01 -4.736842e-02  0.000000e+00
     vertex  7.342105e-01  0.000000e+00  1.250000e-01
     vertex  7.342105e-01  0.000000e+00  0.000000e+00
   endloop
 endfacet
 facet normal -7.071068e-01  7.071068e-01  0.000000e+00
   outer loop
     vertex  6.868421e-01 -4.736842e-02  0.000000e+00
     vertex  6.868421e-01 -4.736842e-02  1.250000e-01
     vertex  7.342105e-01  0.000000e+00  1.250000e-01
   endloop
 endfacet
 facet normal  7.071068e-01  7.071068e-01 -0.000000e+00
   outer loop
     vertex  6.394737e-01  5.800959e-18  0.000000e+00
     vertex  6.394737e-01  5.800959e-18  1.250000e-01
     vertex  6.868421e-01 -4.736842e-02  1.250000e-01
   endloop
 endfacet
 facet normal  7.071068e-01  7.071068e-01  0.000000e+00
   outer loop
     vertex  6.394737e-01  5.800959e-18  0.000000e+00
     vertex  6.868421e-01 -4.736842e-02  1.250000e-01
     vertex  6.868421e-01 -4.736842e-02  0.000000e+00
   endloop
 endfacet
 facet normal  7.071068e-01 -7.071068e-01  0.000000e+00
   outer loop
     vertex  6.868421e-01  4.736842e-02  0.000000e+00
     vertex  6.868421e-01  4.736842e-02  1.250000e-01
     vertex  6.394737e-01  5.800959e-18  1.250000e-01
   endloop
 endfacet
 facet normal  7.071068e-01 -7.071068e-01  0.000000e+00
   outer loop
     vertex  6.868421e-01  4.736842e-02  0.000000e+00
     vertex  6.394737e-01  5.800959e-18  1.250000e-01
     vertex  6.394737e-01  5.800959e-18  0.000000e+00
   endloop
 endfacet
 facet normal -7.071068e-01 -7.071068e-01  0.000000e+00
   outer loop
     vertex  7.342105e-01  0.000000e+00  0.000000e+00
     vertex  7.342105e-01  0.000000e+00  1.250000e-01
     vertex  6.868421e-01  4.736842e-02  1.250000e-01
   endloop
 endfacet
 facet normal -7.071068e-01 -7.071068e-01  0.000000e+00
   outer loop
     vertex  7.342105e-01  0.000000e+00  0.000000e+00
     vertex  6.868421e-01  4.736842e-02  1.250000e-01
     vertex  6.868421e-01  4.736842e-02  0.000000e+00
   endloop
 endfacet
 facet normal -0.000000e+00  0.000000e+00 -1.000000e+00
   outer loop
     vertex -6.868421e-01 -4.736842e-02  0.000000e+00
     vertex -7.279770e-01 -1.813761e-01  0.000000e+00
     vertex -7.500000e-01  7.659611e-16  0.000000e+00
   endloop
 endfacet
 facet normal  0.000000e+00  0.000000e+00 -1.000000e+00
   outer loop
     vertex -6.868421e-01 -4.736842e-02  0.000000e+00
     vertex -7.500000e-01  7.659611e-16  0.000000e+00
     vertex -7.342105e-01  5.800959e-18  0.000000e+00
   endloop
 endfacet
 facet normal  0.000000e+00  0.000000e+00 -1.000000e+00
   outer loop
     vertex -3.947368e-02 -6.789474e-01  0.000000e+00
     vertex -8.345938e-02 -7.523688e-01  0.000000e+00
     vertex -2.608584e-01 -7.086439e-01  0.000000e+00
   endloop
 endfacet
 facet normal  0.000000e+00 -0.000000e+00 -1.000000e+00
   outer loop
     vertex -3.947368e-02 -6.789474e-01  0.000000e+00
     vertex  7.894737e-03 -7.263158e-01  0.000000e+00
     vertex -8.345938e-02 -7.523688e-01  0.000000e+00
   endloop
 endfacet
 facet normal  0.000000e+00  0.000000e+00 -1.000000e+00
   outer loop
     vertex  9.924885e-02 -7.523688e-01  0.000000e+00
     vertex -8.345938e-02 -7.523688e-01  0.000000e+00
     vertex  7.894737e-03 -7.263158e-01  0.000000e+00
   endloop
 endfacet
 facet normal  0.000000e+00  0.000000e+00 -1.000000e+00
   outer loop
     vertex -6.868421e-01  4.736842e-02  0.000000e+00
     vertex -7.342105e-01  5.800959e-18  0.000000e+00
     vertex -7.500000e-01  7.659611e-16  0.000000e+00
   endloop
 endfacet
 facet normal  0.000000e+00  0.000000e+00 -1.000000e+00
   outer loop
     vertex -6.394737e-01  0.000000e+00  0.000000e+00
     vertex -6.631877e-01 -3.522112e-01  0.000000e+00
     vertex -7.279770e-01 -1.813761e-01  0.000000e+00
   endloop
 endfacet
 facet normal  0.000000e+00  0.000000e+00 -1.000000e+00
   outer loop
     vertex -6.394737e-01  0.000000e+00  0.000000e+00
     vertex -7.279770e-01 -1.813761e-01  0.000000e+00
     vertex -6.868421e-01 -4.736842e-02  0.000000e+00
   endloop
 endfacet
 facet normal  0.000000e+00 -0.000000e+00 -1.000000e+00
   outer loop
     vertex  5.526316e-02 -6.789474e-01  0.000000e+00
     vertex  9.924885e-02 -7.523688e-01  0.000000e+00
     vertex  7.894737e-03 -7.263158e-01  0.000000e+00
   endloop
 endfacet
 facet normal -0.000000e+00  0.000000e+00 -1.000000e+00
   outer loop
     vertex  7.894737e-03 -6.315789e-01  0.000000e+00
     vertex -2.608584e-01 -7.086439e-01  0.000000e+00
     vertex -4.226385e-01 -6.237351e-01  0.000000e+00
   endloop
 endfacet
 facet normal  0.000000e+00  0.000000e+00 -1.000000e+00
   outer loop
     vertex  7.894737e-03 -6.315789e-01  0.000000e+00
     vertex -3.947368e-02 -6.789474e-01  0.000000e+00
     vertex -2.608584e-01 -7.086439e-01  0.000000e+00
   endloop
 endfacet
 facet normal  0.000000e+00  0.000000e+00 -1.000000e+00
   outer loop
     vertex -7.279770e-01  1.813761e-01  0.000000e+00
     vertex -6.394737e-01  0.000000e+00  0.000000e+00
     vertex -6.868421e-01  4.736842e-02  0.000000e+00
   endloop
 endfacet
 facet normal  0.000000e+00 -0.000000e+00 -1.000000e+00
   outer loop
     vertex -7.279770e-01  1.813761e-01  0.000000e+00
     vertex -6.868421e-01  4.736842e-02  0.000000e+00
     vertex -7.500000e-01  7.659611e-16  0.000000e+00
   endloop
 endfacet
 facet normal  0.000000e+00  0.000000e+00 -1.000000e+00
   outer loop
     vertex  2.766479e-01 -7.086439e-01  0.000000e+00
     vertex  5.526316e-02 -6.789474e-01  0.000000e+00
     vertex  7.894737e-03 -6.315789e-01  0.000000e+00
   endloop
 endfacet
 facet normal -0.000000e+00  0.000000e+00 -1.000000e+00
   outer loop
     vertex  2.766479e-01 -7.086439e-01  0.000000e+00
     vertex  9.924885e-02 -7.523688e-01  0.000000e+00
     vertex  5.526316e-02 -6.789474e-01  0.000000e+00
   endloop
 endfacet
 facet normal  0.000000e+00 -0.000000e+00 -1.000000e+00
   outer loop
     vertex -6.631877e-01  3.522112e-01  0.000000e+00
     vertex -6.394737e-01  0.000000e+00  0.000000e+00
     vertex -7.279770e-01  1.813761e-01  0.000000e+00
   endloop
 endfacet
 facet normal  0.000000e+00  0.000000e+00 -1.000000e+00
   outer loop
     vertex  4.384280e-01 -6.237351e-01  0.000000e+00
     vertex  2.766479e-01 -7.086439e-01  0.000000e+00
     vertex  7.894737e-03 -6.315789e-01  0.000000e+00
   endloop
 endfacet
 facet normal  0.000000e+00  0.000000e+00 -1.000000e+00
   outer loop
     vertex -4.320107e-02 -3.712328e-02  0.000000e+00
     vertex -5.593976e-01 -5.025772e-01  0.000000e+00
     vertex -6.631877e-01 -3.522112e-01  0.000000e+00
   endloop
 endfacet
 facet normal  0.000000e+00  0.000000e+00 -1.000000e+00
   outer loop
     vertex -4.320107e-02 -3.712328e-02  0.000000e+00
     vertex -4.226385e-01 -6.237351e-01  0.000000e+00
     vertex -5.593976e-01 -5.025772e-01  0.000000e+00
   endloop
 endfacet
 facet normal -0.000000e+00  0.000000e+00 -1.000000e+00
   outer loop
     vertex -4.320107e-02 -3.712328e-02  0.000000e+00
     vertex -6.631877e-01 -3.522112e-01  0.000000e+00
     vertex -6.394737e-01  0.000000e+00  0.000000e+00
   endloop
 endfacet
 facet normal  0.000000e+00 -0.000000e+00 -1.000000e+00
   outer loop
     vertex -4.320107e-02 -3.712328e-02  0.000000e+00
     vertex  7.894737e-03 -6.315789e-01  0.000000e+00
     vertex -4.226385e-01 -6.237351e-01  0.000000e+00
   endloop
 endfacet
 facet normal  0.000000e+00 -0.000000e+00 -1.000000e+00
   outer loop
     vertex  2.741160e-02 -6.006673e-02  0.000000e+00
     vertex  4.384280e-01 -6.237351e-01  0.000000e+00
     vertex  7.894737e-03 -6.315789e-01  0.000000e+00
   endloop
 endfacet
 facet normal -0.000000e+00  0.000000e+00 -1.000000e+00
   outer loop
     vertex  2.741160e-02 -6.006673e-02  0.000000e+00
     vertex  7.894737e-03 -6.315789e-01  0.000000e+00
     vertex -4.320107e-02 -3.712328e-02  0.000000e+00
   endloop
 endfacet
 facet normal  0.000000e+00  0.000000e+00 -1.000000e+00
   outer loop
     vertex -4.320107e-02  3.712328e-02  0.000000e+00
     vertex -6.631877e-01  3.522112e-01  0.000000e+00
     vertex -5.593976e-01  5.025772e-01  0.000000e+00
   endloop
 endfacet
 facet normal -0.000000e+00  0.000000e+00 -1.000000e+00
   outer loop
     vertex -4.320107e-02  3.712328e-02  0.000000e+00
     vertex -6.394737e-01  0.000000e+00  0.000000e+00
     vertex -6.631877e-01  3.522112e-01  0.000000e+00
   endloop
 endfacet
 facet normal  0.000000e+00  0.000000e+00 -1.000000e+00
   outer loop
     vertex -4.320107e-02  3.712328e-02  0.000000e+00
     vertex -4.320107e-02 -3.712328e-02  0.000000e+00
     vertex -6.394737e-01  0.000000e+00  0.000000e+00
   endloop
 endfacet
 facet normal  0.000000e+00  0.000000e+00 -1.000000e+00
   outer loop
     vertex  5.751871e-01 -5.025772e-01  0.000000e+00
     vertex  2.741160e-02 -6.006673e-02  0.000000e+00
     vertex  7.105263e-02  0.000000e+00  0.000000e+00
   endloop
 endfacet
 facet normal -0.000000e+00  0.000000e+00 -1.000000e+00
   outer loop
     vertex  5.751871e-01 -5.025772e-01  0.000000e+00
     vertex  4.384280e-01 -6.237351e-01  0.000000e+00
     vertex  2.741160e-02 -6.006673e-02  0.000000e+00
   endloop
 endfacet
 facet normal  0.000000e+00 -0.000000e+00 -1.000000e+00
   outer loop
     vertex -4.226385e-01  6.237351e-01  0.000000e+00
     vertex -4.320107e-02  3.712328e-02  0.000000e+00
     vertex -5.593976e-01  5.025772e-01  0.000000e+00
   endloop
 endfacet
 facet normal -0.000000e+00  0.000000e+00 -1.000000e+00
   outer loop
     vertex  6.789772e-01 -3.522112e-01  0.000000e+00
     vertex  5.751871e-01 -5.025772e-01  0.000000e+00
     vertex  7.105263e-02  0.000000e+00  0.000000e+00
   endloop
 endfacet
 facet normal  0.000000e+00 -0.000000e+00 -1.000000e+00
   outer loop
     vertex  6.868421e-01 -4.736842e-02  0.000000e+00
     vertex  7.437664e-01 -1.813761e-01  0.000000e+00
     vertex  6.789772e-01 -3.522112e-01  0.000000e+00
   endloop
 endfacet
 facet normal  0.000000e+00 -0.000000e+00 -1.000000e+00
   outer loop
     vertex  6.394737e-01  5.800959e-18  0.000000e+00
     vertex  6.789772e-01 -3.522112e-01  0.000000e+00
     vertex  7.105263e-02  0.000000e+00  0.000000e+00
   endloop
 endfacet
 facet normal  0.000000e+00  0.000000e+00 -1.000000e+00
   outer loop
     vertex  6.394737e-01  5.800959e-18  0.000000e+00
     vertex  6.868421e-01 -4.736842e-02  0.000000e+00
     vertex  6.789772e-01 -3.522112e-01  0.000000e+00
   endloop
 endfacet
 facet normal  0.000000e+00  0.000000e+00 -1.000000e+00
   outer loop
     vertex  7.894737e-03  6.315789e-01  0.000000e+00
     vertex -4.320107e-02  3.712328e-02  0.000000e+00
     vertex -4.226385e-01  6.237351e-01  0.000000e+00
   endloop
 endfacet
 facet normal -0.000000e+00  0.000000e+00 -1.000000e+00
   outer loop
     vertex  7.894737e-03  6.315789e-01  0.000000e+00
     vertex -4.226385e-01  6.237351e-01  0.000000e+00
     vertex -2.608584e-01  7.086439e-01  0.000000e+00
   endloop
 endfacet
 facet normal  0.000000e+00  0.000000e+00 -1.000000e+00
   outer loop
     vertex  7.894737e-03  6.315789e-01  0.000000e+00
     vertex -2.608584e-01  7.086439e-01  0.000000e+00
     vertex -3.947368e-02  6.789474e-01  0.000000e+00
   endloop
 endfacet
 facet normal  0.000000e+00 -0.000000e+00 -1.000000e+00
   outer loop
     vertex  7.894737e-03  6.315789e-01  0.000000e+00
     vertex  2.741160e-02  6.006673e-02  0.000000e+00
     vertex -4.320107e-02  3.712328e-02  0.000000e+00
   endloop
 endfacet
 facet normal  0.000000e+00 -0.000000e+00 -1.000000e+00
   outer loop
     vertex -8.345938e-02  7.523688e-01  0.000000e+00
     vertex -3.947368e-02  6.789474e-01  0.000000e+00
     vertex -2.608584e-01  7.086439e-01  0.000000e+00
   endloop
 endfacet
 facet normal -0.000000e+00  0.000000e+00 -1.000000e+00
   outer loop
     vertex  7.894737e-03  7.263158e-01  0.000000e+00
     vertex -3.947368e-02  6.789474e-01  0.000000e+00
     vertex -8.345938e-02  7.523688e-01  0.000000e+00
   endloop
 endfacet
 facet normal  0.000000e+00  0.000000e+00 -1.000000e+00
   outer loop
     vertex  7.657895e-01  0.000000e+00  0.000000e+00
     vertex  7.437664e-01 -1.813761e-01  0.000000e+00
     vertex  6.868421e-01 -4.736842e-02  0.000000e+00
   endloop
 endfacet
 facet normal  0.000000e+00  0.000000e+00 -1.000000e+00
   outer loop
     vertex  7.657895e-01  0.000000e+00  0.000000e+00
     vertex  7.342105e-01  0.000000e+00  0.000000e+00
     vertex  6.868421e-01  4.736842e-02  0.000000e+00
   endloop
 endfacet
 facet normal -0.000000e+00  0.000000e+00 -1.000000e+00
   outer loop
     vertex  7.657895e-01  0.000000e+00  0.000000e+00
     vertex  6.868421e-01 -4.736842e-02  0.000000e+00
     vertex  7.342105e-01  0.000000e+00  0.000000e+00
   endloop
 endfacet
 facet normal -0.000000e+00  0.000000e+00 -1.000000e+00
   outer loop
     vertex  9.924885e-02  7.523688e-01  0.000000e+00
     vertex  7.894737e-03  7.263158e-01  0.000000e+00
     vertex -8.345938e-02  7.523688e-01  0.000000e+00
   endloop
 endfacet
 facet normal  0.000000e+00  0.000000e+00 -1.000000e+00
   outer loop
     vertex  9.924885e-02  7.523688e-01  0.000000e+00
     vertex  5.526316e-02  6.789474e-01  0.000000e+00
     vertex  7.894737e-03  7.263158e-01  0.000000e+00
   endloop
 endfacet
 facet normal  0.000000e+00 -0.000000e+00 -1.000000e+00
   outer loop
     vertex  7.437664e-01  1.813761e-01  0.000000e+00
     vertex  7.657895e-01  0.000000e+00  0.000000e+00
     vertex  6.868421e-01  4.736842e-02  0.000000e+00
   endloop
 endfacet
 facet normal -0.000000e+00  0.000000e+00 -1.000000e+00
   outer loop
     vertex  2.766479e-01  7.086439e-01  0.000000e+00
     vertex  5.526316e-02  6.789474e-01  0.000000e+00
     vertex  9.924885e-02  7.523688e-01  0.000000e+00
   endloop
 endfacet
 facet normal  0.000000e+00  0.000000e+00 -1.000000e+00
   outer loop
     vertex  2.766479e-01  7.086439e-01  0.000000e+00
     vertex  7.894737e-03  6.315789e-01  0.000000e+00
     vertex  5.526316e-02  6.789474e-01  0.000000e+00
   endloop
 endfacet
 facet normal  0.000000e+00  0.000000e+00 -1.000000e+00
   outer loop
     vertex  6.789772e-01  3.522112e-01  0.000000e+00
     vertex  6.394737e-01  5.800959e-18  0.000000e+00
     vertex  7.105263e-02  0.000000e+00  0.000000e+00
   endloop
 endfacet
 facet normal  0.000000e+00  0.000000e+00 -1.000000e+00
   outer loop
     vertex  6.789772e-01  3.522112e-01  0.000000e+00
     vertex  7.437664e-01  1.813761e-01  0.000000e+00
     vertex  6.868421e-01  4.736842e-02  0.000000e+00
   endloop
 endfacet
 facet normal  0.000000e+00 -0.000000e+00 -1.000000e+00
   outer loop
     vertex  6.789772e-01  3.522112e-01  0.000000e+00
     vertex  6.868421e-01  4.736842e-02  0.000000e+00
     vertex  6.394737e-01  5.800959e-18  0.000000e+00
   endloop
 endfacet
 facet normal -0.000000e+00  0.000000e+00 -1.000000e+00
   outer loop
     vertex  4.384280e-01  6.237351e-01  0.000000e+00
     vertex  2.741160e-02  6.006673e-02  0.000000e+00
     vertex  7.894737e-03  6.315789e-01  0.000000e+00
   endloop
 endfacet
 facet normal  0.000000e+00  0.000000e+00 -1.000000e+00
   outer loop
     vertex  4.384280e-01  6.237351e-01  0.000000e+00
     vertex  7.894737e-03  6.315789e-01  0.000000e+00
     vertex  2.766479e-01  7.086439e-01  0.000000e+00
   endloop
 endfacet
 facet normal -0.000000e+00  0.000000e+00 -1.000000e+00
   outer loop
     vertex  5.751871e-01  5.025772e-01  0.000000e+00
     vertex  2.741160e-02  6.006673e-02  0.000000e+00
     vertex  4.384280e-01  6.237351e-01  0.000000e+00
   endloop
 endfacet
 facet normal  0.000000e+00  0.000000e+00 -1.000000e+00
   outer loop
     vertex  5.751871e-01  5.025772e-01  0.000000e+00
     vertex  7.105263e-02  0.000000e+00  0.000000e+00
     vertex  2.741160e-02  6.006673e-02  0.000000e+00
   endloop
 endfacet
 facet normal  0.000000e+00 -0.000000e+00 -1.000000e+00
   outer loop
     vertex  5.751871e-01  5.025772e-01  0.000000e+00
     vertex  6.789772e-01  3.522112e-01  0.000000e+00
     vertex  7.105263e-02  0.000000e+00  0.000000e+00
   endloop
 endfacet
 facet normal  0.000000e+00  0.000000e+00  1.000000e+00
   outer loop
     vertex -6.868421e-01 -4.736842e-02  1.250000e-01
     vertex -7.500000e-01  7.659611e-16  1.250000e-01
     vertex -7.279770e-01 -1.813761e-01  1.250000e-01
   endloop
 endfacet
 facet normal  0.000000e+00  0.000000e+00  1.000000e+00
   outer loop
     vertex -6.868421e-01 -4.736842e-02  1.250000e-01
     vertex -7.342105e-01  5.800959e-18  1.250000e-01
     vertex -7.500000e-01  7.659611e-16  1.250000e-01
   endloop
 endfacet
 facet normal  0.000000e+00  0.000000e+00  1.000000e+00
   outer loop
     vertex -3.947368e-02 -6.789474e-01  1.250000e-01
     vertex -2.608584e-01 -7.086439e-01  1.250000e-01
     vertex -8.345938e-02 -7.523688e-01  1.250000e-01
   endloop
 endfacet
 facet normal  0.000000e+00  0.000000e+00  1.000000e+00
   outer loop
     vertex -3.947368e-02 -6.789474e-01  1.250000e-01
     vertex -8.345938e-02 -7.523688e-01  1.250000e-01
     vertex  7.894737e-03 -7.263158e-01  1.250000e-01
   endloop
 endfacet
 facet normal  0.000000e+00  0.000000e+00  1.000000e+00
   outer loop
     vertex  9.924885e-02 -7.523688e-01  1.250000e-01
     vertex  7.894737e-03 -7.263158e-01  1.250000e-01
     vertex -8.345938e-02 -7.523688e-01  1.250000e-01
   endloop
 endfacet
 facet normal  0.000000e+00  0.000000e+00  1.000000e+00
   outer loop
     vertex -6.868421e-01  4.736842e-02  1.250000e-01
     vertex -7.500000e-01  7.659611e-16  1.250000e-01
     vertex -7.342105e-01  5.800959e-18  1.250000e-01
   endloop
 endfacet
 facet normal  0.000000e+00  0.000000e+00  1.000000e+00
   outer loop
     vertex -6.394737e-01  0.000000e+00  1.250000e-01
     vertex -7.279770e-01 -1.813761e-01  1.250000e-01
     vertex -6.631877e-01 -3.522112e-01  1.250000e-01
   endloop
 endfacet
 facet normal  0.000000e+00  0.000000e+00  1.000000e+00
   outer loop
     vertex -6.394737e-01  0.000000e+00  1.250000e-01
     vertex -6.868421e-01 -4.736842e-02  1.250000e-01
     vertex -7.279770e-01 -1.813761e-01  1.250000e-01
   endloop
 endfacet
 facet normal  0.000000e+00  0.000000e+00  1.000000e+00
   outer loop
     vertex  5.526316e-02 -6.789474e-01  1.250000e-01
     vertex  7.894737e-03 -7.263158e-01  1.250000e-01
     vertex  9.924885e-02 -7.523688e-01  1.250000e-01
   endloop
 endfacet
 facet normal  0.000000e+00  0.000000e+00  1.000000e+00
   outer loop
     vertex  7.894737e-03 -6.315789e-01  1.250000e-01
     vertex -4.226385e-01 -6.237351e-01  1.250000e-01
     vertex -2.608584e-01 -7.086439e-01  1.250000e-01
   endloop
 endfacet
 facet normal  0.000000e+00  0.000000e+00  1.000000e+00
   outer loop
     vertex  7.894737e-03 -6.315789e-01  1.250000e-01
     vertex -2.608584e-01 -7.086439e-01  1.250000e-01
     vertex -3.947368e-02 -6.789474e-01  1.250000e-01
   endloop
 endfacet
 facet normal  0.000000e+00  0.000000e+00  1.000000e+00
   outer loop
     vertex -7.279770e-01  1.813761e-01  1.250000e-01
     vertex -6.868421e-01  4.736842e-02  1.250000e-01
     vertex -6.394737e-01  0.000000e+00  1.250000e-01
   endloop
 endfacet
 facet normal  0.000000e+00  0.000000e+00  1.000000e+00
   outer loop
     vertex -7.279770e-01  1.813761e-01  1.250000e-01
     vertex -7.500000e-01  7.659611e-16  1.250000e-01
     vertex -6.868421e-01  4.736842e-02  1.250000e-01
   endloop
 endfacet
 facet normal  0.000000e+00  0.000000e+00  1.000000e+00
   outer loop
     vertex  2.766479e-01 -7.086439e-01  1.250000e-01
     vertex  7.894737e-03 -6.315789e-01  1.250000e-01
     vertex  5.526316e-02 -6.789474e-01  1.250000e-01
   endloop
 endfacet
 facet normal  0.000000e+00  0.000000e+00  1.000000e+00
   outer loop
     vertex  2.766479e-01 -7.086439e-01  1.250000e-01
     vertex  5.526316e-02 -6.789474e-01  1.250000e-01
     vertex  9.924885e-02 -7.523688e-01  1.250000e-01
   endloop
 endfacet
 facet normal  0.000000e+00  0.000000e+00  1.000000e+00
   outer loop
     vertex -6.631877e-01  3.522112e-01  1.250000e-01
     vertex -7.279770e-01  1.813761e-01  1.250000e-01
     vertex -6.394737e-01  0.000000e+00  1.250000e-01
   endloop
 endfacet
 facet normal  0.000000e+00  0.000000e+00  1.000000e+00
   outer loop
     vertex  4.384280e-01 -6.237351e-01  1.250000e-01
     vertex  7.894737e-03 -6.315789e-01  1.250000e-01
     vertex  2.766479e-01 -7.086439e-01  1.250000e-01
   endloop
 endfacet
 facet normal  0.000000e+00  0.000000e+00  1.000000e+00
   outer loop
     vertex -4.320107e-02 -3.712328e-02  1.250000e-01
     vertex -6.631877e-01 -3.522112e-01  1.250000e-01
     vertex -5.593976e-01 -5.025772e-01  1.250000e-01
   endloop
 endfacet
 facet normal  0.000000e+00  0.000000e+00  1.000000e+00
   outer loop
     vertex -4.320107e-02 -3.712328e-02  1.250000e-01
     vertex -5.593976e-01 -5.025772e-01  1.250000e-01
     vertex -4.226385e-01 -6.237351e-01  1.250000e-01
   endloop
 endfacet
 facet normal  0.000000e+00  0.000000e+00  1.000000e+00
   outer loop
     vertex -4.320107e-02 -3.712328e-02  1.250000e-01
     vertex -6.394737e-01  0.000000e+00  1.250000e-01
     vertex -6.631877e-01 -3.522112e-01  1.250000e-01
   endloop
 endfacet
 facet normal  0.000000e+00  0.000000e+00  1.000000e+00
   outer loop
     vertex -4.320107e-02 -3.712328e-02  1.250000e-01
     vertex -4.226385e-01 -6.237351e-01  1.250000e-01
     vertex  7.894737e-03 -6.315789e-01  1.250000e-01
   endloop
 endfacet
 facet normal  0.000000e+00  0.000000e+00  1.000000e+00
   outer loop
     vertex  2.741160e-02 -6.006673e-02  1.250000e-01
     vertex  7.894737e-03 -6.315789e-01  1.250000e-01
     vertex  4.384280e-01 -6.237351e-01  1.250000e-01
   endloop
 endfacet
 facet normal  0.000000e+00  0.000000e+00  1.000000e+00
   outer loop
     vertex  2.741160e-02 -6.006673e-02  1.250000e-01
     vertex -4.320107e-02 -3.712328e-02  1.250000e-01
     vertex  7.894737e-03 -6.315789e-01  1.250000e-01
   endloop
 endfacet
 facet normal  0.000000e+00  0.000000e+00  1.000000e+00
   outer loop
     vertex -4.320107e-02  3.712328e-02  1.250000e-01
     vertex -5.593976e-01  5.025772e-01  1.250000e-01
     vertex -6.631877e-01  3.522112e-01  1.250000e-01
   endloop
 endfacet
 facet normal  0.000000e+00  0.000000e+00  1.000000e+00
   outer loop
     vertex -4.320107e-02  3.712328e-02  1.250000e-01
     vertex -6.631877e-01  3.522112e-01  1.250000e-01
     vertex -6.394737e-01  0.000000e+00  1.250000e-01
   endloop
 endfacet
 facet normal  0.000000e+00  0.000000e+00  1.000000e+00
   outer loop
     vertex -4.320107e-02  3.712328e-02  1.250000e-01
     vertex -6.394737e-01  0.000000e+00  1.250000e-01
     vertex -4.320107e-02 -3.712328e-02  1.250000e-01
   endloop
 endfacet
 facet normal  0.000000e+00  0.000000e+00  1.000000e+00
   outer loop
     vertex  5.751871e-01 -5.025772e-01  1.250000e-01
     vertex  7.105263e-02  0.000000e+00  1.250000e-01
     vertex  2.741160e-02 -6.006673e-02  1.250000e-01
   endloop
 endfacet
 facet normal  0.000000e+00  0.000000e+00  1.000000e+00
   outer loop
     vertex  5.751871e-01 -5.025772e-01  1.250000e-01
     vertex  2.741160e-02 -6.006673e-02  1.250000e-01
     vertex  4.384280e-01 -6.237351e-01  1.250000e-01
   endloop
 endfacet
 facet normal  0.000000e+00  0.000000e+00  1.000000e+00
   outer loop
     vertex -4.226385e-01  6.237351e-01  1.250000e-01
     vertex -5.593976e-01  5.025772e-01  1.250000e-01
     vertex -4.320107e-02  3.712328e-02  1.250000e-01
   endloop
 endfacet
 facet normal  0.000000e+00  0.000000e+00  1.000000e+00
   outer loop
     vertex  6.789772e-01 -3.522112e-01  1.250000e-01
     vertex  7.105263e-02  0.000000e+00  1.250000e-01
     vertex  5.751871e-01 -5.025772e-01  1.250000e-01
   endloop
 endfacet
 facet normal  0.000000e+00  0.000000e+00  1.000000e+00
   outer loop
     vertex  6.868421e-01 -4.736842e-02  1.250000e-01
     vertex  6.789772e-01 -3.522112e-01  1.250000e-01
     vertex  7.437664e-01 -1.813761e-01  1.250000e-01
   endloop
 endfacet
 facet normal  0.000000e+00  0.000000e+00  1.000000e+00
   outer loop
     vertex  6.394737e-01  5.800959e-18  1.250000e-01
     vertex  7.105263e-02  0.000000e+00  1.250000e-01
     vertex  6.789772e-01 -3.522112e-01  1.250000e-01
   endloop
 endfacet
 facet normal  0.000000e+00  0.000000e+00  1.000000e+00
   outer loop
     vertex  6.394737e-01  5.800959e-18  1.250000e-01
     vertex  6.789772e-01 -3.522112e-01  1.250000e-01
     vertex  6.868421e-01 -4.736842e-02  1.250000e-01
   endloop
 endfacet
 facet normal  0.000000e+00  0.000000e+00  1.000000e+00
   outer loop
     vertex  7.894737e-03  6.315789e-01  1.250000e-01
     vertex -4.226385e-01  6.237351e-01  1.250000e-01
     vertex -4.320107e-02  3.712328e-02  1.250000e-01
   endloop
 endfacet
 facet normal  0.000000e+00  0.000000e+00  1.000000e+00
   outer loop
     vertex  7.894737e-03  6.315789e-01  1.250000e-01
     vertex -2.608584e-01  7.086439e-01  1.250000e-01
     vertex -4.226385e-01  6.237351e-01  1.250000e-01
   endloop
 endfacet
 facet normal  0.000000e+00  0.000000e+00  1.000000e+00
   outer loop
     vertex  7.894737e-03  6.315789e-01  1.250000e-01
     vertex -3.947368e-02  6.789474e-01  1.250000e-01
     vertex -2.608584e-01  7.086439e-01  1.250000e-01
   endloop
 endfacet
 facet normal  0.000000e+00  0.000000e+00  1.000000e+00
   outer loop
     vertex  7.894737e-03  6.315789e-01  1.250000e-01
     vertex -4.320107e-02  3.712328e-02  1.250000e-01
     vertex  2.741160e-02  6.006673e-02  1.250000e-01
   endloop
 endfacet
 facet normal  0.000000e+00  0.000000e+00  1.000000e+00
   outer loop
     vertex -8.345938e-02  7.523688e-01  1.250000e-01
     vertex -2.608584e-01  7.086439e-01  1.250000e-01
     vertex -3.947368e-02  6.789474e-01  1.250000e-01
   endloop
 endfacet
 facet normal  0.000000e+00  0.000000e+00  1.000000e+00
   outer loop
     vertex  7.894737e-03  7.263158e-01  1.250000e-01
     vertex -8.345938e-02  7.523688e-01  1.250000e-01
     vertex -3.947368e-02  6.789474e-01  1.250000e-01
   endloop
 endfacet
 facet normal  0.000000e+00  0.000000e+00  1.000000e+00
   outer loop
     vertex  7.657895e-01  0.000000e+00  1.250000e-01
     vertex  6.868421e-01 -4.736842e-02  1.250000e-01
     vertex  7.437664e-01 -1.813761e-01  1.250000e-01
   endloop
 endfacet
 facet normal  0.000000e+00  0.000000e+00  1.000000e+00
   outer loop
     vertex  7.657895e-01  0.000000e+00  1.250000e-01
     vertex  6.868421e-01  4.736842e-02  1.250000e-01
     vertex  7.342105e-01  0.000000e+00  1.250000e-01
   endloop
 endfacet
 facet normal  0.000000e+00  0.000000e+00  1.000000e+00
   outer loop
     vertex  7.657895e-01  0.000000e+00  1.250000e-01
     vertex  7.342105e-01  0.000000e+00  1.250000e-01
     vertex  6.868421e-01 -4.736842e-02  1.250000e-01
   endloop
 endfacet
 facet normal  0.000000e+00  0.000000e+00  1.000000e+00
   outer loop
     vertex  9.924885e-02  7.523688e-01  1.250000e-01
     vertex -8.345938e-02  7.523688e-01  1.250000e-01
     vertex  7.894737e-03  7.263158e-01  1.250000e-01
   endloop
 endfacet
 facet normal  0.000000e+00  0.000000e+00  1.000000e+00
   outer loop
     vertex  9.924885e-02  7.523688e-01  1.250000e-01
     vertex  7.894737e-03  7.263158e-01  1.250000e-01
     vertex  5.526316e-02  6.789474e-01  1.250000e-01
   endloop
 endfacet
 facet normal  0.000000e+00  0.000000e+00  1.000000e+00
   outer loop
     vertex  7.437664e-01  1.813761e-01  1.250000e-01
     vertex  6.868421e-01  4.736842e-02  1.250000e-01
     vertex  7.657895e-01  0.000000e+00  1.250000e-01
   endloop
 endfacet
 facet normal  0.000000e+00  0.000000e+00  1.000000e+00
   outer loop
     vertex  2.766479e-01  7.086439e-01  1.250000e-01
     vertex  9.924885e-02  7.523688e-01  1.250000e-01
     vertex  5.526316e-02  6.789474e-01  1.250000e-01
   endloop
 endfacet
 facet normal  0.000000e+00  0.000000e+00  1.000000e+00
   outer loop
     vertex  2.766479e-01  7.086439e-01  1.250000e-01
     vertex  5.526316e-02  6.789474e-01  1.250000e-01
     vertex  7.894737e-03  6.315789e-01  1.250000e-01
   endloop
 endfacet
 facet normal  0.000000e+00  0.000000e+00  1.000000e+00
   outer loop
     vertex  6.789772e-01  3.522112e-01  1.250000e-01
     vertex  7.105263e-02  0.000000e+00  1.250000e-01
     vertex  6.394737e-01  5.800959e-18  1.250000e-01
   endloop
 endfacet
 facet normal  0.000000e+00  0.000000e+00  1.000000e+00
   outer loop
     vertex  6.789772e-01  3.522112e-01  1.250000e-01
     vertex  6.868421e-01  4.736842e-02  1.250000e-01
     vertex  7.437664e-01  1.813761e-01  1.250000e-01
   endloop
 endfacet
 facet normal  0.000000e+00  0.000000e+00  1.000000e+00
   outer loop
     vertex  6.789772e-01  3.522112e-01  1.250000e-01
     vertex  6.394737e-01  5.800959e-18  1.250000e-01
     vertex  6.868421e-01  4.736842e-02  1.250000e-01
   endloop
 endfacet
 facet normal  0.000000e+00  0.000000e+00  1.000000e+00
   outer loop
     vertex  4.384280e-01  6.237351e-01  1.250000e-01
     vertex  7.894737e-03  6.315789e-01  1.250000e-01
     vertex  2.741160e-02  6.006673e-02  1.250000e-01
   endloop
 endfacet
 facet normal  0.000000e+00  0.000000e+00  1.000000e+00
   outer loop
     vertex  4.384280e-01  6.237351e-01  1.250000e-01
     vertex  2.766479e-01  7.086439e-01  1.250000e-01
     vertex  7.894737e-03  6.315789e-01  1.250000e-01
   endloop
 endfacet
 facet normal  0.000000e+00  0.000000e+00  1.000000e+00
   outer loop
     vertex  5.751871e-01  5.025772e-01  1.250000e-01
     vertex  4.384280e-01  6.237351e-01  1.250000e-01
     vertex  2.741160e-02  6.006673e-02  1.250000e-01
   endloop
 endfacet
 facet normal  0.000000e+00  0.000000e+00  1.000000e+00
   outer loop
     vertex  5.751871e-01  5.025772e-01  1.250000e-01
     vertex  2.741160e-02  6.006673e-02  1.250000e-01
     vertex  7.105263e-02  0.000000e+00  1.250000e-01
   endloop
 endfacet
 facet normal  0.000000e+00  0.000000e+00  1.000000e+00
   outer loop
     vertex  5.751871e-01  5.025772e-01  1.250000e-01
     vertex  7.105263e-02  0.000000e+00  1.250000e-01
     vertex  6.789772e-01  3.522112e-01  1.250000e-01
   endloop
 endfacet
endsolid
