solid 
 facet normal  8.570027e-17 -1.000000e+00  4.171982e-17
   outer loop
     vertex  1.586253e-01  1.436277e-18  3.335809e-01
     vertex  2.098821e-01  8.510500e-18  3.978549e-01
     vertex  0.000000e+00  0.000000e+00  6.250000e-01
   endloop
 endfacet
 facet normal  6.123234e-17 -1.000000e+00  1.911144e-17
   outer loop
     vertex  2.920916e-01  1.354438e-17  3.978549e-01
     vertex  0.000000e+00  0.000000e+00  6.250000e-01
     vertex  2.098821e-01  8.510500e-18  3.978549e-01
   endloop
 endfacet
 facet normal -6.102998e-17 -1.000000e+00  3.332676e-17
   outer loop
     vertex  0.000000e+00  0.000000e+00  0.000000e+00
     vertex  1.769186e-01 -2.351252e-18  2.534325e-01
     vertex  1.586253e-01  1.436277e-18  3.335809e-01
   endloop
 endfacet
 facet normal  9.054528e-18 -1.000000e+00  0.000000e+00
   outer loop
     vertex  0.000000e+00  0.000000e+00  0.000000e+00
     vertex  1.586253e-01  1.436277e-18  3.335809e-01
     vertex  0.000000e+00  0.000000e+00  6.250000e-01
   endloop
 endfacet
 facet normal  2.041378e-17 -1.000000e+00 -2.352827e-17
   outer loop
     vertex  2.509868e-01  0.000000e+00  2.177632e-01
     vertex  1.769186e-01 -2.351252e-18  2.534325e-01
     vertex  0.000000e+00  0.000000e+00  0.000000e+00
   endloop
 endfacet
 facet normal -2.560244e-17 -1.000000e+00 -8.016082e-18
   outer loop
     vertex  7.500000e-01  0.000000e+00  6.250000e-01
     vertex  2.920916e-01  1.354438e-17  3.978549e-01
     vertex  3.433484e-01  1.274731e-17  3.335809e-01
   endloop
 endfacet
 facet normal -0.000000e+00 -1.000000e+00 -5.962878e-17
   outer loop
     vertex  7.500000e-01  0.000000e+00  6.250000e-01
     vertex  0.000000e+00  0.000000e+00  6.250000e-01
     vertex  2.920916e-01  1.354438e-17  3.978549e-01
   endloop
 endfacet
 facet normal  4.312727e-17 -1.000000e+00  9.882790e-17
   outer loop
     vertex  7.500000e-01  0.000000e+00  0.000000e+00
     vertex  3.250551e-01  6.719492e-18  2.534325e-01
     vertex  2.509868e-01  0.000000e+00  2.177632e-01
   endloop
 endfacet
 facet normal  2.556130e-17 -1.000000e+00  6.937402e-17
   outer loop
     vertex  7.500000e-01  0.000000e+00  0.000000e+00
     vertex  3.433484e-01  1.274731e-17  3.335809e-01
     vertex  3.250551e-01  6.719492e-18  2.534325e-01
   endloop
 endfacet
 facet normal -3.134701e-17 -1.000000e+00  0.000000e+00
   outer loop
     vertex  7.500000e-01  0.000000e+00  0.000000e+00
     vertex  7.500000e-01  0.000000e+00  6.250000e-01
     vertex  3.433484e-01  1.274731e-17  3.335809e-01
   endloop
 endfacet
 facet normal  0.000000e+00 -1.000000e+00  0.000000e+00
   outer loop
     vertex  7.500000e-01  0.000000e+00  0.000000e+00
     vertex  2.509868e-01  0.000000e+00  2.177632e-01
     vertex  0.000000e+00  0.000000e+00  0.000000e+00
   endloop
 endfacet
 facet normal -1.000000e+00  0.000000e+00  0.000000e+00
   outer loop
     vertex  0.000000e+00  0.000000e+00  0.000000e+00
     vertex  0.000000e+00  4.421053e-01  6.250000e-01
     vertex  0.000000e+00  4.421053e-01  0.000000e+00
   endloop
 endfacet
 facet normal -1.000000e+00  0.000000e+00  0.000000e+00
   outer loop
     vertex  0.000000e+00  0.000000e+00  0.000000e+00
     vertex  0.000000e+00  0.000000e+00  6.250000e-01
     vertex  0.000000e+00  4.421053e-01  6.250000e-01
   endloop
 endfacet
 facet normal  0.000000e+00 -0.000000e+00 -1.000000e+00
   outer loop
     vertex  3.157895e-01  6.236842e-01  0.000000e+00
     vertex  7.500000e-01  0.000000e+00  0.000000e+00
     vertex  0.000000e+00  0.000000e+00  0.000000e+00
   endloop
 endfacet
 facet normal  0.000000e+00  0.000000e+00 -1.000000e+00
   outer loop
     vertex  3.157895e-01  6.236842e-01  0.000000e+00
     vertex  0.000000e+00  0.000000e+00  0.000000e+00
     vertex  0.000000e+00  4.421053e-01  0.000000e+00
   endloop
 endfacet
 facet normal -0.000000e+00 -0.000000e+00 -1.000000e+00
   outer loop
     vertex  7.500000e-01  6.236842e-01  0.000000e+00
     vertex  7.500000e-01  0.000000e+00  0.000000e+00
     vertex  3.157895e-01  6.236842e-01  0.000000e+00
   endloop
 endfacet
 facet normal  0.000000e+00  0.000000e+00  1.000000e+00
   outer loop
     vertex  3.157895e-01  6.236842e-01  6.250000e-01
     vertex  0.000000e+00  0.000000e+00  6.250000e-01
     vertex  7.500000e-01  0.000000e+00  6.250000e-01
   endloop
 endfacet
 facet normal  0.000000e+00  0.000000e+00  1.000000e+00
   outer loop
     vertex  3.157895e-01  6.236842e-01  6.250000e-01
     vertex  0.000000e+00  4.421053e-01  6.250000e-01
     vertex  0.000000e+00  0.000000e+00  6.250000e-01
   endloop
 endfacet
 facet normal  0.000000e+00  0.000000e+00  1.000000e+00
   outer loop
     vertex  7.500000e-01  6.236842e-01  6.250000e-01
     vertex  3.157895e-01  6.236842e-01  6.250000e-01
     vertex  7.500000e-01  0.000000e+00  6.250000e-01
   endloop
 endfacet
 facet normal  1.000000e+00  0.000000e+00  0.000000e+00
   outer loop
     vertex  7.500000e-01  6.236842e-01  0.000000e+00
     vertex  7.500000e-01  0.000000e+00  6.250000e-01
     vertex  7.500000e-01  0.000000e+00  0.000000e+00
   endloop
 endfacet
 facet normal  1.000000e+00  0.000000e+00 -0.000000e+00
   outer loop
     vertex  7.500000e-01  6.236842e-01  0.000000e+00
     vertex  7.500000e-01  6.236842e-01  6.250000e-01
     vertex  7.500000e-01  0.000000e+00  6.250000e-01
   endloop
 endfacet
 facet normal -4.338837e-01  0.000000e+00  9.009689e-01
   outer loop
     vertex  3.250551e-01  6.719492e-18  2.534325e-01
     vertex  2.509868e-01  1.875000e-01  2.177632e-01
     vertex  2.509868e-01  0.000000e+00  2.177632e-01
   endloop
 endfacet
 facet normal -4.338837e-01  0.000000e+00  9.009689e-01
   outer loop
     vertex  3.250551e-01  6.719492e-18  2.534325e-01
     vertex  3.250551e-01  1.875000e-01  2.534325e-01
     vertex  2.509868e-01  1.875000e-01  2.177632e-01
   endloop
 endfacet
 facet normal -9.749279e-01  0.000000e+00  2.225209e-01
   outer loop
     vertex  3.433484e-01  1.274731e-17  3.335809e-01
     vertex  3.433484e-01  1.875000e-01  3.335809e-01
     vertex  3.250551e-01  1.875000e-01  2.534325e-01
   endloop
 endfacet
 facet normal -9.749279e-01  0.000000e+00  2.225209e-01
   outer loop
     vertex  3.433484e-01  1.274731e-17  3.335809e-01
     vertex  3.250551e-01  1.875000e-01  2.534325e-01
     vertex  3.250551e-01  6.719492e-18  2.534325e-01
   endloop
 endfacet
 facet normal -7.818315e-01  0.000000e+00 -6.234898e-01
   outer loop
     vertex  2.920916e-01  1.354438e-17  3.978549e-01
     vertex  2.920916e-01  1.875000e-01  3.978549e-01
     vertex  3.433484e-01  1.875000e-01  3.335809e-01
   endloop
 endfacet
 facet normal -7.818315e-01  0.000000e+00 -6.234898e-01
   outer loop
     vertex  2.920916e-01  1.354438e-17  3.978549e-01
     vertex  3.433484e-01  1.875000e-01  3.335809e-01
     vertex  3.433484e-01  1.274731e-17  3.335809e-01
   endloop
 endfacet
 facet normal -6.752397e-16  0.000000e+00 -1.000000e+00
   outer loop
     vertex  2.098821e-01  8.510500e-18  3.978549e-01
     vertex  2.098821e-01  1.875000e-01  3.978549e-01
     vertex  2.920916e-01  1.875000e-01  3.978549e-01
   endloop
 endfacet
 facet normal -6.752397e-16  0.000000e+00 -1.000000e+00
   outer loop
     vertex  2.098821e-01  8.510500e-18  3.978549e-01
     vertex  2.920916e-01  1.875000e-01  3.978549e-01
     vertex  2.920916e-01  1.354438e-17  3.978549e-01
   endloop
 endfacet
 facet normal  7.818315e-01  0.000000e+00 -6.234898e-01
   outer loop
     vertex  1.586253e-01  1.436277e-18  3.335809e-01
     vertex  1.586253e-01  1.875000e-01  3.335809e-01
     vertex  2.098821e-01  1.875000e-01  3.978549e-01
   endloop
 endfacet
 facet normal  7.818315e-01  0.000000e+00 -6.234898e-01
   outer loop
     vertex  1.586253e-01  1.436277e-18  3.335809e-01
     vertex  2.098821e-01  1.875000e-01  3.978549e-01
     vertex  2.098821e-01  8.510500e-18  3.978549e-01
   endloop
 endfacet
 facet normal  9.749279e-01 -0.000000e+00  2.225209e-01
   outer loop
     vertex  1.769186e-01 -2.351252e-18  2.534325e-01
     vertex  1.769186e-01  1.875000e-01  2.534325e-01
     vertex  1.586253e-01  1.875000e-01  3.335809e-01
   endloop
 endfacet
 facet normal  9.749279e-01  0.000000e+00  2.225209e-01
   outer loop
     vertex  1.769186e-01 -2.351252e-18  2.534325e-01
     vertex  1.586253e-01  1.875000e-01  3.335809e-01
     vertex  1.586253e-01  1.436277e-18  3.335809e-01
   endloop
 endfacet
 facet normal  4.338837e-01 -0.000000e+00  9.009689e-01
   outer loop
     vertex  2.509868e-01  0.000000e+00  2.177632e-01
     vertex  2.509868e-01  1.875000e-01  2.177632e-01
     vertex  1.769186e-01  1.875000e-01  2.534325e-01
   endloop
 endfacet
 facet normal  4.338837e-01  0.000000e+00  9.009689e-01
   outer loop
     vertex  2.509868e-01  0.000000e+00  2.177632e-01
     vertex  1.769186e-01  1.875000e-01  2.534325e-01
     vertex  1.769186e-01 -2.351252e-18  2.534325e-01
   endloop
 endfacet
 facet normal -4.984711e-01  8.669063e-01  0.000000e+00
   outer loop
     vertex  0.000000e+00  4.421053e-01  0.000000e+00
     vertex  3.157895e-01  6.236842e-01  6.250000e-01
     vertex  3.157895e-01  6.236842e-01  0.000000e+00
   endloop
 endfacet
 facet normal -4.984711e-01  8.669063e-01  0.000000e+00
   outer loop
     vertex  0.000000e+00  4.421053e-01  0.000000e+00
     vertex  0.000000e+00  4.421053e-01  6.250000e-01
     vertex  3.157895e-01  6.236842e-01  6.250000e-01
   endloop
 endfacet
 facet normal  0.000000e+00  1.000000e+00  0.000000e+00
   outer loop
     vertex  3.157895e-01  6.236842e-01  0.000000e+00
     vertex  7.500000e-01  6.236842e-01  6.250000e-01
     vertex  7.500000e-01  6.236842e-01  0.000000e+00
   endloop
 endfacet
 facet normal  0.000000e+00  1.000000e+00  0.000000e+00
   outer loop
     vertex  3.157895e-01  6.236842e-01  0.000000e+00
     vertex  3.157895e-01  6.236842e-01  6.250000e-01
     vertex  7.500000e-01  6.236842e-01  6.250000e-01
   endloop
 endfacet
 facet normal  0.000000e+00 -1.000000e+00 -0.000000e+00
   outer loop
     vertex  2.920916e-01  1.875000e-01  3.978549e-01
     vertex  2.509868e-01  1.875000e-01  2.177632e-01
     vertex  3.250551e-01  1.875000e-01  2.534325e-01
   endloop
 endfacet
 facet normal  0.000000e+00 -1.000000e+00  0.000000e+00
   outer loop
     vertex  2.920916e-01  1.875000e-01  3.978549e-01
     vertex  3.250551e-01  1.875000e-01  2.534325e-01
     vertex  3.433484e-01  1.875000e-01  3.335809e-01
   endloop
 endfacet
 facet normal -0.000000e+00 -1.000000e+00  0.000000e+00
   outer loop
     vertex  2.920916e-01  1.875000e-01  3.978549e-01
     vertex  2.098821e-01  1.875000e-01  3.978549e-01
     vertex  1.586253e-01  1.875000e-01  3.335809e-01
   endloop
 endfacet
 facet normal  0.000000e+00 -1.000000e+00  0.000000e+00
   outer loop
     vertex  2.920916e-01  1.875000e-01  3.978549e-01
     vertex  1.586253e-01  1.875000e-01  3.335809e-01
     vertex  1.769186e-01  1.875000e-01  2.534325e-01
   endloop
 endfacet
 facet normal  0.000000e+00 -1.000000e+00  0.000000e+00
   outer loop
     vertex  2.920916e-01  1.875000e-01  3.978549e-01
     vertex  1.769186e-01  1.875000e-01  2.534325e-01
     vertex  2.509868e-01  1.875000e-01  2.177632e-01
   endloop
 endfacet
endsolid
