solid 
 facet normal  0.000000e+00 -1.000000e+00  0.000000e+00
   outer loop
     vertex -2.867873e-01 -5.234375e-01  6.733759e-01
     vertex -3.593750e-01 -5.234375e-01  7.500000e-01
     vertex -6.015625e-01 -5.234375e-01  7.500000e-01
   endloop
 endfacet
 facet normal  0.000000e+00 -1.000000e+00  0.000000e+00
   outer loop
     vertex -2.867873e-01 -5.234375e-01  6.733759e-01
     vertex -2.968750e-01 -5.234375e-01  7.500000e-01
     vertex -3.593750e-01 -5.234375e-01  7.500000e-01
   endloop
 endfacet
 facet normal  0.000000e+00 -1.000000e+00  0.000000e+00
   outer loop
     vertex -2.572115e-01 -5.234375e-01  6.019737e-01
     vertex -2.867873e-01 -5.234375e-01  6.733759e-01
     vertex -6.015625e-01 -5.234375e-01  7.500000e-01
   endloop
 endfacet
 facet normal  0.000000e+00 -1.000000e+00  0.000000e+00
   outer loop
     vertex -6.015625e-01 -5.234375e-01  0.000000e+00
     vertex -1.488487e-01 -5.234375e-01  4.936109e-01
     vertex -2.101632e-01 -5.234375e-01  5.406592e-01
   endloop
 endfacet
 facet normal  0.000000e+00 -1.000000e+00  0.000000e+00
   outer loop
     vertex -6.015625e-01 -5.234375e-01  0.000000e+00
     vertex -2.101632e-01 -5.234375e-01  5.406592e-01
     vertex -2.572115e-01 -5.234375e-01  6.019737e-01
   endloop
 endfacet
 facet normal  0.000000e+00 -1.000000e+00  0.000000e+00
   outer loop
     vertex -6.015625e-01 -5.234375e-01  0.000000e+00
     vertex -2.572115e-01 -5.234375e-01  6.019737e-01
     vertex -6.015625e-01 -5.234375e-01  7.500000e-01
   endloop
 endfacet
 facet normal -0.000000e+00 -1.000000e+00  0.000000e+00
   outer loop
     vertex -7.744643e-02 -5.234375e-01  4.640351e-01
     vertex -1.488487e-01 -5.234375e-01  4.936109e-01
     vertex -6.015625e-01 -5.234375e-01  0.000000e+00
   endloop
 endfacet
 facet normal -0.000000e+00 -1.000000e+00  0.000000e+00
   outer loop
     vertex -8.223684e-04 -5.234375e-01  4.539474e-01
     vertex -7.744643e-02 -5.234375e-01  4.640351e-01
     vertex -6.015625e-01 -5.234375e-01  0.000000e+00
   endloop
 endfacet
 facet normal -0.000000e+00 -1.000000e+00  0.000000e+00
   outer loop
     vertex  3.828125e-01 -5.234375e-01  7.500000e-01
     vertex  2.952303e-01 -5.234375e-01  7.500000e-01
     vertex  2.851425e-01 -5.234375e-01  6.733759e-01
   endloop
 endfacet
 facet normal  0.000000e+00 -1.000000e+00  0.000000e+00
   outer loop
     vertex  2.555667e-01 -5.234375e-01  6.019737e-01
     vertex  3.828125e-01 -5.234375e-01  7.500000e-01
     vertex  2.851425e-01 -5.234375e-01  6.733759e-01
   endloop
 endfacet
 facet normal -0.000000e+00 -1.000000e+00  0.000000e+00
   outer loop
     vertex  6.093750e-01 -5.234375e-01  7.500000e-01
     vertex  3.828125e-01 -5.234375e-01  7.500000e-01
     vertex  2.555667e-01 -5.234375e-01  6.019737e-01
   endloop
 endfacet
 facet normal  0.000000e+00 -1.000000e+00  0.000000e+00
   outer loop
     vertex  6.093750e-01 -5.234375e-01  0.000000e+00
     vertex  2.555667e-01 -5.234375e-01  6.019737e-01
     vertex  2.085185e-01 -5.234375e-01  5.406592e-01
   endloop
 endfacet
 facet normal  0.000000e+00 -1.000000e+00  0.000000e+00
   outer loop
     vertex  6.093750e-01 -5.234375e-01  0.000000e+00
     vertex  2.085185e-01 -5.234375e-01  5.406592e-01
     vertex  1.472039e-01 -5.234375e-01  4.936109e-01
   endloop
 endfacet
 facet normal  0.000000e+00 -1.000000e+00  0.000000e+00
   outer loop
     vertex  6.093750e-01 -5.234375e-01  0.000000e+00
     vertex  1.472039e-01 -5.234375e-01  4.936109e-01
     vertex  7.580169e-02 -5.234375e-01  4.640351e-01
   endloop
 endfacet
 facet normal  0.000000e+00 -1.000000e+00  0.000000e+00
   outer loop
     vertex  6.093750e-01 -5.234375e-01  0.000000e+00
     vertex  7.580169e-02 -5.234375e-01  4.640351e-01
     vertex -8.223684e-04 -5.234375e-01  4.539474e-01
   endloop
 endfacet
 facet normal  0.000000e+00 -1.000000e+00  0.000000e+00
   outer loop
     vertex  6.093750e-01 -5.234375e-01  0.000000e+00
     vertex -8.223684e-04 -5.234375e-01  4.539474e-01
     vertex -6.015625e-01 -5.234375e-01  0.000000e+00
   endloop
 endfacet
 facet normal  0.000000e+00 -1.000000e+00  0.000000e+00
   outer loop
     vertex  6.093750e-01 -5.234375e-01  0.000000e+00
     vertex  6.093750e-01 -5.234375e-01  7.500000e-01
     vertex  2.555667e-01 -5.234375e-01  6.019737e-01
   endloop
 endfacet
 facet normal  0.000000e+00 -0.000000e+00 -1.000000e+00
   outer loop
     vertex -5.528783e-01  1.041353e-17  0.000000e+00
     vertex -5.103618e-01 -7.364065e-02  0.000000e+00
     vertex -6.015625e-01 -5.234375e-01  0.000000e+00
   endloop
 endfacet
 facet normal -0.000000e+00  0.000000e+00 -1.000000e+00
   outer loop
     vertex -4.253289e-01 -7.364065e-02  0.000000e+00
     vertex -6.015625e-01 -5.234375e-01  0.000000e+00
     vertex -5.103618e-01 -7.364065e-02  0.000000e+00
   endloop
 endfacet
 facet normal  0.000000e+00  0.000000e+00 -1.000000e+00
   outer loop
     vertex -6.015625e-01  5.472862e-01  0.000000e+00
     vertex -4.253289e-01  7.364065e-02  0.000000e+00
     vertex -5.103618e-01  7.364065e-02  0.000000e+00
   endloop
 endfacet
 facet normal  0.000000e+00  0.000000e+00 -1.000000e+00
   outer loop
     vertex -6.015625e-01  5.472862e-01  0.000000e+00
     vertex -5.103618e-01  7.364065e-02  0.000000e+00
     vertex -5.528783e-01  1.041353e-17  0.000000e+00
   endloop
 endfacet
 facet normal  0.000000e+00 -0.000000e+00 -1.000000e+00
   outer loop
     vertex  3.609444e-01 -4.110478e-02  0.000000e+00
     vertex  6.093750e-01 -5.234375e-01  0.000000e+00
     vertex -6.015625e-01 -5.234375e-01  0.000000e+00
   endloop
 endfacet
 facet normal -0.000000e+00  0.000000e+00 -1.000000e+00
   outer loop
     vertex  3.609444e-01 -4.110478e-02  0.000000e+00
     vertex -4.253289e-01 -7.364065e-02  0.000000e+00
     vertex -3.828125e-01  0.000000e+00  0.000000e+00
   endloop
 endfacet
 facet normal  0.000000e+00  0.000000e+00 -1.000000e+00
   outer loop
     vertex  3.609444e-01 -4.110478e-02  0.000000e+00
     vertex -6.015625e-01 -5.234375e-01  0.000000e+00
     vertex -4.253289e-01 -7.364065e-02  0.000000e+00
   endloop
 endfacet
 facet normal -0.000000e+00 -0.000000e+00 -1.000000e+00
   outer loop
     vertex  4.252184e-01 -9.236159e-02  0.000000e+00
     vertex  6.093750e-01 -5.234375e-01  0.000000e+00
     vertex  3.609444e-01 -4.110478e-02  0.000000e+00
   endloop
 endfacet
 facet normal -0.000000e+00  0.000000e+00 -1.000000e+00
   outer loop
     vertex  3.609444e-01  4.110478e-02  0.000000e+00
     vertex -3.828125e-01  0.000000e+00  0.000000e+00
     vertex -4.253289e-01  7.364065e-02  0.000000e+00
   endloop
 endfacet
 facet normal  0.000000e+00  0.000000e+00 -1.000000e+00
   outer loop
     vertex  3.609444e-01  4.110478e-02  0.000000e+00
     vertex  3.609444e-01 -4.110478e-02  0.000000e+00
     vertex -3.828125e-01  0.000000e+00  0.000000e+00
   endloop
 endfacet
 facet normal  0.000000e+00  0.000000e+00 -1.000000e+00
   outer loop
     vertex  3.609444e-01  4.110478e-02  0.000000e+00
     vertex -4.253289e-01  7.364065e-02  0.000000e+00
     vertex -6.015625e-01  5.472862e-01  0.000000e+00
   endloop
 endfacet
 facet normal  0.000000e+00 -0.000000e+00 -1.000000e+00
   outer loop
     vertex  5.053668e-01 -7.406825e-02  0.000000e+00
     vertex  6.093750e-01 -5.234375e-01  0.000000e+00
     vertex  4.252184e-01 -9.236159e-02  0.000000e+00
   endloop
 endfacet
 facet normal  0.000000e+00 -0.000000e+00 -1.000000e+00
   outer loop
     vertex  5.410362e-01  0.000000e+00  0.000000e+00
     vertex  6.093750e-01 -5.234375e-01  0.000000e+00
     vertex  5.053668e-01 -7.406825e-02  0.000000e+00
   endloop
 endfacet
 facet normal  0.000000e+00  0.000000e+00 -1.000000e+00
   outer loop
     vertex  6.093750e-01  5.472862e-01  0.000000e+00
     vertex  5.410362e-01  0.000000e+00  0.000000e+00
     vertex  5.053668e-01  7.406825e-02  0.000000e+00
   endloop
 endfacet
 facet normal  0.000000e+00  0.000000e+00 -1.000000e+00
   outer loop
     vertex  6.093750e-01  5.472862e-01  0.000000e+00
     vertex  5.053668e-01  7.406825e-02  0.000000e+00
     vertex  4.252184e-01  9.236159e-02  0.000000e+00
   endloop
 endfacet
 facet normal  0.000000e+00  0.000000e+00 -1.000000e+00
   outer loop
     vertex  6.093750e-01  5.472862e-01  0.000000e+00
     vertex  4.252184e-01  9.236159e-02  0.000000e+00
     vertex  3.609444e-01  4.110478e-02  0.000000e+00
   endloop
 endfacet
 facet normal -0.000000e+00  0.000000e+00 -1.000000e+00
   outer loop
     vertex  6.093750e-01  5.472862e-01  0.000000e+00
     vertex  3.609444e-01  4.110478e-02  0.000000e+00
     vertex -6.015625e-01  5.472862e-01  0.000000e+00
   endloop
 endfacet
 facet normal  0.000000e+00  0.000000e+00 -1.000000e+00
   outer loop
     vertex  6.093750e-01 -5.234375e-01  0.000000e+00
     vertex  5.410362e-01  0.000000e+00  0.000000e+00
     vertex  6.093750e-01  5.472862e-01  0.000000e+00
   endloop
 endfacet
 facet normal  0.000000e+00  0.000000e+00 -1.000000e+00
   outer loop
     vertex -6.015625e-01  5.472862e-01  0.000000e+00
     vertex -5.528783e-01  1.041353e-17  0.000000e+00
     vertex -6.015625e-01 -5.234375e-01  0.000000e+00
   endloop
 endfacet
 facet normal  1.000000e+00  0.000000e+00  0.000000e+00
   outer loop
     vertex  6.093750e-01  5.472862e-01  0.000000e+00
     vertex  6.093750e-01 -5.234375e-01  7.500000e-01
     vertex  6.093750e-01 -5.234375e-01  0.000000e+00
   endloop
 endfacet
 facet normal  1.000000e+00  0.000000e+00 -0.000000e+00
   outer loop
     vertex  6.093750e-01  5.472862e-01  0.000000e+00
     vertex  6.093750e-01  5.472862e-01  7.500000e-01
     vertex  6.093750e-01 -5.234375e-01  7.500000e-01
   endloop
 endfacet
 facet normal  0.000000e+00  0.000000e+00  1.000000e+00
   outer loop
     vertex  3.828125e-01 -7.031707e-02  7.500000e-01
     vertex  2.952303e-01  3.625599e-17  7.500000e-01
     vertex  2.952303e-01 -5.234375e-01  7.500000e-01
   endloop
 endfacet
 facet normal  0.000000e+00  0.000000e+00  1.000000e+00
   outer loop
     vertex  3.828125e-01 -7.031707e-02  7.500000e-01
     vertex  2.952303e-01 -5.234375e-01  7.500000e-01
     vertex  3.828125e-01 -5.234375e-01  7.500000e-01
   endloop
 endfacet
 facet normal  0.000000e+00  0.000000e+00  1.000000e+00
   outer loop
     vertex  3.659125e-01 -5.013014e-02  7.500000e-01
     vertex  2.952303e-01  3.625599e-17  7.500000e-01
     vertex  3.828125e-01 -7.031707e-02  7.500000e-01
   endloop
 endfacet
 facet normal  0.000000e+00  0.000000e+00  1.000000e+00
   outer loop
     vertex  3.552206e-01 -2.607180e-02  7.500000e-01
     vertex  2.952303e-01  3.625599e-17  7.500000e-01
     vertex  3.659125e-01 -5.013014e-02  7.500000e-01
   endloop
 endfacet
 facet normal  0.000000e+00  0.000000e+00  1.000000e+00
   outer loop
     vertex  3.515625e-01  4.353237e-17  7.500000e-01
     vertex  2.952303e-01  3.625599e-17  7.500000e-01
     vertex  3.552206e-01 -2.607180e-02  7.500000e-01
   endloop
 endfacet
 facet normal  0.000000e+00  0.000000e+00  1.000000e+00
   outer loop
     vertex  4.495199e-01 -9.468208e-02  7.500000e-01
     vertex  3.828125e-01 -7.031707e-02  7.500000e-01
     vertex  3.828125e-01 -5.234375e-01  7.500000e-01
   endloop
 endfacet
 facet normal  0.000000e+00  0.000000e+00  1.000000e+00
   outer loop
     vertex  4.495199e-01 -9.468208e-02  7.500000e-01
     vertex  3.828125e-01 -5.234375e-01  7.500000e-01
     vertex  6.093750e-01 -5.234375e-01  7.500000e-01
   endloop
 endfacet
 facet normal  0.000000e+00  0.000000e+00  1.000000e+00
   outer loop
     vertex  5.144175e-01 -6.584057e-02  7.500000e-01
     vertex  4.495199e-01 -9.468208e-02  7.500000e-01
     vertex  6.093750e-01 -5.234375e-01  7.500000e-01
   endloop
 endfacet
 facet normal  0.000000e+00  0.000000e+00  1.000000e+00
   outer loop
     vertex  5.410362e-01  0.000000e+00  7.500000e-01
     vertex  5.144175e-01 -6.584057e-02  7.500000e-01
     vertex  6.093750e-01 -5.234375e-01  7.500000e-01
   endloop
 endfacet
 facet normal  0.000000e+00  0.000000e+00  1.000000e+00
   outer loop
     vertex  3.828125e-01  5.472862e-01  7.500000e-01
     vertex  3.828125e-01  7.031707e-02  7.500000e-01
     vertex  4.495199e-01  9.468208e-02  7.500000e-01
   endloop
 endfacet
 facet normal  0.000000e+00  0.000000e+00  1.000000e+00
   outer loop
     vertex  6.093750e-01  5.472862e-01  7.500000e-01
     vertex  4.495199e-01  9.468208e-02  7.500000e-01
     vertex  5.144175e-01  6.584057e-02  7.500000e-01
   endloop
 endfacet
 facet normal  0.000000e+00  0.000000e+00  1.000000e+00
   outer loop
     vertex  6.093750e-01  5.472862e-01  7.500000e-01
     vertex  5.144175e-01  6.584057e-02  7.500000e-01
     vertex  5.410362e-01  0.000000e+00  7.500000e-01
   endloop
 endfacet
 facet normal  0.000000e+00  0.000000e+00  1.000000e+00
   outer loop
     vertex  6.093750e-01  5.472862e-01  7.500000e-01
     vertex  3.828125e-01  5.472862e-01  7.500000e-01
     vertex  4.495199e-01  9.468208e-02  7.500000e-01
   endloop
 endfacet
 facet normal  0.000000e+00 -0.000000e+00  1.000000e+00
   outer loop
     vertex  6.093750e-01 -5.234375e-01  7.500000e-01
     vertex  6.093750e-01  5.472862e-01  7.500000e-01
     vertex  5.410362e-01  0.000000e+00  7.500000e-01
   endloop
 endfacet
 facet normal  9.914449e-01 -1.333945e-16 -1.305262e-01
   outer loop
     vertex  2.851425e-01 -5.234375e-01  6.733759e-01
     vertex  2.952303e-01 -7.187500e-01  7.500000e-01
     vertex  2.851425e-01 -7.187500e-01  6.733759e-01
   endloop
 endfacet
 facet normal  9.914449e-01  0.000000e+00 -1.305262e-01
   outer loop
     vertex  2.851425e-01 -5.234375e-01  6.733759e-01
     vertex  2.952303e-01 -5.234375e-01  7.500000e-01
     vertex  2.952303e-01 -7.187500e-01  7.500000e-01
   endloop
 endfacet
 facet normal  9.238795e-01 -9.010402e-17 -3.826834e-01
   outer loop
     vertex  2.555667e-01 -5.234375e-01  6.019737e-01
     vertex  2.851425e-01 -7.187500e-01  6.733759e-01
     vertex  2.555667e-01 -7.187500e-01  6.019737e-01
   endloop
 endfacet
 facet normal  9.238795e-01  1.723832e-16 -3.826834e-01
   outer loop
     vertex  2.555667e-01 -5.234375e-01  6.019737e-01
     vertex  2.851425e-01 -5.234375e-01  6.733759e-01
     vertex  2.851425e-01 -7.187500e-01  6.733759e-01
   endloop
 endfacet
 facet normal  7.933533e-01 -4.353413e-16 -6.087614e-01
   outer loop
     vertex  2.085185e-01 -5.234375e-01  5.406592e-01
     vertex  2.555667e-01 -7.187500e-01  6.019737e-01
     vertex  2.085185e-01 -7.187500e-01  5.406592e-01
   endloop
 endfacet
 facet normal  7.933533e-01  2.298442e-16 -6.087614e-01
   outer loop
     vertex  2.085185e-01 -5.234375e-01  5.406592e-01
     vertex  2.555667e-01 -5.234375e-01  6.019737e-01
     vertex  2.555667e-01 -7.187500e-01  6.019737e-01
   endloop
 endfacet
 facet normal  6.087614e-01 -8.371993e-17 -7.933533e-01
   outer loop
     vertex  1.472039e-01 -5.234375e-01  4.936109e-01
     vertex  2.085185e-01 -7.187500e-01  5.406592e-01
     vertex  1.472039e-01 -7.187500e-01  4.936109e-01
   endloop
 endfacet
 facet normal  6.087614e-01  2.873053e-17 -7.933533e-01
   outer loop
     vertex  1.472039e-01 -5.234375e-01  4.936109e-01
     vertex  2.085185e-01 -5.234375e-01  5.406592e-01
     vertex  2.085185e-01 -7.187500e-01  5.406592e-01
   endloop
 endfacet
 facet normal  3.826834e-01 -4.265306e-16 -9.238795e-01
   outer loop
     vertex  7.580169e-02 -5.234375e-01  4.640351e-01
     vertex  1.472039e-01 -7.187500e-01  4.936109e-01
     vertex  7.580169e-02 -7.187500e-01  4.640351e-01
   endloop
 endfacet
 facet normal  3.826834e-01  5.746106e-16 -9.238795e-01
   outer loop
     vertex  7.580169e-02 -5.234375e-01  4.640351e-01
     vertex  1.472039e-01 -5.234375e-01  4.936109e-01
     vertex  1.472039e-01 -7.187500e-01  4.936109e-01
   endloop
 endfacet
 facet normal  1.305262e-01  0.000000e+00 -9.914449e-01
   outer loop
     vertex -8.223684e-04 -5.234375e-01  4.539474e-01
     vertex  7.580169e-02 -7.187500e-01  4.640351e-01
     vertex -8.223684e-04 -7.187500e-01  4.539474e-01
   endloop
 endfacet
 facet normal  1.305262e-01  2.370269e-16 -9.914449e-01
   outer loop
     vertex -8.223684e-04 -5.234375e-01  4.539474e-01
     vertex  7.580169e-02 -5.234375e-01  4.640351e-01
     vertex  7.580169e-02 -7.187500e-01  4.640351e-01
   endloop
 endfacet
 facet normal -1.305262e-01 -2.389656e-16 -9.914449e-01
   outer loop
     vertex -7.744643e-02 -5.234375e-01  4.640351e-01
     vertex -8.223684e-04 -7.187500e-01  4.539474e-01
     vertex -7.744643e-02 -7.187500e-01  4.640351e-01
   endloop
 endfacet
 facet normal -1.305262e-01  0.000000e+00 -9.914449e-01
   outer loop
     vertex -7.744643e-02 -5.234375e-01  4.640351e-01
     vertex -8.223684e-04 -5.234375e-01  4.539474e-01
     vertex -8.223684e-04 -7.187500e-01  4.539474e-01
   endloop
 endfacet
 facet normal -3.826834e-01 -5.515556e-16 -9.238795e-01
   outer loop
     vertex -1.488487e-01 -5.234375e-01  4.936109e-01
     vertex -7.744643e-02 -7.187500e-01  4.640351e-01
     vertex -1.488487e-01 -7.187500e-01  4.936109e-01
   endloop
 endfacet
 facet normal -3.826834e-01  4.309579e-16 -9.238795e-01
   outer loop
     vertex -1.488487e-01 -5.234375e-01  4.936109e-01
     vertex -7.744643e-02 -5.234375e-01  4.640351e-01
     vertex -7.744643e-02 -7.187500e-01  4.640351e-01
   endloop
 endfacet
 facet normal -6.087614e-01 -3.683630e-17 -7.933533e-01
   outer loop
     vertex -2.101632e-01 -5.234375e-01  5.406592e-01
     vertex -1.488487e-01 -7.187500e-01  4.936109e-01
     vertex -2.101632e-01 -7.187500e-01  5.406592e-01
   endloop
 endfacet
 facet normal -6.087614e-01  8.619159e-17 -7.933533e-01
   outer loop
     vertex -2.101632e-01 -5.234375e-01  5.406592e-01
     vertex -1.488487e-01 -5.234375e-01  4.936109e-01
     vertex -1.488487e-01 -7.187500e-01  4.936109e-01
   endloop
 endfacet
 facet normal -7.933533e-01 -2.411125e-16 -6.087614e-01
   outer loop
     vertex -2.572115e-01 -5.234375e-01  6.019737e-01
     vertex -2.101632e-01 -7.187500e-01  5.406592e-01
     vertex -2.572115e-01 -7.187500e-01  6.019737e-01
   endloop
 endfacet
 facet normal -7.933533e-01  4.309579e-16 -6.087614e-01
   outer loop
     vertex -2.572115e-01 -5.234375e-01  6.019737e-01
     vertex -2.101632e-01 -5.234375e-01  5.406592e-01
     vertex -2.101632e-01 -7.187500e-01  5.406592e-01
   endloop
 endfacet
 facet normal -9.238795e-01 -1.724783e-16 -3.826834e-01
   outer loop
     vertex -2.867873e-01 -5.234375e-01  6.733759e-01
     vertex -2.572115e-01 -7.187500e-01  6.019737e-01
     vertex -2.867873e-01 -7.187500e-01  6.733759e-01
   endloop
 endfacet
 facet normal -9.238795e-01  8.619159e-17 -3.826834e-01
   outer loop
     vertex -2.867873e-01 -5.234375e-01  6.733759e-01
     vertex -2.572115e-01 -5.234375e-01  6.019737e-01
     vertex -2.572115e-01 -7.187500e-01  6.019737e-01
   endloop
 endfacet
 facet normal -9.914449e-01 -0.000000e+00 -1.305262e-01
   outer loop
     vertex -2.968750e-01 -5.234375e-01  7.500000e-01
     vertex -2.867873e-01 -7.187500e-01  6.733759e-01
     vertex -2.968750e-01 -7.187500e-01  7.500000e-01
   endloop
 endfacet
 facet normal -9.914449e-01  1.364700e-16 -1.305262e-01
   outer loop
     vertex -2.968750e-01 -5.234375e-01  7.500000e-01
     vertex -2.867873e-01 -5.234375e-01  6.733759e-01
     vertex -2.867873e-01 -7.187500e-01  6.733759e-01
   endloop
 endfacet
 facet normal  0.000000e+00  0.000000e+00  1.000000e+00
   outer loop
     vertex -5.103618e-01 -7.364065e-02  7.500000e-01
     vertex -6.015625e-01 -5.234375e-01  7.500000e-01
     vertex -3.593750e-01 -5.234375e-01  7.500000e-01
   endloop
 endfacet
 facet normal  0.000000e+00  0.000000e+00  1.000000e+00
   outer loop
     vertex -5.528783e-01 -1.041353e-17  7.500000e-01
     vertex -6.015625e-01 -5.234375e-01  7.500000e-01
     vertex -5.103618e-01 -7.364065e-02  7.500000e-01
   endloop
 endfacet
 facet normal  0.000000e+00  0.000000e+00  1.000000e+00
   outer loop
     vertex -4.253289e-01 -7.364065e-02  7.500000e-01
     vertex -5.103618e-01 -7.364065e-02  7.500000e-01
     vertex -3.593750e-01 -5.234375e-01  7.500000e-01
   endloop
 endfacet
 facet normal  0.000000e+00  0.000000e+00  1.000000e+00
   outer loop
     vertex -3.593750e-01  0.000000e+00  7.500000e-01
     vertex -3.828125e-01  0.000000e+00  7.500000e-01
     vertex -4.253289e-01 -7.364065e-02  7.500000e-01
   endloop
 endfacet
 facet normal  0.000000e+00  0.000000e+00  1.000000e+00
   outer loop
     vertex -3.593750e-01  0.000000e+00  7.500000e-01
     vertex -4.253289e-01 -7.364065e-02  7.500000e-01
     vertex -3.593750e-01 -5.234375e-01  7.500000e-01
   endloop
 endfacet
 facet normal  0.000000e+00  0.000000e+00  1.000000e+00
   outer loop
     vertex -4.253289e-01  7.364065e-02  7.500000e-01
     vertex -3.828125e-01  0.000000e+00  7.500000e-01
     vertex -3.593750e-01  0.000000e+00  7.500000e-01
   endloop
 endfacet
 facet normal  0.000000e+00  0.000000e+00  1.000000e+00
   outer loop
     vertex -6.015625e-01  5.472862e-01  7.500000e-01
     vertex -5.528783e-01 -1.041353e-17  7.500000e-01
     vertex -5.103618e-01  7.364065e-02  7.500000e-01
   endloop
 endfacet
 facet normal  0.000000e+00  0.000000e+00  1.000000e+00
   outer loop
     vertex -3.593750e-01  5.472862e-01  7.500000e-01
     vertex -5.103618e-01  7.364065e-02  7.500000e-01
     vertex -4.253289e-01  7.364065e-02  7.500000e-01
   endloop
 endfacet
 facet normal  0.000000e+00  0.000000e+00  1.000000e+00
   outer loop
     vertex -3.593750e-01  5.472862e-01  7.500000e-01
     vertex -6.015625e-01  5.472862e-01  7.500000e-01
     vertex -5.103618e-01  7.364065e-02  7.500000e-01
   endloop
 endfacet
 facet normal  0.000000e+00  0.000000e+00  1.000000e+00
   outer loop
     vertex -3.593750e-01  5.472862e-01  7.500000e-01
     vertex -4.253289e-01  7.364065e-02  7.500000e-01
     vertex -3.593750e-01  0.000000e+00  7.500000e-01
   endloop
 endfacet
 facet normal  0.000000e+00  0.000000e+00  1.000000e+00
   outer loop
     vertex -6.015625e-01  5.472862e-01  7.500000e-01
     vertex -6.015625e-01 -5.234375e-01  7.500000e-01
     vertex -5.528783e-01 -1.041353e-17  7.500000e-01
   endloop
 endfacet
 facet normal  0.000000e+00  0.000000e+00  1.000000e+00
   outer loop
     vertex -2.968750e-01  3.081488e-33  7.500000e-01
     vertex -3.593750e-01  0.000000e+00  7.500000e-01
     vertex -3.593750e-01 -5.234375e-01  7.500000e-01
   endloop
 endfacet
 facet normal  0.000000e+00  0.000000e+00  1.000000e+00
   outer loop
     vertex -2.968750e-01  3.081488e-33  7.500000e-01
     vertex -3.593750e-01 -5.234375e-01  7.500000e-01
     vertex -2.968750e-01 -5.234375e-01  7.500000e-01
   endloop
 endfacet
 facet normal -1.000000e+00  0.000000e+00  0.000000e+00
   outer loop
     vertex -6.015625e-01 -5.234375e-01  0.000000e+00
     vertex -6.015625e-01  5.472862e-01  7.500000e-01
     vertex -6.015625e-01  5.472862e-01  0.000000e+00
   endloop
 endfacet
 facet normal -1.000000e+00  0.000000e+00  0.000000e+00
   outer loop
     vertex -6.015625e-01 -5.234375e-01  0.000000e+00
     vertex -6.015625e-01 -5.234375e-01  7.500000e-01
     vertex -6.015625e-01  5.472862e-01  7.500000e-01
   endloop
 endfacet
 facet normal  0.000000e+00  1.000000e+00  0.000000e+00
   outer loop
     vertex  2.851425e-01  5.472862e-01  6.733759e-01
     vertex  2.952303e-01  5.472862e-01  7.500000e-01
     vertex  3.828125e-01  5.472862e-01  7.500000e-01
   endloop
 endfacet
 facet normal  0.000000e+00  1.000000e+00  0.000000e+00
   outer loop
     vertex  2.555667e-01  5.472862e-01  6.019737e-01
     vertex  3.828125e-01  5.472862e-01  7.500000e-01
     vertex  6.093750e-01  5.472862e-01  7.500000e-01
   endloop
 endfacet
 facet normal  0.000000e+00  1.000000e+00  0.000000e+00
   outer loop
     vertex  2.555667e-01  5.472862e-01  6.019737e-01
     vertex  2.851425e-01  5.472862e-01  6.733759e-01
     vertex  3.828125e-01  5.472862e-01  7.500000e-01
   endloop
 endfacet
 facet normal  0.000000e+00  1.000000e+00  0.000000e+00
   outer loop
     vertex  6.093750e-01  5.472862e-01  0.000000e+00
     vertex  1.472039e-01  5.472862e-01  4.936109e-01
     vertex  2.085185e-01  5.472862e-01  5.406592e-01
   endloop
 endfacet
 facet normal  0.000000e+00  1.000000e+00  0.000000e+00
   outer loop
     vertex  6.093750e-01  5.472862e-01  0.000000e+00
     vertex  2.085185e-01  5.472862e-01  5.406592e-01
     vertex  2.555667e-01  5.472862e-01  6.019737e-01
   endloop
 endfacet
 facet normal  0.000000e+00  1.000000e+00 -0.000000e+00
   outer loop
     vertex  6.093750e-01  5.472862e-01  0.000000e+00
     vertex  2.555667e-01  5.472862e-01  6.019737e-01
     vertex  6.093750e-01  5.472862e-01  7.500000e-01
   endloop
 endfacet
 facet normal -0.000000e+00  1.000000e+00  0.000000e+00
   outer loop
     vertex  7.580169e-02  5.472862e-01  4.640351e-01
     vertex  1.472039e-01  5.472862e-01  4.936109e-01
     vertex  6.093750e-01  5.472862e-01  0.000000e+00
   endloop
 endfacet
 facet normal -0.000000e+00  1.000000e+00  0.000000e+00
   outer loop
     vertex -8.223684e-04  5.472862e-01  4.539474e-01
     vertex  7.580169e-02  5.472862e-01  4.640351e-01
     vertex  6.093750e-01  5.472862e-01  0.000000e+00
   endloop
 endfacet
 facet normal  0.000000e+00  1.000000e+00  0.000000e+00
   outer loop
     vertex -2.867873e-01  5.472862e-01  6.733759e-01
     vertex -3.593750e-01  5.472862e-01  7.500000e-01
     vertex -2.968750e-01  5.472862e-01  7.500000e-01
   endloop
 endfacet
 facet normal  0.000000e+00  1.000000e+00  0.000000e+00
   outer loop
     vertex -6.015625e-01  5.472862e-01  7.500000e-01
     vertex -2.867873e-01  5.472862e-01  6.733759e-01
     vertex -2.572115e-01  5.472862e-01  6.019737e-01
   endloop
 endfacet
 facet normal -0.000000e+00  1.000000e+00  0.000000e+00
   outer loop
     vertex -6.015625e-01  5.472862e-01  7.500000e-01
     vertex -3.593750e-01  5.472862e-01  7.500000e-01
     vertex -2.867873e-01  5.472862e-01  6.733759e-01
   endloop
 endfacet
 facet normal  0.000000e+00  1.000000e+00  0.000000e+00
   outer loop
     vertex -6.015625e-01  5.472862e-01  0.000000e+00
     vertex -2.572115e-01  5.472862e-01  6.019737e-01
     vertex -2.101632e-01  5.472862e-01  5.406592e-01
   endloop
 endfacet
 facet normal  0.000000e+00  1.000000e+00  0.000000e+00
   outer loop
     vertex -6.015625e-01  5.472862e-01  0.000000e+00
     vertex -2.101632e-01  5.472862e-01  5.406592e-01
     vertex -1.488487e-01  5.472862e-01  4.936109e-01
   endloop
 endfacet
 facet normal  0.000000e+00  1.000000e+00  0.000000e+00
   outer loop
     vertex -6.015625e-01  5.472862e-01  0.000000e+00
     vertex -1.488487e-01  5.472862e-01  4.936109e-01
     vertex -7.744643e-02  5.472862e-01  4.640351e-01
   endloop
 endfacet
 facet normal  0.000000e+00  1.000000e+00  0.000000e+00
   outer loop
     vertex -6.015625e-01  5.472862e-01  0.000000e+00
     vertex -7.744643e-02  5.472862e-01  4.640351e-01
     vertex -8.223684e-04  5.472862e-01  4.539474e-01
   endloop
 endfacet
 facet normal  0.000000e+00  1.000000e+00  0.000000e+00
   outer loop
     vertex -6.015625e-01  5.472862e-01  0.000000e+00
     vertex -8.223684e-04  5.472862e-01  4.539474e-01
     vertex  6.093750e-01  5.472862e-01  0.000000e+00
   endloop
 endfacet
 facet normal  0.000000e+00  1.000000e+00  0.000000e+00
   outer loop
     vertex -6.015625e-01  5.472862e-01  0.000000e+00
     vertex -6.015625e-01  5.472862e-01  7.500000e-01
     vertex -2.572115e-01  5.472862e-01  6.019737e-01
   endloop
 endfacet
 facet normal -8.660254e-01  5.000000e-01  0.000000e+00
   outer loop
     vertex -3.828125e-01  0.000000e+00  0.000000e+00
     vertex -4.253289e-01 -7.364065e-02  7.500000e-01
     vertex -3.828125e-01  0.000000e+00  7.500000e-01
   endloop
 endfacet
 facet normal -1.632049e-16  1.000000e+00 -5.551115e-17
   outer loop
     vertex -4.253289e-01 -7.364065e-02  0.000000e+00
     vertex -5.103618e-01 -7.364065e-02  7.500000e-01
     vertex -4.253289e-01 -7.364065e-02  7.500000e-01
   endloop
 endfacet
 facet normal -8.660254e-01  5.000000e-01  1.004419e-16
   outer loop
     vertex -4.253289e-01 -7.364065e-02  0.000000e+00
     vertex -4.253289e-01 -7.364065e-02  7.500000e-01
     vertex -3.828125e-01  0.000000e+00  0.000000e+00
   endloop
 endfacet
 facet normal  8.660254e-01  5.000000e-01  1.850372e-17
   outer loop
     vertex -5.103618e-01 -7.364065e-02  0.000000e+00
     vertex -5.528783e-01 -1.041353e-17  7.500000e-01
     vertex -5.103618e-01 -7.364065e-02  7.500000e-01
   endloop
 endfacet
 facet normal  6.528197e-16  1.000000e+00  3.700743e-17
   outer loop
     vertex -5.103618e-01 -7.364065e-02  0.000000e+00
     vertex -5.103618e-01 -7.364065e-02  7.500000e-01
     vertex -4.253289e-01 -7.364065e-02  0.000000e+00
   endloop
 endfacet
 facet normal  8.660254e-01 -5.000000e-01 -1.388470e-17
   outer loop
     vertex -5.528783e-01  1.041353e-17  0.000000e+00
     vertex -5.103618e-01  7.364065e-02  7.500000e-01
     vertex -5.528783e-01 -1.041353e-17  7.500000e-01
   endloop
 endfacet
 facet normal  8.660254e-01  5.000000e-01  1.388470e-17
   outer loop
     vertex -5.528783e-01  1.041353e-17  0.000000e+00
     vertex -5.528783e-01 -1.041353e-17  7.500000e-01
     vertex -5.103618e-01 -7.364065e-02  0.000000e+00
   endloop
 endfacet
 facet normal  6.528197e-16 -1.000000e+00 -3.700743e-17
   outer loop
     vertex -5.103618e-01  7.364065e-02  0.000000e+00
     vertex -4.253289e-01  7.364065e-02  7.500000e-01
     vertex -5.103618e-01  7.364065e-02  7.500000e-01
   endloop
 endfacet
 facet normal  8.660254e-01 -5.000000e-01 -1.850372e-17
   outer loop
     vertex -5.103618e-01  7.364065e-02  0.000000e+00
     vertex -5.103618e-01  7.364065e-02  7.500000e-01
     vertex -5.528783e-01  1.041353e-17  0.000000e+00
   endloop
 endfacet
 facet normal -8.660254e-01 -5.000000e-01 -1.004419e-16
   outer loop
     vertex -4.253289e-01  7.364065e-02  0.000000e+00
     vertex -3.828125e-01  0.000000e+00  7.500000e-01
     vertex -4.253289e-01  7.364065e-02  7.500000e-01
   endloop
 endfacet
 facet normal -1.632049e-16 -1.000000e+00  5.551115e-17
   outer loop
     vertex -4.253289e-01  7.364065e-02  0.000000e+00
     vertex -4.253289e-01  7.364065e-02  7.500000e-01
     vertex -5.103618e-01  7.364065e-02  0.000000e+00
   endloop
 endfacet
 facet normal -8.660254e-01 -5.000000e-01  0.000000e+00
   outer loop
     vertex -3.828125e-01  0.000000e+00  0.000000e+00
     vertex -3.828125e-01  0.000000e+00  7.500000e-01
     vertex -4.253289e-01  7.364065e-02  0.000000e+00
   endloop
 endfacet
 facet normal -9.270991e-01  3.748164e-01  0.000000e+00
   outer loop
     vertex  5.410362e-01  0.000000e+00  0.000000e+00
     vertex  5.144175e-01 -6.584057e-02  7.500000e-01
     vertex  5.410362e-01  0.000000e+00  7.500000e-01
   endloop
 endfacet
 facet normal -4.061111e-01  9.138093e-01 -5.123892e-03
   outer loop
     vertex  5.053668e-01 -7.406825e-02  0.000000e+00
     vertex  4.495199e-01 -9.468208e-02  7.500000e-01
     vertex  5.144175e-01 -6.584057e-02  7.500000e-01
   endloop
 endfacet
 facet normal -9.009520e-01  4.338756e-01  6.112659e-03
   outer loop
     vertex  5.053668e-01 -7.406825e-02  0.000000e+00
     vertex  5.144175e-01 -6.584057e-02  7.500000e-01
     vertex  5.410362e-01  0.000000e+00  0.000000e+00
   endloop
 endfacet
 facet normal  3.430715e-01  9.392734e-01 -8.210101e-03
   outer loop
     vertex  4.252184e-01 -9.236159e-02  0.000000e+00
     vertex  3.828125e-01 -7.031707e-02  7.500000e-01
     vertex  4.495199e-01 -9.468208e-02  7.500000e-01
   endloop
 endfacet
 facet normal -2.225093e-01  9.748769e-01  1.022601e-02
   outer loop
     vertex  4.252184e-01 -9.236159e-02  0.000000e+00
     vertex  4.495199e-01 -9.468208e-02  7.500000e-01
     vertex  5.053668e-01 -7.406825e-02  0.000000e+00
   endloop
 endfacet
 facet normal  7.667685e-01  6.419183e-01  2.645511e-03
   outer loop
     vertex  3.609444e-01 -4.110478e-02  0.000000e+00
     vertex  3.659125e-01 -5.013014e-02  7.500000e-01
     vertex  3.828125e-01 -7.031707e-02  7.500000e-01
   endloop
 endfacet
 facet normal  9.138207e-01  4.061162e-01 -1.166192e-03
   outer loop
     vertex  3.609444e-01 -4.110478e-02  0.000000e+00
     vertex  3.552206e-01 -2.607180e-02  7.500000e-01
     vertex  3.659125e-01 -5.013014e-02  7.500000e-01
   endloop
 endfacet
 facet normal  9.902883e-01  1.389474e-01  4.772505e-03
   outer loop
     vertex  3.609444e-01 -4.110478e-02  0.000000e+00
     vertex  3.515625e-01  4.353237e-17  7.500000e-01
     vertex  3.552206e-01 -2.607180e-02  7.500000e-01
   endloop
 endfacet
 facet normal  6.234429e-01  7.817726e-01  1.227181e-02
   outer loop
     vertex  3.609444e-01 -4.110478e-02  0.000000e+00
     vertex  3.828125e-01 -7.031707e-02  7.500000e-01
     vertex  4.252184e-01 -9.236159e-02  0.000000e+00
   endloop
 endfacet
 facet normal  9.902883e-01 -1.389474e-01  4.772505e-03
   outer loop
     vertex  3.609444e-01  4.110478e-02  0.000000e+00
     vertex  3.552206e-01  2.607180e-02  7.500000e-01
     vertex  3.515625e-01  4.353237e-17  7.500000e-01
   endloop
 endfacet
 facet normal  9.138207e-01 -4.061162e-01 -1.166192e-03
   outer loop
     vertex  3.609444e-01  4.110478e-02  0.000000e+00
     vertex  3.659125e-01  5.013014e-02  7.500000e-01
     vertex  3.552206e-01  2.607180e-02  7.500000e-01
   endloop
 endfacet
 facet normal  7.667685e-01 -6.419183e-01  2.645511e-03
   outer loop
     vertex  3.609444e-01  4.110478e-02  0.000000e+00
     vertex  3.828125e-01  7.031707e-02  7.500000e-01
     vertex  3.659125e-01  5.013014e-02  7.500000e-01
   endloop
 endfacet
 facet normal  9.999218e-01 -6.751869e-16  1.250822e-02
   outer loop
     vertex  3.609444e-01  4.110478e-02  0.000000e+00
     vertex  3.515625e-01  4.353237e-17  7.500000e-01
     vertex  3.609444e-01 -4.110478e-02  0.000000e+00
   endloop
 endfacet
 facet normal  3.430715e-01 -9.392734e-01 -8.210101e-03
   outer loop
     vertex  4.252184e-01  9.236159e-02  0.000000e+00
     vertex  4.495199e-01  9.468208e-02  7.500000e-01
     vertex  3.828125e-01  7.031707e-02  7.500000e-01
   endloop
 endfacet
 facet normal  6.234429e-01 -7.817726e-01  1.227181e-02
   outer loop
     vertex  4.252184e-01  9.236159e-02  0.000000e+00
     vertex  3.828125e-01  7.031707e-02  7.500000e-01
     vertex  3.609444e-01  4.110478e-02  0.000000e+00
   endloop
 endfacet
 facet normal -4.061111e-01 -9.138093e-01 -5.123892e-03
   outer loop
     vertex  5.053668e-01  7.406825e-02  0.000000e+00
     vertex  5.144175e-01  6.584057e-02  7.500000e-01
     vertex  4.495199e-01  9.468208e-02  7.500000e-01
   endloop
 endfacet
 facet normal -2.225093e-01 -9.748769e-01  1.022601e-02
   outer loop
     vertex  5.053668e-01  7.406825e-02  0.000000e+00
     vertex  4.495199e-01  9.468208e-02  7.500000e-01
     vertex  4.252184e-01  9.236159e-02  0.000000e+00
   endloop
 endfacet
 facet normal -9.270991e-01 -3.748164e-01  0.000000e+00
   outer loop
     vertex  5.410362e-01  0.000000e+00  0.000000e+00
     vertex  5.410362e-01  0.000000e+00  7.500000e-01
     vertex  5.144175e-01  6.584057e-02  7.500000e-01
   endloop
 endfacet
 facet normal -9.009520e-01 -4.338756e-01  6.112659e-03
   outer loop
     vertex  5.410362e-01  0.000000e+00  0.000000e+00
     vertex  5.144175e-01  6.584057e-02  7.500000e-01
     vertex  5.053668e-01  7.406825e-02  0.000000e+00
   endloop
 endfacet
 facet normal  0.000000e+00  0.000000e+00  1.000000e+00
   outer loop
     vertex  2.952303e-01 -5.234375e-01  7.500000e-01
     vertex  1.595395e-01 -7.187500e-01  7.500000e-01
     vertex  2.952303e-01 -7.187500e-01  7.500000e-01
   endloop
 endfacet
 facet normal  0.000000e+00  0.000000e+00  1.000000e+00
   outer loop
     vertex  1.595395e-01  2.986084e-17  7.500000e-01
     vertex  1.595395e-01 -7.187500e-01  7.500000e-01
     vertex  2.952303e-01 -5.234375e-01  7.500000e-01
   endloop
 endfacet
 facet normal  0.000000e+00  0.000000e+00  1.000000e+00
   outer loop
     vertex  2.952303e-01  3.625599e-17  7.500000e-01
     vertex  1.595395e-01  2.986084e-17  7.500000e-01
     vertex  2.952303e-01 -5.234375e-01  7.500000e-01
   endloop
 endfacet
 facet normal  0.000000e+00  0.000000e+00  1.000000e+00
   outer loop
     vertex  3.552206e-01  2.607180e-02  7.500000e-01
     vertex  2.952303e-01  3.625599e-17  7.500000e-01
     vertex  3.515625e-01  4.353237e-17  7.500000e-01
   endloop
 endfacet
 facet normal  0.000000e+00  0.000000e+00  1.000000e+00
   outer loop
     vertex  3.659125e-01  5.013014e-02  7.500000e-01
     vertex  2.952303e-01  3.625599e-17  7.500000e-01
     vertex  3.552206e-01  2.607180e-02  7.500000e-01
   endloop
 endfacet
 facet normal  0.000000e+00  0.000000e+00  1.000000e+00
   outer loop
     vertex  3.828125e-01  7.031707e-02  7.500000e-01
     vertex  2.952303e-01  3.625599e-17  7.500000e-01
     vertex  3.659125e-01  5.013014e-02  7.500000e-01
   endloop
 endfacet
 facet normal  0.000000e+00  0.000000e+00  1.000000e+00
   outer loop
     vertex  2.952303e-01  5.472862e-01  7.500000e-01
     vertex  2.952303e-01  3.625599e-17  7.500000e-01
     vertex  3.828125e-01  7.031707e-02  7.500000e-01
   endloop
 endfacet
 facet normal  0.000000e+00  0.000000e+00  1.000000e+00
   outer loop
     vertex  3.828125e-01  5.472862e-01  7.500000e-01
     vertex  2.952303e-01  5.472862e-01  7.500000e-01
     vertex  3.828125e-01  7.031707e-02  7.500000e-01
   endloop
 endfacet
 facet normal  0.000000e+00 -1.000000e+00  0.000000e+00
   outer loop
     vertex -8.100329e-02 -7.187500e-01  6.111226e-01
     vertex -2.101632e-01 -7.187500e-01  5.406592e-01
     vertex -1.488487e-01 -7.187500e-01  4.936109e-01
   endloop
 endfacet
 facet normal  0.000000e+00 -1.000000e+00 -0.000000e+00
   outer loop
     vertex -8.100329e-02 -7.187500e-01  6.111226e-01
     vertex -1.488487e-01 -7.187500e-01  4.936109e-01
     vertex -7.744643e-02 -7.187500e-01  4.640351e-01
   endloop
 endfacet
 facet normal -0.000000e+00 -1.000000e+00  0.000000e+00
   outer loop
     vertex -1.396998e-01 -7.187500e-01  6.698191e-01
     vertex -2.867873e-01 -7.187500e-01  6.733759e-01
     vertex -2.572115e-01 -7.187500e-01  6.019737e-01
   endloop
 endfacet
 facet normal  0.000000e+00 -1.000000e+00  0.000000e+00
   outer loop
     vertex -1.396998e-01 -7.187500e-01  6.698191e-01
     vertex -2.572115e-01 -7.187500e-01  6.019737e-01
     vertex -2.101632e-01 -7.187500e-01  5.406592e-01
   endloop
 endfacet
 facet normal  0.000000e+00 -1.000000e+00 -0.000000e+00
   outer loop
     vertex -1.396998e-01 -7.187500e-01  6.698191e-01
     vertex -2.101632e-01 -7.187500e-01  5.406592e-01
     vertex -8.100329e-02 -7.187500e-01  6.111226e-01
   endloop
 endfacet
 facet normal  0.000000e+00 -1.000000e+00 -0.000000e+00
   outer loop
     vertex -8.223684e-04 -7.187500e-01  5.896382e-01
     vertex -7.744643e-02 -7.187500e-01  4.640351e-01
     vertex -8.223684e-04 -7.187500e-01  4.539474e-01
   endloop
 endfacet
 facet normal  0.000000e+00 -1.000000e+00  0.000000e+00
   outer loop
     vertex -8.223684e-04 -7.187500e-01  5.896382e-01
     vertex -8.223684e-04 -7.187500e-01  4.539474e-01
     vertex  7.580169e-02 -7.187500e-01  4.640351e-01
   endloop
 endfacet
 facet normal -0.000000e+00 -1.000000e+00  0.000000e+00
   outer loop
     vertex -8.223684e-04 -7.187500e-01  5.896382e-01
     vertex -8.100329e-02 -7.187500e-01  6.111226e-01
     vertex -7.744643e-02 -7.187500e-01  4.640351e-01
   endloop
 endfacet
 facet normal -0.000000e+00 -1.000000e+00  0.000000e+00
   outer loop
     vertex -1.611842e-01 -7.187500e-01  7.500000e-01
     vertex -2.968750e-01 -7.187500e-01  7.500000e-01
     vertex -2.867873e-01 -7.187500e-01  6.733759e-01
   endloop
 endfacet
 facet normal  0.000000e+00 -1.000000e+00 -0.000000e+00
   outer loop
     vertex -1.611842e-01 -7.187500e-01  7.500000e-01
     vertex -2.867873e-01 -7.187500e-01  6.733759e-01
     vertex -1.396998e-01 -7.187500e-01  6.698191e-01
   endloop
 endfacet
 facet normal  0.000000e+00 -1.000000e+00 -0.000000e+00
   outer loop
     vertex  7.935855e-02 -7.187500e-01  6.111226e-01
     vertex  7.580169e-02 -7.187500e-01  4.640351e-01
     vertex  1.472039e-01 -7.187500e-01  4.936109e-01
   endloop
 endfacet
 facet normal  0.000000e+00 -1.000000e+00  0.000000e+00
   outer loop
     vertex  7.935855e-02 -7.187500e-01  6.111226e-01
     vertex -8.223684e-04 -7.187500e-01  5.896382e-01
     vertex  7.580169e-02 -7.187500e-01  4.640351e-01
   endloop
 endfacet
 facet normal -0.000000e+00 -1.000000e+00  0.000000e+00
   outer loop
     vertex  2.085185e-01 -7.187500e-01  5.406592e-01
     vertex  7.935855e-02 -7.187500e-01  6.111226e-01
     vertex  1.472039e-01 -7.187500e-01  4.936109e-01
   endloop
 endfacet
 facet normal  0.000000e+00 -1.000000e+00 -0.000000e+00
   outer loop
     vertex  1.380551e-01 -7.187500e-01  6.698191e-01
     vertex  7.935855e-02 -7.187500e-01  6.111226e-01
     vertex  2.085185e-01 -7.187500e-01  5.406592e-01
   endloop
 endfacet
 facet normal -0.000000e+00 -1.000000e+00  0.000000e+00
   outer loop
     vertex  2.555667e-01 -7.187500e-01  6.019737e-01
     vertex  1.380551e-01 -7.187500e-01  6.698191e-01
     vertex  2.085185e-01 -7.187500e-01  5.406592e-01
   endloop
 endfacet
 facet normal -0.000000e+00 -1.000000e+00  0.000000e+00
   outer loop
     vertex  2.851425e-01 -7.187500e-01  6.733759e-01
     vertex  1.595395e-01 -7.187500e-01  7.500000e-01
     vertex  1.380551e-01 -7.187500e-01  6.698191e-01
   endloop
 endfacet
 facet normal  0.000000e+00 -1.000000e+00  0.000000e+00
   outer loop
     vertex  2.851425e-01 -7.187500e-01  6.733759e-01
     vertex  1.380551e-01 -7.187500e-01  6.698191e-01
     vertex  2.555667e-01 -7.187500e-01  6.019737e-01
   endloop
 endfacet
 facet normal -0.000000e+00 -1.000000e+00  0.000000e+00
   outer loop
     vertex  2.952303e-01 -7.187500e-01  7.500000e-01
     vertex  1.595395e-01 -7.187500e-01  7.500000e-01
     vertex  2.851425e-01 -7.187500e-01  6.733759e-01
   endloop
 endfacet
 facet normal  0.000000e+00  0.000000e+00  1.000000e+00
   outer loop
     vertex -2.968750e-01 -5.234375e-01  7.500000e-01
     vertex -2.968750e-01 -7.187500e-01  7.500000e-01
     vertex -1.611842e-01 -7.187500e-01  7.500000e-01
   endloop
 endfacet
 facet normal  0.000000e+00  0.000000e+00  1.000000e+00
   outer loop
     vertex -1.611842e-01  1.022218e-17  7.500000e-01
     vertex -2.968750e-01  3.081488e-33  7.500000e-01
     vertex -2.968750e-01 -5.234375e-01  7.500000e-01
   endloop
 endfacet
 facet normal  0.000000e+00  0.000000e+00  1.000000e+00
   outer loop
     vertex -1.611842e-01  1.022218e-17  7.500000e-01
     vertex -2.968750e-01 -5.234375e-01  7.500000e-01
     vertex -1.611842e-01 -7.187500e-01  7.500000e-01
   endloop
 endfacet
 facet normal  0.000000e+00  0.000000e+00  1.000000e+00
   outer loop
     vertex -2.968750e-01  5.472862e-01  7.500000e-01
     vertex -3.593750e-01  5.472862e-01  7.500000e-01
     vertex -3.593750e-01  0.000000e+00  7.500000e-01
   endloop
 endfacet
 facet normal  0.000000e+00  0.000000e+00  1.000000e+00
   outer loop
     vertex -2.968750e-01  5.472862e-01  7.500000e-01
     vertex -3.593750e-01  0.000000e+00  7.500000e-01
     vertex -2.968750e-01  3.081488e-33  7.500000e-01
   endloop
 endfacet
 facet normal -9.914449e-01  0.000000e+00 -1.305262e-01
   outer loop
     vertex -2.968750e-01  5.472862e-01  7.500000e-01
     vertex -2.968750e-01  7.187500e-01  7.500000e-01
     vertex -2.867873e-01  7.187500e-01  6.733759e-01
   endloop
 endfacet
 facet normal -9.914449e-01  0.000000e+00 -1.305262e-01
   outer loop
     vertex -2.867873e-01  5.472862e-01  6.733759e-01
     vertex -2.968750e-01  5.472862e-01  7.500000e-01
     vertex -2.867873e-01  7.187500e-01  6.733759e-01
   endloop
 endfacet
 facet normal -9.238795e-01  0.000000e+00 -3.826834e-01
   outer loop
     vertex -2.572115e-01  5.472862e-01  6.019737e-01
     vertex -2.867873e-01  7.187500e-01  6.733759e-01
     vertex -2.572115e-01  7.187500e-01  6.019737e-01
   endloop
 endfacet
 facet normal -9.238795e-01  0.000000e+00 -3.826834e-01
   outer loop
     vertex -2.572115e-01  5.472862e-01  6.019737e-01
     vertex -2.867873e-01  5.472862e-01  6.733759e-01
     vertex -2.867873e-01  7.187500e-01  6.733759e-01
   endloop
 endfacet
 facet normal -7.933533e-01  0.000000e+00 -6.087614e-01
   outer loop
     vertex -2.101632e-01  5.472862e-01  5.406592e-01
     vertex -2.572115e-01  7.187500e-01  6.019737e-01
     vertex -2.101632e-01  7.187500e-01  5.406592e-01
   endloop
 endfacet
 facet normal -7.933533e-01  0.000000e+00 -6.087614e-01
   outer loop
     vertex -2.101632e-01  5.472862e-01  5.406592e-01
     vertex -2.572115e-01  5.472862e-01  6.019737e-01
     vertex -2.572115e-01  7.187500e-01  6.019737e-01
   endloop
 endfacet
 facet normal -6.087614e-01  0.000000e+00 -7.933533e-01
   outer loop
     vertex -1.488487e-01  5.472862e-01  4.936109e-01
     vertex -2.101632e-01  7.187500e-01  5.406592e-01
     vertex -1.488487e-01  7.187500e-01  4.936109e-01
   endloop
 endfacet
 facet normal -6.087614e-01  0.000000e+00 -7.933533e-01
   outer loop
     vertex -1.488487e-01  5.472862e-01  4.936109e-01
     vertex -2.101632e-01  5.472862e-01  5.406592e-01
     vertex -2.101632e-01  7.187500e-01  5.406592e-01
   endloop
 endfacet
 facet normal -3.826834e-01  0.000000e+00 -9.238795e-01
   outer loop
     vertex -7.744643e-02  5.472862e-01  4.640351e-01
     vertex -1.488487e-01  7.187500e-01  4.936109e-01
     vertex -7.744643e-02  7.187500e-01  4.640351e-01
   endloop
 endfacet
 facet normal -3.826834e-01  0.000000e+00 -9.238795e-01
   outer loop
     vertex -7.744643e-02  5.472862e-01  4.640351e-01
     vertex -1.488487e-01  5.472862e-01  4.936109e-01
     vertex -1.488487e-01  7.187500e-01  4.936109e-01
   endloop
 endfacet
 facet normal -1.305262e-01  0.000000e+00 -9.914449e-01
   outer loop
     vertex -8.223684e-04  5.472862e-01  4.539474e-01
     vertex -7.744643e-02  7.187500e-01  4.640351e-01
     vertex -8.223684e-04  7.187500e-01  4.539474e-01
   endloop
 endfacet
 facet normal -1.305262e-01  0.000000e+00 -9.914449e-01
   outer loop
     vertex -8.223684e-04  5.472862e-01  4.539474e-01
     vertex -7.744643e-02  5.472862e-01  4.640351e-01
     vertex -7.744643e-02  7.187500e-01  4.640351e-01
   endloop
 endfacet
 facet normal  1.305262e-01  0.000000e+00 -9.914449e-01
   outer loop
     vertex  7.580169e-02  5.472862e-01  4.640351e-01
     vertex -8.223684e-04  5.472862e-01  4.539474e-01
     vertex -8.223684e-04  7.187500e-01  4.539474e-01
   endloop
 endfacet
 facet normal  1.305262e-01  0.000000e+00 -9.914449e-01
   outer loop
     vertex  7.580169e-02  5.472862e-01  4.640351e-01
     vertex -8.223684e-04  7.187500e-01  4.539474e-01
     vertex  7.580169e-02  7.187500e-01  4.640351e-01
   endloop
 endfacet
 facet normal  3.826834e-01  0.000000e+00 -9.238795e-01
   outer loop
     vertex  1.472039e-01  5.472862e-01  4.936109e-01
     vertex  7.580169e-02  7.187500e-01  4.640351e-01
     vertex  1.472039e-01  7.187500e-01  4.936109e-01
   endloop
 endfacet
 facet normal  3.826834e-01  0.000000e+00 -9.238795e-01
   outer loop
     vertex  1.472039e-01  5.472862e-01  4.936109e-01
     vertex  7.580169e-02  5.472862e-01  4.640351e-01
     vertex  7.580169e-02  7.187500e-01  4.640351e-01
   endloop
 endfacet
 facet normal  6.087614e-01  0.000000e+00 -7.933533e-01
   outer loop
     vertex  2.085185e-01  5.472862e-01  5.406592e-01
     vertex  1.472039e-01  7.187500e-01  4.936109e-01
     vertex  2.085185e-01  7.187500e-01  5.406592e-01
   endloop
 endfacet
 facet normal  6.087614e-01  0.000000e+00 -7.933533e-01
   outer loop
     vertex  2.085185e-01  5.472862e-01  5.406592e-01
     vertex  1.472039e-01  5.472862e-01  4.936109e-01
     vertex  1.472039e-01  7.187500e-01  4.936109e-01
   endloop
 endfacet
 facet normal  7.933533e-01  0.000000e+00 -6.087614e-01
   outer loop
     vertex  2.555667e-01  5.472862e-01  6.019737e-01
     vertex  2.085185e-01  7.187500e-01  5.406592e-01
     vertex  2.555667e-01  7.187500e-01  6.019737e-01
   endloop
 endfacet
 facet normal  7.933533e-01  0.000000e+00 -6.087614e-01
   outer loop
     vertex  2.555667e-01  5.472862e-01  6.019737e-01
     vertex  2.085185e-01  5.472862e-01  5.406592e-01
     vertex  2.085185e-01  7.187500e-01  5.406592e-01
   endloop
 endfacet
 facet normal  9.238795e-01  0.000000e+00 -3.826834e-01
   outer loop
     vertex  2.851425e-01  5.472862e-01  6.733759e-01
     vertex  2.555667e-01  7.187500e-01  6.019737e-01
     vertex  2.851425e-01  7.187500e-01  6.733759e-01
   endloop
 endfacet
 facet normal  9.238795e-01  0.000000e+00 -3.826834e-01
   outer loop
     vertex  2.851425e-01  5.472862e-01  6.733759e-01
     vertex  2.555667e-01  5.472862e-01  6.019737e-01
     vertex  2.555667e-01  7.187500e-01  6.019737e-01
   endloop
 endfacet
 facet normal  9.914449e-01  0.000000e+00 -1.305262e-01
   outer loop
     vertex  2.952303e-01  5.472862e-01  7.500000e-01
     vertex  2.851425e-01  7.187500e-01  6.733759e-01
     vertex  2.952303e-01  7.187500e-01  7.500000e-01
   endloop
 endfacet
 facet normal  9.914449e-01  0.000000e+00 -1.305262e-01
   outer loop
     vertex  2.952303e-01  5.472862e-01  7.500000e-01
     vertex  2.851425e-01  5.472862e-01  6.733759e-01
     vertex  2.851425e-01  7.187500e-01  6.733759e-01
   endloop
 endfacet
 facet normal  0.000000e+00 -0.000000e+00  1.000000e+00
   outer loop
     vertex  2.952303e-01  5.472862e-01  7.500000e-01
     vertex  2.952303e-01  7.187500e-01  7.500000e-01
     vertex  1.595395e-01  7.187500e-01  7.500000e-01
   endloop
 endfacet
 facet normal  0.000000e+00  0.000000e+00  1.000000e+00
   outer loop
     vertex  1.595395e-01  2.986084e-17  7.500000e-01
     vertex  2.952303e-01  5.472862e-01  7.500000e-01
     vertex  1.595395e-01  7.187500e-01  7.500000e-01
   endloop
 endfacet
 facet normal  0.000000e+00 -0.000000e+00  1.000000e+00
   outer loop
     vertex  2.952303e-01  3.625599e-17  7.500000e-01
     vertex  2.952303e-01  5.472862e-01  7.500000e-01
     vertex  1.595395e-01  2.986084e-17  7.500000e-01
   endloop
 endfacet
 facet normal -9.659258e-01  0.000000e+00  2.588190e-01
   outer loop
     vertex  1.380551e-01  2.172212e-17  6.698191e-01
     vertex  1.595395e-01 -7.187500e-01  7.500000e-01
     vertex  1.595395e-01  2.986084e-17  7.500000e-01
   endloop
 endfacet
 facet normal -9.659258e-01 -1.492025e-16  2.588190e-01
   outer loop
     vertex  1.380551e-01  2.172212e-17  6.698191e-01
     vertex  1.380551e-01 -7.187500e-01  6.698191e-01
     vertex  1.595395e-01 -7.187500e-01  7.500000e-01
   endloop
 endfacet
 facet normal -7.071068e-01 -9.557085e-17  7.071068e-01
   outer loop
     vertex  7.935855e-02  1.453387e-17  6.111226e-01
     vertex  7.935855e-02 -7.187500e-01  6.111226e-01
     vertex  1.380551e-01 -7.187500e-01  6.698191e-01
   endloop
 endfacet
 facet normal -7.071068e-01 -1.090326e-16  7.071068e-01
   outer loop
     vertex  7.935855e-02  1.453387e-17  6.111226e-01
     vertex  1.380551e-01 -7.187500e-01  6.698191e-01
     vertex  1.380551e-01  2.172212e-17  6.698191e-01
   endloop
 endfacet
 facet normal -2.588190e-01 -3.599644e-17  9.659258e-01
   outer loop
     vertex -8.223684e-04  8.308665e-18  5.896382e-01
     vertex -8.223684e-04 -7.187500e-01  5.896382e-01
     vertex  7.935855e-02 -7.187500e-01  6.111226e-01
   endloop
 endfacet
 facet normal -2.588190e-01 -3.634420e-17  9.659258e-01
   outer loop
     vertex -8.223684e-04  8.308665e-18  5.896382e-01
     vertex  7.935855e-02 -7.187500e-01  6.111226e-01
     vertex  7.935855e-02  1.453387e-17  6.111226e-01
   endloop
 endfacet
 facet normal  2.588190e-01  3.498136e-17  9.659258e-01
   outer loop
     vertex -8.100329e-02  4.714540e-18  6.111226e-01
     vertex -8.100329e-02 -7.187500e-01  6.111226e-01
     vertex -8.223684e-04 -7.187500e-01  5.896382e-01
   endloop
 endfacet
 facet normal  2.588190e-01  3.634420e-17  9.659258e-01
   outer loop
     vertex -8.100329e-02  4.714540e-18  6.111226e-01
     vertex -8.223684e-04 -7.187500e-01  5.896382e-01
     vertex -8.223684e-04  8.308665e-18  5.896382e-01
   endloop
 endfacet
 facet normal  9.659258e-01  1.492025e-16  2.588190e-01
   outer loop
     vertex -1.396998e-01  4.714540e-18  6.698191e-01
     vertex -1.611842e-01 -7.187500e-01  7.500000e-01
     vertex -1.396998e-01 -7.187500e-01  6.698191e-01
   endloop
 endfacet
 facet normal  7.071068e-01  1.092238e-16  7.071068e-01
   outer loop
     vertex -1.396998e-01  4.714540e-18  6.698191e-01
     vertex -1.396998e-01 -7.187500e-01  6.698191e-01
     vertex -8.100329e-02 -7.187500e-01  6.111226e-01
   endloop
 endfacet
 facet normal  7.071068e-01  9.449493e-17  7.071068e-01
   outer loop
     vertex -1.396998e-01  4.714540e-18  6.698191e-01
     vertex -8.100329e-02 -7.187500e-01  6.111226e-01
     vertex -8.100329e-02  4.714540e-18  6.111226e-01
   endloop
 endfacet
 facet normal  9.659258e-01  0.000000e+00  2.588190e-01
   outer loop
     vertex -1.611842e-01  1.022218e-17  7.500000e-01
     vertex -1.611842e-01 -7.187500e-01  7.500000e-01
     vertex -1.396998e-01  4.714540e-18  6.698191e-01
   endloop
 endfacet
 facet normal  0.000000e+00  0.000000e+00  1.000000e+00
   outer loop
     vertex -2.968750e-01  5.472862e-01  7.500000e-01
     vertex -1.611842e-01  7.187500e-01  7.500000e-01
     vertex -2.968750e-01  7.187500e-01  7.500000e-01
   endloop
 endfacet
 facet normal  0.000000e+00  0.000000e+00  1.000000e+00
   outer loop
     vertex -1.611842e-01  1.022218e-17  7.500000e-01
     vertex -2.968750e-01  5.472862e-01  7.500000e-01
     vertex -2.968750e-01  3.081488e-33  7.500000e-01
   endloop
 endfacet
 facet normal  0.000000e+00 -0.000000e+00  1.000000e+00
   outer loop
     vertex -1.611842e-01  1.022218e-17  7.500000e-01
     vertex -1.611842e-01  7.187500e-01  7.500000e-01
     vertex -2.968750e-01  5.472862e-01  7.500000e-01
   endloop
 endfacet
 facet normal  0.000000e+00  1.000000e+00  0.000000e+00
   outer loop
     vertex -8.100329e-02  7.187500e-01  6.111226e-01
     vertex -1.488487e-01  7.187500e-01  4.936109e-01
     vertex -2.101632e-01  7.187500e-01  5.406592e-01
   endloop
 endfacet
 facet normal  0.000000e+00  1.000000e+00  0.000000e+00
   outer loop
     vertex -8.100329e-02  7.187500e-01  6.111226e-01
     vertex -7.744643e-02  7.187500e-01  4.640351e-01
     vertex -1.488487e-01  7.187500e-01  4.936109e-01
   endloop
 endfacet
 facet normal  0.000000e+00  1.000000e+00  0.000000e+00
   outer loop
     vertex -1.396998e-01  7.187500e-01  6.698191e-01
     vertex -2.572115e-01  7.187500e-01  6.019737e-01
     vertex -2.867873e-01  7.187500e-01  6.733759e-01
   endloop
 endfacet
 facet normal  0.000000e+00  1.000000e+00  0.000000e+00
   outer loop
     vertex -1.396998e-01  7.187500e-01  6.698191e-01
     vertex -2.101632e-01  7.187500e-01  5.406592e-01
     vertex -2.572115e-01  7.187500e-01  6.019737e-01
   endloop
 endfacet
 facet normal  0.000000e+00  1.000000e+00  0.000000e+00
   outer loop
     vertex -1.396998e-01  7.187500e-01  6.698191e-01
     vertex -8.100329e-02  7.187500e-01  6.111226e-01
     vertex -2.101632e-01  7.187500e-01  5.406592e-01
   endloop
 endfacet
 facet normal  0.000000e+00  1.000000e+00  0.000000e+00
   outer loop
     vertex -8.223684e-04  7.187500e-01  5.896382e-01
     vertex -8.223684e-04  7.187500e-01  4.539474e-01
     vertex -7.744643e-02  7.187500e-01  4.640351e-01
   endloop
 endfacet
 facet normal  0.000000e+00  1.000000e+00  0.000000e+00
   outer loop
     vertex -8.223684e-04  7.187500e-01  5.896382e-01
     vertex  7.580169e-02  7.187500e-01  4.640351e-01
     vertex -8.223684e-04  7.187500e-01  4.539474e-01
   endloop
 endfacet
 facet normal  0.000000e+00  1.000000e+00  0.000000e+00
   outer loop
     vertex -8.223684e-04  7.187500e-01  5.896382e-01
     vertex -7.744643e-02  7.187500e-01  4.640351e-01
     vertex -8.100329e-02  7.187500e-01  6.111226e-01
   endloop
 endfacet
 facet normal  0.000000e+00  1.000000e+00  0.000000e+00
   outer loop
     vertex -1.611842e-01  7.187500e-01  7.500000e-01
     vertex -2.867873e-01  7.187500e-01  6.733759e-01
     vertex -2.968750e-01  7.187500e-01  7.500000e-01
   endloop
 endfacet
 facet normal  0.000000e+00  1.000000e+00  0.000000e+00
   outer loop
     vertex -1.611842e-01  7.187500e-01  7.500000e-01
     vertex -1.396998e-01  7.187500e-01  6.698191e-01
     vertex -2.867873e-01  7.187500e-01  6.733759e-01
   endloop
 endfacet
 facet normal  0.000000e+00  1.000000e+00  0.000000e+00
   outer loop
     vertex  7.935855e-02  7.187500e-01  6.111226e-01
     vertex  1.472039e-01  7.187500e-01  4.936109e-01
     vertex  7.580169e-02  7.187500e-01  4.640351e-01
   endloop
 endfacet
 facet normal  0.000000e+00  1.000000e+00  0.000000e+00
   outer loop
     vertex  7.935855e-02  7.187500e-01  6.111226e-01
     vertex  7.580169e-02  7.187500e-01  4.640351e-01
     vertex -8.223684e-04  7.187500e-01  5.896382e-01
   endloop
 endfacet
 facet normal  0.000000e+00  1.000000e+00  0.000000e+00
   outer loop
     vertex  2.085185e-01  7.187500e-01  5.406592e-01
     vertex  1.472039e-01  7.187500e-01  4.936109e-01
     vertex  7.935855e-02  7.187500e-01  6.111226e-01
   endloop
 endfacet
 facet normal  0.000000e+00  1.000000e+00  0.000000e+00
   outer loop
     vertex  1.380551e-01  7.187500e-01  6.698191e-01
     vertex  2.085185e-01  7.187500e-01  5.406592e-01
     vertex  7.935855e-02  7.187500e-01  6.111226e-01
   endloop
 endfacet
 facet normal  0.000000e+00  1.000000e+00  0.000000e+00
   outer loop
     vertex  2.555667e-01  7.187500e-01  6.019737e-01
     vertex  2.085185e-01  7.187500e-01  5.406592e-01
     vertex  1.380551e-01  7.187500e-01  6.698191e-01
   endloop
 endfacet
 facet normal  0.000000e+00  1.000000e+00  0.000000e+00
   outer loop
     vertex  2.851425e-01  7.187500e-01  6.733759e-01
     vertex  1.380551e-01  7.187500e-01  6.698191e-01
     vertex  1.595395e-01  7.187500e-01  7.500000e-01
   endloop
 endfacet
 facet normal  0.000000e+00  1.000000e+00  0.000000e+00
   outer loop
     vertex  2.851425e-01  7.187500e-01  6.733759e-01
     vertex  2.555667e-01  7.187500e-01  6.019737e-01
     vertex  1.380551e-01  7.187500e-01  6.698191e-01
   endloop
 endfacet
 facet normal  0.000000e+00  1.000000e+00  0.000000e+00
   outer loop
     vertex  2.952303e-01  7.187500e-01  7.500000e-01
     vertex  2.851425e-01  7.187500e-01  6.733759e-01
     vertex  1.595395e-01  7.187500e-01  7.500000e-01
   endloop
 endfacet
 facet normal -2.588190e-01  0.000000e+00  9.659258e-01
   outer loop
     vertex  7.935855e-02  1.453387e-17  6.111226e-01
     vertex -8.223684e-04  7.187500e-01  5.896382e-01
     vertex -8.223684e-04  8.308665e-18  5.896382e-01
   endloop
 endfacet
 facet normal -2.588190e-01  0.000000e+00  9.659258e-01
   outer loop
     vertex  7.935855e-02  1.453387e-17  6.111226e-01
     vertex  7.935855e-02  7.187500e-01  6.111226e-01
     vertex -8.223684e-04  7.187500e-01  5.896382e-01
   endloop
 endfacet
 facet normal -7.071068e-01  0.000000e+00  7.071068e-01
   outer loop
     vertex  1.380551e-01  2.172212e-17  6.698191e-01
     vertex  1.380551e-01  7.187500e-01  6.698191e-01
     vertex  7.935855e-02  7.187500e-01  6.111226e-01
   endloop
 endfacet
 facet normal -9.659258e-01  0.000000e+00  2.588190e-01
   outer loop
     vertex  1.380551e-01  2.172212e-17  6.698191e-01
     vertex  1.595395e-01  7.187500e-01  7.500000e-01
     vertex  1.380551e-01  7.187500e-01  6.698191e-01
   endloop
 endfacet
 facet normal -7.071068e-01  0.000000e+00  7.071068e-01
   outer loop
     vertex  1.380551e-01  2.172212e-17  6.698191e-01
     vertex  7.935855e-02  7.187500e-01  6.111226e-01
     vertex  7.935855e-02  1.453387e-17  6.111226e-01
   endloop
 endfacet
 facet normal -9.659258e-01  0.000000e+00  2.588190e-01
   outer loop
     vertex  1.595395e-01  2.986084e-17  7.500000e-01
     vertex  1.595395e-01  7.187500e-01  7.500000e-01
     vertex  1.380551e-01  2.172212e-17  6.698191e-01
   endloop
 endfacet
 facet normal  9.659258e-01 -0.000000e+00  2.588190e-01
   outer loop
     vertex -1.611842e-01  1.022218e-17  7.500000e-01
     vertex -1.396998e-01  7.187500e-01  6.698191e-01
     vertex -1.611842e-01  7.187500e-01  7.500000e-01
   endloop
 endfacet
 facet normal  9.659258e-01 -0.000000e+00  2.588190e-01
   outer loop
     vertex -1.396998e-01  4.714540e-18  6.698191e-01
     vertex -1.396998e-01  7.187500e-01  6.698191e-01
     vertex -1.611842e-01  1.022218e-17  7.500000e-01
   endloop
 endfacet
 facet normal  7.071068e-01 -0.000000e+00  7.071068e-01
   outer loop
     vertex -8.100329e-02  4.714540e-18  6.111226e-01
     vertex -8.100329e-02  7.187500e-01  6.111226e-01
     vertex -1.396998e-01  7.187500e-01  6.698191e-01
   endloop
 endfacet
 facet normal  2.588190e-01 -0.000000e+00  9.659258e-01
   outer loop
     vertex -8.100329e-02  4.714540e-18  6.111226e-01
     vertex -8.223684e-04  7.187500e-01  5.896382e-01
     vertex -8.100329e-02  7.187500e-01  6.111226e-01
   endloop
 endfacet
 facet normal  7.071068e-01  0.000000e+00  7.071068e-01
   outer loop
     vertex -8.100329e-02  4.714540e-18  6.111226e-01
     vertex -1.396998e-01  7.187500e-01  6.698191e-01
     vertex -1.396998e-01  4.714540e-18  6.698191e-01
   endloop
 endfacet
 facet normal  2.588190e-01 -0.000000e+00  9.659258e-01
   outer loop
     vertex -8.223684e-04  8.308665e-18  5.896382e-01
     vertex -8.223684e-04  7.187500e-01  5.896382e-01
     vertex -8.100329e-02  4.714540e-18  6.111226e-01
   endloop
 endfacet
endsolid
