solid 
 facet normal -9.235917e-01  0.000000e+00  3.833777e-01
   outer loop
     vertex  1.250000e-01  0.000000e+00  3.828125e-01
     vertex  1.575658e-01 -7.812500e-03  4.612664e-01
     vertex  1.575658e-01  6.797998e-18  4.612664e-01
   endloop
 endfacet
 facet normal -9.235917e-01  0.000000e+00  3.833777e-01
   outer loop
     vertex  1.250000e-01  0.000000e+00  3.828125e-01
     vertex  1.250000e-01 -7.812500e-03  3.828125e-01
     vertex  1.575658e-01 -7.812500e-03  4.612664e-01
   endloop
 endfacet
 facet normal  1.357188e-01  0.000000e+00  9.907474e-01
   outer loop
     vertex  1.575658e-01  6.797998e-18  4.612664e-01
     vertex  2.656250e-01 -7.812500e-03  4.464638e-01
     vertex  2.656250e-01  1.250832e-17  4.464638e-01
   endloop
 endfacet
 facet normal  1.357188e-01  0.000000e+00  9.907474e-01
   outer loop
     vertex  1.575658e-01  6.797998e-18  4.612664e-01
     vertex  1.575658e-01 -7.812500e-03  4.612664e-01
     vertex  2.656250e-01 -7.812500e-03  4.464638e-01
   endloop
 endfacet
 facet normal -3.778970e-01  0.000000e+00 -9.258476e-01
   outer loop
     vertex  1.975329e-01  2.628559e-18  3.532072e-01
     vertex  1.250000e-01 -7.812500e-03  3.828125e-01
     vertex  1.250000e-01  0.000000e+00  3.828125e-01
   endloop
 endfacet
 facet normal -3.778970e-01 -0.000000e+00 -9.258476e-01
   outer loop
     vertex  1.975329e-01  2.628559e-18  3.532072e-01
     vertex  1.975329e-01 -7.812500e-03  3.532072e-01
     vertex  1.250000e-01 -7.812500e-03  3.828125e-01
   endloop
 endfacet
 facet normal -9.235917e-01  0.000000e+00  3.833777e-01
   outer loop
     vertex  1.250000e-01  0.000000e+00  3.828125e-01
     vertex  1.575658e-01  6.797998e-18  4.612664e-01
     vertex  1.575658e-01  7.812500e-03  4.612664e-01
   endloop
 endfacet
 facet normal -9.235917e-01  0.000000e+00  3.833777e-01
   outer loop
     vertex  1.250000e-01  0.000000e+00  3.828125e-01
     vertex  1.575658e-01  7.812500e-03  4.612664e-01
     vertex  1.250000e-01  7.812500e-03  3.828125e-01
   endloop
 endfacet
 facet normal -0.000000e+00 -1.000000e+00  0.000000e+00
   outer loop
     vertex  2.656250e-01 -7.812500e-03  4.464638e-01
     vertex  1.575658e-01 -7.812500e-03  4.612664e-01
     vertex  1.250000e-01 -7.812500e-03  3.828125e-01
   endloop
 endfacet
 facet normal  8.076259e-01  0.000000e+00 -5.896951e-01
   outer loop
     vertex  2.656250e-01  1.250832e-17  4.464638e-01
     vertex  1.975329e-01 -7.812500e-03  3.532072e-01
     vertex  1.975329e-01  2.628559e-18  3.532072e-01
   endloop
 endfacet
 facet normal  8.076259e-01  0.000000e+00 -5.896951e-01
   outer loop
     vertex  2.656250e-01  1.250832e-17  4.464638e-01
     vertex  2.656250e-01 -7.812500e-03  4.464638e-01
     vertex  1.975329e-01 -7.812500e-03  3.532072e-01
   endloop
 endfacet
 facet normal  1.357188e-01  0.000000e+00  9.907474e-01
   outer loop
     vertex  1.575658e-01  6.797998e-18  4.612664e-01
     vertex  2.656250e-01  1.250832e-17  4.464638e-01
     vertex  2.656250e-01  7.812500e-03  4.464638e-01
   endloop
 endfacet
 facet normal  1.357188e-01 -0.000000e+00  9.907474e-01
   outer loop
     vertex  1.575658e-01  6.797998e-18  4.612664e-01
     vertex  2.656250e-01  7.812500e-03  4.464638e-01
     vertex  1.575658e-01  7.812500e-03  4.612664e-01
   endloop
 endfacet
 facet normal -3.778970e-01  0.000000e+00 -9.258476e-01
   outer loop
     vertex  1.975329e-01  2.628559e-18  3.532072e-01
     vertex  1.250000e-01  0.000000e+00  3.828125e-01
     vertex  1.250000e-01  7.812500e-03  3.828125e-01
   endloop
 endfacet
 facet normal -3.778970e-01  0.000000e+00 -9.258476e-01
   outer loop
     vertex  1.975329e-01  2.628559e-18  3.532072e-01
     vertex  1.250000e-01  7.812500e-03  3.828125e-01
     vertex  1.975329e-01  7.812500e-03  3.532072e-01
   endloop
 endfacet
 facet normal  0.000000e+00 -1.000000e+00  0.000000e+00
   outer loop
     vertex  2.656250e-01 -7.812500e-03  4.464638e-01
     vertex  1.250000e-01 -7.812500e-03  3.828125e-01
     vertex  1.975329e-01 -7.812500e-03  3.532072e-01
   endloop
 endfacet
 facet normal  0.000000e+00  1.000000e+00  0.000000e+00
   outer loop
     vertex  2.656250e-01  7.812500e-03  4.464638e-01
     vertex  1.250000e-01  7.812500e-03  3.828125e-01
     vertex  1.575658e-01  7.812500e-03  4.612664e-01
   endloop
 endfacet
 facet normal  8.076259e-01  0.000000e+00 -5.896951e-01
   outer loop
     vertex  2.656250e-01  1.250832e-17  4.464638e-01
     vertex  1.975329e-01  2.628559e-18  3.532072e-01
     vertex  1.975329e-01  7.812500e-03  3.532072e-01
   endloop
 endfacet
 facet normal  8.076259e-01  0.000000e+00 -5.896951e-01
   outer loop
     vertex  2.656250e-01  1.250832e-17  4.464638e-01
     vertex  1.975329e-01  7.812500e-03  3.532072e-01
     vertex  2.656250e-01  7.812500e-03  4.464638e-01
   endloop
 endfacet
 facet normal  0.000000e+00  1.000000e+00  0.000000e+00
   outer loop
     vertex  2.656250e-01  7.812500e-03  4.464638e-01
     vertex  1.975329e-01  7.812500e-03  3.532072e-01
     vertex  1.250000e-01  7.812500e-03  3.828125e-01
   endloop
 endfacet
 facet normal  7.071068e-01 -7.071068e-01  0.000000e+00
   outer loop
     vertex  3.289474e-04 -3.157895e-02  0.000000e+00
     vertex  3.190789e-02  0.000000e+00  0.000000e+00
     vertex  3.190789e-02  0.000000e+00  7.500000e-01
   endloop
 endfacet
 facet normal  7.071068e-01 -7.071068e-01  0.000000e+00
   outer loop
     vertex  3.289474e-04 -3.157895e-02  0.000000e+00
     vertex  3.190789e-02  0.000000e+00  7.500000e-01
     vertex  3.289474e-04 -3.157895e-02  7.500000e-01
   endloop
 endfacet
 facet normal -7.071068e-01 -7.071068e-01  0.000000e+00
   outer loop
     vertex -3.125000e-02  3.867306e-18  0.000000e+00
     vertex  3.289474e-04 -3.157895e-02  7.500000e-01
     vertex -3.125000e-02  3.867306e-18  7.500000e-01
   endloop
 endfacet
 facet normal -7.071068e-01 -7.071068e-01  0.000000e+00
   outer loop
     vertex -3.125000e-02  3.867306e-18  0.000000e+00
     vertex  3.289474e-04 -3.157895e-02  0.000000e+00
     vertex  3.289474e-04 -3.157895e-02  7.500000e-01
   endloop
 endfacet
 facet normal -7.071068e-01  7.071068e-01  0.000000e+00
   outer loop
     vertex  3.289474e-04  3.157895e-02  0.000000e+00
     vertex -3.125000e-02  3.867306e-18  7.500000e-01
     vertex  3.289474e-04  3.157895e-02  7.500000e-01
   endloop
 endfacet
 facet normal -7.071068e-01  7.071068e-01  0.000000e+00
   outer loop
     vertex  3.289474e-04  3.157895e-02  0.000000e+00
     vertex -3.125000e-02  3.867306e-18  0.000000e+00
     vertex -3.125000e-02  3.867306e-18  7.500000e-01
   endloop
 endfacet
 facet normal  7.071068e-01  7.071068e-01 -0.000000e+00
   outer loop
     vertex  3.190789e-02  0.000000e+00  0.000000e+00
     vertex  3.289474e-04  3.157895e-02  7.500000e-01
     vertex  3.190789e-02  0.000000e+00  7.500000e-01
   endloop
 endfacet
 facet normal  7.071068e-01  7.071068e-01  0.000000e+00
   outer loop
     vertex  3.190789e-02  0.000000e+00  0.000000e+00
     vertex  3.289474e-04  3.157895e-02  0.000000e+00
     vertex  3.289474e-04  3.157895e-02  7.500000e-01
   endloop
 endfacet
 facet normal  0.000000e+00  0.000000e+00 -1.000000e+00
   outer loop
     vertex  3.289474e-04  3.157895e-02  0.000000e+00
     vertex  3.289474e-04 -3.157895e-02  0.000000e+00
     vertex -3.125000e-02  3.867306e-18  0.000000e+00
   endloop
 endfacet
 facet normal  0.000000e+00 -0.000000e+00 -1.000000e+00
   outer loop
     vertex  3.289474e-04  3.157895e-02  0.000000e+00
     vertex  3.190789e-02  0.000000e+00  0.000000e+00
     vertex  3.289474e-04 -3.157895e-02  0.000000e+00
   endloop
 endfacet
 facet normal  0.000000e+00  0.000000e+00  1.000000e+00
   outer loop
     vertex  3.289474e-04  3.157895e-02  7.500000e-01
     vertex -3.125000e-02  3.867306e-18  7.500000e-01
     vertex  3.289474e-04 -3.157895e-02  7.500000e-01
   endloop
 endfacet
 facet normal  0.000000e+00  0.000000e+00  1.000000e+00
   outer loop
     vertex  3.289474e-04  3.157895e-02  7.500000e-01
     vertex  3.289474e-04 -3.157895e-02  7.500000e-01
     vertex  3.190789e-02  0.000000e+00  7.500000e-01
   endloop
 endfacet
endsolid
