solid 
 facet normal -7.071068e-01  0.000000e+00 -7.071068e-01
   outer loop
     vertex  5.555099e-01  5.035554e-20  4.683065e-18
     vertex  5.941612e-01  5.035554e-20 -3.865132e-02
     vertex  5.941612e-01 -1.953125e-01 -3.865132e-02
   endloop
 endfacet
 facet normal -7.071068e-01 -4.329780e-17 -7.071068e-01
   outer loop
     vertex  5.555099e-01  5.035554e-20  4.683065e-18
     vertex  5.941612e-01 -1.953125e-01 -3.865132e-02
     vertex  5.555099e-01 -1.953125e-01  1.664251e-17
   endloop
 endfacet
 facet normal -7.071068e-01  2.512148e-17  7.071068e-01
   outer loop
     vertex  5.941612e-01  4.783777e-18  3.865132e-02
     vertex  5.555099e-01 -1.953125e-01  1.664251e-17
     vertex  5.941612e-01 -1.953125e-01  3.865132e-02
   endloop
 endfacet
 facet normal -7.071068e-01  2.031098e-17  7.071068e-01
   outer loop
     vertex  5.941612e-01  4.783777e-18  3.865132e-02
     vertex  5.555099e-01  5.035554e-20  4.683065e-18
     vertex  5.555099e-01 -1.953125e-01  1.664251e-17
   endloop
 endfacet
 facet normal  7.071068e-01  4.329780e-17  7.071068e-01
   outer loop
     vertex  6.328125e-01  4.783777e-18 -4.783777e-18
     vertex  5.941612e-01 -1.953125e-01  3.865132e-02
     vertex  6.328125e-01 -1.953125e-01  7.175665e-18
   endloop
 endfacet
 facet normal  7.071068e-01  2.031098e-17  7.071068e-01
   outer loop
     vertex  6.328125e-01  4.783777e-18 -4.783777e-18
     vertex  5.941612e-01  4.783777e-18  3.865132e-02
     vertex  5.941612e-01 -1.953125e-01  3.865132e-02
   endloop
 endfacet
 facet normal  7.071068e-01  0.000000e+00 -7.071068e-01
   outer loop
     vertex  5.941612e-01  5.035554e-20 -3.865132e-02
     vertex  6.328125e-01 -1.953125e-01  7.175665e-18
     vertex  5.941612e-01 -1.953125e-01 -3.865132e-02
   endloop
 endfacet
 facet normal  7.071068e-01 -6.093295e-17 -7.071068e-01
   outer loop
     vertex  5.941612e-01  5.035554e-20 -3.865132e-02
     vertex  6.328125e-01  4.783777e-18 -4.783777e-18
     vertex  6.328125e-01 -1.953125e-01  7.175665e-18
   endloop
 endfacet
 facet normal -6.123234e-17  1.000000e+00 -6.123234e-17
   outer loop
     vertex  5.941612e-01  4.783777e-18  3.865132e-02
     vertex  6.328125e-01  4.783777e-18 -4.783777e-18
     vertex  5.941612e-01  5.035554e-20 -3.865132e-02
   endloop
 endfacet
 facet normal -6.123234e-17  1.000000e+00 -6.123234e-17
   outer loop
     vertex  5.941612e-01  4.783777e-18  3.865132e-02
     vertex  5.941612e-01  5.035554e-20 -3.865132e-02
     vertex  5.555099e-01  5.035554e-20  4.683065e-18
   endloop
 endfacet
 facet normal  0.000000e+00 -1.000000e+00  0.000000e+00
   outer loop
     vertex  5.941612e-01 -1.953125e-01  3.865132e-02
     vertex  5.941612e-01 -1.953125e-01 -3.865132e-02
     vertex  6.328125e-01 -1.953125e-01  7.175665e-18
   endloop
 endfacet
 facet normal  0.000000e+00 -1.000000e+00 -0.000000e+00
   outer loop
     vertex  5.941612e-01 -1.953125e-01  3.865132e-02
     vertex  5.555099e-01 -1.953125e-01  1.664251e-17
     vertex  5.941612e-01 -1.953125e-01 -3.865132e-02
   endloop
 endfacet
 facet normal  0.000000e+00  0.000000e+00 -1.000000e+00
   outer loop
     vertex  5.921053e-01  3.625599e-17 -1.562500e-01
     vertex -7.377084e-18 -1.953125e-01 -1.562500e-01
     vertex -1.933653e-17 -2.311116e-33 -1.562500e-01
   endloop
 endfacet
 facet normal  0.000000e+00 -0.000000e+00 -1.000000e+00
   outer loop
     vertex  5.921053e-01  3.625599e-17 -1.562500e-01
     vertex  5.921053e-01 -1.953125e-01 -1.562500e-01
     vertex -7.377084e-18 -1.953125e-01 -1.562500e-01
   endloop
 endfacet
 facet normal  2.588190e-01  0.000000e+00  9.659258e-01
   outer loop
     vertex  6.710526e-01  5.913135e-17  1.383856e-01
     vertex  5.921053e-01  5.559252e-17  1.595395e-01
     vertex  5.921053e-01 -1.953125e-01  1.595395e-01
   endloop
 endfacet
 facet normal  2.588190e-01  0.000000e+00  9.659258e-01
   outer loop
     vertex  6.710526e-01  5.913135e-17  1.383856e-01
     vertex  5.921053e-01 -1.953125e-01  1.595395e-01
     vertex  6.710526e-01 -1.953125e-01  1.383856e-01
   endloop
 endfacet
 facet normal  7.071068e-01  0.000000e+00  7.071068e-01
   outer loop
     vertex  7.288461e-01  5.913135e-17  8.059211e-02
     vertex  6.710526e-01 -1.953125e-01  1.383856e-01
     vertex  7.288461e-01 -1.953125e-01  8.059211e-02
   endloop
 endfacet
 facet normal  7.071068e-01  0.000000e+00  7.071068e-01
   outer loop
     vertex  7.288461e-01  5.913135e-17  8.059211e-02
     vertex  6.710526e-01  5.913135e-17  1.383856e-01
     vertex  6.710526e-01 -1.953125e-01  1.383856e-01
   endloop
 endfacet
 facet normal  9.659258e-01  0.000000e+00  2.588190e-01
   outer loop
     vertex  7.500000e-01  5.559252e-17  1.644737e-03
     vertex  7.288461e-01 -1.953125e-01  8.059211e-02
     vertex  7.500000e-01 -1.953125e-01  1.644737e-03
   endloop
 endfacet
 facet normal  9.659258e-01  0.000000e+00  2.588190e-01
   outer loop
     vertex  7.500000e-01  5.559252e-17  1.644737e-03
     vertex  7.288461e-01  5.913135e-17  8.059211e-02
     vertex  7.288461e-01 -1.953125e-01  8.059211e-02
   endloop
 endfacet
 facet normal  9.659258e-01  0.000000e+00 -2.588190e-01
   outer loop
     vertex  7.288461e-01  4.946309e-17 -7.730263e-02
     vertex  7.500000e-01 -1.953125e-01  1.644737e-03
     vertex  7.288461e-01 -1.953125e-01 -7.730263e-02
   endloop
 endfacet
 facet normal  9.659258e-01  0.000000e+00 -2.588190e-01
   outer loop
     vertex  7.288461e-01  4.946309e-17 -7.730263e-02
     vertex  7.500000e-01  5.559252e-17  1.644737e-03
     vertex  7.500000e-01 -1.953125e-01  1.644737e-03
   endloop
 endfacet
 facet normal  7.071068e-01  0.000000e+00 -7.071068e-01
   outer loop
     vertex  6.710526e-01  4.238542e-17 -1.350961e-01
     vertex  7.288461e-01 -1.953125e-01 -7.730263e-02
     vertex  6.710526e-01 -1.953125e-01 -1.350961e-01
   endloop
 endfacet
 facet normal  7.071068e-01  0.000000e+00 -7.071068e-01
   outer loop
     vertex  6.710526e-01  4.238542e-17 -1.350961e-01
     vertex  7.288461e-01  4.946309e-17 -7.730263e-02
     vertex  7.288461e-01 -1.953125e-01 -7.730263e-02
   endloop
 endfacet
 facet normal  2.588190e-01  0.000000e+00 -9.659258e-01
   outer loop
     vertex  5.921053e-01  3.625599e-17 -1.562500e-01
     vertex  6.710526e-01 -1.953125e-01 -1.350961e-01
     vertex  5.921053e-01 -1.953125e-01 -1.562500e-01
   endloop
 endfacet
 facet normal  2.588190e-01  0.000000e+00 -9.659258e-01
   outer loop
     vertex  5.921053e-01  3.625599e-17 -1.562500e-01
     vertex  6.710526e-01  4.238542e-17 -1.350961e-01
     vertex  6.710526e-01 -1.953125e-01 -1.350961e-01
   endloop
 endfacet
 facet normal -0.000000e+00  0.000000e+00  1.000000e+00
   outer loop
     vertex  1.933653e-17  1.933653e-17  1.595395e-01
     vertex  5.921053e-01 -1.953125e-01  1.595395e-01
     vertex  5.921053e-01  5.559252e-17  1.595395e-01
   endloop
 endfacet
 facet normal  0.000000e+00  0.000000e+00  1.000000e+00
   outer loop
     vertex  1.933653e-17  1.933653e-17  1.595395e-01
     vertex  3.129597e-17 -1.953125e-01  1.595395e-01
     vertex  5.921053e-01 -1.953125e-01  1.595395e-01
   endloop
 endfacet
 facet normal -2.588190e-01  0.000000e+00 -9.659258e-01
   outer loop
     vertex -7.894737e-02 -3.538830e-18 -1.350961e-01
     vertex -1.933653e-17 -2.311116e-33 -1.562500e-01
     vertex -7.377084e-18 -1.953125e-01 -1.562500e-01
   endloop
 endfacet
 facet normal -2.588190e-01 -1.839020e-17 -9.659258e-01
   outer loop
     vertex -7.894737e-02 -3.538830e-18 -1.350961e-01
     vertex -7.377084e-18 -1.953125e-01 -1.562500e-01
     vertex -7.894737e-02 -1.953125e-01 -1.350961e-01
   endloop
 endfacet
 facet normal -7.071068e-01 -0.000000e+00 -7.071068e-01
   outer loop
     vertex -1.367409e-01 -3.538830e-18 -7.730263e-02
     vertex -7.894737e-02 -1.953125e-01 -1.350961e-01
     vertex -1.367409e-01 -1.953125e-01 -7.730263e-02
   endloop
 endfacet
 facet normal -7.071068e-01 -5.433458e-17 -7.071068e-01
   outer loop
     vertex -1.367409e-01 -3.538830e-18 -7.730263e-02
     vertex -7.894737e-02 -3.538830e-18 -1.350961e-01
     vertex -7.894737e-02 -1.953125e-01 -1.350961e-01
   endloop
 endfacet
 facet normal -9.659258e-01 -0.000000e+00 -2.588190e-01
   outer loop
     vertex -1.578947e-01  6.183005e-30  1.644737e-03
     vertex -1.367409e-01 -1.953125e-01 -7.730263e-02
     vertex -1.578947e-01 -1.953125e-01  1.644737e-03
   endloop
 endfacet
 facet normal -9.659258e-01  0.000000e+00 -2.588190e-01
   outer loop
     vertex -1.578947e-01  6.183005e-30  1.644737e-03
     vertex -1.367409e-01 -3.538830e-18 -7.730263e-02
     vertex -1.367409e-01 -1.953125e-01 -7.730263e-02
   endloop
 endfacet
 facet normal -9.659258e-01  0.000000e+00  2.588190e-01
   outer loop
     vertex -1.367409e-01  6.129434e-18  8.059211e-02
     vertex -1.578947e-01 -1.953125e-01  1.644737e-03
     vertex -1.367409e-01 -1.953125e-01  8.059211e-02
   endloop
 endfacet
 facet normal -9.659258e-01  0.000000e+00  2.588190e-01
   outer loop
     vertex -1.367409e-01  6.129434e-18  8.059211e-02
     vertex -1.578947e-01  6.183005e-30  1.644737e-03
     vertex -1.578947e-01 -1.953125e-01  1.644737e-03
   endloop
 endfacet
 facet normal -7.071068e-01 -5.024296e-17  7.071068e-01
   outer loop
     vertex -7.894737e-02  1.320709e-17  1.383856e-01
     vertex -1.367409e-01 -1.953125e-01  8.059211e-02
     vertex -7.894737e-02 -1.953125e-01  1.383856e-01
   endloop
 endfacet
 facet normal -7.071068e-01  0.000000e+00  7.071068e-01
   outer loop
     vertex -7.894737e-02  1.320709e-17  1.383856e-01
     vertex -1.367409e-01  6.129434e-18  8.059211e-02
     vertex -1.367409e-01 -1.953125e-01  8.059211e-02
   endloop
 endfacet
 facet normal -2.588190e-01 -1.584810e-17  9.659258e-01
   outer loop
     vertex  1.933653e-17  1.933653e-17  1.595395e-01
     vertex -7.894737e-02 -1.953125e-01  1.383856e-01
     vertex  3.129597e-17 -1.953125e-01  1.595395e-01
   endloop
 endfacet
 facet normal -2.588190e-01 -1.358365e-17  9.659258e-01
   outer loop
     vertex  1.933653e-17  1.933653e-17  1.595395e-01
     vertex -7.894737e-02  1.320709e-17  1.383856e-01
     vertex -7.894737e-02 -1.953125e-01  1.383856e-01
   endloop
 endfacet
 facet normal  4.338837e-01  2.700959e-17  9.009689e-01
   outer loop
     vertex -7.406825e-02  1.516054e-18 -5.742272e-02
     vertex  2.162771e-17 -1.953125e-01 -9.309211e-02
     vertex  9.668264e-18  3.867306e-18 -9.309211e-02
   endloop
 endfacet
 facet normal  4.338837e-01  3.082929e-17  9.009689e-01
   outer loop
     vertex -7.406825e-02  1.516054e-18 -5.742272e-02
     vertex -7.406825e-02 -1.953125e-01 -5.742272e-02
     vertex  2.162771e-17 -1.953125e-01 -9.309211e-02
   endloop
 endfacet
 facet normal  9.749279e-01  6.927279e-17  2.225209e-01
   outer loop
     vertex -9.236159e-02  5.303583e-18  2.272567e-02
     vertex -9.236159e-02 -1.953125e-01  2.272567e-02
     vertex -7.406825e-02 -1.953125e-01 -5.742272e-02
   endloop
 endfacet
 facet normal  9.749279e-01  6.752397e-17  2.225209e-01
   outer loop
     vertex -9.236159e-02  5.303583e-18  2.272567e-02
     vertex -7.406825e-02 -1.953125e-01 -5.742272e-02
     vertex -7.406825e-02  1.516054e-18 -5.742272e-02
   endloop
 endfacet
 facet normal  7.818315e-01  5.555247e-17 -6.234898e-01
   outer loop
     vertex -4.110478e-02  1.237781e-17  8.699968e-02
     vertex -4.110478e-02 -1.953125e-01  8.699968e-02
     vertex -9.236159e-02 -1.953125e-01  2.272567e-02
   endloop
 endfacet
 facet normal  7.818315e-01  5.401917e-17 -6.234898e-01
   outer loop
     vertex -4.110478e-02  1.237781e-17  8.699968e-02
     vertex -9.236159e-02 -1.953125e-01  2.272567e-02
     vertex -9.236159e-02  5.303583e-18  2.272567e-02
   endloop
 endfacet
 facet normal -1.688099e-16 -1.199467e-32 -1.000000e+00
   outer loop
     vertex  4.110478e-02  1.741169e-17  8.699968e-02
     vertex  4.110478e-02 -1.953125e-01  8.699968e-02
     vertex -4.110478e-02 -1.953125e-01  8.699968e-02
   endloop
 endfacet
 facet normal -1.688099e-16 -2.398933e-32 -1.000000e+00
   outer loop
     vertex  4.110478e-02  1.741169e-17  8.699968e-02
     vertex -4.110478e-02 -1.953125e-01  8.699968e-02
     vertex -4.110478e-02  1.237781e-17  8.699968e-02
   endloop
 endfacet
 facet normal -7.818315e-01 -5.555247e-17 -6.234898e-01
   outer loop
     vertex  9.236159e-02  1.661462e-17  2.272567e-02
     vertex  9.236159e-02 -1.953125e-01  2.272567e-02
     vertex  4.110478e-02 -1.953125e-01  8.699968e-02
   endloop
 endfacet
 facet normal -7.818315e-01 -5.401917e-17 -6.234898e-01
   outer loop
     vertex  9.236159e-02  1.661462e-17  2.272567e-02
     vertex  4.110478e-02 -1.953125e-01  8.699968e-02
     vertex  4.110478e-02  1.741169e-17  8.699968e-02
   endloop
 endfacet
 facet normal -9.749279e-01 -6.927279e-17  2.225209e-01
   outer loop
     vertex  7.406825e-02  1.058680e-17 -5.742272e-02
     vertex  7.406825e-02 -1.953125e-01 -5.742272e-02
     vertex  9.236159e-02 -1.953125e-01  2.272567e-02
   endloop
 endfacet
 facet normal -9.749279e-01 -6.752397e-17  2.225209e-01
   outer loop
     vertex  7.406825e-02  1.058680e-17 -5.742272e-02
     vertex  9.236159e-02 -1.953125e-01  2.272567e-02
     vertex  9.236159e-02  1.661462e-17  2.272567e-02
   endloop
 endfacet
 facet normal -4.338837e-01 -2.656772e-17  9.009689e-01
   outer loop
     vertex  9.668264e-18  3.867306e-18 -9.309211e-02
     vertex  2.162771e-17 -1.953125e-01 -9.309211e-02
     vertex  7.406825e-02 -1.953125e-01 -5.742272e-02
   endloop
 endfacet
 facet normal -4.338837e-01 -2.700959e-17  9.009689e-01
   outer loop
     vertex  9.668264e-18  3.867306e-18 -9.309211e-02
     vertex  7.406825e-02 -1.953125e-01 -5.742272e-02
     vertex  7.406825e-02  1.058680e-17 -5.742272e-02
   endloop
 endfacet
 facet normal  4.338837e-01  0.000000e+00  9.009689e-01
   outer loop
     vertex  5.180370e-01  3.777204e-17 -5.742272e-02
     vertex  5.921053e-01 -1.953125e-01 -9.309211e-02
     vertex  5.921053e-01  4.012330e-17 -9.309211e-02
   endloop
 endfacet
 facet normal  4.338837e-01  0.000000e+00  9.009689e-01
   outer loop
     vertex  5.180370e-01  3.777204e-17 -5.742272e-02
     vertex  5.180370e-01 -1.953125e-01 -5.742272e-02
     vertex  5.921053e-01 -1.953125e-01 -9.309211e-02
   endloop
 endfacet
 facet normal  9.749279e-01  0.000000e+00  2.225209e-01
   outer loop
     vertex  4.997437e-01  4.155957e-17  2.272567e-02
     vertex  4.997437e-01 -1.953125e-01  2.272567e-02
     vertex  5.180370e-01 -1.953125e-01 -5.742272e-02
   endloop
 endfacet
 facet normal  9.749279e-01  0.000000e+00  2.225209e-01
   outer loop
     vertex  4.997437e-01  4.155957e-17  2.272567e-02
     vertex  5.180370e-01 -1.953125e-01 -5.742272e-02
     vertex  5.180370e-01  3.777204e-17 -5.742272e-02
   endloop
 endfacet
 facet normal  7.818315e-01  0.000000e+00 -6.234898e-01
   outer loop
     vertex  5.510005e-01  4.863380e-17  8.699968e-02
     vertex  5.510005e-01 -1.953125e-01  8.699968e-02
     vertex  4.997437e-01 -1.953125e-01  2.272567e-02
   endloop
 endfacet
 facet normal  7.818315e-01  0.000000e+00 -6.234898e-01
   outer loop
     vertex  5.510005e-01  4.863380e-17  8.699968e-02
     vertex  4.997437e-01 -1.953125e-01  2.272567e-02
     vertex  4.997437e-01  4.155957e-17  2.272567e-02
   endloop
 endfacet
 facet normal -1.688099e-16 -0.000000e+00 -1.000000e+00
   outer loop
     vertex  6.332100e-01  5.366768e-17  8.699968e-02
     vertex  6.332100e-01 -1.953125e-01  8.699968e-02
     vertex  5.510005e-01 -1.953125e-01  8.699968e-02
   endloop
 endfacet
 facet normal -1.688099e-16  0.000000e+00 -1.000000e+00
   outer loop
     vertex  6.332100e-01  5.366768e-17  8.699968e-02
     vertex  5.510005e-01 -1.953125e-01  8.699968e-02
     vertex  5.510005e-01  4.863380e-17  8.699968e-02
   endloop
 endfacet
 facet normal -7.818315e-01 -0.000000e+00 -6.234898e-01
   outer loop
     vertex  6.844669e-01  5.287061e-17  2.272567e-02
     vertex  6.844669e-01 -1.953125e-01  2.272567e-02
     vertex  6.332100e-01 -1.953125e-01  8.699968e-02
   endloop
 endfacet
 facet normal -7.818315e-01  0.000000e+00 -6.234898e-01
   outer loop
     vertex  6.844669e-01  5.287061e-17  2.272567e-02
     vertex  6.332100e-01 -1.953125e-01  8.699968e-02
     vertex  6.332100e-01  5.366768e-17  8.699968e-02
   endloop
 endfacet
 facet normal -9.749279e-01  0.000000e+00  2.225209e-01
   outer loop
     vertex  6.661735e-01  4.684279e-17 -5.742272e-02
     vertex  6.661735e-01 -1.953125e-01 -5.742272e-02
     vertex  6.844669e-01 -1.953125e-01  2.272567e-02
   endloop
 endfacet
 facet normal -9.749279e-01  0.000000e+00  2.225209e-01
   outer loop
     vertex  6.661735e-01  4.684279e-17 -5.742272e-02
     vertex  6.844669e-01 -1.953125e-01  2.272567e-02
     vertex  6.844669e-01  5.287061e-17  2.272567e-02
   endloop
 endfacet
 facet normal -4.338837e-01  0.000000e+00  9.009689e-01
   outer loop
     vertex  5.921053e-01  4.012330e-17 -9.309211e-02
     vertex  5.921053e-01 -1.953125e-01 -9.309211e-02
     vertex  6.661735e-01 -1.953125e-01 -5.742272e-02
   endloop
 endfacet
 facet normal -4.338837e-01  0.000000e+00  9.009689e-01
   outer loop
     vertex  5.921053e-01  4.012330e-17 -9.309211e-02
     vertex  6.661735e-01 -1.953125e-01 -5.742272e-02
     vertex  6.661735e-01  4.684279e-17 -5.742272e-02
   endloop
 endfacet
 facet normal -6.123234e-17  1.000000e+00 -6.123234e-17
   outer loop
     vertex -7.406825e-02  1.516054e-18 -5.742272e-02
     vertex -1.367409e-01 -3.538830e-18 -7.730263e-02
     vertex -1.578947e-01  6.183005e-30  1.644737e-03
   endloop
 endfacet
 facet normal -6.123234e-17  1.000000e+00 -6.123234e-17
   outer loop
     vertex -7.406825e-02  1.516054e-18 -5.742272e-02
     vertex -7.894737e-02 -3.538830e-18 -1.350961e-01
     vertex -1.367409e-01 -3.538830e-18 -7.730263e-02
   endloop
 endfacet
 facet normal -6.123234e-17  1.000000e+00 -6.123234e-17
   outer loop
     vertex  9.668264e-18  3.867306e-18 -9.309211e-02
     vertex -1.933653e-17 -2.311116e-33 -1.562500e-01
     vertex -7.894737e-02 -3.538830e-18 -1.350961e-01
   endloop
 endfacet
 facet normal -6.123234e-17  1.000000e+00 -6.123234e-17
   outer loop
     vertex  9.668264e-18  3.867306e-18 -9.309211e-02
     vertex -7.894737e-02 -3.538830e-18 -1.350961e-01
     vertex -7.406825e-02  1.516054e-18 -5.742272e-02
   endloop
 endfacet
 facet normal -6.123234e-17  1.000000e+00 -6.123234e-17
   outer loop
     vertex -9.236159e-02  5.303583e-18  2.272567e-02
     vertex -7.406825e-02  1.516054e-18 -5.742272e-02
     vertex -1.578947e-01  6.183005e-30  1.644737e-03
   endloop
 endfacet
 facet normal -6.123234e-17  1.000000e+00 -6.123234e-17
   outer loop
     vertex -1.367409e-01  6.129434e-18  8.059211e-02
     vertex -9.236159e-02  5.303583e-18  2.272567e-02
     vertex -1.578947e-01  6.183005e-30  1.644737e-03
   endloop
 endfacet
 facet normal -6.123234e-17  1.000000e+00 -6.123234e-17
   outer loop
     vertex  7.406825e-02  1.058680e-17 -5.742272e-02
     vertex -1.933653e-17 -2.311116e-33 -1.562500e-01
     vertex  9.668264e-18  3.867306e-18 -9.309211e-02
   endloop
 endfacet
 facet normal -6.123234e-17  1.000000e+00 -6.123234e-17
   outer loop
     vertex -4.110478e-02  1.237781e-17  8.699968e-02
     vertex -9.236159e-02  5.303583e-18  2.272567e-02
     vertex -1.367409e-01  6.129434e-18  8.059211e-02
   endloop
 endfacet
 facet normal -6.123234e-17  1.000000e+00 -6.123234e-17
   outer loop
     vertex -7.894737e-02  1.320709e-17  1.383856e-01
     vertex -4.110478e-02  1.237781e-17  8.699968e-02
     vertex -1.367409e-01  6.129434e-18  8.059211e-02
   endloop
 endfacet
 facet normal -6.123234e-17  1.000000e+00 -6.123234e-17
   outer loop
     vertex  1.933653e-17  1.933653e-17  1.595395e-01
     vertex  4.110478e-02  1.741169e-17  8.699968e-02
     vertex -4.110478e-02  1.237781e-17  8.699968e-02
   endloop
 endfacet
 facet normal -6.123234e-17  1.000000e+00 -6.123234e-17
   outer loop
     vertex  1.933653e-17  1.933653e-17  1.595395e-01
     vertex -4.110478e-02  1.237781e-17  8.699968e-02
     vertex -7.894737e-02  1.320709e-17  1.383856e-01
   endloop
 endfacet
 facet normal -6.123234e-17  1.000000e+00 -6.123234e-17
   outer loop
     vertex  5.180370e-01  3.777204e-17 -5.742272e-02
     vertex  5.921053e-01  3.625599e-17 -1.562500e-01
     vertex -1.933653e-17 -2.311116e-33 -1.562500e-01
   endloop
 endfacet
 facet normal -6.123234e-17  1.000000e+00 -6.123234e-17
   outer loop
     vertex  5.180370e-01  3.777204e-17 -5.742272e-02
     vertex -1.933653e-17 -2.311116e-33 -1.562500e-01
     vertex  7.406825e-02  1.058680e-17 -5.742272e-02
   endloop
 endfacet
 facet normal -6.123234e-17  1.000000e+00 -6.123234e-17
   outer loop
     vertex  5.921053e-01  4.012330e-17 -9.309211e-02
     vertex  5.921053e-01  3.625599e-17 -1.562500e-01
     vertex  5.180370e-01  3.777204e-17 -5.742272e-02
   endloop
 endfacet
 facet normal -6.123234e-17  1.000000e+00 -6.123234e-17
   outer loop
     vertex  4.997437e-01  4.155957e-17  2.272567e-02
     vertex  7.406825e-02  1.058680e-17 -5.742272e-02
     vertex  9.236159e-02  1.661462e-17  2.272567e-02
   endloop
 endfacet
 facet normal -6.123234e-17  1.000000e+00 -6.123234e-17
   outer loop
     vertex  4.997437e-01  4.155957e-17  2.272567e-02
     vertex  5.180370e-01  3.777204e-17 -5.742272e-02
     vertex  7.406825e-02  1.058680e-17 -5.742272e-02
   endloop
 endfacet
 facet normal -6.123234e-17  1.000000e+00 -6.123234e-17
   outer loop
     vertex  6.710526e-01  4.238542e-17 -1.350961e-01
     vertex  5.921053e-01  3.625599e-17 -1.562500e-01
     vertex  5.921053e-01  4.012330e-17 -9.309211e-02
   endloop
 endfacet
 facet normal -6.123234e-17  1.000000e+00 -6.123234e-17
   outer loop
     vertex  6.661735e-01  4.684279e-17 -5.742272e-02
     vertex  6.710526e-01  4.238542e-17 -1.350961e-01
     vertex  5.921053e-01  4.012330e-17 -9.309211e-02
   endloop
 endfacet
 facet normal -6.123234e-17  1.000000e+00 -6.123234e-17
   outer loop
     vertex  5.510005e-01  4.863380e-17  8.699968e-02
     vertex  9.236159e-02  1.661462e-17  2.272567e-02
     vertex  4.110478e-02  1.741169e-17  8.699968e-02
   endloop
 endfacet
 facet normal -6.123234e-17  1.000000e+00 -6.123234e-17
   outer loop
     vertex  5.510005e-01  4.863380e-17  8.699968e-02
     vertex  4.110478e-02  1.741169e-17  8.699968e-02
     vertex  1.933653e-17  1.933653e-17  1.595395e-01
   endloop
 endfacet
 facet normal -6.123234e-17  1.000000e+00 -6.123234e-17
   outer loop
     vertex  5.510005e-01  4.863380e-17  8.699968e-02
     vertex  4.997437e-01  4.155957e-17  2.272567e-02
     vertex  9.236159e-02  1.661462e-17  2.272567e-02
   endloop
 endfacet
 facet normal -6.123234e-17  1.000000e+00 -6.123234e-17
   outer loop
     vertex  7.288461e-01  4.946309e-17 -7.730263e-02
     vertex  6.710526e-01  4.238542e-17 -1.350961e-01
     vertex  6.661735e-01  4.684279e-17 -5.742272e-02
   endloop
 endfacet
 facet normal -6.123234e-17  1.000000e+00 -6.123234e-17
   outer loop
     vertex  5.921053e-01  5.559252e-17  1.595395e-01
     vertex  6.332100e-01  5.366768e-17  8.699968e-02
     vertex  5.510005e-01  4.863380e-17  8.699968e-02
   endloop
 endfacet
 facet normal -6.123234e-17  1.000000e+00 -6.123234e-17
   outer loop
     vertex  5.921053e-01  5.559252e-17  1.595395e-01
     vertex  5.510005e-01  4.863380e-17  8.699968e-02
     vertex  1.933653e-17  1.933653e-17  1.595395e-01
   endloop
 endfacet
 facet normal -6.123234e-17  1.000000e+00 -6.123234e-17
   outer loop
     vertex  7.500000e-01  5.559252e-17  1.644737e-03
     vertex  6.661735e-01  4.684279e-17 -5.742272e-02
     vertex  6.844669e-01  5.287061e-17  2.272567e-02
   endloop
 endfacet
 facet normal -6.123234e-17  1.000000e+00 -6.123234e-17
   outer loop
     vertex  7.500000e-01  5.559252e-17  1.644737e-03
     vertex  7.288461e-01  4.946309e-17 -7.730263e-02
     vertex  6.661735e-01  4.684279e-17 -5.742272e-02
   endloop
 endfacet
 facet normal -6.123234e-17  1.000000e+00 -6.123234e-17
   outer loop
     vertex  6.710526e-01  5.913135e-17  1.383856e-01
     vertex  6.332100e-01  5.366768e-17  8.699968e-02
     vertex  5.921053e-01  5.559252e-17  1.595395e-01
   endloop
 endfacet
 facet normal -6.123234e-17  1.000000e+00 -6.123234e-17
   outer loop
     vertex  7.288461e-01  5.913135e-17  8.059211e-02
     vertex  6.844669e-01  5.287061e-17  2.272567e-02
     vertex  6.332100e-01  5.366768e-17  8.699968e-02
   endloop
 endfacet
 facet normal -6.123234e-17  1.000000e+00 -6.123234e-17
   outer loop
     vertex  7.288461e-01  5.913135e-17  8.059211e-02
     vertex  7.500000e-01  5.559252e-17  1.644737e-03
     vertex  6.844669e-01  5.287061e-17  2.272567e-02
   endloop
 endfacet
 facet normal -6.123234e-17  1.000000e+00 -6.123234e-17
   outer loop
     vertex  7.288461e-01  5.913135e-17  8.059211e-02
     vertex  6.332100e-01  5.366768e-17  8.699968e-02
     vertex  6.710526e-01  5.913135e-17  1.383856e-01
   endloop
 endfacet
 facet normal -0.000000e+00 -1.000000e+00  0.000000e+00
   outer loop
     vertex -7.406825e-02 -1.953125e-01 -5.742272e-02
     vertex -1.578947e-01 -1.953125e-01  1.644737e-03
     vertex -1.367409e-01 -1.953125e-01 -7.730263e-02
   endloop
 endfacet
 facet normal  0.000000e+00 -1.000000e+00  0.000000e+00
   outer loop
     vertex -7.406825e-02 -1.953125e-01 -5.742272e-02
     vertex -1.367409e-01 -1.953125e-01 -7.730263e-02
     vertex -7.894737e-02 -1.953125e-01 -1.350961e-01
   endloop
 endfacet
 facet normal  0.000000e+00 -1.000000e+00  0.000000e+00
   outer loop
     vertex  2.162771e-17 -1.953125e-01 -9.309211e-02
     vertex -7.894737e-02 -1.953125e-01 -1.350961e-01
     vertex -7.377084e-18 -1.953125e-01 -1.562500e-01
   endloop
 endfacet
 facet normal -0.000000e+00 -1.000000e+00  0.000000e+00
   outer loop
     vertex  2.162771e-17 -1.953125e-01 -9.309211e-02
     vertex -7.406825e-02 -1.953125e-01 -5.742272e-02
     vertex -7.894737e-02 -1.953125e-01 -1.350961e-01
   endloop
 endfacet
 facet normal  0.000000e+00 -1.000000e+00 -0.000000e+00
   outer loop
     vertex -9.236159e-02 -1.953125e-01  2.272567e-02
     vertex -1.578947e-01 -1.953125e-01  1.644737e-03
     vertex -7.406825e-02 -1.953125e-01 -5.742272e-02
   endloop
 endfacet
 facet normal  0.000000e+00 -1.000000e+00 -0.000000e+00
   outer loop
     vertex -1.367409e-01 -1.953125e-01  8.059211e-02
     vertex -1.578947e-01 -1.953125e-01  1.644737e-03
     vertex -9.236159e-02 -1.953125e-01  2.272567e-02
   endloop
 endfacet
 facet normal  0.000000e+00 -1.000000e+00  0.000000e+00
   outer loop
     vertex  7.406825e-02 -1.953125e-01 -5.742272e-02
     vertex  2.162771e-17 -1.953125e-01 -9.309211e-02
     vertex -7.377084e-18 -1.953125e-01 -1.562500e-01
   endloop
 endfacet
 facet normal  0.000000e+00 -1.000000e+00  0.000000e+00
   outer loop
     vertex -4.110478e-02 -1.953125e-01  8.699968e-02
     vertex -1.367409e-01 -1.953125e-01  8.059211e-02
     vertex -9.236159e-02 -1.953125e-01  2.272567e-02
   endloop
 endfacet
 facet normal  0.000000e+00 -1.000000e+00 -0.000000e+00
   outer loop
     vertex -7.894737e-02 -1.953125e-01  1.383856e-01
     vertex -1.367409e-01 -1.953125e-01  8.059211e-02
     vertex -4.110478e-02 -1.953125e-01  8.699968e-02
   endloop
 endfacet
 facet normal  0.000000e+00 -1.000000e+00 -0.000000e+00
   outer loop
     vertex  3.129597e-17 -1.953125e-01  1.595395e-01
     vertex -4.110478e-02 -1.953125e-01  8.699968e-02
     vertex  4.110478e-02 -1.953125e-01  8.699968e-02
   endloop
 endfacet
 facet normal  0.000000e+00 -1.000000e+00  0.000000e+00
   outer loop
     vertex  3.129597e-17 -1.953125e-01  1.595395e-01
     vertex -7.894737e-02 -1.953125e-01  1.383856e-01
     vertex -4.110478e-02 -1.953125e-01  8.699968e-02
   endloop
 endfacet
 facet normal  0.000000e+00 -1.000000e+00 -0.000000e+00
   outer loop
     vertex  5.180370e-01 -1.953125e-01 -5.742272e-02
     vertex -7.377084e-18 -1.953125e-01 -1.562500e-01
     vertex  5.921053e-01 -1.953125e-01 -1.562500e-01
   endloop
 endfacet
 facet normal  0.000000e+00 -1.000000e+00  0.000000e+00
   outer loop
     vertex  5.180370e-01 -1.953125e-01 -5.742272e-02
     vertex  7.406825e-02 -1.953125e-01 -5.742272e-02
     vertex -7.377084e-18 -1.953125e-01 -1.562500e-01
   endloop
 endfacet
 facet normal -0.000000e+00 -1.000000e+00 -0.000000e+00
   outer loop
     vertex  5.921053e-01 -1.953125e-01 -9.309211e-02
     vertex  5.180370e-01 -1.953125e-01 -5.742272e-02
     vertex  5.921053e-01 -1.953125e-01 -1.562500e-01
   endloop
 endfacet
 facet normal  0.000000e+00 -1.000000e+00  0.000000e+00
   outer loop
     vertex  4.997437e-01 -1.953125e-01  2.272567e-02
     vertex  9.236159e-02 -1.953125e-01  2.272567e-02
     vertex  7.406825e-02 -1.953125e-01 -5.742272e-02
   endloop
 endfacet
 facet normal  0.000000e+00 -1.000000e+00 -0.000000e+00
   outer loop
     vertex  4.997437e-01 -1.953125e-01  2.272567e-02
     vertex  7.406825e-02 -1.953125e-01 -5.742272e-02
     vertex  5.180370e-01 -1.953125e-01 -5.742272e-02
   endloop
 endfacet
 facet normal -0.000000e+00 -1.000000e+00  0.000000e+00
   outer loop
     vertex  6.710526e-01 -1.953125e-01 -1.350961e-01
     vertex  5.921053e-01 -1.953125e-01 -9.309211e-02
     vertex  5.921053e-01 -1.953125e-01 -1.562500e-01
   endloop
 endfacet
 facet normal  0.000000e+00 -1.000000e+00 -0.000000e+00
   outer loop
     vertex  6.661735e-01 -1.953125e-01 -5.742272e-02
     vertex  5.921053e-01 -1.953125e-01 -9.309211e-02
     vertex  6.710526e-01 -1.953125e-01 -1.350961e-01
   endloop
 endfacet
 facet normal  0.000000e+00 -1.000000e+00  0.000000e+00
   outer loop
     vertex  5.510005e-01 -1.953125e-01  8.699968e-02
     vertex  4.110478e-02 -1.953125e-01  8.699968e-02
     vertex  9.236159e-02 -1.953125e-01  2.272567e-02
   endloop
 endfacet
 facet normal -0.000000e+00 -1.000000e+00  0.000000e+00
   outer loop
     vertex  5.510005e-01 -1.953125e-01  8.699968e-02
     vertex  3.129597e-17 -1.953125e-01  1.595395e-01
     vertex  4.110478e-02 -1.953125e-01  8.699968e-02
   endloop
 endfacet
 facet normal  0.000000e+00 -1.000000e+00  0.000000e+00
   outer loop
     vertex  5.510005e-01 -1.953125e-01  8.699968e-02
     vertex  9.236159e-02 -1.953125e-01  2.272567e-02
     vertex  4.997437e-01 -1.953125e-01  2.272567e-02
   endloop
 endfacet
 facet normal -0.000000e+00 -1.000000e+00  0.000000e+00
   outer loop
     vertex  7.288461e-01 -1.953125e-01 -7.730263e-02
     vertex  6.661735e-01 -1.953125e-01 -5.742272e-02
     vertex  6.710526e-01 -1.953125e-01 -1.350961e-01
   endloop
 endfacet
 facet normal  0.000000e+00 -1.000000e+00 -0.000000e+00
   outer loop
     vertex  5.921053e-01 -1.953125e-01  1.595395e-01
     vertex  5.510005e-01 -1.953125e-01  8.699968e-02
     vertex  6.332100e-01 -1.953125e-01  8.699968e-02
   endloop
 endfacet
 facet normal -0.000000e+00 -1.000000e+00  0.000000e+00
   outer loop
     vertex  5.921053e-01 -1.953125e-01  1.595395e-01
     vertex  3.129597e-17 -1.953125e-01  1.595395e-01
     vertex  5.510005e-01 -1.953125e-01  8.699968e-02
   endloop
 endfacet
 facet normal -0.000000e+00 -1.000000e+00  0.000000e+00
   outer loop
     vertex  7.500000e-01 -1.953125e-01  1.644737e-03
     vertex  6.844669e-01 -1.953125e-01  2.272567e-02
     vertex  6.661735e-01 -1.953125e-01 -5.742272e-02
   endloop
 endfacet
 facet normal  0.000000e+00 -1.000000e+00  0.000000e+00
   outer loop
     vertex  7.500000e-01 -1.953125e-01  1.644737e-03
     vertex  6.661735e-01 -1.953125e-01 -5.742272e-02
     vertex  7.288461e-01 -1.953125e-01 -7.730263e-02
   endloop
 endfacet
 facet normal -0.000000e+00 -1.000000e+00  0.000000e+00
   outer loop
     vertex  6.710526e-01 -1.953125e-01  1.383856e-01
     vertex  5.921053e-01 -1.953125e-01  1.595395e-01
     vertex  6.332100e-01 -1.953125e-01  8.699968e-02
   endloop
 endfacet
 facet normal -0.000000e+00 -1.000000e+00  0.000000e+00
   outer loop
     vertex  7.288461e-01 -1.953125e-01  8.059211e-02
     vertex  6.332100e-01 -1.953125e-01  8.699968e-02
     vertex  6.844669e-01 -1.953125e-01  2.272567e-02
   endloop
 endfacet
 facet normal  0.000000e+00 -1.000000e+00 -0.000000e+00
   outer loop
     vertex  7.288461e-01 -1.953125e-01  8.059211e-02
     vertex  6.844669e-01 -1.953125e-01  2.272567e-02
     vertex  7.500000e-01 -1.953125e-01  1.644737e-03
   endloop
 endfacet
 facet normal  0.000000e+00 -1.000000e+00  0.000000e+00
   outer loop
     vertex  7.288461e-01 -1.953125e-01  8.059211e-02
     vertex  6.710526e-01 -1.953125e-01  1.383856e-01
     vertex  6.332100e-01 -1.953125e-01  8.699968e-02
   endloop
 endfacet
 facet normal -7.071068e-01  0.000000e+00 -7.071068e-01
   outer loop
     vertex -3.906250e-02 -4.121490e-32  4.834132e-18
     vertex  4.111842e-04  0.000000e+00 -3.947368e-02
     vertex  4.111842e-04 -1.953125e-01 -3.947368e-02
   endloop
 endfacet
 facet normal -7.071068e-01 -4.329780e-17 -7.071068e-01
   outer loop
     vertex -3.906250e-02 -4.121490e-32  4.834132e-18
     vertex  4.111842e-04 -1.953125e-01 -3.947368e-02
     vertex -3.906250e-02 -1.953125e-01  1.679357e-17
   endloop
 endfacet
 facet normal -7.071068e-01  2.512148e-17  7.071068e-01
   outer loop
     vertex  4.111842e-04  4.834132e-18  3.947368e-02
     vertex -3.906250e-02 -1.953125e-01  1.679357e-17
     vertex  4.111842e-04 -1.953125e-01  3.947368e-02
   endloop
 endfacet
 facet normal -7.071068e-01  1.988784e-17  7.071068e-01
   outer loop
     vertex  4.111842e-04  4.834132e-18  3.947368e-02
     vertex -3.906250e-02 -4.121490e-32  4.834132e-18
     vertex -3.906250e-02 -1.953125e-01  1.679357e-17
   endloop
 endfacet
 facet normal  7.071068e-01  4.329780e-17  7.071068e-01
   outer loop
     vertex  3.988487e-02  4.834132e-18 -4.834132e-18
     vertex  4.111842e-04 -1.953125e-01  3.947368e-02
     vertex  3.988487e-02 -1.953125e-01  7.125309e-18
   endloop
 endfacet
 facet normal  7.071068e-01  3.977568e-17  7.071068e-01
   outer loop
     vertex  3.988487e-02  4.834132e-18 -4.834132e-18
     vertex  4.111842e-04  4.834132e-18  3.947368e-02
     vertex  4.111842e-04 -1.953125e-01  3.947368e-02
   endloop
 endfacet
 facet normal  7.071068e-01  0.000000e+00 -7.071068e-01
   outer loop
     vertex  4.111842e-04  0.000000e+00 -3.947368e-02
     vertex  3.988487e-02 -1.953125e-01  7.125309e-18
     vertex  4.111842e-04 -1.953125e-01 -3.947368e-02
   endloop
 endfacet
 facet normal  7.071068e-01 -5.966351e-17 -7.071068e-01
   outer loop
     vertex  4.111842e-04  0.000000e+00 -3.947368e-02
     vertex  3.988487e-02  4.834132e-18 -4.834132e-18
     vertex  3.988487e-02 -1.953125e-01  7.125309e-18
   endloop
 endfacet
 facet normal -6.123234e-17  1.000000e+00 -6.123234e-17
   outer loop
     vertex  4.111842e-04  4.834132e-18  3.947368e-02
     vertex  3.988487e-02  4.834132e-18 -4.834132e-18
     vertex  4.111842e-04  0.000000e+00 -3.947368e-02
   endloop
 endfacet
 facet normal -6.123234e-17  1.000000e+00 -6.123234e-17
   outer loop
     vertex  4.111842e-04  4.834132e-18  3.947368e-02
     vertex  4.111842e-04  0.000000e+00 -3.947368e-02
     vertex -3.906250e-02 -4.121490e-32  4.834132e-18
   endloop
 endfacet
 facet normal  0.000000e+00 -1.000000e+00 -0.000000e+00
   outer loop
     vertex  4.111842e-04 -1.953125e-01  3.947368e-02
     vertex  4.111842e-04 -1.953125e-01 -3.947368e-02
     vertex  3.988487e-02 -1.953125e-01  7.125309e-18
   endloop
 endfacet
 facet normal  0.000000e+00 -1.000000e+00  0.000000e+00
   outer loop
     vertex  4.111842e-04 -1.953125e-01  3.947368e-02
     vertex -3.906250e-02 -1.953125e-01  1.679357e-17
     vertex  4.111842e-04 -1.953125e-01 -3.947368e-02
   endloop
 endfacet
endsolid
