solid 
 facet normal  9.927089e-01 -1.205367e-01  0.000000e+00
   outer loop
     vertex  6.824593e-01 -1.389475e-01  0.000000e+00
     vertex  7.031250e-01  3.125000e-02  0.000000e+00
     vertex  7.031250e-01  3.125000e-02  1.171875e-01
   endloop
 endfacet
 facet normal  9.927089e-01 -1.205367e-01  0.000000e+00
   outer loop
     vertex  6.824593e-01 -1.389475e-01  0.000000e+00
     vertex  7.031250e-01  3.125000e-02  1.171875e-01
     vertex  6.824593e-01 -1.389475e-01  1.171875e-01
   endloop
 endfacet
 facet normal  9.350162e-01 -3.546049e-01  0.000000e+00
   outer loop
     vertex  6.216631e-01 -2.992538e-01  0.000000e+00
     vertex  6.824593e-01 -1.389475e-01  1.171875e-01
     vertex  6.216631e-01 -2.992538e-01  1.171875e-01
   endloop
 endfacet
 facet normal  9.350162e-01 -3.546049e-01  0.000000e+00
   outer loop
     vertex  6.216631e-01 -2.992538e-01  0.000000e+00
     vertex  6.824593e-01 -1.389475e-01  0.000000e+00
     vertex  6.824593e-01 -1.389475e-01  1.171875e-01
   endloop
 endfacet
 facet normal  8.229839e-01 -5.680647e-01  0.000000e+00
   outer loop
     vertex  5.242698e-01 -4.403524e-01  0.000000e+00
     vertex  6.216631e-01 -2.992538e-01  1.171875e-01
     vertex  5.242698e-01 -4.403524e-01  1.171875e-01
   endloop
 endfacet
 facet normal  8.229839e-01 -5.680647e-01  0.000000e+00
   outer loop
     vertex  5.242698e-01 -4.403524e-01  0.000000e+00
     vertex  6.216631e-01 -2.992538e-01  0.000000e+00
     vertex  6.216631e-01 -2.992538e-01  1.171875e-01
   endloop
 endfacet
 facet normal  6.631227e-01 -7.485107e-01  0.000000e+00
   outer loop
     vertex  3.959395e-01 -5.540431e-01  0.000000e+00
     vertex  5.242698e-01 -4.403524e-01  1.171875e-01
     vertex  3.959395e-01 -5.540431e-01  1.171875e-01
   endloop
 endfacet
 facet normal  6.631227e-01 -7.485107e-01  0.000000e+00
   outer loop
     vertex  3.959395e-01 -5.540431e-01  0.000000e+00
     vertex  5.242698e-01 -4.403524e-01  0.000000e+00
     vertex  5.242698e-01 -4.403524e-01  1.171875e-01
   endloop
 endfacet
 facet normal  4.647232e-01 -8.854560e-01  0.000000e+00
   outer loop
     vertex  2.441302e-01 -6.337188e-01  0.000000e+00
     vertex  3.959395e-01 -5.540431e-01  1.171875e-01
     vertex  2.441302e-01 -6.337188e-01  1.171875e-01
   endloop
 endfacet
 facet normal  4.647232e-01 -8.854560e-01  0.000000e+00
   outer loop
     vertex  2.441302e-01 -6.337188e-01  0.000000e+00
     vertex  3.959395e-01 -5.540431e-01  0.000000e+00
     vertex  3.959395e-01 -5.540431e-01  1.171875e-01
   endloop
 endfacet
 facet normal  2.393157e-01 -9.709418e-01  0.000000e+00
   outer loop
     vertex  7.766457e-02 -6.747489e-01  0.000000e+00
     vertex  2.441302e-01 -6.337188e-01  1.171875e-01
     vertex  7.766457e-02 -6.747489e-01  1.171875e-01
   endloop
 endfacet
 facet normal  2.393157e-01 -9.709418e-01  0.000000e+00
   outer loop
     vertex  7.766457e-02 -6.747489e-01  0.000000e+00
     vertex  2.441302e-01 -6.337188e-01  0.000000e+00
     vertex  2.441302e-01 -6.337188e-01  1.171875e-01
   endloop
 endfacet
 facet normal -2.590233e-15 -1.000000e+00  0.000000e+00
   outer loop
     vertex -9.378299e-02 -6.747489e-01  0.000000e+00
     vertex  7.766457e-02 -6.747489e-01  1.171875e-01
     vertex -9.378299e-02 -6.747489e-01  1.171875e-01
   endloop
 endfacet
 facet normal -2.590233e-15 -1.000000e+00  0.000000e+00
   outer loop
     vertex -9.378299e-02 -6.747489e-01  0.000000e+00
     vertex  7.766457e-02 -6.747489e-01  0.000000e+00
     vertex  7.766457e-02 -6.747489e-01  1.171875e-01
   endloop
 endfacet
 facet normal -2.393157e-01 -9.709418e-01  0.000000e+00
   outer loop
     vertex -2.602486e-01 -6.337188e-01  0.000000e+00
     vertex -9.378299e-02 -6.747489e-01  1.171875e-01
     vertex -2.602486e-01 -6.337188e-01  1.171875e-01
   endloop
 endfacet
 facet normal -2.393157e-01 -9.709418e-01  0.000000e+00
   outer loop
     vertex -2.602486e-01 -6.337188e-01  0.000000e+00
     vertex -9.378299e-02 -6.747489e-01  0.000000e+00
     vertex -9.378299e-02 -6.747489e-01  1.171875e-01
   endloop
 endfacet
 facet normal -4.647232e-01 -8.854560e-01  0.000000e+00
   outer loop
     vertex -4.120579e-01 -5.540431e-01  0.000000e+00
     vertex -2.602486e-01 -6.337188e-01  1.171875e-01
     vertex -4.120579e-01 -5.540431e-01  1.171875e-01
   endloop
 endfacet
 facet normal -4.647232e-01 -8.854560e-01  0.000000e+00
   outer loop
     vertex -4.120579e-01 -5.540431e-01  0.000000e+00
     vertex -2.602486e-01 -6.337188e-01  0.000000e+00
     vertex -2.602486e-01 -6.337188e-01  1.171875e-01
   endloop
 endfacet
 facet normal -6.631227e-01 -7.485107e-01  0.000000e+00
   outer loop
     vertex -5.403882e-01 -4.403524e-01  0.000000e+00
     vertex -4.120579e-01 -5.540431e-01  1.171875e-01
     vertex -5.403882e-01 -4.403524e-01  1.171875e-01
   endloop
 endfacet
 facet normal -6.631227e-01 -7.485107e-01  0.000000e+00
   outer loop
     vertex -5.403882e-01 -4.403524e-01  0.000000e+00
     vertex -4.120579e-01 -5.540431e-01  0.000000e+00
     vertex -4.120579e-01 -5.540431e-01  1.171875e-01
   endloop
 endfacet
 facet normal -8.229839e-01 -5.680647e-01  0.000000e+00
   outer loop
     vertex -6.377816e-01 -2.992538e-01  0.000000e+00
     vertex -5.403882e-01 -4.403524e-01  0.000000e+00
     vertex -5.403882e-01 -4.403524e-01  1.171875e-01
   endloop
 endfacet
 facet normal -8.229839e-01 -5.680647e-01  0.000000e+00
   outer loop
     vertex -6.377816e-01 -2.992538e-01  0.000000e+00
     vertex -5.403882e-01 -4.403524e-01  1.171875e-01
     vertex -6.377816e-01 -2.992538e-01  1.171875e-01
   endloop
 endfacet
 facet normal -9.350162e-01 -3.546049e-01  0.000000e+00
   outer loop
     vertex -6.985777e-01 -1.389475e-01  0.000000e+00
     vertex -6.377816e-01 -2.992538e-01  0.000000e+00
     vertex -6.377816e-01 -2.992538e-01  1.171875e-01
   endloop
 endfacet
 facet normal -9.350162e-01 -3.546049e-01  0.000000e+00
   outer loop
     vertex -6.985777e-01 -1.389475e-01  0.000000e+00
     vertex -6.377816e-01 -2.992538e-01  1.171875e-01
     vertex -6.985777e-01 -1.389475e-01  1.171875e-01
   endloop
 endfacet
 facet normal -9.927089e-01 -1.205367e-01  0.000000e+00
   outer loop
     vertex -7.192434e-01  3.125000e-02  0.000000e+00
     vertex -6.985777e-01 -1.389475e-01  0.000000e+00
     vertex -6.985777e-01 -1.389475e-01  1.171875e-01
   endloop
 endfacet
 facet normal -9.927089e-01 -1.205367e-01  0.000000e+00
   outer loop
     vertex -7.192434e-01  3.125000e-02  0.000000e+00
     vertex -6.985777e-01 -1.389475e-01  1.171875e-01
     vertex -7.192434e-01  3.125000e-02  1.171875e-01
   endloop
 endfacet
 facet normal -9.927089e-01  1.205367e-01  0.000000e+00
   outer loop
     vertex -6.985777e-01  2.014475e-01  0.000000e+00
     vertex -7.192434e-01  3.125000e-02  0.000000e+00
     vertex -7.192434e-01  3.125000e-02  1.171875e-01
   endloop
 endfacet
 facet normal -9.927089e-01  1.205367e-01  0.000000e+00
   outer loop
     vertex -6.985777e-01  2.014475e-01  0.000000e+00
     vertex -7.192434e-01  3.125000e-02  1.171875e-01
     vertex -6.985777e-01  2.014475e-01  1.171875e-01
   endloop
 endfacet
 facet normal -9.350162e-01  3.546049e-01  0.000000e+00
   outer loop
     vertex -6.377816e-01  3.617538e-01  0.000000e+00
     vertex -6.985777e-01  2.014475e-01  0.000000e+00
     vertex -6.985777e-01  2.014475e-01  1.171875e-01
   endloop
 endfacet
 facet normal -9.350162e-01  3.546049e-01  0.000000e+00
   outer loop
     vertex -6.377816e-01  3.617538e-01  0.000000e+00
     vertex -6.985777e-01  2.014475e-01  1.171875e-01
     vertex -6.377816e-01  3.617538e-01  1.171875e-01
   endloop
 endfacet
 facet normal -8.229839e-01  5.680647e-01  0.000000e+00
   outer loop
     vertex -5.403882e-01  5.028524e-01  0.000000e+00
     vertex -6.377816e-01  3.617538e-01  0.000000e+00
     vertex -6.377816e-01  3.617538e-01  1.171875e-01
   endloop
 endfacet
 facet normal -8.229839e-01  5.680647e-01  0.000000e+00
   outer loop
     vertex -5.403882e-01  5.028524e-01  0.000000e+00
     vertex -6.377816e-01  3.617538e-01  1.171875e-01
     vertex -5.403882e-01  5.028524e-01  1.171875e-01
   endloop
 endfacet
 facet normal -6.631227e-01  7.485107e-01  0.000000e+00
   outer loop
     vertex -4.120579e-01  6.165431e-01  0.000000e+00
     vertex -5.403882e-01  5.028524e-01  0.000000e+00
     vertex -5.403882e-01  5.028524e-01  1.171875e-01
   endloop
 endfacet
 facet normal -6.631227e-01  7.485107e-01  0.000000e+00
   outer loop
     vertex -4.120579e-01  6.165431e-01  0.000000e+00
     vertex -5.403882e-01  5.028524e-01  1.171875e-01
     vertex -4.120579e-01  6.165431e-01  1.171875e-01
   endloop
 endfacet
 facet normal -4.647232e-01  8.854560e-01  0.000000e+00
   outer loop
     vertex -2.602486e-01  6.962188e-01  0.000000e+00
     vertex -4.120579e-01  6.165431e-01  0.000000e+00
     vertex -4.120579e-01  6.165431e-01  1.171875e-01
   endloop
 endfacet
 facet normal -4.647232e-01  8.854560e-01  0.000000e+00
   outer loop
     vertex -2.602486e-01  6.962188e-01  0.000000e+00
     vertex -4.120579e-01  6.165431e-01  1.171875e-01
     vertex -2.602486e-01  6.962188e-01  1.171875e-01
   endloop
 endfacet
 facet normal -2.393157e-01  9.709418e-01  0.000000e+00
   outer loop
     vertex -9.378299e-02  7.372489e-01  0.000000e+00
     vertex -2.602486e-01  6.962188e-01  1.171875e-01
     vertex -9.378299e-02  7.372489e-01  1.171875e-01
   endloop
 endfacet
 facet normal -2.393157e-01  9.709418e-01  0.000000e+00
   outer loop
     vertex -9.378299e-02  7.372489e-01  0.000000e+00
     vertex -2.602486e-01  6.962188e-01  0.000000e+00
     vertex -2.602486e-01  6.962188e-01  1.171875e-01
   endloop
 endfacet
 facet normal  0.000000e+00  1.000000e+00 -0.000000e+00
   outer loop
     vertex  7.766457e-02  7.372489e-01  0.000000e+00
     vertex -9.378299e-02  7.372489e-01  1.171875e-01
     vertex  7.766457e-02  7.372489e-01  1.171875e-01
   endloop
 endfacet
 facet normal  0.000000e+00  1.000000e+00  0.000000e+00
   outer loop
     vertex  7.766457e-02  7.372489e-01  0.000000e+00
     vertex -9.378299e-02  7.372489e-01  0.000000e+00
     vertex -9.378299e-02  7.372489e-01  1.171875e-01
   endloop
 endfacet
 facet normal  2.393157e-01  9.709418e-01 -0.000000e+00
   outer loop
     vertex  2.441302e-01  6.962188e-01  0.000000e+00
     vertex  7.766457e-02  7.372489e-01  1.171875e-01
     vertex  2.441302e-01  6.962188e-01  1.171875e-01
   endloop
 endfacet
 facet normal  2.393157e-01  9.709418e-01  0.000000e+00
   outer loop
     vertex  2.441302e-01  6.962188e-01  0.000000e+00
     vertex  7.766457e-02  7.372489e-01  0.000000e+00
     vertex  7.766457e-02  7.372489e-01  1.171875e-01
   endloop
 endfacet
 facet normal  4.647232e-01  8.854560e-01 -0.000000e+00
   outer loop
     vertex  3.959395e-01  6.165431e-01  0.000000e+00
     vertex  2.441302e-01  6.962188e-01  1.171875e-01
     vertex  3.959395e-01  6.165431e-01  1.171875e-01
   endloop
 endfacet
 facet normal  4.647232e-01  8.854560e-01  0.000000e+00
   outer loop
     vertex  3.959395e-01  6.165431e-01  0.000000e+00
     vertex  2.441302e-01  6.962188e-01  0.000000e+00
     vertex  2.441302e-01  6.962188e-01  1.171875e-01
   endloop
 endfacet
 facet normal  6.631227e-01  7.485107e-01 -0.000000e+00
   outer loop
     vertex  5.242698e-01  5.028524e-01  0.000000e+00
     vertex  3.959395e-01  6.165431e-01  1.171875e-01
     vertex  5.242698e-01  5.028524e-01  1.171875e-01
   endloop
 endfacet
 facet normal  6.631227e-01  7.485107e-01  0.000000e+00
   outer loop
     vertex  5.242698e-01  5.028524e-01  0.000000e+00
     vertex  3.959395e-01  6.165431e-01  0.000000e+00
     vertex  3.959395e-01  6.165431e-01  1.171875e-01
   endloop
 endfacet
 facet normal  8.229839e-01  5.680647e-01 -0.000000e+00
   outer loop
     vertex  6.216631e-01  3.617538e-01  0.000000e+00
     vertex  5.242698e-01  5.028524e-01  1.171875e-01
     vertex  6.216631e-01  3.617538e-01  1.171875e-01
   endloop
 endfacet
 facet normal  8.229839e-01  5.680647e-01  0.000000e+00
   outer loop
     vertex  6.216631e-01  3.617538e-01  0.000000e+00
     vertex  5.242698e-01  5.028524e-01  0.000000e+00
     vertex  5.242698e-01  5.028524e-01  1.171875e-01
   endloop
 endfacet
 facet normal  9.350162e-01  3.546049e-01 -0.000000e+00
   outer loop
     vertex  6.824593e-01  2.014475e-01  0.000000e+00
     vertex  6.216631e-01  3.617538e-01  1.171875e-01
     vertex  6.824593e-01  2.014475e-01  1.171875e-01
   endloop
 endfacet
 facet normal  9.350162e-01  3.546049e-01  0.000000e+00
   outer loop
     vertex  6.824593e-01  2.014475e-01  0.000000e+00
     vertex  6.216631e-01  3.617538e-01  0.000000e+00
     vertex  6.216631e-01  3.617538e-01  1.171875e-01
   endloop
 endfacet
 facet normal  9.927089e-01  1.205367e-01 -0.000000e+00
   outer loop
     vertex  7.031250e-01  3.125000e-02  0.000000e+00
     vertex  6.824593e-01  2.014475e-01  1.171875e-01
     vertex  7.031250e-01  3.125000e-02  1.171875e-01
   endloop
 endfacet
 facet normal  9.927089e-01  1.205367e-01  0.000000e+00
   outer loop
     vertex  7.031250e-01  3.125000e-02  0.000000e+00
     vertex  6.824593e-01  2.014475e-01  0.000000e+00
     vertex  6.824593e-01  2.014475e-01  1.171875e-01
   endloop
 endfacet
 facet normal -9.396926e-01  3.420201e-01  0.000000e+00
   outer loop
     vertex  8.467249e-02 -4.656113e-02  0.000000e+00
     vertex  1.129934e-01  3.125000e-02  1.171875e-01
     vertex  1.129934e-01  3.125000e-02  0.000000e+00
   endloop
 endfacet
 facet normal -9.396926e-01  3.420201e-01  0.000000e+00
   outer loop
     vertex  8.467249e-02 -4.656113e-02  0.000000e+00
     vertex  8.467249e-02 -4.656113e-02  1.171875e-01
     vertex  1.129934e-01  3.125000e-02  1.171875e-01
   endloop
 endfacet
 facet normal -5.000000e-01  8.660254e-01  0.000000e+00
   outer loop
     vertex  1.296136e-02 -8.796357e-02  0.000000e+00
     vertex  1.296136e-02 -8.796357e-02  1.171875e-01
     vertex  8.467249e-02 -4.656113e-02  1.171875e-01
   endloop
 endfacet
 facet normal -5.000000e-01  8.660254e-01  0.000000e+00
   outer loop
     vertex  1.296136e-02 -8.796357e-02  0.000000e+00
     vertex  8.467249e-02 -4.656113e-02  1.171875e-01
     vertex  8.467249e-02 -4.656113e-02  0.000000e+00
   endloop
 endfacet
 facet normal  1.736482e-01  9.848078e-01 -0.000000e+00
   outer loop
     vertex -6.858553e-02 -7.358465e-02  0.000000e+00
     vertex -6.858553e-02 -7.358465e-02  1.171875e-01
     vertex  1.296136e-02 -8.796357e-02  1.171875e-01
   endloop
 endfacet
 facet normal  1.736482e-01  9.848078e-01  0.000000e+00
   outer loop
     vertex -6.858553e-02 -7.358465e-02  0.000000e+00
     vertex  1.296136e-02 -8.796357e-02  1.171875e-01
     vertex  1.296136e-02 -8.796357e-02  0.000000e+00
   endloop
 endfacet
 facet normal  7.660444e-01  6.427876e-01 -0.000000e+00
   outer loop
     vertex -1.218115e-01 -1.015244e-02  0.000000e+00
     vertex -1.218115e-01 -1.015244e-02  1.171875e-01
     vertex -6.858553e-02 -7.358465e-02  1.171875e-01
   endloop
 endfacet
 facet normal  7.660444e-01  6.427876e-01  0.000000e+00
   outer loop
     vertex -1.218115e-01 -1.015244e-02  0.000000e+00
     vertex -6.858553e-02 -7.358465e-02  1.171875e-01
     vertex -6.858553e-02 -7.358465e-02  0.000000e+00
   endloop
 endfacet
 facet normal  1.000000e+00 -1.675963e-16  0.000000e+00
   outer loop
     vertex -1.218115e-01  7.265244e-02  0.000000e+00
     vertex -1.218115e-01  7.265244e-02  1.171875e-01
     vertex -1.218115e-01 -1.015244e-02  1.171875e-01
   endloop
 endfacet
 facet normal  1.000000e+00 -1.675963e-16  0.000000e+00
   outer loop
     vertex -1.218115e-01  7.265244e-02  0.000000e+00
     vertex -1.218115e-01 -1.015244e-02  1.171875e-01
     vertex -1.218115e-01 -1.015244e-02  0.000000e+00
   endloop
 endfacet
 facet normal  7.660444e-01 -6.427876e-01  0.000000e+00
   outer loop
     vertex -6.858553e-02  1.360847e-01  0.000000e+00
     vertex -6.858553e-02  1.360847e-01  1.171875e-01
     vertex -1.218115e-01  7.265244e-02  1.171875e-01
   endloop
 endfacet
 facet normal  7.660444e-01 -6.427876e-01  0.000000e+00
   outer loop
     vertex -6.858553e-02  1.360847e-01  0.000000e+00
     vertex -1.218115e-01  7.265244e-02  1.171875e-01
     vertex -1.218115e-01  7.265244e-02  0.000000e+00
   endloop
 endfacet
 facet normal  1.736482e-01 -9.848078e-01  0.000000e+00
   outer loop
     vertex  1.296136e-02  1.504636e-01  0.000000e+00
     vertex  1.296136e-02  1.504636e-01  1.171875e-01
     vertex -6.858553e-02  1.360847e-01  1.171875e-01
   endloop
 endfacet
 facet normal  1.736482e-01 -9.848078e-01  0.000000e+00
   outer loop
     vertex  1.296136e-02  1.504636e-01  0.000000e+00
     vertex -6.858553e-02  1.360847e-01  1.171875e-01
     vertex -6.858553e-02  1.360847e-01  0.000000e+00
   endloop
 endfacet
 facet normal -5.000000e-01 -8.660254e-01  0.000000e+00
   outer loop
     vertex  8.467249e-02  1.090611e-01  0.000000e+00
     vertex  8.467249e-02  1.090611e-01  1.171875e-01
     vertex  1.296136e-02  1.504636e-01  1.171875e-01
   endloop
 endfacet
 facet normal -5.000000e-01 -8.660254e-01  0.000000e+00
   outer loop
     vertex  8.467249e-02  1.090611e-01  0.000000e+00
     vertex  1.296136e-02  1.504636e-01  1.171875e-01
     vertex  1.296136e-02  1.504636e-01  0.000000e+00
   endloop
 endfacet
 facet normal -9.396926e-01 -3.420201e-01  0.000000e+00
   outer loop
     vertex  1.129934e-01  3.125000e-02  0.000000e+00
     vertex  1.129934e-01  3.125000e-02  1.171875e-01
     vertex  8.467249e-02  1.090611e-01  1.171875e-01
   endloop
 endfacet
 facet normal -9.396926e-01 -3.420201e-01  0.000000e+00
   outer loop
     vertex  1.129934e-01  3.125000e-02  0.000000e+00
     vertex  8.467249e-02  1.090611e-01  1.171875e-01
     vertex  8.467249e-02  1.090611e-01  0.000000e+00
   endloop
 endfacet
 facet normal  0.000000e+00  0.000000e+00 -1.000000e+00
   outer loop
     vertex -6.858553e-02 -7.358465e-02  0.000000e+00
     vertex -4.120579e-01 -5.540431e-01  0.000000e+00
     vertex -5.403882e-01 -4.403524e-01  0.000000e+00
   endloop
 endfacet
 facet normal  0.000000e+00  0.000000e+00 -1.000000e+00
   outer loop
     vertex -6.858553e-02 -7.358465e-02  0.000000e+00
     vertex -2.602486e-01 -6.337188e-01  0.000000e+00
     vertex -4.120579e-01 -5.540431e-01  0.000000e+00
   endloop
 endfacet
 facet normal  0.000000e+00  0.000000e+00 -1.000000e+00
   outer loop
     vertex -6.858553e-02 -7.358465e-02  0.000000e+00
     vertex -9.378299e-02 -6.747489e-01  0.000000e+00
     vertex -2.602486e-01 -6.337188e-01  0.000000e+00
   endloop
 endfacet
 facet normal -0.000000e+00  0.000000e+00 -1.000000e+00
   outer loop
     vertex -1.218115e-01 -1.015244e-02  0.000000e+00
     vertex -6.985777e-01 -1.389475e-01  0.000000e+00
     vertex -7.192434e-01  3.125000e-02  0.000000e+00
   endloop
 endfacet
 facet normal  0.000000e+00  0.000000e+00 -1.000000e+00
   outer loop
     vertex -1.218115e-01 -1.015244e-02  0.000000e+00
     vertex -6.377816e-01 -2.992538e-01  0.000000e+00
     vertex -6.985777e-01 -1.389475e-01  0.000000e+00
   endloop
 endfacet
 facet normal  0.000000e+00  0.000000e+00 -1.000000e+00
   outer loop
     vertex -1.218115e-01 -1.015244e-02  0.000000e+00
     vertex -5.403882e-01 -4.403524e-01  0.000000e+00
     vertex -6.377816e-01 -2.992538e-01  0.000000e+00
   endloop
 endfacet
 facet normal  0.000000e+00 -0.000000e+00 -1.000000e+00
   outer loop
     vertex -1.218115e-01 -1.015244e-02  0.000000e+00
     vertex -6.858553e-02 -7.358465e-02  0.000000e+00
     vertex -5.403882e-01 -4.403524e-01  0.000000e+00
   endloop
 endfacet
 facet normal  0.000000e+00 -0.000000e+00 -1.000000e+00
   outer loop
     vertex  1.296136e-02 -8.796357e-02  0.000000e+00
     vertex  7.766457e-02 -6.747489e-01  0.000000e+00
     vertex -9.378299e-02 -6.747489e-01  0.000000e+00
   endloop
 endfacet
 facet normal  0.000000e+00  0.000000e+00 -1.000000e+00
   outer loop
     vertex  1.296136e-02 -8.796357e-02  0.000000e+00
     vertex  2.441302e-01 -6.337188e-01  0.000000e+00
     vertex  7.766457e-02 -6.747489e-01  0.000000e+00
   endloop
 endfacet
 facet normal  0.000000e+00  0.000000e+00 -1.000000e+00
   outer loop
     vertex  1.296136e-02 -8.796357e-02  0.000000e+00
     vertex  3.959395e-01 -5.540431e-01  0.000000e+00
     vertex  2.441302e-01 -6.337188e-01  0.000000e+00
   endloop
 endfacet
 facet normal -0.000000e+00  0.000000e+00 -1.000000e+00
   outer loop
     vertex  1.296136e-02 -8.796357e-02  0.000000e+00
     vertex -9.378299e-02 -6.747489e-01  0.000000e+00
     vertex -6.858553e-02 -7.358465e-02  0.000000e+00
   endloop
 endfacet
 facet normal  0.000000e+00  0.000000e+00 -1.000000e+00
   outer loop
     vertex -1.218115e-01  7.265244e-02  0.000000e+00
     vertex -6.985777e-01  2.014475e-01  0.000000e+00
     vertex -6.377816e-01  3.617538e-01  0.000000e+00
   endloop
 endfacet
 facet normal -0.000000e+00  0.000000e+00 -1.000000e+00
   outer loop
     vertex -1.218115e-01  7.265244e-02  0.000000e+00
     vertex -7.192434e-01  3.125000e-02  0.000000e+00
     vertex -6.985777e-01  2.014475e-01  0.000000e+00
   endloop
 endfacet
 facet normal  0.000000e+00  0.000000e+00 -1.000000e+00
   outer loop
     vertex -1.218115e-01  7.265244e-02  0.000000e+00
     vertex -1.218115e-01 -1.015244e-02  0.000000e+00
     vertex -7.192434e-01  3.125000e-02  0.000000e+00
   endloop
 endfacet
 facet normal  0.000000e+00 -0.000000e+00 -1.000000e+00
   outer loop
     vertex -5.403882e-01  5.028524e-01  0.000000e+00
     vertex -1.218115e-01  7.265244e-02  0.000000e+00
     vertex -6.377816e-01  3.617538e-01  0.000000e+00
   endloop
 endfacet
 facet normal  0.000000e+00 -0.000000e+00 -1.000000e+00
   outer loop
     vertex  8.467249e-02 -4.656113e-02  0.000000e+00
     vertex  3.959395e-01 -5.540431e-01  0.000000e+00
     vertex  1.296136e-02 -8.796357e-02  0.000000e+00
   endloop
 endfacet
 facet normal -0.000000e+00  0.000000e+00 -1.000000e+00
   outer loop
     vertex -6.858553e-02  1.360847e-01  0.000000e+00
     vertex -1.218115e-01  7.265244e-02  0.000000e+00
     vertex -5.403882e-01  5.028524e-01  0.000000e+00
   endloop
 endfacet
 facet normal -0.000000e+00  0.000000e+00 -1.000000e+00
   outer loop
     vertex  5.242698e-01 -4.403524e-01  0.000000e+00
     vertex  3.959395e-01 -5.540431e-01  0.000000e+00
     vertex  8.467249e-02 -4.656113e-02  0.000000e+00
   endloop
 endfacet
 facet normal  0.000000e+00 -0.000000e+00 -1.000000e+00
   outer loop
     vertex -4.120579e-01  6.165431e-01  0.000000e+00
     vertex -6.858553e-02  1.360847e-01  0.000000e+00
     vertex -5.403882e-01  5.028524e-01  0.000000e+00
   endloop
 endfacet
 facet normal -0.000000e+00  0.000000e+00 -1.000000e+00
   outer loop
     vertex  6.216631e-01 -2.992538e-01  0.000000e+00
     vertex  5.242698e-01 -4.403524e-01  0.000000e+00
     vertex  8.467249e-02 -4.656113e-02  0.000000e+00
   endloop
 endfacet
 facet normal  0.000000e+00 -0.000000e+00 -1.000000e+00
   outer loop
     vertex -2.602486e-01  6.962188e-01  0.000000e+00
     vertex -6.858553e-02  1.360847e-01  0.000000e+00
     vertex -4.120579e-01  6.165431e-01  0.000000e+00
   endloop
 endfacet
 facet normal  0.000000e+00  0.000000e+00 -1.000000e+00
   outer loop
     vertex  6.824593e-01 -1.389475e-01  0.000000e+00
     vertex  8.467249e-02 -4.656113e-02  0.000000e+00
     vertex  1.129934e-01  3.125000e-02  0.000000e+00
   endloop
 endfacet
 facet normal -0.000000e+00  0.000000e+00 -1.000000e+00
   outer loop
     vertex  6.824593e-01 -1.389475e-01  0.000000e+00
     vertex  6.216631e-01 -2.992538e-01  0.000000e+00
     vertex  8.467249e-02 -4.656113e-02  0.000000e+00
   endloop
 endfacet
 facet normal  0.000000e+00  0.000000e+00 -1.000000e+00
   outer loop
     vertex -9.378299e-02  7.372489e-01  0.000000e+00
     vertex  1.296136e-02  1.504636e-01  0.000000e+00
     vertex -6.858553e-02  1.360847e-01  0.000000e+00
   endloop
 endfacet
 facet normal  0.000000e+00 -0.000000e+00 -1.000000e+00
   outer loop
     vertex -9.378299e-02  7.372489e-01  0.000000e+00
     vertex -6.858553e-02  1.360847e-01  0.000000e+00
     vertex -2.602486e-01  6.962188e-01  0.000000e+00
   endloop
 endfacet
 facet normal -0.000000e+00  0.000000e+00 -1.000000e+00
   outer loop
     vertex  7.031250e-01  3.125000e-02  0.000000e+00
     vertex  6.824593e-01 -1.389475e-01  0.000000e+00
     vertex  1.129934e-01  3.125000e-02  0.000000e+00
   endloop
 endfacet
 facet normal -0.000000e+00  0.000000e+00 -1.000000e+00
   outer loop
     vertex  7.766457e-02  7.372489e-01  0.000000e+00
     vertex  1.296136e-02  1.504636e-01  0.000000e+00
     vertex -9.378299e-02  7.372489e-01  0.000000e+00
   endloop
 endfacet
 facet normal  0.000000e+00  0.000000e+00 -1.000000e+00
   outer loop
     vertex  6.824593e-01  2.014475e-01  0.000000e+00
     vertex  1.129934e-01  3.125000e-02  0.000000e+00
     vertex  8.467249e-02  1.090611e-01  0.000000e+00
   endloop
 endfacet
 facet normal  0.000000e+00 -0.000000e+00 -1.000000e+00
   outer loop
     vertex  6.824593e-01  2.014475e-01  0.000000e+00
     vertex  7.031250e-01  3.125000e-02  0.000000e+00
     vertex  1.129934e-01  3.125000e-02  0.000000e+00
   endloop
 endfacet
 facet normal -0.000000e+00  0.000000e+00 -1.000000e+00
   outer loop
     vertex  2.441302e-01  6.962188e-01  0.000000e+00
     vertex  1.296136e-02  1.504636e-01  0.000000e+00
     vertex  7.766457e-02  7.372489e-01  0.000000e+00
   endloop
 endfacet
 facet normal  0.000000e+00 -0.000000e+00 -1.000000e+00
   outer loop
     vertex  6.216631e-01  3.617538e-01  0.000000e+00
     vertex  6.824593e-01  2.014475e-01  0.000000e+00
     vertex  8.467249e-02  1.090611e-01  0.000000e+00
   endloop
 endfacet
 facet normal -0.000000e+00  0.000000e+00 -1.000000e+00
   outer loop
     vertex  3.959395e-01  6.165431e-01  0.000000e+00
     vertex  1.296136e-02  1.504636e-01  0.000000e+00
     vertex  2.441302e-01  6.962188e-01  0.000000e+00
   endloop
 endfacet
 facet normal  0.000000e+00  0.000000e+00 -1.000000e+00
   outer loop
     vertex  3.959395e-01  6.165431e-01  0.000000e+00
     vertex  8.467249e-02  1.090611e-01  0.000000e+00
     vertex  1.296136e-02  1.504636e-01  0.000000e+00
   endloop
 endfacet
 facet normal  0.000000e+00 -0.000000e+00 -1.000000e+00
   outer loop
     vertex  5.242698e-01  5.028524e-01  0.000000e+00
     vertex  6.216631e-01  3.617538e-01  0.000000e+00
     vertex  8.467249e-02  1.090611e-01  0.000000e+00
   endloop
 endfacet
 facet normal -0.000000e+00  0.000000e+00 -1.000000e+00
   outer loop
     vertex  5.242698e-01  5.028524e-01  0.000000e+00
     vertex  8.467249e-02  1.090611e-01  0.000000e+00
     vertex  3.959395e-01  6.165431e-01  0.000000e+00
   endloop
 endfacet
 facet normal  0.000000e+00  0.000000e+00  1.000000e+00
   outer loop
     vertex -6.858553e-02 -7.358465e-02  1.171875e-01
     vertex -5.403882e-01 -4.403524e-01  1.171875e-01
     vertex -4.120579e-01 -5.540431e-01  1.171875e-01
   endloop
 endfacet
 facet normal  0.000000e+00  0.000000e+00  1.000000e+00
   outer loop
     vertex -6.858553e-02 -7.358465e-02  1.171875e-01
     vertex -4.120579e-01 -5.540431e-01  1.171875e-01
     vertex -2.602486e-01 -6.337188e-01  1.171875e-01
   endloop
 endfacet
 facet normal  0.000000e+00  0.000000e+00  1.000000e+00
   outer loop
     vertex -6.858553e-02 -7.358465e-02  1.171875e-01
     vertex -2.602486e-01 -6.337188e-01  1.171875e-01
     vertex -9.378299e-02 -6.747489e-01  1.171875e-01
   endloop
 endfacet
 facet normal  0.000000e+00  0.000000e+00  1.000000e+00
   outer loop
     vertex -1.218115e-01 -1.015244e-02  1.171875e-01
     vertex -7.192434e-01  3.125000e-02  1.171875e-01
     vertex -6.985777e-01 -1.389475e-01  1.171875e-01
   endloop
 endfacet
 facet normal  0.000000e+00  0.000000e+00  1.000000e+00
   outer loop
     vertex -1.218115e-01 -1.015244e-02  1.171875e-01
     vertex -6.985777e-01 -1.389475e-01  1.171875e-01
     vertex -6.377816e-01 -2.992538e-01  1.171875e-01
   endloop
 endfacet
 facet normal  0.000000e+00  0.000000e+00  1.000000e+00
   outer loop
     vertex -1.218115e-01 -1.015244e-02  1.171875e-01
     vertex -6.377816e-01 -2.992538e-01  1.171875e-01
     vertex -5.403882e-01 -4.403524e-01  1.171875e-01
   endloop
 endfacet
 facet normal  0.000000e+00  0.000000e+00  1.000000e+00
   outer loop
     vertex -1.218115e-01 -1.015244e-02  1.171875e-01
     vertex -5.403882e-01 -4.403524e-01  1.171875e-01
     vertex -6.858553e-02 -7.358465e-02  1.171875e-01
   endloop
 endfacet
 facet normal  0.000000e+00  0.000000e+00  1.000000e+00
   outer loop
     vertex  1.296136e-02 -8.796357e-02  1.171875e-01
     vertex -9.378299e-02 -6.747489e-01  1.171875e-01
     vertex  7.766457e-02 -6.747489e-01  1.171875e-01
   endloop
 endfacet
 facet normal  0.000000e+00  0.000000e+00  1.000000e+00
   outer loop
     vertex  1.296136e-02 -8.796357e-02  1.171875e-01
     vertex  7.766457e-02 -6.747489e-01  1.171875e-01
     vertex  2.441302e-01 -6.337188e-01  1.171875e-01
   endloop
 endfacet
 facet normal  0.000000e+00  0.000000e+00  1.000000e+00
   outer loop
     vertex  1.296136e-02 -8.796357e-02  1.171875e-01
     vertex  2.441302e-01 -6.337188e-01  1.171875e-01
     vertex  3.959395e-01 -5.540431e-01  1.171875e-01
   endloop
 endfacet
 facet normal  0.000000e+00  0.000000e+00  1.000000e+00
   outer loop
     vertex  1.296136e-02 -8.796357e-02  1.171875e-01
     vertex -6.858553e-02 -7.358465e-02  1.171875e-01
     vertex -9.378299e-02 -6.747489e-01  1.171875e-01
   endloop
 endfacet
 facet normal  0.000000e+00  0.000000e+00  1.000000e+00
   outer loop
     vertex -1.218115e-01  7.265244e-02  1.171875e-01
     vertex -6.377816e-01  3.617538e-01  1.171875e-01
     vertex -6.985777e-01  2.014475e-01  1.171875e-01
   endloop
 endfacet
 facet normal  0.000000e+00  0.000000e+00  1.000000e+00
   outer loop
     vertex -1.218115e-01  7.265244e-02  1.171875e-01
     vertex -6.985777e-01  2.014475e-01  1.171875e-01
     vertex -7.192434e-01  3.125000e-02  1.171875e-01
   endloop
 endfacet
 facet normal  0.000000e+00  0.000000e+00  1.000000e+00
   outer loop
     vertex -1.218115e-01  7.265244e-02  1.171875e-01
     vertex -7.192434e-01  3.125000e-02  1.171875e-01
     vertex -1.218115e-01 -1.015244e-02  1.171875e-01
   endloop
 endfacet
 facet normal  0.000000e+00  0.000000e+00  1.000000e+00
   outer loop
     vertex -5.403882e-01  5.028524e-01  1.171875e-01
     vertex -6.377816e-01  3.617538e-01  1.171875e-01
     vertex -1.218115e-01  7.265244e-02  1.171875e-01
   endloop
 endfacet
 facet normal  0.000000e+00  0.000000e+00  1.000000e+00
   outer loop
     vertex  8.467249e-02 -4.656113e-02  1.171875e-01
     vertex  1.296136e-02 -8.796357e-02  1.171875e-01
     vertex  3.959395e-01 -5.540431e-01  1.171875e-01
   endloop
 endfacet
 facet normal  0.000000e+00  0.000000e+00  1.000000e+00
   outer loop
     vertex -6.858553e-02  1.360847e-01  1.171875e-01
     vertex -5.403882e-01  5.028524e-01  1.171875e-01
     vertex -1.218115e-01  7.265244e-02  1.171875e-01
   endloop
 endfacet
 facet normal  0.000000e+00  0.000000e+00  1.000000e+00
   outer loop
     vertex  5.242698e-01 -4.403524e-01  1.171875e-01
     vertex  8.467249e-02 -4.656113e-02  1.171875e-01
     vertex  3.959395e-01 -5.540431e-01  1.171875e-01
   endloop
 endfacet
 facet normal  0.000000e+00  0.000000e+00  1.000000e+00
   outer loop
     vertex -4.120579e-01  6.165431e-01  1.171875e-01
     vertex -5.403882e-01  5.028524e-01  1.171875e-01
     vertex -6.858553e-02  1.360847e-01  1.171875e-01
   endloop
 endfacet
 facet normal  0.000000e+00  0.000000e+00  1.000000e+00
   outer loop
     vertex  6.216631e-01 -2.992538e-01  1.171875e-01
     vertex  8.467249e-02 -4.656113e-02  1.171875e-01
     vertex  5.242698e-01 -4.403524e-01  1.171875e-01
   endloop
 endfacet
 facet normal  0.000000e+00  0.000000e+00  1.000000e+00
   outer loop
     vertex -2.602486e-01  6.962188e-01  1.171875e-01
     vertex -4.120579e-01  6.165431e-01  1.171875e-01
     vertex -6.858553e-02  1.360847e-01  1.171875e-01
   endloop
 endfacet
 facet normal  0.000000e+00  0.000000e+00  1.000000e+00
   outer loop
     vertex  6.824593e-01 -1.389475e-01  1.171875e-01
     vertex  1.129934e-01  3.125000e-02  1.171875e-01
     vertex  8.467249e-02 -4.656113e-02  1.171875e-01
   endloop
 endfacet
 facet normal  0.000000e+00  0.000000e+00  1.000000e+00
   outer loop
     vertex  6.824593e-01 -1.389475e-01  1.171875e-01
     vertex  8.467249e-02 -4.656113e-02  1.171875e-01
     vertex  6.216631e-01 -2.992538e-01  1.171875e-01
   endloop
 endfacet
 facet normal  0.000000e+00  0.000000e+00  1.000000e+00
   outer loop
     vertex -9.378299e-02  7.372489e-01  1.171875e-01
     vertex -6.858553e-02  1.360847e-01  1.171875e-01
     vertex  1.296136e-02  1.504636e-01  1.171875e-01
   endloop
 endfacet
 facet normal  0.000000e+00  0.000000e+00  1.000000e+00
   outer loop
     vertex -9.378299e-02  7.372489e-01  1.171875e-01
     vertex -2.602486e-01  6.962188e-01  1.171875e-01
     vertex -6.858553e-02  1.360847e-01  1.171875e-01
   endloop
 endfacet
 facet normal  0.000000e+00  0.000000e+00  1.000000e+00
   outer loop
     vertex  7.031250e-01  3.125000e-02  1.171875e-01
     vertex  1.129934e-01  3.125000e-02  1.171875e-01
     vertex  6.824593e-01 -1.389475e-01  1.171875e-01
   endloop
 endfacet
 facet normal  0.000000e+00  0.000000e+00  1.000000e+00
   outer loop
     vertex  7.766457e-02  7.372489e-01  1.171875e-01
     vertex -9.378299e-02  7.372489e-01  1.171875e-01
     vertex  1.296136e-02  1.504636e-01  1.171875e-01
   endloop
 endfacet
 facet normal  0.000000e+00  0.000000e+00  1.000000e+00
   outer loop
     vertex  6.824593e-01  2.014475e-01  1.171875e-01
     vertex  8.467249e-02  1.090611e-01  1.171875e-01
     vertex  1.129934e-01  3.125000e-02  1.171875e-01
   endloop
 endfacet
 facet normal  0.000000e+00  0.000000e+00  1.000000e+00
   outer loop
     vertex  6.824593e-01  2.014475e-01  1.171875e-01
     vertex  1.129934e-01  3.125000e-02  1.171875e-01
     vertex  7.031250e-01  3.125000e-02  1.171875e-01
   endloop
 endfacet
 facet normal  0.000000e+00  0.000000e+00  1.000000e+00
   outer loop
     vertex  2.441302e-01  6.962188e-01  1.171875e-01
     vertex  7.766457e-02  7.372489e-01  1.171875e-01
     vertex  1.296136e-02  1.504636e-01  1.171875e-01
   endloop
 endfacet
 facet normal  0.000000e+00  0.000000e+00  1.000000e+00
   outer loop
     vertex  6.216631e-01  3.617538e-01  1.171875e-01
     vertex  8.467249e-02  1.090611e-01  1.171875e-01
     vertex  6.824593e-01  2.014475e-01  1.171875e-01
   endloop
 endfacet
 facet normal  0.000000e+00  0.000000e+00  1.000000e+00
   outer loop
     vertex  3.959395e-01  6.165431e-01  1.171875e-01
     vertex  2.441302e-01  6.962188e-01  1.171875e-01
     vertex  1.296136e-02  1.504636e-01  1.171875e-01
   endloop
 endfacet
 facet normal  0.000000e+00  0.000000e+00  1.000000e+00
   outer loop
     vertex  3.959395e-01  6.165431e-01  1.171875e-01
     vertex  1.296136e-02  1.504636e-01  1.171875e-01
     vertex  8.467249e-02  1.090611e-01  1.171875e-01
   endloop
 endfacet
 facet normal  0.000000e+00  0.000000e+00  1.000000e+00
   outer loop
     vertex  5.242698e-01  5.028524e-01  1.171875e-01
     vertex  8.467249e-02  1.090611e-01  1.171875e-01
     vertex  6.216631e-01  3.617538e-01  1.171875e-01
   endloop
 endfacet
 facet normal  0.000000e+00  0.000000e+00  1.000000e+00
   outer loop
     vertex  5.242698e-01  5.028524e-01  1.171875e-01
     vertex  3.959395e-01  6.165431e-01  1.171875e-01
     vertex  8.467249e-02  1.090611e-01  1.171875e-01
   endloop
 endfacet
endsolid
