solid 
 facet normal -6.123234e-17 -6.123234e-17 -1.000000e+00
   outer loop
     vertex  0.000000e+00  4.592425e-17 -4.592425e-17
     vertex -7.500000e-01 -2.500000e-01  1.530808e-17
     vertex -7.500000e-01  0.000000e+00  0.000000e+00
   endloop
 endfacet
 facet normal -6.123234e-17 -6.123234e-17 -1.000000e+00
   outer loop
     vertex  0.000000e+00  4.592425e-17 -4.592425e-17
     vertex  1.530808e-17 -2.500000e-01 -3.061617e-17
     vertex -7.500000e-01 -2.500000e-01  1.530808e-17
   endloop
 endfacet
 facet normal -1.000000e+00  0.000000e+00  0.000000e+00
   outer loop
     vertex -7.500000e-01  0.000000e+00  0.000000e+00
     vertex -7.500000e-01 -2.500000e-01  2.526316e-01
     vertex -7.500000e-01  1.546922e-17  2.526316e-01
   endloop
 endfacet
 facet normal -1.000000e+00  0.000000e+00  0.000000e+00
   outer loop
     vertex -7.500000e-01  0.000000e+00  0.000000e+00
     vertex -7.500000e-01 -2.500000e-01  1.530808e-17
     vertex -7.500000e-01 -2.500000e-01  2.526316e-01
   endloop
 endfacet
 facet normal  1.000000e+00  6.123234e-17 -3.749399e-33
   outer loop
     vertex  0.000000e+00  6.139348e-17  2.526316e-01
     vertex  1.530808e-17 -2.500000e-01 -3.061617e-17
     vertex  0.000000e+00  4.592425e-17 -4.592425e-17
   endloop
 endfacet
 facet normal  1.000000e+00  6.123234e-17  0.000000e+00
   outer loop
     vertex  0.000000e+00  6.139348e-17  2.526316e-01
     vertex  1.530808e-17 -2.500000e-01  2.526316e-01
     vertex  1.530808e-17 -2.500000e-01 -3.061617e-17
   endloop
 endfacet
 facet normal -6.123234e-17  1.000000e+00 -6.123234e-17
   outer loop
     vertex  0.000000e+00  6.139348e-17  2.526316e-01
     vertex -7.500000e-01  0.000000e+00  0.000000e+00
     vertex -7.500000e-01  1.546922e-17  2.526316e-01
   endloop
 endfacet
 facet normal -6.123234e-17  1.000000e+00 -6.123234e-17
   outer loop
     vertex  0.000000e+00  6.139348e-17  2.526316e-01
     vertex  0.000000e+00  4.592425e-17 -4.592425e-17
     vertex -7.500000e-01  0.000000e+00  0.000000e+00
   endloop
 endfacet
 facet normal -6.076132e-17 -6.123234e-17 -1.000000e+00
   outer loop
     vertex -2.421875e-01 -5.000000e-01 -2.391888e-19
     vertex -7.500000e-01 -5.000000e-01  3.061617e-17
     vertex -7.500000e-01 -2.500000e-01  1.530808e-17
   endloop
 endfacet
 facet normal  3.919857e-15 -3.918870e-15 -1.000000e+00
   outer loop
     vertex  1.530808e-17 -2.500000e-01 -3.061617e-17
     vertex  0.000000e+00 -2.578125e-01  0.000000e+00
     vertex -2.421875e-01 -5.000000e-01 -2.391888e-19
   endloop
 endfacet
 facet normal -6.123234e-17 -6.218910e-17 -1.000000e+00
   outer loop
     vertex  1.530808e-17 -2.500000e-01 -3.061617e-17
     vertex -2.421875e-01 -5.000000e-01 -2.391888e-19
     vertex -7.500000e-01 -2.500000e-01  1.530808e-17
   endloop
 endfacet
 facet normal -1.000000e+00  0.000000e+00  0.000000e+00
   outer loop
     vertex -7.500000e-01 -2.500000e-01  1.530808e-17
     vertex -7.500000e-01 -5.000000e-01  2.526316e-01
     vertex -7.500000e-01 -2.500000e-01  2.526316e-01
   endloop
 endfacet
 facet normal -1.000000e+00  0.000000e+00  0.000000e+00
   outer loop
     vertex -7.500000e-01 -2.500000e-01  1.530808e-17
     vertex -7.500000e-01 -5.000000e-01  3.061617e-17
     vertex -7.500000e-01 -5.000000e-01  2.526316e-01
   endloop
 endfacet
 facet normal -1.000000e+00  0.000000e+00  0.000000e+00
   outer loop
     vertex -7.500000e-01  1.546922e-17  2.526316e-01
     vertex -7.500000e-01 -2.500000e-01  6.236842e-01
     vertex -7.500000e-01  3.818964e-17  6.236842e-01
   endloop
 endfacet
 facet normal -1.000000e+00  0.000000e+00  0.000000e+00
   outer loop
     vertex -7.500000e-01  1.546922e-17  2.526316e-01
     vertex -7.500000e-01 -2.500000e-01  2.526316e-01
     vertex -7.500000e-01 -2.500000e-01  6.236842e-01
   endloop
 endfacet
 facet normal  1.000000e+00  6.123234e-17 -3.749399e-33
   outer loop
     vertex  0.000000e+00  8.411390e-17  6.236842e-01
     vertex  1.530808e-17 -2.500000e-01  2.526316e-01
     vertex  0.000000e+00  6.139348e-17  2.526316e-01
   endloop
 endfacet
 facet normal  1.000000e+00  6.123234e-17  0.000000e+00
   outer loop
     vertex  0.000000e+00  8.411390e-17  6.236842e-01
     vertex  1.530808e-17 -2.500000e-01  6.236842e-01
     vertex  1.530808e-17 -2.500000e-01  2.526316e-01
   endloop
 endfacet
 facet normal  1.000000e+00 -1.959435e-15  0.000000e+00
   outer loop
     vertex  1.530808e-17 -2.500000e-01  2.526316e-01
     vertex  0.000000e+00 -2.578125e-01  0.000000e+00
     vertex  1.530808e-17 -2.500000e-01 -3.061617e-17
   endloop
 endfacet
 facet normal  1.000000e+00 -9.491013e-16 -3.124404e-17
   outer loop
     vertex  1.530808e-17 -2.500000e-01  2.526316e-01
     vertex  7.893231e-18 -2.578125e-01  2.526316e-01
     vertex  0.000000e+00 -2.578125e-01  0.000000e+00
   endloop
 endfacet
 facet normal -6.123234e-17  1.000000e+00  1.332727e-14
   outer loop
     vertex -1.315789e-03 -7.734611e-18  2.578125e-01
     vertex  0.000000e+00  6.139348e-17  2.526316e-01
     vertex -7.500000e-01  1.546922e-17  2.526316e-01
   endloop
 endfacet
 facet normal  7.302667e-18  1.000000e+00 -6.123234e-17
   outer loop
     vertex -2.439465e-01  3.449410e-17  6.236842e-01
     vertex -7.500000e-01  1.546922e-17  2.526316e-01
     vertex -7.500000e-01  3.818964e-17  6.236842e-01
   endloop
 endfacet
 facet normal  3.164630e-17  1.000000e+00 -9.443297e-17
   outer loop
     vertex -2.439465e-01  3.449410e-17  6.236842e-01
     vertex -1.315789e-03 -7.734611e-18  2.578125e-01
     vertex -7.500000e-01  1.546922e-17  2.526316e-01
   endloop
 endfacet
 facet normal -2.641984e-14  1.000000e+00 -1.560262e-16
   outer loop
     vertex  0.000000e+00  8.411390e-17  6.236842e-01
     vertex -1.315789e-03 -7.734611e-18  2.578125e-01
     vertex -1.315789e-03  4.935095e-17  6.236842e-01
   endloop
 endfacet
 facet normal -5.277845e-14  1.000000e+00 -6.123234e-17
   outer loop
     vertex  0.000000e+00  6.139348e-17  2.526316e-01
     vertex -1.315789e-03 -7.734611e-18  2.578125e-01
     vertex  0.000000e+00  8.411390e-17  6.236842e-01
   endloop
 endfacet
 facet normal  7.071068e-01 -7.071068e-01  0.000000e+00
   outer loop
     vertex -2.421875e-01 -5.000000e-01 -2.391888e-19
     vertex  0.000000e+00 -2.578125e-01  0.000000e+00
     vertex  7.893231e-18 -2.578125e-01  2.526316e-01
   endloop
 endfacet
 facet normal  7.071068e-01 -7.071068e-01  0.000000e+00
   outer loop
     vertex -2.421875e-01 -5.000000e-01 -2.391888e-19
     vertex  7.893231e-18 -2.578125e-01  2.526316e-01
     vertex -2.421875e-01 -5.000000e-01  2.526316e-01
   endloop
 endfacet
 facet normal -0.000000e+00 -1.000000e+00  0.000000e+00
   outer loop
     vertex -2.421875e-01 -5.000000e-01  2.526316e-01
     vertex -7.500000e-01 -5.000000e-01  2.526316e-01
     vertex -7.500000e-01 -5.000000e-01  3.061617e-17
   endloop
 endfacet
 facet normal  0.000000e+00 -1.000000e+00 -0.000000e+00
   outer loop
     vertex -2.421875e-01 -5.000000e-01  2.526316e-01
     vertex -7.500000e-01 -5.000000e-01  3.061617e-17
     vertex -2.421875e-01 -5.000000e-01 -2.391888e-19
   endloop
 endfacet
 facet normal  0.000000e+00  0.000000e+00  1.000000e+00
   outer loop
     vertex  1.530808e-17 -2.500000e-01  2.526316e-01
     vertex -2.421875e-01 -5.000000e-01  2.526316e-01
     vertex  7.893231e-18 -2.578125e-01  2.526316e-01
   endloop
 endfacet
 facet normal  0.000000e+00  0.000000e+00  1.000000e+00
   outer loop
     vertex -7.500000e-01 -2.500000e-01  2.526316e-01
     vertex -7.500000e-01 -5.000000e-01  2.526316e-01
     vertex -2.421875e-01 -5.000000e-01  2.526316e-01
   endloop
 endfacet
 facet normal -0.000000e+00  0.000000e+00  1.000000e+00
   outer loop
     vertex -7.500000e-01 -2.500000e-01  2.526316e-01
     vertex -2.421875e-01 -5.000000e-01  2.526316e-01
     vertex  1.530808e-17 -2.500000e-01  2.526316e-01
   endloop
 endfacet
 facet normal  0.000000e+00 -1.000000e+00 -0.000000e+00
   outer loop
     vertex -1.315789e-03 -2.500000e-01  2.578125e-01
     vertex -7.500000e-01 -2.500000e-01  2.526316e-01
     vertex  1.530808e-17 -2.500000e-01  2.526316e-01
   endloop
 endfacet
 facet normal -0.000000e+00 -1.000000e+00  0.000000e+00
   outer loop
     vertex -2.439465e-01 -2.500000e-01  6.236842e-01
     vertex -7.500000e-01 -2.500000e-01  6.236842e-01
     vertex -7.500000e-01 -2.500000e-01  2.526316e-01
   endloop
 endfacet
 facet normal  0.000000e+00 -1.000000e+00 -0.000000e+00
   outer loop
     vertex -2.439465e-01 -2.500000e-01  6.236842e-01
     vertex -7.500000e-01 -2.500000e-01  2.526316e-01
     vertex -1.315789e-03 -2.500000e-01  2.578125e-01
   endloop
 endfacet
 facet normal -0.000000e+00 -1.000000e+00  0.000000e+00
   outer loop
     vertex  1.530808e-17 -2.500000e-01  6.236842e-01
     vertex -1.315789e-03 -2.500000e-01  6.236842e-01
     vertex -1.315789e-03 -2.500000e-01  2.578125e-01
   endloop
 endfacet
 facet normal  0.000000e+00 -1.000000e+00  0.000000e+00
   outer loop
     vertex  1.530808e-17 -2.500000e-01  2.526316e-01
     vertex  1.530808e-17 -2.500000e-01  6.236842e-01
     vertex -1.315789e-03 -2.500000e-01  2.578125e-01
   endloop
 endfacet
 facet normal  0.000000e+00  0.000000e+00  1.000000e+00
   outer loop
     vertex -7.500000e-01  3.818964e-17  6.236842e-01
     vertex -2.439465e-01 -2.500000e-01  6.236842e-01
     vertex -2.439465e-01  3.449410e-17  6.236842e-01
   endloop
 endfacet
 facet normal  0.000000e+00  0.000000e+00  1.000000e+00
   outer loop
     vertex -7.500000e-01  3.818964e-17  6.236842e-01
     vertex -7.500000e-01 -2.500000e-01  6.236842e-01
     vertex -2.439465e-01 -2.500000e-01  6.236842e-01
   endloop
 endfacet
 facet normal -0.000000e+00  0.000000e+00  1.000000e+00
   outer loop
     vertex -1.315789e-03  4.935095e-17  6.236842e-01
     vertex  1.530808e-17 -2.500000e-01  6.236842e-01
     vertex  0.000000e+00  8.411390e-17  6.236842e-01
   endloop
 endfacet
 facet normal  0.000000e+00  0.000000e+00  1.000000e+00
   outer loop
     vertex -1.315789e-03  4.935095e-17  6.236842e-01
     vertex -1.315789e-03 -2.500000e-01  6.236842e-01
     vertex  1.530808e-17 -2.500000e-01  6.236842e-01
   endloop
 endfacet
 facet normal  8.333975e-01  0.000000e+00  5.526741e-01
   outer loop
     vertex -1.315789e-03 -7.734611e-18  2.578125e-01
     vertex -2.439465e-01  3.449410e-17  6.236842e-01
     vertex -2.439465e-01 -2.500000e-01  6.236842e-01
   endloop
 endfacet
 facet normal  8.333975e-01  0.000000e+00  5.526741e-01
   outer loop
     vertex -1.315789e-03 -7.734611e-18  2.578125e-01
     vertex -2.439465e-01 -2.500000e-01  6.236842e-01
     vertex -1.315789e-03 -2.500000e-01  2.578125e-01
   endloop
 endfacet
 facet normal -1.000000e+00  0.000000e+00  0.000000e+00
   outer loop
     vertex -1.315789e-03  4.935095e-17  6.236842e-01
     vertex -1.315789e-03 -7.734611e-18  2.578125e-01
     vertex -1.315789e-03 -2.500000e-01  2.578125e-01
   endloop
 endfacet
 facet normal -1.000000e+00 -0.000000e+00  0.000000e+00
   outer loop
     vertex -1.315789e-03  4.935095e-17  6.236842e-01
     vertex -1.315789e-03 -2.500000e-01  2.578125e-01
     vertex -1.315789e-03 -2.500000e-01  6.236842e-01
   endloop
 endfacet
endsolid
