solid 
 facet normal  0.000000e+00 -1.000000e+00  0.000000e+00
   outer loop
     vertex  5.346217e-01 -7.500000e-01  0.000000e+00
     vertex -5.390625e-01 -7.500000e-01  3.125000e-02
     vertex -5.390625e-01 -7.500000e-01  0.000000e+00
   endloop
 endfacet
 facet normal  0.000000e+00 -1.000000e+00  0.000000e+00
   outer loop
     vertex  5.346217e-01 -7.500000e-01  0.000000e+00
     vertex  5.346217e-01 -7.500000e-01  3.125000e-02
     vertex -5.390625e-01 -7.500000e-01  3.125000e-02
   endloop
 endfacet
 facet normal  1.000000e+00  0.000000e+00  0.000000e+00
   outer loop
     vertex  5.346217e-01  7.500000e-01  0.000000e+00
     vertex  5.346217e-01 -7.500000e-01  3.125000e-02
     vertex  5.346217e-01 -7.500000e-01  0.000000e+00
   endloop
 endfacet
 facet normal  1.000000e+00  0.000000e+00 -0.000000e+00
   outer loop
     vertex  5.346217e-01  7.500000e-01  0.000000e+00
     vertex  5.346217e-01  7.500000e-01  3.125000e-02
     vertex  5.346217e-01 -7.500000e-01  3.125000e-02
   endloop
 endfacet
 facet normal  0.000000e+00  1.000000e+00  0.000000e+00
   outer loop
     vertex -5.390625e-01  7.500000e-01  0.000000e+00
     vertex  5.346217e-01  7.500000e-01  3.125000e-02
     vertex  5.346217e-01  7.500000e-01  0.000000e+00
   endloop
 endfacet
 facet normal  0.000000e+00  1.000000e+00  0.000000e+00
   outer loop
     vertex -5.390625e-01  7.500000e-01  0.000000e+00
     vertex -5.390625e-01  7.500000e-01  3.125000e-02
     vertex  5.346217e-01  7.500000e-01  3.125000e-02
   endloop
 endfacet
 facet normal -1.000000e+00  0.000000e+00  0.000000e+00
   outer loop
     vertex -5.390625e-01 -7.500000e-01  0.000000e+00
     vertex -5.390625e-01  7.500000e-01  3.125000e-02
     vertex -5.390625e-01  7.500000e-01  0.000000e+00
   endloop
 endfacet
 facet normal -1.000000e+00  0.000000e+00  0.000000e+00
   outer loop
     vertex -5.390625e-01 -7.500000e-01  0.000000e+00
     vertex -5.390625e-01 -7.500000e-01  3.125000e-02
     vertex -5.390625e-01  7.500000e-01  3.125000e-02
   endloop
 endfacet
 facet normal  0.000000e+00 -0.000000e+00 -1.000000e+00
   outer loop
     vertex  5.346217e-01  7.500000e-01  0.000000e+00
     vertex  5.346217e-01 -7.500000e-01  0.000000e+00
     vertex -5.390625e-01 -7.500000e-01  0.000000e+00
   endloop
 endfacet
 facet normal -0.000000e+00  0.000000e+00 -1.000000e+00
   outer loop
     vertex  5.346217e-01  7.500000e-01  0.000000e+00
     vertex -5.390625e-01 -7.500000e-01  0.000000e+00
     vertex -5.390625e-01  7.500000e-01  0.000000e+00
   endloop
 endfacet
 facet normal  0.000000e+00  0.000000e+00  1.000000e+00
   outer loop
     vertex  5.346217e-01  7.500000e-01  3.125000e-02
     vertex -5.390625e-01 -7.500000e-01  3.125000e-02
     vertex  5.346217e-01 -7.500000e-01  3.125000e-02
   endloop
 endfacet
 facet normal  0.000000e+00  0.000000e+00  1.000000e+00
   outer loop
     vertex  5.346217e-01  7.500000e-01  3.125000e-02
     vertex -5.390625e-01  7.500000e-01  3.125000e-02
     vertex -5.390625e-01 -7.500000e-01  3.125000e-02
   endloop
 endfacet
endsolid
