solid 
 facet normal  0.000000e+00 -1.000000e+00  0.000000e+00
   outer loop
     vertex  6.750822e-01 -6.875000e-01  0.000000e+00
     vertex -6.640625e-01 -6.875000e-01  6.015625e-01
     vertex -6.640625e-01 -6.875000e-01  0.000000e+00
   endloop
 endfacet
 facet normal  0.000000e+00 -1.000000e+00  0.000000e+00
   outer loop
     vertex  6.750822e-01 -6.875000e-01  0.000000e+00
     vertex  6.750822e-01 -6.875000e-01  6.015625e-01
     vertex -6.640625e-01 -6.875000e-01  6.015625e-01
   endloop
 endfacet
 facet normal  1.000000e+00  0.000000e+00  0.000000e+00
   outer loop
     vertex  6.750822e-01  6.953125e-01  0.000000e+00
     vertex  6.750822e-01 -6.875000e-01  6.015625e-01
     vertex  6.750822e-01 -6.875000e-01  0.000000e+00
   endloop
 endfacet
 facet normal  1.000000e+00  0.000000e+00 -0.000000e+00
   outer loop
     vertex  6.750822e-01  6.953125e-01  0.000000e+00
     vertex  6.750822e-01  6.953125e-01  6.015625e-01
     vertex  6.750822e-01 -6.875000e-01  6.015625e-01
   endloop
 endfacet
 facet normal  0.000000e+00  1.000000e+00  0.000000e+00
   outer loop
     vertex -6.640625e-01  6.953125e-01  0.000000e+00
     vertex  6.750822e-01  6.953125e-01  6.015625e-01
     vertex  6.750822e-01  6.953125e-01  0.000000e+00
   endloop
 endfacet
 facet normal  0.000000e+00  1.000000e+00  0.000000e+00
   outer loop
     vertex -6.640625e-01  6.953125e-01  0.000000e+00
     vertex -6.640625e-01  6.953125e-01  6.015625e-01
     vertex  6.750822e-01  6.953125e-01  6.015625e-01
   endloop
 endfacet
 facet normal -1.000000e+00  0.000000e+00  0.000000e+00
   outer loop
     vertex -6.640625e-01 -6.875000e-01  0.000000e+00
     vertex -6.640625e-01  6.953125e-01  6.015625e-01
     vertex -6.640625e-01  6.953125e-01  0.000000e+00
   endloop
 endfacet
 facet normal -1.000000e+00  0.000000e+00  0.000000e+00
   outer loop
     vertex -6.640625e-01 -6.875000e-01  0.000000e+00
     vertex -6.640625e-01 -6.875000e-01  6.015625e-01
     vertex -6.640625e-01  6.953125e-01  6.015625e-01
   endloop
 endfacet
 facet normal  0.000000e+00  1.000000e+00  0.000000e+00
   outer loop
     vertex  6.023026e-01 -6.147204e-01  0.000000e+00
     vertex -5.912829e-01 -6.147204e-01  0.000000e+00
     vertex -5.912829e-01 -6.147204e-01  6.015625e-01
   endloop
 endfacet
 facet normal  0.000000e+00  1.000000e+00 -0.000000e+00
   outer loop
     vertex  6.023026e-01 -6.147204e-01  0.000000e+00
     vertex -5.912829e-01 -6.147204e-01  6.015625e-01
     vertex  6.023026e-01 -6.147204e-01  6.015625e-01
   endloop
 endfacet
 facet normal -1.000000e+00  0.000000e+00  0.000000e+00
   outer loop
     vertex  6.023026e-01  6.225329e-01  0.000000e+00
     vertex  6.023026e-01 -6.147204e-01  0.000000e+00
     vertex  6.023026e-01 -6.147204e-01  6.015625e-01
   endloop
 endfacet
 facet normal -1.000000e+00  0.000000e+00  0.000000e+00
   outer loop
     vertex  6.023026e-01  6.225329e-01  0.000000e+00
     vertex  6.023026e-01 -6.147204e-01  6.015625e-01
     vertex  6.023026e-01  6.225329e-01  6.015625e-01
   endloop
 endfacet
 facet normal  0.000000e+00 -1.000000e+00  0.000000e+00
   outer loop
     vertex -5.912829e-01  6.225329e-01  0.000000e+00
     vertex  6.023026e-01  6.225329e-01  0.000000e+00
     vertex  6.023026e-01  6.225329e-01  6.015625e-01
   endloop
 endfacet
 facet normal  0.000000e+00 -1.000000e+00  0.000000e+00
   outer loop
     vertex -5.912829e-01  6.225329e-01  0.000000e+00
     vertex  6.023026e-01  6.225329e-01  6.015625e-01
     vertex -5.912829e-01  6.225329e-01  6.015625e-01
   endloop
 endfacet
 facet normal  1.000000e+00  0.000000e+00  0.000000e+00
   outer loop
     vertex -5.912829e-01 -6.147204e-01  0.000000e+00
     vertex -5.912829e-01  6.225329e-01  0.000000e+00
     vertex -5.912829e-01  6.225329e-01  6.015625e-01
   endloop
 endfacet
 facet normal  1.000000e+00  0.000000e+00  0.000000e+00
   outer loop
     vertex -5.912829e-01 -6.147204e-01  0.000000e+00
     vertex -5.912829e-01  6.225329e-01  6.015625e-01
     vertex -5.912829e-01 -6.147204e-01  6.015625e-01
   endloop
 endfacet
 facet normal  0.000000e+00 -0.000000e+00 -1.000000e+00
   outer loop
     vertex  6.023026e-01 -6.147204e-01  0.000000e+00
     vertex  6.750822e-01 -6.875000e-01  0.000000e+00
     vertex -6.640625e-01 -6.875000e-01  0.000000e+00
   endloop
 endfacet
 facet normal -0.000000e+00  0.000000e+00 -1.000000e+00
   outer loop
     vertex  6.023026e-01 -6.147204e-01  0.000000e+00
     vertex -6.640625e-01 -6.875000e-01  0.000000e+00
     vertex -5.912829e-01 -6.147204e-01  0.000000e+00
   endloop
 endfacet
 facet normal -0.000000e+00  0.000000e+00 -1.000000e+00
   outer loop
     vertex -5.912829e-01  6.225329e-01  0.000000e+00
     vertex -6.640625e-01 -6.875000e-01  0.000000e+00
     vertex -6.640625e-01  6.953125e-01  0.000000e+00
   endloop
 endfacet
 facet normal  0.000000e+00 -0.000000e+00 -1.000000e+00
   outer loop
     vertex -5.912829e-01  6.225329e-01  0.000000e+00
     vertex -5.912829e-01 -6.147204e-01  0.000000e+00
     vertex -6.640625e-01 -6.875000e-01  0.000000e+00
   endloop
 endfacet
 facet normal  0.000000e+00  0.000000e+00 -1.000000e+00
   outer loop
     vertex  6.750822e-01  6.953125e-01  0.000000e+00
     vertex  6.023026e-01 -6.147204e-01  0.000000e+00
     vertex  6.023026e-01  6.225329e-01  0.000000e+00
   endloop
 endfacet
 facet normal  0.000000e+00 -0.000000e+00 -1.000000e+00
   outer loop
     vertex  6.750822e-01  6.953125e-01  0.000000e+00
     vertex  6.750822e-01 -6.875000e-01  0.000000e+00
     vertex  6.023026e-01 -6.147204e-01  0.000000e+00
   endloop
 endfacet
 facet normal -0.000000e+00  0.000000e+00 -1.000000e+00
   outer loop
     vertex  6.750822e-01  6.953125e-01  0.000000e+00
     vertex -5.912829e-01  6.225329e-01  0.000000e+00
     vertex -6.640625e-01  6.953125e-01  0.000000e+00
   endloop
 endfacet
 facet normal  0.000000e+00  0.000000e+00 -1.000000e+00
   outer loop
     vertex  6.750822e-01  6.953125e-01  0.000000e+00
     vertex  6.023026e-01  6.225329e-01  0.000000e+00
     vertex -5.912829e-01  6.225329e-01  0.000000e+00
   endloop
 endfacet
 facet normal  0.000000e+00  0.000000e+00  1.000000e+00
   outer loop
     vertex  6.023026e-01 -6.147204e-01  6.015625e-01
     vertex -6.640625e-01 -6.875000e-01  6.015625e-01
     vertex  6.750822e-01 -6.875000e-01  6.015625e-01
   endloop
 endfacet
 facet normal  0.000000e+00  0.000000e+00  1.000000e+00
   outer loop
     vertex  6.023026e-01 -6.147204e-01  6.015625e-01
     vertex -5.912829e-01 -6.147204e-01  6.015625e-01
     vertex -6.640625e-01 -6.875000e-01  6.015625e-01
   endloop
 endfacet
 facet normal  0.000000e+00  0.000000e+00  1.000000e+00
   outer loop
     vertex -5.912829e-01  6.225329e-01  6.015625e-01
     vertex -6.640625e-01  6.953125e-01  6.015625e-01
     vertex -6.640625e-01 -6.875000e-01  6.015625e-01
   endloop
 endfacet
 facet normal  0.000000e+00  0.000000e+00  1.000000e+00
   outer loop
     vertex -5.912829e-01  6.225329e-01  6.015625e-01
     vertex -6.640625e-01 -6.875000e-01  6.015625e-01
     vertex -5.912829e-01 -6.147204e-01  6.015625e-01
   endloop
 endfacet
 facet normal  0.000000e+00  0.000000e+00  1.000000e+00
   outer loop
     vertex  6.750822e-01  6.953125e-01  6.015625e-01
     vertex  6.023026e-01  6.225329e-01  6.015625e-01
     vertex  6.023026e-01 -6.147204e-01  6.015625e-01
   endloop
 endfacet
 facet normal  0.000000e+00  0.000000e+00  1.000000e+00
   outer loop
     vertex  6.750822e-01  6.953125e-01  6.015625e-01
     vertex  6.023026e-01 -6.147204e-01  6.015625e-01
     vertex  6.750822e-01 -6.875000e-01  6.015625e-01
   endloop
 endfacet
 facet normal  0.000000e+00  0.000000e+00  1.000000e+00
   outer loop
     vertex  6.750822e-01  6.953125e-01  6.015625e-01
     vertex -6.640625e-01  6.953125e-01  6.015625e-01
     vertex -5.912829e-01  6.225329e-01  6.015625e-01
   endloop
 endfacet
 facet normal  0.000000e+00  0.000000e+00  1.000000e+00
   outer loop
     vertex  6.750822e-01  6.953125e-01  6.015625e-01
     vertex -5.912829e-01  6.225329e-01  6.015625e-01
     vertex  6.023026e-01  6.225329e-01  6.015625e-01
   endloop
 endfacet
endsolid
