solid 
 facet normal -0.000000e+00  0.000000e+00 -1.000000e+00
   outer loop
     vertex  3.390046e-02  2.438322e-01  0.000000e+00
     vertex  1.562500e-02  2.421875e-01  0.000000e+00
     vertex  1.562500e-02  2.438322e-01  0.000000e+00
   endloop
 endfacet
 facet normal -0.000000e+00  0.000000e+00 -1.000000e+00
   outer loop
     vertex  3.558814e-02  2.431838e-01  0.000000e+00
     vertex  1.562500e-02  2.421875e-01  0.000000e+00
     vertex  3.390046e-02  2.438322e-01  0.000000e+00
   endloop
 endfacet
 facet normal -0.000000e+00  0.000000e+00 -1.000000e+00
   outer loop
     vertex  3.731078e-02  2.426349e-01  0.000000e+00
     vertex  1.562500e-02  2.421875e-01  0.000000e+00
     vertex  3.558814e-02  2.431838e-01  0.000000e+00
   endloop
 endfacet
 facet normal  0.000000e+00  0.000000e+00 -1.000000e+00
   outer loop
     vertex  3.906250e-02  2.421875e-01  0.000000e+00
     vertex  1.562500e-02  2.421875e-01  0.000000e+00
     vertex  3.731078e-02  2.426349e-01  0.000000e+00
   endloop
 endfacet
 facet normal  0.000000e+00  0.000000e+00 -1.000000e+00
   outer loop
     vertex -7.144737e-01 -3.245888e-01  0.000000e+00
     vertex -7.452404e-01 -3.068257e-01  0.000000e+00
     vertex -7.500000e-01 -2.890625e-01  0.000000e+00
   endloop
 endfacet
 facet normal  0.000000e+00  0.000000e+00 -1.000000e+00
   outer loop
     vertex -7.144737e-01 -3.245888e-01  0.000000e+00
     vertex -7.322368e-01 -3.198292e-01  0.000000e+00
     vertex -7.452404e-01 -3.068257e-01  0.000000e+00
   endloop
 endfacet
 facet normal  0.000000e+00  0.000000e+00 -1.000000e+00
   outer loop
     vertex -7.322368e-01  2.390726e-01  0.000000e+00
     vertex -7.500000e-01  2.083059e-01  0.000000e+00
     vertex -7.452404e-01  2.260691e-01  0.000000e+00
   endloop
 endfacet
 facet normal  0.000000e+00  0.000000e+00 -1.000000e+00
   outer loop
     vertex -7.144737e-01  2.438322e-01  0.000000e+00
     vertex -7.500000e-01  2.083059e-01  0.000000e+00
     vertex -7.322368e-01  2.390726e-01  0.000000e+00
   endloop
 endfacet
 facet normal  0.000000e+00  0.000000e+00 -1.000000e+00
   outer loop
     vertex  9.375000e-02 -2.890625e-01  0.000000e+00
     vertex  7.598684e-02 -3.198292e-01  0.000000e+00
     vertex  5.822368e-02 -3.245888e-01  0.000000e+00
   endloop
 endfacet
 facet normal  0.000000e+00  0.000000e+00 -1.000000e+00
   outer loop
     vertex  9.375000e-02 -2.890625e-01  0.000000e+00
     vertex  8.899038e-02 -3.068257e-01  0.000000e+00
     vertex  7.598684e-02 -3.198292e-01  0.000000e+00
   endloop
 endfacet
 facet normal  0.000000e+00  0.000000e+00 -1.000000e+00
   outer loop
     vertex -2.968750e-01  2.421875e-01  0.000000e+00
     vertex -7.500000e-01 -2.890625e-01  0.000000e+00
     vertex -7.500000e-01  2.083059e-01  0.000000e+00
   endloop
 endfacet
 facet normal  0.000000e+00 -0.000000e+00 -1.000000e+00
   outer loop
     vertex -2.968750e-01  2.421875e-01  0.000000e+00
     vertex  5.822368e-02 -3.245888e-01  0.000000e+00
     vertex -7.144737e-01 -3.245888e-01  0.000000e+00
   endloop
 endfacet
 facet normal  0.000000e+00  0.000000e+00 -1.000000e+00
   outer loop
     vertex -2.968750e-01  2.421875e-01  0.000000e+00
     vertex -7.144737e-01 -3.245888e-01  0.000000e+00
     vertex -7.500000e-01 -2.890625e-01  0.000000e+00
   endloop
 endfacet
 facet normal -0.000000e+00  0.000000e+00 -1.000000e+00
   outer loop
     vertex -2.968750e-01  2.421875e-01  0.000000e+00
     vertex -7.500000e-01  2.083059e-01  0.000000e+00
     vertex -7.144737e-01  2.438322e-01  0.000000e+00
   endloop
 endfacet
 facet normal -0.000000e+00 -0.000000e+00 -1.000000e+00
   outer loop
     vertex -2.970395e-01  2.438322e-01  0.000000e+00
     vertex -2.968750e-01  2.421875e-01  0.000000e+00
     vertex -7.144737e-01  2.438322e-01  0.000000e+00
   endloop
 endfacet
 facet normal -0.000000e+00  0.000000e+00 -1.000000e+00
   outer loop
     vertex -2.951233e-01  2.426349e-01  0.000000e+00
     vertex -2.968750e-01  2.421875e-01  0.000000e+00
     vertex -2.970395e-01  2.438322e-01  0.000000e+00
   endloop
 endfacet
 facet normal -0.000000e+00  0.000000e+00 -1.000000e+00
   outer loop
     vertex -2.934006e-01  2.431838e-01  0.000000e+00
     vertex -2.951233e-01  2.426349e-01  0.000000e+00
     vertex -2.970395e-01  2.438322e-01  0.000000e+00
   endloop
 endfacet
 facet normal -0.000000e+00  0.000000e+00 -1.000000e+00
   outer loop
     vertex -2.917130e-01  2.438322e-01  0.000000e+00
     vertex -2.934006e-01  2.431838e-01  0.000000e+00
     vertex -2.970395e-01  2.438322e-01  0.000000e+00
   endloop
 endfacet
 facet normal -0.000000e+00 -0.000000e+00 -1.000000e+00
   outer loop
     vertex -2.734375e-01  2.421875e-01  0.000000e+00
     vertex  5.822368e-02 -3.245888e-01  0.000000e+00
     vertex -2.968750e-01  2.421875e-01  0.000000e+00
   endloop
 endfacet
 facet normal -0.000000e+00  0.000000e+00 -1.000000e+00
   outer loop
     vertex -2.703947e-01  2.438322e-01  0.000000e+00
     vertex -2.734375e-01  2.421875e-01  0.000000e+00
     vertex -2.734375e-01  2.438322e-01  0.000000e+00
   endloop
 endfacet
 facet normal  0.000000e+00  0.000000e+00 -1.000000e+00
   outer loop
     vertex -2.656250e-01  2.421875e-01  0.000000e+00
     vertex  9.375000e-02 -2.890625e-01  0.000000e+00
     vertex  5.822368e-02 -3.245888e-01  0.000000e+00
   endloop
 endfacet
 facet normal -0.000000e+00 -0.000000e+00 -1.000000e+00
   outer loop
     vertex -2.656250e-01  2.421875e-01  0.000000e+00
     vertex  5.822368e-02 -3.245888e-01  0.000000e+00
     vertex -2.734375e-01  2.421875e-01  0.000000e+00
   endloop
 endfacet
 facet normal  0.000000e+00  0.000000e+00 -1.000000e+00
   outer loop
     vertex -2.656250e-01  2.421875e-01  0.000000e+00
     vertex -2.734375e-01  2.421875e-01  0.000000e+00
     vertex -2.703947e-01  2.438322e-01  0.000000e+00
   endloop
 endfacet
 facet normal -0.000000e+00 -0.000000e+00 -1.000000e+00
   outer loop
     vertex -2.656250e-01  2.438322e-01  0.000000e+00
     vertex -2.656250e-01  2.421875e-01  0.000000e+00
     vertex -2.703947e-01  2.438322e-01  0.000000e+00
   endloop
 endfacet
 facet normal -0.000000e+00 -0.000000e+00 -1.000000e+00
   outer loop
     vertex  1.562500e-02  2.421875e-01  0.000000e+00
     vertex  9.375000e-02 -2.890625e-01  0.000000e+00
     vertex -2.656250e-01  2.421875e-01  0.000000e+00
   endloop
 endfacet
 facet normal  0.000000e+00  0.000000e+00 -1.000000e+00
   outer loop
     vertex  4.046053e-02  2.438322e-01  0.000000e+00
     vertex  3.906250e-02  2.421875e-01  0.000000e+00
     vertex  3.731078e-02  2.426349e-01  0.000000e+00
   endloop
 endfacet
 facet normal  0.000000e+00  0.000000e+00 -1.000000e+00
   outer loop
     vertex  4.046053e-02  2.438322e-01  0.000000e+00
     vertex  3.731078e-02  2.426349e-01  0.000000e+00
     vertex  3.558814e-02  2.431838e-01  0.000000e+00
   endloop
 endfacet
 facet normal -0.000000e+00  0.000000e+00 -1.000000e+00
   outer loop
     vertex  4.046053e-02  2.438322e-01  0.000000e+00
     vertex  3.558814e-02  2.431838e-01  0.000000e+00
     vertex  3.390046e-02  2.438322e-01  0.000000e+00
   endloop
 endfacet
 facet normal -0.000000e+00  0.000000e+00 -1.000000e+00
   outer loop
     vertex  5.822368e-02  2.438322e-01  0.000000e+00
     vertex  3.906250e-02  2.421875e-01  0.000000e+00
     vertex  4.046053e-02  2.438322e-01  0.000000e+00
   endloop
 endfacet
 facet normal  0.000000e+00  0.000000e+00 -1.000000e+00
   outer loop
     vertex  9.375000e-02  2.083059e-01  0.000000e+00
     vertex  1.562500e-02  2.421875e-01  0.000000e+00
     vertex  3.906250e-02  2.421875e-01  0.000000e+00
   endloop
 endfacet
 facet normal -0.000000e+00 -0.000000e+00 -1.000000e+00
   outer loop
     vertex  9.375000e-02  2.083059e-01  0.000000e+00
     vertex  9.375000e-02 -2.890625e-01  0.000000e+00
     vertex  1.562500e-02  2.421875e-01  0.000000e+00
   endloop
 endfacet
 facet normal  0.000000e+00  0.000000e+00 -1.000000e+00
   outer loop
     vertex  9.375000e-02  2.083059e-01  0.000000e+00
     vertex  3.906250e-02  2.421875e-01  0.000000e+00
     vertex  5.822368e-02  2.438322e-01  0.000000e+00
   endloop
 endfacet
 facet normal  0.000000e+00  0.000000e+00 -1.000000e+00
   outer loop
     vertex  8.899038e-02  2.260691e-01  0.000000e+00
     vertex  5.822368e-02  2.438322e-01  0.000000e+00
     vertex  7.598684e-02  2.390726e-01  0.000000e+00
   endloop
 endfacet
 facet normal -0.000000e+00 -0.000000e+00 -1.000000e+00
   outer loop
     vertex  8.899038e-02  2.260691e-01  0.000000e+00
     vertex  9.375000e-02  2.083059e-01  0.000000e+00
     vertex  5.822368e-02  2.438322e-01  0.000000e+00
   endloop
 endfacet
 facet normal -0.000000e+00  0.000000e+00 -1.000000e+00
   outer loop
     vertex  1.381579e-02  2.438322e-01  0.000000e+00
     vertex -2.656250e-01  2.421875e-01  0.000000e+00
     vertex -2.656250e-01  2.438322e-01  0.000000e+00
   endloop
 endfacet
 facet normal  0.000000e+00  0.000000e+00 -1.000000e+00
   outer loop
     vertex  1.562500e-02  2.421875e-01  0.000000e+00
     vertex -2.656250e-01  2.421875e-01  0.000000e+00
     vertex  1.381579e-02  2.438322e-01  0.000000e+00
   endloop
 endfacet
 facet normal -0.000000e+00 -0.000000e+00 -1.000000e+00
   outer loop
     vertex  1.562500e-02  2.438322e-01  0.000000e+00
     vertex  1.562500e-02  2.421875e-01  0.000000e+00
     vertex  1.381579e-02  2.438322e-01  0.000000e+00
   endloop
 endfacet
 facet normal  0.000000e+00 -0.000000e+00 -1.000000e+00
   outer loop
     vertex  1.926195e-02  2.565160e-01  0.000000e+00
     vertex  2.556438e-02  2.490006e-01  0.000000e+00
     vertex  1.562500e-02  2.438322e-01  0.000000e+00
   endloop
 endfacet
 facet normal  0.000000e+00  0.000000e+00 -1.000000e+00
   outer loop
     vertex  3.390046e-02  2.438322e-01  0.000000e+00
     vertex  1.562500e-02  2.438322e-01  0.000000e+00
     vertex  2.556438e-02  2.490006e-01  0.000000e+00
   endloop
 endfacet
 facet normal  0.000000e+00  0.000000e+00 -1.000000e+00
   outer loop
     vertex  1.562500e-02  2.656250e-01  0.000000e+00
     vertex  1.926195e-02  2.565160e-01  0.000000e+00
     vertex  1.562500e-02  2.438322e-01  0.000000e+00
   endloop
 endfacet
 facet normal  0.000000e+00  1.000000e+00  0.000000e+00
   outer loop
     vertex -7.144737e-01  2.438322e-01  0.000000e+00
     vertex -2.970395e-01  2.438322e-01  7.812500e-03
     vertex -2.970395e-01  2.438322e-01  0.000000e+00
   endloop
 endfacet
 facet normal  0.000000e+00  1.000000e+00  0.000000e+00
   outer loop
     vertex -7.144737e-01  2.438322e-01  0.000000e+00
     vertex -7.144737e-01  2.438322e-01  7.812500e-03
     vertex -2.970395e-01  2.438322e-01  7.812500e-03
   endloop
 endfacet
 facet normal  0.000000e+00  1.000000e+00  0.000000e+00
   outer loop
     vertex -2.970395e-01  2.438322e-01  0.000000e+00
     vertex -2.917130e-01  2.438322e-01  7.812500e-03
     vertex -2.917130e-01  2.438322e-01  0.000000e+00
   endloop
 endfacet
 facet normal  0.000000e+00  1.000000e+00  0.000000e+00
   outer loop
     vertex -2.970395e-01  2.438322e-01  0.000000e+00
     vertex -2.970395e-01  2.438322e-01  7.812500e-03
     vertex -2.917130e-01  2.438322e-01  7.812500e-03
   endloop
 endfacet
 facet normal  0.000000e+00  0.000000e+00 -1.000000e+00
   outer loop
     vertex -2.734375e-01  2.421875e-01  0.000000e+00
     vertex -2.934006e-01  2.431838e-01  0.000000e+00
     vertex -2.917130e-01  2.438322e-01  0.000000e+00
   endloop
 endfacet
 facet normal  0.000000e+00  0.000000e+00 -1.000000e+00
   outer loop
     vertex -2.734375e-01  2.421875e-01  0.000000e+00
     vertex -2.951233e-01  2.426349e-01  0.000000e+00
     vertex -2.934006e-01  2.431838e-01  0.000000e+00
   endloop
 endfacet
 facet normal  0.000000e+00  0.000000e+00 -1.000000e+00
   outer loop
     vertex -2.734375e-01  2.421875e-01  0.000000e+00
     vertex -2.968750e-01  2.421875e-01  0.000000e+00
     vertex -2.951233e-01  2.426349e-01  0.000000e+00
   endloop
 endfacet
 facet normal -0.000000e+00 -0.000000e+00 -1.000000e+00
   outer loop
     vertex -2.734375e-01  2.438322e-01  0.000000e+00
     vertex -2.734375e-01  2.421875e-01  0.000000e+00
     vertex -2.917130e-01  2.438322e-01  0.000000e+00
   endloop
 endfacet
 facet normal  0.000000e+00  1.000000e+00  0.000000e+00
   outer loop
     vertex -2.734375e-01  2.438322e-01  0.000000e+00
     vertex -2.703947e-01  2.438322e-01  7.812500e-03
     vertex -2.703947e-01  2.438322e-01  0.000000e+00
   endloop
 endfacet
 facet normal  0.000000e+00  1.000000e+00  0.000000e+00
   outer loop
     vertex -2.734375e-01  2.438322e-01  0.000000e+00
     vertex -2.734375e-01  2.438322e-01  7.812500e-03
     vertex -2.703947e-01  2.438322e-01  7.812500e-03
   endloop
 endfacet
 facet normal  0.000000e+00  1.000000e+00  0.000000e+00
   outer loop
     vertex -2.703947e-01  2.438322e-01  0.000000e+00
     vertex -2.656250e-01  2.438322e-01  7.812500e-03
     vertex -2.656250e-01  2.438322e-01  0.000000e+00
   endloop
 endfacet
 facet normal  0.000000e+00  1.000000e+00  0.000000e+00
   outer loop
     vertex -2.703947e-01  2.438322e-01  0.000000e+00
     vertex -2.703947e-01  2.438322e-01  7.812500e-03
     vertex -2.656250e-01  2.438322e-01  7.812500e-03
   endloop
 endfacet
 facet normal  0.000000e+00  1.000000e+00  0.000000e+00
   outer loop
     vertex  3.390046e-02  2.438322e-01  0.000000e+00
     vertex  4.046053e-02  2.438322e-01  7.812500e-03
     vertex  4.046053e-02  2.438322e-01  0.000000e+00
   endloop
 endfacet
 facet normal  0.000000e+00  1.000000e+00  0.000000e+00
   outer loop
     vertex  3.390046e-02  2.438322e-01  0.000000e+00
     vertex  3.390046e-02  2.438322e-01  7.812500e-03
     vertex  4.046053e-02  2.438322e-01  7.812500e-03
   endloop
 endfacet
 facet normal  0.000000e+00  1.000000e+00  0.000000e+00
   outer loop
     vertex  4.046053e-02  2.438322e-01  0.000000e+00
     vertex  5.822368e-02  2.438322e-01  7.812500e-03
     vertex  5.822368e-02  2.438322e-01  0.000000e+00
   endloop
 endfacet
 facet normal  0.000000e+00  1.000000e+00  0.000000e+00
   outer loop
     vertex  4.046053e-02  2.438322e-01  0.000000e+00
     vertex  4.046053e-02  2.438322e-01  7.812500e-03
     vertex  5.822368e-02  2.438322e-01  7.812500e-03
   endloop
 endfacet
 facet normal  2.588190e-01  9.659258e-01  0.000000e+00
   outer loop
     vertex  7.598684e-02  2.390726e-01  0.000000e+00
     vertex  5.822368e-02  2.438322e-01  0.000000e+00
     vertex  5.822368e-02  2.438322e-01  7.812500e-03
   endloop
 endfacet
 facet normal  2.588190e-01  9.659258e-01 -0.000000e+00
   outer loop
     vertex  7.598684e-02  2.390726e-01  0.000000e+00
     vertex  5.822368e-02  2.438322e-01  7.812500e-03
     vertex  7.598684e-02  2.390726e-01  7.812500e-03
   endloop
 endfacet
 facet normal  7.071068e-01  7.071068e-01 -0.000000e+00
   outer loop
     vertex  8.899038e-02  2.260691e-01  0.000000e+00
     vertex  7.598684e-02  2.390726e-01  7.812500e-03
     vertex  8.899038e-02  2.260691e-01  7.812500e-03
   endloop
 endfacet
 facet normal  7.071068e-01  7.071068e-01  0.000000e+00
   outer loop
     vertex  8.899038e-02  2.260691e-01  0.000000e+00
     vertex  7.598684e-02  2.390726e-01  0.000000e+00
     vertex  7.598684e-02  2.390726e-01  7.812500e-03
   endloop
 endfacet
 facet normal  9.659258e-01  2.588190e-01 -0.000000e+00
   outer loop
     vertex  9.375000e-02  2.083059e-01  0.000000e+00
     vertex  8.899038e-02  2.260691e-01  7.812500e-03
     vertex  9.375000e-02  2.083059e-01  7.812500e-03
   endloop
 endfacet
 facet normal  9.659258e-01  2.588190e-01  0.000000e+00
   outer loop
     vertex  9.375000e-02  2.083059e-01  0.000000e+00
     vertex  8.899038e-02  2.260691e-01  0.000000e+00
     vertex  8.899038e-02  2.260691e-01  7.812500e-03
   endloop
 endfacet
 facet normal  1.000000e+00  0.000000e+00  0.000000e+00
   outer loop
     vertex  9.375000e-02  2.083059e-01  0.000000e+00
     vertex  9.375000e-02 -2.890625e-01  7.812500e-03
     vertex  9.375000e-02 -2.890625e-01  0.000000e+00
   endloop
 endfacet
 facet normal  1.000000e+00  0.000000e+00 -0.000000e+00
   outer loop
     vertex  9.375000e-02  2.083059e-01  0.000000e+00
     vertex  9.375000e-02  2.083059e-01  7.812500e-03
     vertex  9.375000e-02 -2.890625e-01  7.812500e-03
   endloop
 endfacet
 facet normal  9.659258e-01 -2.588190e-01  0.000000e+00
   outer loop
     vertex  8.899038e-02 -3.068257e-01  0.000000e+00
     vertex  9.375000e-02 -2.890625e-01  0.000000e+00
     vertex  9.375000e-02 -2.890625e-01  7.812500e-03
   endloop
 endfacet
 facet normal  9.659258e-01 -2.588190e-01  0.000000e+00
   outer loop
     vertex  8.899038e-02 -3.068257e-01  0.000000e+00
     vertex  9.375000e-02 -2.890625e-01  7.812500e-03
     vertex  8.899038e-02 -3.068257e-01  7.812500e-03
   endloop
 endfacet
 facet normal  7.071068e-01 -7.071068e-01  0.000000e+00
   outer loop
     vertex  7.598684e-02 -3.198292e-01  0.000000e+00
     vertex  8.899038e-02 -3.068257e-01  7.812500e-03
     vertex  7.598684e-02 -3.198292e-01  7.812500e-03
   endloop
 endfacet
 facet normal  7.071068e-01 -7.071068e-01  0.000000e+00
   outer loop
     vertex  7.598684e-02 -3.198292e-01  0.000000e+00
     vertex  8.899038e-02 -3.068257e-01  0.000000e+00
     vertex  8.899038e-02 -3.068257e-01  7.812500e-03
   endloop
 endfacet
 facet normal  2.588190e-01 -9.659258e-01  0.000000e+00
   outer loop
     vertex  5.822368e-02 -3.245888e-01  0.000000e+00
     vertex  7.598684e-02 -3.198292e-01  7.812500e-03
     vertex  5.822368e-02 -3.245888e-01  7.812500e-03
   endloop
 endfacet
 facet normal  2.588190e-01 -9.659258e-01  0.000000e+00
   outer loop
     vertex  5.822368e-02 -3.245888e-01  0.000000e+00
     vertex  7.598684e-02 -3.198292e-01  0.000000e+00
     vertex  7.598684e-02 -3.198292e-01  7.812500e-03
   endloop
 endfacet
 facet normal  0.000000e+00 -1.000000e+00  0.000000e+00
   outer loop
     vertex  5.822368e-02 -3.245888e-01  0.000000e+00
     vertex -7.144737e-01 -3.245888e-01  7.812500e-03
     vertex -7.144737e-01 -3.245888e-01  0.000000e+00
   endloop
 endfacet
 facet normal  0.000000e+00 -1.000000e+00  0.000000e+00
   outer loop
     vertex  5.822368e-02 -3.245888e-01  0.000000e+00
     vertex  5.822368e-02 -3.245888e-01  7.812500e-03
     vertex -7.144737e-01 -3.245888e-01  7.812500e-03
   endloop
 endfacet
 facet normal -2.588190e-01 -9.659258e-01  0.000000e+00
   outer loop
     vertex -7.322368e-01 -3.198292e-01  0.000000e+00
     vertex -7.144737e-01 -3.245888e-01  0.000000e+00
     vertex -7.144737e-01 -3.245888e-01  7.812500e-03
   endloop
 endfacet
 facet normal -2.588190e-01 -9.659258e-01  0.000000e+00
   outer loop
     vertex -7.322368e-01 -3.198292e-01  0.000000e+00
     vertex -7.144737e-01 -3.245888e-01  7.812500e-03
     vertex -7.322368e-01 -3.198292e-01  7.812500e-03
   endloop
 endfacet
 facet normal -7.071068e-01 -7.071068e-01  0.000000e+00
   outer loop
     vertex -7.452404e-01 -3.068257e-01  0.000000e+00
     vertex -7.322368e-01 -3.198292e-01  7.812500e-03
     vertex -7.452404e-01 -3.068257e-01  7.812500e-03
   endloop
 endfacet
 facet normal -7.071068e-01 -7.071068e-01  0.000000e+00
   outer loop
     vertex -7.452404e-01 -3.068257e-01  0.000000e+00
     vertex -7.322368e-01 -3.198292e-01  0.000000e+00
     vertex -7.322368e-01 -3.198292e-01  7.812500e-03
   endloop
 endfacet
 facet normal -9.659258e-01 -2.588190e-01  0.000000e+00
   outer loop
     vertex -7.500000e-01 -2.890625e-01  0.000000e+00
     vertex -7.452404e-01 -3.068257e-01  7.812500e-03
     vertex -7.500000e-01 -2.890625e-01  7.812500e-03
   endloop
 endfacet
 facet normal -9.659258e-01 -2.588190e-01  0.000000e+00
   outer loop
     vertex -7.500000e-01 -2.890625e-01  0.000000e+00
     vertex -7.452404e-01 -3.068257e-01  0.000000e+00
     vertex -7.452404e-01 -3.068257e-01  7.812500e-03
   endloop
 endfacet
 facet normal -1.000000e+00  0.000000e+00  0.000000e+00
   outer loop
     vertex -7.500000e-01 -2.890625e-01  0.000000e+00
     vertex -7.500000e-01  2.083059e-01  7.812500e-03
     vertex -7.500000e-01  2.083059e-01  0.000000e+00
   endloop
 endfacet
 facet normal -1.000000e+00  0.000000e+00  0.000000e+00
   outer loop
     vertex -7.500000e-01 -2.890625e-01  0.000000e+00
     vertex -7.500000e-01 -2.890625e-01  7.812500e-03
     vertex -7.500000e-01  2.083059e-01  7.812500e-03
   endloop
 endfacet
 facet normal -9.659258e-01  2.588190e-01  0.000000e+00
   outer loop
     vertex -7.452404e-01  2.260691e-01  0.000000e+00
     vertex -7.500000e-01  2.083059e-01  0.000000e+00
     vertex -7.500000e-01  2.083059e-01  7.812500e-03
   endloop
 endfacet
 facet normal -9.659258e-01  2.588190e-01  0.000000e+00
   outer loop
     vertex -7.452404e-01  2.260691e-01  0.000000e+00
     vertex -7.500000e-01  2.083059e-01  7.812500e-03
     vertex -7.452404e-01  2.260691e-01  7.812500e-03
   endloop
 endfacet
 facet normal -7.071068e-01  7.071068e-01  0.000000e+00
   outer loop
     vertex -7.322368e-01  2.390726e-01  0.000000e+00
     vertex -7.452404e-01  2.260691e-01  7.812500e-03
     vertex -7.322368e-01  2.390726e-01  7.812500e-03
   endloop
 endfacet
 facet normal -7.071068e-01  7.071068e-01  0.000000e+00
   outer loop
     vertex -7.322368e-01  2.390726e-01  0.000000e+00
     vertex -7.452404e-01  2.260691e-01  0.000000e+00
     vertex -7.452404e-01  2.260691e-01  7.812500e-03
   endloop
 endfacet
 facet normal -2.588190e-01  9.659258e-01  0.000000e+00
   outer loop
     vertex -7.144737e-01  2.438322e-01  0.000000e+00
     vertex -7.322368e-01  2.390726e-01  7.812500e-03
     vertex -7.144737e-01  2.438322e-01  7.812500e-03
   endloop
 endfacet
 facet normal -2.588190e-01  9.659258e-01  0.000000e+00
   outer loop
     vertex -7.144737e-01  2.438322e-01  0.000000e+00
     vertex -7.322368e-01  2.390726e-01  0.000000e+00
     vertex -7.322368e-01  2.390726e-01  7.812500e-03
   endloop
 endfacet
 facet normal  0.000000e+00  0.000000e+00 -1.000000e+00
   outer loop
     vertex -2.484037e-01  3.193842e-01  0.000000e+00
     vertex -2.656250e-01  2.865954e-01  0.000000e+00
     vertex -2.614072e-01  3.052970e-01  0.000000e+00
   endloop
 endfacet
 facet normal  0.000000e+00  0.000000e+00 -1.000000e+00
   outer loop
     vertex -2.300987e-01  3.250822e-01  0.000000e+00
     vertex -2.656250e-01  2.438322e-01  0.000000e+00
     vertex -2.656250e-01  2.688322e-01  0.000000e+00
   endloop
 endfacet
 facet normal  0.000000e+00  0.000000e+00 -1.000000e+00
   outer loop
     vertex -2.300987e-01  3.250822e-01  0.000000e+00
     vertex -2.656250e-01  2.688322e-01  0.000000e+00
     vertex -2.656250e-01  2.865954e-01  0.000000e+00
   endloop
 endfacet
 facet normal  0.000000e+00  0.000000e+00 -1.000000e+00
   outer loop
     vertex -2.300987e-01  3.250822e-01  0.000000e+00
     vertex -2.656250e-01  2.865954e-01  0.000000e+00
     vertex -2.484037e-01  3.193842e-01  0.000000e+00
   endloop
 endfacet
 facet normal  0.000000e+00  0.000000e+00 -1.000000e+00
   outer loop
     vertex  1.381579e-02  2.438322e-01  0.000000e+00
     vertex -2.656250e-01  2.438322e-01  0.000000e+00
     vertex -2.300987e-01  3.250822e-01  0.000000e+00
   endloop
 endfacet
 facet normal  0.000000e+00 -0.000000e+00 -1.000000e+00
   outer loop
     vertex  1.562500e-02  2.656250e-01  0.000000e+00
     vertex  1.562500e-02  2.438322e-01  0.000000e+00
     vertex  1.381579e-02  2.438322e-01  0.000000e+00
   endloop
 endfacet
 facet normal  0.000000e+00  0.000000e+00 -1.000000e+00
   outer loop
     vertex -1.990132e-02  3.250822e-01  0.000000e+00
     vertex  1.562500e-02  2.688322e-01  0.000000e+00
     vertex  1.562500e-02  2.656250e-01  0.000000e+00
   endloop
 endfacet
 facet normal  0.000000e+00  0.000000e+00 -1.000000e+00
   outer loop
     vertex -1.990132e-02  3.250822e-01  0.000000e+00
     vertex  1.562500e-02  2.865954e-01  0.000000e+00
     vertex  1.562500e-02  2.688322e-01  0.000000e+00
   endloop
 endfacet
 facet normal -0.000000e+00 -0.000000e+00 -1.000000e+00
   outer loop
     vertex -1.990132e-02  3.250822e-01  0.000000e+00
     vertex  1.381579e-02  2.438322e-01  0.000000e+00
     vertex -2.300987e-01  3.250822e-01  0.000000e+00
   endloop
 endfacet
 facet normal  0.000000e+00  0.000000e+00 -1.000000e+00
   outer loop
     vertex -1.990132e-02  3.250822e-01  0.000000e+00
     vertex  1.562500e-02  2.656250e-01  0.000000e+00
     vertex  1.381579e-02  2.438322e-01  0.000000e+00
   endloop
 endfacet
 facet normal -0.000000e+00 -0.000000e+00 -1.000000e+00
   outer loop
     vertex  1.140719e-02  3.052970e-01  0.000000e+00
     vertex  1.562500e-02  2.865954e-01  0.000000e+00
     vertex -1.990132e-02  3.250822e-01  0.000000e+00
   endloop
 endfacet
 facet normal -0.000000e+00 -0.000000e+00 -1.000000e+00
   outer loop
     vertex -1.596344e-03  3.193842e-01  0.000000e+00
     vertex  1.140719e-02  3.052970e-01  0.000000e+00
     vertex -1.990132e-02  3.250822e-01  0.000000e+00
   endloop
 endfacet
 facet normal  5.269369e-01  8.499044e-01 -0.000000e+00
   outer loop
     vertex  3.390046e-02  2.438322e-01  0.000000e+00
     vertex  2.556438e-02  2.490006e-01  7.812500e-03
     vertex  3.390046e-02  2.438322e-01  7.812500e-03
   endloop
 endfacet
 facet normal  5.269369e-01  8.499044e-01 -0.000000e+00
   outer loop
     vertex  2.556438e-02  2.490006e-01  0.000000e+00
     vertex  2.556438e-02  2.490006e-01  7.812500e-03
     vertex  3.390046e-02  2.438322e-01  0.000000e+00
   endloop
 endfacet
 facet normal  7.662321e-01  6.425639e-01 -0.000000e+00
   outer loop
     vertex  1.926195e-02  2.565160e-01  0.000000e+00
     vertex  1.926195e-02  2.565160e-01  7.812500e-03
     vertex  2.556438e-02  2.490006e-01  7.812500e-03
   endloop
 endfacet
 facet normal  7.662321e-01  6.425639e-01  0.000000e+00
   outer loop
     vertex  1.926195e-02  2.565160e-01  0.000000e+00
     vertex  2.556438e-02  2.490006e-01  7.812500e-03
     vertex  2.556438e-02  2.490006e-01  0.000000e+00
   endloop
 endfacet
 facet normal  9.287109e-01  3.708047e-01 -0.000000e+00
   outer loop
     vertex  1.562500e-02  2.656250e-01  0.000000e+00
     vertex  1.562500e-02  2.656250e-01  7.812500e-03
     vertex  1.926195e-02  2.565160e-01  7.812500e-03
   endloop
 endfacet
 facet normal  9.287109e-01  3.708047e-01  0.000000e+00
   outer loop
     vertex  1.562500e-02  2.656250e-01  0.000000e+00
     vertex  1.926195e-02  2.565160e-01  7.812500e-03
     vertex  1.926195e-02  2.565160e-01  0.000000e+00
   endloop
 endfacet
 facet normal  0.000000e+00  0.000000e+00  1.000000e+00
   outer loop
     vertex -7.144737e-01 -3.245888e-01  7.812500e-03
     vertex -7.500000e-01 -2.890625e-01  7.812500e-03
     vertex -7.452404e-01 -3.068257e-01  7.812500e-03
   endloop
 endfacet
 facet normal  0.000000e+00  0.000000e+00  1.000000e+00
   outer loop
     vertex -7.144737e-01 -3.245888e-01  7.812500e-03
     vertex -7.452404e-01 -3.068257e-01  7.812500e-03
     vertex -7.322368e-01 -3.198292e-01  7.812500e-03
   endloop
 endfacet
 facet normal  0.000000e+00  0.000000e+00  1.000000e+00
   outer loop
     vertex -7.322368e-01  2.390726e-01  7.812500e-03
     vertex -7.452404e-01  2.260691e-01  7.812500e-03
     vertex -7.500000e-01  2.083059e-01  7.812500e-03
   endloop
 endfacet
 facet normal  0.000000e+00  0.000000e+00  1.000000e+00
   outer loop
     vertex -7.144737e-01  2.438322e-01  7.812500e-03
     vertex -7.322368e-01  2.390726e-01  7.812500e-03
     vertex -7.500000e-01  2.083059e-01  7.812500e-03
   endloop
 endfacet
 facet normal  0.000000e+00  0.000000e+00  1.000000e+00
   outer loop
     vertex  9.375000e-02 -2.890625e-01  7.812500e-03
     vertex  5.822368e-02 -3.245888e-01  7.812500e-03
     vertex  7.598684e-02 -3.198292e-01  7.812500e-03
   endloop
 endfacet
 facet normal  0.000000e+00  0.000000e+00  1.000000e+00
   outer loop
     vertex  9.375000e-02 -2.890625e-01  7.812500e-03
     vertex  7.598684e-02 -3.198292e-01  7.812500e-03
     vertex  8.899038e-02 -3.068257e-01  7.812500e-03
   endloop
 endfacet
 facet normal  0.000000e+00  0.000000e+00  1.000000e+00
   outer loop
     vertex -2.968750e-01  2.421875e-01  7.812500e-03
     vertex -7.500000e-01  2.083059e-01  7.812500e-03
     vertex -7.500000e-01 -2.890625e-01  7.812500e-03
   endloop
 endfacet
 facet normal  0.000000e+00  0.000000e+00  1.000000e+00
   outer loop
     vertex -2.968750e-01  2.421875e-01  7.812500e-03
     vertex -7.144737e-01 -3.245888e-01  7.812500e-03
     vertex  5.822368e-02 -3.245888e-01  7.812500e-03
   endloop
 endfacet
 facet normal  0.000000e+00  0.000000e+00  1.000000e+00
   outer loop
     vertex -2.968750e-01  2.421875e-01  7.812500e-03
     vertex -7.500000e-01 -2.890625e-01  7.812500e-03
     vertex -7.144737e-01 -3.245888e-01  7.812500e-03
   endloop
 endfacet
 facet normal  0.000000e+00  0.000000e+00  1.000000e+00
   outer loop
     vertex -2.968750e-01  2.421875e-01  7.812500e-03
     vertex -7.144737e-01  2.438322e-01  7.812500e-03
     vertex -7.500000e-01  2.083059e-01  7.812500e-03
   endloop
 endfacet
 facet normal  0.000000e+00  0.000000e+00  1.000000e+00
   outer loop
     vertex -2.970395e-01  2.438322e-01  7.812500e-03
     vertex -7.144737e-01  2.438322e-01  7.812500e-03
     vertex -2.968750e-01  2.421875e-01  7.812500e-03
   endloop
 endfacet
 facet normal  0.000000e+00  0.000000e+00  1.000000e+00
   outer loop
     vertex -2.951233e-01  2.426349e-01  7.812500e-03
     vertex -2.970395e-01  2.438322e-01  7.812500e-03
     vertex -2.968750e-01  2.421875e-01  7.812500e-03
   endloop
 endfacet
 facet normal  0.000000e+00  0.000000e+00  1.000000e+00
   outer loop
     vertex -2.934006e-01  2.431838e-01  7.812500e-03
     vertex -2.970395e-01  2.438322e-01  7.812500e-03
     vertex -2.951233e-01  2.426349e-01  7.812500e-03
   endloop
 endfacet
 facet normal  0.000000e+00  0.000000e+00  1.000000e+00
   outer loop
     vertex -2.917130e-01  2.438322e-01  7.812500e-03
     vertex -2.970395e-01  2.438322e-01  7.812500e-03
     vertex -2.934006e-01  2.431838e-01  7.812500e-03
   endloop
 endfacet
 facet normal  0.000000e+00  0.000000e+00  1.000000e+00
   outer loop
     vertex -2.734375e-01  2.421875e-01  7.812500e-03
     vertex -2.968750e-01  2.421875e-01  7.812500e-03
     vertex  5.822368e-02 -3.245888e-01  7.812500e-03
   endloop
 endfacet
 facet normal  0.000000e+00  0.000000e+00  1.000000e+00
   outer loop
     vertex -2.703947e-01  2.438322e-01  7.812500e-03
     vertex -2.734375e-01  2.438322e-01  7.812500e-03
     vertex -2.734375e-01  2.421875e-01  7.812500e-03
   endloop
 endfacet
 facet normal  0.000000e+00  0.000000e+00  1.000000e+00
   outer loop
     vertex -2.656250e-01  2.421875e-01  7.812500e-03
     vertex  5.822368e-02 -3.245888e-01  7.812500e-03
     vertex  9.375000e-02 -2.890625e-01  7.812500e-03
   endloop
 endfacet
 facet normal  0.000000e+00  0.000000e+00  1.000000e+00
   outer loop
     vertex -2.656250e-01  2.421875e-01  7.812500e-03
     vertex -2.734375e-01  2.421875e-01  7.812500e-03
     vertex  5.822368e-02 -3.245888e-01  7.812500e-03
   endloop
 endfacet
 facet normal  0.000000e+00  0.000000e+00  1.000000e+00
   outer loop
     vertex -2.656250e-01  2.421875e-01  7.812500e-03
     vertex -2.703947e-01  2.438322e-01  7.812500e-03
     vertex -2.734375e-01  2.421875e-01  7.812500e-03
   endloop
 endfacet
 facet normal  0.000000e+00  0.000000e+00  1.000000e+00
   outer loop
     vertex -2.656250e-01  2.438322e-01  7.812500e-03
     vertex -2.703947e-01  2.438322e-01  7.812500e-03
     vertex -2.656250e-01  2.421875e-01  7.812500e-03
   endloop
 endfacet
 facet normal  0.000000e+00  0.000000e+00  1.000000e+00
   outer loop
     vertex  1.562500e-02  2.421875e-01  7.812500e-03
     vertex -2.656250e-01  2.421875e-01  7.812500e-03
     vertex  9.375000e-02 -2.890625e-01  7.812500e-03
   endloop
 endfacet
 facet normal  0.000000e+00  0.000000e+00  1.000000e+00
   outer loop
     vertex  4.046053e-02  2.438322e-01  7.812500e-03
     vertex  3.731078e-02  2.426349e-01  7.812500e-03
     vertex  3.906250e-02  2.421875e-01  7.812500e-03
   endloop
 endfacet
 facet normal  0.000000e+00  0.000000e+00  1.000000e+00
   outer loop
     vertex  4.046053e-02  2.438322e-01  7.812500e-03
     vertex  3.558814e-02  2.431838e-01  7.812500e-03
     vertex  3.731078e-02  2.426349e-01  7.812500e-03
   endloop
 endfacet
 facet normal  0.000000e+00  0.000000e+00  1.000000e+00
   outer loop
     vertex  4.046053e-02  2.438322e-01  7.812500e-03
     vertex  3.390046e-02  2.438322e-01  7.812500e-03
     vertex  3.558814e-02  2.431838e-01  7.812500e-03
   endloop
 endfacet
 facet normal  0.000000e+00  0.000000e+00  1.000000e+00
   outer loop
     vertex  5.822368e-02  2.438322e-01  7.812500e-03
     vertex  4.046053e-02  2.438322e-01  7.812500e-03
     vertex  3.906250e-02  2.421875e-01  7.812500e-03
   endloop
 endfacet
 facet normal  0.000000e+00  0.000000e+00  1.000000e+00
   outer loop
     vertex  9.375000e-02  2.083059e-01  7.812500e-03
     vertex  3.906250e-02  2.421875e-01  7.812500e-03
     vertex  1.562500e-02  2.421875e-01  7.812500e-03
   endloop
 endfacet
 facet normal  0.000000e+00  0.000000e+00  1.000000e+00
   outer loop
     vertex  9.375000e-02  2.083059e-01  7.812500e-03
     vertex  1.562500e-02  2.421875e-01  7.812500e-03
     vertex  9.375000e-02 -2.890625e-01  7.812500e-03
   endloop
 endfacet
 facet normal  0.000000e+00  0.000000e+00  1.000000e+00
   outer loop
     vertex  9.375000e-02  2.083059e-01  7.812500e-03
     vertex  5.822368e-02  2.438322e-01  7.812500e-03
     vertex  3.906250e-02  2.421875e-01  7.812500e-03
   endloop
 endfacet
 facet normal  0.000000e+00  0.000000e+00  1.000000e+00
   outer loop
     vertex  8.899038e-02  2.260691e-01  7.812500e-03
     vertex  7.598684e-02  2.390726e-01  7.812500e-03
     vertex  5.822368e-02  2.438322e-01  7.812500e-03
   endloop
 endfacet
 facet normal  0.000000e+00  0.000000e+00  1.000000e+00
   outer loop
     vertex  8.899038e-02  2.260691e-01  7.812500e-03
     vertex  5.822368e-02  2.438322e-01  7.812500e-03
     vertex  9.375000e-02  2.083059e-01  7.812500e-03
   endloop
 endfacet
 facet normal -9.287109e-01  3.708047e-01  0.000000e+00
   outer loop
     vertex -2.770744e-01  2.565160e-01  0.000000e+00
     vertex -2.734375e-01  2.656250e-01  7.812500e-03
     vertex -2.734375e-01  2.656250e-01  0.000000e+00
   endloop
 endfacet
 facet normal -9.287109e-01  3.708047e-01  0.000000e+00
   outer loop
     vertex -2.770744e-01  2.565160e-01  0.000000e+00
     vertex -2.770744e-01  2.565160e-01  7.812500e-03
     vertex -2.734375e-01  2.656250e-01  7.812500e-03
   endloop
 endfacet
 facet normal -7.662321e-01  6.425639e-01  0.000000e+00
   outer loop
     vertex -2.833769e-01  2.490006e-01  0.000000e+00
     vertex -2.833769e-01  2.490006e-01  7.812500e-03
     vertex -2.770744e-01  2.565160e-01  7.812500e-03
   endloop
 endfacet
 facet normal -7.662321e-01  6.425639e-01  0.000000e+00
   outer loop
     vertex -2.833769e-01  2.490006e-01  0.000000e+00
     vertex -2.770744e-01  2.565160e-01  7.812500e-03
     vertex -2.770744e-01  2.565160e-01  0.000000e+00
   endloop
 endfacet
 facet normal -5.269369e-01  8.499044e-01  0.000000e+00
   outer loop
     vertex -2.917130e-01  2.438322e-01  0.000000e+00
     vertex -2.917130e-01  2.438322e-01  7.812500e-03
     vertex -2.833769e-01  2.490006e-01  7.812500e-03
   endloop
 endfacet
 facet normal -5.269369e-01  8.499044e-01  0.000000e+00
   outer loop
     vertex -2.917130e-01  2.438322e-01  0.000000e+00
     vertex -2.833769e-01  2.490006e-01  7.812500e-03
     vertex -2.833769e-01  2.490006e-01  0.000000e+00
   endloop
 endfacet
 facet normal  0.000000e+00  0.000000e+00 -1.000000e+00
   outer loop
     vertex -2.734375e-01  2.438322e-01  0.000000e+00
     vertex -2.917130e-01  2.438322e-01  0.000000e+00
     vertex -2.833769e-01  2.490006e-01  0.000000e+00
   endloop
 endfacet
 facet normal  0.000000e+00 -0.000000e+00 -1.000000e+00
   outer loop
     vertex -2.770744e-01  2.565160e-01  0.000000e+00
     vertex -2.734375e-01  2.438322e-01  0.000000e+00
     vertex -2.833769e-01  2.490006e-01  0.000000e+00
   endloop
 endfacet
 facet normal  0.000000e+00 -0.000000e+00 -1.000000e+00
   outer loop
     vertex -2.734375e-01  2.656250e-01  0.000000e+00
     vertex -2.734375e-01  2.438322e-01  0.000000e+00
     vertex -2.770744e-01  2.565160e-01  0.000000e+00
   endloop
 endfacet
 facet normal  1.000000e+00  0.000000e+00  0.000000e+00
   outer loop
     vertex -2.734375e-01  2.656250e-01  0.000000e+00
     vertex -2.734375e-01  2.438322e-01  7.812500e-03
     vertex -2.734375e-01  2.438322e-01  0.000000e+00
   endloop
 endfacet
 facet normal  1.000000e+00  0.000000e+00 -0.000000e+00
   outer loop
     vertex -2.734375e-01  2.656250e-01  0.000000e+00
     vertex -2.734375e-01  2.656250e-01  7.812500e-03
     vertex -2.734375e-01  2.438322e-01  7.812500e-03
   endloop
 endfacet
 facet normal -1.000000e+00  0.000000e+00  0.000000e+00
   outer loop
     vertex -2.656250e-01  2.438322e-01  0.000000e+00
     vertex -2.656250e-01  2.688322e-01  7.812500e-03
     vertex -2.656250e-01  2.688322e-01  0.000000e+00
   endloop
 endfacet
 facet normal -1.000000e+00  0.000000e+00  0.000000e+00
   outer loop
     vertex -2.656250e-01  2.438322e-01  0.000000e+00
     vertex -2.656250e-01  2.438322e-01  7.812500e-03
     vertex -2.656250e-01  2.688322e-01  7.812500e-03
   endloop
 endfacet
 facet normal -1.000000e+00  0.000000e+00  0.000000e+00
   outer loop
     vertex -2.656250e-01  2.688322e-01  0.000000e+00
     vertex -2.656250e-01  2.865954e-01  7.812500e-03
     vertex -2.656250e-01  2.865954e-01  0.000000e+00
   endloop
 endfacet
 facet normal -1.000000e+00  0.000000e+00  0.000000e+00
   outer loop
     vertex -2.656250e-01  2.688322e-01  0.000000e+00
     vertex -2.656250e-01  2.688322e-01  7.812500e-03
     vertex -2.656250e-01  2.865954e-01  7.812500e-03
   endloop
 endfacet
 facet normal -9.754985e-01  2.200061e-01  0.000000e+00
   outer loop
     vertex -2.656250e-01  2.865954e-01  0.000000e+00
     vertex -2.656250e-01  2.865954e-01  7.812500e-03
     vertex -2.614072e-01  3.052970e-01  7.812500e-03
   endloop
 endfacet
 facet normal -9.754985e-01  2.200061e-01  0.000000e+00
   outer loop
     vertex -2.614072e-01  3.052970e-01  0.000000e+00
     vertex -2.656250e-01  2.865954e-01  0.000000e+00
     vertex -2.614072e-01  3.052970e-01  7.812500e-03
   endloop
 endfacet
 facet normal -7.348034e-01  6.782801e-01  0.000000e+00
   outer loop
     vertex -2.484037e-01  3.193842e-01  0.000000e+00
     vertex -2.614072e-01  3.052970e-01  7.812500e-03
     vertex -2.484037e-01  3.193842e-01  7.812500e-03
   endloop
 endfacet
 facet normal -7.348034e-01  6.782801e-01  0.000000e+00
   outer loop
     vertex -2.484037e-01  3.193842e-01  0.000000e+00
     vertex -2.614072e-01  3.052970e-01  0.000000e+00
     vertex -2.614072e-01  3.052970e-01  7.812500e-03
   endloop
 endfacet
 facet normal -2.972184e-01  9.548095e-01  0.000000e+00
   outer loop
     vertex -2.300987e-01  3.250822e-01  0.000000e+00
     vertex -2.484037e-01  3.193842e-01  7.812500e-03
     vertex -2.300987e-01  3.250822e-01  7.812500e-03
   endloop
 endfacet
 facet normal -2.972184e-01  9.548095e-01  0.000000e+00
   outer loop
     vertex -2.300987e-01  3.250822e-01  0.000000e+00
     vertex -2.484037e-01  3.193842e-01  0.000000e+00
     vertex -2.484037e-01  3.193842e-01  7.812500e-03
   endloop
 endfacet
 facet normal  0.000000e+00  1.000000e+00  0.000000e+00
   outer loop
     vertex -2.300987e-01  3.250822e-01  0.000000e+00
     vertex -1.990132e-02  3.250822e-01  7.812500e-03
     vertex -1.990132e-02  3.250822e-01  0.000000e+00
   endloop
 endfacet
 facet normal  0.000000e+00  1.000000e+00  0.000000e+00
   outer loop
     vertex -2.300987e-01  3.250822e-01  0.000000e+00
     vertex -2.300987e-01  3.250822e-01  7.812500e-03
     vertex -1.990132e-02  3.250822e-01  7.812500e-03
   endloop
 endfacet
 facet normal  2.972184e-01  9.548095e-01  0.000000e+00
   outer loop
     vertex -1.596344e-03  3.193842e-01  0.000000e+00
     vertex -1.990132e-02  3.250822e-01  0.000000e+00
     vertex -1.990132e-02  3.250822e-01  7.812500e-03
   endloop
 endfacet
 facet normal  2.972184e-01  9.548095e-01 -0.000000e+00
   outer loop
     vertex -1.596344e-03  3.193842e-01  0.000000e+00
     vertex -1.990132e-02  3.250822e-01  7.812500e-03
     vertex -1.596344e-03  3.193842e-01  7.812500e-03
   endloop
 endfacet
 facet normal  7.348034e-01  6.782801e-01 -0.000000e+00
   outer loop
     vertex  1.140719e-02  3.052970e-01  0.000000e+00
     vertex -1.596344e-03  3.193842e-01  7.812500e-03
     vertex  1.140719e-02  3.052970e-01  7.812500e-03
   endloop
 endfacet
 facet normal  7.348034e-01  6.782801e-01  0.000000e+00
   outer loop
     vertex  1.140719e-02  3.052970e-01  0.000000e+00
     vertex -1.596344e-03  3.193842e-01  0.000000e+00
     vertex -1.596344e-03  3.193842e-01  7.812500e-03
   endloop
 endfacet
 facet normal  9.754985e-01  2.200061e-01 -0.000000e+00
   outer loop
     vertex  1.562500e-02  2.865954e-01  0.000000e+00
     vertex  1.140719e-02  3.052970e-01  7.812500e-03
     vertex  1.562500e-02  2.865954e-01  7.812500e-03
   endloop
 endfacet
 facet normal  9.754985e-01  2.200061e-01  0.000000e+00
   outer loop
     vertex  1.562500e-02  2.865954e-01  0.000000e+00
     vertex  1.140719e-02  3.052970e-01  0.000000e+00
     vertex  1.140719e-02  3.052970e-01  7.812500e-03
   endloop
 endfacet
 facet normal  1.000000e+00  0.000000e+00  0.000000e+00
   outer loop
     vertex  1.562500e-02  2.865954e-01  0.000000e+00
     vertex  1.562500e-02  2.688322e-01  7.812500e-03
     vertex  1.562500e-02  2.688322e-01  0.000000e+00
   endloop
 endfacet
 facet normal  1.000000e+00  0.000000e+00 -0.000000e+00
   outer loop
     vertex  1.562500e-02  2.865954e-01  0.000000e+00
     vertex  1.562500e-02  2.865954e-01  7.812500e-03
     vertex  1.562500e-02  2.688322e-01  7.812500e-03
   endloop
 endfacet
 facet normal  1.000000e+00  0.000000e+00  0.000000e+00
   outer loop
     vertex  1.562500e-02  2.688322e-01  0.000000e+00
     vertex  1.562500e-02  2.656250e-01  7.812500e-03
     vertex  1.562500e-02  2.656250e-01  0.000000e+00
   endloop
 endfacet
 facet normal  1.000000e+00  0.000000e+00 -0.000000e+00
   outer loop
     vertex  1.562500e-02  2.688322e-01  0.000000e+00
     vertex  1.562500e-02  2.688322e-01  7.812500e-03
     vertex  1.562500e-02  2.656250e-01  7.812500e-03
   endloop
 endfacet
 facet normal  0.000000e+00  0.000000e+00  1.000000e+00
   outer loop
     vertex  1.926195e-02  2.565160e-01  7.812500e-03
     vertex  1.562500e-02  2.438322e-01  7.812500e-03
     vertex  2.556438e-02  2.490006e-01  7.812500e-03
   endloop
 endfacet
 facet normal  0.000000e+00  0.000000e+00  1.000000e+00
   outer loop
     vertex  3.390046e-02  2.438322e-01  7.812500e-03
     vertex  2.556438e-02  2.490006e-01  7.812500e-03
     vertex  1.562500e-02  2.438322e-01  7.812500e-03
   endloop
 endfacet
 facet normal  0.000000e+00  0.000000e+00  1.000000e+00
   outer loop
     vertex  1.562500e-02  2.656250e-01  7.812500e-03
     vertex  1.562500e-02  2.438322e-01  7.812500e-03
     vertex  1.926195e-02  2.565160e-01  7.812500e-03
   endloop
 endfacet
 facet normal  0.000000e+00  0.000000e+00  1.000000e+00
   outer loop
     vertex -2.734375e-01  2.421875e-01  7.812500e-03
     vertex -2.917130e-01  2.438322e-01  7.812500e-03
     vertex -2.934006e-01  2.431838e-01  7.812500e-03
   endloop
 endfacet
 facet normal  0.000000e+00  0.000000e+00  1.000000e+00
   outer loop
     vertex -2.734375e-01  2.421875e-01  7.812500e-03
     vertex -2.934006e-01  2.431838e-01  7.812500e-03
     vertex -2.951233e-01  2.426349e-01  7.812500e-03
   endloop
 endfacet
 facet normal  0.000000e+00  0.000000e+00  1.000000e+00
   outer loop
     vertex -2.734375e-01  2.421875e-01  7.812500e-03
     vertex -2.951233e-01  2.426349e-01  7.812500e-03
     vertex -2.968750e-01  2.421875e-01  7.812500e-03
   endloop
 endfacet
 facet normal  0.000000e+00  0.000000e+00  1.000000e+00
   outer loop
     vertex -2.734375e-01  2.438322e-01  7.812500e-03
     vertex -2.917130e-01  2.438322e-01  7.812500e-03
     vertex -2.734375e-01  2.421875e-01  7.812500e-03
   endloop
 endfacet
 facet normal  0.000000e+00  0.000000e+00  1.000000e+00
   outer loop
     vertex  1.381579e-02  2.438322e-01  7.812500e-03
     vertex -2.656250e-01  2.438322e-01  7.812500e-03
     vertex -2.656250e-01  2.421875e-01  7.812500e-03
   endloop
 endfacet
 facet normal  0.000000e+00  0.000000e+00  1.000000e+00
   outer loop
     vertex  1.562500e-02  2.421875e-01  7.812500e-03
     vertex  1.381579e-02  2.438322e-01  7.812500e-03
     vertex -2.656250e-01  2.421875e-01  7.812500e-03
   endloop
 endfacet
 facet normal  0.000000e+00  0.000000e+00  1.000000e+00
   outer loop
     vertex  1.562500e-02  2.438322e-01  7.812500e-03
     vertex  1.381579e-02  2.438322e-01  7.812500e-03
     vertex  1.562500e-02  2.421875e-01  7.812500e-03
   endloop
 endfacet
 facet normal  0.000000e+00  0.000000e+00  1.000000e+00
   outer loop
     vertex  3.390046e-02  2.438322e-01  7.812500e-03
     vertex  1.562500e-02  2.438322e-01  7.812500e-03
     vertex  1.562500e-02  2.421875e-01  7.812500e-03
   endloop
 endfacet
 facet normal  0.000000e+00  0.000000e+00  1.000000e+00
   outer loop
     vertex  3.558814e-02  2.431838e-01  7.812500e-03
     vertex  3.390046e-02  2.438322e-01  7.812500e-03
     vertex  1.562500e-02  2.421875e-01  7.812500e-03
   endloop
 endfacet
 facet normal  0.000000e+00  0.000000e+00  1.000000e+00
   outer loop
     vertex  3.731078e-02  2.426349e-01  7.812500e-03
     vertex  3.558814e-02  2.431838e-01  7.812500e-03
     vertex  1.562500e-02  2.421875e-01  7.812500e-03
   endloop
 endfacet
 facet normal  0.000000e+00  0.000000e+00  1.000000e+00
   outer loop
     vertex  3.906250e-02  2.421875e-01  7.812500e-03
     vertex  3.731078e-02  2.426349e-01  7.812500e-03
     vertex  1.562500e-02  2.421875e-01  7.812500e-03
   endloop
 endfacet
 facet normal  0.000000e+00  0.000000e+00  1.000000e+00
   outer loop
     vertex -2.734375e-01  2.438322e-01  7.812500e-03
     vertex -2.833769e-01  2.490006e-01  7.812500e-03
     vertex -2.917130e-01  2.438322e-01  7.812500e-03
   endloop
 endfacet
 facet normal  0.000000e+00  0.000000e+00  1.000000e+00
   outer loop
     vertex -2.770744e-01  2.565160e-01  7.812500e-03
     vertex -2.833769e-01  2.490006e-01  7.812500e-03
     vertex -2.734375e-01  2.438322e-01  7.812500e-03
   endloop
 endfacet
 facet normal  0.000000e+00  0.000000e+00  1.000000e+00
   outer loop
     vertex -2.734375e-01  2.656250e-01  7.812500e-03
     vertex -2.770744e-01  2.565160e-01  7.812500e-03
     vertex -2.734375e-01  2.438322e-01  7.812500e-03
   endloop
 endfacet
 facet normal  0.000000e+00  0.000000e+00  1.000000e+00
   outer loop
     vertex -2.484037e-01  3.193842e-01  7.812500e-03
     vertex -2.614072e-01  3.052970e-01  7.812500e-03
     vertex -2.656250e-01  2.865954e-01  7.812500e-03
   endloop
 endfacet
 facet normal  0.000000e+00  0.000000e+00  1.000000e+00
   outer loop
     vertex -2.300987e-01  3.250822e-01  7.812500e-03
     vertex -2.656250e-01  2.688322e-01  7.812500e-03
     vertex -2.656250e-01  2.438322e-01  7.812500e-03
   endloop
 endfacet
 facet normal  0.000000e+00  0.000000e+00  1.000000e+00
   outer loop
     vertex -2.300987e-01  3.250822e-01  7.812500e-03
     vertex -2.656250e-01  2.865954e-01  7.812500e-03
     vertex -2.656250e-01  2.688322e-01  7.812500e-03
   endloop
 endfacet
 facet normal  0.000000e+00  0.000000e+00  1.000000e+00
   outer loop
     vertex -2.300987e-01  3.250822e-01  7.812500e-03
     vertex -2.484037e-01  3.193842e-01  7.812500e-03
     vertex -2.656250e-01  2.865954e-01  7.812500e-03
   endloop
 endfacet
 facet normal  0.000000e+00  0.000000e+00  1.000000e+00
   outer loop
     vertex  1.381579e-02  2.438322e-01  7.812500e-03
     vertex -2.300987e-01  3.250822e-01  7.812500e-03
     vertex -2.656250e-01  2.438322e-01  7.812500e-03
   endloop
 endfacet
 facet normal  0.000000e+00  0.000000e+00  1.000000e+00
   outer loop
     vertex  1.562500e-02  2.656250e-01  7.812500e-03
     vertex  1.381579e-02  2.438322e-01  7.812500e-03
     vertex  1.562500e-02  2.438322e-01  7.812500e-03
   endloop
 endfacet
 facet normal  0.000000e+00  0.000000e+00  1.000000e+00
   outer loop
     vertex -1.990132e-02  3.250822e-01  7.812500e-03
     vertex  1.562500e-02  2.656250e-01  7.812500e-03
     vertex  1.562500e-02  2.688322e-01  7.812500e-03
   endloop
 endfacet
 facet normal  0.000000e+00  0.000000e+00  1.000000e+00
   outer loop
     vertex -1.990132e-02  3.250822e-01  7.812500e-03
     vertex  1.562500e-02  2.688322e-01  7.812500e-03
     vertex  1.562500e-02  2.865954e-01  7.812500e-03
   endloop
 endfacet
 facet normal  0.000000e+00  0.000000e+00  1.000000e+00
   outer loop
     vertex -1.990132e-02  3.250822e-01  7.812500e-03
     vertex -2.300987e-01  3.250822e-01  7.812500e-03
     vertex  1.381579e-02  2.438322e-01  7.812500e-03
   endloop
 endfacet
 facet normal  0.000000e+00  0.000000e+00  1.000000e+00
   outer loop
     vertex -1.990132e-02  3.250822e-01  7.812500e-03
     vertex  1.381579e-02  2.438322e-01  7.812500e-03
     vertex  1.562500e-02  2.656250e-01  7.812500e-03
   endloop
 endfacet
 facet normal  0.000000e+00  0.000000e+00  1.000000e+00
   outer loop
     vertex  1.140719e-02  3.052970e-01  7.812500e-03
     vertex -1.990132e-02  3.250822e-01  7.812500e-03
     vertex  1.562500e-02  2.865954e-01  7.812500e-03
   endloop
 endfacet
 facet normal  0.000000e+00  0.000000e+00  1.000000e+00
   outer loop
     vertex -1.596344e-03  3.193842e-01  7.812500e-03
     vertex -1.990132e-02  3.250822e-01  7.812500e-03
     vertex  1.140719e-02  3.052970e-01  7.812500e-03
   endloop
 endfacet
endsolid
