solid 
 facet normal  6.123234e-17 -6.123234e-17 -1.000000e+00
   outer loop
     vertex  1.200980e-33  3.203125e-01 -1.961348e-17
     vertex -1.640625e-01  0.000000e+00 -1.004593e-17
     vertex -1.640625e-01  3.203125e-01 -2.965941e-17
   endloop
 endfacet
 facet normal  6.123234e-17 -6.123234e-17 -1.000000e+00
   outer loop
     vertex  1.200980e-33  3.203125e-01 -1.961348e-17
     vertex  0.000000e+00  0.000000e+00  0.000000e+00
     vertex -1.640625e-01  0.000000e+00 -1.004593e-17
   endloop
 endfacet
 facet normal  0.000000e+00  0.000000e+00 -1.000000e+00
   outer loop
     vertex -6.661184e-01  2.992393e-01  0.000000e+00
     vertex -7.462993e-01  1.603618e-01  0.000000e+00
     vertex -7.248149e-01  2.405428e-01  0.000000e+00
   endloop
 endfacet
 facet normal  0.000000e+00  0.000000e+00 -1.000000e+00
   outer loop
     vertex -6.661184e-01  2.992393e-01  0.000000e+00
     vertex -7.248149e-01  8.018092e-02  0.000000e+00
     vertex -7.462993e-01  1.603618e-01  0.000000e+00
   endloop
 endfacet
 facet normal  0.000000e+00  0.000000e+00 -1.000000e+00
   outer loop
     vertex -6.661184e-01  2.992393e-01  0.000000e+00
     vertex -6.661184e-01  2.148441e-02  0.000000e+00
     vertex -7.248149e-01  8.018092e-02  0.000000e+00
   endloop
 endfacet
 facet normal  0.000000e+00 -0.000000e+00 -1.000000e+00
   outer loop
     vertex -6.661184e-01  2.992393e-01  0.000000e+00
     vertex -5.859375e-01  0.000000e+00  0.000000e+00
     vertex -6.661184e-01  2.148441e-02  0.000000e+00
   endloop
 endfacet
 facet normal  0.000000e+00 -0.000000e+00 -1.000000e+00
   outer loop
     vertex -5.859375e-01  3.207237e-01  0.000000e+00
     vertex -5.859375e-01  0.000000e+00  0.000000e+00
     vertex -6.661184e-01  2.992393e-01  0.000000e+00
   endloop
 endfacet
 facet normal -2.381258e-17 -6.123234e-17 -1.000000e+00
   outer loop
     vertex -1.640625e-01  3.203125e-01 -2.965941e-17
     vertex -1.640625e-01  0.000000e+00 -1.004593e-17
     vertex -5.859375e-01  0.000000e+00  0.000000e+00
   endloop
 endfacet
 facet normal -7.030380e-17  0.000000e+00 -1.000000e+00
   outer loop
     vertex -1.640625e-01  3.203125e-01 -2.965941e-17
     vertex -5.859375e-01  0.000000e+00  0.000000e+00
     vertex -5.859375e-01  3.207237e-01  0.000000e+00
   endloop
 endfacet
 facet normal  6.123234e-17  4.769999e-14 -1.000000e+00
   outer loop
     vertex  0.000000e+00  3.207237e-01  0.000000e+00
     vertex  1.200980e-33  3.203125e-01 -1.961348e-17
     vertex -1.640625e-01  3.203125e-01 -2.965941e-17
   endloop
 endfacet
 facet normal  0.000000e+00  7.213170e-14 -1.000000e+00
   outer loop
     vertex  0.000000e+00  3.207237e-01  0.000000e+00
     vertex -1.640625e-01  3.203125e-01 -2.965941e-17
     vertex -5.859375e-01  3.207237e-01  0.000000e+00
   endloop
 endfacet
 facet normal  1.000000e+00  0.000000e+00 -4.463157e-15
   outer loop
     vertex  0.000000e+00  3.203125e-01  1.093750e-01
     vertex  0.000000e+00  0.000000e+00  1.093750e-01
     vertex -6.606647e-18  6.606647e-18  1.078947e-01
   endloop
 endfacet
 facet normal  1.000000e+00  2.142541e-45  6.123234e-17
   outer loop
     vertex  1.200980e-33  3.203125e-01 -1.961348e-17
     vertex -6.606647e-18  6.606647e-18  1.078947e-01
     vertex  0.000000e+00  0.000000e+00  0.000000e+00
   endloop
 endfacet
 facet normal  1.000000e+00 -2.062563e-17  1.098038e-32
   outer loop
     vertex  1.200980e-33  3.203125e-01 -1.961348e-17
     vertex  0.000000e+00  3.203125e-01  1.093750e-01
     vertex -6.606647e-18  6.606647e-18  1.078947e-01
   endloop
 endfacet
 facet normal -3.749399e-33 -1.000000e+00  6.123234e-17
   outer loop
     vertex  0.000000e+00  0.000000e+00  0.000000e+00
     vertex -1.640625e-01  6.606647e-18  1.078947e-01
     vertex -1.640625e-01  0.000000e+00 -1.004593e-17
   endloop
 endfacet
 facet normal  0.000000e+00 -1.000000e+00  6.123234e-17
   outer loop
     vertex  0.000000e+00  0.000000e+00  0.000000e+00
     vertex -6.606647e-18  6.606647e-18  1.078947e-01
     vertex -1.640625e-01  6.606647e-18  1.078947e-01
   endloop
 endfacet
 facet normal -2.588190e-01 -9.659258e-01  0.000000e+00
   outer loop
     vertex -6.661184e-01  2.148441e-02  0.000000e+00
     vertex -5.859375e-01  0.000000e+00  0.000000e+00
     vertex -5.859375e-01  0.000000e+00  1.093750e-01
   endloop
 endfacet
 facet normal -2.588190e-01 -9.659258e-01  0.000000e+00
   outer loop
     vertex -6.661184e-01  2.148441e-02  0.000000e+00
     vertex -5.859375e-01  0.000000e+00  1.093750e-01
     vertex -6.661184e-01  2.148441e-02  1.093750e-01
   endloop
 endfacet
 facet normal -7.071068e-01 -7.071068e-01  0.000000e+00
   outer loop
     vertex -7.248149e-01  8.018092e-02  0.000000e+00
     vertex -6.661184e-01  2.148441e-02  1.093750e-01
     vertex -7.248149e-01  8.018092e-02  1.093750e-01
   endloop
 endfacet
 facet normal -7.071068e-01 -7.071068e-01  0.000000e+00
   outer loop
     vertex -7.248149e-01  8.018092e-02  0.000000e+00
     vertex -6.661184e-01  2.148441e-02  0.000000e+00
     vertex -6.661184e-01  2.148441e-02  1.093750e-01
   endloop
 endfacet
 facet normal -9.659258e-01 -2.588190e-01  0.000000e+00
   outer loop
     vertex -7.462993e-01  1.603618e-01  0.000000e+00
     vertex -7.248149e-01  8.018092e-02  1.093750e-01
     vertex -7.462993e-01  1.603618e-01  1.093750e-01
   endloop
 endfacet
 facet normal -9.659258e-01 -2.588190e-01  0.000000e+00
   outer loop
     vertex -7.462993e-01  1.603618e-01  0.000000e+00
     vertex -7.248149e-01  8.018092e-02  0.000000e+00
     vertex -7.248149e-01  8.018092e-02  1.093750e-01
   endloop
 endfacet
 facet normal -9.659258e-01  2.588190e-01  0.000000e+00
   outer loop
     vertex -7.248149e-01  2.405428e-01  0.000000e+00
     vertex -7.462993e-01  1.603618e-01  1.093750e-01
     vertex -7.248149e-01  2.405428e-01  1.093750e-01
   endloop
 endfacet
 facet normal -9.659258e-01  2.588190e-01  0.000000e+00
   outer loop
     vertex -7.248149e-01  2.405428e-01  0.000000e+00
     vertex -7.462993e-01  1.603618e-01  0.000000e+00
     vertex -7.462993e-01  1.603618e-01  1.093750e-01
   endloop
 endfacet
 facet normal -7.071068e-01  7.071068e-01  0.000000e+00
   outer loop
     vertex -6.661184e-01  2.992393e-01  0.000000e+00
     vertex -7.248149e-01  2.405428e-01  1.093750e-01
     vertex -6.661184e-01  2.992393e-01  1.093750e-01
   endloop
 endfacet
 facet normal -7.071068e-01  7.071068e-01  0.000000e+00
   outer loop
     vertex -6.661184e-01  2.992393e-01  0.000000e+00
     vertex -7.248149e-01  2.405428e-01  0.000000e+00
     vertex -7.248149e-01  2.405428e-01  1.093750e-01
   endloop
 endfacet
 facet normal -2.588190e-01  9.659258e-01  0.000000e+00
   outer loop
     vertex -5.859375e-01  3.207237e-01  0.000000e+00
     vertex -6.661184e-01  2.992393e-01  1.093750e-01
     vertex -5.859375e-01  3.207237e-01  1.093750e-01
   endloop
 endfacet
 facet normal -2.588190e-01  9.659258e-01  0.000000e+00
   outer loop
     vertex -5.859375e-01  3.207237e-01  0.000000e+00
     vertex -6.661184e-01  2.992393e-01  0.000000e+00
     vertex -6.661184e-01  2.992393e-01  1.093750e-01
   endloop
 endfacet
 facet normal  0.000000e+00  1.000000e+00  0.000000e+00
   outer loop
     vertex -5.859375e-01  3.207237e-01  0.000000e+00
     vertex  0.000000e+00  3.207237e-01  1.093750e-01
     vertex  0.000000e+00  3.207237e-01  0.000000e+00
   endloop
 endfacet
 facet normal  0.000000e+00  1.000000e+00  0.000000e+00
   outer loop
     vertex -5.859375e-01  3.207237e-01  0.000000e+00
     vertex -5.859375e-01  3.207237e-01  1.093750e-01
     vertex  0.000000e+00  3.207237e-01  1.093750e-01
   endloop
 endfacet
 facet normal  1.000000e+00  2.920782e-30  1.098038e-32
   outer loop
     vertex  0.000000e+00  3.207237e-01  0.000000e+00
     vertex  0.000000e+00  3.203125e-01  1.093750e-01
     vertex  1.200980e-33  3.203125e-01 -1.961348e-17
   endloop
 endfacet
 facet normal  1.000000e+00  0.000000e+00 -0.000000e+00
   outer loop
     vertex  0.000000e+00  3.207237e-01  0.000000e+00
     vertex  0.000000e+00  3.207237e-01  1.093750e-01
     vertex  0.000000e+00  3.203125e-01  1.093750e-01
   endloop
 endfacet
 facet normal -0.000000e+00 -1.000000e+00  0.000000e+00
   outer loop
     vertex -3.203125e-01  0.000000e+00  1.093750e-01
     vertex -5.859375e-01  0.000000e+00  1.093750e-01
     vertex -5.859375e-01  0.000000e+00  0.000000e+00
   endloop
 endfacet
 facet normal  2.143132e-17 -1.000000e+00 -2.200962e-15
   outer loop
     vertex -1.640625e-01  6.606647e-18  1.078947e-01
     vertex -1.640625e-01  3.348644e-18  1.093750e-01
     vertex -3.203125e-01  0.000000e+00  1.093750e-01
   endloop
 endfacet
 facet normal  0.000000e+00 -1.000000e+00  0.000000e+00
   outer loop
     vertex -1.640625e-01  0.000000e+00 -1.004593e-17
     vertex -3.203125e-01  0.000000e+00  1.093750e-01
     vertex -5.859375e-01  0.000000e+00  0.000000e+00
   endloop
 endfacet
 facet normal  4.286264e-17 -1.000000e+00  6.123234e-17
   outer loop
     vertex -1.640625e-01  0.000000e+00 -1.004593e-17
     vertex -1.640625e-01  6.606647e-18  1.078947e-01
     vertex -3.203125e-01  0.000000e+00  1.093750e-01
   endloop
 endfacet
 facet normal  1.000000e+00  0.000000e+00  0.000000e+00
   outer loop
     vertex  0.000000e+00  3.203125e-01  1.093750e-01
     vertex  0.000000e+00  0.000000e+00  2.109375e-01
     vertex  0.000000e+00  0.000000e+00  1.093750e-01
   endloop
 endfacet
 facet normal  1.000000e+00 -1.874700e-33 -5.912515e-33
   outer loop
     vertex  0.000000e+00  3.203125e-01  1.093750e-01
     vertex  6.004898e-34  3.203125e-01  2.109375e-01
     vertex  0.000000e+00  0.000000e+00  2.109375e-01
   endloop
 endfacet
 facet normal -0.000000e+00 -1.000000e+00 -2.200962e-15
   outer loop
     vertex -6.606647e-18  6.606647e-18  1.078947e-01
     vertex -1.640625e-01  3.348644e-18  1.093750e-01
     vertex -1.640625e-01  6.606647e-18  1.078947e-01
   endloop
 endfacet
 facet normal -2.041078e-17 -1.000000e+00 -4.463157e-15
   outer loop
     vertex -6.606647e-18  6.606647e-18  1.078947e-01
     vertex  0.000000e+00  0.000000e+00  1.093750e-01
     vertex -1.640625e-01  3.348644e-18  1.093750e-01
   endloop
 endfacet
 facet normal  0.000000e+00  0.000000e+00  1.000000e+00
   outer loop
     vertex -6.661184e-01  2.992393e-01  1.093750e-01
     vertex -7.248149e-01  2.405428e-01  1.093750e-01
     vertex -7.462993e-01  1.603618e-01  1.093750e-01
   endloop
 endfacet
 facet normal  0.000000e+00  0.000000e+00  1.000000e+00
   outer loop
     vertex -6.661184e-01  2.992393e-01  1.093750e-01
     vertex -7.462993e-01  1.603618e-01  1.093750e-01
     vertex -7.248149e-01  8.018092e-02  1.093750e-01
   endloop
 endfacet
 facet normal  0.000000e+00  0.000000e+00  1.000000e+00
   outer loop
     vertex -6.661184e-01  2.992393e-01  1.093750e-01
     vertex -7.248149e-01  8.018092e-02  1.093750e-01
     vertex -6.661184e-01  2.148441e-02  1.093750e-01
   endloop
 endfacet
 facet normal  0.000000e+00  0.000000e+00  1.000000e+00
   outer loop
     vertex -6.661184e-01  2.992393e-01  1.093750e-01
     vertex -6.661184e-01  2.148441e-02  1.093750e-01
     vertex -5.859375e-01  0.000000e+00  1.093750e-01
   endloop
 endfacet
 facet normal  0.000000e+00  0.000000e+00  1.000000e+00
   outer loop
     vertex -5.859375e-01  3.207237e-01  1.093750e-01
     vertex -6.661184e-01  2.992393e-01  1.093750e-01
     vertex -5.859375e-01  0.000000e+00  1.093750e-01
   endloop
 endfacet
 facet normal  0.000000e+00  0.000000e+00  1.000000e+00
   outer loop
     vertex -3.203125e-01  3.203125e-01  1.093750e-01
     vertex -5.859375e-01  0.000000e+00  1.093750e-01
     vertex -3.203125e-01  0.000000e+00  1.093750e-01
   endloop
 endfacet
 facet normal  0.000000e+00  0.000000e+00  1.000000e+00
   outer loop
     vertex -3.203125e-01  3.203125e-01  1.093750e-01
     vertex -5.859375e-01  3.207237e-01  1.093750e-01
     vertex -5.859375e-01  0.000000e+00  1.093750e-01
   endloop
 endfacet
 facet normal  0.000000e+00  0.000000e+00  1.000000e+00
   outer loop
     vertex  0.000000e+00  3.207237e-01  1.093750e-01
     vertex -1.640625e-01  3.203125e-01  1.093750e-01
     vertex  0.000000e+00  3.203125e-01  1.093750e-01
   endloop
 endfacet
 facet normal  0.000000e+00  0.000000e+00  1.000000e+00
   outer loop
     vertex  0.000000e+00  3.207237e-01  1.093750e-01
     vertex -5.859375e-01  3.207237e-01  1.093750e-01
     vertex -3.203125e-01  3.203125e-01  1.093750e-01
   endloop
 endfacet
 facet normal  0.000000e+00  0.000000e+00  1.000000e+00
   outer loop
     vertex  0.000000e+00  3.207237e-01  1.093750e-01
     vertex -3.203125e-01  3.203125e-01  1.093750e-01
     vertex -1.640625e-01  3.203125e-01  1.093750e-01
   endloop
 endfacet
 facet normal  1.530808e-18 -1.000000e+00 -2.016293e-15
   outer loop
     vertex -1.640625e-01  1.300684e-17  2.124178e-01
     vertex -1.640625e-01  2.391888e-19  2.187500e-01
     vertex -3.203125e-01  0.000000e+00  2.187500e-01
   endloop
 endfacet
 facet normal -0.000000e+00 -1.000000e+00  0.000000e+00
   outer loop
     vertex -1.640625e-01  0.000000e+00  2.109375e-01
     vertex -3.203125e-01  0.000000e+00  2.187500e-01
     vertex -3.203125e-01  0.000000e+00  1.093750e-01
   endloop
 endfacet
 facet normal  4.393420e-16 -1.000000e+00  8.786841e-15
   outer loop
     vertex -1.640625e-01  0.000000e+00  2.109375e-01
     vertex -1.640625e-01  1.300684e-17  2.124178e-01
     vertex -3.203125e-01  0.000000e+00  2.187500e-01
   endloop
 endfacet
 facet normal  2.143132e-17 -1.000000e+00 -3.297126e-17
   outer loop
     vertex -1.640625e-01  3.348644e-18  1.093750e-01
     vertex -1.640625e-01  0.000000e+00  2.109375e-01
     vertex -3.203125e-01  0.000000e+00  1.093750e-01
   endloop
 endfacet
 facet normal  0.000000e+00  1.000000e+00  0.000000e+00
   outer loop
     vertex -1.640625e-01  3.203125e-01  1.093750e-01
     vertex  6.004898e-34  3.203125e-01  2.109375e-01
     vertex  0.000000e+00  3.203125e-01  1.093750e-01
   endloop
 endfacet
 facet normal  0.000000e+00  1.000000e+00  0.000000e+00
   outer loop
     vertex -1.640625e-01  3.203125e-01  1.093750e-01
     vertex -1.640625e-01  3.203125e-01  2.109375e-01
     vertex  6.004898e-34  3.203125e-01  2.109375e-01
   endloop
 endfacet
 facet normal  1.000000e+00 -1.874700e-33  8.786841e-15
   outer loop
     vertex  6.004898e-34  3.203125e-01  2.109375e-01
     vertex -1.300684e-17  1.300684e-17  2.124178e-01
     vertex  0.000000e+00  0.000000e+00  2.109375e-01
   endloop
 endfacet
 facet normal  1.000000e+00  0.000000e+00  8.786841e-15
   outer loop
     vertex  6.004898e-34  3.203125e-01  2.109375e-01
     vertex -1.300684e-17  3.203125e-01  2.124178e-01
     vertex -1.300684e-17  1.300684e-17  2.124178e-01
   endloop
 endfacet
 facet normal -2.041078e-17 -1.000000e+00 -3.297126e-17
   outer loop
     vertex  0.000000e+00  0.000000e+00  1.093750e-01
     vertex -1.640625e-01  0.000000e+00  2.109375e-01
     vertex -1.640625e-01  3.348644e-18  1.093750e-01
   endloop
 endfacet
 facet normal  0.000000e+00 -1.000000e+00  0.000000e+00
   outer loop
     vertex  0.000000e+00  0.000000e+00  1.093750e-01
     vertex  0.000000e+00  0.000000e+00  2.109375e-01
     vertex -1.640625e-01  0.000000e+00  2.109375e-01
   endloop
 endfacet
 facet normal  0.000000e+00  1.000000e+00  0.000000e+00
   outer loop
     vertex -3.203125e-01  3.203125e-01  2.187500e-01
     vertex -1.640625e-01  3.203125e-01  2.124178e-01
     vertex -1.640625e-01  3.203125e-01  2.109375e-01
   endloop
 endfacet
 facet normal -0.000000e+00  1.000000e+00  0.000000e+00
   outer loop
     vertex -3.203125e-01  3.203125e-01  2.187500e-01
     vertex -1.640625e-01  3.203125e-01  2.187500e-01
     vertex -1.640625e-01  3.203125e-01  2.124178e-01
   endloop
 endfacet
 facet normal  0.000000e+00  1.000000e+00  0.000000e+00
   outer loop
     vertex -3.203125e-01  3.203125e-01  1.093750e-01
     vertex -1.640625e-01  3.203125e-01  2.109375e-01
     vertex -1.640625e-01  3.203125e-01  1.093750e-01
   endloop
 endfacet
 facet normal  0.000000e+00  1.000000e+00  0.000000e+00
   outer loop
     vertex -3.203125e-01  3.203125e-01  1.093750e-01
     vertex -3.203125e-01  3.203125e-01  2.187500e-01
     vertex -1.640625e-01  3.203125e-01  2.109375e-01
   endloop
 endfacet
 facet normal -1.000000e+00  0.000000e+00  0.000000e+00
   outer loop
     vertex -3.203125e-01  0.000000e+00  1.093750e-01
     vertex -3.203125e-01  3.203125e-01  2.187500e-01
     vertex -3.203125e-01  3.203125e-01  1.093750e-01
   endloop
 endfacet
 facet normal -1.000000e+00  0.000000e+00  0.000000e+00
   outer loop
     vertex -3.203125e-01  0.000000e+00  1.093750e-01
     vertex -3.203125e-01  0.000000e+00  2.187500e-01
     vertex -3.203125e-01  3.203125e-01  2.187500e-01
   endloop
 endfacet
 facet normal  0.000000e+00 -1.000000e+00  8.786841e-15
   outer loop
     vertex  0.000000e+00  0.000000e+00  2.109375e-01
     vertex -1.640625e-01  1.300684e-17  2.124178e-01
     vertex -1.640625e-01  0.000000e+00  2.109375e-01
   endloop
 endfacet
 facet normal  0.000000e+00 -1.000000e+00  8.786841e-15
   outer loop
     vertex  0.000000e+00  0.000000e+00  2.109375e-01
     vertex -1.300684e-17  1.300684e-17  2.124178e-01
     vertex -1.640625e-01  1.300684e-17  2.124178e-01
   endloop
 endfacet
 facet normal -0.000000e+00 -1.000000e+00 -2.016293e-15
   outer loop
     vertex -1.300684e-17  1.300684e-17  2.124178e-01
     vertex -1.640625e-01  2.391888e-19  2.187500e-01
     vertex -1.640625e-01  1.300684e-17  2.124178e-01
   endloop
 endfacet
 facet normal -1.457913e-18 -1.000000e+00 -2.054067e-15
   outer loop
     vertex -1.300684e-17  1.300684e-17  2.124178e-01
     vertex  0.000000e+00  0.000000e+00  2.187500e-01
     vertex -1.640625e-01  2.391888e-19  2.187500e-01
   endloop
 endfacet
 facet normal  0.000000e+00  0.000000e+00  1.000000e+00
   outer loop
     vertex -1.640625e-01  3.203125e-01  2.187500e-01
     vertex -3.203125e-01  3.203125e-01  2.187500e-01
     vertex -3.203125e-01  0.000000e+00  2.187500e-01
   endloop
 endfacet
 facet normal  0.000000e+00  0.000000e+00  1.000000e+00
   outer loop
     vertex -1.640625e-01  3.203125e-01  2.187500e-01
     vertex -3.203125e-01  0.000000e+00  2.187500e-01
     vertex -1.640625e-01  2.391888e-19  2.187500e-01
   endloop
 endfacet
 facet normal  0.000000e+00  0.000000e+00 -1.000000e+00
   outer loop
     vertex  1.204063e-33  3.211349e-01  2.109375e-01
     vertex  6.004898e-34  3.203125e-01  2.109375e-01
     vertex -1.640625e-01  3.203125e-01  2.109375e-01
   endloop
 endfacet
 facet normal -0.000000e+00  0.000000e+00 -1.000000e+00
   outer loop
     vertex  1.204063e-33  3.211349e-01  2.109375e-01
     vertex -1.640625e-01  3.203125e-01  2.109375e-01
     vertex -1.640625e-01  3.211349e-01  2.109375e-01
   endloop
 endfacet
 facet normal  1.000000e+00  0.000000e+00  8.786841e-15
   outer loop
     vertex -1.300684e-17  3.203125e-01  2.124178e-01
     vertex  6.004898e-34  3.203125e-01  2.109375e-01
     vertex  1.204063e-33  3.211349e-01  2.109375e-01
   endloop
 endfacet
 facet normal  1.000000e+00  0.000000e+00  6.307903e-17
   outer loop
     vertex  0.000000e+00  3.203125e-01  2.187500e-01
     vertex -1.634037e-17  8.170185e-18  4.777961e-01
     vertex  0.000000e+00  0.000000e+00  2.187500e-01
   endloop
 endfacet
 facet normal  1.000000e+00 -1.951363e-14 -2.054067e-15
   outer loop
     vertex  0.000000e+00  3.203125e-01  2.187500e-01
     vertex -1.300684e-17  3.203125e-01  2.124178e-01
     vertex  1.204063e-33  3.211349e-01  2.109375e-01
   endloop
 endfacet
 facet normal  1.000000e+00  0.000000e+00  6.307903e-17
   outer loop
     vertex -1.634037e-17  3.211349e-01  4.777961e-01
     vertex -1.634037e-17  8.170185e-18  4.777961e-01
     vertex  0.000000e+00  3.203125e-01  2.187500e-01
   endloop
 endfacet
 facet normal  1.000000e+00 -1.393937e-32  6.123234e-17
   outer loop
     vertex -2.125633e-17  2.996229e-01  5.580798e-01
     vertex -2.485507e-17  2.408512e-01  6.168515e-01
     vertex -2.617229e-17  1.605674e-01  6.383635e-01
   endloop
 endfacet
 facet normal  1.000000e+00  5.102163e-33  6.123234e-17
   outer loop
     vertex -2.125633e-17  2.996229e-01  5.580798e-01
     vertex -2.617229e-17  1.605674e-01  6.383635e-01
     vertex -2.485507e-17  8.028372e-02  6.168515e-01
   endloop
 endfacet
 facet normal  1.000000e+00  1.336397e-32  6.123234e-17
   outer loop
     vertex -2.125633e-17  2.996229e-01  5.580798e-01
     vertex -2.485507e-17  8.028372e-02  6.168515e-01
     vertex -2.125633e-17  2.151196e-02  5.580798e-01
   endloop
 endfacet
 facet normal  1.000000e+00  1.336397e-32  6.123234e-17
   outer loop
     vertex -2.125633e-17  2.996229e-01  5.580798e-01
     vertex -2.125633e-17  2.151196e-02  5.580798e-01
     vertex -1.634037e-17  8.170185e-18  4.777961e-01
   endloop
 endfacet
 facet normal  1.000000e+00  0.000000e+00  6.123234e-17
   outer loop
     vertex -2.125633e-17  2.996229e-01  5.580798e-01
     vertex -1.634037e-17  8.170185e-18  4.777961e-01
     vertex -1.634037e-17  3.211349e-01  4.777961e-01
   endloop
 endfacet
 facet normal  1.000000e+00  5.817072e-16  6.123234e-17
   outer loop
     vertex  1.204063e-33  3.211349e-01  2.109375e-01
     vertex -1.634037e-17  3.211349e-01  4.777961e-01
     vertex  0.000000e+00  3.203125e-01  2.187500e-01
   endloop
 endfacet
 facet normal  1.000000e+00  0.000000e+00 -2.054067e-15
   outer loop
     vertex -1.300684e-17  3.203125e-01  2.124178e-01
     vertex  0.000000e+00  0.000000e+00  2.187500e-01
     vertex -1.300684e-17  1.300684e-17  2.124178e-01
   endloop
 endfacet
 facet normal  1.000000e+00  0.000000e+00 -2.054067e-15
   outer loop
     vertex -1.300684e-17  3.203125e-01  2.124178e-01
     vertex  0.000000e+00  3.203125e-01  2.187500e-01
     vertex  0.000000e+00  0.000000e+00  2.187500e-01
   endloop
 endfacet
 facet normal -1.000000e+00  0.000000e+00  0.000000e+00
   outer loop
     vertex -1.640625e-01  3.203125e-01  2.124178e-01
     vertex -1.640625e-01  3.211349e-01  2.109375e-01
     vertex -1.640625e-01  3.203125e-01  2.109375e-01
   endloop
 endfacet
 facet normal -1.000000e+00  0.000000e+00  0.000000e+00
   outer loop
     vertex -1.640625e-01  3.203125e-01  2.187500e-01
     vertex -1.640625e-01  2.391888e-19  2.187500e-01
     vertex -1.640625e-01  8.170185e-18  4.777961e-01
   endloop
 endfacet
 facet normal -1.000000e+00  0.000000e+00  0.000000e+00
   outer loop
     vertex -1.640625e-01  3.203125e-01  2.187500e-01
     vertex -1.640625e-01  3.211349e-01  2.109375e-01
     vertex -1.640625e-01  3.203125e-01  2.124178e-01
   endloop
 endfacet
 facet normal -1.000000e+00 -0.000000e+00  0.000000e+00
   outer loop
     vertex -1.640625e-01  3.211349e-01  4.777961e-01
     vertex -1.640625e-01  3.203125e-01  2.187500e-01
     vertex -1.640625e-01  8.170185e-18  4.777961e-01
   endloop
 endfacet
 facet normal -1.000000e+00  0.000000e+00  0.000000e+00
   outer loop
     vertex -1.640625e-01  2.996229e-01  5.580798e-01
     vertex -1.640625e-01  1.605674e-01  6.383635e-01
     vertex -1.640625e-01  2.408512e-01  6.168515e-01
   endloop
 endfacet
 facet normal -1.000000e+00  0.000000e+00  0.000000e+00
   outer loop
     vertex -1.640625e-01  2.996229e-01  5.580798e-01
     vertex -1.640625e-01  8.028372e-02  6.168515e-01
     vertex -1.640625e-01  1.605674e-01  6.383635e-01
   endloop
 endfacet
 facet normal -1.000000e+00  0.000000e+00  0.000000e+00
   outer loop
     vertex -1.640625e-01  2.996229e-01  5.580798e-01
     vertex -1.640625e-01  2.151196e-02  5.580798e-01
     vertex -1.640625e-01  8.028372e-02  6.168515e-01
   endloop
 endfacet
 facet normal -1.000000e+00 -0.000000e+00  0.000000e+00
   outer loop
     vertex -1.640625e-01  2.996229e-01  5.580798e-01
     vertex -1.640625e-01  8.170185e-18  4.777961e-01
     vertex -1.640625e-01  2.151196e-02  5.580798e-01
   endloop
 endfacet
 facet normal -1.000000e+00  0.000000e+00 -0.000000e+00
   outer loop
     vertex -1.640625e-01  2.996229e-01  5.580798e-01
     vertex -1.640625e-01  3.211349e-01  4.777961e-01
     vertex -1.640625e-01  8.170185e-18  4.777961e-01
   endloop
 endfacet
 facet normal -1.000000e+00  0.000000e+00  0.000000e+00
   outer loop
     vertex -1.640625e-01  3.211349e-01  2.109375e-01
     vertex -1.640625e-01  3.203125e-01  2.187500e-01
     vertex -1.640625e-01  3.211349e-01  4.777961e-01
   endloop
 endfacet
 facet normal  0.000000e+00 -1.000000e+00  3.153951e-17
   outer loop
     vertex  0.000000e+00  0.000000e+00  2.187500e-01
     vertex -1.634037e-17  8.170185e-18  4.777961e-01
     vertex -1.640625e-01  8.170185e-18  4.777961e-01
   endloop
 endfacet
 facet normal -1.457913e-18 -1.000000e+00  3.061616e-17
   outer loop
     vertex  0.000000e+00  0.000000e+00  2.187500e-01
     vertex -1.640625e-01  8.170185e-18  4.777961e-01
     vertex -1.640625e-01  2.391888e-19  2.187500e-01
   endloop
 endfacet
 facet normal  0.000000e+00  1.000000e+00  0.000000e+00
   outer loop
     vertex -1.634037e-17  3.211349e-01  4.777961e-01
     vertex  1.204063e-33  3.211349e-01  2.109375e-01
     vertex -1.640625e-01  3.211349e-01  2.109375e-01
   endloop
 endfacet
 facet normal  0.000000e+00  1.000000e+00  0.000000e+00
   outer loop
     vertex -1.634037e-17  3.211349e-01  4.777961e-01
     vertex -1.640625e-01  3.211349e-01  2.109375e-01
     vertex -1.640625e-01  3.211349e-01  4.777961e-01
   endloop
 endfacet
 facet normal  0.000000e+00  9.659258e-01  2.588190e-01
   outer loop
     vertex -2.125633e-17  2.996229e-01  5.580798e-01
     vertex -1.634037e-17  3.211349e-01  4.777961e-01
     vertex -1.640625e-01  3.211349e-01  4.777961e-01
   endloop
 endfacet
 facet normal  0.000000e+00  9.659258e-01  2.588190e-01
   outer loop
     vertex -2.125633e-17  2.996229e-01  5.580798e-01
     vertex -1.640625e-01  3.211349e-01  4.777961e-01
     vertex -1.640625e-01  2.996229e-01  5.580798e-01
   endloop
 endfacet
 facet normal  0.000000e+00  7.071068e-01  7.071068e-01
   outer loop
     vertex -2.485507e-17  2.408512e-01  6.168515e-01
     vertex -1.640625e-01  2.996229e-01  5.580798e-01
     vertex -1.640625e-01  2.408512e-01  6.168515e-01
   endloop
 endfacet
 facet normal  0.000000e+00  7.071068e-01  7.071068e-01
   outer loop
     vertex -2.485507e-17  2.408512e-01  6.168515e-01
     vertex -2.125633e-17  2.996229e-01  5.580798e-01
     vertex -1.640625e-01  2.996229e-01  5.580798e-01
   endloop
 endfacet
 facet normal  0.000000e+00  2.588190e-01  9.659258e-01
   outer loop
     vertex -2.617229e-17  1.605674e-01  6.383635e-01
     vertex -1.640625e-01  2.408512e-01  6.168515e-01
     vertex -1.640625e-01  1.605674e-01  6.383635e-01
   endloop
 endfacet
 facet normal  0.000000e+00  2.588190e-01  9.659258e-01
   outer loop
     vertex -2.617229e-17  1.605674e-01  6.383635e-01
     vertex -2.485507e-17  2.408512e-01  6.168515e-01
     vertex -1.640625e-01  2.408512e-01  6.168515e-01
   endloop
 endfacet
 facet normal  0.000000e+00 -2.588190e-01  9.659258e-01
   outer loop
     vertex -2.485507e-17  8.028372e-02  6.168515e-01
     vertex -1.640625e-01  1.605674e-01  6.383635e-01
     vertex -1.640625e-01  8.028372e-02  6.168515e-01
   endloop
 endfacet
 facet normal  0.000000e+00 -2.588190e-01  9.659258e-01
   outer loop
     vertex -2.485507e-17  8.028372e-02  6.168515e-01
     vertex -2.617229e-17  1.605674e-01  6.383635e-01
     vertex -1.640625e-01  1.605674e-01  6.383635e-01
   endloop
 endfacet
 facet normal  0.000000e+00 -7.071068e-01  7.071068e-01
   outer loop
     vertex -2.125633e-17  2.151196e-02  5.580798e-01
     vertex -1.640625e-01  8.028372e-02  6.168515e-01
     vertex -1.640625e-01  2.151196e-02  5.580798e-01
   endloop
 endfacet
 facet normal  0.000000e+00 -7.071068e-01  7.071068e-01
   outer loop
     vertex -2.125633e-17  2.151196e-02  5.580798e-01
     vertex -2.485507e-17  8.028372e-02  6.168515e-01
     vertex -1.640625e-01  8.028372e-02  6.168515e-01
   endloop
 endfacet
 facet normal  0.000000e+00 -9.659258e-01  2.588190e-01
   outer loop
     vertex -1.634037e-17  8.170185e-18  4.777961e-01
     vertex -1.640625e-01  2.151196e-02  5.580798e-01
     vertex -1.640625e-01  8.170185e-18  4.777961e-01
   endloop
 endfacet
 facet normal  0.000000e+00 -9.659258e-01  2.588190e-01
   outer loop
     vertex -1.634037e-17  8.170185e-18  4.777961e-01
     vertex -2.125633e-17  2.151196e-02  5.580798e-01
     vertex -1.640625e-01  2.151196e-02  5.580798e-01
   endloop
 endfacet
 facet normal  9.659258e-01 -2.588190e-01  0.000000e+00
   outer loop
     vertex -2.145687e-02 -2.441406e-01  1.093750e-01
     vertex  0.000000e+00 -1.640625e-01  1.093750e-01
     vertex  0.000000e+00 -1.640625e-01  2.187500e-01
   endloop
 endfacet
 facet normal  9.659258e-01 -2.588190e-01  0.000000e+00
   outer loop
     vertex -2.145687e-02 -2.441406e-01  1.093750e-01
     vertex  0.000000e+00 -1.640625e-01  2.187500e-01
     vertex -2.145687e-02 -2.441406e-01  2.187500e-01
   endloop
 endfacet
 facet normal  7.071068e-01 -7.071068e-01  0.000000e+00
   outer loop
     vertex -8.007813e-02 -3.027619e-01  1.093750e-01
     vertex -2.145687e-02 -2.441406e-01  2.187500e-01
     vertex -8.007813e-02 -3.027619e-01  2.187500e-01
   endloop
 endfacet
 facet normal  7.071068e-01 -7.071068e-01  0.000000e+00
   outer loop
     vertex -8.007813e-02 -3.027619e-01  1.093750e-01
     vertex -2.145687e-02 -2.441406e-01  1.093750e-01
     vertex -2.145687e-02 -2.441406e-01  2.187500e-01
   endloop
 endfacet
 facet normal  2.588190e-01 -9.659258e-01  0.000000e+00
   outer loop
     vertex -1.601562e-01 -3.242188e-01  1.093750e-01
     vertex -8.007813e-02 -3.027619e-01  2.187500e-01
     vertex -1.601562e-01 -3.242188e-01  2.187500e-01
   endloop
 endfacet
 facet normal  2.588190e-01 -9.659258e-01  0.000000e+00
   outer loop
     vertex -1.601562e-01 -3.242188e-01  1.093750e-01
     vertex -8.007813e-02 -3.027619e-01  1.093750e-01
     vertex -8.007813e-02 -3.027619e-01  2.187500e-01
   endloop
 endfacet
 facet normal -2.588190e-01 -9.659258e-01  0.000000e+00
   outer loop
     vertex -2.402344e-01 -3.027619e-01  1.093750e-01
     vertex -1.601562e-01 -3.242188e-01  2.187500e-01
     vertex -2.402344e-01 -3.027619e-01  2.187500e-01
   endloop
 endfacet
 facet normal -2.588190e-01 -9.659258e-01  0.000000e+00
   outer loop
     vertex -2.402344e-01 -3.027619e-01  1.093750e-01
     vertex -1.601562e-01 -3.242188e-01  1.093750e-01
     vertex -1.601562e-01 -3.242188e-01  2.187500e-01
   endloop
 endfacet
 facet normal -7.071068e-01 -7.071068e-01  0.000000e+00
   outer loop
     vertex -2.988556e-01 -2.441406e-01  1.093750e-01
     vertex -2.402344e-01 -3.027619e-01  2.187500e-01
     vertex -2.988556e-01 -2.441406e-01  2.187500e-01
   endloop
 endfacet
 facet normal -7.071068e-01 -7.071068e-01  0.000000e+00
   outer loop
     vertex -2.988556e-01 -2.441406e-01  1.093750e-01
     vertex -2.402344e-01 -3.027619e-01  1.093750e-01
     vertex -2.402344e-01 -3.027619e-01  2.187500e-01
   endloop
 endfacet
 facet normal -9.659258e-01 -2.588190e-01  0.000000e+00
   outer loop
     vertex -3.203125e-01 -1.640625e-01  1.093750e-01
     vertex -2.988556e-01 -2.441406e-01  2.187500e-01
     vertex -3.203125e-01 -1.640625e-01  2.187500e-01
   endloop
 endfacet
 facet normal -9.659258e-01 -2.588190e-01  0.000000e+00
   outer loop
     vertex -3.203125e-01 -1.640625e-01  1.093750e-01
     vertex -2.988556e-01 -2.441406e-01  1.093750e-01
     vertex -2.988556e-01 -2.441406e-01  2.187500e-01
   endloop
 endfacet
 facet normal  1.000000e+00  0.000000e+00  0.000000e+00
   outer loop
     vertex  0.000000e+00 -2.220395e-03  1.093750e-01
     vertex  0.000000e+00 -1.640625e-01  2.187500e-01
     vertex  0.000000e+00 -1.640625e-01  1.093750e-01
   endloop
 endfacet
 facet normal  1.000000e+00  0.000000e+00 -0.000000e+00
   outer loop
     vertex  0.000000e+00 -2.220395e-03  1.093750e-01
     vertex  0.000000e+00 -2.220395e-03  2.187500e-01
     vertex  0.000000e+00 -1.640625e-01  2.187500e-01
   endloop
 endfacet
 facet normal  0.000000e+00  1.000000e+00  0.000000e+00
   outer loop
     vertex -3.203125e-01 -2.220395e-03  1.093750e-01
     vertex  0.000000e+00 -2.220395e-03  2.187500e-01
     vertex  0.000000e+00 -2.220395e-03  1.093750e-01
   endloop
 endfacet
 facet normal  0.000000e+00  1.000000e+00  0.000000e+00
   outer loop
     vertex -3.203125e-01 -2.220395e-03  1.093750e-01
     vertex -3.203125e-01 -2.220395e-03  2.187500e-01
     vertex  0.000000e+00 -2.220395e-03  2.187500e-01
   endloop
 endfacet
 facet normal -1.000000e+00  0.000000e+00  0.000000e+00
   outer loop
     vertex -3.203125e-01 -1.640625e-01  1.093750e-01
     vertex -3.203125e-01 -2.220395e-03  2.187500e-01
     vertex -3.203125e-01 -2.220395e-03  1.093750e-01
   endloop
 endfacet
 facet normal -1.000000e+00  0.000000e+00  0.000000e+00
   outer loop
     vertex -3.203125e-01 -1.640625e-01  1.093750e-01
     vertex -3.203125e-01 -1.640625e-01  2.187500e-01
     vertex -3.203125e-01 -2.220395e-03  2.187500e-01
   endloop
 endfacet
 facet normal -0.000000e+00  0.000000e+00 -1.000000e+00
   outer loop
     vertex  0.000000e+00 -1.640625e-01  1.093750e-01
     vertex -2.988556e-01 -2.441406e-01  1.093750e-01
     vertex -3.203125e-01 -1.640625e-01  1.093750e-01
   endloop
 endfacet
 facet normal  0.000000e+00  0.000000e+00 -1.000000e+00
   outer loop
     vertex  0.000000e+00 -1.640625e-01  1.093750e-01
     vertex -2.402344e-01 -3.027619e-01  1.093750e-01
     vertex -2.988556e-01 -2.441406e-01  1.093750e-01
   endloop
 endfacet
 facet normal  0.000000e+00  0.000000e+00 -1.000000e+00
   outer loop
     vertex  0.000000e+00 -1.640625e-01  1.093750e-01
     vertex -1.601562e-01 -3.242188e-01  1.093750e-01
     vertex -2.402344e-01 -3.027619e-01  1.093750e-01
   endloop
 endfacet
 facet normal  0.000000e+00  0.000000e+00 -1.000000e+00
   outer loop
     vertex  0.000000e+00 -1.640625e-01  1.093750e-01
     vertex -8.007813e-02 -3.027619e-01  1.093750e-01
     vertex -1.601562e-01 -3.242188e-01  1.093750e-01
   endloop
 endfacet
 facet normal  0.000000e+00  0.000000e+00 -1.000000e+00
   outer loop
     vertex  0.000000e+00 -1.640625e-01  1.093750e-01
     vertex -2.145687e-02 -2.441406e-01  1.093750e-01
     vertex -8.007813e-02 -3.027619e-01  1.093750e-01
   endloop
 endfacet
 facet normal -0.000000e+00  0.000000e+00 -1.000000e+00
   outer loop
     vertex  0.000000e+00 -2.220395e-03  1.093750e-01
     vertex -3.203125e-01 -1.640625e-01  1.093750e-01
     vertex -3.203125e-01 -2.220395e-03  1.093750e-01
   endloop
 endfacet
 facet normal  0.000000e+00 -0.000000e+00 -1.000000e+00
   outer loop
     vertex  0.000000e+00 -2.220395e-03  1.093750e-01
     vertex  0.000000e+00 -1.640625e-01  1.093750e-01
     vertex -3.203125e-01 -1.640625e-01  1.093750e-01
   endloop
 endfacet
 facet normal  0.000000e+00  0.000000e+00  1.000000e+00
   outer loop
     vertex  0.000000e+00 -1.640625e-01  2.187500e-01
     vertex -3.203125e-01 -1.640625e-01  2.187500e-01
     vertex -2.988556e-01 -2.441406e-01  2.187500e-01
   endloop
 endfacet
 facet normal  0.000000e+00  0.000000e+00  1.000000e+00
   outer loop
     vertex  0.000000e+00 -1.640625e-01  2.187500e-01
     vertex -2.988556e-01 -2.441406e-01  2.187500e-01
     vertex -2.402344e-01 -3.027619e-01  2.187500e-01
   endloop
 endfacet
 facet normal  0.000000e+00  0.000000e+00  1.000000e+00
   outer loop
     vertex  0.000000e+00 -1.640625e-01  2.187500e-01
     vertex -2.402344e-01 -3.027619e-01  2.187500e-01
     vertex -1.601562e-01 -3.242188e-01  2.187500e-01
   endloop
 endfacet
 facet normal  0.000000e+00  0.000000e+00  1.000000e+00
   outer loop
     vertex  0.000000e+00 -1.640625e-01  2.187500e-01
     vertex -1.601562e-01 -3.242188e-01  2.187500e-01
     vertex -8.007813e-02 -3.027619e-01  2.187500e-01
   endloop
 endfacet
 facet normal  0.000000e+00  0.000000e+00  1.000000e+00
   outer loop
     vertex  0.000000e+00 -1.640625e-01  2.187500e-01
     vertex -8.007813e-02 -3.027619e-01  2.187500e-01
     vertex -2.145687e-02 -2.441406e-01  2.187500e-01
   endloop
 endfacet
 facet normal  0.000000e+00  0.000000e+00  1.000000e+00
   outer loop
     vertex  0.000000e+00 -2.220395e-03  2.187500e-01
     vertex -3.203125e-01 -2.220395e-03  2.187500e-01
     vertex -3.203125e-01 -1.640625e-01  2.187500e-01
   endloop
 endfacet
 facet normal  0.000000e+00  0.000000e+00  1.000000e+00
   outer loop
     vertex  0.000000e+00 -2.220395e-03  2.187500e-01
     vertex -3.203125e-01 -1.640625e-01  2.187500e-01
     vertex  0.000000e+00 -1.640625e-01  2.187500e-01
   endloop
 endfacet
endsolid
