solid 
 facet normal -1.119645e-01  0.000000e+00 -9.937122e-01
   outer loop
     vertex  1.141884e-01  6.204210e-18  5.027591e-01
     vertex  1.435133e-17 -2.343750e-01  5.156250e-01
     vertex  0.000000e+00 -6.162976e-33  5.156250e-01
   endloop
 endfacet
 facet normal -1.119645e-01 -6.629629e-18 -9.937122e-01
   outer loop
     vertex  1.141884e-01  6.204210e-18  5.027591e-01
     vertex  1.141884e-01 -2.343750e-01  5.027591e-01
     vertex  1.435133e-17 -2.343750e-01  5.156250e-01
   endloop
 endfacet
 facet normal -3.302791e-01 -0.000000e+00 -9.438833e-01
   outer loop
     vertex  2.226509e-01  1.052169e-17  4.648064e-01
     vertex  2.226509e-01 -2.343750e-01  4.648064e-01
     vertex  1.141884e-01 -2.343750e-01  5.027591e-01
   endloop
 endfacet
 facet normal -3.302791e-01  0.000000e+00 -9.438833e-01
   outer loop
     vertex  2.226509e-01  1.052169e-17  4.648064e-01
     vertex  1.141884e-01 -2.343750e-01  5.027591e-01
     vertex  1.141884e-01  6.204210e-18  5.027591e-01
   endloop
 endfacet
 facet normal -5.320321e-01 -0.000000e+00 -8.467242e-01
   outer loop
     vertex  3.199487e-01  1.273595e-17  4.036701e-01
     vertex  3.199487e-01 -2.343750e-01  4.036701e-01
     vertex  2.226509e-01 -2.343750e-01  4.648064e-01
   endloop
 endfacet
 facet normal -5.320321e-01  0.000000e+00 -8.467242e-01
   outer loop
     vertex  3.199487e-01  1.273595e-17  4.036701e-01
     vertex  2.226509e-01 -2.343750e-01  4.648064e-01
     vertex  2.226509e-01  1.052169e-17  4.648064e-01
   endloop
 endfacet
 facet normal -7.071068e-01 -0.000000e+00 -7.071068e-01
   outer loop
     vertex  4.012030e-01  1.273595e-17  3.224158e-01
     vertex  4.012030e-01 -2.343750e-01  3.224158e-01
     vertex  3.199487e-01 -2.343750e-01  4.036701e-01
   endloop
 endfacet
 facet normal -7.071068e-01  0.000000e+00 -7.071068e-01
   outer loop
     vertex  4.012030e-01  1.273595e-17  3.224158e-01
     vertex  3.199487e-01 -2.343750e-01  4.036701e-01
     vertex  3.199487e-01  1.273595e-17  4.036701e-01
   endloop
 endfacet
 facet normal -8.467242e-01 -0.000000e+00 -5.320321e-01
   outer loop
     vertex  4.623393e-01  1.052169e-17  2.251180e-01
     vertex  4.623393e-01 -2.343750e-01  2.251180e-01
     vertex  4.012030e-01 -2.343750e-01  3.224158e-01
   endloop
 endfacet
 facet normal -8.467242e-01  0.000000e+00 -5.320321e-01
   outer loop
     vertex  4.623393e-01  1.052169e-17  2.251180e-01
     vertex  4.012030e-01 -2.343750e-01  3.224158e-01
     vertex  4.012030e-01  1.273595e-17  3.224158e-01
   endloop
 endfacet
 facet normal -9.438833e-01 -0.000000e+00 -3.302791e-01
   outer loop
     vertex  5.002920e-01  6.204210e-18  1.166555e-01
     vertex  5.002920e-01 -2.343750e-01  1.166555e-01
     vertex  4.623393e-01 -2.343750e-01  2.251180e-01
   endloop
 endfacet
 facet normal -9.438833e-01  0.000000e+00 -3.302791e-01
   outer loop
     vertex  5.002920e-01  6.204210e-18  1.166555e-01
     vertex  4.623393e-01 -2.343750e-01  2.251180e-01
     vertex  4.623393e-01  1.052169e-17  2.251180e-01
   endloop
 endfacet
 facet normal -9.937122e-01 -0.000000e+00 -1.119645e-01
   outer loop
     vertex  5.131579e-01 -3.081488e-33  2.467105e-03
     vertex  5.131579e-01 -2.343750e-01  2.467105e-03
     vertex  5.002920e-01 -2.343750e-01  1.166555e-01
   endloop
 endfacet
 facet normal -9.937122e-01  0.000000e+00 -1.119645e-01
   outer loop
     vertex  5.131579e-01 -3.081488e-33  2.467105e-03
     vertex  5.002920e-01 -2.343750e-01  1.166555e-01
     vertex  5.002920e-01  6.204210e-18  1.166555e-01
   endloop
 endfacet
 facet normal  1.000000e+00  6.123234e-17 -1.290385e-14
   outer loop
     vertex  0.000000e+00 -6.162976e-33  5.156250e-01
     vertex -7.933287e-18 -2.343750e-01  5.138980e-01
     vertex -2.228462e-17  8.169683e-17  5.138980e-01
   endloop
 endfacet
 facet normal  1.000000e+00  6.123234e-17 -1.290385e-14
   outer loop
     vertex  0.000000e+00 -6.162976e-33  5.156250e-01
     vertex  1.435133e-17 -2.343750e-01  5.156250e-01
     vertex -7.933287e-18 -2.343750e-01  5.138980e-01
   endloop
 endfacet
 facet normal -1.000000e+00  0.000000e+00  0.000000e+00
   outer loop
     vertex  5.131579e-01 -4.350719e-18 -6.858553e-02
     vertex  5.131579e-01 -2.343750e-01  2.467105e-03
     vertex  5.131579e-01 -3.081488e-33  2.467105e-03
   endloop
 endfacet
 facet normal -1.000000e+00  0.000000e+00  0.000000e+00
   outer loop
     vertex  5.131579e-01 -4.350719e-18 -6.858553e-02
     vertex  5.131579e-01 -2.343750e-01 -6.858553e-02
     vertex  5.131579e-01 -2.343750e-01  2.467105e-03
   endloop
 endfacet
 facet normal -6.123234e-17  1.000000e+00 -6.123234e-17
   outer loop
     vertex  5.921053e-01  4.834132e-18  2.467105e-03
     vertex  5.131579e-01 -4.350719e-18 -6.858553e-02
     vertex  5.131579e-01 -3.081488e-33  2.467105e-03
   endloop
 endfacet
 facet normal -6.123234e-17  1.000000e+00 -6.123234e-17
   outer loop
     vertex  5.002920e-01  6.204210e-18  1.166555e-01
     vertex  5.921053e-01  4.834132e-18  2.467105e-03
     vertex  5.131579e-01 -3.081488e-33  2.467105e-03
   endloop
 endfacet
 facet normal -1.941837e-16  1.000000e+00 -1.241208e-15
   outer loop
     vertex  1.141884e-01  6.204210e-18  5.027591e-01
     vertex  0.000000e+00 -6.162976e-33  5.156250e-01
     vertex  0.000000e+00  8.604755e-17  5.849507e-01
   endloop
 endfacet
 facet normal -6.123234e-17  1.000000e+00 -6.123234e-17
   outer loop
     vertex  7.500000e-01  1.015168e-17 -6.858553e-02
     vertex  5.131579e-01 -4.350719e-18 -6.858553e-02
     vertex  5.921053e-01  4.834132e-18  2.467105e-03
   endloop
 endfacet
 facet normal -6.123234e-17  1.000000e+00 -6.123234e-17
   outer loop
     vertex  5.772599e-01  1.199284e-17  1.342229e-01
     vertex  5.921053e-01  4.834132e-18  2.467105e-03
     vertex  5.002920e-01  6.204210e-18  1.166555e-01
   endloop
 endfacet
 facet normal  8.966989e-16  1.000000e+00  8.440643e-15
   outer loop
     vertex  1.317558e-01  1.199284e-17  5.797271e-01
     vertex  0.000000e+00  8.604755e-17  5.849507e-01
     vertex -1.451462e-17  4.834132e-18  5.945724e-01
   endloop
 endfacet
 facet normal  5.540649e-16  1.000000e+00 -2.016699e-16
   outer loop
     vertex  1.317558e-01  1.199284e-17  5.797271e-01
     vertex  1.141884e-01  6.204210e-18  5.027591e-01
     vertex  0.000000e+00  8.604755e-17  5.849507e-01
   endloop
 endfacet
 facet normal -6.123234e-17  1.000000e+00 -6.123234e-17
   outer loop
     vertex  7.500000e-01  1.450240e-17  2.467105e-03
     vertex  7.500000e-01  1.015168e-17 -6.858553e-02
     vertex  5.921053e-01  4.834132e-18  2.467105e-03
   endloop
 endfacet
 facet normal -6.123234e-17  1.000000e+00 -6.123234e-17
   outer loop
     vertex  5.334684e-01  1.697455e-17  2.593720e-01
     vertex  5.002920e-01  6.204210e-18  1.166555e-01
     vertex  4.623393e-01  1.052169e-17  2.251180e-01
   endloop
 endfacet
 facet normal -6.123234e-17  1.000000e+00 -6.123234e-17
   outer loop
     vertex  5.334684e-01  1.697455e-17  2.593720e-01
     vertex  5.772599e-01  1.199284e-17  1.342229e-01
     vertex  5.002920e-01  6.204210e-18  1.166555e-01
   endloop
 endfacet
 facet normal -6.123234e-17  1.000000e+00 -6.123234e-17
   outer loop
     vertex  2.569048e-01  1.697455e-17  5.359355e-01
     vertex  2.226509e-01  1.052169e-17  4.648064e-01
     vertex  1.141884e-01  6.204210e-18  5.027591e-01
   endloop
 endfacet
 facet normal -6.123234e-17  1.000000e+00 -6.123234e-17
   outer loop
     vertex  2.569048e-01  1.697455e-17  5.359355e-01
     vertex  1.141884e-01  6.204210e-18  5.027591e-01
     vertex  1.317558e-01  1.199284e-17  5.797271e-01
   endloop
 endfacet
 facet normal -6.123234e-17  1.000000e+00 -6.123234e-17
   outer loop
     vertex  4.629265e-01  1.952946e-17  3.716387e-01
     vertex  4.623393e-01  1.052169e-17  2.251180e-01
     vertex  4.012030e-01  1.273595e-17  3.224158e-01
   endloop
 endfacet
 facet normal -6.123234e-17  1.000000e+00 -6.123234e-17
   outer loop
     vertex  4.629265e-01  1.952946e-17  3.716387e-01
     vertex  5.334684e-01  1.697455e-17  2.593720e-01
     vertex  4.623393e-01  1.052169e-17  2.251180e-01
   endloop
 endfacet
 facet normal -6.123234e-17  1.000000e+00 -6.123234e-17
   outer loop
     vertex  3.691716e-01  1.952946e-17  4.653936e-01
     vertex  3.199487e-01  1.273595e-17  4.036701e-01
     vertex  2.226509e-01  1.052169e-17  4.648064e-01
   endloop
 endfacet
 facet normal -6.123234e-17  1.000000e+00 -6.123234e-17
   outer loop
     vertex  3.691716e-01  1.952946e-17  4.653936e-01
     vertex  4.012030e-01  1.273595e-17  3.224158e-01
     vertex  3.199487e-01  1.273595e-17  4.036701e-01
   endloop
 endfacet
 facet normal -6.123234e-17  1.000000e+00 -6.123234e-17
   outer loop
     vertex  3.691716e-01  1.952946e-17  4.653936e-01
     vertex  4.629265e-01  1.952946e-17  3.716387e-01
     vertex  4.012030e-01  1.273595e-17  3.224158e-01
   endloop
 endfacet
 facet normal -6.123234e-17  1.000000e+00 -6.123234e-17
   outer loop
     vertex  3.691716e-01  1.952946e-17  4.653936e-01
     vertex  2.226509e-01  1.052169e-17  4.648064e-01
     vertex  2.569048e-01  1.697455e-17  5.359355e-01
   endloop
 endfacet
 facet normal -0.000000e+00 -1.000000e+00  0.000000e+00
   outer loop
     vertex  5.921053e-01 -2.343750e-01  2.467105e-03
     vertex  5.131579e-01 -2.343750e-01  2.467105e-03
     vertex  5.131579e-01 -2.343750e-01 -6.858553e-02
   endloop
 endfacet
 facet normal  0.000000e+00 -1.000000e+00  2.430683e-16
   outer loop
     vertex  5.002920e-01 -2.343750e-01  1.166555e-01
     vertex  5.131579e-01 -2.343750e-01  2.467105e-03
     vertex  5.921053e-01 -2.343750e-01  2.467105e-03
   endloop
 endfacet
 facet normal  2.430683e-16 -1.000000e+00  0.000000e+00
   outer loop
     vertex  1.141884e-01 -2.343750e-01  5.027591e-01
     vertex  1.435133e-17 -2.343750e-01  5.849507e-01
     vertex  1.435133e-17 -2.343750e-01  5.156250e-01
   endloop
 endfacet
 facet normal  0.000000e+00 -1.000000e+00  0.000000e+00
   outer loop
     vertex  7.500000e-01 -2.343750e-01 -6.858553e-02
     vertex  5.921053e-01 -2.343750e-01  2.467105e-03
     vertex  5.131579e-01 -2.343750e-01 -6.858553e-02
   endloop
 endfacet
 facet normal  2.578185e-16 -1.000000e+00  4.503676e-16
   outer loop
     vertex  5.772599e-01 -2.343750e-01  1.342229e-01
     vertex  5.002920e-01 -2.343750e-01  1.166555e-01
     vertex  5.921053e-01 -2.343750e-01  2.467105e-03
   endloop
 endfacet
 facet normal  4.213184e-16 -1.000000e+00  1.215370e-30
   outer loop
     vertex  1.317558e-01 -2.343750e-01  5.797271e-01
     vertex -1.632854e-19 -2.343750e-01  5.945724e-01
     vertex  1.435133e-17 -2.343750e-01  5.849507e-01
   endloop
 endfacet
 facet normal  4.317088e-16 -1.000000e+00  2.620772e-16
   outer loop
     vertex  1.317558e-01 -2.343750e-01  5.797271e-01
     vertex  1.435133e-17 -2.343750e-01  5.849507e-01
     vertex  1.141884e-01 -2.343750e-01  5.027591e-01
   endloop
 endfacet
 facet normal -0.000000e+00 -1.000000e+00 -0.000000e+00
   outer loop
     vertex  7.500000e-01 -2.343750e-01  2.467105e-03
     vertex  5.921053e-01 -2.343750e-01  2.467105e-03
     vertex  7.500000e-01 -2.343750e-01 -6.858553e-02
   endloop
 endfacet
 facet normal -1.054634e-16 -1.000000e+00  2.189970e-16
   outer loop
     vertex  5.334684e-01 -2.343750e-01  2.593720e-01
     vertex  4.623393e-01 -2.343750e-01  2.251180e-01
     vertex  5.002920e-01 -2.343750e-01  1.166555e-01
   endloop
 endfacet
 facet normal  3.339414e-16 -1.000000e+00  1.168512e-16
   outer loop
     vertex  5.334684e-01 -2.343750e-01  2.593720e-01
     vertex  5.002920e-01 -2.343750e-01  1.166555e-01
     vertex  5.772599e-01 -2.343750e-01  1.342229e-01
   endloop
 endfacet
 facet normal  2.189970e-16 -1.000000e+00 -1.054634e-16
   outer loop
     vertex  2.569048e-01 -2.343750e-01  5.359355e-01
     vertex  1.141884e-01 -2.343750e-01  5.027591e-01
     vertex  2.226509e-01 -2.343750e-01  4.648064e-01
   endloop
 endfacet
 facet normal  1.168512e-16 -1.000000e+00  3.339414e-16
   outer loop
     vertex  2.569048e-01 -2.343750e-01  5.359355e-01
     vertex  1.317558e-01 -2.343750e-01  5.797271e-01
     vertex  1.141884e-01 -2.343750e-01  5.027591e-01
   endloop
 endfacet
 facet normal  0.000000e+00 -1.000000e+00  0.000000e+00
   outer loop
     vertex  4.629265e-01 -2.343750e-01  3.716387e-01
     vertex  4.012030e-01 -2.343750e-01  3.224158e-01
     vertex  4.623393e-01 -2.343750e-01  2.251180e-01
   endloop
 endfacet
 facet normal  0.000000e+00 -1.000000e+00 -0.000000e+00
   outer loop
     vertex  4.629265e-01 -2.343750e-01  3.716387e-01
     vertex  4.623393e-01 -2.343750e-01  2.251180e-01
     vertex  5.334684e-01 -2.343750e-01  2.593720e-01
   endloop
 endfacet
 facet normal  0.000000e+00 -1.000000e+00  0.000000e+00
   outer loop
     vertex  3.691716e-01 -2.343750e-01  4.653936e-01
     vertex  2.226509e-01 -2.343750e-01  4.648064e-01
     vertex  3.199487e-01 -2.343750e-01  4.036701e-01
   endloop
 endfacet
 facet normal  0.000000e+00 -1.000000e+00 -0.000000e+00
   outer loop
     vertex  3.691716e-01 -2.343750e-01  4.653936e-01
     vertex  3.199487e-01 -2.343750e-01  4.036701e-01
     vertex  4.012030e-01 -2.343750e-01  3.224158e-01
   endloop
 endfacet
 facet normal  0.000000e+00 -1.000000e+00  0.000000e+00
   outer loop
     vertex  3.691716e-01 -2.343750e-01  4.653936e-01
     vertex  4.012030e-01 -2.343750e-01  3.224158e-01
     vertex  4.629265e-01 -2.343750e-01  3.716387e-01
   endloop
 endfacet
 facet normal -0.000000e+00 -1.000000e+00  0.000000e+00
   outer loop
     vertex  3.691716e-01 -2.343750e-01  4.653936e-01
     vertex  2.569048e-01 -2.343750e-01  5.359355e-01
     vertex  2.226509e-01 -2.343750e-01  4.648064e-01
   endloop
 endfacet
 facet normal -6.123234e-17  1.000000e+00 -6.123234e-17
   outer loop
     vertex -5.921053e-01  1.401898e-17  7.401316e-04
     vertex -7.500000e-01  0.000000e+00 -7.031250e-02
     vertex -7.500000e-01  4.350719e-18  7.401316e-04
   endloop
 endfacet
 facet normal -6.123234e-17  1.000000e+00 -6.123234e-17
   outer loop
     vertex -5.131579e-01  1.450240e-17 -7.031250e-02
     vertex -7.500000e-01  0.000000e+00 -7.031250e-02
     vertex -5.921053e-01  1.401898e-17  7.401316e-04
   endloop
 endfacet
 facet normal -6.123234e-17  1.000000e+00 -6.123234e-17
   outer loop
     vertex -5.131579e-01  1.885312e-17  7.401316e-04
     vertex -5.131579e-01  1.450240e-17 -7.031250e-02
     vertex -5.921053e-01  1.401898e-17  7.401316e-04
   endloop
 endfacet
 facet normal -6.123234e-17  1.000000e+00 -6.123234e-17
   outer loop
     vertex -5.764805e-01  2.298359e-17  1.315186e-01
     vertex -5.131579e-01  1.885312e-17  7.401316e-04
     vertex -5.921053e-01  1.401898e-17  7.401316e-04
   endloop
 endfacet
 facet normal -6.123234e-17  1.000000e+00 -6.123234e-17
   outer loop
     vertex -5.002920e-01  2.663295e-17  1.149285e-01
     vertex -5.131579e-01  1.885312e-17  7.401316e-04
     vertex -5.764805e-01  2.298359e-17  1.315186e-01
   endloop
 endfacet
 facet normal -6.123234e-17  1.000000e+00 -6.123234e-17
   outer loop
     vertex -5.321466e-01  3.329247e-17  2.555414e-01
     vertex -5.002920e-01  2.663295e-17  1.149285e-01
     vertex -5.764805e-01  2.298359e-17  1.315186e-01
   endloop
 endfacet
 facet normal -6.123234e-17  1.000000e+00 -6.123234e-17
   outer loop
     vertex -4.623393e-01  3.559829e-17  2.233910e-01
     vertex -5.002920e-01  2.663295e-17  1.149285e-01
     vertex -5.321466e-01  3.329247e-17  2.555414e-01
   endloop
 endfacet
 facet normal -6.123234e-17  1.000000e+00 -6.123234e-17
   outer loop
     vertex -4.613266e-01  4.442867e-17  3.665894e-01
     vertex -4.623393e-01  3.559829e-17  2.233910e-01
     vertex -5.321466e-01  3.329247e-17  2.555414e-01
   endloop
 endfacet
 facet normal -6.123234e-17  1.000000e+00 -6.123234e-17
   outer loop
     vertex -4.012030e-01  4.529958e-17  3.206888e-01
     vertex -4.623393e-01  3.559829e-17  2.233910e-01
     vertex -4.613266e-01  4.442867e-17  3.665894e-01
   endloop
 endfacet
 facet normal -6.123234e-17  1.000000e+00 -6.123234e-17
   outer loop
     vertex -3.675716e-01  5.583380e-17  4.590943e-01
     vertex -3.199487e-01  5.525036e-17  4.019431e-01
     vertex -4.012030e-01  4.529958e-17  3.206888e-01
   endloop
 endfacet
 facet normal -6.123234e-17  1.000000e+00 -6.123234e-17
   outer loop
     vertex -3.675716e-01  5.583380e-17  4.590943e-01
     vertex -4.012030e-01  4.529958e-17  3.206888e-01
     vertex -4.613266e-01  4.442867e-17  3.665894e-01
   endloop
 endfacet
 facet normal -6.123234e-17  1.000000e+00 -6.123234e-17
   outer loop
     vertex -2.555831e-01  6.693594e-17  5.284174e-01
     vertex -2.226509e-01  6.495166e-17  4.630794e-01
     vertex -3.199487e-01  5.525036e-17  4.019431e-01
   endloop
 endfacet
 facet normal -6.123234e-17  1.000000e+00 -6.123234e-17
   outer loop
     vertex -2.555831e-01  6.693594e-17  5.284174e-01
     vertex -3.199487e-01  5.525036e-17  4.019431e-01
     vertex -3.675716e-01  5.583380e-17  4.590943e-01
   endloop
 endfacet
 facet normal -6.123234e-17  1.000000e+00 -6.123234e-17
   outer loop
     vertex -1.309764e-01  7.717839e-17  5.710827e-01
     vertex -1.141884e-01  7.391700e-17  5.010321e-01
     vertex -2.226509e-01  6.495166e-17  4.630794e-01
   endloop
 endfacet
 facet normal -6.123234e-17  1.000000e+00 -6.123234e-17
   outer loop
     vertex -1.309764e-01  7.717839e-17  5.710827e-01
     vertex -2.226509e-01  6.495166e-17  4.630794e-01
     vertex -2.555831e-01  6.693594e-17  5.284174e-01
   endloop
 endfacet
 facet normal -5.398278e-15  1.000000e+00  4.730636e-14
   outer loop
     vertex  0.000000e+00 -6.162976e-33  5.156250e-01
     vertex -2.228462e-17  8.169683e-17  5.138980e-01
     vertex -1.141884e-01  7.391700e-17  5.010321e-01
   endloop
 endfacet
 facet normal -6.123234e-17  1.000000e+00 -6.123234e-17
   outer loop
     vertex  0.000000e+00  8.604755e-17  5.849507e-01
     vertex -1.141884e-01  7.391700e-17  5.010321e-01
     vertex -1.309764e-01  7.717839e-17  5.710827e-01
   endloop
 endfacet
 facet normal  8.059475e-16  1.000000e+00 -1.241208e-15
   outer loop
     vertex  0.000000e+00  8.604755e-17  5.849507e-01
     vertex  0.000000e+00 -6.162976e-33  5.156250e-01
     vertex -1.141884e-01  7.391700e-17  5.010321e-01
   endloop
 endfacet
 facet normal -0.000000e+00 -1.000000e+00  0.000000e+00
   outer loop
     vertex -5.921053e-01 -2.343750e-01  7.401316e-04
     vertex -7.500000e-01 -2.343750e-01  7.401316e-04
     vertex -7.500000e-01 -2.343750e-01 -7.031250e-02
   endloop
 endfacet
 facet normal  0.000000e+00 -1.000000e+00  0.000000e+00
   outer loop
     vertex -5.131579e-01 -2.343750e-01 -7.031250e-02
     vertex -5.921053e-01 -2.343750e-01  7.401316e-04
     vertex -7.500000e-01 -2.343750e-01 -7.031250e-02
   endloop
 endfacet
 facet normal -0.000000e+00 -1.000000e+00 -0.000000e+00
   outer loop
     vertex -5.131579e-01 -2.343750e-01  7.401316e-04
     vertex -5.921053e-01 -2.343750e-01  7.401316e-04
     vertex -5.131579e-01 -2.343750e-01 -7.031250e-02
   endloop
 endfacet
 facet normal  0.000000e+00 -1.000000e+00 -2.122335e-16
   outer loop
     vertex -5.764805e-01 -2.343750e-01  1.315186e-01
     vertex -5.921053e-01 -2.343750e-01  7.401316e-04
     vertex -5.131579e-01 -2.343750e-01  7.401316e-04
   endloop
 endfacet
 facet normal -5.166076e-17 -1.000000e+00 -2.372475e-16
   outer loop
     vertex -5.002920e-01 -2.343750e-01  1.149285e-01
     vertex -5.764805e-01 -2.343750e-01  1.315186e-01
     vertex -5.131579e-01 -2.343750e-01  7.401316e-04
   endloop
 endfacet
 facet normal  0.000000e+00 -1.000000e+00 -0.000000e+00
   outer loop
     vertex -5.321466e-01 -2.343750e-01  2.555414e-01
     vertex -5.764805e-01 -2.343750e-01  1.315186e-01
     vertex -5.002920e-01 -2.343750e-01  1.149285e-01
   endloop
 endfacet
 facet normal -0.000000e+00 -1.000000e+00  0.000000e+00
   outer loop
     vertex -4.623393e-01 -2.343750e-01  2.233910e-01
     vertex -5.321466e-01 -2.343750e-01  2.555414e-01
     vertex -5.002920e-01 -2.343750e-01  1.149285e-01
   endloop
 endfacet
 facet normal  8.897843e-17 -1.000000e+00  1.931968e-16
   outer loop
     vertex -4.613266e-01 -2.343750e-01  3.665894e-01
     vertex -5.321466e-01 -2.343750e-01  2.555414e-01
     vertex -4.623393e-01 -2.343750e-01  2.233910e-01
   endloop
 endfacet
 facet normal  1.471792e-16 -1.000000e+00  1.927852e-16
   outer loop
     vertex -4.012030e-01 -2.343750e-01  3.206888e-01
     vertex -4.613266e-01 -2.343750e-01  3.665894e-01
     vertex -4.623393e-01 -2.343750e-01  2.233910e-01
   endloop
 endfacet
 facet normal  0.000000e+00 -1.000000e+00 -0.000000e+00
   outer loop
     vertex -3.675716e-01 -2.343750e-01  4.590943e-01
     vertex -4.012030e-01 -2.343750e-01  3.206888e-01
     vertex -3.199487e-01 -2.343750e-01  4.019431e-01
   endloop
 endfacet
 facet normal  0.000000e+00 -1.000000e+00  0.000000e+00
   outer loop
     vertex -3.675716e-01 -2.343750e-01  4.590943e-01
     vertex -4.613266e-01 -2.343750e-01  3.665894e-01
     vertex -4.012030e-01 -2.343750e-01  3.206888e-01
   endloop
 endfacet
 facet normal  2.166504e-16 -1.000000e+00  1.091979e-16
   outer loop
     vertex -2.555831e-01 -2.343750e-01  5.284174e-01
     vertex -3.199487e-01 -2.343750e-01  4.019431e-01
     vertex -2.226509e-01 -2.343750e-01  4.630794e-01
   endloop
 endfacet
 facet normal  1.635045e-16 -1.000000e+00  1.362451e-16
   outer loop
     vertex -2.555831e-01 -2.343750e-01  5.284174e-01
     vertex -3.675716e-01 -2.343750e-01  4.590943e-01
     vertex -3.199487e-01 -2.343750e-01  4.019431e-01
   endloop
 endfacet
 facet normal  0.000000e+00 -1.000000e+00 -0.000000e+00
   outer loop
     vertex -1.309764e-01 -2.343750e-01  5.710827e-01
     vertex -2.226509e-01 -2.343750e-01  4.630794e-01
     vertex -1.141884e-01 -2.343750e-01  5.010321e-01
   endloop
 endfacet
 facet normal  0.000000e+00 -1.000000e+00  0.000000e+00
   outer loop
     vertex -1.309764e-01 -2.343750e-01  5.710827e-01
     vertex -2.555831e-01 -2.343750e-01  5.284174e-01
     vertex -2.226509e-01 -2.343750e-01  4.630794e-01
   endloop
 endfacet
 facet normal -2.430683e-16 -1.000000e+00  3.136518e-30
   outer loop
     vertex  1.435133e-17 -2.343750e-01  5.156250e-01
     vertex -1.141884e-01 -2.343750e-01  5.010321e-01
     vertex -7.933287e-18 -2.343750e-01  5.138980e-01
   endloop
 endfacet
 facet normal -2.066685e-16 -1.000000e+00 -4.952933e-17
   outer loop
     vertex  1.435133e-17 -2.343750e-01  5.849507e-01
     vertex -1.309764e-01 -2.343750e-01  5.710827e-01
     vertex -1.141884e-01 -2.343750e-01  5.010321e-01
   endloop
 endfacet
 facet normal -2.430683e-16 -1.000000e+00 -0.000000e+00
   outer loop
     vertex  1.435133e-17 -2.343750e-01  5.849507e-01
     vertex -1.141884e-01 -2.343750e-01  5.010321e-01
     vertex  1.435133e-17 -2.343750e-01  5.156250e-01
   endloop
 endfacet
 facet normal  9.937122e-01  0.000000e+00 -1.119645e-01
   outer loop
     vertex -5.002920e-01  2.663295e-17  1.149285e-01
     vertex -5.131579e-01 -2.343750e-01  7.401316e-04
     vertex -5.131579e-01  1.885312e-17  7.401316e-04
   endloop
 endfacet
 facet normal  9.937122e-01  0.000000e+00 -1.119645e-01
   outer loop
     vertex -5.002920e-01  2.663295e-17  1.149285e-01
     vertex -5.002920e-01 -2.343750e-01  1.149285e-01
     vertex -5.131579e-01 -2.343750e-01  7.401316e-04
   endloop
 endfacet
 facet normal  9.438833e-01  0.000000e+00 -3.302791e-01
   outer loop
     vertex -4.623393e-01  3.559829e-17  2.233910e-01
     vertex -4.623393e-01 -2.343750e-01  2.233910e-01
     vertex -5.002920e-01 -2.343750e-01  1.149285e-01
   endloop
 endfacet
 facet normal  9.438833e-01  0.000000e+00 -3.302791e-01
   outer loop
     vertex -4.623393e-01  3.559829e-17  2.233910e-01
     vertex -5.002920e-01 -2.343750e-01  1.149285e-01
     vertex -5.002920e-01  2.663295e-17  1.149285e-01
   endloop
 endfacet
 facet normal  8.467242e-01  0.000000e+00 -5.320321e-01
   outer loop
     vertex -4.012030e-01  4.529958e-17  3.206888e-01
     vertex -4.012030e-01 -2.343750e-01  3.206888e-01
     vertex -4.623393e-01 -2.343750e-01  2.233910e-01
   endloop
 endfacet
 facet normal  8.467242e-01  0.000000e+00 -5.320321e-01
   outer loop
     vertex -4.012030e-01  4.529958e-17  3.206888e-01
     vertex -4.623393e-01 -2.343750e-01  2.233910e-01
     vertex -4.623393e-01  3.559829e-17  2.233910e-01
   endloop
 endfacet
 facet normal  7.071068e-01  0.000000e+00 -7.071068e-01
   outer loop
     vertex -3.199487e-01  5.525036e-17  4.019431e-01
     vertex -3.199487e-01 -2.343750e-01  4.019431e-01
     vertex -4.012030e-01 -2.343750e-01  3.206888e-01
   endloop
 endfacet
 facet normal  7.071068e-01  0.000000e+00 -7.071068e-01
   outer loop
     vertex -3.199487e-01  5.525036e-17  4.019431e-01
     vertex -4.012030e-01 -2.343750e-01  3.206888e-01
     vertex -4.012030e-01  4.529958e-17  3.206888e-01
   endloop
 endfacet
 facet normal  5.320321e-01  6.300525e-17 -8.467242e-01
   outer loop
     vertex -2.226509e-01  6.495166e-17  4.630794e-01
     vertex -2.226509e-01 -2.343750e-01  4.630794e-01
     vertex -3.199487e-01 -2.343750e-01  4.019431e-01
   endloop
 endfacet
 facet normal  5.320321e-01  0.000000e+00 -8.467242e-01
   outer loop
     vertex -2.226509e-01  6.495166e-17  4.630794e-01
     vertex -3.199487e-01 -2.343750e-01  4.019431e-01
     vertex -3.199487e-01  5.525036e-17  4.019431e-01
   endloop
 endfacet
 facet normal  3.302791e-01  1.955645e-17 -9.438833e-01
   outer loop
     vertex -1.141884e-01  7.391700e-17  5.010321e-01
     vertex -1.141884e-01 -2.343750e-01  5.010321e-01
     vertex -2.226509e-01 -2.343750e-01  4.630794e-01
   endloop
 endfacet
 facet normal  3.302791e-01  3.220533e-17 -9.438833e-01
   outer loop
     vertex -1.141884e-01  7.391700e-17  5.010321e-01
     vertex -2.226509e-01 -2.343750e-01  4.630794e-01
     vertex -2.226509e-01  6.495166e-17  4.630794e-01
   endloop
 endfacet
 facet normal  1.119645e-01  6.855847e-18 -9.937122e-01
   outer loop
     vertex -2.228462e-17  8.169683e-17  5.138980e-01
     vertex -7.933287e-18 -2.343750e-01  5.138980e-01
     vertex -1.141884e-01 -2.343750e-01  5.010321e-01
   endloop
 endfacet
 facet normal  1.119645e-01  8.051332e-18 -9.937122e-01
   outer loop
     vertex -2.228462e-17  8.169683e-17  5.138980e-01
     vertex -1.141884e-01 -2.343750e-01  5.010321e-01
     vertex -1.141884e-01  7.391700e-17  5.010321e-01
   endloop
 endfacet
 facet normal  0.000000e+00 -0.000000e+00 -1.000000e+00
   outer loop
     vertex  6.259868e-01 -1.250000e-01 -6.858553e-02
     vertex  6.723684e-01 -1.713816e-01 -6.858553e-02
     vertex  5.131579e-01 -2.343750e-01 -6.858553e-02
   endloop
 endfacet
 facet normal  0.000000e+00  0.000000e+00 -1.000000e+00
   outer loop
     vertex  5.131579e-01 -4.350719e-18 -6.858553e-02
     vertex  6.259868e-01 -1.250000e-01 -6.858553e-02
     vertex  5.131579e-01 -2.343750e-01 -6.858553e-02
   endloop
 endfacet
 facet normal  0.000000e+00  0.000000e+00 -1.000000e+00
   outer loop
     vertex  7.500000e-01 -2.343750e-01 -6.858553e-02
     vertex  5.131579e-01 -2.343750e-01 -6.858553e-02
     vertex  6.723684e-01 -1.713816e-01 -6.858553e-02
   endloop
 endfacet
 facet normal  0.000000e+00 -0.000000e+00 -1.000000e+00
   outer loop
     vertex  7.187500e-01 -1.250000e-01 -6.858553e-02
     vertex  7.500000e-01 -2.343750e-01 -6.858553e-02
     vertex  6.723684e-01 -1.713816e-01 -6.858553e-02
   endloop
 endfacet
 facet normal -0.000000e+00  0.000000e+00 -1.000000e+00
   outer loop
     vertex  6.723684e-01 -7.861842e-02 -6.858553e-02
     vertex  6.259868e-01 -1.250000e-01 -6.858553e-02
     vertex  5.131579e-01 -4.350719e-18 -6.858553e-02
   endloop
 endfacet
 facet normal  0.000000e+00  0.000000e+00 -1.000000e+00
   outer loop
     vertex  7.500000e-01  1.015168e-17 -6.858553e-02
     vertex  7.187500e-01 -1.250000e-01 -6.858553e-02
     vertex  6.723684e-01 -7.861842e-02 -6.858553e-02
   endloop
 endfacet
 facet normal  0.000000e+00 -0.000000e+00 -1.000000e+00
   outer loop
     vertex  7.500000e-01  1.015168e-17 -6.858553e-02
     vertex  7.500000e-01 -2.343750e-01 -6.858553e-02
     vertex  7.187500e-01 -1.250000e-01 -6.858553e-02
   endloop
 endfacet
 facet normal  0.000000e+00  0.000000e+00 -1.000000e+00
   outer loop
     vertex  7.500000e-01  1.015168e-17 -6.858553e-02
     vertex  6.723684e-01 -7.861842e-02 -6.858553e-02
     vertex  5.131579e-01 -4.350719e-18 -6.858553e-02
   endloop
 endfacet
 facet normal  1.000000e+00  0.000000e+00  0.000000e+00
   outer loop
     vertex  7.500000e-01  1.450240e-17  2.467105e-03
     vertex  7.500000e-01 -2.343750e-01 -6.858553e-02
     vertex  7.500000e-01  1.015168e-17 -6.858553e-02
   endloop
 endfacet
 facet normal  1.000000e+00  0.000000e+00  0.000000e+00
   outer loop
     vertex  7.500000e-01  1.450240e-17  2.467105e-03
     vertex  7.500000e-01 -2.343750e-01  2.467105e-03
     vertex  7.500000e-01 -2.343750e-01 -6.858553e-02
   endloop
 endfacet
 facet normal -0.000000e+00  0.000000e+00  1.000000e+00
   outer loop
     vertex  5.921053e-01  4.834132e-18  2.467105e-03
     vertex  7.500000e-01 -2.343750e-01  2.467105e-03
     vertex  7.500000e-01  1.450240e-17  2.467105e-03
   endloop
 endfacet
 facet normal  0.000000e+00  0.000000e+00  1.000000e+00
   outer loop
     vertex  5.921053e-01  4.834132e-18  2.467105e-03
     vertex  5.921053e-01 -2.343750e-01  2.467105e-03
     vertex  7.500000e-01 -2.343750e-01  2.467105e-03
   endloop
 endfacet
 facet normal  1.119645e-01  1.395564e-17  9.937122e-01
   outer loop
     vertex  1.317558e-01  1.199284e-17  5.797271e-01
     vertex -1.451462e-17  4.834132e-18  5.945724e-01
     vertex -1.632854e-19 -2.343750e-01  5.945724e-01
   endloop
 endfacet
 facet normal  1.119645e-01  1.325926e-17  9.937122e-01
   outer loop
     vertex  1.317558e-01  1.199284e-17  5.797271e-01
     vertex -1.632854e-19 -2.343750e-01  5.945724e-01
     vertex  1.317558e-01 -2.343750e-01  5.797271e-01
   endloop
 endfacet
 facet normal  3.302791e-01  0.000000e+00  9.438833e-01
   outer loop
     vertex  2.569048e-01  1.697455e-17  5.359355e-01
     vertex  1.317558e-01 -2.343750e-01  5.797271e-01
     vertex  2.569048e-01 -2.343750e-01  5.359355e-01
   endloop
 endfacet
 facet normal  3.302791e-01  2.791128e-17  9.438833e-01
   outer loop
     vertex  2.569048e-01  1.697455e-17  5.359355e-01
     vertex  1.317558e-01  1.199284e-17  5.797271e-01
     vertex  1.317558e-01 -2.343750e-01  5.797271e-01
   endloop
 endfacet
 facet normal  5.320321e-01  0.000000e+00  8.467242e-01
   outer loop
     vertex  3.691716e-01  1.952946e-17  4.653936e-01
     vertex  2.569048e-01 -2.343750e-01  5.359355e-01
     vertex  3.691716e-01 -2.343750e-01  4.653936e-01
   endloop
 endfacet
 facet normal  5.320321e-01  0.000000e+00  8.467242e-01
   outer loop
     vertex  3.691716e-01  1.952946e-17  4.653936e-01
     vertex  2.569048e-01  1.697455e-17  5.359355e-01
     vertex  2.569048e-01 -2.343750e-01  5.359355e-01
   endloop
 endfacet
 facet normal  7.071068e-01  0.000000e+00  7.071068e-01
   outer loop
     vertex  4.629265e-01  1.952946e-17  3.716387e-01
     vertex  3.691716e-01 -2.343750e-01  4.653936e-01
     vertex  4.629265e-01 -2.343750e-01  3.716387e-01
   endloop
 endfacet
 facet normal  7.071068e-01  0.000000e+00  7.071068e-01
   outer loop
     vertex  4.629265e-01  1.952946e-17  3.716387e-01
     vertex  3.691716e-01  1.952946e-17  4.653936e-01
     vertex  3.691716e-01 -2.343750e-01  4.653936e-01
   endloop
 endfacet
 facet normal  8.467242e-01  4.010892e-16  5.320321e-01
   outer loop
     vertex  5.334684e-01  1.697455e-17  2.593720e-01
     vertex  4.629265e-01 -2.343750e-01  3.716387e-01
     vertex  5.334684e-01 -2.343750e-01  2.593720e-01
   endloop
 endfacet
 facet normal  8.467242e-01  0.000000e+00  5.320321e-01
   outer loop
     vertex  5.334684e-01  1.697455e-17  2.593720e-01
     vertex  4.629265e-01  1.952946e-17  3.716387e-01
     vertex  4.629265e-01 -2.343750e-01  3.716387e-01
   endloop
 endfacet
 facet normal  9.438833e-01  4.471130e-16  3.302791e-01
   outer loop
     vertex  5.772599e-01  1.199284e-17  1.342229e-01
     vertex  5.334684e-01 -2.343750e-01  2.593720e-01
     vertex  5.772599e-01 -2.343750e-01  1.342229e-01
   endloop
 endfacet
 facet normal  9.438833e-01  4.465805e-16  3.302791e-01
   outer loop
     vertex  5.772599e-01  1.199284e-17  1.342229e-01
     vertex  5.334684e-01  1.697455e-17  2.593720e-01
     vertex  5.334684e-01 -2.343750e-01  2.593720e-01
   endloop
 endfacet
 facet normal  9.937122e-01  0.000000e+00  1.119645e-01
   outer loop
     vertex  5.921053e-01  4.834132e-18  2.467105e-03
     vertex  5.772599e-01 -2.343750e-01  1.342229e-01
     vertex  5.921053e-01 -2.343750e-01  2.467105e-03
   endloop
 endfacet
 facet normal  9.937122e-01  4.744918e-16  1.119645e-01
   outer loop
     vertex  5.921053e-01  4.834132e-18  2.467105e-03
     vertex  5.772599e-01  1.199284e-17  1.342229e-01
     vertex  5.772599e-01 -2.343750e-01  1.342229e-01
   endloop
 endfacet
 facet normal -1.000000e+00 -6.123234e-17 -1.508528e-15
   outer loop
     vertex  0.000000e+00  8.604755e-17  5.849507e-01
     vertex -1.632854e-19 -2.343750e-01  5.945724e-01
     vertex -1.451462e-17  4.834132e-18  5.945724e-01
   endloop
 endfacet
 facet normal -1.000000e+00 -6.123234e-17 -1.508528e-15
   outer loop
     vertex  0.000000e+00  8.604755e-17  5.849507e-01
     vertex  1.435133e-17 -2.343750e-01  5.849507e-01
     vertex -1.632854e-19 -2.343750e-01  5.945724e-01
   endloop
 endfacet
 facet normal  0.000000e+00 -0.000000e+00 -1.000000e+00
   outer loop
     vertex -7.177632e-01 -1.250000e-01 -7.031250e-02
     vertex -6.713816e-01 -1.713816e-01 -7.031250e-02
     vertex -7.500000e-01 -2.343750e-01 -7.031250e-02
   endloop
 endfacet
 facet normal  0.000000e+00  0.000000e+00 -1.000000e+00
   outer loop
     vertex -7.500000e-01  0.000000e+00 -7.031250e-02
     vertex -7.177632e-01 -1.250000e-01 -7.031250e-02
     vertex -7.500000e-01 -2.343750e-01 -7.031250e-02
   endloop
 endfacet
 facet normal -0.000000e+00  0.000000e+00 -1.000000e+00
   outer loop
     vertex -6.713816e-01 -7.861842e-02 -7.031250e-02
     vertex -7.177632e-01 -1.250000e-01 -7.031250e-02
     vertex -7.500000e-01  0.000000e+00 -7.031250e-02
   endloop
 endfacet
 facet normal  0.000000e+00  0.000000e+00 -1.000000e+00
   outer loop
     vertex -5.131579e-01 -2.343750e-01 -7.031250e-02
     vertex -6.713816e-01 -1.713816e-01 -7.031250e-02
     vertex -6.250000e-01 -1.250000e-01 -7.031250e-02
   endloop
 endfacet
 facet normal  0.000000e+00  0.000000e+00 -1.000000e+00
   outer loop
     vertex -5.131579e-01 -2.343750e-01 -7.031250e-02
     vertex -7.500000e-01 -2.343750e-01 -7.031250e-02
     vertex -6.713816e-01 -1.713816e-01 -7.031250e-02
   endloop
 endfacet
 facet normal  0.000000e+00  0.000000e+00 -1.000000e+00
   outer loop
     vertex -5.131579e-01  1.450240e-17 -7.031250e-02
     vertex -6.250000e-01 -1.250000e-01 -7.031250e-02
     vertex -6.713816e-01 -7.861842e-02 -7.031250e-02
   endloop
 endfacet
 facet normal  0.000000e+00  0.000000e+00 -1.000000e+00
   outer loop
     vertex -5.131579e-01  1.450240e-17 -7.031250e-02
     vertex -6.713816e-01 -7.861842e-02 -7.031250e-02
     vertex -7.500000e-01  0.000000e+00 -7.031250e-02
   endloop
 endfacet
 facet normal  0.000000e+00 -0.000000e+00 -1.000000e+00
   outer loop
     vertex -5.131579e-01  1.450240e-17 -7.031250e-02
     vertex -5.131579e-01 -2.343750e-01 -7.031250e-02
     vertex -6.250000e-01 -1.250000e-01 -7.031250e-02
   endloop
 endfacet
 facet normal  1.000000e+00  0.000000e+00  0.000000e+00
   outer loop
     vertex -5.131579e-01  1.885312e-17  7.401316e-04
     vertex -5.131579e-01 -2.343750e-01 -7.031250e-02
     vertex -5.131579e-01  1.450240e-17 -7.031250e-02
   endloop
 endfacet
 facet normal  1.000000e+00  0.000000e+00  0.000000e+00
   outer loop
     vertex -5.131579e-01  1.885312e-17  7.401316e-04
     vertex -5.131579e-01 -2.343750e-01  7.401316e-04
     vertex -5.131579e-01 -2.343750e-01 -7.031250e-02
   endloop
 endfacet
 facet normal -9.929384e-01  4.214696e-17  1.186310e-01
   outer loop
     vertex -5.764805e-01  2.298359e-17  1.315186e-01
     vertex -5.921053e-01  1.401898e-17  7.401316e-04
     vertex -5.921053e-01 -2.343750e-01  7.401316e-04
   endloop
 endfacet
 facet normal -9.929384e-01 -4.141552e-16  1.186310e-01
   outer loop
     vertex -5.764805e-01  2.298359e-17  1.315186e-01
     vertex -5.921053e-01 -2.343750e-01  7.401316e-04
     vertex -5.764805e-01 -2.343750e-01  1.315186e-01
   endloop
 endfacet
 facet normal -9.416455e-01  1.594488e-16  3.366063e-01
   outer loop
     vertex -5.321466e-01  3.329247e-17  2.555414e-01
     vertex -5.764805e-01 -2.343750e-01  1.315186e-01
     vertex -5.321466e-01 -2.343750e-01  2.555414e-01
   endloop
 endfacet
 facet normal -9.416455e-01 -2.809797e-16  3.366063e-01
   outer loop
     vertex -5.321466e-01  3.329247e-17  2.555414e-01
     vertex -5.764805e-01  2.298359e-17  1.315186e-01
     vertex -5.764805e-01 -2.343750e-01  1.315186e-01
   endloop
 endfacet
 facet normal -8.431345e-01 -2.720352e-16  5.377027e-01
   outer loop
     vertex -4.613266e-01  4.442867e-17  3.665894e-01
     vertex -5.321466e-01 -2.343750e-01  2.555414e-01
     vertex -4.613266e-01 -2.343750e-01  3.665894e-01
   endloop
 endfacet
 facet normal -8.431345e-01  2.809797e-16  5.377027e-01
   outer loop
     vertex -4.613266e-01  4.442867e-17  3.665894e-01
     vertex -5.321466e-01  3.329247e-17  2.555414e-01
     vertex -5.321466e-01 -2.343750e-01  2.555414e-01
   endloop
 endfacet
 facet normal -7.023453e-01  0.000000e+00  7.118364e-01
   outer loop
     vertex -3.675716e-01  5.583380e-17  4.590943e-01
     vertex -4.613266e-01 -2.343750e-01  3.665894e-01
     vertex -3.675716e-01 -2.343750e-01  4.590943e-01
   endloop
 endfacet
 facet normal -7.023453e-01 -1.123919e-16  7.118364e-01
   outer loop
     vertex -3.675716e-01  5.583380e-17  4.590943e-01
     vertex -4.613266e-01  4.442867e-17  3.665894e-01
     vertex -4.613266e-01 -2.343750e-01  3.665894e-01
   endloop
 endfacet
 facet normal -5.263375e-01  0.000000e+00  8.502757e-01
   outer loop
     vertex -2.555831e-01  6.693594e-17  5.284174e-01
     vertex -3.675716e-01 -2.343750e-01  4.590943e-01
     vertex -2.555831e-01 -2.343750e-01  5.284174e-01
   endloop
 endfacet
 facet normal -5.263375e-01  0.000000e+00  8.502757e-01
   outer loop
     vertex -2.555831e-01  6.693594e-17  5.284174e-01
     vertex -3.675716e-01  5.583380e-17  4.590943e-01
     vertex -3.675716e-01 -2.343750e-01  4.590943e-01
   endloop
 endfacet
 facet normal -3.239370e-01 -3.836184e-17  9.460787e-01
   outer loop
     vertex -1.309764e-01  7.717839e-17  5.710827e-01
     vertex -2.555831e-01 -2.343750e-01  5.284174e-01
     vertex -1.309764e-01 -2.343750e-01  5.710827e-01
   endloop
 endfacet
 facet normal -3.239370e-01  0.000000e+00  9.460787e-01
   outer loop
     vertex -1.309764e-01  7.717839e-17  5.710827e-01
     vertex -2.555831e-01  6.693594e-17  5.284174e-01
     vertex -2.555831e-01 -2.343750e-01  5.284174e-01
   endloop
 endfacet
 facet normal -1.052929e-01 -6.447330e-18  9.944413e-01
   outer loop
     vertex  0.000000e+00  8.604755e-17  5.849507e-01
     vertex -1.309764e-01 -2.343750e-01  5.710827e-01
     vertex  1.435133e-17 -2.343750e-01  5.849507e-01
   endloop
 endfacet
 facet normal -1.052929e-01 -1.404899e-17  9.944413e-01
   outer loop
     vertex  0.000000e+00  8.604755e-17  5.849507e-01
     vertex -1.309764e-01  7.717839e-17  5.710827e-01
     vertex -1.309764e-01 -2.343750e-01  5.710827e-01
   endloop
 endfacet
 facet normal  6.331018e-16  4.265107e-16  1.000000e+00
   outer loop
     vertex -7.500000e-01  4.350719e-18  7.401316e-04
     vertex -5.921053e-01 -2.343750e-01  7.401316e-04
     vertex -5.921053e-01  1.401898e-17  7.401316e-04
   endloop
 endfacet
 facet normal  0.000000e+00  0.000000e+00  1.000000e+00
   outer loop
     vertex -7.500000e-01  4.350719e-18  7.401316e-04
     vertex -7.500000e-01 -2.343750e-01  7.401316e-04
     vertex -5.921053e-01 -2.343750e-01  7.401316e-04
   endloop
 endfacet
 facet normal -1.000000e+00  0.000000e+00  0.000000e+00
   outer loop
     vertex -7.500000e-01  0.000000e+00 -7.031250e-02
     vertex -7.500000e-01 -2.343750e-01  7.401316e-04
     vertex -7.500000e-01  4.350719e-18  7.401316e-04
   endloop
 endfacet
 facet normal -1.000000e+00  0.000000e+00  0.000000e+00
   outer loop
     vertex -7.500000e-01  0.000000e+00 -7.031250e-02
     vertex -7.500000e-01 -2.343750e-01 -7.031250e-02
     vertex -7.500000e-01 -2.343750e-01  7.401316e-04
   endloop
 endfacet
 facet normal -7.071068e-01 -7.071068e-01 -0.000000e+00
   outer loop
     vertex  7.187500e-01 -1.250000e-01  0.000000e+00
     vertex  6.723684e-01 -7.861842e-02 -6.858553e-02
     vertex  7.187500e-01 -1.250000e-01 -6.858553e-02
   endloop
 endfacet
 facet normal -7.071068e-01 -7.071068e-01 -0.000000e+00
   outer loop
     vertex  6.723684e-01 -7.861842e-02  0.000000e+00
     vertex  6.723684e-01 -7.861842e-02 -6.858553e-02
     vertex  7.187500e-01 -1.250000e-01  0.000000e+00
   endloop
 endfacet
 facet normal  7.071068e-01 -7.071068e-01  0.000000e+00
   outer loop
     vertex  6.259868e-01 -1.250000e-01  0.000000e+00
     vertex  6.259868e-01 -1.250000e-01 -6.858553e-02
     vertex  6.723684e-01 -7.861842e-02 -6.858553e-02
   endloop
 endfacet
 facet normal  7.071068e-01 -7.071068e-01  0.000000e+00
   outer loop
     vertex  6.259868e-01 -1.250000e-01  0.000000e+00
     vertex  6.723684e-01 -7.861842e-02 -6.858553e-02
     vertex  6.723684e-01 -7.861842e-02  0.000000e+00
   endloop
 endfacet
 facet normal  7.071068e-01  7.071068e-01  0.000000e+00
   outer loop
     vertex  6.723684e-01 -1.713816e-01  0.000000e+00
     vertex  6.723684e-01 -1.713816e-01 -6.858553e-02
     vertex  6.259868e-01 -1.250000e-01 -6.858553e-02
   endloop
 endfacet
 facet normal  7.071068e-01  7.071068e-01  0.000000e+00
   outer loop
     vertex  6.723684e-01 -1.713816e-01  0.000000e+00
     vertex  6.259868e-01 -1.250000e-01 -6.858553e-02
     vertex  6.259868e-01 -1.250000e-01  0.000000e+00
   endloop
 endfacet
 facet normal -7.071068e-01  7.071068e-01  0.000000e+00
   outer loop
     vertex  7.187500e-01 -1.250000e-01  0.000000e+00
     vertex  7.187500e-01 -1.250000e-01 -6.858553e-02
     vertex  6.723684e-01 -1.713816e-01 -6.858553e-02
   endloop
 endfacet
 facet normal -7.071068e-01  7.071068e-01  0.000000e+00
   outer loop
     vertex  7.187500e-01 -1.250000e-01  0.000000e+00
     vertex  6.723684e-01 -1.713816e-01 -6.858553e-02
     vertex  6.723684e-01 -1.713816e-01  0.000000e+00
   endloop
 endfacet
 facet normal -7.071068e-01 -7.071068e-01 -0.000000e+00
   outer loop
     vertex -6.250000e-01 -1.250000e-01  0.000000e+00
     vertex -6.713816e-01 -7.861842e-02 -7.031250e-02
     vertex -6.250000e-01 -1.250000e-01 -7.031250e-02
   endloop
 endfacet
 facet normal -7.071068e-01 -7.071068e-01 -0.000000e+00
   outer loop
     vertex -6.713816e-01 -7.861842e-02  0.000000e+00
     vertex -6.713816e-01 -7.861842e-02 -7.031250e-02
     vertex -6.250000e-01 -1.250000e-01  0.000000e+00
   endloop
 endfacet
 facet normal  7.071068e-01 -7.071068e-01  0.000000e+00
   outer loop
     vertex -7.177632e-01 -1.250000e-01  0.000000e+00
     vertex -7.177632e-01 -1.250000e-01 -7.031250e-02
     vertex -6.713816e-01 -7.861842e-02 -7.031250e-02
   endloop
 endfacet
 facet normal  7.071068e-01 -7.071068e-01  0.000000e+00
   outer loop
     vertex -7.177632e-01 -1.250000e-01  0.000000e+00
     vertex -6.713816e-01 -7.861842e-02 -7.031250e-02
     vertex -6.713816e-01 -7.861842e-02  0.000000e+00
   endloop
 endfacet
 facet normal  7.071068e-01  7.071068e-01  0.000000e+00
   outer loop
     vertex -6.713816e-01 -1.713816e-01  0.000000e+00
     vertex -6.713816e-01 -1.713816e-01 -7.031250e-02
     vertex -7.177632e-01 -1.250000e-01 -7.031250e-02
   endloop
 endfacet
 facet normal  7.071068e-01  7.071068e-01  0.000000e+00
   outer loop
     vertex -6.713816e-01 -1.713816e-01  0.000000e+00
     vertex -7.177632e-01 -1.250000e-01 -7.031250e-02
     vertex -7.177632e-01 -1.250000e-01  0.000000e+00
   endloop
 endfacet
 facet normal -7.071068e-01  7.071068e-01  0.000000e+00
   outer loop
     vertex -6.250000e-01 -1.250000e-01  0.000000e+00
     vertex -6.250000e-01 -1.250000e-01 -7.031250e-02
     vertex -6.713816e-01 -1.713816e-01 -7.031250e-02
   endloop
 endfacet
 facet normal -7.071068e-01  7.071068e-01  0.000000e+00
   outer loop
     vertex -6.250000e-01 -1.250000e-01  0.000000e+00
     vertex -6.713816e-01 -1.713816e-01 -7.031250e-02
     vertex -6.713816e-01 -1.713816e-01  0.000000e+00
   endloop
 endfacet
 facet normal  0.000000e+00 -0.000000e+00 -1.000000e+00
   outer loop
     vertex  6.723684e-01 -7.861842e-02  0.000000e+00
     vertex  6.723684e-01 -1.713816e-01  0.000000e+00
     vertex  6.259868e-01 -1.250000e-01  0.000000e+00
   endloop
 endfacet
 facet normal  0.000000e+00  0.000000e+00 -1.000000e+00
   outer loop
     vertex  6.723684e-01 -7.861842e-02  0.000000e+00
     vertex  7.187500e-01 -1.250000e-01  0.000000e+00
     vertex  6.723684e-01 -1.713816e-01  0.000000e+00
   endloop
 endfacet
 facet normal  0.000000e+00 -0.000000e+00 -1.000000e+00
   outer loop
     vertex -6.713816e-01 -7.861842e-02  0.000000e+00
     vertex -6.713816e-01 -1.713816e-01  0.000000e+00
     vertex -7.177632e-01 -1.250000e-01  0.000000e+00
   endloop
 endfacet
 facet normal  0.000000e+00  0.000000e+00 -1.000000e+00
   outer loop
     vertex -6.713816e-01 -7.861842e-02  0.000000e+00
     vertex -6.250000e-01 -1.250000e-01  0.000000e+00
     vertex -6.713816e-01 -1.713816e-01  0.000000e+00
   endloop
 endfacet
endsolid
