solid 
 facet normal  0.000000e+00  0.000000e+00 -1.000000e+00
   outer loop
     vertex  7.500000e-01  9.184851e-17 -3.593750e-01
     vertex -7.500000e-01 -1.484375e-01 -3.593750e-01
     vertex -7.500000e-01  0.000000e+00 -3.593750e-01
   endloop
 endfacet
 facet normal  0.000000e+00 -0.000000e+00 -1.000000e+00
   outer loop
     vertex  7.500000e-01  9.184851e-17 -3.593750e-01
     vertex  7.500000e-01 -1.484375e-01 -3.593750e-01
     vertex -7.500000e-01 -1.484375e-01 -3.593750e-01
   endloop
 endfacet
 facet normal  1.000000e+00  0.000000e+00  0.000000e+00
   outer loop
     vertex  7.500000e-01  1.363225e-16  3.669408e-01
     vertex  7.500000e-01 -1.484375e-01 -3.593750e-01
     vertex  7.500000e-01  9.184851e-17 -3.593750e-01
   endloop
 endfacet
 facet normal  1.000000e+00  0.000000e+00  0.000000e+00
   outer loop
     vertex  7.500000e-01  1.363225e-16  3.669408e-01
     vertex  7.500000e-01 -1.484375e-01  3.669408e-01
     vertex  7.500000e-01 -1.484375e-01 -3.593750e-01
   endloop
 endfacet
 facet normal -0.000000e+00  0.000000e+00  1.000000e+00
   outer loop
     vertex -7.500000e-01  4.447402e-17  3.669408e-01
     vertex  7.500000e-01 -1.484375e-01  3.669408e-01
     vertex  7.500000e-01  1.363225e-16  3.669408e-01
   endloop
 endfacet
 facet normal  0.000000e+00  0.000000e+00  1.000000e+00
   outer loop
     vertex -7.500000e-01  4.447402e-17  3.669408e-01
     vertex -7.500000e-01 -1.484375e-01  3.669408e-01
     vertex  7.500000e-01 -1.484375e-01  3.669408e-01
   endloop
 endfacet
 facet normal -1.000000e+00  0.000000e+00  0.000000e+00
   outer loop
     vertex -7.500000e-01  0.000000e+00 -3.593750e-01
     vertex -7.500000e-01 -1.484375e-01  3.669408e-01
     vertex -7.500000e-01  4.447402e-17  3.669408e-01
   endloop
 endfacet
 facet normal -1.000000e+00  0.000000e+00  0.000000e+00
   outer loop
     vertex -7.500000e-01  0.000000e+00 -3.593750e-01
     vertex -7.500000e-01 -1.484375e-01 -3.593750e-01
     vertex -7.500000e-01 -1.484375e-01  3.669408e-01
   endloop
 endfacet
 facet normal  5.877853e-01  0.000000e+00  8.090170e-01
   outer loop
     vertex -6.521720e-01  2.703218e-17 -1.573397e-02
     vertex -5.921053e-01 -1.484375e-01 -5.937500e-02
     vertex -5.921053e-01  2.803797e-17 -5.937500e-02
   endloop
 endfacet
 facet normal  5.877853e-01  0.000000e+00  8.090170e-01
   outer loop
     vertex -6.521720e-01  2.703218e-17 -1.573397e-02
     vertex -6.521720e-01 -1.484375e-01 -1.573397e-02
     vertex -5.921053e-01 -1.484375e-01 -5.937500e-02
   endloop
 endfacet
 facet normal  9.510565e-01  0.000000e+00 -3.090170e-01
   outer loop
     vertex -6.292285e-01  3.276084e-17  5.487870e-02
     vertex -6.292285e-01 -1.484375e-01  5.487870e-02
     vertex -6.521720e-01 -1.484375e-01 -1.573397e-02
   endloop
 endfacet
 facet normal  9.510565e-01  0.000000e+00 -3.090170e-01
   outer loop
     vertex -6.292285e-01  3.276084e-17  5.487870e-02
     vertex -6.521720e-01 -1.484375e-01 -1.573397e-02
     vertex -6.521720e-01  2.703218e-17 -1.573397e-02
   endloop
 endfacet
 facet normal -1.869149e-16 -0.000000e+00 -1.000000e+00
   outer loop
     vertex -5.549820e-01  3.730713e-17  5.487870e-02
     vertex -5.549820e-01 -1.484375e-01  5.487870e-02
     vertex -6.292285e-01 -1.484375e-01  5.487870e-02
   endloop
 endfacet
 facet normal -1.869149e-16  0.000000e+00 -1.000000e+00
   outer loop
     vertex -5.549820e-01  3.730713e-17  5.487870e-02
     vertex -6.292285e-01 -1.484375e-01  5.487870e-02
     vertex -6.292285e-01  3.276084e-17  5.487870e-02
   endloop
 endfacet
 facet normal -9.510565e-01 -0.000000e+00 -3.090170e-01
   outer loop
     vertex -5.320385e-01  3.438823e-17 -1.573397e-02
     vertex -5.320385e-01 -1.484375e-01 -1.573397e-02
     vertex -5.549820e-01 -1.484375e-01  5.487870e-02
   endloop
 endfacet
 facet normal -9.510565e-01  0.000000e+00 -3.090170e-01
   outer loop
     vertex -5.320385e-01  3.438823e-17 -1.573397e-02
     vertex -5.549820e-01 -1.484375e-01  5.487870e-02
     vertex -5.549820e-01  3.730713e-17  5.487870e-02
   endloop
 endfacet
 facet normal -5.877853e-01  0.000000e+00  8.090170e-01
   outer loop
     vertex -5.921053e-01  2.803797e-17 -5.937500e-02
     vertex -5.921053e-01 -1.484375e-01 -5.937500e-02
     vertex -5.320385e-01 -1.484375e-01 -1.573397e-02
   endloop
 endfacet
 facet normal -5.877853e-01  0.000000e+00  8.090170e-01
   outer loop
     vertex -5.921053e-01  2.803797e-17 -5.937500e-02
     vertex -5.320385e-01 -1.484375e-01 -1.573397e-02
     vertex -5.320385e-01  3.438823e-17 -1.573397e-02
   endloop
 endfacet
 facet normal  1.837495e-01  0.000000e+00  9.829731e-01
   outer loop
     vertex -7.766250e-02  4.988272e-17 -2.170658e-01
     vertex  7.894737e-03 -1.484375e-01 -2.330592e-01
     vertex  7.894737e-03  5.414228e-17 -2.330592e-01
   endloop
 endfacet
 facet normal  1.837495e-01  0.000000e+00  9.829731e-01
   outer loop
     vertex -7.766250e-02  4.988272e-17 -2.170658e-01
     vertex -7.766250e-02 -1.484375e-01 -2.170658e-01
     vertex  7.894737e-03 -1.484375e-01 -2.330592e-01
   endloop
 endfacet
 facet normal  5.264322e-01  0.000000e+00  8.502171e-01
   outer loop
     vertex -1.516648e-01  4.815707e-17 -1.712455e-01
     vertex -1.516648e-01 -1.484375e-01 -1.712455e-01
     vertex -7.766250e-02 -1.484375e-01 -2.170658e-01
   endloop
 endfacet
 facet normal  5.264322e-01  0.000000e+00  8.502171e-01
   outer loop
     vertex -1.516648e-01  4.815707e-17 -1.712455e-01
     vertex -7.766250e-02 -1.484375e-01 -2.170658e-01
     vertex -7.766250e-02  4.988272e-17 -2.170658e-01
   endloop
 endfacet
 facet normal  7.980172e-01  0.000000e+00  6.026346e-01
   outer loop
     vertex -2.041176e-01  4.919839e-17 -1.017867e-01
     vertex -2.041176e-01 -1.484375e-01 -1.017867e-01
     vertex -1.516648e-01 -1.484375e-01 -1.712455e-01
   endloop
 endfacet
 facet normal  7.980172e-01  0.000000e+00  6.026346e-01
   outer loop
     vertex -2.041176e-01  4.919839e-17 -1.017867e-01
     vertex -1.516648e-01 -1.484375e-01 -1.712455e-01
     vertex -1.516648e-01  4.815707e-17 -1.712455e-01
   endloop
 endfacet
 facet normal  9.618256e-01  0.000000e+00  2.736630e-01
   outer loop
     vertex -2.279370e-01  5.286603e-17 -1.807014e-02
     vertex -2.279370e-01 -1.484375e-01 -1.807014e-02
     vertex -2.041176e-01 -1.484375e-01 -1.017867e-01
   endloop
 endfacet
 facet normal  9.618256e-01  0.000000e+00  2.736630e-01
   outer loop
     vertex -2.279370e-01  5.286603e-17 -1.807014e-02
     vertex -2.041176e-01 -1.484375e-01 -1.017867e-01
     vertex -2.041176e-01  4.919839e-17 -1.017867e-01
   endloop
 endfacet
 facet normal  9.957342e-01  0.000000e+00 -9.226836e-02
   outer loop
     vertex -2.199061e-01  5.866467e-17  6.859781e-02
     vertex -2.199061e-01 -1.484375e-01  6.859781e-02
     vertex -2.279370e-01 -1.484375e-01 -1.807014e-02
   endloop
 endfacet
 facet normal  9.957342e-01  0.000000e+00 -9.226836e-02
   outer loop
     vertex -2.199061e-01  5.866467e-17  6.859781e-02
     vertex -2.279370e-01 -1.484375e-01 -1.807014e-02
     vertex -2.279370e-01  5.286603e-17 -1.807014e-02
   endloop
 endfacet
 facet normal  8.951633e-01  0.000000e+00 -4.457384e-01
   outer loop
     vertex -1.811093e-01  6.581116e-17  1.465122e-01
     vertex -1.811093e-01 -1.484375e-01  1.465122e-01
     vertex -2.199061e-01 -1.484375e-01  6.859781e-02
   endloop
 endfacet
 facet normal  8.951633e-01  0.000000e+00 -4.457384e-01
   outer loop
     vertex -1.811093e-01  6.581116e-17  1.465122e-01
     vertex -2.199061e-01 -1.484375e-01  6.859781e-02
     vertex -2.199061e-01  5.866467e-17  6.859781e-02
   endloop
 endfacet
 facet normal  6.736956e-01  0.000000e+00 -7.390089e-01
   outer loop
     vertex -1.167866e-01  7.334033e-17  2.051501e-01
     vertex -1.167866e-01 -1.484375e-01  2.051501e-01
     vertex -1.811093e-01 -1.484375e-01  1.465122e-01
   endloop
 endfacet
 facet normal  6.736956e-01  0.000000e+00 -7.390089e-01
   outer loop
     vertex -1.167866e-01  7.334033e-17  2.051501e-01
     vertex -1.811093e-01 -1.484375e-01  1.465122e-01
     vertex -1.811093e-01  6.581116e-17  1.465122e-01
   endloop
 endfacet
 facet normal  3.612417e-01  0.000000e+00 -9.324722e-01
   outer loop
     vertex -3.562489e-02  8.023533e-17  2.365923e-01
     vertex -3.562489e-02 -1.484375e-01  2.365923e-01
     vertex -1.167866e-01 -1.484375e-01  2.051501e-01
   endloop
 endfacet
 facet normal  3.612417e-01  0.000000e+00 -9.324722e-01
   outer loop
     vertex -3.562489e-02  8.023533e-17  2.365923e-01
     vertex -1.167866e-01 -1.484375e-01  2.051501e-01
     vertex -1.167866e-01  7.334033e-17  2.051501e-01
   endloop
 endfacet
 facet normal -6.377715e-16 -0.000000e+00 -1.000000e+00
   outer loop
     vertex  5.141436e-02  8.556495e-17  2.365923e-01
     vertex  5.141436e-02 -1.484375e-01  2.365923e-01
     vertex -3.562489e-02 -1.484375e-01  2.365923e-01
   endloop
 endfacet
 facet normal -6.377715e-16  0.000000e+00 -1.000000e+00
   outer loop
     vertex  5.141436e-02  8.556495e-17  2.365923e-01
     vertex -3.562489e-02 -1.484375e-01  2.365923e-01
     vertex -3.562489e-02  8.023533e-17  2.365923e-01
   endloop
 endfacet
 facet normal -3.612417e-01 -0.000000e+00 -9.324722e-01
   outer loop
     vertex  1.325760e-01  8.860939e-17  2.051501e-01
     vertex  1.325760e-01 -1.484375e-01  2.051501e-01
     vertex  5.141436e-02 -1.484375e-01  2.365923e-01
   endloop
 endfacet
 facet normal -3.612417e-01  0.000000e+00 -9.324722e-01
   outer loop
     vertex  1.325760e-01  8.860939e-17  2.051501e-01
     vertex  5.141436e-02 -1.484375e-01  2.365923e-01
     vertex  5.141436e-02  8.556495e-17  2.365923e-01
   endloop
 endfacet
 facet normal -6.736956e-01 -0.000000e+00 -7.390089e-01
   outer loop
     vertex  1.968988e-01  8.895748e-17  1.465122e-01
     vertex  1.968988e-01 -1.484375e-01  1.465122e-01
     vertex  1.325760e-01 -1.484375e-01  2.051501e-01
   endloop
 endfacet
 facet normal -6.736956e-01  0.000000e+00 -7.390089e-01
   outer loop
     vertex  1.968988e-01  8.895748e-17  1.465122e-01
     vertex  1.325760e-01 -1.484375e-01  2.051501e-01
     vertex  1.325760e-01  8.860939e-17  2.051501e-01
   endloop
 endfacet
 facet normal -8.951633e-01 -0.000000e+00 -4.457384e-01
   outer loop
     vertex  2.356955e-01  8.656222e-17  6.859781e-02
     vertex  2.356955e-01 -1.484375e-01  6.859781e-02
     vertex  1.968988e-01 -1.484375e-01  1.465122e-01
   endloop
 endfacet
 facet normal -8.951633e-01  0.000000e+00 -4.457384e-01
   outer loop
     vertex  2.356955e-01  8.656222e-17  6.859781e-02
     vertex  1.968988e-01 -1.484375e-01  1.465122e-01
     vertex  1.968988e-01  8.895748e-17  1.465122e-01
   endloop
 endfacet
 facet normal -9.957342e-01 -0.000000e+00 -9.226836e-02
   outer loop
     vertex  2.437265e-01  8.174710e-17 -1.807014e-02
     vertex  2.437265e-01 -1.484375e-01 -1.807014e-02
     vertex  2.356955e-01 -1.484375e-01  6.859781e-02
   endloop
 endfacet
 facet normal -9.957342e-01  0.000000e+00 -9.226836e-02
   outer loop
     vertex  2.437265e-01  8.174710e-17 -1.807014e-02
     vertex  2.356955e-01 -1.484375e-01  6.859781e-02
     vertex  2.356955e-01  8.656222e-17  6.859781e-02
   endloop
 endfacet
 facet normal -9.618256e-01  0.000000e+00  2.736630e-01
   outer loop
     vertex  2.199071e-01  7.516241e-17 -1.017867e-01
     vertex  2.199071e-01 -1.484375e-01 -1.017867e-01
     vertex  2.437265e-01 -1.484375e-01 -1.807014e-02
   endloop
 endfacet
 facet normal -9.618256e-01  0.000000e+00  2.736630e-01
   outer loop
     vertex  2.199071e-01  7.516241e-17 -1.017867e-01
     vertex  2.437265e-01 -1.484375e-01 -1.807014e-02
     vertex  2.437265e-01  8.174710e-17 -1.807014e-02
   endloop
 endfacet
 facet normal -7.980172e-01  0.000000e+00  6.026346e-01
   outer loop
     vertex  1.674542e-01  6.769748e-17 -1.712455e-01
     vertex  1.674542e-01 -1.484375e-01 -1.712455e-01
     vertex  2.199071e-01 -1.484375e-01 -1.017867e-01
   endloop
 endfacet
 facet normal -7.980172e-01  0.000000e+00  6.026346e-01
   outer loop
     vertex  1.674542e-01  6.769748e-17 -1.712455e-01
     vertex  2.199071e-01 -1.484375e-01 -1.017867e-01
     vertex  2.199071e-01  7.516241e-17 -1.017867e-01
   endloop
 endfacet
 facet normal -5.264322e-01  0.000000e+00  8.502171e-01
   outer loop
     vertex  9.345197e-02  6.036046e-17 -2.170658e-01
     vertex  1.674542e-01 -1.484375e-01 -1.712455e-01
     vertex  1.674542e-01  6.769748e-17 -1.712455e-01
   endloop
 endfacet
 facet normal -5.264322e-01  0.000000e+00  8.502171e-01
   outer loop
     vertex  9.345197e-02  6.036046e-17 -2.170658e-01
     vertex  9.345197e-02 -1.484375e-01 -2.170658e-01
     vertex  1.674542e-01 -1.484375e-01 -1.712455e-01
   endloop
 endfacet
 facet normal -1.837495e-01  0.000000e+00  9.829731e-01
   outer loop
     vertex  7.894737e-03  5.414228e-17 -2.330592e-01
     vertex  9.345197e-02 -1.484375e-01 -2.170658e-01
     vertex  9.345197e-02  6.036046e-17 -2.170658e-01
   endloop
 endfacet
 facet normal -1.837495e-01  0.000000e+00  9.829731e-01
   outer loop
     vertex  7.894737e-03  5.414228e-17 -2.330592e-01
     vertex  7.894737e-03 -1.484375e-01 -2.330592e-01
     vertex  9.345197e-02 -1.484375e-01 -2.170658e-01
   endloop
 endfacet
 facet normal  5.877853e-01  0.000000e+00  8.090170e-01
   outer loop
     vertex  5.478280e-01  1.005110e-16 -1.573397e-02
     vertex  6.078947e-01 -1.484375e-01 -5.937500e-02
     vertex  6.078947e-01  1.015168e-16 -5.937500e-02
   endloop
 endfacet
 facet normal  5.877853e-01  0.000000e+00  8.090170e-01
   outer loop
     vertex  5.478280e-01  1.005110e-16 -1.573397e-02
     vertex  5.478280e-01 -1.484375e-01 -1.573397e-02
     vertex  6.078947e-01 -1.484375e-01 -5.937500e-02
   endloop
 endfacet
 facet normal  9.510565e-01  0.000000e+00 -3.090170e-01
   outer loop
     vertex  5.707715e-01  1.062397e-16  5.487870e-02
     vertex  5.707715e-01 -1.484375e-01  5.487870e-02
     vertex  5.478280e-01 -1.484375e-01 -1.573397e-02
   endloop
 endfacet
 facet normal  9.510565e-01  0.000000e+00 -3.090170e-01
   outer loop
     vertex  5.707715e-01  1.062397e-16  5.487870e-02
     vertex  5.478280e-01 -1.484375e-01 -1.573397e-02
     vertex  5.478280e-01  1.005110e-16 -1.573397e-02
   endloop
 endfacet
 facet normal -1.869149e-16 -0.000000e+00 -1.000000e+00
   outer loop
     vertex  6.450180e-01  1.107859e-16  5.487870e-02
     vertex  6.450180e-01 -1.484375e-01  5.487870e-02
     vertex  5.707715e-01 -1.484375e-01  5.487870e-02
   endloop
 endfacet
 facet normal -1.869149e-16  0.000000e+00 -1.000000e+00
   outer loop
     vertex  6.450180e-01  1.107859e-16  5.487870e-02
     vertex  5.707715e-01 -1.484375e-01  5.487870e-02
     vertex  5.707715e-01  1.062397e-16  5.487870e-02
   endloop
 endfacet
 facet normal -9.510565e-01 -0.000000e+00 -3.090170e-01
   outer loop
     vertex  6.679615e-01  1.078670e-16 -1.573397e-02
     vertex  6.679615e-01 -1.484375e-01 -1.573397e-02
     vertex  6.450180e-01 -1.484375e-01  5.487870e-02
   endloop
 endfacet
 facet normal -9.510565e-01  0.000000e+00 -3.090170e-01
   outer loop
     vertex  6.679615e-01  1.078670e-16 -1.573397e-02
     vertex  6.450180e-01 -1.484375e-01  5.487870e-02
     vertex  6.450180e-01  1.107859e-16  5.487870e-02
   endloop
 endfacet
 facet normal -5.877853e-01  0.000000e+00  8.090170e-01
   outer loop
     vertex  6.078947e-01  1.015168e-16 -5.937500e-02
     vertex  6.078947e-01 -1.484375e-01 -5.937500e-02
     vertex  6.679615e-01 -1.484375e-01 -1.573397e-02
   endloop
 endfacet
 facet normal -5.877853e-01  0.000000e+00  8.090170e-01
   outer loop
     vertex  6.078947e-01  1.015168e-16 -5.937500e-02
     vertex  6.679615e-01 -1.484375e-01 -1.573397e-02
     vertex  6.679615e-01  1.078670e-16 -1.573397e-02
   endloop
 endfacet
 facet normal -6.123234e-17  1.000000e+00 -6.123234e-17
   outer loop
     vertex -5.921053e-01  2.803797e-17 -5.937500e-02
     vertex -7.500000e-01  0.000000e+00 -3.593750e-01
     vertex -6.521720e-01  2.703218e-17 -1.573397e-02
   endloop
 endfacet
 facet normal -6.123234e-17  1.000000e+00 -6.123234e-17
   outer loop
     vertex -7.500000e-01  4.447402e-17  3.669408e-01
     vertex -5.549820e-01  3.730713e-17  5.487870e-02
     vertex -6.292285e-01  3.276084e-17  5.487870e-02
   endloop
 endfacet
 facet normal -6.123234e-17  1.000000e+00 -6.123234e-17
   outer loop
     vertex -7.500000e-01  4.447402e-17  3.669408e-01
     vertex -6.292285e-01  3.276084e-17  5.487870e-02
     vertex -6.521720e-01  2.703218e-17 -1.573397e-02
   endloop
 endfacet
 facet normal -6.123234e-17  1.000000e+00 -6.123234e-17
   outer loop
     vertex -7.500000e-01  4.447402e-17  3.669408e-01
     vertex -6.521720e-01  2.703218e-17 -1.573397e-02
     vertex -7.500000e-01  0.000000e+00 -3.593750e-01
   endloop
 endfacet
 facet normal -6.123234e-17  1.000000e+00 -6.123234e-17
   outer loop
     vertex -1.516648e-01  4.815707e-17 -1.712455e-01
     vertex -7.500000e-01  0.000000e+00 -3.593750e-01
     vertex -5.921053e-01  2.803797e-17 -5.937500e-02
   endloop
 endfacet
 facet normal -6.123234e-17  1.000000e+00 -6.123234e-17
   outer loop
     vertex -2.041176e-01  4.919839e-17 -1.017867e-01
     vertex -5.921053e-01  2.803797e-17 -5.937500e-02
     vertex -5.320385e-01  3.438823e-17 -1.573397e-02
   endloop
 endfacet
 facet normal -6.123234e-17  1.000000e+00 -6.123234e-17
   outer loop
     vertex -2.041176e-01  4.919839e-17 -1.017867e-01
     vertex -1.516648e-01  4.815707e-17 -1.712455e-01
     vertex -5.921053e-01  2.803797e-17 -5.937500e-02
   endloop
 endfacet
 facet normal -6.123234e-17  1.000000e+00 -6.123234e-17
   outer loop
     vertex -7.766250e-02  4.988272e-17 -2.170658e-01
     vertex -7.500000e-01  0.000000e+00 -3.593750e-01
     vertex -1.516648e-01  4.815707e-17 -1.712455e-01
   endloop
 endfacet
 facet normal -6.123234e-17  1.000000e+00 -6.123234e-17
   outer loop
     vertex -2.279370e-01  5.286603e-17 -1.807014e-02
     vertex -2.041176e-01  4.919839e-17 -1.017867e-01
     vertex -5.320385e-01  3.438823e-17 -1.573397e-02
   endloop
 endfacet
 facet normal -6.123234e-17  1.000000e+00 -6.123234e-17
   outer loop
     vertex  7.894737e-03  5.414228e-17 -2.330592e-01
     vertex -7.500000e-01  0.000000e+00 -3.593750e-01
     vertex -7.766250e-02  4.988272e-17 -2.170658e-01
   endloop
 endfacet
 facet normal -6.123234e-17  1.000000e+00 -6.123234e-17
   outer loop
     vertex -2.199061e-01  5.866467e-17  6.859781e-02
     vertex -5.320385e-01  3.438823e-17 -1.573397e-02
     vertex -5.549820e-01  3.730713e-17  5.487870e-02
   endloop
 endfacet
 facet normal -6.123234e-17  1.000000e+00 -6.123234e-17
   outer loop
     vertex -2.199061e-01  5.866467e-17  6.859781e-02
     vertex -2.279370e-01  5.286603e-17 -1.807014e-02
     vertex -5.320385e-01  3.438823e-17 -1.573397e-02
   endloop
 endfacet
 facet normal -6.123234e-17  1.000000e+00 -6.123234e-17
   outer loop
     vertex -1.811093e-01  6.581116e-17  1.465122e-01
     vertex -5.549820e-01  3.730713e-17  5.487870e-02
     vertex -7.500000e-01  4.447402e-17  3.669408e-01
   endloop
 endfacet
 facet normal -6.123234e-17  1.000000e+00 -6.123234e-17
   outer loop
     vertex -1.811093e-01  6.581116e-17  1.465122e-01
     vertex -2.199061e-01  5.866467e-17  6.859781e-02
     vertex -5.549820e-01  3.730713e-17  5.487870e-02
   endloop
 endfacet
 facet normal -6.123234e-17  1.000000e+00 -6.123234e-17
   outer loop
     vertex -1.167866e-01  7.334033e-17  2.051501e-01
     vertex -1.811093e-01  6.581116e-17  1.465122e-01
     vertex -7.500000e-01  4.447402e-17  3.669408e-01
   endloop
 endfacet
 facet normal -6.123234e-17  1.000000e+00 -6.123234e-17
   outer loop
     vertex -3.562489e-02  8.023533e-17  2.365923e-01
     vertex -1.167866e-01  7.334033e-17  2.051501e-01
     vertex -7.500000e-01  4.447402e-17  3.669408e-01
   endloop
 endfacet
 facet normal -6.123234e-17  1.000000e+00 -6.123234e-17
   outer loop
     vertex  7.500000e-01  9.184851e-17 -3.593750e-01
     vertex  7.894737e-03  5.414228e-17 -2.330592e-01
     vertex  9.345197e-02  6.036046e-17 -2.170658e-01
   endloop
 endfacet
 facet normal -6.123234e-17  1.000000e+00 -6.123234e-17
   outer loop
     vertex  7.500000e-01  9.184851e-17 -3.593750e-01
     vertex  9.345197e-02  6.036046e-17 -2.170658e-01
     vertex  1.674542e-01  6.769748e-17 -1.712455e-01
   endloop
 endfacet
 facet normal -6.123234e-17  1.000000e+00 -6.123234e-17
   outer loop
     vertex  7.500000e-01  9.184851e-17 -3.593750e-01
     vertex  1.674542e-01  6.769748e-17 -1.712455e-01
     vertex  2.199071e-01  7.516241e-17 -1.017867e-01
   endloop
 endfacet
 facet normal -6.123234e-17  1.000000e+00 -6.123234e-17
   outer loop
     vertex  7.500000e-01  9.184851e-17 -3.593750e-01
     vertex -7.500000e-01  0.000000e+00 -3.593750e-01
     vertex  7.894737e-03  5.414228e-17 -2.330592e-01
   endloop
 endfacet
 facet normal -6.123234e-17  1.000000e+00 -6.123234e-17
   outer loop
     vertex  5.478280e-01  1.005110e-16 -1.573397e-02
     vertex  2.199071e-01  7.516241e-17 -1.017867e-01
     vertex  2.437265e-01  8.174710e-17 -1.807014e-02
   endloop
 endfacet
 facet normal -6.123234e-17  1.000000e+00 -6.123234e-17
   outer loop
     vertex  5.478280e-01  1.005110e-16 -1.573397e-02
     vertex  2.437265e-01  8.174710e-17 -1.807014e-02
     vertex  2.356955e-01  8.656222e-17  6.859781e-02
   endloop
 endfacet
 facet normal -6.123234e-17  1.000000e+00 -6.123234e-17
   outer loop
     vertex  6.078947e-01  1.015168e-16 -5.937500e-02
     vertex  2.199071e-01  7.516241e-17 -1.017867e-01
     vertex  5.478280e-01  1.005110e-16 -1.573397e-02
   endloop
 endfacet
 facet normal -6.123234e-17  1.000000e+00 -6.123234e-17
   outer loop
     vertex  6.078947e-01  1.015168e-16 -5.937500e-02
     vertex  7.500000e-01  9.184851e-17 -3.593750e-01
     vertex  2.199071e-01  7.516241e-17 -1.017867e-01
   endloop
 endfacet
 facet normal -6.123234e-17  1.000000e+00 -6.123234e-17
   outer loop
     vertex  5.707715e-01  1.062397e-16  5.487870e-02
     vertex  2.356955e-01  8.656222e-17  6.859781e-02
     vertex  1.968988e-01  8.895748e-17  1.465122e-01
   endloop
 endfacet
 facet normal -6.123234e-17  1.000000e+00 -6.123234e-17
   outer loop
     vertex  5.707715e-01  1.062397e-16  5.487870e-02
     vertex  5.478280e-01  1.005110e-16 -1.573397e-02
     vertex  2.356955e-01  8.656222e-17  6.859781e-02
   endloop
 endfacet
 facet normal -6.123234e-17  1.000000e+00 -6.123234e-17
   outer loop
     vertex  6.679615e-01  1.078670e-16 -1.573397e-02
     vertex  7.500000e-01  9.184851e-17 -3.593750e-01
     vertex  6.078947e-01  1.015168e-16 -5.937500e-02
   endloop
 endfacet
 facet normal -6.123234e-17  1.000000e+00 -6.123234e-17
   outer loop
     vertex  7.500000e-01  1.363225e-16  3.669408e-01
     vertex  1.968988e-01  8.895748e-17  1.465122e-01
     vertex  1.325760e-01  8.860939e-17  2.051501e-01
   endloop
 endfacet
 facet normal -6.123234e-17  1.000000e+00 -6.123234e-17
   outer loop
     vertex  7.500000e-01  1.363225e-16  3.669408e-01
     vertex  1.325760e-01  8.860939e-17  2.051501e-01
     vertex  5.141436e-02  8.556495e-17  2.365923e-01
   endloop
 endfacet
 facet normal -6.123234e-17  1.000000e+00 -6.123234e-17
   outer loop
     vertex  7.500000e-01  1.363225e-16  3.669408e-01
     vertex  6.679615e-01  1.078670e-16 -1.573397e-02
     vertex  6.450180e-01  1.107859e-16  5.487870e-02
   endloop
 endfacet
 facet normal -6.123234e-17  1.000000e+00 -6.123234e-17
   outer loop
     vertex  7.500000e-01  1.363225e-16  3.669408e-01
     vertex  6.450180e-01  1.107859e-16  5.487870e-02
     vertex  5.707715e-01  1.062397e-16  5.487870e-02
   endloop
 endfacet
 facet normal -6.123234e-17  1.000000e+00 -6.123234e-17
   outer loop
     vertex  7.500000e-01  1.363225e-16  3.669408e-01
     vertex  5.707715e-01  1.062397e-16  5.487870e-02
     vertex  1.968988e-01  8.895748e-17  1.465122e-01
   endloop
 endfacet
 facet normal -6.123234e-17  1.000000e+00 -6.123234e-17
   outer loop
     vertex  7.500000e-01  1.363225e-16  3.669408e-01
     vertex  7.500000e-01  9.184851e-17 -3.593750e-01
     vertex  6.679615e-01  1.078670e-16 -1.573397e-02
   endloop
 endfacet
 facet normal -6.123234e-17  1.000000e+00 -6.123234e-17
   outer loop
     vertex  7.500000e-01  1.363225e-16  3.669408e-01
     vertex -3.562489e-02  8.023533e-17  2.365923e-01
     vertex -7.500000e-01  4.447402e-17  3.669408e-01
   endloop
 endfacet
 facet normal -6.123234e-17  1.000000e+00 -6.123234e-17
   outer loop
     vertex  7.500000e-01  1.363225e-16  3.669408e-01
     vertex  5.141436e-02  8.556495e-17  2.365923e-01
     vertex -3.562489e-02  8.023533e-17  2.365923e-01
   endloop
 endfacet
 facet normal -0.000000e+00 -1.000000e+00  0.000000e+00
   outer loop
     vertex -5.921053e-01 -1.484375e-01 -5.937500e-02
     vertex -6.521720e-01 -1.484375e-01 -1.573397e-02
     vertex -7.500000e-01 -1.484375e-01 -3.593750e-01
   endloop
 endfacet
 facet normal  0.000000e+00 -1.000000e+00  0.000000e+00
   outer loop
     vertex -7.500000e-01 -1.484375e-01  3.669408e-01
     vertex -6.292285e-01 -1.484375e-01  5.487870e-02
     vertex -5.549820e-01 -1.484375e-01  5.487870e-02
   endloop
 endfacet
 facet normal  0.000000e+00 -1.000000e+00  0.000000e+00
   outer loop
     vertex -7.500000e-01 -1.484375e-01  3.669408e-01
     vertex -6.521720e-01 -1.484375e-01 -1.573397e-02
     vertex -6.292285e-01 -1.484375e-01  5.487870e-02
   endloop
 endfacet
 facet normal  0.000000e+00 -1.000000e+00  0.000000e+00
   outer loop
     vertex -7.500000e-01 -1.484375e-01  3.669408e-01
     vertex -7.500000e-01 -1.484375e-01 -3.593750e-01
     vertex -6.521720e-01 -1.484375e-01 -1.573397e-02
   endloop
 endfacet
 facet normal -5.558678e-17 -1.000000e+00  2.925620e-17
   outer loop
     vertex -1.516648e-01 -1.484375e-01 -1.712455e-01
     vertex -5.921053e-01 -1.484375e-01 -5.937500e-02
     vertex -7.500000e-01 -1.484375e-01 -3.593750e-01
   endloop
 endfacet
 facet normal -6.218171e-17 -1.000000e+00  8.558578e-17
   outer loop
     vertex -2.041176e-01 -1.484375e-01 -1.017867e-01
     vertex -5.320385e-01 -1.484375e-01 -1.573397e-02
     vertex -5.921053e-01 -1.484375e-01 -5.937500e-02
   endloop
 endfacet
 facet normal -7.797390e-17 -1.000000e+00 -5.888316e-17
   outer loop
     vertex -2.041176e-01 -1.484375e-01 -1.017867e-01
     vertex -5.921053e-01 -1.484375e-01 -5.937500e-02
     vertex -1.516648e-01 -1.484375e-01 -1.712455e-01
   endloop
 endfacet
 facet normal -3.076519e-17 -1.000000e+00 -4.968748e-17
   outer loop
     vertex -7.766250e-02 -1.484375e-01 -2.170658e-01
     vertex -1.516648e-01 -1.484375e-01 -1.712455e-01
     vertex -7.500000e-01 -1.484375e-01 -3.593750e-01
   endloop
 endfacet
 facet normal -9.147070e-17 -1.000000e+00 -2.602566e-17
   outer loop
     vertex -2.279370e-01 -1.484375e-01 -1.807014e-02
     vertex -5.320385e-01 -1.484375e-01 -1.573397e-02
     vertex -2.041176e-01 -1.484375e-01 -1.017867e-01
   endloop
 endfacet
 facet normal  1.529083e-16 -1.000000e+00 -9.174500e-16
   outer loop
     vertex  7.894737e-03 -1.484375e-01 -2.330592e-01
     vertex -7.766250e-02 -1.484375e-01 -2.170658e-01
     vertex -7.500000e-01 -1.484375e-01 -3.593750e-01
   endloop
 endfacet
 facet normal  0.000000e+00 -1.000000e+00  0.000000e+00
   outer loop
     vertex -2.199061e-01 -1.484375e-01  6.859781e-02
     vertex -5.549820e-01 -1.484375e-01  5.487870e-02
     vertex -5.320385e-01 -1.484375e-01 -1.573397e-02
   endloop
 endfacet
 facet normal -8.874735e-17 -1.000000e+00  3.284755e-16
   outer loop
     vertex -2.199061e-01 -1.484375e-01  6.859781e-02
     vertex -5.320385e-01 -1.484375e-01 -1.573397e-02
     vertex -2.279370e-01 -1.484375e-01 -1.807014e-02
   endloop
 endfacet
 facet normal -0.000000e+00 -1.000000e+00  0.000000e+00
   outer loop
     vertex -1.811093e-01 -1.484375e-01  1.465122e-01
     vertex -7.500000e-01 -1.484375e-01  3.669408e-01
     vertex -5.549820e-01 -1.484375e-01  5.487870e-02
   endloop
 endfacet
 facet normal  0.000000e+00 -1.000000e+00  0.000000e+00
   outer loop
     vertex -1.811093e-01 -1.484375e-01  1.465122e-01
     vertex -5.549820e-01 -1.484375e-01  5.487870e-02
     vertex -2.199061e-01 -1.484375e-01  6.859781e-02
   endloop
 endfacet
 facet normal -0.000000e+00 -1.000000e+00  0.000000e+00
   outer loop
     vertex -1.167866e-01 -1.484375e-01  2.051501e-01
     vertex -7.500000e-01 -1.484375e-01  3.669408e-01
     vertex -1.811093e-01 -1.484375e-01  1.465122e-01
   endloop
 endfacet
 facet normal -0.000000e+00 -1.000000e+00  0.000000e+00
   outer loop
     vertex -3.562489e-02 -1.484375e-01  2.365923e-01
     vertex -7.500000e-01 -1.484375e-01  3.669408e-01
     vertex -1.167866e-01 -1.484375e-01  2.051501e-01
   endloop
 endfacet
 facet normal  0.000000e+00 -1.000000e+00  0.000000e+00
   outer loop
     vertex  7.500000e-01 -1.484375e-01 -3.593750e-01
     vertex  9.345197e-02 -1.484375e-01 -2.170658e-01
     vertex  7.894737e-03 -1.484375e-01 -2.330592e-01
   endloop
 endfacet
 facet normal  0.000000e+00 -1.000000e+00  0.000000e+00
   outer loop
     vertex  7.500000e-01 -1.484375e-01 -3.593750e-01
     vertex  1.674542e-01 -1.484375e-01 -1.712455e-01
     vertex  9.345197e-02 -1.484375e-01 -2.170658e-01
   endloop
 endfacet
 facet normal  0.000000e+00 -1.000000e+00  0.000000e+00
   outer loop
     vertex  7.500000e-01 -1.484375e-01 -3.593750e-01
     vertex  2.199071e-01 -1.484375e-01 -1.017867e-01
     vertex  1.674542e-01 -1.484375e-01 -1.712455e-01
   endloop
 endfacet
 facet normal  0.000000e+00 -1.000000e+00  0.000000e+00
   outer loop
     vertex  7.500000e-01 -1.484375e-01 -3.593750e-01
     vertex  7.894737e-03 -1.484375e-01 -2.330592e-01
     vertex -7.500000e-01 -1.484375e-01 -3.593750e-01
   endloop
 endfacet
 facet normal  0.000000e+00 -1.000000e+00  0.000000e+00
   outer loop
     vertex  5.478280e-01 -1.484375e-01 -1.573397e-02
     vertex  2.437265e-01 -1.484375e-01 -1.807014e-02
     vertex  2.199071e-01 -1.484375e-01 -1.017867e-01
   endloop
 endfacet
 facet normal -2.458490e-18 -1.000000e+00  3.200241e-16
   outer loop
     vertex  5.478280e-01 -1.484375e-01 -1.573397e-02
     vertex  2.356955e-01 -1.484375e-01  6.859781e-02
     vertex  2.437265e-01 -1.484375e-01 -1.807014e-02
   endloop
 endfacet
 facet normal -0.000000e+00 -1.000000e+00  0.000000e+00
   outer loop
     vertex  6.078947e-01 -1.484375e-01 -5.937500e-02
     vertex  5.478280e-01 -1.484375e-01 -1.573397e-02
     vertex  2.199071e-01 -1.484375e-01 -1.017867e-01
   endloop
 endfacet
 facet normal  0.000000e+00 -1.000000e+00 -0.000000e+00
   outer loop
     vertex  6.078947e-01 -1.484375e-01 -5.937500e-02
     vertex  2.199071e-01 -1.484375e-01 -1.017867e-01
     vertex  7.500000e-01 -1.484375e-01 -3.593750e-01
   endloop
 endfacet
 facet normal -8.455760e-17 -1.000000e+00 -4.210468e-17
   outer loop
     vertex  5.707715e-01 -1.484375e-01  5.487870e-02
     vertex  1.968988e-01 -1.484375e-01  1.465122e-01
     vertex  2.356955e-01 -1.484375e-01  6.859781e-02
   endloop
 endfacet
 facet normal -8.174620e-17 -1.000000e+00  2.656095e-17
   outer loop
     vertex  5.707715e-01 -1.484375e-01  5.487870e-02
     vertex  2.356955e-01 -1.484375e-01  6.859781e-02
     vertex  5.478280e-01 -1.484375e-01 -1.573397e-02
   endloop
 endfacet
 facet normal  0.000000e+00 -1.000000e+00 -0.000000e+00
   outer loop
     vertex  6.679615e-01 -1.484375e-01 -1.573397e-02
     vertex  6.078947e-01 -1.484375e-01 -5.937500e-02
     vertex  7.500000e-01 -1.484375e-01 -3.593750e-01
   endloop
 endfacet
 facet normal -3.491707e-17 -1.000000e+00 -3.830220e-17
   outer loop
     vertex  7.500000e-01 -1.484375e-01  3.669408e-01
     vertex  1.325760e-01 -1.484375e-01  2.051501e-01
     vertex  1.968988e-01 -1.484375e-01  1.465122e-01
   endloop
 endfacet
 facet normal -2.681559e-17 -1.000000e+00 -6.921901e-17
   outer loop
     vertex  7.500000e-01 -1.484375e-01  3.669408e-01
     vertex  5.141436e-02 -1.484375e-01  2.365923e-01
     vertex  1.325760e-01 -1.484375e-01  2.051501e-01
   endloop
 endfacet
 facet normal  0.000000e+00 -1.000000e+00  0.000000e+00
   outer loop
     vertex  7.500000e-01 -1.484375e-01  3.669408e-01
     vertex  6.450180e-01 -1.484375e-01  5.487870e-02
     vertex  6.679615e-01 -1.484375e-01 -1.573397e-02
   endloop
 endfacet
 facet normal  0.000000e+00 -1.000000e+00  0.000000e+00
   outer loop
     vertex  7.500000e-01 -1.484375e-01  3.669408e-01
     vertex  5.707715e-01 -1.484375e-01  5.487870e-02
     vertex  6.450180e-01 -1.484375e-01  5.487870e-02
   endloop
 endfacet
 facet normal -6.507739e-17 -1.000000e+00  3.737630e-17
   outer loop
     vertex  7.500000e-01 -1.484375e-01  3.669408e-01
     vertex  1.968988e-01 -1.484375e-01  1.465122e-01
     vertex  5.707715e-01 -1.484375e-01  5.487870e-02
   endloop
 endfacet
 facet normal  0.000000e+00 -1.000000e+00 -0.000000e+00
   outer loop
     vertex  7.500000e-01 -1.484375e-01  3.669408e-01
     vertex  6.679615e-01 -1.484375e-01 -1.573397e-02
     vertex  7.500000e-01 -1.484375e-01 -3.593750e-01
   endloop
 endfacet
 facet normal -0.000000e+00 -1.000000e+00  0.000000e+00
   outer loop
     vertex  7.500000e-01 -1.484375e-01  3.669408e-01
     vertex -7.500000e-01 -1.484375e-01  3.669408e-01
     vertex -3.562489e-02 -1.484375e-01  2.365923e-01
   endloop
 endfacet
 facet normal  3.188858e-16 -1.000000e+00 -1.921960e-15
   outer loop
     vertex  7.500000e-01 -1.484375e-01  3.669408e-01
     vertex -3.562489e-02 -1.484375e-01  2.365923e-01
     vertex  5.141436e-02 -1.484375e-01  2.365923e-01
   endloop
 endfacet
endsolid
