solid 
 facet normal  0.000000e+00 -1.000000e+00  0.000000e+00
   outer loop
     vertex  6.484375e-01 -2.265625e-01  0.000000e+00
     vertex -6.938894e-18 -2.265625e-01  7.500000e-01
     vertex -6.938894e-18 -2.265625e-01  0.000000e+00
   endloop
 endfacet
 facet normal  0.000000e+00 -1.000000e+00  0.000000e+00
   outer loop
     vertex  6.484375e-01 -2.265625e-01  0.000000e+00
     vertex  6.484375e-01 -2.265625e-01  7.500000e-01
     vertex -6.938894e-18 -2.265625e-01  7.500000e-01
   endloop
 endfacet
 facet normal  1.000000e+00  0.000000e+00  0.000000e+00
   outer loop
     vertex  6.484375e-01 -1.583059e-01  0.000000e+00
     vertex  6.484375e-01 -2.265625e-01  7.500000e-01
     vertex  6.484375e-01 -2.265625e-01  0.000000e+00
   endloop
 endfacet
 facet normal  1.000000e+00  0.000000e+00 -0.000000e+00
   outer loop
     vertex  6.484375e-01 -1.583059e-01  0.000000e+00
     vertex  6.484375e-01 -1.583059e-01  7.500000e-01
     vertex  6.484375e-01 -2.265625e-01  7.500000e-01
   endloop
 endfacet
 facet normal  0.000000e+00  1.000000e+00  0.000000e+00
   outer loop
     vertex  1.638158e-01 -1.583059e-01  0.000000e+00
     vertex  6.484375e-01 -1.583059e-01  7.500000e-01
     vertex  6.484375e-01 -1.583059e-01  0.000000e+00
   endloop
 endfacet
 facet normal  0.000000e+00  1.000000e+00  0.000000e+00
   outer loop
     vertex  1.638158e-01 -1.583059e-01  0.000000e+00
     vertex  1.638158e-01 -1.583059e-01  7.500000e-01
     vertex  6.484375e-01 -1.583059e-01  7.500000e-01
   endloop
 endfacet
 facet normal -1.801781e-01 -9.836340e-01  0.000000e+00
   outer loop
     vertex -6.938894e-18 -2.265625e-01  0.000000e+00
     vertex -6.938894e-18 -2.265625e-01  7.500000e-01
     vertex -8.312751e-02 -2.113355e-01  7.500000e-01
   endloop
 endfacet
 facet normal -1.801781e-01 -9.836340e-01  0.000000e+00
   outer loop
     vertex -8.312751e-02 -2.113355e-01  0.000000e+00
     vertex -6.938894e-18 -2.265625e-01  0.000000e+00
     vertex -8.312751e-02 -2.113355e-01  7.500000e-01
   endloop
 endfacet
 facet normal -5.207137e-01 -8.537314e-01  0.000000e+00
   outer loop
     vertex -1.552769e-01 -1.673297e-01  0.000000e+00
     vertex -8.312751e-02 -2.113355e-01  7.500000e-01
     vertex -1.552769e-01 -1.673297e-01  7.500000e-01
   endloop
 endfacet
 facet normal -5.207137e-01 -8.537314e-01  0.000000e+00
   outer loop
     vertex -1.552769e-01 -1.673297e-01  0.000000e+00
     vertex -8.312751e-02 -2.113355e-01  0.000000e+00
     vertex -8.312751e-02 -2.113355e-01  7.500000e-01
   endloop
 endfacet
 facet normal -7.920781e-01 -6.104198e-01  0.000000e+00
   outer loop
     vertex -2.068638e-01 -1.003907e-01  0.000000e+00
     vertex -1.552769e-01 -1.673297e-01  7.500000e-01
     vertex -2.068638e-01 -1.003907e-01  7.500000e-01
   endloop
 endfacet
 facet normal -7.920781e-01 -6.104198e-01  0.000000e+00
   outer loop
     vertex -2.068638e-01 -1.003907e-01  0.000000e+00
     vertex -1.552769e-01 -1.673297e-01  0.000000e+00
     vertex -1.552769e-01 -1.673297e-01  7.500000e-01
   endloop
 endfacet
 facet normal -9.582235e-01 -2.860206e-01  0.000000e+00
   outer loop
     vertex -2.310356e-01 -1.941065e-02  0.000000e+00
     vertex -2.068638e-01 -1.003907e-01  7.500000e-01
     vertex -2.310356e-01 -1.941065e-02  7.500000e-01
   endloop
 endfacet
 facet normal -9.582235e-01 -2.860206e-01  0.000000e+00
   outer loop
     vertex -2.310356e-01 -1.941065e-02  0.000000e+00
     vertex -2.068638e-01 -1.003907e-01  0.000000e+00
     vertex -2.068638e-01 -1.003907e-01  7.500000e-01
   endloop
 endfacet
 facet normal -9.970793e-01  7.637334e-02  0.000000e+00
   outer loop
     vertex -2.245812e-01  6.485313e-02  0.000000e+00
     vertex -2.310356e-01 -1.941065e-02  7.500000e-01
     vertex -2.245812e-01  6.485313e-02  7.500000e-01
   endloop
 endfacet
 facet normal -9.970793e-01  7.637334e-02  0.000000e+00
   outer loop
     vertex -2.245812e-01  6.485313e-02  0.000000e+00
     vertex -2.310356e-01 -1.941065e-02  0.000000e+00
     vertex -2.310356e-01 -1.941065e-02  7.500000e-01
   endloop
 endfacet
 facet normal -9.034840e-01  4.286219e-01  0.000000e+00
   outer loop
     vertex -1.883581e-01  1.412071e-01  0.000000e+00
     vertex -2.245812e-01  6.485313e-02  7.500000e-01
     vertex -1.883581e-01  1.412071e-01  7.500000e-01
   endloop
 endfacet
 facet normal -9.034840e-01  4.286219e-01  0.000000e+00
   outer loop
     vertex -1.883581e-01  1.412071e-01  0.000000e+00
     vertex -2.245812e-01  6.485313e-02  0.000000e+00
     vertex -2.245812e-01  6.485313e-02  7.500000e-01
   endloop
 endfacet
 facet normal -3.846154e-01  9.230769e-01  0.000000e+00
   outer loop
     vertex -1.271781e-01  1.995085e-01  0.000000e+00
     vertex -1.271781e-01  1.995085e-01  7.500000e-01
     vertex -4.916835e-02  2.320126e-01  7.500000e-01
   endloop
 endfacet
 facet normal -6.898706e-01  7.239327e-01  0.000000e+00
   outer loop
     vertex -1.271781e-01  1.995085e-01  0.000000e+00
     vertex -1.883581e-01  1.412071e-01  7.500000e-01
     vertex -1.271781e-01  1.995085e-01  7.500000e-01
   endloop
 endfacet
 facet normal -6.898706e-01  7.239327e-01  0.000000e+00
   outer loop
     vertex -1.271781e-01  1.995085e-01  0.000000e+00
     vertex -1.883581e-01  1.412071e-01  0.000000e+00
     vertex -1.883581e-01  1.412071e-01  7.500000e-01
   endloop
 endfacet
 facet normal -3.846154e-01  9.230769e-01  0.000000e+00
   outer loop
     vertex -4.916835e-02  2.320126e-01  0.000000e+00
     vertex -1.271781e-01  1.995085e-01  0.000000e+00
     vertex -4.916835e-02  2.320126e-01  7.500000e-01
   endloop
 endfacet
 facet normal -2.826821e-02  9.996004e-01  0.000000e+00
   outer loop
     vertex  3.530849e-02  2.344015e-01  0.000000e+00
     vertex -4.916835e-02  2.320126e-01  7.500000e-01
     vertex  3.530849e-02  2.344015e-01  7.500000e-01
   endloop
 endfacet
 facet normal -2.826821e-02  9.996004e-01  0.000000e+00
   outer loop
     vertex  3.530849e-02  2.344015e-01  0.000000e+00
     vertex -4.916835e-02  2.320126e-01  0.000000e+00
     vertex -4.916835e-02  2.320126e-01  7.500000e-01
   endloop
 endfacet
 facet normal  3.318341e-01  9.433378e-01 -0.000000e+00
   outer loop
     vertex  1.150305e-01  2.063580e-01  0.000000e+00
     vertex  3.530849e-02  2.344015e-01  7.500000e-01
     vertex  1.150305e-01  2.063580e-01  7.500000e-01
   endloop
 endfacet
 facet normal  3.318341e-01  9.433378e-01  0.000000e+00
   outer loop
     vertex  1.150305e-01  2.063580e-01  0.000000e+00
     vertex  3.530849e-02  2.344015e-01  0.000000e+00
     vertex  3.530849e-02  2.344015e-01  7.500000e-01
   endloop
 endfacet
 facet normal  6.478558e-01  7.617630e-01 -0.000000e+00
   outer loop
     vertex  1.794076e-01  1.516073e-01  0.000000e+00
     vertex  1.150305e-01  2.063580e-01  7.500000e-01
     vertex  1.794076e-01  1.516073e-01  7.500000e-01
   endloop
 endfacet
 facet normal  6.478558e-01  7.617630e-01  0.000000e+00
   outer loop
     vertex  1.794076e-01  1.516073e-01  0.000000e+00
     vertex  1.150305e-01  2.063580e-01  0.000000e+00
     vertex  1.150305e-01  2.063580e-01  7.500000e-01
   endloop
 endfacet
 facet normal  8.778170e-01  4.789962e-01 -0.000000e+00
   outer loop
     vertex  2.198879e-01  7.742250e-02  0.000000e+00
     vertex  1.794076e-01  1.516073e-01  7.500000e-01
     vertex  2.198879e-01  7.742250e-02  7.500000e-01
   endloop
 endfacet
 facet normal  8.778170e-01  4.789962e-01  0.000000e+00
   outer loop
     vertex  2.198879e-01  7.742250e-02  0.000000e+00
     vertex  1.794076e-01  1.516073e-01  0.000000e+00
     vertex  1.794076e-01  1.516073e-01  7.500000e-01
   endloop
 endfacet
 facet normal  9.911696e-01  1.326000e-01 -0.000000e+00
   outer loop
     vertex  2.310940e-01 -6.341854e-03  0.000000e+00
     vertex  2.198879e-01  7.742250e-02  7.500000e-01
     vertex  2.310940e-01 -6.341854e-03  7.500000e-01
   endloop
 endfacet
 facet normal  9.911696e-01  1.326000e-01  0.000000e+00
   outer loop
     vertex  2.310940e-01 -6.341854e-03  0.000000e+00
     vertex  2.198879e-01  7.742250e-02  0.000000e+00
     vertex  2.198879e-01  7.742250e-02  7.500000e-01
   endloop
 endfacet
 facet normal  9.728562e-01 -2.314106e-01  0.000000e+00
   outer loop
     vertex  2.115373e-01 -8.855852e-02  0.000000e+00
     vertex  2.310940e-01 -6.341854e-03  7.500000e-01
     vertex  2.115373e-01 -8.855852e-02  7.500000e-01
   endloop
 endfacet
 facet normal  9.728562e-01 -2.314106e-01  0.000000e+00
   outer loop
     vertex  2.115373e-01 -8.855852e-02  0.000000e+00
     vertex  2.310940e-01 -6.341854e-03  0.000000e+00
     vertex  2.310940e-01 -6.341854e-03  7.500000e-01
   endloop
 endfacet
 facet normal  8.253093e-01 -5.646809e-01  0.000000e+00
   outer loop
     vertex  1.638158e-01 -1.583059e-01  0.000000e+00
     vertex  2.115373e-01 -8.855852e-02  7.500000e-01
     vertex  1.638158e-01 -1.583059e-01  7.500000e-01
   endloop
 endfacet
 facet normal  8.253093e-01 -5.646809e-01  0.000000e+00
   outer loop
     vertex  1.638158e-01 -1.583059e-01  0.000000e+00
     vertex  2.115373e-01 -8.855852e-02  0.000000e+00
     vertex  2.115373e-01 -8.855852e-02  7.500000e-01
   endloop
 endfacet
 facet normal -9.594930e-01  2.817326e-01  0.000000e+00
   outer loop
     vertex  1.320685e-01 -8.619106e-02  0.000000e+00
     vertex  1.569901e-01 -1.315789e-03  7.500000e-01
     vertex  1.569901e-01 -1.315789e-03  0.000000e+00
   endloop
 endfacet
 facet normal -9.594930e-01  2.817326e-01  0.000000e+00
   outer loop
     vertex  1.320685e-01 -8.619106e-02  0.000000e+00
     vertex  1.320685e-01 -8.619106e-02  7.500000e-01
     vertex  1.569901e-01 -1.315789e-03  7.500000e-01
   endloop
 endfacet
 facet normal -6.548607e-01  7.557496e-01  0.000000e+00
   outer loop
     vertex  6.521606e-02 -1.441190e-01  0.000000e+00
     vertex  6.521606e-02 -1.441190e-01  7.500000e-01
     vertex  1.320685e-01 -8.619106e-02  7.500000e-01
   endloop
 endfacet
 facet normal -6.548607e-01  7.557496e-01  0.000000e+00
   outer loop
     vertex  6.521606e-02 -1.441190e-01  0.000000e+00
     vertex  1.320685e-01 -8.619106e-02  7.500000e-01
     vertex  1.320685e-01 -8.619106e-02  0.000000e+00
   endloop
 endfacet
 facet normal -1.423148e-01  9.898214e-01  0.000000e+00
   outer loop
     vertex -2.234203e-02 -1.567080e-01  0.000000e+00
     vertex -2.234203e-02 -1.567080e-01  7.500000e-01
     vertex  6.521606e-02 -1.441190e-01  7.500000e-01
   endloop
 endfacet
 facet normal -1.423148e-01  9.898214e-01  0.000000e+00
   outer loop
     vertex -2.234203e-02 -1.567080e-01  0.000000e+00
     vertex  6.521606e-02 -1.441190e-01  7.500000e-01
     vertex  6.521606e-02 -1.441190e-01  0.000000e+00
   endloop
 endfacet
 facet normal  4.154150e-01  9.096320e-01 -0.000000e+00
   outer loop
     vertex -1.028067e-01 -1.199610e-01  0.000000e+00
     vertex -1.028067e-01 -1.199610e-01  7.500000e-01
     vertex -2.234203e-02 -1.567080e-01  7.500000e-01
   endloop
 endfacet
 facet normal  4.154150e-01  9.096320e-01  0.000000e+00
   outer loop
     vertex -1.028067e-01 -1.199610e-01  0.000000e+00
     vertex -2.234203e-02 -1.567080e-01  7.500000e-01
     vertex -2.234203e-02 -1.567080e-01  0.000000e+00
   endloop
 endfacet
 facet normal  8.412535e-01  5.406408e-01 -0.000000e+00
   outer loop
     vertex -1.506309e-01 -4.554502e-02  0.000000e+00
     vertex -1.506309e-01 -4.554502e-02  7.500000e-01
     vertex -1.028067e-01 -1.199610e-01  7.500000e-01
   endloop
 endfacet
 facet normal  8.412535e-01  5.406408e-01  0.000000e+00
   outer loop
     vertex -1.506309e-01 -4.554502e-02  0.000000e+00
     vertex -1.028067e-01 -1.199610e-01  7.500000e-01
     vertex -1.028067e-01 -1.199610e-01  0.000000e+00
   endloop
 endfacet
 facet normal  1.000000e+00  0.000000e+00 -0.000000e+00
   outer loop
     vertex -1.506309e-01  4.291344e-02  0.000000e+00
     vertex -1.506309e-01  4.291344e-02  7.500000e-01
     vertex -1.506309e-01 -4.554502e-02  7.500000e-01
   endloop
 endfacet
 facet normal  1.000000e+00  0.000000e+00  0.000000e+00
   outer loop
     vertex -1.506309e-01  4.291344e-02  0.000000e+00
     vertex -1.506309e-01 -4.554502e-02  7.500000e-01
     vertex -1.506309e-01 -4.554502e-02  0.000000e+00
   endloop
 endfacet
 facet normal  8.412535e-01 -5.406408e-01  0.000000e+00
   outer loop
     vertex -1.028067e-01  1.173294e-01  0.000000e+00
     vertex -1.028067e-01  1.173294e-01  7.500000e-01
     vertex -1.506309e-01  4.291344e-02  7.500000e-01
   endloop
 endfacet
 facet normal  8.412535e-01 -5.406408e-01  0.000000e+00
   outer loop
     vertex -1.028067e-01  1.173294e-01  0.000000e+00
     vertex -1.506309e-01  4.291344e-02  7.500000e-01
     vertex -1.506309e-01  4.291344e-02  0.000000e+00
   endloop
 endfacet
 facet normal  4.154150e-01 -9.096320e-01  0.000000e+00
   outer loop
     vertex -2.234203e-02  1.540764e-01  0.000000e+00
     vertex -2.234203e-02  1.540764e-01  7.500000e-01
     vertex -1.028067e-01  1.173294e-01  7.500000e-01
   endloop
 endfacet
 facet normal  4.154150e-01 -9.096320e-01  0.000000e+00
   outer loop
     vertex -2.234203e-02  1.540764e-01  0.000000e+00
     vertex -1.028067e-01  1.173294e-01  7.500000e-01
     vertex -1.028067e-01  1.173294e-01  0.000000e+00
   endloop
 endfacet
 facet normal -1.423148e-01 -9.898214e-01  0.000000e+00
   outer loop
     vertex  6.521606e-02  1.414875e-01  0.000000e+00
     vertex  6.521606e-02  1.414875e-01  7.500000e-01
     vertex -2.234203e-02  1.540764e-01  7.500000e-01
   endloop
 endfacet
 facet normal -1.423148e-01 -9.898214e-01  0.000000e+00
   outer loop
     vertex  6.521606e-02  1.414875e-01  0.000000e+00
     vertex -2.234203e-02  1.540764e-01  7.500000e-01
     vertex -2.234203e-02  1.540764e-01  0.000000e+00
   endloop
 endfacet
 facet normal -9.594930e-01 -2.817326e-01  0.000000e+00
   outer loop
     vertex  1.320685e-01  8.355948e-02  0.000000e+00
     vertex  1.569901e-01 -1.315789e-03  7.500000e-01
     vertex  1.320685e-01  8.355948e-02  7.500000e-01
   endloop
 endfacet
 facet normal -6.548607e-01 -7.557496e-01  0.000000e+00
   outer loop
     vertex  1.320685e-01  8.355948e-02  0.000000e+00
     vertex  1.320685e-01  8.355948e-02  7.500000e-01
     vertex  6.521606e-02  1.414875e-01  7.500000e-01
   endloop
 endfacet
 facet normal -6.548607e-01 -7.557496e-01  0.000000e+00
   outer loop
     vertex  1.320685e-01  8.355948e-02  0.000000e+00
     vertex  6.521606e-02  1.414875e-01  7.500000e-01
     vertex  6.521606e-02  1.414875e-01  0.000000e+00
   endloop
 endfacet
 facet normal -9.594930e-01 -2.817326e-01  0.000000e+00
   outer loop
     vertex  1.569901e-01 -1.315789e-03  0.000000e+00
     vertex  1.569901e-01 -1.315789e-03  7.500000e-01
     vertex  1.320685e-01  8.355948e-02  0.000000e+00
   endloop
 endfacet
 facet normal -0.000000e+00  0.000000e+00 -1.000000e+00
   outer loop
     vertex -1.028067e-01 -1.199610e-01  0.000000e+00
     vertex -1.552769e-01 -1.673297e-01  0.000000e+00
     vertex -2.068638e-01 -1.003907e-01  0.000000e+00
   endloop
 endfacet
 facet normal  0.000000e+00 -0.000000e+00 -1.000000e+00
   outer loop
     vertex -1.028067e-01 -1.199610e-01  0.000000e+00
     vertex -8.312751e-02 -2.113355e-01  0.000000e+00
     vertex -1.552769e-01 -1.673297e-01  0.000000e+00
   endloop
 endfacet
 facet normal -0.000000e+00  0.000000e+00 -1.000000e+00
   outer loop
     vertex -1.506309e-01 -4.554502e-02  0.000000e+00
     vertex -2.068638e-01 -1.003907e-01  0.000000e+00
     vertex -2.310356e-01 -1.941065e-02  0.000000e+00
   endloop
 endfacet
 facet normal  0.000000e+00 -0.000000e+00 -1.000000e+00
   outer loop
     vertex -1.506309e-01 -4.554502e-02  0.000000e+00
     vertex -1.028067e-01 -1.199610e-01  0.000000e+00
     vertex -2.068638e-01 -1.003907e-01  0.000000e+00
   endloop
 endfacet
 facet normal  0.000000e+00 -0.000000e+00 -1.000000e+00
   outer loop
     vertex -2.234203e-02 -1.567080e-01  0.000000e+00
     vertex -6.938894e-18 -2.265625e-01  0.000000e+00
     vertex -8.312751e-02 -2.113355e-01  0.000000e+00
   endloop
 endfacet
 facet normal -0.000000e+00  0.000000e+00 -1.000000e+00
   outer loop
     vertex -2.234203e-02 -1.567080e-01  0.000000e+00
     vertex -8.312751e-02 -2.113355e-01  0.000000e+00
     vertex -1.028067e-01 -1.199610e-01  0.000000e+00
   endloop
 endfacet
 facet normal -0.000000e+00  0.000000e+00 -1.000000e+00
   outer loop
     vertex -1.506309e-01  4.291344e-02  0.000000e+00
     vertex -2.310356e-01 -1.941065e-02  0.000000e+00
     vertex -2.245812e-01  6.485313e-02  0.000000e+00
   endloop
 endfacet
 facet normal  0.000000e+00 -0.000000e+00 -1.000000e+00
   outer loop
     vertex -1.506309e-01  4.291344e-02  0.000000e+00
     vertex -1.506309e-01 -4.554502e-02  0.000000e+00
     vertex -2.310356e-01 -1.941065e-02  0.000000e+00
   endloop
 endfacet
 facet normal  0.000000e+00  0.000000e+00 -1.000000e+00
   outer loop
     vertex  6.521606e-02 -1.441190e-01  0.000000e+00
     vertex -6.938894e-18 -2.265625e-01  0.000000e+00
     vertex -2.234203e-02 -1.567080e-01  0.000000e+00
   endloop
 endfacet
 facet normal  0.000000e+00 -0.000000e+00 -1.000000e+00
   outer loop
     vertex -1.883581e-01  1.412071e-01  0.000000e+00
     vertex -1.506309e-01  4.291344e-02  0.000000e+00
     vertex -2.245812e-01  6.485313e-02  0.000000e+00
   endloop
 endfacet
 facet normal -0.000000e+00  0.000000e+00 -1.000000e+00
   outer loop
     vertex  1.638158e-01 -1.583059e-01  0.000000e+00
     vertex -6.938894e-18 -2.265625e-01  0.000000e+00
     vertex  6.521606e-02 -1.441190e-01  0.000000e+00
   endloop
 endfacet
 facet normal -0.000000e+00  0.000000e+00 -1.000000e+00
   outer loop
     vertex -1.028067e-01  1.173294e-01  0.000000e+00
     vertex -1.506309e-01  4.291344e-02  0.000000e+00
     vertex -1.883581e-01  1.412071e-01  0.000000e+00
   endloop
 endfacet
 facet normal  0.000000e+00 -0.000000e+00 -1.000000e+00
   outer loop
     vertex  1.320685e-01 -8.619106e-02  0.000000e+00
     vertex  1.638158e-01 -1.583059e-01  0.000000e+00
     vertex  6.521606e-02 -1.441190e-01  0.000000e+00
   endloop
 endfacet
 facet normal  0.000000e+00 -0.000000e+00 -1.000000e+00
   outer loop
     vertex -1.271781e-01  1.995085e-01  0.000000e+00
     vertex -1.028067e-01  1.173294e-01  0.000000e+00
     vertex -1.883581e-01  1.412071e-01  0.000000e+00
   endloop
 endfacet
 facet normal -0.000000e+00  0.000000e+00 -1.000000e+00
   outer loop
     vertex  2.115373e-01 -8.855852e-02  0.000000e+00
     vertex  1.638158e-01 -1.583059e-01  0.000000e+00
     vertex  1.320685e-01 -8.619106e-02  0.000000e+00
   endloop
 endfacet
 facet normal -0.000000e+00  0.000000e+00 -1.000000e+00
   outer loop
     vertex -2.234203e-02  1.540764e-01  0.000000e+00
     vertex -1.028067e-01  1.173294e-01  0.000000e+00
     vertex -1.271781e-01  1.995085e-01  0.000000e+00
   endloop
 endfacet
 facet normal  0.000000e+00 -0.000000e+00 -1.000000e+00
   outer loop
     vertex  1.569901e-01 -1.315789e-03  0.000000e+00
     vertex  2.115373e-01 -8.855852e-02  0.000000e+00
     vertex  1.320685e-01 -8.619106e-02  0.000000e+00
   endloop
 endfacet
 facet normal  0.000000e+00 -0.000000e+00 -1.000000e+00
   outer loop
     vertex -4.916835e-02  2.320126e-01  0.000000e+00
     vertex -2.234203e-02  1.540764e-01  0.000000e+00
     vertex -1.271781e-01  1.995085e-01  0.000000e+00
   endloop
 endfacet
 facet normal -0.000000e+00  0.000000e+00 -1.000000e+00
   outer loop
     vertex  2.310940e-01 -6.341854e-03  0.000000e+00
     vertex  2.115373e-01 -8.855852e-02  0.000000e+00
     vertex  1.569901e-01 -1.315789e-03  0.000000e+00
   endloop
 endfacet
 facet normal  0.000000e+00 -0.000000e+00 -1.000000e+00
   outer loop
     vertex  3.530849e-02  2.344015e-01  0.000000e+00
     vertex  6.521606e-02  1.414875e-01  0.000000e+00
     vertex -2.234203e-02  1.540764e-01  0.000000e+00
   endloop
 endfacet
 facet normal  0.000000e+00  0.000000e+00 -1.000000e+00
   outer loop
     vertex  3.530849e-02  2.344015e-01  0.000000e+00
     vertex -2.234203e-02  1.540764e-01  0.000000e+00
     vertex -4.916835e-02  2.320126e-01  0.000000e+00
   endloop
 endfacet
 facet normal -0.000000e+00  0.000000e+00 -1.000000e+00
   outer loop
     vertex  2.198879e-01  7.742250e-02  0.000000e+00
     vertex  1.569901e-01 -1.315789e-03  0.000000e+00
     vertex  1.320685e-01  8.355948e-02  0.000000e+00
   endloop
 endfacet
 facet normal  0.000000e+00 -0.000000e+00 -1.000000e+00
   outer loop
     vertex  2.198879e-01  7.742250e-02  0.000000e+00
     vertex  2.310940e-01 -6.341854e-03  0.000000e+00
     vertex  1.569901e-01 -1.315789e-03  0.000000e+00
   endloop
 endfacet
 facet normal -0.000000e+00  0.000000e+00 -1.000000e+00
   outer loop
     vertex  1.150305e-01  2.063580e-01  0.000000e+00
     vertex  6.521606e-02  1.414875e-01  0.000000e+00
     vertex  3.530849e-02  2.344015e-01  0.000000e+00
   endloop
 endfacet
 facet normal  0.000000e+00  0.000000e+00 -1.000000e+00
   outer loop
     vertex  1.794076e-01  1.516073e-01  0.000000e+00
     vertex  1.320685e-01  8.355948e-02  0.000000e+00
     vertex  6.521606e-02  1.414875e-01  0.000000e+00
   endloop
 endfacet
 facet normal  0.000000e+00 -0.000000e+00 -1.000000e+00
   outer loop
     vertex  1.794076e-01  1.516073e-01  0.000000e+00
     vertex  2.198879e-01  7.742250e-02  0.000000e+00
     vertex  1.320685e-01  8.355948e-02  0.000000e+00
   endloop
 endfacet
 facet normal -0.000000e+00  0.000000e+00 -1.000000e+00
   outer loop
     vertex  1.794076e-01  1.516073e-01  0.000000e+00
     vertex  6.521606e-02  1.414875e-01  0.000000e+00
     vertex  1.150305e-01  2.063580e-01  0.000000e+00
   endloop
 endfacet
 facet normal  0.000000e+00  0.000000e+00 -1.000000e+00
   outer loop
     vertex  6.484375e-01 -2.265625e-01  0.000000e+00
     vertex -6.938894e-18 -2.265625e-01  0.000000e+00
     vertex  1.638158e-01 -1.583059e-01  0.000000e+00
   endloop
 endfacet
 facet normal -0.000000e+00 -0.000000e+00 -1.000000e+00
   outer loop
     vertex  6.484375e-01 -1.583059e-01  0.000000e+00
     vertex  6.484375e-01 -2.265625e-01  0.000000e+00
     vertex  1.638158e-01 -1.583059e-01  0.000000e+00
   endloop
 endfacet
 facet normal  0.000000e+00  0.000000e+00  1.000000e+00
   outer loop
     vertex -1.028067e-01 -1.199610e-01  7.500000e-01
     vertex -2.068638e-01 -1.003907e-01  7.500000e-01
     vertex -1.552769e-01 -1.673297e-01  7.500000e-01
   endloop
 endfacet
 facet normal  0.000000e+00  0.000000e+00  1.000000e+00
   outer loop
     vertex -1.028067e-01 -1.199610e-01  7.500000e-01
     vertex -1.552769e-01 -1.673297e-01  7.500000e-01
     vertex -8.312751e-02 -2.113355e-01  7.500000e-01
   endloop
 endfacet
 facet normal  0.000000e+00  0.000000e+00  1.000000e+00
   outer loop
     vertex -1.506309e-01 -4.554502e-02  7.500000e-01
     vertex -2.310356e-01 -1.941065e-02  7.500000e-01
     vertex -2.068638e-01 -1.003907e-01  7.500000e-01
   endloop
 endfacet
 facet normal  0.000000e+00  0.000000e+00  1.000000e+00
   outer loop
     vertex -1.506309e-01 -4.554502e-02  7.500000e-01
     vertex -2.068638e-01 -1.003907e-01  7.500000e-01
     vertex -1.028067e-01 -1.199610e-01  7.500000e-01
   endloop
 endfacet
 facet normal  0.000000e+00  0.000000e+00  1.000000e+00
   outer loop
     vertex -2.234203e-02 -1.567080e-01  7.500000e-01
     vertex -8.312751e-02 -2.113355e-01  7.500000e-01
     vertex -6.938894e-18 -2.265625e-01  7.500000e-01
   endloop
 endfacet
 facet normal  0.000000e+00  0.000000e+00  1.000000e+00
   outer loop
     vertex -2.234203e-02 -1.567080e-01  7.500000e-01
     vertex -1.028067e-01 -1.199610e-01  7.500000e-01
     vertex -8.312751e-02 -2.113355e-01  7.500000e-01
   endloop
 endfacet
 facet normal  0.000000e+00  0.000000e+00  1.000000e+00
   outer loop
     vertex -1.506309e-01  4.291344e-02  7.500000e-01
     vertex -2.245812e-01  6.485313e-02  7.500000e-01
     vertex -2.310356e-01 -1.941065e-02  7.500000e-01
   endloop
 endfacet
 facet normal  0.000000e+00  0.000000e+00  1.000000e+00
   outer loop
     vertex -1.506309e-01  4.291344e-02  7.500000e-01
     vertex -2.310356e-01 -1.941065e-02  7.500000e-01
     vertex -1.506309e-01 -4.554502e-02  7.500000e-01
   endloop
 endfacet
 facet normal  0.000000e+00  0.000000e+00  1.000000e+00
   outer loop
     vertex  6.521606e-02 -1.441190e-01  7.500000e-01
     vertex -2.234203e-02 -1.567080e-01  7.500000e-01
     vertex -6.938894e-18 -2.265625e-01  7.500000e-01
   endloop
 endfacet
 facet normal  0.000000e+00  0.000000e+00  1.000000e+00
   outer loop
     vertex -1.883581e-01  1.412071e-01  7.500000e-01
     vertex -2.245812e-01  6.485313e-02  7.500000e-01
     vertex -1.506309e-01  4.291344e-02  7.500000e-01
   endloop
 endfacet
 facet normal  0.000000e+00  0.000000e+00  1.000000e+00
   outer loop
     vertex  1.638158e-01 -1.583059e-01  7.500000e-01
     vertex  6.521606e-02 -1.441190e-01  7.500000e-01
     vertex -6.938894e-18 -2.265625e-01  7.500000e-01
   endloop
 endfacet
 facet normal  0.000000e+00  0.000000e+00  1.000000e+00
   outer loop
     vertex -1.028067e-01  1.173294e-01  7.500000e-01
     vertex -1.883581e-01  1.412071e-01  7.500000e-01
     vertex -1.506309e-01  4.291344e-02  7.500000e-01
   endloop
 endfacet
 facet normal  0.000000e+00  0.000000e+00  1.000000e+00
   outer loop
     vertex  1.320685e-01 -8.619106e-02  7.500000e-01
     vertex  6.521606e-02 -1.441190e-01  7.500000e-01
     vertex  1.638158e-01 -1.583059e-01  7.500000e-01
   endloop
 endfacet
 facet normal  0.000000e+00  0.000000e+00  1.000000e+00
   outer loop
     vertex -1.271781e-01  1.995085e-01  7.500000e-01
     vertex -1.883581e-01  1.412071e-01  7.500000e-01
     vertex -1.028067e-01  1.173294e-01  7.500000e-01
   endloop
 endfacet
 facet normal  0.000000e+00  0.000000e+00  1.000000e+00
   outer loop
     vertex  2.115373e-01 -8.855852e-02  7.500000e-01
     vertex  1.320685e-01 -8.619106e-02  7.500000e-01
     vertex  1.638158e-01 -1.583059e-01  7.500000e-01
   endloop
 endfacet
 facet normal  0.000000e+00  0.000000e+00  1.000000e+00
   outer loop
     vertex -2.234203e-02  1.540764e-01  7.500000e-01
     vertex -1.271781e-01  1.995085e-01  7.500000e-01
     vertex -1.028067e-01  1.173294e-01  7.500000e-01
   endloop
 endfacet
 facet normal  0.000000e+00  0.000000e+00  1.000000e+00
   outer loop
     vertex  1.569901e-01 -1.315789e-03  7.500000e-01
     vertex  1.320685e-01 -8.619106e-02  7.500000e-01
     vertex  2.115373e-01 -8.855852e-02  7.500000e-01
   endloop
 endfacet
 facet normal  0.000000e+00  0.000000e+00  1.000000e+00
   outer loop
     vertex -4.916835e-02  2.320126e-01  7.500000e-01
     vertex -1.271781e-01  1.995085e-01  7.500000e-01
     vertex -2.234203e-02  1.540764e-01  7.500000e-01
   endloop
 endfacet
 facet normal  0.000000e+00  0.000000e+00  1.000000e+00
   outer loop
     vertex  2.310940e-01 -6.341854e-03  7.500000e-01
     vertex  1.569901e-01 -1.315789e-03  7.500000e-01
     vertex  2.115373e-01 -8.855852e-02  7.500000e-01
   endloop
 endfacet
 facet normal  0.000000e+00  0.000000e+00  1.000000e+00
   outer loop
     vertex  3.530849e-02  2.344015e-01  7.500000e-01
     vertex -2.234203e-02  1.540764e-01  7.500000e-01
     vertex  6.521606e-02  1.414875e-01  7.500000e-01
   endloop
 endfacet
 facet normal  0.000000e+00  0.000000e+00  1.000000e+00
   outer loop
     vertex  3.530849e-02  2.344015e-01  7.500000e-01
     vertex -4.916835e-02  2.320126e-01  7.500000e-01
     vertex -2.234203e-02  1.540764e-01  7.500000e-01
   endloop
 endfacet
 facet normal  0.000000e+00  0.000000e+00  1.000000e+00
   outer loop
     vertex  2.198879e-01  7.742250e-02  7.500000e-01
     vertex  1.320685e-01  8.355948e-02  7.500000e-01
     vertex  1.569901e-01 -1.315789e-03  7.500000e-01
   endloop
 endfacet
 facet normal  0.000000e+00  0.000000e+00  1.000000e+00
   outer loop
     vertex  2.198879e-01  7.742250e-02  7.500000e-01
     vertex  1.569901e-01 -1.315789e-03  7.500000e-01
     vertex  2.310940e-01 -6.341854e-03  7.500000e-01
   endloop
 endfacet
 facet normal  0.000000e+00  0.000000e+00  1.000000e+00
   outer loop
     vertex  1.150305e-01  2.063580e-01  7.500000e-01
     vertex  3.530849e-02  2.344015e-01  7.500000e-01
     vertex  6.521606e-02  1.414875e-01  7.500000e-01
   endloop
 endfacet
 facet normal  0.000000e+00  0.000000e+00  1.000000e+00
   outer loop
     vertex  1.794076e-01  1.516073e-01  7.500000e-01
     vertex  6.521606e-02  1.414875e-01  7.500000e-01
     vertex  1.320685e-01  8.355948e-02  7.500000e-01
   endloop
 endfacet
 facet normal  0.000000e+00  0.000000e+00  1.000000e+00
   outer loop
     vertex  1.794076e-01  1.516073e-01  7.500000e-01
     vertex  1.320685e-01  8.355948e-02  7.500000e-01
     vertex  2.198879e-01  7.742250e-02  7.500000e-01
   endloop
 endfacet
 facet normal  0.000000e+00  0.000000e+00  1.000000e+00
   outer loop
     vertex  1.794076e-01  1.516073e-01  7.500000e-01
     vertex  1.150305e-01  2.063580e-01  7.500000e-01
     vertex  6.521606e-02  1.414875e-01  7.500000e-01
   endloop
 endfacet
 facet normal  0.000000e+00  0.000000e+00  1.000000e+00
   outer loop
     vertex  6.484375e-01 -2.265625e-01  7.500000e-01
     vertex  1.638158e-01 -1.583059e-01  7.500000e-01
     vertex -6.938894e-18 -2.265625e-01  7.500000e-01
   endloop
 endfacet
 facet normal  0.000000e+00  0.000000e+00  1.000000e+00
   outer loop
     vertex  6.484375e-01 -1.583059e-01  7.500000e-01
     vertex  1.638158e-01 -1.583059e-01  7.500000e-01
     vertex  6.484375e-01 -2.265625e-01  7.500000e-01
   endloop
 endfacet
endsolid
