solid 
 facet normal  6.123234e-17 -6.123234e-17 -1.000000e+00
   outer loop
     vertex  4.070072e-34  1.085526e-01 -6.646932e-18
     vertex  7.500000e-01  0.000000e+00  4.592425e-17
     vertex  0.000000e+00  0.000000e+00  0.000000e+00
   endloop
 endfacet
 facet normal  6.123234e-17 -6.123234e-17 -1.000000e+00
   outer loop
     vertex  4.070072e-34  1.085526e-01 -6.646932e-18
     vertex  7.500000e-01  1.085526e-01  3.927732e-17
     vertex  7.500000e-01  0.000000e+00  4.592425e-17
   endloop
 endfacet
 facet normal  0.000000e+00  1.000000e+00  0.000000e+00
   outer loop
     vertex -1.435133e-17  1.085526e-01  2.343750e-01
     vertex  7.500000e-01  1.085526e-01  3.927732e-17
     vertex  4.070072e-34  1.085526e-01 -6.646932e-18
   endloop
 endfacet
 facet normal -0.000000e+00  1.000000e+00  0.000000e+00
   outer loop
     vertex -1.435133e-17  1.085526e-01  2.343750e-01
     vertex  7.500000e-01  1.085526e-01  2.343750e-01
     vertex  7.500000e-01  1.085526e-01  3.927732e-17
   endloop
 endfacet
 facet normal  0.000000e+00  0.000000e+00  1.000000e+00
   outer loop
     vertex -1.435133e-17  1.435133e-17  2.343750e-01
     vertex  7.500000e-01  1.085526e-01  2.343750e-01
     vertex -1.435133e-17  1.085526e-01  2.343750e-01
   endloop
 endfacet
 facet normal  0.000000e+00  0.000000e+00  1.000000e+00
   outer loop
     vertex -1.435133e-17  1.435133e-17  2.343750e-01
     vertex  7.500000e-01  1.435133e-17  2.343750e-01
     vertex  7.500000e-01  1.085526e-01  2.343750e-01
   endloop
 endfacet
 facet normal  0.000000e+00 -1.000000e+00  6.123234e-17
   outer loop
     vertex -1.057466e-17  1.057466e-17  1.726974e-01
     vertex  7.500000e-01  1.435133e-17  2.343750e-01
     vertex -1.435133e-17  1.435133e-17  2.343750e-01
   endloop
 endfacet
 facet normal  0.000000e+00 -1.000000e+00  6.123234e-17
   outer loop
     vertex -1.057466e-17  1.057466e-17  1.726974e-01
     vertex  7.500000e-01  1.057466e-17  1.726974e-01
     vertex  7.500000e-01  1.435133e-17  2.343750e-01
   endloop
 endfacet
 facet normal  0.000000e+00 -1.000000e+00  6.123234e-17
   outer loop
     vertex -4.834132e-18  4.834132e-18  7.894737e-02
     vertex  7.500000e-01  1.057466e-17  1.726974e-01
     vertex -1.057466e-17  1.057466e-17  1.726974e-01
   endloop
 endfacet
 facet normal  0.000000e+00 -1.000000e+00  6.123234e-17
   outer loop
     vertex -4.834132e-18  4.834132e-18  7.894737e-02
     vertex  7.500000e-01  4.834132e-18  7.894737e-02
     vertex  7.500000e-01  1.057466e-17  1.726974e-01
   endloop
 endfacet
 facet normal  0.000000e+00 -1.000000e+00  6.123234e-17
   outer loop
     vertex  0.000000e+00  0.000000e+00  0.000000e+00
     vertex  7.500000e-01  4.834132e-18  7.894737e-02
     vertex -4.834132e-18  4.834132e-18  7.894737e-02
   endloop
 endfacet
 facet normal -3.749399e-33 -1.000000e+00  6.123234e-17
   outer loop
     vertex  0.000000e+00  0.000000e+00  0.000000e+00
     vertex  7.500000e-01  0.000000e+00  4.592425e-17
     vertex  7.500000e-01  4.834132e-18  7.894737e-02
   endloop
 endfacet
 facet normal -1.000000e+00 -1.266219e-46 -6.123234e-17
   outer loop
     vertex  4.070072e-34  1.085526e-01 -6.646932e-18
     vertex  0.000000e+00  0.000000e+00  0.000000e+00
     vertex -4.834132e-18  4.834132e-18  7.894737e-02
   endloop
 endfacet
 facet normal -1.000000e+00 -0.000000e+00 -6.123234e-17
   outer loop
     vertex -1.435133e-17  1.085526e-01  2.343750e-01
     vertex -1.057466e-17  1.057466e-17  1.726974e-01
     vertex -1.435133e-17  1.435133e-17  2.343750e-01
   endloop
 endfacet
 facet normal -1.000000e+00  2.276641e-29 -6.123234e-17
   outer loop
     vertex -1.435133e-17  1.085526e-01  2.343750e-01
     vertex -4.834132e-18  4.834132e-18  7.894737e-02
     vertex -1.057466e-17  1.057466e-17  1.726974e-01
   endloop
 endfacet
 facet normal -1.000000e+00 -8.690219e-30 -6.123234e-17
   outer loop
     vertex -1.435133e-17  1.085526e-01  2.343750e-01
     vertex  4.070072e-34  1.085526e-01 -6.646932e-18
     vertex -4.834132e-18  4.834132e-18  7.894737e-02
   endloop
 endfacet
 facet normal  1.000000e+00  0.000000e+00  0.000000e+00
   outer loop
     vertex  7.500000e-01  1.085526e-01  3.927732e-17
     vertex  7.500000e-01  4.834132e-18  7.894737e-02
     vertex  7.500000e-01  0.000000e+00  4.592425e-17
   endloop
 endfacet
 facet normal  1.000000e+00  0.000000e+00  0.000000e+00
   outer loop
     vertex  7.500000e-01  1.085526e-01  2.343750e-01
     vertex  7.500000e-01  1.435133e-17  2.343750e-01
     vertex  7.500000e-01  1.057466e-17  1.726974e-01
   endloop
 endfacet
 facet normal  1.000000e+00  0.000000e+00  0.000000e+00
   outer loop
     vertex  7.500000e-01  1.085526e-01  2.343750e-01
     vertex  7.500000e-01  1.057466e-17  1.726974e-01
     vertex  7.500000e-01  4.834132e-18  7.894737e-02
   endloop
 endfacet
 facet normal  1.000000e+00  0.000000e+00  0.000000e+00
   outer loop
     vertex  7.500000e-01  1.085526e-01  2.343750e-01
     vertex  7.500000e-01  4.834132e-18  7.894737e-02
     vertex  7.500000e-01  1.085526e-01  3.927732e-17
   endloop
 endfacet
 facet normal  0.000000e+00  7.071068e-01 -7.071068e-01
   outer loop
     vertex -3.806879e-18 -3.289474e-04  7.779605e-02
     vertex  7.500000e-01 -6.250000e-02  1.562500e-02
     vertex  0.000000e+00 -6.250000e-02  1.562500e-02
   endloop
 endfacet
 facet normal  0.000000e+00  7.071068e-01 -7.071068e-01
   outer loop
     vertex -3.806879e-18 -3.289474e-04  7.779605e-02
     vertex  7.500000e-01 -3.289474e-04  7.779605e-02
     vertex  7.500000e-01 -6.250000e-02  1.562500e-02
   endloop
 endfacet
 facet normal  0.000000e+00  1.000000e+00  0.000000e+00
   outer loop
     vertex -9.587695e-18 -3.289474e-04  1.722039e-01
     vertex  7.500000e-01 -3.289474e-04  7.779605e-02
     vertex -3.806879e-18 -3.289474e-04  7.779605e-02
   endloop
 endfacet
 facet normal -0.000000e+00  1.000000e+00  0.000000e+00
   outer loop
     vertex -9.587695e-18 -3.289474e-04  1.722039e-01
     vertex  7.500000e-01 -3.289474e-04  1.722039e-01
     vertex  7.500000e-01 -3.289474e-04  7.779605e-02
   endloop
 endfacet
 facet normal  0.000000e+00  7.071068e-01  7.071068e-01
   outer loop
     vertex -1.339457e-17 -6.250000e-02  2.343750e-01
     vertex  7.500000e-01 -3.289474e-04  1.722039e-01
     vertex -9.587695e-18 -3.289474e-04  1.722039e-01
   endloop
 endfacet
 facet normal -0.000000e+00  7.071068e-01  7.071068e-01
   outer loop
     vertex -1.339457e-17 -6.250000e-02  2.343750e-01
     vertex  7.500000e-01 -6.250000e-02  2.343750e-01
     vertex  7.500000e-01 -3.289474e-04  1.722039e-01
   endloop
 endfacet
 facet normal  0.000000e+00 -1.000000e+00  0.000000e+00
   outer loop
     vertex  0.000000e+00 -6.250000e-02  1.562500e-02
     vertex  7.500000e-01 -6.250000e-02  2.343750e-01
     vertex -1.339457e-17 -6.250000e-02  2.343750e-01
   endloop
 endfacet
 facet normal  0.000000e+00 -1.000000e+00  0.000000e+00
   outer loop
     vertex  0.000000e+00 -6.250000e-02  1.562500e-02
     vertex  7.500000e-01 -6.250000e-02  1.562500e-02
     vertex  7.500000e-01 -6.250000e-02  2.343750e-01
   endloop
 endfacet
 facet normal -1.000000e+00  2.818952e-28 -6.123234e-17
   outer loop
     vertex -9.587695e-18 -3.289474e-04  1.722039e-01
     vertex -3.806879e-18 -3.289474e-04  7.779605e-02
     vertex  0.000000e+00 -6.250000e-02  1.562500e-02
   endloop
 endfacet
 facet normal -1.000000e+00 -4.638050e-28 -6.123234e-17
   outer loop
     vertex -1.339457e-17 -6.250000e-02  2.343750e-01
     vertex -9.587695e-18 -3.289474e-04  1.722039e-01
     vertex  0.000000e+00 -6.250000e-02  1.562500e-02
   endloop
 endfacet
 facet normal  1.000000e+00  0.000000e+00  0.000000e+00
   outer loop
     vertex  7.500000e-01 -3.289474e-04  1.722039e-01
     vertex  7.500000e-01 -6.250000e-02  1.562500e-02
     vertex  7.500000e-01 -3.289474e-04  7.779605e-02
   endloop
 endfacet
 facet normal  1.000000e+00  0.000000e+00  0.000000e+00
   outer loop
     vertex  7.500000e-01 -6.250000e-02  2.343750e-01
     vertex  7.500000e-01 -6.250000e-02  1.562500e-02
     vertex  7.500000e-01 -3.289474e-04  1.722039e-01
   endloop
 endfacet
endsolid
