solid 
 facet normal -9.701425e-01 -2.425356e-01  0.000000e+00
   outer loop
     vertex -4.769737e-02 -4.358553e-02  0.000000e+00
     vertex -6.250000e-02  1.562500e-02  7.500000e-01
     vertex -6.250000e-02  1.562500e-02  0.000000e+00
   endloop
 endfacet
 facet normal -9.701425e-01 -2.425356e-01  0.000000e+00
   outer loop
     vertex -4.769737e-02 -4.358553e-02  0.000000e+00
     vertex -4.769737e-02 -4.358553e-02  7.500000e-01
     vertex -6.250000e-02  1.562500e-02  7.500000e-01
   endloop
 endfacet
 facet normal -2.854766e-01 -9.583857e-01  0.000000e+00
   outer loop
     vertex  1.027961e-02 -6.085526e-02  0.000000e+00
     vertex -4.769737e-02 -4.358553e-02  7.500000e-01
     vertex -4.769737e-02 -4.358553e-02  0.000000e+00
   endloop
 endfacet
 facet normal -2.854766e-01 -9.583857e-01  0.000000e+00
   outer loop
     vertex  1.027961e-02 -6.085526e-02  0.000000e+00
     vertex  1.027961e-02 -6.085526e-02  7.500000e-01
     vertex -4.769737e-02 -4.358553e-02  7.500000e-01
   endloop
 endfacet
 facet normal  6.866235e-01 -7.270132e-01  0.000000e+00
   outer loop
     vertex  5.468750e-02 -1.891447e-02  0.000000e+00
     vertex  1.027961e-02 -6.085526e-02  7.500000e-01
     vertex  1.027961e-02 -6.085526e-02  0.000000e+00
   endloop
 endfacet
 facet normal  6.866235e-01 -7.270132e-01  0.000000e+00
   outer loop
     vertex  5.468750e-02 -1.891447e-02  0.000000e+00
     vertex  5.468750e-02 -1.891447e-02  7.500000e-01
     vertex  1.027961e-02 -6.085526e-02  7.500000e-01
   endloop
 endfacet
 facet normal  9.701425e-01  2.425356e-01  0.000000e+00
   outer loop
     vertex  3.988487e-02  4.029605e-02  0.000000e+00
     vertex  5.468750e-02 -1.891447e-02  7.500000e-01
     vertex  5.468750e-02 -1.891447e-02  0.000000e+00
   endloop
 endfacet
 facet normal  9.701425e-01  2.425356e-01 -0.000000e+00
   outer loop
     vertex  3.988487e-02  4.029605e-02  0.000000e+00
     vertex  3.988487e-02  4.029605e-02  7.500000e-01
     vertex  5.468750e-02 -1.891447e-02  7.500000e-01
   endloop
 endfacet
 facet normal  2.854766e-01  9.583857e-01  0.000000e+00
   outer loop
     vertex -1.809211e-02  5.756579e-02  0.000000e+00
     vertex  3.988487e-02  4.029605e-02  7.500000e-01
     vertex  3.988487e-02  4.029605e-02  0.000000e+00
   endloop
 endfacet
 facet normal  2.854766e-01  9.583857e-01 -0.000000e+00
   outer loop
     vertex -1.809211e-02  5.756579e-02  0.000000e+00
     vertex -1.809211e-02  5.756579e-02  7.500000e-01
     vertex  3.988487e-02  4.029605e-02  7.500000e-01
   endloop
 endfacet
 facet normal -6.866235e-01  7.270132e-01  0.000000e+00
   outer loop
     vertex -6.250000e-02  1.562500e-02  0.000000e+00
     vertex -1.809211e-02  5.756579e-02  7.500000e-01
     vertex -1.809211e-02  5.756579e-02  0.000000e+00
   endloop
 endfacet
 facet normal -6.866235e-01  7.270132e-01  0.000000e+00
   outer loop
     vertex -6.250000e-02  1.562500e-02  0.000000e+00
     vertex -6.250000e-02  1.562500e-02  7.500000e-01
     vertex -1.809211e-02  5.756579e-02  7.500000e-01
   endloop
 endfacet
 facet normal  0.000000e+00  0.000000e+00 -1.000000e+00
   outer loop
     vertex -1.809211e-02  5.756579e-02  0.000000e+00
     vertex -4.769737e-02 -4.358553e-02  0.000000e+00
     vertex -6.250000e-02  1.562500e-02  0.000000e+00
   endloop
 endfacet
 facet normal  0.000000e+00  0.000000e+00 -1.000000e+00
   outer loop
     vertex  3.988487e-02  4.029605e-02  0.000000e+00
     vertex  1.027961e-02 -6.085526e-02  0.000000e+00
     vertex -4.769737e-02 -4.358553e-02  0.000000e+00
   endloop
 endfacet
 facet normal  0.000000e+00 -0.000000e+00 -1.000000e+00
   outer loop
     vertex  3.988487e-02  4.029605e-02  0.000000e+00
     vertex  5.468750e-02 -1.891447e-02  0.000000e+00
     vertex  1.027961e-02 -6.085526e-02  0.000000e+00
   endloop
 endfacet
 facet normal -0.000000e+00  0.000000e+00 -1.000000e+00
   outer loop
     vertex  3.988487e-02  4.029605e-02  0.000000e+00
     vertex -4.769737e-02 -4.358553e-02  0.000000e+00
     vertex -1.809211e-02  5.756579e-02  0.000000e+00
   endloop
 endfacet
 facet normal  0.000000e+00  0.000000e+00  1.000000e+00
   outer loop
     vertex -1.809211e-02  5.756579e-02  7.500000e-01
     vertex -6.250000e-02  1.562500e-02  7.500000e-01
     vertex -4.769737e-02 -4.358553e-02  7.500000e-01
   endloop
 endfacet
 facet normal  0.000000e+00  0.000000e+00  1.000000e+00
   outer loop
     vertex  3.988487e-02  4.029605e-02  7.500000e-01
     vertex -4.769737e-02 -4.358553e-02  7.500000e-01
     vertex  1.027961e-02 -6.085526e-02  7.500000e-01
   endloop
 endfacet
 facet normal  0.000000e+00  0.000000e+00  1.000000e+00
   outer loop
     vertex  3.988487e-02  4.029605e-02  7.500000e-01
     vertex  1.027961e-02 -6.085526e-02  7.500000e-01
     vertex  5.468750e-02 -1.891447e-02  7.500000e-01
   endloop
 endfacet
 facet normal  0.000000e+00  0.000000e+00  1.000000e+00
   outer loop
     vertex  3.988487e-02  4.029605e-02  7.500000e-01
     vertex -1.809211e-02  5.756579e-02  7.500000e-01
     vertex -4.769737e-02 -4.358553e-02  7.500000e-01
   endloop
 endfacet
endsolid
