solid 
 facet normal  0.000000e+00 -1.000000e+00  0.000000e+00
   outer loop
     vertex  1.748355e-01  1.875000e-01  5.468750e-02
     vertex  1.484375e-01  1.875000e-01  4.453125e-01
     vertex  1.484375e-01  1.875000e-01  5.468750e-02
   endloop
 endfacet
 facet normal  0.000000e+00 -1.000000e+00  0.000000e+00
   outer loop
     vertex  1.748355e-01  1.875000e-01  5.468750e-02
     vertex  1.748355e-01  1.875000e-01  4.453125e-01
     vertex  1.484375e-01  1.875000e-01  4.453125e-01
   endloop
 endfacet
 facet normal -1.000000e+00  0.000000e+00  0.000000e+00
   outer loop
     vertex  1.484375e-01  1.875000e-01  5.468750e-02
     vertex  1.484375e-01  3.810855e-01  4.453125e-01
     vertex  1.484375e-01  3.810855e-01  5.468750e-02
   endloop
 endfacet
 facet normal -1.000000e+00  0.000000e+00  0.000000e+00
   outer loop
     vertex  1.484375e-01  1.875000e-01  5.468750e-02
     vertex  1.484375e-01  1.875000e-01  4.453125e-01
     vertex  1.484375e-01  3.810855e-01  4.453125e-01
   endloop
 endfacet
 facet normal -1.000000e+00  0.000000e+00  0.000000e+00
   outer loop
     vertex  1.748355e-01 -4.988487e-01  5.468750e-02
     vertex  1.748355e-01  1.875000e-01  4.453125e-01
     vertex  1.748355e-01  1.875000e-01  5.468750e-02
   endloop
 endfacet
 facet normal -1.000000e+00  0.000000e+00  0.000000e+00
   outer loop
     vertex  1.748355e-01 -4.988487e-01  5.468750e-02
     vertex  1.748355e-01 -4.988487e-01  4.453125e-01
     vertex  1.748355e-01  1.875000e-01  4.453125e-01
   endloop
 endfacet
 facet normal  0.000000e+00  0.000000e+00  1.000000e+00
   outer loop
     vertex  2.158864e-01 -5.550710e-01  5.468750e-02
     vertex  4.805832e-02 -6.275267e-01  5.468750e-02
     vertex  1.572346e-01 -6.835663e-01  5.468750e-02
   endloop
 endfacet
 facet normal  0.000000e+00  0.000000e+00  1.000000e+00
   outer loop
     vertex  2.689051e-01 -6.001834e-01  5.468750e-02
     vertex  1.572346e-01 -6.835663e-01  5.468750e-02
     vertex  2.766277e-01 -7.119423e-01  5.468750e-02
   endloop
 endfacet
 facet normal  0.000000e+00  0.000000e+00  1.000000e+00
   outer loop
     vertex  2.689051e-01 -6.001834e-01  5.468750e-02
     vertex  2.158864e-01 -5.550710e-01  5.468750e-02
     vertex  1.572346e-01 -6.835663e-01  5.468750e-02
   endloop
 endfacet
 facet normal  0.000000e+00  0.000000e+00  1.000000e+00
   outer loop
     vertex  1.748355e-01 -4.988487e-01  5.468750e-02
     vertex -4.459669e-02 -5.470596e-01  5.468750e-02
     vertex  4.805832e-02 -6.275267e-01  5.468750e-02
   endloop
 endfacet
 facet normal  0.000000e+00  0.000000e+00  1.000000e+00
   outer loop
     vertex  1.748355e-01 -4.988487e-01  5.468750e-02
     vertex -1.153799e-01 -4.468118e-01  5.468750e-02
     vertex -4.459669e-02 -5.470596e-01  5.468750e-02
   endloop
 endfacet
 facet normal  0.000000e+00  0.000000e+00  1.000000e+00
   outer loop
     vertex  1.748355e-01 -4.988487e-01  5.468750e-02
     vertex  4.805832e-02 -6.275267e-01  5.468750e-02
     vertex  2.158864e-01 -5.550710e-01  5.468750e-02
   endloop
 endfacet
 facet normal  0.000000e+00  0.000000e+00  1.000000e+00
   outer loop
     vertex  2.618568e-01 -5.648030e-01  5.468750e-02
     vertex  2.307571e-01 -5.348733e-01  5.468750e-02
     vertex  2.603023e-01 -5.648244e-01  5.468750e-02
   endloop
 endfacet
 facet normal  0.000000e+00  0.000000e+00  1.000000e+00
   outer loop
     vertex  3.309742e-01 -6.317038e-01  5.468750e-02
     vertex  2.766277e-01 -7.119423e-01  5.468750e-02
     vertex  3.993429e-01 -7.110162e-01  5.468750e-02
   endloop
 endfacet
 facet normal  0.000000e+00  0.000000e+00  1.000000e+00
   outer loop
     vertex  3.309742e-01 -6.317038e-01  5.468750e-02
     vertex  2.689051e-01 -6.001834e-01  5.468750e-02
     vertex  2.766277e-01 -7.119423e-01  5.468750e-02
   endloop
 endfacet
 facet normal  0.000000e+00  0.000000e+00  1.000000e+00
   outer loop
     vertex  2.047697e-01 -5.004112e-01  5.468750e-02
     vertex  2.279774e-01 -5.343349e-01  5.468750e-02
     vertex  2.307571e-01 -5.348733e-01  5.468750e-02
   endloop
 endfacet
 facet normal  0.000000e+00  0.000000e+00  1.000000e+00
   outer loop
     vertex  3.986785e-01 -6.478977e-01  5.468750e-02
     vertex  3.309742e-01 -6.317038e-01  5.468750e-02
     vertex  3.993429e-01 -7.110162e-01  5.468750e-02
   endloop
 endfacet
 facet normal  0.000000e+00  0.000000e+00  1.000000e+00
   outer loop
     vertex  2.047697e-01 -2.109375e-01  5.468750e-02
     vertex  2.012336e-01 -4.988487e-01  5.468750e-02
     vertex  2.047697e-01 -5.004112e-01  5.468750e-02
   endloop
 endfacet
 facet normal  0.000000e+00  0.000000e+00  1.000000e+00
   outer loop
     vertex -1.768092e-01  2.166941e-01  5.468750e-02
     vertex -2.031250e-01  2.166941e-01  5.468750e-02
     vertex -2.031250e-01  2.153783e-01  5.468750e-02
   endloop
 endfacet
 facet normal  0.000000e+00  0.000000e+00  1.000000e+00
   outer loop
     vertex -1.768092e-01  2.166941e-01  5.468750e-02
     vertex -2.031250e-01  2.153783e-01  5.468750e-02
     vertex -1.764803e-01  2.153783e-01  5.468750e-02
   endloop
 endfacet
 facet normal  0.000000e+00  0.000000e+00  1.000000e+00
   outer loop
     vertex -1.431743e-01  1.887336e-01  5.468750e-02
     vertex -1.764803e-01  1.887336e-01  5.468750e-02
     vertex -1.764803e-01 -2.109375e-01  5.468750e-02
   endloop
 endfacet
 facet normal  0.000000e+00  0.000000e+00  1.000000e+00
   outer loop
     vertex -1.431743e-01  4.085526e-01  5.468750e-02
     vertex -1.768092e-01  4.140625e-01  5.468750e-02
     vertex -1.764803e-01  4.085526e-01  5.468750e-02
   endloop
 endfacet
 facet normal  0.000000e+00  0.000000e+00  1.000000e+00
   outer loop
     vertex  1.484375e-01  1.875000e-01  5.468750e-02
     vertex -1.431743e-01  1.887336e-01  5.468750e-02
     vertex -1.764803e-01 -2.109375e-01  5.468750e-02
   endloop
 endfacet
 facet normal  0.000000e+00  0.000000e+00  1.000000e+00
   outer loop
     vertex  2.047697e-01  2.166941e-01  5.468750e-02
     vertex  1.784539e-01  2.166941e-01  5.468750e-02
     vertex  2.012336e-01  2.138980e-01  5.468750e-02
   endloop
 endfacet
 facet normal  0.000000e+00  0.000000e+00  1.000000e+00
   outer loop
     vertex  1.484375e-01  3.810855e-01  5.468750e-02
     vertex -1.431743e-01  1.887336e-01  5.468750e-02
     vertex  1.484375e-01  1.875000e-01  5.468750e-02
   endloop
 endfacet
 facet normal  0.000000e+00  0.000000e+00  1.000000e+00
   outer loop
     vertex  1.484375e-01  3.810855e-01  5.468750e-02
     vertex -1.431743e-01  3.819079e-01  5.468750e-02
     vertex -1.431743e-01  1.887336e-01  5.468750e-02
   endloop
 endfacet
 facet normal  0.000000e+00  0.000000e+00  1.000000e+00
   outer loop
     vertex  1.484375e-01  4.074836e-01  5.468750e-02
     vertex -1.431743e-01  4.085526e-01  5.468750e-02
     vertex -1.431743e-01  3.819079e-01  5.468750e-02
   endloop
 endfacet
 facet normal  0.000000e+00  0.000000e+00  1.000000e+00
   outer loop
     vertex  1.484375e-01  4.074836e-01  5.468750e-02
     vertex -1.431743e-01  3.819079e-01  5.468750e-02
     vertex  1.484375e-01  3.810855e-01  5.468750e-02
   endloop
 endfacet
 facet normal  0.000000e+00  0.000000e+00  1.000000e+00
   outer loop
     vertex  1.784539e-01  4.140625e-01  5.468750e-02
     vertex  1.484375e-01  4.074836e-01  5.468750e-02
     vertex  1.748355e-01  4.074836e-01  5.468750e-02
   endloop
 endfacet
 facet normal  0.000000e+00  0.000000e+00  1.000000e+00
   outer loop
     vertex -1.768092e-01  4.140625e-01  5.468750e-02
     vertex -1.768092e-01  2.166941e-01  5.468750e-02
     vertex -1.764803e-01  4.085526e-01  5.468750e-02
   endloop
 endfacet
 facet normal  0.000000e+00 -0.000000e+00  1.000000e+00
   outer loop
     vertex -1.764803e-01  2.153783e-01  5.468750e-02
     vertex -1.764803e-01  4.085526e-01  5.468750e-02
     vertex -1.768092e-01  2.166941e-01  5.468750e-02
   endloop
 endfacet
 facet normal  0.000000e+00 -0.000000e+00  1.000000e+00
   outer loop
     vertex  1.748355e-01 -4.988487e-01  5.468750e-02
     vertex  1.748355e-01  1.875000e-01  5.468750e-02
     vertex  1.484375e-01  1.875000e-01  5.468750e-02
   endloop
 endfacet
 facet normal  0.000000e+00  0.000000e+00  1.000000e+00
   outer loop
     vertex  1.748355e-01 -4.988487e-01  5.468750e-02
     vertex  1.484375e-01  1.875000e-01  5.468750e-02
     vertex -1.153799e-01 -4.468118e-01  5.468750e-02
   endloop
 endfacet
 facet normal  0.000000e+00 -0.000000e+00  1.000000e+00
   outer loop
     vertex -1.153799e-01 -4.468118e-01  5.468750e-02
     vertex  1.484375e-01  1.875000e-01  5.468750e-02
     vertex -1.602039e-01 -3.325721e-01  5.468750e-02
   endloop
 endfacet
 facet normal  0.000000e+00 -0.000000e+00  1.000000e+00
   outer loop
     vertex -1.602039e-01 -3.325721e-01  5.468750e-02
     vertex  1.484375e-01  1.875000e-01  5.468750e-02
     vertex -1.764803e-01 -2.109375e-01  5.468750e-02
   endloop
 endfacet
 facet normal  0.000000e+00  0.000000e+00  1.000000e+00
   outer loop
     vertex  1.748355e-01  4.074836e-01  5.468750e-02
     vertex  1.748355e-01  2.138980e-01  5.468750e-02
     vertex  1.784539e-01  2.166941e-01  5.468750e-02
   endloop
 endfacet
 facet normal -0.000000e+00  0.000000e+00  1.000000e+00
   outer loop
     vertex  1.748355e-01  4.074836e-01  5.468750e-02
     vertex  1.784539e-01  2.166941e-01  5.468750e-02
     vertex  1.784539e-01  4.140625e-01  5.468750e-02
   endloop
 endfacet
 facet normal  0.000000e+00  0.000000e+00  1.000000e+00
   outer loop
     vertex  1.748355e-01  2.138980e-01  5.468750e-02
     vertex  2.012336e-01  2.138980e-01  5.468750e-02
     vertex  1.784539e-01  2.166941e-01  5.468750e-02
   endloop
 endfacet
 facet normal -0.000000e+00  0.000000e+00  1.000000e+00
   outer loop
     vertex  2.012336e-01  2.138980e-01  5.468750e-02
     vertex  2.012336e-01 -4.988487e-01  5.468750e-02
     vertex  2.047697e-01  2.166941e-01  5.468750e-02
   endloop
 endfacet
 facet normal  0.000000e+00  0.000000e+00  1.000000e+00
   outer loop
     vertex  2.047697e-01  2.166941e-01  5.468750e-02
     vertex  2.012336e-01 -4.988487e-01  5.468750e-02
     vertex  2.047697e-01 -2.109375e-01  5.468750e-02
   endloop
 endfacet
 facet normal -0.000000e+00  0.000000e+00  1.000000e+00
   outer loop
     vertex  2.603023e-01 -5.648244e-01  5.468750e-02
     vertex  2.972895e-01 -5.894506e-01  5.468750e-02
     vertex  2.618568e-01 -5.648030e-01  5.468750e-02
   endloop
 endfacet
 facet normal  0.000000e+00  0.000000e+00  1.000000e+00
   outer loop
     vertex  2.279774e-01 -5.343349e-01  5.468750e-02
     vertex  2.603023e-01 -5.648244e-01  5.468750e-02
     vertex  2.307571e-01 -5.348733e-01  5.468750e-02
   endloop
 endfacet
 facet normal  0.000000e+00  0.000000e+00  1.000000e+00
   outer loop
     vertex  2.012336e-01 -4.988487e-01  5.468750e-02
     vertex  2.279774e-01 -5.343349e-01  5.468750e-02
     vertex  2.047697e-01 -5.004112e-01  5.468750e-02
   endloop
 endfacet
 facet normal  0.000000e+00  0.000000e+00  1.000000e+00
   outer loop
     vertex  1.784539e-01  4.140625e-01  5.468750e-02
     vertex -1.768092e-01  4.140625e-01  5.468750e-02
     vertex -1.431743e-01  4.085526e-01  5.468750e-02
   endloop
 endfacet
 facet normal  0.000000e+00  0.000000e+00  1.000000e+00
   outer loop
     vertex  1.784539e-01  4.140625e-01  5.468750e-02
     vertex -1.431743e-01  4.085526e-01  5.468750e-02
     vertex  1.484375e-01  4.074836e-01  5.468750e-02
   endloop
 endfacet
 facet normal  0.000000e+00  0.000000e+00  1.000000e+00
   outer loop
     vertex  2.443681e-01 -5.510806e-01  4.453125e-01
     vertex  2.167335e-01 -5.559797e-01  4.453125e-01
     vertex  2.709789e-01 -6.015519e-01  4.453125e-01
   endloop
 endfacet
 facet normal  0.000000e+00  0.000000e+00  1.000000e+00
   outer loop
     vertex  2.012336e-01 -4.988487e-01  4.453125e-01
     vertex  1.748355e-01 -4.988487e-01  4.453125e-01
     vertex  2.167335e-01 -5.559797e-01  4.453125e-01
   endloop
 endfacet
 facet normal  0.000000e+00  0.000000e+00  1.000000e+00
   outer loop
     vertex  2.012336e-01 -4.988487e-01  4.453125e-01
     vertex  2.167335e-01 -5.559797e-01  4.453125e-01
     vertex  2.443681e-01 -5.510806e-01  4.453125e-01
   endloop
 endfacet
 facet normal  0.000000e+00  0.000000e+00  1.000000e+00
   outer loop
     vertex  2.993903e-01 -5.905942e-01  4.453125e-01
     vertex  2.709789e-01 -6.015519e-01  4.453125e-01
     vertex  3.344803e-01 -6.329680e-01  4.453125e-01
   endloop
 endfacet
 facet normal  0.000000e+00  0.000000e+00  1.000000e+00
   outer loop
     vertex  2.993903e-01 -5.905942e-01  4.453125e-01
     vertex  2.443681e-01 -5.510806e-01  4.453125e-01
     vertex  2.709789e-01 -6.015519e-01  4.453125e-01
   endloop
 endfacet
 facet normal  0.000000e+00  0.000000e+00  1.000000e+00
   outer loop
     vertex  3.626662e-01 -6.147796e-01  4.453125e-01
     vertex  2.993903e-01 -5.905942e-01  4.453125e-01
     vertex  3.344803e-01 -6.329680e-01  4.453125e-01
   endloop
 endfacet
 facet normal  0.000000e+00  0.000000e+00  1.000000e+00
   outer loop
     vertex  4.036184e-01 -6.484375e-01  4.453125e-01
     vertex  3.626662e-01 -6.147796e-01  4.453125e-01
     vertex  3.344803e-01 -6.329680e-01  4.453125e-01
   endloop
 endfacet
 facet normal  0.000000e+00  0.000000e+00  1.000000e+00
   outer loop
     vertex  4.300164e-01 -6.220395e-01  4.453125e-01
     vertex  4.036184e-01 -6.484375e-01  4.453125e-01
     vertex  4.300164e-01 -6.484375e-01  4.453125e-01
   endloop
 endfacet
 facet normal  0.000000e+00  0.000000e+00  1.000000e+00
   outer loop
     vertex  4.300164e-01 -6.220395e-01  4.453125e-01
     vertex  3.626662e-01 -6.147796e-01  4.453125e-01
     vertex  4.036184e-01 -6.484375e-01  4.453125e-01
   endloop
 endfacet
 facet normal  0.000000e+00  0.000000e+00  1.000000e+00
   outer loop
     vertex  1.748355e-01  1.875000e-01  4.453125e-01
     vertex  1.748355e-01 -4.988487e-01  4.453125e-01
     vertex  2.012336e-01 -4.988487e-01  4.453125e-01
   endloop
 endfacet
 facet normal  0.000000e+00  0.000000e+00  1.000000e+00
   outer loop
     vertex  1.748355e-01  2.138980e-01  4.453125e-01
     vertex  1.484375e-01  1.875000e-01  4.453125e-01
     vertex  1.748355e-01  1.875000e-01  4.453125e-01
   endloop
 endfacet
 facet normal  0.000000e+00  0.000000e+00  1.000000e+00
   outer loop
     vertex  2.012336e-01  2.138980e-01  4.453125e-01
     vertex  1.748355e-01  1.875000e-01  4.453125e-01
     vertex  2.012336e-01 -4.988487e-01  4.453125e-01
   endloop
 endfacet
 facet normal  0.000000e+00  0.000000e+00  1.000000e+00
   outer loop
     vertex  2.012336e-01  2.138980e-01  4.453125e-01
     vertex  1.748355e-01  2.138980e-01  4.453125e-01
     vertex  1.748355e-01  1.875000e-01  4.453125e-01
   endloop
 endfacet
 facet normal  0.000000e+00  0.000000e+00  1.000000e+00
   outer loop
     vertex  1.484375e-01  3.810855e-01  4.453125e-01
     vertex  1.484375e-01  1.875000e-01  4.453125e-01
     vertex  1.748355e-01  2.138980e-01  4.453125e-01
   endloop
 endfacet
 facet normal  0.000000e+00  0.000000e+00  1.000000e+00
   outer loop
     vertex  1.748355e-01  4.074836e-01  4.453125e-01
     vertex  1.484375e-01  4.074836e-01  4.453125e-01
     vertex  1.484375e-01  3.810855e-01  4.453125e-01
   endloop
 endfacet
 facet normal  0.000000e+00 -0.000000e+00  1.000000e+00
   outer loop
     vertex  1.748355e-01  2.138980e-01  4.453125e-01
     vertex  1.748355e-01  4.074836e-01  4.453125e-01
     vertex  1.484375e-01  3.810855e-01  4.453125e-01
   endloop
 endfacet
 facet normal -1.000000e+00  0.000000e+00  0.000000e+00
   outer loop
     vertex  1.484375e-01  3.810855e-01  5.468750e-02
     vertex  1.484375e-01  4.074836e-01  4.453125e-01
     vertex  1.484375e-01  4.074836e-01  5.468750e-02
   endloop
 endfacet
 facet normal -1.000000e+00  0.000000e+00  0.000000e+00
   outer loop
     vertex  1.484375e-01  3.810855e-01  5.468750e-02
     vertex  1.484375e-01  3.810855e-01  4.453125e-01
     vertex  1.484375e-01  4.074836e-01  4.453125e-01
   endloop
 endfacet
 facet normal -1.030797e-01 -9.946731e-01  0.000000e+00
   outer loop
     vertex  4.019708e-01 -6.482668e-01  5.468750e-02
     vertex  4.036184e-01 -6.484375e-01  5.468750e-02
     vertex  4.036184e-01 -6.484375e-01  4.453125e-01
   endloop
 endfacet
 facet normal -1.086299e-01 -9.940823e-01  2.366887e-05
   outer loop
     vertex  4.003241e-01 -6.480868e-01  5.468750e-02
     vertex  4.019708e-01 -6.482668e-01  5.468750e-02
     vertex  4.036184e-01 -6.484375e-01  4.453125e-01
   endloop
 endfacet
 facet normal -2.183492e-01 -9.758697e-01  1.412692e-03
   outer loop
     vertex  3.986785e-01 -6.478977e-01  5.468750e-02
     vertex  4.036184e-01 -6.484375e-01  4.453125e-01
     vertex  3.344803e-01 -6.329680e-01  4.453125e-01
   endloop
 endfacet
 facet normal -1.141768e-01 -9.934604e-01  7.100586e-05
   outer loop
     vertex  3.986785e-01 -6.478977e-01  5.468750e-02
     vertex  4.003241e-01 -6.480868e-01  5.468750e-02
     vertex  4.036184e-01 -6.484375e-01  4.453125e-01
   endloop
 endfacet
 facet normal -4.434314e-01 -8.963076e-01  1.079370e-03
   outer loop
     vertex  3.309742e-01 -6.317038e-01  5.468750e-02
     vertex  3.344803e-01 -6.329680e-01  4.453125e-01
     vertex  2.709789e-01 -6.015519e-01  4.453125e-01
   endloop
 endfacet
 facet normal -2.326236e-01 -9.725663e-01 -1.059525e-03
   outer loop
     vertex  3.309742e-01 -6.317038e-01  5.468750e-02
     vertex  3.986785e-01 -6.478977e-01  5.468750e-02
     vertex  3.344803e-01 -6.329680e-01  4.453125e-01
   endloop
 endfacet
 facet normal -6.432416e-01 -7.656629e-01  7.328095e-04
   outer loop
     vertex  2.689051e-01 -6.001834e-01  5.468750e-02
     vertex  2.709789e-01 -6.015519e-01  4.453125e-01
     vertex  2.167335e-01 -5.559797e-01  4.453125e-01
   endloop
 endfacet
 facet normal -4.527875e-01 -8.916182e-01 -7.195827e-04
   outer loop
     vertex  2.689051e-01 -6.001834e-01  5.468750e-02
     vertex  3.309742e-01 -6.317038e-01  5.468750e-02
     vertex  2.709789e-01 -6.015519e-01  4.453125e-01
   endloop
 endfacet
 facet normal -8.063921e-01 -5.913811e-01  3.730174e-04
   outer loop
     vertex  2.158864e-01 -5.550710e-01  5.468750e-02
     vertex  2.167335e-01 -5.559797e-01  4.453125e-01
     vertex  1.748355e-01 -4.988487e-01  4.453125e-01
   endloop
 endfacet
 facet normal -6.480369e-01 -7.616088e-01 -3.664056e-04
   outer loop
     vertex  2.158864e-01 -5.550710e-01  5.468750e-02
     vertex  2.689051e-01 -6.001834e-01  5.468750e-02
     vertex  2.167335e-01 -5.559797e-01  4.453125e-01
   endloop
 endfacet
 facet normal -8.076282e-01 -5.896920e-01  0.000000e+00
   outer loop
     vertex  1.748355e-01 -4.988487e-01  5.468750e-02
     vertex  2.158864e-01 -5.550710e-01  5.468750e-02
     vertex  1.748355e-01 -4.988487e-01  4.453125e-01
   endloop
 endfacet
 facet normal -1.000000e+00  0.000000e+00  0.000000e+00
   outer loop
     vertex -1.768092e-01  2.166941e-01  0.000000e+00
     vertex -1.768092e-01  4.140625e-01  5.468750e-02
     vertex -1.768092e-01  4.140625e-01  0.000000e+00
   endloop
 endfacet
 facet normal -1.000000e+00  0.000000e+00  0.000000e+00
   outer loop
     vertex -1.768092e-01  2.166941e-01  0.000000e+00
     vertex -1.768092e-01  2.166941e-01  5.468750e-02
     vertex -1.768092e-01  4.140625e-01  5.468750e-02
   endloop
 endfacet
 facet normal  0.000000e+00  1.000000e+00  0.000000e+00
   outer loop
     vertex -1.768092e-01  4.140625e-01  0.000000e+00
     vertex  1.784539e-01  4.140625e-01  5.468750e-02
     vertex  1.784539e-01  4.140625e-01  0.000000e+00
   endloop
 endfacet
 facet normal  0.000000e+00  1.000000e+00  0.000000e+00
   outer loop
     vertex -1.768092e-01  4.140625e-01  0.000000e+00
     vertex -1.768092e-01  4.140625e-01  5.468750e-02
     vertex  1.784539e-01  4.140625e-01  5.468750e-02
   endloop
 endfacet
 facet normal  1.000000e+00  0.000000e+00  0.000000e+00
   outer loop
     vertex  1.784539e-01  4.140625e-01  0.000000e+00
     vertex  1.784539e-01  2.166941e-01  5.468750e-02
     vertex  1.784539e-01  2.166941e-01  0.000000e+00
   endloop
 endfacet
 facet normal  1.000000e+00  0.000000e+00 -0.000000e+00
   outer loop
     vertex  1.784539e-01  4.140625e-01  0.000000e+00
     vertex  1.784539e-01  4.140625e-01  5.468750e-02
     vertex  1.784539e-01  2.166941e-01  5.468750e-02
   endloop
 endfacet
 facet normal  0.000000e+00  1.000000e+00  0.000000e+00
   outer loop
     vertex  1.784539e-01  2.166941e-01  0.000000e+00
     vertex  2.047697e-01  2.166941e-01  5.468750e-02
     vertex  2.047697e-01  2.166941e-01  0.000000e+00
   endloop
 endfacet
 facet normal  0.000000e+00  1.000000e+00  0.000000e+00
   outer loop
     vertex  1.784539e-01  2.166941e-01  0.000000e+00
     vertex  1.784539e-01  2.166941e-01  5.468750e-02
     vertex  2.047697e-01  2.166941e-01  5.468750e-02
   endloop
 endfacet
 facet normal  1.000000e+00  0.000000e+00  0.000000e+00
   outer loop
     vertex  2.047697e-01  2.166941e-01  0.000000e+00
     vertex  2.047697e-01 -2.109375e-01  5.468750e-02
     vertex  2.047697e-01 -2.109375e-01  0.000000e+00
   endloop
 endfacet
 facet normal  1.000000e+00  0.000000e+00 -0.000000e+00
   outer loop
     vertex  2.047697e-01  2.166941e-01  0.000000e+00
     vertex  2.047697e-01  2.166941e-01  5.468750e-02
     vertex  2.047697e-01 -2.109375e-01  5.468750e-02
   endloop
 endfacet
 facet normal  1.000000e+00  0.000000e+00  0.000000e+00
   outer loop
     vertex  2.047697e-01 -2.109375e-01  0.000000e+00
     vertex  2.047697e-01 -5.004112e-01  5.468750e-02
     vertex  2.047697e-01 -5.004112e-01  0.000000e+00
   endloop
 endfacet
 facet normal  1.000000e+00  0.000000e+00 -0.000000e+00
   outer loop
     vertex  2.047697e-01 -2.109375e-01  0.000000e+00
     vertex  2.047697e-01 -2.109375e-01  5.468750e-02
     vertex  2.047697e-01 -5.004112e-01  5.468750e-02
   endloop
 endfacet
 facet normal  1.671330e-01  9.859344e-01 -0.000000e+00
   outer loop
     vertex  4.087171e-01 -6.254112e-01  0.000000e+00
     vertex  3.699689e-01 -6.188427e-01  5.468750e-02
     vertex  4.087171e-01 -6.254112e-01  5.468750e-02
   endloop
 endfacet
 facet normal  3.071229e-01  9.516534e-01  5.603902e-03
   outer loop
     vertex  3.289879e-01 -6.052950e-01  0.000000e+00
     vertex  3.325674e-01 -6.067723e-01  5.468750e-02
     vertex  3.699689e-01 -6.188427e-01  5.468750e-02
   endloop
 endfacet
 facet normal  4.407379e-01  8.976241e-01 -4.601033e-03
   outer loop
     vertex  3.289879e-01 -6.052950e-01  0.000000e+00
     vertex  2.972895e-01 -5.894506e-01  5.468750e-02
     vertex  3.325674e-01 -6.067723e-01  5.468750e-02
   endloop
 endfacet
 facet normal  2.442445e-01  9.680496e-01  5.678464e-02
   outer loop
     vertex  3.289879e-01 -6.052950e-01  0.000000e+00
     vertex  3.699689e-01 -6.188427e-01  5.468750e-02
     vertex  4.087171e-01 -6.254112e-01  0.000000e+00
   endloop
 endfacet
 facet normal  5.710345e-01  8.209033e-01  6.104920e-03
   outer loop
     vertex  2.588804e-01 -5.623259e-01  0.000000e+00
     vertex  2.618568e-01 -5.648030e-01  5.468750e-02
     vertex  2.972895e-01 -5.894506e-01  5.468750e-02
   endloop
 endfacet
 facet normal  6.934160e-01  7.205194e-01 -5.102598e-03
   outer loop
     vertex  2.588804e-01 -5.623259e-01  0.000000e+00
     vertex  2.307571e-01 -5.348733e-01  5.468750e-02
     vertex  2.618568e-01 -5.648030e-01  5.468750e-02
   endloop
 endfacet
 facet normal  5.217484e-01  8.512736e-01  5.578392e-02
   outer loop
     vertex  2.588804e-01 -5.623259e-01  0.000000e+00
     vertex  2.972895e-01 -5.894506e-01  5.468750e-02
     vertex  3.289879e-01 -6.052950e-01  0.000000e+00
   endloop
 endfacet
 facet normal  7.984311e-01  6.020862e-01 -0.000000e+00
   outer loop
     vertex  2.047697e-01 -5.004112e-01  0.000000e+00
     vertex  2.047697e-01 -5.004112e-01  5.468750e-02
     vertex  2.307571e-01 -5.348733e-01  5.468750e-02
   endloop
 endfacet
 facet normal  7.517517e-01  6.569969e-01  5.678464e-02
   outer loop
     vertex  2.047697e-01 -5.004112e-01  0.000000e+00
     vertex  2.307571e-01 -5.348733e-01  5.468750e-02
     vertex  2.588804e-01 -5.623259e-01  0.000000e+00
   endloop
 endfacet
 facet normal  6.589141e-02  9.978268e-01  0.000000e+00
   outer loop
     vertex  3.840923e-01 -6.190069e-01  5.468750e-02
     vertex  4.300164e-01 -6.220395e-01  4.453125e-01
     vertex  4.300164e-01 -6.220395e-01  5.468750e-02
   endloop
 endfacet
 facet normal  1.071707e-01  9.942287e-01 -4.880966e-03
   outer loop
     vertex  3.840923e-01 -6.190069e-01  5.468750e-02
     vertex  3.626662e-01 -6.147796e-01  4.453125e-01
     vertex  4.300164e-01 -6.220395e-01  4.453125e-01
   endloop
 endfacet
 facet normal  3.570258e-01  9.340804e-01 -5.134629e-03
   outer loop
     vertex  3.393958e-01 -6.080324e-01  5.468750e-02
     vertex  2.993903e-01 -5.905942e-01  4.453125e-01
     vertex  3.626662e-01 -6.147796e-01  4.453125e-01
   endloop
 endfacet
 facet normal  2.384496e-01  9.711515e-01  2.569546e-03
   outer loop
     vertex  3.393958e-01 -6.080324e-01  5.468750e-02
     vertex  3.626662e-01 -6.147796e-01  4.453125e-01
     vertex  3.840923e-01 -6.190069e-01  5.468750e-02
   endloop
 endfacet
 facet normal  4.037394e-01  9.148739e-01  5.069093e-04
   outer loop
     vertex  2.972895e-01 -5.894506e-01  5.468750e-02
     vertex  2.993903e-01 -5.905942e-01  4.453125e-01
     vertex  3.393958e-01 -6.080324e-01  5.468750e-02
   endloop
 endfacet
 facet normal  5.833016e-01  8.122416e-01 -4.784075e-03
   outer loop
     vertex  2.603023e-01 -5.648244e-01  5.468750e-02
     vertex  2.443681e-01 -5.510806e-01  4.453125e-01
     vertex  2.993903e-01 -5.905942e-01  4.453125e-01
   endloop
 endfacet
 facet normal  5.542040e-01  8.323807e-01 -5.438173e-04
   outer loop
     vertex  2.603023e-01 -5.648244e-01  5.468750e-02
     vertex  2.993903e-01 -5.905942e-01  4.453125e-01
     vertex  2.972895e-01 -5.894506e-01  5.468750e-02
   endloop
 endfacet
 facet normal  7.710504e-01  6.367541e-01 -5.056243e-03
   outer loop
     vertex  2.279774e-01 -5.343349e-01  5.468750e-02
     vertex  2.012336e-01 -4.988487e-01  4.453125e-01
     vertex  2.443681e-01 -5.510806e-01  4.453125e-01
   endloop
 endfacet
 facet normal  6.861510e-01  7.274552e-01  2.394425e-03
   outer loop
     vertex  2.279774e-01 -5.343349e-01  5.468750e-02
     vertex  2.443681e-01 -5.510806e-01  4.453125e-01
     vertex  2.603023e-01 -5.648244e-01  5.468750e-02
   endloop
 endfacet
 facet normal  7.986018e-01  6.018598e-01 -0.000000e+00
   outer loop
     vertex  2.012336e-01 -4.988487e-01  5.468750e-02
     vertex  2.012336e-01 -4.988487e-01  4.453125e-01
     vertex  2.279774e-01 -5.343349e-01  5.468750e-02
   endloop
 endfacet
 facet normal  1.000000e+00  0.000000e+00  0.000000e+00
   outer loop
     vertex  2.012336e-01  2.138980e-01  5.468750e-02
     vertex  2.012336e-01 -4.988487e-01  4.453125e-01
     vertex  2.012336e-01 -4.988487e-01  5.468750e-02
   endloop
 endfacet
 facet normal  1.000000e+00  0.000000e+00 -0.000000e+00
   outer loop
     vertex  2.012336e-01  2.138980e-01  5.468750e-02
     vertex  2.012336e-01  2.138980e-01  4.453125e-01
     vertex  2.012336e-01 -4.988487e-01  4.453125e-01
   endloop
 endfacet
 facet normal  0.000000e+00  1.000000e+00  0.000000e+00
   outer loop
     vertex  1.748355e-01  2.138980e-01  5.468750e-02
     vertex  2.012336e-01  2.138980e-01  4.453125e-01
     vertex  2.012336e-01  2.138980e-01  5.468750e-02
   endloop
 endfacet
 facet normal  0.000000e+00  1.000000e+00  0.000000e+00
   outer loop
     vertex  1.748355e-01  2.138980e-01  5.468750e-02
     vertex  1.748355e-01  2.138980e-01  4.453125e-01
     vertex  2.012336e-01  2.138980e-01  4.453125e-01
   endloop
 endfacet
 facet normal  1.000000e+00  0.000000e+00  0.000000e+00
   outer loop
     vertex  1.748355e-01  4.074836e-01  5.468750e-02
     vertex  1.748355e-01  2.138980e-01  4.453125e-01
     vertex  1.748355e-01  2.138980e-01  5.468750e-02
   endloop
 endfacet
 facet normal  1.000000e+00  0.000000e+00 -0.000000e+00
   outer loop
     vertex  1.748355e-01  4.074836e-01  5.468750e-02
     vertex  1.748355e-01  4.074836e-01  4.453125e-01
     vertex  1.748355e-01  2.138980e-01  4.453125e-01
   endloop
 endfacet
 facet normal  0.000000e+00  1.000000e+00  0.000000e+00
   outer loop
     vertex  1.484375e-01  4.074836e-01  5.468750e-02
     vertex  1.748355e-01  4.074836e-01  4.453125e-01
     vertex  1.748355e-01  4.074836e-01  5.468750e-02
   endloop
 endfacet
 facet normal  0.000000e+00  1.000000e+00  0.000000e+00
   outer loop
     vertex  1.484375e-01  4.074836e-01  5.468750e-02
     vertex  1.484375e-01  4.074836e-01  4.453125e-01
     vertex  1.748355e-01  4.074836e-01  4.453125e-01
   endloop
 endfacet
 facet normal  0.000000e+00  0.000000e+00  1.000000e+00
   outer loop
     vertex  3.986785e-01 -6.478977e-01  5.468750e-02
     vertex  3.993429e-01 -7.110162e-01  5.468750e-02
     vertex  4.005766e-01 -7.108559e-01  5.468750e-02
   endloop
 endfacet
 facet normal  0.000000e+00  0.000000e+00  1.000000e+00
   outer loop
     vertex  4.003241e-01 -6.480868e-01  5.468750e-02
     vertex  4.005766e-01 -7.108559e-01  5.468750e-02
     vertex  4.018099e-01 -7.106926e-01  5.468750e-02
   endloop
 endfacet
 facet normal  0.000000e+00  0.000000e+00  1.000000e+00
   outer loop
     vertex  4.003241e-01 -6.480868e-01  5.468750e-02
     vertex  3.986785e-01 -6.478977e-01  5.468750e-02
     vertex  4.005766e-01 -7.108559e-01  5.468750e-02
   endloop
 endfacet
 facet normal  0.000000e+00  0.000000e+00  1.000000e+00
   outer loop
     vertex  4.019708e-01 -6.482668e-01  5.468750e-02
     vertex  4.018099e-01 -7.106926e-01  5.468750e-02
     vertex  4.030428e-01 -7.105263e-01  5.468750e-02
   endloop
 endfacet
 facet normal  0.000000e+00  0.000000e+00  1.000000e+00
   outer loop
     vertex  4.019708e-01 -6.482668e-01  5.468750e-02
     vertex  4.003241e-01 -6.480868e-01  5.468750e-02
     vertex  4.018099e-01 -7.106926e-01  5.468750e-02
   endloop
 endfacet
 facet normal  0.000000e+00  0.000000e+00  1.000000e+00
   outer loop
     vertex  4.036184e-01 -6.484375e-01  5.468750e-02
     vertex  4.030428e-01 -7.105263e-01  5.468750e-02
     vertex  4.087171e-01 -7.105263e-01  5.468750e-02
   endloop
 endfacet
 facet normal  0.000000e+00  0.000000e+00  1.000000e+00
   outer loop
     vertex  4.036184e-01 -6.484375e-01  5.468750e-02
     vertex  4.019708e-01 -6.482668e-01  5.468750e-02
     vertex  4.030428e-01 -7.105263e-01  5.468750e-02
   endloop
 endfacet
 facet normal  0.000000e+00  0.000000e+00  1.000000e+00
   outer loop
     vertex  4.087171e-01 -6.484375e-01  5.468750e-02
     vertex  4.036184e-01 -6.484375e-01  5.468750e-02
     vertex  4.087171e-01 -7.105263e-01  5.468750e-02
   endloop
 endfacet
 facet normal -1.336789e-01  9.910247e-01  0.000000e+00
   outer loop
     vertex  4.018099e-01 -7.106926e-01  5.468750e-02
     vertex  4.030428e-01 -7.105263e-01  4.453125e-01
     vertex  4.030428e-01 -7.105263e-01  5.468750e-02
   endloop
 endfacet
 facet normal -1.312643e-01  9.913474e-01 -7.758213e-06
   outer loop
     vertex  4.005766e-01 -7.108559e-01  5.468750e-02
     vertex  4.030428e-01 -7.105263e-01  4.453125e-01
     vertex  4.018099e-01 -7.106926e-01  5.468750e-02
   endloop
 endfacet
 facet normal -1.433243e-02  9.998967e-01 -1.118249e-03
   outer loop
     vertex  3.993429e-01 -7.110162e-01  5.468750e-02
     vertex  2.798074e-01 -7.122928e-01  4.453125e-01
     vertex  4.030428e-01 -7.105263e-01  4.453125e-01
   endloop
 endfacet
 facet normal -1.288489e-01  9.916642e-01 -2.327459e-05
   outer loop
     vertex  3.993429e-01 -7.110162e-01  5.468750e-02
     vertex  4.030428e-01 -7.105263e-01  4.453125e-01
     vertex  4.005766e-01 -7.108559e-01  5.468750e-02
   endloop
 endfacet
 facet normal  2.256378e-01  9.742108e-01 -9.627456e-04
   outer loop
     vertex  2.766277e-01 -7.119423e-01  5.468750e-02
     vertex  1.597377e-01 -6.844833e-01  4.453125e-01
     vertex  2.798074e-01 -7.122928e-01  4.453125e-01
   endloop
 endfacet
 facet normal -7.546704e-03  9.999711e-01  9.585001e-04
   outer loop
     vertex  2.766277e-01 -7.119423e-01  5.468750e-02
     vertex  2.798074e-01 -7.122928e-01  4.453125e-01
     vertex  3.993429e-01 -7.110162e-01  5.468750e-02
   endloop
 endfacet
 facet normal  4.524657e-01  8.917815e-01 -8.058261e-04
   outer loop
     vertex  1.572346e-01 -6.835663e-01  5.468750e-02
     vertex  4.982735e-02 -6.287178e-01  4.453125e-01
     vertex  1.597377e-01 -6.844833e-01  4.453125e-01
   endloop
 endfacet
 facet normal  2.312281e-01  9.728992e-01  8.022885e-04
   outer loop
     vertex  1.572346e-01 -6.835663e-01  5.468750e-02
     vertex  1.597377e-01 -6.844833e-01  4.453125e-01
     vertex  2.766277e-01 -7.119423e-01  5.468750e-02
   endloop
 endfacet
 facet normal  6.529395e-01  7.574098e-01 -6.474912e-04
   outer loop
     vertex  4.805832e-02 -6.275267e-01  5.468750e-02
     vertex -4.352195e-02 -5.482443e-01  4.453125e-01
     vertex  4.982735e-02 -6.287178e-01  4.453125e-01
   endloop
 endfacet
 facet normal  4.566504e-01  8.896460e-01  6.446612e-04
   outer loop
     vertex  4.805832e-02 -6.275267e-01  5.468750e-02
     vertex  4.982735e-02 -6.287178e-01  4.453125e-01
     vertex  1.572346e-01 -6.835663e-01  5.468750e-02
   endloop
 endfacet
 facet normal  8.153825e-01  5.789224e-01 -4.877409e-04
   outer loop
     vertex -4.459669e-02 -5.470596e-01  5.468750e-02
     vertex -1.148730e-01 -4.477499e-01  4.453125e-01
     vertex -4.352195e-02 -5.482443e-01  4.453125e-01
   endloop
 endfacet
 facet normal  6.557028e-01  7.550189e-01  4.856186e-04
   outer loop
     vertex -4.459669e-02 -5.470596e-01  5.468750e-02
     vertex -4.352195e-02 -5.482443e-01  4.453125e-01
     vertex  4.805832e-02 -6.275267e-01  5.468750e-02
   endloop
 endfacet
 facet normal  9.303332e-01  3.667152e-01 -3.265755e-04
   outer loop
     vertex -1.153799e-01 -4.468118e-01  5.468750e-02
     vertex -1.600700e-01 -3.330882e-01  4.453125e-01
     vertex -1.148730e-01 -4.477499e-01  4.453125e-01
   endloop
 endfacet
 facet normal  8.168908e-01  5.767922e-01  3.251607e-04
   outer loop
     vertex -1.153799e-01 -4.468118e-01  5.468750e-02
     vertex -1.148730e-01 -4.477499e-01  4.453125e-01
     vertex -4.459669e-02 -5.470596e-01  5.468750e-02
   endloop
 endfacet
 facet normal  9.910961e-01  1.331486e-01 -1.639951e-04
   outer loop
     vertex -1.602039e-01 -3.325721e-01  5.468750e-02
     vertex -1.764803e-01 -2.109375e-01  4.453125e-01
     vertex -1.600700e-01 -3.330882e-01  4.453125e-01
   endloop
 endfacet
 facet normal  9.309064e-01  3.652579e-01  1.632878e-04
   outer loop
     vertex -1.602039e-01 -3.325721e-01  5.468750e-02
     vertex -1.600700e-01 -3.330882e-01  4.453125e-01
     vertex -1.153799e-01 -4.468118e-01  5.468750e-02
   endloop
 endfacet
 facet normal  9.911655e-01  1.326312e-01 -0.000000e+00
   outer loop
     vertex -1.764803e-01 -2.109375e-01  5.468750e-02
     vertex -1.764803e-01 -2.109375e-01  4.453125e-01
     vertex -1.602039e-01 -3.325721e-01  5.468750e-02
   endloop
 endfacet
 facet normal  1.000000e+00  0.000000e+00  0.000000e+00
   outer loop
     vertex -1.764803e-01  1.887336e-01  5.468750e-02
     vertex -1.764803e-01 -2.109375e-01  4.453125e-01
     vertex -1.764803e-01 -2.109375e-01  5.468750e-02
   endloop
 endfacet
 facet normal  1.000000e+00  0.000000e+00 -0.000000e+00
   outer loop
     vertex -1.764803e-01  1.887336e-01  5.468750e-02
     vertex -1.764803e-01  1.887336e-01  4.453125e-01
     vertex -1.764803e-01 -2.109375e-01  4.453125e-01
   endloop
 endfacet
 facet normal  0.000000e+00 -1.000000e+00  0.000000e+00
   outer loop
     vertex -1.431743e-01  1.887336e-01  5.468750e-02
     vertex -1.764803e-01  1.887336e-01  4.453125e-01
     vertex -1.764803e-01  1.887336e-01  5.468750e-02
   endloop
 endfacet
 facet normal  0.000000e+00 -1.000000e+00  0.000000e+00
   outer loop
     vertex -1.431743e-01  1.887336e-01  5.468750e-02
     vertex -1.431743e-01  1.887336e-01  4.453125e-01
     vertex -1.764803e-01  1.887336e-01  4.453125e-01
   endloop
 endfacet
 facet normal  1.000000e+00  0.000000e+00  0.000000e+00
   outer loop
     vertex -1.431743e-01  3.819079e-01  5.468750e-02
     vertex -1.431743e-01  1.887336e-01  4.453125e-01
     vertex -1.431743e-01  1.887336e-01  5.468750e-02
   endloop
 endfacet
 facet normal  1.000000e+00  0.000000e+00 -0.000000e+00
   outer loop
     vertex -1.431743e-01  3.819079e-01  5.468750e-02
     vertex -1.431743e-01  3.819079e-01  4.453125e-01
     vertex -1.431743e-01  1.887336e-01  4.453125e-01
   endloop
 endfacet
 facet normal  1.000000e+00  0.000000e+00  0.000000e+00
   outer loop
     vertex -1.431743e-01  4.085526e-01  5.468750e-02
     vertex -1.431743e-01  3.819079e-01  4.453125e-01
     vertex -1.431743e-01  3.819079e-01  5.468750e-02
   endloop
 endfacet
 facet normal  1.000000e+00  0.000000e+00 -0.000000e+00
   outer loop
     vertex -1.431743e-01  4.085526e-01  5.468750e-02
     vertex -1.431743e-01  4.085526e-01  4.453125e-01
     vertex -1.431743e-01  3.819079e-01  4.453125e-01
   endloop
 endfacet
 facet normal  0.000000e+00  1.000000e+00  0.000000e+00
   outer loop
     vertex -1.764803e-01  4.085526e-01  5.468750e-02
     vertex -1.431743e-01  4.085526e-01  4.453125e-01
     vertex -1.431743e-01  4.085526e-01  5.468750e-02
   endloop
 endfacet
 facet normal  0.000000e+00  1.000000e+00  0.000000e+00
   outer loop
     vertex -1.764803e-01  4.085526e-01  5.468750e-02
     vertex -1.764803e-01  4.085526e-01  4.453125e-01
     vertex -1.431743e-01  4.085526e-01  4.453125e-01
   endloop
 endfacet
 facet normal -1.000000e+00  0.000000e+00  0.000000e+00
   outer loop
     vertex -1.764803e-01  2.153783e-01  5.468750e-02
     vertex -1.764803e-01  4.085526e-01  4.453125e-01
     vertex -1.764803e-01  4.085526e-01  5.468750e-02
   endloop
 endfacet
 facet normal -1.000000e+00  0.000000e+00  0.000000e+00
   outer loop
     vertex -1.764803e-01  2.153783e-01  5.468750e-02
     vertex -1.764803e-01  2.153783e-01  4.453125e-01
     vertex -1.764803e-01  4.085526e-01  4.453125e-01
   endloop
 endfacet
 facet normal  0.000000e+00  1.000000e+00  0.000000e+00
   outer loop
     vertex -2.031250e-01  2.153783e-01  5.468750e-02
     vertex -1.764803e-01  2.153783e-01  4.453125e-01
     vertex -1.764803e-01  2.153783e-01  5.468750e-02
   endloop
 endfacet
 facet normal  0.000000e+00  1.000000e+00  0.000000e+00
   outer loop
     vertex -2.031250e-01  2.153783e-01  5.468750e-02
     vertex -2.031250e-01  2.153783e-01  4.453125e-01
     vertex -1.764803e-01  2.153783e-01  4.453125e-01
   endloop
 endfacet
 facet normal -1.000000e+00  0.000000e+00  0.000000e+00
   outer loop
     vertex -2.031250e-01  2.166941e-01  0.000000e+00
     vertex -2.031250e-01  2.153783e-01  5.468750e-02
     vertex -2.031250e-01  2.166941e-01  5.468750e-02
   endloop
 endfacet
 facet normal -1.000000e+00  0.000000e+00  0.000000e+00
   outer loop
     vertex -2.031250e-01 -2.109375e-01  0.000000e+00
     vertex -2.031250e-01 -2.109375e-01  5.468750e-02
     vertex -2.031250e-01  2.153783e-01  5.468750e-02
   endloop
 endfacet
 facet normal -1.000000e+00  0.000000e+00  0.000000e+00
   outer loop
     vertex -2.031250e-01 -2.109375e-01  0.000000e+00
     vertex -2.031250e-01  2.153783e-01  5.468750e-02
     vertex -2.031250e-01  2.166941e-01  0.000000e+00
   endloop
 endfacet
 facet normal  0.000000e+00  1.000000e+00  0.000000e+00
   outer loop
     vertex -2.031250e-01  2.166941e-01  0.000000e+00
     vertex -1.768092e-01  2.166941e-01  5.468750e-02
     vertex -1.768092e-01  2.166941e-01  0.000000e+00
   endloop
 endfacet
 facet normal  0.000000e+00  1.000000e+00  0.000000e+00
   outer loop
     vertex -2.031250e-01  2.166941e-01  0.000000e+00
     vertex -2.031250e-01  2.166941e-01  5.468750e-02
     vertex -1.768092e-01  2.166941e-01  5.468750e-02
   endloop
 endfacet
 facet normal  0.000000e+00 -1.000000e+00  0.000000e+00
   outer loop
     vertex  4.087171e-01 -6.484375e-01  5.468750e-02
     vertex  4.036184e-01 -6.484375e-01  4.453125e-01
     vertex  4.036184e-01 -6.484375e-01  5.468750e-02
   endloop
 endfacet
 facet normal  0.000000e+00 -1.000000e+00  0.000000e+00
   outer loop
     vertex  4.243421e-01 -6.484375e-01  5.468750e-02
     vertex  4.300164e-01 -6.484375e-01  4.453125e-01
     vertex  4.036184e-01 -6.484375e-01  4.453125e-01
   endloop
 endfacet
 facet normal  0.000000e+00 -1.000000e+00  0.000000e+00
   outer loop
     vertex  4.243421e-01 -6.484375e-01  5.468750e-02
     vertex  4.036184e-01 -6.484375e-01  4.453125e-01
     vertex  4.087171e-01 -6.484375e-01  5.468750e-02
   endloop
 endfacet
 facet normal  0.000000e+00 -1.000000e+00  0.000000e+00
   outer loop
     vertex  4.300164e-01 -6.484375e-01  5.468750e-02
     vertex  4.300164e-01 -6.484375e-01  4.453125e-01
     vertex  4.243421e-01 -6.484375e-01  5.468750e-02
   endloop
 endfacet
 facet normal  1.000000e+00  0.000000e+00  0.000000e+00
   outer loop
     vertex  4.300164e-01 -6.220395e-01  5.468750e-02
     vertex  4.300164e-01 -6.484375e-01  4.453125e-01
     vertex  4.300164e-01 -6.484375e-01  5.468750e-02
   endloop
 endfacet
 facet normal  1.000000e+00  0.000000e+00 -0.000000e+00
   outer loop
     vertex  4.300164e-01 -6.220395e-01  5.468750e-02
     vertex  4.300164e-01 -6.220395e-01  4.453125e-01
     vertex  4.300164e-01 -6.484375e-01  4.453125e-01
   endloop
 endfacet
 facet normal  0.000000e+00  0.000000e+00 -1.000000e+00
   outer loop
     vertex  4.087171e-01 -7.438322e-01  0.000000e+00
     vertex  3.996711e-01 -7.421875e-01  0.000000e+00
     vertex  4.026888e-01 -7.418011e-01  0.000000e+00
   endloop
 endfacet
 facet normal  0.000000e+00  0.000000e+00 -1.000000e+00
   outer loop
     vertex  4.087171e-01 -7.438322e-01  0.000000e+00
     vertex  4.026888e-01 -7.418011e-01  0.000000e+00
     vertex  4.057042e-01 -7.413967e-01  0.000000e+00
   endloop
 endfacet
 facet normal -0.000000e+00  0.000000e+00 -1.000000e+00
   outer loop
     vertex  4.087171e-01 -7.438322e-01  0.000000e+00
     vertex  2.780270e-01 -7.450412e-01  0.000000e+00
     vertex  3.996711e-01 -7.421875e-01  0.000000e+00
   endloop
 endfacet
 facet normal  0.000000e+00 -0.000000e+00 -1.000000e+00
   outer loop
     vertex  4.087171e-01 -7.409742e-01  0.000000e+00
     vertex  4.087171e-01 -7.438322e-01  0.000000e+00
     vertex  4.057042e-01 -7.413967e-01  0.000000e+00
   endloop
 endfacet
 facet normal  0.000000e+00 -0.000000e+00 -1.000000e+00
   outer loop
     vertex  2.588804e-01 -5.623259e-01  0.000000e+00
     vertex  2.780270e-01 -7.450412e-01  0.000000e+00
     vertex  1.508532e-01 -7.149045e-01  0.000000e+00
   endloop
 endfacet
 facet normal -0.000000e+00  0.000000e+00 -1.000000e+00
   outer loop
     vertex  2.047697e-01 -5.004112e-01  0.000000e+00
     vertex -6.395203e-02 -5.693391e-01  0.000000e+00
     vertex -1.390721e-01 -4.623889e-01  0.000000e+00
   endloop
 endfacet
 facet normal  0.000000e+00  0.000000e+00 -1.000000e+00
   outer loop
     vertex  2.047697e-01 -5.004112e-01  0.000000e+00
     vertex  3.460322e-02 -6.551776e-01  0.000000e+00
     vertex -6.395203e-02 -5.693391e-01  0.000000e+00
   endloop
 endfacet
 facet normal  0.000000e+00  0.000000e+00 -1.000000e+00
   outer loop
     vertex  2.047697e-01 -5.004112e-01  0.000000e+00
     vertex  1.508532e-01 -7.149045e-01  0.000000e+00
     vertex  3.460322e-02 -6.551776e-01  0.000000e+00
   endloop
 endfacet
 facet normal  0.000000e+00 -0.000000e+00 -1.000000e+00
   outer loop
     vertex  2.047697e-01 -5.004112e-01  0.000000e+00
     vertex  2.588804e-01 -5.623259e-01  0.000000e+00
     vertex  1.508532e-01 -7.149045e-01  0.000000e+00
   endloop
 endfacet
 facet normal -0.000000e+00  0.000000e+00 -1.000000e+00
   outer loop
     vertex  3.289879e-01 -6.052950e-01  0.000000e+00
     vertex  2.780270e-01 -7.450412e-01  0.000000e+00
     vertex  2.588804e-01 -5.623259e-01  0.000000e+00
   endloop
 endfacet
 facet normal  0.000000e+00 -0.000000e+00 -1.000000e+00
   outer loop
     vertex  3.289879e-01 -6.052950e-01  0.000000e+00
     vertex  3.996711e-01 -7.421875e-01  0.000000e+00
     vertex  2.780270e-01 -7.450412e-01  0.000000e+00
   endloop
 endfacet
 facet normal -0.000000e+00 -0.000000e+00 -1.000000e+00
   outer loop
     vertex  3.984375e-01 -6.250000e-01  0.000000e+00
     vertex  3.996711e-01 -7.421875e-01  0.000000e+00
     vertex  3.289879e-01 -6.052950e-01  0.000000e+00
   endloop
 endfacet
 facet normal  0.000000e+00 -0.000000e+00 -1.000000e+00
   outer loop
     vertex  4.087171e-01 -6.254112e-01  0.000000e+00
     vertex  4.087171e-01 -6.257948e-01  0.000000e+00
     vertex  4.052872e-01 -6.255744e-01  0.000000e+00
   endloop
 endfacet
 facet normal -0.000000e+00  0.000000e+00 -1.000000e+00
   outer loop
     vertex  4.087171e-01 -6.254112e-01  0.000000e+00
     vertex  4.052872e-01 -6.255744e-01  0.000000e+00
     vertex  4.018605e-01 -6.253095e-01  0.000000e+00
   endloop
 endfacet
 facet normal  0.000000e+00  0.000000e+00 -1.000000e+00
   outer loop
     vertex  4.087171e-01 -6.254112e-01  0.000000e+00
     vertex  4.018605e-01 -6.253095e-01  0.000000e+00
     vertex  3.984375e-01 -6.250000e-01  0.000000e+00
   endloop
 endfacet
 facet normal  0.000000e+00  0.000000e+00 -1.000000e+00
   outer loop
     vertex  4.087171e-01 -6.254112e-01  0.000000e+00
     vertex  3.984375e-01 -6.250000e-01  0.000000e+00
     vertex  3.289879e-01 -6.052950e-01  0.000000e+00
   endloop
 endfacet
 facet normal -0.000000e+00  0.000000e+00 -1.000000e+00
   outer loop
     vertex  2.047697e-01 -2.109375e-01  0.000000e+00
     vertex -1.863816e-01 -3.405563e-01  0.000000e+00
     vertex -2.031250e-01 -2.109375e-01  0.000000e+00
   endloop
 endfacet
 facet normal  0.000000e+00  0.000000e+00 -1.000000e+00
   outer loop
     vertex  2.047697e-01 -2.109375e-01  0.000000e+00
     vertex -1.390721e-01 -4.623889e-01  0.000000e+00
     vertex -1.863816e-01 -3.405563e-01  0.000000e+00
   endloop
 endfacet
 facet normal  0.000000e+00 -0.000000e+00 -1.000000e+00
   outer loop
     vertex  2.047697e-01 -2.109375e-01  0.000000e+00
     vertex  2.047697e-01 -5.004112e-01  0.000000e+00
     vertex -1.390721e-01 -4.623889e-01  0.000000e+00
   endloop
 endfacet
 facet normal -0.000000e+00  0.000000e+00 -1.000000e+00
   outer loop
     vertex -1.768092e-01  2.166941e-01  0.000000e+00
     vertex -2.031250e-01 -2.109375e-01  0.000000e+00
     vertex -2.031250e-01  2.166941e-01  0.000000e+00
   endloop
 endfacet
 facet normal  0.000000e+00 -0.000000e+00 -1.000000e+00
   outer loop
     vertex  1.784539e-01  2.166941e-01  0.000000e+00
     vertex  2.047697e-01 -2.109375e-01  0.000000e+00
     vertex -2.031250e-01 -2.109375e-01  0.000000e+00
   endloop
 endfacet
 facet normal -0.000000e+00  0.000000e+00 -1.000000e+00
   outer loop
     vertex  1.784539e-01  2.166941e-01  0.000000e+00
     vertex -2.031250e-01 -2.109375e-01  0.000000e+00
     vertex -1.768092e-01  2.166941e-01  0.000000e+00
   endloop
 endfacet
 facet normal -0.000000e+00 -0.000000e+00 -1.000000e+00
   outer loop
     vertex  2.047697e-01  2.166941e-01  0.000000e+00
     vertex  2.047697e-01 -2.109375e-01  0.000000e+00
     vertex  1.784539e-01  2.166941e-01  0.000000e+00
   endloop
 endfacet
 facet normal -0.000000e+00  0.000000e+00 -1.000000e+00
   outer loop
     vertex  1.784539e-01  4.140625e-01  0.000000e+00
     vertex -1.768092e-01  2.166941e-01  0.000000e+00
     vertex -1.768092e-01  4.140625e-01  0.000000e+00
   endloop
 endfacet
 facet normal  0.000000e+00 -0.000000e+00 -1.000000e+00
   outer loop
     vertex  1.784539e-01  4.140625e-01  0.000000e+00
     vertex  1.784539e-01  2.166941e-01  0.000000e+00
     vertex -1.768092e-01  2.166941e-01  0.000000e+00
   endloop
 endfacet
 facet normal  1.000000e+00  0.000000e+00  0.000000e+00
   outer loop
     vertex  4.087171e-01 -6.254112e-01  0.000000e+00
     vertex  4.087171e-01 -6.257948e-01  5.468750e-02
     vertex  4.087171e-01 -6.257948e-01  0.000000e+00
   endloop
 endfacet
 facet normal  1.000000e+00  0.000000e+00 -0.000000e+00
   outer loop
     vertex  4.087171e-01 -6.254112e-01  0.000000e+00
     vertex  4.087171e-01 -6.254112e-01  5.468750e-02
     vertex  4.087171e-01 -6.257948e-01  5.468750e-02
   endloop
 endfacet
 facet normal  0.000000e+00  0.000000e+00 -1.000000e+00
   outer loop
     vertex  3.699689e-01 -6.188427e-01  5.468750e-02
     vertex  3.325674e-01 -6.067723e-01  5.468750e-02
     vertex  3.393958e-01 -6.080324e-01  5.468750e-02
   endloop
 endfacet
 facet normal  0.000000e+00  0.000000e+00 -1.000000e+00
   outer loop
     vertex  3.840923e-01 -6.190069e-01  5.468750e-02
     vertex  3.699689e-01 -6.188427e-01  5.468750e-02
     vertex  3.393958e-01 -6.080324e-01  5.468750e-02
   endloop
 endfacet
 facet normal  0.000000e+00  0.000000e+00 -1.000000e+00
   outer loop
     vertex  4.300164e-01 -6.484375e-01  5.468750e-02
     vertex  4.243421e-01 -6.484375e-01  5.468750e-02
     vertex  4.243421e-01 -6.459704e-01  5.468750e-02
   endloop
 endfacet
 facet normal  0.000000e+00  0.000000e+00 -1.000000e+00
   outer loop
     vertex  4.139222e-01 -6.260437e-01  5.468750e-02
     vertex  4.087171e-01 -6.257948e-01  5.468750e-02
     vertex  4.087171e-01 -6.254112e-01  5.468750e-02
   endloop
 endfacet
 facet normal  0.000000e+00  0.000000e+00 -1.000000e+00
   outer loop
     vertex  4.243421e-01 -6.262336e-01  5.468750e-02
     vertex  4.300164e-01 -6.484375e-01  5.468750e-02
     vertex  4.243421e-01 -6.459704e-01  5.468750e-02
   endloop
 endfacet
 facet normal  0.000000e+00  0.000000e+00 -1.000000e+00
   outer loop
     vertex  4.300164e-01 -6.220395e-01  5.468750e-02
     vertex  4.243421e-01 -6.262336e-01  5.468750e-02
     vertex  4.191312e-01 -6.261900e-01  5.468750e-02
   endloop
 endfacet
 facet normal  0.000000e+00  0.000000e+00 -1.000000e+00
   outer loop
     vertex  4.300164e-01 -6.220395e-01  5.468750e-02
     vertex  4.191312e-01 -6.261900e-01  5.468750e-02
     vertex  4.139222e-01 -6.260437e-01  5.468750e-02
   endloop
 endfacet
 facet normal -0.000000e+00  0.000000e+00 -1.000000e+00
   outer loop
     vertex  4.300164e-01 -6.220395e-01  5.468750e-02
     vertex  4.087171e-01 -6.254112e-01  5.468750e-02
     vertex  3.840923e-01 -6.190069e-01  5.468750e-02
   endloop
 endfacet
 facet normal  0.000000e+00  0.000000e+00 -1.000000e+00
   outer loop
     vertex  4.300164e-01 -6.220395e-01  5.468750e-02
     vertex  4.139222e-01 -6.260437e-01  5.468750e-02
     vertex  4.087171e-01 -6.254112e-01  5.468750e-02
   endloop
 endfacet
 facet normal  0.000000e+00 -0.000000e+00 -1.000000e+00
   outer loop
     vertex  4.300164e-01 -6.220395e-01  5.468750e-02
     vertex  4.300164e-01 -6.484375e-01  5.468750e-02
     vertex  4.243421e-01 -6.262336e-01  5.468750e-02
   endloop
 endfacet
 facet normal  0.000000e+00  0.000000e+00 -1.000000e+00
   outer loop
     vertex  3.393958e-01 -6.080324e-01  5.468750e-02
     vertex  3.325674e-01 -6.067723e-01  5.468750e-02
     vertex  2.972895e-01 -5.894506e-01  5.468750e-02
   endloop
 endfacet
 facet normal  0.000000e+00  0.000000e+00 -1.000000e+00
   outer loop
     vertex  3.699689e-01 -6.188427e-01  5.468750e-02
     vertex  3.840923e-01 -6.190069e-01  5.468750e-02
     vertex  4.087171e-01 -6.254112e-01  5.468750e-02
   endloop
 endfacet
 facet normal  0.000000e+00  1.000000e+00  0.000000e+00
   outer loop
     vertex  4.243421e-01 -7.105263e-01  5.468750e-02
     vertex  4.296875e-01 -7.105263e-01  4.453125e-01
     vertex  4.296875e-01 -7.105263e-01  5.468750e-02
   endloop
 endfacet
 facet normal  0.000000e+00  1.000000e+00 -0.000000e+00
   outer loop
     vertex  4.087171e-01 -7.105263e-01  5.468750e-02
     vertex  4.030428e-01 -7.105263e-01  4.453125e-01
     vertex  4.296875e-01 -7.105263e-01  4.453125e-01
   endloop
 endfacet
 facet normal  0.000000e+00  1.000000e+00  0.000000e+00
   outer loop
     vertex  4.087171e-01 -7.105263e-01  5.468750e-02
     vertex  4.296875e-01 -7.105263e-01  4.453125e-01
     vertex  4.243421e-01 -7.105263e-01  5.468750e-02
   endloop
 endfacet
 facet normal  0.000000e+00  1.000000e+00  0.000000e+00
   outer loop
     vertex  4.030428e-01 -7.105263e-01  5.468750e-02
     vertex  4.030428e-01 -7.105263e-01  4.453125e-01
     vertex  4.087171e-01 -7.105263e-01  5.468750e-02
   endloop
 endfacet
 facet normal  0.000000e+00  0.000000e+00  1.000000e+00
   outer loop
     vertex  4.243421e-01 -6.484375e-01  5.468750e-02
     vertex  4.087171e-01 -6.484375e-01  5.468750e-02
     vertex  4.087171e-01 -7.105263e-01  5.468750e-02
   endloop
 endfacet
 facet normal  0.000000e+00  0.000000e+00  1.000000e+00
   outer loop
     vertex  4.243421e-01 -6.484375e-01  5.468750e-02
     vertex  4.087171e-01 -7.105263e-01  5.468750e-02
     vertex  4.243421e-01 -7.105263e-01  5.468750e-02
   endloop
 endfacet
 facet normal  0.000000e+00  0.000000e+00  1.000000e+00
   outer loop
     vertex -4.352195e-02 -5.482443e-01  4.453125e-01
     vertex -1.363450e-01 -4.673959e-01  4.453125e-01
     vertex -5.787118e-02 -5.754438e-01  4.453125e-01
   endloop
 endfacet
 facet normal  0.000000e+00  0.000000e+00  1.000000e+00
   outer loop
     vertex  4.982735e-02 -6.287178e-01  4.453125e-01
     vertex -5.787118e-02 -5.754438e-01  4.453125e-01
     vertex  4.480433e-02 -6.608266e-01  4.453125e-01
   endloop
 endfacet
 facet normal  0.000000e+00  0.000000e+00  1.000000e+00
   outer loop
     vertex  4.982735e-02 -6.287178e-01  4.453125e-01
     vertex -4.352195e-02 -5.482443e-01  4.453125e-01
     vertex -5.787118e-02 -5.754438e-01  4.453125e-01
   endloop
 endfacet
 facet normal  0.000000e+00  0.000000e+00  1.000000e+00
   outer loop
     vertex -1.148730e-01 -4.477499e-01  4.453125e-01
     vertex -1.363450e-01 -4.673959e-01  4.453125e-01
     vertex -4.352195e-02 -5.482443e-01  4.453125e-01
   endloop
 endfacet
 facet normal  0.000000e+00  0.000000e+00  1.000000e+00
   outer loop
     vertex -1.857788e-01 -3.433444e-01  4.453125e-01
     vertex -1.363450e-01 -4.673959e-01  4.453125e-01
     vertex -1.148730e-01 -4.477499e-01  4.453125e-01
   endloop
 endfacet
 facet normal  0.000000e+00  0.000000e+00  1.000000e+00
   outer loop
     vertex  1.597377e-01 -6.844833e-01  4.453125e-01
     vertex  4.480433e-02 -6.608266e-01  4.453125e-01
     vertex  1.653513e-01 -7.182802e-01  4.453125e-01
   endloop
 endfacet
 facet normal  0.000000e+00  0.000000e+00  1.000000e+00
   outer loop
     vertex  1.597377e-01 -6.844833e-01  4.453125e-01
     vertex  4.982735e-02 -6.287178e-01  4.453125e-01
     vertex  4.480433e-02 -6.608266e-01  4.453125e-01
   endloop
 endfacet
 facet normal  0.000000e+00  0.000000e+00  1.000000e+00
   outer loop
     vertex -1.600700e-01 -3.330882e-01  4.453125e-01
     vertex -1.857788e-01 -3.433444e-01  4.453125e-01
     vertex -1.148730e-01 -4.477499e-01  4.453125e-01
   endloop
 endfacet
 facet normal  0.000000e+00  0.000000e+00  1.000000e+00
   outer loop
     vertex  2.798074e-01 -7.122928e-01  4.453125e-01
     vertex  1.653513e-01 -7.182802e-01  4.453125e-01
     vertex  2.963376e-01 -7.442623e-01  4.453125e-01
   endloop
 endfacet
 facet normal  0.000000e+00  0.000000e+00  1.000000e+00
   outer loop
     vertex  2.798074e-01 -7.122928e-01  4.453125e-01
     vertex  1.597377e-01 -6.844833e-01  4.453125e-01
     vertex  1.653513e-01 -7.182802e-01  4.453125e-01
   endloop
 endfacet
 facet normal  0.000000e+00  0.000000e+00  1.000000e+00
   outer loop
     vertex -2.031250e-01 -2.109375e-01  4.453125e-01
     vertex -1.857788e-01 -3.433444e-01  4.453125e-01
     vertex -1.600700e-01 -3.330882e-01  4.453125e-01
   endloop
 endfacet
 facet normal  0.000000e+00  0.000000e+00  1.000000e+00
   outer loop
     vertex -1.764803e-01 -2.109375e-01  4.453125e-01
     vertex -2.031250e-01 -2.109375e-01  4.453125e-01
     vertex -1.600700e-01 -3.330882e-01  4.453125e-01
   endloop
 endfacet
 facet normal  0.000000e+00  0.000000e+00  1.000000e+00
   outer loop
     vertex  4.030428e-01 -7.105263e-01  4.453125e-01
     vertex  2.963376e-01 -7.442623e-01  4.453125e-01
     vertex  4.296875e-01 -7.371711e-01  4.453125e-01
   endloop
 endfacet
 facet normal  0.000000e+00  0.000000e+00  1.000000e+00
   outer loop
     vertex  4.030428e-01 -7.105263e-01  4.453125e-01
     vertex  2.798074e-01 -7.122928e-01  4.453125e-01
     vertex  2.963376e-01 -7.442623e-01  4.453125e-01
   endloop
 endfacet
 facet normal  0.000000e+00  0.000000e+00  1.000000e+00
   outer loop
     vertex  4.296875e-01 -7.105263e-01  4.453125e-01
     vertex  4.030428e-01 -7.105263e-01  4.453125e-01
     vertex  4.296875e-01 -7.371711e-01  4.453125e-01
   endloop
 endfacet
 facet normal  0.000000e+00  0.000000e+00  1.000000e+00
   outer loop
     vertex -1.764803e-01  1.887336e-01  4.453125e-01
     vertex -2.031250e-01 -2.109375e-01  4.453125e-01
     vertex -1.764803e-01 -2.109375e-01  4.453125e-01
   endloop
 endfacet
 facet normal  0.000000e+00  0.000000e+00  1.000000e+00
   outer loop
     vertex -2.031250e-01  2.153783e-01  4.453125e-01
     vertex -2.031250e-01 -2.109375e-01  4.453125e-01
     vertex -1.764803e-01  1.887336e-01  4.453125e-01
   endloop
 endfacet
 facet normal  0.000000e+00  0.000000e+00  1.000000e+00
   outer loop
     vertex -1.764803e-01  2.153783e-01  4.453125e-01
     vertex -2.031250e-01  2.153783e-01  4.453125e-01
     vertex -1.764803e-01  1.887336e-01  4.453125e-01
   endloop
 endfacet
 facet normal  0.000000e+00  0.000000e+00  1.000000e+00
   outer loop
     vertex -1.431743e-01  1.887336e-01  4.453125e-01
     vertex -1.764803e-01  2.153783e-01  4.453125e-01
     vertex -1.764803e-01  1.887336e-01  4.453125e-01
   endloop
 endfacet
 facet normal  0.000000e+00  0.000000e+00  1.000000e+00
   outer loop
     vertex -1.431743e-01  3.819079e-01  4.453125e-01
     vertex -1.764803e-01  2.153783e-01  4.453125e-01
     vertex -1.431743e-01  1.887336e-01  4.453125e-01
   endloop
 endfacet
 facet normal  0.000000e+00  0.000000e+00  1.000000e+00
   outer loop
     vertex -1.431743e-01  4.085526e-01  4.453125e-01
     vertex -1.764803e-01  4.085526e-01  4.453125e-01
     vertex -1.431743e-01  3.819079e-01  4.453125e-01
   endloop
 endfacet
 facet normal  0.000000e+00  0.000000e+00  1.000000e+00
   outer loop
     vertex -1.764803e-01  4.085526e-01  4.453125e-01
     vertex -1.764803e-01  2.153783e-01  4.453125e-01
     vertex -1.431743e-01  3.819079e-01  4.453125e-01
   endloop
 endfacet
 facet normal -1.000000e+00  0.000000e+00  0.000000e+00
   outer loop
     vertex -2.031250e-01 -2.109375e-01  5.468750e-02
     vertex -2.031250e-01  2.153783e-01  4.453125e-01
     vertex -2.031250e-01  2.153783e-01  5.468750e-02
   endloop
 endfacet
 facet normal -1.000000e+00  0.000000e+00  0.000000e+00
   outer loop
     vertex -2.031250e-01 -2.109375e-01  5.468750e-02
     vertex -2.031250e-01 -2.109375e-01  4.453125e-01
     vertex -2.031250e-01  2.153783e-01  4.453125e-01
   endloop
 endfacet
 facet normal  9.250247e-03 -9.999572e-01  0.000000e+00
   outer loop
     vertex  2.780270e-01 -7.450412e-01  0.000000e+00
     vertex  4.087171e-01 -7.438322e-01  0.000000e+00
     vertex  4.087171e-01 -7.438322e-01  5.468750e-02
   endloop
 endfacet
 facet normal  9.027106e-03 -9.999591e-01  5.332958e-04
   outer loop
     vertex  2.780270e-01 -7.450412e-01  0.000000e+00
     vertex  4.087171e-01 -7.438322e-01  5.468750e-02
     vertex  2.777868e-01 -7.450142e-01  5.468750e-02
   endloop
 endfacet
 facet normal -2.312376e-01 -9.728967e-01  1.064633e-03
   outer loop
     vertex  1.508532e-01 -7.149045e-01  0.000000e+00
     vertex  2.777868e-01 -7.450142e-01  5.468750e-02
     vertex  1.503998e-01 -7.147369e-01  5.468750e-02
   endloop
 endfacet
 facet normal -2.305864e-01 -9.730517e-01 -5.323168e-04
   outer loop
     vertex  1.508532e-01 -7.149045e-01  0.000000e+00
     vertex  2.780270e-01 -7.450412e-01  0.000000e+00
     vertex  2.777868e-01 -7.450142e-01  5.468750e-02
   endloop
 endfacet
 facet normal -4.579840e-01 -8.889590e-01  1.594012e-03
   outer loop
     vertex  3.460322e-02 -6.551776e-01  0.000000e+00
     vertex  1.503998e-01 -7.147369e-01  5.468750e-02
     vertex  3.400327e-02 -6.547704e-01  5.468750e-02
   endloop
 endfacet
 facet normal -4.569922e-01 -8.894701e-01 -1.062675e-03
   outer loop
     vertex  3.460322e-02 -6.551776e-01  0.000000e+00
     vertex  1.508532e-01 -7.149045e-01  0.000000e+00
     vertex  1.503998e-01 -7.147369e-01  5.468750e-02
   endloop
 endfacet
 facet normal -6.579564e-01 -7.530531e-01  2.121430e-03
   outer loop
     vertex -6.395203e-02 -5.693391e-01  0.000000e+00
     vertex  3.400327e-02 -6.547704e-01  5.468750e-02
     vertex -6.459845e-02 -5.686203e-01  5.468750e-02
   endloop
 endfacet
 facet normal -6.567799e-01 -7.540806e-01 -1.591074e-03
   outer loop
     vertex -6.395203e-02 -5.693391e-01  0.000000e+00
     vertex  3.460322e-02 -6.551776e-01  0.000000e+00
     vertex  3.400327e-02 -6.547704e-01  5.468750e-02
   endloop
 endfacet
 facet normal -8.194643e-01 -5.731241e-01  2.646889e-03
   outer loop
     vertex -1.390721e-01 -4.623889e-01  0.000000e+00
     vertex -6.459845e-02 -5.686203e-01  5.468750e-02
     vertex -1.396411e-01 -4.613228e-01  5.468750e-02
   endloop
 endfacet
 facet normal -9.175750e-01 -3.975588e-01 -1.796444e-03
   outer loop
     vertex -1.390721e-01 -4.623889e-01  0.000000e+00
     vertex -1.396411e-01 -4.613228e-01  5.468750e-02
     vertex -1.741680e-01 -3.816339e-01  5.468750e-02
   endloop
 endfacet
 facet normal -8.183126e-01 -5.747695e-01 -2.117514e-03
   outer loop
     vertex -1.390721e-01 -4.623889e-01  0.000000e+00
     vertex -6.395203e-02 -5.693391e-01  0.000000e+00
     vertex -6.459845e-02 -5.686203e-01  5.468750e-02
   endloop
 endfacet
 facet normal -9.688364e-01 -2.456435e-01  3.186388e-02
   outer loop
     vertex -1.863816e-01 -3.405563e-01  0.000000e+00
     vertex -1.741680e-01 -3.816339e-01  5.468750e-02
     vertex -1.955123e-01 -2.974504e-01  5.468750e-02
   endloop
 endfacet
 facet normal -9.302991e-01 -3.612497e-01 -6.357846e-02
   outer loop
     vertex -1.863816e-01 -3.405563e-01  0.000000e+00
     vertex -1.390721e-01 -4.623889e-01  0.000000e+00
     vertex -1.741680e-01 -3.816339e-01  5.468750e-02
   endloop
 endfacet
 facet normal -9.961508e-01 -8.765626e-02  0.000000e+00
   outer loop
     vertex -2.031250e-01 -2.109375e-01  0.000000e+00
     vertex -1.955123e-01 -2.974504e-01  5.468750e-02
     vertex -2.031250e-01 -2.109375e-01  5.468750e-02
   endloop
 endfacet
 facet normal -9.896967e-01 -1.278430e-01 -6.447191e-02
   outer loop
     vertex -2.031250e-01 -2.109375e-01  0.000000e+00
     vertex -1.863816e-01 -3.405563e-01  0.000000e+00
     vertex -1.955123e-01 -2.974504e-01  5.468750e-02
   endloop
 endfacet
 facet normal  0.000000e+00  0.000000e+00 -1.000000e+00
   outer loop
     vertex  3.984375e-01 -6.250000e-01  0.000000e+00
     vertex  4.026888e-01 -7.418011e-01  0.000000e+00
     vertex  3.996711e-01 -7.421875e-01  0.000000e+00
   endloop
 endfacet
 facet normal  0.000000e+00  0.000000e+00 -1.000000e+00
   outer loop
     vertex  4.018605e-01 -6.253095e-01  0.000000e+00
     vertex  4.057042e-01 -7.413967e-01  0.000000e+00
     vertex  4.026888e-01 -7.418011e-01  0.000000e+00
   endloop
 endfacet
 facet normal -0.000000e+00 -0.000000e+00 -1.000000e+00
   outer loop
     vertex  4.018605e-01 -6.253095e-01  0.000000e+00
     vertex  4.026888e-01 -7.418011e-01  0.000000e+00
     vertex  3.984375e-01 -6.250000e-01  0.000000e+00
   endloop
 endfacet
 facet normal  0.000000e+00  0.000000e+00 -1.000000e+00
   outer loop
     vertex  4.052872e-01 -6.255744e-01  0.000000e+00
     vertex  4.087171e-01 -7.409742e-01  0.000000e+00
     vertex  4.057042e-01 -7.413967e-01  0.000000e+00
   endloop
 endfacet
 facet normal -0.000000e+00 -0.000000e+00 -1.000000e+00
   outer loop
     vertex  4.052872e-01 -6.255744e-01  0.000000e+00
     vertex  4.057042e-01 -7.413967e-01  0.000000e+00
     vertex  4.018605e-01 -6.253095e-01  0.000000e+00
   endloop
 endfacet
 facet normal -0.000000e+00 -0.000000e+00 -1.000000e+00
   outer loop
     vertex  4.087171e-01 -6.257948e-01  0.000000e+00
     vertex  4.087171e-01 -7.409742e-01  0.000000e+00
     vertex  4.052872e-01 -6.255744e-01  0.000000e+00
   endloop
 endfacet
 facet normal  1.000000e+00  0.000000e+00  0.000000e+00
   outer loop
     vertex  4.087171e-01 -7.409742e-01  0.000000e+00
     vertex  4.087171e-01 -7.438322e-01  5.468750e-02
     vertex  4.087171e-01 -7.438322e-01  0.000000e+00
   endloop
 endfacet
 facet normal  1.000000e+00  0.000000e+00 -0.000000e+00
   outer loop
     vertex  4.087171e-01 -7.409742e-01  0.000000e+00
     vertex  4.087171e-01 -7.409742e-01  5.468750e-02
     vertex  4.087171e-01 -7.438322e-01  5.468750e-02
   endloop
 endfacet
 facet normal  8.355235e-03  9.999651e-01  0.000000e+00
   outer loop
     vertex  4.191312e-01 -6.261900e-01  0.000000e+00
     vertex  4.243421e-01 -6.262336e-01  5.468750e-02
     vertex  4.243421e-01 -6.262336e-01  0.000000e+00
   endloop
 endfacet
 facet normal  8.355235e-03  9.999651e-01 -0.000000e+00
   outer loop
     vertex  4.191312e-01 -6.261900e-01  0.000000e+00
     vertex  4.191312e-01 -6.261900e-01  5.468750e-02
     vertex  4.243421e-01 -6.262336e-01  5.468750e-02
   endloop
 endfacet
 facet normal  2.807087e-02  9.996059e-01 -0.000000e+00
   outer loop
     vertex  4.139222e-01 -6.260437e-01  0.000000e+00
     vertex  4.139222e-01 -6.260437e-01  5.468750e-02
     vertex  4.191312e-01 -6.261900e-01  5.468750e-02
   endloop
 endfacet
 facet normal  2.807087e-02  9.996059e-01  0.000000e+00
   outer loop
     vertex  4.139222e-01 -6.260437e-01  0.000000e+00
     vertex  4.191312e-01 -6.261900e-01  5.468750e-02
     vertex  4.191312e-01 -6.261900e-01  0.000000e+00
   endloop
 endfacet
 facet normal  4.777560e-02  9.988581e-01 -0.000000e+00
   outer loop
     vertex  4.087171e-01 -6.257948e-01  0.000000e+00
     vertex  4.087171e-01 -6.257948e-01  5.468750e-02
     vertex  4.139222e-01 -6.260437e-01  5.468750e-02
   endloop
 endfacet
 facet normal  4.777560e-02  9.988581e-01  0.000000e+00
   outer loop
     vertex  4.087171e-01 -6.257948e-01  0.000000e+00
     vertex  4.139222e-01 -6.260437e-01  5.468750e-02
     vertex  4.139222e-01 -6.260437e-01  0.000000e+00
   endloop
 endfacet
 facet normal  1.000000e+00  0.000000e+00  0.000000e+00
   outer loop
     vertex  4.243421e-01 -7.138158e-01  0.000000e+00
     vertex  4.243421e-01 -7.105263e-01  5.468750e-02
     vertex  4.243421e-01 -7.138158e-01  5.468750e-02
   endloop
 endfacet
 facet normal  1.000000e+00  0.000000e+00  0.000000e+00
   outer loop
     vertex  4.243421e-01 -6.459704e-01  0.000000e+00
     vertex  4.243421e-01 -6.484375e-01  5.468750e-02
     vertex  4.243421e-01 -7.105263e-01  5.468750e-02
   endloop
 endfacet
 facet normal  1.000000e+00  0.000000e+00 -0.000000e+00
   outer loop
     vertex  4.243421e-01 -6.459704e-01  0.000000e+00
     vertex  4.243421e-01 -6.459704e-01  5.468750e-02
     vertex  4.243421e-01 -6.484375e-01  5.468750e-02
   endloop
 endfacet
 facet normal  1.000000e+00  0.000000e+00  0.000000e+00
   outer loop
     vertex  4.243421e-01 -6.459704e-01  0.000000e+00
     vertex  4.243421e-01 -7.105263e-01  5.468750e-02
     vertex  4.243421e-01 -7.138158e-01  0.000000e+00
   endloop
 endfacet
 facet normal  1.000000e+00  0.000000e+00  0.000000e+00
   outer loop
     vertex  4.243421e-01 -6.262336e-01  0.000000e+00
     vertex  4.243421e-01 -6.459704e-01  5.468750e-02
     vertex  4.243421e-01 -6.459704e-01  0.000000e+00
   endloop
 endfacet
 facet normal  1.000000e+00  0.000000e+00 -0.000000e+00
   outer loop
     vertex  4.243421e-01 -6.262336e-01  0.000000e+00
     vertex  4.243421e-01 -6.262336e-01  5.468750e-02
     vertex  4.243421e-01 -6.459704e-01  5.468750e-02
   endloop
 endfacet
 facet normal  1.000000e+00  0.000000e+00  0.000000e+00
   outer loop
     vertex  4.296875e-01 -7.105263e-01  5.468750e-02
     vertex  4.296875e-01 -7.371711e-01  4.453125e-01
     vertex  4.296875e-01 -7.371711e-01  5.468750e-02
   endloop
 endfacet
 facet normal  1.000000e+00  0.000000e+00 -0.000000e+00
   outer loop
     vertex  4.296875e-01 -7.105263e-01  5.468750e-02
     vertex  4.296875e-01 -7.105263e-01  4.453125e-01
     vertex  4.296875e-01 -7.371711e-01  4.453125e-01
   endloop
 endfacet
 facet normal  0.000000e+00  0.000000e+00 -1.000000e+00
   outer loop
     vertex  4.243421e-01 -7.138158e-01  5.468750e-02
     vertex  4.261249e-01 -7.377981e-01  5.468750e-02
     vertex  4.243421e-01 -7.381027e-01  5.468750e-02
   endloop
 endfacet
 facet normal  0.000000e+00  0.000000e+00 -1.000000e+00
   outer loop
     vertex  4.243421e-01 -7.138158e-01  5.468750e-02
     vertex  4.279067e-01 -7.374876e-01  5.468750e-02
     vertex  4.261249e-01 -7.377981e-01  5.468750e-02
   endloop
 endfacet
 facet normal  0.000000e+00  0.000000e+00 -1.000000e+00
   outer loop
     vertex  4.243421e-01 -7.138158e-01  5.468750e-02
     vertex  4.296875e-01 -7.371711e-01  5.468750e-02
     vertex  4.279067e-01 -7.374876e-01  5.468750e-02
   endloop
 endfacet
 facet normal -0.000000e+00  0.000000e+00 -1.000000e+00
   outer loop
     vertex  4.296875e-01 -7.105263e-01  5.468750e-02
     vertex  4.243421e-01 -7.138158e-01  5.468750e-02
     vertex  4.243421e-01 -7.105263e-01  5.468750e-02
   endloop
 endfacet
 facet normal  0.000000e+00 -0.000000e+00 -1.000000e+00
   outer loop
     vertex  4.296875e-01 -7.105263e-01  5.468750e-02
     vertex  4.296875e-01 -7.371711e-01  5.468750e-02
     vertex  4.243421e-01 -7.138158e-01  5.468750e-02
   endloop
 endfacet
 facet normal  1.750116e-01 -9.845664e-01  0.000000e+00
   outer loop
     vertex  4.279067e-01 -7.374876e-01  5.468750e-02
     vertex  4.296875e-01 -7.371711e-01  5.468750e-02
     vertex  4.296875e-01 -7.371711e-01  4.453125e-01
   endloop
 endfacet
 facet normal  1.716995e-01 -9.851494e-01  1.557140e-05
   outer loop
     vertex  4.261249e-01 -7.377981e-01  5.468750e-02
     vertex  4.279067e-01 -7.374876e-01  5.468750e-02
     vertex  4.296875e-01 -7.371711e-01  4.453125e-01
   endloop
 endfacet
 facet normal  1.683855e-01 -9.857212e-01  4.671403e-05
   outer loop
     vertex  4.243421e-01 -7.381027e-01  5.468750e-02
     vertex  4.261249e-01 -7.377981e-01  5.468750e-02
     vertex  4.296875e-01 -7.371711e-01  4.453125e-01
   endloop
 endfacet
 facet normal  1.618949e-01 -9.868080e-01  1.381247e-04
   outer loop
     vertex  4.191417e-01 -7.389559e-01  5.468750e-02
     vertex  4.243421e-01 -7.381027e-01  5.468750e-02
     vertex  4.296875e-01 -7.371711e-01  4.453125e-01
   endloop
 endfacet
 facet normal  1.522176e-01 -9.883469e-01  4.064152e-04
   outer loop
     vertex  4.139332e-01 -7.397580e-01  5.468750e-02
     vertex  4.191417e-01 -7.389559e-01  5.468750e-02
     vertex  4.296875e-01 -7.371711e-01  4.453125e-01
   endloop
 endfacet
 facet normal  1.425257e-01 -9.897908e-01  8.068610e-04
   outer loop
     vertex  4.087171e-01 -7.405091e-01  5.468750e-02
     vertex  4.139332e-01 -7.397580e-01  5.468750e-02
     vertex  4.296875e-01 -7.371711e-01  4.453125e-01
   endloop
 endfacet
 facet normal  1.348722e-01 -9.908622e-01  1.226892e-03
   outer loop
     vertex  4.057022e-01 -7.409195e-01  5.468750e-02
     vertex  4.087171e-01 -7.405091e-01  5.468750e-02
     vertex  4.296875e-01 -7.371711e-01  4.453125e-01
   endloop
 endfacet
 facet normal  1.292641e-01 -9.916089e-01  1.578402e-03
   outer loop
     vertex  4.026851e-01 -7.413128e-01  5.468750e-02
     vertex  4.057022e-01 -7.409195e-01  5.468750e-02
     vertex  4.296875e-01 -7.371711e-01  4.453125e-01
   endloop
 endfacet
 facet normal  5.310103e-02 -9.985612e-01  7.468302e-03
   outer loop
     vertex  3.996658e-01 -7.416890e-01  5.468750e-02
     vertex  4.296875e-01 -7.371711e-01  4.453125e-01
     vertex  2.963376e-01 -7.442623e-01  4.453125e-01
   endloop
 endfacet
 facet normal  1.236520e-01 -9.923237e-01  1.973928e-03
   outer loop
     vertex  3.996658e-01 -7.416890e-01  5.468750e-02
     vertex  4.026851e-01 -7.413128e-01  5.468750e-02
     vertex  4.296875e-01 -7.371711e-01  4.453125e-01
   endloop
 endfacet
 facet normal -1.945624e-01 -9.808679e-01  6.600033e-03
   outer loop
     vertex  2.707833e-01 -7.418218e-01  5.468750e-02
     vertex  2.963376e-01 -7.442623e-01  4.453125e-01
     vertex  1.653513e-01 -7.182802e-01  4.453125e-01
   endloop
 endfacet
 facet normal  1.030123e-03 -9.999795e-01 -6.314848e-03
   outer loop
     vertex  2.707833e-01 -7.418218e-01  5.468750e-02
     vertex  3.996658e-01 -7.416890e-01  5.468750e-02
     vertex  2.963376e-01 -7.442623e-01  4.453125e-01
   endloop
 endfacet
 facet normal -4.302334e-01 -9.027002e-01  5.627326e-03
   outer loop
     vertex  1.455700e-01 -7.112874e-01  5.468750e-02
     vertex  1.653513e-01 -7.182802e-01  4.453125e-01
     vertex  4.480433e-02 -6.608266e-01  4.453125e-01
   endloop
 endfacet
 facet normal -2.369133e-01 -9.715158e-01 -5.394339e-03
   outer loop
     vertex  1.455700e-01 -7.112874e-01  5.468750e-02
     vertex  2.707833e-01 -7.418218e-01  5.468750e-02
     vertex  1.653513e-01 -7.182802e-01  4.453125e-01
   endloop
 endfacet
 facet normal -6.393814e-01 -7.688763e-01  4.550253e-03
   outer loop
     vertex  3.121682e-02 -6.518393e-01  5.468750e-02
     vertex  4.480433e-02 -6.608266e-01  4.453125e-01
     vertex -5.787118e-02 -5.754438e-01  4.453125e-01
   endloop
 endfacet
 facet normal -4.612533e-01 -8.872577e-01 -4.369428e-03
   outer loop
     vertex  3.121682e-02 -6.518393e-01  5.468750e-02
     vertex  1.455700e-01 -7.112874e-01  5.468750e-02
     vertex  4.480433e-02 -6.608266e-01  4.453125e-01
   endloop
 endfacet
 facet normal -8.091108e-01 -5.876465e-01  3.368894e-03
   outer loop
     vertex -6.570900e-02 -5.668916e-01  5.468750e-02
     vertex -5.787118e-02 -5.754438e-01  4.453125e-01
     vertex -1.363450e-01 -4.673959e-01  4.453125e-01
   endloop
 endfacet
 facet normal -6.591056e-01 -7.520435e-01 -3.240191e-03
   outer loop
     vertex -6.570900e-02 -5.668916e-01  5.468750e-02
     vertex  3.121682e-02 -6.518393e-01  5.468750e-02
     vertex -5.787118e-02 -5.754438e-01  4.453125e-01
   endloop
 endfacet
 facet normal -8.191065e-01 -5.736380e-01 -2.006714e-03
   outer loop
     vertex -1.396411e-01 -4.613228e-01  5.468750e-02
     vertex -6.570900e-02 -5.668916e-01  5.468750e-02
     vertex -1.363450e-01 -4.673959e-01  4.453125e-01
   endloop
 endfacet
 facet normal -9.289211e-01 -3.701701e-01  8.926811e-03
   outer loop
     vertex -1.742628e-01 -3.816634e-01  5.468750e-02
     vertex -1.363450e-01 -4.673959e-01  4.453125e-01
     vertex -1.857788e-01 -3.433444e-01  4.453125e-01
   endloop
 endfacet
 facet normal -9.171231e-01 -3.986011e-01  1.541688e-03
   outer loop
     vertex -1.742628e-01 -3.816634e-01  5.468750e-02
     vertex -1.396411e-01 -4.613228e-01  5.468750e-02
     vertex -1.363450e-01 -4.673959e-01  4.453125e-01
   endloop
 endfacet
 facet normal -9.914809e-01 -1.298906e-01  9.698290e-03
   outer loop
     vertex -1.956097e-01 -2.974696e-01  5.468750e-02
     vertex -1.857788e-01 -3.433444e-01  4.453125e-01
     vertex -2.031250e-01 -2.109375e-01  4.453125e-01
   endloop
 endfacet
 facet normal -9.693189e-01 -2.457658e-01 -4.467791e-03
   outer loop
     vertex -1.956097e-01 -2.974696e-01  5.468750e-02
     vertex -1.742628e-01 -3.816634e-01  5.468750e-02
     vertex -1.857788e-01 -3.433444e-01  4.453125e-01
   endloop
 endfacet
 facet normal -9.962497e-01 -8.652456e-02  0.000000e+00
   outer loop
     vertex -2.031250e-01 -2.109375e-01  5.468750e-02
     vertex -1.956097e-01 -2.974696e-01  5.468750e-02
     vertex -2.031250e-01 -2.109375e-01  4.453125e-01
   endloop
 endfacet
 facet normal  0.000000e+00 -0.000000e+00 -1.000000e+00
   outer loop
     vertex -1.741680e-01 -3.816339e-01  5.468750e-02
     vertex -1.396411e-01 -4.613228e-01  5.468750e-02
     vertex -1.742628e-01 -3.816634e-01  5.468750e-02
   endloop
 endfacet
 facet normal  0.000000e+00  0.000000e+00 -1.000000e+00
   outer loop
     vertex -1.956097e-01 -2.974696e-01  5.468750e-02
     vertex -1.741680e-01 -3.816339e-01  5.468750e-02
     vertex -1.742628e-01 -3.816634e-01  5.468750e-02
   endloop
 endfacet
 facet normal  0.000000e+00 -0.000000e+00 -1.000000e+00
   outer loop
     vertex -1.955123e-01 -2.974504e-01  5.468750e-02
     vertex -1.741680e-01 -3.816339e-01  5.468750e-02
     vertex -1.956097e-01 -2.974696e-01  5.468750e-02
   endloop
 endfacet
 facet normal  0.000000e+00  0.000000e+00 -1.000000e+00
   outer loop
     vertex -2.031250e-01 -2.109375e-01  5.468750e-02
     vertex -1.955123e-01 -2.974504e-01  5.468750e-02
     vertex -1.956097e-01 -2.974696e-01  5.468750e-02
   endloop
 endfacet
 facet normal  0.000000e+00  0.000000e+00  1.000000e+00
   outer loop
     vertex  3.121682e-02 -6.518393e-01  5.468750e-02
     vertex -6.570900e-02 -5.668916e-01  5.468750e-02
     vertex -6.459845e-02 -5.686203e-01  5.468750e-02
   endloop
 endfacet
 facet normal  0.000000e+00  0.000000e+00  1.000000e+00
   outer loop
     vertex  1.455700e-01 -7.112874e-01  5.468750e-02
     vertex  3.121682e-02 -6.518393e-01  5.468750e-02
     vertex  3.400327e-02 -6.547704e-01  5.468750e-02
   endloop
 endfacet
 facet normal  0.000000e+00  0.000000e+00  1.000000e+00
   outer loop
     vertex  1.503998e-01 -7.147369e-01  5.468750e-02
     vertex  1.455700e-01 -7.112874e-01  5.468750e-02
     vertex  3.400327e-02 -6.547704e-01  5.468750e-02
   endloop
 endfacet
 facet normal  0.000000e+00  0.000000e+00  1.000000e+00
   outer loop
     vertex  2.707833e-01 -7.418218e-01  5.468750e-02
     vertex  1.455700e-01 -7.112874e-01  5.468750e-02
     vertex  1.503998e-01 -7.147369e-01  5.468750e-02
   endloop
 endfacet
 facet normal  0.000000e+00  0.000000e+00  1.000000e+00
   outer loop
     vertex  2.777868e-01 -7.450142e-01  5.468750e-02
     vertex  2.707833e-01 -7.418218e-01  5.468750e-02
     vertex  1.503998e-01 -7.147369e-01  5.468750e-02
   endloop
 endfacet
 facet normal  0.000000e+00  0.000000e+00  1.000000e+00
   outer loop
     vertex  3.996658e-01 -7.416890e-01  5.468750e-02
     vertex  2.707833e-01 -7.418218e-01  5.468750e-02
     vertex  2.777868e-01 -7.450142e-01  5.468750e-02
   endloop
 endfacet
 facet normal  0.000000e+00  0.000000e+00  1.000000e+00
   outer loop
     vertex  3.996658e-01 -7.416890e-01  5.468750e-02
     vertex  2.777868e-01 -7.450142e-01  5.468750e-02
     vertex  3.996711e-01 -7.421875e-01  5.468750e-02
   endloop
 endfacet
 facet normal  0.000000e+00  0.000000e+00  1.000000e+00
   outer loop
     vertex  4.087171e-01 -7.438322e-01  5.468750e-02
     vertex  4.026888e-01 -7.418011e-01  5.468750e-02
     vertex  3.996711e-01 -7.421875e-01  5.468750e-02
   endloop
 endfacet
 facet normal  0.000000e+00  0.000000e+00  1.000000e+00
   outer loop
     vertex  4.087171e-01 -7.438322e-01  5.468750e-02
     vertex  4.057042e-01 -7.413967e-01  5.468750e-02
     vertex  4.026888e-01 -7.418011e-01  5.468750e-02
   endloop
 endfacet
 facet normal  0.000000e+00  0.000000e+00  1.000000e+00
   outer loop
     vertex  4.087171e-01 -7.438322e-01  5.468750e-02
     vertex  3.996711e-01 -7.421875e-01  5.468750e-02
     vertex  2.777868e-01 -7.450142e-01  5.468750e-02
   endloop
 endfacet
 facet normal  0.000000e+00  0.000000e+00  1.000000e+00
   outer loop
     vertex  4.087171e-01 -7.409742e-01  5.468750e-02
     vertex  4.057042e-01 -7.413967e-01  5.468750e-02
     vertex  4.087171e-01 -7.438322e-01  5.468750e-02
   endloop
 endfacet
 facet normal  0.000000e+00  0.000000e+00  1.000000e+00
   outer loop
     vertex -1.396411e-01 -4.613228e-01  5.468750e-02
     vertex -6.459845e-02 -5.686203e-01  5.468750e-02
     vertex -6.570900e-02 -5.668916e-01  5.468750e-02
   endloop
 endfacet
 facet normal  0.000000e+00  0.000000e+00  1.000000e+00
   outer loop
     vertex -6.459845e-02 -5.686203e-01  5.468750e-02
     vertex  3.400327e-02 -6.547704e-01  5.468750e-02
     vertex  3.121682e-02 -6.518393e-01  5.468750e-02
   endloop
 endfacet
 facet normal  0.000000e+00  0.000000e+00 -1.000000e+00
   outer loop
     vertex  4.243421e-01 -7.138158e-01  0.000000e+00
     vertex  4.139339e-01 -7.401992e-01  0.000000e+00
     vertex  4.087171e-01 -7.409742e-01  0.000000e+00
   endloop
 endfacet
 facet normal  0.000000e+00  0.000000e+00 -1.000000e+00
   outer loop
     vertex  4.243421e-01 -7.138158e-01  0.000000e+00
     vertex  4.191425e-01 -7.393700e-01  0.000000e+00
     vertex  4.139339e-01 -7.401992e-01  0.000000e+00
   endloop
 endfacet
 facet normal  0.000000e+00 -0.000000e+00 -1.000000e+00
   outer loop
     vertex  4.243421e-01 -7.138158e-01  0.000000e+00
     vertex  4.243421e-01 -7.384868e-01  0.000000e+00
     vertex  4.191425e-01 -7.393700e-01  0.000000e+00
   endloop
 endfacet
 facet normal  0.000000e+00  0.000000e+00 -1.000000e+00
   outer loop
     vertex  4.087171e-01 -6.257948e-01  0.000000e+00
     vertex  4.243421e-01 -6.459704e-01  0.000000e+00
     vertex  4.243421e-01 -7.138158e-01  0.000000e+00
   endloop
 endfacet
 facet normal  0.000000e+00  0.000000e+00 -1.000000e+00
   outer loop
     vertex  4.087171e-01 -6.257948e-01  0.000000e+00
     vertex  4.243421e-01 -7.138158e-01  0.000000e+00
     vertex  4.087171e-01 -7.409742e-01  0.000000e+00
   endloop
 endfacet
 facet normal -0.000000e+00 -0.000000e+00 -1.000000e+00
   outer loop
     vertex  4.139222e-01 -6.260437e-01  0.000000e+00
     vertex  4.243421e-01 -6.459704e-01  0.000000e+00
     vertex  4.087171e-01 -6.257948e-01  0.000000e+00
   endloop
 endfacet
 facet normal -0.000000e+00 -0.000000e+00 -1.000000e+00
   outer loop
     vertex  4.191312e-01 -6.261900e-01  0.000000e+00
     vertex  4.243421e-01 -6.459704e-01  0.000000e+00
     vertex  4.139222e-01 -6.260437e-01  0.000000e+00
   endloop
 endfacet
 facet normal -0.000000e+00 -0.000000e+00 -1.000000e+00
   outer loop
     vertex  4.243421e-01 -6.262336e-01  0.000000e+00
     vertex  4.243421e-01 -6.459704e-01  0.000000e+00
     vertex  4.191312e-01 -6.261900e-01  0.000000e+00
   endloop
 endfacet
 facet normal  1.674527e-01 -9.858801e-01  0.000000e+00
   outer loop
     vertex  4.191425e-01 -7.393700e-01  0.000000e+00
     vertex  4.243421e-01 -7.384868e-01  0.000000e+00
     vertex  4.243421e-01 -7.384868e-01  5.468750e-02
   endloop
 endfacet
 facet normal  1.674527e-01 -9.858801e-01  0.000000e+00
   outer loop
     vertex  4.191425e-01 -7.393700e-01  0.000000e+00
     vertex  4.243421e-01 -7.384868e-01  5.468750e-02
     vertex  4.191425e-01 -7.393700e-01  5.468750e-02
   endloop
 endfacet
 facet normal  1.469578e-01 -9.891428e-01  0.000000e+00
   outer loop
     vertex  4.139339e-01 -7.401992e-01  0.000000e+00
     vertex  4.139339e-01 -7.401992e-01  5.468750e-02
     vertex  4.087171e-01 -7.409742e-01  5.468750e-02
   endloop
 endfacet
 facet normal  1.572137e-01 -9.875646e-01  0.000000e+00
   outer loop
     vertex  4.139339e-01 -7.401992e-01  0.000000e+00
     vertex  4.191425e-01 -7.393700e-01  5.468750e-02
     vertex  4.139339e-01 -7.401992e-01  5.468750e-02
   endloop
 endfacet
 facet normal  1.572137e-01 -9.875646e-01  0.000000e+00
   outer loop
     vertex  4.139339e-01 -7.401992e-01  0.000000e+00
     vertex  4.191425e-01 -7.393700e-01  0.000000e+00
     vertex  4.191425e-01 -7.393700e-01  5.468750e-02
   endloop
 endfacet
 facet normal  1.469578e-01 -9.891428e-01  0.000000e+00
   outer loop
     vertex  4.087171e-01 -7.409742e-01  0.000000e+00
     vertex  4.139339e-01 -7.401992e-01  0.000000e+00
     vertex  4.087171e-01 -7.409742e-01  5.468750e-02
   endloop
 endfacet
 facet normal  1.000000e+00  0.000000e+00  0.000000e+00
   outer loop
     vertex  4.243421e-01 -7.384868e-01  0.000000e+00
     vertex  4.243421e-01 -7.381027e-01  5.468750e-02
     vertex  4.243421e-01 -7.384868e-01  5.468750e-02
   endloop
 endfacet
 facet normal  1.000000e+00  0.000000e+00 -0.000000e+00
   outer loop
     vertex  4.243421e-01 -7.138158e-01  0.000000e+00
     vertex  4.243421e-01 -7.138158e-01  5.468750e-02
     vertex  4.243421e-01 -7.381027e-01  5.468750e-02
   endloop
 endfacet
 facet normal  1.000000e+00  0.000000e+00  0.000000e+00
   outer loop
     vertex  4.243421e-01 -7.138158e-01  0.000000e+00
     vertex  4.243421e-01 -7.381027e-01  5.468750e-02
     vertex  4.243421e-01 -7.384868e-01  0.000000e+00
   endloop
 endfacet
 facet normal  0.000000e+00  0.000000e+00  1.000000e+00
   outer loop
     vertex  4.026888e-01 -7.418011e-01  5.468750e-02
     vertex  3.996658e-01 -7.416890e-01  5.468750e-02
     vertex  3.996711e-01 -7.421875e-01  5.468750e-02
   endloop
 endfacet
 facet normal  0.000000e+00  0.000000e+00  1.000000e+00
   outer loop
     vertex  4.026851e-01 -7.413128e-01  5.468750e-02
     vertex  3.996658e-01 -7.416890e-01  5.468750e-02
     vertex  4.026888e-01 -7.418011e-01  5.468750e-02
   endloop
 endfacet
 facet normal  0.000000e+00  0.000000e+00  1.000000e+00
   outer loop
     vertex  4.057042e-01 -7.413967e-01  5.468750e-02
     vertex  4.026851e-01 -7.413128e-01  5.468750e-02
     vertex  4.026888e-01 -7.418011e-01  5.468750e-02
   endloop
 endfacet
 facet normal  0.000000e+00  0.000000e+00  1.000000e+00
   outer loop
     vertex  4.057022e-01 -7.409195e-01  5.468750e-02
     vertex  4.026851e-01 -7.413128e-01  5.468750e-02
     vertex  4.057042e-01 -7.413967e-01  5.468750e-02
   endloop
 endfacet
 facet normal  0.000000e+00  0.000000e+00  1.000000e+00
   outer loop
     vertex  4.087171e-01 -7.409742e-01  5.468750e-02
     vertex  4.057022e-01 -7.409195e-01  5.468750e-02
     vertex  4.057042e-01 -7.413967e-01  5.468750e-02
   endloop
 endfacet
 facet normal  0.000000e+00  0.000000e+00  1.000000e+00
   outer loop
     vertex  4.087171e-01 -7.405091e-01  5.468750e-02
     vertex  4.057022e-01 -7.409195e-01  5.468750e-02
     vertex  4.087171e-01 -7.409742e-01  5.468750e-02
   endloop
 endfacet
 facet normal  0.000000e+00  0.000000e+00  1.000000e+00
   outer loop
     vertex  4.139339e-01 -7.401992e-01  5.468750e-02
     vertex  4.087171e-01 -7.405091e-01  5.468750e-02
     vertex  4.087171e-01 -7.409742e-01  5.468750e-02
   endloop
 endfacet
 facet normal  0.000000e+00  0.000000e+00  1.000000e+00
   outer loop
     vertex  4.139332e-01 -7.397580e-01  5.468750e-02
     vertex  4.087171e-01 -7.405091e-01  5.468750e-02
     vertex  4.139339e-01 -7.401992e-01  5.468750e-02
   endloop
 endfacet
 facet normal  0.000000e+00  0.000000e+00  1.000000e+00
   outer loop
     vertex  4.191425e-01 -7.393700e-01  5.468750e-02
     vertex  4.139332e-01 -7.397580e-01  5.468750e-02
     vertex  4.139339e-01 -7.401992e-01  5.468750e-02
   endloop
 endfacet
 facet normal  0.000000e+00  0.000000e+00  1.000000e+00
   outer loop
     vertex  4.191417e-01 -7.389559e-01  5.468750e-02
     vertex  4.139332e-01 -7.397580e-01  5.468750e-02
     vertex  4.191425e-01 -7.393700e-01  5.468750e-02
   endloop
 endfacet
 facet normal  0.000000e+00  0.000000e+00  1.000000e+00
   outer loop
     vertex  4.243421e-01 -7.384868e-01  5.468750e-02
     vertex  4.191417e-01 -7.389559e-01  5.468750e-02
     vertex  4.191425e-01 -7.393700e-01  5.468750e-02
   endloop
 endfacet
 facet normal  0.000000e+00  0.000000e+00  1.000000e+00
   outer loop
     vertex  4.243421e-01 -7.381027e-01  5.468750e-02
     vertex  4.191417e-01 -7.389559e-01  5.468750e-02
     vertex  4.243421e-01 -7.384868e-01  5.468750e-02
   endloop
 endfacet
endsolid
