solid 
 facet normal  0.000000e+00  0.000000e+00 -1.000000e+00
   outer loop
     vertex -6.236842e-01  7.734611e-18 -2.031250e-01
     vertex -7.500000e-01 -1.328125e-01 -2.031250e-01
     vertex -7.500000e-01  0.000000e+00 -2.031250e-01
   endloop
 endfacet
 facet normal  0.000000e+00 -0.000000e+00 -1.000000e+00
   outer loop
     vertex -6.236842e-01  7.734611e-18 -2.031250e-01
     vertex -6.236842e-01 -1.328125e-01 -2.031250e-01
     vertex -7.500000e-01 -1.328125e-01 -2.031250e-01
   endloop
 endfacet
 facet normal -1.000000e+00  0.000000e+00  0.000000e+00
   outer loop
     vertex -7.500000e-01  0.000000e+00 -2.031250e-01
     vertex -7.500000e-01 -1.328125e-01  2.074013e-01
     vertex -7.500000e-01  2.513749e-17  2.074013e-01
   endloop
 endfacet
 facet normal -1.000000e+00  0.000000e+00  0.000000e+00
   outer loop
     vertex -7.500000e-01  0.000000e+00 -2.031250e-01
     vertex -7.500000e-01 -1.328125e-01 -2.031250e-01
     vertex -7.500000e-01 -1.328125e-01  2.074013e-01
   endloop
 endfacet
 facet normal  0.000000e+00  0.000000e+00 -1.000000e+00
   outer loop
     vertex  6.236842e-01  8.411390e-17 -2.031250e-01
     vertex -6.236842e-01 -1.328125e-01 -2.031250e-01
     vertex -6.236842e-01  7.734611e-18 -2.031250e-01
   endloop
 endfacet
 facet normal  0.000000e+00 -0.000000e+00 -1.000000e+00
   outer loop
     vertex  6.236842e-01  8.411390e-17 -2.031250e-01
     vertex  6.236842e-01 -1.328125e-01 -2.031250e-01
     vertex -6.236842e-01 -1.328125e-01 -2.031250e-01
   endloop
 endfacet
 facet normal  1.872989e-16  1.000000e+00 -6.123234e-17
   outer loop
     vertex -6.171875e-01  0.000000e+00  2.031250e-01
     vertex -7.500000e-01  0.000000e+00 -2.031250e-01
     vertex -7.500000e-01  2.513749e-17  2.074013e-01
   endloop
 endfacet
 facet normal -6.123234e-17  1.000000e+00  2.001826e-17
   outer loop
     vertex -6.171875e-01  0.000000e+00  2.031250e-01
     vertex -6.236842e-01  7.734611e-18 -2.031250e-01
     vertex -7.500000e-01  0.000000e+00 -2.031250e-01
   endloop
 endfacet
 facet normal -6.123234e-17  1.000000e+00 -7.780040e-15
   outer loop
     vertex -6.171875e-01  0.000000e+00  2.031250e-01
     vertex -7.500000e-01  2.513749e-17  2.074013e-01
     vertex -6.236842e-01  3.287210e-17  2.074013e-01
   endloop
 endfacet
 facet normal  2.479135e-15  1.000000e+00 -3.920636e-15
   outer loop
     vertex -6.171875e-01  1.676588e-17  2.074013e-01
     vertex -6.171875e-01  0.000000e+00  2.031250e-01
     vertex -6.236842e-01  3.287210e-17  2.074013e-01
   endloop
 endfacet
 facet normal -6.123234e-17  1.000000e+00  2.001826e-17
   outer loop
     vertex  6.171875e-01  7.558367e-17  2.031250e-01
     vertex  6.236842e-01  8.411390e-17 -2.031250e-01
     vertex -6.236842e-01  7.734611e-18 -2.031250e-01
   endloop
 endfacet
 facet normal -6.123234e-17  1.000000e+00  2.001826e-17
   outer loop
     vertex  6.171875e-01  7.558367e-17  2.031250e-01
     vertex  7.500000e-01  9.184851e-17 -2.031250e-01
     vertex  6.236842e-01  8.411390e-17 -2.031250e-01
   endloop
 endfacet
 facet normal -6.123234e-17  1.000000e+00  2.001826e-17
   outer loop
     vertex  6.171875e-01  7.558367e-17  2.031250e-01
     vertex -6.236842e-01  7.734611e-18 -2.031250e-01
     vertex -6.171875e-01  0.000000e+00  2.031250e-01
   endloop
 endfacet
 facet normal -2.601599e-15  1.000000e+00 -3.920636e-15
   outer loop
     vertex  6.236842e-01  1.092514e-16  2.074013e-01
     vertex  6.171875e-01  7.558367e-17  2.031250e-01
     vertex  6.171875e-01  9.234955e-17  2.074013e-01
   endloop
 endfacet
 facet normal -3.097636e-16  1.000000e+00 -6.123234e-17
   outer loop
     vertex  7.500000e-01  1.169860e-16  2.074013e-01
     vertex  7.500000e-01  9.184851e-17 -2.031250e-01
     vertex  6.171875e-01  7.558367e-17  2.031250e-01
   endloop
 endfacet
 facet normal -6.123234e-17  1.000000e+00 -7.780040e-15
   outer loop
     vertex  7.500000e-01  1.169860e-16  2.074013e-01
     vertex  6.171875e-01  7.558367e-17  2.031250e-01
     vertex  6.236842e-01  1.092514e-16  2.074013e-01
   endloop
 endfacet
 facet normal -0.000000e+00 -1.000000e+00  0.000000e+00
   outer loop
     vertex -6.171875e-01 -1.328125e-01  2.031250e-01
     vertex -7.500000e-01 -1.328125e-01  2.074013e-01
     vertex -7.500000e-01 -1.328125e-01 -2.031250e-01
   endloop
 endfacet
 facet normal  0.000000e+00 -1.000000e+00  0.000000e+00
   outer loop
     vertex -6.171875e-01 -1.328125e-01  2.031250e-01
     vertex -7.500000e-01 -1.328125e-01 -2.031250e-01
     vertex -6.236842e-01 -1.328125e-01 -2.031250e-01
   endloop
 endfacet
 facet normal  0.000000e+00 -1.000000e+00  0.000000e+00
   outer loop
     vertex -6.171875e-01 -1.328125e-01  2.031250e-01
     vertex -6.236842e-01 -1.328125e-01  2.074013e-01
     vertex -7.500000e-01 -1.328125e-01  2.074013e-01
   endloop
 endfacet
 facet normal -0.000000e+00 -1.000000e+00 -0.000000e+00
   outer loop
     vertex -6.171875e-01 -1.328125e-01  2.074013e-01
     vertex -6.236842e-01 -1.328125e-01  2.074013e-01
     vertex -6.171875e-01 -1.328125e-01  2.031250e-01
   endloop
 endfacet
 facet normal  0.000000e+00 -1.000000e+00 -0.000000e+00
   outer loop
     vertex  6.171875e-01 -1.328125e-01  2.031250e-01
     vertex -6.236842e-01 -1.328125e-01 -2.031250e-01
     vertex  6.236842e-01 -1.328125e-01 -2.031250e-01
   endloop
 endfacet
 facet normal  0.000000e+00 -1.000000e+00  0.000000e+00
   outer loop
     vertex  6.171875e-01 -1.328125e-01  2.031250e-01
     vertex  6.236842e-01 -1.328125e-01 -2.031250e-01
     vertex  7.500000e-01 -1.328125e-01 -2.031250e-01
   endloop
 endfacet
 facet normal -0.000000e+00 -1.000000e+00  0.000000e+00
   outer loop
     vertex  6.171875e-01 -1.328125e-01  2.031250e-01
     vertex -6.171875e-01 -1.328125e-01  2.031250e-01
     vertex -6.236842e-01 -1.328125e-01 -2.031250e-01
   endloop
 endfacet
 facet normal -0.000000e+00 -1.000000e+00  0.000000e+00
   outer loop
     vertex  6.236842e-01 -1.328125e-01  2.074013e-01
     vertex  6.171875e-01 -1.328125e-01  2.074013e-01
     vertex  6.171875e-01 -1.328125e-01  2.031250e-01
   endloop
 endfacet
 facet normal  0.000000e+00 -1.000000e+00 -0.000000e+00
   outer loop
     vertex  7.500000e-01 -1.328125e-01  2.074013e-01
     vertex  6.171875e-01 -1.328125e-01  2.031250e-01
     vertex  7.500000e-01 -1.328125e-01 -2.031250e-01
   endloop
 endfacet
 facet normal -0.000000e+00 -1.000000e+00  0.000000e+00
   outer loop
     vertex  7.500000e-01 -1.328125e-01  2.074013e-01
     vertex  6.236842e-01 -1.328125e-01  2.074013e-01
     vertex  6.171875e-01 -1.328125e-01  2.031250e-01
   endloop
 endfacet
 facet normal -0.000000e+00  0.000000e+00  1.000000e+00
   outer loop
     vertex -7.500000e-01  2.513749e-17  2.074013e-01
     vertex -6.236842e-01 -1.328125e-01  2.074013e-01
     vertex -6.236842e-01  3.287210e-17  2.074013e-01
   endloop
 endfacet
 facet normal  0.000000e+00  0.000000e+00  1.000000e+00
   outer loop
     vertex -7.500000e-01  2.513749e-17  2.074013e-01
     vertex -7.500000e-01 -1.328125e-01  2.074013e-01
     vertex -6.236842e-01 -1.328125e-01  2.074013e-01
   endloop
 endfacet
 facet normal  0.000000e+00  0.000000e+00 -1.000000e+00
   outer loop
     vertex  7.500000e-01  9.184851e-17 -2.031250e-01
     vertex  6.236842e-01 -1.328125e-01 -2.031250e-01
     vertex  6.236842e-01  8.411390e-17 -2.031250e-01
   endloop
 endfacet
 facet normal  0.000000e+00 -0.000000e+00 -1.000000e+00
   outer loop
     vertex  7.500000e-01  9.184851e-17 -2.031250e-01
     vertex  7.500000e-01 -1.328125e-01 -2.031250e-01
     vertex  6.236842e-01 -1.328125e-01 -2.031250e-01
   endloop
 endfacet
 facet normal  0.000000e+00  0.000000e+00  1.000000e+00
   outer loop
     vertex -6.236842e-01  3.287210e-17  2.074013e-01
     vertex -6.171875e-01 -1.328125e-01  2.074013e-01
     vertex -6.171875e-01  1.676588e-17  2.074013e-01
   endloop
 endfacet
 facet normal  0.000000e+00  0.000000e+00  1.000000e+00
   outer loop
     vertex -6.236842e-01  3.287210e-17  2.074013e-01
     vertex -6.236842e-01 -1.328125e-01  2.074013e-01
     vertex -6.171875e-01 -1.328125e-01  2.074013e-01
   endloop
 endfacet
 facet normal -6.123234e-17  1.000000e+00 -3.920636e-15
   outer loop
     vertex  6.171875e-01  9.234955e-17  2.074013e-01
     vertex -6.171875e-01  0.000000e+00  2.031250e-01
     vertex -6.171875e-01  1.676588e-17  2.074013e-01
   endloop
 endfacet
 facet normal -6.123234e-17  1.000000e+00 -3.920636e-15
   outer loop
     vertex  6.171875e-01  9.234955e-17  2.074013e-01
     vertex  6.171875e-01  7.558367e-17  2.031250e-01
     vertex -6.171875e-01  0.000000e+00  2.031250e-01
   endloop
 endfacet
 facet normal -0.000000e+00  0.000000e+00  1.000000e+00
   outer loop
     vertex  6.171875e-01  9.234955e-17  2.074013e-01
     vertex  6.236842e-01 -1.328125e-01  2.074013e-01
     vertex  6.236842e-01  1.092514e-16  2.074013e-01
   endloop
 endfacet
 facet normal  0.000000e+00  0.000000e+00  1.000000e+00
   outer loop
     vertex  6.171875e-01  9.234955e-17  2.074013e-01
     vertex  6.171875e-01 -1.328125e-01  2.074013e-01
     vertex  6.236842e-01 -1.328125e-01  2.074013e-01
   endloop
 endfacet
 facet normal -0.000000e+00  0.000000e+00  1.000000e+00
   outer loop
     vertex  6.236842e-01  1.092514e-16  2.074013e-01
     vertex  7.500000e-01 -1.328125e-01  2.074013e-01
     vertex  7.500000e-01  1.169860e-16  2.074013e-01
   endloop
 endfacet
 facet normal  0.000000e+00  0.000000e+00  1.000000e+00
   outer loop
     vertex  6.236842e-01  1.092514e-16  2.074013e-01
     vertex  6.236842e-01 -1.328125e-01  2.074013e-01
     vertex  7.500000e-01 -1.328125e-01  2.074013e-01
   endloop
 endfacet
 facet normal  1.000000e+00  0.000000e+00  0.000000e+00
   outer loop
     vertex  7.500000e-01  1.169860e-16  2.074013e-01
     vertex  7.500000e-01 -1.328125e-01 -2.031250e-01
     vertex  7.500000e-01  9.184851e-17 -2.031250e-01
   endloop
 endfacet
 facet normal  1.000000e+00  0.000000e+00  0.000000e+00
   outer loop
     vertex  7.500000e-01  1.169860e-16  2.074013e-01
     vertex  7.500000e-01 -1.328125e-01  2.074013e-01
     vertex  7.500000e-01 -1.328125e-01 -2.031250e-01
   endloop
 endfacet
 facet normal -0.000000e+00 -1.000000e+00  0.000000e+00
   outer loop
     vertex  6.171875e-01 -1.328125e-01  2.074013e-01
     vertex -6.171875e-01 -1.328125e-01  2.074013e-01
     vertex -6.171875e-01 -1.328125e-01  2.031250e-01
   endloop
 endfacet
 facet normal  0.000000e+00 -1.000000e+00 -0.000000e+00
   outer loop
     vertex  6.171875e-01 -1.328125e-01  2.074013e-01
     vertex -6.171875e-01 -1.328125e-01  2.031250e-01
     vertex  6.171875e-01 -1.328125e-01  2.031250e-01
   endloop
 endfacet
 facet normal -1.000000e+00  0.000000e+00  0.000000e+00
   outer loop
     vertex -6.171875e-01  1.676588e-17  2.074013e-01
     vertex -6.171875e-01 -1.328125e-01  4.110197e-01
     vertex -6.171875e-01  1.272988e-17  4.110197e-01
   endloop
 endfacet
 facet normal -1.000000e+00  0.000000e+00  0.000000e+00
   outer loop
     vertex -6.171875e-01  1.676588e-17  2.074013e-01
     vertex -6.171875e-01 -1.328125e-01  2.074013e-01
     vertex -6.171875e-01 -1.328125e-01  4.110197e-01
   endloop
 endfacet
 facet normal -6.123234e-17  1.000000e+00  1.982137e-17
   outer loop
     vertex  6.171875e-01  8.831355e-17  4.110197e-01
     vertex -6.171875e-01  1.676588e-17  2.074013e-01
     vertex -6.171875e-01  1.272988e-17  4.110197e-01
   endloop
 endfacet
 facet normal -6.123234e-17  1.000000e+00  1.982137e-17
   outer loop
     vertex  6.171875e-01  8.831355e-17  4.110197e-01
     vertex  6.171875e-01  9.234955e-17  2.074013e-01
     vertex -6.171875e-01  1.676588e-17  2.074013e-01
   endloop
 endfacet
 facet normal  1.000000e+00  0.000000e+00  0.000000e+00
   outer loop
     vertex  6.171875e-01  8.831355e-17  4.110197e-01
     vertex  6.171875e-01 -1.328125e-01  2.074013e-01
     vertex  6.171875e-01  9.234955e-17  2.074013e-01
   endloop
 endfacet
 facet normal  1.000000e+00  0.000000e+00  0.000000e+00
   outer loop
     vertex  6.171875e-01  8.831355e-17  4.110197e-01
     vertex  6.171875e-01 -1.328125e-01  4.110197e-01
     vertex  6.171875e-01 -1.328125e-01  2.074013e-01
   endloop
 endfacet
 facet normal -0.000000e+00 -1.000000e+00  0.000000e+00
   outer loop
     vertex  6.171875e-01 -1.328125e-01  4.110197e-01
     vertex -6.171875e-01 -1.328125e-01  4.110197e-01
     vertex -6.171875e-01 -1.328125e-01  2.074013e-01
   endloop
 endfacet
 facet normal  0.000000e+00 -1.000000e+00 -0.000000e+00
   outer loop
     vertex  6.171875e-01 -1.328125e-01  4.110197e-01
     vertex -6.171875e-01 -1.328125e-01  2.074013e-01
     vertex  6.171875e-01 -1.328125e-01  2.074013e-01
   endloop
 endfacet
 facet normal -0.000000e+00  0.000000e+00  1.000000e+00
   outer loop
     vertex -6.171875e-01  1.272988e-17  4.110197e-01
     vertex  6.171875e-01 -1.328125e-01  4.110197e-01
     vertex  6.171875e-01  8.831355e-17  4.110197e-01
   endloop
 endfacet
 facet normal  0.000000e+00  0.000000e+00  1.000000e+00
   outer loop
     vertex -6.171875e-01  1.272988e-17  4.110197e-01
     vertex -6.171875e-01 -1.328125e-01  4.110197e-01
     vertex  6.171875e-01 -1.328125e-01  4.110197e-01
   endloop
 endfacet
 facet normal  0.000000e+00  0.000000e+00 -1.000000e+00
   outer loop
     vertex  6.171875e-01  7.558367e-17 -4.140625e-01
     vertex -6.171875e-01 -1.328125e-01 -4.140625e-01
     vertex -6.171875e-01  0.000000e+00 -4.140625e-01
   endloop
 endfacet
 facet normal  0.000000e+00 -0.000000e+00 -1.000000e+00
   outer loop
     vertex  6.171875e-01  7.558367e-17 -4.140625e-01
     vertex  6.171875e-01 -1.328125e-01 -4.140625e-01
     vertex -6.171875e-01 -1.328125e-01 -4.140625e-01
   endloop
 endfacet
 facet normal  1.000000e+00  0.000000e+00  0.000000e+00
   outer loop
     vertex  6.171875e-01  8.831355e-17 -2.061678e-01
     vertex  6.171875e-01 -1.328125e-01 -4.140625e-01
     vertex  6.171875e-01  7.558367e-17 -4.140625e-01
   endloop
 endfacet
 facet normal  1.000000e+00  0.000000e+00  0.000000e+00
   outer loop
     vertex  6.171875e-01  8.831355e-17 -2.061678e-01
     vertex  6.171875e-01 -1.328125e-01 -2.061678e-01
     vertex  6.171875e-01 -1.328125e-01 -4.140625e-01
   endloop
 endfacet
 facet normal -0.000000e+00  0.000000e+00  1.000000e+00
   outer loop
     vertex -6.171875e-01  1.272988e-17 -2.061678e-01
     vertex  6.171875e-01 -1.328125e-01 -2.061678e-01
     vertex  6.171875e-01  8.831355e-17 -2.061678e-01
   endloop
 endfacet
 facet normal  0.000000e+00  0.000000e+00  1.000000e+00
   outer loop
     vertex -6.171875e-01  1.272988e-17 -2.061678e-01
     vertex -6.171875e-01 -1.328125e-01 -2.061678e-01
     vertex  6.171875e-01 -1.328125e-01 -2.061678e-01
   endloop
 endfacet
 facet normal -1.000000e+00  0.000000e+00  0.000000e+00
   outer loop
     vertex -6.171875e-01  0.000000e+00 -4.140625e-01
     vertex -6.171875e-01 -1.328125e-01 -2.061678e-01
     vertex -6.171875e-01  1.272988e-17 -2.061678e-01
   endloop
 endfacet
 facet normal -1.000000e+00  0.000000e+00  0.000000e+00
   outer loop
     vertex -6.171875e-01  0.000000e+00 -4.140625e-01
     vertex -6.171875e-01 -1.328125e-01 -4.140625e-01
     vertex -6.171875e-01 -1.328125e-01 -2.061678e-01
   endloop
 endfacet
 facet normal -6.123234e-17  1.000000e+00 -6.123234e-17
   outer loop
     vertex  6.171875e-01  8.831355e-17 -2.061678e-01
     vertex  6.171875e-01  7.558367e-17 -4.140625e-01
     vertex -6.171875e-01  0.000000e+00 -4.140625e-01
   endloop
 endfacet
 facet normal -6.123234e-17  1.000000e+00 -6.123234e-17
   outer loop
     vertex  6.171875e-01  8.831355e-17 -2.061678e-01
     vertex -6.171875e-01  0.000000e+00 -4.140625e-01
     vertex -6.171875e-01  1.272988e-17 -2.061678e-01
   endloop
 endfacet
 facet normal  0.000000e+00 -1.000000e+00 -0.000000e+00
   outer loop
     vertex  6.171875e-01 -1.328125e-01 -2.061678e-01
     vertex -6.171875e-01 -1.328125e-01 -4.140625e-01
     vertex  6.171875e-01 -1.328125e-01 -4.140625e-01
   endloop
 endfacet
 facet normal -0.000000e+00 -1.000000e+00  0.000000e+00
   outer loop
     vertex  6.171875e-01 -1.328125e-01 -2.061678e-01
     vertex -6.171875e-01 -1.328125e-01 -2.061678e-01
     vertex -6.171875e-01 -1.328125e-01 -4.140625e-01
   endloop
 endfacet
endsolid
