solid 
 facet normal  1.205367e-01  0.000000e+00 -9.927089e-01
   outer loop
     vertex  1.567768e-01  1.057344e-17 -6.247244e-01
     vertex  2.796053e-03  0.000000e+00 -6.434211e-01
     vertex  2.796053e-03  7.500000e-01 -6.434211e-01
   endloop
 endfacet
 facet normal  1.205367e-01 -1.469504e-16 -9.927089e-01
   outer loop
     vertex  1.567768e-01  1.057344e-17 -6.247244e-01
     vertex  2.796053e-03  7.500000e-01 -6.434211e-01
     vertex  1.567768e-01  7.500000e-01 -6.247244e-01
   endloop
 endfacet
 facet normal  3.546049e-01 -1.384102e-16 -9.350162e-01
   outer loop
     vertex  3.018087e-01  2.282207e-17 -5.697210e-01
     vertex  1.567768e-01  7.500000e-01 -6.247244e-01
     vertex  3.018087e-01  7.500000e-01 -5.697210e-01
   endloop
 endfacet
 facet normal  3.546049e-01 -1.491161e-16 -9.350162e-01
   outer loop
     vertex  3.018087e-01  2.282207e-17 -5.697210e-01
     vertex  1.567768e-01  1.057344e-17 -6.247244e-01
     vertex  1.567768e-01  7.500000e-01 -6.247244e-01
   endloop
 endfacet
 facet normal  5.680647e-01 -6.091304e-17 -8.229839e-01
   outer loop
     vertex  4.294631e-01  3.603404e-17 -4.816076e-01
     vertex  3.018087e-01  7.500000e-01 -5.697210e-01
     vertex  4.294631e-01  7.500000e-01 -4.816076e-01
   endloop
 endfacet
 facet normal  5.680647e-01 -1.192929e-16 -8.229839e-01
   outer loop
     vertex  4.294631e-01  3.603404e-17 -4.816076e-01
     vertex  3.018087e-01  2.282207e-17 -5.697210e-01
     vertex  3.018087e-01  7.500000e-01 -5.697210e-01
   endloop
 endfacet
 facet normal  7.485107e-01 -4.908094e-17 -6.631227e-01
   outer loop
     vertex  5.323212e-01  4.944153e-17 -3.655048e-01
     vertex  4.294631e-01  7.500000e-01 -4.816076e-01
     vertex  5.323212e-01  7.500000e-01 -3.655048e-01
   endloop
 endfacet
 facet normal  8.854560e-01 -3.439642e-17 -4.647232e-01
   outer loop
     vertex  5.323212e-01  4.944153e-17 -3.655048e-01
     vertex  5.323212e-01  7.500000e-01 -3.655048e-01
     vertex  6.044052e-01  7.500000e-01 -2.281602e-01
   endloop
 endfacet
 facet normal  7.485107e-01 -4.473483e-17 -6.631227e-01
   outer loop
     vertex  5.323212e-01  4.944153e-17 -3.655048e-01
     vertex  4.294631e-01  3.603404e-17 -4.816076e-01
     vertex  4.294631e-01  7.500000e-01 -4.816076e-01
   endloop
 endfacet
 facet normal  8.854560e-01 -3.439642e-17 -4.647232e-01
   outer loop
     vertex  6.044052e-01  6.226533e-17 -2.281602e-01
     vertex  5.323212e-01  4.944153e-17 -3.655048e-01
     vertex  6.044052e-01  7.500000e-01 -2.281602e-01
   endloop
 endfacet
 facet normal  9.709418e-01 -1.328469e-17 -2.393157e-01
   outer loop
     vertex  6.415258e-01  7.376017e-17 -7.755584e-02
     vertex  6.044052e-01  7.500000e-01 -2.281602e-01
     vertex  6.415258e-01  7.500000e-01 -7.755584e-02
   endloop
 endfacet
 facet normal  9.709418e-01 -2.236741e-17 -2.393157e-01
   outer loop
     vertex  6.415258e-01  7.376017e-17 -7.755584e-02
     vertex  6.044052e-01  6.226533e-17 -2.281602e-01
     vertex  6.044052e-01  7.500000e-01 -2.281602e-01
   endloop
 endfacet
 facet normal  1.000000e+00  0.000000e+00  0.000000e+00
   outer loop
     vertex  6.415258e-01  8.325802e-17  7.755584e-02
     vertex  6.415258e-01  7.500000e-01 -7.755584e-02
     vertex  6.415258e-01  7.500000e-01  7.755584e-02
   endloop
 endfacet
 facet normal  1.000000e+00  0.000000e+00  0.000000e+00
   outer loop
     vertex  6.415258e-01  8.325802e-17  7.755584e-02
     vertex  6.415258e-01  7.376017e-17 -7.755584e-02
     vertex  6.415258e-01  7.500000e-01 -7.755584e-02
   endloop
 endfacet
 facet normal  9.709418e-01  1.771292e-17  2.393157e-01
   outer loop
     vertex  6.044052e-01  9.020690e-17  2.281602e-01
     vertex  6.415258e-01  7.500000e-01  7.755584e-02
     vertex  6.044052e-01  7.500000e-01  2.281602e-01
   endloop
 endfacet
 facet normal  8.854560e-01  3.439642e-17  4.647232e-01
   outer loop
     vertex  6.044052e-01  9.020690e-17  2.281602e-01
     vertex  6.044052e-01  7.500000e-01  2.281602e-01
     vertex  5.323212e-01  7.500000e-01  3.655048e-01
   endloop
 endfacet
 facet normal  9.709418e-01  7.455804e-18  2.393157e-01
   outer loop
     vertex  6.044052e-01  9.020690e-17  2.281602e-01
     vertex  6.415258e-01  8.325802e-17  7.755584e-02
     vertex  6.415258e-01  7.500000e-01  7.755584e-02
   endloop
 endfacet
 facet normal  8.854560e-01  3.439642e-17  4.647232e-01
   outer loop
     vertex  5.323212e-01  9.420296e-17  3.655048e-01
     vertex  6.044052e-01  9.020690e-17  2.281602e-01
     vertex  5.323212e-01  7.500000e-01  3.655048e-01
   endloop
 endfacet
 facet normal  7.485107e-01  4.908094e-17  6.631227e-01
   outer loop
     vertex  4.294631e-01  9.501396e-17  4.816076e-01
     vertex  5.323212e-01  7.500000e-01  3.655048e-01
     vertex  4.294631e-01  7.500000e-01  4.816076e-01
   endloop
 endfacet
 facet normal  7.485107e-01  4.473483e-17  6.631227e-01
   outer loop
     vertex  4.294631e-01  9.501396e-17  4.816076e-01
     vertex  5.323212e-01  9.420296e-17  3.655048e-01
     vertex  5.323212e-01  7.500000e-01  3.655048e-01
   endloop
 endfacet
 facet normal  5.680647e-01  1.218261e-16  8.229839e-01
   outer loop
     vertex  3.018087e-01  9.259278e-17  5.697210e-01
     vertex  4.294631e-01  7.500000e-01  4.816076e-01
     vertex  3.018087e-01  7.500000e-01  5.697210e-01
   endloop
 endfacet
 facet normal  3.546049e-01  1.384102e-16  9.350162e-01
   outer loop
     vertex  3.018087e-01  9.259278e-17  5.697210e-01
     vertex  3.018087e-01  7.500000e-01  5.697210e-01
     vertex  1.567768e-01  7.500000e-01  6.247244e-01
   endloop
 endfacet
 facet normal  5.680647e-01  5.964644e-17  8.229839e-01
   outer loop
     vertex  3.018087e-01  9.259278e-17  5.697210e-01
     vertex  4.294631e-01  9.501396e-17  4.816076e-01
     vertex  4.294631e-01  7.500000e-01  4.816076e-01
   endloop
 endfacet
 facet normal  3.546049e-01  1.384102e-16  9.350162e-01
   outer loop
     vertex  1.567768e-01  8.708011e-17  6.247244e-01
     vertex  3.018087e-01  9.259278e-17  5.697210e-01
     vertex  1.567768e-01  7.500000e-01  6.247244e-01
   endloop
 endfacet
 facet normal  1.205367e-01  1.469504e-16  9.927089e-01
   outer loop
     vertex  1.567768e-01  8.708011e-17  6.247244e-01
     vertex  1.567768e-01  7.500000e-01  6.247244e-01
     vertex  2.796053e-03  7.500000e-01  6.434211e-01
   endloop
 endfacet
 facet normal  1.205367e-01  1.469504e-16  9.927089e-01
   outer loop
     vertex  2.796053e-03  7.879635e-17  6.434211e-01
     vertex  1.567768e-01  8.708011e-17  6.247244e-01
     vertex  2.796053e-03  7.500000e-01  6.434211e-01
   endloop
 endfacet
 facet normal -1.205367e-01  1.469504e-16  9.927089e-01
   outer loop
     vertex -1.511847e-01  6.822291e-17  6.247244e-01
     vertex  2.796053e-03  7.500000e-01  6.434211e-01
     vertex -1.511847e-01  7.500000e-01  6.247244e-01
   endloop
 endfacet
 facet normal -1.205367e-01  1.453882e-16  9.927089e-01
   outer loop
     vertex -1.511847e-01  6.822291e-17  6.247244e-01
     vertex  2.796053e-03  7.879635e-17  6.434211e-01
     vertex  2.796053e-03  7.500000e-01  6.434211e-01
   endloop
 endfacet
 facet normal -3.546049e-01  1.384102e-16  9.350162e-01
   outer loop
     vertex -1.511847e-01  6.822291e-17  6.247244e-01
     vertex -1.511847e-01  7.500000e-01  6.247244e-01
     vertex -2.962166e-01  7.500000e-01  5.697210e-01
   endloop
 endfacet
 facet normal -3.546049e-01  1.384102e-16  9.350162e-01
   outer loop
     vertex -2.962166e-01  5.597428e-17  5.697210e-01
     vertex -1.511847e-01  6.822291e-17  6.247244e-01
     vertex -2.962166e-01  7.500000e-01  5.697210e-01
   endloop
 endfacet
 facet normal -5.680647e-01  6.091304e-17  8.229839e-01
   outer loop
     vertex -4.238710e-01  4.276231e-17  4.816076e-01
     vertex -2.962166e-01  7.500000e-01  5.697210e-01
     vertex -4.238710e-01  7.500000e-01  4.816076e-01
   endloop
 endfacet
 facet normal -5.680647e-01  1.192929e-16  8.229839e-01
   outer loop
     vertex -4.238710e-01  4.276231e-17  4.816076e-01
     vertex -2.962166e-01  5.597428e-17  5.697210e-01
     vertex -2.962166e-01  7.500000e-01  5.697210e-01
   endloop
 endfacet
 facet normal -7.485107e-01  4.908094e-17  6.631227e-01
   outer loop
     vertex -5.267291e-01  2.935483e-17  3.655048e-01
     vertex -4.238710e-01  7.500000e-01  4.816076e-01
     vertex -5.267291e-01  7.500000e-01  3.655048e-01
   endloop
 endfacet
 facet normal -8.854560e-01  3.439642e-17  4.647232e-01
   outer loop
     vertex -5.267291e-01  2.935483e-17  3.655048e-01
     vertex -5.267291e-01  7.500000e-01  3.655048e-01
     vertex -5.988131e-01  7.500000e-01  2.281602e-01
   endloop
 endfacet
 facet normal -7.485107e-01  4.473483e-17  6.631227e-01
   outer loop
     vertex -5.267291e-01  2.935483e-17  3.655048e-01
     vertex -4.238710e-01  4.276231e-17  4.816076e-01
     vertex -4.238710e-01  7.500000e-01  4.816076e-01
   endloop
 endfacet
 facet normal -8.854560e-01  3.439642e-17  4.647232e-01
   outer loop
     vertex -5.988131e-01  1.653103e-17  2.281602e-01
     vertex -5.267291e-01  2.935483e-17  3.655048e-01
     vertex -5.988131e-01  7.500000e-01  2.281602e-01
   endloop
 endfacet
 facet normal -9.709418e-01  1.328469e-17  2.393157e-01
   outer loop
     vertex -6.359337e-01  5.036182e-18  7.755584e-02
     vertex -5.988131e-01  7.500000e-01  2.281602e-01
     vertex -6.359337e-01  7.500000e-01  7.755584e-02
   endloop
 endfacet
 facet normal -1.000000e+00  1.191975e-31  2.147272e-15
   outer loop
     vertex -6.359337e-01  5.036182e-18  7.755584e-02
     vertex -6.359337e-01  7.500000e-01  7.755584e-02
     vertex -6.359337e-01  7.500000e-01 -7.755584e-02
   endloop
 endfacet
 facet normal -9.709418e-01  1.491161e-17  2.393157e-01
   outer loop
     vertex -6.359337e-01  5.036182e-18  7.755584e-02
     vertex -5.988131e-01  1.653103e-17  2.281602e-01
     vertex -5.988131e-01  7.500000e-01  2.281602e-01
   endloop
 endfacet
 facet normal -9.709418e-01 -1.328469e-17 -2.393157e-01
   outer loop
     vertex -6.359337e-01 -4.461668e-18 -7.755584e-02
     vertex -6.359337e-01  7.500000e-01 -7.755584e-02
     vertex -5.988131e-01  7.500000e-01 -2.281602e-01
   endloop
 endfacet
 facet normal -1.000000e+00  1.191975e-31  2.147272e-15
   outer loop
     vertex -6.359337e-01 -4.461668e-18 -7.755584e-02
     vertex -6.359337e-01  5.036182e-18  7.755584e-02
     vertex -6.359337e-01  7.500000e-01 -7.755584e-02
   endloop
 endfacet
 facet normal -9.709418e-01 -1.771292e-17 -2.393157e-01
   outer loop
     vertex -5.988131e-01 -1.141054e-17 -2.281602e-01
     vertex -6.359337e-01 -4.461668e-18 -7.755584e-02
     vertex -5.988131e-01  7.500000e-01 -2.281602e-01
   endloop
 endfacet
 facet normal -8.854560e-01 -3.439642e-17 -4.647232e-01
   outer loop
     vertex -5.267291e-01 -1.540660e-17 -3.655048e-01
     vertex -5.988131e-01  7.500000e-01 -2.281602e-01
     vertex -5.267291e-01  7.500000e-01 -3.655048e-01
   endloop
 endfacet
 facet normal -7.485107e-01 -4.908094e-17 -6.631227e-01
   outer loop
     vertex -5.267291e-01 -1.540660e-17 -3.655048e-01
     vertex -5.267291e-01  7.500000e-01 -3.655048e-01
     vertex -4.238710e-01  7.500000e-01 -4.816076e-01
   endloop
 endfacet
 facet normal -8.854560e-01 -4.473483e-17 -4.647232e-01
   outer loop
     vertex -5.267291e-01 -1.540660e-17 -3.655048e-01
     vertex -5.988131e-01 -1.141054e-17 -2.281602e-01
     vertex -5.988131e-01  7.500000e-01 -2.281602e-01
   endloop
 endfacet
 facet normal -7.485107e-01 -4.908094e-17 -6.631227e-01
   outer loop
     vertex -4.238710e-01 -1.621761e-17 -4.816076e-01
     vertex -5.267291e-01 -1.540660e-17 -3.655048e-01
     vertex -4.238710e-01  7.500000e-01 -4.816076e-01
   endloop
 endfacet
 facet normal -5.680647e-01 -1.218261e-16 -8.229839e-01
   outer loop
     vertex -2.962166e-01 -1.379642e-17 -5.697210e-01
     vertex -4.238710e-01  7.500000e-01 -4.816076e-01
     vertex -2.962166e-01  7.500000e-01 -5.697210e-01
   endloop
 endfacet
 facet normal -3.546049e-01 -1.384102e-16 -9.350162e-01
   outer loop
     vertex -2.962166e-01 -1.379642e-17 -5.697210e-01
     vertex -2.962166e-01  7.500000e-01 -5.697210e-01
     vertex -1.511847e-01  7.500000e-01 -6.247244e-01
   endloop
 endfacet
 facet normal -5.680647e-01 -5.964644e-17 -8.229839e-01
   outer loop
     vertex -2.962166e-01 -1.379642e-17 -5.697210e-01
     vertex -4.238710e-01 -1.621761e-17 -4.816076e-01
     vertex -4.238710e-01  7.500000e-01 -4.816076e-01
   endloop
 endfacet
 facet normal -3.546049e-01 -1.384102e-16 -9.350162e-01
   outer loop
     vertex -1.511847e-01 -8.283761e-18 -6.247244e-01
     vertex -2.962166e-01 -1.379642e-17 -5.697210e-01
     vertex -1.511847e-01  7.500000e-01 -6.247244e-01
   endloop
 endfacet
 facet normal -1.205367e-01  0.000000e+00 -9.927089e-01
   outer loop
     vertex  2.796053e-03  0.000000e+00 -6.434211e-01
     vertex -1.511847e-01  7.500000e-01 -6.247244e-01
     vertex  2.796053e-03  7.500000e-01 -6.434211e-01
   endloop
 endfacet
 facet normal -1.205367e-01 -1.453882e-16 -9.927089e-01
   outer loop
     vertex  2.796053e-03  0.000000e+00 -6.434211e-01
     vertex -1.511847e-01 -8.283761e-18 -6.247244e-01
     vertex -1.511847e-01  7.500000e-01 -6.247244e-01
   endloop
 endfacet
 facet normal -1.205367e-01  0.000000e+00  9.927089e-01
   outer loop
     vertex  1.535689e-01  1.117396e-17 -6.117093e-01
     vertex  2.796053e-03  7.500000e-01 -6.300164e-01
     vertex  2.796053e-03  8.207953e-19 -6.300164e-01
   endloop
 endfacet
 facet normal -1.205367e-01  1.469504e-16  9.927089e-01
   outer loop
     vertex  1.535689e-01  1.117396e-17 -6.117093e-01
     vertex  1.535689e-01  7.500000e-01 -6.117093e-01
     vertex  2.796053e-03  7.500000e-01 -6.300164e-01
   endloop
 endfacet
 facet normal -3.546049e-01  1.384102e-16  9.350162e-01
   outer loop
     vertex  2.955793e-01  2.316740e-17 -5.578519e-01
     vertex  2.955793e-01  7.500000e-01 -5.578519e-01
     vertex  1.535689e-01  7.500000e-01 -6.117093e-01
   endloop
 endfacet
 facet normal -3.546049e-01  1.446743e-16  9.350162e-01
   outer loop
     vertex  2.955793e-01  2.316740e-17 -5.578519e-01
     vertex  1.535689e-01  7.500000e-01 -6.117093e-01
     vertex  1.535689e-01  1.117396e-17 -6.117093e-01
   endloop
 endfacet
 facet normal -5.680647e-01  6.091304e-17  8.229839e-01
   outer loop
     vertex  4.205742e-01  3.610413e-17 -4.715741e-01
     vertex  4.205742e-01  7.500000e-01 -4.715741e-01
     vertex  2.955793e-01  7.500000e-01 -5.578519e-01
   endloop
 endfacet
 facet normal -5.680647e-01  1.218310e-16  8.229839e-01
   outer loop
     vertex  4.205742e-01  3.610413e-17 -4.715741e-01
     vertex  2.955793e-01  7.500000e-01 -5.578519e-01
     vertex  2.955793e-01  2.316740e-17 -5.578519e-01
   endloop
 endfacet
 facet normal -7.485107e-01  4.908094e-17  6.631227e-01
   outer loop
     vertex  5.212894e-01  4.923229e-17 -3.578901e-01
     vertex  5.212894e-01  7.500000e-01 -3.578901e-01
     vertex  4.205742e-01  7.500000e-01 -4.715741e-01
   endloop
 endfacet
 facet normal -8.854560e-01  3.439642e-17  4.647232e-01
   outer loop
     vertex  5.212894e-01  4.923229e-17 -3.578901e-01
     vertex  5.918717e-01  7.500000e-01 -2.234069e-01
     vertex  5.212894e-01  7.500000e-01 -3.578901e-01
   endloop
 endfacet
 facet normal -7.485107e-01  4.568663e-17  6.631227e-01
   outer loop
     vertex  5.212894e-01  4.923229e-17 -3.578901e-01
     vertex  4.205742e-01  7.500000e-01 -4.715741e-01
     vertex  4.205742e-01  3.610413e-17 -4.715741e-01
   endloop
 endfacet
 facet normal -8.854560e-01  3.439642e-17  4.647232e-01
   outer loop
     vertex  5.918717e-01  6.178893e-17 -2.234069e-01
     vertex  5.918717e-01  7.500000e-01 -2.234069e-01
     vertex  5.212894e-01  4.923229e-17 -3.578901e-01
   endloop
 endfacet
 facet normal -9.709418e-01  1.328469e-17  2.393157e-01
   outer loop
     vertex  6.282190e-01  7.304430e-17 -7.594009e-02
     vertex  6.282190e-01  7.500000e-01 -7.594009e-02
     vertex  5.918717e-01  7.500000e-01 -2.234069e-01
   endloop
 endfacet
 facet normal -9.709418e-01  2.284332e-17  2.393157e-01
   outer loop
     vertex  6.282190e-01  7.304430e-17 -7.594009e-02
     vertex  5.918717e-01  7.500000e-01 -2.234069e-01
     vertex  5.918717e-01  6.178893e-17 -2.234069e-01
   endloop
 endfacet
 facet normal -1.000000e+00  0.000000e+00  0.000000e+00
   outer loop
     vertex  6.282190e-01  8.234427e-17  7.594009e-02
     vertex  6.282190e-01  7.500000e-01  7.594009e-02
     vertex  6.282190e-01  7.500000e-01 -7.594009e-02
   endloop
 endfacet
 facet normal -1.000000e+00  0.000000e+00 -0.000000e+00
   outer loop
     vertex  6.282190e-01  8.234427e-17  7.594009e-02
     vertex  6.282190e-01  7.500000e-01 -7.594009e-02
     vertex  6.282190e-01  7.304430e-17 -7.594009e-02
   endloop
 endfacet
 facet normal -9.709418e-01 -1.771292e-17 -2.393157e-01
   outer loop
     vertex  5.918717e-01  8.914838e-17  2.234069e-01
     vertex  5.918717e-01  7.500000e-01  2.234069e-01
     vertex  6.282190e-01  7.500000e-01  7.594009e-02
   endloop
 endfacet
 facet normal -8.854560e-01 -3.439642e-17 -4.647232e-01
   outer loop
     vertex  5.918717e-01  8.914838e-17  2.234069e-01
     vertex  5.212894e-01  7.500000e-01  3.578901e-01
     vertex  5.918717e-01  7.500000e-01  2.234069e-01
   endloop
 endfacet
 facet normal -9.709418e-01 -1.522888e-17 -2.393157e-01
   outer loop
     vertex  5.918717e-01  8.914838e-17  2.234069e-01
     vertex  6.282190e-01  7.500000e-01  7.594009e-02
     vertex  6.282190e-01  8.234427e-17  7.594009e-02
   endloop
 endfacet
 facet normal -8.854560e-01 -3.439642e-17 -4.647232e-01
   outer loop
     vertex  5.212894e-01  9.306119e-17  3.578901e-01
     vertex  5.212894e-01  7.500000e-01  3.578901e-01
     vertex  5.918717e-01  8.914838e-17  2.234069e-01
   endloop
 endfacet
 facet normal -7.485107e-01 -4.908094e-17 -6.631227e-01
   outer loop
     vertex  4.205742e-01  9.385530e-17  4.715741e-01
     vertex  4.205742e-01  7.500000e-01  4.715741e-01
     vertex  5.212894e-01  7.500000e-01  3.578901e-01
   endloop
 endfacet
 facet normal -7.485107e-01 -4.568663e-17 -6.631227e-01
   outer loop
     vertex  4.205742e-01  9.385530e-17  4.715741e-01
     vertex  5.212894e-01  7.500000e-01  3.578901e-01
     vertex  5.212894e-01  9.306119e-17  3.578901e-01
   endloop
 endfacet
 facet normal -5.680647e-01 -1.218261e-16 -8.229839e-01
   outer loop
     vertex  2.955793e-01  9.148455e-17  5.578519e-01
     vertex  2.955793e-01  7.500000e-01  5.578519e-01
     vertex  4.205742e-01  7.500000e-01  4.715741e-01
   endloop
 endfacet
 facet normal -3.546049e-01 -1.384102e-16 -9.350162e-01
   outer loop
     vertex  2.955793e-01  9.148455e-17  5.578519e-01
     vertex  1.535689e-01  7.500000e-01  6.117093e-01
     vertex  2.955793e-01  7.500000e-01  5.578519e-01
   endloop
 endfacet
 facet normal -5.680647e-01 -6.091551e-17 -8.229839e-01
   outer loop
     vertex  2.955793e-01  9.148455e-17  5.578519e-01
     vertex  4.205742e-01  7.500000e-01  4.715741e-01
     vertex  4.205742e-01  9.385530e-17  4.715741e-01
   endloop
 endfacet
 facet normal -3.546049e-01 -1.384102e-16 -9.350162e-01
   outer loop
     vertex  1.535689e-01  8.608674e-17  6.117093e-01
     vertex  1.535689e-01  7.500000e-01  6.117093e-01
     vertex  2.955793e-01  9.148455e-17  5.578519e-01
   endloop
 endfacet
 facet normal -1.205367e-01 -1.469504e-16 -9.927089e-01
   outer loop
     vertex  1.535689e-01  8.608674e-17  6.117093e-01
     vertex  2.796053e-03  7.500000e-01  6.300164e-01
     vertex  1.535689e-01  7.500000e-01  6.117093e-01
   endloop
 endfacet
 facet normal -1.205367e-01 -1.469504e-16 -9.927089e-01
   outer loop
     vertex  2.796053e-03  7.797556e-17  6.300164e-01
     vertex  2.796053e-03  7.500000e-01  6.300164e-01
     vertex  1.535689e-01  8.608674e-17  6.117093e-01
   endloop
 endfacet
 facet normal  1.205367e-01 -1.469504e-16 -9.927089e-01
   outer loop
     vertex -1.479768e-01  6.762240e-17  6.117093e-01
     vertex -1.479768e-01  7.500000e-01  6.117093e-01
     vertex  2.796053e-03  7.500000e-01  6.300164e-01
   endloop
 endfacet
 facet normal  1.205367e-01 -1.446743e-16 -9.927089e-01
   outer loop
     vertex -1.479768e-01  6.762240e-17  6.117093e-01
     vertex  2.796053e-03  7.500000e-01  6.300164e-01
     vertex  2.796053e-03  7.797556e-17  6.300164e-01
   endloop
 endfacet
 facet normal  3.546049e-01 -1.384102e-16 -9.350162e-01
   outer loop
     vertex -1.479768e-01  6.762240e-17  6.117093e-01
     vertex -2.899872e-01  7.500000e-01  5.578519e-01
     vertex -1.479768e-01  7.500000e-01  6.117093e-01
   endloop
 endfacet
 facet normal  3.546049e-01 -1.384102e-16 -9.350162e-01
   outer loop
     vertex -2.899872e-01  5.562895e-17  5.578519e-01
     vertex -2.899872e-01  7.500000e-01  5.578519e-01
     vertex -1.479768e-01  6.762240e-17  6.117093e-01
   endloop
 endfacet
 facet normal  5.680647e-01 -6.091304e-17 -8.229839e-01
   outer loop
     vertex -4.149821e-01  4.269223e-17  4.715741e-01
     vertex -4.149821e-01  7.500000e-01  4.715741e-01
     vertex -2.899872e-01  7.500000e-01  5.578519e-01
   endloop
 endfacet
 facet normal  5.680647e-01 -1.218310e-16 -8.229839e-01
   outer loop
     vertex -4.149821e-01  4.269223e-17  4.715741e-01
     vertex -2.899872e-01  7.500000e-01  5.578519e-01
     vertex -2.899872e-01  5.562895e-17  5.578519e-01
   endloop
 endfacet
 facet normal  7.485107e-01 -4.908094e-17 -6.631227e-01
   outer loop
     vertex -5.156973e-01  2.956406e-17  3.578901e-01
     vertex -5.156973e-01  7.500000e-01  3.578901e-01
     vertex -4.149821e-01  7.500000e-01  4.715741e-01
   endloop
 endfacet
 facet normal  8.854560e-01 -3.439642e-17 -4.647232e-01
   outer loop
     vertex -5.156973e-01  2.956406e-17  3.578901e-01
     vertex -5.862796e-01  7.500000e-01  2.234069e-01
     vertex -5.156973e-01  7.500000e-01  3.578901e-01
   endloop
 endfacet
 facet normal  7.485107e-01 -6.091551e-17 -6.631227e-01
   outer loop
     vertex -5.156973e-01  2.956406e-17  3.578901e-01
     vertex -4.149821e-01  7.500000e-01  4.715741e-01
     vertex -4.149821e-01  4.269223e-17  4.715741e-01
   endloop
 endfacet
 facet normal  8.854560e-01 -3.439642e-17 -4.647232e-01
   outer loop
     vertex -5.862796e-01  1.700743e-17  2.234069e-01
     vertex -5.862796e-01  7.500000e-01  2.234069e-01
     vertex -5.156973e-01  2.956406e-17  3.578901e-01
   endloop
 endfacet
 facet normal  9.709418e-01 -1.328469e-17 -2.393157e-01
   outer loop
     vertex -6.226269e-01  5.752057e-18  7.594009e-02
     vertex -6.226269e-01  7.500000e-01  7.594009e-02
     vertex -5.862796e-01  7.500000e-01  2.234069e-01
   endloop
 endfacet
 facet normal  1.000000e+00 -1.217336e-31 -2.192958e-15
   outer loop
     vertex -6.226269e-01  5.752057e-18  7.594009e-02
     vertex -6.226269e-01  7.500000e-01 -7.594009e-02
     vertex -6.226269e-01  7.500000e-01  7.594009e-02
   endloop
 endfacet
 facet normal  9.709418e-01 -1.522888e-17 -2.393157e-01
   outer loop
     vertex -6.226269e-01  5.752057e-18  7.594009e-02
     vertex -5.862796e-01  7.500000e-01  2.234069e-01
     vertex -5.862796e-01  1.700743e-17  2.234069e-01
   endloop
 endfacet
 facet normal  9.709418e-01  1.328469e-17  2.393157e-01
   outer loop
     vertex -6.226269e-01 -3.547922e-18 -7.594009e-02
     vertex -5.862796e-01  7.500000e-01 -2.234069e-01
     vertex -6.226269e-01  7.500000e-01 -7.594009e-02
   endloop
 endfacet
 facet normal  1.000000e+00 -1.217336e-31 -2.192958e-15
   outer loop
     vertex -6.226269e-01 -3.547922e-18 -7.594009e-02
     vertex -6.226269e-01  7.500000e-01 -7.594009e-02
     vertex -6.226269e-01  5.752057e-18  7.594009e-02
   endloop
 endfacet
 facet normal  9.709418e-01  1.771292e-17  2.393157e-01
   outer loop
     vertex -5.862796e-01 -1.035203e-17 -2.234069e-01
     vertex -5.862796e-01  7.500000e-01 -2.234069e-01
     vertex -6.226269e-01 -3.547922e-18 -7.594009e-02
   endloop
 endfacet
 facet normal  8.854560e-01  3.439642e-17  4.647232e-01
   outer loop
     vertex -5.156973e-01 -1.426484e-17 -3.578901e-01
     vertex -5.156973e-01  7.500000e-01 -3.578901e-01
     vertex -5.862796e-01  7.500000e-01 -2.234069e-01
   endloop
 endfacet
 facet normal  7.485107e-01  4.908094e-17  6.631227e-01
   outer loop
     vertex -5.156973e-01 -1.426484e-17 -3.578901e-01
     vertex -4.149821e-01  7.500000e-01 -4.715741e-01
     vertex -5.156973e-01  7.500000e-01 -3.578901e-01
   endloop
 endfacet
 facet normal  8.854560e-01  4.568663e-17  4.647232e-01
   outer loop
     vertex -5.156973e-01 -1.426484e-17 -3.578901e-01
     vertex -5.862796e-01  7.500000e-01 -2.234069e-01
     vertex -5.862796e-01 -1.035203e-17 -2.234069e-01
   endloop
 endfacet
 facet normal  7.485107e-01  4.908094e-17  6.631227e-01
   outer loop
     vertex -4.149821e-01 -1.505894e-17 -4.715741e-01
     vertex -4.149821e-01  7.500000e-01 -4.715741e-01
     vertex -5.156973e-01 -1.426484e-17 -3.578901e-01
   endloop
 endfacet
 facet normal  5.680647e-01  1.218261e-16  8.229839e-01
   outer loop
     vertex -2.899872e-01 -1.268820e-17 -5.578519e-01
     vertex -2.899872e-01  7.500000e-01 -5.578519e-01
     vertex -4.149821e-01  7.500000e-01 -4.715741e-01
   endloop
 endfacet
 facet normal  3.546049e-01  1.384102e-16  9.350162e-01
   outer loop
     vertex -2.899872e-01 -1.268820e-17 -5.578519e-01
     vertex -1.479768e-01  7.500000e-01 -6.117093e-01
     vertex -2.899872e-01  7.500000e-01 -5.578519e-01
   endloop
 endfacet
 facet normal  5.680647e-01  6.091551e-17  8.229839e-01
   outer loop
     vertex -2.899872e-01 -1.268820e-17 -5.578519e-01
     vertex -4.149821e-01  7.500000e-01 -4.715741e-01
     vertex -4.149821e-01 -1.505894e-17 -4.715741e-01
   endloop
 endfacet
 facet normal  3.546049e-01  1.384102e-16  9.350162e-01
   outer loop
     vertex -1.479768e-01 -7.290388e-18 -6.117093e-01
     vertex -1.479768e-01  7.500000e-01 -6.117093e-01
     vertex -2.899872e-01 -1.268820e-17 -5.578519e-01
   endloop
 endfacet
 facet normal  1.205367e-01 -0.000000e+00  9.927089e-01
   outer loop
     vertex  2.796053e-03  8.207953e-19 -6.300164e-01
     vertex  2.796053e-03  7.500000e-01 -6.300164e-01
     vertex -1.479768e-01  7.500000e-01 -6.117093e-01
   endloop
 endfacet
 facet normal  1.205367e-01  1.484816e-16  9.927089e-01
   outer loop
     vertex  2.796053e-03  8.207953e-19 -6.300164e-01
     vertex -1.479768e-01  7.500000e-01 -6.117093e-01
     vertex -1.479768e-01 -7.290388e-18 -6.117093e-01
   endloop
 endfacet
 facet normal  6.123234e-17 -1.000000e+00  6.123234e-17
   outer loop
     vertex -5.156973e-01 -1.426484e-17 -3.578901e-01
     vertex -5.267291e-01 -1.540660e-17 -3.655048e-01
     vertex -4.238710e-01 -1.621761e-17 -4.816076e-01
   endloop
 endfacet
 facet normal  6.123234e-17 -1.000000e+00  6.123234e-17
   outer loop
     vertex -5.156973e-01 -1.426484e-17 -3.578901e-01
     vertex -4.238710e-01 -1.621761e-17 -4.816076e-01
     vertex -4.149821e-01 -1.505894e-17 -4.715741e-01
   endloop
 endfacet
 facet normal  6.123234e-17 -1.000000e+00  6.123234e-17
   outer loop
     vertex -2.899872e-01 -1.268820e-17 -5.578519e-01
     vertex -4.238710e-01 -1.621761e-17 -4.816076e-01
     vertex -2.962166e-01 -1.379642e-17 -5.697210e-01
   endloop
 endfacet
 facet normal  6.123234e-17 -1.000000e+00  6.123234e-17
   outer loop
     vertex -2.899872e-01 -1.268820e-17 -5.578519e-01
     vertex -4.149821e-01 -1.505894e-17 -4.715741e-01
     vertex -4.238710e-01 -1.621761e-17 -4.816076e-01
   endloop
 endfacet
 facet normal  6.123234e-17 -1.000000e+00  6.123234e-17
   outer loop
     vertex -5.862796e-01 -1.035203e-17 -2.234069e-01
     vertex -5.988131e-01 -1.141054e-17 -2.281602e-01
     vertex -5.267291e-01 -1.540660e-17 -3.655048e-01
   endloop
 endfacet
 facet normal  6.123234e-17 -1.000000e+00  6.123234e-17
   outer loop
     vertex -5.862796e-01 -1.035203e-17 -2.234069e-01
     vertex -5.267291e-01 -1.540660e-17 -3.655048e-01
     vertex -5.156973e-01 -1.426484e-17 -3.578901e-01
   endloop
 endfacet
 facet normal  6.123234e-17 -1.000000e+00  6.123234e-17
   outer loop
     vertex -1.479768e-01 -7.290388e-18 -6.117093e-01
     vertex -2.962166e-01 -1.379642e-17 -5.697210e-01
     vertex -1.511847e-01 -8.283761e-18 -6.247244e-01
   endloop
 endfacet
 facet normal  6.123234e-17 -1.000000e+00  6.123234e-17
   outer loop
     vertex -1.479768e-01 -7.290388e-18 -6.117093e-01
     vertex -2.899872e-01 -1.268820e-17 -5.578519e-01
     vertex -2.962166e-01 -1.379642e-17 -5.697210e-01
   endloop
 endfacet
 facet normal  6.123234e-17 -1.000000e+00  6.123234e-17
   outer loop
     vertex -6.226269e-01 -3.547922e-18 -7.594009e-02
     vertex -6.359337e-01 -4.461668e-18 -7.755584e-02
     vertex -5.988131e-01 -1.141054e-17 -2.281602e-01
   endloop
 endfacet
 facet normal  6.123234e-17 -1.000000e+00  6.123234e-17
   outer loop
     vertex -6.226269e-01 -3.547922e-18 -7.594009e-02
     vertex -5.988131e-01 -1.141054e-17 -2.281602e-01
     vertex -5.862796e-01 -1.035203e-17 -2.234069e-01
   endloop
 endfacet
 facet normal  6.123234e-17 -1.000000e+00  6.123234e-17
   outer loop
     vertex  2.796053e-03  8.207953e-19 -6.300164e-01
     vertex -1.511847e-01 -8.283761e-18 -6.247244e-01
     vertex  2.796053e-03  0.000000e+00 -6.434211e-01
   endloop
 endfacet
 facet normal  6.123234e-17 -1.000000e+00  6.123234e-17
   outer loop
     vertex  2.796053e-03  8.207953e-19 -6.300164e-01
     vertex -1.479768e-01 -7.290388e-18 -6.117093e-01
     vertex -1.511847e-01 -8.283761e-18 -6.247244e-01
   endloop
 endfacet
 facet normal  6.123234e-17 -1.000000e+00  6.123234e-17
   outer loop
     vertex -6.226269e-01  5.752057e-18  7.594009e-02
     vertex -6.359337e-01  5.036182e-18  7.755584e-02
     vertex -6.359337e-01 -4.461668e-18 -7.755584e-02
   endloop
 endfacet
 facet normal  6.123234e-17 -1.000000e+00  6.123234e-17
   outer loop
     vertex -6.226269e-01  5.752057e-18  7.594009e-02
     vertex -6.359337e-01 -4.461668e-18 -7.755584e-02
     vertex -6.226269e-01 -3.547922e-18 -7.594009e-02
   endloop
 endfacet
 facet normal  6.123234e-17 -1.000000e+00  6.123234e-17
   outer loop
     vertex  1.535689e-01  1.117396e-17 -6.117093e-01
     vertex  2.796053e-03  0.000000e+00 -6.434211e-01
     vertex  1.567768e-01  1.057344e-17 -6.247244e-01
   endloop
 endfacet
 facet normal  6.123234e-17 -1.000000e+00  6.123234e-17
   outer loop
     vertex  1.535689e-01  1.117396e-17 -6.117093e-01
     vertex  2.796053e-03  8.207953e-19 -6.300164e-01
     vertex  2.796053e-03  0.000000e+00 -6.434211e-01
   endloop
 endfacet
 facet normal  6.123234e-17 -1.000000e+00  6.123234e-17
   outer loop
     vertex -5.862796e-01  1.700743e-17  2.234069e-01
     vertex -5.988131e-01  1.653103e-17  2.281602e-01
     vertex -6.359337e-01  5.036182e-18  7.755584e-02
   endloop
 endfacet
 facet normal  6.123234e-17 -1.000000e+00  6.123234e-17
   outer loop
     vertex -5.862796e-01  1.700743e-17  2.234069e-01
     vertex -6.359337e-01  5.036182e-18  7.755584e-02
     vertex -6.226269e-01  5.752057e-18  7.594009e-02
   endloop
 endfacet
 facet normal  6.123234e-17 -1.000000e+00  6.123234e-17
   outer loop
     vertex  2.955793e-01  2.316740e-17 -5.578519e-01
     vertex  1.567768e-01  1.057344e-17 -6.247244e-01
     vertex  3.018087e-01  2.282207e-17 -5.697210e-01
   endloop
 endfacet
 facet normal  6.123234e-17 -1.000000e+00  6.123234e-17
   outer loop
     vertex  2.955793e-01  2.316740e-17 -5.578519e-01
     vertex  1.535689e-01  1.117396e-17 -6.117093e-01
     vertex  1.567768e-01  1.057344e-17 -6.247244e-01
   endloop
 endfacet
 facet normal  6.123234e-17 -1.000000e+00  6.123234e-17
   outer loop
     vertex -5.156973e-01  2.956406e-17  3.578901e-01
     vertex -5.267291e-01  2.935483e-17  3.655048e-01
     vertex -5.988131e-01  1.653103e-17  2.281602e-01
   endloop
 endfacet
 facet normal  6.123234e-17 -1.000000e+00  6.123234e-17
   outer loop
     vertex -5.156973e-01  2.956406e-17  3.578901e-01
     vertex -5.988131e-01  1.653103e-17  2.281602e-01
     vertex -5.862796e-01  1.700743e-17  2.234069e-01
   endloop
 endfacet
 facet normal  6.123234e-17 -1.000000e+00  6.123234e-17
   outer loop
     vertex  4.205742e-01  3.610413e-17 -4.715741e-01
     vertex  3.018087e-01  2.282207e-17 -5.697210e-01
     vertex  4.294631e-01  3.603404e-17 -4.816076e-01
   endloop
 endfacet
 facet normal  6.123234e-17 -1.000000e+00  6.123234e-17
   outer loop
     vertex  4.205742e-01  3.610413e-17 -4.715741e-01
     vertex  2.955793e-01  2.316740e-17 -5.578519e-01
     vertex  3.018087e-01  2.282207e-17 -5.697210e-01
   endloop
 endfacet
 facet normal  6.123234e-17 -1.000000e+00  6.123234e-17
   outer loop
     vertex -4.149821e-01  4.269223e-17  4.715741e-01
     vertex -5.267291e-01  2.935483e-17  3.655048e-01
     vertex -5.156973e-01  2.956406e-17  3.578901e-01
   endloop
 endfacet
 facet normal  6.123234e-17 -1.000000e+00  6.123234e-17
   outer loop
     vertex -4.238710e-01  4.276231e-17  4.816076e-01
     vertex -5.267291e-01  2.935483e-17  3.655048e-01
     vertex -4.149821e-01  4.269223e-17  4.715741e-01
   endloop
 endfacet
 facet normal  6.123234e-17 -1.000000e+00  6.123234e-17
   outer loop
     vertex  5.323212e-01  4.944153e-17 -3.655048e-01
     vertex  5.212894e-01  4.923229e-17 -3.578901e-01
     vertex  4.205742e-01  3.610413e-17 -4.715741e-01
   endloop
 endfacet
 facet normal  6.123234e-17 -1.000000e+00  6.123234e-17
   outer loop
     vertex  5.323212e-01  4.944153e-17 -3.655048e-01
     vertex  4.205742e-01  3.610413e-17 -4.715741e-01
     vertex  4.294631e-01  3.603404e-17 -4.816076e-01
   endloop
 endfacet
 facet normal  6.123234e-17 -1.000000e+00  6.123234e-17
   outer loop
     vertex -2.962166e-01  5.597428e-17  5.697210e-01
     vertex -4.238710e-01  4.276231e-17  4.816076e-01
     vertex -4.149821e-01  4.269223e-17  4.715741e-01
   endloop
 endfacet
 facet normal  6.123234e-17 -1.000000e+00  6.123234e-17
   outer loop
     vertex -2.962166e-01  5.597428e-17  5.697210e-01
     vertex -4.149821e-01  4.269223e-17  4.715741e-01
     vertex -2.899872e-01  5.562895e-17  5.578519e-01
   endloop
 endfacet
 facet normal  6.123234e-17 -1.000000e+00  6.123234e-17
   outer loop
     vertex  6.044052e-01  6.226533e-17 -2.281602e-01
     vertex  5.212894e-01  4.923229e-17 -3.578901e-01
     vertex  5.323212e-01  4.944153e-17 -3.655048e-01
   endloop
 endfacet
 facet normal  6.123234e-17 -1.000000e+00  6.123234e-17
   outer loop
     vertex  6.044052e-01  6.226533e-17 -2.281602e-01
     vertex  5.918717e-01  6.178893e-17 -2.234069e-01
     vertex  5.212894e-01  4.923229e-17 -3.578901e-01
   endloop
 endfacet
 facet normal  6.123234e-17 -1.000000e+00  6.123234e-17
   outer loop
     vertex -1.511847e-01  6.822291e-17  6.247244e-01
     vertex -2.962166e-01  5.597428e-17  5.697210e-01
     vertex -2.899872e-01  5.562895e-17  5.578519e-01
   endloop
 endfacet
 facet normal  6.123234e-17 -1.000000e+00  6.123234e-17
   outer loop
     vertex -1.511847e-01  6.822291e-17  6.247244e-01
     vertex -2.899872e-01  5.562895e-17  5.578519e-01
     vertex -1.479768e-01  6.762240e-17  6.117093e-01
   endloop
 endfacet
 facet normal  6.123234e-17 -1.000000e+00  6.123234e-17
   outer loop
     vertex  6.415258e-01  7.376017e-17 -7.755584e-02
     vertex  5.918717e-01  6.178893e-17 -2.234069e-01
     vertex  6.044052e-01  6.226533e-17 -2.281602e-01
   endloop
 endfacet
 facet normal  6.123234e-17 -1.000000e+00  6.123234e-17
   outer loop
     vertex  6.415258e-01  7.376017e-17 -7.755584e-02
     vertex  6.282190e-01  7.304430e-17 -7.594009e-02
     vertex  5.918717e-01  6.178893e-17 -2.234069e-01
   endloop
 endfacet
 facet normal  6.123234e-17 -1.000000e+00  6.123234e-17
   outer loop
     vertex  2.796053e-03  7.879635e-17  6.434211e-01
     vertex -1.511847e-01  6.822291e-17  6.247244e-01
     vertex -1.479768e-01  6.762240e-17  6.117093e-01
   endloop
 endfacet
 facet normal  6.123234e-17 -1.000000e+00  6.123234e-17
   outer loop
     vertex  2.796053e-03  7.879635e-17  6.434211e-01
     vertex -1.479768e-01  6.762240e-17  6.117093e-01
     vertex  2.796053e-03  7.797556e-17  6.300164e-01
   endloop
 endfacet
 facet normal  6.123234e-17 -1.000000e+00  6.123234e-17
   outer loop
     vertex  6.415258e-01  8.325802e-17  7.755584e-02
     vertex  6.282190e-01  7.304430e-17 -7.594009e-02
     vertex  6.415258e-01  7.376017e-17 -7.755584e-02
   endloop
 endfacet
 facet normal  6.123234e-17 -1.000000e+00  6.123234e-17
   outer loop
     vertex  6.415258e-01  8.325802e-17  7.755584e-02
     vertex  6.282190e-01  8.234427e-17  7.594009e-02
     vertex  6.282190e-01  7.304430e-17 -7.594009e-02
   endloop
 endfacet
 facet normal  6.123234e-17 -1.000000e+00  6.123234e-17
   outer loop
     vertex  1.567768e-01  8.708011e-17  6.247244e-01
     vertex  2.796053e-03  7.797556e-17  6.300164e-01
     vertex  1.535689e-01  8.608674e-17  6.117093e-01
   endloop
 endfacet
 facet normal  6.123234e-17 -1.000000e+00  6.123234e-17
   outer loop
     vertex  1.567768e-01  8.708011e-17  6.247244e-01
     vertex  2.796053e-03  7.879635e-17  6.434211e-01
     vertex  2.796053e-03  7.797556e-17  6.300164e-01
   endloop
 endfacet
 facet normal  6.123234e-17 -1.000000e+00  6.123234e-17
   outer loop
     vertex  6.044052e-01  9.020690e-17  2.281602e-01
     vertex  5.918717e-01  8.914838e-17  2.234069e-01
     vertex  6.282190e-01  8.234427e-17  7.594009e-02
   endloop
 endfacet
 facet normal  6.123234e-17 -1.000000e+00  6.123234e-17
   outer loop
     vertex  6.044052e-01  9.020690e-17  2.281602e-01
     vertex  6.282190e-01  8.234427e-17  7.594009e-02
     vertex  6.415258e-01  8.325802e-17  7.755584e-02
   endloop
 endfacet
 facet normal  6.123234e-17 -1.000000e+00  6.123234e-17
   outer loop
     vertex  3.018087e-01  9.259278e-17  5.697210e-01
     vertex  1.535689e-01  8.608674e-17  6.117093e-01
     vertex  2.955793e-01  9.148455e-17  5.578519e-01
   endloop
 endfacet
 facet normal  6.123234e-17 -1.000000e+00  6.123234e-17
   outer loop
     vertex  3.018087e-01  9.259278e-17  5.697210e-01
     vertex  1.567768e-01  8.708011e-17  6.247244e-01
     vertex  1.535689e-01  8.608674e-17  6.117093e-01
   endloop
 endfacet
 facet normal  6.123234e-17 -1.000000e+00  6.123234e-17
   outer loop
     vertex  5.212894e-01  9.306119e-17  3.578901e-01
     vertex  5.918717e-01  8.914838e-17  2.234069e-01
     vertex  6.044052e-01  9.020690e-17  2.281602e-01
   endloop
 endfacet
 facet normal  6.123234e-17 -1.000000e+00  6.123234e-17
   outer loop
     vertex  5.323212e-01  9.420296e-17  3.655048e-01
     vertex  5.212894e-01  9.306119e-17  3.578901e-01
     vertex  6.044052e-01  9.020690e-17  2.281602e-01
   endloop
 endfacet
 facet normal  6.123234e-17 -1.000000e+00  6.123234e-17
   outer loop
     vertex  5.323212e-01  9.420296e-17  3.655048e-01
     vertex  4.205742e-01  9.385530e-17  4.715741e-01
     vertex  5.212894e-01  9.306119e-17  3.578901e-01
   endloop
 endfacet
 facet normal  6.123234e-17 -1.000000e+00  6.123234e-17
   outer loop
     vertex  4.294631e-01  9.501396e-17  4.816076e-01
     vertex  3.018087e-01  9.259278e-17  5.697210e-01
     vertex  2.955793e-01  9.148455e-17  5.578519e-01
   endloop
 endfacet
 facet normal  6.123234e-17 -1.000000e+00  6.123234e-17
   outer loop
     vertex  4.294631e-01  9.501396e-17  4.816076e-01
     vertex  2.955793e-01  9.148455e-17  5.578519e-01
     vertex  4.205742e-01  9.385530e-17  4.715741e-01
   endloop
 endfacet
 facet normal  6.123234e-17 -1.000000e+00  6.123234e-17
   outer loop
     vertex  4.294631e-01  9.501396e-17  4.816076e-01
     vertex  4.205742e-01  9.385530e-17  4.715741e-01
     vertex  5.323212e-01  9.420296e-17  3.655048e-01
   endloop
 endfacet
 facet normal  4.095828e-16  1.000000e+00 -5.933831e-16
   outer loop
     vertex -5.156973e-01  7.500000e-01 -3.578901e-01
     vertex -4.238710e-01  7.500000e-01 -4.816076e-01
     vertex -5.267291e-01  7.500000e-01 -3.655048e-01
   endloop
 endfacet
 facet normal -6.244998e-15  1.000000e+00 -5.532586e-15
   outer loop
     vertex -5.156973e-01  7.500000e-01 -3.578901e-01
     vertex -4.149821e-01  7.500000e-01 -4.715741e-01
     vertex -4.238710e-01  7.500000e-01 -4.816076e-01
   endloop
 endfacet
 facet normal -6.384264e-16  1.000000e+00  3.350720e-16
   outer loop
     vertex -2.899872e-01  7.500000e-01 -5.578519e-01
     vertex -2.962166e-01  7.500000e-01 -5.697210e-01
     vertex -4.238710e-01  7.500000e-01 -4.816076e-01
   endloop
 endfacet
 facet normal -4.739496e-15  1.000000e+00 -6.866345e-15
   outer loop
     vertex -2.899872e-01  7.500000e-01 -5.578519e-01
     vertex -4.238710e-01  7.500000e-01 -4.816076e-01
     vertex -4.149821e-01  7.500000e-01 -4.715741e-01
   endloop
 endfacet
 facet normal  0.000000e+00  1.000000e+00  0.000000e+00
   outer loop
     vertex -5.862796e-01  7.500000e-01 -2.234069e-01
     vertex -5.267291e-01  7.500000e-01 -3.655048e-01
     vertex -5.988131e-01  7.500000e-01 -2.281602e-01
   endloop
 endfacet
 facet normal  0.000000e+00  1.000000e+00  0.000000e+00
   outer loop
     vertex -5.862796e-01  7.500000e-01 -2.234069e-01
     vertex -5.156973e-01  7.500000e-01 -3.578901e-01
     vertex -5.267291e-01  7.500000e-01 -3.655048e-01
   endloop
 endfacet
 facet normal  0.000000e+00  1.000000e+00  0.000000e+00
   outer loop
     vertex -1.479768e-01  7.500000e-01 -6.117093e-01
     vertex -1.511847e-01  7.500000e-01 -6.247244e-01
     vertex -2.962166e-01  7.500000e-01 -5.697210e-01
   endloop
 endfacet
 facet normal  0.000000e+00  1.000000e+00  0.000000e+00
   outer loop
     vertex -1.479768e-01  7.500000e-01 -6.117093e-01
     vertex -2.962166e-01  7.500000e-01 -5.697210e-01
     vertex -2.899872e-01  7.500000e-01 -5.578519e-01
   endloop
 endfacet
 facet normal  0.000000e+00  1.000000e+00  0.000000e+00
   outer loop
     vertex -6.226269e-01  7.500000e-01 -7.594009e-02
     vertex -5.988131e-01  7.500000e-01 -2.281602e-01
     vertex -6.359337e-01  7.500000e-01 -7.755584e-02
   endloop
 endfacet
 facet normal  0.000000e+00  1.000000e+00  0.000000e+00
   outer loop
     vertex -6.226269e-01  7.500000e-01 -7.594009e-02
     vertex -5.862796e-01  7.500000e-01 -2.234069e-01
     vertex -5.988131e-01  7.500000e-01 -2.281602e-01
   endloop
 endfacet
 facet normal  0.000000e+00  1.000000e+00  0.000000e+00
   outer loop
     vertex  2.796053e-03  7.500000e-01 -6.300164e-01
     vertex  2.796053e-03  7.500000e-01 -6.434211e-01
     vertex -1.511847e-01  7.500000e-01 -6.247244e-01
   endloop
 endfacet
 facet normal  0.000000e+00  1.000000e+00  0.000000e+00
   outer loop
     vertex  2.796053e-03  7.500000e-01 -6.300164e-01
     vertex -1.511847e-01  7.500000e-01 -6.247244e-01
     vertex -1.479768e-01  7.500000e-01 -6.117093e-01
   endloop
 endfacet
 facet normal  0.000000e+00  1.000000e+00  0.000000e+00
   outer loop
     vertex -6.226269e-01  7.500000e-01  7.594009e-02
     vertex -6.359337e-01  7.500000e-01 -7.755584e-02
     vertex -6.359337e-01  7.500000e-01  7.755584e-02
   endloop
 endfacet
 facet normal  0.000000e+00  1.000000e+00  0.000000e+00
   outer loop
     vertex -6.226269e-01  7.500000e-01  7.594009e-02
     vertex -6.226269e-01  7.500000e-01 -7.594009e-02
     vertex -6.359337e-01  7.500000e-01 -7.755584e-02
   endloop
 endfacet
 facet normal  0.000000e+00  1.000000e+00  0.000000e+00
   outer loop
     vertex  1.535689e-01  7.500000e-01 -6.117093e-01
     vertex  1.567768e-01  7.500000e-01 -6.247244e-01
     vertex  2.796053e-03  7.500000e-01 -6.434211e-01
   endloop
 endfacet
 facet normal  0.000000e+00  1.000000e+00  0.000000e+00
   outer loop
     vertex  1.535689e-01  7.500000e-01 -6.117093e-01
     vertex  2.796053e-03  7.500000e-01 -6.434211e-01
     vertex  2.796053e-03  7.500000e-01 -6.300164e-01
   endloop
 endfacet
 facet normal  0.000000e+00  1.000000e+00  0.000000e+00
   outer loop
     vertex -5.862796e-01  7.500000e-01  2.234069e-01
     vertex -6.359337e-01  7.500000e-01  7.755584e-02
     vertex -5.988131e-01  7.500000e-01  2.281602e-01
   endloop
 endfacet
 facet normal  0.000000e+00  1.000000e+00  0.000000e+00
   outer loop
     vertex -5.862796e-01  7.500000e-01  2.234069e-01
     vertex -6.226269e-01  7.500000e-01  7.594009e-02
     vertex -6.359337e-01  7.500000e-01  7.755584e-02
   endloop
 endfacet
 facet normal  0.000000e+00  1.000000e+00  0.000000e+00
   outer loop
     vertex  2.955793e-01  7.500000e-01 -5.578519e-01
     vertex  3.018087e-01  7.500000e-01 -5.697210e-01
     vertex  1.567768e-01  7.500000e-01 -6.247244e-01
   endloop
 endfacet
 facet normal  0.000000e+00  1.000000e+00  0.000000e+00
   outer loop
     vertex  2.955793e-01  7.500000e-01 -5.578519e-01
     vertex  1.567768e-01  7.500000e-01 -6.247244e-01
     vertex  1.535689e-01  7.500000e-01 -6.117093e-01
   endloop
 endfacet
 facet normal  0.000000e+00  1.000000e+00  0.000000e+00
   outer loop
     vertex -5.156973e-01  7.500000e-01  3.578901e-01
     vertex -5.988131e-01  7.500000e-01  2.281602e-01
     vertex -5.267291e-01  7.500000e-01  3.655048e-01
   endloop
 endfacet
 facet normal  0.000000e+00  1.000000e+00  0.000000e+00
   outer loop
     vertex -5.156973e-01  7.500000e-01  3.578901e-01
     vertex -5.862796e-01  7.500000e-01  2.234069e-01
     vertex -5.988131e-01  7.500000e-01  2.281602e-01
   endloop
 endfacet
 facet normal  0.000000e+00  1.000000e+00  0.000000e+00
   outer loop
     vertex  4.205742e-01  7.500000e-01 -4.715741e-01
     vertex  4.294631e-01  7.500000e-01 -4.816076e-01
     vertex  3.018087e-01  7.500000e-01 -5.697210e-01
   endloop
 endfacet
 facet normal  0.000000e+00  1.000000e+00  0.000000e+00
   outer loop
     vertex  4.205742e-01  7.500000e-01 -4.715741e-01
     vertex  3.018087e-01  7.500000e-01 -5.697210e-01
     vertex  2.955793e-01  7.500000e-01 -5.578519e-01
   endloop
 endfacet
 facet normal  0.000000e+00  1.000000e+00  0.000000e+00
   outer loop
     vertex -4.149821e-01  7.500000e-01  4.715741e-01
     vertex -5.156973e-01  7.500000e-01  3.578901e-01
     vertex -5.267291e-01  7.500000e-01  3.655048e-01
   endloop
 endfacet
 facet normal  0.000000e+00  1.000000e+00  0.000000e+00
   outer loop
     vertex -4.238710e-01  7.500000e-01  4.816076e-01
     vertex -4.149821e-01  7.500000e-01  4.715741e-01
     vertex -5.267291e-01  7.500000e-01  3.655048e-01
   endloop
 endfacet
 facet normal  0.000000e+00  1.000000e+00  0.000000e+00
   outer loop
     vertex  5.323212e-01  7.500000e-01 -3.655048e-01
     vertex  4.205742e-01  7.500000e-01 -4.715741e-01
     vertex  5.212894e-01  7.500000e-01 -3.578901e-01
   endloop
 endfacet
 facet normal  0.000000e+00  1.000000e+00  0.000000e+00
   outer loop
     vertex  5.323212e-01  7.500000e-01 -3.655048e-01
     vertex  4.294631e-01  7.500000e-01 -4.816076e-01
     vertex  4.205742e-01  7.500000e-01 -4.715741e-01
   endloop
 endfacet
 facet normal  0.000000e+00  1.000000e+00  0.000000e+00
   outer loop
     vertex -2.962166e-01  7.500000e-01  5.697210e-01
     vertex -4.149821e-01  7.500000e-01  4.715741e-01
     vertex -4.238710e-01  7.500000e-01  4.816076e-01
   endloop
 endfacet
 facet normal  0.000000e+00  1.000000e+00  0.000000e+00
   outer loop
     vertex -2.962166e-01  7.500000e-01  5.697210e-01
     vertex -2.899872e-01  7.500000e-01  5.578519e-01
     vertex -4.149821e-01  7.500000e-01  4.715741e-01
   endloop
 endfacet
 facet normal  0.000000e+00  1.000000e+00  0.000000e+00
   outer loop
     vertex  6.044052e-01  7.500000e-01 -2.281602e-01
     vertex  5.323212e-01  7.500000e-01 -3.655048e-01
     vertex  5.212894e-01  7.500000e-01 -3.578901e-01
   endloop
 endfacet
 facet normal  0.000000e+00  1.000000e+00  0.000000e+00
   outer loop
     vertex  6.044052e-01  7.500000e-01 -2.281602e-01
     vertex  5.212894e-01  7.500000e-01 -3.578901e-01
     vertex  5.918717e-01  7.500000e-01 -2.234069e-01
   endloop
 endfacet
 facet normal  0.000000e+00  1.000000e+00  0.000000e+00
   outer loop
     vertex -1.511847e-01  7.500000e-01  6.247244e-01
     vertex -2.899872e-01  7.500000e-01  5.578519e-01
     vertex -2.962166e-01  7.500000e-01  5.697210e-01
   endloop
 endfacet
 facet normal  0.000000e+00  1.000000e+00  0.000000e+00
   outer loop
     vertex -1.511847e-01  7.500000e-01  6.247244e-01
     vertex -1.479768e-01  7.500000e-01  6.117093e-01
     vertex -2.899872e-01  7.500000e-01  5.578519e-01
   endloop
 endfacet
 facet normal  0.000000e+00  1.000000e+00  0.000000e+00
   outer loop
     vertex  6.415258e-01  7.500000e-01 -7.755584e-02
     vertex  6.044052e-01  7.500000e-01 -2.281602e-01
     vertex  5.918717e-01  7.500000e-01 -2.234069e-01
   endloop
 endfacet
 facet normal  0.000000e+00  1.000000e+00  0.000000e+00
   outer loop
     vertex  6.415258e-01  7.500000e-01 -7.755584e-02
     vertex  5.918717e-01  7.500000e-01 -2.234069e-01
     vertex  6.282190e-01  7.500000e-01 -7.594009e-02
   endloop
 endfacet
 facet normal  0.000000e+00  1.000000e+00  0.000000e+00
   outer loop
     vertex  2.796053e-03  7.500000e-01  6.434211e-01
     vertex -1.479768e-01  7.500000e-01  6.117093e-01
     vertex -1.511847e-01  7.500000e-01  6.247244e-01
   endloop
 endfacet
 facet normal  0.000000e+00  1.000000e+00  0.000000e+00
   outer loop
     vertex  2.796053e-03  7.500000e-01  6.434211e-01
     vertex  2.796053e-03  7.500000e-01  6.300164e-01
     vertex -1.479768e-01  7.500000e-01  6.117093e-01
   endloop
 endfacet
 facet normal  0.000000e+00  1.000000e+00  0.000000e+00
   outer loop
     vertex  6.415258e-01  7.500000e-01  7.755584e-02
     vertex  6.415258e-01  7.500000e-01 -7.755584e-02
     vertex  6.282190e-01  7.500000e-01 -7.594009e-02
   endloop
 endfacet
 facet normal  0.000000e+00  1.000000e+00  0.000000e+00
   outer loop
     vertex  6.415258e-01  7.500000e-01  7.755584e-02
     vertex  6.282190e-01  7.500000e-01 -7.594009e-02
     vertex  6.282190e-01  7.500000e-01  7.594009e-02
   endloop
 endfacet
 facet normal  0.000000e+00  1.000000e+00  0.000000e+00
   outer loop
     vertex  1.567768e-01  7.500000e-01  6.247244e-01
     vertex  1.535689e-01  7.500000e-01  6.117093e-01
     vertex  2.796053e-03  7.500000e-01  6.300164e-01
   endloop
 endfacet
 facet normal  0.000000e+00  1.000000e+00  0.000000e+00
   outer loop
     vertex  1.567768e-01  7.500000e-01  6.247244e-01
     vertex  2.796053e-03  7.500000e-01  6.300164e-01
     vertex  2.796053e-03  7.500000e-01  6.434211e-01
   endloop
 endfacet
 facet normal  0.000000e+00  1.000000e+00  0.000000e+00
   outer loop
     vertex  6.044052e-01  7.500000e-01  2.281602e-01
     vertex  6.282190e-01  7.500000e-01  7.594009e-02
     vertex  5.918717e-01  7.500000e-01  2.234069e-01
   endloop
 endfacet
 facet normal  0.000000e+00  1.000000e+00  0.000000e+00
   outer loop
     vertex  6.044052e-01  7.500000e-01  2.281602e-01
     vertex  6.415258e-01  7.500000e-01  7.755584e-02
     vertex  6.282190e-01  7.500000e-01  7.594009e-02
   endloop
 endfacet
 facet normal  0.000000e+00  1.000000e+00  0.000000e+00
   outer loop
     vertex  3.018087e-01  7.500000e-01  5.697210e-01
     vertex  2.955793e-01  7.500000e-01  5.578519e-01
     vertex  1.535689e-01  7.500000e-01  6.117093e-01
   endloop
 endfacet
 facet normal  0.000000e+00  1.000000e+00  0.000000e+00
   outer loop
     vertex  3.018087e-01  7.500000e-01  5.697210e-01
     vertex  1.535689e-01  7.500000e-01  6.117093e-01
     vertex  1.567768e-01  7.500000e-01  6.247244e-01
   endloop
 endfacet
 facet normal  0.000000e+00  1.000000e+00  0.000000e+00
   outer loop
     vertex  5.212894e-01  7.500000e-01  3.578901e-01
     vertex  6.044052e-01  7.500000e-01  2.281602e-01
     vertex  5.918717e-01  7.500000e-01  2.234069e-01
   endloop
 endfacet
 facet normal  0.000000e+00  1.000000e+00  0.000000e+00
   outer loop
     vertex  5.323212e-01  7.500000e-01  3.655048e-01
     vertex  6.044052e-01  7.500000e-01  2.281602e-01
     vertex  5.212894e-01  7.500000e-01  3.578901e-01
   endloop
 endfacet
 facet normal  0.000000e+00  1.000000e+00  0.000000e+00
   outer loop
     vertex  5.323212e-01  7.500000e-01  3.655048e-01
     vertex  5.212894e-01  7.500000e-01  3.578901e-01
     vertex  4.205742e-01  7.500000e-01  4.715741e-01
   endloop
 endfacet
 facet normal -6.384264e-16  1.000000e+00  3.350720e-16
   outer loop
     vertex  4.294631e-01  7.500000e-01  4.816076e-01
     vertex  2.955793e-01  7.500000e-01  5.578519e-01
     vertex  3.018087e-01  7.500000e-01  5.697210e-01
   endloop
 endfacet
 facet normal -4.739496e-15  1.000000e+00 -6.866345e-15
   outer loop
     vertex  4.294631e-01  7.500000e-01  4.816076e-01
     vertex  4.205742e-01  7.500000e-01  4.715741e-01
     vertex  2.955793e-01  7.500000e-01  5.578519e-01
   endloop
 endfacet
 facet normal -5.705312e-15  1.000000e+00 -6.010707e-15
   outer loop
     vertex  4.294631e-01  7.500000e-01  4.816076e-01
     vertex  5.323212e-01  7.500000e-01  3.655048e-01
     vertex  4.205742e-01  7.500000e-01  4.715741e-01
   endloop
 endfacet
endsolid
