solid 
 facet normal -6.123234e-17 -6.123234e-17 -1.000000e+00
   outer loop
     vertex  6.578947e-04  3.867306e-18 -3.867306e-18
     vertex -6.250000e-02  0.000000e+00  0.000000e+00
     vertex -6.250000e-02  2.421875e-01 -1.482971e-17
   endloop
 endfacet
 facet normal -6.123234e-17 -6.123234e-17 -1.000000e+00
   outer loop
     vertex  6.578947e-04  3.867306e-18 -3.867306e-18
     vertex -6.250000e-02  2.421875e-01 -1.482971e-17
     vertex  6.578947e-04  2.421875e-01 -1.869701e-17
   endloop
 endfacet
 facet normal  1.000000e+00  0.000000e+00  0.000000e+00
   outer loop
     vertex  6.578947e-04  4.592425e-17  6.868421e-01
     vertex  6.578947e-04  3.867306e-18 -3.867306e-18
     vertex  6.578947e-04  2.421875e-01 -1.869701e-17
   endloop
 endfacet
 facet normal  1.000000e+00 -0.000000e+00  0.000000e+00
   outer loop
     vertex  6.578947e-04  4.592425e-17  6.868421e-01
     vertex  6.578947e-04  2.421875e-01 -1.869701e-17
     vertex  6.578947e-04  2.421875e-01  6.868421e-01
   endloop
 endfacet
 facet normal -0.000000e+00  0.000000e+00 -1.000000e+00
   outer loop
     vertex  6.243421e-01  8.411390e-17  6.868421e-01
     vertex  6.578947e-04  4.592425e-17  6.868421e-01
     vertex  6.578947e-04  2.421875e-01  6.868421e-01
   endloop
 endfacet
 facet normal  0.000000e+00  0.000000e+00 -1.000000e+00
   outer loop
     vertex  6.243421e-01  8.411390e-17  6.868421e-01
     vertex  6.578947e-04  2.421875e-01  6.868421e-01
     vertex  6.243421e-01  2.421875e-01  6.868421e-01
   endloop
 endfacet
 facet normal -1.000000e+00  0.000000e+00  0.000000e+00
   outer loop
     vertex  6.243421e-01  4.205695e-17 -4.205695e-17
     vertex  6.243421e-01  8.411390e-17  6.868421e-01
     vertex  6.243421e-01  2.421875e-01  6.868421e-01
   endloop
 endfacet
 facet normal -1.000000e+00  0.000000e+00  0.000000e+00
   outer loop
     vertex  6.243421e-01  4.205695e-17 -4.205695e-17
     vertex  6.243421e-01  2.421875e-01  6.868421e-01
     vertex  6.243421e-01  2.421875e-01 -5.688666e-17
   endloop
 endfacet
 facet normal -6.123234e-17 -6.123234e-17 -1.000000e+00
   outer loop
     vertex  6.875000e-01  4.592425e-17 -4.592425e-17
     vertex  6.243421e-01  4.205695e-17 -4.205695e-17
     vertex  6.243421e-01  2.421875e-01 -5.688666e-17
   endloop
 endfacet
 facet normal -6.123234e-17 -6.123234e-17 -1.000000e+00
   outer loop
     vertex  6.875000e-01  4.592425e-17 -4.592425e-17
     vertex  6.243421e-01  2.421875e-01 -5.688666e-17
     vertex  6.875000e-01  2.421875e-01 -6.075396e-17
   endloop
 endfacet
 facet normal  1.000000e+00  0.000000e+00  0.000000e+00
   outer loop
     vertex  6.875000e-01  9.184851e-17  7.500000e-01
     vertex  6.875000e-01  4.592425e-17 -4.592425e-17
     vertex  6.875000e-01  2.421875e-01 -6.075396e-17
   endloop
 endfacet
 facet normal  1.000000e+00 -0.000000e+00  0.000000e+00
   outer loop
     vertex  6.875000e-01  9.184851e-17  7.500000e-01
     vertex  6.875000e-01  2.421875e-01 -6.075396e-17
     vertex  6.875000e-01  2.421875e-01  7.500000e-01
   endloop
 endfacet
 facet normal  0.000000e+00  0.000000e+00  1.000000e+00
   outer loop
     vertex -6.250000e-02  4.592425e-17  7.500000e-01
     vertex  6.875000e-01  9.184851e-17  7.500000e-01
     vertex  6.875000e-01  2.421875e-01  7.500000e-01
   endloop
 endfacet
 facet normal  0.000000e+00  0.000000e+00  1.000000e+00
   outer loop
     vertex -6.250000e-02  4.592425e-17  7.500000e-01
     vertex  6.875000e-01  2.421875e-01  7.500000e-01
     vertex -6.250000e-02  2.421875e-01  7.500000e-01
   endloop
 endfacet
 facet normal -1.000000e+00  0.000000e+00  0.000000e+00
   outer loop
     vertex -6.250000e-02  0.000000e+00  0.000000e+00
     vertex -6.250000e-02  4.592425e-17  7.500000e-01
     vertex -6.250000e-02  2.421875e-01  7.500000e-01
   endloop
 endfacet
 facet normal -1.000000e+00  0.000000e+00  0.000000e+00
   outer loop
     vertex -6.250000e-02  0.000000e+00  0.000000e+00
     vertex -6.250000e-02  2.421875e-01  7.500000e-01
     vertex -6.250000e-02  2.421875e-01 -1.482971e-17
   endloop
 endfacet
 facet normal  6.123234e-17 -1.000000e+00  6.123234e-17
   outer loop
     vertex  6.578947e-04  4.592425e-17  6.868421e-01
     vertex -6.250000e-02  0.000000e+00  0.000000e+00
     vertex  6.578947e-04  3.867306e-18 -3.867306e-18
   endloop
 endfacet
 facet normal  6.123234e-17 -1.000000e+00  6.123234e-17
   outer loop
     vertex -6.250000e-02  4.592425e-17  7.500000e-01
     vertex -6.250000e-02  0.000000e+00  0.000000e+00
     vertex  6.578947e-04  4.592425e-17  6.868421e-01
   endloop
 endfacet
 facet normal  6.123234e-17 -1.000000e+00  6.123234e-17
   outer loop
     vertex  6.243421e-01  8.411390e-17  6.868421e-01
     vertex  6.243421e-01  4.205695e-17 -4.205695e-17
     vertex  6.875000e-01  4.592425e-17 -4.592425e-17
   endloop
 endfacet
 facet normal  6.123234e-17 -1.000000e+00  6.123234e-17
   outer loop
     vertex  6.875000e-01  9.184851e-17  7.500000e-01
     vertex  6.243421e-01  8.411390e-17  6.868421e-01
     vertex  6.875000e-01  4.592425e-17 -4.592425e-17
   endloop
 endfacet
 facet normal  6.123234e-17 -1.000000e+00  6.123234e-17
   outer loop
     vertex  6.875000e-01  9.184851e-17  7.500000e-01
     vertex -6.250000e-02  4.592425e-17  7.500000e-01
     vertex  6.578947e-04  4.592425e-17  6.868421e-01
   endloop
 endfacet
 facet normal  6.123234e-17 -1.000000e+00  6.123234e-17
   outer loop
     vertex  6.875000e-01  9.184851e-17  7.500000e-01
     vertex  6.578947e-04  4.592425e-17  6.868421e-01
     vertex  6.243421e-01  8.411390e-17  6.868421e-01
   endloop
 endfacet
 facet normal  0.000000e+00  1.000000e+00  0.000000e+00
   outer loop
     vertex  6.578947e-04  2.421875e-01  6.868421e-01
     vertex  6.578947e-04  2.421875e-01 -1.869701e-17
     vertex -6.250000e-02  2.421875e-01 -1.482971e-17
   endloop
 endfacet
 facet normal  0.000000e+00  1.000000e+00  0.000000e+00
   outer loop
     vertex -6.250000e-02  2.421875e-01  7.500000e-01
     vertex  6.578947e-04  2.421875e-01  6.868421e-01
     vertex -6.250000e-02  2.421875e-01 -1.482971e-17
   endloop
 endfacet
 facet normal  0.000000e+00  1.000000e+00  0.000000e+00
   outer loop
     vertex  6.243421e-01  2.421875e-01  6.868421e-01
     vertex  6.875000e-01  2.421875e-01 -6.075396e-17
     vertex  6.243421e-01  2.421875e-01 -5.688666e-17
   endloop
 endfacet
 facet normal  0.000000e+00  1.000000e+00  0.000000e+00
   outer loop
     vertex  6.875000e-01  2.421875e-01  7.500000e-01
     vertex  6.875000e-01  2.421875e-01 -6.075396e-17
     vertex  6.243421e-01  2.421875e-01  6.868421e-01
   endloop
 endfacet
 facet normal  0.000000e+00  1.000000e+00  0.000000e+00
   outer loop
     vertex  6.875000e-01  2.421875e-01  7.500000e-01
     vertex  6.578947e-04  2.421875e-01  6.868421e-01
     vertex -6.250000e-02  2.421875e-01  7.500000e-01
   endloop
 endfacet
 facet normal  0.000000e+00  1.000000e+00  0.000000e+00
   outer loop
     vertex  6.875000e-01  2.421875e-01  7.500000e-01
     vertex  6.243421e-01  2.421875e-01  6.868421e-01
     vertex  6.578947e-04  2.421875e-01  6.868421e-01
   endloop
 endfacet
endsolid
