solid 
 facet normal -2.588190e-01  0.000000e+00 -9.659258e-01
   outer loop
     vertex  1.973684e-03 -8.847076e-20 -3.418521e-03
     vertex  3.947368e-03 -4.814825e-35 -3.947368e-03
     vertex  3.947368e-03 -7.500000e-01 -3.947368e-03
   endloop
 endfacet
 facet normal -2.588190e-01 -5.920504e-17 -9.659258e-01
   outer loop
     vertex  1.973684e-03 -8.847076e-20 -3.418521e-03
     vertex  3.947368e-03 -7.500000e-01 -3.947368e-03
     vertex  1.973684e-03 -7.500000e-01 -3.418521e-03
   endloop
 endfacet
 facet normal -7.071068e-01 -4.334109e-17 -7.071068e-01
   outer loop
     vertex  5.288471e-04 -8.847076e-20 -1.973684e-03
     vertex  1.973684e-03 -7.500000e-01 -3.418521e-03
     vertex  5.288471e-04 -7.500000e-01 -1.973684e-03
   endloop
 endfacet
 facet normal -7.071068e-01 -4.338852e-17 -7.071068e-01
   outer loop
     vertex  5.288471e-04 -8.847076e-20 -1.973684e-03
     vertex  1.973684e-03 -8.847076e-20 -3.418521e-03
     vertex  1.973684e-03 -7.500000e-01 -3.418521e-03
   endloop
 endfacet
 facet normal -9.659258e-01 -7.499399e-17 -2.588190e-01
   outer loop
     vertex  0.000000e+00  0.000000e+00  0.000000e+00
     vertex  5.288471e-04 -7.500000e-01 -1.973684e-03
     vertex  4.592425e-17 -7.500000e-01  4.592425e-17
   endloop
 endfacet
 facet normal -9.659258e-01 -1.589070e-17 -2.588190e-01
   outer loop
     vertex  0.000000e+00  0.000000e+00  0.000000e+00
     vertex  5.288471e-04 -8.847076e-20 -1.973684e-03
     vertex  5.288471e-04 -7.500000e-01 -1.973684e-03
   endloop
 endfacet
 facet normal -1.000000e+00 -6.123234e-17  4.347282e-17
   outer loop
     vertex  0.000000e+00  0.000000e+00  0.000000e+00
     vertex  6.205496e-17 -7.500000e-01  3.710526e-01
     vertex  1.613070e-17  2.272042e-17  3.710526e-01
   endloop
 endfacet
 facet normal -1.000000e+00 -6.123234e-17  4.347282e-17
   outer loop
     vertex  0.000000e+00  0.000000e+00  0.000000e+00
     vertex  4.592425e-17 -7.500000e-01  4.592425e-17
     vertex  6.205496e-17 -7.500000e-01  3.710526e-01
   endloop
 endfacet
 facet normal  0.000000e+00  0.000000e+00 -1.000000e+00
   outer loop
     vertex  5.526316e-02  3.142186e-18 -3.947368e-03
     vertex  3.947368e-03 -7.500000e-01 -3.947368e-03
     vertex  3.947368e-03 -4.814825e-35 -3.947368e-03
   endloop
 endfacet
 facet normal  0.000000e+00 -0.000000e+00 -1.000000e+00
   outer loop
     vertex  5.526316e-02  3.142186e-18 -3.947368e-03
     vertex  5.526316e-02 -7.500000e-01 -3.947368e-03
     vertex  3.947368e-03 -7.500000e-01 -3.947368e-03
   endloop
 endfacet
 facet normal -9.659258e-01 -7.503174e-17 -2.588190e-01
   outer loop
     vertex  5.288471e-04 -8.847076e-20 -1.973684e-03
     vertex  0.000000e+00  0.000000e+00  0.000000e+00
     vertex -4.592425e-17  7.500000e-01 -4.592425e-17
   endloop
 endfacet
 facet normal -9.659258e-01 -1.586394e-17 -2.588190e-01
   outer loop
     vertex  5.288471e-04 -8.847076e-20 -1.973684e-03
     vertex -4.592425e-17  7.500000e-01 -4.592425e-17
     vertex  5.288471e-04  7.500000e-01 -1.973684e-03
   endloop
 endfacet
 facet normal -7.071068e-01 -4.334109e-17 -7.071068e-01
   outer loop
     vertex  1.973684e-03 -8.847076e-20 -3.418521e-03
     vertex  5.288471e-04  7.500000e-01 -1.973684e-03
     vertex  1.973684e-03  7.500000e-01 -3.418521e-03
   endloop
 endfacet
 facet normal -7.071068e-01 -4.338852e-17 -7.071068e-01
   outer loop
     vertex  1.973684e-03 -8.847076e-20 -3.418521e-03
     vertex  5.288471e-04 -8.847076e-20 -1.973684e-03
     vertex  5.288471e-04  7.500000e-01 -1.973684e-03
   endloop
 endfacet
 facet normal -2.588190e-01  0.000000e+00 -9.659258e-01
   outer loop
     vertex  3.947368e-03 -4.814825e-35 -3.947368e-03
     vertex  1.973684e-03  7.500000e-01 -3.418521e-03
     vertex  3.947368e-03  7.500000e-01 -3.947368e-03
   endloop
 endfacet
 facet normal -2.588190e-01 -5.927922e-17 -9.659258e-01
   outer loop
     vertex  3.947368e-03 -4.814825e-35 -3.947368e-03
     vertex  1.973684e-03 -8.847076e-20 -3.418521e-03
     vertex  1.973684e-03  7.500000e-01 -3.418521e-03
   endloop
 endfacet
 facet normal  0.000000e+00 -1.000000e+00  0.000000e+00
   outer loop
     vertex  4.592425e-17 -7.500000e-01  4.592425e-17
     vertex  5.288471e-04 -7.500000e-01 -1.973684e-03
     vertex  1.973684e-03 -7.500000e-01 -3.418521e-03
   endloop
 endfacet
 facet normal  0.000000e+00 -1.000000e+00  0.000000e+00
   outer loop
     vertex  4.592425e-17 -7.500000e-01  4.592425e-17
     vertex  1.973684e-03 -7.500000e-01 -3.418521e-03
     vertex  3.947368e-03 -7.500000e-01 -3.947368e-03
   endloop
 endfacet
 facet normal  0.000000e+00 -1.000000e+00  0.000000e+00
   outer loop
     vertex  5.921053e-02 -7.500000e-01  4.230039e-17
     vertex  3.947368e-03 -7.500000e-01 -3.947368e-03
     vertex  5.526316e-02 -7.500000e-01 -3.947368e-03
   endloop
 endfacet
 facet normal  0.000000e+00 -1.000000e+00  0.000000e+00
   outer loop
     vertex  5.921053e-02 -7.500000e-01  4.230039e-17
     vertex  5.526316e-02 -7.500000e-01 -3.947368e-03
     vertex  5.723684e-02 -7.500000e-01 -3.418521e-03
   endloop
 endfacet
 facet normal  0.000000e+00 -1.000000e+00  0.000000e+00
   outer loop
     vertex  5.921053e-02 -7.500000e-01  4.230039e-17
     vertex  5.723684e-02 -7.500000e-01 -3.418521e-03
     vertex  5.868168e-02 -7.500000e-01 -1.973684e-03
   endloop
 endfacet
 facet normal -0.000000e+00 -1.000000e+00  0.000000e+00
   outer loop
     vertex  5.921053e-02 -7.500000e-01  4.230039e-17
     vertex  4.592425e-17 -7.500000e-01  4.592425e-17
     vertex  3.947368e-03 -7.500000e-01 -3.947368e-03
   endloop
 endfacet
 facet normal  0.000000e+00 -1.000000e+00  0.000000e+00
   outer loop
     vertex  1.973684e-03 -7.500000e-01  3.744712e-01
     vertex  5.288471e-04 -7.500000e-01  3.730263e-01
     vertex  6.205496e-17 -7.500000e-01  3.710526e-01
   endloop
 endfacet
 facet normal  0.000000e+00 -1.000000e+00  0.000000e+00
   outer loop
     vertex  3.947368e-03 -7.500000e-01  3.750000e-01
     vertex  1.973684e-03 -7.500000e-01  3.744712e-01
     vertex  6.205496e-17 -7.500000e-01  3.710526e-01
   endloop
 endfacet
 facet normal -0.000000e+00 -1.000000e+00  0.000000e+00
   outer loop
     vertex  5.921053e-02 -7.500000e-01  3.434211e-01
     vertex  6.205496e-17 -7.500000e-01  3.710526e-01
     vertex  4.592425e-17 -7.500000e-01  4.592425e-17
   endloop
 endfacet
 facet normal  0.000000e+00 -1.000000e+00 -0.000000e+00
   outer loop
     vertex  5.921053e-02 -7.500000e-01  3.434211e-01
     vertex  4.592425e-17 -7.500000e-01  4.592425e-17
     vertex  5.921053e-02 -7.500000e-01  4.230039e-17
   endloop
 endfacet
 facet normal  0.000000e+00 -1.000000e+00  0.000000e+00
   outer loop
     vertex  5.921053e-02 -7.500000e-01  3.434211e-01
     vertex  3.947368e-03 -7.500000e-01  3.750000e-01
     vertex  6.205496e-17 -7.500000e-01  3.710526e-01
   endloop
 endfacet
 facet normal  0.000000e+00 -1.000000e+00 -0.000000e+00
   outer loop
     vertex  7.130169e-02 -7.500000e-01  3.657973e-01
     vertex  7.105263e-02 -7.500000e-01  3.631579e-01
     vertex  7.130169e-02 -7.500000e-01  3.644659e-01
   endloop
 endfacet
 facet normal  0.000000e+00 -1.000000e+00  0.000000e+00
   outer loop
     vertex  7.105263e-02 -7.500000e-01  3.671053e-01
     vertex  7.105263e-02 -7.500000e-01  3.631579e-01
     vertex  7.130169e-02 -7.500000e-01  3.657973e-01
   endloop
 endfacet
 facet normal  0.000000e+00 -1.000000e+00 -0.000000e+00
   outer loop
     vertex  6.710526e-02 -7.500000e-01  3.750000e-01
     vertex  5.921053e-02 -7.500000e-01  3.434211e-01
     vertex  7.105263e-02 -7.500000e-01  3.631579e-01
   endloop
 endfacet
 facet normal -0.000000e+00 -1.000000e+00  0.000000e+00
   outer loop
     vertex  6.710526e-02 -7.500000e-01  3.750000e-01
     vertex  3.947368e-03 -7.500000e-01  3.750000e-01
     vertex  5.921053e-02 -7.500000e-01  3.434211e-01
   endloop
 endfacet
 facet normal  0.000000e+00 -1.000000e+00  0.000000e+00
   outer loop
     vertex  6.710526e-02 -7.500000e-01  3.750000e-01
     vertex  7.105263e-02 -7.500000e-01  3.631579e-01
     vertex  7.105263e-02 -7.500000e-01  3.671053e-01
   endloop
 endfacet
 facet normal -0.000000e+00 -1.000000e+00 -0.000000e+00
   outer loop
     vertex  7.105263e-02 -7.500000e-01  3.710526e-01
     vertex  6.710526e-02 -7.500000e-01  3.750000e-01
     vertex  7.105263e-02 -7.500000e-01  3.671053e-01
   endloop
 endfacet
 facet normal  0.000000e+00 -1.000000e+00  0.000000e+00
   outer loop
     vertex  7.052378e-02 -7.500000e-01  3.730263e-01
     vertex  6.907895e-02 -7.500000e-01  3.744712e-01
     vertex  6.710526e-02 -7.500000e-01  3.750000e-01
   endloop
 endfacet
 facet normal -0.000000e+00 -1.000000e+00 -0.000000e+00
   outer loop
     vertex  7.052378e-02 -7.500000e-01  3.730263e-01
     vertex  6.710526e-02 -7.500000e-01  3.750000e-01
     vertex  7.105263e-02 -7.500000e-01  3.710526e-01
   endloop
 endfacet
 facet normal -9.659258e-01 -5.900286e-17  2.588190e-01
   outer loop
     vertex  5.288471e-04  2.287366e-17  3.730263e-01
     vertex  1.613070e-17  2.272042e-17  3.710526e-01
     vertex  6.205496e-17 -7.500000e-01  3.710526e-01
   endloop
 endfacet
 facet normal -9.659258e-01  0.000000e+00  2.588190e-01
   outer loop
     vertex  5.288471e-04  2.287366e-17  3.730263e-01
     vertex  6.205496e-17 -7.500000e-01  3.710526e-01
     vertex  5.288471e-04 -7.500000e-01  3.730263e-01
   endloop
 endfacet
 facet normal -7.071068e-01  0.000000e+00  7.071068e-01
   outer loop
     vertex  1.973684e-03  2.305060e-17  3.744712e-01
     vertex  5.288471e-04 -7.500000e-01  3.730263e-01
     vertex  1.973684e-03 -7.500000e-01  3.744712e-01
   endloop
 endfacet
 facet normal -7.071068e-01  0.000000e+00  7.071068e-01
   outer loop
     vertex  1.973684e-03  2.305060e-17  3.744712e-01
     vertex  5.288471e-04  2.287366e-17  3.730263e-01
     vertex  5.288471e-04 -7.500000e-01  3.730263e-01
   endloop
 endfacet
 facet normal -2.588190e-01  0.000000e+00  9.659258e-01
   outer loop
     vertex  3.947368e-03  2.320383e-17  3.750000e-01
     vertex  1.973684e-03 -7.500000e-01  3.744712e-01
     vertex  3.947368e-03 -7.500000e-01  3.750000e-01
   endloop
 endfacet
 facet normal -2.588190e-01  0.000000e+00  9.659258e-01
   outer loop
     vertex  3.947368e-03  2.320383e-17  3.750000e-01
     vertex  1.973684e-03  2.305060e-17  3.744712e-01
     vertex  1.973684e-03 -7.500000e-01  3.744712e-01
   endloop
 endfacet
 facet normal -1.000000e+00 -6.123234e-17  4.347282e-17
   outer loop
     vertex  0.000000e+00  0.000000e+00  0.000000e+00
     vertex  1.613070e-17  2.272042e-17  3.710526e-01
     vertex -2.979355e-17  7.500000e-01  3.710526e-01
   endloop
 endfacet
 facet normal -1.000000e+00 -6.123234e-17  4.347282e-17
   outer loop
     vertex  0.000000e+00  0.000000e+00  0.000000e+00
     vertex -2.979355e-17  7.500000e-01  3.710526e-01
     vertex -4.592425e-17  7.500000e-01 -4.592425e-17
   endloop
 endfacet
 facet normal  9.659258e-01 -1.589070e-17 -2.588190e-01
   outer loop
     vertex  5.868168e-02  3.472363e-18 -1.973684e-03
     vertex  5.921053e-02  3.625599e-18 -3.623865e-18
     vertex  5.921053e-02 -7.500000e-01  4.230039e-17
   endloop
 endfacet
 facet normal  9.659258e-01 -1.571428e-17 -2.588190e-01
   outer loop
     vertex  5.868168e-02  3.472363e-18 -1.973684e-03
     vertex  5.921053e-02 -7.500000e-01  4.230039e-17
     vertex  5.868168e-02 -7.500000e-01 -1.973684e-03
   endloop
 endfacet
 facet normal  7.071068e-01 -4.293222e-17 -7.071068e-01
   outer loop
     vertex  5.723684e-02  3.295422e-18 -3.418521e-03
     vertex  5.868168e-02 -7.500000e-01 -1.973684e-03
     vertex  5.723684e-02 -7.500000e-01 -3.418521e-03
   endloop
 endfacet
 facet normal  7.071068e-01 -4.311216e-17 -7.071068e-01
   outer loop
     vertex  5.723684e-02  3.295422e-18 -3.418521e-03
     vertex  5.868168e-02  3.472363e-18 -1.973684e-03
     vertex  5.868168e-02 -7.500000e-01 -1.973684e-03
   endloop
 endfacet
 facet normal  2.588190e-01  0.000000e+00 -9.659258e-01
   outer loop
     vertex  5.526316e-02  3.142186e-18 -3.947368e-03
     vertex  5.723684e-02 -7.500000e-01 -3.418521e-03
     vertex  5.526316e-02 -7.500000e-01 -3.947368e-03
   endloop
 endfacet
 facet normal  2.588190e-01 -5.872650e-17 -9.659258e-01
   outer loop
     vertex  5.526316e-02  3.142186e-18 -3.947368e-03
     vertex  5.723684e-02  3.295422e-18 -3.418521e-03
     vertex  5.723684e-02 -7.500000e-01 -3.418521e-03
   endloop
 endfacet
 facet normal -0.000000e+00  0.000000e+00 -1.000000e+00
   outer loop
     vertex  5.526316e-02  3.142186e-18 -3.947368e-03
     vertex  3.947368e-03 -4.814825e-35 -3.947368e-03
     vertex  3.947368e-03  7.500000e-01 -3.947368e-03
   endloop
 endfacet
 facet normal  0.000000e+00  0.000000e+00 -1.000000e+00
   outer loop
     vertex  5.526316e-02  3.142186e-18 -3.947368e-03
     vertex  3.947368e-03  7.500000e-01 -3.947368e-03
     vertex  5.526316e-02  7.500000e-01 -3.947368e-03
   endloop
 endfacet
 facet normal  0.000000e+00  1.000000e+00  0.000000e+00
   outer loop
     vertex  3.947368e-03  7.500000e-01 -3.947368e-03
     vertex  5.288471e-04  7.500000e-01 -1.973684e-03
     vertex -4.592425e-17  7.500000e-01 -4.592425e-17
   endloop
 endfacet
 facet normal  0.000000e+00  1.000000e+00  0.000000e+00
   outer loop
     vertex  3.947368e-03  7.500000e-01 -3.947368e-03
     vertex  1.973684e-03  7.500000e-01 -3.418521e-03
     vertex  5.288471e-04  7.500000e-01 -1.973684e-03
   endloop
 endfacet
 facet normal  0.000000e+00  1.000000e+00  0.000000e+00
   outer loop
     vertex  5.921053e-02  7.500000e-01 -4.954812e-17
     vertex  5.526316e-02  7.500000e-01 -3.947368e-03
     vertex  3.947368e-03  7.500000e-01 -3.947368e-03
   endloop
 endfacet
 facet normal  0.000000e+00  1.000000e+00  0.000000e+00
   outer loop
     vertex  5.921053e-02  7.500000e-01 -4.954812e-17
     vertex  5.723684e-02  7.500000e-01 -3.418521e-03
     vertex  5.526316e-02  7.500000e-01 -3.947368e-03
   endloop
 endfacet
 facet normal  0.000000e+00  1.000000e+00  0.000000e+00
   outer loop
     vertex  5.921053e-02  7.500000e-01 -4.954812e-17
     vertex  5.868168e-02  7.500000e-01 -1.973684e-03
     vertex  5.723684e-02  7.500000e-01 -3.418521e-03
   endloop
 endfacet
 facet normal  0.000000e+00  1.000000e+00  0.000000e+00
   outer loop
     vertex  5.921053e-02  7.500000e-01 -4.954812e-17
     vertex  3.947368e-03  7.500000e-01 -3.947368e-03
     vertex -4.592425e-17  7.500000e-01 -4.592425e-17
   endloop
 endfacet
 facet normal  0.000000e+00  1.000000e+00  0.000000e+00
   outer loop
     vertex  3.947368e-03  7.500000e-01  3.750000e-01
     vertex  5.288471e-04  7.500000e-01  3.730263e-01
     vertex  1.973684e-03  7.500000e-01  3.744712e-01
   endloop
 endfacet
 facet normal  0.000000e+00  1.000000e+00  0.000000e+00
   outer loop
     vertex  3.947368e-03  7.500000e-01  3.750000e-01
     vertex -2.979355e-17  7.500000e-01  3.710526e-01
     vertex  5.288471e-04  7.500000e-01  3.730263e-01
   endloop
 endfacet
 facet normal  0.000000e+00  1.000000e+00  0.000000e+00
   outer loop
     vertex  5.921053e-02  7.500000e-01  3.434211e-01
     vertex -4.592425e-17  7.500000e-01 -4.592425e-17
     vertex -2.979355e-17  7.500000e-01  3.710526e-01
   endloop
 endfacet
 facet normal  0.000000e+00  1.000000e+00  0.000000e+00
   outer loop
     vertex  5.921053e-02  7.500000e-01  3.434211e-01
     vertex  5.921053e-02  7.500000e-01 -4.954812e-17
     vertex -4.592425e-17  7.500000e-01 -4.592425e-17
   endloop
 endfacet
 facet normal  0.000000e+00  1.000000e+00  0.000000e+00
   outer loop
     vertex  5.921053e-02  7.500000e-01  3.434211e-01
     vertex -2.979355e-17  7.500000e-01  3.710526e-01
     vertex  3.947368e-03  7.500000e-01  3.750000e-01
   endloop
 endfacet
 facet normal  0.000000e+00  1.000000e+00  0.000000e+00
   outer loop
     vertex  7.130169e-02  7.500000e-01  3.657973e-01
     vertex  7.130169e-02  7.500000e-01  3.644659e-01
     vertex  7.105263e-02  7.500000e-01  3.631579e-01
   endloop
 endfacet
 facet normal  0.000000e+00  1.000000e+00  0.000000e+00
   outer loop
     vertex  7.105263e-02  7.500000e-01  3.671053e-01
     vertex  7.130169e-02  7.500000e-01  3.657973e-01
     vertex  7.105263e-02  7.500000e-01  3.631579e-01
   endloop
 endfacet
 facet normal  0.000000e+00  1.000000e+00  0.000000e+00
   outer loop
     vertex  6.710526e-02  7.500000e-01  3.750000e-01
     vertex  7.105263e-02  7.500000e-01  3.631579e-01
     vertex  5.921053e-02  7.500000e-01  3.434211e-01
   endloop
 endfacet
 facet normal  0.000000e+00  1.000000e+00  0.000000e+00
   outer loop
     vertex  6.710526e-02  7.500000e-01  3.750000e-01
     vertex  5.921053e-02  7.500000e-01  3.434211e-01
     vertex  3.947368e-03  7.500000e-01  3.750000e-01
   endloop
 endfacet
 facet normal  0.000000e+00  1.000000e+00  0.000000e+00
   outer loop
     vertex  6.710526e-02  7.500000e-01  3.750000e-01
     vertex  7.105263e-02  7.500000e-01  3.671053e-01
     vertex  7.105263e-02  7.500000e-01  3.631579e-01
   endloop
 endfacet
 facet normal  0.000000e+00  1.000000e+00  0.000000e+00
   outer loop
     vertex  7.105263e-02  7.500000e-01  3.710526e-01
     vertex  7.105263e-02  7.500000e-01  3.671053e-01
     vertex  6.710526e-02  7.500000e-01  3.750000e-01
   endloop
 endfacet
 facet normal  0.000000e+00  1.000000e+00  0.000000e+00
   outer loop
     vertex  7.052378e-02  7.500000e-01  3.730263e-01
     vertex  6.710526e-02  7.500000e-01  3.750000e-01
     vertex  6.907895e-02  7.500000e-01  3.744712e-01
   endloop
 endfacet
 facet normal  0.000000e+00  1.000000e+00  0.000000e+00
   outer loop
     vertex  7.052378e-02  7.500000e-01  3.730263e-01
     vertex  7.105263e-02  7.500000e-01  3.710526e-01
     vertex  6.710526e-02  7.500000e-01  3.750000e-01
   endloop
 endfacet
 facet normal  1.000000e+00  0.000000e+00  0.000000e+00
   outer loop
     vertex  5.921053e-02  2.465407e-17  3.434211e-01
     vertex  5.921053e-02 -7.500000e-01  4.230039e-17
     vertex  5.921053e-02  3.625599e-18 -3.623865e-18
   endloop
 endfacet
 facet normal  1.000000e+00  0.000000e+00  0.000000e+00
   outer loop
     vertex  5.921053e-02  2.465407e-17  3.434211e-01
     vertex  5.921053e-02 -7.500000e-01  3.434211e-01
     vertex  5.921053e-02 -7.500000e-01  4.230039e-17
   endloop
 endfacet
 facet normal  8.574929e-01  0.000000e+00 -5.144958e-01
   outer loop
     vertex  7.105263e-02  2.658773e-17  3.631579e-01
     vertex  5.921053e-02 -7.500000e-01  3.434211e-01
     vertex  5.921053e-02  2.465407e-17  3.434211e-01
   endloop
 endfacet
 facet normal  8.574929e-01  0.000000e+00 -5.144958e-01
   outer loop
     vertex  7.105263e-02  2.658773e-17  3.631579e-01
     vertex  7.105263e-02 -7.500000e-01  3.631579e-01
     vertex  5.921053e-02 -7.500000e-01  3.434211e-01
   endloop
 endfacet
 facet normal  9.823485e-01  0.000000e+00  1.870599e-01
   outer loop
     vertex  7.105263e-02  2.682943e-17  3.671053e-01
     vertex  7.105263e-02 -7.500000e-01  3.671053e-01
     vertex  7.130169e-02 -7.500000e-01  3.657973e-01
   endloop
 endfacet
 facet normal  9.823485e-01  0.000000e+00  1.870599e-01
   outer loop
     vertex  7.130169e-02  2.676459e-17  3.657973e-01
     vertex  7.105263e-02  2.682943e-17  3.671053e-01
     vertex  7.130169e-02 -7.500000e-01  3.657973e-01
   endloop
 endfacet
 facet normal  1.000000e+00  0.000000e+00  3.208201e-11
   outer loop
     vertex  7.130169e-02  2.668307e-17  3.644659e-01
     vertex  7.130169e-02 -7.500000e-01  3.657973e-01
     vertex  7.130169e-02 -7.500000e-01  3.644659e-01
   endloop
 endfacet
 facet normal  1.000000e+00  0.000000e+00  3.208201e-11
   outer loop
     vertex  7.130169e-02  2.668307e-17  3.644659e-01
     vertex  7.130169e-02  2.676459e-17  3.657973e-01
     vertex  7.130169e-02 -7.500000e-01  3.657973e-01
   endloop
 endfacet
 facet normal  9.823485e-01  0.000000e+00 -1.870599e-01
   outer loop
     vertex  7.105263e-02  2.658773e-17  3.631579e-01
     vertex  7.130169e-02 -7.500000e-01  3.644659e-01
     vertex  7.105263e-02 -7.500000e-01  3.631579e-01
   endloop
 endfacet
 facet normal  9.823485e-01  0.000000e+00 -1.870599e-01
   outer loop
     vertex  7.105263e-02  2.658773e-17  3.631579e-01
     vertex  7.130169e-02  2.668307e-17  3.644659e-01
     vertex  7.130169e-02 -7.500000e-01  3.644659e-01
   endloop
 endfacet
 facet normal  1.000000e+00  0.000000e+00  0.000000e+00
   outer loop
     vertex  7.105263e-02  2.707114e-17  3.710526e-01
     vertex  7.105263e-02 -7.500000e-01  3.671053e-01
     vertex  7.105263e-02  2.682943e-17  3.671053e-01
   endloop
 endfacet
 facet normal  1.000000e+00  0.000000e+00  0.000000e+00
   outer loop
     vertex  7.105263e-02  2.707114e-17  3.710526e-01
     vertex  7.105263e-02 -7.500000e-01  3.710526e-01
     vertex  7.105263e-02 -7.500000e-01  3.671053e-01
   endloop
 endfacet
 facet normal  2.588190e-01  0.000000e+00  9.659258e-01
   outer loop
     vertex  6.907895e-02  2.715961e-17  3.744712e-01
     vertex  6.710526e-02  2.707114e-17  3.750000e-01
     vertex  6.710526e-02 -7.500000e-01  3.750000e-01
   endloop
 endfacet
 facet normal  2.588190e-01  0.000000e+00  9.659258e-01
   outer loop
     vertex  6.907895e-02  2.715961e-17  3.744712e-01
     vertex  6.710526e-02 -7.500000e-01  3.750000e-01
     vertex  6.907895e-02 -7.500000e-01  3.744712e-01
   endloop
 endfacet
 facet normal  7.071068e-01  0.000000e+00  7.071068e-01
   outer loop
     vertex  7.052378e-02  2.715961e-17  3.730263e-01
     vertex  6.907895e-02 -7.500000e-01  3.744712e-01
     vertex  7.052378e-02 -7.500000e-01  3.730263e-01
   endloop
 endfacet
 facet normal  7.071068e-01  0.000000e+00  7.071068e-01
   outer loop
     vertex  7.052378e-02  2.715961e-17  3.730263e-01
     vertex  6.907895e-02  2.715961e-17  3.744712e-01
     vertex  6.907895e-02 -7.500000e-01  3.744712e-01
   endloop
 endfacet
 facet normal  9.659258e-01  0.000000e+00  2.588190e-01
   outer loop
     vertex  7.105263e-02  2.707114e-17  3.710526e-01
     vertex  7.052378e-02 -7.500000e-01  3.730263e-01
     vertex  7.105263e-02 -7.500000e-01  3.710526e-01
   endloop
 endfacet
 facet normal  9.659258e-01  0.000000e+00  2.588190e-01
   outer loop
     vertex  7.105263e-02  2.707114e-17  3.710526e-01
     vertex  7.052378e-02  2.715961e-17  3.730263e-01
     vertex  7.052378e-02 -7.500000e-01  3.730263e-01
   endloop
 endfacet
 facet normal -0.000000e+00  0.000000e+00  1.000000e+00
   outer loop
     vertex  3.947368e-03  2.320383e-17  3.750000e-01
     vertex  6.710526e-02 -7.500000e-01  3.750000e-01
     vertex  6.710526e-02  2.707114e-17  3.750000e-01
   endloop
 endfacet
 facet normal  0.000000e+00  0.000000e+00  1.000000e+00
   outer loop
     vertex  3.947368e-03  2.320383e-17  3.750000e-01
     vertex  3.947368e-03 -7.500000e-01  3.750000e-01
     vertex  6.710526e-02 -7.500000e-01  3.750000e-01
   endloop
 endfacet
 facet normal -2.588190e-01  0.000000e+00  9.659258e-01
   outer loop
     vertex  1.973684e-03  2.305060e-17  3.744712e-01
     vertex  3.947368e-03  2.320383e-17  3.750000e-01
     vertex  3.947368e-03  7.500000e-01  3.750000e-01
   endloop
 endfacet
 facet normal -2.588190e-01  0.000000e+00  9.659258e-01
   outer loop
     vertex  1.973684e-03  2.305060e-17  3.744712e-01
     vertex  3.947368e-03  7.500000e-01  3.750000e-01
     vertex  1.973684e-03  7.500000e-01  3.744712e-01
   endloop
 endfacet
 facet normal -7.071068e-01  0.000000e+00  7.071068e-01
   outer loop
     vertex  5.288471e-04  2.287366e-17  3.730263e-01
     vertex  1.973684e-03  7.500000e-01  3.744712e-01
     vertex  5.288471e-04  7.500000e-01  3.730263e-01
   endloop
 endfacet
 facet normal -7.071068e-01  0.000000e+00  7.071068e-01
   outer loop
     vertex  5.288471e-04  2.287366e-17  3.730263e-01
     vertex  1.973684e-03  2.305060e-17  3.744712e-01
     vertex  1.973684e-03  7.500000e-01  3.744712e-01
   endloop
 endfacet
 facet normal -9.659258e-01 -5.914590e-17  2.588190e-01
   outer loop
     vertex  1.613070e-17  2.272042e-17  3.710526e-01
     vertex  5.288471e-04  7.500000e-01  3.730263e-01
     vertex -2.979355e-17  7.500000e-01  3.710526e-01
   endloop
 endfacet
 facet normal -9.659258e-01  0.000000e+00  2.588190e-01
   outer loop
     vertex  1.613070e-17  2.272042e-17  3.710526e-01
     vertex  5.288471e-04  2.287366e-17  3.730263e-01
     vertex  5.288471e-04  7.500000e-01  3.730263e-01
   endloop
 endfacet
 facet normal  2.588190e-01  0.000000e+00 -9.659258e-01
   outer loop
     vertex  5.723684e-02  3.295422e-18 -3.418521e-03
     vertex  5.526316e-02  3.142186e-18 -3.947368e-03
     vertex  5.526316e-02  7.500000e-01 -3.947368e-03
   endloop
 endfacet
 facet normal  2.588190e-01 -5.920504e-17 -9.659258e-01
   outer loop
     vertex  5.723684e-02  3.295422e-18 -3.418521e-03
     vertex  5.526316e-02  7.500000e-01 -3.947368e-03
     vertex  5.723684e-02  7.500000e-01 -3.418521e-03
   endloop
 endfacet
 facet normal  7.071068e-01 -4.334109e-17 -7.071068e-01
   outer loop
     vertex  5.868168e-02  3.472363e-18 -1.973684e-03
     vertex  5.723684e-02  7.500000e-01 -3.418521e-03
     vertex  5.868168e-02  7.500000e-01 -1.973684e-03
   endloop
 endfacet
 facet normal  7.071068e-01 -4.338852e-17 -7.071068e-01
   outer loop
     vertex  5.868168e-02  3.472363e-18 -1.973684e-03
     vertex  5.723684e-02  3.295422e-18 -3.418521e-03
     vertex  5.723684e-02  7.500000e-01 -3.418521e-03
   endloop
 endfacet
 facet normal  9.659258e-01 -1.584810e-17 -2.588190e-01
   outer loop
     vertex  5.921053e-02  3.625599e-18 -3.623865e-18
     vertex  5.868168e-02  7.500000e-01 -1.973684e-03
     vertex  5.921053e-02  7.500000e-01 -4.954812e-17
   endloop
 endfacet
 facet normal  9.659258e-01 -1.589070e-17 -2.588190e-01
   outer loop
     vertex  5.921053e-02  3.625599e-18 -3.623865e-18
     vertex  5.868168e-02  3.472363e-18 -1.973684e-03
     vertex  5.868168e-02  7.500000e-01 -1.973684e-03
   endloop
 endfacet
 facet normal  1.000000e+00  0.000000e+00  0.000000e+00
   outer loop
     vertex  5.921053e-02  2.465407e-17  3.434211e-01
     vertex  5.921053e-02  3.625599e-18 -3.623865e-18
     vertex  5.921053e-02  7.500000e-01 -4.954812e-17
   endloop
 endfacet
 facet normal  1.000000e+00 -0.000000e+00  0.000000e+00
   outer loop
     vertex  5.921053e-02  2.465407e-17  3.434211e-01
     vertex  5.921053e-02  7.500000e-01 -4.954812e-17
     vertex  5.921053e-02  7.500000e-01  3.434211e-01
   endloop
 endfacet
 facet normal  8.574929e-01  0.000000e+00 -5.144958e-01
   outer loop
     vertex  7.105263e-02  2.658773e-17  3.631579e-01
     vertex  5.921053e-02  2.465407e-17  3.434211e-01
     vertex  5.921053e-02  7.500000e-01  3.434211e-01
   endloop
 endfacet
 facet normal  8.574929e-01  0.000000e+00 -5.144958e-01
   outer loop
     vertex  7.105263e-02  2.658773e-17  3.631579e-01
     vertex  5.921053e-02  7.500000e-01  3.434211e-01
     vertex  7.105263e-02  7.500000e-01  3.631579e-01
   endloop
 endfacet
 facet normal  9.823485e-01  0.000000e+00 -1.870599e-01
   outer loop
     vertex  7.130169e-02  2.668307e-17  3.644659e-01
     vertex  7.105263e-02  2.658773e-17  3.631579e-01
     vertex  7.105263e-02  7.500000e-01  3.631579e-01
   endloop
 endfacet
 facet normal  9.823485e-01  0.000000e+00 -1.870599e-01
   outer loop
     vertex  7.130169e-02  2.668307e-17  3.644659e-01
     vertex  7.105263e-02  7.500000e-01  3.631579e-01
     vertex  7.130169e-02  7.500000e-01  3.644659e-01
   endloop
 endfacet
 facet normal  1.000000e+00 -0.000000e+00  3.208201e-11
   outer loop
     vertex  7.130169e-02  2.676459e-17  3.657973e-01
     vertex  7.130169e-02  7.500000e-01  3.644659e-01
     vertex  7.130169e-02  7.500000e-01  3.657973e-01
   endloop
 endfacet
 facet normal  9.823485e-01 -0.000000e+00  1.870599e-01
   outer loop
     vertex  7.130169e-02  2.676459e-17  3.657973e-01
     vertex  7.130169e-02  7.500000e-01  3.657973e-01
     vertex  7.105263e-02  7.500000e-01  3.671053e-01
   endloop
 endfacet
 facet normal  1.000000e+00  0.000000e+00  3.208201e-11
   outer loop
     vertex  7.130169e-02  2.676459e-17  3.657973e-01
     vertex  7.130169e-02  2.668307e-17  3.644659e-01
     vertex  7.130169e-02  7.500000e-01  3.644659e-01
   endloop
 endfacet
 facet normal  9.823485e-01 -0.000000e+00  1.870599e-01
   outer loop
     vertex  7.105263e-02  2.682943e-17  3.671053e-01
     vertex  7.130169e-02  2.676459e-17  3.657973e-01
     vertex  7.105263e-02  7.500000e-01  3.671053e-01
   endloop
 endfacet
 facet normal  1.000000e+00  0.000000e+00  0.000000e+00
   outer loop
     vertex  7.105263e-02  2.707114e-17  3.710526e-01
     vertex  7.105263e-02  2.682943e-17  3.671053e-01
     vertex  7.105263e-02  7.500000e-01  3.671053e-01
   endloop
 endfacet
 facet normal  1.000000e+00 -0.000000e+00  0.000000e+00
   outer loop
     vertex  7.105263e-02  2.707114e-17  3.710526e-01
     vertex  7.105263e-02  7.500000e-01  3.671053e-01
     vertex  7.105263e-02  7.500000e-01  3.710526e-01
   endloop
 endfacet
 facet normal  9.659258e-01  0.000000e+00  2.588190e-01
   outer loop
     vertex  7.052378e-02  2.715961e-17  3.730263e-01
     vertex  7.105263e-02  2.707114e-17  3.710526e-01
     vertex  7.105263e-02  7.500000e-01  3.710526e-01
   endloop
 endfacet
 facet normal  9.659258e-01 -0.000000e+00  2.588190e-01
   outer loop
     vertex  7.052378e-02  2.715961e-17  3.730263e-01
     vertex  7.105263e-02  7.500000e-01  3.710526e-01
     vertex  7.052378e-02  7.500000e-01  3.730263e-01
   endloop
 endfacet
 facet normal  7.071068e-01 -0.000000e+00  7.071068e-01
   outer loop
     vertex  6.907895e-02  2.715961e-17  3.744712e-01
     vertex  7.052378e-02  7.500000e-01  3.730263e-01
     vertex  6.907895e-02  7.500000e-01  3.744712e-01
   endloop
 endfacet
 facet normal  7.071068e-01  0.000000e+00  7.071068e-01
   outer loop
     vertex  6.907895e-02  2.715961e-17  3.744712e-01
     vertex  7.052378e-02  2.715961e-17  3.730263e-01
     vertex  7.052378e-02  7.500000e-01  3.730263e-01
   endloop
 endfacet
 facet normal  2.588190e-01 -0.000000e+00  9.659258e-01
   outer loop
     vertex  6.710526e-02  2.707114e-17  3.750000e-01
     vertex  6.907895e-02  7.500000e-01  3.744712e-01
     vertex  6.710526e-02  7.500000e-01  3.750000e-01
   endloop
 endfacet
 facet normal  2.588190e-01  0.000000e+00  9.659258e-01
   outer loop
     vertex  6.710526e-02  2.707114e-17  3.750000e-01
     vertex  6.907895e-02  2.715961e-17  3.744712e-01
     vertex  6.907895e-02  7.500000e-01  3.744712e-01
   endloop
 endfacet
 facet normal  0.000000e+00  0.000000e+00  1.000000e+00
   outer loop
     vertex  3.947368e-03  2.320383e-17  3.750000e-01
     vertex  6.710526e-02  2.707114e-17  3.750000e-01
     vertex  6.710526e-02  7.500000e-01  3.750000e-01
   endloop
 endfacet
 facet normal  0.000000e+00  0.000000e+00  1.000000e+00
   outer loop
     vertex  3.947368e-03  2.320383e-17  3.750000e-01
     vertex  6.710526e-02  7.500000e-01  3.750000e-01
     vertex  3.947368e-03  7.500000e-01  3.750000e-01
   endloop
 endfacet
endsolid
