solid 
 facet normal  0.000000e+00 -1.000000e+00  0.000000e+00
   outer loop
     vertex  3.125000e-02  5.546875e-01  0.000000e+00
     vertex -4.609375e-01  5.546875e-01  1.015625e-01
     vertex -4.609375e-01  5.546875e-01  0.000000e+00
   endloop
 endfacet
 facet normal  0.000000e+00 -1.000000e+00  0.000000e+00
   outer loop
     vertex  3.125000e-02  5.546875e-01  0.000000e+00
     vertex  3.125000e-02  5.546875e-01  1.015625e-01
     vertex -4.609375e-01  5.546875e-01  1.015625e-01
   endloop
 endfacet
 facet normal -1.000000e+00  0.000000e+00  0.000000e+00
   outer loop
     vertex -4.609375e-01  5.546875e-01  0.000000e+00
     vertex -4.609375e-01  5.909539e-01  1.015625e-01
     vertex -4.609375e-01  5.909539e-01  0.000000e+00
   endloop
 endfacet
 facet normal -1.000000e+00  0.000000e+00  0.000000e+00
   outer loop
     vertex -4.609375e-01  5.546875e-01  0.000000e+00
     vertex -4.609375e-01  5.546875e-01  1.015625e-01
     vertex -4.609375e-01  5.909539e-01  1.015625e-01
   endloop
 endfacet
 facet normal  1.000000e+00  0.000000e+00  0.000000e+00
   outer loop
     vertex  3.125000e-02  6.513158e-01  0.000000e+00
     vertex  3.125000e-02  5.546875e-01  1.015625e-01
     vertex  3.125000e-02  5.546875e-01  0.000000e+00
   endloop
 endfacet
 facet normal  1.000000e+00  0.000000e+00 -0.000000e+00
   outer loop
     vertex  3.125000e-02  6.513158e-01  0.000000e+00
     vertex  3.125000e-02  6.513158e-01  1.015625e-01
     vertex  3.125000e-02  5.546875e-01  1.015625e-01
   endloop
 endfacet
 facet normal  0.000000e+00  0.000000e+00 -1.000000e+00
   outer loop
     vertex -4.303758e-01  5.989842e-01  0.000000e+00
     vertex -4.609375e-01  5.546875e-01  0.000000e+00
     vertex -4.609375e-01  5.909539e-01  0.000000e+00
   endloop
 endfacet
 facet normal  0.000000e+00  0.000000e+00 -1.000000e+00
   outer loop
     vertex -4.077090e-01  6.210007e-01  0.000000e+00
     vertex -4.609375e-01  5.546875e-01  0.000000e+00
     vertex -4.303758e-01  5.989842e-01  0.000000e+00
   endloop
 endfacet
 facet normal  0.000000e+00  0.000000e+00 -1.000000e+00
   outer loop
     vertex  3.125000e-02  5.546875e-01  0.000000e+00
     vertex -4.077090e-01  6.210007e-01  0.000000e+00
     vertex -3.987928e-01  6.513158e-01  0.000000e+00
   endloop
 endfacet
 facet normal  0.000000e+00  0.000000e+00 -1.000000e+00
   outer loop
     vertex  3.125000e-02  5.546875e-01  0.000000e+00
     vertex -4.609375e-01  5.546875e-01  0.000000e+00
     vertex -4.077090e-01  6.210007e-01  0.000000e+00
   endloop
 endfacet
 facet normal -0.000000e+00 -0.000000e+00 -1.000000e+00
   outer loop
     vertex  3.125000e-02  6.513158e-01  0.000000e+00
     vertex  3.125000e-02  5.546875e-01  0.000000e+00
     vertex -3.987928e-01  6.513158e-01  0.000000e+00
   endloop
 endfacet
 facet normal  0.000000e+00  0.000000e+00  1.000000e+00
   outer loop
     vertex -4.303758e-01  5.989842e-01  1.015625e-01
     vertex -4.609375e-01  5.909539e-01  1.015625e-01
     vertex -4.609375e-01  5.546875e-01  1.015625e-01
   endloop
 endfacet
 facet normal  0.000000e+00  0.000000e+00  1.000000e+00
   outer loop
     vertex -4.077090e-01  6.210007e-01  1.015625e-01
     vertex -4.303758e-01  5.989842e-01  1.015625e-01
     vertex -4.609375e-01  5.546875e-01  1.015625e-01
   endloop
 endfacet
 facet normal  0.000000e+00  0.000000e+00  1.000000e+00
   outer loop
     vertex  3.125000e-02  5.546875e-01  1.015625e-01
     vertex -3.987928e-01  6.513158e-01  1.015625e-01
     vertex -4.077090e-01  6.210007e-01  1.015625e-01
   endloop
 endfacet
 facet normal  0.000000e+00  0.000000e+00  1.000000e+00
   outer loop
     vertex  3.125000e-02  5.546875e-01  1.015625e-01
     vertex -4.077090e-01  6.210007e-01  1.015625e-01
     vertex -4.609375e-01  5.546875e-01  1.015625e-01
   endloop
 endfacet
 facet normal  0.000000e+00  0.000000e+00  1.000000e+00
   outer loop
     vertex  3.125000e-02  6.513158e-01  1.015625e-01
     vertex -3.987928e-01  6.513158e-01  1.015625e-01
     vertex  3.125000e-02  5.546875e-01  1.015625e-01
   endloop
 endfacet
 facet normal -9.593650e-01  2.821681e-01  0.000000e+00
   outer loop
     vertex -3.987928e-01  6.513158e-01  0.000000e+00
     vertex -4.077090e-01  6.210007e-01  1.015625e-01
     vertex -3.987928e-01  6.513158e-01  1.015625e-01
   endloop
 endfacet
 facet normal -9.593650e-01  2.821681e-01  0.000000e+00
   outer loop
     vertex -4.077090e-01  6.210007e-01  0.000000e+00
     vertex -4.077090e-01  6.210007e-01  1.015625e-01
     vertex -3.987928e-01  6.513158e-01  0.000000e+00
   endloop
 endfacet
 facet normal -6.967422e-01  7.173216e-01  0.000000e+00
   outer loop
     vertex -4.303758e-01  5.989842e-01  0.000000e+00
     vertex -4.303758e-01  5.989842e-01  1.015625e-01
     vertex -4.077090e-01  6.210007e-01  1.015625e-01
   endloop
 endfacet
 facet normal -6.967422e-01  7.173216e-01  0.000000e+00
   outer loop
     vertex -4.303758e-01  5.989842e-01  0.000000e+00
     vertex -4.077090e-01  6.210007e-01  1.015625e-01
     vertex -4.077090e-01  6.210007e-01  0.000000e+00
   endloop
 endfacet
 facet normal -2.541305e-01  9.671699e-01  0.000000e+00
   outer loop
     vertex -4.609375e-01  5.909539e-01  0.000000e+00
     vertex -4.609375e-01  5.909539e-01  1.015625e-01
     vertex -4.303758e-01  5.989842e-01  1.015625e-01
   endloop
 endfacet
 facet normal -2.541305e-01  9.671699e-01  0.000000e+00
   outer loop
     vertex -4.609375e-01  5.909539e-01  0.000000e+00
     vertex -4.303758e-01  5.989842e-01  1.015625e-01
     vertex -4.303758e-01  5.989842e-01  0.000000e+00
   endloop
 endfacet
 facet normal  1.000000e+00  0.000000e+00  0.000000e+00
   outer loop
     vertex  3.125000e-02  6.531250e-01  0.000000e+00
     vertex  3.125000e-02  6.513158e-01  1.015625e-01
     vertex  3.125000e-02  6.513158e-01  0.000000e+00
   endloop
 endfacet
 facet normal  1.000000e+00  0.000000e+00 -0.000000e+00
   outer loop
     vertex  3.125000e-02  6.531250e-01  0.000000e+00
     vertex  3.125000e-02  6.531250e-01  1.015625e-01
     vertex  3.125000e-02  6.513158e-01  1.015625e-01
   endloop
 endfacet
 facet normal  0.000000e+00  0.000000e+00 -1.000000e+00
   outer loop
     vertex  3.125000e-02  6.513158e-01  0.000000e+00
     vertex -3.987694e-01  6.525219e-01  0.000000e+00
     vertex -3.987664e-01  6.531250e-01  0.000000e+00
   endloop
 endfacet
 facet normal  0.000000e+00  0.000000e+00 -1.000000e+00
   outer loop
     vertex  3.125000e-02  6.513158e-01  0.000000e+00
     vertex -3.987782e-01  6.519188e-01  0.000000e+00
     vertex -3.987694e-01  6.525219e-01  0.000000e+00
   endloop
 endfacet
 facet normal  0.000000e+00  0.000000e+00 -1.000000e+00
   outer loop
     vertex  3.125000e-02  6.513158e-01  0.000000e+00
     vertex -3.987928e-01  6.513158e-01  0.000000e+00
     vertex -3.987782e-01  6.519188e-01  0.000000e+00
   endloop
 endfacet
 facet normal -0.000000e+00 -0.000000e+00 -1.000000e+00
   outer loop
     vertex  3.125000e-02  6.531250e-01  0.000000e+00
     vertex  3.125000e-02  6.513158e-01  0.000000e+00
     vertex -3.987664e-01  6.531250e-01  0.000000e+00
   endloop
 endfacet
 facet normal  0.000000e+00  0.000000e+00  1.000000e+00
   outer loop
     vertex  3.125000e-02  6.513158e-01  1.015625e-01
     vertex -3.987664e-01  6.531250e-01  1.015625e-01
     vertex -3.987694e-01  6.525219e-01  1.015625e-01
   endloop
 endfacet
 facet normal  0.000000e+00  0.000000e+00  1.000000e+00
   outer loop
     vertex  3.125000e-02  6.513158e-01  1.015625e-01
     vertex -3.987694e-01  6.525219e-01  1.015625e-01
     vertex -3.987782e-01  6.519188e-01  1.015625e-01
   endloop
 endfacet
 facet normal  0.000000e+00  0.000000e+00  1.000000e+00
   outer loop
     vertex  3.125000e-02  6.513158e-01  1.015625e-01
     vertex -3.987782e-01  6.519188e-01  1.015625e-01
     vertex -3.987928e-01  6.513158e-01  1.015625e-01
   endloop
 endfacet
 facet normal  0.000000e+00  0.000000e+00  1.000000e+00
   outer loop
     vertex  3.125000e-02  6.531250e-01  1.015625e-01
     vertex -3.987664e-01  6.531250e-01  1.015625e-01
     vertex  3.125000e-02  6.513158e-01  1.015625e-01
   endloop
 endfacet
 facet normal  0.000000e+00 -1.000000e+00  0.000000e+00
   outer loop
     vertex -3.987928e-01  6.513158e-01  0.000000e+00
     vertex -4.063258e-01  6.513158e-01  1.015625e-01
     vertex -4.063258e-01  6.513158e-01  0.000000e+00
   endloop
 endfacet
 facet normal  0.000000e+00 -1.000000e+00  0.000000e+00
   outer loop
     vertex -3.987928e-01  6.513158e-01  0.000000e+00
     vertex -3.987928e-01  6.513158e-01  1.015625e-01
     vertex -4.063258e-01  6.513158e-01  1.015625e-01
   endloop
 endfacet
 facet normal  1.000000e+00  0.000000e+00  0.000000e+00
   outer loop
     vertex  3.125000e-02  6.531250e-01  0.000000e+00
     vertex  3.125000e-02  6.565789e-01  1.015625e-01
     vertex  3.125000e-02  6.531250e-01  1.015625e-01
   endloop
 endfacet
 facet normal  1.000000e+00  0.000000e+00 -0.000000e+00
   outer loop
     vertex  3.125000e-02  7.497533e-01  0.000000e+00
     vertex  3.125000e-02  7.497533e-01  1.015625e-01
     vertex  3.125000e-02  6.565789e-01  1.015625e-01
   endloop
 endfacet
 facet normal  1.000000e+00  0.000000e+00  0.000000e+00
   outer loop
     vertex  3.125000e-02  7.497533e-01  0.000000e+00
     vertex  3.125000e-02  6.565789e-01  1.015625e-01
     vertex  3.125000e-02  6.531250e-01  0.000000e+00
   endloop
 endfacet
 facet normal  0.000000e+00  0.000000e+00 -1.000000e+00
   outer loop
     vertex -3.987782e-01  6.519188e-01  0.000000e+00
     vertex -3.987928e-01  6.513158e-01  0.000000e+00
     vertex -4.063258e-01  6.513158e-01  0.000000e+00
   endloop
 endfacet
 facet normal  0.000000e+00  0.000000e+00 -1.000000e+00
   outer loop
     vertex -3.987694e-01  6.525219e-01  0.000000e+00
     vertex -3.987782e-01  6.519188e-01  0.000000e+00
     vertex -4.063258e-01  6.513158e-01  0.000000e+00
   endloop
 endfacet
 facet normal  0.000000e+00  0.000000e+00 -1.000000e+00
   outer loop
     vertex -3.987664e-01  6.531250e-01  0.000000e+00
     vertex -3.987694e-01  6.525219e-01  0.000000e+00
     vertex -4.063258e-01  6.513158e-01  0.000000e+00
   endloop
 endfacet
 facet normal  0.000000e+00  0.000000e+00 -1.000000e+00
   outer loop
     vertex -4.145656e-01  6.774266e-01  0.000000e+00
     vertex -3.987664e-01  6.531250e-01  0.000000e+00
     vertex -4.063258e-01  6.513158e-01  0.000000e+00
   endloop
 endfacet
 facet normal  0.000000e+00  0.000000e+00 -1.000000e+00
   outer loop
     vertex -4.609375e-01  7.497533e-01  0.000000e+00
     vertex -4.145656e-01  6.774266e-01  0.000000e+00
     vertex -4.344292e-01  6.962709e-01  0.000000e+00
   endloop
 endfacet
 facet normal  0.000000e+00  0.000000e+00 -1.000000e+00
   outer loop
     vertex -4.609375e-01  7.497533e-01  0.000000e+00
     vertex -4.344292e-01  6.962709e-01  0.000000e+00
     vertex -4.609375e-01  7.031250e-01  0.000000e+00
   endloop
 endfacet
 facet normal  0.000000e+00 -0.000000e+00 -1.000000e+00
   outer loop
     vertex  3.125000e-02  7.497533e-01  0.000000e+00
     vertex  3.125000e-02  6.531250e-01  0.000000e+00
     vertex -3.987664e-01  6.531250e-01  0.000000e+00
   endloop
 endfacet
 facet normal -0.000000e+00  0.000000e+00 -1.000000e+00
   outer loop
     vertex  3.125000e-02  7.497533e-01  0.000000e+00
     vertex -4.145656e-01  6.774266e-01  0.000000e+00
     vertex -4.609375e-01  7.497533e-01  0.000000e+00
   endloop
 endfacet
 facet normal  0.000000e+00  0.000000e+00 -1.000000e+00
   outer loop
     vertex  3.125000e-02  7.497533e-01  0.000000e+00
     vertex -3.987664e-01  6.531250e-01  0.000000e+00
     vertex -4.145656e-01  6.774266e-01  0.000000e+00
   endloop
 endfacet
 facet normal  0.000000e+00  0.000000e+00  1.000000e+00
   outer loop
     vertex -3.987782e-01  6.519188e-01  1.015625e-01
     vertex -4.063258e-01  6.513158e-01  1.015625e-01
     vertex -3.987928e-01  6.513158e-01  1.015625e-01
   endloop
 endfacet
 facet normal  0.000000e+00  0.000000e+00  1.000000e+00
   outer loop
     vertex -3.987694e-01  6.525219e-01  1.015625e-01
     vertex -4.063258e-01  6.513158e-01  1.015625e-01
     vertex -3.987782e-01  6.519188e-01  1.015625e-01
   endloop
 endfacet
 facet normal  0.000000e+00  0.000000e+00  1.000000e+00
   outer loop
     vertex -3.987664e-01  6.531250e-01  1.015625e-01
     vertex -4.063258e-01  6.513158e-01  1.015625e-01
     vertex -3.987694e-01  6.525219e-01  1.015625e-01
   endloop
 endfacet
 facet normal  0.000000e+00  0.000000e+00  1.000000e+00
   outer loop
     vertex -3.987664e-01  6.565789e-01  1.015625e-01
     vertex -4.063258e-01  6.513158e-01  1.015625e-01
     vertex -3.987664e-01  6.531250e-01  1.015625e-01
   endloop
 endfacet
 facet normal  0.000000e+00  0.000000e+00  1.000000e+00
   outer loop
     vertex -4.145656e-01  6.774266e-01  1.015625e-01
     vertex -4.063258e-01  6.513158e-01  1.015625e-01
     vertex -3.987664e-01  6.565789e-01  1.015625e-01
   endloop
 endfacet
 facet normal  0.000000e+00  0.000000e+00  1.000000e+00
   outer loop
     vertex -4.298520e-01  7.104207e-01  1.015625e-01
     vertex -4.609375e-01  7.187500e-01  1.015625e-01
     vertex -4.609375e-01  7.031250e-01  1.015625e-01
   endloop
 endfacet
 facet normal  0.000000e+00  0.000000e+00  1.000000e+00
   outer loop
     vertex -4.298520e-01  7.104207e-01  1.015625e-01
     vertex -4.609375e-01  7.031250e-01  1.015625e-01
     vertex -4.344292e-01  6.962709e-01  1.015625e-01
   endloop
 endfacet
 facet normal  0.000000e+00  0.000000e+00  1.000000e+00
   outer loop
     vertex -4.070958e-01  6.876645e-01  1.015625e-01
     vertex -4.344292e-01  6.962709e-01  1.015625e-01
     vertex -4.145656e-01  6.774266e-01  1.015625e-01
   endloop
 endfacet
 facet normal  0.000000e+00  0.000000e+00  1.000000e+00
   outer loop
     vertex -4.070958e-01  6.876645e-01  1.015625e-01
     vertex -4.298520e-01  7.104207e-01  1.015625e-01
     vertex -4.344292e-01  6.962709e-01  1.015625e-01
   endloop
 endfacet
 facet normal  0.000000e+00  0.000000e+00  1.000000e+00
   outer loop
     vertex -4.070958e-01  6.876645e-01  1.015625e-01
     vertex -4.145656e-01  6.774266e-01  1.015625e-01
     vertex -3.987664e-01  6.565789e-01  1.015625e-01
   endloop
 endfacet
 facet normal  0.000000e+00  0.000000e+00  1.000000e+00
   outer loop
     vertex  3.125000e-02  6.565789e-01  1.015625e-01
     vertex -3.987664e-01  6.531250e-01  1.015625e-01
     vertex  3.125000e-02  6.531250e-01  1.015625e-01
   endloop
 endfacet
 facet normal  0.000000e+00  0.000000e+00  1.000000e+00
   outer loop
     vertex  3.125000e-02  6.565789e-01  1.015625e-01
     vertex -3.987664e-01  6.565789e-01  1.015625e-01
     vertex -3.987664e-01  6.531250e-01  1.015625e-01
   endloop
 endfacet
 facet normal  9.990374e-01  4.386584e-02  0.000000e+00
   outer loop
     vertex -4.062837e-01  6.503569e-01  0.000000e+00
     vertex -4.063258e-01  6.513158e-01  0.000000e+00
     vertex -4.063258e-01  6.513158e-01  1.015625e-01
   endloop
 endfacet
 facet normal  9.990374e-01  4.386584e-02 -0.000000e+00
   outer loop
     vertex -4.062837e-01  6.503569e-01  0.000000e+00
     vertex -4.063258e-01  6.513158e-01  1.015625e-01
     vertex -4.062837e-01  6.503569e-01  1.015625e-01
   endloop
 endfacet
 facet normal  9.996534e-01  2.632491e-02 -0.000000e+00
   outer loop
     vertex -4.062584e-01  6.493973e-01  0.000000e+00
     vertex -4.062837e-01  6.503569e-01  1.015625e-01
     vertex -4.062584e-01  6.493973e-01  1.015625e-01
   endloop
 endfacet
 facet normal  9.996534e-01  2.632491e-02  0.000000e+00
   outer loop
     vertex -4.062584e-01  6.493973e-01  0.000000e+00
     vertex -4.062837e-01  6.503569e-01  0.000000e+00
     vertex -4.062837e-01  6.503569e-01  1.015625e-01
   endloop
 endfacet
 facet normal  9.999615e-01  8.775872e-03 -0.000000e+00
   outer loop
     vertex -4.062500e-01  6.484375e-01  0.000000e+00
     vertex -4.062584e-01  6.493973e-01  1.015625e-01
     vertex -4.062500e-01  6.484375e-01  1.015625e-01
   endloop
 endfacet
 facet normal  9.999615e-01  8.775872e-03  0.000000e+00
   outer loop
     vertex -4.062500e-01  6.484375e-01  0.000000e+00
     vertex -4.062584e-01  6.493973e-01  0.000000e+00
     vertex -4.062584e-01  6.493973e-01  1.015625e-01
   endloop
 endfacet
 facet normal  0.000000e+00  1.000000e+00  0.000000e+00
   outer loop
     vertex -4.609375e-01  7.497533e-01  0.000000e+00
     vertex  3.125000e-02  7.497533e-01  1.015625e-01
     vertex  3.125000e-02  7.497533e-01  0.000000e+00
   endloop
 endfacet
 facet normal  0.000000e+00  1.000000e+00  0.000000e+00
   outer loop
     vertex -4.609375e-01  7.497533e-01  0.000000e+00
     vertex -4.609375e-01  7.497533e-01  1.015625e-01
     vertex  3.125000e-02  7.497533e-01  1.015625e-01
   endloop
 endfacet
 facet normal  1.000000e+00  0.000000e+00  0.000000e+00
   outer loop
     vertex  3.125000e-02  7.497533e-01  1.015625e-01
     vertex  3.125000e-02  6.565789e-01  2.031250e-01
     vertex  3.125000e-02  6.565789e-01  1.015625e-01
   endloop
 endfacet
 facet normal  1.000000e+00  0.000000e+00 -0.000000e+00
   outer loop
     vertex  3.125000e-02  7.497533e-01  1.015625e-01
     vertex  3.125000e-02  7.550164e-01  2.031250e-01
     vertex  3.125000e-02  6.565789e-01  2.031250e-01
   endloop
 endfacet
 facet normal  1.000000e+00  0.000000e+00 -0.000000e+00
   outer loop
     vertex  3.125000e-02  7.550164e-01  1.015625e-01
     vertex  3.125000e-02  7.550164e-01  2.031250e-01
     vertex  3.125000e-02  7.497533e-01  1.015625e-01
   endloop
 endfacet
 facet normal  0.000000e+00 -0.000000e+00 -1.000000e+00
   outer loop
     vertex -4.344292e-01  6.962709e-01  0.000000e+00
     vertex -4.160694e-01  6.772204e-01  0.000000e+00
     vertex -4.350329e-01  6.961839e-01  0.000000e+00
   endloop
 endfacet
 facet normal  0.000000e+00 -0.000000e+00 -1.000000e+00
   outer loop
     vertex -4.145656e-01  6.774266e-01  0.000000e+00
     vertex -4.091283e-01  6.513158e-01  0.000000e+00
     vertex -4.160694e-01  6.772204e-01  0.000000e+00
   endloop
 endfacet
 facet normal  0.000000e+00  0.000000e+00 -1.000000e+00
   outer loop
     vertex -4.145656e-01  6.774266e-01  0.000000e+00
     vertex -4.063258e-01  6.513158e-01  0.000000e+00
     vertex -4.091283e-01  6.513158e-01  0.000000e+00
   endloop
 endfacet
 facet normal -0.000000e+00  0.000000e+00 -1.000000e+00
   outer loop
     vertex -4.145656e-01  6.774266e-01  0.000000e+00
     vertex -4.160694e-01  6.772204e-01  0.000000e+00
     vertex -4.344292e-01  6.962709e-01  0.000000e+00
   endloop
 endfacet
 facet normal -0.000000e+00  0.000000e+00 -1.000000e+00
   outer loop
     vertex -4.344292e-01  6.962709e-01  0.000000e+00
     vertex -4.350329e-01  6.961839e-01  0.000000e+00
     vertex -4.609375e-01  7.031250e-01  0.000000e+00
   endloop
 endfacet
 facet normal -1.000000e+00  0.000000e+00  0.000000e+00
   outer loop
     vertex -4.609375e-01  7.497533e-01  0.000000e+00
     vertex -4.609375e-01  7.187500e-01  1.015625e-01
     vertex -4.609375e-01  7.497533e-01  1.015625e-01
   endloop
 endfacet
 facet normal -1.000000e+00  0.000000e+00  0.000000e+00
   outer loop
     vertex -4.609375e-01  7.031250e-01  0.000000e+00
     vertex -4.609375e-01  7.031250e-01  1.015625e-01
     vertex -4.609375e-01  7.187500e-01  1.015625e-01
   endloop
 endfacet
 facet normal -1.000000e+00  0.000000e+00  0.000000e+00
   outer loop
     vertex -4.609375e-01  7.031250e-01  0.000000e+00
     vertex -4.609375e-01  7.187500e-01  1.015625e-01
     vertex -4.609375e-01  7.497533e-01  0.000000e+00
   endloop
 endfacet
 facet normal -2.588190e-01 -9.659258e-01  0.000000e+00
   outer loop
     vertex -4.298520e-01  7.104207e-01  1.015625e-01
     vertex -4.609375e-01  7.187500e-01  2.031250e-01
     vertex -4.609375e-01  7.187500e-01  1.015625e-01
   endloop
 endfacet
 facet normal -2.588190e-01 -9.659258e-01  0.000000e+00
   outer loop
     vertex -4.298520e-01  7.104207e-01  1.015625e-01
     vertex -4.298520e-01  7.104207e-01  2.031250e-01
     vertex -4.609375e-01  7.187500e-01  2.031250e-01
   endloop
 endfacet
 facet normal -7.071068e-01 -7.071068e-01  0.000000e+00
   outer loop
     vertex -4.070958e-01  6.876645e-01  1.015625e-01
     vertex -4.070958e-01  6.876645e-01  2.031250e-01
     vertex -4.298520e-01  7.104207e-01  2.031250e-01
   endloop
 endfacet
 facet normal -7.071068e-01 -7.071068e-01  0.000000e+00
   outer loop
     vertex -4.070958e-01  6.876645e-01  1.015625e-01
     vertex -4.298520e-01  7.104207e-01  2.031250e-01
     vertex -4.298520e-01  7.104207e-01  1.015625e-01
   endloop
 endfacet
 facet normal -9.659258e-01 -2.588190e-01  0.000000e+00
   outer loop
     vertex -3.987664e-01  6.565789e-01  1.015625e-01
     vertex -3.987664e-01  6.565789e-01  2.031250e-01
     vertex -4.070958e-01  6.876645e-01  2.031250e-01
   endloop
 endfacet
 facet normal -9.659258e-01 -2.588190e-01  0.000000e+00
   outer loop
     vertex -3.987664e-01  6.565789e-01  1.015625e-01
     vertex -4.070958e-01  6.876645e-01  2.031250e-01
     vertex -4.070958e-01  6.876645e-01  1.015625e-01
   endloop
 endfacet
 facet normal  0.000000e+00 -1.000000e+00  0.000000e+00
   outer loop
     vertex  3.125000e-02  6.565789e-01  1.015625e-01
     vertex -3.987664e-01  6.565789e-01  2.031250e-01
     vertex -3.987664e-01  6.565789e-01  1.015625e-01
   endloop
 endfacet
 facet normal  0.000000e+00 -1.000000e+00  0.000000e+00
   outer loop
     vertex  3.125000e-02  6.565789e-01  1.015625e-01
     vertex  3.125000e-02  6.565789e-01  2.031250e-01
     vertex -3.987664e-01  6.565789e-01  2.031250e-01
   endloop
 endfacet
 facet normal  0.000000e+00  0.000000e+00  1.000000e+00
   outer loop
     vertex -4.344292e-01  6.962709e-01  1.015625e-01
     vertex -4.350329e-01  6.961839e-01  1.015625e-01
     vertex -4.160694e-01  6.772204e-01  1.015625e-01
   endloop
 endfacet
 facet normal  0.000000e+00  0.000000e+00  1.000000e+00
   outer loop
     vertex -4.145656e-01  6.774266e-01  1.015625e-01
     vertex -4.160694e-01  6.772204e-01  1.015625e-01
     vertex -4.091283e-01  6.513158e-01  1.015625e-01
   endloop
 endfacet
 facet normal  0.000000e+00  0.000000e+00  1.000000e+00
   outer loop
     vertex -4.145656e-01  6.774266e-01  1.015625e-01
     vertex -4.091283e-01  6.513158e-01  1.015625e-01
     vertex -4.063258e-01  6.513158e-01  1.015625e-01
   endloop
 endfacet
 facet normal  0.000000e+00  0.000000e+00  1.000000e+00
   outer loop
     vertex -4.145656e-01  6.774266e-01  1.015625e-01
     vertex -4.344292e-01  6.962709e-01  1.015625e-01
     vertex -4.160694e-01  6.772204e-01  1.015625e-01
   endloop
 endfacet
 facet normal  0.000000e+00  0.000000e+00  1.000000e+00
   outer loop
     vertex -4.344292e-01  6.962709e-01  1.015625e-01
     vertex -4.609375e-01  7.031250e-01  1.015625e-01
     vertex -4.350329e-01  6.961839e-01  1.015625e-01
   endloop
 endfacet
 facet normal  0.000000e+00 -0.000000e+00 -1.000000e+00
   outer loop
     vertex -4.091283e-01  6.513158e-01  0.000000e+00
     vertex -4.062500e-01  6.484375e-01  0.000000e+00
     vertex -4.609375e-01  6.484375e-01  0.000000e+00
   endloop
 endfacet
 facet normal -0.000000e+00 -0.000000e+00 -1.000000e+00
   outer loop
     vertex -4.062584e-01  6.493973e-01  0.000000e+00
     vertex -4.062500e-01  6.484375e-01  0.000000e+00
     vertex -4.091283e-01  6.513158e-01  0.000000e+00
   endloop
 endfacet
 facet normal -0.000000e+00 -0.000000e+00 -1.000000e+00
   outer loop
     vertex -4.062837e-01  6.503569e-01  0.000000e+00
     vertex -4.062584e-01  6.493973e-01  0.000000e+00
     vertex -4.091283e-01  6.513158e-01  0.000000e+00
   endloop
 endfacet
 facet normal -0.000000e+00 -0.000000e+00 -1.000000e+00
   outer loop
     vertex -4.063258e-01  6.513158e-01  0.000000e+00
     vertex -4.062837e-01  6.503569e-01  0.000000e+00
     vertex -4.091283e-01  6.513158e-01  0.000000e+00
   endloop
 endfacet
 facet normal -0.000000e+00  0.000000e+00 -1.000000e+00
   outer loop
     vertex -4.350329e-01  6.961839e-01  0.000000e+00
     vertex -4.609375e-01  6.484375e-01  0.000000e+00
     vertex -4.609375e-01  7.031250e-01  0.000000e+00
   endloop
 endfacet
 facet normal  0.000000e+00 -0.000000e+00 -1.000000e+00
   outer loop
     vertex -4.160694e-01  6.772204e-01  0.000000e+00
     vertex -4.091283e-01  6.513158e-01  0.000000e+00
     vertex -4.609375e-01  6.484375e-01  0.000000e+00
   endloop
 endfacet
 facet normal -0.000000e+00  0.000000e+00 -1.000000e+00
   outer loop
     vertex -4.160694e-01  6.772204e-01  0.000000e+00
     vertex -4.609375e-01  6.484375e-01  0.000000e+00
     vertex -4.350329e-01  6.961839e-01  0.000000e+00
   endloop
 endfacet
 facet normal  0.000000e+00  0.000000e+00  1.000000e+00
   outer loop
     vertex -4.091283e-01  6.513158e-01  1.015625e-01
     vertex -4.271084e-01  6.679688e-01  1.015625e-01
     vertex -4.218750e-01  6.484375e-01  1.015625e-01
   endloop
 endfacet
 facet normal  0.000000e+00  0.000000e+00  1.000000e+00
   outer loop
     vertex -4.091283e-01  6.513158e-01  1.015625e-01
     vertex -4.218750e-01  6.484375e-01  1.015625e-01
     vertex -4.062500e-01  6.484375e-01  1.015625e-01
   endloop
 endfacet
 facet normal  0.000000e+00  0.000000e+00  1.000000e+00
   outer loop
     vertex -4.062584e-01  6.493973e-01  1.015625e-01
     vertex -4.091283e-01  6.513158e-01  1.015625e-01
     vertex -4.062500e-01  6.484375e-01  1.015625e-01
   endloop
 endfacet
 facet normal  0.000000e+00  0.000000e+00  1.000000e+00
   outer loop
     vertex -4.062837e-01  6.503569e-01  1.015625e-01
     vertex -4.091283e-01  6.513158e-01  1.015625e-01
     vertex -4.062584e-01  6.493973e-01  1.015625e-01
   endloop
 endfacet
 facet normal  0.000000e+00  0.000000e+00  1.000000e+00
   outer loop
     vertex -4.063258e-01  6.513158e-01  1.015625e-01
     vertex -4.091283e-01  6.513158e-01  1.015625e-01
     vertex -4.062837e-01  6.503569e-01  1.015625e-01
   endloop
 endfacet
 facet normal  0.000000e+00  0.000000e+00  1.000000e+00
   outer loop
     vertex -4.350329e-01  6.961839e-01  1.015625e-01
     vertex -4.609375e-01  7.031250e-01  1.015625e-01
     vertex -4.609375e-01  6.875000e-01  1.015625e-01
   endloop
 endfacet
 facet normal  0.000000e+00  0.000000e+00  1.000000e+00
   outer loop
     vertex -4.350329e-01  6.961839e-01  1.015625e-01
     vertex -4.609375e-01  6.875000e-01  1.015625e-01
     vertex -4.414062e-01  6.822666e-01  1.015625e-01
   endloop
 endfacet
 facet normal  0.000000e+00  0.000000e+00  1.000000e+00
   outer loop
     vertex -4.160694e-01  6.772204e-01  1.015625e-01
     vertex -4.414062e-01  6.822666e-01  1.015625e-01
     vertex -4.271084e-01  6.679688e-01  1.015625e-01
   endloop
 endfacet
 facet normal  0.000000e+00  0.000000e+00  1.000000e+00
   outer loop
     vertex -4.160694e-01  6.772204e-01  1.015625e-01
     vertex -4.271084e-01  6.679688e-01  1.015625e-01
     vertex -4.091283e-01  6.513158e-01  1.015625e-01
   endloop
 endfacet
 facet normal  0.000000e+00  0.000000e+00  1.000000e+00
   outer loop
     vertex -4.160694e-01  6.772204e-01  1.015625e-01
     vertex -4.350329e-01  6.961839e-01  1.015625e-01
     vertex -4.414062e-01  6.822666e-01  1.015625e-01
   endloop
 endfacet
 facet normal  7.071068e-01 -7.071068e-01  0.000000e+00
   outer loop
     vertex -4.609375e-01  5.937500e-01  0.000000e+00
     vertex -4.062500e-01  6.484375e-01  0.000000e+00
     vertex -4.062500e-01  6.484375e-01  1.015625e-01
   endloop
 endfacet
 facet normal  7.071068e-01 -7.071068e-01  0.000000e+00
   outer loop
     vertex -4.609375e-01  5.937500e-01  0.000000e+00
     vertex -4.062500e-01  6.484375e-01  1.015625e-01
     vertex -4.609375e-01  5.937500e-01  1.015625e-01
   endloop
 endfacet
 facet normal -7.071068e-01 -7.071068e-01  0.000000e+00
   outer loop
     vertex -5.156250e-01  6.484375e-01  0.000000e+00
     vertex -4.609375e-01  5.937500e-01  1.015625e-01
     vertex -5.156250e-01  6.484375e-01  1.015625e-01
   endloop
 endfacet
 facet normal -7.071068e-01 -7.071068e-01  0.000000e+00
   outer loop
     vertex -5.156250e-01  6.484375e-01  0.000000e+00
     vertex -4.609375e-01  5.937500e-01  0.000000e+00
     vertex -4.609375e-01  5.937500e-01  1.015625e-01
   endloop
 endfacet
 facet normal -7.071068e-01  7.071068e-01  0.000000e+00
   outer loop
     vertex -4.609375e-01  7.031250e-01  0.000000e+00
     vertex -5.156250e-01  6.484375e-01  1.015625e-01
     vertex -4.609375e-01  7.031250e-01  1.015625e-01
   endloop
 endfacet
 facet normal -7.071068e-01  7.071068e-01  0.000000e+00
   outer loop
     vertex -4.609375e-01  7.031250e-01  0.000000e+00
     vertex -5.156250e-01  6.484375e-01  0.000000e+00
     vertex -5.156250e-01  6.484375e-01  1.015625e-01
   endloop
 endfacet
 facet normal -0.000000e+00  0.000000e+00 -1.000000e+00
   outer loop
     vertex  3.125000e-02  7.550164e-01  1.015625e-01
     vertex -4.609375e-01  7.497533e-01  1.015625e-01
     vertex -4.609375e-01  7.550164e-01  1.015625e-01
   endloop
 endfacet
 facet normal  0.000000e+00 -0.000000e+00 -1.000000e+00
   outer loop
     vertex  3.125000e-02  7.550164e-01  1.015625e-01
     vertex  3.125000e-02  7.497533e-01  1.015625e-01
     vertex -4.609375e-01  7.497533e-01  1.015625e-01
   endloop
 endfacet
 facet normal  0.000000e+00  1.000000e+00  0.000000e+00
   outer loop
     vertex -4.609375e-01  7.550164e-01  1.015625e-01
     vertex  3.125000e-02  7.550164e-01  2.031250e-01
     vertex  3.125000e-02  7.550164e-01  1.015625e-01
   endloop
 endfacet
 facet normal  0.000000e+00  1.000000e+00  0.000000e+00
   outer loop
     vertex -4.609375e-01  7.550164e-01  1.015625e-01
     vertex -4.609375e-01  7.550164e-01  2.031250e-01
     vertex  3.125000e-02  7.550164e-01  2.031250e-01
   endloop
 endfacet
 facet normal  0.000000e+00  0.000000e+00  1.000000e+00
   outer loop
     vertex -4.609375e-01  7.550164e-01  2.031250e-01
     vertex -4.609375e-01  7.187500e-01  2.031250e-01
     vertex -4.298520e-01  7.104207e-01  2.031250e-01
   endloop
 endfacet
 facet normal  0.000000e+00  0.000000e+00  1.000000e+00
   outer loop
     vertex -4.609375e-01  7.550164e-01  2.031250e-01
     vertex -4.298520e-01  7.104207e-01  2.031250e-01
     vertex -4.070958e-01  6.876645e-01  2.031250e-01
   endloop
 endfacet
 facet normal  0.000000e+00  0.000000e+00  1.000000e+00
   outer loop
     vertex  3.125000e-02  7.550164e-01  2.031250e-01
     vertex -4.070958e-01  6.876645e-01  2.031250e-01
     vertex -3.987664e-01  6.565789e-01  2.031250e-01
   endloop
 endfacet
 facet normal  0.000000e+00  0.000000e+00  1.000000e+00
   outer loop
     vertex  3.125000e-02  7.550164e-01  2.031250e-01
     vertex -3.987664e-01  6.565789e-01  2.031250e-01
     vertex  3.125000e-02  6.565789e-01  2.031250e-01
   endloop
 endfacet
 facet normal  0.000000e+00  0.000000e+00  1.000000e+00
   outer loop
     vertex  3.125000e-02  7.550164e-01  2.031250e-01
     vertex -4.609375e-01  7.550164e-01  2.031250e-01
     vertex -4.070958e-01  6.876645e-01  2.031250e-01
   endloop
 endfacet
 facet normal -1.000000e+00  0.000000e+00  0.000000e+00
   outer loop
     vertex -4.609375e-01  7.497533e-01  1.015625e-01
     vertex -4.609375e-01  7.550164e-01  2.031250e-01
     vertex -4.609375e-01  7.550164e-01  1.015625e-01
   endloop
 endfacet
 facet normal -1.000000e+00  0.000000e+00  0.000000e+00
   outer loop
     vertex -4.609375e-01  7.497533e-01  1.015625e-01
     vertex -4.609375e-01  7.187500e-01  2.031250e-01
     vertex -4.609375e-01  7.550164e-01  2.031250e-01
   endloop
 endfacet
 facet normal -1.000000e+00  0.000000e+00  0.000000e+00
   outer loop
     vertex -4.609375e-01  7.187500e-01  1.015625e-01
     vertex -4.609375e-01  7.187500e-01  2.031250e-01
     vertex -4.609375e-01  7.497533e-01  1.015625e-01
   endloop
 endfacet
 facet normal -0.000000e+00  0.000000e+00 -1.000000e+00
   outer loop
     vertex -4.609375e-01  6.484375e-01  0.000000e+00
     vertex -4.609375e-01  5.937500e-01  0.000000e+00
     vertex -5.156250e-01  6.484375e-01  0.000000e+00
   endloop
 endfacet
 facet normal  0.000000e+00 -0.000000e+00 -1.000000e+00
   outer loop
     vertex -4.609375e-01  7.031250e-01  0.000000e+00
     vertex -4.609375e-01  6.484375e-01  0.000000e+00
     vertex -5.156250e-01  6.484375e-01  0.000000e+00
   endloop
 endfacet
 facet normal -0.000000e+00  0.000000e+00 -1.000000e+00
   outer loop
     vertex -4.062500e-01  6.484375e-01  0.000000e+00
     vertex -4.609375e-01  5.937500e-01  0.000000e+00
     vertex -4.609375e-01  6.484375e-01  0.000000e+00
   endloop
 endfacet
 facet normal  0.000000e+00  0.000000e+00  1.000000e+00
   outer loop
     vertex -4.609375e-01  6.093750e-01  1.015625e-01
     vertex -5.156250e-01  6.484375e-01  1.015625e-01
     vertex -4.609375e-01  5.937500e-01  1.015625e-01
   endloop
 endfacet
 facet normal  0.000000e+00  0.000000e+00  1.000000e+00
   outer loop
     vertex -4.609375e-01  6.093750e-01  1.015625e-01
     vertex -5.000000e-01  6.484375e-01  1.015625e-01
     vertex -5.156250e-01  6.484375e-01  1.015625e-01
   endloop
 endfacet
 facet normal  0.000000e+00  0.000000e+00  1.000000e+00
   outer loop
     vertex -4.062500e-01  6.484375e-01  1.015625e-01
     vertex -4.218750e-01  6.484375e-01  1.015625e-01
     vertex -4.609375e-01  6.093750e-01  1.015625e-01
   endloop
 endfacet
 facet normal  0.000000e+00  0.000000e+00  1.000000e+00
   outer loop
     vertex -4.062500e-01  6.484375e-01  1.015625e-01
     vertex -4.609375e-01  6.093750e-01  1.015625e-01
     vertex -4.609375e-01  5.937500e-01  1.015625e-01
   endloop
 endfacet
 facet normal  0.000000e+00  0.000000e+00  1.000000e+00
   outer loop
     vertex -4.609375e-01  7.031250e-01  1.015625e-01
     vertex -5.000000e-01  6.484375e-01  1.015625e-01
     vertex -4.609375e-01  6.875000e-01  1.015625e-01
   endloop
 endfacet
 facet normal  0.000000e+00  0.000000e+00  1.000000e+00
   outer loop
     vertex -4.609375e-01  7.031250e-01  1.015625e-01
     vertex -5.156250e-01  6.484375e-01  1.015625e-01
     vertex -5.000000e-01  6.484375e-01  1.015625e-01
   endloop
 endfacet
 facet normal  2.588190e-01  9.659258e-01  0.000000e+00
   outer loop
     vertex -4.414062e-01  6.822666e-01  1.015625e-01
     vertex -4.609375e-01  6.875000e-01  1.015625e-01
     vertex -4.609375e-01  6.875000e-01  2.031250e-01
   endloop
 endfacet
 facet normal  2.588190e-01  9.659258e-01 -0.000000e+00
   outer loop
     vertex -4.414062e-01  6.822666e-01  1.015625e-01
     vertex -4.609375e-01  6.875000e-01  2.031250e-01
     vertex -4.414062e-01  6.822666e-01  2.031250e-01
   endloop
 endfacet
 facet normal  7.071068e-01  7.071068e-01 -0.000000e+00
   outer loop
     vertex -4.271084e-01  6.679688e-01  1.015625e-01
     vertex -4.414062e-01  6.822666e-01  2.031250e-01
     vertex -4.271084e-01  6.679688e-01  2.031250e-01
   endloop
 endfacet
 facet normal  7.071068e-01  7.071068e-01  0.000000e+00
   outer loop
     vertex -4.271084e-01  6.679688e-01  1.015625e-01
     vertex -4.414062e-01  6.822666e-01  1.015625e-01
     vertex -4.414062e-01  6.822666e-01  2.031250e-01
   endloop
 endfacet
 facet normal  9.659258e-01  2.588190e-01 -0.000000e+00
   outer loop
     vertex -4.218750e-01  6.484375e-01  1.015625e-01
     vertex -4.271084e-01  6.679688e-01  2.031250e-01
     vertex -4.218750e-01  6.484375e-01  2.031250e-01
   endloop
 endfacet
 facet normal  9.659258e-01  2.588190e-01  0.000000e+00
   outer loop
     vertex -4.218750e-01  6.484375e-01  1.015625e-01
     vertex -4.271084e-01  6.679688e-01  1.015625e-01
     vertex -4.271084e-01  6.679688e-01  2.031250e-01
   endloop
 endfacet
 facet normal  7.071068e-01 -7.071068e-01  0.000000e+00
   outer loop
     vertex -4.609375e-01  6.093750e-01  1.015625e-01
     vertex -4.218750e-01  6.484375e-01  1.015625e-01
     vertex -4.218750e-01  6.484375e-01  2.031250e-01
   endloop
 endfacet
 facet normal  7.071068e-01 -7.071068e-01  0.000000e+00
   outer loop
     vertex -4.609375e-01  6.093750e-01  1.015625e-01
     vertex -4.218750e-01  6.484375e-01  2.031250e-01
     vertex -4.609375e-01  6.093750e-01  2.031250e-01
   endloop
 endfacet
 facet normal -7.071068e-01 -7.071068e-01  0.000000e+00
   outer loop
     vertex -5.000000e-01  6.484375e-01  1.015625e-01
     vertex -4.609375e-01  6.093750e-01  2.031250e-01
     vertex -5.000000e-01  6.484375e-01  2.031250e-01
   endloop
 endfacet
 facet normal -7.071068e-01 -7.071068e-01  0.000000e+00
   outer loop
     vertex -5.000000e-01  6.484375e-01  1.015625e-01
     vertex -4.609375e-01  6.093750e-01  1.015625e-01
     vertex -4.609375e-01  6.093750e-01  2.031250e-01
   endloop
 endfacet
 facet normal -7.071068e-01  7.071068e-01  0.000000e+00
   outer loop
     vertex -4.609375e-01  6.875000e-01  1.015625e-01
     vertex -5.000000e-01  6.484375e-01  2.031250e-01
     vertex -4.609375e-01  6.875000e-01  2.031250e-01
   endloop
 endfacet
 facet normal -7.071068e-01  7.071068e-01  0.000000e+00
   outer loop
     vertex -4.609375e-01  6.875000e-01  1.015625e-01
     vertex -5.000000e-01  6.484375e-01  1.015625e-01
     vertex -5.000000e-01  6.484375e-01  2.031250e-01
   endloop
 endfacet
 facet normal  0.000000e+00  0.000000e+00  1.000000e+00
   outer loop
     vertex -4.414062e-01  6.822666e-01  2.031250e-01
     vertex -4.609375e-01  6.875000e-01  2.031250e-01
     vertex -4.609375e-01  6.484375e-01  2.031250e-01
   endloop
 endfacet
 facet normal  0.000000e+00  0.000000e+00  1.000000e+00
   outer loop
     vertex -4.271084e-01  6.679688e-01  2.031250e-01
     vertex -4.609375e-01  6.484375e-01  2.031250e-01
     vertex -4.218750e-01  6.484375e-01  2.031250e-01
   endloop
 endfacet
 facet normal  0.000000e+00  0.000000e+00  1.000000e+00
   outer loop
     vertex -4.271084e-01  6.679688e-01  2.031250e-01
     vertex -4.414062e-01  6.822666e-01  2.031250e-01
     vertex -4.609375e-01  6.484375e-01  2.031250e-01
   endloop
 endfacet
 facet normal  0.000000e+00  0.000000e+00  1.000000e+00
   outer loop
     vertex -4.609375e-01  6.484375e-01  2.031250e-01
     vertex -5.000000e-01  6.484375e-01  2.031250e-01
     vertex -4.609375e-01  6.093750e-01  2.031250e-01
   endloop
 endfacet
 facet normal  0.000000e+00  0.000000e+00  1.000000e+00
   outer loop
     vertex -4.609375e-01  6.875000e-01  2.031250e-01
     vertex -5.000000e-01  6.484375e-01  2.031250e-01
     vertex -4.609375e-01  6.484375e-01  2.031250e-01
   endloop
 endfacet
 facet normal  0.000000e+00  0.000000e+00  1.000000e+00
   outer loop
     vertex -4.218750e-01  6.484375e-01  2.031250e-01
     vertex -4.609375e-01  6.484375e-01  2.031250e-01
     vertex -4.609375e-01  6.093750e-01  2.031250e-01
   endloop
 endfacet
endsolid
