solid 
 facet normal  9.749279e-01 -2.225209e-01  0.000000e+00
   outer loop
     vertex  1.798787e-01 -8.563495e-02  0.000000e+00
     vertex  1.994243e-01  0.000000e+00  0.000000e+00
     vertex  1.994243e-01  0.000000e+00  7.500000e-01
   endloop
 endfacet
 facet normal  9.749279e-01 -2.225209e-01  0.000000e+00
   outer loop
     vertex  1.798787e-01 -8.563495e-02  0.000000e+00
     vertex  1.994243e-01  0.000000e+00  7.500000e-01
     vertex  1.798787e-01 -8.563495e-02  7.500000e-01
   endloop
 endfacet
 facet normal  7.818315e-01 -6.234898e-01  0.000000e+00
   outer loop
     vertex  1.251131e-01 -1.543088e-01  0.000000e+00
     vertex  1.798787e-01 -8.563495e-02  7.500000e-01
     vertex  1.251131e-01 -1.543088e-01  7.500000e-01
   endloop
 endfacet
 facet normal  7.818315e-01 -6.234898e-01  0.000000e+00
   outer loop
     vertex  1.251131e-01 -1.543088e-01  0.000000e+00
     vertex  1.798787e-01 -8.563495e-02  0.000000e+00
     vertex  1.798787e-01 -8.563495e-02  7.500000e-01
   endloop
 endfacet
 facet normal  4.338837e-01 -9.009689e-01  0.000000e+00
   outer loop
     vertex  4.597453e-02 -1.924200e-01  0.000000e+00
     vertex  1.251131e-01 -1.543088e-01  7.500000e-01
     vertex  4.597453e-02 -1.924200e-01  7.500000e-01
   endloop
 endfacet
 facet normal  4.338837e-01 -9.009689e-01  0.000000e+00
   outer loop
     vertex  4.597453e-02 -1.924200e-01  0.000000e+00
     vertex  1.251131e-01 -1.543088e-01  0.000000e+00
     vertex  1.251131e-01 -1.543088e-01  7.500000e-01
   endloop
 endfacet
 facet normal  0.000000e+00 -1.000000e+00  0.000000e+00
   outer loop
     vertex -4.186268e-02 -1.924200e-01  0.000000e+00
     vertex  4.597453e-02 -1.924200e-01  7.500000e-01
     vertex -4.186268e-02 -1.924200e-01  7.500000e-01
   endloop
 endfacet
 facet normal  0.000000e+00 -1.000000e+00  0.000000e+00
   outer loop
     vertex -4.186268e-02 -1.924200e-01  0.000000e+00
     vertex  4.597453e-02 -1.924200e-01  0.000000e+00
     vertex  4.597453e-02 -1.924200e-01  7.500000e-01
   endloop
 endfacet
 facet normal -4.338837e-01 -9.009689e-01  0.000000e+00
   outer loop
     vertex -1.210013e-01 -1.543088e-01  0.000000e+00
     vertex -4.186268e-02 -1.924200e-01  7.500000e-01
     vertex -1.210013e-01 -1.543088e-01  7.500000e-01
   endloop
 endfacet
 facet normal -4.338837e-01 -9.009689e-01  0.000000e+00
   outer loop
     vertex -1.210013e-01 -1.543088e-01  0.000000e+00
     vertex -4.186268e-02 -1.924200e-01  0.000000e+00
     vertex -4.186268e-02 -1.924200e-01  7.500000e-01
   endloop
 endfacet
 facet normal -9.749279e-01 -2.225209e-01  0.000000e+00
   outer loop
     vertex -1.757669e-01 -8.563495e-02  0.000000e+00
     vertex -1.757669e-01 -8.563495e-02  7.500000e-01
     vertex -1.953125e-01  2.417066e-17  7.500000e-01
   endloop
 endfacet
 facet normal -7.818315e-01 -6.234898e-01  0.000000e+00
   outer loop
     vertex -1.757669e-01 -8.563495e-02  0.000000e+00
     vertex -1.210013e-01 -1.543088e-01  7.500000e-01
     vertex -1.757669e-01 -8.563495e-02  7.500000e-01
   endloop
 endfacet
 facet normal -7.818315e-01 -6.234898e-01  0.000000e+00
   outer loop
     vertex -1.757669e-01 -8.563495e-02  0.000000e+00
     vertex -1.210013e-01 -1.543088e-01  0.000000e+00
     vertex -1.210013e-01 -1.543088e-01  7.500000e-01
   endloop
 endfacet
 facet normal -9.749279e-01 -2.225209e-01  0.000000e+00
   outer loop
     vertex -1.953125e-01  2.417066e-17  0.000000e+00
     vertex -1.757669e-01 -8.563495e-02  0.000000e+00
     vertex -1.953125e-01  2.417066e-17  7.500000e-01
   endloop
 endfacet
 facet normal -7.818315e-01  6.234898e-01  0.000000e+00
   outer loop
     vertex -1.757669e-01  8.563495e-02  0.000000e+00
     vertex -1.757669e-01  8.563495e-02  7.500000e-01
     vertex -1.210013e-01  1.543088e-01  7.500000e-01
   endloop
 endfacet
 facet normal -9.749279e-01  2.225209e-01  0.000000e+00
   outer loop
     vertex -1.757669e-01  8.563495e-02  0.000000e+00
     vertex -1.953125e-01  2.417066e-17  7.500000e-01
     vertex -1.757669e-01  8.563495e-02  7.500000e-01
   endloop
 endfacet
 facet normal -9.749279e-01  2.225209e-01  0.000000e+00
   outer loop
     vertex -1.757669e-01  8.563495e-02  0.000000e+00
     vertex -1.953125e-01  2.417066e-17  0.000000e+00
     vertex -1.953125e-01  2.417066e-17  7.500000e-01
   endloop
 endfacet
 facet normal -7.818315e-01  6.234898e-01  0.000000e+00
   outer loop
     vertex -1.210013e-01  1.543088e-01  0.000000e+00
     vertex -1.757669e-01  8.563495e-02  0.000000e+00
     vertex -1.210013e-01  1.543088e-01  7.500000e-01
   endloop
 endfacet
 facet normal -4.338837e-01  9.009689e-01  0.000000e+00
   outer loop
     vertex -4.186268e-02  1.924200e-01  0.000000e+00
     vertex -1.210013e-01  1.543088e-01  7.500000e-01
     vertex -4.186268e-02  1.924200e-01  7.500000e-01
   endloop
 endfacet
 facet normal -4.338837e-01  9.009689e-01  0.000000e+00
   outer loop
     vertex -4.186268e-02  1.924200e-01  0.000000e+00
     vertex -1.210013e-01  1.543088e-01  0.000000e+00
     vertex -1.210013e-01  1.543088e-01  7.500000e-01
   endloop
 endfacet
 facet normal  0.000000e+00  1.000000e+00 -0.000000e+00
   outer loop
     vertex  4.597453e-02  1.924200e-01  0.000000e+00
     vertex -4.186268e-02  1.924200e-01  7.500000e-01
     vertex  4.597453e-02  1.924200e-01  7.500000e-01
   endloop
 endfacet
 facet normal  0.000000e+00  1.000000e+00  0.000000e+00
   outer loop
     vertex  4.597453e-02  1.924200e-01  0.000000e+00
     vertex -4.186268e-02  1.924200e-01  0.000000e+00
     vertex -4.186268e-02  1.924200e-01  7.500000e-01
   endloop
 endfacet
 facet normal  4.338837e-01  9.009689e-01 -0.000000e+00
   outer loop
     vertex  1.251131e-01  1.543088e-01  0.000000e+00
     vertex  4.597453e-02  1.924200e-01  7.500000e-01
     vertex  1.251131e-01  1.543088e-01  7.500000e-01
   endloop
 endfacet
 facet normal  4.338837e-01  9.009689e-01  0.000000e+00
   outer loop
     vertex  1.251131e-01  1.543088e-01  0.000000e+00
     vertex  4.597453e-02  1.924200e-01  0.000000e+00
     vertex  4.597453e-02  1.924200e-01  7.500000e-01
   endloop
 endfacet
 facet normal  7.818315e-01  6.234898e-01 -0.000000e+00
   outer loop
     vertex  1.798787e-01  8.563495e-02  0.000000e+00
     vertex  1.251131e-01  1.543088e-01  7.500000e-01
     vertex  1.798787e-01  8.563495e-02  7.500000e-01
   endloop
 endfacet
 facet normal  7.818315e-01  6.234898e-01  0.000000e+00
   outer loop
     vertex  1.798787e-01  8.563495e-02  0.000000e+00
     vertex  1.251131e-01  1.543088e-01  0.000000e+00
     vertex  1.251131e-01  1.543088e-01  7.500000e-01
   endloop
 endfacet
 facet normal  9.749279e-01  2.225209e-01 -0.000000e+00
   outer loop
     vertex  1.994243e-01  0.000000e+00  0.000000e+00
     vertex  1.798787e-01  8.563495e-02  7.500000e-01
     vertex  1.994243e-01  0.000000e+00  7.500000e-01
   endloop
 endfacet
 facet normal  9.749279e-01  2.225209e-01  0.000000e+00
   outer loop
     vertex  1.994243e-01  0.000000e+00  0.000000e+00
     vertex  1.798787e-01  8.563495e-02  0.000000e+00
     vertex  1.798787e-01  8.563495e-02  7.500000e-01
   endloop
 endfacet
 facet normal  0.000000e+00  0.000000e+00 -1.000000e+00
   outer loop
     vertex -8.639757e-02 -8.116287e-02  0.000000e+00
     vertex -1.210013e-01 -1.543088e-01  0.000000e+00
     vertex -1.757669e-01 -8.563495e-02  0.000000e+00
   endloop
 endfacet
 facet normal -0.000000e+00  0.000000e+00 -1.000000e+00
   outer loop
     vertex -6.431485e-02 -1.007193e-01  0.000000e+00
     vertex -1.210013e-01 -1.543088e-01  0.000000e+00
     vertex -8.639757e-02 -8.116287e-02  0.000000e+00
   endloop
 endfacet
 facet normal  0.000000e+00 -0.000000e+00 -1.000000e+00
   outer loop
     vertex -1.031589e-01 -5.689034e-02  0.000000e+00
     vertex -8.639757e-02 -8.116287e-02  0.000000e+00
     vertex -1.757669e-01 -8.563495e-02  0.000000e+00
   endloop
 endfacet
 facet normal  0.000000e+00  0.000000e+00 -1.000000e+00
   outer loop
     vertex -3.819393e-02 -1.144231e-01  0.000000e+00
     vertex -4.186268e-02 -1.924200e-01  0.000000e+00
     vertex -1.210013e-01 -1.543088e-01  0.000000e+00
   endloop
 endfacet
 facet normal -0.000000e+00  0.000000e+00 -1.000000e+00
   outer loop
     vertex -3.819393e-02 -1.144231e-01  0.000000e+00
     vertex -1.210013e-01 -1.543088e-01  0.000000e+00
     vertex -6.431485e-02 -1.007193e-01  0.000000e+00
   endloop
 endfacet
 facet normal -0.000000e+00  0.000000e+00 -1.000000e+00
   outer loop
     vertex -1.136249e-01 -2.931207e-02  0.000000e+00
     vertex -1.757669e-01 -8.563495e-02  0.000000e+00
     vertex -1.953125e-01  2.417066e-17  0.000000e+00
   endloop
 endfacet
 facet normal  0.000000e+00 -0.000000e+00 -1.000000e+00
   outer loop
     vertex -1.136249e-01 -2.931207e-02  0.000000e+00
     vertex -1.031589e-01 -5.689034e-02  0.000000e+00
     vertex -1.757669e-01 -8.563495e-02  0.000000e+00
   endloop
 endfacet
 facet normal  0.000000e+00 -0.000000e+00 -1.000000e+00
   outer loop
     vertex -9.552627e-03 -1.214782e-01  0.000000e+00
     vertex  4.597453e-02 -1.924200e-01  0.000000e+00
     vertex -4.186268e-02 -1.924200e-01  0.000000e+00
   endloop
 endfacet
 facet normal -0.000000e+00  0.000000e+00 -1.000000e+00
   outer loop
     vertex -9.552627e-03 -1.214782e-01  0.000000e+00
     vertex -4.186268e-02 -1.924200e-01  0.000000e+00
     vertex -3.819393e-02 -1.144231e-01  0.000000e+00
   endloop
 endfacet
 facet normal -0.000000e+00 -0.000000e+00 -1.000000e+00
   outer loop
     vertex -1.171875e-01 -1.237679e-17  0.000000e+00
     vertex -1.136249e-01 -2.931207e-02  0.000000e+00
     vertex -1.953125e-01  2.417066e-17  0.000000e+00
   endloop
 endfacet
 facet normal  0.000000e+00 -0.000000e+00 -1.000000e+00
   outer loop
     vertex  1.994481e-02 -1.214745e-01  0.000000e+00
     vertex  4.597453e-02 -1.924200e-01  0.000000e+00
     vertex -9.552627e-03 -1.214782e-01  0.000000e+00
   endloop
 endfacet
 facet normal -0.000000e+00  0.000000e+00 -1.000000e+00
   outer loop
     vertex -1.136249e-01  2.931207e-02  0.000000e+00
     vertex -1.953125e-01  2.417066e-17  0.000000e+00
     vertex -1.757669e-01  8.563495e-02  0.000000e+00
   endloop
 endfacet
 facet normal  0.000000e+00  0.000000e+00 -1.000000e+00
   outer loop
     vertex -1.136249e-01  2.931207e-02  0.000000e+00
     vertex -1.171875e-01 -1.237679e-17  0.000000e+00
     vertex -1.953125e-01  2.417066e-17  0.000000e+00
   endloop
 endfacet
 facet normal  0.000000e+00  0.000000e+00 -1.000000e+00
   outer loop
     vertex  4.858435e-02 -1.144123e-01  0.000000e+00
     vertex  4.597453e-02 -1.924200e-01  0.000000e+00
     vertex  1.994481e-02 -1.214745e-01  0.000000e+00
   endloop
 endfacet
 facet normal -0.000000e+00  0.000000e+00 -1.000000e+00
   outer loop
     vertex -1.031589e-01  5.689034e-02  0.000000e+00
     vertex -1.136249e-01  2.931207e-02  0.000000e+00
     vertex -1.757669e-01  8.563495e-02  0.000000e+00
   endloop
 endfacet
 facet normal -0.000000e+00  0.000000e+00 -1.000000e+00
   outer loop
     vertex  1.251131e-01 -1.543088e-01  0.000000e+00
     vertex  4.597453e-02 -1.924200e-01  0.000000e+00
     vertex  4.858435e-02 -1.144123e-01  0.000000e+00
   endloop
 endfacet
 facet normal  0.000000e+00 -0.000000e+00 -1.000000e+00
   outer loop
     vertex  7.470185e-02 -1.007019e-01  0.000000e+00
     vertex  1.251131e-01 -1.543088e-01  0.000000e+00
     vertex  4.858435e-02 -1.144123e-01  0.000000e+00
   endloop
 endfacet
 facet normal -0.000000e+00  0.000000e+00 -1.000000e+00
   outer loop
     vertex -8.639757e-02  8.116287e-02  0.000000e+00
     vertex -1.031589e-01  5.689034e-02  0.000000e+00
     vertex -1.757669e-01  8.563495e-02  0.000000e+00
   endloop
 endfacet
 facet normal  0.000000e+00 -0.000000e+00 -1.000000e+00
   outer loop
     vertex  9.677968e-02 -8.113999e-02  0.000000e+00
     vertex  1.251131e-01 -1.543088e-01  0.000000e+00
     vertex  7.470185e-02 -1.007019e-01  0.000000e+00
   endloop
 endfacet
 facet normal  0.000000e+00 -0.000000e+00 -1.000000e+00
   outer loop
     vertex -1.210013e-01  1.543088e-01  0.000000e+00
     vertex -8.639757e-02  8.116287e-02  0.000000e+00
     vertex -1.757669e-01  8.563495e-02  0.000000e+00
   endloop
 endfacet
 facet normal -0.000000e+00  0.000000e+00 -1.000000e+00
   outer loop
     vertex -6.431485e-02  1.007193e-01  0.000000e+00
     vertex -8.639757e-02  8.116287e-02  0.000000e+00
     vertex -1.210013e-01  1.543088e-01  0.000000e+00
   endloop
 endfacet
 facet normal -0.000000e+00  0.000000e+00 -1.000000e+00
   outer loop
     vertex -3.819393e-02  1.144231e-01  0.000000e+00
     vertex -6.431485e-02  1.007193e-01  0.000000e+00
     vertex -1.210013e-01  1.543088e-01  0.000000e+00
   endloop
 endfacet
 facet normal  0.000000e+00  0.000000e+00 -1.000000e+00
   outer loop
     vertex  1.798787e-01 -8.563495e-02  0.000000e+00
     vertex  9.677968e-02 -8.113999e-02  0.000000e+00
     vertex  1.135350e-01 -5.686328e-02  0.000000e+00
   endloop
 endfacet
 facet normal -0.000000e+00  0.000000e+00 -1.000000e+00
   outer loop
     vertex  1.798787e-01 -8.563495e-02  0.000000e+00
     vertex  1.251131e-01 -1.543088e-01  0.000000e+00
     vertex  9.677968e-02 -8.113999e-02  0.000000e+00
   endloop
 endfacet
 facet normal  0.000000e+00 -0.000000e+00 -1.000000e+00
   outer loop
     vertex  1.239941e-01 -2.928240e-02  0.000000e+00
     vertex  1.798787e-01 -8.563495e-02  0.000000e+00
     vertex  1.135350e-01 -5.686328e-02  0.000000e+00
   endloop
 endfacet
 facet normal  0.000000e+00  0.000000e+00 -1.000000e+00
   outer loop
     vertex -4.186268e-02  1.924200e-01  0.000000e+00
     vertex -9.552627e-03  1.214782e-01  0.000000e+00
     vertex -3.819393e-02  1.144231e-01  0.000000e+00
   endloop
 endfacet
 facet normal  0.000000e+00 -0.000000e+00 -1.000000e+00
   outer loop
     vertex -4.186268e-02  1.924200e-01  0.000000e+00
     vertex -3.819393e-02  1.144231e-01  0.000000e+00
     vertex -1.210013e-01  1.543088e-01  0.000000e+00
   endloop
 endfacet
 facet normal  0.000000e+00  0.000000e+00 -1.000000e+00
   outer loop
     vertex  1.994243e-01  0.000000e+00  0.000000e+00
     vertex  1.275493e-01  0.000000e+00  0.000000e+00
     vertex  1.239941e-01  2.928240e-02  0.000000e+00
   endloop
 endfacet
 facet normal -0.000000e+00  0.000000e+00 -1.000000e+00
   outer loop
     vertex  1.994243e-01  0.000000e+00  0.000000e+00
     vertex  1.239941e-01 -2.928240e-02  0.000000e+00
     vertex  1.275493e-01  0.000000e+00  0.000000e+00
   endloop
 endfacet
 facet normal  0.000000e+00  0.000000e+00 -1.000000e+00
   outer loop
     vertex  1.994243e-01  0.000000e+00  0.000000e+00
     vertex  1.798787e-01 -8.563495e-02  0.000000e+00
     vertex  1.239941e-01 -2.928240e-02  0.000000e+00
   endloop
 endfacet
 facet normal  0.000000e+00 -0.000000e+00 -1.000000e+00
   outer loop
     vertex  4.597453e-02  1.924200e-01  0.000000e+00
     vertex  4.858435e-02  1.144123e-01  0.000000e+00
     vertex  1.994481e-02  1.214745e-01  0.000000e+00
   endloop
 endfacet
 facet normal  0.000000e+00  0.000000e+00 -1.000000e+00
   outer loop
     vertex  4.597453e-02  1.924200e-01  0.000000e+00
     vertex  1.994481e-02  1.214745e-01  0.000000e+00
     vertex -9.552627e-03  1.214782e-01  0.000000e+00
   endloop
 endfacet
 facet normal -0.000000e+00  0.000000e+00 -1.000000e+00
   outer loop
     vertex  4.597453e-02  1.924200e-01  0.000000e+00
     vertex -9.552627e-03  1.214782e-01  0.000000e+00
     vertex -4.186268e-02  1.924200e-01  0.000000e+00
   endloop
 endfacet
 facet normal  0.000000e+00 -0.000000e+00 -1.000000e+00
   outer loop
     vertex  1.798787e-01  8.563495e-02  0.000000e+00
     vertex  1.994243e-01  0.000000e+00  0.000000e+00
     vertex  1.239941e-01  2.928240e-02  0.000000e+00
   endloop
 endfacet
 facet normal  0.000000e+00  0.000000e+00 -1.000000e+00
   outer loop
     vertex  1.798787e-01  8.563495e-02  0.000000e+00
     vertex  1.239941e-01  2.928240e-02  0.000000e+00
     vertex  1.135350e-01  5.686328e-02  0.000000e+00
   endloop
 endfacet
 facet normal  0.000000e+00  0.000000e+00 -1.000000e+00
   outer loop
     vertex  1.798787e-01  8.563495e-02  0.000000e+00
     vertex  1.135350e-01  5.686328e-02  0.000000e+00
     vertex  9.677968e-02  8.113999e-02  0.000000e+00
   endloop
 endfacet
 facet normal -0.000000e+00  0.000000e+00 -1.000000e+00
   outer loop
     vertex  1.251131e-01  1.543088e-01  0.000000e+00
     vertex  4.858435e-02  1.144123e-01  0.000000e+00
     vertex  4.597453e-02  1.924200e-01  0.000000e+00
   endloop
 endfacet
 facet normal  0.000000e+00 -0.000000e+00 -1.000000e+00
   outer loop
     vertex  1.251131e-01  1.543088e-01  0.000000e+00
     vertex  1.798787e-01  8.563495e-02  0.000000e+00
     vertex  9.677968e-02  8.113999e-02  0.000000e+00
   endloop
 endfacet
 facet normal  0.000000e+00  0.000000e+00 -1.000000e+00
   outer loop
     vertex  1.251131e-01  1.543088e-01  0.000000e+00
     vertex  9.677968e-02  8.113999e-02  0.000000e+00
     vertex  7.470185e-02  1.007019e-01  0.000000e+00
   endloop
 endfacet
 facet normal  0.000000e+00  0.000000e+00 -1.000000e+00
   outer loop
     vertex  1.251131e-01  1.543088e-01  0.000000e+00
     vertex  7.470185e-02  1.007019e-01  0.000000e+00
     vertex  4.858435e-02  1.144123e-01  0.000000e+00
   endloop
 endfacet
 facet normal  0.000000e+00  0.000000e+00  1.000000e+00
   outer loop
     vertex -5.756579e-02 -1.032678e-01  7.500000e-01
     vertex -1.210013e-01 -1.543088e-01  7.500000e-01
     vertex -4.186268e-02 -1.924200e-01  7.500000e-01
   endloop
 endfacet
 facet normal  0.000000e+00  0.000000e+00  1.000000e+00
   outer loop
     vertex -1.099962e-01 -4.078365e-02  7.500000e-01
     vertex -1.953125e-01  2.417066e-17  7.500000e-01
     vertex -1.757669e-01 -8.563495e-02  7.500000e-01
   endloop
 endfacet
 facet normal  0.000000e+00  0.000000e+00  1.000000e+00
   outer loop
     vertex -1.099962e-01 -4.078365e-02  7.500000e-01
     vertex -1.757669e-01 -8.563495e-02  7.500000e-01
     vertex -1.210013e-01 -1.543088e-01  7.500000e-01
   endloop
 endfacet
 facet normal  0.000000e+00  0.000000e+00  1.000000e+00
   outer loop
     vertex -1.099962e-01 -4.078365e-02  7.500000e-01
     vertex -1.210013e-01 -1.543088e-01  7.500000e-01
     vertex -5.756579e-02 -1.032678e-01  7.500000e-01
   endloop
 endfacet
 facet normal  0.000000e+00  0.000000e+00  1.000000e+00
   outer loop
     vertex  2.276232e-02 -1.174318e-01  7.500000e-01
     vertex -4.186268e-02 -1.924200e-01  7.500000e-01
     vertex  4.597453e-02 -1.924200e-01  7.500000e-01
   endloop
 endfacet
 facet normal  0.000000e+00  0.000000e+00  1.000000e+00
   outer loop
     vertex  2.276232e-02 -1.174318e-01  7.500000e-01
     vertex -5.756579e-02 -1.032678e-01  7.500000e-01
     vertex -4.186268e-02 -1.924200e-01  7.500000e-01
   endloop
 endfacet
 facet normal  0.000000e+00  0.000000e+00  1.000000e+00
   outer loop
     vertex -1.099962e-01  4.078365e-02  7.500000e-01
     vertex -1.757669e-01  8.563495e-02  7.500000e-01
     vertex -1.953125e-01  2.417066e-17  7.500000e-01
   endloop
 endfacet
 facet normal  0.000000e+00  0.000000e+00  1.000000e+00
   outer loop
     vertex -1.099962e-01  4.078365e-02  7.500000e-01
     vertex -1.953125e-01  2.417066e-17  7.500000e-01
     vertex -1.099962e-01 -4.078365e-02  7.500000e-01
   endloop
 endfacet
 facet normal  0.000000e+00  0.000000e+00  1.000000e+00
   outer loop
     vertex  1.251131e-01 -1.543088e-01  7.500000e-01
     vertex  2.276232e-02 -1.174318e-01  7.500000e-01
     vertex  4.597453e-02 -1.924200e-01  7.500000e-01
   endloop
 endfacet
 facet normal  0.000000e+00  0.000000e+00  1.000000e+00
   outer loop
     vertex  9.340168e-02 -7.664819e-02  7.500000e-01
     vertex  2.276232e-02 -1.174318e-01  7.500000e-01
     vertex  1.251131e-01 -1.543088e-01  7.500000e-01
   endloop
 endfacet
 facet normal  0.000000e+00  0.000000e+00  1.000000e+00
   outer loop
     vertex -1.210013e-01  1.543088e-01  7.500000e-01
     vertex -1.757669e-01  8.563495e-02  7.500000e-01
     vertex -1.099962e-01  4.078365e-02  7.500000e-01
   endloop
 endfacet
 facet normal  0.000000e+00  0.000000e+00  1.000000e+00
   outer loop
     vertex -5.756579e-02  1.032678e-01  7.500000e-01
     vertex -1.210013e-01  1.543088e-01  7.500000e-01
     vertex -1.099962e-01  4.078365e-02  7.500000e-01
   endloop
 endfacet
 facet normal  0.000000e+00  0.000000e+00  1.000000e+00
   outer loop
     vertex  1.798787e-01 -8.563495e-02  7.500000e-01
     vertex  9.340168e-02 -7.664819e-02  7.500000e-01
     vertex  1.251131e-01 -1.543088e-01  7.500000e-01
   endloop
 endfacet
 facet normal  0.000000e+00  0.000000e+00  1.000000e+00
   outer loop
     vertex  1.212993e-01  0.000000e+00  7.500000e-01
     vertex  9.340168e-02 -7.664819e-02  7.500000e-01
     vertex  1.798787e-01 -8.563495e-02  7.500000e-01
   endloop
 endfacet
 facet normal  0.000000e+00  0.000000e+00  1.000000e+00
   outer loop
     vertex -4.186268e-02  1.924200e-01  7.500000e-01
     vertex -5.756579e-02  1.032678e-01  7.500000e-01
     vertex  2.276232e-02  1.174318e-01  7.500000e-01
   endloop
 endfacet
 facet normal  0.000000e+00  0.000000e+00  1.000000e+00
   outer loop
     vertex -4.186268e-02  1.924200e-01  7.500000e-01
     vertex -1.210013e-01  1.543088e-01  7.500000e-01
     vertex -5.756579e-02  1.032678e-01  7.500000e-01
   endloop
 endfacet
 facet normal  0.000000e+00  0.000000e+00  1.000000e+00
   outer loop
     vertex  1.994243e-01  0.000000e+00  7.500000e-01
     vertex  1.212993e-01  0.000000e+00  7.500000e-01
     vertex  1.798787e-01 -8.563495e-02  7.500000e-01
   endloop
 endfacet
 facet normal  0.000000e+00  0.000000e+00  1.000000e+00
   outer loop
     vertex  4.597453e-02  1.924200e-01  7.500000e-01
     vertex -4.186268e-02  1.924200e-01  7.500000e-01
     vertex  2.276232e-02  1.174318e-01  7.500000e-01
   endloop
 endfacet
 facet normal  0.000000e+00  0.000000e+00  1.000000e+00
   outer loop
     vertex  1.798787e-01  8.563495e-02  7.500000e-01
     vertex  9.340168e-02  7.664819e-02  7.500000e-01
     vertex  1.212993e-01  0.000000e+00  7.500000e-01
   endloop
 endfacet
 facet normal  0.000000e+00  0.000000e+00  1.000000e+00
   outer loop
     vertex  1.798787e-01  8.563495e-02  7.500000e-01
     vertex  1.212993e-01  0.000000e+00  7.500000e-01
     vertex  1.994243e-01  0.000000e+00  7.500000e-01
   endloop
 endfacet
 facet normal  0.000000e+00  0.000000e+00  1.000000e+00
   outer loop
     vertex  1.251131e-01  1.543088e-01  7.500000e-01
     vertex  2.276232e-02  1.174318e-01  7.500000e-01
     vertex  9.340168e-02  7.664819e-02  7.500000e-01
   endloop
 endfacet
 facet normal  0.000000e+00  0.000000e+00  1.000000e+00
   outer loop
     vertex  1.251131e-01  1.543088e-01  7.500000e-01
     vertex  4.597453e-02  1.924200e-01  7.500000e-01
     vertex  2.276232e-02  1.174318e-01  7.500000e-01
   endloop
 endfacet
 facet normal  0.000000e+00  0.000000e+00  1.000000e+00
   outer loop
     vertex  1.251131e-01  1.543088e-01  7.500000e-01
     vertex  9.340168e-02  7.664819e-02  7.500000e-01
     vertex  1.798787e-01  8.563495e-02  7.500000e-01
   endloop
 endfacet
 facet normal -9.510565e-01  3.090170e-01  0.000000e+00
   outer loop
     vertex  9.852588e-02 -7.008952e-02  3.750000e-01
     vertex  1.212993e-01  0.000000e+00  7.500000e-01
     vertex  1.212993e-01  0.000000e+00  3.750000e-01
   endloop
 endfacet
 facet normal -9.396705e-01  3.420121e-01 -6.858426e-03
   outer loop
     vertex  9.852588e-02 -7.008952e-02  3.750000e-01
     vertex  9.340168e-02 -7.664819e-02  7.500000e-01
     vertex  1.212993e-01  0.000000e+00  7.500000e-01
   endloop
 endfacet
 facet normal -4.999626e-01  8.659607e-01 -1.222709e-02
   outer loop
     vertex  3.890416e-02 -1.134072e-01  3.750000e-01
     vertex  2.276232e-02 -1.174318e-01  7.500000e-01
     vertex  9.340168e-02 -7.664819e-02  7.500000e-01
   endloop
 endfacet
 facet normal -5.877743e-01  8.090019e-01  6.117617e-03
   outer loop
     vertex  3.890416e-02 -1.134072e-01  3.750000e-01
     vertex  9.340168e-02 -7.664819e-02  7.500000e-01
     vertex  9.852588e-02 -7.008952e-02  3.750000e-01
   endloop
 endfacet
 facet normal  1.736257e-01  9.846804e-01 -1.608003e-02
   outer loop
     vertex -3.479232e-02 -1.134072e-01  3.750000e-01
     vertex -5.756579e-02 -1.032678e-01  7.500000e-01
     vertex  2.276232e-02 -1.174318e-01  7.500000e-01
   endloop
 endfacet
 facet normal -1.882992e-16  9.999424e-01  1.073168e-02
   outer loop
     vertex -3.479232e-02 -1.134072e-01  3.750000e-01
     vertex  2.276232e-02 -1.174318e-01  7.500000e-01
     vertex  3.890416e-02 -1.134072e-01  3.750000e-01
   endloop
 endfacet
 facet normal  7.659148e-01  6.426788e-01 -1.839898e-02
   outer loop
     vertex -9.441403e-02 -7.008952e-02  3.750000e-01
     vertex -1.099962e-01 -4.078365e-02  7.500000e-01
     vertex -5.756579e-02 -1.032678e-01  7.500000e-01
   endloop
 endfacet
 facet normal  5.877291e-01  8.089397e-01  1.381991e-02
   outer loop
     vertex -9.441403e-02 -7.008952e-02  3.750000e-01
     vertex -5.756579e-02 -1.032678e-01  7.500000e-01
     vertex -3.479232e-02 -1.134072e-01  3.750000e-01
   endloop
 endfacet
 facet normal  9.998162e-01 -1.701078e-16 -1.917316e-02
   outer loop
     vertex -1.171875e-01  1.498581e-17  3.750000e-01
     vertex -1.099962e-01  4.078365e-02  7.500000e-01
     vertex -1.099962e-01 -4.078365e-02  7.500000e-01
   endloop
 endfacet
 facet normal  9.509442e-01  3.089805e-01  1.536765e-02
   outer loop
     vertex -1.171875e-01  1.498581e-17  3.750000e-01
     vertex -1.099962e-01 -4.078365e-02  7.500000e-01
     vertex -9.441403e-02 -7.008952e-02  3.750000e-01
   endloop
 endfacet
 facet normal  7.659148e-01 -6.426788e-01 -1.839898e-02
   outer loop
     vertex -9.441403e-02  7.008952e-02  3.750000e-01
     vertex -5.756579e-02  1.032678e-01  7.500000e-01
     vertex -1.099962e-01  4.078365e-02  7.500000e-01
   endloop
 endfacet
 facet normal  9.509442e-01 -3.089805e-01  1.536765e-02
   outer loop
     vertex -9.441403e-02  7.008952e-02  3.750000e-01
     vertex -1.099962e-01  4.078365e-02  7.500000e-01
     vertex -1.171875e-01  1.498581e-17  3.750000e-01
   endloop
 endfacet
 facet normal  1.736257e-01 -9.846804e-01 -1.608003e-02
   outer loop
     vertex -3.479232e-02  1.134072e-01  3.750000e-01
     vertex  2.276232e-02  1.174318e-01  7.500000e-01
     vertex -5.756579e-02  1.032678e-01  7.500000e-01
   endloop
 endfacet
 facet normal  5.877291e-01 -8.089397e-01  1.381991e-02
   outer loop
     vertex -3.479232e-02  1.134072e-01  3.750000e-01
     vertex -5.756579e-02  1.032678e-01  7.500000e-01
     vertex -9.441403e-02  7.008952e-02  3.750000e-01
   endloop
 endfacet
 facet normal -4.999626e-01 -8.659607e-01 -1.222709e-02
   outer loop
     vertex  3.890416e-02  1.134072e-01  3.750000e-01
     vertex  9.340168e-02  7.664819e-02  7.500000e-01
     vertex  2.276232e-02  1.174318e-01  7.500000e-01
   endloop
 endfacet
 facet normal  1.882992e-16 -9.999424e-01  1.073168e-02
   outer loop
     vertex  3.890416e-02  1.134072e-01  3.750000e-01
     vertex  2.276232e-02  1.174318e-01  7.500000e-01
     vertex -3.479232e-02  1.134072e-01  3.750000e-01
   endloop
 endfacet
 facet normal -9.396705e-01 -3.420121e-01 -6.858426e-03
   outer loop
     vertex  9.852588e-02  7.008952e-02  3.750000e-01
     vertex  1.212993e-01  0.000000e+00  7.500000e-01
     vertex  9.340168e-02  7.664819e-02  7.500000e-01
   endloop
 endfacet
 facet normal -5.877743e-01 -8.090019e-01  6.117617e-03
   outer loop
     vertex  9.852588e-02  7.008952e-02  3.750000e-01
     vertex  9.340168e-02  7.664819e-02  7.500000e-01
     vertex  3.890416e-02  1.134072e-01  3.750000e-01
   endloop
 endfacet
 facet normal -9.510565e-01 -3.090170e-01  0.000000e+00
   outer loop
     vertex  1.212993e-01  0.000000e+00  3.750000e-01
     vertex  1.212993e-01  0.000000e+00  7.500000e-01
     vertex  9.852588e-02  7.008952e-02  3.750000e-01
   endloop
 endfacet
 facet normal -0.000000e+00  0.000000e+00 -1.000000e+00
   outer loop
     vertex -4.687500e-02 -6.250000e-02  0.000000e+00
     vertex -8.718347e-02 -7.909061e-02  0.000000e+00
     vertex -1.035169e-01 -5.543808e-02  0.000000e+00
   endloop
 endfacet
 facet normal  0.000000e+00  0.000000e+00 -1.000000e+00
   outer loop
     vertex -4.687500e-02 -6.250000e-02  0.000000e+00
     vertex -6.566465e-02 -9.814743e-02  0.000000e+00
     vertex -8.718347e-02 -7.909061e-02  0.000000e+00
   endloop
 endfacet
 facet normal  0.000000e+00  0.000000e+00 -1.000000e+00
   outer loop
     vertex -3.244953e-02 -7.062170e-02  0.000000e+00
     vertex -4.021079e-02 -1.115012e-01  0.000000e+00
     vertex -6.566465e-02 -9.814743e-02  0.000000e+00
   endloop
 endfacet
 facet normal -0.000000e+00  0.000000e+00 -1.000000e+00
   outer loop
     vertex -3.244953e-02 -7.062170e-02  0.000000e+00
     vertex -6.566465e-02 -9.814743e-02  0.000000e+00
     vertex -4.687500e-02 -6.250000e-02  0.000000e+00
   endloop
 endfacet
 facet normal  0.000000e+00 -0.000000e+00 -1.000000e+00
   outer loop
     vertex -1.657017e-02 -7.530164e-02  0.000000e+00
     vertex -1.230095e-02 -1.183760e-01  0.000000e+00
     vertex -4.021079e-02 -1.115012e-01  0.000000e+00
   endloop
 endfacet
 facet normal -0.000000e+00  0.000000e+00 -1.000000e+00
   outer loop
     vertex -1.657017e-02 -7.530164e-02  0.000000e+00
     vertex -4.021079e-02 -1.115012e-01  0.000000e+00
     vertex -3.244953e-02 -7.062170e-02  0.000000e+00
   endloop
 endfacet
 facet normal  0.000000e+00 -0.000000e+00 -1.000000e+00
   outer loop
     vertex -4.575239e-05 -7.630146e-02  0.000000e+00
     vertex  1.644313e-02 -1.183723e-01  0.000000e+00
     vertex -1.230095e-02 -1.183760e-01  0.000000e+00
   endloop
 endfacet
 facet normal -0.000000e+00  0.000000e+00 -1.000000e+00
   outer loop
     vertex -4.575239e-05 -7.630146e-02  0.000000e+00
     vertex -1.230095e-02 -1.183760e-01  0.000000e+00
     vertex -1.657017e-02 -7.530164e-02  0.000000e+00
   endloop
 endfacet
 facet normal  0.000000e+00  0.000000e+00 -1.000000e+00
   outer loop
     vertex -7.112264e-02  5.195929e-03  0.000000e+00
     vertex -1.137157e-01 -2.856421e-02  0.000000e+00
     vertex -1.171875e-01 -1.237679e-17  0.000000e+00
   endloop
 endfacet
 facet normal  0.000000e+00  0.000000e+00 -1.000000e+00
   outer loop
     vertex -7.112264e-02  5.195929e-03  0.000000e+00
     vertex -1.035169e-01 -5.543808e-02  0.000000e+00
     vertex -1.137157e-01 -2.856421e-02  0.000000e+00
   endloop
 endfacet
 facet normal -0.000000e+00  0.000000e+00 -1.000000e+00
   outer loop
     vertex -7.112264e-02  5.195929e-03  0.000000e+00
     vertex -1.171875e-01 -1.237679e-17  0.000000e+00
     vertex -1.137157e-01  2.856421e-02  0.000000e+00
   endloop
 endfacet
 facet normal  0.000000e+00  0.000000e+00 -1.000000e+00
   outer loop
     vertex -7.112264e-02  5.195929e-03  0.000000e+00
     vertex -3.889833e-02 -6.250000e-02  0.000000e+00
     vertex -4.687500e-02 -6.250000e-02  0.000000e+00
   endloop
 endfacet
 facet normal  0.000000e+00 -0.000000e+00 -1.000000e+00
   outer loop
     vertex -7.112264e-02  5.195929e-03  0.000000e+00
     vertex -4.687500e-02 -6.250000e-02  0.000000e+00
     vertex -1.035169e-01 -5.543808e-02  0.000000e+00
   endloop
 endfacet
 facet normal  0.000000e+00 -0.000000e+00 -1.000000e+00
   outer loop
     vertex -1.035169e-01  5.543808e-02  0.000000e+00
     vertex -7.112264e-02  5.195929e-03  0.000000e+00
     vertex -1.137157e-01  2.856421e-02  0.000000e+00
   endloop
 endfacet
 facet normal  0.000000e+00 -0.000000e+00 -1.000000e+00
   outer loop
     vertex  4.036238e-02 -6.790799e-02  0.000000e+00
     vertex  4.435121e-02 -1.114904e-01  0.000000e+00
     vertex  1.644313e-02 -1.183723e-01  0.000000e+00
   endloop
 endfacet
 facet normal  0.000000e+00  0.000000e+00 -1.000000e+00
   outer loop
     vertex  4.036238e-02 -6.790799e-02  0.000000e+00
     vertex  6.980164e-02 -9.813007e-02  0.000000e+00
     vertex  4.435121e-02 -1.114904e-01  0.000000e+00
   endloop
 endfacet
 facet normal  0.000000e+00  0.000000e+00 -1.000000e+00
   outer loop
     vertex  4.036238e-02 -6.790799e-02  0.000000e+00
     vertex  1.644313e-02 -1.183723e-01  0.000000e+00
     vertex -4.575239e-05 -7.630146e-02  0.000000e+00
   endloop
 endfacet
 facet normal -0.000000e+00  0.000000e+00 -1.000000e+00
   outer loop
     vertex  9.131558e-02 -7.906774e-02  0.000000e+00
     vertex  6.980164e-02 -9.813007e-02  0.000000e+00
     vertex  4.036238e-02 -6.790799e-02  0.000000e+00
   endloop
 endfacet
 facet normal  0.000000e+00 -0.000000e+00 -1.000000e+00
   outer loop
     vertex  7.052584e-02 -3.974005e-02  0.000000e+00
     vertex  9.131558e-02 -7.906774e-02  0.000000e+00
     vertex  4.036238e-02 -6.790799e-02  0.000000e+00
   endloop
 endfacet
 facet normal  0.000000e+00  0.000000e+00 -1.000000e+00
   outer loop
     vertex -3.001878e-02  6.789854e-02  0.000000e+00
     vertex -8.718347e-02  7.909061e-02  0.000000e+00
     vertex -6.566465e-02  9.814743e-02  0.000000e+00
   endloop
 endfacet
 facet normal -0.000000e+00  0.000000e+00 -1.000000e+00
   outer loop
     vertex -3.001878e-02  6.789854e-02  0.000000e+00
     vertex -1.035169e-01  5.543808e-02  0.000000e+00
     vertex -8.718347e-02  7.909061e-02  0.000000e+00
   endloop
 endfacet
 facet normal  0.000000e+00  0.000000e+00 -1.000000e+00
   outer loop
     vertex -3.001878e-02  6.789854e-02  0.000000e+00
     vertex -7.112264e-02  5.195929e-03  0.000000e+00
     vertex -1.035169e-01  5.543808e-02  0.000000e+00
   endloop
 endfacet
 facet normal -0.000000e+00  0.000000e+00 -1.000000e+00
   outer loop
     vertex  1.076429e-01 -5.541102e-02  0.000000e+00
     vertex  9.131558e-02 -7.906774e-02  0.000000e+00
     vertex  7.052584e-02 -3.974005e-02  0.000000e+00
   endloop
 endfacet
 facet normal  0.000000e+00 -0.000000e+00 -1.000000e+00
   outer loop
     vertex -4.021079e-02  1.115012e-01  0.000000e+00
     vertex -3.001878e-02  6.789854e-02  0.000000e+00
     vertex -6.566465e-02  9.814743e-02  0.000000e+00
   endloop
 endfacet
 facet normal -0.000000e+00  0.000000e+00 -1.000000e+00
   outer loop
     vertex  1.178349e-01 -2.853454e-02  0.000000e+00
     vertex  7.052584e-02 -3.974005e-02  0.000000e+00
     vertex  8.166118e-02  0.000000e+00  0.000000e+00
   endloop
 endfacet
 facet normal  0.000000e+00  0.000000e+00 -1.000000e+00
   outer loop
     vertex  1.178349e-01 -2.853454e-02  0.000000e+00
     vertex  1.076429e-01 -5.541102e-02  0.000000e+00
     vertex  7.052584e-02 -3.974005e-02  0.000000e+00
   endloop
 endfacet
 facet normal  0.000000e+00  0.000000e+00 -1.000000e+00
   outer loop
     vertex -1.230095e-02  1.183760e-01  0.000000e+00
     vertex -3.001878e-02  6.789854e-02  0.000000e+00
     vertex -4.021079e-02  1.115012e-01  0.000000e+00
   endloop
 endfacet
 facet normal -0.000000e+00  0.000000e+00 -1.000000e+00
   outer loop
     vertex  1.212993e-01  0.000000e+00  0.000000e+00
     vertex  1.178349e-01 -2.853454e-02  0.000000e+00
     vertex  8.166118e-02  0.000000e+00  0.000000e+00
   endloop
 endfacet
 facet normal  0.000000e+00 -0.000000e+00 -1.000000e+00
   outer loop
     vertex  1.644313e-02  1.183723e-01  0.000000e+00
     vertex  4.491220e-02  6.535026e-02  0.000000e+00
     vertex -3.001878e-02  6.789854e-02  0.000000e+00
   endloop
 endfacet
 facet normal -0.000000e+00  0.000000e+00 -1.000000e+00
   outer loop
     vertex  1.644313e-02  1.183723e-01  0.000000e+00
     vertex -3.001878e-02  6.789854e-02  0.000000e+00
     vertex -1.230095e-02  1.183760e-01  0.000000e+00
   endloop
 endfacet
 facet normal  0.000000e+00 -0.000000e+00 -1.000000e+00
   outer loop
     vertex  1.178349e-01  2.853454e-02  0.000000e+00
     vertex  1.212993e-01  0.000000e+00  0.000000e+00
     vertex  8.166118e-02  0.000000e+00  0.000000e+00
   endloop
 endfacet
 facet normal -0.000000e+00 -0.000000e+00 -1.000000e+00
   outer loop
     vertex  4.435121e-02  1.114904e-01  0.000000e+00
     vertex  4.491220e-02  6.535026e-02  0.000000e+00
     vertex  1.644313e-02  1.183723e-01  0.000000e+00
   endloop
 endfacet
 facet normal  0.000000e+00 -0.000000e+00 -1.000000e+00
   outer loop
     vertex  1.076429e-01  5.541102e-02  0.000000e+00
     vertex  1.178349e-01  2.853454e-02  0.000000e+00
     vertex  8.166118e-02  0.000000e+00  0.000000e+00
   endloop
 endfacet
 facet normal -0.000000e+00  0.000000e+00 -1.000000e+00
   outer loop
     vertex  1.076429e-01  5.541102e-02  0.000000e+00
     vertex  8.166118e-02  0.000000e+00  0.000000e+00
     vertex  4.491220e-02  6.535026e-02  0.000000e+00
   endloop
 endfacet
 facet normal -0.000000e+00  0.000000e+00 -1.000000e+00
   outer loop
     vertex  6.980164e-02  9.813007e-02  0.000000e+00
     vertex  4.491220e-02  6.535026e-02  0.000000e+00
     vertex  4.435121e-02  1.114904e-01  0.000000e+00
   endloop
 endfacet
 facet normal -0.000000e+00  0.000000e+00 -1.000000e+00
   outer loop
     vertex  9.131558e-02  7.906774e-02  0.000000e+00
     vertex  4.491220e-02  6.535026e-02  0.000000e+00
     vertex  6.980164e-02  9.813007e-02  0.000000e+00
   endloop
 endfacet
 facet normal  0.000000e+00 -0.000000e+00 -1.000000e+00
   outer loop
     vertex  9.131558e-02  7.906774e-02  0.000000e+00
     vertex  1.076429e-01  5.541102e-02  0.000000e+00
     vertex  4.491220e-02  6.535026e-02  0.000000e+00
   endloop
 endfacet
 facet normal  0.000000e+00  0.000000e+00  1.000000e+00
   outer loop
     vertex -4.687500e-02 -6.250000e-02  3.750000e-01
     vertex -9.441403e-02 -7.008952e-02  3.750000e-01
     vertex -3.479232e-02 -1.134072e-01  3.750000e-01
   endloop
 endfacet
 facet normal  0.000000e+00  0.000000e+00  1.000000e+00
   outer loop
     vertex -3.244953e-02 -7.062170e-02  3.750000e-01
     vertex -4.687500e-02 -6.250000e-02  3.750000e-01
     vertex -3.479232e-02 -1.134072e-01  3.750000e-01
   endloop
 endfacet
 facet normal  0.000000e+00  0.000000e+00  1.000000e+00
   outer loop
     vertex -1.657017e-02 -7.530164e-02  3.750000e-01
     vertex -3.244953e-02 -7.062170e-02  3.750000e-01
     vertex -3.479232e-02 -1.134072e-01  3.750000e-01
   endloop
 endfacet
 facet normal  0.000000e+00  0.000000e+00  1.000000e+00
   outer loop
     vertex -4.575239e-05 -7.630146e-02  3.750000e-01
     vertex -1.657017e-02 -7.530164e-02  3.750000e-01
     vertex -3.479232e-02 -1.134072e-01  3.750000e-01
   endloop
 endfacet
 facet normal  0.000000e+00  0.000000e+00  1.000000e+00
   outer loop
     vertex  3.890416e-02 -1.134072e-01  3.750000e-01
     vertex -4.575239e-05 -7.630146e-02  3.750000e-01
     vertex -3.479232e-02 -1.134072e-01  3.750000e-01
   endloop
 endfacet
 facet normal  0.000000e+00  0.000000e+00  1.000000e+00
   outer loop
     vertex -7.112264e-02  5.195929e-03  3.750000e-01
     vertex -1.171875e-01  1.498581e-17  3.750000e-01
     vertex -9.441403e-02 -7.008952e-02  3.750000e-01
   endloop
 endfacet
 facet normal  0.000000e+00  0.000000e+00  1.000000e+00
   outer loop
     vertex -7.112264e-02  5.195929e-03  3.750000e-01
     vertex -4.687500e-02 -6.250000e-02  3.750000e-01
     vertex -3.889833e-02 -6.250000e-02  3.750000e-01
   endloop
 endfacet
 facet normal  0.000000e+00  0.000000e+00  1.000000e+00
   outer loop
     vertex -7.112264e-02  5.195929e-03  3.750000e-01
     vertex -9.441403e-02 -7.008952e-02  3.750000e-01
     vertex -4.687500e-02 -6.250000e-02  3.750000e-01
   endloop
 endfacet
 facet normal  0.000000e+00  0.000000e+00  1.000000e+00
   outer loop
     vertex  4.036238e-02 -6.790799e-02  3.750000e-01
     vertex -4.575239e-05 -7.630146e-02  3.750000e-01
     vertex  3.890416e-02 -1.134072e-01  3.750000e-01
   endloop
 endfacet
 facet normal  0.000000e+00  0.000000e+00  1.000000e+00
   outer loop
     vertex -9.441403e-02  7.008952e-02  3.750000e-01
     vertex -1.171875e-01  1.498581e-17  3.750000e-01
     vertex -7.112264e-02  5.195929e-03  3.750000e-01
   endloop
 endfacet
 facet normal  0.000000e+00  0.000000e+00  1.000000e+00
   outer loop
     vertex  9.852588e-02 -7.008952e-02  3.750000e-01
     vertex  4.036238e-02 -6.790799e-02  3.750000e-01
     vertex  3.890416e-02 -1.134072e-01  3.750000e-01
   endloop
 endfacet
 facet normal  0.000000e+00  0.000000e+00  1.000000e+00
   outer loop
     vertex  7.052584e-02 -3.974005e-02  3.750000e-01
     vertex  4.036238e-02 -6.790799e-02  3.750000e-01
     vertex  9.852588e-02 -7.008952e-02  3.750000e-01
   endloop
 endfacet
 facet normal  0.000000e+00  0.000000e+00  1.000000e+00
   outer loop
     vertex -3.001878e-02  6.789854e-02  3.750000e-01
     vertex -9.441403e-02  7.008952e-02  3.750000e-01
     vertex -7.112264e-02  5.195929e-03  3.750000e-01
   endloop
 endfacet
 facet normal  0.000000e+00  0.000000e+00  1.000000e+00
   outer loop
     vertex -3.479232e-02  1.134072e-01  3.750000e-01
     vertex -9.441403e-02  7.008952e-02  3.750000e-01
     vertex -3.001878e-02  6.789854e-02  3.750000e-01
   endloop
 endfacet
 facet normal  0.000000e+00  0.000000e+00  1.000000e+00
   outer loop
     vertex  1.212993e-01  0.000000e+00  3.750000e-01
     vertex  8.166118e-02  0.000000e+00  3.750000e-01
     vertex  7.052584e-02 -3.974005e-02  3.750000e-01
   endloop
 endfacet
 facet normal  0.000000e+00  0.000000e+00  1.000000e+00
   outer loop
     vertex  1.212993e-01  0.000000e+00  3.750000e-01
     vertex  7.052584e-02 -3.974005e-02  3.750000e-01
     vertex  9.852588e-02 -7.008952e-02  3.750000e-01
   endloop
 endfacet
 facet normal  0.000000e+00  0.000000e+00  1.000000e+00
   outer loop
     vertex  3.890416e-02  1.134072e-01  3.750000e-01
     vertex -3.001878e-02  6.789854e-02  3.750000e-01
     vertex  4.491220e-02  6.535026e-02  3.750000e-01
   endloop
 endfacet
 facet normal  0.000000e+00  0.000000e+00  1.000000e+00
   outer loop
     vertex  3.890416e-02  1.134072e-01  3.750000e-01
     vertex -3.479232e-02  1.134072e-01  3.750000e-01
     vertex -3.001878e-02  6.789854e-02  3.750000e-01
   endloop
 endfacet
 facet normal  0.000000e+00  0.000000e+00  1.000000e+00
   outer loop
     vertex  9.852588e-02  7.008952e-02  3.750000e-01
     vertex  4.491220e-02  6.535026e-02  3.750000e-01
     vertex  8.166118e-02  0.000000e+00  3.750000e-01
   endloop
 endfacet
 facet normal  0.000000e+00  0.000000e+00  1.000000e+00
   outer loop
     vertex  9.852588e-02  7.008952e-02  3.750000e-01
     vertex  8.166118e-02  0.000000e+00  3.750000e-01
     vertex  1.212993e-01  0.000000e+00  3.750000e-01
   endloop
 endfacet
 facet normal  0.000000e+00  0.000000e+00  1.000000e+00
   outer loop
     vertex  9.852588e-02  7.008952e-02  3.750000e-01
     vertex  3.890416e-02  1.134072e-01  3.750000e-01
     vertex  4.491220e-02  6.535026e-02  3.750000e-01
   endloop
 endfacet
 facet normal  9.029219e-01  4.298047e-01  0.000000e+00
   outer loop
     vertex -7.112264e-02  5.195929e-03  0.000000e+00
     vertex -3.889833e-02 -6.250000e-02  3.750000e-01
     vertex -3.889833e-02 -6.250000e-02  0.000000e+00
   endloop
 endfacet
 facet normal  9.029219e-01  4.298047e-01 -0.000000e+00
   outer loop
     vertex -7.112264e-02  5.195929e-03  0.000000e+00
     vertex -7.112264e-02  5.195929e-03  3.750000e-01
     vertex -3.889833e-02 -6.250000e-02  3.750000e-01
   endloop
 endfacet
 facet normal  8.363215e-01 -5.482394e-01  0.000000e+00
   outer loop
     vertex -3.001878e-02  6.789854e-02  0.000000e+00
     vertex -3.001878e-02  6.789854e-02  3.750000e-01
     vertex -7.112264e-02  5.195929e-03  3.750000e-01
   endloop
 endfacet
 facet normal  8.363215e-01 -5.482394e-01  0.000000e+00
   outer loop
     vertex -3.001878e-02  6.789854e-02  0.000000e+00
     vertex -7.112264e-02  5.195929e-03  3.750000e-01
     vertex -7.112264e-02  5.195929e-03  0.000000e+00
   endloop
 endfacet
 facet normal -3.398873e-02 -9.994222e-01  0.000000e+00
   outer loop
     vertex  4.491220e-02  6.535026e-02  0.000000e+00
     vertex  4.491220e-02  6.535026e-02  3.750000e-01
     vertex -3.001878e-02  6.789854e-02  3.750000e-01
   endloop
 endfacet
 facet normal -3.398873e-02 -9.994222e-01  0.000000e+00
   outer loop
     vertex  4.491220e-02  6.535026e-02  0.000000e+00
     vertex -3.001878e-02  6.789854e-02  3.750000e-01
     vertex -3.001878e-02  6.789854e-02  0.000000e+00
   endloop
 endfacet
 facet normal -8.716356e-01 -4.901545e-01  0.000000e+00
   outer loop
     vertex  8.166118e-02  0.000000e+00  0.000000e+00
     vertex  8.166118e-02  0.000000e+00  3.750000e-01
     vertex  4.491220e-02  6.535026e-02  3.750000e-01
   endloop
 endfacet
 facet normal -8.716356e-01 -4.901545e-01  0.000000e+00
   outer loop
     vertex  8.166118e-02  0.000000e+00  0.000000e+00
     vertex  4.491220e-02  6.535026e-02  3.750000e-01
     vertex  4.491220e-02  6.535026e-02  0.000000e+00
   endloop
 endfacet
 facet normal -9.629129e-01  2.698125e-01  0.000000e+00
   outer loop
     vertex  7.052584e-02 -3.974005e-02  0.000000e+00
     vertex  7.052584e-02 -3.974005e-02  3.750000e-01
     vertex  8.166118e-02  0.000000e+00  3.750000e-01
   endloop
 endfacet
 facet normal -9.629129e-01  2.698125e-01  0.000000e+00
   outer loop
     vertex  7.052584e-02 -3.974005e-02  0.000000e+00
     vertex  8.166118e-02  0.000000e+00  3.750000e-01
     vertex  8.166118e-02  0.000000e+00  0.000000e+00
   endloop
 endfacet
 facet normal -2.033761e-01  9.791007e-01  0.000000e+00
   outer loop
     vertex  4.036238e-02 -6.790799e-02  0.000000e+00
     vertex -4.575239e-05 -7.630146e-02  3.750000e-01
     vertex  4.036238e-02 -6.790799e-02  3.750000e-01
   endloop
 endfacet
 facet normal -6.825173e-01  7.308694e-01  0.000000e+00
   outer loop
     vertex  4.036238e-02 -6.790799e-02  0.000000e+00
     vertex  4.036238e-02 -6.790799e-02  3.750000e-01
     vertex  7.052584e-02 -3.974005e-02  3.750000e-01
   endloop
 endfacet
 facet normal -6.825173e-01  7.308694e-01  0.000000e+00
   outer loop
     vertex  4.036238e-02 -6.790799e-02  0.000000e+00
     vertex  7.052584e-02 -3.974005e-02  3.750000e-01
     vertex  7.052584e-02 -3.974005e-02  0.000000e+00
   endloop
 endfacet
 facet normal -2.033761e-01  9.791007e-01  0.000000e+00
   outer loop
     vertex -4.575239e-05 -7.630146e-02  0.000000e+00
     vertex -4.575239e-05 -7.630146e-02  3.750000e-01
     vertex  4.036238e-02 -6.790799e-02  0.000000e+00
   endloop
 endfacet
 facet normal -0.000000e+00 -0.000000e+00 -1.000000e+00
   outer loop
     vertex -3.889833e-02 -6.250000e-02  0.000000e+00
     vertex -3.244953e-02 -7.062170e-02  0.000000e+00
     vertex -4.687500e-02 -6.250000e-02  0.000000e+00
   endloop
 endfacet
 facet normal -0.000000e+00  0.000000e+00 -1.000000e+00
   outer loop
     vertex -2.686125e-02 -6.944444e-02  0.000000e+00
     vertex -3.244953e-02 -7.062170e-02  0.000000e+00
     vertex -3.889833e-02 -6.250000e-02  0.000000e+00
   endloop
 endfacet
 facet normal  0.000000e+00  0.000000e+00 -1.000000e+00
   outer loop
     vertex -1.657017e-02 -7.530164e-02  0.000000e+00
     vertex -3.244953e-02 -7.062170e-02  0.000000e+00
     vertex -2.686125e-02 -6.944444e-02  0.000000e+00
   endloop
 endfacet
 facet normal -0.000000e+00  0.000000e+00 -1.000000e+00
   outer loop
     vertex -1.376628e-02 -7.409611e-02  0.000000e+00
     vertex -1.657017e-02 -7.530164e-02  0.000000e+00
     vertex -2.686125e-02 -6.944444e-02  0.000000e+00
   endloop
 endfacet
 facet normal  0.000000e+00  0.000000e+00 -1.000000e+00
   outer loop
     vertex -4.575239e-05 -7.630146e-02  0.000000e+00
     vertex -1.657017e-02 -7.530164e-02  0.000000e+00
     vertex -1.376628e-02 -7.409611e-02  0.000000e+00
   endloop
 endfacet
 facet normal  0.000000e+00  0.000000e+00  1.000000e+00
   outer loop
     vertex -3.889833e-02 -6.250000e-02  3.750000e-01
     vertex -4.687500e-02 -6.250000e-02  3.750000e-01
     vertex -3.244953e-02 -7.062170e-02  3.750000e-01
   endloop
 endfacet
 facet normal  0.000000e+00  0.000000e+00  1.000000e+00
   outer loop
     vertex -2.686125e-02 -6.944444e-02  3.750000e-01
     vertex -3.889833e-02 -6.250000e-02  3.750000e-01
     vertex -3.244953e-02 -7.062170e-02  3.750000e-01
   endloop
 endfacet
 facet normal  0.000000e+00  0.000000e+00  1.000000e+00
   outer loop
     vertex -1.657017e-02 -7.530164e-02  3.750000e-01
     vertex -2.686125e-02 -6.944444e-02  3.750000e-01
     vertex -3.244953e-02 -7.062170e-02  3.750000e-01
   endloop
 endfacet
 facet normal  0.000000e+00  0.000000e+00  1.000000e+00
   outer loop
     vertex -1.376628e-02 -7.409611e-02  3.750000e-01
     vertex -2.686125e-02 -6.944444e-02  3.750000e-01
     vertex -1.657017e-02 -7.530164e-02  3.750000e-01
   endloop
 endfacet
 facet normal  0.000000e+00  0.000000e+00  1.000000e+00
   outer loop
     vertex -4.575239e-05 -7.630146e-02  3.750000e-01
     vertex -1.376628e-02 -7.409611e-02  3.750000e-01
     vertex -1.657017e-02 -7.530164e-02  3.750000e-01
   endloop
 endfacet
 facet normal  0.000000e+00  1.000000e+00  0.000000e+00
   outer loop
     vertex -3.889833e-02 -6.250000e-02  0.000000e+00
     vertex  3.906250e-02 -6.250000e-02  3.750000e-01
     vertex  3.906250e-02 -6.250000e-02  0.000000e+00
   endloop
 endfacet
 facet normal  0.000000e+00  1.000000e+00  0.000000e+00
   outer loop
     vertex -3.889833e-02 -6.250000e-02  0.000000e+00
     vertex -3.889833e-02 -6.250000e-02  3.750000e-01
     vertex  3.906250e-02 -6.250000e-02  3.750000e-01
   endloop
 endfacet
 facet normal  5.058174e-01 -8.626406e-01  0.000000e+00
   outer loop
     vertex  2.699087e-02 -6.957831e-02  0.000000e+00
     vertex  3.906250e-02 -6.250000e-02  0.000000e+00
     vertex  3.906250e-02 -6.250000e-02  3.750000e-01
   endloop
 endfacet
 facet normal  5.058174e-01 -8.626406e-01  0.000000e+00
   outer loop
     vertex  2.699087e-02 -6.957831e-02  0.000000e+00
     vertex  3.906250e-02 -6.250000e-02  3.750000e-01
     vertex  2.699087e-02 -6.957831e-02  3.750000e-01
   endloop
 endfacet
 facet normal  1.476480e-01 -9.890400e-01  0.000000e+00
   outer loop
     vertex  1.379469e-02 -7.423530e-02  0.000000e+00
     vertex  1.379469e-02 -7.423530e-02  3.750000e-01
     vertex -4.575239e-05 -7.630146e-02  3.750000e-01
   endloop
 endfacet
 facet normal  3.327889e-01 -9.430013e-01  0.000000e+00
   outer loop
     vertex  1.379469e-02 -7.423530e-02  0.000000e+00
     vertex  2.699087e-02 -6.957831e-02  3.750000e-01
     vertex  1.379469e-02 -7.423530e-02  3.750000e-01
   endloop
 endfacet
 facet normal  3.327889e-01 -9.430013e-01  0.000000e+00
   outer loop
     vertex  1.379469e-02 -7.423530e-02  0.000000e+00
     vertex  2.699087e-02 -6.957831e-02  0.000000e+00
     vertex  2.699087e-02 -6.957831e-02  3.750000e-01
   endloop
 endfacet
 facet normal  1.476480e-01 -9.890400e-01  0.000000e+00
   outer loop
     vertex -4.575239e-05 -7.630146e-02  0.000000e+00
     vertex  1.379469e-02 -7.423530e-02  0.000000e+00
     vertex -4.575239e-05 -7.630146e-02  3.750000e-01
   endloop
 endfacet
 facet normal -0.000000e+00  0.000000e+00 -1.000000e+00
   outer loop
     vertex  1.379469e-02 -7.423530e-02  0.000000e+00
     vertex -4.575239e-05 -7.630146e-02  0.000000e+00
     vertex -1.376628e-02 -7.409611e-02  0.000000e+00
   endloop
 endfacet
 facet normal -0.000000e+00  0.000000e+00 -1.000000e+00
   outer loop
     vertex  3.906250e-02 -6.250000e-02  0.000000e+00
     vertex -2.686125e-02 -6.944444e-02  0.000000e+00
     vertex -3.889833e-02 -6.250000e-02  0.000000e+00
   endloop
 endfacet
 facet normal  0.000000e+00  0.000000e+00 -1.000000e+00
   outer loop
     vertex  3.906250e-02 -6.250000e-02  0.000000e+00
     vertex  2.699087e-02 -6.957831e-02  0.000000e+00
     vertex -2.686125e-02 -6.944444e-02  0.000000e+00
   endloop
 endfacet
 facet normal -0.000000e+00  0.000000e+00 -1.000000e+00
   outer loop
     vertex  2.699087e-02 -6.957831e-02  0.000000e+00
     vertex -1.376628e-02 -7.409611e-02  0.000000e+00
     vertex -2.686125e-02 -6.944444e-02  0.000000e+00
   endloop
 endfacet
 facet normal  0.000000e+00  0.000000e+00 -1.000000e+00
   outer loop
     vertex  2.699087e-02 -6.957831e-02  0.000000e+00
     vertex  1.379469e-02 -7.423530e-02  0.000000e+00
     vertex -1.376628e-02 -7.409611e-02  0.000000e+00
   endloop
 endfacet
 facet normal  0.000000e+00  0.000000e+00  1.000000e+00
   outer loop
     vertex  1.379469e-02 -7.423530e-02  3.750000e-01
     vertex -1.376628e-02 -7.409611e-02  3.750000e-01
     vertex -4.575239e-05 -7.630146e-02  3.750000e-01
   endloop
 endfacet
 facet normal  0.000000e+00  0.000000e+00  1.000000e+00
   outer loop
     vertex  3.906250e-02 -6.250000e-02  3.750000e-01
     vertex -3.889833e-02 -6.250000e-02  3.750000e-01
     vertex -2.686125e-02 -6.944444e-02  3.750000e-01
   endloop
 endfacet
 facet normal  0.000000e+00  0.000000e+00  1.000000e+00
   outer loop
     vertex  3.906250e-02 -6.250000e-02  3.750000e-01
     vertex -2.686125e-02 -6.944444e-02  3.750000e-01
     vertex  2.699087e-02 -6.957831e-02  3.750000e-01
   endloop
 endfacet
 facet normal  0.000000e+00  0.000000e+00  1.000000e+00
   outer loop
     vertex  2.699087e-02 -6.957831e-02  3.750000e-01
     vertex -2.686125e-02 -6.944444e-02  3.750000e-01
     vertex -1.376628e-02 -7.409611e-02  3.750000e-01
   endloop
 endfacet
 facet normal  0.000000e+00  0.000000e+00  1.000000e+00
   outer loop
     vertex  2.699087e-02 -6.957831e-02  3.750000e-01
     vertex -1.376628e-02 -7.409611e-02  3.750000e-01
     vertex  1.379469e-02 -7.423530e-02  3.750000e-01
   endloop
 endfacet
endsolid
