solid 
 facet normal -1.205367e-01  0.000000e+00 -9.927089e-01
   outer loop
     vertex -1.734813e-01 -9.757559e-18 -7.358717e-01
     vertex  7.894737e-03  0.000000e+00 -7.578947e-01
     vertex  7.894737e-03 -7.265625e-01 -7.578947e-01
   endloop
 endfacet
 facet normal -1.205367e-01 -0.000000e+00 -9.927089e-01
   outer loop
     vertex -1.734813e-01 -9.757559e-18 -7.358717e-01
     vertex  7.894737e-03 -7.265625e-01 -7.578947e-01
     vertex -1.734813e-01 -7.265625e-01 -7.358717e-01
   endloop
 endfacet
 facet normal -3.546049e-01 -0.000000e+00 -9.350162e-01
   outer loop
     vertex -3.443165e-01 -1.625100e-17 -6.710825e-01
     vertex -1.734813e-01 -7.265625e-01 -7.358717e-01
     vertex -3.443165e-01 -7.265625e-01 -6.710825e-01
   endloop
 endfacet
 facet normal -3.546049e-01  0.000000e+00 -9.350162e-01
   outer loop
     vertex -3.443165e-01 -1.625100e-17 -6.710825e-01
     vertex -1.734813e-01 -9.757559e-18 -7.358717e-01
     vertex -1.734813e-01 -7.265625e-01 -7.358717e-01
   endloop
 endfacet
 facet normal -5.680647e-01 -0.000000e+00 -8.229839e-01
   outer loop
     vertex -4.946824e-01 -1.910295e-17 -5.672924e-01
     vertex -3.443165e-01 -7.265625e-01 -6.710825e-01
     vertex -4.946824e-01 -7.265625e-01 -5.672924e-01
   endloop
 endfacet
 facet normal -5.680647e-01  0.000000e+00 -8.229839e-01
   outer loop
     vertex -4.946824e-01 -1.910295e-17 -5.672924e-01
     vertex -3.443165e-01 -1.625100e-17 -6.710825e-01
     vertex -3.443165e-01 -7.265625e-01 -6.710825e-01
   endloop
 endfacet
 facet normal -7.485107e-01 -5.066419e-17 -6.631227e-01
   outer loop
     vertex -6.158404e-01 -1.814765e-17 -4.305333e-01
     vertex -4.946824e-01 -7.265625e-01 -5.672924e-01
     vertex -6.158404e-01 -7.265625e-01 -4.305333e-01
   endloop
 endfacet
 facet normal -7.485107e-01  0.000000e+00 -6.631227e-01
   outer loop
     vertex -6.158404e-01 -1.814765e-17 -4.305333e-01
     vertex -4.946824e-01 -1.910295e-17 -5.672924e-01
     vertex -4.946824e-01 -7.265625e-01 -5.672924e-01
   endloop
 endfacet
 facet normal -8.854560e-01 -3.550599e-17 -4.647232e-01
   outer loop
     vertex -7.007492e-01 -1.344064e-17 -2.687532e-01
     vertex -6.158404e-01 -7.265625e-01 -4.305333e-01
     vertex -7.007492e-01 -7.265625e-01 -2.687532e-01
   endloop
 endfacet
 facet normal -8.854560e-01 -3.920310e-17 -4.647232e-01
   outer loop
     vertex -7.007492e-01 -1.344064e-17 -2.687532e-01
     vertex -6.158404e-01 -1.814765e-17 -4.305333e-01
     vertex -6.158404e-01 -7.265625e-01 -4.305333e-01
   endloop
 endfacet
 facet normal -9.709418e-01 -1.371323e-17 -2.393157e-01
   outer loop
     vertex -7.444741e-01 -5.255462e-18 -9.135412e-02
     vertex -7.007492e-01 -7.265625e-01 -2.687532e-01
     vertex -7.444741e-01 -7.265625e-01 -9.135412e-02
   endloop
 endfacet
 facet normal -9.709418e-01 -1.960155e-17 -2.393157e-01
   outer loop
     vertex -7.444741e-01 -5.255462e-18 -9.135412e-02
     vertex -7.007492e-01 -1.344064e-17 -2.687532e-01
     vertex -7.007492e-01 -7.265625e-01 -2.687532e-01
   endloop
 endfacet
 facet normal -1.000000e+00  1.044580e-31  1.822944e-15
   outer loop
     vertex -7.444741e-01  5.932190e-18  9.135412e-02
     vertex -7.444741e-01 -7.265625e-01 -9.135412e-02
     vertex -7.444741e-01 -7.265625e-01  9.135412e-02
   endloop
 endfacet
 facet normal -1.000000e+00  9.285159e-32  1.822944e-15
   outer loop
     vertex -7.444741e-01  5.932190e-18  9.135412e-02
     vertex -7.444741e-01 -5.255462e-18 -9.135412e-02
     vertex -7.444741e-01 -7.265625e-01 -9.135412e-02
   endloop
 endfacet
 facet normal -8.854560e-01  3.550599e-17  4.647232e-01
   outer loop
     vertex -7.007492e-01  1.947213e-17  2.687532e-01
     vertex -7.007492e-01 -7.265625e-01  2.687532e-01
     vertex -6.158404e-01 -7.265625e-01  4.305333e-01
   endloop
 endfacet
 facet normal -9.709418e-01  1.828430e-17  2.393157e-01
   outer loop
     vertex -7.007492e-01  1.947213e-17  2.687532e-01
     vertex -7.444741e-01 -7.265625e-01  9.135412e-02
     vertex -7.007492e-01 -7.265625e-01  2.687532e-01
   endloop
 endfacet
 facet normal -9.709418e-01  6.533850e-18  2.393157e-01
   outer loop
     vertex -7.007492e-01  1.947213e-17  2.687532e-01
     vertex -7.444741e-01  5.932190e-18  9.135412e-02
     vertex -7.444741e-01 -7.265625e-01  9.135412e-02
   endloop
 endfacet
 facet normal -8.854560e-01  3.550599e-17  4.647232e-01
   outer loop
     vertex -6.158404e-01  3.457747e-17  4.305333e-01
     vertex -7.007492e-01  1.947213e-17  2.687532e-01
     vertex -6.158404e-01 -7.265625e-01  4.305333e-01
   endloop
 endfacet
 facet normal -7.485107e-01  5.227080e-17  6.631227e-01
   outer loop
     vertex -4.946824e-01  5.037033e-17  5.672924e-01
     vertex -6.158404e-01  3.457747e-17  4.305333e-01
     vertex -6.158404e-01 -7.265625e-01  4.305333e-01
   endloop
 endfacet
 facet normal -7.485107e-01  0.000000e+00  6.631227e-01
   outer loop
     vertex -4.946824e-01  5.037033e-17  5.672924e-01
     vertex -6.158404e-01 -7.265625e-01  4.305333e-01
     vertex -4.946824e-01 -7.265625e-01  5.672924e-01
   endloop
 endfacet
 facet normal -5.680647e-01  0.000000e+00  8.229839e-01
   outer loop
     vertex -3.443165e-01  6.593290e-17  6.710825e-01
     vertex -4.946824e-01  5.037033e-17  5.672924e-01
     vertex -4.946824e-01 -7.265625e-01  5.672924e-01
   endloop
 endfacet
 facet normal -5.680647e-01  0.000000e+00  8.229839e-01
   outer loop
     vertex -3.443165e-01  6.593290e-17  6.710825e-01
     vertex -4.946824e-01 -7.265625e-01  5.672924e-01
     vertex -3.443165e-01 -7.265625e-01  6.710825e-01
   endloop
 endfacet
 facet normal -3.546049e-01  0.000000e+00  9.350162e-01
   outer loop
     vertex -1.734813e-01  8.036073e-17  7.358717e-01
     vertex -3.443165e-01  6.593290e-17  6.710825e-01
     vertex -3.443165e-01 -7.265625e-01  6.710825e-01
   endloop
 endfacet
 facet normal -3.546049e-01  0.000000e+00  9.350162e-01
   outer loop
     vertex -1.734813e-01  8.036073e-17  7.358717e-01
     vertex -3.443165e-01 -7.265625e-01  6.710825e-01
     vertex -1.734813e-01 -7.265625e-01  7.358717e-01
   endloop
 endfacet
 facet normal -1.205367e-01  0.000000e+00  9.927089e-01
   outer loop
     vertex  7.894737e-03  9.281534e-17  7.578947e-01
     vertex -1.734813e-01  8.036073e-17  7.358717e-01
     vertex -1.734813e-01 -7.265625e-01  7.358717e-01
   endloop
 endfacet
 facet normal -1.205367e-01  0.000000e+00  9.927089e-01
   outer loop
     vertex  7.894737e-03  9.281534e-17  7.578947e-01
     vertex -1.734813e-01 -7.265625e-01  7.358717e-01
     vertex  7.894737e-03 -7.265625e-01  7.578947e-01
   endloop
 endfacet
 facet normal  1.205367e-01  0.000000e+00  9.927089e-01
   outer loop
     vertex  1.892708e-01  1.025729e-16  7.358717e-01
     vertex  7.894737e-03  9.281534e-17  7.578947e-01
     vertex  7.894737e-03 -7.265625e-01  7.578947e-01
   endloop
 endfacet
 facet normal  1.205367e-01  0.000000e+00  9.927089e-01
   outer loop
     vertex  1.892708e-01  1.025729e-16  7.358717e-01
     vertex  7.894737e-03 -7.265625e-01  7.578947e-01
     vertex  1.892708e-01 -7.265625e-01  7.358717e-01
   endloop
 endfacet
 facet normal  3.546049e-01  0.000000e+00  9.350162e-01
   outer loop
     vertex  3.601060e-01  1.090663e-16  6.710825e-01
     vertex  1.892708e-01  1.025729e-16  7.358717e-01
     vertex  1.892708e-01 -7.265625e-01  7.358717e-01
   endloop
 endfacet
 facet normal  5.680647e-01  0.000000e+00  8.229839e-01
   outer loop
     vertex  3.601060e-01  1.090663e-16  6.710825e-01
     vertex  3.601060e-01 -7.265625e-01  6.710825e-01
     vertex  5.104719e-01 -7.265625e-01  5.672924e-01
   endloop
 endfacet
 facet normal  3.546049e-01  0.000000e+00  9.350162e-01
   outer loop
     vertex  3.601060e-01  1.090663e-16  6.710825e-01
     vertex  1.892708e-01 -7.265625e-01  7.358717e-01
     vertex  3.601060e-01 -7.265625e-01  6.710825e-01
   endloop
 endfacet
 facet normal  5.680647e-01  0.000000e+00  8.229839e-01
   outer loop
     vertex  5.104719e-01  1.119183e-16  5.672924e-01
     vertex  3.601060e-01  1.090663e-16  6.710825e-01
     vertex  5.104719e-01 -7.265625e-01  5.672924e-01
   endloop
 endfacet
 facet normal  7.485107e-01  0.000000e+00  6.631227e-01
   outer loop
     vertex  6.316299e-01  1.109630e-16  4.305333e-01
     vertex  5.104719e-01  1.119183e-16  5.672924e-01
     vertex  5.104719e-01 -7.265625e-01  5.672924e-01
   endloop
 endfacet
 facet normal  7.485107e-01  5.066419e-17  6.631227e-01
   outer loop
     vertex  6.316299e-01  1.109630e-16  4.305333e-01
     vertex  5.104719e-01 -7.265625e-01  5.672924e-01
     vertex  6.316299e-01 -7.265625e-01  4.305333e-01
   endloop
 endfacet
 facet normal  8.854560e-01  3.920310e-17  4.647232e-01
   outer loop
     vertex  7.165386e-01  1.062560e-16  2.687532e-01
     vertex  6.316299e-01  1.109630e-16  4.305333e-01
     vertex  6.316299e-01 -7.265625e-01  4.305333e-01
   endloop
 endfacet
 facet normal  8.854560e-01  3.550599e-17  4.647232e-01
   outer loop
     vertex  7.165386e-01  1.062560e-16  2.687532e-01
     vertex  6.316299e-01 -7.265625e-01  4.305333e-01
     vertex  7.165386e-01 -7.265625e-01  2.687532e-01
   endloop
 endfacet
 facet normal  9.709418e-01  1.371323e-17  2.393157e-01
   outer loop
     vertex  7.602636e-01  9.807080e-17  9.135412e-02
     vertex  7.165386e-01 -7.265625e-01  2.687532e-01
     vertex  7.602636e-01 -7.265625e-01  9.135412e-02
   endloop
 endfacet
 facet normal  9.709418e-01  1.960155e-17  2.393157e-01
   outer loop
     vertex  7.602636e-01  9.807080e-17  9.135412e-02
     vertex  7.165386e-01  1.062560e-16  2.687532e-01
     vertex  7.165386e-01 -7.265625e-01  2.687532e-01
   endloop
 endfacet
 facet normal  1.000000e+00  0.000000e+00 -0.000000e+00
   outer loop
     vertex  7.602636e-01  8.688315e-17 -9.135412e-02
     vertex  7.602636e-01  9.807080e-17  9.135412e-02
     vertex  7.602636e-01 -7.265625e-01  9.135412e-02
   endloop
 endfacet
 facet normal  9.709418e-01 -1.371323e-17 -2.393157e-01
   outer loop
     vertex  7.602636e-01  8.688315e-17 -9.135412e-02
     vertex  7.602636e-01 -7.265625e-01 -9.135412e-02
     vertex  7.165386e-01 -7.265625e-01 -2.687532e-01
   endloop
 endfacet
 facet normal  1.000000e+00  0.000000e+00  0.000000e+00
   outer loop
     vertex  7.602636e-01  8.688315e-17 -9.135412e-02
     vertex  7.602636e-01 -7.265625e-01  9.135412e-02
     vertex  7.602636e-01 -7.265625e-01 -9.135412e-02
   endloop
 endfacet
 facet normal  9.709418e-01 -1.828430e-17 -2.393157e-01
   outer loop
     vertex  7.165386e-01  7.334321e-17 -2.687532e-01
     vertex  7.602636e-01  8.688315e-17 -9.135412e-02
     vertex  7.165386e-01 -7.265625e-01 -2.687532e-01
   endloop
 endfacet
 facet normal  8.854560e-01 -2.613540e-17 -4.647232e-01
   outer loop
     vertex  6.316299e-01  5.823787e-17 -4.305333e-01
     vertex  7.165386e-01  7.334321e-17 -2.687532e-01
     vertex  7.165386e-01 -7.265625e-01 -2.687532e-01
   endloop
 endfacet
 facet normal  8.854560e-01 -3.550599e-17 -4.647232e-01
   outer loop
     vertex  6.316299e-01  5.823787e-17 -4.305333e-01
     vertex  7.165386e-01 -7.265625e-01 -2.687532e-01
     vertex  6.316299e-01 -7.265625e-01 -4.305333e-01
   endloop
 endfacet
 facet normal  7.485107e-01  0.000000e+00 -6.631227e-01
   outer loop
     vertex  5.104719e-01  4.244501e-17 -5.672924e-01
     vertex  6.316299e-01 -7.265625e-01 -4.305333e-01
     vertex  5.104719e-01 -7.265625e-01 -5.672924e-01
   endloop
 endfacet
 facet normal  7.485107e-01 -5.227080e-17 -6.631227e-01
   outer loop
     vertex  5.104719e-01  4.244501e-17 -5.672924e-01
     vertex  6.316299e-01  5.823787e-17 -4.305333e-01
     vertex  6.316299e-01 -7.265625e-01 -4.305333e-01
   endloop
 endfacet
 facet normal  3.546049e-01  0.000000e+00 -9.350162e-01
   outer loop
     vertex  3.601060e-01  2.688244e-17 -6.710825e-01
     vertex  3.601060e-01 -7.265625e-01 -6.710825e-01
     vertex  1.892708e-01 -7.265625e-01 -7.358717e-01
   endloop
 endfacet
 facet normal  5.680647e-01  0.000000e+00 -8.229839e-01
   outer loop
     vertex  3.601060e-01  2.688244e-17 -6.710825e-01
     vertex  5.104719e-01 -7.265625e-01 -5.672924e-01
     vertex  3.601060e-01 -7.265625e-01 -6.710825e-01
   endloop
 endfacet
 facet normal  5.680647e-01  0.000000e+00 -8.229839e-01
   outer loop
     vertex  3.601060e-01  2.688244e-17 -6.710825e-01
     vertex  5.104719e-01  4.244501e-17 -5.672924e-01
     vertex  5.104719e-01 -7.265625e-01 -5.672924e-01
   endloop
 endfacet
 facet normal  3.546049e-01  0.000000e+00 -9.350162e-01
   outer loop
     vertex  1.892708e-01  1.245460e-17 -7.358717e-01
     vertex  3.601060e-01  2.688244e-17 -6.710825e-01
     vertex  1.892708e-01 -7.265625e-01 -7.358717e-01
   endloop
 endfacet
 facet normal  1.205367e-01  0.000000e+00 -9.927089e-01
   outer loop
     vertex  7.894737e-03  0.000000e+00 -7.578947e-01
     vertex  1.892708e-01 -7.265625e-01 -7.358717e-01
     vertex  7.894737e-03 -7.265625e-01 -7.578947e-01
   endloop
 endfacet
 facet normal  1.205367e-01  0.000000e+00 -9.927089e-01
   outer loop
     vertex  7.894737e-03  0.000000e+00 -7.578947e-01
     vertex  1.892708e-01  1.245460e-17 -7.358717e-01
     vertex  1.892708e-01 -7.265625e-01 -7.358717e-01
   endloop
 endfacet
 facet normal  6.828460e-16  1.000000e+00  5.979636e-16
   outer loop
     vertex -4.637648e-01 -6.141620e-17 -5.318366e-01
     vertex -4.946824e-01 -1.910295e-17 -5.672924e-01
     vertex -6.158404e-01 -1.814765e-17 -4.305333e-01
   endloop
 endfacet
 facet normal  6.828460e-16  1.000000e+00  5.979636e-16
   outer loop
     vertex -5.773504e-01 -6.052061e-17 -4.036250e-01
     vertex -4.637648e-01 -6.141620e-17 -5.318366e-01
     vertex -6.158404e-01 -1.814765e-17 -4.305333e-01
   endloop
 endfacet
 facet normal  8.202571e-16  1.000000e+00  4.014090e-16
   outer loop
     vertex -7.007492e-01 -1.344064e-17 -2.687532e-01
     vertex -5.773504e-01 -6.052061e-17 -4.036250e-01
     vertex -6.158404e-01 -1.814765e-17 -4.305333e-01
   endloop
 endfacet
 facet normal  5.023929e-16  1.000000e+00  7.553198e-16
   outer loop
     vertex -3.227967e-01 -5.874250e-17 -6.291398e-01
     vertex -3.443165e-01 -1.625100e-17 -6.710825e-01
     vertex -4.946824e-01 -1.910295e-17 -5.672924e-01
   endloop
 endfacet
 facet normal  5.023929e-16  1.000000e+00  7.553198e-16
   outer loop
     vertex -3.227967e-01 -5.874250e-17 -6.291398e-01
     vertex -4.946824e-01 -1.910295e-17 -5.672924e-01
     vertex -4.637648e-01 -6.141620e-17 -5.318366e-01
   endloop
 endfacet
 facet normal  8.202571e-16  1.000000e+00  4.014090e-16
   outer loop
     vertex -6.569523e-01 -5.610779e-17 -2.519561e-01
     vertex -5.773504e-01 -6.052061e-17 -4.036250e-01
     vertex -7.007492e-01 -1.344064e-17 -2.687532e-01
   endloop
 endfacet
 facet normal  2.898102e-16  1.000000e+00  8.643909e-16
   outer loop
     vertex -1.626388e-01 -5.265490e-17 -6.898797e-01
     vertex -1.734813e-01 -9.757559e-18 -7.358717e-01
     vertex -3.443165e-01 -1.625100e-17 -6.710825e-01
   endloop
 endfacet
 facet normal  2.898102e-16  1.000000e+00  8.643909e-16
   outer loop
     vertex -1.626388e-01 -5.265490e-17 -6.898797e-01
     vertex -3.443165e-01 -1.625100e-17 -6.710825e-01
     vertex -3.227967e-01 -5.874250e-17 -6.291398e-01
   endloop
 endfacet
 facet normal  9.062359e-16  1.000000e+00  1.772272e-16
   outer loop
     vertex -7.444741e-01 -5.255462e-18 -9.135412e-02
     vertex -6.569523e-01 -5.610779e-17 -2.519561e-01
     vertex -7.007492e-01 -1.344064e-17 -2.687532e-01
   endloop
 endfacet
 facet normal  9.062359e-16  1.000000e+00  1.772272e-16
   outer loop
     vertex -6.979445e-01 -4.843418e-17 -8.564448e-02
     vertex -6.569523e-01 -5.610779e-17 -2.519561e-01
     vertex -7.444741e-01 -5.255462e-18 -9.135412e-02
   endloop
 endfacet
 facet normal -5.386552e-17  1.000000e+00 -5.610991e-19
   outer loop
     vertex  7.401316e-03  0.000000e+00 -7.105263e-01
     vertex  7.894737e-03  0.000000e+00 -7.578947e-01
     vertex -1.734813e-01 -9.757559e-18 -7.358717e-01
   endloop
 endfacet
 facet normal -1.909440e-16  1.000000e+00  9.777284e-16
   outer loop
     vertex  7.401316e-03  0.000000e+00 -7.105263e-01
     vertex -1.734813e-01 -9.757559e-18 -7.358717e-01
     vertex -1.626388e-01 -5.265490e-17 -6.898797e-01
   endloop
 endfacet
 facet normal  9.354971e-16  1.000000e+00 -6.123234e-17
   outer loop
     vertex -6.979445e-01 -3.794576e-17  8.564448e-02
     vertex -7.444741e-01 -5.255462e-18 -9.135412e-02
     vertex -7.444741e-01  5.932190e-18  9.135412e-02
   endloop
 endfacet
 facet normal  9.354971e-16  1.000000e+00 -6.123234e-17
   outer loop
     vertex -6.979445e-01 -3.794576e-17  8.564448e-02
     vertex -6.979445e-01 -4.843418e-17 -8.564448e-02
     vertex -7.444741e-01 -5.255462e-18 -9.135412e-02
   endloop
 endfacet
 facet normal -1.799640e-16  1.000000e+00  9.166105e-16
   outer loop
     vertex  1.774414e-01 -3.183100e-17 -6.898797e-01
     vertex  1.892708e-01  1.245460e-17 -7.358717e-01
     vertex  7.894737e-03  0.000000e+00 -7.578947e-01
   endloop
 endfacet
 facet normal  1.869606e-16  1.000000e+00  1.947506e-18
   outer loop
     vertex  1.774414e-01 -3.183100e-17 -6.898797e-01
     vertex  7.894737e-03  0.000000e+00 -7.578947e-01
     vertex  7.401316e-03  0.000000e+00 -7.105263e-01
   endloop
 endfacet
 facet normal  9.062359e-16  1.000000e+00 -2.996918e-16
   outer loop
     vertex -6.569523e-01 -2.525207e-17  2.519561e-01
     vertex -7.444741e-01  5.932190e-18  9.135412e-02
     vertex -7.007492e-01  1.947213e-17  2.687532e-01
   endloop
 endfacet
 facet normal  9.062359e-16  1.000000e+00 -2.996918e-16
   outer loop
     vertex -6.569523e-01 -2.525207e-17  2.519561e-01
     vertex -6.979445e-01 -3.794576e-17  8.564448e-02
     vertex -7.444741e-01  5.932190e-18  9.135412e-02
   endloop
 endfacet
 facet normal -4.096722e-16  1.000000e+00  8.575281e-16
   outer loop
     vertex  3.375994e-01 -1.830490e-17 -6.291398e-01
     vertex  3.601060e-01  2.688244e-17 -6.710825e-01
     vertex  1.892708e-01  1.245460e-17 -7.358717e-01
   endloop
 endfacet
 facet normal -4.096722e-16  1.000000e+00  8.575281e-16
   outer loop
     vertex  3.375994e-01 -1.830490e-17 -6.291398e-01
     vertex  1.892708e-01  1.245460e-17 -7.358717e-01
     vertex  1.774414e-01 -3.183100e-17 -6.898797e-01
   endloop
 endfacet
 facet normal  8.202571e-16  1.000000e+00 -5.238737e-16
   outer loop
     vertex -5.773504e-01 -1.109081e-17  4.036250e-01
     vertex -7.007492e-01  1.947213e-17  2.687532e-01
     vertex -6.158404e-01  3.457747e-17  4.305333e-01
   endloop
 endfacet
 facet normal  8.202571e-16  1.000000e+00 -5.238737e-16
   outer loop
     vertex -5.773504e-01 -1.109081e-17  4.036250e-01
     vertex -6.569523e-01 -2.525207e-17  2.519561e-01
     vertex -7.007492e-01  1.947213e-17  2.687532e-01
   endloop
 endfacet
 facet normal -6.181781e-16  1.000000e+00  7.456428e-16
   outer loop
     vertex  4.785674e-01 -3.714996e-18 -5.318366e-01
     vertex  5.104719e-01  4.244501e-17 -5.672924e-01
     vertex  3.601060e-01  2.688244e-17 -6.710825e-01
   endloop
 endfacet
 facet normal -6.181781e-16  1.000000e+00  7.456428e-16
   outer loop
     vertex  4.785674e-01 -3.714996e-18 -5.318366e-01
     vertex  3.601060e-01  2.688244e-17 -6.710825e-01
     vertex  3.375994e-01 -1.830490e-17 -6.291398e-01
   endloop
 endfacet
 facet normal  6.828460e-16  1.000000e+00 -7.204282e-16
   outer loop
     vertex -4.637648e-01  3.714996e-18  5.318366e-01
     vertex -5.773504e-01 -1.109081e-17  4.036250e-01
     vertex -6.158404e-01  3.457747e-17  4.305333e-01
   endloop
 endfacet
 facet normal  6.828460e-16  1.000000e+00 -7.204282e-16
   outer loop
     vertex -4.946824e-01  5.037033e-17  5.672924e-01
     vertex -4.637648e-01  3.714996e-18  5.318366e-01
     vertex -6.158404e-01  3.457747e-17  4.305333e-01
   endloop
 endfacet
 facet normal -7.937134e-16  1.000000e+00  5.876893e-16
   outer loop
     vertex  5.921530e-01  1.109081e-17 -4.036250e-01
     vertex  5.104719e-01  4.244501e-17 -5.672924e-01
     vertex  4.785674e-01 -3.714996e-18 -5.318366e-01
   endloop
 endfacet
 facet normal -7.937134e-16  1.000000e+00  5.876893e-16
   outer loop
     vertex  6.316299e-01  5.823787e-17 -4.305333e-01
     vertex  5.104719e-01  4.244501e-17 -5.672924e-01
     vertex  5.921530e-01  1.109081e-17 -4.036250e-01
   endloop
 endfacet
 facet normal  5.023929e-16  1.000000e+00 -8.777845e-16
   outer loop
     vertex -3.227967e-01  1.830490e-17  6.291398e-01
     vertex -4.637648e-01  3.714996e-18  5.318366e-01
     vertex -4.946824e-01  5.037033e-17  5.672924e-01
   endloop
 endfacet
 facet normal  5.023929e-16  1.000000e+00 -8.777845e-16
   outer loop
     vertex -3.443165e-01  6.593290e-17  6.710825e-01
     vertex -3.227967e-01  1.830490e-17  6.291398e-01
     vertex -4.946824e-01  5.037033e-17  5.672924e-01
   endloop
 endfacet
 facet normal -9.264923e-16  1.000000e+00  3.928911e-16
   outer loop
     vertex  6.717550e-01  2.525207e-17 -2.519561e-01
     vertex  6.316299e-01  5.823787e-17 -4.305333e-01
     vertex  5.921530e-01  1.109081e-17 -4.036250e-01
   endloop
 endfacet
 facet normal -9.264923e-16  1.000000e+00  3.928911e-16
   outer loop
     vertex  7.165386e-01  7.334321e-17 -2.687532e-01
     vertex  6.316299e-01  5.823787e-17 -4.305333e-01
     vertex  6.717550e-01  2.525207e-17 -2.519561e-01
   endloop
 endfacet
 facet normal  2.898102e-16  1.000000e+00 -9.868556e-16
   outer loop
     vertex -1.626388e-01  3.183100e-17  6.898797e-01
     vertex -3.227967e-01  1.830490e-17  6.291398e-01
     vertex -3.443165e-01  6.593290e-17  6.710825e-01
   endloop
 endfacet
 facet normal  2.898102e-16  1.000000e+00 -9.868556e-16
   outer loop
     vertex -1.734813e-01  8.036073e-17  7.358717e-01
     vertex -1.626388e-01  3.183100e-17  6.898797e-01
     vertex -3.443165e-01  6.593290e-17  6.710825e-01
   endloop
 endfacet
 facet normal -1.009186e-15  1.000000e+00  1.724172e-16
   outer loop
     vertex  7.127471e-01  3.794576e-17 -8.564448e-02
     vertex  7.165386e-01  7.334321e-17 -2.687532e-01
     vertex  6.717550e-01  2.525207e-17 -2.519561e-01
   endloop
 endfacet
 facet normal -1.009186e-15  1.000000e+00  1.724172e-16
   outer loop
     vertex  7.602636e-01  8.688315e-17 -9.135412e-02
     vertex  7.165386e-01  7.334321e-17 -2.687532e-01
     vertex  7.127471e-01  3.794576e-17 -8.564448e-02
   endloop
 endfacet
 facet normal  5.780000e-17  1.000000e+00 -1.041552e-15
   outer loop
     vertex  7.401316e-03  4.350719e-17  7.105263e-01
     vertex -1.626388e-01  3.183100e-17  6.898797e-01
     vertex -1.734813e-01  8.036073e-17  7.358717e-01
   endloop
 endfacet
 facet normal  5.780000e-17  1.000000e+00 -1.041552e-15
   outer loop
     vertex  7.894737e-03  9.281534e-17  7.578947e-01
     vertex  7.401316e-03  4.350719e-17  7.105263e-01
     vertex -1.734813e-01  8.036073e-17  7.358717e-01
   endloop
 endfacet
 facet normal -1.037261e-15  1.000000e+00 -6.123234e-17
   outer loop
     vertex  7.127471e-01  4.843418e-17  8.564448e-02
     vertex  7.602636e-01  8.688315e-17 -9.135412e-02
     vertex  7.127471e-01  3.794576e-17 -8.564448e-02
   endloop
 endfacet
 facet normal -1.037261e-15  1.000000e+00 -6.123234e-17
   outer loop
     vertex  7.602636e-01  9.807080e-17  9.135412e-02
     vertex  7.602636e-01  8.688315e-17 -9.135412e-02
     vertex  7.127471e-01  4.843418e-17  8.564448e-02
   endloop
 endfacet
 facet normal -1.799640e-16  1.000000e+00 -1.039075e-15
   outer loop
     vertex  1.774414e-01  5.265490e-17  6.898797e-01
     vertex  7.401316e-03  4.350719e-17  7.105263e-01
     vertex  7.894737e-03  9.281534e-17  7.578947e-01
   endloop
 endfacet
 facet normal -1.799640e-16  1.000000e+00 -1.039075e-15
   outer loop
     vertex  1.892708e-01  1.025729e-16  7.358717e-01
     vertex  1.774414e-01  5.265490e-17  6.898797e-01
     vertex  7.894737e-03  9.281534e-17  7.578947e-01
   endloop
 endfacet
 facet normal -4.096722e-16  1.000000e+00 -9.799928e-16
   outer loop
     vertex  3.375994e-01  5.874250e-17  6.291398e-01
     vertex  1.774414e-01  5.265490e-17  6.898797e-01
     vertex  1.892708e-01  1.025729e-16  7.358717e-01
   endloop
 endfacet
 facet normal -1.009186e-15  1.000000e+00 -2.948819e-16
   outer loop
     vertex  7.165386e-01  1.062560e-16  2.687532e-01
     vertex  7.602636e-01  9.807080e-17  9.135412e-02
     vertex  7.127471e-01  4.843418e-17  8.564448e-02
   endloop
 endfacet
 facet normal -1.009186e-15  1.000000e+00 -2.948819e-16
   outer loop
     vertex  7.165386e-01  1.062560e-16  2.687532e-01
     vertex  7.127471e-01  4.843418e-17  8.564448e-02
     vertex  6.717550e-01  5.610779e-17  2.519561e-01
   endloop
 endfacet
 facet normal -6.181781e-16  1.000000e+00 -8.681075e-16
   outer loop
     vertex  3.601060e-01  1.090663e-16  6.710825e-01
     vertex  4.785674e-01  6.141620e-17  5.318366e-01
     vertex  3.375994e-01  5.874250e-17  6.291398e-01
   endloop
 endfacet
 facet normal -4.096722e-16  1.000000e+00 -9.799928e-16
   outer loop
     vertex  3.601060e-01  1.090663e-16  6.710825e-01
     vertex  3.375994e-01  5.874250e-17  6.291398e-01
     vertex  1.892708e-01  1.025729e-16  7.358717e-01
   endloop
 endfacet
 facet normal -9.264923e-16  1.000000e+00 -5.153558e-16
   outer loop
     vertex  6.316299e-01  1.109630e-16  4.305333e-01
     vertex  7.165386e-01  1.062560e-16  2.687532e-01
     vertex  6.717550e-01  5.610779e-17  2.519561e-01
   endloop
 endfacet
 facet normal -9.264923e-16  1.000000e+00 -5.153558e-16
   outer loop
     vertex  6.316299e-01  1.109630e-16  4.305333e-01
     vertex  6.717550e-01  5.610779e-17  2.519561e-01
     vertex  5.921530e-01  6.052061e-17  4.036250e-01
   endloop
 endfacet
 facet normal -7.937134e-16  1.000000e+00 -7.101539e-16
   outer loop
     vertex  5.104719e-01  1.119183e-16  5.672924e-01
     vertex  5.921530e-01  6.052061e-17  4.036250e-01
     vertex  4.785674e-01  6.141620e-17  5.318366e-01
   endloop
 endfacet
 facet normal -6.181781e-16  1.000000e+00 -8.681075e-16
   outer loop
     vertex  5.104719e-01  1.119183e-16  5.672924e-01
     vertex  4.785674e-01  6.141620e-17  5.318366e-01
     vertex  3.601060e-01  1.090663e-16  6.710825e-01
   endloop
 endfacet
 facet normal -7.937134e-16  1.000000e+00 -7.101539e-16
   outer loop
     vertex  5.104719e-01  1.119183e-16  5.672924e-01
     vertex  6.316299e-01  1.109630e-16  4.305333e-01
     vertex  5.921530e-01  6.052061e-17  4.036250e-01
   endloop
 endfacet
 facet normal -0.000000e+00 -1.000000e+00  0.000000e+00
   outer loop
     vertex -4.637648e-01 -7.265625e-01 -5.318366e-01
     vertex -6.158404e-01 -7.265625e-01 -4.305333e-01
     vertex -4.946824e-01 -7.265625e-01 -5.672924e-01
   endloop
 endfacet
 facet normal  0.000000e+00 -1.000000e+00 -0.000000e+00
   outer loop
     vertex -5.773504e-01 -7.265625e-01 -4.036250e-01
     vertex -6.158404e-01 -7.265625e-01 -4.305333e-01
     vertex -4.637648e-01 -7.265625e-01 -5.318366e-01
   endloop
 endfacet
 facet normal  0.000000e+00 -1.000000e+00  0.000000e+00
   outer loop
     vertex -7.007492e-01 -7.265625e-01 -2.687532e-01
     vertex -6.158404e-01 -7.265625e-01 -4.305333e-01
     vertex -5.773504e-01 -7.265625e-01 -4.036250e-01
   endloop
 endfacet
 facet normal -0.000000e+00 -1.000000e+00  0.000000e+00
   outer loop
     vertex -3.227967e-01 -7.265625e-01 -6.291398e-01
     vertex -4.946824e-01 -7.265625e-01 -5.672924e-01
     vertex -3.443165e-01 -7.265625e-01 -6.710825e-01
   endloop
 endfacet
 facet normal  0.000000e+00 -1.000000e+00  0.000000e+00
   outer loop
     vertex -3.227967e-01 -7.265625e-01 -6.291398e-01
     vertex -4.637648e-01 -7.265625e-01 -5.318366e-01
     vertex -4.946824e-01 -7.265625e-01 -5.672924e-01
   endloop
 endfacet
 facet normal  0.000000e+00 -1.000000e+00 -0.000000e+00
   outer loop
     vertex -6.569523e-01 -7.265625e-01 -2.519561e-01
     vertex -7.007492e-01 -7.265625e-01 -2.687532e-01
     vertex -5.773504e-01 -7.265625e-01 -4.036250e-01
   endloop
 endfacet
 facet normal  8.403557e-16 -1.000000e+00  2.215836e-15
   outer loop
     vertex -1.626388e-01 -7.265625e-01 -6.898797e-01
     vertex -3.443165e-01 -7.265625e-01 -6.710825e-01
     vertex -1.734813e-01 -7.265625e-01 -7.358717e-01
   endloop
 endfacet
 facet normal  5.802898e-16 -1.000000e+00 -2.977329e-16
   outer loop
     vertex -1.626388e-01 -7.265625e-01 -6.898797e-01
     vertex -3.227967e-01 -7.265625e-01 -6.291398e-01
     vertex -3.443165e-01 -7.265625e-01 -6.710825e-01
   endloop
 endfacet
 facet normal -2.192918e-16 -1.000000e+00  5.717831e-16
   outer loop
     vertex -7.444741e-01 -7.265625e-01 -9.135412e-02
     vertex -7.007492e-01 -7.265625e-01 -2.687532e-01
     vertex -6.569523e-01 -7.265625e-01 -2.519561e-01
   endloop
 endfacet
 facet normal -7.951070e-17 -1.000000e+00  6.479583e-16
   outer loop
     vertex -6.979445e-01 -7.265625e-01 -8.564448e-02
     vertex -7.444741e-01 -7.265625e-01 -9.135412e-02
     vertex -6.569523e-01 -7.265625e-01 -2.519561e-01
   endloop
 endfacet
 facet normal  6.128862e-16 -1.000000e+00  6.384232e-18
   outer loop
     vertex  7.401316e-03 -7.265625e-01 -7.105263e-01
     vertex -1.734813e-01 -7.265625e-01 -7.358717e-01
     vertex  7.894737e-03 -7.265625e-01 -7.578947e-01
   endloop
 endfacet
 facet normal  2.849498e-16 -1.000000e+00  2.346772e-15
   outer loop
     vertex  7.401316e-03 -7.265625e-01 -7.105263e-01
     vertex -1.626388e-01 -7.265625e-01 -6.898797e-01
     vertex -1.734813e-01 -7.265625e-01 -7.358717e-01
   endloop
 endfacet
 facet normal -0.000000e+00 -1.000000e+00  0.000000e+00
   outer loop
     vertex -6.979445e-01 -7.265625e-01  8.564448e-02
     vertex -7.444741e-01 -7.265625e-01  9.135412e-02
     vertex -7.444741e-01 -7.265625e-01 -9.135412e-02
   endloop
 endfacet
 facet normal  0.000000e+00 -1.000000e+00  0.000000e+00
   outer loop
     vertex -6.979445e-01 -7.265625e-01  8.564448e-02
     vertex -7.444741e-01 -7.265625e-01 -9.135412e-02
     vertex -6.979445e-01 -7.265625e-01 -8.564448e-02
   endloop
 endfacet
 facet normal  0.000000e+00 -1.000000e+00 -0.000000e+00
   outer loop
     vertex  1.774414e-01 -7.265625e-01 -6.898797e-01
     vertex  7.894737e-03 -7.265625e-01 -7.578947e-01
     vertex  1.892708e-01 -7.265625e-01 -7.358717e-01
   endloop
 endfacet
 facet normal  0.000000e+00 -1.000000e+00  0.000000e+00
   outer loop
     vertex  1.774414e-01 -7.265625e-01 -6.898797e-01
     vertex  7.401316e-03 -7.265625e-01 -7.105263e-01
     vertex  7.894737e-03 -7.265625e-01 -7.578947e-01
   endloop
 endfacet
 facet normal -0.000000e+00 -1.000000e+00  0.000000e+00
   outer loop
     vertex -6.569523e-01 -7.265625e-01  2.519561e-01
     vertex -7.007492e-01 -7.265625e-01  2.687532e-01
     vertex -7.444741e-01 -7.265625e-01  9.135412e-02
   endloop
 endfacet
 facet normal  0.000000e+00 -1.000000e+00  0.000000e+00
   outer loop
     vertex -6.569523e-01 -7.265625e-01  2.519561e-01
     vertex -7.444741e-01 -7.265625e-01  9.135412e-02
     vertex -6.979445e-01 -7.265625e-01  8.564448e-02
   endloop
 endfacet
 facet normal  0.000000e+00 -1.000000e+00 -0.000000e+00
   outer loop
     vertex  3.375994e-01 -7.265625e-01 -6.291398e-01
     vertex  1.892708e-01 -7.265625e-01 -7.358717e-01
     vertex  3.601060e-01 -7.265625e-01 -6.710825e-01
   endloop
 endfacet
 facet normal  0.000000e+00 -1.000000e+00  0.000000e+00
   outer loop
     vertex  3.375994e-01 -7.265625e-01 -6.291398e-01
     vertex  1.774414e-01 -7.265625e-01 -6.898797e-01
     vertex  1.892708e-01 -7.265625e-01 -7.358717e-01
   endloop
 endfacet
 facet normal -0.000000e+00 -1.000000e+00  0.000000e+00
   outer loop
     vertex -5.773504e-01 -7.265625e-01  4.036250e-01
     vertex -6.158404e-01 -7.265625e-01  4.305333e-01
     vertex -7.007492e-01 -7.265625e-01  2.687532e-01
   endloop
 endfacet
 facet normal  0.000000e+00 -1.000000e+00  0.000000e+00
   outer loop
     vertex -5.773504e-01 -7.265625e-01  4.036250e-01
     vertex -7.007492e-01 -7.265625e-01  2.687532e-01
     vertex -6.569523e-01 -7.265625e-01  2.519561e-01
   endloop
 endfacet
 facet normal  0.000000e+00 -1.000000e+00 -0.000000e+00
   outer loop
     vertex  4.785674e-01 -7.265625e-01 -5.318366e-01
     vertex  3.601060e-01 -7.265625e-01 -6.710825e-01
     vertex  5.104719e-01 -7.265625e-01 -5.672924e-01
   endloop
 endfacet
 facet normal  0.000000e+00 -1.000000e+00  0.000000e+00
   outer loop
     vertex  4.785674e-01 -7.265625e-01 -5.318366e-01
     vertex  3.375994e-01 -7.265625e-01 -6.291398e-01
     vertex  3.601060e-01 -7.265625e-01 -6.710825e-01
   endloop
 endfacet
 facet normal  0.000000e+00 -1.000000e+00  0.000000e+00
   outer loop
     vertex -4.637648e-01 -7.265625e-01  5.318366e-01
     vertex -6.158404e-01 -7.265625e-01  4.305333e-01
     vertex -5.773504e-01 -7.265625e-01  4.036250e-01
   endloop
 endfacet
 facet normal  0.000000e+00 -1.000000e+00 -0.000000e+00
   outer loop
     vertex -4.946824e-01 -7.265625e-01  5.672924e-01
     vertex -6.158404e-01 -7.265625e-01  4.305333e-01
     vertex -4.637648e-01 -7.265625e-01  5.318366e-01
   endloop
 endfacet
 facet normal  0.000000e+00 -1.000000e+00  0.000000e+00
   outer loop
     vertex  5.921530e-01 -7.265625e-01 -4.036250e-01
     vertex  4.785674e-01 -7.265625e-01 -5.318366e-01
     vertex  5.104719e-01 -7.265625e-01 -5.672924e-01
   endloop
 endfacet
 facet normal -0.000000e+00 -1.000000e+00  0.000000e+00
   outer loop
     vertex  6.316299e-01 -7.265625e-01 -4.305333e-01
     vertex  5.921530e-01 -7.265625e-01 -4.036250e-01
     vertex  5.104719e-01 -7.265625e-01 -5.672924e-01
   endloop
 endfacet
 facet normal  0.000000e+00 -1.000000e+00  0.000000e+00
   outer loop
     vertex -3.227967e-01 -7.265625e-01  6.291398e-01
     vertex -4.946824e-01 -7.265625e-01  5.672924e-01
     vertex -4.637648e-01 -7.265625e-01  5.318366e-01
   endloop
 endfacet
 facet normal  0.000000e+00 -1.000000e+00 -0.000000e+00
   outer loop
     vertex -3.443165e-01 -7.265625e-01  6.710825e-01
     vertex -4.946824e-01 -7.265625e-01  5.672924e-01
     vertex -3.227967e-01 -7.265625e-01  6.291398e-01
   endloop
 endfacet
 facet normal  0.000000e+00 -1.000000e+00  0.000000e+00
   outer loop
     vertex  6.717550e-01 -7.265625e-01 -2.519561e-01
     vertex  5.921530e-01 -7.265625e-01 -4.036250e-01
     vertex  6.316299e-01 -7.265625e-01 -4.305333e-01
   endloop
 endfacet
 facet normal -0.000000e+00 -1.000000e+00  0.000000e+00
   outer loop
     vertex  7.165386e-01 -7.265625e-01 -2.687532e-01
     vertex  6.717550e-01 -7.265625e-01 -2.519561e-01
     vertex  6.316299e-01 -7.265625e-01 -4.305333e-01
   endloop
 endfacet
 facet normal  0.000000e+00 -1.000000e+00  0.000000e+00
   outer loop
     vertex -1.626388e-01 -7.265625e-01  6.898797e-01
     vertex -3.443165e-01 -7.265625e-01  6.710825e-01
     vertex -3.227967e-01 -7.265625e-01  6.291398e-01
   endloop
 endfacet
 facet normal  0.000000e+00 -1.000000e+00 -0.000000e+00
   outer loop
     vertex -1.734813e-01 -7.265625e-01  7.358717e-01
     vertex -3.443165e-01 -7.265625e-01  6.710825e-01
     vertex -1.626388e-01 -7.265625e-01  6.898797e-01
   endloop
 endfacet
 facet normal  0.000000e+00 -1.000000e+00 -0.000000e+00
   outer loop
     vertex  7.127471e-01 -7.265625e-01 -8.564448e-02
     vertex  6.717550e-01 -7.265625e-01 -2.519561e-01
     vertex  7.165386e-01 -7.265625e-01 -2.687532e-01
   endloop
 endfacet
 facet normal -0.000000e+00 -1.000000e+00  0.000000e+00
   outer loop
     vertex  7.602636e-01 -7.265625e-01 -9.135412e-02
     vertex  7.127471e-01 -7.265625e-01 -8.564448e-02
     vertex  7.165386e-01 -7.265625e-01 -2.687532e-01
   endloop
 endfacet
 facet normal -0.000000e+00 -1.000000e+00  0.000000e+00
   outer loop
     vertex  7.401316e-03 -7.265625e-01  7.105263e-01
     vertex -1.734813e-01 -7.265625e-01  7.358717e-01
     vertex -1.626388e-01 -7.265625e-01  6.898797e-01
   endloop
 endfacet
 facet normal  0.000000e+00 -1.000000e+00  0.000000e+00
   outer loop
     vertex  7.894737e-03 -7.265625e-01  7.578947e-01
     vertex -1.734813e-01 -7.265625e-01  7.358717e-01
     vertex  7.401316e-03 -7.265625e-01  7.105263e-01
   endloop
 endfacet
 facet normal  0.000000e+00 -1.000000e+00  0.000000e+00
   outer loop
     vertex  7.127471e-01 -7.265625e-01  8.564448e-02
     vertex  7.127471e-01 -7.265625e-01 -8.564448e-02
     vertex  7.602636e-01 -7.265625e-01 -9.135412e-02
   endloop
 endfacet
 facet normal  0.000000e+00 -1.000000e+00 -0.000000e+00
   outer loop
     vertex  7.602636e-01 -7.265625e-01  9.135412e-02
     vertex  7.127471e-01 -7.265625e-01  8.564448e-02
     vertex  7.602636e-01 -7.265625e-01 -9.135412e-02
   endloop
 endfacet
 facet normal  0.000000e+00 -1.000000e+00  0.000000e+00
   outer loop
     vertex  1.774414e-01 -7.265625e-01  6.898797e-01
     vertex  7.894737e-03 -7.265625e-01  7.578947e-01
     vertex  7.401316e-03 -7.265625e-01  7.105263e-01
   endloop
 endfacet
 facet normal  8.778033e-16 -1.000000e+00  2.188173e-15
   outer loop
     vertex  1.892708e-01 -7.265625e-01  7.358717e-01
     vertex  7.894737e-03 -7.265625e-01  7.578947e-01
     vertex  1.774414e-01 -7.265625e-01  6.898797e-01
   endloop
 endfacet
 facet normal  1.465721e-15 -1.000000e+00  2.036957e-15
   outer loop
     vertex  3.375994e-01 -7.265625e-01  6.291398e-01
     vertex  1.892708e-01 -7.265625e-01  7.358717e-01
     vertex  1.774414e-01 -7.265625e-01  6.898797e-01
   endloop
 endfacet
 facet normal -7.303771e-17 -1.000000e+00  6.078315e-16
   outer loop
     vertex  7.165386e-01 -7.265625e-01  2.687532e-01
     vertex  7.127471e-01 -7.265625e-01  8.564448e-02
     vertex  7.602636e-01 -7.265625e-01  9.135412e-02
   endloop
 endfacet
 facet normal -2.291930e-16 -1.000000e+00  6.110649e-16
   outer loop
     vertex  7.165386e-01 -7.265625e-01  2.687532e-01
     vertex  6.717550e-01 -7.265625e-01  2.519561e-01
     vertex  7.127471e-01 -7.265625e-01  8.564448e-02
   endloop
 endfacet
 facet normal -0.000000e+00 -1.000000e+00  0.000000e+00
   outer loop
     vertex  3.601060e-01 -7.265625e-01  6.710825e-01
     vertex  1.892708e-01 -7.265625e-01  7.358717e-01
     vertex  3.375994e-01 -7.265625e-01  6.291398e-01
   endloop
 endfacet
 facet normal  0.000000e+00 -1.000000e+00 -0.000000e+00
   outer loop
     vertex  3.601060e-01 -7.265625e-01  6.710825e-01
     vertex  3.375994e-01 -7.265625e-01  6.291398e-01
     vertex  4.785674e-01 -7.265625e-01  5.318366e-01
   endloop
 endfacet
 facet normal  0.000000e+00 -1.000000e+00 -0.000000e+00
   outer loop
     vertex  6.316299e-01 -7.265625e-01  4.305333e-01
     vertex  5.921530e-01 -7.265625e-01  4.036250e-01
     vertex  6.717550e-01 -7.265625e-01  2.519561e-01
   endloop
 endfacet
 facet normal  0.000000e+00 -1.000000e+00  0.000000e+00
   outer loop
     vertex  6.316299e-01 -7.265625e-01  4.305333e-01
     vertex  6.717550e-01 -7.265625e-01  2.519561e-01
     vertex  7.165386e-01 -7.265625e-01  2.687532e-01
   endloop
 endfacet
 facet normal -0.000000e+00 -1.000000e+00  0.000000e+00
   outer loop
     vertex  5.104719e-01 -7.265625e-01  5.672924e-01
     vertex  3.601060e-01 -7.265625e-01  6.710825e-01
     vertex  4.785674e-01 -7.265625e-01  5.318366e-01
   endloop
 endfacet
 facet normal  0.000000e+00 -1.000000e+00 -0.000000e+00
   outer loop
     vertex  5.104719e-01 -7.265625e-01  5.672924e-01
     vertex  4.785674e-01 -7.265625e-01  5.318366e-01
     vertex  5.921530e-01 -7.265625e-01  4.036250e-01
   endloop
 endfacet
 facet normal  0.000000e+00 -1.000000e+00  0.000000e+00
   outer loop
     vertex  5.104719e-01 -7.265625e-01  5.672924e-01
     vertex  5.921530e-01 -7.265625e-01  4.036250e-01
     vertex  6.316299e-01 -7.265625e-01  4.305333e-01
   endloop
 endfacet
 facet normal -1.205367e-01  0.000000e+00  9.927089e-01
   outer loop
     vertex  7.401316e-03 -7.265625e-01 -7.105263e-01
     vertex  1.774414e-01 -3.183100e-17 -6.898797e-01
     vertex  7.401316e-03  0.000000e+00 -7.105263e-01
   endloop
 endfacet
 facet normal -1.205367e-01  1.516908e-16  9.927089e-01
   outer loop
     vertex  1.774414e-01 -7.265625e-01 -6.898797e-01
     vertex  1.774414e-01 -3.183100e-17 -6.898797e-01
     vertex  7.401316e-03 -7.265625e-01 -7.105263e-01
   endloop
 endfacet
 facet normal -3.546049e-01  1.428751e-16  9.350162e-01
   outer loop
     vertex  3.375994e-01 -7.265625e-01 -6.291398e-01
     vertex  3.375994e-01 -1.830490e-17 -6.291398e-01
     vertex  1.774414e-01 -3.183100e-17 -6.898797e-01
   endloop
 endfacet
 facet normal -3.546049e-01  1.393888e-16  9.350162e-01
   outer loop
     vertex  3.375994e-01 -7.265625e-01 -6.291398e-01
     vertex  1.774414e-01 -3.183100e-17 -6.898797e-01
     vertex  1.774414e-01 -7.265625e-01 -6.898797e-01
   endloop
 endfacet
 facet normal -5.680647e-01  1.257560e-16  8.229839e-01
   outer loop
     vertex  4.785674e-01 -7.265625e-01 -5.318366e-01
     vertex  4.785674e-01 -3.714996e-18 -5.318366e-01
     vertex  3.375994e-01 -1.830490e-17 -6.291398e-01
   endloop
 endfacet
 facet normal -5.680647e-01  1.254499e-16  8.229839e-01
   outer loop
     vertex  4.785674e-01 -7.265625e-01 -5.318366e-01
     vertex  3.375994e-01 -1.830490e-17 -6.291398e-01
     vertex  3.375994e-01 -7.265625e-01 -6.291398e-01
   endloop
 endfacet
 facet normal -7.485107e-01  5.066419e-17  6.631227e-01
   outer loop
     vertex  5.921530e-01 -7.265625e-01 -4.036250e-01
     vertex  5.921530e-01  1.109081e-17 -4.036250e-01
     vertex  4.785674e-01 -3.714996e-18 -5.318366e-01
   endloop
 endfacet
 facet normal -7.485107e-01  9.757216e-17  6.631227e-01
   outer loop
     vertex  5.921530e-01 -7.265625e-01 -4.036250e-01
     vertex  4.785674e-01 -3.714996e-18 -5.318366e-01
     vertex  4.785674e-01 -7.265625e-01 -5.318366e-01
   endloop
 endfacet
 facet normal -8.854560e-01  3.550599e-17  4.647232e-01
   outer loop
     vertex  6.717550e-01 -7.265625e-01 -2.519561e-01
     vertex  6.717550e-01  2.525207e-17 -2.519561e-01
     vertex  5.921530e-01  1.109081e-17 -4.036250e-01
   endloop
 endfacet
 facet normal -8.854560e-01  4.181664e-17  4.647232e-01
   outer loop
     vertex  6.717550e-01 -7.265625e-01 -2.519561e-01
     vertex  5.921530e-01  1.109081e-17 -4.036250e-01
     vertex  5.921530e-01 -7.265625e-01 -4.036250e-01
   endloop
 endfacet
 facet normal -9.709418e-01  1.371323e-17  2.393157e-01
   outer loop
     vertex  7.127471e-01 -7.265625e-01 -8.564448e-02
     vertex  7.127471e-01  3.794576e-17 -8.564448e-02
     vertex  6.717550e-01  2.525207e-17 -2.519561e-01
   endloop
 endfacet
 facet normal -9.709418e-01  1.393888e-17  2.393157e-01
   outer loop
     vertex  7.127471e-01 -7.265625e-01 -8.564448e-02
     vertex  6.717550e-01  2.525207e-17 -2.519561e-01
     vertex  6.717550e-01 -7.265625e-01 -2.519561e-01
   endloop
 endfacet
 facet normal -1.000000e+00  0.000000e+00  0.000000e+00
   outer loop
     vertex  7.127471e-01 -7.265625e-01  8.564448e-02
     vertex  7.127471e-01  4.843418e-17  8.564448e-02
     vertex  7.127471e-01  3.794576e-17 -8.564448e-02
   endloop
 endfacet
 facet normal -1.000000e+00  0.000000e+00  0.000000e+00
   outer loop
     vertex  7.127471e-01 -7.265625e-01  8.564448e-02
     vertex  7.127471e-01  3.794576e-17 -8.564448e-02
     vertex  7.127471e-01 -7.265625e-01 -8.564448e-02
   endloop
 endfacet
 facet normal -9.709418e-01 -1.828430e-17 -2.393157e-01
   outer loop
     vertex  6.717550e-01 -7.265625e-01  2.519561e-01
     vertex  6.717550e-01  5.610779e-17  2.519561e-01
     vertex  7.127471e-01  4.843418e-17  8.564448e-02
   endloop
 endfacet
 facet normal -9.709418e-01 -2.090832e-17 -2.393157e-01
   outer loop
     vertex  6.717550e-01 -7.265625e-01  2.519561e-01
     vertex  7.127471e-01  4.843418e-17  8.564448e-02
     vertex  7.127471e-01 -7.265625e-01  8.564448e-02
   endloop
 endfacet
 facet normal -8.854560e-01 -3.550599e-17 -4.647232e-01
   outer loop
     vertex  5.921530e-01 -7.265625e-01  4.036250e-01
     vertex  5.921530e-01  6.052061e-17  4.036250e-01
     vertex  6.717550e-01  5.610779e-17  2.519561e-01
   endloop
 endfacet
 facet normal -8.854560e-01 -4.181664e-17 -4.647232e-01
   outer loop
     vertex  5.921530e-01 -7.265625e-01  4.036250e-01
     vertex  6.717550e-01  5.610779e-17  2.519561e-01
     vertex  6.717550e-01 -7.265625e-01  2.519561e-01
   endloop
 endfacet
 facet normal -7.485107e-01 -1.013284e-16 -6.631227e-01
   outer loop
     vertex  4.785674e-01 -7.265625e-01  5.318366e-01
     vertex  4.785674e-01  6.141620e-17  5.318366e-01
     vertex  5.921530e-01  6.052061e-17  4.036250e-01
   endloop
 endfacet
 facet normal -7.485107e-01 -5.575552e-17 -6.631227e-01
   outer loop
     vertex  4.785674e-01 -7.265625e-01  5.318366e-01
     vertex  5.921530e-01  6.052061e-17  4.036250e-01
     vertex  5.921530e-01 -7.265625e-01  4.036250e-01
   endloop
 endfacet
 facet normal -5.680647e-01 -1.257560e-16 -8.229839e-01
   outer loop
     vertex  3.375994e-01 -7.265625e-01  6.291398e-01
     vertex  3.375994e-01  5.874250e-17  6.291398e-01
     vertex  4.785674e-01  6.141620e-17  5.318366e-01
   endloop
 endfacet
 facet normal -5.680647e-01 -1.254499e-16 -8.229839e-01
   outer loop
     vertex  3.375994e-01 -7.265625e-01  6.291398e-01
     vertex  4.785674e-01  6.141620e-17  5.318366e-01
     vertex  4.785674e-01 -7.265625e-01  5.318366e-01
   endloop
 endfacet
 facet normal -3.546049e-01 -1.393888e-16 -9.350162e-01
   outer loop
     vertex  1.774414e-01 -7.265625e-01  6.898797e-01
     vertex  3.375994e-01  5.874250e-17  6.291398e-01
     vertex  3.375994e-01 -7.265625e-01  6.291398e-01
   endloop
 endfacet
 facet normal -3.546049e-01 -1.428751e-16 -9.350162e-01
   outer loop
     vertex  1.774414e-01 -7.265625e-01  6.898797e-01
     vertex  1.774414e-01  5.265490e-17  6.898797e-01
     vertex  3.375994e-01  5.874250e-17  6.291398e-01
   endloop
 endfacet
 facet normal -1.205367e-01 -1.533277e-16 -9.927089e-01
   outer loop
     vertex  7.401316e-03 -7.265625e-01  7.105263e-01
     vertex  1.774414e-01  5.265490e-17  6.898797e-01
     vertex  1.774414e-01 -7.265625e-01  6.898797e-01
   endloop
 endfacet
 facet normal -1.205367e-01 -1.516908e-16 -9.927089e-01
   outer loop
     vertex  7.401316e-03 -7.265625e-01  7.105263e-01
     vertex  7.401316e-03  4.350719e-17  7.105263e-01
     vertex  1.774414e-01  5.265490e-17  6.898797e-01
   endloop
 endfacet
 facet normal  1.205367e-01 -1.533277e-16 -9.927089e-01
   outer loop
     vertex -1.626388e-01 -7.265625e-01  6.898797e-01
     vertex  7.401316e-03  4.350719e-17  7.105263e-01
     vertex  7.401316e-03 -7.265625e-01  7.105263e-01
   endloop
 endfacet
 facet normal  1.205367e-01 -1.516908e-16 -9.927089e-01
   outer loop
     vertex -1.626388e-01 -7.265625e-01  6.898797e-01
     vertex -1.626388e-01  3.183100e-17  6.898797e-01
     vertex  7.401316e-03  4.350719e-17  7.105263e-01
   endloop
 endfacet
 facet normal  3.546049e-01 -1.393888e-16 -9.350162e-01
   outer loop
     vertex -3.227967e-01 -7.265625e-01  6.291398e-01
     vertex -1.626388e-01  3.183100e-17  6.898797e-01
     vertex -1.626388e-01 -7.265625e-01  6.898797e-01
   endloop
 endfacet
 facet normal  3.546049e-01 -1.428751e-16 -9.350162e-01
   outer loop
     vertex -3.227967e-01 -7.265625e-01  6.291398e-01
     vertex -3.227967e-01  1.830490e-17  6.291398e-01
     vertex -1.626388e-01  3.183100e-17  6.898797e-01
   endloop
 endfacet
 facet normal  5.680647e-01 -1.254499e-16 -8.229839e-01
   outer loop
     vertex -4.637648e-01 -7.265625e-01  5.318366e-01
     vertex -3.227967e-01  1.830490e-17  6.291398e-01
     vertex -3.227967e-01 -7.265625e-01  6.291398e-01
   endloop
 endfacet
 facet normal  5.680647e-01 -1.257560e-16 -8.229839e-01
   outer loop
     vertex -4.637648e-01 -7.265625e-01  5.318366e-01
     vertex -4.637648e-01  3.714996e-18  5.318366e-01
     vertex -3.227967e-01  1.830490e-17  6.291398e-01
   endloop
 endfacet
 facet normal  7.485107e-01 -9.757216e-17 -6.631227e-01
   outer loop
     vertex -5.773504e-01 -7.265625e-01  4.036250e-01
     vertex -4.637648e-01  3.714996e-18  5.318366e-01
     vertex -4.637648e-01 -7.265625e-01  5.318366e-01
   endloop
 endfacet
 facet normal  7.485107e-01 -5.066419e-17 -6.631227e-01
   outer loop
     vertex -5.773504e-01 -7.265625e-01  4.036250e-01
     vertex -5.773504e-01 -1.109081e-17  4.036250e-01
     vertex -4.637648e-01  3.714996e-18  5.318366e-01
   endloop
 endfacet
 facet normal  8.854560e-01 -2.787776e-17 -4.647232e-01
   outer loop
     vertex -6.569523e-01 -7.265625e-01  2.519561e-01
     vertex -5.773504e-01 -1.109081e-17  4.036250e-01
     vertex -5.773504e-01 -7.265625e-01  4.036250e-01
   endloop
 endfacet
 facet normal  8.854560e-01 -3.550599e-17 -4.647232e-01
   outer loop
     vertex -6.569523e-01 -7.265625e-01  2.519561e-01
     vertex -6.569523e-01 -2.525207e-17  2.519561e-01
     vertex -5.773504e-01 -1.109081e-17  4.036250e-01
   endloop
 endfacet
 facet normal  9.709418e-01 -2.090832e-17 -2.393157e-01
   outer loop
     vertex -6.979445e-01 -7.265625e-01  8.564448e-02
     vertex -6.569523e-01 -2.525207e-17  2.519561e-01
     vertex -6.569523e-01 -7.265625e-01  2.519561e-01
   endloop
 endfacet
 facet normal  9.709418e-01 -1.371323e-17 -2.393157e-01
   outer loop
     vertex -6.979445e-01 -7.265625e-01  8.564448e-02
     vertex -6.979445e-01 -3.794576e-17  8.564448e-02
     vertex -6.569523e-01 -2.525207e-17  2.519561e-01
   endloop
 endfacet
 facet normal  1.000000e+00 -1.114219e-31 -1.944474e-15
   outer loop
     vertex -6.979445e-01 -7.265625e-01  8.564448e-02
     vertex -6.979445e-01 -4.843418e-17 -8.564448e-02
     vertex -6.979445e-01 -3.794576e-17  8.564448e-02
   endloop
 endfacet
 facet normal  1.000000e+00 -1.114219e-31 -1.944474e-15
   outer loop
     vertex -6.979445e-01 -7.265625e-01 -8.564448e-02
     vertex -6.979445e-01 -4.843418e-17 -8.564448e-02
     vertex -6.979445e-01 -7.265625e-01  8.564448e-02
   endloop
 endfacet
 facet normal  9.709418e-01  6.969440e-18  2.393157e-01
   outer loop
     vertex -6.569523e-01 -7.265625e-01 -2.519561e-01
     vertex -6.979445e-01 -4.843418e-17 -8.564448e-02
     vertex -6.979445e-01 -7.265625e-01 -8.564448e-02
   endloop
 endfacet
 facet normal  9.709418e-01  1.828430e-17  2.393157e-01
   outer loop
     vertex -6.569523e-01 -7.265625e-01 -2.519561e-01
     vertex -6.569523e-01 -5.610779e-17 -2.519561e-01
     vertex -6.979445e-01 -4.843418e-17 -8.564448e-02
   endloop
 endfacet
 facet normal  8.854560e-01  3.550599e-17  4.647232e-01
   outer loop
     vertex -6.569523e-01 -7.265625e-01 -2.519561e-01
     vertex -5.773504e-01 -6.052061e-17 -4.036250e-01
     vertex -6.569523e-01 -5.610779e-17 -2.519561e-01
   endloop
 endfacet
 facet normal  8.854560e-01  3.550599e-17  4.647232e-01
   outer loop
     vertex -5.773504e-01 -7.265625e-01 -4.036250e-01
     vertex -5.773504e-01 -6.052061e-17 -4.036250e-01
     vertex -6.569523e-01 -7.265625e-01 -2.519561e-01
   endloop
 endfacet
 facet normal  7.485107e-01  5.575552e-17  6.631227e-01
   outer loop
     vertex -4.637648e-01 -7.265625e-01 -5.318366e-01
     vertex -5.773504e-01 -6.052061e-17 -4.036250e-01
     vertex -5.773504e-01 -7.265625e-01 -4.036250e-01
   endloop
 endfacet
 facet normal  7.485107e-01  1.013284e-16  6.631227e-01
   outer loop
     vertex -4.637648e-01 -7.265625e-01 -5.318366e-01
     vertex -4.637648e-01 -6.141620e-17 -5.318366e-01
     vertex -5.773504e-01 -6.052061e-17 -4.036250e-01
   endloop
 endfacet
 facet normal  5.680647e-01  1.257560e-16  8.229839e-01
   outer loop
     vertex -3.227967e-01 -7.265625e-01 -6.291398e-01
     vertex -3.227967e-01 -5.874250e-17 -6.291398e-01
     vertex -4.637648e-01 -6.141620e-17 -5.318366e-01
   endloop
 endfacet
 facet normal  5.680647e-01  1.254499e-16  8.229839e-01
   outer loop
     vertex -3.227967e-01 -7.265625e-01 -6.291398e-01
     vertex -4.637648e-01 -6.141620e-17 -5.318366e-01
     vertex -4.637648e-01 -7.265625e-01 -5.318366e-01
   endloop
 endfacet
 facet normal  3.546049e-01  1.428751e-16  9.350162e-01
   outer loop
     vertex -1.626388e-01 -7.265625e-01 -6.898797e-01
     vertex -1.626388e-01 -5.265490e-17 -6.898797e-01
     vertex -3.227967e-01 -5.874250e-17 -6.291398e-01
   endloop
 endfacet
 facet normal  3.546049e-01  1.393888e-16  9.350162e-01
   outer loop
     vertex -1.626388e-01 -7.265625e-01 -6.898797e-01
     vertex -3.227967e-01 -5.874250e-17 -6.291398e-01
     vertex -3.227967e-01 -7.265625e-01 -6.291398e-01
   endloop
 endfacet
 facet normal  1.205367e-01 -0.000000e+00  9.927089e-01
   outer loop
     vertex  7.401316e-03 -7.265625e-01 -7.105263e-01
     vertex  7.401316e-03  0.000000e+00 -7.105263e-01
     vertex -1.626388e-01 -5.265490e-17 -6.898797e-01
   endloop
 endfacet
 facet normal  1.205367e-01  1.533277e-16  9.927089e-01
   outer loop
     vertex  7.401316e-03 -7.265625e-01 -7.105263e-01
     vertex -1.626388e-01 -5.265490e-17 -6.898797e-01
     vertex -1.626388e-01 -7.265625e-01 -6.898797e-01
   endloop
 endfacet
endsolid
