solid 
 facet normal  0.000000e+00  3.420201e-01  9.396926e-01
   outer loop
     vertex -5.925056e-18  8.251001e-02  9.676351e-02
     vertex -7.734611e-18  1.315789e-03  1.263158e-01
     vertex  6.250000e-02  1.315789e-03  1.263158e-01
   endloop
 endfacet
 facet normal -2.086537e-16  3.420201e-01  9.396926e-01
   outer loop
     vertex -5.925056e-18  8.251001e-02  9.676351e-02
     vertex  6.250000e-02  1.315789e-03  1.263158e-01
     vertex  6.250000e-02  8.251001e-02  9.676351e-02
   endloop
 endfacet
 facet normal -2.775558e-17  8.660254e-01  5.000000e-01
   outer loop
     vertex -1.343101e-18  1.257126e-01  2.193451e-02
     vertex  6.250000e-02  8.251001e-02  9.676351e-02
     vertex  6.250000e-02  1.257126e-01  2.193451e-02
   endloop
 endfacet
 facet normal -8.030654e-17  8.660254e-01  5.000000e-01
   outer loop
     vertex -1.343101e-18  1.257126e-01  2.193451e-02
     vertex -5.925056e-18  8.251001e-02  9.676351e-02
     vertex  6.250000e-02  8.251001e-02  9.676351e-02
   endloop
 endfacet
 facet normal  3.855764e-17  9.848078e-01 -1.736482e-01
   outer loop
     vertex  3.867306e-18  1.107085e-01 -6.315789e-02
     vertex  6.250000e-02  1.257126e-01  2.193451e-02
     vertex  6.250000e-02  1.107085e-01 -6.315789e-02
   endloop
 endfacet
 facet normal  4.015327e-17  9.848078e-01 -1.736482e-01
   outer loop
     vertex  3.867306e-18  1.107085e-01 -6.315789e-02
     vertex -1.343101e-18  1.257126e-01  2.193451e-02
     vertex  6.250000e-02  1.257126e-01  2.193451e-02
   endloop
 endfacet
 facet normal  1.700960e-16  6.427876e-01 -7.660444e-01
   outer loop
     vertex  7.268157e-18  4.451833e-02 -1.186980e-01
     vertex  6.250000e-02  1.107085e-01 -6.315789e-02
     vertex  6.250000e-02  4.451833e-02 -1.186980e-01
   endloop
 endfacet
 facet normal  1.606131e-16  6.427876e-01 -7.660444e-01
   outer loop
     vertex  7.268157e-18  4.451833e-02 -1.186980e-01
     vertex  3.867306e-18  1.107085e-01 -6.315789e-02
     vertex  6.250000e-02  1.107085e-01 -6.315789e-02
   endloop
 endfacet
 facet normal  2.220446e-16 -1.606131e-16 -1.000000e+00
   outer loop
     vertex  7.268157e-18 -4.188675e-02 -1.186980e-01
     vertex  6.250000e-02  4.451833e-02 -1.186980e-01
     vertex  6.250000e-02 -4.188675e-02 -1.186980e-01
   endloop
 endfacet
 facet normal  2.220446e-16 -1.606131e-16 -1.000000e+00
   outer loop
     vertex  7.268157e-18 -4.188675e-02 -1.186980e-01
     vertex  7.268157e-18  4.451833e-02 -1.186980e-01
     vertex  6.250000e-02  4.451833e-02 -1.186980e-01
   endloop
 endfacet
 facet normal  1.700960e-16 -6.427876e-01 -7.660444e-01
   outer loop
     vertex  3.867306e-18 -1.080769e-01 -6.315789e-02
     vertex  6.250000e-02 -4.188675e-02 -1.186980e-01
     vertex  6.250000e-02 -1.080769e-01 -6.315789e-02
   endloop
 endfacet
 facet normal  1.606131e-16 -6.427876e-01 -7.660444e-01
   outer loop
     vertex  3.867306e-18 -1.080769e-01 -6.315789e-02
     vertex  7.268157e-18 -4.188675e-02 -1.186980e-01
     vertex  6.250000e-02 -4.188675e-02 -1.186980e-01
   endloop
 endfacet
 facet normal  9.639410e-18 -9.848078e-01 -1.736482e-01
   outer loop
     vertex -1.343101e-18 -1.230810e-01  2.193451e-02
     vertex  6.250000e-02 -1.080769e-01 -6.315789e-02
     vertex  6.250000e-02 -1.230810e-01  2.193451e-02
   endloop
 endfacet
 facet normal  4.015327e-17 -9.848078e-01 -1.736482e-01
   outer loop
     vertex -1.343101e-18 -1.230810e-01  2.193451e-02
     vertex  3.867306e-18 -1.080769e-01 -6.315789e-02
     vertex  6.250000e-02 -1.080769e-01 -6.315789e-02
   endloop
 endfacet
 facet normal -1.110223e-16 -8.660254e-01  5.000000e-01
   outer loop
     vertex -5.925056e-18 -7.987843e-02  9.676351e-02
     vertex  6.250000e-02 -1.230810e-01  2.193451e-02
     vertex  6.250000e-02 -7.987843e-02  9.676351e-02
   endloop
 endfacet
 facet normal  0.000000e+00 -8.660254e-01  5.000000e-01
   outer loop
     vertex -5.925056e-18 -7.987843e-02  9.676351e-02
     vertex -1.343101e-18 -1.230810e-01  2.193451e-02
     vertex  6.250000e-02 -1.230810e-01  2.193451e-02
   endloop
 endfacet
 facet normal  0.000000e+00 -3.420201e-01  9.396926e-01
   outer loop
     vertex -7.734611e-18  1.315789e-03  1.263158e-01
     vertex  6.250000e-02 -7.987843e-02  9.676351e-02
     vertex  6.250000e-02  1.315789e-03  1.263158e-01
   endloop
 endfacet
 facet normal -2.409196e-16 -3.420201e-01  9.396926e-01
   outer loop
     vertex -7.734611e-18  1.315789e-03  1.263158e-01
     vertex -5.925056e-18 -7.987843e-02  9.676351e-02
     vertex  6.250000e-02 -7.987843e-02  9.676351e-02
   endloop
 endfacet
 facet normal  0.000000e+00 -3.420201e-01  9.396926e-01
   outer loop
     vertex -5.925056e-18 -7.987843e-02  9.676351e-02
     vertex -7.734611e-18  1.315789e-03  1.263158e-01
     vertex -7.500000e-01  1.315789e-03  1.263158e-01
   endloop
 endfacet
 facet normal -5.216342e-17 -3.420201e-01  9.396926e-01
   outer loop
     vertex -5.925056e-18 -7.987843e-02  9.676351e-02
     vertex -7.500000e-01  1.315789e-03  1.263158e-01
     vertex -7.500000e-01 -7.987843e-02  9.676351e-02
   endloop
 endfacet
 facet normal -3.006854e-17 -8.660254e-01  5.000000e-01
   outer loop
     vertex -1.343101e-18 -1.230810e-01  2.193451e-02
     vertex -7.500000e-01 -7.987843e-02  9.676351e-02
     vertex -7.500000e-01 -1.230810e-01  2.193451e-02
   endloop
 endfacet
 facet normal -2.676885e-17 -8.660254e-01  5.000000e-01
   outer loop
     vertex -1.343101e-18 -1.230810e-01  2.193451e-02
     vertex -5.925056e-18 -7.987843e-02  9.676351e-02
     vertex -7.500000e-01 -7.987843e-02  9.676351e-02
   endloop
 endfacet
 facet normal  9.639410e-18 -9.848078e-01 -1.736482e-01
   outer loop
     vertex  3.867306e-18 -1.080769e-01 -6.315789e-02
     vertex -7.500000e-01 -1.230810e-01  2.193451e-02
     vertex -7.500000e-01 -1.080769e-01 -6.315789e-02
   endloop
 endfacet
 facet normal  1.003832e-17 -9.848078e-01 -1.736482e-01
   outer loop
     vertex  3.867306e-18 -1.080769e-01 -6.315789e-02
     vertex -1.343101e-18 -1.230810e-01  2.193451e-02
     vertex -7.500000e-01 -1.230810e-01  2.193451e-02
   endloop
 endfacet
 facet normal  4.252401e-17 -6.427876e-01 -7.660444e-01
   outer loop
     vertex  7.268157e-18 -4.188675e-02 -1.186980e-01
     vertex -7.500000e-01 -1.080769e-01 -6.315789e-02
     vertex -7.500000e-01 -4.188675e-02 -1.186980e-01
   endloop
 endfacet
 facet normal  4.684548e-17 -6.427876e-01 -7.660444e-01
   outer loop
     vertex  7.268157e-18 -4.188675e-02 -1.186980e-01
     vertex  3.867306e-18 -1.080769e-01 -6.315789e-02
     vertex -7.500000e-01 -1.080769e-01 -6.315789e-02
   endloop
 endfacet
 facet normal  5.551115e-17 -1.606131e-16 -1.000000e+00
   outer loop
     vertex  7.268157e-18  4.451833e-02 -1.186980e-01
     vertex -7.500000e-01 -4.188675e-02 -1.186980e-01
     vertex -7.500000e-01  4.451833e-02 -1.186980e-01
   endloop
 endfacet
 facet normal  5.551115e-17 -1.606131e-16 -1.000000e+00
   outer loop
     vertex  7.268157e-18  4.451833e-02 -1.186980e-01
     vertex  7.268157e-18 -4.188675e-02 -1.186980e-01
     vertex -7.500000e-01 -4.188675e-02 -1.186980e-01
   endloop
 endfacet
 facet normal  4.252401e-17  6.427876e-01 -7.660444e-01
   outer loop
     vertex  3.867306e-18  1.107085e-01 -6.315789e-02
     vertex -7.500000e-01  4.451833e-02 -1.186980e-01
     vertex -7.500000e-01  1.107085e-01 -6.315789e-02
   endloop
 endfacet
 facet normal  4.015327e-17  6.427876e-01 -7.660444e-01
   outer loop
     vertex  3.867306e-18  1.107085e-01 -6.315789e-02
     vertex  7.268157e-18  4.451833e-02 -1.186980e-01
     vertex -7.500000e-01  4.451833e-02 -1.186980e-01
   endloop
 endfacet
 facet normal  1.044269e-17  9.848078e-01 -1.736482e-01
   outer loop
     vertex -1.343101e-18  1.257126e-01  2.193451e-02
     vertex -7.500000e-01  1.107085e-01 -6.315789e-02
     vertex -7.500000e-01  1.257126e-01  2.193451e-02
   endloop
 endfacet
 facet normal  1.003832e-17  9.848078e-01 -1.736482e-01
   outer loop
     vertex -1.343101e-18  1.257126e-01  2.193451e-02
     vertex  3.867306e-18  1.107085e-01 -6.315789e-02
     vertex -7.500000e-01  1.107085e-01 -6.315789e-02
   endloop
 endfacet
 facet normal -2.775558e-17  8.660254e-01  5.000000e-01
   outer loop
     vertex -5.925056e-18  8.251001e-02  9.676351e-02
     vertex -7.500000e-01  1.257126e-01  2.193451e-02
     vertex -7.500000e-01  8.251001e-02  9.676351e-02
   endloop
 endfacet
 facet normal -2.676885e-17  8.660254e-01  5.000000e-01
   outer loop
     vertex -5.925056e-18  8.251001e-02  9.676351e-02
     vertex -1.343101e-18  1.257126e-01  2.193451e-02
     vertex -7.500000e-01  1.257126e-01  2.193451e-02
   endloop
 endfacet
 facet normal  0.000000e+00  3.420201e-01  9.396926e-01
   outer loop
     vertex -7.734611e-18  1.315789e-03  1.263158e-01
     vertex -7.500000e-01  8.251001e-02  9.676351e-02
     vertex -7.500000e-01  1.315789e-03  1.263158e-01
   endloop
 endfacet
 facet normal -5.353769e-17  3.420201e-01  9.396926e-01
   outer loop
     vertex -7.734611e-18  1.315789e-03  1.263158e-01
     vertex -5.925056e-18  8.251001e-02  9.676351e-02
     vertex -7.500000e-01  8.251001e-02  9.676351e-02
   endloop
 endfacet
 facet normal  1.000000e+00 -4.013233e-32 -2.348006e-16
   outer loop
     vertex  6.250000e-02  8.251001e-02  9.676351e-02
     vertex  6.250000e-02  1.315789e-03  1.263158e-01
     vertex  6.250000e-02 -7.987843e-02  9.676351e-02
   endloop
 endfacet
 facet normal  1.000000e+00  1.584949e-32  9.273001e-17
   outer loop
     vertex  6.250000e-02  8.251001e-02  9.676351e-02
     vertex  6.250000e-02 -7.987843e-02  9.676351e-02
     vertex  6.250000e-02 -1.230810e-01  2.193451e-02
   endloop
 endfacet
 facet normal  1.000000e+00  3.171553e-17  5.592304e-18
   outer loop
     vertex  6.250000e-02  8.251001e-02  9.676351e-02
     vertex  6.250000e-02 -1.230810e-01  2.193451e-02
     vertex  6.250000e-02 -1.080769e-01 -6.315789e-02
   endloop
 endfacet
 facet normal  1.000000e+00 -8.662873e-17  1.466295e-16
   outer loop
     vertex  6.250000e-02  8.251001e-02  9.676351e-02
     vertex  6.250000e-02 -1.080769e-01 -6.315789e-02
     vertex  6.250000e-02 -4.188675e-02 -1.186980e-01
   endloop
 endfacet
 facet normal  1.000000e+00  0.000000e+00  9.661438e-17
   outer loop
     vertex  6.250000e-02  8.251001e-02  9.676351e-02
     vertex  6.250000e-02 -4.188675e-02 -1.186980e-01
     vertex  6.250000e-02  4.451833e-02 -1.186980e-01
   endloop
 endfacet
 facet normal  1.000000e+00  1.509269e-16  7.000189e-17
   outer loop
     vertex  6.250000e-02  8.251001e-02  9.676351e-02
     vertex  6.250000e-02  4.451833e-02 -1.186980e-01
     vertex  6.250000e-02  1.107085e-01 -6.315789e-02
   endloop
 endfacet
 facet normal  1.000000e+00 -1.230368e-16  2.169470e-17
   outer loop
     vertex  6.250000e-02  8.251001e-02  9.676351e-02
     vertex  6.250000e-02  1.107085e-01 -6.315789e-02
     vertex  6.250000e-02  1.257126e-01  2.193451e-02
   endloop
 endfacet
 facet normal -1.000000e+00  0.000000e+00  0.000000e+00
   outer loop
     vertex -7.500000e-01  8.251001e-02  9.676351e-02
     vertex -7.500000e-01 -7.987843e-02  9.676351e-02
     vertex -7.500000e-01  1.315789e-03  1.263158e-01
   endloop
 endfacet
 facet normal -1.000000e+00 -0.000000e+00  0.000000e+00
   outer loop
     vertex -7.500000e-01  8.251001e-02  9.676351e-02
     vertex -7.500000e-01 -1.230810e-01  2.193451e-02
     vertex -7.500000e-01 -7.987843e-02  9.676351e-02
   endloop
 endfacet
 facet normal -1.000000e+00  0.000000e+00  0.000000e+00
   outer loop
     vertex -7.500000e-01  8.251001e-02  9.676351e-02
     vertex -7.500000e-01 -1.080769e-01 -6.315789e-02
     vertex -7.500000e-01 -1.230810e-01  2.193451e-02
   endloop
 endfacet
 facet normal -1.000000e+00  0.000000e+00  0.000000e+00
   outer loop
     vertex -7.500000e-01  8.251001e-02  9.676351e-02
     vertex -7.500000e-01 -4.188675e-02 -1.186980e-01
     vertex -7.500000e-01 -1.080769e-01 -6.315789e-02
   endloop
 endfacet
 facet normal -1.000000e+00  0.000000e+00  0.000000e+00
   outer loop
     vertex -7.500000e-01  8.251001e-02  9.676351e-02
     vertex -7.500000e-01  4.451833e-02 -1.186980e-01
     vertex -7.500000e-01 -4.188675e-02 -1.186980e-01
   endloop
 endfacet
 facet normal -1.000000e+00  0.000000e+00 -0.000000e+00
   outer loop
     vertex -7.500000e-01  8.251001e-02  9.676351e-02
     vertex -7.500000e-01  1.107085e-01 -6.315789e-02
     vertex -7.500000e-01  4.451833e-02 -1.186980e-01
   endloop
 endfacet
 facet normal -1.000000e+00  0.000000e+00  0.000000e+00
   outer loop
     vertex -7.500000e-01  8.251001e-02  9.676351e-02
     vertex -7.500000e-01  1.257126e-01  2.193451e-02
     vertex -7.500000e-01  1.107085e-01 -6.315789e-02
   endloop
 endfacet
endsolid
