solid 
 facet normal -6.123234e-17 -6.123234e-17 -1.000000e+00
   outer loop
     vertex  3.750000e-01  2.296213e-17 -2.296213e-17
     vertex  4.592425e-17 -7.500000e-01  4.592425e-17
     vertex  0.000000e+00  0.000000e+00  0.000000e+00
   endloop
 endfacet
 facet normal -6.123234e-17 -6.123234e-17 -1.000000e+00
   outer loop
     vertex  3.750000e-01  2.296213e-17 -2.296213e-17
     vertex  3.750000e-01 -7.500000e-01  2.296213e-17
     vertex  4.592425e-17 -7.500000e-01  4.592425e-17
   endloop
 endfacet
 facet normal  1.000000e+00  0.000000e+00  0.000000e+00
   outer loop
     vertex  3.750000e-01  2.537919e-17  3.947368e-02
     vertex  3.750000e-01 -7.500000e-01  2.296213e-17
     vertex  3.750000e-01  2.296213e-17 -2.296213e-17
   endloop
 endfacet
 facet normal  1.000000e+00  0.000000e+00  0.000000e+00
   outer loop
     vertex  3.750000e-01  2.537919e-17  3.947368e-02
     vertex  3.750000e-01 -7.500000e-01  3.947368e-02
     vertex  3.750000e-01 -7.500000e-01  2.296213e-17
   endloop
 endfacet
 facet normal -0.000000e+00  0.000000e+00  1.000000e+00
   outer loop
     vertex  3.947368e-02  4.834132e-18  3.947368e-02
     vertex  3.750000e-01 -7.500000e-01  3.947368e-02
     vertex  3.750000e-01  2.537919e-17  3.947368e-02
   endloop
 endfacet
 facet normal  0.000000e+00  0.000000e+00  1.000000e+00
   outer loop
     vertex  3.947368e-02  4.834132e-18  3.947368e-02
     vertex  3.947368e-02 -7.500000e-01  3.947368e-02
     vertex  3.750000e-01 -7.500000e-01  3.947368e-02
   endloop
 endfacet
 facet normal  1.000000e+00  0.000000e+00  0.000000e+00
   outer loop
     vertex  3.947368e-02  2.537919e-17  3.750000e-01
     vertex  3.947368e-02 -7.500000e-01  3.947368e-02
     vertex  3.947368e-02  4.834132e-18  3.947368e-02
   endloop
 endfacet
 facet normal  1.000000e+00  0.000000e+00  0.000000e+00
   outer loop
     vertex  3.947368e-02  2.537919e-17  3.750000e-01
     vertex  3.947368e-02 -7.500000e-01  3.750000e-01
     vertex  3.947368e-02 -7.500000e-01  3.947368e-02
   endloop
 endfacet
 facet normal -0.000000e+00  0.000000e+00  1.000000e+00
   outer loop
     vertex  2.296213e-17  2.296213e-17  3.750000e-01
     vertex  3.947368e-02 -7.500000e-01  3.750000e-01
     vertex  3.947368e-02  2.537919e-17  3.750000e-01
   endloop
 endfacet
 facet normal  0.000000e+00  0.000000e+00  1.000000e+00
   outer loop
     vertex  2.296213e-17  2.296213e-17  3.750000e-01
     vertex  6.888638e-17 -7.500000e-01  3.750000e-01
     vertex  3.947368e-02 -7.500000e-01  3.750000e-01
   endloop
 endfacet
 facet normal -1.000000e+00 -6.123234e-17  6.123234e-17
   outer loop
     vertex  0.000000e+00  0.000000e+00  0.000000e+00
     vertex  6.888638e-17 -7.500000e-01  3.750000e-01
     vertex  2.296213e-17  2.296213e-17  3.750000e-01
   endloop
 endfacet
 facet normal -1.000000e+00 -6.123234e-17  6.123234e-17
   outer loop
     vertex  0.000000e+00  0.000000e+00  0.000000e+00
     vertex  4.592425e-17 -7.500000e-01  4.592425e-17
     vertex  6.888638e-17 -7.500000e-01  3.750000e-01
   endloop
 endfacet
 facet normal -6.123234e-17  1.000000e+00 -6.123234e-17
   outer loop
     vertex  3.750000e-01  2.296213e-17 -2.296213e-17
     vertex  0.000000e+00  0.000000e+00  0.000000e+00
     vertex  3.947368e-02  4.834132e-18  3.947368e-02
   endloop
 endfacet
 facet normal -6.123234e-17  1.000000e+00 -6.123234e-17
   outer loop
     vertex  2.296213e-17  2.296213e-17  3.750000e-01
     vertex  3.947368e-02  4.834132e-18  3.947368e-02
     vertex  0.000000e+00  0.000000e+00  0.000000e+00
   endloop
 endfacet
 facet normal -6.123234e-17  1.000000e+00 -6.123234e-17
   outer loop
     vertex  3.947368e-02  2.537919e-17  3.750000e-01
     vertex  3.947368e-02  4.834132e-18  3.947368e-02
     vertex  2.296213e-17  2.296213e-17  3.750000e-01
   endloop
 endfacet
 facet normal -6.123234e-17  1.000000e+00 -6.123234e-17
   outer loop
     vertex  3.750000e-01  2.537919e-17  3.947368e-02
     vertex  3.750000e-01  2.296213e-17 -2.296213e-17
     vertex  3.947368e-02  4.834132e-18  3.947368e-02
   endloop
 endfacet
 facet normal  0.000000e+00 -1.000000e+00  0.000000e+00
   outer loop
     vertex  3.750000e-01 -7.500000e-01  2.296213e-17
     vertex  3.947368e-02 -7.500000e-01  3.947368e-02
     vertex  4.592425e-17 -7.500000e-01  4.592425e-17
   endloop
 endfacet
 facet normal  0.000000e+00 -1.000000e+00 -0.000000e+00
   outer loop
     vertex  6.888638e-17 -7.500000e-01  3.750000e-01
     vertex  4.592425e-17 -7.500000e-01  4.592425e-17
     vertex  3.947368e-02 -7.500000e-01  3.947368e-02
   endloop
 endfacet
 facet normal -0.000000e+00 -1.000000e+00 -0.000000e+00
   outer loop
     vertex  3.947368e-02 -7.500000e-01  3.750000e-01
     vertex  6.888638e-17 -7.500000e-01  3.750000e-01
     vertex  3.947368e-02 -7.500000e-01  3.947368e-02
   endloop
 endfacet
 facet normal -0.000000e+00 -1.000000e+00 -0.000000e+00
   outer loop
     vertex  3.750000e-01 -7.500000e-01  3.947368e-02
     vertex  3.947368e-02 -7.500000e-01  3.947368e-02
     vertex  3.750000e-01 -7.500000e-01  2.296213e-17
   endloop
 endfacet
endsolid
