solid 
 facet normal  9.659258e-01 -2.588190e-01  0.000000e+00
   outer loop
     vertex -4.436238e-01  3.250822e-01  0.000000e+00
     vertex -4.218750e-01  4.062500e-01  0.000000e+00
     vertex -4.218750e-01  4.062500e-01  5.781250e-01
   endloop
 endfacet
 facet normal  9.659258e-01 -2.588190e-01  0.000000e+00
   outer loop
     vertex -4.436238e-01  3.250822e-01  0.000000e+00
     vertex -4.218750e-01  4.062500e-01  5.781250e-01
     vertex -4.436238e-01  3.250822e-01  5.781250e-01
   endloop
 endfacet
 facet normal  7.071068e-01 -7.071068e-01  0.000000e+00
   outer loop
     vertex -5.030428e-01  2.656633e-01  0.000000e+00
     vertex -4.436238e-01  3.250822e-01  5.781250e-01
     vertex -5.030428e-01  2.656633e-01  5.781250e-01
   endloop
 endfacet
 facet normal  7.071068e-01 -7.071068e-01  0.000000e+00
   outer loop
     vertex -5.030428e-01  2.656633e-01  0.000000e+00
     vertex -4.436238e-01  3.250822e-01  0.000000e+00
     vertex -4.436238e-01  3.250822e-01  5.781250e-01
   endloop
 endfacet
 facet normal  2.588190e-01 -9.659258e-01  0.000000e+00
   outer loop
     vertex -5.842105e-01  2.439145e-01  0.000000e+00
     vertex -5.030428e-01  2.656633e-01  5.781250e-01
     vertex -5.842105e-01  2.439145e-01  5.781250e-01
   endloop
 endfacet
 facet normal  2.588190e-01 -9.659258e-01  0.000000e+00
   outer loop
     vertex -5.842105e-01  2.439145e-01  0.000000e+00
     vertex -5.030428e-01  2.656633e-01  0.000000e+00
     vertex -5.030428e-01  2.656633e-01  5.781250e-01
   endloop
 endfacet
 facet normal -7.071068e-01 -7.071068e-01  0.000000e+00
   outer loop
     vertex -6.653783e-01  2.656633e-01  0.000000e+00
     vertex -6.653783e-01  2.656633e-01  5.781250e-01
     vertex -7.247972e-01  3.250822e-01  5.781250e-01
   endloop
 endfacet
 facet normal -2.588190e-01 -9.659258e-01  0.000000e+00
   outer loop
     vertex -6.653783e-01  2.656633e-01  0.000000e+00
     vertex -5.842105e-01  2.439145e-01  5.781250e-01
     vertex -6.653783e-01  2.656633e-01  5.781250e-01
   endloop
 endfacet
 facet normal -2.588190e-01 -9.659258e-01  0.000000e+00
   outer loop
     vertex -6.653783e-01  2.656633e-01  0.000000e+00
     vertex -5.842105e-01  2.439145e-01  0.000000e+00
     vertex -5.842105e-01  2.439145e-01  5.781250e-01
   endloop
 endfacet
 facet normal -7.071068e-01 -7.071068e-01  0.000000e+00
   outer loop
     vertex -7.247972e-01  3.250822e-01  0.000000e+00
     vertex -6.653783e-01  2.656633e-01  0.000000e+00
     vertex -7.247972e-01  3.250822e-01  5.781250e-01
   endloop
 endfacet
 facet normal -9.659258e-01  2.588190e-01  0.000000e+00
   outer loop
     vertex -7.465461e-01  4.062500e-01  0.000000e+00
     vertex -7.465461e-01  4.062500e-01  5.781250e-01
     vertex -7.247972e-01  4.874178e-01  5.781250e-01
   endloop
 endfacet
 facet normal -9.659258e-01 -2.588190e-01  0.000000e+00
   outer loop
     vertex -7.465461e-01  4.062500e-01  0.000000e+00
     vertex -7.247972e-01  3.250822e-01  5.781250e-01
     vertex -7.465461e-01  4.062500e-01  5.781250e-01
   endloop
 endfacet
 facet normal -9.659258e-01 -2.588190e-01  0.000000e+00
   outer loop
     vertex -7.465461e-01  4.062500e-01  0.000000e+00
     vertex -7.247972e-01  3.250822e-01  0.000000e+00
     vertex -7.247972e-01  3.250822e-01  5.781250e-01
   endloop
 endfacet
 facet normal -9.659258e-01  2.588190e-01  0.000000e+00
   outer loop
     vertex -7.247972e-01  4.874178e-01  0.000000e+00
     vertex -7.465461e-01  4.062500e-01  0.000000e+00
     vertex -7.247972e-01  4.874178e-01  5.781250e-01
   endloop
 endfacet
 facet normal -7.071068e-01  7.071068e-01  0.000000e+00
   outer loop
     vertex -6.653783e-01  5.468367e-01  0.000000e+00
     vertex -7.247972e-01  4.874178e-01  5.781250e-01
     vertex -6.653783e-01  5.468367e-01  5.781250e-01
   endloop
 endfacet
 facet normal -7.071068e-01  7.071068e-01  0.000000e+00
   outer loop
     vertex -6.653783e-01  5.468367e-01  0.000000e+00
     vertex -7.247972e-01  4.874178e-01  0.000000e+00
     vertex -7.247972e-01  4.874178e-01  5.781250e-01
   endloop
 endfacet
 facet normal  2.588190e-01  9.659258e-01 -0.000000e+00
   outer loop
     vertex -5.842105e-01  5.685855e-01  0.000000e+00
     vertex -5.842105e-01  5.685855e-01  5.781250e-01
     vertex -5.030428e-01  5.468367e-01  5.781250e-01
   endloop
 endfacet
 facet normal -2.588190e-01  9.659258e-01  0.000000e+00
   outer loop
     vertex -5.842105e-01  5.685855e-01  0.000000e+00
     vertex -6.653783e-01  5.468367e-01  5.781250e-01
     vertex -5.842105e-01  5.685855e-01  5.781250e-01
   endloop
 endfacet
 facet normal -2.588190e-01  9.659258e-01  0.000000e+00
   outer loop
     vertex -5.842105e-01  5.685855e-01  0.000000e+00
     vertex -6.653783e-01  5.468367e-01  0.000000e+00
     vertex -6.653783e-01  5.468367e-01  5.781250e-01
   endloop
 endfacet
 facet normal  2.588190e-01  9.659258e-01 -0.000000e+00
   outer loop
     vertex -5.030428e-01  5.468367e-01  0.000000e+00
     vertex -5.842105e-01  5.685855e-01  0.000000e+00
     vertex -5.030428e-01  5.468367e-01  5.781250e-01
   endloop
 endfacet
 facet normal  9.659258e-01  2.588190e-01 -0.000000e+00
   outer loop
     vertex -4.436238e-01  4.874178e-01  0.000000e+00
     vertex -4.436238e-01  4.874178e-01  5.781250e-01
     vertex -4.218750e-01  4.062500e-01  5.781250e-01
   endloop
 endfacet
 facet normal  7.071068e-01  7.071068e-01 -0.000000e+00
   outer loop
     vertex -4.436238e-01  4.874178e-01  0.000000e+00
     vertex -5.030428e-01  5.468367e-01  5.781250e-01
     vertex -4.436238e-01  4.874178e-01  5.781250e-01
   endloop
 endfacet
 facet normal  7.071068e-01  7.071068e-01  0.000000e+00
   outer loop
     vertex -4.436238e-01  4.874178e-01  0.000000e+00
     vertex -5.030428e-01  5.468367e-01  0.000000e+00
     vertex -5.030428e-01  5.468367e-01  5.781250e-01
   endloop
 endfacet
 facet normal  9.659258e-01  2.588190e-01 -0.000000e+00
   outer loop
     vertex -4.218750e-01  4.062500e-01  0.000000e+00
     vertex -4.436238e-01  4.874178e-01  0.000000e+00
     vertex -4.218750e-01  4.062500e-01  5.781250e-01
   endloop
 endfacet
 facet normal  9.659258e-01  2.588190e-01  0.000000e+00
   outer loop
     vertex -4.436238e-01  4.874178e-01  0.000000e+00
     vertex -4.218750e-01  4.062500e-01  0.000000e+00
     vertex -4.218750e-01  4.062500e-01 -5.781250e-01
   endloop
 endfacet
 facet normal  9.659258e-01  2.588190e-01  0.000000e+00
   outer loop
     vertex -4.436238e-01  4.874178e-01  0.000000e+00
     vertex -4.218750e-01  4.062500e-01 -5.781250e-01
     vertex -4.436238e-01  4.874178e-01 -5.781250e-01
   endloop
 endfacet
 facet normal  7.071068e-01  7.071068e-01  0.000000e+00
   outer loop
     vertex -5.030428e-01  5.468367e-01  0.000000e+00
     vertex -4.436238e-01  4.874178e-01 -5.781250e-01
     vertex -5.030428e-01  5.468367e-01 -5.781250e-01
   endloop
 endfacet
 facet normal  7.071068e-01  7.071068e-01  0.000000e+00
   outer loop
     vertex -5.030428e-01  5.468367e-01  0.000000e+00
     vertex -4.436238e-01  4.874178e-01  0.000000e+00
     vertex -4.436238e-01  4.874178e-01 -5.781250e-01
   endloop
 endfacet
 facet normal  2.588190e-01  9.659258e-01  0.000000e+00
   outer loop
     vertex -5.842105e-01  5.685855e-01  0.000000e+00
     vertex -5.030428e-01  5.468367e-01 -5.781250e-01
     vertex -5.842105e-01  5.685855e-01 -5.781250e-01
   endloop
 endfacet
 facet normal  2.588190e-01  9.659258e-01  0.000000e+00
   outer loop
     vertex -5.842105e-01  5.685855e-01  0.000000e+00
     vertex -5.030428e-01  5.468367e-01  0.000000e+00
     vertex -5.030428e-01  5.468367e-01 -5.781250e-01
   endloop
 endfacet
 facet normal -2.588190e-01  9.659258e-01  0.000000e+00
   outer loop
     vertex -6.653783e-01  5.468367e-01  0.000000e+00
     vertex -5.842105e-01  5.685855e-01 -5.781250e-01
     vertex -6.653783e-01  5.468367e-01 -5.781250e-01
   endloop
 endfacet
 facet normal -2.588190e-01  9.659258e-01  0.000000e+00
   outer loop
     vertex -6.653783e-01  5.468367e-01  0.000000e+00
     vertex -5.842105e-01  5.685855e-01  0.000000e+00
     vertex -5.842105e-01  5.685855e-01 -5.781250e-01
   endloop
 endfacet
 facet normal -7.071068e-01  7.071068e-01  0.000000e+00
   outer loop
     vertex -7.247972e-01  4.874178e-01  0.000000e+00
     vertex -6.653783e-01  5.468367e-01 -5.781250e-01
     vertex -7.247972e-01  4.874178e-01 -5.781250e-01
   endloop
 endfacet
 facet normal -9.659258e-01  2.588190e-01  0.000000e+00
   outer loop
     vertex -7.247972e-01  4.874178e-01  0.000000e+00
     vertex -7.247972e-01  4.874178e-01 -5.781250e-01
     vertex -7.465461e-01  4.062500e-01 -5.781250e-01
   endloop
 endfacet
 facet normal -7.071068e-01  7.071068e-01  0.000000e+00
   outer loop
     vertex -7.247972e-01  4.874178e-01  0.000000e+00
     vertex -6.653783e-01  5.468367e-01  0.000000e+00
     vertex -6.653783e-01  5.468367e-01 -5.781250e-01
   endloop
 endfacet
 facet normal -9.659258e-01  2.588190e-01  0.000000e+00
   outer loop
     vertex -7.465461e-01  4.062500e-01  0.000000e+00
     vertex -7.247972e-01  4.874178e-01  0.000000e+00
     vertex -7.465461e-01  4.062500e-01 -5.781250e-01
   endloop
 endfacet
 facet normal -9.659258e-01 -2.588190e-01 -0.000000e+00
   outer loop
     vertex -7.247972e-01  3.250822e-01  0.000000e+00
     vertex -7.465461e-01  4.062500e-01 -5.781250e-01
     vertex -7.247972e-01  3.250822e-01 -5.781250e-01
   endloop
 endfacet
 facet normal -9.659258e-01 -2.588190e-01  0.000000e+00
   outer loop
     vertex -7.247972e-01  3.250822e-01  0.000000e+00
     vertex -7.465461e-01  4.062500e-01  0.000000e+00
     vertex -7.465461e-01  4.062500e-01 -5.781250e-01
   endloop
 endfacet
 facet normal -7.071068e-01 -7.071068e-01 -0.000000e+00
   outer loop
     vertex -6.653783e-01  2.656633e-01  0.000000e+00
     vertex -7.247972e-01  3.250822e-01 -5.781250e-01
     vertex -6.653783e-01  2.656633e-01 -5.781250e-01
   endloop
 endfacet
 facet normal -2.588190e-01 -9.659258e-01 -0.000000e+00
   outer loop
     vertex -6.653783e-01  2.656633e-01  0.000000e+00
     vertex -6.653783e-01  2.656633e-01 -5.781250e-01
     vertex -5.842105e-01  2.439145e-01 -5.781250e-01
   endloop
 endfacet
 facet normal -7.071068e-01 -7.071068e-01  0.000000e+00
   outer loop
     vertex -6.653783e-01  2.656633e-01  0.000000e+00
     vertex -7.247972e-01  3.250822e-01  0.000000e+00
     vertex -7.247972e-01  3.250822e-01 -5.781250e-01
   endloop
 endfacet
 facet normal -2.588190e-01 -9.659258e-01 -0.000000e+00
   outer loop
     vertex -5.842105e-01  2.439145e-01  0.000000e+00
     vertex -6.653783e-01  2.656633e-01  0.000000e+00
     vertex -5.842105e-01  2.439145e-01 -5.781250e-01
   endloop
 endfacet
 facet normal  2.588190e-01 -9.659258e-01  0.000000e+00
   outer loop
     vertex -5.030428e-01  2.656633e-01  0.000000e+00
     vertex -5.842105e-01  2.439145e-01 -5.781250e-01
     vertex -5.030428e-01  2.656633e-01 -5.781250e-01
   endloop
 endfacet
 facet normal  2.588190e-01 -9.659258e-01  0.000000e+00
   outer loop
     vertex -5.030428e-01  2.656633e-01  0.000000e+00
     vertex -5.842105e-01  2.439145e-01  0.000000e+00
     vertex -5.842105e-01  2.439145e-01 -5.781250e-01
   endloop
 endfacet
 facet normal  7.071068e-01 -7.071068e-01  0.000000e+00
   outer loop
     vertex -4.436238e-01  3.250822e-01  0.000000e+00
     vertex -5.030428e-01  2.656633e-01 -5.781250e-01
     vertex -4.436238e-01  3.250822e-01 -5.781250e-01
   endloop
 endfacet
 facet normal  7.071068e-01 -7.071068e-01  0.000000e+00
   outer loop
     vertex -4.436238e-01  3.250822e-01  0.000000e+00
     vertex -5.030428e-01  2.656633e-01  0.000000e+00
     vertex -5.030428e-01  2.656633e-01 -5.781250e-01
   endloop
 endfacet
 facet normal  9.659258e-01 -2.588190e-01  0.000000e+00
   outer loop
     vertex -4.218750e-01  4.062500e-01  0.000000e+00
     vertex -4.436238e-01  3.250822e-01 -5.781250e-01
     vertex -4.218750e-01  4.062500e-01 -5.781250e-01
   endloop
 endfacet
 facet normal  9.659258e-01 -2.588190e-01  0.000000e+00
   outer loop
     vertex -4.218750e-01  4.062500e-01  0.000000e+00
     vertex -4.436238e-01  3.250822e-01  0.000000e+00
     vertex -4.436238e-01  3.250822e-01 -5.781250e-01
   endloop
 endfacet
 facet normal  0.000000e+00  0.000000e+00  1.000000e+00
   outer loop
     vertex -5.030428e-01  5.468367e-01  5.781250e-01
     vertex -4.218750e-01  4.062500e-01  5.781250e-01
     vertex -4.436238e-01  4.874178e-01  5.781250e-01
   endloop
 endfacet
 facet normal  0.000000e+00  0.000000e+00  1.000000e+00
   outer loop
     vertex -5.030428e-01  5.468367e-01  5.781250e-01
     vertex -5.842105e-01  5.685855e-01  5.781250e-01
     vertex -6.653783e-01  5.468367e-01  5.781250e-01
   endloop
 endfacet
 facet normal  0.000000e+00  0.000000e+00  1.000000e+00
   outer loop
     vertex -5.030428e-01  5.468367e-01  5.781250e-01
     vertex -6.653783e-01  5.468367e-01  5.781250e-01
     vertex -7.247972e-01  4.874178e-01  5.781250e-01
   endloop
 endfacet
 facet normal  0.000000e+00  0.000000e+00  1.000000e+00
   outer loop
     vertex -5.030428e-01  5.468367e-01  5.781250e-01
     vertex -7.247972e-01  4.874178e-01  5.781250e-01
     vertex -7.465461e-01  4.062500e-01  5.781250e-01
   endloop
 endfacet
 facet normal  0.000000e+00  0.000000e+00  1.000000e+00
   outer loop
     vertex -5.030428e-01  5.468367e-01  5.781250e-01
     vertex -7.465461e-01  4.062500e-01  5.781250e-01
     vertex -7.247972e-01  3.250822e-01  5.781250e-01
   endloop
 endfacet
 facet normal  0.000000e+00  0.000000e+00  1.000000e+00
   outer loop
     vertex -5.030428e-01  5.468367e-01  5.781250e-01
     vertex -7.247972e-01  3.250822e-01  5.781250e-01
     vertex -6.653783e-01  2.656633e-01  5.781250e-01
   endloop
 endfacet
 facet normal  0.000000e+00  0.000000e+00  1.000000e+00
   outer loop
     vertex -5.030428e-01  5.468367e-01  5.781250e-01
     vertex -6.653783e-01  2.656633e-01  5.781250e-01
     vertex -5.842105e-01  2.439145e-01  5.781250e-01
   endloop
 endfacet
 facet normal  0.000000e+00  0.000000e+00  1.000000e+00
   outer loop
     vertex -5.030428e-01  5.468367e-01  5.781250e-01
     vertex -5.842105e-01  2.439145e-01  5.781250e-01
     vertex -5.030428e-01  2.656633e-01  5.781250e-01
   endloop
 endfacet
 facet normal  0.000000e+00  0.000000e+00  1.000000e+00
   outer loop
     vertex -5.030428e-01  5.468367e-01  5.781250e-01
     vertex -5.030428e-01  2.656633e-01  5.781250e-01
     vertex -4.436238e-01  3.250822e-01  5.781250e-01
   endloop
 endfacet
 facet normal  0.000000e+00  0.000000e+00  1.000000e+00
   outer loop
     vertex -5.030428e-01  5.468367e-01  5.781250e-01
     vertex -4.436238e-01  3.250822e-01  5.781250e-01
     vertex -4.218750e-01  4.062500e-01  5.781250e-01
   endloop
 endfacet
 facet normal  0.000000e+00  0.000000e+00 -1.000000e+00
   outer loop
     vertex -5.030428e-01  5.468367e-01 -5.781250e-01
     vertex -4.436238e-01  4.874178e-01 -5.781250e-01
     vertex -4.218750e-01  4.062500e-01 -5.781250e-01
   endloop
 endfacet
 facet normal  0.000000e+00  0.000000e+00 -1.000000e+00
   outer loop
     vertex -5.030428e-01  5.468367e-01 -5.781250e-01
     vertex -6.653783e-01  5.468367e-01 -5.781250e-01
     vertex -5.842105e-01  5.685855e-01 -5.781250e-01
   endloop
 endfacet
 facet normal -0.000000e+00  0.000000e+00 -1.000000e+00
   outer loop
     vertex -5.030428e-01  5.468367e-01 -5.781250e-01
     vertex -7.247972e-01  4.874178e-01 -5.781250e-01
     vertex -6.653783e-01  5.468367e-01 -5.781250e-01
   endloop
 endfacet
 facet normal  0.000000e+00  0.000000e+00 -1.000000e+00
   outer loop
     vertex -5.030428e-01  5.468367e-01 -5.781250e-01
     vertex -7.465461e-01  4.062500e-01 -5.781250e-01
     vertex -7.247972e-01  4.874178e-01 -5.781250e-01
   endloop
 endfacet
 facet normal  0.000000e+00  0.000000e+00 -1.000000e+00
   outer loop
     vertex -5.030428e-01  5.468367e-01 -5.781250e-01
     vertex -7.247972e-01  3.250822e-01 -5.781250e-01
     vertex -7.465461e-01  4.062500e-01 -5.781250e-01
   endloop
 endfacet
 facet normal  0.000000e+00  0.000000e+00 -1.000000e+00
   outer loop
     vertex -5.030428e-01  5.468367e-01 -5.781250e-01
     vertex -6.653783e-01  2.656633e-01 -5.781250e-01
     vertex -7.247972e-01  3.250822e-01 -5.781250e-01
   endloop
 endfacet
 facet normal  0.000000e+00  0.000000e+00 -1.000000e+00
   outer loop
     vertex -5.030428e-01  5.468367e-01 -5.781250e-01
     vertex -5.842105e-01  2.439145e-01 -5.781250e-01
     vertex -6.653783e-01  2.656633e-01 -5.781250e-01
   endloop
 endfacet
 facet normal  0.000000e+00 -0.000000e+00 -1.000000e+00
   outer loop
     vertex -5.030428e-01  5.468367e-01 -5.781250e-01
     vertex -5.030428e-01  2.656633e-01 -5.781250e-01
     vertex -5.842105e-01  2.439145e-01 -5.781250e-01
   endloop
 endfacet
 facet normal  0.000000e+00  0.000000e+00 -1.000000e+00
   outer loop
     vertex -5.030428e-01  5.468367e-01 -5.781250e-01
     vertex -4.436238e-01  3.250822e-01 -5.781250e-01
     vertex -5.030428e-01  2.656633e-01 -5.781250e-01
   endloop
 endfacet
 facet normal  0.000000e+00  0.000000e+00 -1.000000e+00
   outer loop
     vertex -5.030428e-01  5.468367e-01 -5.781250e-01
     vertex -4.218750e-01  4.062500e-01 -5.781250e-01
     vertex -4.436238e-01  3.250822e-01 -5.781250e-01
   endloop
 endfacet
endsolid
