solid 
 facet normal  0.000000e+00  0.000000e+00 -1.000000e+00
   outer loop
     vertex  9.375000e-02  1.148106e-17 -9.375000e-02
     vertex -9.375000e-02 -3.906250e-02 -9.375000e-02
     vertex -9.375000e-02  0.000000e+00 -9.375000e-02
   endloop
 endfacet
 facet normal  0.000000e+00 -0.000000e+00 -1.000000e+00
   outer loop
     vertex  9.375000e-02  1.148106e-17 -9.375000e-02
     vertex  9.375000e-02 -3.906250e-02 -9.375000e-02
     vertex -9.375000e-02 -3.906250e-02 -9.375000e-02
   endloop
 endfacet
 facet normal -1.000000e+00  0.000000e+00  0.000000e+00
   outer loop
     vertex -9.375000e-02  0.000000e+00 -9.375000e-02
     vertex -9.375000e-02 -3.906250e-02  9.375000e-02
     vertex -9.375000e-02  1.148106e-17  9.375000e-02
   endloop
 endfacet
 facet normal -1.000000e+00  0.000000e+00  0.000000e+00
   outer loop
     vertex -9.375000e-02  0.000000e+00 -9.375000e-02
     vertex -9.375000e-02 -3.906250e-02 -9.375000e-02
     vertex -9.375000e-02 -3.906250e-02  9.375000e-02
   endloop
 endfacet
 facet normal  1.000000e+00  0.000000e+00  0.000000e+00
   outer loop
     vertex  9.375000e-02  2.296213e-17  9.375000e-02
     vertex  9.375000e-02 -3.906250e-02 -9.375000e-02
     vertex  9.375000e-02  1.148106e-17 -9.375000e-02
   endloop
 endfacet
 facet normal  1.000000e+00  0.000000e+00  0.000000e+00
   outer loop
     vertex  9.375000e-02  2.296213e-17  9.375000e-02
     vertex  9.375000e-02 -3.906250e-02  9.375000e-02
     vertex  9.375000e-02 -3.906250e-02 -9.375000e-02
   endloop
 endfacet
 facet normal -6.123234e-17  1.000000e+00 -6.123234e-17
   outer loop
     vertex  9.375000e-02  2.296213e-17  9.375000e-02
     vertex  9.375000e-02  1.148106e-17 -9.375000e-02
     vertex -9.375000e-02  0.000000e+00 -9.375000e-02
   endloop
 endfacet
 facet normal -6.123234e-17  1.000000e+00 -6.123234e-17
   outer loop
     vertex  9.375000e-02  2.296213e-17  9.375000e-02
     vertex -9.375000e-02  0.000000e+00 -9.375000e-02
     vertex -9.375000e-02  1.148106e-17  9.375000e-02
   endloop
 endfacet
 facet normal  0.000000e+00 -1.000000e+00 -0.000000e+00
   outer loop
     vertex -3.906250e-02 -3.906250e-02  4.834132e-18
     vertex -9.375000e-02 -3.906250e-02 -9.375000e-02
     vertex  4.111842e-04 -3.906250e-02 -3.947368e-02
   endloop
 endfacet
 facet normal  0.000000e+00 -1.000000e+00  0.000000e+00
   outer loop
     vertex  9.375000e-02 -3.906250e-02 -9.375000e-02
     vertex  4.111842e-04 -3.906250e-02 -3.947368e-02
     vertex -9.375000e-02 -3.906250e-02 -9.375000e-02
   endloop
 endfacet
 facet normal  0.000000e+00 -1.000000e+00  0.000000e+00
   outer loop
     vertex -9.375000e-02 -3.906250e-02  9.375000e-02
     vertex -9.375000e-02 -3.906250e-02 -9.375000e-02
     vertex -3.906250e-02 -3.906250e-02  4.834132e-18
   endloop
 endfacet
 facet normal  0.000000e+00 -1.000000e+00 -0.000000e+00
   outer loop
     vertex  3.988487e-02 -3.906250e-02 -4.834132e-18
     vertex  4.111842e-04 -3.906250e-02 -3.947368e-02
     vertex  9.375000e-02 -3.906250e-02 -9.375000e-02
   endloop
 endfacet
 facet normal -0.000000e+00 -1.000000e+00  0.000000e+00
   outer loop
     vertex  4.111842e-04 -3.906250e-02  3.947368e-02
     vertex -9.375000e-02 -3.906250e-02  9.375000e-02
     vertex -3.906250e-02 -3.906250e-02  4.834132e-18
   endloop
 endfacet
 facet normal  0.000000e+00 -1.000000e+00  0.000000e+00
   outer loop
     vertex  9.375000e-02 -3.906250e-02  9.375000e-02
     vertex  4.111842e-04 -3.906250e-02  3.947368e-02
     vertex  3.988487e-02 -3.906250e-02 -4.834132e-18
   endloop
 endfacet
 facet normal  0.000000e+00 -1.000000e+00 -0.000000e+00
   outer loop
     vertex  9.375000e-02 -3.906250e-02  9.375000e-02
     vertex  3.988487e-02 -3.906250e-02 -4.834132e-18
     vertex  9.375000e-02 -3.906250e-02 -9.375000e-02
   endloop
 endfacet
 facet normal -0.000000e+00 -1.000000e+00  0.000000e+00
   outer loop
     vertex  9.375000e-02 -3.906250e-02  9.375000e-02
     vertex -9.375000e-02 -3.906250e-02  9.375000e-02
     vertex  4.111842e-04 -3.906250e-02  3.947368e-02
   endloop
 endfacet
 facet normal -0.000000e+00  0.000000e+00  1.000000e+00
   outer loop
     vertex -9.375000e-02  1.148106e-17  9.375000e-02
     vertex  9.375000e-02 -3.906250e-02  9.375000e-02
     vertex  9.375000e-02  2.296213e-17  9.375000e-02
   endloop
 endfacet
 facet normal  0.000000e+00  0.000000e+00  1.000000e+00
   outer loop
     vertex -9.375000e-02  1.148106e-17  9.375000e-02
     vertex -9.375000e-02 -3.906250e-02  9.375000e-02
     vertex  9.375000e-02 -3.906250e-02  9.375000e-02
   endloop
 endfacet
 facet normal -5.680372e-01  9.856509e-03 -8.229439e-01
   outer loop
     vertex  4.111842e-04 -3.906250e-02 -3.947368e-02
     vertex -1.793315e-02 -7.187500e-01 -3.495221e-02
     vertex -2.576471e-02 -7.187500e-01 -2.954648e-02
   endloop
 endfacet
 facet normal -3.546029e-01  3.350551e-03 -9.350110e-01
   outer loop
     vertex  4.111842e-04 -3.906250e-02 -3.947368e-02
     vertex -9.035487e-03 -7.187500e-01 -3.832665e-02
     vertex -1.793315e-02 -7.187500e-01 -3.495221e-02
   endloop
 endfacet
 facet normal -1.205367e-01 -1.773726e-17 -9.927089e-01
   outer loop
     vertex  4.111842e-04 -3.906250e-02 -3.947368e-02
     vertex  4.111842e-04 -7.187500e-01 -3.947368e-02
     vertex -9.035487e-03 -7.187500e-01 -3.832665e-02
   endloop
 endfacet
 facet normal -7.484355e-01  1.418068e-02  6.630560e-01
   outer loop
     vertex -3.906250e-02 -3.906250e-02  4.834132e-18
     vertex -3.207502e-02 -7.187500e-01  2.242361e-02
     vertex -2.576471e-02 -7.187500e-01  2.954648e-02
   endloop
 endfacet
 facet normal -8.854388e-01  6.228720e-03  4.647142e-01
   outer loop
     vertex -3.906250e-02 -3.906250e-02  4.834132e-18
     vertex -3.649735e-02 -7.187500e-01  1.399756e-02
     vertex -3.207502e-02 -7.187500e-01  2.242361e-02
   endloop
 endfacet
 facet normal -9.709410e-01  1.264147e-03  2.393155e-01
   outer loop
     vertex -3.906250e-02 -3.906250e-02  4.834132e-18
     vertex -3.877469e-02 -7.187500e-01  4.758027e-03
     vertex -3.649735e-02 -7.187500e-01  1.399756e-02
   endloop
 endfacet
 facet normal -9.999999e-01 -4.234410e-04  2.916710e-15
   outer loop
     vertex -3.906250e-02 -3.906250e-02  4.834132e-18
     vertex -3.877469e-02 -7.187500e-01 -4.758027e-03
     vertex -3.877469e-02 -7.187500e-01  4.758027e-03
   endloop
 endfacet
 facet normal -9.709410e-01  1.264147e-03 -2.393155e-01
   outer loop
     vertex -3.906250e-02 -3.906250e-02  4.834132e-18
     vertex -3.649735e-02 -7.187500e-01 -1.399756e-02
     vertex -3.877469e-02 -7.187500e-01 -4.758027e-03
   endloop
 endfacet
 facet normal -8.854388e-01  6.228720e-03 -4.647142e-01
   outer loop
     vertex -3.906250e-02 -3.906250e-02  4.834132e-18
     vertex -3.207502e-02 -7.187500e-01 -2.242361e-02
     vertex -3.649735e-02 -7.187500e-01 -1.399756e-02
   endloop
 endfacet
 facet normal -7.484355e-01  1.418068e-02 -6.630560e-01
   outer loop
     vertex -3.906250e-02 -3.906250e-02  4.834132e-18
     vertex -2.576471e-02 -7.187500e-01 -2.954648e-02
     vertex -3.207502e-02 -7.187500e-01 -2.242361e-02
   endloop
 endfacet
 facet normal -7.070058e-01  1.690176e-02 -7.070058e-01
   outer loop
     vertex -3.906250e-02 -3.906250e-02  4.834132e-18
     vertex  4.111842e-04 -3.906250e-02 -3.947368e-02
     vertex -2.576471e-02 -7.187500e-01 -2.954648e-02
   endloop
 endfacet
 facet normal  5.680372e-01  9.856509e-03  8.229439e-01
   outer loop
     vertex  4.111842e-04 -3.906250e-02  3.947368e-02
     vertex  1.875552e-02 -7.187500e-01  3.495221e-02
     vertex  2.658708e-02 -7.187500e-01  2.954648e-02
   endloop
 endfacet
 facet normal  3.546029e-01  3.350551e-03  9.350110e-01
   outer loop
     vertex  4.111842e-04 -3.906250e-02  3.947368e-02
     vertex  9.857855e-03 -7.187500e-01  3.832665e-02
     vertex  1.875552e-02 -7.187500e-01  3.495221e-02
   endloop
 endfacet
 facet normal  1.205367e-01  8.476440e-17  9.927089e-01
   outer loop
     vertex  4.111842e-04 -3.906250e-02  3.947368e-02
     vertex  4.111842e-04 -7.187500e-01  3.947368e-02
     vertex  9.857855e-03 -7.187500e-01  3.832665e-02
   endloop
 endfacet
 facet normal -1.205367e-01  3.684975e-17  9.927089e-01
   outer loop
     vertex  4.111842e-04 -3.906250e-02  3.947368e-02
     vertex -9.035487e-03 -7.187500e-01  3.832665e-02
     vertex  4.111842e-04 -7.187500e-01  3.947368e-02
   endloop
 endfacet
 facet normal -3.546029e-01  3.350551e-03  9.350110e-01
   outer loop
     vertex  4.111842e-04 -3.906250e-02  3.947368e-02
     vertex -1.793315e-02 -7.187500e-01  3.495221e-02
     vertex -9.035487e-03 -7.187500e-01  3.832665e-02
   endloop
 endfacet
 facet normal -5.680372e-01  9.856509e-03  8.229439e-01
   outer loop
     vertex  4.111842e-04 -3.906250e-02  3.947368e-02
     vertex -2.576471e-02 -7.187500e-01  2.954648e-02
     vertex -1.793315e-02 -7.187500e-01  3.495221e-02
   endloop
 endfacet
 facet normal -7.070058e-01  1.690176e-02  7.070058e-01
   outer loop
     vertex  4.111842e-04 -3.906250e-02  3.947368e-02
     vertex -3.906250e-02 -3.906250e-02  4.834132e-18
     vertex -2.576471e-02 -7.187500e-01  2.954648e-02
   endloop
 endfacet
 facet normal  7.484355e-01  1.418068e-02 -6.630560e-01
   outer loop
     vertex  3.988487e-02 -3.906250e-02 -4.834132e-18
     vertex  3.289739e-02 -7.187500e-01 -2.242361e-02
     vertex  2.658708e-02 -7.187500e-01 -2.954648e-02
   endloop
 endfacet
 facet normal  8.854388e-01  6.228720e-03 -4.647142e-01
   outer loop
     vertex  3.988487e-02 -3.906250e-02 -4.834132e-18
     vertex  3.731972e-02 -7.187500e-01 -1.399756e-02
     vertex  3.289739e-02 -7.187500e-01 -2.242361e-02
   endloop
 endfacet
 facet normal  9.709410e-01  1.264147e-03 -2.393155e-01
   outer loop
     vertex  3.988487e-02 -3.906250e-02 -4.834132e-18
     vertex  3.959706e-02 -7.187500e-01 -4.758027e-03
     vertex  3.731972e-02 -7.187500e-01 -1.399756e-02
   endloop
 endfacet
 facet normal  9.999999e-01 -4.234410e-04  0.000000e+00
   outer loop
     vertex  3.988487e-02 -3.906250e-02 -4.834132e-18
     vertex  3.959706e-02 -7.187500e-01  4.758027e-03
     vertex  3.959706e-02 -7.187500e-01 -4.758027e-03
   endloop
 endfacet
 facet normal  9.709410e-01  1.264147e-03  2.393155e-01
   outer loop
     vertex  3.988487e-02 -3.906250e-02 -4.834132e-18
     vertex  3.731972e-02 -7.187500e-01  1.399756e-02
     vertex  3.959706e-02 -7.187500e-01  4.758027e-03
   endloop
 endfacet
 facet normal  8.854388e-01  6.228720e-03  4.647142e-01
   outer loop
     vertex  3.988487e-02 -3.906250e-02 -4.834132e-18
     vertex  3.289739e-02 -7.187500e-01  2.242361e-02
     vertex  3.731972e-02 -7.187500e-01  1.399756e-02
   endloop
 endfacet
 facet normal  7.484355e-01  1.418068e-02  6.630560e-01
   outer loop
     vertex  3.988487e-02 -3.906250e-02 -4.834132e-18
     vertex  2.658708e-02 -7.187500e-01  2.954648e-02
     vertex  3.289739e-02 -7.187500e-01  2.242361e-02
   endloop
 endfacet
 facet normal  7.070058e-01  1.690176e-02  7.070058e-01
   outer loop
     vertex  3.988487e-02 -3.906250e-02 -4.834132e-18
     vertex  4.111842e-04 -3.906250e-02  3.947368e-02
     vertex  2.658708e-02 -7.187500e-01  2.954648e-02
   endloop
 endfacet
 facet normal  1.205367e-01  1.773726e-17 -9.927089e-01
   outer loop
     vertex  4.111842e-04 -3.906250e-02 -3.947368e-02
     vertex  9.857855e-03 -7.187500e-01 -3.832665e-02
     vertex  4.111842e-04 -7.187500e-01 -3.947368e-02
   endloop
 endfacet
 facet normal  3.546029e-01  3.350551e-03 -9.350110e-01
   outer loop
     vertex  4.111842e-04 -3.906250e-02 -3.947368e-02
     vertex  1.875552e-02 -7.187500e-01 -3.495221e-02
     vertex  9.857855e-03 -7.187500e-01 -3.832665e-02
   endloop
 endfacet
 facet normal  5.680372e-01  9.856509e-03 -8.229439e-01
   outer loop
     vertex  4.111842e-04 -3.906250e-02 -3.947368e-02
     vertex  2.658708e-02 -7.187500e-01 -2.954648e-02
     vertex  1.875552e-02 -7.187500e-01 -3.495221e-02
   endloop
 endfacet
 facet normal  7.070058e-01  1.690176e-02 -7.070058e-01
   outer loop
     vertex  4.111842e-04 -3.906250e-02 -3.947368e-02
     vertex  3.988487e-02 -3.906250e-02 -4.834132e-18
     vertex  2.658708e-02 -7.187500e-01 -2.954648e-02
   endloop
 endfacet
 facet normal  0.000000e+00 -1.000000e+00  0.000000e+00
   outer loop
     vertex -2.343750e-02 -7.187500e-01 -2.343750e-02
     vertex -3.649735e-02 -7.187500e-01 -1.399756e-02
     vertex -3.207502e-02 -7.187500e-01 -2.242361e-02
   endloop
 endfacet
 facet normal -0.000000e+00 -1.000000e+00  0.000000e+00
   outer loop
     vertex -2.343750e-02 -7.187500e-01 -2.343750e-02
     vertex -3.207502e-02 -7.187500e-01 -2.242361e-02
     vertex -2.576471e-02 -7.187500e-01 -2.954648e-02
   endloop
 endfacet
 facet normal  0.000000e+00 -1.000000e+00 -0.000000e+00
   outer loop
     vertex -2.343750e-02 -7.187500e-01 -2.343750e-02
     vertex -2.576471e-02 -7.187500e-01 -2.954648e-02
     vertex -1.793315e-02 -7.187500e-01 -3.495221e-02
   endloop
 endfacet
 facet normal  0.000000e+00 -1.000000e+00  0.000000e+00
   outer loop
     vertex -2.343750e-02 -7.187500e-01 -2.343750e-02
     vertex -1.793315e-02 -7.187500e-01 -3.495221e-02
     vertex -9.035487e-03 -7.187500e-01 -3.832665e-02
   endloop
 endfacet
 facet normal  0.000000e+00 -1.000000e+00  0.000000e+00
   outer loop
     vertex -3.877469e-02 -7.187500e-01 -4.758027e-03
     vertex -3.649735e-02 -7.187500e-01 -1.399756e-02
     vertex -2.343750e-02 -7.187500e-01 -2.343750e-02
   endloop
 endfacet
 facet normal  0.000000e+00 -1.000000e+00  0.000000e+00
   outer loop
     vertex  4.111842e-04 -7.187500e-01 -3.947368e-02
     vertex -2.343750e-02 -7.187500e-01 -2.343750e-02
     vertex -9.035487e-03 -7.187500e-01 -3.832665e-02
   endloop
 endfacet
 facet normal  0.000000e+00 -1.000000e+00  0.000000e+00
   outer loop
     vertex  2.343750e-02 -7.187500e-01 -2.343750e-02
     vertex  4.111842e-04 -7.187500e-01 -3.947368e-02
     vertex  9.857855e-03 -7.187500e-01 -3.832665e-02
   endloop
 endfacet
 facet normal  0.000000e+00 -1.000000e+00  0.000000e+00
   outer loop
     vertex  2.343750e-02 -7.187500e-01 -2.343750e-02
     vertex  9.857855e-03 -7.187500e-01 -3.832665e-02
     vertex  1.875552e-02 -7.187500e-01 -3.495221e-02
   endloop
 endfacet
 facet normal  0.000000e+00 -1.000000e+00 -0.000000e+00
   outer loop
     vertex  2.343750e-02 -7.187500e-01 -2.343750e-02
     vertex  1.875552e-02 -7.187500e-01 -3.495221e-02
     vertex  2.658708e-02 -7.187500e-01 -2.954648e-02
   endloop
 endfacet
 facet normal -0.000000e+00 -1.000000e+00  0.000000e+00
   outer loop
     vertex  2.343750e-02 -7.187500e-01 -2.343750e-02
     vertex -2.343750e-02 -7.187500e-01 -2.343750e-02
     vertex  4.111842e-04 -7.187500e-01 -3.947368e-02
   endloop
 endfacet
 facet normal  0.000000e+00 -1.000000e+00  0.000000e+00
   outer loop
     vertex -2.343750e-02 -7.187500e-01  2.343750e-02
     vertex -3.207502e-02 -7.187500e-01  2.242361e-02
     vertex -3.649735e-02 -7.187500e-01  1.399756e-02
   endloop
 endfacet
 facet normal  0.000000e+00 -1.000000e+00  0.000000e+00
   outer loop
     vertex -2.343750e-02 -7.187500e-01  2.343750e-02
     vertex -3.649735e-02 -7.187500e-01  1.399756e-02
     vertex -3.877469e-02 -7.187500e-01  4.758027e-03
   endloop
 endfacet
 facet normal  0.000000e+00 -1.000000e+00  0.000000e+00
   outer loop
     vertex -2.343750e-02 -7.187500e-01  2.343750e-02
     vertex -3.877469e-02 -7.187500e-01  4.758027e-03
     vertex -3.877469e-02 -7.187500e-01 -4.758027e-03
   endloop
 endfacet
 facet normal  0.000000e+00 -1.000000e+00 -0.000000e+00
   outer loop
     vertex -2.343750e-02 -7.187500e-01  2.343750e-02
     vertex -3.877469e-02 -7.187500e-01 -4.758027e-03
     vertex -2.343750e-02 -7.187500e-01 -2.343750e-02
   endloop
 endfacet
 facet normal  0.000000e+00 -1.000000e+00 -0.000000e+00
   outer loop
     vertex -2.576471e-02 -7.187500e-01  2.954648e-02
     vertex -3.207502e-02 -7.187500e-01  2.242361e-02
     vertex -2.343750e-02 -7.187500e-01  2.343750e-02
   endloop
 endfacet
 facet normal  0.000000e+00 -1.000000e+00  0.000000e+00
   outer loop
     vertex  3.289739e-02 -7.187500e-01 -2.242361e-02
     vertex  2.343750e-02 -7.187500e-01 -2.343750e-02
     vertex  2.658708e-02 -7.187500e-01 -2.954648e-02
   endloop
 endfacet
 facet normal  0.000000e+00 -1.000000e+00  0.000000e+00
   outer loop
     vertex -1.793315e-02 -7.187500e-01  3.495221e-02
     vertex -2.576471e-02 -7.187500e-01  2.954648e-02
     vertex -2.343750e-02 -7.187500e-01  2.343750e-02
   endloop
 endfacet
 facet normal  0.000000e+00 -1.000000e+00  0.000000e+00
   outer loop
     vertex  3.731972e-02 -7.187500e-01 -1.399756e-02
     vertex  2.343750e-02 -7.187500e-01 -2.343750e-02
     vertex  3.289739e-02 -7.187500e-01 -2.242361e-02
   endloop
 endfacet
 facet normal  0.000000e+00 -1.000000e+00  0.000000e+00
   outer loop
     vertex -9.035487e-03 -7.187500e-01  3.832665e-02
     vertex -1.793315e-02 -7.187500e-01  3.495221e-02
     vertex -2.343750e-02 -7.187500e-01  2.343750e-02
   endloop
 endfacet
 facet normal  0.000000e+00 -1.000000e+00  0.000000e+00
   outer loop
     vertex  3.959706e-02 -7.187500e-01 -4.758027e-03
     vertex  2.343750e-02 -7.187500e-01 -2.343750e-02
     vertex  3.731972e-02 -7.187500e-01 -1.399756e-02
   endloop
 endfacet
 facet normal  0.000000e+00 -1.000000e+00  0.000000e+00
   outer loop
     vertex  4.111842e-04 -7.187500e-01  3.947368e-02
     vertex -9.035487e-03 -7.187500e-01  3.832665e-02
     vertex -2.343750e-02 -7.187500e-01  2.343750e-02
   endloop
 endfacet
 facet normal  0.000000e+00 -1.000000e+00  0.000000e+00
   outer loop
     vertex  2.343750e-02 -7.187500e-01  2.343750e-02
     vertex  3.959706e-02 -7.187500e-01 -4.758027e-03
     vertex  3.959706e-02 -7.187500e-01  4.758027e-03
   endloop
 endfacet
 facet normal  0.000000e+00 -1.000000e+00  0.000000e+00
   outer loop
     vertex  2.343750e-02 -7.187500e-01  2.343750e-02
     vertex  2.343750e-02 -7.187500e-01 -2.343750e-02
     vertex  3.959706e-02 -7.187500e-01 -4.758027e-03
   endloop
 endfacet
 facet normal  0.000000e+00 -1.000000e+00  0.000000e+00
   outer loop
     vertex  2.343750e-02 -7.187500e-01  2.343750e-02
     vertex  4.111842e-04 -7.187500e-01  3.947368e-02
     vertex -2.343750e-02 -7.187500e-01  2.343750e-02
   endloop
 endfacet
 facet normal -0.000000e+00 -1.000000e+00 -0.000000e+00
   outer loop
     vertex  9.857855e-03 -7.187500e-01  3.832665e-02
     vertex  4.111842e-04 -7.187500e-01  3.947368e-02
     vertex  2.343750e-02 -7.187500e-01  2.343750e-02
   endloop
 endfacet
 facet normal -0.000000e+00 -1.000000e+00 -0.000000e+00
   outer loop
     vertex  3.731972e-02 -7.187500e-01  1.399756e-02
     vertex  2.343750e-02 -7.187500e-01  2.343750e-02
     vertex  3.959706e-02 -7.187500e-01  4.758027e-03
   endloop
 endfacet
 facet normal -0.000000e+00 -1.000000e+00 -0.000000e+00
   outer loop
     vertex  1.875552e-02 -7.187500e-01  3.495221e-02
     vertex  9.857855e-03 -7.187500e-01  3.832665e-02
     vertex  2.343750e-02 -7.187500e-01  2.343750e-02
   endloop
 endfacet
 facet normal -0.000000e+00 -1.000000e+00 -0.000000e+00
   outer loop
     vertex  3.289739e-02 -7.187500e-01  2.242361e-02
     vertex  2.343750e-02 -7.187500e-01  2.343750e-02
     vertex  3.731972e-02 -7.187500e-01  1.399756e-02
   endloop
 endfacet
 facet normal -0.000000e+00 -1.000000e+00  0.000000e+00
   outer loop
     vertex  2.658708e-02 -7.187500e-01  2.954648e-02
     vertex  1.875552e-02 -7.187500e-01  3.495221e-02
     vertex  2.343750e-02 -7.187500e-01  2.343750e-02
   endloop
 endfacet
 facet normal  0.000000e+00 -1.000000e+00 -0.000000e+00
   outer loop
     vertex  2.658708e-02 -7.187500e-01  2.954648e-02
     vertex  2.343750e-02 -7.187500e-01  2.343750e-02
     vertex  3.289739e-02 -7.187500e-01  2.242361e-02
   endloop
 endfacet
 facet normal -0.000000e+00  0.000000e+00 -1.000000e+00
   outer loop
     vertex  2.343750e-02 -7.187500e-01 -2.343750e-02
     vertex -2.343750e-02 -7.500000e-01 -2.343750e-02
     vertex -2.343750e-02 -7.187500e-01 -2.343750e-02
   endloop
 endfacet
 facet normal  0.000000e+00 -0.000000e+00 -1.000000e+00
   outer loop
     vertex  2.343750e-02 -7.187500e-01 -2.343750e-02
     vertex  2.343750e-02 -7.500000e-01 -2.343750e-02
     vertex -2.343750e-02 -7.500000e-01 -2.343750e-02
   endloop
 endfacet
 facet normal  1.000000e+00  0.000000e+00  0.000000e+00
   outer loop
     vertex  2.343750e-02 -7.187500e-01  2.343750e-02
     vertex  2.343750e-02 -7.500000e-01 -2.343750e-02
     vertex  2.343750e-02 -7.187500e-01 -2.343750e-02
   endloop
 endfacet
 facet normal  1.000000e+00  0.000000e+00  0.000000e+00
   outer loop
     vertex  2.343750e-02 -7.187500e-01  2.343750e-02
     vertex  2.343750e-02 -7.500000e-01  2.343750e-02
     vertex  2.343750e-02 -7.500000e-01 -2.343750e-02
   endloop
 endfacet
 facet normal -0.000000e+00  0.000000e+00  1.000000e+00
   outer loop
     vertex -2.343750e-02 -7.187500e-01  2.343750e-02
     vertex  2.343750e-02 -7.500000e-01  2.343750e-02
     vertex  2.343750e-02 -7.187500e-01  2.343750e-02
   endloop
 endfacet
 facet normal  0.000000e+00  0.000000e+00  1.000000e+00
   outer loop
     vertex -2.343750e-02 -7.187500e-01  2.343750e-02
     vertex -2.343750e-02 -7.500000e-01  2.343750e-02
     vertex  2.343750e-02 -7.500000e-01  2.343750e-02
   endloop
 endfacet
 facet normal -1.000000e+00  0.000000e+00  0.000000e+00
   outer loop
     vertex -2.343750e-02 -7.187500e-01 -2.343750e-02
     vertex -2.343750e-02 -7.500000e-01  2.343750e-02
     vertex -2.343750e-02 -7.187500e-01  2.343750e-02
   endloop
 endfacet
 facet normal -1.000000e+00  0.000000e+00  0.000000e+00
   outer loop
     vertex -2.343750e-02 -7.187500e-01 -2.343750e-02
     vertex -2.343750e-02 -7.500000e-01 -2.343750e-02
     vertex -2.343750e-02 -7.500000e-01  2.343750e-02
   endloop
 endfacet
 facet normal  0.000000e+00 -1.000000e+00 -0.000000e+00
   outer loop
     vertex  2.343750e-02 -7.500000e-01  2.343750e-02
     vertex -2.343750e-02 -7.500000e-01 -2.343750e-02
     vertex  2.343750e-02 -7.500000e-01 -2.343750e-02
   endloop
 endfacet
 facet normal -0.000000e+00 -1.000000e+00  0.000000e+00
   outer loop
     vertex  2.343750e-02 -7.500000e-01  2.343750e-02
     vertex -2.343750e-02 -7.500000e-01  2.343750e-02
     vertex -2.343750e-02 -7.500000e-01 -2.343750e-02
   endloop
 endfacet
endsolid
