solid 
 facet normal -0.000000e+00 -1.000000e+00  0.000000e+00
   outer loop
     vertex -3.593750e-01 -3.750000e-01  1.562500e-02
     vertex -3.750000e-01 -3.750000e-01  7.500000e-01
     vertex -3.750000e-01 -3.750000e-01  0.000000e+00
   endloop
 endfacet
 facet normal  0.000000e+00 -1.000000e+00  0.000000e+00
   outer loop
     vertex -3.593750e-01 -3.750000e-01  1.562500e-02
     vertex -3.593750e-01 -3.750000e-01  7.421875e-01
     vertex -3.750000e-01 -3.750000e-01  7.500000e-01
   endloop
 endfacet
 facet normal  0.000000e+00 -1.000000e+00  0.000000e+00
   outer loop
     vertex  3.750000e-01 -3.750000e-01  7.500000e-01
     vertex -3.593750e-01 -3.750000e-01  7.421875e-01
     vertex  3.671875e-01 -3.750000e-01  7.421875e-01
   endloop
 endfacet
 facet normal -0.000000e+00 -1.000000e+00  0.000000e+00
   outer loop
     vertex  3.750000e-01 -3.750000e-01  7.500000e-01
     vertex -3.750000e-01 -3.750000e-01  7.500000e-01
     vertex -3.593750e-01 -3.750000e-01  7.421875e-01
   endloop
 endfacet
 facet normal  0.000000e+00 -1.000000e+00  0.000000e+00
   outer loop
     vertex  3.671875e-01 -3.750000e-01  1.562500e-02
     vertex  3.750000e-01 -3.750000e-01  7.500000e-01
     vertex  3.671875e-01 -3.750000e-01  7.421875e-01
   endloop
 endfacet
 facet normal  0.000000e+00 -1.000000e+00  0.000000e+00
   outer loop
     vertex  3.750000e-01 -3.750000e-01  0.000000e+00
     vertex  3.671875e-01 -3.750000e-01  1.562500e-02
     vertex -3.593750e-01 -3.750000e-01  1.562500e-02
   endloop
 endfacet
 facet normal  0.000000e+00 -1.000000e+00  0.000000e+00
   outer loop
     vertex  3.750000e-01 -3.750000e-01  0.000000e+00
     vertex  3.750000e-01 -3.750000e-01  7.500000e-01
     vertex  3.671875e-01 -3.750000e-01  1.562500e-02
   endloop
 endfacet
 facet normal  0.000000e+00 -1.000000e+00  0.000000e+00
   outer loop
     vertex  3.750000e-01 -3.750000e-01  0.000000e+00
     vertex -3.593750e-01 -3.750000e-01  1.562500e-02
     vertex -3.750000e-01 -3.750000e-01  0.000000e+00
   endloop
 endfacet
 facet normal -1.000000e+00  0.000000e+00  0.000000e+00
   outer loop
     vertex -3.750000e-01 -3.593750e-01  7.421875e-01
     vertex -3.750000e-01  3.750000e-01  7.500000e-01
     vertex -3.750000e-01  3.671875e-01  7.421875e-01
   endloop
 endfacet
 facet normal -1.000000e+00  0.000000e+00  0.000000e+00
   outer loop
     vertex -3.750000e-01  3.671875e-01  1.562500e-02
     vertex -3.750000e-01  3.671875e-01  7.421875e-01
     vertex -3.750000e-01  3.750000e-01  7.500000e-01
   endloop
 endfacet
 facet normal -1.000000e+00  0.000000e+00  0.000000e+00
   outer loop
     vertex -3.750000e-01  3.750000e-01  0.000000e+00
     vertex -3.750000e-01  3.671875e-01  1.562500e-02
     vertex -3.750000e-01  3.750000e-01  7.500000e-01
   endloop
 endfacet
 facet normal -1.000000e+00  0.000000e+00  0.000000e+00
   outer loop
     vertex -3.750000e-01 -3.750000e-01  7.500000e-01
     vertex -3.750000e-01  3.750000e-01  7.500000e-01
     vertex -3.750000e-01 -3.593750e-01  7.421875e-01
   endloop
 endfacet
 facet normal -1.000000e+00  0.000000e+00  0.000000e+00
   outer loop
     vertex -3.750000e-01 -3.593750e-01  1.562500e-02
     vertex -3.750000e-01  3.671875e-01  1.562500e-02
     vertex -3.750000e-01  3.750000e-01  0.000000e+00
   endloop
 endfacet
 facet normal -1.000000e+00  0.000000e+00  0.000000e+00
   outer loop
     vertex -3.750000e-01 -3.593750e-01  1.562500e-02
     vertex -3.750000e-01 -3.750000e-01  7.500000e-01
     vertex -3.750000e-01 -3.593750e-01  7.421875e-01
   endloop
 endfacet
 facet normal -1.000000e+00  0.000000e+00  0.000000e+00
   outer loop
     vertex -3.750000e-01 -3.750000e-01  0.000000e+00
     vertex -3.750000e-01 -3.750000e-01  7.500000e-01
     vertex -3.750000e-01 -3.593750e-01  1.562500e-02
   endloop
 endfacet
 facet normal -1.000000e+00  0.000000e+00  0.000000e+00
   outer loop
     vertex -3.750000e-01 -3.750000e-01  0.000000e+00
     vertex -3.750000e-01 -3.593750e-01  1.562500e-02
     vertex -3.750000e-01  3.750000e-01  0.000000e+00
   endloop
 endfacet
 facet normal  0.000000e+00  0.000000e+00 -1.000000e+00
   outer loop
     vertex  3.750000e-01 -3.750000e-01  0.000000e+00
     vertex -3.592105e-01 -3.592105e-01  0.000000e+00
     vertex  3.592105e-01 -3.592105e-01  0.000000e+00
   endloop
 endfacet
 facet normal  0.000000e+00  0.000000e+00 -1.000000e+00
   outer loop
     vertex  3.750000e-01 -3.750000e-01  0.000000e+00
     vertex -3.750000e-01 -3.750000e-01  0.000000e+00
     vertex -3.592105e-01 -3.592105e-01  0.000000e+00
   endloop
 endfacet
 facet normal  0.000000e+00  0.000000e+00 -1.000000e+00
   outer loop
     vertex -3.750000e-01  3.750000e-01  0.000000e+00
     vertex -3.592105e-01  3.592105e-01  0.000000e+00
     vertex -3.592105e-01 -3.592105e-01  0.000000e+00
   endloop
 endfacet
 facet normal  0.000000e+00  0.000000e+00 -1.000000e+00
   outer loop
     vertex -3.750000e-01  3.750000e-01  0.000000e+00
     vertex -3.592105e-01 -3.592105e-01  0.000000e+00
     vertex -3.750000e-01 -3.750000e-01  0.000000e+00
   endloop
 endfacet
 facet normal  0.000000e+00  0.000000e+00 -1.000000e+00
   outer loop
     vertex  3.750000e-01  3.750000e-01  0.000000e+00
     vertex  3.592105e-01 -3.592105e-01  0.000000e+00
     vertex  3.592105e-01  3.592105e-01  0.000000e+00
   endloop
 endfacet
 facet normal  0.000000e+00 -0.000000e+00 -1.000000e+00
   outer loop
     vertex  3.750000e-01  3.750000e-01  0.000000e+00
     vertex  3.750000e-01 -3.750000e-01  0.000000e+00
     vertex  3.592105e-01 -3.592105e-01  0.000000e+00
   endloop
 endfacet
 facet normal -0.000000e+00  0.000000e+00 -1.000000e+00
   outer loop
     vertex  3.750000e-01  3.750000e-01  0.000000e+00
     vertex -3.592105e-01  3.592105e-01  0.000000e+00
     vertex -3.750000e-01  3.750000e-01  0.000000e+00
   endloop
 endfacet
 facet normal  0.000000e+00  0.000000e+00 -1.000000e+00
   outer loop
     vertex  3.750000e-01  3.750000e-01  0.000000e+00
     vertex  3.592105e-01  3.592105e-01  0.000000e+00
     vertex -3.592105e-01  3.592105e-01  0.000000e+00
   endloop
 endfacet
 facet normal  0.000000e+00  0.000000e+00  1.000000e+00
   outer loop
     vertex  3.750000e-01 -3.750000e-01  7.500000e-01
     vertex  3.592105e-01 -3.592105e-01  7.500000e-01
     vertex -3.592105e-01 -3.592105e-01  7.500000e-01
   endloop
 endfacet
 facet normal  0.000000e+00  0.000000e+00  1.000000e+00
   outer loop
     vertex  3.750000e-01 -3.750000e-01  7.500000e-01
     vertex -3.592105e-01 -3.592105e-01  7.500000e-01
     vertex -3.750000e-01 -3.750000e-01  7.500000e-01
   endloop
 endfacet
 facet normal  0.000000e+00  0.000000e+00  1.000000e+00
   outer loop
     vertex -3.750000e-01  3.750000e-01  7.500000e-01
     vertex -3.592105e-01 -3.592105e-01  7.500000e-01
     vertex -3.592105e-01  3.592105e-01  7.500000e-01
   endloop
 endfacet
 facet normal  0.000000e+00  0.000000e+00  1.000000e+00
   outer loop
     vertex -3.750000e-01  3.750000e-01  7.500000e-01
     vertex -3.750000e-01 -3.750000e-01  7.500000e-01
     vertex -3.592105e-01 -3.592105e-01  7.500000e-01
   endloop
 endfacet
 facet normal  0.000000e+00  0.000000e+00  1.000000e+00
   outer loop
     vertex  3.750000e-01  3.750000e-01  7.500000e-01
     vertex  3.592105e-01  3.592105e-01  7.500000e-01
     vertex  3.592105e-01 -3.592105e-01  7.500000e-01
   endloop
 endfacet
 facet normal  0.000000e+00  0.000000e+00  1.000000e+00
   outer loop
     vertex  3.750000e-01  3.750000e-01  7.500000e-01
     vertex  3.592105e-01 -3.592105e-01  7.500000e-01
     vertex  3.750000e-01 -3.750000e-01  7.500000e-01
   endloop
 endfacet
 facet normal  0.000000e+00  0.000000e+00  1.000000e+00
   outer loop
     vertex  3.750000e-01  3.750000e-01  7.500000e-01
     vertex -3.750000e-01  3.750000e-01  7.500000e-01
     vertex -3.592105e-01  3.592105e-01  7.500000e-01
   endloop
 endfacet
 facet normal  0.000000e+00  0.000000e+00  1.000000e+00
   outer loop
     vertex  3.750000e-01  3.750000e-01  7.500000e-01
     vertex -3.592105e-01  3.592105e-01  7.500000e-01
     vertex  3.592105e-01  3.592105e-01  7.500000e-01
   endloop
 endfacet
 facet normal  1.000000e+00  0.000000e+00  0.000000e+00
   outer loop
     vertex  3.750000e-01 -3.593750e-01  1.562500e-02
     vertex  3.750000e-01 -3.750000e-01  7.500000e-01
     vertex  3.750000e-01 -3.750000e-01  0.000000e+00
   endloop
 endfacet
 facet normal  1.000000e+00  0.000000e+00 -0.000000e+00
   outer loop
     vertex  3.750000e-01 -3.593750e-01  1.562500e-02
     vertex  3.750000e-01 -3.593750e-01  7.421875e-01
     vertex  3.750000e-01 -3.750000e-01  7.500000e-01
   endloop
 endfacet
 facet normal  1.000000e+00  0.000000e+00  0.000000e+00
   outer loop
     vertex  3.750000e-01  3.750000e-01  7.500000e-01
     vertex  3.750000e-01 -3.593750e-01  7.421875e-01
     vertex  3.750000e-01  3.671875e-01  7.421875e-01
   endloop
 endfacet
 facet normal  1.000000e+00  0.000000e+00  0.000000e+00
   outer loop
     vertex  3.750000e-01  3.750000e-01  7.500000e-01
     vertex  3.750000e-01 -3.750000e-01  7.500000e-01
     vertex  3.750000e-01 -3.593750e-01  7.421875e-01
   endloop
 endfacet
 facet normal  1.000000e+00  0.000000e+00  0.000000e+00
   outer loop
     vertex  3.750000e-01  3.671875e-01  1.562500e-02
     vertex  3.750000e-01  3.750000e-01  7.500000e-01
     vertex  3.750000e-01  3.671875e-01  7.421875e-01
   endloop
 endfacet
 facet normal  1.000000e+00  0.000000e+00  0.000000e+00
   outer loop
     vertex  3.750000e-01  3.750000e-01  0.000000e+00
     vertex  3.750000e-01  3.671875e-01  1.562500e-02
     vertex  3.750000e-01 -3.593750e-01  1.562500e-02
   endloop
 endfacet
 facet normal  1.000000e+00  0.000000e+00 -0.000000e+00
   outer loop
     vertex  3.750000e-01  3.750000e-01  0.000000e+00
     vertex  3.750000e-01  3.750000e-01  7.500000e-01
     vertex  3.750000e-01  3.671875e-01  1.562500e-02
   endloop
 endfacet
 facet normal  1.000000e+00  0.000000e+00  0.000000e+00
   outer loop
     vertex  3.750000e-01  3.750000e-01  0.000000e+00
     vertex  3.750000e-01 -3.593750e-01  1.562500e-02
     vertex  3.750000e-01 -3.750000e-01  0.000000e+00
   endloop
 endfacet
 facet normal  1.000000e+00  0.000000e+00 -0.000000e+00
   outer loop
     vertex -3.593750e-01 -3.593750e-01  1.562500e-02
     vertex -3.593750e-01 -3.593750e-01  7.421875e-01
     vertex -3.593750e-01 -3.750000e-01  7.421875e-01
   endloop
 endfacet
 facet normal  1.000000e+00  0.000000e+00  0.000000e+00
   outer loop
     vertex -3.593750e-01 -3.593750e-01  1.562500e-02
     vertex -3.593750e-01 -3.750000e-01  7.421875e-01
     vertex -3.593750e-01 -3.750000e-01  1.562500e-02
   endloop
 endfacet
 facet normal  0.000000e+00  0.000000e+00 -1.000000e+00
   outer loop
     vertex -4.448912e-17 -3.593750e-01  7.421875e-01
     vertex  3.671875e-01 -3.593750e-01  7.421875e-01
     vertex  3.671875e-01 -3.750000e-01  7.421875e-01
   endloop
 endfacet
 facet normal  0.000000e+00  0.000000e+00 -1.000000e+00
   outer loop
     vertex -3.593750e-01 -3.750000e-01  7.421875e-01
     vertex -4.448912e-17 -3.593750e-01  7.421875e-01
     vertex  3.671875e-01 -3.750000e-01  7.421875e-01
   endloop
 endfacet
 facet normal  0.000000e+00  0.000000e+00 -1.000000e+00
   outer loop
     vertex -3.593750e-01 -3.593750e-01  7.421875e-01
     vertex -4.448912e-17 -3.593750e-01  7.421875e-01
     vertex -3.593750e-01 -3.750000e-01  7.421875e-01
   endloop
 endfacet
 facet normal -1.000000e+00  0.000000e+00 -0.000000e+00
   outer loop
     vertex  3.671875e-01 -3.593750e-01  7.421875e-01
     vertex  3.671875e-01 -3.593750e-01  1.562500e-02
     vertex  3.671875e-01 -3.750000e-01  1.562500e-02
   endloop
 endfacet
 facet normal -1.000000e+00 -0.000000e+00  0.000000e+00
   outer loop
     vertex  3.671875e-01 -3.593750e-01  7.421875e-01
     vertex  3.671875e-01 -3.750000e-01  1.562500e-02
     vertex  3.671875e-01 -3.750000e-01  7.421875e-01
   endloop
 endfacet
 facet normal  0.000000e+00  0.000000e+00  1.000000e+00
   outer loop
     vertex  0.000000e+00 -3.593750e-01  1.562500e-02
     vertex -3.593750e-01 -3.593750e-01  1.562500e-02
     vertex -3.593750e-01 -3.750000e-01  1.562500e-02
   endloop
 endfacet
 facet normal  0.000000e+00  0.000000e+00  1.000000e+00
   outer loop
     vertex  3.671875e-01 -3.750000e-01  1.562500e-02
     vertex  0.000000e+00 -3.593750e-01  1.562500e-02
     vertex -3.593750e-01 -3.750000e-01  1.562500e-02
   endloop
 endfacet
 facet normal  0.000000e+00  0.000000e+00  1.000000e+00
   outer loop
     vertex  3.671875e-01 -3.593750e-01  1.562500e-02
     vertex  0.000000e+00 -3.593750e-01  1.562500e-02
     vertex  3.671875e-01 -3.750000e-01  1.562500e-02
   endloop
 endfacet
 facet normal  0.000000e+00  1.000000e+00  0.000000e+00
   outer loop
     vertex -3.593750e-01  3.750000e-01  7.421875e-01
     vertex  3.750000e-01  3.750000e-01  7.500000e-01
     vertex  3.671875e-01  3.750000e-01  7.421875e-01
   endloop
 endfacet
 facet normal  0.000000e+00  1.000000e+00  0.000000e+00
   outer loop
     vertex  3.671875e-01  3.750000e-01  1.562500e-02
     vertex  3.671875e-01  3.750000e-01  7.421875e-01
     vertex  3.750000e-01  3.750000e-01  7.500000e-01
   endloop
 endfacet
 facet normal  0.000000e+00  1.000000e+00 -0.000000e+00
   outer loop
     vertex  3.750000e-01  3.750000e-01  0.000000e+00
     vertex  3.671875e-01  3.750000e-01  1.562500e-02
     vertex  3.750000e-01  3.750000e-01  7.500000e-01
   endloop
 endfacet
 facet normal -0.000000e+00  1.000000e+00  0.000000e+00
   outer loop
     vertex -3.750000e-01  3.750000e-01  7.500000e-01
     vertex  3.750000e-01  3.750000e-01  7.500000e-01
     vertex -3.593750e-01  3.750000e-01  7.421875e-01
   endloop
 endfacet
 facet normal -0.000000e+00  1.000000e+00  0.000000e+00
   outer loop
     vertex -3.593750e-01  3.750000e-01  1.562500e-02
     vertex  3.671875e-01  3.750000e-01  1.562500e-02
     vertex  3.750000e-01  3.750000e-01  0.000000e+00
   endloop
 endfacet
 facet normal  0.000000e+00  1.000000e+00 -0.000000e+00
   outer loop
     vertex -3.593750e-01  3.750000e-01  1.562500e-02
     vertex -3.750000e-01  3.750000e-01  7.500000e-01
     vertex -3.593750e-01  3.750000e-01  7.421875e-01
   endloop
 endfacet
 facet normal  0.000000e+00  1.000000e+00  0.000000e+00
   outer loop
     vertex -3.750000e-01  3.750000e-01  0.000000e+00
     vertex -3.750000e-01  3.750000e-01  7.500000e-01
     vertex -3.593750e-01  3.750000e-01  1.562500e-02
   endloop
 endfacet
 facet normal  0.000000e+00  1.000000e+00  0.000000e+00
   outer loop
     vertex -3.750000e-01  3.750000e-01  0.000000e+00
     vertex -3.593750e-01  3.750000e-01  1.562500e-02
     vertex  3.750000e-01  3.750000e-01  0.000000e+00
   endloop
 endfacet
 facet normal  0.000000e+00  0.000000e+00  1.000000e+00
   outer loop
     vertex -3.593750e-01  0.000000e+00  1.562500e-02
     vertex -3.750000e-01 -3.593750e-01  1.562500e-02
     vertex -3.593750e-01 -3.593750e-01  1.562500e-02
   endloop
 endfacet
 facet normal  0.000000e+00  0.000000e+00  1.000000e+00
   outer loop
     vertex -3.750000e-01  3.671875e-01  1.562500e-02
     vertex -3.750000e-01 -3.593750e-01  1.562500e-02
     vertex -3.593750e-01  0.000000e+00  1.562500e-02
   endloop
 endfacet
 facet normal  0.000000e+00  0.000000e+00  1.000000e+00
   outer loop
     vertex -3.593750e-01  3.671875e-01  1.562500e-02
     vertex -3.750000e-01  3.671875e-01  1.562500e-02
     vertex -3.593750e-01  0.000000e+00  1.562500e-02
   endloop
 endfacet
 facet normal  0.000000e+00 -1.000000e+00 -0.000000e+00
   outer loop
     vertex -3.593750e-01  3.671875e-01  7.421875e-01
     vertex -3.750000e-01  3.671875e-01  1.562500e-02
     vertex -3.593750e-01  3.671875e-01  1.562500e-02
   endloop
 endfacet
 facet normal -0.000000e+00 -1.000000e+00  0.000000e+00
   outer loop
     vertex -3.593750e-01  3.671875e-01  7.421875e-01
     vertex -3.750000e-01  3.671875e-01  7.421875e-01
     vertex -3.750000e-01  3.671875e-01  1.562500e-02
   endloop
 endfacet
 facet normal  0.000000e+00  0.000000e+00 -1.000000e+00
   outer loop
     vertex -3.593750e-01  4.448912e-17  7.421875e-01
     vertex -3.750000e-01  3.671875e-01  7.421875e-01
     vertex -3.593750e-01  3.671875e-01  7.421875e-01
   endloop
 endfacet
 facet normal  0.000000e+00  0.000000e+00 -1.000000e+00
   outer loop
     vertex -3.750000e-01 -3.593750e-01  7.421875e-01
     vertex -3.750000e-01  3.671875e-01  7.421875e-01
     vertex -3.593750e-01  4.448912e-17  7.421875e-01
   endloop
 endfacet
 facet normal  0.000000e+00  0.000000e+00 -1.000000e+00
   outer loop
     vertex -3.593750e-01 -3.593750e-01  7.421875e-01
     vertex -3.750000e-01 -3.593750e-01  7.421875e-01
     vertex -3.593750e-01  4.448912e-17  7.421875e-01
   endloop
 endfacet
 facet normal  0.000000e+00  1.000000e+00 -0.000000e+00
   outer loop
     vertex -3.593750e-01 -3.593750e-01  1.562500e-02
     vertex -3.750000e-01 -3.593750e-01  7.421875e-01
     vertex -3.593750e-01 -3.593750e-01  7.421875e-01
   endloop
 endfacet
 facet normal  0.000000e+00  1.000000e+00  0.000000e+00
   outer loop
     vertex -3.593750e-01 -3.593750e-01  1.562500e-02
     vertex -3.750000e-01 -3.593750e-01  1.562500e-02
     vertex -3.750000e-01 -3.593750e-01  7.421875e-01
   endloop
 endfacet
 facet normal  0.000000e+00  1.000000e+00  0.000000e+00
   outer loop
     vertex  3.083388e-37 -3.592105e-01  1.562500e-02
     vertex -3.592105e-01 -3.592105e-01  0.000000e+00
     vertex -3.592105e-01 -3.592105e-01  1.562500e-02
   endloop
 endfacet
 facet normal  0.000000e+00  1.000000e+00 -0.000000e+00
   outer loop
     vertex  3.592105e-01 -3.592105e-01  0.000000e+00
     vertex  3.083388e-37 -3.592105e-01  1.562500e-02
     vertex  3.592105e-01 -3.592105e-01  1.562500e-02
   endloop
 endfacet
 facet normal  0.000000e+00  1.000000e+00  0.000000e+00
   outer loop
     vertex  3.592105e-01 -3.592105e-01  0.000000e+00
     vertex -3.592105e-01 -3.592105e-01  0.000000e+00
     vertex  3.083388e-37 -3.592105e-01  1.562500e-02
   endloop
 endfacet
 facet normal -1.000000e+00 -0.000000e+00  0.000000e+00
   outer loop
     vertex  3.592105e-01  4.400067e-17  1.562500e-02
     vertex  3.592105e-01 -3.592105e-01  0.000000e+00
     vertex  3.592105e-01 -3.592105e-01  1.562500e-02
   endloop
 endfacet
 facet normal -1.000000e+00  0.000000e+00  0.000000e+00
   outer loop
     vertex  3.592105e-01  3.592105e-01  0.000000e+00
     vertex  3.592105e-01  4.400067e-17  1.562500e-02
     vertex  3.592105e-01  3.592105e-01  1.562500e-02
   endloop
 endfacet
 facet normal -1.000000e+00  0.000000e+00  0.000000e+00
   outer loop
     vertex  3.592105e-01  3.592105e-01  0.000000e+00
     vertex  3.592105e-01 -3.592105e-01  0.000000e+00
     vertex  3.592105e-01  4.400067e-17  1.562500e-02
   endloop
 endfacet
 facet normal  0.000000e+00 -1.000000e+00  0.000000e+00
   outer loop
     vertex  1.347132e-33  3.592105e-01  1.562500e-02
     vertex  3.592105e-01  3.592105e-01  0.000000e+00
     vertex  3.592105e-01  3.592105e-01  1.562500e-02
   endloop
 endfacet
 facet normal  0.000000e+00 -1.000000e+00  0.000000e+00
   outer loop
     vertex -3.592105e-01  3.592105e-01  0.000000e+00
     vertex  1.347132e-33  3.592105e-01  1.562500e-02
     vertex -3.592105e-01  3.592105e-01  1.562500e-02
   endloop
 endfacet
 facet normal  0.000000e+00 -1.000000e+00  0.000000e+00
   outer loop
     vertex -3.592105e-01  3.592105e-01  0.000000e+00
     vertex  3.592105e-01  3.592105e-01  0.000000e+00
     vertex  1.347132e-33  3.592105e-01  1.562500e-02
   endloop
 endfacet
 facet normal  1.000000e+00 -0.000000e+00  0.000000e+00
   outer loop
     vertex -3.592105e-01  1.007111e-20  1.562500e-02
     vertex -3.592105e-01  3.592105e-01  0.000000e+00
     vertex -3.592105e-01  3.592105e-01  1.562500e-02
   endloop
 endfacet
 facet normal  1.000000e+00  0.000000e+00  0.000000e+00
   outer loop
     vertex -3.592105e-01 -3.592105e-01  0.000000e+00
     vertex -3.592105e-01  1.007111e-20  1.562500e-02
     vertex -3.592105e-01 -3.592105e-01  1.562500e-02
   endloop
 endfacet
 facet normal  1.000000e+00  0.000000e+00  0.000000e+00
   outer loop
     vertex -3.592105e-01 -3.592105e-01  0.000000e+00
     vertex -3.592105e-01  3.592105e-01  0.000000e+00
     vertex -3.592105e-01  1.007111e-20  1.562500e-02
   endloop
 endfacet
 facet normal  0.000000e+00  1.000000e+00  0.000000e+00
   outer loop
     vertex -4.436229e-17 -3.592105e-01  7.421875e-01
     vertex -3.592105e-01 -3.592105e-01  7.421875e-01
     vertex -3.592105e-01 -3.592105e-01  7.500000e-01
   endloop
 endfacet
 facet normal  0.000000e+00  1.000000e+00  0.000000e+00
   outer loop
     vertex  3.592105e-01 -3.592105e-01  7.500000e-01
     vertex -4.436229e-17 -3.592105e-01  7.421875e-01
     vertex -3.592105e-01 -3.592105e-01  7.500000e-01
   endloop
 endfacet
 facet normal  0.000000e+00  1.000000e+00 -0.000000e+00
   outer loop
     vertex  3.592105e-01 -3.592105e-01  7.421875e-01
     vertex -4.436229e-17 -3.592105e-01  7.421875e-01
     vertex  3.592105e-01 -3.592105e-01  7.500000e-01
   endloop
 endfacet
 facet normal -1.000000e+00  0.000000e+00  0.000000e+00
   outer loop
     vertex  3.592105e-01  8.848980e-17  7.421875e-01
     vertex  3.592105e-01 -3.592105e-01  7.421875e-01
     vertex  3.592105e-01 -3.592105e-01  7.500000e-01
   endloop
 endfacet
 facet normal -1.000000e+00 -0.000000e+00  0.000000e+00
   outer loop
     vertex  3.592105e-01  3.592105e-01  7.500000e-01
     vertex  3.592105e-01  8.848980e-17  7.421875e-01
     vertex  3.592105e-01 -3.592105e-01  7.500000e-01
   endloop
 endfacet
 facet normal -1.000000e+00  0.000000e+00  0.000000e+00
   outer loop
     vertex  3.592105e-01  3.592105e-01  7.421875e-01
     vertex  3.592105e-01  8.848980e-17  7.421875e-01
     vertex  3.592105e-01  3.592105e-01  7.500000e-01
   endloop
 endfacet
 facet normal  0.000000e+00 -1.000000e+00  0.000000e+00
   outer loop
     vertex -5.000014e-17  3.592105e-01  7.421875e-01
     vertex  3.592105e-01  3.592105e-01  7.421875e-01
     vertex  3.592105e-01  3.592105e-01  7.500000e-01
   endloop
 endfacet
 facet normal  0.000000e+00 -1.000000e+00  0.000000e+00
   outer loop
     vertex -3.592105e-01  3.592105e-01  7.500000e-01
     vertex -5.000014e-17  3.592105e-01  7.421875e-01
     vertex  3.592105e-01  3.592105e-01  7.500000e-01
   endloop
 endfacet
 facet normal  0.000000e+00 -1.000000e+00  0.000000e+00
   outer loop
     vertex -3.592105e-01  3.592105e-01  7.421875e-01
     vertex -5.000014e-17  3.592105e-01  7.421875e-01
     vertex -3.592105e-01  3.592105e-01  7.500000e-01
   endloop
 endfacet
 facet normal  1.000000e+00  0.000000e+00  0.000000e+00
   outer loop
     vertex -3.592105e-01  4.449919e-17  7.421875e-01
     vertex -3.592105e-01  3.592105e-01  7.421875e-01
     vertex -3.592105e-01  3.592105e-01  7.500000e-01
   endloop
 endfacet
 facet normal  1.000000e+00 -0.000000e+00  0.000000e+00
   outer loop
     vertex -3.592105e-01 -3.592105e-01  7.500000e-01
     vertex -3.592105e-01  4.449919e-17  7.421875e-01
     vertex -3.592105e-01  3.592105e-01  7.500000e-01
   endloop
 endfacet
 facet normal  1.000000e+00  0.000000e+00  0.000000e+00
   outer loop
     vertex -3.592105e-01 -3.592105e-01  7.421875e-01
     vertex -3.592105e-01  4.449919e-17  7.421875e-01
     vertex -3.592105e-01 -3.592105e-01  7.500000e-01
   endloop
 endfacet
 facet normal  0.000000e+00  1.000000e+00  0.000000e+00
   outer loop
     vertex  3.671875e-01 -3.593750e-01  1.562500e-02
     vertex  3.671875e-01 -3.593750e-01  7.421875e-01
     vertex  3.750000e-01 -3.593750e-01  7.421875e-01
   endloop
 endfacet
 facet normal  0.000000e+00  1.000000e+00  0.000000e+00
   outer loop
     vertex  3.671875e-01 -3.593750e-01  1.562500e-02
     vertex  3.750000e-01 -3.593750e-01  7.421875e-01
     vertex  3.750000e-01 -3.593750e-01  1.562500e-02
   endloop
 endfacet
 facet normal  0.000000e+00  0.000000e+00 -1.000000e+00
   outer loop
     vertex  3.671875e-01  8.897824e-17  7.421875e-01
     vertex  3.671875e-01  3.671875e-01  7.421875e-01
     vertex  3.750000e-01  3.671875e-01  7.421875e-01
   endloop
 endfacet
 facet normal  0.000000e+00  0.000000e+00 -1.000000e+00
   outer loop
     vertex  3.750000e-01 -3.593750e-01  7.421875e-01
     vertex  3.671875e-01  8.897824e-17  7.421875e-01
     vertex  3.750000e-01  3.671875e-01  7.421875e-01
   endloop
 endfacet
 facet normal  0.000000e+00  0.000000e+00 -1.000000e+00
   outer loop
     vertex  3.671875e-01 -3.593750e-01  7.421875e-01
     vertex  3.671875e-01  8.897824e-17  7.421875e-01
     vertex  3.750000e-01 -3.593750e-01  7.421875e-01
   endloop
 endfacet
 facet normal  0.000000e+00 -1.000000e+00  0.000000e+00
   outer loop
     vertex  3.671875e-01  3.671875e-01  7.421875e-01
     vertex  3.671875e-01  3.671875e-01  1.562500e-02
     vertex  3.750000e-01  3.671875e-01  1.562500e-02
   endloop
 endfacet
 facet normal  0.000000e+00 -1.000000e+00  0.000000e+00
   outer loop
     vertex  3.671875e-01  3.671875e-01  7.421875e-01
     vertex  3.750000e-01  3.671875e-01  1.562500e-02
     vertex  3.750000e-01  3.671875e-01  7.421875e-01
   endloop
 endfacet
 facet normal  0.000000e+00  0.000000e+00  1.000000e+00
   outer loop
     vertex  3.671875e-01  4.448912e-17  1.562500e-02
     vertex  3.671875e-01 -3.593750e-01  1.562500e-02
     vertex  3.750000e-01 -3.593750e-01  1.562500e-02
   endloop
 endfacet
 facet normal  0.000000e+00  0.000000e+00  1.000000e+00
   outer loop
     vertex  3.750000e-01  3.671875e-01  1.562500e-02
     vertex  3.671875e-01  4.448912e-17  1.562500e-02
     vertex  3.750000e-01 -3.593750e-01  1.562500e-02
   endloop
 endfacet
 facet normal -0.000000e+00  0.000000e+00  1.000000e+00
   outer loop
     vertex  3.671875e-01  3.671875e-01  1.562500e-02
     vertex  3.671875e-01  4.448912e-17  1.562500e-02
     vertex  3.750000e-01  3.671875e-01  1.562500e-02
   endloop
 endfacet
 facet normal  0.000000e+00 -0.000000e+00 -1.000000e+00
   outer loop
     vertex  3.671875e-01  8.897824e-17  7.421875e-01
     vertex  3.671875e-01 -3.593750e-01  7.421875e-01
     vertex  3.592105e-01 -3.592105e-01  7.421875e-01
   endloop
 endfacet
 facet normal  0.000000e+00  0.000000e+00 -1.000000e+00
   outer loop
     vertex  3.592105e-01  8.848980e-17  7.421875e-01
     vertex  3.671875e-01  8.897824e-17  7.421875e-01
     vertex  3.592105e-01 -3.592105e-01  7.421875e-01
   endloop
 endfacet
 facet normal  0.000000e+00 -0.000000e+00 -1.000000e+00
   outer loop
     vertex -4.436229e-17 -3.592105e-01  7.421875e-01
     vertex  3.592105e-01 -3.592105e-01  7.421875e-01
     vertex -4.448912e-17 -3.593750e-01  7.421875e-01
   endloop
 endfacet
 facet normal  0.000000e+00  0.000000e+00 -1.000000e+00
   outer loop
     vertex  3.671875e-01 -3.593750e-01  7.421875e-01
     vertex -4.448912e-17 -3.593750e-01  7.421875e-01
     vertex  3.592105e-01 -3.592105e-01  7.421875e-01
   endloop
 endfacet
 facet normal  0.000000e+00  0.000000e+00 -1.000000e+00
   outer loop
     vertex -3.592105e-01 -3.592105e-01  7.421875e-01
     vertex -4.436229e-17 -3.592105e-01  7.421875e-01
     vertex -4.448912e-17 -3.593750e-01  7.421875e-01
   endloop
 endfacet
 facet normal  0.000000e+00  0.000000e+00 -1.000000e+00
   outer loop
     vertex -3.593750e-01 -3.593750e-01  7.421875e-01
     vertex -3.592105e-01 -3.592105e-01  7.421875e-01
     vertex -4.448912e-17 -3.593750e-01  7.421875e-01
   endloop
 endfacet
 facet normal  0.000000e+00  0.000000e+00 -1.000000e+00
   outer loop
     vertex -3.593750e-01  4.448912e-17  7.421875e-01
     vertex -3.592105e-01  4.449919e-17  7.421875e-01
     vertex -3.592105e-01 -3.592105e-01  7.421875e-01
   endloop
 endfacet
 facet normal  0.000000e+00  0.000000e+00 -1.000000e+00
   outer loop
     vertex -3.593750e-01  4.448912e-17  7.421875e-01
     vertex -3.592105e-01 -3.592105e-01  7.421875e-01
     vertex -3.593750e-01 -3.593750e-01  7.421875e-01
   endloop
 endfacet
 facet normal  0.000000e+00  0.000000e+00  1.000000e+00
   outer loop
     vertex  0.000000e+00 -3.593750e-01  1.562500e-02
     vertex -3.592105e-01 -3.592105e-01  1.562500e-02
     vertex -3.593750e-01 -3.593750e-01  1.562500e-02
   endloop
 endfacet
 facet normal  0.000000e+00  0.000000e+00  1.000000e+00
   outer loop
     vertex -3.593750e-01  0.000000e+00  1.562500e-02
     vertex -3.593750e-01 -3.593750e-01  1.562500e-02
     vertex -3.592105e-01 -3.592105e-01  1.562500e-02
   endloop
 endfacet
 facet normal  0.000000e+00  0.000000e+00  1.000000e+00
   outer loop
     vertex  3.083388e-37 -3.592105e-01  1.562500e-02
     vertex -3.592105e-01 -3.592105e-01  1.562500e-02
     vertex  0.000000e+00 -3.593750e-01  1.562500e-02
   endloop
 endfacet
 facet normal  0.000000e+00  0.000000e+00  1.000000e+00
   outer loop
     vertex -3.592105e-01  1.007111e-20  1.562500e-02
     vertex -3.593750e-01  0.000000e+00  1.562500e-02
     vertex -3.592105e-01 -3.592105e-01  1.562500e-02
   endloop
 endfacet
 facet normal  0.000000e+00  0.000000e+00  1.000000e+00
   outer loop
     vertex  3.592105e-01 -3.592105e-01  1.562500e-02
     vertex  3.083388e-37 -3.592105e-01  1.562500e-02
     vertex  0.000000e+00 -3.593750e-01  1.562500e-02
   endloop
 endfacet
 facet normal  0.000000e+00  0.000000e+00  1.000000e+00
   outer loop
     vertex  3.671875e-01  4.448912e-17  1.562500e-02
     vertex  3.592105e-01  4.400067e-17  1.562500e-02
     vertex  3.592105e-01 -3.592105e-01  1.562500e-02
   endloop
 endfacet
 facet normal  0.000000e+00  0.000000e+00  1.000000e+00
   outer loop
     vertex  3.671875e-01  4.448912e-17  1.562500e-02
     vertex  3.592105e-01 -3.592105e-01  1.562500e-02
     vertex  3.671875e-01 -3.593750e-01  1.562500e-02
   endloop
 endfacet
 facet normal  0.000000e+00  0.000000e+00  1.000000e+00
   outer loop
     vertex  0.000000e+00 -3.593750e-01  1.562500e-02
     vertex  3.671875e-01 -3.593750e-01  1.562500e-02
     vertex  3.592105e-01 -3.592105e-01  1.562500e-02
   endloop
 endfacet
 facet normal  0.000000e+00  0.000000e+00  1.000000e+00
   outer loop
     vertex  2.724173e-33  3.671875e-01  1.562500e-02
     vertex -3.593750e-01  3.750000e-01  1.562500e-02
     vertex -3.593750e-01  3.671875e-01  1.562500e-02
   endloop
 endfacet
 facet normal  0.000000e+00  0.000000e+00  1.000000e+00
   outer loop
     vertex  3.671875e-01  3.750000e-01  1.562500e-02
     vertex -3.593750e-01  3.750000e-01  1.562500e-02
     vertex  2.724173e-33  3.671875e-01  1.562500e-02
   endloop
 endfacet
 facet normal  0.000000e+00 -0.000000e+00  1.000000e+00
   outer loop
     vertex  3.671875e-01  3.671875e-01  1.562500e-02
     vertex  3.671875e-01  3.750000e-01  1.562500e-02
     vertex  2.724173e-33  3.671875e-01  1.562500e-02
   endloop
 endfacet
 facet normal -1.000000e+00  0.000000e+00  0.000000e+00
   outer loop
     vertex  3.671875e-01  3.671875e-01  7.421875e-01
     vertex  3.671875e-01  3.750000e-01  1.562500e-02
     vertex  3.671875e-01  3.671875e-01  1.562500e-02
   endloop
 endfacet
 facet normal -1.000000e+00  0.000000e+00  0.000000e+00
   outer loop
     vertex  3.671875e-01  3.671875e-01  7.421875e-01
     vertex  3.671875e-01  3.750000e-01  7.421875e-01
     vertex  3.671875e-01  3.750000e-01  1.562500e-02
   endloop
 endfacet
 facet normal  0.000000e+00  0.000000e+00 -1.000000e+00
   outer loop
     vertex -4.448912e-17  3.671875e-01  7.421875e-01
     vertex  3.671875e-01  3.750000e-01  7.421875e-01
     vertex  3.671875e-01  3.671875e-01  7.421875e-01
   endloop
 endfacet
 facet normal  0.000000e+00  0.000000e+00 -1.000000e+00
   outer loop
     vertex -3.593750e-01  3.750000e-01  7.421875e-01
     vertex  3.671875e-01  3.750000e-01  7.421875e-01
     vertex -4.448912e-17  3.671875e-01  7.421875e-01
   endloop
 endfacet
 facet normal  0.000000e+00  0.000000e+00 -1.000000e+00
   outer loop
     vertex -3.593750e-01  3.671875e-01  7.421875e-01
     vertex -3.593750e-01  3.750000e-01  7.421875e-01
     vertex -4.448912e-17  3.671875e-01  7.421875e-01
   endloop
 endfacet
 facet normal  1.000000e+00  0.000000e+00  0.000000e+00
   outer loop
     vertex -3.593750e-01  3.671875e-01  1.562500e-02
     vertex -3.593750e-01  3.750000e-01  7.421875e-01
     vertex -3.593750e-01  3.671875e-01  7.421875e-01
   endloop
 endfacet
 facet normal  1.000000e+00  0.000000e+00  0.000000e+00
   outer loop
     vertex -3.593750e-01  3.671875e-01  1.562500e-02
     vertex -3.593750e-01  3.750000e-01  1.562500e-02
     vertex -3.593750e-01  3.750000e-01  7.421875e-01
   endloop
 endfacet
 facet normal  0.000000e+00  0.000000e+00  1.000000e+00
   outer loop
     vertex  2.724173e-33  3.671875e-01  1.562500e-02
     vertex -3.593750e-01  3.671875e-01  1.562500e-02
     vertex -3.592105e-01  3.592105e-01  1.562500e-02
   endloop
 endfacet
 facet normal  0.000000e+00 -0.000000e+00  1.000000e+00
   outer loop
     vertex  1.347132e-33  3.592105e-01  1.562500e-02
     vertex  2.724173e-33  3.671875e-01  1.562500e-02
     vertex -3.592105e-01  3.592105e-01  1.562500e-02
   endloop
 endfacet
 facet normal  0.000000e+00 -0.000000e+00  1.000000e+00
   outer loop
     vertex -3.592105e-01  1.007111e-20  1.562500e-02
     vertex -3.592105e-01  3.592105e-01  1.562500e-02
     vertex -3.593750e-01  0.000000e+00  1.562500e-02
   endloop
 endfacet
 facet normal  0.000000e+00  0.000000e+00  1.000000e+00
   outer loop
     vertex -3.593750e-01  0.000000e+00  1.562500e-02
     vertex -3.592105e-01  3.592105e-01  1.562500e-02
     vertex -3.593750e-01  3.671875e-01  1.562500e-02
   endloop
 endfacet
 facet normal  0.000000e+00  0.000000e+00 -1.000000e+00
   outer loop
     vertex -3.592105e-01  3.592105e-01  7.421875e-01
     vertex -4.448912e-17  3.671875e-01  7.421875e-01
     vertex -5.000014e-17  3.592105e-01  7.421875e-01
   endloop
 endfacet
 facet normal  0.000000e+00  0.000000e+00 -1.000000e+00
   outer loop
     vertex -3.592105e-01  3.592105e-01  7.421875e-01
     vertex -3.593750e-01  3.671875e-01  7.421875e-01
     vertex -4.448912e-17  3.671875e-01  7.421875e-01
   endloop
 endfacet
 facet normal  0.000000e+00  0.000000e+00 -1.000000e+00
   outer loop
     vertex -3.593750e-01  4.448912e-17  7.421875e-01
     vertex -3.592105e-01  3.592105e-01  7.421875e-01
     vertex -3.592105e-01  4.449919e-17  7.421875e-01
   endloop
 endfacet
 facet normal  0.000000e+00  0.000000e+00 -1.000000e+00
   outer loop
     vertex -3.593750e-01  3.671875e-01  7.421875e-01
     vertex -3.592105e-01  3.592105e-01  7.421875e-01
     vertex -3.593750e-01  4.448912e-17  7.421875e-01
   endloop
 endfacet
 facet normal  0.000000e+00  0.000000e+00  1.000000e+00
   outer loop
     vertex  3.592105e-01  3.592105e-01  1.562500e-02
     vertex  2.724173e-33  3.671875e-01  1.562500e-02
     vertex  1.347132e-33  3.592105e-01  1.562500e-02
   endloop
 endfacet
 facet normal  0.000000e+00  0.000000e+00  1.000000e+00
   outer loop
     vertex  3.671875e-01  3.671875e-01  1.562500e-02
     vertex  2.724173e-33  3.671875e-01  1.562500e-02
     vertex  3.592105e-01  3.592105e-01  1.562500e-02
   endloop
 endfacet
 facet normal  0.000000e+00  0.000000e+00  1.000000e+00
   outer loop
     vertex  3.671875e-01  4.448912e-17  1.562500e-02
     vertex  3.592105e-01  3.592105e-01  1.562500e-02
     vertex  3.592105e-01  4.400067e-17  1.562500e-02
   endloop
 endfacet
 facet normal  0.000000e+00 -0.000000e+00  1.000000e+00
   outer loop
     vertex  3.671875e-01  4.448912e-17  1.562500e-02
     vertex  3.671875e-01  3.671875e-01  1.562500e-02
     vertex  3.592105e-01  3.592105e-01  1.562500e-02
   endloop
 endfacet
 facet normal  0.000000e+00  0.000000e+00 -1.000000e+00
   outer loop
     vertex  3.671875e-01  8.897824e-17  7.421875e-01
     vertex  3.592105e-01  3.592105e-01  7.421875e-01
     vertex  3.671875e-01  3.671875e-01  7.421875e-01
   endloop
 endfacet
 facet normal  0.000000e+00  0.000000e+00 -1.000000e+00
   outer loop
     vertex -4.448912e-17  3.671875e-01  7.421875e-01
     vertex  3.671875e-01  3.671875e-01  7.421875e-01
     vertex  3.592105e-01  3.592105e-01  7.421875e-01
   endloop
 endfacet
 facet normal  0.000000e+00  0.000000e+00 -1.000000e+00
   outer loop
     vertex  3.592105e-01  8.848980e-17  7.421875e-01
     vertex  3.592105e-01  3.592105e-01  7.421875e-01
     vertex  3.671875e-01  8.897824e-17  7.421875e-01
   endloop
 endfacet
 facet normal  0.000000e+00  0.000000e+00 -1.000000e+00
   outer loop
     vertex -5.000014e-17  3.592105e-01  7.421875e-01
     vertex -4.448912e-17  3.671875e-01  7.421875e-01
     vertex  3.592105e-01  3.592105e-01  7.421875e-01
   endloop
 endfacet
endsolid
