solid 
 facet normal -6.123234e-17 -6.123234e-17 -1.000000e+00
   outer loop
     vertex  5.468750e-01  7.941069e-17 -7.941069e-17
     vertex -7.500000e-01 -4.687500e-01  2.870266e-17
     vertex -7.500000e-01  0.000000e+00  0.000000e+00
   endloop
 endfacet
 facet normal -6.123234e-17 -6.123234e-17 -1.000000e+00
   outer loop
     vertex  5.468750e-01  7.941069e-17 -7.941069e-17
     vertex  5.468750e-01 -4.687500e-01 -5.070803e-17
     vertex -7.500000e-01 -4.687500e-01  2.870266e-17
   endloop
 endfacet
 facet normal  1.000000e+00  0.000000e+00  0.000000e+00
   outer loop
     vertex  5.468750e-01  1.228776e-16  7.098684e-01
     vertex  5.468750e-01 -4.687500e-01 -5.070803e-17
     vertex  5.468750e-01  7.941069e-17 -7.941069e-17
   endloop
 endfacet
 facet normal  1.000000e+00  0.000000e+00  0.000000e+00
   outer loop
     vertex  5.468750e-01  1.228776e-16  7.098684e-01
     vertex  5.468750e-01 -4.687500e-01  7.098684e-01
     vertex  5.468750e-01 -4.687500e-01 -5.070803e-17
   endloop
 endfacet
 facet normal -0.000000e+00  0.000000e+00  1.000000e+00
   outer loop
     vertex -7.500000e-01  4.346690e-17  7.098684e-01
     vertex  5.468750e-01 -4.687500e-01  7.098684e-01
     vertex  5.468750e-01  1.228776e-16  7.098684e-01
   endloop
 endfacet
 facet normal  0.000000e+00  0.000000e+00  1.000000e+00
   outer loop
     vertex -7.500000e-01  4.346690e-17  7.098684e-01
     vertex -7.500000e-01 -4.687500e-01  7.098684e-01
     vertex  5.468750e-01 -4.687500e-01  7.098684e-01
   endloop
 endfacet
 facet normal -1.000000e+00  0.000000e+00  0.000000e+00
   outer loop
     vertex -7.500000e-01  0.000000e+00  0.000000e+00
     vertex -7.500000e-01 -4.687500e-01  7.098684e-01
     vertex -7.500000e-01  4.346690e-17  7.098684e-01
   endloop
 endfacet
 facet normal -1.000000e+00  0.000000e+00  0.000000e+00
   outer loop
     vertex -7.500000e-01  0.000000e+00  0.000000e+00
     vertex -7.500000e-01 -4.687500e-01  2.870266e-17
     vertex -7.500000e-01 -4.687500e-01  7.098684e-01
   endloop
 endfacet
 facet normal -6.123234e-17  1.000000e+00 -6.123234e-17
   outer loop
     vertex  5.468750e-01  1.228776e-16  7.098684e-01
     vertex  5.468750e-01  7.941069e-17 -7.941069e-17
     vertex -7.500000e-01  0.000000e+00  0.000000e+00
   endloop
 endfacet
 facet normal -6.123234e-17  1.000000e+00 -6.123234e-17
   outer loop
     vertex  5.468750e-01  1.228776e-16  7.098684e-01
     vertex -7.500000e-01  0.000000e+00  0.000000e+00
     vertex -7.500000e-01  4.346690e-17  7.098684e-01
   endloop
 endfacet
 facet normal  0.000000e+00 -1.000000e+00 -0.000000e+00
   outer loop
     vertex  5.468750e-01 -4.687500e-01  7.098684e-01
     vertex -7.500000e-01 -4.687500e-01  2.870266e-17
     vertex  5.468750e-01 -4.687500e-01 -5.070803e-17
   endloop
 endfacet
 facet normal -0.000000e+00 -1.000000e+00  0.000000e+00
   outer loop
     vertex  5.468750e-01 -4.687500e-01  7.098684e-01
     vertex -7.500000e-01 -4.687500e-01  7.098684e-01
     vertex -7.500000e-01 -4.687500e-01  2.870266e-17
   endloop
 endfacet
endsolid
