solid 
 facet normal  0.000000e+00  0.000000e+00 -1.000000e+00
   outer loop
     vertex  5.625000e-01  2.774590e-17  2.968750e-01
     vertex  1.093750e-01 -1.015625e-01  2.968750e-01
     vertex  1.093750e-01  0.000000e+00  2.968750e-01
   endloop
 endfacet
 facet normal  0.000000e+00 -0.000000e+00 -1.000000e+00
   outer loop
     vertex  5.625000e-01  2.774590e-17  2.968750e-01
     vertex  5.625000e-01 -1.015625e-01  2.968750e-01
     vertex  1.093750e-01 -1.015625e-01  2.968750e-01
   endloop
 endfacet
 facet normal  1.000000e+00  0.000000e+00  0.000000e+00
   outer loop
     vertex  5.625000e-01  5.549181e-17  7.500000e-01
     vertex  5.625000e-01 -1.015625e-01  2.968750e-01
     vertex  5.625000e-01  2.774590e-17  2.968750e-01
   endloop
 endfacet
 facet normal  1.000000e+00  0.000000e+00  0.000000e+00
   outer loop
     vertex  5.625000e-01  5.549181e-17  7.500000e-01
     vertex  5.625000e-01 -1.015625e-01  7.500000e-01
     vertex  5.625000e-01 -1.015625e-01  2.968750e-01
   endloop
 endfacet
 facet normal -0.000000e+00  0.000000e+00  1.000000e+00
   outer loop
     vertex  1.093750e-01  2.774590e-17  7.500000e-01
     vertex  5.625000e-01 -1.015625e-01  7.500000e-01
     vertex  5.625000e-01  5.549181e-17  7.500000e-01
   endloop
 endfacet
 facet normal  0.000000e+00  0.000000e+00  1.000000e+00
   outer loop
     vertex  1.093750e-01  2.774590e-17  7.500000e-01
     vertex  1.093750e-01 -1.015625e-01  7.500000e-01
     vertex  5.625000e-01 -1.015625e-01  7.500000e-01
   endloop
 endfacet
 facet normal -1.000000e+00  0.000000e+00  0.000000e+00
   outer loop
     vertex  1.093750e-01  0.000000e+00  2.968750e-01
     vertex  1.093750e-01 -1.015625e-01  7.500000e-01
     vertex  1.093750e-01  2.774590e-17  7.500000e-01
   endloop
 endfacet
 facet normal -1.000000e+00  0.000000e+00  0.000000e+00
   outer loop
     vertex  1.093750e-01  0.000000e+00  2.968750e-01
     vertex  1.093750e-01 -1.015625e-01  2.968750e-01
     vertex  1.093750e-01 -1.015625e-01  7.500000e-01
   endloop
 endfacet
 facet normal  7.071068e-01  0.000000e+00  7.071068e-01
   outer loop
     vertex  1.618421e-01  7.009492e-18  3.588816e-01
     vertex  1.713816e-01 -1.015625e-01  3.493421e-01
     vertex  1.713816e-01  7.009492e-18  3.493421e-01
   endloop
 endfacet
 facet normal  7.071068e-01  0.000000e+00  7.071068e-01
   outer loop
     vertex  1.618421e-01  7.009492e-18  3.588816e-01
     vertex  1.618421e-01 -1.015625e-01  3.588816e-01
     vertex  1.713816e-01 -1.015625e-01  3.493421e-01
   endloop
 endfacet
 facet normal  7.071068e-01  0.000000e+00 -7.071068e-01
   outer loop
     vertex  1.713816e-01  8.177740e-18  3.684211e-01
     vertex  1.713816e-01 -1.015625e-01  3.684211e-01
     vertex  1.618421e-01 -1.015625e-01  3.588816e-01
   endloop
 endfacet
 facet normal  7.071068e-01  0.000000e+00 -7.071068e-01
   outer loop
     vertex  1.713816e-01  8.177740e-18  3.684211e-01
     vertex  1.618421e-01 -1.015625e-01  3.588816e-01
     vertex  1.618421e-01  7.009492e-18  3.588816e-01
   endloop
 endfacet
 facet normal -7.071068e-01 -0.000000e+00 -7.071068e-01
   outer loop
     vertex  1.809211e-01  8.177740e-18  3.588816e-01
     vertex  1.809211e-01 -1.015625e-01  3.588816e-01
     vertex  1.713816e-01 -1.015625e-01  3.684211e-01
   endloop
 endfacet
 facet normal -7.071068e-01  0.000000e+00 -7.071068e-01
   outer loop
     vertex  1.809211e-01  8.177740e-18  3.588816e-01
     vertex  1.713816e-01 -1.015625e-01  3.684211e-01
     vertex  1.713816e-01  8.177740e-18  3.684211e-01
   endloop
 endfacet
 facet normal -7.071068e-01  0.000000e+00  7.071068e-01
   outer loop
     vertex  1.713816e-01  7.009492e-18  3.493421e-01
     vertex  1.713816e-01 -1.015625e-01  3.493421e-01
     vertex  1.809211e-01 -1.015625e-01  3.588816e-01
   endloop
 endfacet
 facet normal -7.071068e-01  0.000000e+00  7.071068e-01
   outer loop
     vertex  1.713816e-01  7.009492e-18  3.493421e-01
     vertex  1.809211e-01 -1.015625e-01  3.588816e-01
     vertex  1.809211e-01  8.177740e-18  3.588816e-01
   endloop
 endfacet
 facet normal  7.071068e-01  0.000000e+00  7.071068e-01
   outer loop
     vertex  1.618421e-01  2.453322e-17  6.450658e-01
     vertex  1.713816e-01 -1.015625e-01  6.355263e-01
     vertex  1.713816e-01  2.453322e-17  6.355263e-01
   endloop
 endfacet
 facet normal  7.071068e-01  0.000000e+00  7.071068e-01
   outer loop
     vertex  1.618421e-01  2.453322e-17  6.450658e-01
     vertex  1.618421e-01 -1.015625e-01  6.450658e-01
     vertex  1.713816e-01 -1.015625e-01  6.355263e-01
   endloop
 endfacet
 facet normal  7.071068e-01  0.000000e+00 -7.071068e-01
   outer loop
     vertex  1.713816e-01  2.570147e-17  6.546053e-01
     vertex  1.713816e-01 -1.015625e-01  6.546053e-01
     vertex  1.618421e-01 -1.015625e-01  6.450658e-01
   endloop
 endfacet
 facet normal  7.071068e-01  0.000000e+00 -7.071068e-01
   outer loop
     vertex  1.713816e-01  2.570147e-17  6.546053e-01
     vertex  1.618421e-01 -1.015625e-01  6.450658e-01
     vertex  1.618421e-01  2.453322e-17  6.450658e-01
   endloop
 endfacet
 facet normal -7.071068e-01 -0.000000e+00 -7.071068e-01
   outer loop
     vertex  1.809211e-01  2.570147e-17  6.450658e-01
     vertex  1.809211e-01 -1.015625e-01  6.450658e-01
     vertex  1.713816e-01 -1.015625e-01  6.546053e-01
   endloop
 endfacet
 facet normal -7.071068e-01  0.000000e+00 -7.071068e-01
   outer loop
     vertex  1.809211e-01  2.570147e-17  6.450658e-01
     vertex  1.713816e-01 -1.015625e-01  6.546053e-01
     vertex  1.713816e-01  2.570147e-17  6.546053e-01
   endloop
 endfacet
 facet normal -7.071068e-01  0.000000e+00  7.071068e-01
   outer loop
     vertex  1.713816e-01  2.453322e-17  6.355263e-01
     vertex  1.713816e-01 -1.015625e-01  6.355263e-01
     vertex  1.809211e-01 -1.015625e-01  6.450658e-01
   endloop
 endfacet
 facet normal -7.071068e-01  0.000000e+00  7.071068e-01
   outer loop
     vertex  1.713816e-01  2.453322e-17  6.355263e-01
     vertex  1.809211e-01 -1.015625e-01  6.450658e-01
     vertex  1.809211e-01  2.570147e-17  6.450658e-01
   endloop
 endfacet
 facet normal  7.071068e-01  0.000000e+00  7.071068e-01
   outer loop
     vertex  4.909539e-01  2.716178e-17  3.588816e-01
     vertex  5.004934e-01 -1.015625e-01  3.493421e-01
     vertex  5.004934e-01  2.716178e-17  3.493421e-01
   endloop
 endfacet
 facet normal  7.071068e-01  0.000000e+00  7.071068e-01
   outer loop
     vertex  4.909539e-01  2.716178e-17  3.588816e-01
     vertex  4.909539e-01 -1.015625e-01  3.588816e-01
     vertex  5.004934e-01 -1.015625e-01  3.493421e-01
   endloop
 endfacet
 facet normal  7.071068e-01  0.000000e+00 -7.071068e-01
   outer loop
     vertex  5.004934e-01  2.833003e-17  3.684211e-01
     vertex  5.004934e-01 -1.015625e-01  3.684211e-01
     vertex  4.909539e-01 -1.015625e-01  3.588816e-01
   endloop
 endfacet
 facet normal  7.071068e-01  0.000000e+00 -7.071068e-01
   outer loop
     vertex  5.004934e-01  2.833003e-17  3.684211e-01
     vertex  4.909539e-01 -1.015625e-01  3.588816e-01
     vertex  4.909539e-01  2.716178e-17  3.588816e-01
   endloop
 endfacet
 facet normal -7.071068e-01 -0.000000e+00 -7.071068e-01
   outer loop
     vertex  5.100329e-01  2.833003e-17  3.588816e-01
     vertex  5.100329e-01 -1.015625e-01  3.588816e-01
     vertex  5.004934e-01 -1.015625e-01  3.684211e-01
   endloop
 endfacet
 facet normal -7.071068e-01  0.000000e+00 -7.071068e-01
   outer loop
     vertex  5.100329e-01  2.833003e-17  3.588816e-01
     vertex  5.004934e-01 -1.015625e-01  3.684211e-01
     vertex  5.004934e-01  2.833003e-17  3.684211e-01
   endloop
 endfacet
 facet normal -7.071068e-01  0.000000e+00  7.071068e-01
   outer loop
     vertex  5.004934e-01  2.716178e-17  3.493421e-01
     vertex  5.004934e-01 -1.015625e-01  3.493421e-01
     vertex  5.100329e-01 -1.015625e-01  3.588816e-01
   endloop
 endfacet
 facet normal -7.071068e-01  0.000000e+00  7.071068e-01
   outer loop
     vertex  5.004934e-01  2.716178e-17  3.493421e-01
     vertex  5.100329e-01 -1.015625e-01  3.588816e-01
     vertex  5.100329e-01  2.833003e-17  3.588816e-01
   endloop
 endfacet
 facet normal  7.071068e-01  0.000000e+00  7.071068e-01
   outer loop
     vertex  4.909539e-01  4.468551e-17  6.450658e-01
     vertex  5.004934e-01 -1.015625e-01  6.355263e-01
     vertex  5.004934e-01  4.468551e-17  6.355263e-01
   endloop
 endfacet
 facet normal  7.071068e-01  0.000000e+00  7.071068e-01
   outer loop
     vertex  4.909539e-01  4.468551e-17  6.450658e-01
     vertex  4.909539e-01 -1.015625e-01  6.450658e-01
     vertex  5.004934e-01 -1.015625e-01  6.355263e-01
   endloop
 endfacet
 facet normal  7.071068e-01  0.000000e+00 -7.071068e-01
   outer loop
     vertex  5.004934e-01  4.585376e-17  6.546053e-01
     vertex  5.004934e-01 -1.015625e-01  6.546053e-01
     vertex  4.909539e-01 -1.015625e-01  6.450658e-01
   endloop
 endfacet
 facet normal  7.071068e-01  0.000000e+00 -7.071068e-01
   outer loop
     vertex  5.004934e-01  4.585376e-17  6.546053e-01
     vertex  4.909539e-01 -1.015625e-01  6.450658e-01
     vertex  4.909539e-01  4.468551e-17  6.450658e-01
   endloop
 endfacet
 facet normal -7.071068e-01 -0.000000e+00 -7.071068e-01
   outer loop
     vertex  5.100329e-01  4.585376e-17  6.450658e-01
     vertex  5.100329e-01 -1.015625e-01  6.450658e-01
     vertex  5.004934e-01 -1.015625e-01  6.546053e-01
   endloop
 endfacet
 facet normal -7.071068e-01  0.000000e+00 -7.071068e-01
   outer loop
     vertex  5.100329e-01  4.585376e-17  6.450658e-01
     vertex  5.004934e-01 -1.015625e-01  6.546053e-01
     vertex  5.004934e-01  4.585376e-17  6.546053e-01
   endloop
 endfacet
 facet normal -7.071068e-01  0.000000e+00  7.071068e-01
   outer loop
     vertex  5.004934e-01  4.468551e-17  6.355263e-01
     vertex  5.004934e-01 -1.015625e-01  6.355263e-01
     vertex  5.100329e-01 -1.015625e-01  6.450658e-01
   endloop
 endfacet
 facet normal -7.071068e-01  0.000000e+00  7.071068e-01
   outer loop
     vertex  5.004934e-01  4.468551e-17  6.355263e-01
     vertex  5.100329e-01 -1.015625e-01  6.450658e-01
     vertex  5.100329e-01  4.585376e-17  6.450658e-01
   endloop
 endfacet
 facet normal -6.123234e-17  1.000000e+00 -6.123234e-17
   outer loop
     vertex  1.618421e-01  7.009492e-18  3.588816e-01
     vertex  1.713816e-01  7.009492e-18  3.493421e-01
     vertex  1.093750e-01  0.000000e+00  2.968750e-01
   endloop
 endfacet
 facet normal -6.123234e-17  1.000000e+00 -6.123234e-17
   outer loop
     vertex  1.618421e-01  2.453322e-17  6.450658e-01
     vertex  1.713816e-01  8.177740e-18  3.684211e-01
     vertex  1.618421e-01  7.009492e-18  3.588816e-01
   endloop
 endfacet
 facet normal -6.123234e-17  1.000000e+00 -6.123234e-17
   outer loop
     vertex  1.618421e-01  2.453322e-17  6.450658e-01
     vertex  1.713816e-01  2.453322e-17  6.355263e-01
     vertex  1.713816e-01  8.177740e-18  3.684211e-01
   endloop
 endfacet
 facet normal -6.123234e-17  1.000000e+00 -6.123234e-17
   outer loop
     vertex  1.618421e-01  2.453322e-17  6.450658e-01
     vertex  1.618421e-01  7.009492e-18  3.588816e-01
     vertex  1.093750e-01  0.000000e+00  2.968750e-01
   endloop
 endfacet
 facet normal -6.123234e-17  1.000000e+00 -6.123234e-17
   outer loop
     vertex  1.809211e-01  2.570147e-17  6.450658e-01
     vertex  1.809211e-01  8.177740e-18  3.588816e-01
     vertex  1.713816e-01  8.177740e-18  3.684211e-01
   endloop
 endfacet
 facet normal -6.123234e-17  1.000000e+00 -6.123234e-17
   outer loop
     vertex  1.809211e-01  2.570147e-17  6.450658e-01
     vertex  1.713816e-01  8.177740e-18  3.684211e-01
     vertex  1.713816e-01  2.453322e-17  6.355263e-01
   endloop
 endfacet
 facet normal -6.123234e-17  1.000000e+00 -6.123234e-17
   outer loop
     vertex  5.004934e-01  2.716178e-17  3.493421e-01
     vertex  1.713816e-01  7.009492e-18  3.493421e-01
     vertex  1.809211e-01  8.177740e-18  3.588816e-01
   endloop
 endfacet
 facet normal -6.123234e-17  1.000000e+00 -6.123234e-17
   outer loop
     vertex  5.004934e-01  2.716178e-17  3.493421e-01
     vertex  1.809211e-01  8.177740e-18  3.588816e-01
     vertex  4.909539e-01  2.716178e-17  3.588816e-01
   endloop
 endfacet
 facet normal -6.123234e-17  1.000000e+00 -6.123234e-17
   outer loop
     vertex  5.625000e-01  2.774590e-17  2.968750e-01
     vertex  1.713816e-01  7.009492e-18  3.493421e-01
     vertex  5.004934e-01  2.716178e-17  3.493421e-01
   endloop
 endfacet
 facet normal -6.123234e-17  1.000000e+00 -6.123234e-17
   outer loop
     vertex  5.625000e-01  2.774590e-17  2.968750e-01
     vertex  1.093750e-01  0.000000e+00  2.968750e-01
     vertex  1.713816e-01  7.009492e-18  3.493421e-01
   endloop
 endfacet
 facet normal -6.123234e-17  1.000000e+00 -6.123234e-17
   outer loop
     vertex  1.093750e-01  2.774590e-17  7.500000e-01
     vertex  1.713816e-01  2.570147e-17  6.546053e-01
     vertex  1.618421e-01  2.453322e-17  6.450658e-01
   endloop
 endfacet
 facet normal -6.123234e-17  1.000000e+00 -6.123234e-17
   outer loop
     vertex  1.093750e-01  2.774590e-17  7.500000e-01
     vertex  1.618421e-01  2.453322e-17  6.450658e-01
     vertex  1.093750e-01  0.000000e+00  2.968750e-01
   endloop
 endfacet
 facet normal -6.123234e-17  1.000000e+00 -6.123234e-17
   outer loop
     vertex  5.100329e-01  2.833003e-17  3.588816e-01
     vertex  5.625000e-01  2.774590e-17  2.968750e-01
     vertex  5.004934e-01  2.716178e-17  3.493421e-01
   endloop
 endfacet
 facet normal -6.123234e-17  1.000000e+00 -6.123234e-17
   outer loop
     vertex  4.909539e-01  4.468551e-17  6.450658e-01
     vertex  5.004934e-01  2.833003e-17  3.684211e-01
     vertex  4.909539e-01  2.716178e-17  3.588816e-01
   endloop
 endfacet
 facet normal -6.123234e-17  1.000000e+00 -6.123234e-17
   outer loop
     vertex  4.909539e-01  4.468551e-17  6.450658e-01
     vertex  1.809211e-01  8.177740e-18  3.588816e-01
     vertex  1.809211e-01  2.570147e-17  6.450658e-01
   endloop
 endfacet
 facet normal -6.123234e-17  1.000000e+00 -6.123234e-17
   outer loop
     vertex  4.909539e-01  4.468551e-17  6.450658e-01
     vertex  4.909539e-01  2.716178e-17  3.588816e-01
     vertex  1.809211e-01  8.177740e-18  3.588816e-01
   endloop
 endfacet
 facet normal -6.123234e-17  1.000000e+00 -6.123234e-17
   outer loop
     vertex  4.909539e-01  4.468551e-17  6.450658e-01
     vertex  5.004934e-01  4.468551e-17  6.355263e-01
     vertex  5.004934e-01  2.833003e-17  3.684211e-01
   endloop
 endfacet
 facet normal -6.123234e-17  1.000000e+00 -6.123234e-17
   outer loop
     vertex  5.100329e-01  4.585376e-17  6.450658e-01
     vertex  5.100329e-01  2.833003e-17  3.588816e-01
     vertex  5.004934e-01  2.833003e-17  3.684211e-01
   endloop
 endfacet
 facet normal -6.123234e-17  1.000000e+00 -6.123234e-17
   outer loop
     vertex  5.100329e-01  4.585376e-17  6.450658e-01
     vertex  5.625000e-01  2.774590e-17  2.968750e-01
     vertex  5.100329e-01  2.833003e-17  3.588816e-01
   endloop
 endfacet
 facet normal -6.123234e-17  1.000000e+00 -6.123234e-17
   outer loop
     vertex  5.100329e-01  4.585376e-17  6.450658e-01
     vertex  5.004934e-01  2.833003e-17  3.684211e-01
     vertex  5.004934e-01  4.468551e-17  6.355263e-01
   endloop
 endfacet
 facet normal -6.123234e-17  1.000000e+00 -6.123234e-17
   outer loop
     vertex  5.004934e-01  4.585376e-17  6.546053e-01
     vertex  1.809211e-01  2.570147e-17  6.450658e-01
     vertex  1.713816e-01  2.570147e-17  6.546053e-01
   endloop
 endfacet
 facet normal -6.123234e-17  1.000000e+00 -6.123234e-17
   outer loop
     vertex  5.004934e-01  4.585376e-17  6.546053e-01
     vertex  4.909539e-01  4.468551e-17  6.450658e-01
     vertex  1.809211e-01  2.570147e-17  6.450658e-01
   endloop
 endfacet
 facet normal -6.123234e-17  1.000000e+00 -6.123234e-17
   outer loop
     vertex  5.625000e-01  5.549181e-17  7.500000e-01
     vertex  5.100329e-01  4.585376e-17  6.450658e-01
     vertex  5.004934e-01  4.585376e-17  6.546053e-01
   endloop
 endfacet
 facet normal -6.123234e-17  1.000000e+00 -6.123234e-17
   outer loop
     vertex  5.625000e-01  5.549181e-17  7.500000e-01
     vertex  1.713816e-01  2.570147e-17  6.546053e-01
     vertex  1.093750e-01  2.774590e-17  7.500000e-01
   endloop
 endfacet
 facet normal -6.123234e-17  1.000000e+00 -6.123234e-17
   outer loop
     vertex  5.625000e-01  5.549181e-17  7.500000e-01
     vertex  5.004934e-01  4.585376e-17  6.546053e-01
     vertex  1.713816e-01  2.570147e-17  6.546053e-01
   endloop
 endfacet
 facet normal -6.123234e-17  1.000000e+00 -6.123234e-17
   outer loop
     vertex  5.625000e-01  5.549181e-17  7.500000e-01
     vertex  5.625000e-01  2.774590e-17  2.968750e-01
     vertex  5.100329e-01  4.585376e-17  6.450658e-01
   endloop
 endfacet
 facet normal  0.000000e+00 -1.000000e+00 -0.000000e+00
   outer loop
     vertex  1.618421e-01 -1.015625e-01  3.588816e-01
     vertex  1.093750e-01 -1.015625e-01  2.968750e-01
     vertex  1.713816e-01 -1.015625e-01  3.493421e-01
   endloop
 endfacet
 facet normal  0.000000e+00 -1.000000e+00  0.000000e+00
   outer loop
     vertex  1.618421e-01 -1.015625e-01  6.450658e-01
     vertex  1.618421e-01 -1.015625e-01  3.588816e-01
     vertex  1.713816e-01 -1.015625e-01  3.684211e-01
   endloop
 endfacet
 facet normal  0.000000e+00 -1.000000e+00  0.000000e+00
   outer loop
     vertex  1.618421e-01 -1.015625e-01  6.450658e-01
     vertex  1.713816e-01 -1.015625e-01  3.684211e-01
     vertex  1.713816e-01 -1.015625e-01  6.355263e-01
   endloop
 endfacet
 facet normal  0.000000e+00 -1.000000e+00 -0.000000e+00
   outer loop
     vertex  1.618421e-01 -1.015625e-01  6.450658e-01
     vertex  1.093750e-01 -1.015625e-01  2.968750e-01
     vertex  1.618421e-01 -1.015625e-01  3.588816e-01
   endloop
 endfacet
 facet normal  0.000000e+00 -1.000000e+00 -0.000000e+00
   outer loop
     vertex  1.809211e-01 -1.015625e-01  6.450658e-01
     vertex  1.713816e-01 -1.015625e-01  3.684211e-01
     vertex  1.809211e-01 -1.015625e-01  3.588816e-01
   endloop
 endfacet
 facet normal  0.000000e+00 -1.000000e+00  0.000000e+00
   outer loop
     vertex  1.809211e-01 -1.015625e-01  6.450658e-01
     vertex  1.713816e-01 -1.015625e-01  6.355263e-01
     vertex  1.713816e-01 -1.015625e-01  3.684211e-01
   endloop
 endfacet
 facet normal  0.000000e+00 -1.000000e+00  0.000000e+00
   outer loop
     vertex  5.004934e-01 -1.015625e-01  3.493421e-01
     vertex  1.809211e-01 -1.015625e-01  3.588816e-01
     vertex  1.713816e-01 -1.015625e-01  3.493421e-01
   endloop
 endfacet
 facet normal  0.000000e+00 -1.000000e+00  0.000000e+00
   outer loop
     vertex  5.004934e-01 -1.015625e-01  3.493421e-01
     vertex  4.909539e-01 -1.015625e-01  3.588816e-01
     vertex  1.809211e-01 -1.015625e-01  3.588816e-01
   endloop
 endfacet
 facet normal  0.000000e+00 -1.000000e+00  0.000000e+00
   outer loop
     vertex  5.625000e-01 -1.015625e-01  2.968750e-01
     vertex  5.004934e-01 -1.015625e-01  3.493421e-01
     vertex  1.713816e-01 -1.015625e-01  3.493421e-01
   endloop
 endfacet
 facet normal  0.000000e+00 -1.000000e+00  0.000000e+00
   outer loop
     vertex  5.625000e-01 -1.015625e-01  2.968750e-01
     vertex  1.713816e-01 -1.015625e-01  3.493421e-01
     vertex  1.093750e-01 -1.015625e-01  2.968750e-01
   endloop
 endfacet
 facet normal  0.000000e+00 -1.000000e+00  0.000000e+00
   outer loop
     vertex  1.093750e-01 -1.015625e-01  7.500000e-01
     vertex  1.618421e-01 -1.015625e-01  6.450658e-01
     vertex  1.713816e-01 -1.015625e-01  6.546053e-01
   endloop
 endfacet
 facet normal  0.000000e+00 -1.000000e+00  0.000000e+00
   outer loop
     vertex  1.093750e-01 -1.015625e-01  7.500000e-01
     vertex  1.093750e-01 -1.015625e-01  2.968750e-01
     vertex  1.618421e-01 -1.015625e-01  6.450658e-01
   endloop
 endfacet
 facet normal  0.000000e+00 -1.000000e+00 -0.000000e+00
   outer loop
     vertex  5.100329e-01 -1.015625e-01  3.588816e-01
     vertex  5.004934e-01 -1.015625e-01  3.493421e-01
     vertex  5.625000e-01 -1.015625e-01  2.968750e-01
   endloop
 endfacet
 facet normal  0.000000e+00 -1.000000e+00  0.000000e+00
   outer loop
     vertex  4.909539e-01 -1.015625e-01  6.450658e-01
     vertex  4.909539e-01 -1.015625e-01  3.588816e-01
     vertex  5.004934e-01 -1.015625e-01  3.684211e-01
   endloop
 endfacet
 facet normal -0.000000e+00 -1.000000e+00  0.000000e+00
   outer loop
     vertex  4.909539e-01 -1.015625e-01  6.450658e-01
     vertex  1.809211e-01 -1.015625e-01  6.450658e-01
     vertex  1.809211e-01 -1.015625e-01  3.588816e-01
   endloop
 endfacet
 facet normal  0.000000e+00 -1.000000e+00 -0.000000e+00
   outer loop
     vertex  4.909539e-01 -1.015625e-01  6.450658e-01
     vertex  1.809211e-01 -1.015625e-01  3.588816e-01
     vertex  4.909539e-01 -1.015625e-01  3.588816e-01
   endloop
 endfacet
 facet normal  0.000000e+00 -1.000000e+00  0.000000e+00
   outer loop
     vertex  4.909539e-01 -1.015625e-01  6.450658e-01
     vertex  5.004934e-01 -1.015625e-01  3.684211e-01
     vertex  5.004934e-01 -1.015625e-01  6.355263e-01
   endloop
 endfacet
 facet normal  0.000000e+00 -1.000000e+00 -0.000000e+00
   outer loop
     vertex  5.100329e-01 -1.015625e-01  6.450658e-01
     vertex  5.004934e-01 -1.015625e-01  3.684211e-01
     vertex  5.100329e-01 -1.015625e-01  3.588816e-01
   endloop
 endfacet
 facet normal  0.000000e+00 -1.000000e+00  0.000000e+00
   outer loop
     vertex  5.100329e-01 -1.015625e-01  6.450658e-01
     vertex  5.100329e-01 -1.015625e-01  3.588816e-01
     vertex  5.625000e-01 -1.015625e-01  2.968750e-01
   endloop
 endfacet
 facet normal  0.000000e+00 -1.000000e+00  0.000000e+00
   outer loop
     vertex  5.100329e-01 -1.015625e-01  6.450658e-01
     vertex  5.004934e-01 -1.015625e-01  6.355263e-01
     vertex  5.004934e-01 -1.015625e-01  3.684211e-01
   endloop
 endfacet
 facet normal -0.000000e+00 -1.000000e+00  0.000000e+00
   outer loop
     vertex  5.004934e-01 -1.015625e-01  6.546053e-01
     vertex  1.713816e-01 -1.015625e-01  6.546053e-01
     vertex  1.809211e-01 -1.015625e-01  6.450658e-01
   endloop
 endfacet
 facet normal  0.000000e+00 -1.000000e+00  0.000000e+00
   outer loop
     vertex  5.004934e-01 -1.015625e-01  6.546053e-01
     vertex  1.809211e-01 -1.015625e-01  6.450658e-01
     vertex  4.909539e-01 -1.015625e-01  6.450658e-01
   endloop
 endfacet
 facet normal  0.000000e+00 -1.000000e+00  0.000000e+00
   outer loop
     vertex  5.625000e-01 -1.015625e-01  7.500000e-01
     vertex  5.004934e-01 -1.015625e-01  6.546053e-01
     vertex  5.100329e-01 -1.015625e-01  6.450658e-01
   endloop
 endfacet
 facet normal -0.000000e+00 -1.000000e+00  0.000000e+00
   outer loop
     vertex  5.625000e-01 -1.015625e-01  7.500000e-01
     vertex  1.093750e-01 -1.015625e-01  7.500000e-01
     vertex  1.713816e-01 -1.015625e-01  6.546053e-01
   endloop
 endfacet
 facet normal  0.000000e+00 -1.000000e+00  0.000000e+00
   outer loop
     vertex  5.625000e-01 -1.015625e-01  7.500000e-01
     vertex  1.713816e-01 -1.015625e-01  6.546053e-01
     vertex  5.004934e-01 -1.015625e-01  6.546053e-01
   endloop
 endfacet
 facet normal  0.000000e+00 -1.000000e+00 -0.000000e+00
   outer loop
     vertex  5.625000e-01 -1.015625e-01  7.500000e-01
     vertex  5.100329e-01 -1.015625e-01  6.450658e-01
     vertex  5.625000e-01 -1.015625e-01  2.968750e-01
   endloop
 endfacet
endsolid
