solid 
 facet normal -6.123234e-17 -6.123234e-17 -1.000000e+00
   outer loop
     vertex  7.500000e-01  4.592425e-17 -4.592425e-17
     vertex  3.827021e-18 -6.250000e-02  3.827021e-18
     vertex  0.000000e+00  0.000000e+00  0.000000e+00
   endloop
 endfacet
 facet normal -6.123234e-17 -6.123234e-17 -1.000000e+00
   outer loop
     vertex  7.500000e-01  4.592425e-17 -4.592425e-17
     vertex  7.500000e-01 -6.250000e-02 -4.209723e-17
     vertex  3.827021e-18 -6.250000e-02  3.827021e-18
   endloop
 endfacet
 facet normal  1.000000e+00  0.000000e+00  0.000000e+00
   outer loop
     vertex  7.500000e-01  6.139348e-17  2.526316e-01
     vertex  7.500000e-01 -6.250000e-02 -4.209723e-17
     vertex  7.500000e-01  4.592425e-17 -4.592425e-17
   endloop
 endfacet
 facet normal  1.000000e+00  0.000000e+00  0.000000e+00
   outer loop
     vertex  7.500000e-01  6.139348e-17  2.526316e-01
     vertex  7.500000e-01 -6.250000e-02  2.526316e-01
     vertex  7.500000e-01 -6.250000e-02 -4.209723e-17
   endloop
 endfacet
 facet normal -0.000000e+00  0.000000e+00  1.000000e+00
   outer loop
     vertex  1.546922e-17  1.546922e-17  2.526316e-01
     vertex  7.500000e-01 -6.250000e-02  2.526316e-01
     vertex  7.500000e-01  6.139348e-17  2.526316e-01
   endloop
 endfacet
 facet normal  0.000000e+00  0.000000e+00  1.000000e+00
   outer loop
     vertex  1.546922e-17  1.546922e-17  2.526316e-01
     vertex  1.929624e-17 -6.250000e-02  2.526316e-01
     vertex  7.500000e-01 -6.250000e-02  2.526316e-01
   endloop
 endfacet
 facet normal -1.000000e+00 -6.123234e-17  6.123234e-17
   outer loop
     vertex  0.000000e+00  0.000000e+00  0.000000e+00
     vertex  1.929624e-17 -6.250000e-02  2.526316e-01
     vertex  1.546922e-17  1.546922e-17  2.526316e-01
   endloop
 endfacet
 facet normal -1.000000e+00 -6.123234e-17  6.123234e-17
   outer loop
     vertex  0.000000e+00  0.000000e+00  0.000000e+00
     vertex  3.827021e-18 -6.250000e-02  3.827021e-18
     vertex  1.929624e-17 -6.250000e-02  2.526316e-01
   endloop
 endfacet
 facet normal  7.071068e-01  0.000000e+00  7.071068e-01
   outer loop
     vertex  1.578947e-01  1.353557e-17  6.315789e-02
     vertex  1.894737e-01 -6.250000e-02  3.157895e-02
     vertex  1.894737e-01  1.353557e-17  3.157895e-02
   endloop
 endfacet
 facet normal  7.071068e-01  0.000000e+00  7.071068e-01
   outer loop
     vertex  1.578947e-01  1.353557e-17  6.315789e-02
     vertex  1.578947e-01 -6.250000e-02  6.315789e-02
     vertex  1.894737e-01 -6.250000e-02  3.157895e-02
   endloop
 endfacet
 facet normal  7.071068e-01  0.000000e+00 -7.071068e-01
   outer loop
     vertex  1.894737e-01  1.740288e-17  9.473684e-02
     vertex  1.894737e-01 -6.250000e-02  9.473684e-02
     vertex  1.578947e-01 -6.250000e-02  6.315789e-02
   endloop
 endfacet
 facet normal  7.071068e-01  0.000000e+00 -7.071068e-01
   outer loop
     vertex  1.894737e-01  1.740288e-17  9.473684e-02
     vertex  1.578947e-01 -6.250000e-02  6.315789e-02
     vertex  1.578947e-01  1.353557e-17  6.315789e-02
   endloop
 endfacet
 facet normal -7.071068e-01 -0.000000e+00 -7.071068e-01
   outer loop
     vertex  2.210526e-01  1.740288e-17  6.315789e-02
     vertex  2.210526e-01 -6.250000e-02  6.315789e-02
     vertex  1.894737e-01 -6.250000e-02  9.473684e-02
   endloop
 endfacet
 facet normal -7.071068e-01  0.000000e+00 -7.071068e-01
   outer loop
     vertex  2.210526e-01  1.740288e-17  6.315789e-02
     vertex  1.894737e-01 -6.250000e-02  9.473684e-02
     vertex  1.894737e-01  1.740288e-17  9.473684e-02
   endloop
 endfacet
 facet normal -7.071068e-01  0.000000e+00  7.071068e-01
   outer loop
     vertex  1.894737e-01  1.353557e-17  3.157895e-02
     vertex  1.894737e-01 -6.250000e-02  3.157895e-02
     vertex  2.210526e-01 -6.250000e-02  6.315789e-02
   endloop
 endfacet
 facet normal -7.071068e-01  0.000000e+00  7.071068e-01
   outer loop
     vertex  1.894737e-01  1.353557e-17  3.157895e-02
     vertex  2.210526e-01 -6.250000e-02  6.315789e-02
     vertex  2.210526e-01  1.740288e-17  6.315789e-02
   endloop
 endfacet
 facet normal  7.071068e-01  0.000000e+00  7.071068e-01
   outer loop
     vertex  5.289474e-01  3.625599e-17  6.315789e-02
     vertex  5.605263e-01 -6.250000e-02  3.157895e-02
     vertex  5.605263e-01  3.625599e-17  3.157895e-02
   endloop
 endfacet
 facet normal  7.071068e-01  0.000000e+00  7.071068e-01
   outer loop
     vertex  5.289474e-01  3.625599e-17  6.315789e-02
     vertex  5.289474e-01 -6.250000e-02  6.315789e-02
     vertex  5.605263e-01 -6.250000e-02  3.157895e-02
   endloop
 endfacet
 facet normal  7.071068e-01  0.000000e+00 -7.071068e-01
   outer loop
     vertex  5.605263e-01  4.012330e-17  9.473684e-02
     vertex  5.605263e-01 -6.250000e-02  9.473684e-02
     vertex  5.289474e-01 -6.250000e-02  6.315789e-02
   endloop
 endfacet
 facet normal  7.071068e-01  0.000000e+00 -7.071068e-01
   outer loop
     vertex  5.605263e-01  4.012330e-17  9.473684e-02
     vertex  5.289474e-01 -6.250000e-02  6.315789e-02
     vertex  5.289474e-01  3.625599e-17  6.315789e-02
   endloop
 endfacet
 facet normal -7.071068e-01 -0.000000e+00 -7.071068e-01
   outer loop
     vertex  5.921053e-01  4.012330e-17  6.315789e-02
     vertex  5.921053e-01 -6.250000e-02  6.315789e-02
     vertex  5.605263e-01 -6.250000e-02  9.473684e-02
   endloop
 endfacet
 facet normal -7.071068e-01  0.000000e+00 -7.071068e-01
   outer loop
     vertex  5.921053e-01  4.012330e-17  6.315789e-02
     vertex  5.605263e-01 -6.250000e-02  9.473684e-02
     vertex  5.605263e-01  4.012330e-17  9.473684e-02
   endloop
 endfacet
 facet normal -7.071068e-01  0.000000e+00  7.071068e-01
   outer loop
     vertex  5.605263e-01  3.625599e-17  3.157895e-02
     vertex  5.605263e-01 -6.250000e-02  3.157895e-02
     vertex  5.921053e-01 -6.250000e-02  6.315789e-02
   endloop
 endfacet
 facet normal -7.071068e-01  0.000000e+00  7.071068e-01
   outer loop
     vertex  5.605263e-01  3.625599e-17  3.157895e-02
     vertex  5.921053e-01 -6.250000e-02  6.315789e-02
     vertex  5.921053e-01  4.012330e-17  6.315789e-02
   endloop
 endfacet
 facet normal -6.123234e-17  1.000000e+00 -6.123234e-17
   outer loop
     vertex  1.578947e-01  1.353557e-17  6.315789e-02
     vertex  1.894737e-01  1.353557e-17  3.157895e-02
     vertex  0.000000e+00  0.000000e+00  0.000000e+00
   endloop
 endfacet
 facet normal -6.123234e-17  1.000000e+00 -6.123234e-17
   outer loop
     vertex  1.546922e-17  1.546922e-17  2.526316e-01
     vertex  1.578947e-01  1.353557e-17  6.315789e-02
     vertex  0.000000e+00  0.000000e+00  0.000000e+00
   endloop
 endfacet
 facet normal -6.123234e-17  1.000000e+00 -6.123234e-17
   outer loop
     vertex  1.894737e-01  1.740288e-17  9.473684e-02
     vertex  1.578947e-01  1.353557e-17  6.315789e-02
     vertex  1.546922e-17  1.546922e-17  2.526316e-01
   endloop
 endfacet
 facet normal -6.123234e-17  1.000000e+00 -6.123234e-17
   outer loop
     vertex  5.289474e-01  3.625599e-17  6.315789e-02
     vertex  1.894737e-01  1.353557e-17  3.157895e-02
     vertex  2.210526e-01  1.740288e-17  6.315789e-02
   endloop
 endfacet
 facet normal -6.123234e-17  1.000000e+00 -6.123234e-17
   outer loop
     vertex  5.289474e-01  3.625599e-17  6.315789e-02
     vertex  5.605263e-01  3.625599e-17  3.157895e-02
     vertex  1.894737e-01  1.353557e-17  3.157895e-02
   endloop
 endfacet
 facet normal -6.123234e-17  1.000000e+00 -6.123234e-17
   outer loop
     vertex  5.605263e-01  4.012330e-17  9.473684e-02
     vertex  2.210526e-01  1.740288e-17  6.315789e-02
     vertex  1.894737e-01  1.740288e-17  9.473684e-02
   endloop
 endfacet
 facet normal -6.123234e-17  1.000000e+00 -6.123234e-17
   outer loop
     vertex  5.605263e-01  4.012330e-17  9.473684e-02
     vertex  5.289474e-01  3.625599e-17  6.315789e-02
     vertex  2.210526e-01  1.740288e-17  6.315789e-02
   endloop
 endfacet
 facet normal -6.123234e-17  1.000000e+00 -6.123234e-17
   outer loop
     vertex  7.500000e-01  4.592425e-17 -4.592425e-17
     vertex  5.605263e-01  3.625599e-17  3.157895e-02
     vertex  5.921053e-01  4.012330e-17  6.315789e-02
   endloop
 endfacet
 facet normal -6.123234e-17  1.000000e+00 -6.123234e-17
   outer loop
     vertex  7.500000e-01  4.592425e-17 -4.592425e-17
     vertex  0.000000e+00  0.000000e+00  0.000000e+00
     vertex  1.894737e-01  1.353557e-17  3.157895e-02
   endloop
 endfacet
 facet normal -6.123234e-17  1.000000e+00 -6.123234e-17
   outer loop
     vertex  7.500000e-01  4.592425e-17 -4.592425e-17
     vertex  1.894737e-01  1.353557e-17  3.157895e-02
     vertex  5.605263e-01  3.625599e-17  3.157895e-02
   endloop
 endfacet
 facet normal -6.123234e-17  1.000000e+00 -6.123234e-17
   outer loop
     vertex  7.500000e-01  6.139348e-17  2.526316e-01
     vertex  5.921053e-01  4.012330e-17  6.315789e-02
     vertex  5.605263e-01  4.012330e-17  9.473684e-02
   endloop
 endfacet
 facet normal -6.123234e-17  1.000000e+00 -6.123234e-17
   outer loop
     vertex  7.500000e-01  6.139348e-17  2.526316e-01
     vertex  1.894737e-01  1.740288e-17  9.473684e-02
     vertex  1.546922e-17  1.546922e-17  2.526316e-01
   endloop
 endfacet
 facet normal -6.123234e-17  1.000000e+00 -6.123234e-17
   outer loop
     vertex  7.500000e-01  6.139348e-17  2.526316e-01
     vertex  5.605263e-01  4.012330e-17  9.473684e-02
     vertex  1.894737e-01  1.740288e-17  9.473684e-02
   endloop
 endfacet
 facet normal -6.123234e-17  1.000000e+00 -6.123234e-17
   outer loop
     vertex  7.500000e-01  6.139348e-17  2.526316e-01
     vertex  7.500000e-01  4.592425e-17 -4.592425e-17
     vertex  5.921053e-01  4.012330e-17  6.315789e-02
   endloop
 endfacet
 facet normal  0.000000e+00 -1.000000e+00 -0.000000e+00
   outer loop
     vertex  1.578947e-01 -6.250000e-02  6.315789e-02
     vertex  3.827021e-18 -6.250000e-02  3.827021e-18
     vertex  1.894737e-01 -6.250000e-02  3.157895e-02
   endloop
 endfacet
 facet normal  0.000000e+00 -1.000000e+00 -0.000000e+00
   outer loop
     vertex  1.929624e-17 -6.250000e-02  2.526316e-01
     vertex  3.827021e-18 -6.250000e-02  3.827021e-18
     vertex  1.578947e-01 -6.250000e-02  6.315789e-02
   endloop
 endfacet
 facet normal -0.000000e+00 -1.000000e+00  0.000000e+00
   outer loop
     vertex  1.894737e-01 -6.250000e-02  9.473684e-02
     vertex  1.929624e-17 -6.250000e-02  2.526316e-01
     vertex  1.578947e-01 -6.250000e-02  6.315789e-02
   endloop
 endfacet
 facet normal -0.000000e+00 -1.000000e+00  0.000000e+00
   outer loop
     vertex  5.289474e-01 -6.250000e-02  6.315789e-02
     vertex  2.210526e-01 -6.250000e-02  6.315789e-02
     vertex  1.894737e-01 -6.250000e-02  3.157895e-02
   endloop
 endfacet
 facet normal  0.000000e+00 -1.000000e+00 -0.000000e+00
   outer loop
     vertex  5.289474e-01 -6.250000e-02  6.315789e-02
     vertex  1.894737e-01 -6.250000e-02  3.157895e-02
     vertex  5.605263e-01 -6.250000e-02  3.157895e-02
   endloop
 endfacet
 facet normal -0.000000e+00 -1.000000e+00  0.000000e+00
   outer loop
     vertex  5.605263e-01 -6.250000e-02  9.473684e-02
     vertex  1.894737e-01 -6.250000e-02  9.473684e-02
     vertex  2.210526e-01 -6.250000e-02  6.315789e-02
   endloop
 endfacet
 facet normal  0.000000e+00 -1.000000e+00  0.000000e+00
   outer loop
     vertex  5.605263e-01 -6.250000e-02  9.473684e-02
     vertex  2.210526e-01 -6.250000e-02  6.315789e-02
     vertex  5.289474e-01 -6.250000e-02  6.315789e-02
   endloop
 endfacet
 facet normal  0.000000e+00 -1.000000e+00  0.000000e+00
   outer loop
     vertex  7.500000e-01 -6.250000e-02 -4.209723e-17
     vertex  5.921053e-01 -6.250000e-02  6.315789e-02
     vertex  5.605263e-01 -6.250000e-02  3.157895e-02
   endloop
 endfacet
 facet normal  0.000000e+00 -1.000000e+00  0.000000e+00
   outer loop
     vertex  7.500000e-01 -6.250000e-02 -4.209723e-17
     vertex  1.894737e-01 -6.250000e-02  3.157895e-02
     vertex  3.827021e-18 -6.250000e-02  3.827021e-18
   endloop
 endfacet
 facet normal  0.000000e+00 -1.000000e+00  0.000000e+00
   outer loop
     vertex  7.500000e-01 -6.250000e-02 -4.209723e-17
     vertex  5.605263e-01 -6.250000e-02  3.157895e-02
     vertex  1.894737e-01 -6.250000e-02  3.157895e-02
   endloop
 endfacet
 facet normal  0.000000e+00 -1.000000e+00  0.000000e+00
   outer loop
     vertex  7.500000e-01 -6.250000e-02  2.526316e-01
     vertex  5.605263e-01 -6.250000e-02  9.473684e-02
     vertex  5.921053e-01 -6.250000e-02  6.315789e-02
   endloop
 endfacet
 facet normal -0.000000e+00 -1.000000e+00  0.000000e+00
   outer loop
     vertex  7.500000e-01 -6.250000e-02  2.526316e-01
     vertex  1.929624e-17 -6.250000e-02  2.526316e-01
     vertex  1.894737e-01 -6.250000e-02  9.473684e-02
   endloop
 endfacet
 facet normal  0.000000e+00 -1.000000e+00  0.000000e+00
   outer loop
     vertex  7.500000e-01 -6.250000e-02  2.526316e-01
     vertex  1.894737e-01 -6.250000e-02  9.473684e-02
     vertex  5.605263e-01 -6.250000e-02  9.473684e-02
   endloop
 endfacet
 facet normal  0.000000e+00 -1.000000e+00 -0.000000e+00
   outer loop
     vertex  7.500000e-01 -6.250000e-02  2.526316e-01
     vertex  5.921053e-01 -6.250000e-02  6.315789e-02
     vertex  7.500000e-01 -6.250000e-02 -4.209723e-17
   endloop
 endfacet
endsolid
