solid 
 facet normal  0.000000e+00 -1.000000e+00  0.000000e+00
   outer loop
     vertex  5.935033e-01 -1.484375e-01  0.000000e+00
     vertex -6.015625e-01 -1.484375e-01  6.015625e-01
     vertex -6.015625e-01 -1.484375e-01  0.000000e+00
   endloop
 endfacet
 facet normal  0.000000e+00 -1.000000e+00  0.000000e+00
   outer loop
     vertex  5.935033e-01 -1.484375e-01  0.000000e+00
     vertex  5.935033e-01 -1.484375e-01  6.015625e-01
     vertex -6.015625e-01 -1.484375e-01  6.015625e-01
   endloop
 endfacet
 facet normal  2.588190e-01  9.659258e-01  0.000000e+00
   outer loop
     vertex  6.681949e-01  1.303154e-01  0.000000e+00
     vertex  5.935033e-01  1.503289e-01  0.000000e+00
     vertex  5.935033e-01  1.503289e-01  6.015625e-01
   endloop
 endfacet
 facet normal  2.588190e-01  9.659258e-01 -0.000000e+00
   outer loop
     vertex  6.681949e-01  1.303154e-01  0.000000e+00
     vertex  5.935033e-01  1.503289e-01  6.015625e-01
     vertex  6.681949e-01  1.303154e-01  6.015625e-01
   endloop
 endfacet
 facet normal  7.071068e-01  7.071068e-01 -0.000000e+00
   outer loop
     vertex  7.228730e-01  7.563734e-02  0.000000e+00
     vertex  6.681949e-01  1.303154e-01  6.015625e-01
     vertex  7.228730e-01  7.563734e-02  6.015625e-01
   endloop
 endfacet
 facet normal  7.071068e-01  7.071068e-01  0.000000e+00
   outer loop
     vertex  7.228730e-01  7.563734e-02  0.000000e+00
     vertex  6.681949e-01  1.303154e-01  0.000000e+00
     vertex  6.681949e-01  1.303154e-01  6.015625e-01
   endloop
 endfacet
 facet normal  9.659258e-01  2.588190e-01 -0.000000e+00
   outer loop
     vertex  7.428865e-01  9.457237e-04  0.000000e+00
     vertex  7.228730e-01  7.563734e-02  6.015625e-01
     vertex  7.428865e-01  9.457237e-04  6.015625e-01
   endloop
 endfacet
 facet normal  9.659258e-01  2.588190e-01  0.000000e+00
   outer loop
     vertex  7.428865e-01  9.457237e-04  0.000000e+00
     vertex  7.228730e-01  7.563734e-02  0.000000e+00
     vertex  7.228730e-01  7.563734e-02  6.015625e-01
   endloop
 endfacet
 facet normal  9.659258e-01 -2.588190e-01  0.000000e+00
   outer loop
     vertex  7.228730e-01 -7.374589e-02  0.000000e+00
     vertex  7.428865e-01  9.457237e-04  6.015625e-01
     vertex  7.228730e-01 -7.374589e-02  6.015625e-01
   endloop
 endfacet
 facet normal  9.659258e-01 -2.588190e-01  0.000000e+00
   outer loop
     vertex  7.228730e-01 -7.374589e-02  0.000000e+00
     vertex  7.428865e-01  9.457237e-04  0.000000e+00
     vertex  7.428865e-01  9.457237e-04  6.015625e-01
   endloop
 endfacet
 facet normal  7.071068e-01 -7.071068e-01  0.000000e+00
   outer loop
     vertex  6.681949e-01 -1.284239e-01  0.000000e+00
     vertex  7.228730e-01 -7.374589e-02  6.015625e-01
     vertex  6.681949e-01 -1.284239e-01  6.015625e-01
   endloop
 endfacet
 facet normal  7.071068e-01 -7.071068e-01  0.000000e+00
   outer loop
     vertex  6.681949e-01 -1.284239e-01  0.000000e+00
     vertex  7.228730e-01 -7.374589e-02  0.000000e+00
     vertex  7.228730e-01 -7.374589e-02  6.015625e-01
   endloop
 endfacet
 facet normal  2.588190e-01 -9.659258e-01  0.000000e+00
   outer loop
     vertex  5.935033e-01 -1.484375e-01  0.000000e+00
     vertex  6.681949e-01 -1.284239e-01  6.015625e-01
     vertex  5.935033e-01 -1.484375e-01  6.015625e-01
   endloop
 endfacet
 facet normal  2.588190e-01 -9.659258e-01  0.000000e+00
   outer loop
     vertex  5.935033e-01 -1.484375e-01  0.000000e+00
     vertex  6.681949e-01 -1.284239e-01  0.000000e+00
     vertex  6.681949e-01 -1.284239e-01  6.015625e-01
   endloop
 endfacet
 facet normal  0.000000e+00  1.000000e+00  0.000000e+00
   outer loop
     vertex -6.015625e-01  1.503289e-01  0.000000e+00
     vertex  5.935033e-01  1.503289e-01  6.015625e-01
     vertex  5.935033e-01  1.503289e-01  0.000000e+00
   endloop
 endfacet
 facet normal  0.000000e+00  1.000000e+00  0.000000e+00
   outer loop
     vertex -6.015625e-01  1.503289e-01  0.000000e+00
     vertex -6.015625e-01  1.503289e-01  6.015625e-01
     vertex  5.935033e-01  1.503289e-01  6.015625e-01
   endloop
 endfacet
 facet normal -2.588190e-01 -9.659258e-01  0.000000e+00
   outer loop
     vertex -6.762541e-01 -1.284239e-01  0.000000e+00
     vertex -6.015625e-01 -1.484375e-01  0.000000e+00
     vertex -6.015625e-01 -1.484375e-01  6.015625e-01
   endloop
 endfacet
 facet normal -2.588190e-01 -9.659258e-01  0.000000e+00
   outer loop
     vertex -6.762541e-01 -1.284239e-01  0.000000e+00
     vertex -6.015625e-01 -1.484375e-01  6.015625e-01
     vertex -6.762541e-01 -1.284239e-01  6.015625e-01
   endloop
 endfacet
 facet normal -7.071068e-01 -7.071068e-01  0.000000e+00
   outer loop
     vertex -7.309322e-01 -7.374589e-02  0.000000e+00
     vertex -6.762541e-01 -1.284239e-01  6.015625e-01
     vertex -7.309322e-01 -7.374589e-02  6.015625e-01
   endloop
 endfacet
 facet normal -7.071068e-01 -7.071068e-01  0.000000e+00
   outer loop
     vertex -7.309322e-01 -7.374589e-02  0.000000e+00
     vertex -6.762541e-01 -1.284239e-01  0.000000e+00
     vertex -6.762541e-01 -1.284239e-01  6.015625e-01
   endloop
 endfacet
 facet normal -9.659258e-01 -2.588190e-01  0.000000e+00
   outer loop
     vertex -7.509457e-01  9.457237e-04  0.000000e+00
     vertex -7.309322e-01 -7.374589e-02  6.015625e-01
     vertex -7.509457e-01  9.457237e-04  6.015625e-01
   endloop
 endfacet
 facet normal -9.659258e-01 -2.588190e-01  0.000000e+00
   outer loop
     vertex -7.509457e-01  9.457237e-04  0.000000e+00
     vertex -7.309322e-01 -7.374589e-02  0.000000e+00
     vertex -7.309322e-01 -7.374589e-02  6.015625e-01
   endloop
 endfacet
 facet normal -9.659258e-01  2.588190e-01  0.000000e+00
   outer loop
     vertex -7.309322e-01  7.563734e-02  0.000000e+00
     vertex -7.509457e-01  9.457237e-04  6.015625e-01
     vertex -7.309322e-01  7.563734e-02  6.015625e-01
   endloop
 endfacet
 facet normal -9.659258e-01  2.588190e-01  0.000000e+00
   outer loop
     vertex -7.309322e-01  7.563734e-02  0.000000e+00
     vertex -7.509457e-01  9.457237e-04  0.000000e+00
     vertex -7.509457e-01  9.457237e-04  6.015625e-01
   endloop
 endfacet
 facet normal -7.071068e-01  7.071068e-01  0.000000e+00
   outer loop
     vertex -6.762541e-01  1.303154e-01  0.000000e+00
     vertex -7.309322e-01  7.563734e-02  6.015625e-01
     vertex -6.762541e-01  1.303154e-01  6.015625e-01
   endloop
 endfacet
 facet normal -7.071068e-01  7.071068e-01  0.000000e+00
   outer loop
     vertex -6.762541e-01  1.303154e-01  0.000000e+00
     vertex -7.309322e-01  7.563734e-02  0.000000e+00
     vertex -7.309322e-01  7.563734e-02  6.015625e-01
   endloop
 endfacet
 facet normal -2.588190e-01  9.659258e-01  0.000000e+00
   outer loop
     vertex -6.015625e-01  1.503289e-01  0.000000e+00
     vertex -6.762541e-01  1.303154e-01  6.015625e-01
     vertex -6.015625e-01  1.503289e-01  6.015625e-01
   endloop
 endfacet
 facet normal -2.588190e-01  9.659258e-01  0.000000e+00
   outer loop
     vertex -6.015625e-01  1.503289e-01  0.000000e+00
     vertex -6.762541e-01  1.303154e-01  0.000000e+00
     vertex -6.762541e-01  1.303154e-01  6.015625e-01
   endloop
 endfacet
 facet normal  0.000000e+00  0.000000e+00 -1.000000e+00
   outer loop
     vertex -6.015625e-01  1.503289e-01  0.000000e+00
     vertex -7.309322e-01  7.563734e-02  0.000000e+00
     vertex -6.762541e-01  1.303154e-01  0.000000e+00
   endloop
 endfacet
 facet normal  0.000000e+00  0.000000e+00 -1.000000e+00
   outer loop
     vertex -6.015625e-01  1.503289e-01  0.000000e+00
     vertex -7.509457e-01  9.457237e-04  0.000000e+00
     vertex -7.309322e-01  7.563734e-02  0.000000e+00
   endloop
 endfacet
 facet normal  0.000000e+00  0.000000e+00 -1.000000e+00
   outer loop
     vertex -6.015625e-01  1.503289e-01  0.000000e+00
     vertex -7.309322e-01 -7.374589e-02  0.000000e+00
     vertex -7.509457e-01  9.457237e-04  0.000000e+00
   endloop
 endfacet
 facet normal  0.000000e+00  0.000000e+00 -1.000000e+00
   outer loop
     vertex -6.015625e-01  1.503289e-01  0.000000e+00
     vertex -6.762541e-01 -1.284239e-01  0.000000e+00
     vertex -7.309322e-01 -7.374589e-02  0.000000e+00
   endloop
 endfacet
 facet normal  0.000000e+00 -0.000000e+00 -1.000000e+00
   outer loop
     vertex -6.015625e-01  1.503289e-01  0.000000e+00
     vertex -6.015625e-01 -1.484375e-01  0.000000e+00
     vertex -6.762541e-01 -1.284239e-01  0.000000e+00
   endloop
 endfacet
 facet normal  0.000000e+00 -0.000000e+00 -1.000000e+00
   outer loop
     vertex  5.935033e-01  1.503289e-01  0.000000e+00
     vertex  5.935033e-01 -1.484375e-01  0.000000e+00
     vertex -6.015625e-01 -1.484375e-01  0.000000e+00
   endloop
 endfacet
 facet normal  0.000000e+00  0.000000e+00 -1.000000e+00
   outer loop
     vertex  5.935033e-01  1.503289e-01  0.000000e+00
     vertex  6.681949e-01 -1.284239e-01  0.000000e+00
     vertex  5.935033e-01 -1.484375e-01  0.000000e+00
   endloop
 endfacet
 facet normal  0.000000e+00  0.000000e+00 -1.000000e+00
   outer loop
     vertex  5.935033e-01  1.503289e-01  0.000000e+00
     vertex  7.228730e-01 -7.374589e-02  0.000000e+00
     vertex  6.681949e-01 -1.284239e-01  0.000000e+00
   endloop
 endfacet
 facet normal -0.000000e+00  0.000000e+00 -1.000000e+00
   outer loop
     vertex  5.935033e-01  1.503289e-01  0.000000e+00
     vertex -6.015625e-01 -1.484375e-01  0.000000e+00
     vertex -6.015625e-01  1.503289e-01  0.000000e+00
   endloop
 endfacet
 facet normal -0.000000e+00  0.000000e+00 -1.000000e+00
   outer loop
     vertex  7.428865e-01  9.457237e-04  0.000000e+00
     vertex  7.228730e-01 -7.374589e-02  0.000000e+00
     vertex  5.935033e-01  1.503289e-01  0.000000e+00
   endloop
 endfacet
 facet normal -0.000000e+00 -0.000000e+00 -1.000000e+00
   outer loop
     vertex  7.228730e-01  7.563734e-02  0.000000e+00
     vertex  7.428865e-01  9.457237e-04  0.000000e+00
     vertex  5.935033e-01  1.503289e-01  0.000000e+00
   endloop
 endfacet
 facet normal -0.000000e+00 -0.000000e+00 -1.000000e+00
   outer loop
     vertex  6.681949e-01  1.303154e-01  0.000000e+00
     vertex  7.228730e-01  7.563734e-02  0.000000e+00
     vertex  5.935033e-01  1.503289e-01  0.000000e+00
   endloop
 endfacet
 facet normal  0.000000e+00  0.000000e+00  1.000000e+00
   outer loop
     vertex -6.015625e-01  1.503289e-01  6.015625e-01
     vertex -6.762541e-01  1.303154e-01  6.015625e-01
     vertex -7.309322e-01  7.563734e-02  6.015625e-01
   endloop
 endfacet
 facet normal  0.000000e+00  0.000000e+00  1.000000e+00
   outer loop
     vertex -6.015625e-01  1.503289e-01  6.015625e-01
     vertex -7.309322e-01  7.563734e-02  6.015625e-01
     vertex -7.509457e-01  9.457237e-04  6.015625e-01
   endloop
 endfacet
 facet normal  0.000000e+00  0.000000e+00  1.000000e+00
   outer loop
     vertex -6.015625e-01  1.503289e-01  6.015625e-01
     vertex -7.509457e-01  9.457237e-04  6.015625e-01
     vertex -7.309322e-01 -7.374589e-02  6.015625e-01
   endloop
 endfacet
 facet normal  0.000000e+00  0.000000e+00  1.000000e+00
   outer loop
     vertex -6.015625e-01  1.503289e-01  6.015625e-01
     vertex -7.309322e-01 -7.374589e-02  6.015625e-01
     vertex -6.762541e-01 -1.284239e-01  6.015625e-01
   endloop
 endfacet
 facet normal  0.000000e+00  0.000000e+00  1.000000e+00
   outer loop
     vertex -6.015625e-01  1.503289e-01  6.015625e-01
     vertex -6.762541e-01 -1.284239e-01  6.015625e-01
     vertex -6.015625e-01 -1.484375e-01  6.015625e-01
   endloop
 endfacet
 facet normal  0.000000e+00  0.000000e+00  1.000000e+00
   outer loop
     vertex  5.935033e-01  1.503289e-01  6.015625e-01
     vertex -6.015625e-01 -1.484375e-01  6.015625e-01
     vertex  5.935033e-01 -1.484375e-01  6.015625e-01
   endloop
 endfacet
 facet normal  0.000000e+00  0.000000e+00  1.000000e+00
   outer loop
     vertex  5.935033e-01  1.503289e-01  6.015625e-01
     vertex  5.935033e-01 -1.484375e-01  6.015625e-01
     vertex  6.681949e-01 -1.284239e-01  6.015625e-01
   endloop
 endfacet
 facet normal  0.000000e+00  0.000000e+00  1.000000e+00
   outer loop
     vertex  5.935033e-01  1.503289e-01  6.015625e-01
     vertex  6.681949e-01 -1.284239e-01  6.015625e-01
     vertex  7.228730e-01 -7.374589e-02  6.015625e-01
   endloop
 endfacet
 facet normal  0.000000e+00  0.000000e+00  1.000000e+00
   outer loop
     vertex  5.935033e-01  1.503289e-01  6.015625e-01
     vertex -6.015625e-01  1.503289e-01  6.015625e-01
     vertex -6.015625e-01 -1.484375e-01  6.015625e-01
   endloop
 endfacet
 facet normal  0.000000e+00  0.000000e+00  1.000000e+00
   outer loop
     vertex  7.428865e-01  9.457237e-04  6.015625e-01
     vertex  5.935033e-01  1.503289e-01  6.015625e-01
     vertex  7.228730e-01 -7.374589e-02  6.015625e-01
   endloop
 endfacet
 facet normal  0.000000e+00  0.000000e+00  1.000000e+00
   outer loop
     vertex  7.228730e-01  7.563734e-02  6.015625e-01
     vertex  5.935033e-01  1.503289e-01  6.015625e-01
     vertex  7.428865e-01  9.457237e-04  6.015625e-01
   endloop
 endfacet
 facet normal  0.000000e+00  0.000000e+00  1.000000e+00
   outer loop
     vertex  6.681949e-01  1.303154e-01  6.015625e-01
     vertex  5.935033e-01  1.503289e-01  6.015625e-01
     vertex  7.228730e-01  7.563734e-02  6.015625e-01
   endloop
 endfacet
endsolid
