solid 
 facet normal  0.000000e+00  0.000000e+00 -1.000000e+00
   outer loop
     vertex  7.500000e-01  4.592425e-17 -1.484375e-01
     vertex  1.817835e-17 -2.968750e-01 -1.484375e-01
     vertex  0.000000e+00  0.000000e+00 -1.484375e-01
   endloop
 endfacet
 facet normal  0.000000e+00 -0.000000e+00 -1.000000e+00
   outer loop
     vertex  7.500000e-01  4.592425e-17 -1.484375e-01
     vertex  7.500000e-01 -2.968750e-01 -1.484375e-01
     vertex  1.817835e-17 -2.968750e-01 -1.484375e-01
   endloop
 endfacet
 facet normal -1.000000e+00 -6.123234e-17  6.123234e-17
   outer loop
     vertex  0.000000e+00  0.000000e+00 -1.484375e-01
     vertex  2.736320e-17 -2.968750e-01  1.562500e-03
     vertex  9.184851e-18  9.184851e-18  1.562500e-03
   endloop
 endfacet
 facet normal -1.000000e+00 -6.123234e-17  6.123234e-17
   outer loop
     vertex  0.000000e+00  0.000000e+00 -1.484375e-01
     vertex  1.817835e-17 -2.968750e-01 -1.484375e-01
     vertex  2.736320e-17 -2.968750e-01  1.562500e-03
   endloop
 endfacet
 facet normal  1.000000e+00  0.000000e+00  0.000000e+00
   outer loop
     vertex  7.500000e-01  5.510911e-17  1.562500e-03
     vertex  7.500000e-01 -2.968750e-01 -1.484375e-01
     vertex  7.500000e-01  4.592425e-17 -1.484375e-01
   endloop
 endfacet
 facet normal  1.000000e+00  0.000000e+00  0.000000e+00
   outer loop
     vertex  7.500000e-01  5.510911e-17  1.562500e-03
     vertex  7.500000e-01 -2.968750e-01  1.562500e-03
     vertex  7.500000e-01 -2.968750e-01 -1.484375e-01
   endloop
 endfacet
 facet normal -0.000000e+00  0.000000e+00 -1.000000e+00
   outer loop
     vertex  7.500000e-01  4.592425e-17 -1.484375e-01
     vertex  0.000000e+00  0.000000e+00 -1.484375e-01
     vertex -1.817835e-17  2.968750e-01 -1.484375e-01
   endloop
 endfacet
 facet normal  0.000000e+00  0.000000e+00 -1.000000e+00
   outer loop
     vertex  7.500000e-01  4.592425e-17 -1.484375e-01
     vertex -1.817835e-17  2.968750e-01 -1.484375e-01
     vertex  7.500000e-01  2.968750e-01 -1.484375e-01
   endloop
 endfacet
 facet normal -0.000000e+00 -1.000000e+00  0.000000e+00
   outer loop
     vertex  5.131579e-01 -2.968750e-01  1.562500e-03
     vertex  2.736320e-17 -2.968750e-01  1.562500e-03
     vertex  1.817835e-17 -2.968750e-01 -1.484375e-01
   endloop
 endfacet
 facet normal  0.000000e+00 -1.000000e+00  0.000000e+00
   outer loop
     vertex  7.500000e-01 -2.968750e-01 -1.484375e-01
     vertex  5.131579e-01 -2.968750e-01  1.562500e-03
     vertex  1.817835e-17 -2.968750e-01 -1.484375e-01
   endloop
 endfacet
 facet normal  0.000000e+00 -1.000000e+00 -0.000000e+00
   outer loop
     vertex  4.342105e-01 -2.968750e-01  3.173520e-01
     vertex  3.157895e-01 -2.968750e-01  1.989309e-01
     vertex  5.131579e-01 -2.968750e-01  1.562500e-03
   endloop
 endfacet
 facet normal  0.000000e+00 -1.000000e+00  0.000000e+00
   outer loop
     vertex  7.500000e-01 -2.968750e-01  1.562500e-03
     vertex  4.342105e-01 -2.968750e-01  3.173520e-01
     vertex  5.131579e-01 -2.968750e-01  1.562500e-03
   endloop
 endfacet
 facet normal -0.000000e+00 -1.000000e+00 -0.000000e+00
   outer loop
     vertex  7.500000e-01 -2.968750e-01  1.562500e-03
     vertex  5.131579e-01 -2.968750e-01  1.562500e-03
     vertex  7.500000e-01 -2.968750e-01 -1.484375e-01
   endloop
 endfacet
 facet normal -0.000000e+00  0.000000e+00  1.000000e+00
   outer loop
     vertex  9.184851e-18  9.184851e-18  1.562500e-03
     vertex  5.131579e-01 -2.968750e-01  1.562500e-03
     vertex  5.131579e-01  4.060671e-17  1.562500e-03
   endloop
 endfacet
 facet normal  0.000000e+00  0.000000e+00  1.000000e+00
   outer loop
     vertex  9.184851e-18  9.184851e-18  1.562500e-03
     vertex  2.736320e-17 -2.968750e-01  1.562500e-03
     vertex  5.131579e-01 -2.968750e-01  1.562500e-03
   endloop
 endfacet
 facet normal -1.000000e+00 -6.123234e-17  6.123234e-17
   outer loop
     vertex  0.000000e+00  0.000000e+00 -1.484375e-01
     vertex  9.184851e-18  9.184851e-18  1.562500e-03
     vertex -8.993500e-18  2.968750e-01  1.562500e-03
   endloop
 endfacet
 facet normal -1.000000e+00 -6.123234e-17  6.123234e-17
   outer loop
     vertex  0.000000e+00  0.000000e+00 -1.484375e-01
     vertex -8.993500e-18  2.968750e-01  1.562500e-03
     vertex -1.817835e-17  2.968750e-01 -1.484375e-01
   endloop
 endfacet
 facet normal  7.071068e-01  0.000000e+00  7.071068e-01
   outer loop
     vertex  4.342105e-01  5.510911e-17  3.173520e-01
     vertex  7.500000e-01 -2.968750e-01  1.562500e-03
     vertex  7.500000e-01  5.510911e-17  1.562500e-03
   endloop
 endfacet
 facet normal  7.071068e-01  0.000000e+00  7.071068e-01
   outer loop
     vertex  4.342105e-01  5.510911e-17  3.173520e-01
     vertex  4.342105e-01 -2.968750e-01  3.173520e-01
     vertex  7.500000e-01 -2.968750e-01  1.562500e-03
   endloop
 endfacet
 facet normal  1.000000e+00  0.000000e+00  0.000000e+00
   outer loop
     vertex  7.500000e-01  5.510911e-17  1.562500e-03
     vertex  7.500000e-01  4.592425e-17 -1.484375e-01
     vertex  7.500000e-01  2.968750e-01 -1.484375e-01
   endloop
 endfacet
 facet normal  1.000000e+00 -0.000000e+00  0.000000e+00
   outer loop
     vertex  7.500000e-01  5.510911e-17  1.562500e-03
     vertex  7.500000e-01  2.968750e-01 -1.484375e-01
     vertex  7.500000e-01  2.968750e-01  1.562500e-03
   endloop
 endfacet
 facet normal  0.000000e+00  1.000000e+00  0.000000e+00
   outer loop
     vertex  5.131579e-01  2.968750e-01  1.562500e-03
     vertex -1.817835e-17  2.968750e-01 -1.484375e-01
     vertex -8.993500e-18  2.968750e-01  1.562500e-03
   endloop
 endfacet
 facet normal  0.000000e+00  1.000000e+00  0.000000e+00
   outer loop
     vertex  7.500000e-01  2.968750e-01 -1.484375e-01
     vertex -1.817835e-17  2.968750e-01 -1.484375e-01
     vertex  5.131579e-01  2.968750e-01  1.562500e-03
   endloop
 endfacet
 facet normal  0.000000e+00  1.000000e+00  0.000000e+00
   outer loop
     vertex  4.342105e-01  2.968750e-01  3.173520e-01
     vertex  5.131579e-01  2.968750e-01  1.562500e-03
     vertex  3.157895e-01  2.968750e-01  1.989309e-01
   endloop
 endfacet
 facet normal  0.000000e+00  1.000000e+00  0.000000e+00
   outer loop
     vertex  7.500000e-01  2.968750e-01  1.562500e-03
     vertex  5.131579e-01  2.968750e-01  1.562500e-03
     vertex  4.342105e-01  2.968750e-01  3.173520e-01
   endloop
 endfacet
 facet normal  0.000000e+00  1.000000e+00  0.000000e+00
   outer loop
     vertex  7.500000e-01  2.968750e-01  1.562500e-03
     vertex  7.500000e-01  2.968750e-01 -1.484375e-01
     vertex  5.131579e-01  2.968750e-01  1.562500e-03
   endloop
 endfacet
 facet normal -7.071068e-01  0.000000e+00  7.071068e-01
   outer loop
     vertex  3.157895e-01  4.060671e-17  1.989309e-01
     vertex  4.342105e-01 -2.968750e-01  3.173520e-01
     vertex  4.342105e-01  5.510911e-17  3.173520e-01
   endloop
 endfacet
 facet normal -7.071068e-01  0.000000e+00  7.071068e-01
   outer loop
     vertex  3.157895e-01  4.060671e-17  1.989309e-01
     vertex  3.157895e-01 -2.968750e-01  1.989309e-01
     vertex  4.342105e-01 -2.968750e-01  3.173520e-01
   endloop
 endfacet
 facet normal -7.071068e-01  0.000000e+00 -7.071068e-01
   outer loop
     vertex  5.131579e-01  4.060671e-17  1.562500e-03
     vertex  3.157895e-01 -2.968750e-01  1.989309e-01
     vertex  3.157895e-01  4.060671e-17  1.989309e-01
   endloop
 endfacet
 facet normal -7.071068e-01 -0.000000e+00 -7.071068e-01
   outer loop
     vertex  5.131579e-01  4.060671e-17  1.562500e-03
     vertex  5.131579e-01 -2.968750e-01  1.562500e-03
     vertex  3.157895e-01 -2.968750e-01  1.989309e-01
   endloop
 endfacet
 facet normal  0.000000e+00  0.000000e+00  1.000000e+00
   outer loop
     vertex  9.184851e-18  9.184851e-18  1.562500e-03
     vertex  5.131579e-01  4.060671e-17  1.562500e-03
     vertex  5.131579e-01  2.968750e-01  1.562500e-03
   endloop
 endfacet
 facet normal  0.000000e+00 -0.000000e+00  1.000000e+00
   outer loop
     vertex  9.184851e-18  9.184851e-18  1.562500e-03
     vertex  5.131579e-01  2.968750e-01  1.562500e-03
     vertex -8.993500e-18  2.968750e-01  1.562500e-03
   endloop
 endfacet
 facet normal  7.071068e-01  0.000000e+00  7.071068e-01
   outer loop
     vertex  4.342105e-01  5.510911e-17  3.173520e-01
     vertex  7.500000e-01  5.510911e-17  1.562500e-03
     vertex  7.500000e-01  2.968750e-01  1.562500e-03
   endloop
 endfacet
 facet normal  7.071068e-01 -0.000000e+00  7.071068e-01
   outer loop
     vertex  4.342105e-01  5.510911e-17  3.173520e-01
     vertex  7.500000e-01  2.968750e-01  1.562500e-03
     vertex  4.342105e-01  2.968750e-01  3.173520e-01
   endloop
 endfacet
 facet normal -7.071068e-01  0.000000e+00  7.071068e-01
   outer loop
     vertex  3.157895e-01  4.060671e-17  1.989309e-01
     vertex  4.342105e-01  5.510911e-17  3.173520e-01
     vertex  4.342105e-01  2.968750e-01  3.173520e-01
   endloop
 endfacet
 facet normal -7.071068e-01  0.000000e+00  7.071068e-01
   outer loop
     vertex  3.157895e-01  4.060671e-17  1.989309e-01
     vertex  4.342105e-01  2.968750e-01  3.173520e-01
     vertex  3.157895e-01  2.968750e-01  1.989309e-01
   endloop
 endfacet
 facet normal -7.071068e-01  0.000000e+00 -7.071068e-01
   outer loop
     vertex  5.131579e-01  4.060671e-17  1.562500e-03
     vertex  3.157895e-01  4.060671e-17  1.989309e-01
     vertex  3.157895e-01  2.968750e-01  1.989309e-01
   endloop
 endfacet
 facet normal -7.071068e-01  0.000000e+00 -7.071068e-01
   outer loop
     vertex  5.131579e-01  4.060671e-17  1.562500e-03
     vertex  3.157895e-01  2.968750e-01  1.989309e-01
     vertex  5.131579e-01  2.968750e-01  1.562500e-03
   endloop
 endfacet
endsolid
