solid 
 facet normal -7.071068e-01 -9.387163e-17 -7.071068e-01
   outer loop
     vertex -1.562500e-02  5.970383e-33  1.933653e-18
     vertex  1.644737e-04  0.000000e+00 -1.578947e-02
     vertex  1.644737e-04 -7.500000e-01 -1.578947e-02
   endloop
 endfacet
 facet normal -7.071068e-01 -1.365220e-16 -7.071068e-01
   outer loop
     vertex -1.562500e-02  5.970383e-33  1.933653e-18
     vertex  1.644737e-04 -7.500000e-01 -1.578947e-02
     vertex -1.562500e-02 -7.500000e-01  4.785791e-17
   endloop
 endfacet
 facet normal -7.071068e-01 -5.177421e-17  7.071068e-01
   outer loop
     vertex  1.644737e-04  1.933653e-18  1.578947e-02
     vertex -1.562500e-02 -7.500000e-01  4.785791e-17
     vertex  1.644737e-04 -7.500000e-01  1.578947e-02
   endloop
 endfacet
 facet normal -7.071068e-01 -5.179124e-17  7.071068e-01
   outer loop
     vertex  1.644737e-04  1.933653e-18  1.578947e-02
     vertex -1.562500e-02  5.970383e-33  1.933653e-18
     vertex -1.562500e-02 -7.500000e-01  4.785791e-17
   endloop
 endfacet
 facet normal  7.071068e-01  1.381576e-16  7.071068e-01
   outer loop
     vertex  1.595395e-02  1.933653e-18 -1.933653e-18
     vertex  1.644737e-04 -7.500000e-01  1.578947e-02
     vertex  1.595395e-02 -7.500000e-01  4.399060e-17
   endloop
 endfacet
 facet normal  7.071068e-01  1.391890e-16  7.071068e-01
   outer loop
     vertex  1.595395e-02  1.933653e-18 -1.933653e-18
     vertex  1.644737e-04  1.933653e-18  1.578947e-02
     vertex  1.644737e-04 -7.500000e-01  1.578947e-02
   endloop
 endfacet
 facet normal  7.071068e-01  9.429755e-17 -7.071068e-01
   outer loop
     vertex  1.644737e-04  0.000000e+00 -1.578947e-02
     vertex  1.595395e-02 -7.500000e-01  4.399060e-17
     vertex  1.644737e-04 -7.500000e-01 -1.578947e-02
   endloop
 endfacet
 facet normal  7.071068e-01  4.855429e-17 -7.071068e-01
   outer loop
     vertex  1.644737e-04  0.000000e+00 -1.578947e-02
     vertex  1.595395e-02  1.933653e-18 -1.933653e-18
     vertex  1.595395e-02 -7.500000e-01  4.399060e-17
   endloop
 endfacet
 facet normal -6.123234e-17  1.000000e+00 -6.123234e-17
   outer loop
     vertex  1.644737e-04  1.933653e-18  1.578947e-02
     vertex  1.595395e-02  1.933653e-18 -1.933653e-18
     vertex  1.644737e-04  0.000000e+00 -1.578947e-02
   endloop
 endfacet
 facet normal -6.123234e-17  1.000000e+00 -6.123234e-17
   outer loop
     vertex  1.644737e-04  1.933653e-18  1.578947e-02
     vertex  1.644737e-04  0.000000e+00 -1.578947e-02
     vertex -1.562500e-02  5.970383e-33  1.933653e-18
   endloop
 endfacet
 facet normal  0.000000e+00 -1.000000e+00 -0.000000e+00
   outer loop
     vertex  1.644737e-04 -7.500000e-01  1.578947e-02
     vertex  1.644737e-04 -7.500000e-01 -1.578947e-02
     vertex  1.595395e-02 -7.500000e-01  4.399060e-17
   endloop
 endfacet
 facet normal  0.000000e+00 -1.000000e+00  0.000000e+00
   outer loop
     vertex  1.644737e-04 -7.500000e-01  1.578947e-02
     vertex -1.562500e-02 -7.500000e-01  4.785791e-17
     vertex  1.644737e-04 -7.500000e-01 -1.578947e-02
   endloop
 endfacet
 facet normal -7.071068e-01  0.000000e+00 -7.071068e-01
   outer loop
     vertex  1.015625e-01  5.970383e-33  1.933653e-18
     vertex  1.173520e-01  0.000000e+00 -1.578947e-02
     vertex  1.173520e-01 -4.218750e-01 -1.578947e-02
   endloop
 endfacet
 facet normal -7.071068e-01 -4.329780e-17 -7.071068e-01
   outer loop
     vertex  1.015625e-01  5.970383e-33  1.933653e-18
     vertex  1.173520e-01 -4.218750e-01 -1.578947e-02
     vertex  1.015625e-01 -4.218750e-01  2.776605e-17
   endloop
 endfacet
 facet normal -7.071068e-01  4.070610e-17  7.071068e-01
   outer loop
     vertex  1.173520e-01  1.933653e-18  1.578947e-02
     vertex  1.015625e-01 -4.218750e-01  2.776605e-17
     vertex  1.173520e-01 -4.218750e-01  1.578947e-02
   endloop
 endfacet
 facet normal -7.071068e-01  4.028208e-17  7.071068e-01
   outer loop
     vertex  1.173520e-01  1.933653e-18  1.578947e-02
     vertex  1.015625e-01  5.970383e-33  1.933653e-18
     vertex  1.015625e-01 -4.218750e-01  2.776605e-17
   endloop
 endfacet
 facet normal  7.071068e-01  4.329780e-17  7.071068e-01
   outer loop
     vertex  1.331414e-01  1.933653e-18 -1.933653e-18
     vertex  1.173520e-01 -4.218750e-01  1.578947e-02
     vertex  1.331414e-01 -4.218750e-01  2.389874e-17
   endloop
 endfacet
 facet normal  7.071068e-01  4.028208e-17  7.071068e-01
   outer loop
     vertex  1.331414e-01  1.933653e-18 -1.933653e-18
     vertex  1.173520e-01  1.933653e-18  1.578947e-02
     vertex  1.173520e-01 -4.218750e-01  1.578947e-02
   endloop
 endfacet
 facet normal  7.071068e-01  0.000000e+00 -7.071068e-01
   outer loop
     vertex  1.173520e-01  0.000000e+00 -1.578947e-02
     vertex  1.331414e-01 -4.218750e-01  2.389874e-17
     vertex  1.173520e-01 -4.218750e-01 -1.578947e-02
   endloop
 endfacet
 facet normal  7.071068e-01 -4.603666e-17 -7.071068e-01
   outer loop
     vertex  1.173520e-01  0.000000e+00 -1.578947e-02
     vertex  1.331414e-01  1.933653e-18 -1.933653e-18
     vertex  1.331414e-01 -4.218750e-01  2.389874e-17
   endloop
 endfacet
 facet normal -6.123234e-17  1.000000e+00 -6.123234e-17
   outer loop
     vertex  1.173520e-01  1.933653e-18  1.578947e-02
     vertex  1.331414e-01  1.933653e-18 -1.933653e-18
     vertex  1.173520e-01  0.000000e+00 -1.578947e-02
   endloop
 endfacet
 facet normal -6.123234e-17  1.000000e+00 -6.123234e-17
   outer loop
     vertex  1.173520e-01  1.933653e-18  1.578947e-02
     vertex  1.173520e-01  0.000000e+00 -1.578947e-02
     vertex  1.015625e-01  5.970383e-33  1.933653e-18
   endloop
 endfacet
 facet normal  0.000000e+00 -1.000000e+00  0.000000e+00
   outer loop
     vertex  1.173520e-01 -4.218750e-01  1.578947e-02
     vertex  1.173520e-01 -4.218750e-01 -1.578947e-02
     vertex  1.331414e-01 -4.218750e-01  2.389874e-17
   endloop
 endfacet
 facet normal  0.000000e+00 -1.000000e+00 -0.000000e+00
   outer loop
     vertex  1.173520e-01 -4.218750e-01  1.578947e-02
     vertex  1.015625e-01 -4.218750e-01  2.776605e-17
     vertex  1.173520e-01 -4.218750e-01 -1.578947e-02
   endloop
 endfacet
endsolid
