solid 
 facet normal  9.855170e-01  1.695767e-01 -3.355934e-15
   outer loop
     vertex  4.379163e-03 -3.235017e-01  0.000000e+00
     vertex -1.276756e-15 -2.980516e-01  0.000000e+00
     vertex  0.000000e+00 -2.980516e-01  3.750000e-01
   endloop
 endfacet
 facet normal  9.855170e-01  1.695767e-01  7.530720e-17
   outer loop
     vertex  4.379163e-03 -3.235017e-01  0.000000e+00
     vertex  0.000000e+00 -2.980516e-01  3.750000e-01
     vertex  4.379163e-03 -3.235017e-01  3.750000e-01
   endloop
 endfacet
 facet normal  9.947780e-01  1.020621e-01  1.510822e-17
   outer loop
     vertex  7.014822e-03 -3.491909e-01  0.000000e+00
     vertex  4.379163e-03 -3.235017e-01  3.750000e-01
     vertex  7.014822e-03 -3.491909e-01  3.750000e-01
   endloop
 endfacet
 facet normal  9.947780e-01  1.020621e-01  4.478310e-17
   outer loop
     vertex  7.014822e-03 -3.491909e-01  0.000000e+00
     vertex  4.379163e-03 -3.235017e-01  0.000000e+00
     vertex  4.379163e-03 -3.235017e-01  3.750000e-01
   endloop
 endfacet
 facet normal  9.994193e-01  3.407344e-02 -0.000000e+00
   outer loop
     vertex  7.894737e-03 -3.750000e-01  0.000000e+00
     vertex  7.014822e-03 -3.491909e-01  3.750000e-01
     vertex  7.894737e-03 -3.750000e-01  3.750000e-01
   endloop
 endfacet
 facet normal  9.994193e-01  3.407344e-02  4.898152e-18
   outer loop
     vertex  7.894737e-03 -3.750000e-01  0.000000e+00
     vertex  7.014822e-03 -3.491909e-01  0.000000e+00
     vertex  7.014822e-03 -3.491909e-01  3.750000e-01
   endloop
 endfacet
 facet normal  0.000000e+00  0.000000e+00 -1.000000e+00
   outer loop
     vertex -1.850372e-17 -3.750000e-01  0.000000e+00
     vertex  7.014822e-03 -4.008091e-01  0.000000e+00
     vertex  4.379163e-03 -4.264983e-01  0.000000e+00
   endloop
 endfacet
 facet normal -0.000000e+00  0.000000e+00 -1.000000e+00
   outer loop
     vertex  7.894737e-03 -3.750000e-01  0.000000e+00
     vertex  7.014822e-03 -4.008091e-01  0.000000e+00
     vertex -1.850372e-17 -3.750000e-01  0.000000e+00
   endloop
 endfacet
 facet normal  0.000000e+00 -0.000000e+00 -1.000000e+00
   outer loop
     vertex  7.014822e-03 -3.491909e-01  0.000000e+00
     vertex  7.894737e-03 -3.750000e-01  0.000000e+00
     vertex -1.850372e-17 -3.750000e-01  0.000000e+00
   endloop
 endfacet
 facet normal  0.000000e+00 -0.000000e+00 -1.000000e+00
   outer loop
     vertex  4.379163e-03 -3.235017e-01  0.000000e+00
     vertex  7.014822e-03 -3.491909e-01  0.000000e+00
     vertex -1.850372e-17 -3.750000e-01  0.000000e+00
   endloop
 endfacet
 facet normal  0.000000e+00  0.000000e+00 -1.000000e+00
   outer loop
     vertex -1.276756e-15 -2.980516e-01  0.000000e+00
     vertex  4.379163e-03 -3.235017e-01  0.000000e+00
     vertex -1.850372e-17 -3.750000e-01  0.000000e+00
   endloop
 endfacet
 facet normal  0.000000e+00 -0.000000e+00 -1.000000e+00
   outer loop
     vertex -1.850372e-17 -3.750000e-01  0.000000e+00
     vertex  4.379163e-03 -4.264983e-01  0.000000e+00
     vertex -1.276756e-15 -4.519484e-01  0.000000e+00
   endloop
 endfacet
 facet normal  1.000000e+00  0.000000e+00  4.934325e-17
   outer loop
     vertex  0.000000e+00 -2.980516e-01  3.750000e-01
     vertex -1.850372e-17 -3.750000e-01  7.500000e-01
     vertex  0.000000e+00 -3.750000e-01  3.750000e-01
   endloop
 endfacet
 facet normal  1.000000e+00 -4.934325e-17  3.921823e-17
   outer loop
     vertex  0.000000e+00 -2.980516e-01  3.750000e-01
     vertex  0.000000e+00  0.000000e+00  7.500000e-01
     vertex -1.850372e-17 -3.750000e-01  7.500000e-01
   endloop
 endfacet
 facet normal  1.000000e+00 -4.283676e-15 -3.404684e-15
   outer loop
     vertex  0.000000e+00  0.000000e+00  0.000000e+00
     vertex  0.000000e+00 -2.980516e-01  3.750000e-01
     vertex -1.276756e-15 -2.980516e-01  0.000000e+00
   endloop
 endfacet
 facet normal  1.000000e+00  0.000000e+00 -0.000000e+00
   outer loop
     vertex  0.000000e+00  0.000000e+00  0.000000e+00
     vertex  0.000000e+00  0.000000e+00  7.500000e-01
     vertex  0.000000e+00 -2.980516e-01  3.750000e-01
   endloop
 endfacet
 facet normal  0.000000e+00  0.000000e+00  1.000000e+00
   outer loop
     vertex  0.000000e+00 -3.750000e-01  3.750000e-01
     vertex  4.379163e-03 -4.264983e-01  3.750000e-01
     vertex  7.014822e-03 -4.008091e-01  3.750000e-01
   endloop
 endfacet
 facet normal  0.000000e+00  0.000000e+00  1.000000e+00
   outer loop
     vertex  7.894737e-03 -3.750000e-01  3.750000e-01
     vertex  0.000000e+00 -3.750000e-01  3.750000e-01
     vertex  7.014822e-03 -4.008091e-01  3.750000e-01
   endloop
 endfacet
 facet normal  0.000000e+00  0.000000e+00  1.000000e+00
   outer loop
     vertex  7.014822e-03 -3.491909e-01  3.750000e-01
     vertex  0.000000e+00 -3.750000e-01  3.750000e-01
     vertex  7.894737e-03 -3.750000e-01  3.750000e-01
   endloop
 endfacet
 facet normal  0.000000e+00  0.000000e+00  1.000000e+00
   outer loop
     vertex  4.379163e-03 -3.235017e-01  3.750000e-01
     vertex  0.000000e+00 -3.750000e-01  3.750000e-01
     vertex  7.014822e-03 -3.491909e-01  3.750000e-01
   endloop
 endfacet
 facet normal  0.000000e+00  0.000000e+00  1.000000e+00
   outer loop
     vertex  0.000000e+00 -2.980516e-01  3.750000e-01
     vertex  0.000000e+00 -3.750000e-01  3.750000e-01
     vertex  4.379163e-03 -3.235017e-01  3.750000e-01
   endloop
 endfacet
 facet normal  0.000000e+00  0.000000e+00  1.000000e+00
   outer loop
     vertex  0.000000e+00 -3.750000e-01  3.750000e-01
     vertex -5.551115e-17 -4.519484e-01  3.750000e-01
     vertex  4.379163e-03 -4.264983e-01  3.750000e-01
   endloop
 endfacet
 facet normal  9.994193e-01 -3.407344e-02 -1.176805e-16
   outer loop
     vertex  7.014822e-03 -4.008091e-01  0.000000e+00
     vertex  7.894737e-03 -3.750000e-01  3.750000e-01
     vertex  7.014822e-03 -4.008091e-01  3.750000e-01
   endloop
 endfacet
 facet normal  9.994193e-01 -3.407344e-02  0.000000e+00
   outer loop
     vertex  7.014822e-03 -4.008091e-01  0.000000e+00
     vertex  7.894737e-03 -3.750000e-01  0.000000e+00
     vertex  7.894737e-03 -3.750000e-01  3.750000e-01
   endloop
 endfacet
 facet normal  9.947780e-01 -1.020621e-01 -5.660740e-17
   outer loop
     vertex  4.379163e-03 -4.264983e-01  0.000000e+00
     vertex  7.014822e-03 -4.008091e-01  3.750000e-01
     vertex  4.379163e-03 -4.264983e-01  3.750000e-01
   endloop
 endfacet
 facet normal  9.947780e-01 -1.020621e-01 -5.737835e-17
   outer loop
     vertex  4.379163e-03 -4.264983e-01  0.000000e+00
     vertex  7.014822e-03 -4.008091e-01  0.000000e+00
     vertex  7.014822e-03 -4.008091e-01  3.750000e-01
   endloop
 endfacet
 facet normal  9.855170e-01 -1.695767e-01 -3.209488e-15
   outer loop
     vertex -1.276756e-15 -4.519484e-01  0.000000e+00
     vertex  4.379163e-03 -4.264983e-01  3.750000e-01
     vertex -5.551115e-17 -4.519484e-01  3.750000e-01
   endloop
 endfacet
 facet normal  9.855170e-01 -1.695767e-01  5.597888e-18
   outer loop
     vertex -1.276756e-15 -4.519484e-01  0.000000e+00
     vertex  4.379163e-03 -4.264983e-01  0.000000e+00
     vertex  4.379163e-03 -4.264983e-01  3.750000e-01
   endloop
 endfacet
 facet normal  0.000000e+00  0.000000e+00 -1.000000e+00
   outer loop
     vertex -2.915546e-01 -7.405980e-01  0.000000e+00
     vertex -3.164989e-01 -7.500000e-01  0.000000e+00
     vertex -3.750000e-01 -7.500000e-01  0.000000e+00
   endloop
 endfacet
 facet normal  0.000000e+00  0.000000e+00 -1.000000e+00
   outer loop
     vertex -2.273901e-01 -7.256596e-01  0.000000e+00
     vertex -3.164989e-01 -7.500000e-01  0.000000e+00
     vertex -2.915546e-01 -7.405980e-01  0.000000e+00
   endloop
 endfacet
 facet normal  0.000000e+00  0.000000e+00 -1.000000e+00
   outer loop
     vertex -2.122936e-01 -7.128633e-01  0.000000e+00
     vertex -2.273901e-01 -7.256596e-01  0.000000e+00
     vertex -2.915546e-01 -7.405980e-01  0.000000e+00
   endloop
 endfacet
 facet normal  0.000000e+00  0.000000e+00 -1.000000e+00
   outer loop
     vertex -1.468178e-01 -6.804829e-01  0.000000e+00
     vertex -2.273901e-01 -7.256596e-01  0.000000e+00
     vertex -2.122936e-01 -7.128633e-01  0.000000e+00
   endloop
 endfacet
 facet normal  0.000000e+00  0.000000e+00 -1.000000e+00
   outer loop
     vertex -1.411913e-01 -6.681868e-01  0.000000e+00
     vertex -1.468178e-01 -6.804829e-01  0.000000e+00
     vertex -2.122936e-01 -7.128633e-01  0.000000e+00
   endloop
 endfacet
 facet normal  0.000000e+00  0.000000e+00 -1.000000e+00
   outer loop
     vertex -7.956954e-02 -6.171543e-01  0.000000e+00
     vertex -1.468178e-01 -6.804829e-01  0.000000e+00
     vertex -1.411913e-01 -6.681868e-01  0.000000e+00
   endloop
 endfacet
 facet normal  0.000000e+00 -0.000000e+00 -1.000000e+00
   outer loop
     vertex -8.181319e-02 -6.088087e-01  0.000000e+00
     vertex -7.956954e-02 -6.171543e-01  0.000000e+00
     vertex -1.411913e-01 -6.681868e-01  0.000000e+00
   endloop
 endfacet
 facet normal -0.000000e+00  0.000000e+00 -1.000000e+00
   outer loop
     vertex -2.964137e-02 -5.394368e-01  0.000000e+00
     vertex -8.181319e-02 -6.088087e-01  0.000000e+00
     vertex -3.713667e-02 -5.377064e-01  0.000000e+00
   endloop
 endfacet
 facet normal  0.000000e+00  0.000000e+00 -1.000000e+00
   outer loop
     vertex -2.964137e-02 -5.394368e-01  0.000000e+00
     vertex -7.956954e-02 -6.171543e-01  0.000000e+00
     vertex -8.181319e-02 -6.088087e-01  0.000000e+00
   endloop
 endfacet
 facet normal  0.000000e+00  0.000000e+00 -1.000000e+00
   outer loop
     vertex -9.402033e-03 -4.584454e-01  0.000000e+00
     vertex -2.964137e-02 -5.394368e-01  0.000000e+00
     vertex -3.713667e-02 -5.377064e-01  0.000000e+00
   endloop
 endfacet
 facet normal  0.000000e+00  0.000000e+00 -1.000000e+00
   outer loop
     vertex -1.276756e-15 -4.519484e-01  0.000000e+00
     vertex -2.964137e-02 -5.394368e-01  0.000000e+00
     vertex -9.402033e-03 -4.584454e-01  0.000000e+00
   endloop
 endfacet
 facet normal  0.000000e+00  0.000000e+00 -1.000000e+00
   outer loop
     vertex -1.850372e-17 -3.750000e-01  0.000000e+00
     vertex -1.276756e-15 -4.519484e-01  0.000000e+00
     vertex -9.402033e-03 -4.584454e-01  0.000000e+00
   endloop
 endfacet
 facet normal  0.000000e+00  0.000000e+00 -1.000000e+00
   outer loop
     vertex -2.915546e-01 -9.402033e-03  0.000000e+00
     vertex -3.750000e-01  9.251859e-18  0.000000e+00
     vertex -3.164989e-01  2.109424e-15  0.000000e+00
   endloop
 endfacet
 facet normal -0.000000e+00 -0.000000e+00 -1.000000e+00
   outer loop
     vertex -1.276756e-15 -2.980516e-01  0.000000e+00
     vertex -1.850372e-17 -3.750000e-01  0.000000e+00
     vertex -9.402033e-03 -2.915546e-01  0.000000e+00
   endloop
 endfacet
 facet normal  0.000000e+00  0.000000e+00 -1.000000e+00
   outer loop
     vertex -2.122936e-01 -3.713667e-02  0.000000e+00
     vertex -2.915546e-01 -9.402033e-03  0.000000e+00
     vertex -2.273901e-01 -2.434036e-02  0.000000e+00
   endloop
 endfacet
 facet normal  0.000000e+00 -0.000000e+00 -1.000000e+00
   outer loop
     vertex -2.964137e-02 -2.105632e-01  0.000000e+00
     vertex -9.402033e-03 -2.915546e-01  0.000000e+00
     vertex -3.713667e-02 -2.122936e-01  0.000000e+00
   endloop
 endfacet
 facet normal  0.000000e+00  0.000000e+00 -1.000000e+00
   outer loop
     vertex -2.964137e-02 -2.105632e-01  0.000000e+00
     vertex -1.276756e-15 -2.980516e-01  0.000000e+00
     vertex -9.402033e-03 -2.915546e-01  0.000000e+00
   endloop
 endfacet
 facet normal  0.000000e+00  0.000000e+00 -1.000000e+00
   outer loop
     vertex -8.181319e-02 -1.411913e-01  0.000000e+00
     vertex -2.964137e-02 -2.105632e-01  0.000000e+00
     vertex -3.713667e-02 -2.122936e-01  0.000000e+00
   endloop
 endfacet
 facet normal -0.000000e+00 -0.000000e+00 -1.000000e+00
   outer loop
     vertex -1.468178e-01 -6.951706e-02  0.000000e+00
     vertex -1.411913e-01 -8.181319e-02  0.000000e+00
     vertex -2.122936e-01 -3.713667e-02  0.000000e+00
   endloop
 endfacet
 facet normal  0.000000e+00  0.000000e+00 -1.000000e+00
   outer loop
     vertex -1.468178e-01 -6.951706e-02  0.000000e+00
     vertex -2.122936e-01 -3.713667e-02  0.000000e+00
     vertex -2.273901e-01 -2.434036e-02  0.000000e+00
   endloop
 endfacet
 facet normal -0.000000e+00  0.000000e+00 -1.000000e+00
   outer loop
     vertex -7.956954e-02 -1.328457e-01  0.000000e+00
     vertex -8.181319e-02 -1.411913e-01  0.000000e+00
     vertex -1.411913e-01 -8.181319e-02  0.000000e+00
   endloop
 endfacet
 facet normal  0.000000e+00  0.000000e+00 -1.000000e+00
   outer loop
     vertex -7.956954e-02 -1.328457e-01  0.000000e+00
     vertex -1.411913e-01 -8.181319e-02  0.000000e+00
     vertex -1.468178e-01 -6.951706e-02  0.000000e+00
   endloop
 endfacet
 facet normal  0.000000e+00 -0.000000e+00 -1.000000e+00
   outer loop
     vertex -7.956954e-02 -1.328457e-01  0.000000e+00
     vertex -2.964137e-02 -2.105632e-01  0.000000e+00
     vertex -8.181319e-02 -1.411913e-01  0.000000e+00
   endloop
 endfacet
 facet normal  0.000000e+00  0.000000e+00 -1.000000e+00
   outer loop
     vertex -2.273901e-01 -2.434036e-02  0.000000e+00
     vertex -2.915546e-01 -9.402033e-03  0.000000e+00
     vertex -3.164989e-01  2.109424e-15  0.000000e+00
   endloop
 endfacet
 facet normal  0.000000e+00  0.000000e+00 -1.000000e+00
   outer loop
     vertex  0.000000e+00  0.000000e+00  0.000000e+00
     vertex -1.276756e-15 -2.980516e-01  0.000000e+00
     vertex -2.964137e-02 -2.105632e-01  0.000000e+00
   endloop
 endfacet
 facet normal  0.000000e+00  0.000000e+00 -1.000000e+00
   outer loop
     vertex  0.000000e+00  0.000000e+00  0.000000e+00
     vertex -2.964137e-02 -2.105632e-01  0.000000e+00
     vertex -7.956954e-02 -1.328457e-01  0.000000e+00
   endloop
 endfacet
 facet normal  0.000000e+00  0.000000e+00 -1.000000e+00
   outer loop
     vertex  0.000000e+00  0.000000e+00  0.000000e+00
     vertex -7.956954e-02 -1.328457e-01  0.000000e+00
     vertex -1.468178e-01 -6.951706e-02  0.000000e+00
   endloop
 endfacet
 facet normal  0.000000e+00  0.000000e+00 -1.000000e+00
   outer loop
     vertex  0.000000e+00  0.000000e+00  0.000000e+00
     vertex -1.468178e-01 -6.951706e-02  0.000000e+00
     vertex -2.273901e-01 -2.434036e-02  0.000000e+00
   endloop
 endfacet
 facet normal -0.000000e+00  0.000000e+00 -1.000000e+00
   outer loop
     vertex  0.000000e+00  0.000000e+00  0.000000e+00
     vertex -2.273901e-01 -2.434036e-02  0.000000e+00
     vertex -3.164989e-01  2.109424e-15  0.000000e+00
   endloop
 endfacet
 facet normal  2.467162e-17  1.000000e+00 -2.082278e-17
   outer loop
     vertex -3.164989e-01  0.000000e+00  3.750000e-01
     vertex -3.750000e-01  9.251859e-18  7.500000e-01
     vertex  0.000000e+00  0.000000e+00  7.500000e-01
   endloop
 endfacet
 facet normal  0.000000e+00  1.000000e+00 -0.000000e+00
   outer loop
     vertex  0.000000e+00  0.000000e+00  0.000000e+00
     vertex -3.164989e-01  0.000000e+00  3.750000e-01
     vertex  0.000000e+00  0.000000e+00  7.500000e-01
   endloop
 endfacet
 facet normal  0.000000e+00  1.000000e+00 -2.467162e-17
   outer loop
     vertex -3.750000e-01  0.000000e+00  3.750000e-01
     vertex -3.750000e-01  9.251859e-18  7.500000e-01
     vertex -3.164989e-01  0.000000e+00  3.750000e-01
   endloop
 endfacet
 facet normal  6.664869e-15  1.000000e+00  5.625130e-15
   outer loop
     vertex -3.164989e-01  2.109424e-15  0.000000e+00
     vertex -3.164989e-01  0.000000e+00  3.750000e-01
     vertex  0.000000e+00  0.000000e+00  0.000000e+00
   endloop
 endfacet
 facet normal  0.000000e+00  0.000000e+00  1.000000e+00
   outer loop
     vertex  0.000000e+00  0.000000e+00  7.500000e-01
     vertex -2.122936e-01 -3.713667e-02  7.500000e-01
     vertex -1.411913e-01 -8.181319e-02  7.500000e-01
   endloop
 endfacet
 facet normal  0.000000e+00  0.000000e+00  1.000000e+00
   outer loop
     vertex  0.000000e+00  0.000000e+00  7.500000e-01
     vertex -1.411913e-01 -8.181319e-02  7.500000e-01
     vertex -8.181319e-02 -1.411913e-01  7.500000e-01
   endloop
 endfacet
 facet normal  0.000000e+00  0.000000e+00  1.000000e+00
   outer loop
     vertex  0.000000e+00  0.000000e+00  7.500000e-01
     vertex -8.181319e-02 -1.411913e-01  7.500000e-01
     vertex -3.713667e-02 -2.122936e-01  7.500000e-01
   endloop
 endfacet
 facet normal  0.000000e+00  0.000000e+00  1.000000e+00
   outer loop
     vertex  0.000000e+00  0.000000e+00  7.500000e-01
     vertex -3.713667e-02 -2.122936e-01  7.500000e-01
     vertex -9.402033e-03 -2.915546e-01  7.500000e-01
   endloop
 endfacet
 facet normal  0.000000e+00 -0.000000e+00  1.000000e+00
   outer loop
     vertex -1.850372e-17 -3.750000e-01  7.500000e-01
     vertex  0.000000e+00  0.000000e+00  7.500000e-01
     vertex -9.402033e-03 -2.915546e-01  7.500000e-01
   endloop
 endfacet
 facet normal  0.000000e+00  0.000000e+00  1.000000e+00
   outer loop
     vertex  0.000000e+00  0.000000e+00  7.500000e-01
     vertex -3.750000e-01  9.251859e-18  7.500000e-01
     vertex -2.915546e-01 -9.402033e-03  7.500000e-01
   endloop
 endfacet
 facet normal  0.000000e+00  0.000000e+00  1.000000e+00
   outer loop
     vertex  0.000000e+00  0.000000e+00  7.500000e-01
     vertex -2.915546e-01 -9.402033e-03  7.500000e-01
     vertex -2.122936e-01 -3.713667e-02  7.500000e-01
   endloop
 endfacet
 facet normal  1.000000e+00  4.934325e-17 -1.088115e-16
   outer loop
     vertex -5.551115e-17 -4.519484e-01  3.750000e-01
     vertex -1.850372e-17 -3.750000e-01  7.500000e-01
     vertex  0.000000e+00 -7.500000e-01  7.500000e-01
   endloop
 endfacet
 facet normal  1.000000e+00  1.862468e-16 -0.000000e+00
   outer loop
     vertex  0.000000e+00 -7.500000e-01  0.000000e+00
     vertex -5.551115e-17 -4.519484e-01  3.750000e-01
     vertex  0.000000e+00 -7.500000e-01  7.500000e-01
   endloop
 endfacet
 facet normal  1.000000e+00 -7.214077e-16  4.934325e-17
   outer loop
     vertex  0.000000e+00 -3.750000e-01  3.750000e-01
     vertex -1.850372e-17 -3.750000e-01  7.500000e-01
     vertex -5.551115e-17 -4.519484e-01  3.750000e-01
   endloop
 endfacet
 facet normal  1.000000e+00  4.283676e-15 -3.256654e-15
   outer loop
     vertex -1.276756e-15 -4.519484e-01  0.000000e+00
     vertex -5.551115e-17 -4.519484e-01  3.750000e-01
     vertex  0.000000e+00 -7.500000e-01  0.000000e+00
   endloop
 endfacet
 facet normal  0.000000e+00  0.000000e+00 -1.000000e+00
   outer loop
     vertex -9.402033e-03 -2.915546e-01  0.000000e+00
     vertex -1.850372e-17 -3.750000e-01  0.000000e+00
     vertex -9.402033e-03 -4.584454e-01  0.000000e+00
   endloop
 endfacet
 facet normal  0.000000e+00  0.000000e+00 -1.000000e+00
   outer loop
     vertex -8.181319e-02 -1.411913e-01  0.000000e+00
     vertex -9.402033e-03 -4.584454e-01  0.000000e+00
     vertex -3.713667e-02 -5.377064e-01  0.000000e+00
   endloop
 endfacet
 facet normal  0.000000e+00  0.000000e+00 -1.000000e+00
   outer loop
     vertex -8.181319e-02 -1.411913e-01  0.000000e+00
     vertex -3.713667e-02 -5.377064e-01  0.000000e+00
     vertex -8.181319e-02 -6.088087e-01  0.000000e+00
   endloop
 endfacet
 facet normal  0.000000e+00 -0.000000e+00 -1.000000e+00
   outer loop
     vertex -8.181319e-02 -1.411913e-01  0.000000e+00
     vertex -8.181319e-02 -6.088087e-01  0.000000e+00
     vertex -1.411913e-01 -6.681868e-01  0.000000e+00
   endloop
 endfacet
 facet normal  0.000000e+00  0.000000e+00 -1.000000e+00
   outer loop
     vertex -8.181319e-02 -1.411913e-01  0.000000e+00
     vertex -1.411913e-01 -6.681868e-01  0.000000e+00
     vertex -2.122936e-01 -7.128633e-01  0.000000e+00
   endloop
 endfacet
 facet normal  0.000000e+00  0.000000e+00 -1.000000e+00
   outer loop
     vertex -8.181319e-02 -1.411913e-01  0.000000e+00
     vertex -2.122936e-01 -7.128633e-01  0.000000e+00
     vertex -2.915546e-01 -7.405980e-01  0.000000e+00
   endloop
 endfacet
 facet normal  0.000000e+00  0.000000e+00 -1.000000e+00
   outer loop
     vertex -8.181319e-02 -1.411913e-01  0.000000e+00
     vertex -2.915546e-01 -7.405980e-01  0.000000e+00
     vertex -3.750000e-01 -7.500000e-01  0.000000e+00
   endloop
 endfacet
 facet normal  0.000000e+00  0.000000e+00 -1.000000e+00
   outer loop
     vertex -8.181319e-02 -1.411913e-01  0.000000e+00
     vertex -3.750000e-01  9.251859e-18  0.000000e+00
     vertex -2.915546e-01 -9.402033e-03  0.000000e+00
   endloop
 endfacet
 facet normal  0.000000e+00  0.000000e+00 -1.000000e+00
   outer loop
     vertex -8.181319e-02 -1.411913e-01  0.000000e+00
     vertex -2.915546e-01 -9.402033e-03  0.000000e+00
     vertex -2.122936e-01 -3.713667e-02  0.000000e+00
   endloop
 endfacet
 facet normal  0.000000e+00  0.000000e+00 -1.000000e+00
   outer loop
     vertex -8.181319e-02 -1.411913e-01  0.000000e+00
     vertex -2.122936e-01 -3.713667e-02  0.000000e+00
     vertex -1.411913e-01 -8.181319e-02  0.000000e+00
   endloop
 endfacet
 facet normal  0.000000e+00  0.000000e+00 -1.000000e+00
   outer loop
     vertex -8.181319e-02 -1.411913e-01  0.000000e+00
     vertex -3.713667e-02 -2.122936e-01  0.000000e+00
     vertex -9.402033e-03 -2.915546e-01  0.000000e+00
   endloop
 endfacet
 facet normal  0.000000e+00  0.000000e+00 -1.000000e+00
   outer loop
     vertex -8.181319e-02 -1.411913e-01  0.000000e+00
     vertex -7.500000e-01 -3.750000e-01  0.000000e+00
     vertex -7.405980e-01 -2.915546e-01  0.000000e+00
   endloop
 endfacet
 facet normal  0.000000e+00  0.000000e+00 -1.000000e+00
   outer loop
     vertex -8.181319e-02 -1.411913e-01  0.000000e+00
     vertex -7.405980e-01 -2.915546e-01  0.000000e+00
     vertex -7.128633e-01 -2.122936e-01  0.000000e+00
   endloop
 endfacet
 facet normal  0.000000e+00  0.000000e+00 -1.000000e+00
   outer loop
     vertex -8.181319e-02 -1.411913e-01  0.000000e+00
     vertex -7.128633e-01 -2.122936e-01  0.000000e+00
     vertex -6.681868e-01 -1.411913e-01  0.000000e+00
   endloop
 endfacet
 facet normal -0.000000e+00  0.000000e+00 -1.000000e+00
   outer loop
     vertex -8.181319e-02 -1.411913e-01  0.000000e+00
     vertex -6.681868e-01 -1.411913e-01  0.000000e+00
     vertex -6.088087e-01 -8.181319e-02  0.000000e+00
   endloop
 endfacet
 facet normal  0.000000e+00  0.000000e+00 -1.000000e+00
   outer loop
     vertex -8.181319e-02 -1.411913e-01  0.000000e+00
     vertex -6.088087e-01 -8.181319e-02  0.000000e+00
     vertex -5.377064e-01 -3.713667e-02  0.000000e+00
   endloop
 endfacet
 facet normal  0.000000e+00  0.000000e+00 -1.000000e+00
   outer loop
     vertex -8.181319e-02 -1.411913e-01  0.000000e+00
     vertex -5.377064e-01 -3.713667e-02  0.000000e+00
     vertex -4.584454e-01 -9.402033e-03  0.000000e+00
   endloop
 endfacet
 facet normal  0.000000e+00  0.000000e+00 -1.000000e+00
   outer loop
     vertex -8.181319e-02 -1.411913e-01  0.000000e+00
     vertex -4.584454e-01 -9.402033e-03  0.000000e+00
     vertex -3.750000e-01  9.251859e-18  0.000000e+00
   endloop
 endfacet
 facet normal  0.000000e+00  0.000000e+00 -1.000000e+00
   outer loop
     vertex -8.181319e-02 -1.411913e-01  0.000000e+00
     vertex -3.750000e-01 -7.500000e-01  0.000000e+00
     vertex -4.584454e-01 -7.405980e-01  0.000000e+00
   endloop
 endfacet
 facet normal  0.000000e+00  0.000000e+00 -1.000000e+00
   outer loop
     vertex -8.181319e-02 -1.411913e-01  0.000000e+00
     vertex -4.584454e-01 -7.405980e-01  0.000000e+00
     vertex -5.377064e-01 -7.128633e-01  0.000000e+00
   endloop
 endfacet
 facet normal  0.000000e+00  0.000000e+00 -1.000000e+00
   outer loop
     vertex -8.181319e-02 -1.411913e-01  0.000000e+00
     vertex -5.377064e-01 -7.128633e-01  0.000000e+00
     vertex -6.088087e-01 -6.681868e-01  0.000000e+00
   endloop
 endfacet
 facet normal  0.000000e+00  0.000000e+00 -1.000000e+00
   outer loop
     vertex -8.181319e-02 -1.411913e-01  0.000000e+00
     vertex -6.088087e-01 -6.681868e-01  0.000000e+00
     vertex -6.681868e-01 -6.088087e-01  0.000000e+00
   endloop
 endfacet
 facet normal  0.000000e+00  0.000000e+00 -1.000000e+00
   outer loop
     vertex -8.181319e-02 -1.411913e-01  0.000000e+00
     vertex -6.681868e-01 -6.088087e-01  0.000000e+00
     vertex -7.128633e-01 -5.377064e-01  0.000000e+00
   endloop
 endfacet
 facet normal  0.000000e+00  0.000000e+00 -1.000000e+00
   outer loop
     vertex -8.181319e-02 -1.411913e-01  0.000000e+00
     vertex -7.128633e-01 -5.377064e-01  0.000000e+00
     vertex -7.405980e-01 -4.584454e-01  0.000000e+00
   endloop
 endfacet
 facet normal  0.000000e+00  0.000000e+00 -1.000000e+00
   outer loop
     vertex -8.181319e-02 -1.411913e-01  0.000000e+00
     vertex -7.405980e-01 -4.584454e-01  0.000000e+00
     vertex -7.500000e-01 -3.750000e-01  0.000000e+00
   endloop
 endfacet
 facet normal  0.000000e+00  0.000000e+00 -1.000000e+00
   outer loop
     vertex -8.181319e-02 -1.411913e-01  0.000000e+00
     vertex -9.402033e-03 -2.915546e-01  0.000000e+00
     vertex -9.402033e-03 -4.584454e-01  0.000000e+00
   endloop
 endfacet
 facet normal  0.000000e+00  0.000000e+00 -1.000000e+00
   outer loop
     vertex  0.000000e+00 -7.500000e-01  0.000000e+00
     vertex -3.164989e-01 -7.500000e-01  0.000000e+00
     vertex -2.273901e-01 -7.256596e-01  0.000000e+00
   endloop
 endfacet
 facet normal  0.000000e+00  0.000000e+00 -1.000000e+00
   outer loop
     vertex  0.000000e+00 -7.500000e-01  0.000000e+00
     vertex -2.273901e-01 -7.256596e-01  0.000000e+00
     vertex -1.468178e-01 -6.804829e-01  0.000000e+00
   endloop
 endfacet
 facet normal  0.000000e+00 -0.000000e+00 -1.000000e+00
   outer loop
     vertex -7.956954e-02 -6.171543e-01  0.000000e+00
     vertex  0.000000e+00 -7.500000e-01  0.000000e+00
     vertex -1.468178e-01 -6.804829e-01  0.000000e+00
   endloop
 endfacet
 facet normal  0.000000e+00 -0.000000e+00 -1.000000e+00
   outer loop
     vertex -2.964137e-02 -5.394368e-01  0.000000e+00
     vertex  0.000000e+00 -7.500000e-01  0.000000e+00
     vertex -7.956954e-02 -6.171543e-01  0.000000e+00
   endloop
 endfacet
 facet normal  0.000000e+00 -0.000000e+00 -1.000000e+00
   outer loop
     vertex -1.276756e-15 -4.519484e-01  0.000000e+00
     vertex  0.000000e+00 -7.500000e-01  0.000000e+00
     vertex -2.964137e-02 -5.394368e-01  0.000000e+00
   endloop
 endfacet
 facet normal  0.000000e+00  0.000000e+00 -1.000000e+00
   outer loop
     vertex -3.528117e-01 -7.535081e-01  0.000000e+00
     vertex -3.892936e-01 -7.535081e-01  0.000000e+00
     vertex -3.750000e-01 -7.500000e-01  0.000000e+00
   endloop
 endfacet
 facet normal -0.000000e+00  0.000000e+00 -1.000000e+00
   outer loop
     vertex -3.164989e-01 -7.500000e-01  0.000000e+00
     vertex -3.528117e-01 -7.535081e-01  0.000000e+00
     vertex -3.750000e-01 -7.500000e-01  0.000000e+00
   endloop
 endfacet
 facet normal -0.000000e+00  0.000000e+00 -1.000000e+00
   outer loop
     vertex -3.750000e-01 -7.500000e-01  0.000000e+00
     vertex -3.892936e-01 -7.535081e-01  0.000000e+00
     vertex -4.256063e-01 -7.500000e-01  0.000000e+00
   endloop
 endfacet
 facet normal -0.000000e+00  0.000000e+00 -1.000000e+00
   outer loop
     vertex -3.750000e-01  9.251859e-18  0.000000e+00
     vertex -4.256063e-01 -2.248202e-15  0.000000e+00
     vertex -3.892936e-01  3.508093e-03  0.000000e+00
   endloop
 endfacet
 facet normal -0.000000e+00  0.000000e+00 -1.000000e+00
   outer loop
     vertex -3.528117e-01  3.508093e-03  0.000000e+00
     vertex -3.750000e-01  9.251859e-18  0.000000e+00
     vertex -3.892936e-01  3.508093e-03  0.000000e+00
   endloop
 endfacet
 facet normal -0.000000e+00  0.000000e+00 -1.000000e+00
   outer loop
     vertex -3.164989e-01  2.109424e-15  0.000000e+00
     vertex -3.750000e-01  9.251859e-18  0.000000e+00
     vertex -3.528117e-01  3.508093e-03  0.000000e+00
   endloop
 endfacet
 facet normal -9.615996e-02  9.953659e-01 -5.967564e-15
   outer loop
     vertex -3.892936e-01  3.508093e-03  0.000000e+00
     vertex -4.256063e-01 -2.248202e-15  0.000000e+00
     vertex -4.256063e-01  0.000000e+00  3.750000e-01
   endloop
 endfacet
 facet normal -9.615996e-02  9.953659e-01  7.117266e-17
   outer loop
     vertex -3.892936e-01  3.508093e-03  0.000000e+00
     vertex -4.256063e-01  0.000000e+00  3.750000e-01
     vertex -3.892936e-01  3.508093e-03  3.750000e-01
   endloop
 endfacet
 facet normal  9.615996e-02  9.953659e-01 -5.693813e-17
   outer loop
     vertex -3.528117e-01  3.508093e-03  0.000000e+00
     vertex -3.528117e-01  3.508093e-03  3.750000e-01
     vertex -3.164989e-01  0.000000e+00  3.750000e-01
   endloop
 endfacet
 facet normal  0.000000e+00  1.000000e+00 -0.000000e+00
   outer loop
     vertex -3.528117e-01  3.508093e-03  0.000000e+00
     vertex -3.892936e-01  3.508093e-03  3.750000e-01
     vertex -3.528117e-01  3.508093e-03  3.750000e-01
   endloop
 endfacet
 facet normal  0.000000e+00  1.000000e+00  0.000000e+00
   outer loop
     vertex -3.528117e-01  3.508093e-03  0.000000e+00
     vertex -3.892936e-01  3.508093e-03  0.000000e+00
     vertex -3.892936e-01  3.508093e-03  3.750000e-01
   endloop
 endfacet
 facet normal  9.615996e-02  9.953659e-01  5.599063e-15
   outer loop
     vertex -3.164989e-01  2.109424e-15  0.000000e+00
     vertex -3.528117e-01  3.508093e-03  0.000000e+00
     vertex -3.164989e-01  0.000000e+00  3.750000e-01
   endloop
 endfacet
 facet normal  0.000000e+00  0.000000e+00  1.000000e+00
   outer loop
     vertex -3.750000e-01  0.000000e+00  3.750000e-01
     vertex -3.892936e-01  3.508093e-03  3.750000e-01
     vertex -4.256063e-01  0.000000e+00  3.750000e-01
   endloop
 endfacet
 facet normal  0.000000e+00  0.000000e+00  1.000000e+00
   outer loop
     vertex -3.528117e-01  3.508093e-03  3.750000e-01
     vertex -3.892936e-01  3.508093e-03  3.750000e-01
     vertex -3.750000e-01  0.000000e+00  3.750000e-01
   endloop
 endfacet
 facet normal  0.000000e+00  0.000000e+00  1.000000e+00
   outer loop
     vertex -3.164989e-01  0.000000e+00  3.750000e-01
     vertex -3.528117e-01  3.508093e-03  3.750000e-01
     vertex -3.750000e-01  0.000000e+00  3.750000e-01
   endloop
 endfacet
 facet normal -1.119645e-01 -9.937122e-01  2.410103e-17
   outer loop
     vertex -2.915546e-01 -9.402033e-03  3.750000e-01
     vertex -3.750000e-01  9.251859e-18  7.500000e-01
     vertex -3.750000e-01  0.000000e+00  3.750000e-01
   endloop
 endfacet
 facet normal -1.119645e-01 -9.937122e-01  0.000000e+00
   outer loop
     vertex -2.915546e-01 -9.402033e-03  3.750000e-01
     vertex -2.915546e-01 -9.402033e-03  7.500000e-01
     vertex -3.750000e-01  9.251859e-18  7.500000e-01
   endloop
 endfacet
 facet normal -3.302791e-01 -9.438833e-01  0.000000e+00
   outer loop
     vertex -2.122936e-01 -3.713667e-02  3.750000e-01
     vertex -2.122936e-01 -3.713667e-02  7.500000e-01
     vertex -2.915546e-01 -9.402033e-03  7.500000e-01
   endloop
 endfacet
 facet normal -3.302791e-01 -9.438833e-01  0.000000e+00
   outer loop
     vertex -2.122936e-01 -3.713667e-02  3.750000e-01
     vertex -2.915546e-01 -9.402033e-03  7.500000e-01
     vertex -2.915546e-01 -9.402033e-03  3.750000e-01
   endloop
 endfacet
 facet normal -5.320321e-01 -8.467242e-01  0.000000e+00
   outer loop
     vertex -1.411913e-01 -8.181319e-02  3.750000e-01
     vertex -1.411913e-01 -8.181319e-02  7.500000e-01
     vertex -2.122936e-01 -3.713667e-02  7.500000e-01
   endloop
 endfacet
 facet normal -5.320321e-01 -8.467242e-01  0.000000e+00
   outer loop
     vertex -1.411913e-01 -8.181319e-02  3.750000e-01
     vertex -2.122936e-01 -3.713667e-02  7.500000e-01
     vertex -2.122936e-01 -3.713667e-02  3.750000e-01
   endloop
 endfacet
 facet normal -7.071068e-01 -7.071068e-01  0.000000e+00
   outer loop
     vertex -8.181319e-02 -1.411913e-01  3.750000e-01
     vertex -8.181319e-02 -1.411913e-01  7.500000e-01
     vertex -1.411913e-01 -8.181319e-02  7.500000e-01
   endloop
 endfacet
 facet normal -7.071068e-01 -7.071068e-01  0.000000e+00
   outer loop
     vertex -8.181319e-02 -1.411913e-01  3.750000e-01
     vertex -1.411913e-01 -8.181319e-02  7.500000e-01
     vertex -1.411913e-01 -8.181319e-02  3.750000e-01
   endloop
 endfacet
 facet normal -8.467242e-01 -5.320321e-01  0.000000e+00
   outer loop
     vertex -3.713667e-02 -2.122936e-01  3.750000e-01
     vertex -3.713667e-02 -2.122936e-01  7.500000e-01
     vertex -8.181319e-02 -1.411913e-01  7.500000e-01
   endloop
 endfacet
 facet normal -8.467242e-01 -5.320321e-01  0.000000e+00
   outer loop
     vertex -3.713667e-02 -2.122936e-01  3.750000e-01
     vertex -8.181319e-02 -1.411913e-01  7.500000e-01
     vertex -8.181319e-02 -1.411913e-01  3.750000e-01
   endloop
 endfacet
 facet normal -9.438833e-01 -3.302791e-01  0.000000e+00
   outer loop
     vertex -9.402033e-03 -2.915546e-01  3.750000e-01
     vertex -9.402033e-03 -2.915546e-01  7.500000e-01
     vertex -3.713667e-02 -2.122936e-01  7.500000e-01
   endloop
 endfacet
 facet normal -9.438833e-01 -3.302791e-01  0.000000e+00
   outer loop
     vertex -9.402033e-03 -2.915546e-01  3.750000e-01
     vertex -3.713667e-02 -2.122936e-01  7.500000e-01
     vertex -3.713667e-02 -2.122936e-01  3.750000e-01
   endloop
 endfacet
 facet normal -9.937122e-01 -1.119645e-01 -4.903299e-17
   outer loop
     vertex  0.000000e+00 -3.750000e-01  3.750000e-01
     vertex -1.850372e-17 -3.750000e-01  7.500000e-01
     vertex -9.402033e-03 -2.915546e-01  7.500000e-01
   endloop
 endfacet
 facet normal -9.937122e-01 -1.119645e-01  0.000000e+00
   outer loop
     vertex  0.000000e+00 -3.750000e-01  3.750000e-01
     vertex -9.402033e-03 -2.915546e-01  7.500000e-01
     vertex -9.402033e-03 -2.915546e-01  3.750000e-01
   endloop
 endfacet
 facet normal  0.000000e+00  0.000000e+00  1.000000e+00
   outer loop
     vertex  0.000000e+00 -7.500000e-01  7.500000e-01
     vertex -1.411913e-01 -6.681868e-01  7.500000e-01
     vertex -2.122936e-01 -7.128633e-01  7.500000e-01
   endloop
 endfacet
 facet normal  0.000000e+00  0.000000e+00  1.000000e+00
   outer loop
     vertex  0.000000e+00 -7.500000e-01  7.500000e-01
     vertex -2.122936e-01 -7.128633e-01  7.500000e-01
     vertex -2.915546e-01 -7.405980e-01  7.500000e-01
   endloop
 endfacet
 facet normal  0.000000e+00  0.000000e+00  1.000000e+00
   outer loop
     vertex  0.000000e+00 -7.500000e-01  7.500000e-01
     vertex -2.915546e-01 -7.405980e-01  7.500000e-01
     vertex -3.750000e-01 -7.500000e-01  7.500000e-01
   endloop
 endfacet
 facet normal  0.000000e+00  0.000000e+00  1.000000e+00
   outer loop
     vertex -8.181319e-02 -6.088087e-01  7.500000e-01
     vertex -1.411913e-01 -6.681868e-01  7.500000e-01
     vertex  0.000000e+00 -7.500000e-01  7.500000e-01
   endloop
 endfacet
 facet normal  0.000000e+00  0.000000e+00  1.000000e+00
   outer loop
     vertex -3.713667e-02 -5.377064e-01  7.500000e-01
     vertex -8.181319e-02 -6.088087e-01  7.500000e-01
     vertex  0.000000e+00 -7.500000e-01  7.500000e-01
   endloop
 endfacet
 facet normal  0.000000e+00  0.000000e+00  1.000000e+00
   outer loop
     vertex -9.402033e-03 -4.584454e-01  7.500000e-01
     vertex -3.713667e-02 -5.377064e-01  7.500000e-01
     vertex  0.000000e+00 -7.500000e-01  7.500000e-01
   endloop
 endfacet
 facet normal  0.000000e+00  0.000000e+00  1.000000e+00
   outer loop
     vertex  0.000000e+00 -7.500000e-01  7.500000e-01
     vertex -1.850372e-17 -3.750000e-01  7.500000e-01
     vertex -9.402033e-03 -4.584454e-01  7.500000e-01
   endloop
 endfacet
 facet normal  0.000000e+00 -1.000000e+00  0.000000e+00
   outer loop
     vertex -3.164989e-01 -7.500000e-01  3.750000e-01
     vertex -3.750000e-01 -7.500000e-01  7.500000e-01
     vertex -3.750000e-01 -7.500000e-01  3.750000e-01
   endloop
 endfacet
 facet normal  0.000000e+00 -1.000000e+00  0.000000e+00
   outer loop
     vertex -3.164989e-01 -7.500000e-01  3.750000e-01
     vertex  0.000000e+00 -7.500000e-01  7.500000e-01
     vertex -3.750000e-01 -7.500000e-01  7.500000e-01
   endloop
 endfacet
 facet normal  0.000000e+00 -1.000000e+00  0.000000e+00
   outer loop
     vertex  0.000000e+00 -7.500000e-01  0.000000e+00
     vertex -3.164989e-01 -7.500000e-01  3.750000e-01
     vertex -3.164989e-01 -7.500000e-01  0.000000e+00
   endloop
 endfacet
 facet normal  0.000000e+00 -1.000000e+00  0.000000e+00
   outer loop
     vertex  0.000000e+00 -7.500000e-01  0.000000e+00
     vertex  0.000000e+00 -7.500000e-01  7.500000e-01
     vertex -3.164989e-01 -7.500000e-01  3.750000e-01
   endloop
 endfacet
 facet normal  0.000000e+00  0.000000e+00 -1.000000e+00
   outer loop
     vertex -3.750000e-01  9.251859e-18  0.000000e+00
     vertex -4.584454e-01 -9.402033e-03  0.000000e+00
     vertex -4.256063e-01 -2.248202e-15  0.000000e+00
   endloop
 endfacet
 facet normal  0.000000e+00  0.000000e+00  1.000000e+00
   outer loop
     vertex -5.377064e-01 -3.713667e-02  0.000000e+00
     vertex -4.256063e-01 -2.248202e-15  0.000000e+00
     vertex -4.584454e-01 -9.402033e-03  0.000000e+00
   endloop
 endfacet
 facet normal  9.615996e-02 -9.953659e-01  0.000000e+00
   outer loop
     vertex -3.528117e-01 -7.535081e-01  0.000000e+00
     vertex -3.164989e-01 -7.500000e-01  3.750000e-01
     vertex -3.528117e-01 -7.535081e-01  3.750000e-01
   endloop
 endfacet
 facet normal  9.615996e-02 -9.953659e-01  0.000000e+00
   outer loop
     vertex -3.528117e-01 -7.535081e-01  0.000000e+00
     vertex -3.164989e-01 -7.500000e-01  0.000000e+00
     vertex -3.164989e-01 -7.500000e-01  3.750000e-01
   endloop
 endfacet
 facet normal -9.615996e-02 -9.953659e-01  0.000000e+00
   outer loop
     vertex -3.892936e-01 -7.535081e-01  0.000000e+00
     vertex -3.892936e-01 -7.535081e-01  3.750000e-01
     vertex -4.256063e-01 -7.500000e-01  3.750000e-01
   endloop
 endfacet
 facet normal  0.000000e+00 -1.000000e+00  0.000000e+00
   outer loop
     vertex -3.892936e-01 -7.535081e-01  0.000000e+00
     vertex -3.528117e-01 -7.535081e-01  3.750000e-01
     vertex -3.892936e-01 -7.535081e-01  3.750000e-01
   endloop
 endfacet
 facet normal  0.000000e+00 -1.000000e+00  0.000000e+00
   outer loop
     vertex -3.892936e-01 -7.535081e-01  0.000000e+00
     vertex -3.528117e-01 -7.535081e-01  0.000000e+00
     vertex -3.528117e-01 -7.535081e-01  3.750000e-01
   endloop
 endfacet
 facet normal -9.615996e-02 -9.953659e-01  0.000000e+00
   outer loop
     vertex -4.256063e-01 -7.500000e-01  0.000000e+00
     vertex -3.892936e-01 -7.535081e-01  0.000000e+00
     vertex -4.256063e-01 -7.500000e-01  3.750000e-01
   endloop
 endfacet
 facet normal  0.000000e+00  1.000000e+00 -2.467162e-17
   outer loop
     vertex -4.256063e-01  0.000000e+00  3.750000e-01
     vertex -3.750000e-01  9.251859e-18  7.500000e-01
     vertex -3.750000e-01  0.000000e+00  3.750000e-01
   endloop
 endfacet
 facet normal -2.467162e-17  1.000000e+00 -2.134218e-17
   outer loop
     vertex -4.256063e-01  0.000000e+00  3.750000e-01
     vertex -7.500000e-01  0.000000e+00  7.500000e-01
     vertex -3.750000e-01  9.251859e-18  7.500000e-01
   endloop
 endfacet
 facet normal  6.930474e-15  1.000000e+00 -5.995204e-15
   outer loop
     vertex -7.500000e-01  0.000000e+00  0.000000e+00
     vertex -4.256063e-01  0.000000e+00  3.750000e-01
     vertex -4.256063e-01 -2.248202e-15  0.000000e+00
   endloop
 endfacet
 facet normal  0.000000e+00  1.000000e+00  0.000000e+00
   outer loop
     vertex -7.500000e-01  0.000000e+00  0.000000e+00
     vertex -7.500000e-01  0.000000e+00  7.500000e-01
     vertex -4.256063e-01  0.000000e+00  3.750000e-01
   endloop
 endfacet
 facet normal  0.000000e+00  0.000000e+00  1.000000e+00
   outer loop
     vertex -9.402033e-03 -2.915546e-01  3.750000e-01
     vertex -9.402033e-03 -4.584454e-01  3.750000e-01
     vertex  0.000000e+00 -3.750000e-01  3.750000e-01
   endloop
 endfacet
 facet normal  0.000000e+00  0.000000e+00  1.000000e+00
   outer loop
     vertex -8.181319e-02 -1.411913e-01  3.750000e-01
     vertex -3.713667e-02 -5.377064e-01  3.750000e-01
     vertex -9.402033e-03 -4.584454e-01  3.750000e-01
   endloop
 endfacet
 facet normal  0.000000e+00  0.000000e+00  1.000000e+00
   outer loop
     vertex -8.181319e-02 -1.411913e-01  3.750000e-01
     vertex -8.181319e-02 -6.088087e-01  3.750000e-01
     vertex -3.713667e-02 -5.377064e-01  3.750000e-01
   endloop
 endfacet
 facet normal  0.000000e+00  0.000000e+00  1.000000e+00
   outer loop
     vertex -8.181319e-02 -1.411913e-01  3.750000e-01
     vertex -1.411913e-01 -6.681868e-01  3.750000e-01
     vertex -8.181319e-02 -6.088087e-01  3.750000e-01
   endloop
 endfacet
 facet normal  0.000000e+00  0.000000e+00  1.000000e+00
   outer loop
     vertex -8.181319e-02 -1.411913e-01  3.750000e-01
     vertex -2.122936e-01 -7.128633e-01  3.750000e-01
     vertex -1.411913e-01 -6.681868e-01  3.750000e-01
   endloop
 endfacet
 facet normal  0.000000e+00  0.000000e+00  1.000000e+00
   outer loop
     vertex -8.181319e-02 -1.411913e-01  3.750000e-01
     vertex -2.915546e-01 -7.405980e-01  3.750000e-01
     vertex -2.122936e-01 -7.128633e-01  3.750000e-01
   endloop
 endfacet
 facet normal  0.000000e+00  0.000000e+00  1.000000e+00
   outer loop
     vertex -8.181319e-02 -1.411913e-01  3.750000e-01
     vertex -3.750000e-01 -7.500000e-01  3.750000e-01
     vertex -2.915546e-01 -7.405980e-01  3.750000e-01
   endloop
 endfacet
 facet normal  0.000000e+00  0.000000e+00  1.000000e+00
   outer loop
     vertex -8.181319e-02 -1.411913e-01  3.750000e-01
     vertex -2.915546e-01 -9.402033e-03  3.750000e-01
     vertex -3.750000e-01  0.000000e+00  3.750000e-01
   endloop
 endfacet
 facet normal  0.000000e+00  0.000000e+00  1.000000e+00
   outer loop
     vertex -8.181319e-02 -1.411913e-01  3.750000e-01
     vertex -2.122936e-01 -3.713667e-02  3.750000e-01
     vertex -2.915546e-01 -9.402033e-03  3.750000e-01
   endloop
 endfacet
 facet normal  0.000000e+00  0.000000e+00  1.000000e+00
   outer loop
     vertex -8.181319e-02 -1.411913e-01  3.750000e-01
     vertex -1.411913e-01 -8.181319e-02  3.750000e-01
     vertex -2.122936e-01 -3.713667e-02  3.750000e-01
   endloop
 endfacet
 facet normal  0.000000e+00  0.000000e+00  1.000000e+00
   outer loop
     vertex -8.181319e-02 -1.411913e-01  3.750000e-01
     vertex -9.402033e-03 -2.915546e-01  3.750000e-01
     vertex -3.713667e-02 -2.122936e-01  3.750000e-01
   endloop
 endfacet
 facet normal  0.000000e+00  0.000000e+00  1.000000e+00
   outer loop
     vertex -8.181319e-02 -1.411913e-01  3.750000e-01
     vertex -7.405980e-01 -2.915546e-01  3.750000e-01
     vertex -7.500000e-01 -3.750000e-01  3.750000e-01
   endloop
 endfacet
 facet normal  0.000000e+00  0.000000e+00  1.000000e+00
   outer loop
     vertex -8.181319e-02 -1.411913e-01  3.750000e-01
     vertex -7.128633e-01 -2.122936e-01  3.750000e-01
     vertex -7.405980e-01 -2.915546e-01  3.750000e-01
   endloop
 endfacet
 facet normal  0.000000e+00  0.000000e+00  1.000000e+00
   outer loop
     vertex -8.181319e-02 -1.411913e-01  3.750000e-01
     vertex -6.681868e-01 -1.411913e-01  3.750000e-01
     vertex -7.128633e-01 -2.122936e-01  3.750000e-01
   endloop
 endfacet
 facet normal  0.000000e+00  0.000000e+00  1.000000e+00
   outer loop
     vertex -8.181319e-02 -1.411913e-01  3.750000e-01
     vertex -6.088087e-01 -8.181319e-02  3.750000e-01
     vertex -6.681868e-01 -1.411913e-01  3.750000e-01
   endloop
 endfacet
 facet normal  0.000000e+00  0.000000e+00  1.000000e+00
   outer loop
     vertex -8.181319e-02 -1.411913e-01  3.750000e-01
     vertex -5.377064e-01 -3.713667e-02  3.750000e-01
     vertex -6.088087e-01 -8.181319e-02  3.750000e-01
   endloop
 endfacet
 facet normal  0.000000e+00  0.000000e+00  1.000000e+00
   outer loop
     vertex -8.181319e-02 -1.411913e-01  3.750000e-01
     vertex -4.584454e-01 -9.402033e-03  3.750000e-01
     vertex -5.377064e-01 -3.713667e-02  3.750000e-01
   endloop
 endfacet
 facet normal  0.000000e+00  0.000000e+00  1.000000e+00
   outer loop
     vertex -8.181319e-02 -1.411913e-01  3.750000e-01
     vertex -3.750000e-01  0.000000e+00  3.750000e-01
     vertex -4.584454e-01 -9.402033e-03  3.750000e-01
   endloop
 endfacet
 facet normal  0.000000e+00  0.000000e+00  1.000000e+00
   outer loop
     vertex -8.181319e-02 -1.411913e-01  3.750000e-01
     vertex -4.584454e-01 -7.405980e-01  3.750000e-01
     vertex -3.750000e-01 -7.500000e-01  3.750000e-01
   endloop
 endfacet
 facet normal  0.000000e+00  0.000000e+00  1.000000e+00
   outer loop
     vertex -8.181319e-02 -1.411913e-01  3.750000e-01
     vertex -5.377064e-01 -7.128633e-01  3.750000e-01
     vertex -4.584454e-01 -7.405980e-01  3.750000e-01
   endloop
 endfacet
 facet normal  0.000000e+00  0.000000e+00  1.000000e+00
   outer loop
     vertex -8.181319e-02 -1.411913e-01  3.750000e-01
     vertex -6.088087e-01 -6.681868e-01  3.750000e-01
     vertex -5.377064e-01 -7.128633e-01  3.750000e-01
   endloop
 endfacet
 facet normal  0.000000e+00  0.000000e+00  1.000000e+00
   outer loop
     vertex -8.181319e-02 -1.411913e-01  3.750000e-01
     vertex -6.681868e-01 -6.088087e-01  3.750000e-01
     vertex -6.088087e-01 -6.681868e-01  3.750000e-01
   endloop
 endfacet
 facet normal  0.000000e+00  0.000000e+00  1.000000e+00
   outer loop
     vertex -8.181319e-02 -1.411913e-01  3.750000e-01
     vertex -7.128633e-01 -5.377064e-01  3.750000e-01
     vertex -6.681868e-01 -6.088087e-01  3.750000e-01
   endloop
 endfacet
 facet normal  0.000000e+00  0.000000e+00  1.000000e+00
   outer loop
     vertex -8.181319e-02 -1.411913e-01  3.750000e-01
     vertex -7.405980e-01 -4.584454e-01  3.750000e-01
     vertex -7.128633e-01 -5.377064e-01  3.750000e-01
   endloop
 endfacet
 facet normal  0.000000e+00  0.000000e+00  1.000000e+00
   outer loop
     vertex -8.181319e-02 -1.411913e-01  3.750000e-01
     vertex -7.500000e-01 -3.750000e-01  3.750000e-01
     vertex -7.405980e-01 -4.584454e-01  3.750000e-01
   endloop
 endfacet
 facet normal  0.000000e+00  0.000000e+00  1.000000e+00
   outer loop
     vertex -8.181319e-02 -1.411913e-01  3.750000e-01
     vertex -9.402033e-03 -4.584454e-01  3.750000e-01
     vertex -9.402033e-03 -2.915546e-01  3.750000e-01
   endloop
 endfacet
 facet normal -9.937122e-01  1.119645e-01 -5.164506e-17
   outer loop
     vertex -9.402033e-03 -4.584454e-01  3.750000e-01
     vertex -1.850372e-17 -3.750000e-01  7.500000e-01
     vertex  0.000000e+00 -3.750000e-01  3.750000e-01
   endloop
 endfacet
 facet normal -9.937122e-01  1.119645e-01  0.000000e+00
   outer loop
     vertex -9.402033e-03 -4.584454e-01  3.750000e-01
     vertex -9.402033e-03 -4.584454e-01  7.500000e-01
     vertex -1.850372e-17 -3.750000e-01  7.500000e-01
   endloop
 endfacet
 facet normal -9.438833e-01  3.302791e-01  0.000000e+00
   outer loop
     vertex -3.713667e-02 -5.377064e-01  3.750000e-01
     vertex -3.713667e-02 -5.377064e-01  7.500000e-01
     vertex -9.402033e-03 -4.584454e-01  7.500000e-01
   endloop
 endfacet
 facet normal -9.438833e-01  3.302791e-01  0.000000e+00
   outer loop
     vertex -3.713667e-02 -5.377064e-01  3.750000e-01
     vertex -9.402033e-03 -4.584454e-01  7.500000e-01
     vertex -9.402033e-03 -4.584454e-01  3.750000e-01
   endloop
 endfacet
 facet normal -8.467242e-01  5.320321e-01  0.000000e+00
   outer loop
     vertex -8.181319e-02 -6.088087e-01  3.750000e-01
     vertex -8.181319e-02 -6.088087e-01  7.500000e-01
     vertex -3.713667e-02 -5.377064e-01  7.500000e-01
   endloop
 endfacet
 facet normal -8.467242e-01  5.320321e-01  0.000000e+00
   outer loop
     vertex -8.181319e-02 -6.088087e-01  3.750000e-01
     vertex -3.713667e-02 -5.377064e-01  7.500000e-01
     vertex -3.713667e-02 -5.377064e-01  3.750000e-01
   endloop
 endfacet
 facet normal -7.071068e-01  7.071068e-01  0.000000e+00
   outer loop
     vertex -1.411913e-01 -6.681868e-01  3.750000e-01
     vertex -1.411913e-01 -6.681868e-01  7.500000e-01
     vertex -8.181319e-02 -6.088087e-01  7.500000e-01
   endloop
 endfacet
 facet normal -7.071068e-01  7.071068e-01  0.000000e+00
   outer loop
     vertex -1.411913e-01 -6.681868e-01  3.750000e-01
     vertex -8.181319e-02 -6.088087e-01  7.500000e-01
     vertex -8.181319e-02 -6.088087e-01  3.750000e-01
   endloop
 endfacet
 facet normal -5.320321e-01  8.467242e-01  0.000000e+00
   outer loop
     vertex -2.122936e-01 -7.128633e-01  3.750000e-01
     vertex -2.122936e-01 -7.128633e-01  7.500000e-01
     vertex -1.411913e-01 -6.681868e-01  7.500000e-01
   endloop
 endfacet
 facet normal -5.320321e-01  8.467242e-01  0.000000e+00
   outer loop
     vertex -2.122936e-01 -7.128633e-01  3.750000e-01
     vertex -1.411913e-01 -6.681868e-01  7.500000e-01
     vertex -1.411913e-01 -6.681868e-01  3.750000e-01
   endloop
 endfacet
 facet normal -3.302791e-01  9.438833e-01  0.000000e+00
   outer loop
     vertex -2.915546e-01 -7.405980e-01  3.750000e-01
     vertex -2.915546e-01 -7.405980e-01  7.500000e-01
     vertex -2.122936e-01 -7.128633e-01  7.500000e-01
   endloop
 endfacet
 facet normal -3.302791e-01  9.438833e-01  0.000000e+00
   outer loop
     vertex -2.915546e-01 -7.405980e-01  3.750000e-01
     vertex -2.122936e-01 -7.128633e-01  7.500000e-01
     vertex -2.122936e-01 -7.128633e-01  3.750000e-01
   endloop
 endfacet
 facet normal -1.119645e-01  9.937122e-01  0.000000e+00
   outer loop
     vertex -3.750000e-01 -7.500000e-01  3.750000e-01
     vertex -3.750000e-01 -7.500000e-01  7.500000e-01
     vertex -2.915546e-01 -7.405980e-01  7.500000e-01
   endloop
 endfacet
 facet normal -1.119645e-01  9.937122e-01  0.000000e+00
   outer loop
     vertex -3.750000e-01 -7.500000e-01  3.750000e-01
     vertex -2.915546e-01 -7.405980e-01  7.500000e-01
     vertex -2.915546e-01 -7.405980e-01  3.750000e-01
   endloop
 endfacet
 facet normal  0.000000e+00  0.000000e+00  1.000000e+00
   outer loop
     vertex -3.528117e-01 -7.535081e-01  3.750000e-01
     vertex -3.750000e-01 -7.500000e-01  3.750000e-01
     vertex -3.892936e-01 -7.535081e-01  3.750000e-01
   endloop
 endfacet
 facet normal  0.000000e+00  0.000000e+00  1.000000e+00
   outer loop
     vertex -3.164989e-01 -7.500000e-01  3.750000e-01
     vertex -3.750000e-01 -7.500000e-01  3.750000e-01
     vertex -3.528117e-01 -7.535081e-01  3.750000e-01
   endloop
 endfacet
 facet normal  0.000000e+00  0.000000e+00  1.000000e+00
   outer loop
     vertex -3.750000e-01 -7.500000e-01  3.750000e-01
     vertex -4.256063e-01 -7.500000e-01  3.750000e-01
     vertex -3.892936e-01 -7.535081e-01  3.750000e-01
   endloop
 endfacet
 facet normal -0.000000e+00  0.000000e+00 -1.000000e+00
   outer loop
     vertex -5.912059e-01 -6.834375e-01  0.000000e+00
     vertex -7.500000e-01 -7.500000e-01  0.000000e+00
     vertex -6.576482e-01 -6.229195e-01  0.000000e+00
   endloop
 endfacet
 facet normal  0.000000e+00 -0.000000e+00 -1.000000e+00
   outer loop
     vertex -7.079707e-01 -5.484569e-01  0.000000e+00
     vertex -6.576482e-01 -6.229195e-01  0.000000e+00
     vertex -7.500000e-01 -7.500000e-01  0.000000e+00
   endloop
 endfacet
 facet normal -0.000000e+00  0.000000e+00 -1.000000e+00
   outer loop
     vertex -5.123807e-01 -7.266070e-01  0.000000e+00
     vertex -7.500000e-01 -7.500000e-01  0.000000e+00
     vertex -5.912059e-01 -6.834375e-01  0.000000e+00
   endloop
 endfacet
 facet normal  0.000000e+00 -0.000000e+00 -1.000000e+00
   outer loop
     vertex -7.393428e-01 -4.642381e-01  0.000000e+00
     vertex -7.079707e-01 -5.484569e-01  0.000000e+00
     vertex -7.500000e-01 -7.500000e-01  0.000000e+00
   endloop
 endfacet
 facet normal  0.000000e+00  0.000000e+00 -1.000000e+00
   outer loop
     vertex -4.256063e-01 -7.500000e-01  0.000000e+00
     vertex -7.500000e-01 -7.500000e-01  0.000000e+00
     vertex -5.123807e-01 -7.266070e-01  0.000000e+00
   endloop
 endfacet
 facet normal  0.000000e+00  0.000000e+00 -1.000000e+00
   outer loop
     vertex -7.500000e-01 -3.750000e-01  0.000000e+00
     vertex -7.393428e-01 -4.642381e-01  0.000000e+00
     vertex -7.500000e-01 -7.500000e-01  0.000000e+00
   endloop
 endfacet
 facet normal  0.000000e+00  0.000000e+00 -1.000000e+00
   outer loop
     vertex -7.500000e-01  0.000000e+00  0.000000e+00
     vertex -6.576482e-01 -1.270805e-01  0.000000e+00
     vertex -7.079707e-01 -2.015431e-01  0.000000e+00
   endloop
 endfacet
 facet normal  0.000000e+00  0.000000e+00 -1.000000e+00
   outer loop
     vertex -7.500000e-01  0.000000e+00  0.000000e+00
     vertex -7.079707e-01 -2.015431e-01  0.000000e+00
     vertex -7.393428e-01 -2.857619e-01  0.000000e+00
   endloop
 endfacet
 facet normal -0.000000e+00  0.000000e+00 -1.000000e+00
   outer loop
     vertex -5.912059e-01 -6.656255e-02  0.000000e+00
     vertex -6.576482e-01 -1.270805e-01  0.000000e+00
     vertex -7.500000e-01  0.000000e+00  0.000000e+00
   endloop
 endfacet
 facet normal -0.000000e+00  0.000000e+00 -1.000000e+00
   outer loop
     vertex -5.123807e-01 -2.339299e-02  0.000000e+00
     vertex -5.912059e-01 -6.656255e-02  0.000000e+00
     vertex -7.500000e-01  0.000000e+00  0.000000e+00
   endloop
 endfacet
 facet normal  0.000000e+00  0.000000e+00 -1.000000e+00
   outer loop
     vertex -7.500000e-01  0.000000e+00  0.000000e+00
     vertex -7.393428e-01 -2.857619e-01  0.000000e+00
     vertex -7.500000e-01 -3.750000e-01  0.000000e+00
   endloop
 endfacet
 facet normal -0.000000e+00  0.000000e+00 -1.000000e+00
   outer loop
     vertex -4.256063e-01 -2.248202e-15  0.000000e+00
     vertex -5.123807e-01 -2.339299e-02  0.000000e+00
     vertex -7.500000e-01  0.000000e+00  0.000000e+00
   endloop
 endfacet
 facet normal  0.000000e+00 -1.000000e+00  0.000000e+00
   outer loop
     vertex -4.256063e-01 -7.500000e-01  3.750000e-01
     vertex -3.750000e-01 -7.500000e-01  7.500000e-01
     vertex -7.500000e-01 -7.500000e-01  7.500000e-01
   endloop
 endfacet
 facet normal  0.000000e+00 -1.000000e+00  0.000000e+00
   outer loop
     vertex -7.500000e-01 -7.500000e-01  0.000000e+00
     vertex -4.256063e-01 -7.500000e-01  3.750000e-01
     vertex -7.500000e-01 -7.500000e-01  7.500000e-01
   endloop
 endfacet
 facet normal  0.000000e+00 -1.000000e+00  0.000000e+00
   outer loop
     vertex -3.750000e-01 -7.500000e-01  3.750000e-01
     vertex -3.750000e-01 -7.500000e-01  7.500000e-01
     vertex -4.256063e-01 -7.500000e-01  3.750000e-01
   endloop
 endfacet
 facet normal  0.000000e+00 -1.000000e+00  0.000000e+00
   outer loop
     vertex -4.256063e-01 -7.500000e-01  0.000000e+00
     vertex -4.256063e-01 -7.500000e-01  3.750000e-01
     vertex -7.500000e-01 -7.500000e-01  0.000000e+00
   endloop
 endfacet
 facet normal -1.000000e+00  0.000000e+00  0.000000e+00
   outer loop
     vertex -7.500000e-01 -3.750000e-01  3.750000e-01
     vertex -7.500000e-01  0.000000e+00  7.500000e-01
     vertex -7.500000e-01  0.000000e+00  0.000000e+00
   endloop
 endfacet
 facet normal -1.000000e+00  0.000000e+00  0.000000e+00
   outer loop
     vertex -7.500000e-01 -3.750000e-01  3.750000e-01
     vertex -7.500000e-01 -3.750000e-01  7.500000e-01
     vertex -7.500000e-01  0.000000e+00  7.500000e-01
   endloop
 endfacet
 facet normal -1.000000e+00  0.000000e+00  0.000000e+00
   outer loop
     vertex -7.500000e-01 -3.750000e-01  0.000000e+00
     vertex -7.500000e-01 -3.750000e-01  3.750000e-01
     vertex -7.500000e-01  0.000000e+00  0.000000e+00
   endloop
 endfacet
 facet normal  0.000000e+00  0.000000e+00  1.000000e+00
   outer loop
     vertex -7.500000e-01  0.000000e+00  7.500000e-01
     vertex -7.405980e-01 -2.915546e-01  7.500000e-01
     vertex -7.128633e-01 -2.122936e-01  7.500000e-01
   endloop
 endfacet
 facet normal  0.000000e+00  0.000000e+00  1.000000e+00
   outer loop
     vertex -7.500000e-01  0.000000e+00  7.500000e-01
     vertex -7.128633e-01 -2.122936e-01  7.500000e-01
     vertex -6.681868e-01 -1.411913e-01  7.500000e-01
   endloop
 endfacet
 facet normal  0.000000e+00  0.000000e+00  1.000000e+00
   outer loop
     vertex -6.088087e-01 -8.181319e-02  7.500000e-01
     vertex -7.500000e-01  0.000000e+00  7.500000e-01
     vertex -6.681868e-01 -1.411913e-01  7.500000e-01
   endloop
 endfacet
 facet normal  0.000000e+00  0.000000e+00  1.000000e+00
   outer loop
     vertex -5.377064e-01 -3.713667e-02  7.500000e-01
     vertex -7.500000e-01  0.000000e+00  7.500000e-01
     vertex -6.088087e-01 -8.181319e-02  7.500000e-01
   endloop
 endfacet
 facet normal  0.000000e+00  0.000000e+00  1.000000e+00
   outer loop
     vertex -3.750000e-01  9.251859e-18  7.500000e-01
     vertex -7.500000e-01  0.000000e+00  7.500000e-01
     vertex -4.584454e-01 -9.402033e-03  7.500000e-01
   endloop
 endfacet
 facet normal  0.000000e+00  0.000000e+00  1.000000e+00
   outer loop
     vertex -4.584454e-01 -9.402033e-03  7.500000e-01
     vertex -7.500000e-01  0.000000e+00  7.500000e-01
     vertex -5.377064e-01 -3.713667e-02  7.500000e-01
   endloop
 endfacet
 facet normal  0.000000e+00  0.000000e+00  1.000000e+00
   outer loop
     vertex -7.500000e-01  0.000000e+00  7.500000e-01
     vertex -7.500000e-01 -3.750000e-01  7.500000e-01
     vertex -7.405980e-01 -2.915546e-01  7.500000e-01
   endloop
 endfacet
 facet normal  1.119645e-01  9.937122e-01  0.000000e+00
   outer loop
     vertex -4.584454e-01 -7.405980e-01  3.750000e-01
     vertex -3.750000e-01 -7.500000e-01  7.500000e-01
     vertex -3.750000e-01 -7.500000e-01  3.750000e-01
   endloop
 endfacet
 facet normal  1.119645e-01  9.937122e-01 -0.000000e+00
   outer loop
     vertex -4.584454e-01 -7.405980e-01  3.750000e-01
     vertex -4.584454e-01 -7.405980e-01  7.500000e-01
     vertex -3.750000e-01 -7.500000e-01  7.500000e-01
   endloop
 endfacet
 facet normal  3.302791e-01  9.438833e-01 -0.000000e+00
   outer loop
     vertex -5.377064e-01 -7.128633e-01  3.750000e-01
     vertex -5.377064e-01 -7.128633e-01  7.500000e-01
     vertex -4.584454e-01 -7.405980e-01  7.500000e-01
   endloop
 endfacet
 facet normal  3.302791e-01  9.438833e-01  0.000000e+00
   outer loop
     vertex -5.377064e-01 -7.128633e-01  3.750000e-01
     vertex -4.584454e-01 -7.405980e-01  7.500000e-01
     vertex -4.584454e-01 -7.405980e-01  3.750000e-01
   endloop
 endfacet
 facet normal  5.320321e-01  8.467242e-01 -0.000000e+00
   outer loop
     vertex -6.088087e-01 -6.681868e-01  3.750000e-01
     vertex -6.088087e-01 -6.681868e-01  7.500000e-01
     vertex -5.377064e-01 -7.128633e-01  7.500000e-01
   endloop
 endfacet
 facet normal  5.320321e-01  8.467242e-01  0.000000e+00
   outer loop
     vertex -6.088087e-01 -6.681868e-01  3.750000e-01
     vertex -5.377064e-01 -7.128633e-01  7.500000e-01
     vertex -5.377064e-01 -7.128633e-01  3.750000e-01
   endloop
 endfacet
 facet normal  7.071068e-01  7.071068e-01 -0.000000e+00
   outer loop
     vertex -6.681868e-01 -6.088087e-01  3.750000e-01
     vertex -6.681868e-01 -6.088087e-01  7.500000e-01
     vertex -6.088087e-01 -6.681868e-01  7.500000e-01
   endloop
 endfacet
 facet normal  7.071068e-01  7.071068e-01  0.000000e+00
   outer loop
     vertex -6.681868e-01 -6.088087e-01  3.750000e-01
     vertex -6.088087e-01 -6.681868e-01  7.500000e-01
     vertex -6.088087e-01 -6.681868e-01  3.750000e-01
   endloop
 endfacet
 facet normal  8.467242e-01  5.320321e-01 -0.000000e+00
   outer loop
     vertex -7.128633e-01 -5.377064e-01  3.750000e-01
     vertex -7.128633e-01 -5.377064e-01  7.500000e-01
     vertex -6.681868e-01 -6.088087e-01  7.500000e-01
   endloop
 endfacet
 facet normal  8.467242e-01  5.320321e-01  0.000000e+00
   outer loop
     vertex -7.128633e-01 -5.377064e-01  3.750000e-01
     vertex -6.681868e-01 -6.088087e-01  7.500000e-01
     vertex -6.681868e-01 -6.088087e-01  3.750000e-01
   endloop
 endfacet
 facet normal  9.438833e-01  3.302791e-01 -0.000000e+00
   outer loop
     vertex -7.405980e-01 -4.584454e-01  3.750000e-01
     vertex -7.405980e-01 -4.584454e-01  7.500000e-01
     vertex -7.128633e-01 -5.377064e-01  7.500000e-01
   endloop
 endfacet
 facet normal  9.438833e-01  3.302791e-01  0.000000e+00
   outer loop
     vertex -7.405980e-01 -4.584454e-01  3.750000e-01
     vertex -7.128633e-01 -5.377064e-01  7.500000e-01
     vertex -7.128633e-01 -5.377064e-01  3.750000e-01
   endloop
 endfacet
 facet normal  9.937122e-01  1.119645e-01 -0.000000e+00
   outer loop
     vertex -7.500000e-01 -3.750000e-01  3.750000e-01
     vertex -7.500000e-01 -3.750000e-01  7.500000e-01
     vertex -7.405980e-01 -4.584454e-01  7.500000e-01
   endloop
 endfacet
 facet normal  9.937122e-01  1.119645e-01  0.000000e+00
   outer loop
     vertex -7.500000e-01 -3.750000e-01  3.750000e-01
     vertex -7.405980e-01 -4.584454e-01  7.500000e-01
     vertex -7.405980e-01 -4.584454e-01  3.750000e-01
   endloop
 endfacet
 facet normal  9.937122e-01 -1.119645e-01  0.000000e+00
   outer loop
     vertex -7.405980e-01 -2.915546e-01  3.750000e-01
     vertex -7.500000e-01 -3.750000e-01  7.500000e-01
     vertex -7.500000e-01 -3.750000e-01  3.750000e-01
   endloop
 endfacet
 facet normal  9.937122e-01 -1.119645e-01  0.000000e+00
   outer loop
     vertex -7.405980e-01 -2.915546e-01  3.750000e-01
     vertex -7.405980e-01 -2.915546e-01  7.500000e-01
     vertex -7.500000e-01 -3.750000e-01  7.500000e-01
   endloop
 endfacet
 facet normal  9.438833e-01 -3.302791e-01  0.000000e+00
   outer loop
     vertex -7.128633e-01 -2.122936e-01  3.750000e-01
     vertex -7.128633e-01 -2.122936e-01  7.500000e-01
     vertex -7.405980e-01 -2.915546e-01  7.500000e-01
   endloop
 endfacet
 facet normal  9.438833e-01 -3.302791e-01  0.000000e+00
   outer loop
     vertex -7.128633e-01 -2.122936e-01  3.750000e-01
     vertex -7.405980e-01 -2.915546e-01  7.500000e-01
     vertex -7.405980e-01 -2.915546e-01  3.750000e-01
   endloop
 endfacet
 facet normal  8.467242e-01 -5.320321e-01  0.000000e+00
   outer loop
     vertex -6.681868e-01 -1.411913e-01  3.750000e-01
     vertex -6.681868e-01 -1.411913e-01  7.500000e-01
     vertex -7.128633e-01 -2.122936e-01  7.500000e-01
   endloop
 endfacet
 facet normal  8.467242e-01 -5.320321e-01  0.000000e+00
   outer loop
     vertex -6.681868e-01 -1.411913e-01  3.750000e-01
     vertex -7.128633e-01 -2.122936e-01  7.500000e-01
     vertex -7.128633e-01 -2.122936e-01  3.750000e-01
   endloop
 endfacet
 facet normal  7.071068e-01 -7.071068e-01  0.000000e+00
   outer loop
     vertex -6.088087e-01 -8.181319e-02  3.750000e-01
     vertex -6.088087e-01 -8.181319e-02  7.500000e-01
     vertex -6.681868e-01 -1.411913e-01  7.500000e-01
   endloop
 endfacet
 facet normal  7.071068e-01 -7.071068e-01  0.000000e+00
   outer loop
     vertex -6.088087e-01 -8.181319e-02  3.750000e-01
     vertex -6.681868e-01 -1.411913e-01  7.500000e-01
     vertex -6.681868e-01 -1.411913e-01  3.750000e-01
   endloop
 endfacet
 facet normal  5.320321e-01 -8.467242e-01  0.000000e+00
   outer loop
     vertex -5.377064e-01 -3.713667e-02  3.750000e-01
     vertex -5.377064e-01 -3.713667e-02  7.500000e-01
     vertex -6.088087e-01 -8.181319e-02  7.500000e-01
   endloop
 endfacet
 facet normal  5.320321e-01 -8.467242e-01  0.000000e+00
   outer loop
     vertex -5.377064e-01 -3.713667e-02  3.750000e-01
     vertex -6.088087e-01 -8.181319e-02  7.500000e-01
     vertex -6.088087e-01 -8.181319e-02  3.750000e-01
   endloop
 endfacet
 facet normal  3.302791e-01 -9.438833e-01  0.000000e+00
   outer loop
     vertex -4.584454e-01 -9.402033e-03  3.750000e-01
     vertex -4.584454e-01 -9.402033e-03  7.500000e-01
     vertex -5.377064e-01 -3.713667e-02  7.500000e-01
   endloop
 endfacet
 facet normal  3.302791e-01 -9.438833e-01  0.000000e+00
   outer loop
     vertex -4.584454e-01 -9.402033e-03  3.750000e-01
     vertex -5.377064e-01 -3.713667e-02  7.500000e-01
     vertex -5.377064e-01 -3.713667e-02  3.750000e-01
   endloop
 endfacet
 facet normal  1.119645e-01 -9.937122e-01  2.451649e-17
   outer loop
     vertex -3.750000e-01  0.000000e+00  3.750000e-01
     vertex -3.750000e-01  9.251859e-18  7.500000e-01
     vertex -4.584454e-01 -9.402033e-03  7.500000e-01
   endloop
 endfacet
 facet normal  1.119645e-01 -9.937122e-01  0.000000e+00
   outer loop
     vertex -3.750000e-01  0.000000e+00  3.750000e-01
     vertex -4.584454e-01 -9.402033e-03  7.500000e-01
     vertex -4.584454e-01 -9.402033e-03  3.750000e-01
   endloop
 endfacet
 facet normal -1.000000e+00  0.000000e+00  0.000000e+00
   outer loop
     vertex -7.500000e-01 -7.500000e-01  7.500000e-01
     vertex -7.500000e-01 -3.750000e-01  7.500000e-01
     vertex -7.500000e-01 -3.750000e-01  3.750000e-01
   endloop
 endfacet
 facet normal -1.000000e+00  0.000000e+00  0.000000e+00
   outer loop
     vertex -7.500000e-01 -7.500000e-01  0.000000e+00
     vertex -7.500000e-01 -3.750000e-01  3.750000e-01
     vertex -7.500000e-01 -3.750000e-01  0.000000e+00
   endloop
 endfacet
 facet normal -1.000000e+00  0.000000e+00  0.000000e+00
   outer loop
     vertex -7.500000e-01 -7.500000e-01  0.000000e+00
     vertex -7.500000e-01 -7.500000e-01  7.500000e-01
     vertex -7.500000e-01 -3.750000e-01  3.750000e-01
   endloop
 endfacet
 facet normal  0.000000e+00  0.000000e+00  1.000000e+00
   outer loop
     vertex -6.088087e-01 -6.681868e-01  7.500000e-01
     vertex -6.681868e-01 -6.088087e-01  7.500000e-01
     vertex -7.500000e-01 -7.500000e-01  7.500000e-01
   endloop
 endfacet
 facet normal  0.000000e+00  0.000000e+00  1.000000e+00
   outer loop
     vertex -7.128633e-01 -5.377064e-01  7.500000e-01
     vertex -7.500000e-01 -7.500000e-01  7.500000e-01
     vertex -6.681868e-01 -6.088087e-01  7.500000e-01
   endloop
 endfacet
 facet normal  0.000000e+00  0.000000e+00  1.000000e+00
   outer loop
     vertex -5.377064e-01 -7.128633e-01  7.500000e-01
     vertex -6.088087e-01 -6.681868e-01  7.500000e-01
     vertex -7.500000e-01 -7.500000e-01  7.500000e-01
   endloop
 endfacet
 facet normal  0.000000e+00  0.000000e+00  1.000000e+00
   outer loop
     vertex -7.405980e-01 -4.584454e-01  7.500000e-01
     vertex -7.500000e-01 -7.500000e-01  7.500000e-01
     vertex -7.128633e-01 -5.377064e-01  7.500000e-01
   endloop
 endfacet
 facet normal  0.000000e+00  0.000000e+00  1.000000e+00
   outer loop
     vertex -4.584454e-01 -7.405980e-01  7.500000e-01
     vertex -5.377064e-01 -7.128633e-01  7.500000e-01
     vertex -7.500000e-01 -7.500000e-01  7.500000e-01
   endloop
 endfacet
 facet normal  0.000000e+00  0.000000e+00  1.000000e+00
   outer loop
     vertex -3.750000e-01 -7.500000e-01  7.500000e-01
     vertex -4.584454e-01 -7.405980e-01  7.500000e-01
     vertex -7.500000e-01 -7.500000e-01  7.500000e-01
   endloop
 endfacet
 facet normal  0.000000e+00  0.000000e+00  1.000000e+00
   outer loop
     vertex -7.500000e-01 -3.750000e-01  7.500000e-01
     vertex -7.500000e-01 -7.500000e-01  7.500000e-01
     vertex -7.405980e-01 -4.584454e-01  7.500000e-01
   endloop
 endfacet
endsolid
