solid 
 facet normal -7.071068e-01  0.000000e+00 -7.071068e-01
   outer loop
     vertex -3.125000e-02  1.194077e-32  3.867306e-18
     vertex  3.289474e-04  0.000000e+00 -3.157895e-02
     vertex  3.289474e-04 -7.500000e-01 -3.157895e-02
   endloop
 endfacet
 facet normal -7.071068e-01 -4.329780e-17 -7.071068e-01
   outer loop
     vertex -3.125000e-02  1.194077e-32  3.867306e-18
     vertex  3.289474e-04 -7.500000e-01 -3.157895e-02
     vertex -3.125000e-02 -7.500000e-01  4.979156e-17
   endloop
 endfacet
 facet normal -7.071068e-01  3.925231e-17  7.071068e-01
   outer loop
     vertex  3.289474e-04  3.867306e-18  3.157895e-02
     vertex -3.125000e-02 -7.500000e-01  4.979156e-17
     vertex  3.289474e-04 -7.500000e-01  3.157895e-02
   endloop
 endfacet
 facet normal -7.071068e-01  3.884343e-17  7.071068e-01
   outer loop
     vertex  3.289474e-04  3.867306e-18  3.157895e-02
     vertex -3.125000e-02  1.194077e-32  3.867306e-18
     vertex -3.125000e-02 -7.500000e-01  4.979156e-17
   endloop
 endfacet
 facet normal  7.071068e-01  4.329780e-17  7.071068e-01
   outer loop
     vertex  3.190789e-02  3.867306e-18 -3.867306e-18
     vertex  3.289474e-04 -7.500000e-01  3.157895e-02
     vertex  3.190789e-02 -7.500000e-01  4.205695e-17
   endloop
 endfacet
 facet normal  7.071068e-01  3.884343e-17  7.071068e-01
   outer loop
     vertex  3.190789e-02  3.867306e-18 -3.867306e-18
     vertex  3.289474e-04  3.867306e-18  3.157895e-02
     vertex  3.289474e-04 -7.500000e-01  3.157895e-02
   endloop
 endfacet
 facet normal  7.071068e-01  0.000000e+00 -7.071068e-01
   outer loop
     vertex  3.289474e-04  0.000000e+00 -3.157895e-02
     vertex  3.190789e-02 -7.500000e-01  4.205695e-17
     vertex  3.289474e-04 -7.500000e-01 -3.157895e-02
   endloop
 endfacet
 facet normal  7.071068e-01 -4.531734e-17 -7.071068e-01
   outer loop
     vertex  3.289474e-04  0.000000e+00 -3.157895e-02
     vertex  3.190789e-02  3.867306e-18 -3.867306e-18
     vertex  3.190789e-02 -7.500000e-01  4.205695e-17
   endloop
 endfacet
 facet normal  7.071068e-01  9.710858e-17 -7.071068e-01
   outer loop
     vertex  3.190789e-02  3.867306e-18 -3.867306e-18
     vertex  3.289474e-04  0.000000e+00 -3.157895e-02
     vertex  3.289474e-04  7.500000e-01 -3.157895e-02
   endloop
 endfacet
 facet normal  7.071068e-01  5.483298e-17 -7.071068e-01
   outer loop
     vertex  3.190789e-02  3.867306e-18 -3.867306e-18
     vertex  3.289474e-04  7.500000e-01 -3.157895e-02
     vertex  3.190789e-02  7.500000e-01 -4.979156e-17
   endloop
 endfacet
 facet normal  7.071068e-01  1.400919e-16  7.071068e-01
   outer loop
     vertex  3.289474e-04  3.867306e-18  3.157895e-02
     vertex  3.190789e-02  7.500000e-01 -4.979156e-17
     vertex  3.289474e-04  7.500000e-01  3.157895e-02
   endloop
 endfacet
 facet normal  7.071068e-01  1.359520e-16  7.071068e-01
   outer loop
     vertex  3.289474e-04  3.867306e-18  3.157895e-02
     vertex  3.190789e-02  3.867306e-18 -3.867306e-18
     vertex  3.190789e-02  7.500000e-01 -4.979156e-17
   endloop
 endfacet
 facet normal -7.071068e-01 -4.829092e-17  7.071068e-01
   outer loop
     vertex -3.125000e-02  1.194077e-32  3.867306e-18
     vertex  3.289474e-04  7.500000e-01  3.157895e-02
     vertex -3.125000e-02  7.500000e-01 -4.205695e-17
   endloop
 endfacet
 facet normal -7.071068e-01 -5.179124e-17  7.071068e-01
   outer loop
     vertex -3.125000e-02  1.194077e-32  3.867306e-18
     vertex  3.289474e-04  3.867306e-18  3.157895e-02
     vertex  3.289474e-04  7.500000e-01  3.157895e-02
   endloop
 endfacet
 facet normal -7.071068e-01 -9.429755e-17 -7.071068e-01
   outer loop
     vertex  3.289474e-04  0.000000e+00 -3.157895e-02
     vertex -3.125000e-02  7.500000e-01 -4.205695e-17
     vertex  3.289474e-04  7.500000e-01 -3.157895e-02
   endloop
 endfacet
 facet normal -7.071068e-01 -1.359520e-16 -7.071068e-01
   outer loop
     vertex  3.289474e-04  0.000000e+00 -3.157895e-02
     vertex -3.125000e-02  1.194077e-32  3.867306e-18
     vertex -3.125000e-02  7.500000e-01 -4.205695e-17
   endloop
 endfacet
 facet normal  0.000000e+00 -1.000000e+00  0.000000e+00
   outer loop
     vertex  3.190789e-02 -7.500000e-01  4.205695e-17
     vertex  3.289474e-04 -7.500000e-01  3.157895e-02
     vertex -3.125000e-02 -7.500000e-01  4.979156e-17
   endloop
 endfacet
 facet normal -0.000000e+00 -1.000000e+00  0.000000e+00
   outer loop
     vertex  3.190789e-02 -7.500000e-01  4.205695e-17
     vertex -3.125000e-02 -7.500000e-01  4.979156e-17
     vertex  3.289474e-04 -7.500000e-01 -3.157895e-02
   endloop
 endfacet
 facet normal  0.000000e+00  1.000000e+00  0.000000e+00
   outer loop
     vertex  3.289474e-04  7.500000e-01  3.157895e-02
     vertex  3.190789e-02  7.500000e-01 -4.979156e-17
     vertex  3.289474e-04  7.500000e-01 -3.157895e-02
   endloop
 endfacet
 facet normal  0.000000e+00  1.000000e+00  0.000000e+00
   outer loop
     vertex  3.289474e-04  7.500000e-01  3.157895e-02
     vertex  3.289474e-04  7.500000e-01 -3.157895e-02
     vertex -3.125000e-02  7.500000e-01 -4.205695e-17
   endloop
 endfacet
 facet normal -7.071068e-01  0.000000e+00 -7.071068e-01
   outer loop
     vertex -3.661184e-01  6.546221e-20  6.087985e-18
     vertex -3.158717e-01  6.546221e-20 -5.024671e-02
     vertex -3.158717e-01 -6.406250e-01 -5.024671e-02
   endloop
 endfacet
 facet normal -7.071068e-01 -4.329780e-17 -7.071068e-01
   outer loop
     vertex -3.661184e-01  6.546221e-20  6.087985e-18
     vertex -3.158717e-01 -6.406250e-01 -5.024671e-02
     vertex -3.661184e-01 -6.406250e-01  4.531495e-17
   endloop
 endfacet
 facet normal -7.071068e-01  3.829494e-17  7.071068e-01
   outer loop
     vertex -3.158717e-01  6.218910e-18  5.024671e-02
     vertex -3.661184e-01 -6.406250e-01  4.531495e-17
     vertex -3.158717e-01 -6.406250e-01  5.024671e-02
   endloop
 endfacet
 facet normal -7.071068e-01  4.763364e-17  7.071068e-01
   outer loop
     vertex -3.158717e-01  6.218910e-18  5.024671e-02
     vertex -3.661184e-01  6.546221e-20  6.087985e-18
     vertex -3.661184e-01 -6.406250e-01  4.531495e-17
   endloop
 endfacet
 facet normal  7.071068e-01  4.329780e-17  7.071068e-01
   outer loop
     vertex -2.656250e-01  6.218910e-18 -6.218910e-18
     vertex -3.158717e-01 -6.406250e-01  5.024671e-02
     vertex -2.656250e-01 -6.406250e-01  3.300806e-17
   endloop
 endfacet
 facet normal  7.071068e-01  3.810691e-17  7.071068e-01
   outer loop
     vertex -2.656250e-01  6.218910e-18 -6.218910e-18
     vertex -3.158717e-01  6.218910e-18  5.024671e-02
     vertex -3.158717e-01 -6.406250e-01  5.024671e-02
   endloop
 endfacet
 facet normal  7.071068e-01  0.000000e+00 -7.071068e-01
   outer loop
     vertex -3.158717e-01  6.546221e-20 -5.024671e-02
     vertex -2.656250e-01 -6.406250e-01  3.300806e-17
     vertex -3.158717e-01 -6.406250e-01 -5.024671e-02
   endloop
 endfacet
 facet normal  7.071068e-01 -4.763364e-17 -7.071068e-01
   outer loop
     vertex -3.158717e-01  6.546221e-20 -5.024671e-02
     vertex -2.656250e-01  6.218910e-18 -6.218910e-18
     vertex -2.656250e-01 -6.406250e-01  3.300806e-17
   endloop
 endfacet
 facet normal  7.071068e-01  0.000000e+00 -7.071068e-01
   outer loop
     vertex -2.656250e-01  6.218910e-18 -6.218910e-18
     vertex -3.158717e-01  6.546221e-20 -5.024671e-02
     vertex -3.158717e-01  6.406250e-01 -5.024671e-02
   endloop
 endfacet
 facet normal  7.071068e-01 -4.329780e-17 -7.071068e-01
   outer loop
     vertex -2.656250e-01  6.218910e-18 -6.218910e-18
     vertex -3.158717e-01  6.406250e-01 -5.024671e-02
     vertex -2.656250e-01  6.406250e-01 -4.544588e-17
   endloop
 endfacet
 facet normal  7.071068e-01  4.595393e-17  7.071068e-01
   outer loop
     vertex -3.158717e-01  6.218910e-18  5.024671e-02
     vertex -2.656250e-01  6.406250e-01 -4.544588e-17
     vertex -3.158717e-01  6.406250e-01  5.024671e-02
   endloop
 endfacet
 facet normal  7.071068e-01  3.810691e-17  7.071068e-01
   outer loop
     vertex -3.158717e-01  6.218910e-18  5.024671e-02
     vertex -2.656250e-01  6.218910e-18 -6.218910e-18
     vertex -2.656250e-01  6.406250e-01 -4.544588e-17
   endloop
 endfacet
 facet normal -7.071068e-01  4.329780e-17  7.071068e-01
   outer loop
     vertex -3.661184e-01  6.546221e-20  6.087985e-18
     vertex -3.158717e-01  6.406250e-01  5.024671e-02
     vertex -3.661184e-01  6.406250e-01 -3.313898e-17
   endloop
 endfacet
 facet normal -7.071068e-01  4.763364e-17  7.071068e-01
   outer loop
     vertex -3.661184e-01  6.546221e-20  6.087985e-18
     vertex -3.158717e-01  6.218910e-18  5.024671e-02
     vertex -3.158717e-01  6.406250e-01  5.024671e-02
   endloop
 endfacet
 facet normal -7.071068e-01  0.000000e+00 -7.071068e-01
   outer loop
     vertex -3.158717e-01  6.546221e-20 -5.024671e-02
     vertex -3.661184e-01  6.406250e-01 -3.313898e-17
     vertex -3.158717e-01  6.406250e-01 -5.024671e-02
   endloop
 endfacet
 facet normal -7.071068e-01 -4.763364e-17 -7.071068e-01
   outer loop
     vertex -3.158717e-01  6.546221e-20 -5.024671e-02
     vertex -3.661184e-01  6.546221e-20  6.087985e-18
     vertex -3.661184e-01  6.406250e-01 -3.313898e-17
   endloop
 endfacet
 facet normal  0.000000e+00 -1.000000e+00  0.000000e+00
   outer loop
     vertex -2.656250e-01 -6.406250e-01  3.300806e-17
     vertex -3.158717e-01 -6.406250e-01  5.024671e-02
     vertex -3.661184e-01 -6.406250e-01  4.531495e-17
   endloop
 endfacet
 facet normal -0.000000e+00 -1.000000e+00  0.000000e+00
   outer loop
     vertex -2.656250e-01 -6.406250e-01  3.300806e-17
     vertex -3.661184e-01 -6.406250e-01  4.531495e-17
     vertex -3.158717e-01 -6.406250e-01 -5.024671e-02
   endloop
 endfacet
 facet normal  0.000000e+00  1.000000e+00  0.000000e+00
   outer loop
     vertex -2.656250e-01  6.406250e-01 -4.544588e-17
     vertex -3.661184e-01  6.406250e-01 -3.313898e-17
     vertex -3.158717e-01  6.406250e-01  5.024671e-02
   endloop
 endfacet
 facet normal  0.000000e+00  1.000000e+00  0.000000e+00
   outer loop
     vertex -2.656250e-01  6.406250e-01 -4.544588e-17
     vertex -3.158717e-01  6.406250e-01 -5.024671e-02
     vertex -3.661184e-01  6.406250e-01 -3.313898e-17
   endloop
 endfacet
endsolid
