solid 
 facet normal -1.224647e-16 -6.123234e-17 -1.000000e+00
   outer loop
     vertex  2.500000e-01  0.000000e+00 -3.061617e-17
     vertex  3.061617e-17 -5.000000e-01  3.061617e-17
     vertex  0.000000e+00  0.000000e+00  0.000000e+00
   endloop
 endfacet
 facet normal -1.224647e-16 -6.123234e-17 -1.000000e+00
   outer loop
     vertex  2.500000e-01  0.000000e+00 -3.061617e-17
     vertex  2.500000e-01 -5.000000e-01  0.000000e+00
     vertex  3.061617e-17 -5.000000e-01  3.061617e-17
   endloop
 endfacet
 facet normal  0.000000e+00  1.000000e+00  0.000000e+00
   outer loop
     vertex  2.500000e-01  0.000000e+00  1.263158e-01
     vertex  2.500000e-01  0.000000e+00 -3.061617e-17
     vertex  0.000000e+00  0.000000e+00  0.000000e+00
   endloop
 endfacet
 facet normal  3.093845e-17  1.000000e+00 -6.123234e-17
   outer loop
     vertex  3.818964e-17  3.818964e-17  6.236842e-01
     vertex  2.500000e-01  0.000000e+00  1.263158e-01
     vertex  0.000000e+00  0.000000e+00  0.000000e+00
   endloop
 endfacet
 facet normal -1.836970e-16  1.000000e+00  0.000000e+00
   outer loop
     vertex  7.500000e-01  4.592425e-17 -4.592425e-17
     vertex  5.000000e-01  0.000000e+00 -4.592425e-17
     vertex  5.000000e-01  0.000000e+00  1.263158e-01
   endloop
 endfacet
 facet normal  0.000000e+00  1.000000e+00 -1.691179e-16
   outer loop
     vertex  7.500000e-01  8.411390e-17  6.236842e-01
     vertex  5.000000e-01  0.000000e+00  1.263158e-01
     vertex  2.500000e-01  0.000000e+00  1.263158e-01
   endloop
 endfacet
 facet normal -6.123234e-17  1.000000e+00 -1.075616e-16
   outer loop
     vertex  7.500000e-01  8.411390e-17  6.236842e-01
     vertex  2.500000e-01  0.000000e+00  1.263158e-01
     vertex  3.818964e-17  3.818964e-17  6.236842e-01
   endloop
 endfacet
 facet normal -2.146355e-16  1.000000e+00 -6.123234e-17
   outer loop
     vertex  7.500000e-01  8.411390e-17  6.236842e-01
     vertex  7.500000e-01  4.592425e-17 -4.592425e-17
     vertex  5.000000e-01  0.000000e+00  1.263158e-01
   endloop
 endfacet
 facet normal  1.000000e+00  0.000000e+00  0.000000e+00
   outer loop
     vertex  2.500000e-01 -5.000000e-01  0.000000e+00
     vertex  2.500000e-01  0.000000e+00  1.263158e-01
     vertex  2.500000e-01 -5.000000e-01  1.263158e-01
   endloop
 endfacet
 facet normal  1.000000e+00 -0.000000e+00  0.000000e+00
   outer loop
     vertex  2.500000e-01 -5.000000e-01  0.000000e+00
     vertex  2.500000e-01  0.000000e+00 -3.061617e-17
     vertex  2.500000e-01  0.000000e+00  1.263158e-01
   endloop
 endfacet
 facet normal  0.000000e+00 -1.000000e+00 -0.000000e+00
   outer loop
     vertex  2.500000e-01 -5.000000e-01  1.263158e-01
     vertex  3.061617e-17 -5.000000e-01  3.061617e-17
     vertex  2.500000e-01 -5.000000e-01  0.000000e+00
   endloop
 endfacet
 facet normal  0.000000e+00 -1.000000e+00 -0.000000e+00
   outer loop
     vertex  6.880581e-17 -5.000000e-01  6.236842e-01
     vertex  3.061617e-17 -5.000000e-01  3.061617e-17
     vertex  2.500000e-01 -5.000000e-01  1.263158e-01
   endloop
 endfacet
 facet normal  0.000000e+00 -1.000000e+00  0.000000e+00
   outer loop
     vertex  7.500000e-01 -5.000000e-01 -1.530808e-17
     vertex  5.000000e-01 -5.000000e-01  1.263158e-01
     vertex  5.000000e-01 -5.000000e-01 -1.530808e-17
   endloop
 endfacet
 facet normal  0.000000e+00 -1.000000e+00  0.000000e+00
   outer loop
     vertex  7.500000e-01 -5.000000e-01  6.236842e-01
     vertex  2.500000e-01 -5.000000e-01  1.263158e-01
     vertex  5.000000e-01 -5.000000e-01  1.263158e-01
   endloop
 endfacet
 facet normal -0.000000e+00 -1.000000e+00  0.000000e+00
   outer loop
     vertex  7.500000e-01 -5.000000e-01  6.236842e-01
     vertex  6.880581e-17 -5.000000e-01  6.236842e-01
     vertex  2.500000e-01 -5.000000e-01  1.263158e-01
   endloop
 endfacet
 facet normal  0.000000e+00 -1.000000e+00 -0.000000e+00
   outer loop
     vertex  7.500000e-01 -5.000000e-01  6.236842e-01
     vertex  5.000000e-01 -5.000000e-01  1.263158e-01
     vertex  7.500000e-01 -5.000000e-01 -1.530808e-17
   endloop
 endfacet
 facet normal -1.000000e+00 -3.058394e-16  2.472093e-16
   outer loop
     vertex  0.000000e+00 -3.750000e-01  5.000000e-01
     vertex  6.880581e-17 -5.000000e-01  6.236842e-01
     vertex  3.057589e-17 -3.750000e-01  6.236842e-01
   endloop
 endfacet
 facet normal -1.000000e+00  1.221424e-16  1.853255e-16
   outer loop
     vertex  3.818964e-17  3.818964e-17  6.236842e-01
     vertex  0.000000e+00 -1.250000e-01  5.000000e-01
     vertex  2.292184e-17 -1.250000e-01  6.236842e-01
   endloop
 endfacet
 facet normal -1.000000e+00 -4.898587e-16  6.123234e-17
   outer loop
     vertex  3.061617e-17 -5.000000e-01  3.061617e-17
     vertex  6.880581e-17 -5.000000e-01  6.236842e-01
     vertex  0.000000e+00 -3.750000e-01  5.000000e-01
   endloop
 endfacet
 facet normal -1.000000e+00  0.000000e+00  0.000000e+00
   outer loop
     vertex  0.000000e+00  0.000000e+00  0.000000e+00
     vertex  0.000000e+00 -3.750000e-01  5.000000e-01
     vertex  0.000000e+00 -1.250000e-01  5.000000e-01
   endloop
 endfacet
 facet normal -1.000000e+00 -6.123234e-17 -4.592425e-17
   outer loop
     vertex  0.000000e+00  0.000000e+00  0.000000e+00
     vertex  3.061617e-17 -5.000000e-01  3.061617e-17
     vertex  0.000000e+00 -3.750000e-01  5.000000e-01
   endloop
 endfacet
 facet normal -1.000000e+00  2.449294e-16  6.123234e-17
   outer loop
     vertex  0.000000e+00  0.000000e+00  0.000000e+00
     vertex  0.000000e+00 -1.250000e-01  5.000000e-01
     vertex  3.818964e-17  3.818964e-17  6.236842e-01
   endloop
 endfacet
 facet normal -0.000000e+00  0.000000e+00  1.000000e+00
   outer loop
     vertex  3.818964e-17  3.818964e-17  6.236842e-01
     vertex  7.500000e-01 -1.250000e-01  6.236842e-01
     vertex  7.500000e-01  8.411390e-17  6.236842e-01
   endloop
 endfacet
 facet normal  0.000000e+00  0.000000e+00  1.000000e+00
   outer loop
     vertex  3.818964e-17  3.818964e-17  6.236842e-01
     vertex  2.292184e-17 -1.250000e-01  6.236842e-01
     vertex  7.500000e-01 -1.250000e-01  6.236842e-01
   endloop
 endfacet
 facet normal  1.000000e+00  0.000000e+00  0.000000e+00
   outer loop
     vertex  7.500000e-01 -3.750000e-01  5.000000e-01
     vertex  7.500000e-01 -5.000000e-01  6.236842e-01
     vertex  7.500000e-01 -5.000000e-01 -1.530808e-17
   endloop
 endfacet
 facet normal  1.000000e+00  0.000000e+00  0.000000e+00
   outer loop
     vertex  7.500000e-01 -3.750000e-01  6.236842e-01
     vertex  7.500000e-01 -5.000000e-01  6.236842e-01
     vertex  7.500000e-01 -3.750000e-01  5.000000e-01
   endloop
 endfacet
 facet normal  1.000000e+00  0.000000e+00  0.000000e+00
   outer loop
     vertex  7.500000e-01 -1.250000e-01  5.000000e-01
     vertex  7.500000e-01 -5.000000e-01 -1.530808e-17
     vertex  7.500000e-01  4.592425e-17 -4.592425e-17
   endloop
 endfacet
 facet normal  1.000000e+00  0.000000e+00  0.000000e+00
   outer loop
     vertex  7.500000e-01 -1.250000e-01  5.000000e-01
     vertex  7.500000e-01 -3.750000e-01  5.000000e-01
     vertex  7.500000e-01 -5.000000e-01 -1.530808e-17
   endloop
 endfacet
 facet normal  1.000000e+00  0.000000e+00  0.000000e+00
   outer loop
     vertex  7.500000e-01  8.411390e-17  6.236842e-01
     vertex  7.500000e-01 -1.250000e-01  6.236842e-01
     vertex  7.500000e-01 -1.250000e-01  5.000000e-01
   endloop
 endfacet
 facet normal  1.000000e+00  0.000000e+00  0.000000e+00
   outer loop
     vertex  7.500000e-01  8.411390e-17  6.236842e-01
     vertex  7.500000e-01 -1.250000e-01  5.000000e-01
     vertex  7.500000e-01  4.592425e-17 -4.592425e-17
   endloop
 endfacet
 facet normal  1.124820e-32 -6.123234e-17 -1.000000e+00
   outer loop
     vertex  7.500000e-01  4.592425e-17 -4.592425e-17
     vertex  5.000000e-01 -5.000000e-01 -1.530808e-17
     vertex  5.000000e-01  0.000000e+00 -4.592425e-17
   endloop
 endfacet
 facet normal  0.000000e+00 -6.123234e-17 -1.000000e+00
   outer loop
     vertex  7.500000e-01  4.592425e-17 -4.592425e-17
     vertex  7.500000e-01 -5.000000e-01 -1.530808e-17
     vertex  5.000000e-01 -5.000000e-01 -1.530808e-17
   endloop
 endfacet
 facet normal -1.000000e+00  0.000000e+00  0.000000e+00
   outer loop
     vertex  5.000000e-01 -5.000000e-01  1.263158e-01
     vertex  5.000000e-01  0.000000e+00 -4.592425e-17
     vertex  5.000000e-01 -5.000000e-01 -1.530808e-17
   endloop
 endfacet
 facet normal -1.000000e+00  0.000000e+00  0.000000e+00
   outer loop
     vertex  5.000000e-01 -5.000000e-01  1.263158e-01
     vertex  5.000000e-01  0.000000e+00  1.263158e-01
     vertex  5.000000e-01  0.000000e+00 -4.592425e-17
   endloop
 endfacet
 facet normal  0.000000e+00  0.000000e+00 -1.000000e+00
   outer loop
     vertex  2.500000e-01 -5.000000e-01  1.263158e-01
     vertex  5.000000e-01  0.000000e+00  1.263158e-01
     vertex  5.000000e-01 -5.000000e-01  1.263158e-01
   endloop
 endfacet
 facet normal  0.000000e+00  0.000000e+00 -1.000000e+00
   outer loop
     vertex  2.500000e-01 -5.000000e-01  1.263158e-01
     vertex  2.500000e-01  0.000000e+00  1.263158e-01
     vertex  5.000000e-01  0.000000e+00  1.263158e-01
   endloop
 endfacet
 facet normal -0.000000e+00  0.000000e+00  1.000000e+00
   outer loop
     vertex  3.057589e-17 -3.750000e-01  6.236842e-01
     vertex  7.500000e-01 -5.000000e-01  6.236842e-01
     vertex  7.500000e-01 -3.750000e-01  6.236842e-01
   endloop
 endfacet
 facet normal  0.000000e+00  0.000000e+00  1.000000e+00
   outer loop
     vertex  3.057589e-17 -3.750000e-01  6.236842e-01
     vertex  6.880581e-17 -5.000000e-01  6.236842e-01
     vertex  7.500000e-01 -5.000000e-01  6.236842e-01
   endloop
 endfacet
 facet normal  0.000000e+00  1.000000e+00 -0.000000e+00
   outer loop
     vertex  7.500000e-01 -3.750000e-01  5.000000e-01
     vertex  3.057589e-17 -3.750000e-01  6.236842e-01
     vertex  7.500000e-01 -3.750000e-01  6.236842e-01
   endloop
 endfacet
 facet normal  0.000000e+00  1.000000e+00  0.000000e+00
   outer loop
     vertex  7.500000e-01 -3.750000e-01  5.000000e-01
     vertex  0.000000e+00 -3.750000e-01  5.000000e-01
     vertex  3.057589e-17 -3.750000e-01  6.236842e-01
   endloop
 endfacet
 facet normal  0.000000e+00  0.000000e+00  1.000000e+00
   outer loop
     vertex  7.500000e-01 -1.250000e-01  5.000000e-01
     vertex  0.000000e+00 -3.750000e-01  5.000000e-01
     vertex  7.500000e-01 -3.750000e-01  5.000000e-01
   endloop
 endfacet
 facet normal  0.000000e+00  0.000000e+00  1.000000e+00
   outer loop
     vertex  7.500000e-01 -1.250000e-01  5.000000e-01
     vertex  0.000000e+00 -1.250000e-01  5.000000e-01
     vertex  0.000000e+00 -3.750000e-01  5.000000e-01
   endloop
 endfacet
 facet normal  0.000000e+00 -1.000000e+00 -0.000000e+00
   outer loop
     vertex  7.500000e-01 -1.250000e-01  6.236842e-01
     vertex  0.000000e+00 -1.250000e-01  5.000000e-01
     vertex  7.500000e-01 -1.250000e-01  5.000000e-01
   endloop
 endfacet
 facet normal -0.000000e+00 -1.000000e+00  0.000000e+00
   outer loop
     vertex  7.500000e-01 -1.250000e-01  6.236842e-01
     vertex  2.292184e-17 -1.250000e-01  6.236842e-01
     vertex  0.000000e+00 -1.250000e-01  5.000000e-01
   endloop
 endfacet
endsolid
