solid 
 facet normal  0.000000e+00  0.000000e+00 -1.000000e+00
   outer loop
     vertex  3.669231e-35 -5.507401e-01 -1.796875e-01
     vertex  0.000000e+00 -5.703125e-01 -1.796875e-01
     vertex -3.125000e-02 -5.703125e-01 -1.796875e-01
   endloop
 endfacet
 facet normal -0.000000e+00  0.000000e+00 -1.000000e+00
   outer loop
     vertex  3.669231e-35 -5.507401e-01 -1.796875e-01
     vertex -3.125000e-02 -5.703125e-01 -1.796875e-01
     vertex -3.125000e-02 -5.507401e-01 -1.796875e-01
   endloop
 endfacet
 facet normal  0.000000e+00 -0.000000e+00 -1.000000e+00
   outer loop
     vertex  3.669231e-35 -5.507401e-01 -1.796875e-01
     vertex  3.906250e-02 -5.703125e-01 -1.796875e-01
     vertex  0.000000e+00 -5.703125e-01 -1.796875e-01
   endloop
 endfacet
 facet normal  0.000000e+00  0.000000e+00 -1.000000e+00
   outer loop
     vertex  3.669231e-35 -5.507401e-01 -1.796875e-01
     vertex  3.906250e-02 -5.507401e-01 -1.796875e-01
     vertex  3.906250e-02 -5.703125e-01 -1.796875e-01
   endloop
 endfacet
 facet normal  0.000000e+00  1.000000e+00  0.000000e+00
   outer loop
     vertex -2.081668e-17 -5.507401e-01  1.726151e-01
     vertex  3.669231e-35 -5.507401e-01 -1.796875e-01
     vertex -3.125000e-02 -5.507401e-01 -1.796875e-01
   endloop
 endfacet
 facet normal  0.000000e+00  1.000000e+00  0.000000e+00
   outer loop
     vertex -2.081668e-17 -5.507401e-01  1.726151e-01
     vertex -3.125000e-02 -5.507401e-01 -1.796875e-01
     vertex -3.125000e-02 -5.507401e-01  1.726151e-01
   endloop
 endfacet
 facet normal -1.000000e+00  0.000000e+00 -0.000000e+00
   outer loop
     vertex -3.125000e-02 -5.507401e-01  1.726151e-01
     vertex -3.125000e-02 -5.507401e-01 -1.796875e-01
     vertex -3.125000e-02 -5.703125e-01 -1.796875e-01
   endloop
 endfacet
 facet normal -1.000000e+00  0.000000e+00 -0.000000e+00
   outer loop
     vertex -3.125000e-02 -5.546875e-01  1.796875e-01
     vertex -3.125000e-02 -5.507401e-01  1.726151e-01
     vertex -3.125000e-02 -5.703125e-01 -1.796875e-01
   endloop
 endfacet
 facet normal -1.000000e+00 -0.000000e+00 -0.000000e+00
   outer loop
     vertex -3.125000e-02 -5.507401e-01  1.796875e-01
     vertex -3.125000e-02 -5.507401e-01  1.726151e-01
     vertex -3.125000e-02 -5.546875e-01  1.796875e-01
   endloop
 endfacet
 facet normal -1.000000e+00  0.000000e+00  0.000000e+00
   outer loop
     vertex -3.125000e-02 -5.703125e-01  3.487664e-01
     vertex -3.125000e-02 -5.546875e-01  2.030428e-01
     vertex -3.125000e-02 -5.546875e-01  1.796875e-01
   endloop
 endfacet
 facet normal -1.000000e+00  0.000000e+00 -0.000000e+00
   outer loop
     vertex -3.125000e-02 -5.507401e-01  3.487664e-01
     vertex -3.125000e-02 -5.507401e-01  2.030428e-01
     vertex -3.125000e-02 -5.546875e-01  2.030428e-01
   endloop
 endfacet
 facet normal -1.000000e+00 -0.000000e+00  0.000000e+00
   outer loop
     vertex -3.125000e-02 -5.507401e-01  3.487664e-01
     vertex -3.125000e-02 -5.546875e-01  2.030428e-01
     vertex -3.125000e-02 -5.703125e-01  3.487664e-01
   endloop
 endfacet
 facet normal -1.000000e+00 -1.951477e-17 -7.378755e-17
   outer loop
     vertex -3.125000e-02 -5.403629e-01  4.348844e-01
     vertex -3.125000e-02 -5.703125e-01  3.487664e-01
     vertex -3.125000e-02 -5.589770e-01  4.398073e-01
   endloop
 endfacet
 facet normal -1.000000e+00  0.000000e+00 -8.057428e-17
   outer loop
     vertex -3.125000e-02 -5.403629e-01  4.348844e-01
     vertex -3.125000e-02 -5.507401e-01  3.487664e-01
     vertex -3.125000e-02 -5.703125e-01  3.487664e-01
   endloop
 endfacet
 facet normal -1.000000e+00 -0.000000e+00  0.000000e+00
   outer loop
     vertex -3.125000e-02 -5.100356e-01  5.161509e-01
     vertex -3.125000e-02 -5.589770e-01  4.398073e-01
     vertex -3.125000e-02 -5.265611e-01  5.256336e-01
   endloop
 endfacet
 facet normal -1.000000e+00  0.000000e+00  0.000000e+00
   outer loop
     vertex -3.125000e-02 -5.100356e-01  5.161509e-01
     vertex -3.125000e-02 -5.403629e-01  4.348844e-01
     vertex -3.125000e-02 -5.589770e-01  4.398073e-01
   endloop
 endfacet
 facet normal -1.000000e+00 -3.992163e-17 -6.957184e-17
   outer loop
     vertex -3.125000e-02 -4.614573e-01  5.880129e-01
     vertex -3.125000e-02 -5.100356e-01  5.161509e-01
     vertex -3.125000e-02 -5.265611e-01  5.256336e-01
   endloop
 endfacet
 facet normal -1.000000e+00 -5.442989e-17 -5.442989e-17
   outer loop
     vertex -3.125000e-02 -4.748811e-01  6.014367e-01
     vertex -3.125000e-02 -4.614573e-01  5.880129e-01
     vertex -3.125000e-02 -5.265611e-01  5.256336e-01
   endloop
 endfacet
 facet normal -1.000000e+00 -5.662609e-17 -5.662609e-17
   outer loop
     vertex -3.125000e-02 -3.973496e-01  6.464441e-01
     vertex -3.125000e-02 -4.614573e-01  5.880129e-01
     vertex -3.125000e-02 -4.748811e-01  6.014367e-01
   endloop
 endfacet
 facet normal -1.000000e+00 -6.713487e-17 -3.852325e-17
   outer loop
     vertex -3.125000e-02 -4.068323e-01  6.629696e-01
     vertex -3.125000e-02 -3.973496e-01  6.464441e-01
     vertex -3.125000e-02 -4.748811e-01  6.014367e-01
   endloop
 endfacet
 facet normal -1.000000e+00  0.000000e+00  0.000000e+00
   outer loop
     vertex -3.125000e-02 -3.213044e-01  6.881708e-01
     vertex -3.125000e-02 -3.973496e-01  6.464441e-01
     vertex -3.125000e-02 -4.068323e-01  6.629696e-01
   endloop
 endfacet
 facet normal -1.000000e+00  0.000000e+00 -0.000000e+00
   outer loop
     vertex -3.125000e-02 -3.262273e-01  7.067849e-01
     vertex -3.125000e-02 -3.213044e-01  6.881708e-01
     vertex -3.125000e-02 -4.068323e-01  6.629696e-01
   endloop
 endfacet
 facet normal -1.000000e+00  2.320141e-16  6.136132e-17
   outer loop
     vertex -3.125000e-02 -2.375822e-01  7.108553e-01
     vertex -3.125000e-02 -3.213044e-01  6.881708e-01
     vertex -3.125000e-02 -3.262273e-01  7.067849e-01
   endloop
 endfacet
 facet normal -1.000000e+00  0.000000e+00 -0.000000e+00
   outer loop
     vertex -3.125000e-02 -2.265625e-01  7.109375e-01
     vertex -3.125000e-02 -2.265201e-01  7.108553e-01
     vertex -3.125000e-02 -2.375822e-01  7.108553e-01
   endloop
 endfacet
 facet normal -1.000000e+00  2.348317e-16  0.000000e+00
   outer loop
     vertex -3.125000e-02 -2.375822e-01  7.304276e-01
     vertex -3.125000e-02 -2.375822e-01  7.108553e-01
     vertex -3.125000e-02 -3.262273e-01  7.067849e-01
   endloop
 endfacet
 facet normal -1.000000e+00  0.000000e+00  0.000000e+00
   outer loop
     vertex -3.125000e-02 -2.375822e-01  7.304276e-01
     vertex -3.125000e-02 -2.265625e-01  7.109375e-01
     vertex -3.125000e-02 -2.375822e-01  7.108553e-01
   endloop
 endfacet
 facet normal -1.000000e+00  0.000000e+00  0.000000e+00
   outer loop
     vertex -3.125000e-02 -2.039474e-01  7.109375e-01
     vertex -3.125000e-02 -2.265625e-01  7.109375e-01
     vertex -3.125000e-02 -2.375822e-01  7.304276e-01
   endloop
 endfacet
 facet normal -1.000000e+00  0.000000e+00  0.000000e+00
   outer loop
     vertex -3.125000e-02 -1.984375e-01  7.108553e-01
     vertex -3.125000e-02 -2.039053e-01  7.108553e-01
     vertex -3.125000e-02 -2.039474e-01  7.109375e-01
   endloop
 endfacet
 facet normal -1.000000e+00  0.000000e+00  0.000000e+00
   outer loop
     vertex -3.125000e-02 -1.984375e-01  7.108553e-01
     vertex -3.125000e-02 -2.039474e-01  7.109375e-01
     vertex -3.125000e-02 -2.375822e-01  7.304276e-01
   endloop
 endfacet
 facet normal -1.000000e+00  0.000000e+00 -0.000000e+00
   outer loop
     vertex -3.125000e-02  7.072368e-03  7.500000e-01
     vertex -3.125000e-02  7.072368e-03  7.304276e-01
     vertex -3.125000e-02 -1.984375e-01  7.108553e-01
   endloop
 endfacet
 facet normal -1.000000e+00  0.000000e+00  0.000000e+00
   outer loop
     vertex -3.125000e-02  7.072368e-03  7.500000e-01
     vertex -3.125000e-02 -1.984375e-01  7.108553e-01
     vertex -3.125000e-02 -2.375822e-01  7.304276e-01
   endloop
 endfacet
 facet normal -1.000000e+00  0.000000e+00  0.000000e+00
   outer loop
     vertex -3.125000e-02 -5.703125e-01  3.487664e-01
     vertex -3.125000e-02 -5.546875e-01  1.796875e-01
     vertex -3.125000e-02 -5.703125e-01 -1.796875e-01
   endloop
 endfacet
 facet normal  0.000000e+00 -1.000000e+00  0.000000e+00
   outer loop
     vertex  0.000000e+00 -5.703125e-01 -1.796875e-01
     vertex -3.235847e-17 -5.703125e-01  3.487664e-01
     vertex -3.125000e-02 -5.703125e-01  3.487664e-01
   endloop
 endfacet
 facet normal  0.000000e+00 -1.000000e+00  0.000000e+00
   outer loop
     vertex  0.000000e+00 -5.703125e-01 -1.796875e-01
     vertex -3.125000e-02 -5.703125e-01  3.487664e-01
     vertex -3.125000e-02 -5.703125e-01 -1.796875e-01
   endloop
 endfacet
 facet normal  0.000000e+00 -0.000000e+00 -1.000000e+00
   outer loop
     vertex  3.669231e-34 -4.724507e-01 -1.796875e-01
     vertex  3.906250e-02 -5.507401e-01 -1.796875e-01
     vertex  3.669231e-35 -5.507401e-01 -1.796875e-01
   endloop
 endfacet
 facet normal  0.000000e+00  0.000000e+00 -1.000000e+00
   outer loop
     vertex  3.669231e-34 -4.724507e-01 -1.796875e-01
     vertex  3.906250e-02 -4.724507e-01 -1.796875e-01
     vertex  3.906250e-02 -5.507401e-01 -1.796875e-01
   endloop
 endfacet
 facet normal  1.000000e+00  0.000000e+00  0.000000e+00
   outer loop
     vertex  3.906250e-02 -5.507401e-01  1.726151e-01
     vertex  3.906250e-02 -5.703125e-01 -1.796875e-01
     vertex  3.906250e-02 -5.507401e-01 -1.796875e-01
   endloop
 endfacet
 facet normal  1.000000e+00  0.000000e+00  0.000000e+00
   outer loop
     vertex  3.906250e-02 -5.546875e-01  1.796875e-01
     vertex  3.906250e-02 -5.703125e-01 -1.796875e-01
     vertex  3.906250e-02 -5.507401e-01  1.726151e-01
   endloop
 endfacet
 facet normal  1.000000e+00  0.000000e+00  0.000000e+00
   outer loop
     vertex  3.906250e-02 -5.507401e-01  1.796875e-01
     vertex  3.906250e-02 -5.546875e-01  1.796875e-01
     vertex  3.906250e-02 -5.507401e-01  1.726151e-01
   endloop
 endfacet
 facet normal  1.000000e+00  0.000000e+00  0.000000e+00
   outer loop
     vertex  3.906250e-02 -5.703125e-01  3.487664e-01
     vertex  3.906250e-02 -5.546875e-01  1.796875e-01
     vertex  3.906250e-02 -5.546875e-01  2.030428e-01
   endloop
 endfacet
 facet normal  1.000000e+00  0.000000e+00  0.000000e+00
   outer loop
     vertex  3.906250e-02 -5.507401e-01  3.487664e-01
     vertex  3.906250e-02 -5.546875e-01  2.030428e-01
     vertex  3.906250e-02 -5.507401e-01  2.030428e-01
   endloop
 endfacet
 facet normal  1.000000e+00  0.000000e+00  0.000000e+00
   outer loop
     vertex  3.906250e-02 -5.507401e-01  3.487664e-01
     vertex  3.906250e-02 -5.703125e-01  3.487664e-01
     vertex  3.906250e-02 -5.546875e-01  2.030428e-01
   endloop
 endfacet
 facet normal  1.000000e+00  1.951477e-17  7.378755e-17
   outer loop
     vertex  3.906250e-02 -5.403629e-01  4.348844e-01
     vertex  3.906250e-02 -5.589770e-01  4.398073e-01
     vertex  3.906250e-02 -5.703125e-01  3.487664e-01
   endloop
 endfacet
 facet normal  1.000000e+00  0.000000e+00  8.057428e-17
   outer loop
     vertex  3.906250e-02 -5.403629e-01  4.348844e-01
     vertex  3.906250e-02 -5.703125e-01  3.487664e-01
     vertex  3.906250e-02 -5.507401e-01  3.487664e-01
   endloop
 endfacet
 facet normal  1.000000e+00 -3.069687e-16  1.967876e-16
   outer loop
     vertex  3.906250e-02 -5.100356e-01  5.161509e-01
     vertex  3.906250e-02 -5.265611e-01  5.256336e-01
     vertex  3.906250e-02 -5.589770e-01  4.398073e-01
   endloop
 endfacet
 facet normal  1.000000e+00  0.000000e+00  0.000000e+00
   outer loop
     vertex  3.906250e-02 -5.100356e-01  5.161509e-01
     vertex  3.906250e-02 -5.589770e-01  4.398073e-01
     vertex  3.906250e-02 -5.403629e-01  4.348844e-01
   endloop
 endfacet
 facet normal  1.000000e+00 -2.626143e-16  2.740846e-16
   outer loop
     vertex  3.906250e-02 -4.614573e-01  5.880129e-01
     vertex  3.906250e-02 -5.265611e-01  5.256336e-01
     vertex  3.906250e-02 -5.100356e-01  5.161509e-01
   endloop
 endfacet
 facet normal  1.000000e+00  0.000000e+00  0.000000e+00
   outer loop
     vertex  3.906250e-02 -4.748811e-01  6.014367e-01
     vertex  3.906250e-02 -5.265611e-01  5.256336e-01
     vertex  3.906250e-02 -4.614573e-01  5.880129e-01
   endloop
 endfacet
 facet normal  1.000000e+00  5.662609e-17  5.662609e-17
   outer loop
     vertex  3.906250e-02 -3.973496e-01  6.464441e-01
     vertex  3.906250e-02 -4.748811e-01  6.014367e-01
     vertex  3.906250e-02 -4.614573e-01  5.880129e-01
   endloop
 endfacet
 facet normal  1.000000e+00  6.713487e-17  3.852325e-17
   outer loop
     vertex  3.906250e-02 -4.068323e-01  6.629696e-01
     vertex  3.906250e-02 -4.748811e-01  6.014367e-01
     vertex  3.906250e-02 -3.973496e-01  6.464441e-01
   endloop
 endfacet
 facet normal  1.000000e+00  0.000000e+00  0.000000e+00
   outer loop
     vertex  3.906250e-02 -3.213044e-01  6.881708e-01
     vertex  3.906250e-02 -4.068323e-01  6.629696e-01
     vertex  3.906250e-02 -3.973496e-01  6.464441e-01
   endloop
 endfacet
 facet normal  1.000000e+00  0.000000e+00  0.000000e+00
   outer loop
     vertex  3.906250e-02 -3.262273e-01  7.067849e-01
     vertex  3.906250e-02 -4.068323e-01  6.629696e-01
     vertex  3.906250e-02 -3.213044e-01  6.881708e-01
   endloop
 endfacet
 facet normal  1.000000e+00 -2.320141e-16 -6.136132e-17
   outer loop
     vertex  3.906250e-02 -2.375822e-01  7.108553e-01
     vertex  3.906250e-02 -3.262273e-01  7.067849e-01
     vertex  3.906250e-02 -3.213044e-01  6.881708e-01
   endloop
 endfacet
 facet normal  1.000000e+00  0.000000e+00  0.000000e+00
   outer loop
     vertex  3.906250e-02 -2.265625e-01  7.109375e-01
     vertex  3.906250e-02 -2.375822e-01  7.108553e-01
     vertex  3.906250e-02 -2.265201e-01  7.108553e-01
   endloop
 endfacet
 facet normal  1.000000e+00 -2.348317e-16  0.000000e+00
   outer loop
     vertex  3.906250e-02 -2.375822e-01  7.304276e-01
     vertex  3.906250e-02 -3.262273e-01  7.067849e-01
     vertex  3.906250e-02 -2.375822e-01  7.108553e-01
   endloop
 endfacet
 facet normal  1.000000e+00  0.000000e+00  0.000000e+00
   outer loop
     vertex  3.906250e-02 -2.375822e-01  7.304276e-01
     vertex  3.906250e-02 -2.375822e-01  7.108553e-01
     vertex  3.906250e-02 -2.265625e-01  7.109375e-01
   endloop
 endfacet
 facet normal  1.000000e+00  0.000000e+00  0.000000e+00
   outer loop
     vertex  3.906250e-02 -2.039474e-01  7.109375e-01
     vertex  3.906250e-02 -2.375822e-01  7.304276e-01
     vertex  3.906250e-02 -2.265625e-01  7.109375e-01
   endloop
 endfacet
 facet normal  1.000000e+00  0.000000e+00  0.000000e+00
   outer loop
     vertex  3.906250e-02 -1.984375e-01  7.108553e-01
     vertex  3.906250e-02 -2.039474e-01  7.109375e-01
     vertex  3.906250e-02 -2.039053e-01  7.108553e-01
   endloop
 endfacet
 facet normal  1.000000e+00  0.000000e+00  0.000000e+00
   outer loop
     vertex  3.906250e-02 -1.984375e-01  7.108553e-01
     vertex  3.906250e-02 -2.375822e-01  7.304276e-01
     vertex  3.906250e-02 -2.039474e-01  7.109375e-01
   endloop
 endfacet
 facet normal  1.000000e+00  0.000000e+00  0.000000e+00
   outer loop
     vertex  3.906250e-02  7.072368e-03  7.500000e-01
     vertex  3.906250e-02 -1.984375e-01  7.108553e-01
     vertex  3.906250e-02  7.072368e-03  7.304276e-01
   endloop
 endfacet
 facet normal  1.000000e+00  0.000000e+00  0.000000e+00
   outer loop
     vertex  3.906250e-02  7.072368e-03  7.500000e-01
     vertex  3.906250e-02 -2.375822e-01  7.304276e-01
     vertex  3.906250e-02 -1.984375e-01  7.108553e-01
   endloop
 endfacet
 facet normal  1.000000e+00  0.000000e+00  0.000000e+00
   outer loop
     vertex  3.906250e-02 -5.703125e-01  3.487664e-01
     vertex  3.906250e-02 -5.703125e-01 -1.796875e-01
     vertex  3.906250e-02 -5.546875e-01  1.796875e-01
   endloop
 endfacet
 facet normal  0.000000e+00 -1.000000e+00  0.000000e+00
   outer loop
     vertex  0.000000e+00 -5.703125e-01 -1.796875e-01
     vertex  3.906250e-02 -5.703125e-01  3.487664e-01
     vertex -3.235847e-17 -5.703125e-01  3.487664e-01
   endloop
 endfacet
 facet normal  0.000000e+00 -1.000000e+00  0.000000e+00
   outer loop
     vertex  0.000000e+00 -5.703125e-01 -1.796875e-01
     vertex  3.906250e-02 -5.703125e-01 -1.796875e-01
     vertex  3.906250e-02 -5.703125e-01  3.487664e-01
   endloop
 endfacet
 facet normal -1.000000e+00  0.000000e+00 -6.123234e-17
   outer loop
     vertex -1.078616e-17 -4.724507e-01 -3.536184e-03
     vertex  3.669231e-34 -4.724507e-01 -1.796875e-01
     vertex  3.669231e-35 -5.507401e-01 -1.796875e-01
   endloop
 endfacet
 facet normal -1.000000e+00 -4.825890e-18 -5.908750e-17
   outer loop
     vertex -2.081668e-17 -5.507401e-01  1.726151e-01
     vertex -1.078616e-17 -4.724507e-01 -3.536184e-03
     vertex  3.669231e-35 -5.507401e-01 -1.796875e-01
   endloop
 endfacet
 facet normal -1.000000e+00 -1.164732e-15 -5.746013e-16
   outer loop
     vertex -2.488047e-17 -5.507401e-01  1.796875e-01
     vertex -1.078616e-17 -4.724507e-01 -3.536184e-03
     vertex -2.081668e-17 -5.507401e-01  1.726151e-01
   endloop
 endfacet
 facet normal -1.000000e+00  0.000000e+00 -9.261586e-17
   outer loop
     vertex -2.775558e-17  0.000000e+00  1.796875e-01
     vertex -1.078616e-17  7.072368e-03 -3.536184e-03
     vertex -1.078616e-17 -4.724507e-01 -3.536184e-03
   endloop
 endfacet
 facet normal -1.000000e+00 -5.220433e-18 -7.915473e-17
   outer loop
     vertex -2.775558e-17  0.000000e+00  1.796875e-01
     vertex -1.078616e-17 -4.724507e-01 -3.536184e-03
     vertex -2.488047e-17 -5.507401e-01  1.796875e-01
   endloop
 endfacet
 facet normal -1.000000e+00  4.989293e-18 -6.243973e-17
   outer loop
     vertex -2.775558e-17 -4.934211e-03  2.812500e-01
     vertex -2.559552e-17 -5.507401e-01  2.030428e-01
     vertex -3.469447e-17 -5.507401e-01  3.487664e-01
   endloop
 endfacet
 facet normal -1.000000e+00  8.677125e-18 -8.817700e-17
   outer loop
     vertex -2.775558e-17 -4.934211e-03  2.812500e-01
     vertex -2.081668e-17  0.000000e+00  2.030428e-01
     vertex -2.559552e-17 -5.507401e-01  2.030428e-01
   endloop
 endfacet
 facet normal -1.000000e+00 -1.295484e-15 -1.704585e-16
   outer loop
     vertex -3.469447e-17 -4.934211e-03  3.219572e-01
     vertex -2.081668e-17  0.000000e+00  2.030428e-01
     vertex -2.775558e-17 -4.934211e-03  2.812500e-01
   endloop
 endfacet
 facet normal -1.000000e+00  4.457403e-17 -2.008727e-16
   outer loop
     vertex -5.501807e-17 -2.265201e-01  7.108553e-01
     vertex -5.468630e-17 -3.213044e-01  6.881708e-01
     vertex -5.551115e-17 -2.375822e-01  7.108553e-01
   endloop
 endfacet
 facet normal -1.000000e+00  1.842901e-16  3.816954e-17
   outer loop
     vertex -5.551115e-17 -1.984375e-01  7.108553e-01
     vertex -3.469447e-17 -4.934211e-03  3.219572e-01
     vertex -5.651881e-17 -2.039053e-01  7.108553e-01
   endloop
 endfacet
 facet normal -1.000000e+00  4.362369e-18 -5.135678e-17
   outer loop
     vertex -5.561982e-17  7.072368e-03  7.304276e-01
     vertex -3.469447e-17 -4.934211e-03  3.219572e-01
     vertex -5.551115e-17 -1.984375e-01  7.108553e-01
   endloop
 endfacet
 facet normal -1.000000e+00 -3.659600e-16 -6.108429e-17
   outer loop
     vertex -1.078616e-17  7.072368e-03 -3.536184e-03
     vertex -2.081668e-17  0.000000e+00  2.030428e-01
     vertex -5.561982e-17  7.072368e-03  7.304276e-01
   endloop
 endfacet
 facet normal -1.000000e+00  9.236486e-16 -7.837828e-17
   outer loop
     vertex -2.081668e-17  0.000000e+00  2.030428e-01
     vertex -3.469447e-17 -4.934211e-03  3.219572e-01
     vertex -5.561982e-17  7.072368e-03  7.304276e-01
   endloop
 endfacet
 facet normal -1.000000e+00  1.009641e-14  2.971019e-16
   outer loop
     vertex -1.078616e-17  7.072368e-03 -3.536184e-03
     vertex -2.775558e-17  0.000000e+00  1.796875e-01
     vertex -2.081668e-17  0.000000e+00  2.030428e-01
   endloop
 endfacet
 facet normal -1.000000e+00  6.854836e-18 -5.992374e-17
   outer loop
     vertex -2.775558e-17 -4.934211e-03  2.812500e-01
     vertex -5.232932e-17 -3.973496e-01  6.464441e-01
     vertex -5.501807e-17 -2.265201e-01  7.108553e-01
   endloop
 endfacet
 facet normal -1.000000e+00  1.776830e-17 -8.886813e-17
   outer loop
     vertex -5.232932e-17 -3.973496e-01  6.464441e-01
     vertex -5.468630e-17 -3.213044e-01  6.881708e-01
     vertex -5.501807e-17 -2.265201e-01  7.108553e-01
   endloop
 endfacet
 facet normal -1.000000e+00  4.624345e-18 -6.232050e-17
   outer loop
     vertex -2.775558e-17 -4.934211e-03  2.812500e-01
     vertex -4.898431e-17 -4.614573e-01  5.880129e-01
     vertex -5.232932e-17 -3.973496e-01  6.464441e-01
   endloop
 endfacet
 facet normal -1.000000e+00  5.320135e-18 -6.128502e-17
   outer loop
     vertex -2.775558e-17 -4.934211e-03  2.812500e-01
     vertex -4.483869e-17 -5.100356e-01  5.161509e-01
     vertex -4.898431e-17 -4.614573e-01  5.880129e-01
   endloop
 endfacet
 facet normal -1.000000e+00  5.832681e-18 -6.018291e-17
   outer loop
     vertex -2.775558e-17 -4.934211e-03  2.812500e-01
     vertex -4.012473e-17 -5.403629e-01  4.348844e-01
     vertex -4.483869e-17 -5.100356e-01  5.161509e-01
   endloop
 endfacet
 facet normal -1.000000e+00  4.840898e-18 -6.363936e-17
   outer loop
     vertex -2.775558e-17 -4.934211e-03  2.812500e-01
     vertex -3.469447e-17 -5.507401e-01  3.487664e-01
     vertex -4.012473e-17 -5.403629e-01  4.348844e-01
   endloop
 endfacet
 facet normal  0.000000e+00  1.000000e+00  0.000000e+00
   outer loop
     vertex -2.488047e-17 -5.507401e-01  1.796875e-01
     vertex -2.081668e-17 -5.507401e-01  1.726151e-01
     vertex -3.125000e-02 -5.507401e-01  1.726151e-01
   endloop
 endfacet
 facet normal  0.000000e+00  1.000000e+00  0.000000e+00
   outer loop
     vertex -2.488047e-17 -5.507401e-01  1.796875e-01
     vertex -3.125000e-02 -5.507401e-01  1.726151e-01
     vertex -3.125000e-02 -5.507401e-01  1.796875e-01
   endloop
 endfacet
 facet normal  0.000000e+00 -2.577041e-01  9.662239e-01
   outer loop
     vertex -5.428078e-17 -3.262273e-01  7.067849e-01
     vertex -5.572848e-17 -2.375822e-01  7.304276e-01
     vertex -3.125000e-02 -2.375822e-01  7.304276e-01
   endloop
 endfacet
 facet normal  0.000000e+00 -2.577041e-01  9.662239e-01
   outer loop
     vertex -5.428078e-17 -3.262273e-01  7.067849e-01
     vertex -3.125000e-02 -2.375822e-01  7.304276e-01
     vertex -3.125000e-02 -3.262273e-01  7.067849e-01
   endloop
 endfacet
 facet normal  0.000000e+00 -4.775824e-01  8.785870e-01
   outer loop
     vertex -5.159787e-17 -4.068323e-01  6.629696e-01
     vertex -3.125000e-02 -3.262273e-01  7.067849e-01
     vertex -3.125000e-02 -4.068323e-01  6.629696e-01
   endloop
 endfacet
 facet normal  0.000000e+00 -4.775824e-01  8.785870e-01
   outer loop
     vertex -5.159787e-17 -4.068323e-01  6.629696e-01
     vertex -5.428078e-17 -3.262273e-01  7.067849e-01
     vertex -3.125000e-02 -3.262273e-01  7.067849e-01
   endloop
 endfacet
 facet normal  0.000000e+00 -6.707034e-01  7.417257e-01
   outer loop
     vertex -4.783006e-17 -4.748811e-01  6.014367e-01
     vertex -3.125000e-02 -4.068323e-01  6.629696e-01
     vertex -3.125000e-02 -4.748811e-01  6.014367e-01
   endloop
 endfacet
 facet normal  0.000000e+00 -6.707034e-01  7.417257e-01
   outer loop
     vertex -4.783006e-17 -4.748811e-01  6.014367e-01
     vertex -5.159787e-17 -4.068323e-01  6.629696e-01
     vertex -3.125000e-02 -4.068323e-01  6.629696e-01
   endloop
 endfacet
 facet normal  0.000000e+00 -8.262470e-01  5.633080e-01
   outer loop
     vertex -4.318846e-17 -5.265611e-01  5.256336e-01
     vertex -3.125000e-02 -4.748811e-01  6.014367e-01
     vertex -3.125000e-02 -5.265611e-01  5.256336e-01
   endloop
 endfacet
 facet normal  0.000000e+00 -8.262470e-01  5.633080e-01
   outer loop
     vertex -4.318846e-17 -5.265611e-01  5.256336e-01
     vertex -4.783006e-17 -4.748811e-01  6.014367e-01
     vertex -3.125000e-02 -4.748811e-01  6.014367e-01
   endloop
 endfacet
 facet normal  0.000000e+00 -9.354988e-01  3.533300e-01
   outer loop
     vertex -3.793312e-17 -5.589770e-01  4.398073e-01
     vertex -3.125000e-02 -5.265611e-01  5.256336e-01
     vertex -3.125000e-02 -5.589770e-01  4.398073e-01
   endloop
 endfacet
 facet normal  0.000000e+00 -9.354988e-01  3.533300e-01
   outer loop
     vertex -3.793312e-17 -5.589770e-01  4.398073e-01
     vertex -4.318846e-17 -5.265611e-01  5.256336e-01
     vertex -3.125000e-02 -5.265611e-01  5.256336e-01
   endloop
 endfacet
 facet normal  0.000000e+00 -9.923376e-01  1.235560e-01
   outer loop
     vertex -3.235847e-17 -5.703125e-01  3.487664e-01
     vertex -3.125000e-02 -5.589770e-01  4.398073e-01
     vertex -3.125000e-02 -5.703125e-01  3.487664e-01
   endloop
 endfacet
 facet normal  0.000000e+00 -9.923376e-01  1.235560e-01
   outer loop
     vertex -3.235847e-17 -5.703125e-01  3.487664e-01
     vertex -3.793312e-17 -5.589770e-01  4.398073e-01
     vertex -3.125000e-02 -5.589770e-01  4.398073e-01
   endloop
 endfacet
 facet normal  0.000000e+00 -7.974522e-02  9.968153e-01
   outer loop
     vertex -5.572848e-17 -2.375822e-01  7.304276e-01
     vertex -5.692694e-17  7.072368e-03  7.500000e-01
     vertex -3.125000e-02  7.072368e-03  7.500000e-01
   endloop
 endfacet
 facet normal  0.000000e+00 -7.974522e-02  9.968153e-01
   outer loop
     vertex -5.572848e-17 -2.375822e-01  7.304276e-01
     vertex -3.125000e-02  7.072368e-03  7.500000e-01
     vertex -3.125000e-02 -2.375822e-01  7.304276e-01
   endloop
 endfacet
 facet normal  0.000000e+00  1.000000e+00  0.000000e+00
   outer loop
     vertex -5.692694e-17  7.072368e-03  7.500000e-01
     vertex -5.561982e-17  7.072368e-03  7.304276e-01
     vertex -3.125000e-02  7.072368e-03  7.304276e-01
   endloop
 endfacet
 facet normal  0.000000e+00  1.000000e+00  0.000000e+00
   outer loop
     vertex -5.692694e-17  7.072368e-03  7.500000e-01
     vertex -3.125000e-02  7.072368e-03  7.304276e-01
     vertex -3.125000e-02  7.072368e-03  7.500000e-01
   endloop
 endfacet
 facet normal  0.000000e+00  9.480909e-02 -9.954955e-01
   outer loop
     vertex -5.561982e-17  7.072368e-03  7.304276e-01
     vertex -5.551115e-17 -1.984375e-01  7.108553e-01
     vertex -3.125000e-02 -1.984375e-01  7.108553e-01
   endloop
 endfacet
 facet normal  0.000000e+00  9.480909e-02 -9.954955e-01
   outer loop
     vertex -5.561982e-17  7.072368e-03  7.304276e-01
     vertex -3.125000e-02 -1.984375e-01  7.108553e-01
     vertex -3.125000e-02  7.072368e-03  7.304276e-01
   endloop
 endfacet
 facet normal  0.000000e+00  0.000000e+00 -1.000000e+00
   outer loop
     vertex -5.551115e-17 -1.984375e-01  7.108553e-01
     vertex -5.651881e-17 -2.039053e-01  7.108553e-01
     vertex -3.125000e-02 -2.039053e-01  7.108553e-01
   endloop
 endfacet
 facet normal -0.000000e+00  0.000000e+00 -1.000000e+00
   outer loop
     vertex -5.551115e-17 -1.984375e-01  7.108553e-01
     vertex -3.125000e-02 -2.039053e-01  7.108553e-01
     vertex -3.125000e-02 -1.984375e-01  7.108553e-01
   endloop
 endfacet
 facet normal -1.000000e+00  0.000000e+00  0.000000e+00
   outer loop
     vertex -3.125000e-02 -2.180099e-01  7.108553e-01
     vertex -3.125000e-02 -2.265201e-01  7.108553e-01
     vertex -3.125000e-02 -2.265625e-01  7.109375e-01
   endloop
 endfacet
 facet normal -1.000000e+00  0.000000e+00 -0.000000e+00
   outer loop
     vertex -3.125000e-02 -2.039474e-01  7.109375e-01
     vertex -3.125000e-02 -2.039053e-01  7.108553e-01
     vertex -3.125000e-02 -2.180099e-01  7.108553e-01
   endloop
 endfacet
 facet normal -1.000000e+00 -0.000000e+00  0.000000e+00
   outer loop
     vertex -3.125000e-02 -2.039474e-01  7.109375e-01
     vertex -3.125000e-02 -2.180099e-01  7.108553e-01
     vertex -3.125000e-02 -2.265625e-01  7.109375e-01
   endloop
 endfacet
 facet normal  0.000000e+00  0.000000e+00 -1.000000e+00
   outer loop
     vertex -5.501807e-17 -2.265201e-01  7.108553e-01
     vertex -5.551115e-17 -2.375822e-01  7.108553e-01
     vertex -3.125000e-02 -2.375822e-01  7.108553e-01
   endloop
 endfacet
 facet normal -0.000000e+00  0.000000e+00 -1.000000e+00
   outer loop
     vertex -5.501807e-17 -2.265201e-01  7.108553e-01
     vertex -3.125000e-02 -2.375822e-01  7.108553e-01
     vertex -3.125000e-02 -2.265201e-01  7.108553e-01
   endloop
 endfacet
 facet normal  0.000000e+00  2.615196e-01 -9.651982e-01
   outer loop
     vertex -5.468630e-17 -3.213044e-01  6.881708e-01
     vertex -3.125000e-02 -2.375822e-01  7.108553e-01
     vertex -5.551115e-17 -2.375822e-01  7.108553e-01
   endloop
 endfacet
 facet normal  1.570864e-15  2.615196e-01 -9.651982e-01
   outer loop
     vertex -5.468630e-17 -3.213044e-01  6.881708e-01
     vertex -3.125000e-02 -3.213044e-01  6.881708e-01
     vertex -3.125000e-02 -2.375822e-01  7.108553e-01
   endloop
 endfacet
 facet normal -3.034256e-16  4.810500e-01 -8.766932e-01
   outer loop
     vertex -5.232932e-17 -3.973496e-01  6.464441e-01
     vertex -3.125000e-02 -3.973496e-01  6.464441e-01
     vertex -3.125000e-02 -3.213044e-01  6.881708e-01
   endloop
 endfacet
 facet normal -1.599912e-16  4.810500e-01 -8.766932e-01
   outer loop
     vertex -5.232932e-17 -3.973496e-01  6.464441e-01
     vertex -3.125000e-02 -3.213044e-01  6.881708e-01
     vertex -5.468630e-17 -3.213044e-01  6.881708e-01
   endloop
 endfacet
 facet normal  4.287297e-15  6.736287e-01 -7.390700e-01
   outer loop
     vertex -4.898431e-17 -4.614573e-01  5.880129e-01
     vertex -3.125000e-02 -4.614573e-01  5.880129e-01
     vertex -3.125000e-02 -3.973496e-01  6.464441e-01
   endloop
 endfacet
 facet normal -2.239877e-15  6.736287e-01 -7.390700e-01
   outer loop
     vertex -4.898431e-17 -4.614573e-01  5.880129e-01
     vertex -3.125000e-02 -3.973496e-01  6.464441e-01
     vertex -5.232932e-17 -3.973496e-01  6.464441e-01
   endloop
 endfacet
 facet normal  3.025672e-15  8.284662e-01 -5.600391e-01
   outer loop
     vertex -4.483869e-17 -5.100356e-01  5.161509e-01
     vertex -3.125000e-02 -5.100356e-01  5.161509e-01
     vertex -3.125000e-02 -4.614573e-01  5.880129e-01
   endloop
 endfacet
 facet normal  1.599912e-15  8.284662e-01 -5.600391e-01
   outer loop
     vertex -4.483869e-17 -5.100356e-01  5.161509e-01
     vertex -3.125000e-02 -4.614573e-01  5.880129e-01
     vertex -4.898431e-17 -4.614573e-01  5.880129e-01
   endloop
 endfacet
 facet normal  4.347487e-15  9.368875e-01 -3.496311e-01
   outer loop
     vertex -4.012473e-17 -5.403629e-01  4.348844e-01
     vertex -3.125000e-02 -5.403629e-01  4.348844e-01
     vertex -3.125000e-02 -5.100356e-01  5.161509e-01
   endloop
 endfacet
 facet normal  4.799736e-16  9.368875e-01 -3.496311e-01
   outer loop
     vertex -4.012473e-17 -5.403629e-01  4.348844e-01
     vertex -3.125000e-02 -5.100356e-01  5.161509e-01
     vertex -4.483869e-17 -5.100356e-01  5.161509e-01
   endloop
 endfacet
 facet normal  0.000000e+00  9.928180e-01 -1.196344e-01
   outer loop
     vertex -3.469447e-17 -5.507401e-01  3.487664e-01
     vertex -3.125000e-02 -5.507401e-01  3.487664e-01
     vertex -3.125000e-02 -5.403629e-01  4.348844e-01
   endloop
 endfacet
 facet normal  1.479918e-15  9.928180e-01 -1.196344e-01
   outer loop
     vertex -3.469447e-17 -5.507401e-01  3.487664e-01
     vertex -3.125000e-02 -5.403629e-01  4.348844e-01
     vertex -4.012473e-17 -5.403629e-01  4.348844e-01
   endloop
 endfacet
 facet normal  0.000000e+00  1.000000e+00  0.000000e+00
   outer loop
     vertex -3.469447e-17 -5.507401e-01  3.487664e-01
     vertex -2.559552e-17 -5.507401e-01  2.030428e-01
     vertex -3.125000e-02 -5.507401e-01  2.030428e-01
   endloop
 endfacet
 facet normal  0.000000e+00  1.000000e+00  0.000000e+00
   outer loop
     vertex -3.469447e-17 -5.507401e-01  3.487664e-01
     vertex -3.125000e-02 -5.507401e-01  2.030428e-01
     vertex -3.125000e-02 -5.507401e-01  3.487664e-01
   endloop
 endfacet
 facet normal -1.000000e+00 -0.000000e+00  0.000000e+00
   outer loop
     vertex -3.125000e-02 -5.507401e-01  2.019737e-01
     vertex -3.125000e-02 -5.546875e-01  1.796875e-01
     vertex -3.125000e-02 -5.546875e-01  2.030428e-01
   endloop
 endfacet
 facet normal -1.000000e+00  0.000000e+00 -0.000000e+00
   outer loop
     vertex -3.125000e-02 -5.507401e-01  2.019737e-01
     vertex -3.125000e-02 -5.507401e-01  1.796875e-01
     vertex -3.125000e-02 -5.546875e-01  1.796875e-01
   endloop
 endfacet
 facet normal -1.000000e+00 -0.000000e+00 -0.000000e+00
   outer loop
     vertex -3.125000e-02 -5.507401e-01  2.030428e-01
     vertex -3.125000e-02 -5.507401e-01  2.019737e-01
     vertex -3.125000e-02 -5.546875e-01  2.030428e-01
   endloop
 endfacet
 facet normal  0.000000e+00  1.000000e+00  0.000000e+00
   outer loop
     vertex -1.078616e-17 -4.724507e-01 -3.536184e-03
     vertex  3.906250e-02 -4.724507e-01 -1.796875e-01
     vertex  3.669231e-34 -4.724507e-01 -1.796875e-01
   endloop
 endfacet
 facet normal -0.000000e+00  1.000000e+00  0.000000e+00
   outer loop
     vertex -1.078616e-17 -4.724507e-01 -3.536184e-03
     vertex  3.906250e-02 -4.724507e-01 -3.536184e-03
     vertex  3.906250e-02 -4.724507e-01 -1.796875e-01
   endloop
 endfacet
 facet normal  1.000000e+00  0.000000e+00  0.000000e+00
   outer loop
     vertex  3.906250e-02 -4.724507e-01 -3.536184e-03
     vertex  3.906250e-02 -5.507401e-01 -1.796875e-01
     vertex  3.906250e-02 -4.724507e-01 -1.796875e-01
   endloop
 endfacet
 facet normal  1.000000e+00  0.000000e+00  0.000000e+00
   outer loop
     vertex  3.906250e-02 -5.507401e-01  1.726151e-01
     vertex  3.906250e-02 -5.507401e-01 -1.796875e-01
     vertex  3.906250e-02 -4.724507e-01 -3.536184e-03
   endloop
 endfacet
 facet normal  1.000000e+00  0.000000e+00  0.000000e+00
   outer loop
     vertex  3.906250e-02 -5.507401e-01  1.796875e-01
     vertex  3.906250e-02 -5.507401e-01  1.726151e-01
     vertex  3.906250e-02 -4.724507e-01 -3.536184e-03
   endloop
 endfacet
 facet normal  1.000000e+00  0.000000e+00  0.000000e+00
   outer loop
     vertex  3.906250e-02  0.000000e+00  1.796875e-01
     vertex  3.906250e-02 -4.724507e-01 -3.536184e-03
     vertex  3.906250e-02  7.072368e-03 -3.536184e-03
   endloop
 endfacet
 facet normal  1.000000e+00  0.000000e+00  0.000000e+00
   outer loop
     vertex  3.906250e-02  0.000000e+00  1.796875e-01
     vertex  3.906250e-02 -5.507401e-01  1.796875e-01
     vertex  3.906250e-02 -4.724507e-01 -3.536184e-03
   endloop
 endfacet
 facet normal  1.000000e+00  0.000000e+00  0.000000e+00
   outer loop
     vertex  3.906250e-02 -4.934211e-03  2.812500e-01
     vertex  3.906250e-02 -5.507401e-01  3.487664e-01
     vertex  3.906250e-02 -5.507401e-01  2.030428e-01
   endloop
 endfacet
 facet normal  1.000000e+00  0.000000e+00  0.000000e+00
   outer loop
     vertex  3.906250e-02 -4.934211e-03  2.812500e-01
     vertex  3.906250e-02 -5.507401e-01  2.030428e-01
     vertex  3.906250e-02  0.000000e+00  2.030428e-01
   endloop
 endfacet
 facet normal  1.000000e+00  0.000000e+00  0.000000e+00
   outer loop
     vertex  3.906250e-02 -4.934211e-03  3.219572e-01
     vertex  3.906250e-02 -4.934211e-03  2.812500e-01
     vertex  3.906250e-02  0.000000e+00  2.030428e-01
   endloop
 endfacet
 facet normal  1.000000e+00  0.000000e+00 -9.176627e-16
   outer loop
     vertex  3.906250e-02 -2.265201e-01  7.108553e-01
     vertex  3.906250e-02 -2.375822e-01  7.108553e-01
     vertex  3.906250e-02 -3.213044e-01  6.881708e-01
   endloop
 endfacet
 facet normal  1.000000e+00  0.000000e+00  0.000000e+00
   outer loop
     vertex  3.906250e-02 -1.984375e-01  7.108553e-01
     vertex  3.906250e-02 -2.039053e-01  7.108553e-01
     vertex  3.906250e-02 -4.934211e-03  3.219572e-01
   endloop
 endfacet
 facet normal  1.000000e+00  0.000000e+00  0.000000e+00
   outer loop
     vertex  3.906250e-02  7.072368e-03  7.304276e-01
     vertex  3.906250e-02 -1.984375e-01  7.108553e-01
     vertex  3.906250e-02 -4.934211e-03  3.219572e-01
   endloop
 endfacet
 facet normal  1.000000e+00  0.000000e+00 -0.000000e+00
   outer loop
     vertex  3.906250e-02  7.072368e-03 -3.536184e-03
     vertex  3.906250e-02  7.072368e-03  7.304276e-01
     vertex  3.906250e-02  0.000000e+00  2.030428e-01
   endloop
 endfacet
 facet normal  1.000000e+00  0.000000e+00 -0.000000e+00
   outer loop
     vertex  3.906250e-02  0.000000e+00  2.030428e-01
     vertex  3.906250e-02  7.072368e-03  7.304276e-01
     vertex  3.906250e-02 -4.934211e-03  3.219572e-01
   endloop
 endfacet
 facet normal  1.000000e+00  0.000000e+00  0.000000e+00
   outer loop
     vertex  3.906250e-02  7.072368e-03 -3.536184e-03
     vertex  3.906250e-02  0.000000e+00  2.030428e-01
     vertex  3.906250e-02  0.000000e+00  1.796875e-01
   endloop
 endfacet
 facet normal  1.000000e+00 -1.020165e-16 -5.261902e-17
   outer loop
     vertex  3.906250e-02 -4.934211e-03  2.812500e-01
     vertex  3.906250e-02 -2.265201e-01  7.108553e-01
     vertex  3.906250e-02 -3.973496e-01  6.464441e-01
   endloop
 endfacet
 facet normal  1.000000e+00 -3.895126e-16  7.098702e-16
   outer loop
     vertex  3.906250e-02 -3.973496e-01  6.464441e-01
     vertex  3.906250e-02 -2.265201e-01  7.108553e-01
     vertex  3.906250e-02 -3.213044e-01  6.881708e-01
   endloop
 endfacet
 facet normal  1.000000e+00  2.843483e-17  8.755605e-17
   outer loop
     vertex  3.906250e-02 -4.934211e-03  2.812500e-01
     vertex  3.906250e-02 -3.973496e-01  6.464441e-01
     vertex  3.906250e-02 -4.614573e-01  5.880129e-01
   endloop
 endfacet
 facet normal  1.000000e+00  2.371289e-17  8.052887e-17
   outer loop
     vertex  3.906250e-02 -4.934211e-03  2.812500e-01
     vertex  3.906250e-02 -4.614573e-01  5.880129e-01
     vertex  3.906250e-02 -5.100356e-01  5.161509e-01
   endloop
 endfacet
 facet normal  1.000000e+00 -1.170603e-17  4.368497e-18
   outer loop
     vertex  3.906250e-02 -4.934211e-03  2.812500e-01
     vertex  3.906250e-02 -5.100356e-01  5.161509e-01
     vertex  3.906250e-02 -5.403629e-01  4.348844e-01
   endloop
 endfacet
 facet normal  1.000000e+00  9.820690e-18  7.939089e-17
   outer loop
     vertex  3.906250e-02 -4.934211e-03  2.812500e-01
     vertex  3.906250e-02 -5.403629e-01  4.348844e-01
     vertex  3.906250e-02 -5.507401e-01  3.487664e-01
   endloop
 endfacet
 facet normal  0.000000e+00 -9.923376e-01  1.235560e-01
   outer loop
     vertex -3.235847e-17 -5.703125e-01  3.487664e-01
     vertex  3.906250e-02 -5.703125e-01  3.487664e-01
     vertex  3.906250e-02 -5.589770e-01  4.398073e-01
   endloop
 endfacet
 facet normal  0.000000e+00 -9.923376e-01  1.235560e-01
   outer loop
     vertex -3.793312e-17 -5.589770e-01  4.398073e-01
     vertex -3.235847e-17 -5.703125e-01  3.487664e-01
     vertex  3.906250e-02 -5.589770e-01  4.398073e-01
   endloop
 endfacet
 facet normal  0.000000e+00 -9.354988e-01  3.533300e-01
   outer loop
     vertex -4.318846e-17 -5.265611e-01  5.256336e-01
     vertex  3.906250e-02 -5.589770e-01  4.398073e-01
     vertex  3.906250e-02 -5.265611e-01  5.256336e-01
   endloop
 endfacet
 facet normal  0.000000e+00 -9.354988e-01  3.533300e-01
   outer loop
     vertex -4.318846e-17 -5.265611e-01  5.256336e-01
     vertex -3.793312e-17 -5.589770e-01  4.398073e-01
     vertex  3.906250e-02 -5.589770e-01  4.398073e-01
   endloop
 endfacet
 facet normal  0.000000e+00 -8.262470e-01  5.633080e-01
   outer loop
     vertex -4.783006e-17 -4.748811e-01  6.014367e-01
     vertex  3.906250e-02 -5.265611e-01  5.256336e-01
     vertex  3.906250e-02 -4.748811e-01  6.014367e-01
   endloop
 endfacet
 facet normal  0.000000e+00 -8.262470e-01  5.633080e-01
   outer loop
     vertex -4.783006e-17 -4.748811e-01  6.014367e-01
     vertex -4.318846e-17 -5.265611e-01  5.256336e-01
     vertex  3.906250e-02 -5.265611e-01  5.256336e-01
   endloop
 endfacet
 facet normal  0.000000e+00 -6.707034e-01  7.417257e-01
   outer loop
     vertex -5.159787e-17 -4.068323e-01  6.629696e-01
     vertex  3.906250e-02 -4.748811e-01  6.014367e-01
     vertex  3.906250e-02 -4.068323e-01  6.629696e-01
   endloop
 endfacet
 facet normal  0.000000e+00 -6.707034e-01  7.417257e-01
   outer loop
     vertex -5.159787e-17 -4.068323e-01  6.629696e-01
     vertex -4.783006e-17 -4.748811e-01  6.014367e-01
     vertex  3.906250e-02 -4.748811e-01  6.014367e-01
   endloop
 endfacet
 facet normal  0.000000e+00 -4.775824e-01  8.785870e-01
   outer loop
     vertex -5.428078e-17 -3.262273e-01  7.067849e-01
     vertex  3.906250e-02 -4.068323e-01  6.629696e-01
     vertex  3.906250e-02 -3.262273e-01  7.067849e-01
   endloop
 endfacet
 facet normal  0.000000e+00 -4.775824e-01  8.785870e-01
   outer loop
     vertex -5.428078e-17 -3.262273e-01  7.067849e-01
     vertex -5.159787e-17 -4.068323e-01  6.629696e-01
     vertex  3.906250e-02 -4.068323e-01  6.629696e-01
   endloop
 endfacet
 facet normal  0.000000e+00 -2.577041e-01  9.662239e-01
   outer loop
     vertex -5.572848e-17 -2.375822e-01  7.304276e-01
     vertex  3.906250e-02 -3.262273e-01  7.067849e-01
     vertex  3.906250e-02 -2.375822e-01  7.304276e-01
   endloop
 endfacet
 facet normal  0.000000e+00 -2.577041e-01  9.662239e-01
   outer loop
     vertex -5.572848e-17 -2.375822e-01  7.304276e-01
     vertex -5.428078e-17 -3.262273e-01  7.067849e-01
     vertex  3.906250e-02 -3.262273e-01  7.067849e-01
   endloop
 endfacet
 facet normal  0.000000e+00 -7.974522e-02  9.968153e-01
   outer loop
     vertex -5.572848e-17 -2.375822e-01  7.304276e-01
     vertex  3.906250e-02  7.072368e-03  7.500000e-01
     vertex -5.692694e-17  7.072368e-03  7.500000e-01
   endloop
 endfacet
 facet normal  0.000000e+00 -7.974522e-02  9.968153e-01
   outer loop
     vertex -5.572848e-17 -2.375822e-01  7.304276e-01
     vertex  3.906250e-02 -2.375822e-01  7.304276e-01
     vertex  3.906250e-02  7.072368e-03  7.500000e-01
   endloop
 endfacet
 facet normal  0.000000e+00  1.000000e+00  0.000000e+00
   outer loop
     vertex -5.692694e-17  7.072368e-03  7.500000e-01
     vertex  3.906250e-02  7.072368e-03  7.304276e-01
     vertex -5.561982e-17  7.072368e-03  7.304276e-01
   endloop
 endfacet
 facet normal -0.000000e+00  1.000000e+00  0.000000e+00
   outer loop
     vertex -5.692694e-17  7.072368e-03  7.500000e-01
     vertex  3.906250e-02  7.072368e-03  7.500000e-01
     vertex  3.906250e-02  7.072368e-03  7.304276e-01
   endloop
 endfacet
 facet normal  1.000000e+00  0.000000e+00  0.000000e+00
   outer loop
     vertex  3.906250e-02 -2.180099e-01  7.108553e-01
     vertex  3.906250e-02 -2.265625e-01  7.109375e-01
     vertex  3.906250e-02 -2.265201e-01  7.108553e-01
   endloop
 endfacet
 facet normal  1.000000e+00  0.000000e+00  0.000000e+00
   outer loop
     vertex  3.906250e-02 -2.039474e-01  7.109375e-01
     vertex  3.906250e-02 -2.180099e-01  7.108553e-01
     vertex  3.906250e-02 -2.039053e-01  7.108553e-01
   endloop
 endfacet
 facet normal  1.000000e+00  0.000000e+00  0.000000e+00
   outer loop
     vertex  3.906250e-02 -2.039474e-01  7.109375e-01
     vertex  3.906250e-02 -2.265625e-01  7.109375e-01
     vertex  3.906250e-02 -2.180099e-01  7.108553e-01
   endloop
 endfacet
 facet normal  1.000000e+00  0.000000e+00  0.000000e+00
   outer loop
     vertex  3.906250e-02 -5.507401e-01  2.019737e-01
     vertex  3.906250e-02 -5.546875e-01  2.030428e-01
     vertex  3.906250e-02 -5.546875e-01  1.796875e-01
   endloop
 endfacet
 facet normal  1.000000e+00  0.000000e+00  0.000000e+00
   outer loop
     vertex  3.906250e-02 -5.507401e-01  2.019737e-01
     vertex  3.906250e-02 -5.546875e-01  1.796875e-01
     vertex  3.906250e-02 -5.507401e-01  1.796875e-01
   endloop
 endfacet
 facet normal  1.000000e+00  0.000000e+00  0.000000e+00
   outer loop
     vertex  3.906250e-02 -5.507401e-01  2.030428e-01
     vertex  3.906250e-02 -5.546875e-01  2.030428e-01
     vertex  3.906250e-02 -5.507401e-01  2.019737e-01
   endloop
 endfacet
 facet normal  0.000000e+00 -0.000000e+00 -1.000000e+00
   outer loop
     vertex -2.775558e-17  0.000000e+00  1.796875e-01
     vertex -2.488047e-17 -5.507401e-01  1.796875e-01
     vertex -3.125000e-02 -5.507401e-01  1.796875e-01
   endloop
 endfacet
 facet normal -0.000000e+00  0.000000e+00 -1.000000e+00
   outer loop
     vertex -2.775558e-17  0.000000e+00  1.796875e-01
     vertex -3.125000e-02 -5.507401e-01  1.796875e-01
     vertex -3.125000e-02  0.000000e+00  1.796875e-01
   endloop
 endfacet
 facet normal  0.000000e+00  1.000000e+00  0.000000e+00
   outer loop
     vertex -2.081668e-17  0.000000e+00  2.030428e-01
     vertex -2.775558e-17  0.000000e+00  1.796875e-01
     vertex -3.125000e-02  0.000000e+00  1.796875e-01
   endloop
 endfacet
 facet normal  0.000000e+00  1.000000e+00  0.000000e+00
   outer loop
     vertex -2.081668e-17  0.000000e+00  2.030428e-01
     vertex -3.125000e-02  0.000000e+00  1.796875e-01
     vertex -3.125000e-02  0.000000e+00  2.030428e-01
   endloop
 endfacet
 facet normal  0.000000e+00 -0.000000e+00  1.000000e+00
   outer loop
     vertex -2.559552e-17 -5.507401e-01  2.030428e-01
     vertex -2.081668e-17  0.000000e+00  2.030428e-01
     vertex -3.125000e-02  0.000000e+00  2.030428e-01
   endloop
 endfacet
 facet normal  0.000000e+00  0.000000e+00  1.000000e+00
   outer loop
     vertex -2.559552e-17 -5.507401e-01  2.030428e-01
     vertex -3.125000e-02  0.000000e+00  2.030428e-01
     vertex -3.125000e-02 -5.507401e-01  2.030428e-01
   endloop
 endfacet
 facet normal  0.000000e+00 -8.887436e-01 -4.584046e-01
   outer loop
     vertex -2.775558e-17 -4.934211e-03  2.812500e-01
     vertex -5.501807e-17 -2.265201e-01  7.108553e-01
     vertex -3.125000e-02 -2.265201e-01  7.108553e-01
   endloop
 endfacet
 facet normal -0.000000e+00 -8.887436e-01 -4.584046e-01
   outer loop
     vertex -2.775558e-17 -4.934211e-03  2.812500e-01
     vertex -3.125000e-02 -2.265201e-01  7.108553e-01
     vertex -3.125000e-02 -4.934211e-03  2.812500e-01
   endloop
 endfacet
 facet normal  0.000000e+00  1.000000e+00  0.000000e+00
   outer loop
     vertex -3.469447e-17 -4.934211e-03  3.219572e-01
     vertex -2.775558e-17 -4.934211e-03  2.812500e-01
     vertex -3.125000e-02 -4.934211e-03  2.812500e-01
   endloop
 endfacet
 facet normal  0.000000e+00  1.000000e+00  0.000000e+00
   outer loop
     vertex -3.469447e-17 -4.934211e-03  3.219572e-01
     vertex -3.125000e-02 -4.934211e-03  2.812500e-01
     vertex -3.125000e-02 -4.934211e-03  3.219572e-01
   endloop
 endfacet
 facet normal  0.000000e+00  8.902482e-01  4.554758e-01
   outer loop
     vertex -5.651881e-17 -2.039053e-01  7.108553e-01
     vertex -3.469447e-17 -4.934211e-03  3.219572e-01
     vertex -3.125000e-02 -4.934211e-03  3.219572e-01
   endloop
 endfacet
 facet normal  0.000000e+00  8.902482e-01  4.554758e-01
   outer loop
     vertex -5.651881e-17 -2.039053e-01  7.108553e-01
     vertex -3.125000e-02 -4.934211e-03  3.219572e-01
     vertex -3.125000e-02 -2.039053e-01  7.108553e-01
   endloop
 endfacet
 facet normal  0.000000e+00  1.000000e+00  0.000000e+00
   outer loop
     vertex -5.561982e-17  7.072368e-03  7.304276e-01
     vertex  3.906250e-02  7.072368e-03 -3.536184e-03
     vertex -1.078616e-17  7.072368e-03 -3.536184e-03
   endloop
 endfacet
 facet normal -0.000000e+00  1.000000e+00  0.000000e+00
   outer loop
     vertex -5.561982e-17  7.072368e-03  7.304276e-01
     vertex  3.906250e-02  7.072368e-03  7.304276e-01
     vertex  3.906250e-02  7.072368e-03 -3.536184e-03
   endloop
 endfacet
 facet normal  0.000000e+00  0.000000e+00 -1.000000e+00
   outer loop
     vertex -1.078616e-17  7.072368e-03 -3.536184e-03
     vertex  3.906250e-02 -4.724507e-01 -3.536184e-03
     vertex -1.078616e-17 -4.724507e-01 -3.536184e-03
   endloop
 endfacet
 facet normal  0.000000e+00  0.000000e+00 -1.000000e+00
   outer loop
     vertex -1.078616e-17  7.072368e-03 -3.536184e-03
     vertex  3.906250e-02  7.072368e-03 -3.536184e-03
     vertex  3.906250e-02 -4.724507e-01 -3.536184e-03
   endloop
 endfacet
 facet normal -1.000000e+00 -0.000000e+00 -0.000000e+00
   outer loop
     vertex -3.125000e-02 -2.180099e-01  7.108553e-01
     vertex -3.125000e-02 -4.934211e-03  3.219572e-01
     vertex -3.125000e-02 -2.265201e-01  7.108553e-01
   endloop
 endfacet
 facet normal -1.000000e+00 -0.000000e+00 -0.000000e+00
   outer loop
     vertex -3.125000e-02 -2.039053e-01  7.108553e-01
     vertex -3.125000e-02 -4.934211e-03  3.219572e-01
     vertex -3.125000e-02 -2.180099e-01  7.108553e-01
   endloop
 endfacet
 facet normal -1.000000e+00  0.000000e+00  0.000000e+00
   outer loop
     vertex -3.125000e-02 -2.265201e-01  7.108553e-01
     vertex -3.125000e-02 -4.934211e-03  3.219572e-01
     vertex -3.125000e-02 -4.934211e-03  2.812500e-01
   endloop
 endfacet
 facet normal -1.000000e+00  0.000000e+00  0.000000e+00
   outer loop
     vertex -3.125000e-02  0.000000e+00  1.796875e-01
     vertex -3.125000e-02 -5.507401e-01  1.796875e-01
     vertex -3.125000e-02 -5.507401e-01  2.019737e-01
   endloop
 endfacet
 facet normal -1.000000e+00 -0.000000e+00  0.000000e+00
   outer loop
     vertex -3.125000e-02  0.000000e+00  2.030428e-01
     vertex -3.125000e-02 -5.507401e-01  2.019737e-01
     vertex -3.125000e-02 -5.507401e-01  2.030428e-01
   endloop
 endfacet
 facet normal -1.000000e+00  0.000000e+00 -0.000000e+00
   outer loop
     vertex -3.125000e-02  0.000000e+00  2.030428e-01
     vertex -3.125000e-02  0.000000e+00  1.796875e-01
     vertex -3.125000e-02 -5.507401e-01  2.019737e-01
   endloop
 endfacet
 facet normal  1.000000e+00  0.000000e+00  0.000000e+00
   outer loop
     vertex  3.906250e-02  0.000000e+00  1.796875e-01
     vertex  3.906250e-02 -5.507401e-01  2.019737e-01
     vertex  3.906250e-02 -5.507401e-01  1.796875e-01
   endloop
 endfacet
 facet normal  1.000000e+00  0.000000e+00  0.000000e+00
   outer loop
     vertex  3.906250e-02  0.000000e+00  2.030428e-01
     vertex  3.906250e-02 -5.507401e-01  2.030428e-01
     vertex  3.906250e-02 -5.507401e-01  2.019737e-01
   endloop
 endfacet
 facet normal  1.000000e+00  0.000000e+00  0.000000e+00
   outer loop
     vertex  3.906250e-02  0.000000e+00  2.030428e-01
     vertex  3.906250e-02 -5.507401e-01  2.019737e-01
     vertex  3.906250e-02  0.000000e+00  1.796875e-01
   endloop
 endfacet
 facet normal  1.000000e+00  0.000000e+00  0.000000e+00
   outer loop
     vertex  3.906250e-02 -2.180099e-01  7.108553e-01
     vertex  3.906250e-02 -2.265201e-01  7.108553e-01
     vertex  3.906250e-02 -4.934211e-03  3.219572e-01
   endloop
 endfacet
 facet normal  1.000000e+00  0.000000e+00  0.000000e+00
   outer loop
     vertex  3.906250e-02 -2.039053e-01  7.108553e-01
     vertex  3.906250e-02 -2.180099e-01  7.108553e-01
     vertex  3.906250e-02 -4.934211e-03  3.219572e-01
   endloop
 endfacet
 facet normal  1.000000e+00  0.000000e+00  0.000000e+00
   outer loop
     vertex  3.906250e-02 -2.265201e-01  7.108553e-01
     vertex  3.906250e-02 -4.934211e-03  2.812500e-01
     vertex  3.906250e-02 -4.934211e-03  3.219572e-01
   endloop
 endfacet
endsolid
