solid 
 facet normal -9.659258e-01 -2.588190e-01  0.000000e+00
   outer loop
     vertex -1.275681e-01 -7.425987e-02  0.000000e+00
     vertex -1.328125e-01 -5.468750e-02  0.000000e+00
     vertex -1.328125e-01 -5.468750e-02 -7.500000e-01
   endloop
 endfacet
 facet normal -9.659258e-01 -2.588190e-01 -0.000000e+00
   outer loop
     vertex -1.275681e-01 -7.425987e-02  0.000000e+00
     vertex -1.328125e-01 -5.468750e-02 -7.500000e-01
     vertex -1.275681e-01 -7.425987e-02 -7.500000e-01
   endloop
 endfacet
 facet normal -7.071068e-01 -7.071068e-01 -0.000000e+00
   outer loop
     vertex -1.132401e-01 -8.858784e-02  0.000000e+00
     vertex -1.275681e-01 -7.425987e-02 -7.500000e-01
     vertex -1.132401e-01 -8.858784e-02 -7.500000e-01
   endloop
 endfacet
 facet normal -7.071068e-01 -7.071068e-01  0.000000e+00
   outer loop
     vertex -1.132401e-01 -8.858784e-02  0.000000e+00
     vertex -1.275681e-01 -7.425987e-02  0.000000e+00
     vertex -1.275681e-01 -7.425987e-02 -7.500000e-01
   endloop
 endfacet
 facet normal -2.588190e-01 -9.659258e-01 -0.000000e+00
   outer loop
     vertex -9.366776e-02 -9.383224e-02  0.000000e+00
     vertex -1.132401e-01 -8.858784e-02 -7.500000e-01
     vertex -9.366776e-02 -9.383224e-02 -7.500000e-01
   endloop
 endfacet
 facet normal -2.588190e-01 -9.659258e-01  0.000000e+00
   outer loop
     vertex -9.366776e-02 -9.383224e-02  0.000000e+00
     vertex -1.132401e-01 -8.858784e-02  0.000000e+00
     vertex -1.132401e-01 -8.858784e-02 -7.500000e-01
   endloop
 endfacet
 facet normal -0.000000e+00 -1.000000e+00  0.000000e+00
   outer loop
     vertex  9.366776e-02 -9.383224e-02  0.000000e+00
     vertex -9.366776e-02 -9.383224e-02  0.000000e+00
     vertex -9.366776e-02 -9.383224e-02 -7.500000e-01
   endloop
 endfacet
 facet normal  0.000000e+00 -1.000000e+00 -0.000000e+00
   outer loop
     vertex  9.366776e-02 -9.383224e-02  0.000000e+00
     vertex -9.366776e-02 -9.383224e-02 -7.500000e-01
     vertex  9.366776e-02 -9.383224e-02 -7.500000e-01
   endloop
 endfacet
 facet normal  2.588190e-01 -9.659258e-01  0.000000e+00
   outer loop
     vertex  1.132401e-01 -8.858784e-02  0.000000e+00
     vertex  9.366776e-02 -9.383224e-02  0.000000e+00
     vertex  9.366776e-02 -9.383224e-02 -7.500000e-01
   endloop
 endfacet
 facet normal  2.588190e-01 -9.659258e-01  0.000000e+00
   outer loop
     vertex  1.132401e-01 -8.858784e-02  0.000000e+00
     vertex  9.366776e-02 -9.383224e-02 -7.500000e-01
     vertex  1.132401e-01 -8.858784e-02 -7.500000e-01
   endloop
 endfacet
 facet normal  7.071068e-01 -7.071068e-01  0.000000e+00
   outer loop
     vertex  1.275681e-01 -7.425987e-02  0.000000e+00
     vertex  1.132401e-01 -8.858784e-02 -7.500000e-01
     vertex  1.275681e-01 -7.425987e-02 -7.500000e-01
   endloop
 endfacet
 facet normal  7.071068e-01 -7.071068e-01  0.000000e+00
   outer loop
     vertex  1.275681e-01 -7.425987e-02  0.000000e+00
     vertex  1.132401e-01 -8.858784e-02  0.000000e+00
     vertex  1.132401e-01 -8.858784e-02 -7.500000e-01
   endloop
 endfacet
 facet normal  9.659258e-01 -2.588190e-01  0.000000e+00
   outer loop
     vertex  1.328125e-01 -5.468750e-02  0.000000e+00
     vertex  1.275681e-01 -7.425987e-02 -7.500000e-01
     vertex  1.328125e-01 -5.468750e-02 -7.500000e-01
   endloop
 endfacet
 facet normal  9.659258e-01 -2.588190e-01  0.000000e+00
   outer loop
     vertex  1.328125e-01 -5.468750e-02  0.000000e+00
     vertex  1.275681e-01 -7.425987e-02  0.000000e+00
     vertex  1.275681e-01 -7.425987e-02 -7.500000e-01
   endloop
 endfacet
 facet normal  1.000000e+00  0.000000e+00  0.000000e+00
   outer loop
     vertex  1.328125e-01  5.156250e-02  0.000000e+00
     vertex  1.328125e-01 -5.468750e-02  0.000000e+00
     vertex  1.328125e-01 -5.468750e-02 -7.500000e-01
   endloop
 endfacet
 facet normal  1.000000e+00  0.000000e+00  0.000000e+00
   outer loop
     vertex  1.328125e-01  5.156250e-02  0.000000e+00
     vertex  1.328125e-01 -5.468750e-02 -7.500000e-01
     vertex  1.328125e-01  5.156250e-02 -7.500000e-01
   endloop
 endfacet
 facet normal  9.659258e-01  2.588190e-01  0.000000e+00
   outer loop
     vertex  1.275681e-01  7.113487e-02  0.000000e+00
     vertex  1.328125e-01  5.156250e-02  0.000000e+00
     vertex  1.328125e-01  5.156250e-02 -7.500000e-01
   endloop
 endfacet
 facet normal  9.659258e-01  2.588190e-01  0.000000e+00
   outer loop
     vertex  1.275681e-01  7.113487e-02  0.000000e+00
     vertex  1.328125e-01  5.156250e-02 -7.500000e-01
     vertex  1.275681e-01  7.113487e-02 -7.500000e-01
   endloop
 endfacet
 facet normal  7.071068e-01  7.071068e-01  0.000000e+00
   outer loop
     vertex  1.132401e-01  8.546284e-02  0.000000e+00
     vertex  1.275681e-01  7.113487e-02 -7.500000e-01
     vertex  1.132401e-01  8.546284e-02 -7.500000e-01
   endloop
 endfacet
 facet normal  7.071068e-01  7.071068e-01  0.000000e+00
   outer loop
     vertex  1.132401e-01  8.546284e-02  0.000000e+00
     vertex  1.275681e-01  7.113487e-02  0.000000e+00
     vertex  1.275681e-01  7.113487e-02 -7.500000e-01
   endloop
 endfacet
 facet normal  2.588190e-01  9.659258e-01  0.000000e+00
   outer loop
     vertex  9.366776e-02  9.070724e-02  0.000000e+00
     vertex  1.132401e-01  8.546284e-02 -7.500000e-01
     vertex  9.366776e-02  9.070724e-02 -7.500000e-01
   endloop
 endfacet
 facet normal  2.588190e-01  9.659258e-01  0.000000e+00
   outer loop
     vertex  9.366776e-02  9.070724e-02  0.000000e+00
     vertex  1.132401e-01  8.546284e-02  0.000000e+00
     vertex  1.132401e-01  8.546284e-02 -7.500000e-01
   endloop
 endfacet
 facet normal -0.000000e+00  1.000000e+00  0.000000e+00
   outer loop
     vertex -9.366776e-02  9.070724e-02  0.000000e+00
     vertex  9.366776e-02  9.070724e-02  0.000000e+00
     vertex  9.366776e-02  9.070724e-02 -7.500000e-01
   endloop
 endfacet
 facet normal  0.000000e+00  1.000000e+00  0.000000e+00
   outer loop
     vertex -9.366776e-02  9.070724e-02  0.000000e+00
     vertex  9.366776e-02  9.070724e-02 -7.500000e-01
     vertex -9.366776e-02  9.070724e-02 -7.500000e-01
   endloop
 endfacet
 facet normal -2.588190e-01  9.659258e-01  0.000000e+00
   outer loop
     vertex -1.132401e-01  8.546284e-02  0.000000e+00
     vertex -9.366776e-02  9.070724e-02  0.000000e+00
     vertex -9.366776e-02  9.070724e-02 -7.500000e-01
   endloop
 endfacet
 facet normal -2.588190e-01  9.659258e-01  0.000000e+00
   outer loop
     vertex -1.132401e-01  8.546284e-02  0.000000e+00
     vertex -9.366776e-02  9.070724e-02 -7.500000e-01
     vertex -1.132401e-01  8.546284e-02 -7.500000e-01
   endloop
 endfacet
 facet normal -7.071068e-01  7.071068e-01  0.000000e+00
   outer loop
     vertex -1.275681e-01  7.113487e-02  0.000000e+00
     vertex -1.132401e-01  8.546284e-02 -7.500000e-01
     vertex -1.275681e-01  7.113487e-02 -7.500000e-01
   endloop
 endfacet
 facet normal -7.071068e-01  7.071068e-01  0.000000e+00
   outer loop
     vertex -1.275681e-01  7.113487e-02  0.000000e+00
     vertex -1.132401e-01  8.546284e-02  0.000000e+00
     vertex -1.132401e-01  8.546284e-02 -7.500000e-01
   endloop
 endfacet
 facet normal -9.659258e-01  2.588190e-01  0.000000e+00
   outer loop
     vertex -1.328125e-01  5.156250e-02  0.000000e+00
     vertex -1.275681e-01  7.113487e-02 -7.500000e-01
     vertex -1.328125e-01  5.156250e-02 -7.500000e-01
   endloop
 endfacet
 facet normal -9.659258e-01  2.588190e-01  0.000000e+00
   outer loop
     vertex -1.328125e-01  5.156250e-02  0.000000e+00
     vertex -1.275681e-01  7.113487e-02  0.000000e+00
     vertex -1.275681e-01  7.113487e-02 -7.500000e-01
   endloop
 endfacet
 facet normal -1.000000e+00  0.000000e+00  0.000000e+00
   outer loop
     vertex -1.328125e-01 -5.468750e-02  0.000000e+00
     vertex -1.328125e-01  5.156250e-02  0.000000e+00
     vertex -1.328125e-01  5.156250e-02 -7.500000e-01
   endloop
 endfacet
 facet normal -1.000000e+00  0.000000e+00  0.000000e+00
   outer loop
     vertex -1.328125e-01 -5.468750e-02  0.000000e+00
     vertex -1.328125e-01  5.156250e-02 -7.500000e-01
     vertex -1.328125e-01 -5.468750e-02 -7.500000e-01
   endloop
 endfacet
 facet normal  9.659258e-01  2.588190e-01  0.000000e+00
   outer loop
     vertex -1.251466e-01 -7.286184e-02  0.000000e+00
     vertex -1.300164e-01 -5.468750e-02 -7.500000e-01
     vertex -1.300164e-01 -5.468750e-02  0.000000e+00
   endloop
 endfacet
 facet normal  9.659258e-01  2.588190e-01  0.000000e+00
   outer loop
     vertex -1.251466e-01 -7.286184e-02  0.000000e+00
     vertex -1.251466e-01 -7.286184e-02 -7.500000e-01
     vertex -1.300164e-01 -5.468750e-02 -7.500000e-01
   endloop
 endfacet
 facet normal  7.071068e-01  7.071068e-01  0.000000e+00
   outer loop
     vertex -1.118421e-01 -8.616638e-02  0.000000e+00
     vertex -1.118421e-01 -8.616638e-02 -7.500000e-01
     vertex -1.251466e-01 -7.286184e-02 -7.500000e-01
   endloop
 endfacet
 facet normal  7.071068e-01  7.071068e-01  0.000000e+00
   outer loop
     vertex -1.118421e-01 -8.616638e-02  0.000000e+00
     vertex -1.251466e-01 -7.286184e-02 -7.500000e-01
     vertex -1.251466e-01 -7.286184e-02  0.000000e+00
   endloop
 endfacet
 facet normal  2.588190e-01  9.659258e-01  0.000000e+00
   outer loop
     vertex -9.366776e-02 -9.103618e-02  0.000000e+00
     vertex -9.366776e-02 -9.103618e-02 -7.500000e-01
     vertex -1.118421e-01 -8.616638e-02 -7.500000e-01
   endloop
 endfacet
 facet normal  2.588190e-01  9.659258e-01  0.000000e+00
   outer loop
     vertex -9.366776e-02 -9.103618e-02  0.000000e+00
     vertex -1.118421e-01 -8.616638e-02 -7.500000e-01
     vertex -1.118421e-01 -8.616638e-02  0.000000e+00
   endloop
 endfacet
 facet normal  0.000000e+00  1.000000e+00  0.000000e+00
   outer loop
     vertex  9.366776e-02 -9.103618e-02  0.000000e+00
     vertex -9.366776e-02 -9.103618e-02 -7.500000e-01
     vertex -9.366776e-02 -9.103618e-02  0.000000e+00
   endloop
 endfacet
 facet normal  0.000000e+00  1.000000e+00  0.000000e+00
   outer loop
     vertex  9.366776e-02 -9.103618e-02  0.000000e+00
     vertex  9.366776e-02 -9.103618e-02 -7.500000e-01
     vertex -9.366776e-02 -9.103618e-02 -7.500000e-01
   endloop
 endfacet
 facet normal -2.588190e-01  9.659258e-01  0.000000e+00
   outer loop
     vertex  1.118421e-01 -8.616638e-02  0.000000e+00
     vertex  9.366776e-02 -9.103618e-02 -7.500000e-01
     vertex  9.366776e-02 -9.103618e-02  0.000000e+00
   endloop
 endfacet
 facet normal -2.588190e-01  9.659258e-01  0.000000e+00
   outer loop
     vertex  1.118421e-01 -8.616638e-02  0.000000e+00
     vertex  1.118421e-01 -8.616638e-02 -7.500000e-01
     vertex  9.366776e-02 -9.103618e-02 -7.500000e-01
   endloop
 endfacet
 facet normal -7.071068e-01  7.071068e-01  0.000000e+00
   outer loop
     vertex  1.251466e-01 -7.286184e-02  0.000000e+00
     vertex  1.251466e-01 -7.286184e-02 -7.500000e-01
     vertex  1.118421e-01 -8.616638e-02 -7.500000e-01
   endloop
 endfacet
 facet normal -7.071068e-01  7.071068e-01  0.000000e+00
   outer loop
     vertex  1.251466e-01 -7.286184e-02  0.000000e+00
     vertex  1.118421e-01 -8.616638e-02 -7.500000e-01
     vertex  1.118421e-01 -8.616638e-02  0.000000e+00
   endloop
 endfacet
 facet normal -9.659258e-01  2.588190e-01  0.000000e+00
   outer loop
     vertex  1.300164e-01 -5.468750e-02  0.000000e+00
     vertex  1.300164e-01 -5.468750e-02 -7.500000e-01
     vertex  1.251466e-01 -7.286184e-02 -7.500000e-01
   endloop
 endfacet
 facet normal -9.659258e-01  2.588190e-01  0.000000e+00
   outer loop
     vertex  1.300164e-01 -5.468750e-02  0.000000e+00
     vertex  1.251466e-01 -7.286184e-02 -7.500000e-01
     vertex  1.251466e-01 -7.286184e-02  0.000000e+00
   endloop
 endfacet
 facet normal -1.000000e+00 -0.000000e+00  0.000000e+00
   outer loop
     vertex  1.300164e-01  5.156250e-02  0.000000e+00
     vertex  1.300164e-01 -5.468750e-02 -7.500000e-01
     vertex  1.300164e-01 -5.468750e-02  0.000000e+00
   endloop
 endfacet
 facet normal -1.000000e+00  0.000000e+00 -0.000000e+00
   outer loop
     vertex  1.300164e-01  5.156250e-02  0.000000e+00
     vertex  1.300164e-01  5.156250e-02 -7.500000e-01
     vertex  1.300164e-01 -5.468750e-02 -7.500000e-01
   endloop
 endfacet
 facet normal -9.659258e-01 -2.588190e-01  0.000000e+00
   outer loop
     vertex  1.251466e-01  6.973684e-02  0.000000e+00
     vertex  1.300164e-01  5.156250e-02 -7.500000e-01
     vertex  1.300164e-01  5.156250e-02  0.000000e+00
   endloop
 endfacet
 facet normal -9.659258e-01 -2.588190e-01 -0.000000e+00
   outer loop
     vertex  1.251466e-01  6.973684e-02  0.000000e+00
     vertex  1.251466e-01  6.973684e-02 -7.500000e-01
     vertex  1.300164e-01  5.156250e-02 -7.500000e-01
   endloop
 endfacet
 facet normal -7.071068e-01 -7.071068e-01 -0.000000e+00
   outer loop
     vertex  1.118421e-01  8.304138e-02  0.000000e+00
     vertex  1.118421e-01  8.304138e-02 -7.500000e-01
     vertex  1.251466e-01  6.973684e-02 -7.500000e-01
   endloop
 endfacet
 facet normal -7.071068e-01 -7.071068e-01  0.000000e+00
   outer loop
     vertex  1.118421e-01  8.304138e-02  0.000000e+00
     vertex  1.251466e-01  6.973684e-02 -7.500000e-01
     vertex  1.251466e-01  6.973684e-02  0.000000e+00
   endloop
 endfacet
 facet normal -2.588190e-01 -9.659258e-01 -0.000000e+00
   outer loop
     vertex  9.366776e-02  8.791118e-02  0.000000e+00
     vertex  9.366776e-02  8.791118e-02 -7.500000e-01
     vertex  1.118421e-01  8.304138e-02 -7.500000e-01
   endloop
 endfacet
 facet normal -2.588190e-01 -9.659258e-01  0.000000e+00
   outer loop
     vertex  9.366776e-02  8.791118e-02  0.000000e+00
     vertex  1.118421e-01  8.304138e-02 -7.500000e-01
     vertex  1.118421e-01  8.304138e-02  0.000000e+00
   endloop
 endfacet
 facet normal  0.000000e+00 -1.000000e+00  0.000000e+00
   outer loop
     vertex -9.366776e-02  8.791118e-02  0.000000e+00
     vertex  9.366776e-02  8.791118e-02 -7.500000e-01
     vertex  9.366776e-02  8.791118e-02  0.000000e+00
   endloop
 endfacet
 facet normal  0.000000e+00 -1.000000e+00  0.000000e+00
   outer loop
     vertex -9.366776e-02  8.791118e-02  0.000000e+00
     vertex -9.366776e-02  8.791118e-02 -7.500000e-01
     vertex  9.366776e-02  8.791118e-02 -7.500000e-01
   endloop
 endfacet
 facet normal  2.588190e-01 -9.659258e-01  0.000000e+00
   outer loop
     vertex -1.118421e-01  8.304138e-02  0.000000e+00
     vertex -9.366776e-02  8.791118e-02 -7.500000e-01
     vertex -9.366776e-02  8.791118e-02  0.000000e+00
   endloop
 endfacet
 facet normal  2.588190e-01 -9.659258e-01  0.000000e+00
   outer loop
     vertex -1.118421e-01  8.304138e-02  0.000000e+00
     vertex -1.118421e-01  8.304138e-02 -7.500000e-01
     vertex -9.366776e-02  8.791118e-02 -7.500000e-01
   endloop
 endfacet
 facet normal  7.071068e-01 -7.071068e-01  0.000000e+00
   outer loop
     vertex -1.251466e-01  6.973684e-02  0.000000e+00
     vertex -1.251466e-01  6.973684e-02 -7.500000e-01
     vertex -1.118421e-01  8.304138e-02 -7.500000e-01
   endloop
 endfacet
 facet normal  7.071068e-01 -7.071068e-01  0.000000e+00
   outer loop
     vertex -1.251466e-01  6.973684e-02  0.000000e+00
     vertex -1.118421e-01  8.304138e-02 -7.500000e-01
     vertex -1.118421e-01  8.304138e-02  0.000000e+00
   endloop
 endfacet
 facet normal  9.659258e-01 -2.588190e-01  0.000000e+00
   outer loop
     vertex -1.300164e-01  5.156250e-02  0.000000e+00
     vertex -1.300164e-01  5.156250e-02 -7.500000e-01
     vertex -1.251466e-01  6.973684e-02 -7.500000e-01
   endloop
 endfacet
 facet normal  9.659258e-01 -2.588190e-01  0.000000e+00
   outer loop
     vertex -1.300164e-01  5.156250e-02  0.000000e+00
     vertex -1.251466e-01  6.973684e-02 -7.500000e-01
     vertex -1.251466e-01  6.973684e-02  0.000000e+00
   endloop
 endfacet
 facet normal  1.000000e+00 -0.000000e+00  0.000000e+00
   outer loop
     vertex -1.300164e-01 -5.468750e-02  0.000000e+00
     vertex -1.300164e-01  5.156250e-02 -7.500000e-01
     vertex -1.300164e-01  5.156250e-02  0.000000e+00
   endloop
 endfacet
 facet normal  1.000000e+00  0.000000e+00  0.000000e+00
   outer loop
     vertex -1.300164e-01 -5.468750e-02  0.000000e+00
     vertex -1.300164e-01 -5.468750e-02 -7.500000e-01
     vertex -1.300164e-01  5.156250e-02 -7.500000e-01
   endloop
 endfacet
 facet normal  0.000000e+00  0.000000e+00  1.000000e+00
   outer loop
     vertex -1.251466e-01 -7.286184e-02  0.000000e+00
     vertex -1.275681e-01 -7.425987e-02  0.000000e+00
     vertex -1.132401e-01 -8.858784e-02  0.000000e+00
   endloop
 endfacet
 facet normal  0.000000e+00  0.000000e+00  1.000000e+00
   outer loop
     vertex -1.251466e-01 -7.286184e-02  0.000000e+00
     vertex -1.132401e-01 -8.858784e-02  0.000000e+00
     vertex -1.118421e-01 -8.616638e-02  0.000000e+00
   endloop
 endfacet
 facet normal  0.000000e+00  0.000000e+00  1.000000e+00
   outer loop
     vertex -9.366776e-02 -9.103618e-02  0.000000e+00
     vertex -1.132401e-01 -8.858784e-02  0.000000e+00
     vertex -9.366776e-02 -9.383224e-02  0.000000e+00
   endloop
 endfacet
 facet normal  0.000000e+00  0.000000e+00  1.000000e+00
   outer loop
     vertex -9.366776e-02 -9.103618e-02  0.000000e+00
     vertex -1.118421e-01 -8.616638e-02  0.000000e+00
     vertex -1.132401e-01 -8.858784e-02  0.000000e+00
   endloop
 endfacet
 facet normal  0.000000e+00  0.000000e+00  1.000000e+00
   outer loop
     vertex -1.300164e-01 -5.468750e-02  0.000000e+00
     vertex -1.328125e-01 -5.468750e-02  0.000000e+00
     vertex -1.275681e-01 -7.425987e-02  0.000000e+00
   endloop
 endfacet
 facet normal  0.000000e+00  0.000000e+00  1.000000e+00
   outer loop
     vertex -1.300164e-01 -5.468750e-02  0.000000e+00
     vertex -1.275681e-01 -7.425987e-02  0.000000e+00
     vertex -1.251466e-01 -7.286184e-02  0.000000e+00
   endloop
 endfacet
 facet normal  0.000000e+00  0.000000e+00  1.000000e+00
   outer loop
     vertex -1.300164e-01  5.156250e-02  0.000000e+00
     vertex -1.328125e-01  5.156250e-02  0.000000e+00
     vertex -1.328125e-01 -5.468750e-02  0.000000e+00
   endloop
 endfacet
 facet normal  0.000000e+00  0.000000e+00  1.000000e+00
   outer loop
     vertex -1.300164e-01  5.156250e-02  0.000000e+00
     vertex -1.328125e-01 -5.468750e-02  0.000000e+00
     vertex -1.300164e-01 -5.468750e-02  0.000000e+00
   endloop
 endfacet
 facet normal  0.000000e+00  0.000000e+00  1.000000e+00
   outer loop
     vertex -1.251466e-01  6.973684e-02  0.000000e+00
     vertex -1.275681e-01  7.113487e-02  0.000000e+00
     vertex -1.328125e-01  5.156250e-02  0.000000e+00
   endloop
 endfacet
 facet normal  0.000000e+00  0.000000e+00  1.000000e+00
   outer loop
     vertex -1.251466e-01  6.973684e-02  0.000000e+00
     vertex -1.328125e-01  5.156250e-02  0.000000e+00
     vertex -1.300164e-01  5.156250e-02  0.000000e+00
   endloop
 endfacet
 facet normal  0.000000e+00  0.000000e+00  1.000000e+00
   outer loop
     vertex -1.132401e-01  8.546284e-02  0.000000e+00
     vertex -1.251466e-01  6.973684e-02  0.000000e+00
     vertex -1.118421e-01  8.304138e-02  0.000000e+00
   endloop
 endfacet
 facet normal  0.000000e+00  0.000000e+00  1.000000e+00
   outer loop
     vertex -1.132401e-01  8.546284e-02  0.000000e+00
     vertex -1.275681e-01  7.113487e-02  0.000000e+00
     vertex -1.251466e-01  6.973684e-02  0.000000e+00
   endloop
 endfacet
 facet normal  0.000000e+00  0.000000e+00  1.000000e+00
   outer loop
     vertex -9.366776e-02  9.070724e-02  0.000000e+00
     vertex -1.118421e-01  8.304138e-02  0.000000e+00
     vertex -9.366776e-02  8.791118e-02  0.000000e+00
   endloop
 endfacet
 facet normal  0.000000e+00  0.000000e+00  1.000000e+00
   outer loop
     vertex -9.366776e-02  9.070724e-02  0.000000e+00
     vertex -1.132401e-01  8.546284e-02  0.000000e+00
     vertex -1.118421e-01  8.304138e-02  0.000000e+00
   endloop
 endfacet
 facet normal  0.000000e+00  0.000000e+00  1.000000e+00
   outer loop
     vertex  9.366776e-02 -9.103618e-02  0.000000e+00
     vertex -9.366776e-02 -9.383224e-02  0.000000e+00
     vertex  9.366776e-02 -9.383224e-02  0.000000e+00
   endloop
 endfacet
 facet normal  0.000000e+00  0.000000e+00  1.000000e+00
   outer loop
     vertex  9.366776e-02 -9.103618e-02  0.000000e+00
     vertex -9.366776e-02 -9.103618e-02  0.000000e+00
     vertex -9.366776e-02 -9.383224e-02  0.000000e+00
   endloop
 endfacet
 facet normal  0.000000e+00  0.000000e+00  1.000000e+00
   outer loop
     vertex  1.118421e-01 -8.616638e-02  0.000000e+00
     vertex  9.366776e-02 -9.383224e-02  0.000000e+00
     vertex  1.132401e-01 -8.858784e-02  0.000000e+00
   endloop
 endfacet
 facet normal  0.000000e+00  0.000000e+00  1.000000e+00
   outer loop
     vertex  1.118421e-01 -8.616638e-02  0.000000e+00
     vertex  9.366776e-02 -9.103618e-02  0.000000e+00
     vertex  9.366776e-02 -9.383224e-02  0.000000e+00
   endloop
 endfacet
 facet normal  0.000000e+00  0.000000e+00  1.000000e+00
   outer loop
     vertex  1.275681e-01 -7.425987e-02  0.000000e+00
     vertex  1.251466e-01 -7.286184e-02  0.000000e+00
     vertex  1.118421e-01 -8.616638e-02  0.000000e+00
   endloop
 endfacet
 facet normal  0.000000e+00  0.000000e+00  1.000000e+00
   outer loop
     vertex  1.275681e-01 -7.425987e-02  0.000000e+00
     vertex  1.118421e-01 -8.616638e-02  0.000000e+00
     vertex  1.132401e-01 -8.858784e-02  0.000000e+00
   endloop
 endfacet
 facet normal  0.000000e+00  0.000000e+00  1.000000e+00
   outer loop
     vertex  1.328125e-01 -5.468750e-02  0.000000e+00
     vertex  1.300164e-01 -5.468750e-02  0.000000e+00
     vertex  1.251466e-01 -7.286184e-02  0.000000e+00
   endloop
 endfacet
 facet normal  0.000000e+00  0.000000e+00  1.000000e+00
   outer loop
     vertex  1.328125e-01 -5.468750e-02  0.000000e+00
     vertex  1.251466e-01 -7.286184e-02  0.000000e+00
     vertex  1.275681e-01 -7.425987e-02  0.000000e+00
   endloop
 endfacet
 facet normal  0.000000e+00  0.000000e+00  1.000000e+00
   outer loop
     vertex  1.328125e-01  5.156250e-02  0.000000e+00
     vertex  1.300164e-01  5.156250e-02  0.000000e+00
     vertex  1.300164e-01 -5.468750e-02  0.000000e+00
   endloop
 endfacet
 facet normal  0.000000e+00  0.000000e+00  1.000000e+00
   outer loop
     vertex  1.328125e-01  5.156250e-02  0.000000e+00
     vertex  1.300164e-01 -5.468750e-02  0.000000e+00
     vertex  1.328125e-01 -5.468750e-02  0.000000e+00
   endloop
 endfacet
 facet normal  0.000000e+00  0.000000e+00  1.000000e+00
   outer loop
     vertex  9.366776e-02  9.070724e-02  0.000000e+00
     vertex -9.366776e-02  8.791118e-02  0.000000e+00
     vertex  9.366776e-02  8.791118e-02  0.000000e+00
   endloop
 endfacet
 facet normal  0.000000e+00  0.000000e+00  1.000000e+00
   outer loop
     vertex  9.366776e-02  9.070724e-02  0.000000e+00
     vertex -9.366776e-02  9.070724e-02  0.000000e+00
     vertex -9.366776e-02  8.791118e-02  0.000000e+00
   endloop
 endfacet
 facet normal  0.000000e+00  0.000000e+00  1.000000e+00
   outer loop
     vertex  1.251466e-01  6.973684e-02  0.000000e+00
     vertex  1.300164e-01  5.156250e-02  0.000000e+00
     vertex  1.328125e-01  5.156250e-02  0.000000e+00
   endloop
 endfacet
 facet normal  0.000000e+00  0.000000e+00  1.000000e+00
   outer loop
     vertex  1.275681e-01  7.113487e-02  0.000000e+00
     vertex  1.251466e-01  6.973684e-02  0.000000e+00
     vertex  1.328125e-01  5.156250e-02  0.000000e+00
   endloop
 endfacet
 facet normal  0.000000e+00  0.000000e+00  1.000000e+00
   outer loop
     vertex  1.132401e-01  8.546284e-02  0.000000e+00
     vertex  1.118421e-01  8.304138e-02  0.000000e+00
     vertex  1.251466e-01  6.973684e-02  0.000000e+00
   endloop
 endfacet
 facet normal  0.000000e+00  0.000000e+00  1.000000e+00
   outer loop
     vertex  1.132401e-01  8.546284e-02  0.000000e+00
     vertex  9.366776e-02  8.791118e-02  0.000000e+00
     vertex  1.118421e-01  8.304138e-02  0.000000e+00
   endloop
 endfacet
 facet normal  0.000000e+00  0.000000e+00  1.000000e+00
   outer loop
     vertex  1.132401e-01  8.546284e-02  0.000000e+00
     vertex  9.366776e-02  9.070724e-02  0.000000e+00
     vertex  9.366776e-02  8.791118e-02  0.000000e+00
   endloop
 endfacet
 facet normal  0.000000e+00  0.000000e+00  1.000000e+00
   outer loop
     vertex  1.132401e-01  8.546284e-02  0.000000e+00
     vertex  1.251466e-01  6.973684e-02  0.000000e+00
     vertex  1.275681e-01  7.113487e-02  0.000000e+00
   endloop
 endfacet
 facet normal  0.000000e+00 -0.000000e+00 -1.000000e+00
   outer loop
     vertex -1.251466e-01 -7.286184e-02 -7.500000e-01
     vertex -1.132401e-01 -8.858784e-02 -7.500000e-01
     vertex -1.275681e-01 -7.425987e-02 -7.500000e-01
   endloop
 endfacet
 facet normal  0.000000e+00  0.000000e+00 -1.000000e+00
   outer loop
     vertex -1.251466e-01 -7.286184e-02 -7.500000e-01
     vertex -1.118421e-01 -8.616638e-02 -7.500000e-01
     vertex -1.132401e-01 -8.858784e-02 -7.500000e-01
   endloop
 endfacet
 facet normal -0.000000e+00 -0.000000e+00 -1.000000e+00
   outer loop
     vertex -9.366776e-02 -9.103618e-02 -7.500000e-01
     vertex -9.366776e-02 -9.383224e-02 -7.500000e-01
     vertex -1.132401e-01 -8.858784e-02 -7.500000e-01
   endloop
 endfacet
 facet normal  0.000000e+00  0.000000e+00 -1.000000e+00
   outer loop
     vertex -9.366776e-02 -9.103618e-02 -7.500000e-01
     vertex -1.132401e-01 -8.858784e-02 -7.500000e-01
     vertex -1.118421e-01 -8.616638e-02 -7.500000e-01
   endloop
 endfacet
 facet normal -0.000000e+00 -0.000000e+00 -1.000000e+00
   outer loop
     vertex -1.300164e-01 -5.468750e-02 -7.500000e-01
     vertex -1.275681e-01 -7.425987e-02 -7.500000e-01
     vertex -1.328125e-01 -5.468750e-02 -7.500000e-01
   endloop
 endfacet
 facet normal  0.000000e+00  0.000000e+00 -1.000000e+00
   outer loop
     vertex -1.300164e-01 -5.468750e-02 -7.500000e-01
     vertex -1.251466e-01 -7.286184e-02 -7.500000e-01
     vertex -1.275681e-01 -7.425987e-02 -7.500000e-01
   endloop
 endfacet
 facet normal -0.000000e+00  0.000000e+00 -1.000000e+00
   outer loop
     vertex -1.300164e-01  5.156250e-02 -7.500000e-01
     vertex -1.328125e-01 -5.468750e-02 -7.500000e-01
     vertex -1.328125e-01  5.156250e-02 -7.500000e-01
   endloop
 endfacet
 facet normal  0.000000e+00 -0.000000e+00 -1.000000e+00
   outer loop
     vertex -1.300164e-01  5.156250e-02 -7.500000e-01
     vertex -1.300164e-01 -5.468750e-02 -7.500000e-01
     vertex -1.328125e-01 -5.468750e-02 -7.500000e-01
   endloop
 endfacet
 facet normal -0.000000e+00  0.000000e+00 -1.000000e+00
   outer loop
     vertex -1.251466e-01  6.973684e-02 -7.500000e-01
     vertex -1.328125e-01  5.156250e-02 -7.500000e-01
     vertex -1.275681e-01  7.113487e-02 -7.500000e-01
   endloop
 endfacet
 facet normal  0.000000e+00  0.000000e+00 -1.000000e+00
   outer loop
     vertex -1.251466e-01  6.973684e-02 -7.500000e-01
     vertex -1.300164e-01  5.156250e-02 -7.500000e-01
     vertex -1.328125e-01  5.156250e-02 -7.500000e-01
   endloop
 endfacet
 facet normal  0.000000e+00 -0.000000e+00 -1.000000e+00
   outer loop
     vertex -1.132401e-01  8.546284e-02 -7.500000e-01
     vertex -1.118421e-01  8.304138e-02 -7.500000e-01
     vertex -1.251466e-01  6.973684e-02 -7.500000e-01
   endloop
 endfacet
 facet normal  0.000000e+00  0.000000e+00 -1.000000e+00
   outer loop
     vertex -1.132401e-01  8.546284e-02 -7.500000e-01
     vertex -1.251466e-01  6.973684e-02 -7.500000e-01
     vertex -1.275681e-01  7.113487e-02 -7.500000e-01
   endloop
 endfacet
 facet normal  0.000000e+00 -0.000000e+00 -1.000000e+00
   outer loop
     vertex -9.366776e-02  9.070724e-02 -7.500000e-01
     vertex -9.366776e-02  8.791118e-02 -7.500000e-01
     vertex -1.118421e-01  8.304138e-02 -7.500000e-01
   endloop
 endfacet
 facet normal  0.000000e+00  0.000000e+00 -1.000000e+00
   outer loop
     vertex -9.366776e-02  9.070724e-02 -7.500000e-01
     vertex -1.118421e-01  8.304138e-02 -7.500000e-01
     vertex -1.132401e-01  8.546284e-02 -7.500000e-01
   endloop
 endfacet
 facet normal  0.000000e+00 -0.000000e+00 -1.000000e+00
   outer loop
     vertex  9.366776e-02 -9.103618e-02 -7.500000e-01
     vertex  9.366776e-02 -9.383224e-02 -7.500000e-01
     vertex -9.366776e-02 -9.383224e-02 -7.500000e-01
   endloop
 endfacet
 facet normal -0.000000e+00  0.000000e+00 -1.000000e+00
   outer loop
     vertex  9.366776e-02 -9.103618e-02 -7.500000e-01
     vertex -9.366776e-02 -9.383224e-02 -7.500000e-01
     vertex -9.366776e-02 -9.103618e-02 -7.500000e-01
   endloop
 endfacet
 facet normal  0.000000e+00 -0.000000e+00 -1.000000e+00
   outer loop
     vertex  1.118421e-01 -8.616638e-02 -7.500000e-01
     vertex  1.132401e-01 -8.858784e-02 -7.500000e-01
     vertex  9.366776e-02 -9.383224e-02 -7.500000e-01
   endloop
 endfacet
 facet normal  0.000000e+00  0.000000e+00 -1.000000e+00
   outer loop
     vertex  1.118421e-01 -8.616638e-02 -7.500000e-01
     vertex  9.366776e-02 -9.383224e-02 -7.500000e-01
     vertex  9.366776e-02 -9.103618e-02 -7.500000e-01
   endloop
 endfacet
 facet normal -0.000000e+00  0.000000e+00 -1.000000e+00
   outer loop
     vertex  1.275681e-01 -7.425987e-02 -7.500000e-01
     vertex  1.118421e-01 -8.616638e-02 -7.500000e-01
     vertex  1.251466e-01 -7.286184e-02 -7.500000e-01
   endloop
 endfacet
 facet normal  0.000000e+00  0.000000e+00 -1.000000e+00
   outer loop
     vertex  1.275681e-01 -7.425987e-02 -7.500000e-01
     vertex  1.132401e-01 -8.858784e-02 -7.500000e-01
     vertex  1.118421e-01 -8.616638e-02 -7.500000e-01
   endloop
 endfacet
 facet normal -0.000000e+00  0.000000e+00 -1.000000e+00
   outer loop
     vertex  1.328125e-01 -5.468750e-02 -7.500000e-01
     vertex  1.251466e-01 -7.286184e-02 -7.500000e-01
     vertex  1.300164e-01 -5.468750e-02 -7.500000e-01
   endloop
 endfacet
 facet normal  0.000000e+00  0.000000e+00 -1.000000e+00
   outer loop
     vertex  1.328125e-01 -5.468750e-02 -7.500000e-01
     vertex  1.275681e-01 -7.425987e-02 -7.500000e-01
     vertex  1.251466e-01 -7.286184e-02 -7.500000e-01
   endloop
 endfacet
 facet normal -0.000000e+00  0.000000e+00 -1.000000e+00
   outer loop
     vertex  1.328125e-01  5.156250e-02 -7.500000e-01
     vertex  1.300164e-01 -5.468750e-02 -7.500000e-01
     vertex  1.300164e-01  5.156250e-02 -7.500000e-01
   endloop
 endfacet
 facet normal  0.000000e+00 -0.000000e+00 -1.000000e+00
   outer loop
     vertex  1.328125e-01  5.156250e-02 -7.500000e-01
     vertex  1.328125e-01 -5.468750e-02 -7.500000e-01
     vertex  1.300164e-01 -5.468750e-02 -7.500000e-01
   endloop
 endfacet
 facet normal  0.000000e+00 -0.000000e+00 -1.000000e+00
   outer loop
     vertex  9.366776e-02  9.070724e-02 -7.500000e-01
     vertex  9.366776e-02  8.791118e-02 -7.500000e-01
     vertex -9.366776e-02  8.791118e-02 -7.500000e-01
   endloop
 endfacet
 facet normal -0.000000e+00  0.000000e+00 -1.000000e+00
   outer loop
     vertex  9.366776e-02  9.070724e-02 -7.500000e-01
     vertex -9.366776e-02  8.791118e-02 -7.500000e-01
     vertex -9.366776e-02  9.070724e-02 -7.500000e-01
   endloop
 endfacet
 facet normal  0.000000e+00  0.000000e+00 -1.000000e+00
   outer loop
     vertex  1.251466e-01  6.973684e-02 -7.500000e-01
     vertex  1.328125e-01  5.156250e-02 -7.500000e-01
     vertex  1.300164e-01  5.156250e-02 -7.500000e-01
   endloop
 endfacet
 facet normal  0.000000e+00 -0.000000e+00 -1.000000e+00
   outer loop
     vertex  1.275681e-01  7.113487e-02 -7.500000e-01
     vertex  1.328125e-01  5.156250e-02 -7.500000e-01
     vertex  1.251466e-01  6.973684e-02 -7.500000e-01
   endloop
 endfacet
 facet normal  0.000000e+00 -0.000000e+00 -1.000000e+00
   outer loop
     vertex  1.132401e-01  8.546284e-02 -7.500000e-01
     vertex  1.251466e-01  6.973684e-02 -7.500000e-01
     vertex  1.118421e-01  8.304138e-02 -7.500000e-01
   endloop
 endfacet
 facet normal -0.000000e+00  0.000000e+00 -1.000000e+00
   outer loop
     vertex  1.132401e-01  8.546284e-02 -7.500000e-01
     vertex  1.118421e-01  8.304138e-02 -7.500000e-01
     vertex  9.366776e-02  8.791118e-02 -7.500000e-01
   endloop
 endfacet
 facet normal  0.000000e+00  0.000000e+00 -1.000000e+00
   outer loop
     vertex  1.132401e-01  8.546284e-02 -7.500000e-01
     vertex  9.366776e-02  8.791118e-02 -7.500000e-01
     vertex  9.366776e-02  9.070724e-02 -7.500000e-01
   endloop
 endfacet
 facet normal  0.000000e+00  0.000000e+00 -1.000000e+00
   outer loop
     vertex  1.132401e-01  8.546284e-02 -7.500000e-01
     vertex  1.275681e-01  7.113487e-02 -7.500000e-01
     vertex  1.251466e-01  6.973684e-02 -7.500000e-01
   endloop
 endfacet
endsolid
