solid 
 facet normal  0.000000e+00 -1.000000e+00  0.000000e+00
   outer loop
     vertex  9.375000e-02 -9.375000e-02  0.000000e+00
     vertex -9.375000e-02 -9.375000e-02  7.500000e-01
     vertex -9.375000e-02 -9.375000e-02  0.000000e+00
   endloop
 endfacet
 facet normal  0.000000e+00 -1.000000e+00  0.000000e+00
   outer loop
     vertex  9.375000e-02 -9.375000e-02  0.000000e+00
     vertex  9.375000e-02 -9.375000e-02  7.500000e-01
     vertex -9.375000e-02 -9.375000e-02  7.500000e-01
   endloop
 endfacet
 facet normal  1.000000e+00  0.000000e+00  0.000000e+00
   outer loop
     vertex  9.375000e-02  9.375000e-02  0.000000e+00
     vertex  9.375000e-02 -9.375000e-02  7.500000e-01
     vertex  9.375000e-02 -9.375000e-02  0.000000e+00
   endloop
 endfacet
 facet normal  1.000000e+00  0.000000e+00 -0.000000e+00
   outer loop
     vertex  9.375000e-02  9.375000e-02  0.000000e+00
     vertex  9.375000e-02  9.375000e-02  7.500000e-01
     vertex  9.375000e-02 -9.375000e-02  7.500000e-01
   endloop
 endfacet
 facet normal  0.000000e+00  1.000000e+00  0.000000e+00
   outer loop
     vertex -9.375000e-02  9.375000e-02  0.000000e+00
     vertex  9.375000e-02  9.375000e-02  7.500000e-01
     vertex  9.375000e-02  9.375000e-02  0.000000e+00
   endloop
 endfacet
 facet normal  0.000000e+00  1.000000e+00  0.000000e+00
   outer loop
     vertex -9.375000e-02  9.375000e-02  0.000000e+00
     vertex -9.375000e-02  9.375000e-02  7.500000e-01
     vertex  9.375000e-02  9.375000e-02  7.500000e-01
   endloop
 endfacet
 facet normal -1.000000e+00  0.000000e+00  0.000000e+00
   outer loop
     vertex -9.375000e-02 -9.375000e-02  0.000000e+00
     vertex -9.375000e-02  9.375000e-02  7.500000e-01
     vertex -9.375000e-02  9.375000e-02  0.000000e+00
   endloop
 endfacet
 facet normal -1.000000e+00  0.000000e+00  0.000000e+00
   outer loop
     vertex -9.375000e-02 -9.375000e-02  0.000000e+00
     vertex -9.375000e-02 -9.375000e-02  7.500000e-01
     vertex -9.375000e-02  9.375000e-02  7.500000e-01
   endloop
 endfacet
 facet normal  0.000000e+00 -0.000000e+00 -1.000000e+00
   outer loop
     vertex  9.375000e-02  9.375000e-02  0.000000e+00
     vertex  9.375000e-02 -9.375000e-02  0.000000e+00
     vertex -9.375000e-02 -9.375000e-02  0.000000e+00
   endloop
 endfacet
 facet normal -0.000000e+00  0.000000e+00 -1.000000e+00
   outer loop
     vertex  9.375000e-02  9.375000e-02  0.000000e+00
     vertex -9.375000e-02 -9.375000e-02  0.000000e+00
     vertex -9.375000e-02  9.375000e-02  0.000000e+00
   endloop
 endfacet
 facet normal  0.000000e+00  0.000000e+00  1.000000e+00
   outer loop
     vertex  9.375000e-02  9.375000e-02  7.500000e-01
     vertex -9.375000e-02 -9.375000e-02  7.500000e-01
     vertex  9.375000e-02 -9.375000e-02  7.500000e-01
   endloop
 endfacet
 facet normal  0.000000e+00  0.000000e+00  1.000000e+00
   outer loop
     vertex  9.375000e-02  9.375000e-02  7.500000e-01
     vertex -9.375000e-02  9.375000e-02  7.500000e-01
     vertex -9.375000e-02 -9.375000e-02  7.500000e-01
   endloop
 endfacet
endsolid
