solid 
 facet normal -6.123234e-17 -6.123234e-17 -1.000000e+00
   outer loop
     vertex  2.343750e-01  1.435133e-17 -1.435133e-17
     vertex  4.592425e-17 -7.500000e-01  4.592425e-17
     vertex  0.000000e+00  0.000000e+00  0.000000e+00
   endloop
 endfacet
 facet normal -6.123234e-17 -6.123234e-17 -1.000000e+00
   outer loop
     vertex  2.343750e-01  1.435133e-17 -1.435133e-17
     vertex  2.343750e-01 -7.500000e-01  3.157293e-17
     vertex  4.592425e-17 -7.500000e-01  4.592425e-17
   endloop
 endfacet
 facet normal  1.000000e+00  0.000000e+00  0.000000e+00
   outer loop
     vertex  2.343750e-01  1.510666e-17  1.233553e-02
     vertex  2.343750e-01 -7.500000e-01  3.157293e-17
     vertex  2.343750e-01  1.435133e-17 -1.435133e-17
   endloop
 endfacet
 facet normal  1.000000e+00  0.000000e+00  0.000000e+00
   outer loop
     vertex  2.343750e-01  1.510666e-17  1.233553e-02
     vertex  2.343750e-01 -7.500000e-01  1.233553e-02
     vertex  2.343750e-01 -7.500000e-01  3.157293e-17
   endloop
 endfacet
 facet normal -0.000000e+00  0.000000e+00  1.000000e+00
   outer loop
     vertex  7.553331e-19  7.553331e-19  1.233553e-02
     vertex  2.343750e-01 -7.500000e-01  1.233553e-02
     vertex  2.343750e-01  1.510666e-17  1.233553e-02
   endloop
 endfacet
 facet normal  0.000000e+00  0.000000e+00  1.000000e+00
   outer loop
     vertex  7.553331e-19  7.553331e-19  1.233553e-02
     vertex  4.667959e-17 -7.500000e-01  1.233553e-02
     vertex  2.343750e-01 -7.500000e-01  1.233553e-02
   endloop
 endfacet
 facet normal -1.000000e+00 -6.123234e-17  6.123234e-17
   outer loop
     vertex  0.000000e+00  0.000000e+00  0.000000e+00
     vertex  4.667959e-17 -7.500000e-01  1.233553e-02
     vertex  7.553331e-19  7.553331e-19  1.233553e-02
   endloop
 endfacet
 facet normal -1.000000e+00 -6.123234e-17  6.123234e-17
   outer loop
     vertex  0.000000e+00  0.000000e+00  0.000000e+00
     vertex  4.592425e-17 -7.500000e-01  4.592425e-17
     vertex  4.667959e-17 -7.500000e-01  1.233553e-02
   endloop
 endfacet
 facet normal -6.123234e-17  1.000000e+00 -6.123234e-17
   outer loop
     vertex  2.343750e-01  1.510666e-17  1.233553e-02
     vertex  2.343750e-01  1.435133e-17 -1.435133e-17
     vertex  0.000000e+00  0.000000e+00  0.000000e+00
   endloop
 endfacet
 facet normal -6.123234e-17  1.000000e+00 -6.123234e-17
   outer loop
     vertex  2.343750e-01  1.510666e-17  1.233553e-02
     vertex  0.000000e+00  0.000000e+00  0.000000e+00
     vertex  7.553331e-19  7.553331e-19  1.233553e-02
   endloop
 endfacet
 facet normal  0.000000e+00 -1.000000e+00 -0.000000e+00
   outer loop
     vertex  2.343750e-01 -7.500000e-01  1.233553e-02
     vertex  4.592425e-17 -7.500000e-01  4.592425e-17
     vertex  2.343750e-01 -7.500000e-01  3.157293e-17
   endloop
 endfacet
 facet normal -0.000000e+00 -1.000000e+00  0.000000e+00
   outer loop
     vertex  2.343750e-01 -7.500000e-01  1.233553e-02
     vertex  4.667959e-17 -7.500000e-01  1.233553e-02
     vertex  4.592425e-17 -7.500000e-01  4.592425e-17
   endloop
 endfacet
endsolid
