solid 
 facet normal -3.867933e-01 -9.221664e-01  0.000000e+00
   outer loop
     vertex -6.793586e-01 -4.615132e-01  0.000000e+00
     vertex -6.793586e-01 -4.615132e-01  5.468750e-02
     vertex -7.245045e-01 -4.425772e-01  5.468750e-02
   endloop
 endfacet
 facet normal -3.867933e-01 -9.221664e-01  0.000000e+00
   outer loop
     vertex -7.245045e-01 -4.425772e-01  0.000000e+00
     vertex -6.793586e-01 -4.615132e-01  0.000000e+00
     vertex -7.245045e-01 -4.425772e-01  5.468750e-02
   endloop
 endfacet
 facet normal -8.682431e-01 -4.961389e-01  0.000000e+00
   outer loop
     vertex -7.487936e-01 -4.000711e-01  0.000000e+00
     vertex -7.245045e-01 -4.425772e-01  5.468750e-02
     vertex -7.487936e-01 -4.000711e-01  5.468750e-02
   endloop
 endfacet
 facet normal -8.682431e-01 -4.961389e-01  0.000000e+00
   outer loop
     vertex -7.487936e-01 -4.000711e-01  0.000000e+00
     vertex -7.245045e-01 -4.425772e-01  0.000000e+00
     vertex -7.245045e-01 -4.425772e-01  5.468750e-02
   endloop
 endfacet
 facet normal -9.908538e-01  1.349395e-01  0.000000e+00
   outer loop
     vertex -7.421875e-01 -3.515625e-01  0.000000e+00
     vertex -7.487936e-01 -4.000711e-01  5.468750e-02
     vertex -7.421875e-01 -3.515625e-01  5.468750e-02
   endloop
 endfacet
 facet normal -9.908538e-01  1.349395e-01  0.000000e+00
   outer loop
     vertex -7.421875e-01 -3.515625e-01  0.000000e+00
     vertex -7.487936e-01 -4.000711e-01  0.000000e+00
     vertex -7.487936e-01 -4.000711e-01  5.468750e-02
   endloop
 endfacet
 facet normal -4.920573e-01  8.705628e-01  0.000000e+00
   outer loop
     vertex -7.421875e-01 -3.515625e-01  0.000000e+00
     vertex -1.965461e-02  5.682566e-02  5.468750e-02
     vertex -1.965461e-02  5.682566e-02  0.000000e+00
   endloop
 endfacet
 facet normal -4.920573e-01  8.705628e-01  0.000000e+00
   outer loop
     vertex -7.421875e-01 -3.515625e-01  0.000000e+00
     vertex -7.421875e-01 -3.515625e-01  5.468750e-02
     vertex -1.965461e-02  5.682566e-02  5.468750e-02
   endloop
 endfacet
 facet normal  4.803146e-01 -8.770963e-01  0.000000e+00
   outer loop
     vertex -1.965461e-02 -1.002467e-01  0.000000e+00
     vertex -6.793586e-01 -4.615132e-01  5.468750e-02
     vertex -6.793586e-01 -4.615132e-01  0.000000e+00
   endloop
 endfacet
 facet normal  4.803146e-01 -8.770963e-01  0.000000e+00
   outer loop
     vertex -1.965461e-02 -1.002467e-01  0.000000e+00
     vertex -1.965461e-02 -1.002467e-01  5.468750e-02
     vertex -6.793586e-01 -4.615132e-01  5.468750e-02
   endloop
 endfacet
 facet normal  0.000000e+00 -0.000000e+00 -1.000000e+00
   outer loop
     vertex -7.421875e-01 -3.515625e-01  0.000000e+00
     vertex -7.245045e-01 -4.425772e-01  0.000000e+00
     vertex -7.487936e-01 -4.000711e-01  0.000000e+00
   endloop
 endfacet
 facet normal  0.000000e+00  0.000000e+00 -1.000000e+00
   outer loop
     vertex -7.421875e-01 -3.515625e-01  0.000000e+00
     vertex -6.793586e-01 -4.615132e-01  0.000000e+00
     vertex -7.245045e-01 -4.425772e-01  0.000000e+00
   endloop
 endfacet
 facet normal  0.000000e+00  0.000000e+00 -1.000000e+00
   outer loop
     vertex -1.965461e-02 -1.002467e-01  0.000000e+00
     vertex -6.793586e-01 -4.615132e-01  0.000000e+00
     vertex -7.421875e-01 -3.515625e-01  0.000000e+00
   endloop
 endfacet
 facet normal  0.000000e+00  0.000000e+00 -1.000000e+00
   outer loop
     vertex -3.947368e-03 -3.741776e-02  0.000000e+00
     vertex -4.281674e-03 -9.460390e-02  0.000000e+00
     vertex -1.965461e-02 -1.002467e-01  0.000000e+00
   endloop
 endfacet
 facet normal  0.000000e+00 -0.000000e+00 -1.000000e+00
   outer loop
     vertex -3.947368e-03 -3.741776e-02  0.000000e+00
     vertex  1.209417e-02 -9.460390e-02  0.000000e+00
     vertex -4.281674e-03 -9.460390e-02  0.000000e+00
   endloop
 endfacet
 facet normal  0.000000e+00  0.000000e+00 -1.000000e+00
   outer loop
     vertex -3.947368e-03 -3.741776e-02  0.000000e+00
     vertex  2.746711e-02 -1.002467e-01  0.000000e+00
     vertex  1.209417e-02 -9.460390e-02  0.000000e+00
   endloop
 endfacet
 facet normal  0.000000e+00 -0.000000e+00 -1.000000e+00
   outer loop
     vertex -3.536184e-02 -6.003289e-03  0.000000e+00
     vertex -1.965461e-02 -1.002467e-01  0.000000e+00
     vertex -7.421875e-01 -3.515625e-01  0.000000e+00
   endloop
 endfacet
 facet normal  0.000000e+00  0.000000e+00 -1.000000e+00
   outer loop
     vertex -3.536184e-02 -6.003289e-03  0.000000e+00
     vertex -3.947368e-03 -3.741776e-02  0.000000e+00
     vertex -1.965461e-02 -1.002467e-01  0.000000e+00
   endloop
 endfacet
 facet normal  0.000000e+00 -0.000000e+00 -1.000000e+00
   outer loop
     vertex  2.746711e-02 -6.003289e-03  0.000000e+00
     vertex  2.746711e-02 -1.002467e-01  0.000000e+00
     vertex -3.947368e-03 -3.741776e-02  0.000000e+00
   endloop
 endfacet
 facet normal  0.000000e+00 -0.000000e+00 -1.000000e+00
   outer loop
     vertex -1.965461e-02  5.682566e-02  0.000000e+00
     vertex -3.947368e-03  2.541118e-02  0.000000e+00
     vertex -3.536184e-02 -6.003289e-03  0.000000e+00
   endloop
 endfacet
 facet normal  0.000000e+00  0.000000e+00 -1.000000e+00
   outer loop
     vertex -1.965461e-02  5.682566e-02  0.000000e+00
     vertex -3.536184e-02 -6.003289e-03  0.000000e+00
     vertex -7.421875e-01 -3.515625e-01  0.000000e+00
   endloop
 endfacet
 facet normal  0.000000e+00 -0.000000e+00 -1.000000e+00
   outer loop
     vertex -4.281674e-03  6.246847e-02  0.000000e+00
     vertex -3.947368e-03  2.541118e-02  0.000000e+00
     vertex -1.965461e-02  5.682566e-02  0.000000e+00
   endloop
 endfacet
 facet normal -0.000000e+00  0.000000e+00 -1.000000e+00
   outer loop
     vertex  1.209417e-02  6.246847e-02  0.000000e+00
     vertex -3.947368e-03  2.541118e-02  0.000000e+00
     vertex -4.281674e-03  6.246847e-02  0.000000e+00
   endloop
 endfacet
 facet normal  0.000000e+00 -0.000000e+00 -1.000000e+00
   outer loop
     vertex  2.746711e-02  5.682566e-02  0.000000e+00
     vertex  2.746711e-02 -6.003289e-03  0.000000e+00
     vertex -3.947368e-03  2.541118e-02  0.000000e+00
   endloop
 endfacet
 facet normal -0.000000e+00  0.000000e+00 -1.000000e+00
   outer loop
     vertex  2.746711e-02  5.682566e-02  0.000000e+00
     vertex -3.947368e-03  2.541118e-02  0.000000e+00
     vertex  1.209417e-02  6.246847e-02  0.000000e+00
   endloop
 endfacet
 facet normal  0.000000e+00  0.000000e+00 -1.000000e+00
   outer loop
     vertex  7.408989e-01 -4.000711e-01  0.000000e+00
     vertex  7.166097e-01 -4.425772e-01  0.000000e+00
     vertex  6.714638e-01 -4.615132e-01  0.000000e+00
   endloop
 endfacet
 facet normal -0.000000e+00  0.000000e+00 -1.000000e+00
   outer loop
     vertex  7.342928e-01 -3.515625e-01  0.000000e+00
     vertex  6.714638e-01 -4.615132e-01  0.000000e+00
     vertex  2.746711e-02 -1.002467e-01  0.000000e+00
   endloop
 endfacet
 facet normal  0.000000e+00  0.000000e+00 -1.000000e+00
   outer loop
     vertex  7.342928e-01 -3.515625e-01  0.000000e+00
     vertex  2.746711e-02 -6.003289e-03  0.000000e+00
     vertex  2.746711e-02  5.682566e-02  0.000000e+00
   endloop
 endfacet
 facet normal  0.000000e+00  0.000000e+00 -1.000000e+00
   outer loop
     vertex  7.342928e-01 -3.515625e-01  0.000000e+00
     vertex  2.746711e-02 -1.002467e-01  0.000000e+00
     vertex  2.746711e-02 -6.003289e-03  0.000000e+00
   endloop
 endfacet
 facet normal  0.000000e+00 -0.000000e+00 -1.000000e+00
   outer loop
     vertex  7.342928e-01 -3.515625e-01  0.000000e+00
     vertex  7.408989e-01 -4.000711e-01  0.000000e+00
     vertex  6.714638e-01 -4.615132e-01  0.000000e+00
   endloop
 endfacet
 facet normal  0.000000e+00  0.000000e+00  1.000000e+00
   outer loop
     vertex -7.198191e-01 -3.828125e-01  5.468750e-02
     vertex -7.487936e-01 -4.000711e-01  5.468750e-02
     vertex -7.245045e-01 -4.425772e-01  5.468750e-02
   endloop
 endfacet
 facet normal  0.000000e+00  0.000000e+00  1.000000e+00
   outer loop
     vertex -6.685033e-01 -4.341283e-01  5.468750e-02
     vertex -7.245045e-01 -4.425772e-01  5.468750e-02
     vertex -6.793586e-01 -4.615132e-01  5.468750e-02
   endloop
 endfacet
 facet normal  0.000000e+00  0.000000e+00  1.000000e+00
   outer loop
     vertex -6.685033e-01 -4.341283e-01  5.468750e-02
     vertex -7.198191e-01 -3.828125e-01  5.468750e-02
     vertex -7.245045e-01 -4.425772e-01  5.468750e-02
   endloop
 endfacet
 facet normal  0.000000e+00  0.000000e+00  1.000000e+00
   outer loop
     vertex -7.421875e-01 -3.515625e-01  5.468750e-02
     vertex -7.487936e-01 -4.000711e-01  5.468750e-02
     vertex -7.198191e-01 -3.828125e-01  5.468750e-02
   endloop
 endfacet
 facet normal  0.000000e+00  0.000000e+00  1.000000e+00
   outer loop
     vertex -6.685033e-01 -3.314967e-01  5.468750e-02
     vertex -7.421875e-01 -3.515625e-01  5.468750e-02
     vertex -7.198191e-01 -3.828125e-01  5.468750e-02
   endloop
 endfacet
 facet normal  0.000000e+00  0.000000e+00  1.000000e+00
   outer loop
     vertex -6.171875e-01 -3.828125e-01  5.468750e-02
     vertex -6.685033e-01 -4.341283e-01  5.468750e-02
     vertex -6.793586e-01 -4.615132e-01  5.468750e-02
   endloop
 endfacet
 facet normal  0.000000e+00  0.000000e+00  1.000000e+00
   outer loop
     vertex -3.536184e-02 -6.003289e-03  5.468750e-02
     vertex -6.685033e-01 -3.314967e-01  5.468750e-02
     vertex -6.171875e-01 -3.828125e-01  5.468750e-02
   endloop
 endfacet
 facet normal  0.000000e+00  0.000000e+00  1.000000e+00
   outer loop
     vertex -3.536184e-02 -6.003289e-03  5.468750e-02
     vertex -6.171875e-01 -3.828125e-01  5.468750e-02
     vertex -1.965461e-02 -1.002467e-01  5.468750e-02
   endloop
 endfacet
 facet normal  0.000000e+00  0.000000e+00  1.000000e+00
   outer loop
     vertex -3.947368e-03 -3.741776e-02  5.468750e-02
     vertex -1.965461e-02 -1.002467e-01  5.468750e-02
     vertex -4.281674e-03 -9.460390e-02  5.468750e-02
   endloop
 endfacet
 facet normal  0.000000e+00  0.000000e+00  1.000000e+00
   outer loop
     vertex -3.947368e-03 -3.741776e-02  5.468750e-02
     vertex -4.281674e-03 -9.460390e-02  5.468750e-02
     vertex  1.209417e-02 -9.460390e-02  5.468750e-02
   endloop
 endfacet
 facet normal  0.000000e+00  0.000000e+00  1.000000e+00
   outer loop
     vertex -3.947368e-03 -3.741776e-02  5.468750e-02
     vertex  1.209417e-02 -9.460390e-02  5.468750e-02
     vertex  2.746711e-02 -1.002467e-01  5.468750e-02
   endloop
 endfacet
 facet normal  0.000000e+00  0.000000e+00  1.000000e+00
   outer loop
     vertex -3.947368e-03 -3.741776e-02  5.468750e-02
     vertex -3.536184e-02 -6.003289e-03  5.468750e-02
     vertex -1.965461e-02 -1.002467e-01  5.468750e-02
   endloop
 endfacet
 facet normal  0.000000e+00  0.000000e+00  1.000000e+00
   outer loop
     vertex  2.746711e-02 -6.003289e-03  5.468750e-02
     vertex -3.947368e-03 -3.741776e-02  5.468750e-02
     vertex  2.746711e-02 -1.002467e-01  5.468750e-02
   endloop
 endfacet
 facet normal  0.000000e+00  0.000000e+00  1.000000e+00
   outer loop
     vertex -1.965461e-02  5.682566e-02  5.468750e-02
     vertex -3.536184e-02 -6.003289e-03  5.468750e-02
     vertex -3.947368e-03  2.541118e-02  5.468750e-02
   endloop
 endfacet
 facet normal  0.000000e+00  0.000000e+00  1.000000e+00
   outer loop
     vertex -1.965461e-02  5.682566e-02  5.468750e-02
     vertex -6.685033e-01 -3.314967e-01  5.468750e-02
     vertex -3.536184e-02 -6.003289e-03  5.468750e-02
   endloop
 endfacet
 facet normal  0.000000e+00  0.000000e+00  1.000000e+00
   outer loop
     vertex -4.281674e-03  6.246847e-02  5.468750e-02
     vertex -1.965461e-02  5.682566e-02  5.468750e-02
     vertex -3.947368e-03  2.541118e-02  5.468750e-02
   endloop
 endfacet
 facet normal  0.000000e+00  0.000000e+00  1.000000e+00
   outer loop
     vertex  1.209417e-02  6.246847e-02  5.468750e-02
     vertex -4.281674e-03  6.246847e-02  5.468750e-02
     vertex -3.947368e-03  2.541118e-02  5.468750e-02
   endloop
 endfacet
 facet normal  0.000000e+00  0.000000e+00  1.000000e+00
   outer loop
     vertex  2.746711e-02  5.682566e-02  5.468750e-02
     vertex -3.947368e-03  2.541118e-02  5.468750e-02
     vertex  2.746711e-02 -6.003289e-03  5.468750e-02
   endloop
 endfacet
 facet normal  0.000000e+00  0.000000e+00  1.000000e+00
   outer loop
     vertex  2.746711e-02  5.682566e-02  5.468750e-02
     vertex  1.209417e-02  6.246847e-02  5.468750e-02
     vertex -3.947368e-03  2.541118e-02  5.468750e-02
   endloop
 endfacet
 facet normal  0.000000e+00  0.000000e+00  1.000000e+00
   outer loop
     vertex  6.171875e-01 -3.828125e-01  5.468750e-02
     vertex  2.746711e-02 -1.002467e-01  5.468750e-02
     vertex  6.714638e-01 -4.615132e-01  5.468750e-02
   endloop
 endfacet
 facet normal  0.000000e+00  0.000000e+00  1.000000e+00
   outer loop
     vertex  6.685033e-01 -4.341283e-01  5.468750e-02
     vertex  6.171875e-01 -3.828125e-01  5.468750e-02
     vertex  6.714638e-01 -4.615132e-01  5.468750e-02
   endloop
 endfacet
 facet normal  0.000000e+00  0.000000e+00  1.000000e+00
   outer loop
     vertex  7.166097e-01 -4.425772e-01  5.468750e-02
     vertex  6.685033e-01 -4.341283e-01  5.468750e-02
     vertex  6.714638e-01 -4.615132e-01  5.468750e-02
   endloop
 endfacet
 facet normal  0.000000e+00  0.000000e+00  1.000000e+00
   outer loop
     vertex  7.198191e-01 -3.828125e-01  5.468750e-02
     vertex  6.685033e-01 -4.341283e-01  5.468750e-02
     vertex  7.166097e-01 -4.425772e-01  5.468750e-02
   endloop
 endfacet
 facet normal  0.000000e+00  0.000000e+00  1.000000e+00
   outer loop
     vertex  6.685033e-01 -3.314967e-01  5.468750e-02
     vertex  2.746711e-02  5.682566e-02  5.468750e-02
     vertex  2.746711e-02 -6.003289e-03  5.468750e-02
   endloop
 endfacet
 facet normal  0.000000e+00  0.000000e+00  1.000000e+00
   outer loop
     vertex  6.685033e-01 -3.314967e-01  5.468750e-02
     vertex  2.746711e-02 -6.003289e-03  5.468750e-02
     vertex  2.746711e-02 -1.002467e-01  5.468750e-02
   endloop
 endfacet
 facet normal  0.000000e+00  0.000000e+00  1.000000e+00
   outer loop
     vertex  6.685033e-01 -3.314967e-01  5.468750e-02
     vertex  2.746711e-02 -1.002467e-01  5.468750e-02
     vertex  6.171875e-01 -3.828125e-01  5.468750e-02
   endloop
 endfacet
 facet normal  0.000000e+00  0.000000e+00  1.000000e+00
   outer loop
     vertex  7.408989e-01 -4.000711e-01  5.468750e-02
     vertex  7.198191e-01 -3.828125e-01  5.468750e-02
     vertex  7.166097e-01 -4.425772e-01  5.468750e-02
   endloop
 endfacet
 facet normal  0.000000e+00  0.000000e+00  1.000000e+00
   outer loop
     vertex  7.342928e-01 -3.515625e-01  5.468750e-02
     vertex  6.685033e-01 -3.314967e-01  5.468750e-02
     vertex  7.198191e-01 -3.828125e-01  5.468750e-02
   endloop
 endfacet
 facet normal  0.000000e+00  0.000000e+00  1.000000e+00
   outer loop
     vertex  7.342928e-01 -3.515625e-01  5.468750e-02
     vertex  7.198191e-01 -3.828125e-01  5.468750e-02
     vertex  7.408989e-01 -4.000711e-01  5.468750e-02
   endloop
 endfacet
 facet normal  0.000000e+00  0.000000e+00  1.000000e+00
   outer loop
     vertex -6.793586e-01 -4.615132e-01  5.468750e-02
     vertex -1.965461e-02 -1.002467e-01  5.468750e-02
     vertex -6.171875e-01 -3.828125e-01  5.468750e-02
   endloop
 endfacet
 facet normal  0.000000e+00  0.000000e+00  1.000000e+00
   outer loop
     vertex  7.342928e-01 -3.515625e-01  5.468750e-02
     vertex  2.746711e-02  5.682566e-02  5.468750e-02
     vertex  6.685033e-01 -3.314967e-01  5.468750e-02
   endloop
 endfacet
 facet normal  0.000000e+00  0.000000e+00  1.000000e+00
   outer loop
     vertex -1.965461e-02  5.682566e-02  5.468750e-02
     vertex -7.421875e-01 -3.515625e-01  5.468750e-02
     vertex -6.685033e-01 -3.314967e-01  5.468750e-02
   endloop
 endfacet
 facet normal -3.445815e-01  9.387564e-01  0.000000e+00
   outer loop
     vertex -1.965461e-02  5.682566e-02  0.000000e+00
     vertex -1.965461e-02  5.682566e-02  5.468750e-02
     vertex -4.281674e-03  6.246847e-02  5.468750e-02
   endloop
 endfacet
 facet normal -3.445815e-01  9.387564e-01  0.000000e+00
   outer loop
     vertex -4.281674e-03  6.246847e-02  0.000000e+00
     vertex -1.965461e-02  5.682566e-02  0.000000e+00
     vertex -4.281674e-03  6.246847e-02  5.468750e-02
   endloop
 endfacet
 facet normal  2.457618e-14  1.000000e+00 -0.000000e+00
   outer loop
     vertex  1.209417e-02  6.246847e-02  0.000000e+00
     vertex -4.281674e-03  6.246847e-02  5.468750e-02
     vertex  1.209417e-02  6.246847e-02  5.468750e-02
   endloop
 endfacet
 facet normal  2.457618e-14  1.000000e+00  0.000000e+00
   outer loop
     vertex  1.209417e-02  6.246847e-02  0.000000e+00
     vertex -4.281674e-03  6.246847e-02  0.000000e+00
     vertex -4.281674e-03  6.246847e-02  5.468750e-02
   endloop
 endfacet
 facet normal  3.445815e-01  9.387564e-01 -0.000000e+00
   outer loop
     vertex  2.746711e-02  5.682566e-02  0.000000e+00
     vertex  1.209417e-02  6.246847e-02  5.468750e-02
     vertex  2.746711e-02  5.682566e-02  5.468750e-02
   endloop
 endfacet
 facet normal  3.445815e-01  9.387564e-01  0.000000e+00
   outer loop
     vertex  2.746711e-02  5.682566e-02  0.000000e+00
     vertex  1.209417e-02  6.246847e-02  0.000000e+00
     vertex  1.209417e-02  6.246847e-02  5.468750e-02
   endloop
 endfacet
 facet normal  3.445815e-01 -9.387564e-01  0.000000e+00
   outer loop
     vertex -4.281674e-03 -9.460390e-02  0.000000e+00
     vertex -1.965461e-02 -1.002467e-01  5.468750e-02
     vertex -1.965461e-02 -1.002467e-01  0.000000e+00
   endloop
 endfacet
 facet normal  3.445815e-01 -9.387564e-01  0.000000e+00
   outer loop
     vertex -4.281674e-03 -9.460390e-02  0.000000e+00
     vertex -4.281674e-03 -9.460390e-02  5.468750e-02
     vertex -1.965461e-02 -1.002467e-01  5.468750e-02
   endloop
 endfacet
 facet normal  3.468632e-12 -1.000000e+00  0.000000e+00
   outer loop
     vertex  1.209417e-02 -9.460390e-02  0.000000e+00
     vertex  1.209417e-02 -9.460390e-02  5.468750e-02
     vertex -4.281674e-03 -9.460390e-02  5.468750e-02
   endloop
 endfacet
 facet normal  3.468632e-12 -1.000000e+00  0.000000e+00
   outer loop
     vertex  1.209417e-02 -9.460390e-02  0.000000e+00
     vertex -4.281674e-03 -9.460390e-02  5.468750e-02
     vertex -4.281674e-03 -9.460390e-02  0.000000e+00
   endloop
 endfacet
 facet normal -3.445815e-01 -9.387564e-01  0.000000e+00
   outer loop
     vertex  2.746711e-02 -1.002467e-01  0.000000e+00
     vertex  2.746711e-02 -1.002467e-01  5.468750e-02
     vertex  1.209417e-02 -9.460390e-02  5.468750e-02
   endloop
 endfacet
 facet normal -3.445815e-01 -9.387564e-01  0.000000e+00
   outer loop
     vertex  2.746711e-02 -1.002467e-01  0.000000e+00
     vertex  1.209417e-02 -9.460390e-02  5.468750e-02
     vertex  1.209417e-02 -9.460390e-02  0.000000e+00
   endloop
 endfacet
 facet normal -4.892510e-01 -8.721430e-01  0.000000e+00
   outer loop
     vertex  6.714638e-01 -4.615132e-01  0.000000e+00
     vertex  2.746711e-02 -1.002467e-01  5.468750e-02
     vertex  2.746711e-02 -1.002467e-01  0.000000e+00
   endloop
 endfacet
 facet normal -4.892510e-01 -8.721430e-01  0.000000e+00
   outer loop
     vertex  6.714638e-01 -4.615132e-01  0.000000e+00
     vertex  6.714638e-01 -4.615132e-01  5.468750e-02
     vertex  2.746711e-02 -1.002467e-01  5.468750e-02
   endloop
 endfacet
 facet normal  9.908538e-01  1.349395e-01  0.000000e+00
   outer loop
     vertex  7.408989e-01 -4.000711e-01  0.000000e+00
     vertex  7.342928e-01 -3.515625e-01  0.000000e+00
     vertex  7.342928e-01 -3.515625e-01  5.468750e-02
   endloop
 endfacet
 facet normal  9.908538e-01  1.349395e-01 -0.000000e+00
   outer loop
     vertex  7.408989e-01 -4.000711e-01  0.000000e+00
     vertex  7.342928e-01 -3.515625e-01  5.468750e-02
     vertex  7.408989e-01 -4.000711e-01  5.468750e-02
   endloop
 endfacet
 facet normal  8.682431e-01 -4.961389e-01  0.000000e+00
   outer loop
     vertex  7.166097e-01 -4.425772e-01  0.000000e+00
     vertex  7.408989e-01 -4.000711e-01  5.468750e-02
     vertex  7.166097e-01 -4.425772e-01  5.468750e-02
   endloop
 endfacet
 facet normal  8.682431e-01 -4.961389e-01  0.000000e+00
   outer loop
     vertex  7.166097e-01 -4.425772e-01  0.000000e+00
     vertex  7.408989e-01 -4.000711e-01  0.000000e+00
     vertex  7.408989e-01 -4.000711e-01  5.468750e-02
   endloop
 endfacet
 facet normal  3.867933e-01 -9.221664e-01  0.000000e+00
   outer loop
     vertex  6.714638e-01 -4.615132e-01  0.000000e+00
     vertex  7.166097e-01 -4.425772e-01  5.468750e-02
     vertex  6.714638e-01 -4.615132e-01  5.468750e-02
   endloop
 endfacet
 facet normal  3.867933e-01 -9.221664e-01  0.000000e+00
   outer loop
     vertex  6.714638e-01 -4.615132e-01  0.000000e+00
     vertex  7.166097e-01 -4.425772e-01  0.000000e+00
     vertex  7.166097e-01 -4.425772e-01  5.468750e-02
   endloop
 endfacet
 facet normal  5.002776e-01  8.658651e-01  0.000000e+00
   outer loop
     vertex  2.746711e-02  5.682566e-02  0.000000e+00
     vertex  7.342928e-01 -3.515625e-01  5.468750e-02
     vertex  7.342928e-01 -3.515625e-01  0.000000e+00
   endloop
 endfacet
 facet normal  5.002776e-01  8.658651e-01 -0.000000e+00
   outer loop
     vertex  2.746711e-02  5.682566e-02  0.000000e+00
     vertex  2.746711e-02  5.682566e-02  5.468750e-02
     vertex  7.342928e-01 -3.515625e-01  5.468750e-02
   endloop
 endfacet
 facet normal -7.071068e-01  7.071068e-01  0.000000e+00
   outer loop
     vertex -3.947368e-03 -3.741776e-02  0.000000e+00
     vertex  2.746711e-02 -6.003289e-03  5.468750e-02
     vertex  2.746711e-02 -6.003289e-03  0.000000e+00
   endloop
 endfacet
 facet normal -7.071068e-01  7.071068e-01  0.000000e+00
   outer loop
     vertex -3.947368e-03 -3.741776e-02  0.000000e+00
     vertex -3.947368e-03 -3.741776e-02  5.468750e-02
     vertex  2.746711e-02 -6.003289e-03  5.468750e-02
   endloop
 endfacet
 facet normal  7.071068e-01  7.071068e-01 -0.000000e+00
   outer loop
     vertex -3.536184e-02 -6.003289e-03  0.000000e+00
     vertex -3.536184e-02 -6.003289e-03  5.468750e-02
     vertex -3.947368e-03 -3.741776e-02  5.468750e-02
   endloop
 endfacet
 facet normal  7.071068e-01  7.071068e-01  0.000000e+00
   outer loop
     vertex -3.536184e-02 -6.003289e-03  0.000000e+00
     vertex -3.947368e-03 -3.741776e-02  5.468750e-02
     vertex -3.947368e-03 -3.741776e-02  0.000000e+00
   endloop
 endfacet
 facet normal  7.071068e-01 -7.071068e-01  0.000000e+00
   outer loop
     vertex -3.947368e-03  2.541118e-02  0.000000e+00
     vertex -3.947368e-03  2.541118e-02  5.468750e-02
     vertex -3.536184e-02 -6.003289e-03  5.468750e-02
   endloop
 endfacet
 facet normal  7.071068e-01 -7.071068e-01  0.000000e+00
   outer loop
     vertex -3.947368e-03  2.541118e-02  0.000000e+00
     vertex -3.536184e-02 -6.003289e-03  5.468750e-02
     vertex -3.536184e-02 -6.003289e-03  0.000000e+00
   endloop
 endfacet
 facet normal -7.071068e-01 -7.071068e-01  0.000000e+00
   outer loop
     vertex  2.746711e-02 -6.003289e-03  0.000000e+00
     vertex  2.746711e-02 -6.003289e-03  5.468750e-02
     vertex -3.947368e-03  2.541118e-02  5.468750e-02
   endloop
 endfacet
 facet normal -7.071068e-01 -7.071068e-01  0.000000e+00
   outer loop
     vertex  2.746711e-02 -6.003289e-03  0.000000e+00
     vertex -3.947368e-03  2.541118e-02  5.468750e-02
     vertex -3.947368e-03  2.541118e-02  0.000000e+00
   endloop
 endfacet
 facet normal  7.071068e-01 -7.071068e-01  0.000000e+00
   outer loop
     vertex -6.685033e-01 -4.341283e-01  5.468750e-02
     vertex -6.171875e-01 -3.828125e-01  5.468750e-02
     vertex -6.171875e-01 -3.828125e-01  1.796875e-01
   endloop
 endfacet
 facet normal  7.071068e-01 -7.071068e-01  0.000000e+00
   outer loop
     vertex -6.685033e-01 -4.341283e-01  5.468750e-02
     vertex -6.171875e-01 -3.828125e-01  1.796875e-01
     vertex -6.685033e-01 -4.341283e-01  1.796875e-01
   endloop
 endfacet
 facet normal -7.071068e-01 -7.071068e-01  0.000000e+00
   outer loop
     vertex -7.198191e-01 -3.828125e-01  5.468750e-02
     vertex -6.685033e-01 -4.341283e-01  1.796875e-01
     vertex -7.198191e-01 -3.828125e-01  1.796875e-01
   endloop
 endfacet
 facet normal -7.071068e-01 -7.071068e-01  0.000000e+00
   outer loop
     vertex -7.198191e-01 -3.828125e-01  5.468750e-02
     vertex -6.685033e-01 -4.341283e-01  5.468750e-02
     vertex -6.685033e-01 -4.341283e-01  1.796875e-01
   endloop
 endfacet
 facet normal -7.071068e-01  7.071068e-01  0.000000e+00
   outer loop
     vertex -6.685033e-01 -3.314967e-01  5.468750e-02
     vertex -7.198191e-01 -3.828125e-01  1.796875e-01
     vertex -6.685033e-01 -3.314967e-01  1.796875e-01
   endloop
 endfacet
 facet normal -7.071068e-01  7.071068e-01  0.000000e+00
   outer loop
     vertex -6.685033e-01 -3.314967e-01  5.468750e-02
     vertex -7.198191e-01 -3.828125e-01  5.468750e-02
     vertex -7.198191e-01 -3.828125e-01  1.796875e-01
   endloop
 endfacet
 facet normal  7.071068e-01  7.071068e-01 -0.000000e+00
   outer loop
     vertex -6.171875e-01 -3.828125e-01  5.468750e-02
     vertex -6.685033e-01 -3.314967e-01  1.796875e-01
     vertex -6.171875e-01 -3.828125e-01  1.796875e-01
   endloop
 endfacet
 facet normal  7.071068e-01  7.071068e-01  0.000000e+00
   outer loop
     vertex -6.171875e-01 -3.828125e-01  5.468750e-02
     vertex -6.685033e-01 -3.314967e-01  5.468750e-02
     vertex -6.685033e-01 -3.314967e-01  1.796875e-01
   endloop
 endfacet
 facet normal  7.071068e-01 -7.071068e-01  0.000000e+00
   outer loop
     vertex  6.685033e-01 -4.341283e-01  5.468750e-02
     vertex  7.198191e-01 -3.828125e-01  5.468750e-02
     vertex  7.198191e-01 -3.828125e-01  1.796875e-01
   endloop
 endfacet
 facet normal  7.071068e-01 -7.071068e-01  0.000000e+00
   outer loop
     vertex  6.685033e-01 -4.341283e-01  5.468750e-02
     vertex  7.198191e-01 -3.828125e-01  1.796875e-01
     vertex  6.685033e-01 -4.341283e-01  1.796875e-01
   endloop
 endfacet
 facet normal -7.071068e-01 -7.071068e-01  0.000000e+00
   outer loop
     vertex  6.171875e-01 -3.828125e-01  5.468750e-02
     vertex  6.685033e-01 -4.341283e-01  1.796875e-01
     vertex  6.171875e-01 -3.828125e-01  1.796875e-01
   endloop
 endfacet
 facet normal -7.071068e-01 -7.071068e-01  0.000000e+00
   outer loop
     vertex  6.171875e-01 -3.828125e-01  5.468750e-02
     vertex  6.685033e-01 -4.341283e-01  5.468750e-02
     vertex  6.685033e-01 -4.341283e-01  1.796875e-01
   endloop
 endfacet
 facet normal -7.071068e-01  7.071068e-01  0.000000e+00
   outer loop
     vertex  6.685033e-01 -3.314967e-01  5.468750e-02
     vertex  6.171875e-01 -3.828125e-01  1.796875e-01
     vertex  6.685033e-01 -3.314967e-01  1.796875e-01
   endloop
 endfacet
 facet normal -7.071068e-01  7.071068e-01  0.000000e+00
   outer loop
     vertex  6.685033e-01 -3.314967e-01  5.468750e-02
     vertex  6.171875e-01 -3.828125e-01  5.468750e-02
     vertex  6.171875e-01 -3.828125e-01  1.796875e-01
   endloop
 endfacet
 facet normal  7.071068e-01  7.071068e-01 -0.000000e+00
   outer loop
     vertex  7.198191e-01 -3.828125e-01  5.468750e-02
     vertex  6.685033e-01 -3.314967e-01  1.796875e-01
     vertex  7.198191e-01 -3.828125e-01  1.796875e-01
   endloop
 endfacet
 facet normal  7.071068e-01  7.071068e-01  0.000000e+00
   outer loop
     vertex  7.198191e-01 -3.828125e-01  5.468750e-02
     vertex  6.685033e-01 -3.314967e-01  5.468750e-02
     vertex  6.685033e-01 -3.314967e-01  1.796875e-01
   endloop
 endfacet
 facet normal  0.000000e+00  0.000000e+00  1.000000e+00
   outer loop
     vertex -6.685033e-01 -3.314967e-01  1.796875e-01
     vertex -7.198191e-01 -3.828125e-01  1.796875e-01
     vertex -6.685033e-01 -4.341283e-01  1.796875e-01
   endloop
 endfacet
 facet normal  0.000000e+00  0.000000e+00  1.000000e+00
   outer loop
     vertex -6.685033e-01 -3.314967e-01  1.796875e-01
     vertex -6.685033e-01 -4.341283e-01  1.796875e-01
     vertex -6.171875e-01 -3.828125e-01  1.796875e-01
   endloop
 endfacet
 facet normal  0.000000e+00  0.000000e+00  1.000000e+00
   outer loop
     vertex  6.685033e-01 -3.314967e-01  1.796875e-01
     vertex  6.171875e-01 -3.828125e-01  1.796875e-01
     vertex  6.685033e-01 -4.341283e-01  1.796875e-01
   endloop
 endfacet
 facet normal  0.000000e+00  0.000000e+00  1.000000e+00
   outer loop
     vertex  6.685033e-01 -3.314967e-01  1.796875e-01
     vertex  6.685033e-01 -4.341283e-01  1.796875e-01
     vertex  7.198191e-01 -3.828125e-01  1.796875e-01
   endloop
 endfacet
endsolid
