solid 
 facet normal  0.000000e+00  0.000000e+00 -1.000000e+00
   outer loop
     vertex -2.191612e-01  1.671804e-17 -5.468750e-01
     vertex -4.921875e-01 -2.265625e-01 -5.468750e-01
     vertex -4.921875e-01  0.000000e+00 -5.468750e-01
   endloop
 endfacet
 facet normal  0.000000e+00 -0.000000e+00 -1.000000e+00
   outer loop
     vertex -2.191612e-01  1.671804e-17 -5.468750e-01
     vertex -2.191612e-01 -2.265625e-01 -5.468750e-01
     vertex -4.921875e-01 -2.265625e-01 -5.468750e-01
   endloop
 endfacet
 facet normal -1.000000e+00  0.000000e+00  0.000000e+00
   outer loop
     vertex -4.921875e-01  7.941069e-17  7.500000e-01
     vertex -4.921875e-01 -2.960526e-02  7.343750e-01
     vertex -4.921875e-01 -1.875000e-01  7.343750e-01
   endloop
 endfacet
 facet normal -1.000000e+00 -0.000000e+00  0.000000e+00
   outer loop
     vertex -4.921875e-01  7.941069e-17  7.500000e-01
     vertex -4.921875e-01 -1.875000e-01  7.343750e-01
     vertex -4.921875e-01 -2.265625e-01  7.500000e-01
   endloop
 endfacet
 facet normal -1.000000e+00 -0.000000e+00  0.000000e+00
   outer loop
     vertex -4.921875e-01 -1.875000e-01 -5.156250e-01
     vertex -4.921875e-01 -2.265625e-01 -5.468750e-01
     vertex -4.921875e-01 -2.265625e-01  7.500000e-01
   endloop
 endfacet
 facet normal -1.000000e+00  0.000000e+00  0.000000e+00
   outer loop
     vertex -4.921875e-01 -1.875000e-01 -5.156250e-01
     vertex -4.921875e-01 -2.265625e-01  7.500000e-01
     vertex -4.921875e-01 -1.875000e-01  7.343750e-01
   endloop
 endfacet
 facet normal -1.000000e+00  0.000000e+00  0.000000e+00
   outer loop
     vertex -4.921875e-01 -2.960526e-02 -5.156250e-01
     vertex -4.921875e-01 -2.960526e-02  7.343750e-01
     vertex -4.921875e-01  7.941069e-17  7.500000e-01
   endloop
 endfacet
 facet normal -1.000000e+00  0.000000e+00  0.000000e+00
   outer loop
     vertex -4.921875e-01  0.000000e+00 -5.468750e-01
     vertex -4.921875e-01 -1.875000e-01 -5.156250e-01
     vertex -4.921875e-01 -2.960526e-02 -5.156250e-01
   endloop
 endfacet
 facet normal -1.000000e+00  0.000000e+00  0.000000e+00
   outer loop
     vertex -4.921875e-01  0.000000e+00 -5.468750e-01
     vertex -4.921875e-01 -2.265625e-01 -5.468750e-01
     vertex -4.921875e-01 -1.875000e-01 -5.156250e-01
   endloop
 endfacet
 facet normal -1.000000e+00  0.000000e+00  0.000000e+00
   outer loop
     vertex -4.921875e-01  0.000000e+00 -5.468750e-01
     vertex -4.921875e-01 -2.960526e-02 -5.156250e-01
     vertex -4.921875e-01  7.941069e-17  7.500000e-01
   endloop
 endfacet
 facet normal  1.000000e+00  0.000000e+00  0.000000e+00
   outer loop
     vertex -2.191612e-01  9.612873e-17  7.500000e-01
     vertex -2.191612e-01 -2.265625e-01 -5.468750e-01
     vertex -2.191612e-01  1.671804e-17 -5.468750e-01
   endloop
 endfacet
 facet normal  1.000000e+00  0.000000e+00  0.000000e+00
   outer loop
     vertex -2.191612e-01  9.612873e-17  7.500000e-01
     vertex -2.191612e-01 -2.265625e-01  7.500000e-01
     vertex -2.191612e-01 -2.265625e-01 -5.468750e-01
   endloop
 endfacet
 facet normal -6.123234e-17  1.000000e+00 -6.123234e-17
   outer loop
     vertex -2.601151e-01  1.588214e-17 -5.195724e-01
     vertex -4.921875e-01  0.000000e+00 -5.468750e-01
     vertex -4.648849e-01  3.343608e-18 -5.195724e-01
   endloop
 endfacet
 facet normal -6.123234e-17  1.000000e+00 -6.123234e-17
   outer loop
     vertex -2.191612e-01  1.671804e-17 -5.468750e-01
     vertex -4.921875e-01  0.000000e+00 -5.468750e-01
     vertex -2.601151e-01  1.588214e-17 -5.195724e-01
   endloop
 endfacet
 facet normal -6.123234e-17  1.000000e+00 -6.123234e-17
   outer loop
     vertex -4.648849e-01  7.941069e-17  7.226974e-01
     vertex -4.921875e-01  0.000000e+00 -5.468750e-01
     vertex -4.921875e-01  7.941069e-17  7.500000e-01
   endloop
 endfacet
 facet normal -6.123234e-17  1.000000e+00 -6.123234e-17
   outer loop
     vertex -4.648849e-01  7.941069e-17  7.226974e-01
     vertex -4.648849e-01  3.343608e-18 -5.195724e-01
     vertex -4.921875e-01  0.000000e+00 -5.468750e-01
   endloop
 endfacet
 facet normal -6.123234e-17  1.000000e+00 -6.123234e-17
   outer loop
     vertex -2.601151e-01  9.194922e-17  7.226974e-01
     vertex -4.648849e-01  7.941069e-17  7.226974e-01
     vertex -4.921875e-01  7.941069e-17  7.500000e-01
   endloop
 endfacet
 facet normal -6.123234e-17  1.000000e+00 -6.123234e-17
   outer loop
     vertex -2.191612e-01  9.612873e-17  7.500000e-01
     vertex -2.601151e-01  1.588214e-17 -5.195724e-01
     vertex -2.601151e-01  9.194922e-17  7.226974e-01
   endloop
 endfacet
 facet normal -6.123234e-17  1.000000e+00 -6.123234e-17
   outer loop
     vertex -2.191612e-01  9.612873e-17  7.500000e-01
     vertex -2.191612e-01  1.671804e-17 -5.468750e-01
     vertex -2.601151e-01  1.588214e-17 -5.195724e-01
   endloop
 endfacet
 facet normal -6.123234e-17  1.000000e+00 -6.123234e-17
   outer loop
     vertex -2.191612e-01  9.612873e-17  7.500000e-01
     vertex -2.601151e-01  9.194922e-17  7.226974e-01
     vertex -4.921875e-01  7.941069e-17  7.500000e-01
   endloop
 endfacet
 facet normal -0.000000e+00 -1.000000e+00  0.000000e+00
   outer loop
     vertex -2.601151e-01 -2.265625e-01 -5.195724e-01
     vertex -4.648849e-01 -2.265625e-01 -5.195724e-01
     vertex -4.921875e-01 -2.265625e-01 -5.468750e-01
   endloop
 endfacet
 facet normal  0.000000e+00 -1.000000e+00  0.000000e+00
   outer loop
     vertex -2.191612e-01 -2.265625e-01 -5.468750e-01
     vertex -2.601151e-01 -2.265625e-01 -5.195724e-01
     vertex -4.921875e-01 -2.265625e-01 -5.468750e-01
   endloop
 endfacet
 facet normal -0.000000e+00 -1.000000e+00  0.000000e+00
   outer loop
     vertex -4.648849e-01 -2.265625e-01  7.226974e-01
     vertex -4.921875e-01 -2.265625e-01  7.500000e-01
     vertex -4.921875e-01 -2.265625e-01 -5.468750e-01
   endloop
 endfacet
 facet normal  0.000000e+00 -1.000000e+00 -0.000000e+00
   outer loop
     vertex -4.648849e-01 -2.265625e-01  7.226974e-01
     vertex -4.921875e-01 -2.265625e-01 -5.468750e-01
     vertex -4.648849e-01 -2.265625e-01 -5.195724e-01
   endloop
 endfacet
 facet normal  0.000000e+00 -1.000000e+00  0.000000e+00
   outer loop
     vertex -2.601151e-01 -2.265625e-01  7.226974e-01
     vertex -4.921875e-01 -2.265625e-01  7.500000e-01
     vertex -4.648849e-01 -2.265625e-01  7.226974e-01
   endloop
 endfacet
 facet normal  0.000000e+00 -1.000000e+00  0.000000e+00
   outer loop
     vertex -2.191612e-01 -2.265625e-01  7.500000e-01
     vertex -2.601151e-01 -2.265625e-01  7.226974e-01
     vertex -2.601151e-01 -2.265625e-01 -5.195724e-01
   endloop
 endfacet
 facet normal  0.000000e+00 -1.000000e+00 -0.000000e+00
   outer loop
     vertex -2.191612e-01 -2.265625e-01  7.500000e-01
     vertex -2.601151e-01 -2.265625e-01 -5.195724e-01
     vertex -2.191612e-01 -2.265625e-01 -5.468750e-01
   endloop
 endfacet
 facet normal -0.000000e+00 -1.000000e+00  0.000000e+00
   outer loop
     vertex -2.191612e-01 -2.265625e-01  7.500000e-01
     vertex -4.921875e-01 -2.265625e-01  7.500000e-01
     vertex -2.601151e-01 -2.265625e-01  7.226974e-01
   endloop
 endfacet
 facet normal  0.000000e+00  0.000000e+00  1.000000e+00
   outer loop
     vertex -2.191612e-01  9.612873e-17  7.500000e-01
     vertex -2.578125e-01 -1.875000e-01  7.500000e-01
     vertex -2.191612e-01 -2.265625e-01  7.500000e-01
   endloop
 endfacet
 facet normal -0.000000e+00  0.000000e+00  1.000000e+00
   outer loop
     vertex -2.578125e-01 -2.927632e-02  7.500000e-01
     vertex -2.578125e-01 -1.875000e-01  7.500000e-01
     vertex -2.191612e-01  9.612873e-17  7.500000e-01
   endloop
 endfacet
 facet normal  0.000000e+00  0.000000e+00  1.000000e+00
   outer loop
     vertex -4.921875e-01 -2.265625e-01  7.500000e-01
     vertex -2.191612e-01 -2.265625e-01  7.500000e-01
     vertex -2.578125e-01 -1.875000e-01  7.500000e-01
   endloop
 endfacet
 facet normal -0.000000e+00  0.000000e+00  1.000000e+00
   outer loop
     vertex -4.609375e-01 -1.875000e-01  7.500000e-01
     vertex -4.921875e-01 -2.265625e-01  7.500000e-01
     vertex -2.578125e-01 -1.875000e-01  7.500000e-01
   endloop
 endfacet
 facet normal  0.000000e+00  0.000000e+00  1.000000e+00
   outer loop
     vertex -4.921875e-01  7.941069e-17  7.500000e-01
     vertex -4.609375e-01 -1.875000e-01  7.500000e-01
     vertex -4.609375e-01 -2.927632e-02  7.500000e-01
   endloop
 endfacet
 facet normal  0.000000e+00  0.000000e+00  1.000000e+00
   outer loop
     vertex -4.921875e-01  7.941069e-17  7.500000e-01
     vertex -4.921875e-01 -2.265625e-01  7.500000e-01
     vertex -4.609375e-01 -1.875000e-01  7.500000e-01
   endloop
 endfacet
 facet normal -0.000000e+00  0.000000e+00  1.000000e+00
   outer loop
     vertex -4.921875e-01  7.941069e-17  7.500000e-01
     vertex -4.609375e-01 -2.927632e-02  7.500000e-01
     vertex -2.191612e-01  9.612873e-17  7.500000e-01
   endloop
 endfacet
 facet normal  0.000000e+00  0.000000e+00  1.000000e+00
   outer loop
     vertex -4.609375e-01 -2.927632e-02  7.500000e-01
     vertex -2.578125e-01 -2.927632e-02  7.500000e-01
     vertex -2.191612e-01  9.612873e-17  7.500000e-01
   endloop
 endfacet
 facet normal -1.000000e+00  0.000000e+00 -0.000000e+00
   outer loop
     vertex -4.921875e-01 -2.960526e-02  7.343750e-01
     vertex -4.921875e-01 -2.960526e-02 -5.156250e-01
     vertex -4.921875e-01 -1.875000e-01 -5.156250e-01
   endloop
 endfacet
 facet normal -1.000000e+00 -0.000000e+00  0.000000e+00
   outer loop
     vertex -4.921875e-01 -2.960526e-02  7.343750e-01
     vertex -4.921875e-01 -1.875000e-01 -5.156250e-01
     vertex -4.921875e-01 -1.875000e-01  7.343750e-01
   endloop
 endfacet
 facet normal  0.000000e+00  0.000000e+00  1.000000e+00
   outer loop
     vertex -2.601151e-01  1.588214e-17 -5.195724e-01
     vertex -4.648849e-01  3.343608e-18 -5.195724e-01
     vertex -4.648849e-01 -2.265625e-01 -5.195724e-01
   endloop
 endfacet
 facet normal  0.000000e+00  0.000000e+00  1.000000e+00
   outer loop
     vertex -2.601151e-01  1.588214e-17 -5.195724e-01
     vertex -4.648849e-01 -2.265625e-01 -5.195724e-01
     vertex -2.601151e-01 -2.265625e-01 -5.195724e-01
   endloop
 endfacet
 facet normal -1.000000e+00  0.000000e+00 -0.000000e+00
   outer loop
     vertex -2.601151e-01 -1.875000e-01 -2.500000e-01
     vertex -2.601151e-01  1.588214e-17 -5.195724e-01
     vertex -2.601151e-01 -2.265625e-01 -5.195724e-01
   endloop
 endfacet
 facet normal -1.000000e+00 -0.000000e+00 -0.000000e+00
   outer loop
     vertex -2.601151e-01 -2.927632e-02 -2.500000e-01
     vertex -2.601151e-01  1.588214e-17 -5.195724e-01
     vertex -2.601151e-01 -1.875000e-01 -2.500000e-01
   endloop
 endfacet
 facet normal -1.000000e+00  0.000000e+00  0.000000e+00
   outer loop
     vertex -2.601151e-01 -2.265625e-01  7.226974e-01
     vertex -2.601151e-01 -1.875000e-01 -2.500000e-01
     vertex -2.601151e-01 -2.265625e-01 -5.195724e-01
   endloop
 endfacet
 facet normal -1.000000e+00 -0.000000e+00 -0.000000e+00
   outer loop
     vertex -2.601151e-01 -1.875000e-01  7.226974e-01
     vertex -2.601151e-01 -1.875000e-01 -2.500000e-01
     vertex -2.601151e-01 -2.265625e-01  7.226974e-01
   endloop
 endfacet
 facet normal -1.000000e+00 -0.000000e+00  0.000000e+00
   outer loop
     vertex -2.601151e-01  9.194922e-17  7.226974e-01
     vertex -2.601151e-01 -2.927632e-02 -2.500000e-01
     vertex -2.601151e-01 -2.927632e-02  7.226974e-01
   endloop
 endfacet
 facet normal -1.000000e+00  0.000000e+00  0.000000e+00
   outer loop
     vertex -2.601151e-01  9.194922e-17  7.226974e-01
     vertex -2.601151e-01  1.588214e-17 -5.195724e-01
     vertex -2.601151e-01 -2.927632e-02 -2.500000e-01
   endloop
 endfacet
 facet normal  0.000000e+00  0.000000e+00 -1.000000e+00
   outer loop
     vertex -4.609375e-01 -1.875000e-01  7.226974e-01
     vertex -2.601151e-01 -1.875000e-01  7.226974e-01
     vertex -2.601151e-01 -2.265625e-01  7.226974e-01
   endloop
 endfacet
 facet normal  0.000000e+00 -0.000000e+00 -1.000000e+00
   outer loop
     vertex -4.609375e-01 -1.875000e-01  7.226974e-01
     vertex -2.601151e-01 -2.265625e-01  7.226974e-01
     vertex -4.648849e-01 -2.265625e-01  7.226974e-01
   endloop
 endfacet
 facet normal  0.000000e+00  0.000000e+00 -1.000000e+00
   outer loop
     vertex -4.609375e-01 -2.927632e-02  7.226974e-01
     vertex -2.601151e-01  9.194922e-17  7.226974e-01
     vertex -2.601151e-01 -2.927632e-02  7.226974e-01
   endloop
 endfacet
 facet normal  0.000000e+00  0.000000e+00 -1.000000e+00
   outer loop
     vertex -4.648849e-01  7.941069e-17  7.226974e-01
     vertex -2.601151e-01  9.194922e-17  7.226974e-01
     vertex -4.609375e-01 -2.927632e-02  7.226974e-01
   endloop
 endfacet
 facet normal  0.000000e+00  0.000000e+00 -1.000000e+00
   outer loop
     vertex -4.648849e-01 -2.265625e-01  7.226974e-01
     vertex -4.648849e-01  7.941069e-17  7.226974e-01
     vertex -4.609375e-01 -2.927632e-02  7.226974e-01
   endloop
 endfacet
 facet normal  0.000000e+00  0.000000e+00 -1.000000e+00
   outer loop
     vertex -4.648849e-01 -2.265625e-01  7.226974e-01
     vertex -4.609375e-01 -2.927632e-02  7.226974e-01
     vertex -4.609375e-01 -1.875000e-01  7.226974e-01
   endloop
 endfacet
 facet normal  1.000000e+00  0.000000e+00 -0.000000e+00
   outer loop
     vertex -4.648849e-01  3.343608e-18 -5.195724e-01
     vertex -4.648849e-01  7.941069e-17  7.226974e-01
     vertex -4.648849e-01 -2.265625e-01  7.226974e-01
   endloop
 endfacet
 facet normal  1.000000e+00  0.000000e+00  0.000000e+00
   outer loop
     vertex -4.648849e-01  3.343608e-18 -5.195724e-01
     vertex -4.648849e-01 -2.265625e-01  7.226974e-01
     vertex -4.648849e-01 -2.265625e-01 -5.195724e-01
   endloop
 endfacet
 facet normal  1.000000e+00 -0.000000e+00  0.000000e+00
   outer loop
     vertex -4.609375e-01 -1.875000e-01  7.500000e-01
     vertex -4.609375e-01 -2.927632e-02  7.226974e-01
     vertex -4.609375e-01 -2.927632e-02  7.500000e-01
   endloop
 endfacet
 facet normal  1.000000e+00  0.000000e+00  0.000000e+00
   outer loop
     vertex -4.609375e-01 -1.875000e-01  7.500000e-01
     vertex -4.609375e-01 -1.875000e-01  7.226974e-01
     vertex -4.609375e-01 -2.927632e-02  7.226974e-01
   endloop
 endfacet
 facet normal  0.000000e+00 -1.000000e+00  0.000000e+00
   outer loop
     vertex -2.601151e-01 -2.927632e-02  7.226974e-01
     vertex -2.601151e-01 -2.927632e-02 -2.500000e-01
     vertex -2.578125e-01 -2.927632e-02 -2.500000e-01
   endloop
 endfacet
 facet normal  0.000000e+00 -1.000000e+00  0.000000e+00
   outer loop
     vertex -4.609375e-01 -2.927632e-02  7.500000e-01
     vertex -4.609375e-01 -2.927632e-02  7.226974e-01
     vertex -2.601151e-01 -2.927632e-02  7.226974e-01
   endloop
 endfacet
 facet normal  0.000000e+00 -1.000000e+00  0.000000e+00
   outer loop
     vertex -4.609375e-01 -2.927632e-02  7.500000e-01
     vertex -2.601151e-01 -2.927632e-02  7.226974e-01
     vertex -2.578125e-01 -2.927632e-02  7.500000e-01
   endloop
 endfacet
 facet normal  0.000000e+00 -1.000000e+00 -0.000000e+00
   outer loop
     vertex -2.578125e-01 -2.927632e-02  7.500000e-01
     vertex -2.601151e-01 -2.927632e-02  7.226974e-01
     vertex -2.578125e-01 -2.927632e-02 -2.500000e-01
   endloop
 endfacet
 facet normal -1.000000e+00 -0.000000e+00  0.000000e+00
   outer loop
     vertex -2.578125e-01 -2.927632e-02  7.500000e-01
     vertex -2.578125e-01 -1.875000e-01 -2.500000e-01
     vertex -2.578125e-01 -1.875000e-01  7.500000e-01
   endloop
 endfacet
 facet normal -1.000000e+00  0.000000e+00 -0.000000e+00
   outer loop
     vertex -2.578125e-01 -2.927632e-02  7.500000e-01
     vertex -2.578125e-01 -2.927632e-02 -2.500000e-01
     vertex -2.578125e-01 -1.875000e-01 -2.500000e-01
   endloop
 endfacet
 facet normal  0.000000e+00  1.000000e+00  0.000000e+00
   outer loop
     vertex -2.601151e-01 -1.875000e-01  7.226974e-01
     vertex -4.609375e-01 -1.875000e-01  7.226974e-01
     vertex -4.609375e-01 -1.875000e-01  7.500000e-01
   endloop
 endfacet
 facet normal  0.000000e+00  1.000000e+00  0.000000e+00
   outer loop
     vertex -2.601151e-01 -1.875000e-01  7.226974e-01
     vertex -2.578125e-01 -1.875000e-01 -2.500000e-01
     vertex -2.601151e-01 -1.875000e-01 -2.500000e-01
   endloop
 endfacet
 facet normal  0.000000e+00  1.000000e+00  0.000000e+00
   outer loop
     vertex -2.578125e-01 -1.875000e-01  7.500000e-01
     vertex -2.601151e-01 -1.875000e-01  7.226974e-01
     vertex -4.609375e-01 -1.875000e-01  7.500000e-01
   endloop
 endfacet
 facet normal  0.000000e+00  1.000000e+00 -0.000000e+00
   outer loop
     vertex -2.578125e-01 -1.875000e-01 -2.500000e-01
     vertex -2.601151e-01 -1.875000e-01  7.226974e-01
     vertex -2.578125e-01 -1.875000e-01  7.500000e-01
   endloop
 endfacet
 facet normal  0.000000e+00  0.000000e+00  1.000000e+00
   outer loop
     vertex -2.578125e-01 -2.927632e-02 -2.500000e-01
     vertex -2.601151e-01 -2.927632e-02 -2.500000e-01
     vertex -2.601151e-01 -1.875000e-01 -2.500000e-01
   endloop
 endfacet
 facet normal  0.000000e+00  0.000000e+00  1.000000e+00
   outer loop
     vertex -2.578125e-01 -2.927632e-02 -2.500000e-01
     vertex -2.601151e-01 -1.875000e-01 -2.500000e-01
     vertex -2.578125e-01 -1.875000e-01 -2.500000e-01
   endloop
 endfacet
endsolid
