solid 
 facet normal -0.000000e+00 -1.000000e+00  0.000000e+00
   outer loop
     vertex -1.387779e-17 -1.484375e-01  5.625000e-01
     vertex -1.093750e-01 -1.484375e-01  5.625000e-01
     vertex -7.812500e-02 -1.484375e-01  5.000000e-01
   endloop
 endfacet
 facet normal  0.000000e+00 -1.000000e+00  0.000000e+00
   outer loop
     vertex  0.000000e+00 -1.484375e-01  5.000000e-01
     vertex -1.387779e-17 -1.484375e-01  5.625000e-01
     vertex -7.812500e-02 -1.484375e-01  5.000000e-01
   endloop
 endfacet
 facet normal  0.000000e+00 -1.000000e+00  0.000000e+00
   outer loop
     vertex -7.812500e-02 -1.484375e-01  4.218750e-01
     vertex -7.812500e-02 -1.484375e-01  5.000000e-01
     vertex -1.093750e-01 -1.484375e-01  5.625000e-01
   endloop
 endfacet
 facet normal  0.000000e+00 -1.000000e+00  0.000000e+00
   outer loop
     vertex -1.387779e-17 -1.484375e-01  0.000000e+00
     vertex  0.000000e+00 -1.484375e-01  4.218750e-01
     vertex -7.812500e-02 -1.484375e-01  4.218750e-01
   endloop
 endfacet
 facet normal  0.000000e+00 -1.000000e+00  0.000000e+00
   outer loop
     vertex -1.387779e-17 -1.484375e-01  0.000000e+00
     vertex -7.812500e-02 -1.484375e-01  4.218750e-01
     vertex -1.093750e-01 -1.484375e-01  0.000000e+00
   endloop
 endfacet
 facet normal  0.000000e+00 -1.000000e+00  0.000000e+00
   outer loop
     vertex -1.093750e-01 -1.484375e-01  0.000000e+00
     vertex -7.812500e-02 -1.484375e-01  4.218750e-01
     vertex -1.093750e-01 -1.484375e-01  5.625000e-01
   endloop
 endfacet
 facet normal  0.000000e+00 -0.000000e+00 -1.000000e+00
   outer loop
     vertex -1.387779e-17 -3.906250e-02  0.000000e+00
     vertex -1.387779e-17 -1.484375e-01  0.000000e+00
     vertex -1.093750e-01 -1.484375e-01  0.000000e+00
   endloop
 endfacet
 facet normal -0.000000e+00  0.000000e+00 -1.000000e+00
   outer loop
     vertex -1.387779e-17 -3.906250e-02  0.000000e+00
     vertex -1.093750e-01 -1.484375e-01  0.000000e+00
     vertex -1.093750e-01 -3.906250e-02  0.000000e+00
   endloop
 endfacet
 facet normal  1.000000e+00  0.000000e+00 -3.289550e-17
   outer loop
     vertex -1.387779e-17 -3.906250e-02  0.000000e+00
     vertex  0.000000e+00 -1.484375e-01  4.218750e-01
     vertex -1.387779e-17 -1.484375e-01  0.000000e+00
   endloop
 endfacet
 facet normal  1.000000e+00  9.405749e-17 -8.510223e-18
   outer loop
     vertex -1.387779e-17 -3.906250e-02  0.000000e+00
     vertex -1.028754e-17 -3.906250e-02  4.218750e-01
     vertex  0.000000e+00 -1.484375e-01  4.218750e-01
   endloop
 endfacet
 facet normal  0.000000e+00  0.000000e+00  1.000000e+00
   outer loop
     vertex  0.000000e+00 -1.484375e-01  4.218750e-01
     vertex -7.812500e-02 -3.906250e-02  4.218750e-01
     vertex -7.812500e-02 -1.484375e-01  4.218750e-01
   endloop
 endfacet
 facet normal  0.000000e+00  0.000000e+00  1.000000e+00
   outer loop
     vertex  0.000000e+00 -1.484375e-01  4.218750e-01
     vertex -1.028754e-17 -3.906250e-02  4.218750e-01
     vertex -7.812500e-02 -3.906250e-02  4.218750e-01
   endloop
 endfacet
 facet normal  1.000000e+00  0.000000e+00  0.000000e+00
   outer loop
     vertex -7.812500e-02 -1.484375e-01  4.218750e-01
     vertex -7.812500e-02 -3.906250e-02  5.000000e-01
     vertex -7.812500e-02 -1.484375e-01  5.000000e-01
   endloop
 endfacet
 facet normal  1.000000e+00  0.000000e+00  0.000000e+00
   outer loop
     vertex -7.812500e-02 -1.484375e-01  4.218750e-01
     vertex -7.812500e-02 -3.906250e-02  4.218750e-01
     vertex -7.812500e-02 -3.906250e-02  5.000000e-01
   endloop
 endfacet
 facet normal  0.000000e+00  0.000000e+00 -1.000000e+00
   outer loop
     vertex -7.812500e-02 -1.484375e-01  5.000000e-01
     vertex -1.028754e-17 -3.906250e-02  5.000000e-01
     vertex  0.000000e+00 -1.484375e-01  5.000000e-01
   endloop
 endfacet
 facet normal  0.000000e+00  0.000000e+00 -1.000000e+00
   outer loop
     vertex -7.812500e-02 -1.484375e-01  5.000000e-01
     vertex -7.812500e-02 -3.906250e-02  5.000000e-01
     vertex -1.028754e-17 -3.906250e-02  5.000000e-01
   endloop
 endfacet
 facet normal  1.000000e+00  9.405749e-17  2.220446e-16
   outer loop
     vertex -1.028754e-17 -3.906250e-02  5.000000e-01
     vertex -1.387779e-17 -1.484375e-01  5.625000e-01
     vertex  0.000000e+00 -1.484375e-01  5.000000e-01
   endloop
 endfacet
 facet normal  1.000000e+00  0.000000e+00  5.744400e-17
   outer loop
     vertex -1.028754e-17 -3.906250e-02  5.000000e-01
     vertex -1.387779e-17 -3.906250e-02  5.625000e-01
     vertex -1.387779e-17 -1.484375e-01  5.625000e-01
   endloop
 endfacet
 facet normal  0.000000e+00  0.000000e+00  1.000000e+00
   outer loop
     vertex -1.387779e-17 -3.906250e-02  5.625000e-01
     vertex -1.093750e-01 -1.484375e-01  5.625000e-01
     vertex -1.387779e-17 -1.484375e-01  5.625000e-01
   endloop
 endfacet
 facet normal  0.000000e+00  0.000000e+00  1.000000e+00
   outer loop
     vertex -1.387779e-17 -3.906250e-02  5.625000e-01
     vertex -1.093750e-01 -3.906250e-02  5.625000e-01
     vertex -1.093750e-01 -1.484375e-01  5.625000e-01
   endloop
 endfacet
 facet normal -1.000000e+00  0.000000e+00  0.000000e+00
   outer loop
     vertex -1.093750e-01 -1.484375e-01  0.000000e+00
     vertex -1.093750e-01 -3.906250e-02  5.625000e-01
     vertex -1.093750e-01 -3.906250e-02  0.000000e+00
   endloop
 endfacet
 facet normal -1.000000e+00  0.000000e+00  0.000000e+00
   outer loop
     vertex -1.093750e-01 -1.484375e-01  0.000000e+00
     vertex -1.093750e-01 -1.484375e-01  5.625000e-01
     vertex -1.093750e-01 -3.906250e-02  5.625000e-01
   endloop
 endfacet
 facet normal  0.000000e+00  1.000000e+00  0.000000e+00
   outer loop
     vertex -7.812500e-02 -3.906250e-02  5.000000e-01
     vertex -1.387779e-17 -3.906250e-02  5.625000e-01
     vertex -1.028754e-17 -3.906250e-02  5.000000e-01
   endloop
 endfacet
 facet normal  0.000000e+00  1.000000e+00 -0.000000e+00
   outer loop
     vertex -7.812500e-02 -3.906250e-02  5.000000e-01
     vertex -1.093750e-01 -3.906250e-02  5.625000e-01
     vertex -1.387779e-17 -3.906250e-02  5.625000e-01
   endloop
 endfacet
 facet normal  0.000000e+00  1.000000e+00 -0.000000e+00
   outer loop
     vertex -7.812500e-02 -3.906250e-02  4.218750e-01
     vertex -1.093750e-01 -3.906250e-02  5.625000e-01
     vertex -7.812500e-02 -3.906250e-02  5.000000e-01
   endloop
 endfacet
 facet normal  0.000000e+00  1.000000e+00 -0.000000e+00
   outer loop
     vertex -1.387779e-17 -3.906250e-02  0.000000e+00
     vertex -7.812500e-02 -3.906250e-02  4.218750e-01
     vertex -1.028754e-17 -3.906250e-02  4.218750e-01
   endloop
 endfacet
 facet normal  0.000000e+00  1.000000e+00  0.000000e+00
   outer loop
     vertex -1.093750e-01 -3.906250e-02  0.000000e+00
     vertex -7.812500e-02 -3.906250e-02  4.218750e-01
     vertex -1.387779e-17 -3.906250e-02  0.000000e+00
   endloop
 endfacet
 facet normal  0.000000e+00  1.000000e+00  0.000000e+00
   outer loop
     vertex -1.093750e-01 -3.906250e-02  5.625000e-01
     vertex -7.812500e-02 -3.906250e-02  4.218750e-01
     vertex -1.093750e-01 -3.906250e-02  0.000000e+00
   endloop
 endfacet
endsolid
