solid 
 facet normal  0.000000e+00 -1.000000e+00  0.000000e+00
   outer loop
     vertex  3.750000e-01 -3.750000e-01  0.000000e+00
     vertex -3.750000e-01 -3.750000e-01  7.500000e-01
     vertex -3.750000e-01 -3.750000e-01  0.000000e+00
   endloop
 endfacet
 facet normal  0.000000e+00 -1.000000e+00  0.000000e+00
   outer loop
     vertex  3.750000e-01 -3.750000e-01  0.000000e+00
     vertex  3.750000e-01 -3.750000e-01  7.500000e-01
     vertex -3.750000e-01 -3.750000e-01  7.500000e-01
   endloop
 endfacet
 facet normal -1.000000e+00  0.000000e+00  0.000000e+00
   outer loop
     vertex -3.750000e-01 -3.750000e-01  0.000000e+00
     vertex -3.750000e-01  3.750000e-01  7.500000e-01
     vertex -3.750000e-01  3.750000e-01  0.000000e+00
   endloop
 endfacet
 facet normal -1.000000e+00  0.000000e+00  0.000000e+00
   outer loop
     vertex -3.750000e-01 -3.750000e-01  0.000000e+00
     vertex -3.750000e-01 -3.750000e-01  7.500000e-01
     vertex -3.750000e-01  3.750000e-01  7.500000e-01
   endloop
 endfacet
 facet normal  1.000000e+00  0.000000e+00  0.000000e+00
   outer loop
     vertex  3.750000e-01  3.750000e-01  0.000000e+00
     vertex  3.750000e-01 -3.750000e-01  7.500000e-01
     vertex  3.750000e-01 -3.750000e-01  0.000000e+00
   endloop
 endfacet
 facet normal  1.000000e+00  0.000000e+00 -0.000000e+00
   outer loop
     vertex  3.750000e-01  3.750000e-01  0.000000e+00
     vertex  3.750000e-01  3.750000e-01  7.500000e-01
     vertex  3.750000e-01 -3.750000e-01  7.500000e-01
   endloop
 endfacet
 facet normal  0.000000e+00 -0.000000e+00 -1.000000e+00
   outer loop
     vertex  3.750000e-01  3.750000e-01  0.000000e+00
     vertex  3.750000e-01 -3.750000e-01  0.000000e+00
     vertex -3.750000e-01 -3.750000e-01  0.000000e+00
   endloop
 endfacet
 facet normal -0.000000e+00  0.000000e+00 -1.000000e+00
   outer loop
     vertex  3.750000e-01  3.750000e-01  0.000000e+00
     vertex -3.750000e-01 -3.750000e-01  0.000000e+00
     vertex -3.750000e-01  3.750000e-01  0.000000e+00
   endloop
 endfacet
 facet normal  0.000000e+00  0.000000e+00  1.000000e+00
   outer loop
     vertex -2.343750e-01  9.375000e-02  7.500000e-01
     vertex -3.750000e-01 -3.750000e-01  7.500000e-01
     vertex -5.279605e-02 -2.410362e-01  7.500000e-01
   endloop
 endfacet
 facet normal  0.000000e+00  0.000000e+00  1.000000e+00
   outer loop
     vertex -3.750000e-01  3.750000e-01  7.500000e-01
     vertex -3.750000e-01 -3.750000e-01  7.500000e-01
     vertex -2.343750e-01  9.375000e-02  7.500000e-01
   endloop
 endfacet
 facet normal  0.000000e+00  0.000000e+00  1.000000e+00
   outer loop
     vertex  3.750000e-01 -3.750000e-01  7.500000e-01
     vertex -5.279605e-02 -2.410362e-01  7.500000e-01
     vertex -3.750000e-01 -3.750000e-01  7.500000e-01
   endloop
 endfacet
 facet normal  0.000000e+00  0.000000e+00  1.000000e+00
   outer loop
     vertex  3.046875e-01 -1.956414e-01  7.500000e-01
     vertex -5.279605e-02 -2.410362e-01  7.500000e-01
     vertex  3.750000e-01 -3.750000e-01  7.500000e-01
   endloop
 endfacet
 facet normal  0.000000e+00  0.000000e+00  1.000000e+00
   outer loop
     vertex  1.529605e-02  2.469572e-01  7.500000e-01
     vertex -3.750000e-01  3.750000e-01  7.500000e-01
     vertex -2.343750e-01  9.375000e-02  7.500000e-01
   endloop
 endfacet
 facet normal  0.000000e+00  0.000000e+00  1.000000e+00
   outer loop
     vertex  3.750000e-01  3.750000e-01  7.500000e-01
     vertex  1.529605e-02  2.469572e-01  7.500000e-01
     vertex  3.046875e-01 -1.956414e-01  7.500000e-01
   endloop
 endfacet
 facet normal  0.000000e+00  0.000000e+00  1.000000e+00
   outer loop
     vertex  3.750000e-01  3.750000e-01  7.500000e-01
     vertex  3.046875e-01 -1.956414e-01  7.500000e-01
     vertex  3.750000e-01 -3.750000e-01  7.500000e-01
   endloop
 endfacet
 facet normal  0.000000e+00  0.000000e+00  1.000000e+00
   outer loop
     vertex  3.750000e-01  3.750000e-01  7.500000e-01
     vertex -3.750000e-01  3.750000e-01  7.500000e-01
     vertex  1.529605e-02  2.469572e-01  7.500000e-01
   endloop
 endfacet
 facet normal  0.000000e+00  1.000000e+00  0.000000e+00
   outer loop
     vertex -3.750000e-01  3.750000e-01  0.000000e+00
     vertex  3.750000e-01  3.750000e-01  7.500000e-01
     vertex  3.750000e-01  3.750000e-01  0.000000e+00
   endloop
 endfacet
 facet normal  0.000000e+00  1.000000e+00  0.000000e+00
   outer loop
     vertex -3.750000e-01  3.750000e-01  0.000000e+00
     vertex -3.750000e-01  3.750000e-01  7.500000e-01
     vertex  3.750000e-01  3.750000e-01  7.500000e-01
   endloop
 endfacet
 facet normal  8.790319e-01  4.767630e-01  0.000000e+00
   outer loop
     vertex -5.279605e-02 -2.410362e-01  7.500000e-01
     vertex -2.343750e-01  9.375000e-02  5.625000e-01
     vertex -2.343750e-01  9.375000e-02  7.500000e-01
   endloop
 endfacet
 facet normal  8.790319e-01  4.767630e-01  0.000000e+00
   outer loop
     vertex -5.279605e-02 -2.410362e-01  7.500000e-01
     vertex -5.279605e-02 -2.410362e-01  5.625000e-01
     vertex -2.343750e-01  9.375000e-02  5.625000e-01
   endloop
 endfacet
 facet normal -1.259725e-01  9.920337e-01  0.000000e+00
   outer loop
     vertex  3.046875e-01 -1.956414e-01  7.500000e-01
     vertex -5.279605e-02 -2.410362e-01  5.625000e-01
     vertex -5.279605e-02 -2.410362e-01  7.500000e-01
   endloop
 endfacet
 facet normal -1.259725e-01  9.920337e-01  0.000000e+00
   outer loop
     vertex  3.046875e-01 -1.956414e-01  7.500000e-01
     vertex  3.046875e-01 -1.956414e-01  5.625000e-01
     vertex -5.279605e-02 -2.410362e-01  5.625000e-01
   endloop
 endfacet
 facet normal -8.369696e-01 -5.472494e-01  0.000000e+00
   outer loop
     vertex  1.529605e-02  2.469572e-01  7.500000e-01
     vertex  3.046875e-01 -1.956414e-01  5.625000e-01
     vertex  3.046875e-01 -1.956414e-01  7.500000e-01
   endloop
 endfacet
 facet normal -8.369696e-01 -5.472494e-01 -0.000000e+00
   outer loop
     vertex  1.529605e-02  2.469572e-01  7.500000e-01
     vertex  1.529605e-02  2.469572e-01  5.625000e-01
     vertex  3.046875e-01 -1.956414e-01  5.625000e-01
   endloop
 endfacet
 facet normal  5.230162e-01 -8.523227e-01  0.000000e+00
   outer loop
     vertex -2.343750e-01  9.375000e-02  7.500000e-01
     vertex  1.529605e-02  2.469572e-01  5.625000e-01
     vertex  1.529605e-02  2.469572e-01  7.500000e-01
   endloop
 endfacet
 facet normal  5.230162e-01 -8.523227e-01  0.000000e+00
   outer loop
     vertex -2.343750e-01  9.375000e-02  7.500000e-01
     vertex -2.343750e-01  9.375000e-02  5.625000e-01
     vertex  1.529605e-02  2.469572e-01  5.625000e-01
   endloop
 endfacet
 facet normal  0.000000e+00  0.000000e+00  1.000000e+00
   outer loop
     vertex  1.529605e-02  2.469572e-01  5.625000e-01
     vertex -2.343750e-01  9.375000e-02  5.625000e-01
     vertex -5.279605e-02 -2.410362e-01  5.625000e-01
   endloop
 endfacet
 facet normal  0.000000e+00  0.000000e+00  1.000000e+00
   outer loop
     vertex  1.529605e-02  2.469572e-01  5.625000e-01
     vertex -5.279605e-02 -2.410362e-01  5.625000e-01
     vertex  3.046875e-01 -1.956414e-01  5.625000e-01
   endloop
 endfacet
endsolid
