solid 
 facet normal  0.000000e+00 -1.000000e+00  0.000000e+00
   outer loop
     vertex  6.197368e-01 -1.328125e-01  0.000000e+00
     vertex -6.250000e-01 -1.328125e-01  7.031250e-02
     vertex -6.250000e-01 -1.328125e-01  0.000000e+00
   endloop
 endfacet
 facet normal  0.000000e+00 -1.000000e+00  0.000000e+00
   outer loop
     vertex  6.197368e-01 -1.328125e-01  0.000000e+00
     vertex  6.197368e-01 -1.328125e-01  7.031250e-02
     vertex -6.250000e-01 -1.328125e-01  7.031250e-02
   endloop
 endfacet
 facet normal -3.090170e-01 -9.510565e-01  0.000000e+00
   outer loop
     vertex -7.058205e-01 -1.065523e-01  0.000000e+00
     vertex -6.250000e-01 -1.328125e-01  0.000000e+00
     vertex -6.250000e-01 -1.328125e-01  7.031250e-02
   endloop
 endfacet
 facet normal -3.090170e-01 -9.510565e-01  0.000000e+00
   outer loop
     vertex -7.058205e-01 -1.065523e-01  0.000000e+00
     vertex -6.250000e-01 -1.328125e-01  7.031250e-02
     vertex -7.058205e-01 -1.065523e-01  7.031250e-02
   endloop
 endfacet
 facet normal -8.090170e-01 -5.877853e-01  0.000000e+00
   outer loop
     vertex -7.557703e-01 -3.780234e-02  0.000000e+00
     vertex -7.058205e-01 -1.065523e-01  7.031250e-02
     vertex -7.557703e-01 -3.780234e-02  7.031250e-02
   endloop
 endfacet
 facet normal -8.090170e-01 -5.877853e-01  0.000000e+00
   outer loop
     vertex -7.557703e-01 -3.780234e-02  0.000000e+00
     vertex -7.058205e-01 -1.065523e-01  0.000000e+00
     vertex -7.058205e-01 -1.065523e-01  7.031250e-02
   endloop
 endfacet
 facet normal -1.000000e+00  0.000000e+00  0.000000e+00
   outer loop
     vertex -7.557703e-01  4.717734e-02  0.000000e+00
     vertex -7.557703e-01 -3.780234e-02  7.031250e-02
     vertex -7.557703e-01  4.717734e-02  7.031250e-02
   endloop
 endfacet
 facet normal -1.000000e+00  0.000000e+00  0.000000e+00
   outer loop
     vertex -7.557703e-01  4.717734e-02  0.000000e+00
     vertex -7.557703e-01 -3.780234e-02  0.000000e+00
     vertex -7.557703e-01 -3.780234e-02  7.031250e-02
   endloop
 endfacet
 facet normal -8.090170e-01  5.877853e-01  0.000000e+00
   outer loop
     vertex -7.058205e-01  1.159273e-01  0.000000e+00
     vertex -7.557703e-01  4.717734e-02  7.031250e-02
     vertex -7.058205e-01  1.159273e-01  7.031250e-02
   endloop
 endfacet
 facet normal -8.090170e-01  5.877853e-01  0.000000e+00
   outer loop
     vertex -7.058205e-01  1.159273e-01  0.000000e+00
     vertex -7.557703e-01  4.717734e-02  0.000000e+00
     vertex -7.557703e-01  4.717734e-02  7.031250e-02
   endloop
 endfacet
 facet normal -3.090170e-01  9.510565e-01  0.000000e+00
   outer loop
     vertex -6.250000e-01  1.421875e-01  0.000000e+00
     vertex -7.058205e-01  1.159273e-01  7.031250e-02
     vertex -6.250000e-01  1.421875e-01  7.031250e-02
   endloop
 endfacet
 facet normal -3.090170e-01  9.510565e-01  0.000000e+00
   outer loop
     vertex -6.250000e-01  1.421875e-01  0.000000e+00
     vertex -7.058205e-01  1.159273e-01  0.000000e+00
     vertex -7.058205e-01  1.159273e-01  7.031250e-02
   endloop
 endfacet
 facet normal  3.090170e-01  9.510565e-01  0.000000e+00
   outer loop
     vertex  7.005573e-01  1.159273e-01  0.000000e+00
     vertex  6.197368e-01  1.421875e-01  0.000000e+00
     vertex  6.197368e-01  1.421875e-01  7.031250e-02
   endloop
 endfacet
 facet normal  3.090170e-01  9.510565e-01 -0.000000e+00
   outer loop
     vertex  7.005573e-01  1.159273e-01  0.000000e+00
     vertex  6.197368e-01  1.421875e-01  7.031250e-02
     vertex  7.005573e-01  1.159273e-01  7.031250e-02
   endloop
 endfacet
 facet normal  8.090170e-01  5.877853e-01 -0.000000e+00
   outer loop
     vertex  7.505071e-01  4.717734e-02  0.000000e+00
     vertex  7.005573e-01  1.159273e-01  7.031250e-02
     vertex  7.505071e-01  4.717734e-02  7.031250e-02
   endloop
 endfacet
 facet normal  8.090170e-01  5.877853e-01  0.000000e+00
   outer loop
     vertex  7.505071e-01  4.717734e-02  0.000000e+00
     vertex  7.005573e-01  1.159273e-01  0.000000e+00
     vertex  7.005573e-01  1.159273e-01  7.031250e-02
   endloop
 endfacet
 facet normal  1.000000e+00  0.000000e+00  0.000000e+00
   outer loop
     vertex  7.505071e-01 -3.780234e-02  0.000000e+00
     vertex  7.505071e-01  4.717734e-02  7.031250e-02
     vertex  7.505071e-01 -3.780234e-02  7.031250e-02
   endloop
 endfacet
 facet normal  1.000000e+00  0.000000e+00  0.000000e+00
   outer loop
     vertex  7.505071e-01 -3.780234e-02  0.000000e+00
     vertex  7.505071e-01  4.717734e-02  0.000000e+00
     vertex  7.505071e-01  4.717734e-02  7.031250e-02
   endloop
 endfacet
 facet normal  8.090170e-01 -5.877853e-01  0.000000e+00
   outer loop
     vertex  7.005573e-01 -1.065523e-01  0.000000e+00
     vertex  7.505071e-01 -3.780234e-02  7.031250e-02
     vertex  7.005573e-01 -1.065523e-01  7.031250e-02
   endloop
 endfacet
 facet normal  8.090170e-01 -5.877853e-01  0.000000e+00
   outer loop
     vertex  7.005573e-01 -1.065523e-01  0.000000e+00
     vertex  7.505071e-01 -3.780234e-02  0.000000e+00
     vertex  7.505071e-01 -3.780234e-02  7.031250e-02
   endloop
 endfacet
 facet normal  3.090170e-01 -9.510565e-01  0.000000e+00
   outer loop
     vertex  6.197368e-01 -1.328125e-01  0.000000e+00
     vertex  7.005573e-01 -1.065523e-01  7.031250e-02
     vertex  6.197368e-01 -1.328125e-01  7.031250e-02
   endloop
 endfacet
 facet normal  3.090170e-01 -9.510565e-01  0.000000e+00
   outer loop
     vertex  6.197368e-01 -1.328125e-01  0.000000e+00
     vertex  7.005573e-01 -1.065523e-01  0.000000e+00
     vertex  7.005573e-01 -1.065523e-01  7.031250e-02
   endloop
 endfacet
 facet normal -0.000000e+00 -1.000000e+00  0.000000e+00
   outer loop
     vertex  6.197368e-01 -1.328125e-01  0.000000e+00
     vertex -6.250000e-01 -1.328125e-01  0.000000e+00
     vertex -6.250000e-01 -1.328125e-01 -7.031250e-02
   endloop
 endfacet
 facet normal  0.000000e+00 -1.000000e+00 -0.000000e+00
   outer loop
     vertex  6.197368e-01 -1.328125e-01  0.000000e+00
     vertex -6.250000e-01 -1.328125e-01 -7.031250e-02
     vertex  6.197368e-01 -1.328125e-01 -7.031250e-02
   endloop
 endfacet
 facet normal  0.000000e+00  0.000000e+00  1.000000e+00
   outer loop
     vertex -6.611842e-01 -6.522223e-02  7.031250e-02
     vertex -7.557703e-01 -3.780234e-02  7.031250e-02
     vertex -7.058205e-01 -1.065523e-01  7.031250e-02
   endloop
 endfacet
 facet normal  0.000000e+00  0.000000e+00  1.000000e+00
   outer loop
     vertex -6.611842e-01 -6.522223e-02  7.031250e-02
     vertex -7.058205e-01 -1.065523e-01  7.031250e-02
     vertex -6.250000e-01 -1.328125e-01  7.031250e-02
   endloop
 endfacet
 facet normal  0.000000e+00  0.000000e+00  1.000000e+00
   outer loop
     vertex -6.973684e-01 -2.549342e-03  7.031250e-02
     vertex -7.557703e-01  4.717734e-02  7.031250e-02
     vertex -7.557703e-01 -3.780234e-02  7.031250e-02
   endloop
 endfacet
 facet normal  0.000000e+00  0.000000e+00  1.000000e+00
   outer loop
     vertex -6.973684e-01 -2.549342e-03  7.031250e-02
     vertex -7.557703e-01 -3.780234e-02  7.031250e-02
     vertex -6.611842e-01 -6.522223e-02  7.031250e-02
   endloop
 endfacet
 facet normal  0.000000e+00  0.000000e+00  1.000000e+00
   outer loop
     vertex -5.888158e-01 -6.522223e-02  7.031250e-02
     vertex -6.611842e-01 -6.522223e-02  7.031250e-02
     vertex -6.250000e-01 -1.328125e-01  7.031250e-02
   endloop
 endfacet
 facet normal  0.000000e+00  0.000000e+00  1.000000e+00
   outer loop
     vertex -6.611842e-01  6.012355e-02  7.031250e-02
     vertex -7.557703e-01  4.717734e-02  7.031250e-02
     vertex -6.973684e-01 -2.549342e-03  7.031250e-02
   endloop
 endfacet
 facet normal  0.000000e+00  0.000000e+00  1.000000e+00
   outer loop
     vertex -7.058205e-01  1.159273e-01  7.031250e-02
     vertex -7.557703e-01  4.717734e-02  7.031250e-02
     vertex -6.611842e-01  6.012355e-02  7.031250e-02
   endloop
 endfacet
 facet normal  0.000000e+00  0.000000e+00  1.000000e+00
   outer loop
     vertex -6.250000e-01  1.421875e-01  7.031250e-02
     vertex -6.611842e-01  6.012355e-02  7.031250e-02
     vertex -5.888158e-01  6.012355e-02  7.031250e-02
   endloop
 endfacet
 facet normal  0.000000e+00  0.000000e+00  1.000000e+00
   outer loop
     vertex -6.250000e-01  1.421875e-01  7.031250e-02
     vertex -7.058205e-01  1.159273e-01  7.031250e-02
     vertex -6.611842e-01  6.012355e-02  7.031250e-02
   endloop
 endfacet
 facet normal  0.000000e+00  0.000000e+00  1.000000e+00
   outer loop
     vertex  5.835526e-01 -6.522223e-02  7.031250e-02
     vertex -6.250000e-01 -1.328125e-01  7.031250e-02
     vertex  6.197368e-01 -1.328125e-01  7.031250e-02
   endloop
 endfacet
 facet normal  0.000000e+00  0.000000e+00  1.000000e+00
   outer loop
     vertex  5.835526e-01 -6.522223e-02  7.031250e-02
     vertex -5.888158e-01 -6.522223e-02  7.031250e-02
     vertex -6.250000e-01 -1.328125e-01  7.031250e-02
   endloop
 endfacet
 facet normal  0.000000e+00  0.000000e+00  1.000000e+00
   outer loop
     vertex  5.473684e-01 -2.549342e-03  7.031250e-02
     vertex -5.526316e-01 -2.549342e-03  7.031250e-02
     vertex -5.888158e-01 -6.522223e-02  7.031250e-02
   endloop
 endfacet
 facet normal  0.000000e+00  0.000000e+00  1.000000e+00
   outer loop
     vertex  5.473684e-01 -2.549342e-03  7.031250e-02
     vertex -5.888158e-01 -6.522223e-02  7.031250e-02
     vertex  5.835526e-01 -6.522223e-02  7.031250e-02
   endloop
 endfacet
 facet normal  0.000000e+00  0.000000e+00  1.000000e+00
   outer loop
     vertex  6.559211e-01 -6.522223e-02  7.031250e-02
     vertex  5.835526e-01 -6.522223e-02  7.031250e-02
     vertex  6.197368e-01 -1.328125e-01  7.031250e-02
   endloop
 endfacet
 facet normal  0.000000e+00  0.000000e+00  1.000000e+00
   outer loop
     vertex  7.005573e-01 -1.065523e-01  7.031250e-02
     vertex  6.559211e-01 -6.522223e-02  7.031250e-02
     vertex  6.197368e-01 -1.328125e-01  7.031250e-02
   endloop
 endfacet
 facet normal  0.000000e+00  0.000000e+00  1.000000e+00
   outer loop
     vertex  5.835526e-01  6.012355e-02  7.031250e-02
     vertex -5.888158e-01  6.012355e-02  7.031250e-02
     vertex -5.526316e-01 -2.549342e-03  7.031250e-02
   endloop
 endfacet
 facet normal  0.000000e+00  0.000000e+00  1.000000e+00
   outer loop
     vertex  5.835526e-01  6.012355e-02  7.031250e-02
     vertex -5.526316e-01 -2.549342e-03  7.031250e-02
     vertex  5.473684e-01 -2.549342e-03  7.031250e-02
   endloop
 endfacet
 facet normal  0.000000e+00  0.000000e+00  1.000000e+00
   outer loop
     vertex  7.505071e-01 -3.780234e-02  7.031250e-02
     vertex  6.921053e-01 -2.549342e-03  7.031250e-02
     vertex  6.559211e-01 -6.522223e-02  7.031250e-02
   endloop
 endfacet
 facet normal  0.000000e+00  0.000000e+00  1.000000e+00
   outer loop
     vertex  7.505071e-01 -3.780234e-02  7.031250e-02
     vertex  6.559211e-01 -6.522223e-02  7.031250e-02
     vertex  7.005573e-01 -1.065523e-01  7.031250e-02
   endloop
 endfacet
 facet normal  0.000000e+00  0.000000e+00  1.000000e+00
   outer loop
     vertex  6.197368e-01  1.421875e-01  7.031250e-02
     vertex  5.835526e-01  6.012355e-02  7.031250e-02
     vertex  6.559211e-01  6.012355e-02  7.031250e-02
   endloop
 endfacet
 facet normal  0.000000e+00  0.000000e+00  1.000000e+00
   outer loop
     vertex  6.197368e-01  1.421875e-01  7.031250e-02
     vertex -6.250000e-01  1.421875e-01  7.031250e-02
     vertex -5.888158e-01  6.012355e-02  7.031250e-02
   endloop
 endfacet
 facet normal  0.000000e+00  0.000000e+00  1.000000e+00
   outer loop
     vertex  6.197368e-01  1.421875e-01  7.031250e-02
     vertex -5.888158e-01  6.012355e-02  7.031250e-02
     vertex  5.835526e-01  6.012355e-02  7.031250e-02
   endloop
 endfacet
 facet normal  0.000000e+00  0.000000e+00  1.000000e+00
   outer loop
     vertex  7.505071e-01  4.717734e-02  7.031250e-02
     vertex  6.559211e-01  6.012355e-02  7.031250e-02
     vertex  6.921053e-01 -2.549342e-03  7.031250e-02
   endloop
 endfacet
 facet normal  0.000000e+00  0.000000e+00  1.000000e+00
   outer loop
     vertex  7.505071e-01  4.717734e-02  7.031250e-02
     vertex  6.921053e-01 -2.549342e-03  7.031250e-02
     vertex  7.505071e-01 -3.780234e-02  7.031250e-02
   endloop
 endfacet
 facet normal  0.000000e+00  0.000000e+00  1.000000e+00
   outer loop
     vertex  7.005573e-01  1.159273e-01  7.031250e-02
     vertex  6.197368e-01  1.421875e-01  7.031250e-02
     vertex  6.559211e-01  6.012355e-02  7.031250e-02
   endloop
 endfacet
 facet normal  0.000000e+00  0.000000e+00  1.000000e+00
   outer loop
     vertex  7.005573e-01  1.159273e-01  7.031250e-02
     vertex  6.559211e-01  6.012355e-02  7.031250e-02
     vertex  7.505071e-01  4.717734e-02  7.031250e-02
   endloop
 endfacet
 facet normal  0.000000e+00  1.000000e+00  0.000000e+00
   outer loop
     vertex -6.250000e-01  1.421875e-01  0.000000e+00
     vertex  6.197368e-01  1.421875e-01  7.031250e-02
     vertex  6.197368e-01  1.421875e-01  0.000000e+00
   endloop
 endfacet
 facet normal  0.000000e+00  1.000000e+00  0.000000e+00
   outer loop
     vertex -6.250000e-01  1.421875e-01  0.000000e+00
     vertex -6.250000e-01  1.421875e-01  7.031250e-02
     vertex  6.197368e-01  1.421875e-01  7.031250e-02
   endloop
 endfacet
 facet normal -3.090170e-01  9.510565e-01  0.000000e+00
   outer loop
     vertex -7.058205e-01  1.159273e-01  0.000000e+00
     vertex -6.250000e-01  1.421875e-01  0.000000e+00
     vertex -6.250000e-01  1.421875e-01 -7.031250e-02
   endloop
 endfacet
 facet normal -3.090170e-01  9.510565e-01  0.000000e+00
   outer loop
     vertex -7.058205e-01  1.159273e-01  0.000000e+00
     vertex -6.250000e-01  1.421875e-01 -7.031250e-02
     vertex -7.058205e-01  1.159273e-01 -7.031250e-02
   endloop
 endfacet
 facet normal -8.090170e-01  5.877853e-01  0.000000e+00
   outer loop
     vertex -7.557703e-01  4.717734e-02  0.000000e+00
     vertex -7.058205e-01  1.159273e-01 -7.031250e-02
     vertex -7.557703e-01  4.717734e-02 -7.031250e-02
   endloop
 endfacet
 facet normal -8.090170e-01  5.877853e-01  0.000000e+00
   outer loop
     vertex -7.557703e-01  4.717734e-02  0.000000e+00
     vertex -7.058205e-01  1.159273e-01  0.000000e+00
     vertex -7.058205e-01  1.159273e-01 -7.031250e-02
   endloop
 endfacet
 facet normal -1.000000e+00  0.000000e+00  0.000000e+00
   outer loop
     vertex -7.557703e-01 -3.780234e-02  0.000000e+00
     vertex -7.557703e-01  4.717734e-02 -7.031250e-02
     vertex -7.557703e-01 -3.780234e-02 -7.031250e-02
   endloop
 endfacet
 facet normal -1.000000e+00  0.000000e+00  0.000000e+00
   outer loop
     vertex -7.557703e-01 -3.780234e-02  0.000000e+00
     vertex -7.557703e-01  4.717734e-02  0.000000e+00
     vertex -7.557703e-01  4.717734e-02 -7.031250e-02
   endloop
 endfacet
 facet normal -8.090170e-01 -5.877853e-01 -0.000000e+00
   outer loop
     vertex -7.058205e-01 -1.065523e-01  0.000000e+00
     vertex -7.557703e-01 -3.780234e-02 -7.031250e-02
     vertex -7.058205e-01 -1.065523e-01 -7.031250e-02
   endloop
 endfacet
 facet normal -8.090170e-01 -5.877853e-01  0.000000e+00
   outer loop
     vertex -7.058205e-01 -1.065523e-01  0.000000e+00
     vertex -7.557703e-01 -3.780234e-02  0.000000e+00
     vertex -7.557703e-01 -3.780234e-02 -7.031250e-02
   endloop
 endfacet
 facet normal -3.090170e-01 -9.510565e-01 -0.000000e+00
   outer loop
     vertex -6.250000e-01 -1.328125e-01  0.000000e+00
     vertex -7.058205e-01 -1.065523e-01 -7.031250e-02
     vertex -6.250000e-01 -1.328125e-01 -7.031250e-02
   endloop
 endfacet
 facet normal -3.090170e-01 -9.510565e-01  0.000000e+00
   outer loop
     vertex -6.250000e-01 -1.328125e-01  0.000000e+00
     vertex -7.058205e-01 -1.065523e-01  0.000000e+00
     vertex -7.058205e-01 -1.065523e-01 -7.031250e-02
   endloop
 endfacet
 facet normal  3.090170e-01 -9.510565e-01  0.000000e+00
   outer loop
     vertex  7.005573e-01 -1.065523e-01  0.000000e+00
     vertex  6.197368e-01 -1.328125e-01  0.000000e+00
     vertex  6.197368e-01 -1.328125e-01 -7.031250e-02
   endloop
 endfacet
 facet normal  3.090170e-01 -9.510565e-01  0.000000e+00
   outer loop
     vertex  7.005573e-01 -1.065523e-01  0.000000e+00
     vertex  6.197368e-01 -1.328125e-01 -7.031250e-02
     vertex  7.005573e-01 -1.065523e-01 -7.031250e-02
   endloop
 endfacet
 facet normal  8.090170e-01 -5.877853e-01  0.000000e+00
   outer loop
     vertex  7.505071e-01 -3.780234e-02  0.000000e+00
     vertex  7.005573e-01 -1.065523e-01 -7.031250e-02
     vertex  7.505071e-01 -3.780234e-02 -7.031250e-02
   endloop
 endfacet
 facet normal  8.090170e-01 -5.877853e-01  0.000000e+00
   outer loop
     vertex  7.505071e-01 -3.780234e-02  0.000000e+00
     vertex  7.005573e-01 -1.065523e-01  0.000000e+00
     vertex  7.005573e-01 -1.065523e-01 -7.031250e-02
   endloop
 endfacet
 facet normal  1.000000e+00  0.000000e+00  0.000000e+00
   outer loop
     vertex  7.505071e-01  4.717734e-02  0.000000e+00
     vertex  7.505071e-01 -3.780234e-02 -7.031250e-02
     vertex  7.505071e-01  4.717734e-02 -7.031250e-02
   endloop
 endfacet
 facet normal  1.000000e+00  0.000000e+00  0.000000e+00
   outer loop
     vertex  7.505071e-01  4.717734e-02  0.000000e+00
     vertex  7.505071e-01 -3.780234e-02  0.000000e+00
     vertex  7.505071e-01 -3.780234e-02 -7.031250e-02
   endloop
 endfacet
 facet normal  8.090170e-01  5.877853e-01  0.000000e+00
   outer loop
     vertex  7.005573e-01  1.159273e-01  0.000000e+00
     vertex  7.505071e-01  4.717734e-02 -7.031250e-02
     vertex  7.005573e-01  1.159273e-01 -7.031250e-02
   endloop
 endfacet
 facet normal  8.090170e-01  5.877853e-01  0.000000e+00
   outer loop
     vertex  7.005573e-01  1.159273e-01  0.000000e+00
     vertex  7.505071e-01  4.717734e-02  0.000000e+00
     vertex  7.505071e-01  4.717734e-02 -7.031250e-02
   endloop
 endfacet
 facet normal  3.090170e-01  9.510565e-01  0.000000e+00
   outer loop
     vertex  6.197368e-01  1.421875e-01  0.000000e+00
     vertex  7.005573e-01  1.159273e-01 -7.031250e-02
     vertex  6.197368e-01  1.421875e-01 -7.031250e-02
   endloop
 endfacet
 facet normal  3.090170e-01  9.510565e-01  0.000000e+00
   outer loop
     vertex  6.197368e-01  1.421875e-01  0.000000e+00
     vertex  7.005573e-01  1.159273e-01  0.000000e+00
     vertex  7.005573e-01  1.159273e-01 -7.031250e-02
   endloop
 endfacet
 facet normal -0.000000e+00  0.000000e+00 -1.000000e+00
   outer loop
     vertex -6.611842e-01 -6.522223e-02 -7.031250e-02
     vertex -7.058205e-01 -1.065523e-01 -7.031250e-02
     vertex -7.557703e-01 -3.780234e-02 -7.031250e-02
   endloop
 endfacet
 facet normal  0.000000e+00 -0.000000e+00 -1.000000e+00
   outer loop
     vertex -6.611842e-01 -6.522223e-02 -7.031250e-02
     vertex -6.250000e-01 -1.328125e-01 -7.031250e-02
     vertex -7.058205e-01 -1.065523e-01 -7.031250e-02
   endloop
 endfacet
 facet normal -0.000000e+00  0.000000e+00 -1.000000e+00
   outer loop
     vertex -6.973684e-01 -2.549342e-03 -7.031250e-02
     vertex -7.557703e-01 -3.780234e-02 -7.031250e-02
     vertex -7.557703e-01  4.717734e-02 -7.031250e-02
   endloop
 endfacet
 facet normal  0.000000e+00 -0.000000e+00 -1.000000e+00
   outer loop
     vertex -6.973684e-01 -2.549342e-03 -7.031250e-02
     vertex -6.611842e-01 -6.522223e-02 -7.031250e-02
     vertex -7.557703e-01 -3.780234e-02 -7.031250e-02
   endloop
 endfacet
 facet normal -0.000000e+00  0.000000e+00 -1.000000e+00
   outer loop
     vertex -5.888158e-01 -6.522223e-02 -7.031250e-02
     vertex -6.250000e-01 -1.328125e-01 -7.031250e-02
     vertex -6.611842e-01 -6.522223e-02 -7.031250e-02
   endloop
 endfacet
 facet normal  0.000000e+00  0.000000e+00 -1.000000e+00
   outer loop
     vertex -6.611842e-01  6.012355e-02 -7.031250e-02
     vertex -6.973684e-01 -2.549342e-03 -7.031250e-02
     vertex -7.557703e-01  4.717734e-02 -7.031250e-02
   endloop
 endfacet
 facet normal  0.000000e+00 -0.000000e+00 -1.000000e+00
   outer loop
     vertex -7.058205e-01  1.159273e-01 -7.031250e-02
     vertex -6.611842e-01  6.012355e-02 -7.031250e-02
     vertex -7.557703e-01  4.717734e-02 -7.031250e-02
   endloop
 endfacet
 facet normal  0.000000e+00 -0.000000e+00 -1.000000e+00
   outer loop
     vertex -6.250000e-01  1.421875e-01 -7.031250e-02
     vertex -5.888158e-01  6.012355e-02 -7.031250e-02
     vertex -6.611842e-01  6.012355e-02 -7.031250e-02
   endloop
 endfacet
 facet normal  0.000000e+00  0.000000e+00 -1.000000e+00
   outer loop
     vertex -6.250000e-01  1.421875e-01 -7.031250e-02
     vertex -6.611842e-01  6.012355e-02 -7.031250e-02
     vertex -7.058205e-01  1.159273e-01 -7.031250e-02
   endloop
 endfacet
 facet normal  0.000000e+00 -0.000000e+00 -1.000000e+00
   outer loop
     vertex  5.835526e-01 -6.522223e-02 -7.031250e-02
     vertex  6.197368e-01 -1.328125e-01 -7.031250e-02
     vertex -6.250000e-01 -1.328125e-01 -7.031250e-02
   endloop
 endfacet
 facet normal  0.000000e+00  0.000000e+00 -1.000000e+00
   outer loop
     vertex  5.835526e-01 -6.522223e-02 -7.031250e-02
     vertex -6.250000e-01 -1.328125e-01 -7.031250e-02
     vertex -5.888158e-01 -6.522223e-02 -7.031250e-02
   endloop
 endfacet
 facet normal  0.000000e+00  0.000000e+00 -1.000000e+00
   outer loop
     vertex  5.473684e-01 -2.549342e-03 -7.031250e-02
     vertex -5.888158e-01 -6.522223e-02 -7.031250e-02
     vertex -5.526316e-01 -2.549342e-03 -7.031250e-02
   endloop
 endfacet
 facet normal  0.000000e+00 -0.000000e+00 -1.000000e+00
   outer loop
     vertex  5.473684e-01 -2.549342e-03 -7.031250e-02
     vertex  5.835526e-01 -6.522223e-02 -7.031250e-02
     vertex -5.888158e-01 -6.522223e-02 -7.031250e-02
   endloop
 endfacet
 facet normal -0.000000e+00  0.000000e+00 -1.000000e+00
   outer loop
     vertex  6.559211e-01 -6.522223e-02 -7.031250e-02
     vertex  6.197368e-01 -1.328125e-01 -7.031250e-02
     vertex  5.835526e-01 -6.522223e-02 -7.031250e-02
   endloop
 endfacet
 facet normal -0.000000e+00  0.000000e+00 -1.000000e+00
   outer loop
     vertex  7.005573e-01 -1.065523e-01 -7.031250e-02
     vertex  6.197368e-01 -1.328125e-01 -7.031250e-02
     vertex  6.559211e-01 -6.522223e-02 -7.031250e-02
   endloop
 endfacet
 facet normal  0.000000e+00  0.000000e+00 -1.000000e+00
   outer loop
     vertex  5.835526e-01  6.012355e-02 -7.031250e-02
     vertex -5.526316e-01 -2.549342e-03 -7.031250e-02
     vertex -5.888158e-01  6.012355e-02 -7.031250e-02
   endloop
 endfacet
 facet normal  0.000000e+00  0.000000e+00 -1.000000e+00
   outer loop
     vertex  5.835526e-01  6.012355e-02 -7.031250e-02
     vertex  5.473684e-01 -2.549342e-03 -7.031250e-02
     vertex -5.526316e-01 -2.549342e-03 -7.031250e-02
   endloop
 endfacet
 facet normal -0.000000e+00  0.000000e+00 -1.000000e+00
   outer loop
     vertex  7.505071e-01 -3.780234e-02 -7.031250e-02
     vertex  6.559211e-01 -6.522223e-02 -7.031250e-02
     vertex  6.921053e-01 -2.549342e-03 -7.031250e-02
   endloop
 endfacet
 facet normal  0.000000e+00  0.000000e+00 -1.000000e+00
   outer loop
     vertex  7.505071e-01 -3.780234e-02 -7.031250e-02
     vertex  7.005573e-01 -1.065523e-01 -7.031250e-02
     vertex  6.559211e-01 -6.522223e-02 -7.031250e-02
   endloop
 endfacet
 facet normal  0.000000e+00 -0.000000e+00 -1.000000e+00
   outer loop
     vertex  6.197368e-01  1.421875e-01 -7.031250e-02
     vertex  6.559211e-01  6.012355e-02 -7.031250e-02
     vertex  5.835526e-01  6.012355e-02 -7.031250e-02
   endloop
 endfacet
 facet normal -0.000000e+00  0.000000e+00 -1.000000e+00
   outer loop
     vertex  6.197368e-01  1.421875e-01 -7.031250e-02
     vertex -5.888158e-01  6.012355e-02 -7.031250e-02
     vertex -6.250000e-01  1.421875e-01 -7.031250e-02
   endloop
 endfacet
 facet normal  0.000000e+00  0.000000e+00 -1.000000e+00
   outer loop
     vertex  6.197368e-01  1.421875e-01 -7.031250e-02
     vertex  5.835526e-01  6.012355e-02 -7.031250e-02
     vertex -5.888158e-01  6.012355e-02 -7.031250e-02
   endloop
 endfacet
 facet normal -0.000000e+00  0.000000e+00 -1.000000e+00
   outer loop
     vertex  7.505071e-01  4.717734e-02 -7.031250e-02
     vertex  6.921053e-01 -2.549342e-03 -7.031250e-02
     vertex  6.559211e-01  6.012355e-02 -7.031250e-02
   endloop
 endfacet
 facet normal  0.000000e+00 -0.000000e+00 -1.000000e+00
   outer loop
     vertex  7.505071e-01  4.717734e-02 -7.031250e-02
     vertex  7.505071e-01 -3.780234e-02 -7.031250e-02
     vertex  6.921053e-01 -2.549342e-03 -7.031250e-02
   endloop
 endfacet
 facet normal -0.000000e+00  0.000000e+00 -1.000000e+00
   outer loop
     vertex  7.005573e-01  1.159273e-01 -7.031250e-02
     vertex  6.559211e-01  6.012355e-02 -7.031250e-02
     vertex  6.197368e-01  1.421875e-01 -7.031250e-02
   endloop
 endfacet
 facet normal  0.000000e+00 -0.000000e+00 -1.000000e+00
   outer loop
     vertex  7.005573e-01  1.159273e-01 -7.031250e-02
     vertex  7.505071e-01  4.717734e-02 -7.031250e-02
     vertex  6.559211e-01  6.012355e-02 -7.031250e-02
   endloop
 endfacet
 facet normal -8.660254e-01  5.000000e-01  0.000000e+00
   outer loop
     vertex -5.888158e-01 -6.522223e-02  0.000000e+00
     vertex -5.526316e-01 -2.549342e-03  7.031250e-02
     vertex -5.526316e-01 -2.549342e-03  0.000000e+00
   endloop
 endfacet
 facet normal -8.660254e-01  5.000000e-01  0.000000e+00
   outer loop
     vertex -5.888158e-01 -6.522223e-02  0.000000e+00
     vertex -5.888158e-01 -6.522223e-02  7.031250e-02
     vertex -5.526316e-01 -2.549342e-03  7.031250e-02
   endloop
 endfacet
 facet normal  7.670632e-16  1.000000e+00 -0.000000e+00
   outer loop
     vertex -6.611842e-01 -6.522223e-02  0.000000e+00
     vertex -6.611842e-01 -6.522223e-02  7.031250e-02
     vertex -5.888158e-01 -6.522223e-02  7.031250e-02
   endloop
 endfacet
 facet normal  7.670632e-16  1.000000e+00  0.000000e+00
   outer loop
     vertex -6.611842e-01 -6.522223e-02  0.000000e+00
     vertex -5.888158e-01 -6.522223e-02  7.031250e-02
     vertex -5.888158e-01 -6.522223e-02  0.000000e+00
   endloop
 endfacet
 facet normal  8.660254e-01  5.000000e-01 -0.000000e+00
   outer loop
     vertex -6.973684e-01 -2.549342e-03  0.000000e+00
     vertex -6.973684e-01 -2.549342e-03  7.031250e-02
     vertex -6.611842e-01 -6.522223e-02  7.031250e-02
   endloop
 endfacet
 facet normal  8.660254e-01  5.000000e-01  0.000000e+00
   outer loop
     vertex -6.973684e-01 -2.549342e-03  0.000000e+00
     vertex -6.611842e-01 -6.522223e-02  7.031250e-02
     vertex -6.611842e-01 -6.522223e-02  0.000000e+00
   endloop
 endfacet
 facet normal  8.660254e-01 -5.000000e-01  0.000000e+00
   outer loop
     vertex -6.611842e-01  6.012355e-02  0.000000e+00
     vertex -6.611842e-01  6.012355e-02  7.031250e-02
     vertex -6.973684e-01 -2.549342e-03  7.031250e-02
   endloop
 endfacet
 facet normal  8.660254e-01 -5.000000e-01  0.000000e+00
   outer loop
     vertex -6.611842e-01  6.012355e-02  0.000000e+00
     vertex -6.973684e-01 -2.549342e-03  7.031250e-02
     vertex -6.973684e-01 -2.549342e-03  0.000000e+00
   endloop
 endfacet
 facet normal -1.917658e-16 -1.000000e+00  0.000000e+00
   outer loop
     vertex -5.888158e-01  6.012355e-02  0.000000e+00
     vertex -5.888158e-01  6.012355e-02  7.031250e-02
     vertex -6.611842e-01  6.012355e-02  7.031250e-02
   endloop
 endfacet
 facet normal -1.917658e-16 -1.000000e+00  0.000000e+00
   outer loop
     vertex -5.888158e-01  6.012355e-02  0.000000e+00
     vertex -6.611842e-01  6.012355e-02  7.031250e-02
     vertex -6.611842e-01  6.012355e-02  0.000000e+00
   endloop
 endfacet
 facet normal -8.660254e-01 -5.000000e-01  0.000000e+00
   outer loop
     vertex -5.526316e-01 -2.549342e-03  0.000000e+00
     vertex -5.526316e-01 -2.549342e-03  7.031250e-02
     vertex -5.888158e-01  6.012355e-02  7.031250e-02
   endloop
 endfacet
 facet normal -8.660254e-01 -5.000000e-01  0.000000e+00
   outer loop
     vertex -5.526316e-01 -2.549342e-03  0.000000e+00
     vertex -5.888158e-01  6.012355e-02  7.031250e-02
     vertex -5.888158e-01  6.012355e-02  0.000000e+00
   endloop
 endfacet
 facet normal -8.660254e-01  5.000000e-01  0.000000e+00
   outer loop
     vertex  6.559211e-01 -6.522223e-02  0.000000e+00
     vertex  6.921053e-01 -2.549342e-03  7.031250e-02
     vertex  6.921053e-01 -2.549342e-03  0.000000e+00
   endloop
 endfacet
 facet normal -8.660254e-01  5.000000e-01  0.000000e+00
   outer loop
     vertex  6.559211e-01 -6.522223e-02  0.000000e+00
     vertex  6.559211e-01 -6.522223e-02  7.031250e-02
     vertex  6.921053e-01 -2.549342e-03  7.031250e-02
   endloop
 endfacet
 facet normal  7.670632e-16  1.000000e+00 -0.000000e+00
   outer loop
     vertex  5.835526e-01 -6.522223e-02  0.000000e+00
     vertex  5.835526e-01 -6.522223e-02  7.031250e-02
     vertex  6.559211e-01 -6.522223e-02  7.031250e-02
   endloop
 endfacet
 facet normal  7.670632e-16  1.000000e+00  0.000000e+00
   outer loop
     vertex  5.835526e-01 -6.522223e-02  0.000000e+00
     vertex  6.559211e-01 -6.522223e-02  7.031250e-02
     vertex  6.559211e-01 -6.522223e-02  0.000000e+00
   endloop
 endfacet
 facet normal  8.660254e-01  5.000000e-01 -0.000000e+00
   outer loop
     vertex  5.473684e-01 -2.549342e-03  0.000000e+00
     vertex  5.473684e-01 -2.549342e-03  7.031250e-02
     vertex  5.835526e-01 -6.522223e-02  7.031250e-02
   endloop
 endfacet
 facet normal  8.660254e-01  5.000000e-01  0.000000e+00
   outer loop
     vertex  5.473684e-01 -2.549342e-03  0.000000e+00
     vertex  5.835526e-01 -6.522223e-02  7.031250e-02
     vertex  5.835526e-01 -6.522223e-02  0.000000e+00
   endloop
 endfacet
 facet normal  8.660254e-01 -5.000000e-01  0.000000e+00
   outer loop
     vertex  5.835526e-01  6.012355e-02  0.000000e+00
     vertex  5.835526e-01  6.012355e-02  7.031250e-02
     vertex  5.473684e-01 -2.549342e-03  7.031250e-02
   endloop
 endfacet
 facet normal  8.660254e-01 -5.000000e-01  0.000000e+00
   outer loop
     vertex  5.835526e-01  6.012355e-02  0.000000e+00
     vertex  5.473684e-01 -2.549342e-03  7.031250e-02
     vertex  5.473684e-01 -2.549342e-03  0.000000e+00
   endloop
 endfacet
 facet normal -1.917658e-16 -1.000000e+00  0.000000e+00
   outer loop
     vertex  6.559211e-01  6.012355e-02  0.000000e+00
     vertex  6.559211e-01  6.012355e-02  7.031250e-02
     vertex  5.835526e-01  6.012355e-02  7.031250e-02
   endloop
 endfacet
 facet normal -1.917658e-16 -1.000000e+00  0.000000e+00
   outer loop
     vertex  6.559211e-01  6.012355e-02  0.000000e+00
     vertex  5.835526e-01  6.012355e-02  7.031250e-02
     vertex  5.835526e-01  6.012355e-02  0.000000e+00
   endloop
 endfacet
 facet normal -8.660254e-01 -5.000000e-01  0.000000e+00
   outer loop
     vertex  6.921053e-01 -2.549342e-03  0.000000e+00
     vertex  6.921053e-01 -2.549342e-03  7.031250e-02
     vertex  6.559211e-01  6.012355e-02  7.031250e-02
   endloop
 endfacet
 facet normal -8.660254e-01 -5.000000e-01  0.000000e+00
   outer loop
     vertex  6.921053e-01 -2.549342e-03  0.000000e+00
     vertex  6.559211e-01  6.012355e-02  7.031250e-02
     vertex  6.559211e-01  6.012355e-02  0.000000e+00
   endloop
 endfacet
 facet normal -0.000000e+00  1.000000e+00  0.000000e+00
   outer loop
     vertex -6.250000e-01  1.421875e-01  0.000000e+00
     vertex  6.197368e-01  1.421875e-01  0.000000e+00
     vertex  6.197368e-01  1.421875e-01 -7.031250e-02
   endloop
 endfacet
 facet normal  0.000000e+00  1.000000e+00  0.000000e+00
   outer loop
     vertex -6.250000e-01  1.421875e-01  0.000000e+00
     vertex  6.197368e-01  1.421875e-01 -7.031250e-02
     vertex -6.250000e-01  1.421875e-01 -7.031250e-02
   endloop
 endfacet
 facet normal -8.660254e-01 -5.000000e-01  0.000000e+00
   outer loop
     vertex -5.888158e-01  6.012355e-02  0.000000e+00
     vertex -5.526316e-01 -2.549342e-03 -7.031250e-02
     vertex -5.526316e-01 -2.549342e-03  0.000000e+00
   endloop
 endfacet
 facet normal -8.660254e-01 -5.000000e-01 -0.000000e+00
   outer loop
     vertex -5.888158e-01  6.012355e-02  0.000000e+00
     vertex -5.888158e-01  6.012355e-02 -7.031250e-02
     vertex -5.526316e-01 -2.549342e-03 -7.031250e-02
   endloop
 endfacet
 facet normal -1.917658e-16 -1.000000e+00 -0.000000e+00
   outer loop
     vertex -6.611842e-01  6.012355e-02  0.000000e+00
     vertex -6.611842e-01  6.012355e-02 -7.031250e-02
     vertex -5.888158e-01  6.012355e-02 -7.031250e-02
   endloop
 endfacet
 facet normal -1.917658e-16 -1.000000e+00  0.000000e+00
   outer loop
     vertex -6.611842e-01  6.012355e-02  0.000000e+00
     vertex -5.888158e-01  6.012355e-02 -7.031250e-02
     vertex -5.888158e-01  6.012355e-02  0.000000e+00
   endloop
 endfacet
 facet normal  8.660254e-01 -5.000000e-01  0.000000e+00
   outer loop
     vertex -6.973684e-01 -2.549342e-03  0.000000e+00
     vertex -6.973684e-01 -2.549342e-03 -7.031250e-02
     vertex -6.611842e-01  6.012355e-02 -7.031250e-02
   endloop
 endfacet
 facet normal  8.660254e-01 -5.000000e-01  0.000000e+00
   outer loop
     vertex -6.973684e-01 -2.549342e-03  0.000000e+00
     vertex -6.611842e-01  6.012355e-02 -7.031250e-02
     vertex -6.611842e-01  6.012355e-02  0.000000e+00
   endloop
 endfacet
 facet normal  8.660254e-01  5.000000e-01  0.000000e+00
   outer loop
     vertex -6.611842e-01 -6.522223e-02  0.000000e+00
     vertex -6.611842e-01 -6.522223e-02 -7.031250e-02
     vertex -6.973684e-01 -2.549342e-03 -7.031250e-02
   endloop
 endfacet
 facet normal  8.660254e-01  5.000000e-01  0.000000e+00
   outer loop
     vertex -6.611842e-01 -6.522223e-02  0.000000e+00
     vertex -6.973684e-01 -2.549342e-03 -7.031250e-02
     vertex -6.973684e-01 -2.549342e-03  0.000000e+00
   endloop
 endfacet
 facet normal  7.670632e-16  1.000000e+00  0.000000e+00
   outer loop
     vertex -5.888158e-01 -6.522223e-02  0.000000e+00
     vertex -5.888158e-01 -6.522223e-02 -7.031250e-02
     vertex -6.611842e-01 -6.522223e-02 -7.031250e-02
   endloop
 endfacet
 facet normal  7.670632e-16  1.000000e+00  0.000000e+00
   outer loop
     vertex -5.888158e-01 -6.522223e-02  0.000000e+00
     vertex -6.611842e-01 -6.522223e-02 -7.031250e-02
     vertex -6.611842e-01 -6.522223e-02  0.000000e+00
   endloop
 endfacet
 facet normal -8.660254e-01  5.000000e-01  0.000000e+00
   outer loop
     vertex -5.526316e-01 -2.549342e-03  0.000000e+00
     vertex -5.526316e-01 -2.549342e-03 -7.031250e-02
     vertex -5.888158e-01 -6.522223e-02 -7.031250e-02
   endloop
 endfacet
 facet normal -8.660254e-01  5.000000e-01  0.000000e+00
   outer loop
     vertex -5.526316e-01 -2.549342e-03  0.000000e+00
     vertex -5.888158e-01 -6.522223e-02 -7.031250e-02
     vertex -5.888158e-01 -6.522223e-02  0.000000e+00
   endloop
 endfacet
 facet normal -8.660254e-01 -5.000000e-01  0.000000e+00
   outer loop
     vertex  6.559211e-01  6.012355e-02  0.000000e+00
     vertex  6.921053e-01 -2.549342e-03 -7.031250e-02
     vertex  6.921053e-01 -2.549342e-03  0.000000e+00
   endloop
 endfacet
 facet normal -8.660254e-01 -5.000000e-01 -0.000000e+00
   outer loop
     vertex  6.559211e-01  6.012355e-02  0.000000e+00
     vertex  6.559211e-01  6.012355e-02 -7.031250e-02
     vertex  6.921053e-01 -2.549342e-03 -7.031250e-02
   endloop
 endfacet
 facet normal -1.917658e-16 -1.000000e+00 -0.000000e+00
   outer loop
     vertex  5.835526e-01  6.012355e-02  0.000000e+00
     vertex  5.835526e-01  6.012355e-02 -7.031250e-02
     vertex  6.559211e-01  6.012355e-02 -7.031250e-02
   endloop
 endfacet
 facet normal -1.917658e-16 -1.000000e+00  0.000000e+00
   outer loop
     vertex  5.835526e-01  6.012355e-02  0.000000e+00
     vertex  6.559211e-01  6.012355e-02 -7.031250e-02
     vertex  6.559211e-01  6.012355e-02  0.000000e+00
   endloop
 endfacet
 facet normal  8.660254e-01 -5.000000e-01  0.000000e+00
   outer loop
     vertex  5.473684e-01 -2.549342e-03  0.000000e+00
     vertex  5.473684e-01 -2.549342e-03 -7.031250e-02
     vertex  5.835526e-01  6.012355e-02 -7.031250e-02
   endloop
 endfacet
 facet normal  8.660254e-01 -5.000000e-01  0.000000e+00
   outer loop
     vertex  5.473684e-01 -2.549342e-03  0.000000e+00
     vertex  5.835526e-01  6.012355e-02 -7.031250e-02
     vertex  5.835526e-01  6.012355e-02  0.000000e+00
   endloop
 endfacet
 facet normal  8.660254e-01  5.000000e-01  0.000000e+00
   outer loop
     vertex  5.835526e-01 -6.522223e-02  0.000000e+00
     vertex  5.835526e-01 -6.522223e-02 -7.031250e-02
     vertex  5.473684e-01 -2.549342e-03 -7.031250e-02
   endloop
 endfacet
 facet normal  8.660254e-01  5.000000e-01  0.000000e+00
   outer loop
     vertex  5.835526e-01 -6.522223e-02  0.000000e+00
     vertex  5.473684e-01 -2.549342e-03 -7.031250e-02
     vertex  5.473684e-01 -2.549342e-03  0.000000e+00
   endloop
 endfacet
 facet normal  7.670632e-16  1.000000e+00  0.000000e+00
   outer loop
     vertex  6.559211e-01 -6.522223e-02  0.000000e+00
     vertex  6.559211e-01 -6.522223e-02 -7.031250e-02
     vertex  5.835526e-01 -6.522223e-02 -7.031250e-02
   endloop
 endfacet
 facet normal  7.670632e-16  1.000000e+00  0.000000e+00
   outer loop
     vertex  6.559211e-01 -6.522223e-02  0.000000e+00
     vertex  5.835526e-01 -6.522223e-02 -7.031250e-02
     vertex  5.835526e-01 -6.522223e-02  0.000000e+00
   endloop
 endfacet
 facet normal -8.660254e-01  5.000000e-01  0.000000e+00
   outer loop
     vertex  6.921053e-01 -2.549342e-03  0.000000e+00
     vertex  6.921053e-01 -2.549342e-03 -7.031250e-02
     vertex  6.559211e-01 -6.522223e-02 -7.031250e-02
   endloop
 endfacet
 facet normal -8.660254e-01  5.000000e-01  0.000000e+00
   outer loop
     vertex  6.921053e-01 -2.549342e-03  0.000000e+00
     vertex  6.559211e-01 -6.522223e-02 -7.031250e-02
     vertex  6.559211e-01 -6.522223e-02  0.000000e+00
   endloop
 endfacet
endsolid
