solid 
 facet normal  0.000000e+00 -1.000000e+00  0.000000e+00
   outer loop
     vertex  7.500000e-01  0.000000e+00  0.000000e+00
     vertex  0.000000e+00  0.000000e+00  2.500000e-01
     vertex  0.000000e+00  0.000000e+00  0.000000e+00
   endloop
 endfacet
 facet normal  0.000000e+00 -1.000000e+00  0.000000e+00
   outer loop
     vertex  7.500000e-01  0.000000e+00  0.000000e+00
     vertex  7.500000e-01  0.000000e+00  2.500000e-01
     vertex  0.000000e+00  0.000000e+00  2.500000e-01
   endloop
 endfacet
 facet normal -1.000000e+00  0.000000e+00  0.000000e+00
   outer loop
     vertex  0.000000e+00  0.000000e+00  0.000000e+00
     vertex  0.000000e+00  4.973684e-01  2.500000e-01
     vertex  0.000000e+00  4.973684e-01  0.000000e+00
   endloop
 endfacet
 facet normal -1.000000e+00  0.000000e+00  0.000000e+00
   outer loop
     vertex  0.000000e+00  0.000000e+00  0.000000e+00
     vertex  0.000000e+00  0.000000e+00  2.500000e-01
     vertex  0.000000e+00  4.973684e-01  2.500000e-01
   endloop
 endfacet
 facet normal  1.000000e+00  0.000000e+00  0.000000e+00
   outer loop
     vertex  7.500000e-01  2.631579e-03  0.000000e+00
     vertex  7.500000e-01  0.000000e+00  2.500000e-01
     vertex  7.500000e-01  0.000000e+00  0.000000e+00
   endloop
 endfacet
 facet normal  1.000000e+00  0.000000e+00 -0.000000e+00
   outer loop
     vertex  7.500000e-01  2.631579e-03  0.000000e+00
     vertex  7.500000e-01  2.631579e-03  2.500000e-01
     vertex  7.500000e-01  0.000000e+00  2.500000e-01
   endloop
 endfacet
 facet normal -0.000000e+00 -1.000000e+00  0.000000e+00
   outer loop
     vertex  7.500000e-01  0.000000e+00  0.000000e+00
     vertex  0.000000e+00  0.000000e+00  0.000000e+00
     vertex  0.000000e+00  0.000000e+00 -2.500000e-01
   endloop
 endfacet
 facet normal  0.000000e+00 -1.000000e+00 -0.000000e+00
   outer loop
     vertex  7.500000e-01  0.000000e+00  0.000000e+00
     vertex  0.000000e+00  0.000000e+00 -2.500000e-01
     vertex  7.500000e-01  0.000000e+00 -2.500000e-01
   endloop
 endfacet
 facet normal  0.000000e+00  0.000000e+00  1.000000e+00
   outer loop
     vertex  2.631579e-03  4.973684e-01  2.500000e-01
     vertex  0.000000e+00  4.973684e-01  2.500000e-01
     vertex  0.000000e+00  0.000000e+00  2.500000e-01
   endloop
 endfacet
 facet normal  0.000000e+00  0.000000e+00  1.000000e+00
   outer loop
     vertex  2.631579e-03  4.973684e-01  2.500000e-01
     vertex  0.000000e+00  0.000000e+00  2.500000e-01
     vertex  4.973684e-01  2.631579e-03  2.500000e-01
   endloop
 endfacet
 facet normal  0.000000e+00  0.000000e+00  1.000000e+00
   outer loop
     vertex  7.500000e-01  2.631579e-03  2.500000e-01
     vertex  4.973684e-01  2.631579e-03  2.500000e-01
     vertex  7.500000e-01  0.000000e+00  2.500000e-01
   endloop
 endfacet
 facet normal  0.000000e+00  0.000000e+00  1.000000e+00
   outer loop
     vertex  0.000000e+00  0.000000e+00  2.500000e-01
     vertex  7.500000e-01  0.000000e+00  2.500000e-01
     vertex  4.973684e-01  2.631579e-03  2.500000e-01
   endloop
 endfacet
 facet normal  0.000000e+00  1.000000e+00  0.000000e+00
   outer loop
     vertex  0.000000e+00  4.973684e-01  0.000000e+00
     vertex  2.631579e-03  4.973684e-01  2.500000e-01
     vertex  2.631579e-03  4.973684e-01  0.000000e+00
   endloop
 endfacet
 facet normal  0.000000e+00  1.000000e+00  0.000000e+00
   outer loop
     vertex  0.000000e+00  4.973684e-01  0.000000e+00
     vertex  0.000000e+00  4.973684e-01  2.500000e-01
     vertex  2.631579e-03  4.973684e-01  2.500000e-01
   endloop
 endfacet
 facet normal -1.000000e+00  0.000000e+00  0.000000e+00
   outer loop
     vertex  0.000000e+00  0.000000e+00  0.000000e+00
     vertex  0.000000e+00  4.973684e-01  0.000000e+00
     vertex  0.000000e+00  4.973684e-01 -2.500000e-01
   endloop
 endfacet
 facet normal -1.000000e+00  0.000000e+00  0.000000e+00
   outer loop
     vertex  0.000000e+00  0.000000e+00  0.000000e+00
     vertex  0.000000e+00  4.973684e-01 -2.500000e-01
     vertex  0.000000e+00  0.000000e+00 -2.500000e-01
   endloop
 endfacet
 facet normal  1.000000e+00  0.000000e+00  0.000000e+00
   outer loop
     vertex  7.500000e-01  2.631579e-03  0.000000e+00
     vertex  7.500000e-01  0.000000e+00  0.000000e+00
     vertex  7.500000e-01  0.000000e+00 -2.500000e-01
   endloop
 endfacet
 facet normal  1.000000e+00  0.000000e+00  0.000000e+00
   outer loop
     vertex  7.500000e-01  1.289474e-01  0.000000e+00
     vertex  7.500000e-01  2.631579e-03  0.000000e+00
     vertex  7.500000e-01  0.000000e+00 -2.500000e-01
   endloop
 endfacet
 facet normal  1.000000e+00  0.000000e+00  0.000000e+00
   outer loop
     vertex  7.500000e-01  4.973684e-01 -2.500000e-01
     vertex  7.500000e-01  1.289474e-01  0.000000e+00
     vertex  7.500000e-01  0.000000e+00 -2.500000e-01
   endloop
 endfacet
 facet normal  1.000000e+00  0.000000e+00  0.000000e+00
   outer loop
     vertex  7.500000e-01  4.973684e-01  0.000000e+00
     vertex  7.500000e-01  1.289474e-01  0.000000e+00
     vertex  7.500000e-01  4.973684e-01 -2.500000e-01
   endloop
 endfacet
 facet normal  0.000000e+00  1.000000e+00  0.000000e+00
   outer loop
     vertex  7.500000e-01  2.631579e-03  0.000000e+00
     vertex  4.973684e-01  2.631579e-03  0.000000e+00
     vertex  4.973684e-01  2.631579e-03  2.500000e-01
   endloop
 endfacet
 facet normal  0.000000e+00  1.000000e+00 -0.000000e+00
   outer loop
     vertex  7.500000e-01  2.631579e-03  0.000000e+00
     vertex  4.973684e-01  2.631579e-03  2.500000e-01
     vertex  7.500000e-01  2.631579e-03  2.500000e-01
   endloop
 endfacet
 facet normal  0.000000e+00 -0.000000e+00 -1.000000e+00
   outer loop
     vertex  7.500000e-01  4.973684e-01 -2.500000e-01
     vertex  7.500000e-01  0.000000e+00 -2.500000e-01
     vertex  0.000000e+00  0.000000e+00 -2.500000e-01
   endloop
 endfacet
 facet normal -0.000000e+00  0.000000e+00 -1.000000e+00
   outer loop
     vertex  7.500000e-01  4.973684e-01 -2.500000e-01
     vertex  0.000000e+00  0.000000e+00 -2.500000e-01
     vertex  0.000000e+00  4.973684e-01 -2.500000e-01
   endloop
 endfacet
 facet normal  7.071068e-01  7.071068e-01  0.000000e+00
   outer loop
     vertex  4.973684e-01  2.631579e-03  0.000000e+00
     vertex  2.631579e-03  4.973684e-01  0.000000e+00
     vertex  2.631579e-03  4.973684e-01  2.500000e-01
   endloop
 endfacet
 facet normal  7.071068e-01  7.071068e-01 -0.000000e+00
   outer loop
     vertex  4.973684e-01  2.631579e-03  0.000000e+00
     vertex  2.631579e-03  4.973684e-01  2.500000e-01
     vertex  4.973684e-01  2.631579e-03  2.500000e-01
   endloop
 endfacet
 facet normal -0.000000e+00  1.000000e+00  0.000000e+00
   outer loop
     vertex  3.815789e-01  4.973684e-01  0.000000e+00
     vertex  7.500000e-01  4.973684e-01  0.000000e+00
     vertex  7.500000e-01  4.973684e-01 -2.500000e-01
   endloop
 endfacet
 facet normal  0.000000e+00  1.000000e+00  0.000000e+00
   outer loop
     vertex  0.000000e+00  4.973684e-01 -2.500000e-01
     vertex  3.815789e-01  4.973684e-01  0.000000e+00
     vertex  7.500000e-01  4.973684e-01 -2.500000e-01
   endloop
 endfacet
 facet normal -0.000000e+00  1.000000e+00  0.000000e+00
   outer loop
     vertex  2.631579e-03  4.973684e-01  0.000000e+00
     vertex  3.815789e-01  4.973684e-01  0.000000e+00
     vertex  0.000000e+00  4.973684e-01 -2.500000e-01
   endloop
 endfacet
 facet normal -0.000000e+00  1.000000e+00  0.000000e+00
   outer loop
     vertex  0.000000e+00  4.973684e-01  0.000000e+00
     vertex  2.631579e-03  4.973684e-01  0.000000e+00
     vertex  0.000000e+00  4.973684e-01 -2.500000e-01
   endloop
 endfacet
 facet normal  0.000000e+00  0.000000e+00  1.000000e+00
   outer loop
     vertex  3.815789e-01  4.973684e-01  0.000000e+00
     vertex  2.631579e-03  4.973684e-01  0.000000e+00
     vertex  4.973684e-01  2.631579e-03  0.000000e+00
   endloop
 endfacet
 facet normal  0.000000e+00  0.000000e+00  1.000000e+00
   outer loop
     vertex  7.500000e-01  1.289474e-01  0.000000e+00
     vertex  4.973684e-01  2.631579e-03  0.000000e+00
     vertex  7.500000e-01  2.631579e-03  0.000000e+00
   endloop
 endfacet
 facet normal  0.000000e+00  0.000000e+00  1.000000e+00
   outer loop
     vertex  7.500000e-01  1.289474e-01  0.000000e+00
     vertex  3.815789e-01  4.973684e-01  0.000000e+00
     vertex  4.973684e-01  2.631579e-03  0.000000e+00
   endloop
 endfacet
 facet normal  1.000000e+00  0.000000e+00  0.000000e+00
   outer loop
     vertex  7.500000e-01  4.973684e-01  0.000000e+00
     vertex  7.500000e-01  1.289474e-01  2.500000e-01
     vertex  7.500000e-01  1.289474e-01  0.000000e+00
   endloop
 endfacet
 facet normal  1.000000e+00  0.000000e+00 -0.000000e+00
   outer loop
     vertex  7.500000e-01  4.973684e-01  0.000000e+00
     vertex  7.500000e-01  4.973684e-01  2.500000e-01
     vertex  7.500000e-01  1.289474e-01  2.500000e-01
   endloop
 endfacet
 facet normal  0.000000e+00  1.000000e+00  0.000000e+00
   outer loop
     vertex  3.815789e-01  4.973684e-01  0.000000e+00
     vertex  7.500000e-01  4.973684e-01  2.500000e-01
     vertex  7.500000e-01  4.973684e-01  0.000000e+00
   endloop
 endfacet
 facet normal  0.000000e+00  1.000000e+00  0.000000e+00
   outer loop
     vertex  3.815789e-01  4.973684e-01  0.000000e+00
     vertex  3.815789e-01  4.973684e-01  2.500000e-01
     vertex  7.500000e-01  4.973684e-01  2.500000e-01
   endloop
 endfacet
 facet normal -7.071068e-01 -7.071068e-01  0.000000e+00
   outer loop
     vertex  3.815789e-01  4.973684e-01  0.000000e+00
     vertex  7.500000e-01  1.289474e-01  0.000000e+00
     vertex  7.500000e-01  1.289474e-01  2.500000e-01
   endloop
 endfacet
 facet normal -7.071068e-01 -7.071068e-01  0.000000e+00
   outer loop
     vertex  3.815789e-01  4.973684e-01  0.000000e+00
     vertex  7.500000e-01  1.289474e-01  2.500000e-01
     vertex  3.815789e-01  4.973684e-01  2.500000e-01
   endloop
 endfacet
 facet normal  0.000000e+00  0.000000e+00  1.000000e+00
   outer loop
     vertex  7.500000e-01  4.973684e-01  2.500000e-01
     vertex  3.815789e-01  4.973684e-01  2.500000e-01
     vertex  7.500000e-01  1.289474e-01  2.500000e-01
   endloop
 endfacet
endsolid
