solid 
 facet normal -2.588190e-01  0.000000e+00 -9.659258e-01
   outer loop
     vertex -7.532895e-02 -3.627301e-18 -1.401594e-01
     vertex  5.592105e-03  0.000000e+00 -1.618421e-01
     vertex  5.592105e-03 -7.500000e-01 -1.618421e-01
   endloop
 endfacet
 facet normal -2.588190e-01 -3.574644e-17 -9.659258e-01
   outer loop
     vertex -7.532895e-02 -3.627301e-18 -1.401594e-01
     vertex  5.592105e-03 -7.500000e-01 -1.618421e-01
     vertex -7.532895e-02 -7.500000e-01 -1.401594e-01
   endloop
 endfacet
 facet normal -7.071068e-01 -5.233642e-17 -7.071068e-01
   outer loop
     vertex -1.345673e-01 -3.627301e-18 -8.092105e-02
     vertex -7.532895e-02 -7.500000e-01 -1.401594e-01
     vertex -1.345673e-01 -7.500000e-01 -8.092105e-02
   endloop
 endfacet
 facet normal -7.071068e-01 -2.760904e-17 -7.071068e-01
   outer loop
     vertex -1.345673e-01 -3.627301e-18 -8.092105e-02
     vertex -7.532895e-02 -3.627301e-18 -1.401594e-01
     vertex -7.532895e-02 -7.500000e-01 -1.401594e-01
   endloop
 endfacet
 facet normal -9.659258e-01 -1.584810e-17 -2.588190e-01
   outer loop
     vertex -1.562500e-01  9.524879e-30  1.981994e-17
     vertex -1.345673e-01 -7.500000e-01 -8.092105e-02
     vertex -1.562500e-01 -7.500000e-01  6.574420e-17
   endloop
 endfacet
 facet normal -9.659258e-01 -2.070678e-17 -2.588190e-01
   outer loop
     vertex -1.562500e-01  9.524879e-30  1.981994e-17
     vertex -1.345673e-01 -3.627301e-18 -8.092105e-02
     vertex -1.345673e-01 -7.500000e-01 -8.092105e-02
   endloop
 endfacet
 facet normal -9.659258e-01  1.915646e-17  2.588190e-01
   outer loop
     vertex -1.345673e-01  6.282670e-18  8.092105e-02
     vertex -1.562500e-01 -7.500000e-01  6.574420e-17
     vertex -1.345673e-01 -7.500000e-01  8.092105e-02
   endloop
 endfacet
 facet normal -9.659258e-01  1.725565e-17  2.588190e-01
   outer loop
     vertex -1.345673e-01  6.282670e-18  8.092105e-02
     vertex -1.562500e-01  9.524879e-30  1.981994e-17
     vertex -1.562500e-01 -7.500000e-01  6.574420e-17
   endloop
 endfacet
 facet normal -7.071068e-01  2.616821e-17  7.071068e-01
   outer loop
     vertex -7.532895e-02  1.353727e-17  1.401594e-01
     vertex -1.345673e-01 -7.500000e-01  8.092105e-02
     vertex -7.532895e-02 -7.500000e-01  1.401594e-01
   endloop
 endfacet
 facet normal -7.071068e-01  5.521807e-17  7.071068e-01
   outer loop
     vertex -7.532895e-02  1.353727e-17  1.401594e-01
     vertex -1.345673e-01  6.282670e-18  8.092105e-02
     vertex -1.345673e-01 -7.500000e-01  8.092105e-02
   endloop
 endfacet
 facet normal -2.588190e-01  3.574644e-17  9.659258e-01
   outer loop
     vertex  5.592105e-03  1.981994e-17  1.618421e-01
     vertex -7.532895e-02 -7.500000e-01  1.401594e-01
     vertex  5.592105e-03 -7.500000e-01  1.618421e-01
   endloop
 endfacet
 facet normal -2.588190e-01  3.796242e-17  9.659258e-01
   outer loop
     vertex  5.592105e-03  1.981994e-17  1.618421e-01
     vertex -7.532895e-02  1.353727e-17  1.401594e-01
     vertex -7.532895e-02 -7.500000e-01  1.401594e-01
   endloop
 endfacet
 facet normal  2.588190e-01  3.574644e-17  9.659258e-01
   outer loop
     vertex  8.651316e-02  2.344724e-17  1.401594e-01
     vertex  5.592105e-03 -7.500000e-01  1.618421e-01
     vertex  8.651316e-02 -7.500000e-01  1.401594e-01
   endloop
 endfacet
 facet normal  2.588190e-01  3.451130e-17  9.659258e-01
   outer loop
     vertex  8.651316e-02  2.344724e-17  1.401594e-01
     vertex  5.592105e-03  1.981994e-17  1.618421e-01
     vertex  5.592105e-03 -7.500000e-01  1.618421e-01
   endloop
 endfacet
 facet normal  9.659258e-01  1.915646e-17  2.588190e-01
   outer loop
     vertex  1.457515e-01  2.344724e-17  8.092105e-02
     vertex  1.457515e-01 -7.500000e-01  8.092105e-02
     vertex  1.674342e-01 -7.500000e-01  2.610431e-17
   endloop
 endfacet
 facet normal  7.071068e-01  5.233642e-17  7.071068e-01
   outer loop
     vertex  1.457515e-01  2.344724e-17  8.092105e-02
     vertex  8.651316e-02 -7.500000e-01  1.401594e-01
     vertex  1.457515e-01 -7.500000e-01  8.092105e-02
   endloop
 endfacet
 facet normal  7.071068e-01  2.760904e-17  7.071068e-01
   outer loop
     vertex  1.457515e-01  2.344724e-17  8.092105e-02
     vertex  8.651316e-02  2.344724e-17  1.401594e-01
     vertex  8.651316e-02 -7.500000e-01  1.401594e-01
   endloop
 endfacet
 facet normal  9.659258e-01  1.584810e-17  2.588190e-01
   outer loop
     vertex  1.674342e-01  1.981994e-17 -1.981994e-17
     vertex  1.457515e-01  2.344724e-17  8.092105e-02
     vertex  1.674342e-01 -7.500000e-01  2.610431e-17
   endloop
 endfacet
 facet normal  9.659258e-01 -1.915646e-17 -2.588190e-01
   outer loop
     vertex  1.457515e-01  1.353727e-17 -8.092105e-02
     vertex  1.674342e-01 -7.500000e-01  2.610431e-17
     vertex  1.457515e-01 -7.500000e-01 -8.092105e-02
   endloop
 endfacet
 facet normal  9.659258e-01 -1.380452e-17 -2.588190e-01
   outer loop
     vertex  1.457515e-01  1.353727e-17 -8.092105e-02
     vertex  1.674342e-01  1.981994e-17 -1.981994e-17
     vertex  1.674342e-01 -7.500000e-01  2.610431e-17
   endloop
 endfacet
 facet normal  7.071068e-01 -2.616821e-17 -7.071068e-01
   outer loop
     vertex  8.651316e-02  6.282670e-18 -1.401594e-01
     vertex  1.457515e-01 -7.500000e-01 -8.092105e-02
     vertex  8.651316e-02 -7.500000e-01 -1.401594e-01
   endloop
 endfacet
 facet normal  7.071068e-01 -4.831581e-17 -7.071068e-01
   outer loop
     vertex  8.651316e-02  6.282670e-18 -1.401594e-01
     vertex  1.457515e-01  1.353727e-17 -8.092105e-02
     vertex  1.457515e-01 -7.500000e-01 -8.092105e-02
   endloop
 endfacet
 facet normal  2.588190e-01  0.000000e+00 -9.659258e-01
   outer loop
     vertex  5.592105e-03  0.000000e+00 -1.618421e-01
     vertex  8.651316e-02 -7.500000e-01 -1.401594e-01
     vertex  5.592105e-03 -7.500000e-01 -1.618421e-01
   endloop
 endfacet
 facet normal  2.588190e-01 -3.796242e-17 -9.659258e-01
   outer loop
     vertex  5.592105e-03  0.000000e+00 -1.618421e-01
     vertex  8.651316e-02  6.282670e-18 -1.401594e-01
     vertex  8.651316e-02 -7.500000e-01 -1.401594e-01
   endloop
 endfacet
 facet normal  3.826834e-01  0.000000e+00  9.238795e-01
   outer loop
     vertex -7.308515e-02  2.747854e-19 -7.867726e-02
     vertex  5.592105e-03 -7.500000e-01 -1.112664e-01
     vertex  5.592105e-03  3.096866e-18 -1.112664e-01
   endloop
 endfacet
 facet normal  3.826834e-01  6.838082e-17  9.238795e-01
   outer loop
     vertex -7.308515e-02  2.747854e-19 -7.867726e-02
     vertex -7.308515e-02 -7.500000e-01 -7.867726e-02
     vertex  5.592105e-03 -7.500000e-01 -1.112664e-01
   endloop
 endfacet
 facet normal  9.238795e-01  2.343260e-17  3.826834e-01
   outer loop
     vertex -1.056743e-01  3.096866e-18  1.052934e-17
     vertex -1.056743e-01 -7.500000e-01  5.645360e-17
     vertex -7.308515e-02 -7.500000e-01 -7.867726e-02
   endloop
 endfacet
 facet normal  9.238795e-01  2.716033e-17  3.826834e-01
   outer loop
     vertex -1.056743e-01  3.096866e-18  1.052934e-17
     vertex -7.308515e-02 -7.500000e-01 -7.867726e-02
     vertex -7.308515e-02  2.747854e-19 -7.867726e-02
   endloop
 endfacet
 facet normal  9.238795e-01 -2.832426e-17 -3.826834e-01
   outer loop
     vertex -7.308515e-02  9.909971e-18  7.867726e-02
     vertex -7.308515e-02 -7.500000e-01  7.867726e-02
     vertex -1.056743e-01 -7.500000e-01  5.645360e-17
   endloop
 endfacet
 facet normal  9.238795e-01 -2.037025e-17 -3.826834e-01
   outer loop
     vertex -7.308515e-02  9.909971e-18  7.867726e-02
     vertex -1.056743e-01 -7.500000e-01  5.645360e-17
     vertex -1.056743e-01  3.096866e-18  1.052934e-17
   endloop
 endfacet
 facet normal  3.826834e-01 -6.838082e-17 -9.238795e-01
   outer loop
     vertex  5.592105e-03  1.672308e-17  1.112664e-01
     vertex  5.592105e-03 -7.500000e-01  1.112664e-01
     vertex -7.308515e-02 -7.500000e-01  7.867726e-02
   endloop
 endfacet
 facet normal  3.826834e-01 -6.790084e-17 -9.238795e-01
   outer loop
     vertex  5.592105e-03  1.672308e-17  1.112664e-01
     vertex -7.308515e-02 -7.500000e-01  7.867726e-02
     vertex -7.308515e-02  9.909971e-18  7.867726e-02
   endloop
 endfacet
 facet normal -3.826834e-01 -6.838082e-17 -9.238795e-01
   outer loop
     vertex  8.426936e-02  1.954516e-17  7.867726e-02
     vertex  8.426936e-02 -7.500000e-01  7.867726e-02
     vertex  5.592105e-03 -7.500000e-01  1.112664e-01
   endloop
 endfacet
 facet normal -3.826834e-01 -6.790084e-17 -9.238795e-01
   outer loop
     vertex  8.426936e-02  1.954516e-17  7.867726e-02
     vertex  5.592105e-03 -7.500000e-01  1.112664e-01
     vertex  5.592105e-03  1.672308e-17  1.112664e-01
   endloop
 endfacet
 facet normal -9.238795e-01  2.343260e-17  3.826834e-01
   outer loop
     vertex  1.168586e-01  1.672308e-17 -1.672308e-17
     vertex  8.426936e-02 -7.500000e-01 -7.867726e-02
     vertex  1.168586e-01 -7.500000e-01  2.920118e-17
   endloop
 endfacet
 facet normal -9.238795e-01 -2.343260e-17 -3.826834e-01
   outer loop
     vertex  1.168586e-01  1.672308e-17 -1.672308e-17
     vertex  1.168586e-01 -7.500000e-01  2.920118e-17
     vertex  8.426936e-02 -7.500000e-01  7.867726e-02
   endloop
 endfacet
 facet normal -9.238795e-01 -2.716033e-17 -3.826834e-01
   outer loop
     vertex  1.168586e-01  1.672308e-17 -1.672308e-17
     vertex  8.426936e-02 -7.500000e-01  7.867726e-02
     vertex  8.426936e-02  1.954516e-17  7.867726e-02
   endloop
 endfacet
 facet normal -9.238795e-01  2.832426e-17  3.826834e-01
   outer loop
     vertex  8.426936e-02  9.909971e-18 -7.867726e-02
     vertex  8.426936e-02 -7.500000e-01 -7.867726e-02
     vertex  1.168586e-01  1.672308e-17 -1.672308e-17
   endloop
 endfacet
 facet normal -3.826834e-01  0.000000e+00  9.238795e-01
   outer loop
     vertex  5.592105e-03  3.096866e-18 -1.112664e-01
     vertex  5.592105e-03 -7.500000e-01 -1.112664e-01
     vertex  8.426936e-02 -7.500000e-01 -7.867726e-02
   endloop
 endfacet
 facet normal -3.826834e-01  6.790084e-17  9.238795e-01
   outer loop
     vertex  5.592105e-03  3.096866e-18 -1.112664e-01
     vertex  8.426936e-02 -7.500000e-01 -7.867726e-02
     vertex  8.426936e-02  9.909971e-18 -7.867726e-02
   endloop
 endfacet
 facet normal -6.123234e-17  1.000000e+00 -6.123234e-17
   outer loop
     vertex -7.308515e-02  2.747854e-19 -7.867726e-02
     vertex -7.532895e-02 -3.627301e-18 -1.401594e-01
     vertex -1.345673e-01 -3.627301e-18 -8.092105e-02
   endloop
 endfacet
 facet normal -6.123234e-17  1.000000e+00 -6.123234e-17
   outer loop
     vertex  5.592105e-03  3.096866e-18 -1.112664e-01
     vertex  5.592105e-03  0.000000e+00 -1.618421e-01
     vertex -7.532895e-02 -3.627301e-18 -1.401594e-01
   endloop
 endfacet
 facet normal -6.123234e-17  1.000000e+00 -6.123234e-17
   outer loop
     vertex  5.592105e-03  3.096866e-18 -1.112664e-01
     vertex -7.532895e-02 -3.627301e-18 -1.401594e-01
     vertex -7.308515e-02  2.747854e-19 -7.867726e-02
   endloop
 endfacet
 facet normal -6.123234e-17  1.000000e+00 -6.123234e-17
   outer loop
     vertex -1.056743e-01  3.096866e-18  1.052934e-17
     vertex -1.345673e-01 -3.627301e-18 -8.092105e-02
     vertex -1.562500e-01  9.524879e-30  1.981994e-17
   endloop
 endfacet
 facet normal -6.123234e-17  1.000000e+00 -6.123234e-17
   outer loop
     vertex -1.056743e-01  3.096866e-18  1.052934e-17
     vertex -7.308515e-02  2.747854e-19 -7.867726e-02
     vertex -1.345673e-01 -3.627301e-18 -8.092105e-02
   endloop
 endfacet
 facet normal -6.123234e-17  1.000000e+00 -6.123234e-17
   outer loop
     vertex  8.651316e-02  6.282670e-18 -1.401594e-01
     vertex  5.592105e-03  0.000000e+00 -1.618421e-01
     vertex  5.592105e-03  3.096866e-18 -1.112664e-01
   endloop
 endfacet
 facet normal -6.123234e-17  1.000000e+00 -6.123234e-17
   outer loop
     vertex -1.345673e-01  6.282670e-18  8.092105e-02
     vertex -1.056743e-01  3.096866e-18  1.052934e-17
     vertex -1.562500e-01  9.524879e-30  1.981994e-17
   endloop
 endfacet
 facet normal -6.123234e-17  1.000000e+00 -6.123234e-17
   outer loop
     vertex  8.426936e-02  9.909971e-18 -7.867726e-02
     vertex  8.651316e-02  6.282670e-18 -1.401594e-01
     vertex  5.592105e-03  3.096866e-18 -1.112664e-01
   endloop
 endfacet
 facet normal -6.123234e-17  1.000000e+00 -6.123234e-17
   outer loop
     vertex -7.308515e-02  9.909971e-18  7.867726e-02
     vertex -1.056743e-01  3.096866e-18  1.052934e-17
     vertex -1.345673e-01  6.282670e-18  8.092105e-02
   endloop
 endfacet
 facet normal -6.123234e-17  1.000000e+00 -6.123234e-17
   outer loop
     vertex  1.457515e-01  1.353727e-17 -8.092105e-02
     vertex  8.651316e-02  6.282670e-18 -1.401594e-01
     vertex  8.426936e-02  9.909971e-18 -7.867726e-02
   endloop
 endfacet
 facet normal -6.123234e-17  1.000000e+00 -6.123234e-17
   outer loop
     vertex -7.532895e-02  1.353727e-17  1.401594e-01
     vertex -7.308515e-02  9.909971e-18  7.867726e-02
     vertex -1.345673e-01  6.282670e-18  8.092105e-02
   endloop
 endfacet
 facet normal -6.123234e-17  1.000000e+00 -6.123234e-17
   outer loop
     vertex  1.168586e-01  1.672308e-17 -1.672308e-17
     vertex  1.457515e-01  1.353727e-17 -8.092105e-02
     vertex  8.426936e-02  9.909971e-18 -7.867726e-02
   endloop
 endfacet
 facet normal -6.123234e-17  1.000000e+00 -6.123234e-17
   outer loop
     vertex  5.592105e-03  1.672308e-17  1.112664e-01
     vertex -7.308515e-02  9.909971e-18  7.867726e-02
     vertex -7.532895e-02  1.353727e-17  1.401594e-01
   endloop
 endfacet
 facet normal -6.123234e-17  1.000000e+00 -6.123234e-17
   outer loop
     vertex  1.674342e-01  1.981994e-17 -1.981994e-17
     vertex  1.457515e-01  1.353727e-17 -8.092105e-02
     vertex  1.168586e-01  1.672308e-17 -1.672308e-17
   endloop
 endfacet
 facet normal -6.123234e-17  1.000000e+00 -6.123234e-17
   outer loop
     vertex  5.592105e-03  1.981994e-17  1.618421e-01
     vertex  5.592105e-03  1.672308e-17  1.112664e-01
     vertex -7.532895e-02  1.353727e-17  1.401594e-01
   endloop
 endfacet
 facet normal -6.123234e-17  1.000000e+00 -6.123234e-17
   outer loop
     vertex  1.457515e-01  2.344724e-17  8.092105e-02
     vertex  1.168586e-01  1.672308e-17 -1.672308e-17
     vertex  8.426936e-02  1.954516e-17  7.867726e-02
   endloop
 endfacet
 facet normal -6.123234e-17  1.000000e+00 -6.123234e-17
   outer loop
     vertex  1.457515e-01  2.344724e-17  8.092105e-02
     vertex  1.674342e-01  1.981994e-17 -1.981994e-17
     vertex  1.168586e-01  1.672308e-17 -1.672308e-17
   endloop
 endfacet
 facet normal -6.123234e-17  1.000000e+00 -6.123234e-17
   outer loop
     vertex  8.651316e-02  2.344724e-17  1.401594e-01
     vertex  8.426936e-02  1.954516e-17  7.867726e-02
     vertex  5.592105e-03  1.672308e-17  1.112664e-01
   endloop
 endfacet
 facet normal -6.123234e-17  1.000000e+00 -6.123234e-17
   outer loop
     vertex  8.651316e-02  2.344724e-17  1.401594e-01
     vertex  5.592105e-03  1.672308e-17  1.112664e-01
     vertex  5.592105e-03  1.981994e-17  1.618421e-01
   endloop
 endfacet
 facet normal -6.123234e-17  1.000000e+00 -6.123234e-17
   outer loop
     vertex  8.651316e-02  2.344724e-17  1.401594e-01
     vertex  1.457515e-01  2.344724e-17  8.092105e-02
     vertex  8.426936e-02  1.954516e-17  7.867726e-02
   endloop
 endfacet
 facet normal  0.000000e+00 -1.000000e+00  0.000000e+00
   outer loop
     vertex -7.308515e-02 -7.500000e-01 -7.867726e-02
     vertex -1.345673e-01 -7.500000e-01 -8.092105e-02
     vertex -7.532895e-02 -7.500000e-01 -1.401594e-01
   endloop
 endfacet
 facet normal  0.000000e+00 -1.000000e+00 -0.000000e+00
   outer loop
     vertex  5.592105e-03 -7.500000e-01 -1.112664e-01
     vertex -7.532895e-02 -7.500000e-01 -1.401594e-01
     vertex  5.592105e-03 -7.500000e-01 -1.618421e-01
   endloop
 endfacet
 facet normal -0.000000e+00 -1.000000e+00  0.000000e+00
   outer loop
     vertex  5.592105e-03 -7.500000e-01 -1.112664e-01
     vertex -7.308515e-02 -7.500000e-01 -7.867726e-02
     vertex -7.532895e-02 -7.500000e-01 -1.401594e-01
   endloop
 endfacet
 facet normal -0.000000e+00 -1.000000e+00  0.000000e+00
   outer loop
     vertex -1.056743e-01 -7.500000e-01  5.645360e-17
     vertex -1.562500e-01 -7.500000e-01  6.574420e-17
     vertex -1.345673e-01 -7.500000e-01 -8.092105e-02
   endloop
 endfacet
 facet normal  0.000000e+00 -1.000000e+00 -0.000000e+00
   outer loop
     vertex -1.056743e-01 -7.500000e-01  5.645360e-17
     vertex -1.345673e-01 -7.500000e-01 -8.092105e-02
     vertex -7.308515e-02 -7.500000e-01 -7.867726e-02
   endloop
 endfacet
 facet normal -0.000000e+00 -1.000000e+00  0.000000e+00
   outer loop
     vertex  8.651316e-02 -7.500000e-01 -1.401594e-01
     vertex  5.592105e-03 -7.500000e-01 -1.112664e-01
     vertex  5.592105e-03 -7.500000e-01 -1.618421e-01
   endloop
 endfacet
 facet normal  0.000000e+00 -1.000000e+00 -0.000000e+00
   outer loop
     vertex -1.345673e-01 -7.500000e-01  8.092105e-02
     vertex -1.562500e-01 -7.500000e-01  6.574420e-17
     vertex -1.056743e-01 -7.500000e-01  5.645360e-17
   endloop
 endfacet
 facet normal  0.000000e+00 -1.000000e+00 -0.000000e+00
   outer loop
     vertex  8.426936e-02 -7.500000e-01 -7.867726e-02
     vertex  5.592105e-03 -7.500000e-01 -1.112664e-01
     vertex  8.651316e-02 -7.500000e-01 -1.401594e-01
   endloop
 endfacet
 facet normal -0.000000e+00 -1.000000e+00  0.000000e+00
   outer loop
     vertex -7.308515e-02 -7.500000e-01  7.867726e-02
     vertex -1.345673e-01 -7.500000e-01  8.092105e-02
     vertex -1.056743e-01 -7.500000e-01  5.645360e-17
   endloop
 endfacet
 facet normal -0.000000e+00 -1.000000e+00  0.000000e+00
   outer loop
     vertex  1.457515e-01 -7.500000e-01 -8.092105e-02
     vertex  8.426936e-02 -7.500000e-01 -7.867726e-02
     vertex  8.651316e-02 -7.500000e-01 -1.401594e-01
   endloop
 endfacet
 facet normal  0.000000e+00 -1.000000e+00 -0.000000e+00
   outer loop
     vertex -7.532895e-02 -7.500000e-01  1.401594e-01
     vertex -1.345673e-01 -7.500000e-01  8.092105e-02
     vertex -7.308515e-02 -7.500000e-01  7.867726e-02
   endloop
 endfacet
 facet normal  0.000000e+00 -1.000000e+00 -0.000000e+00
   outer loop
     vertex  1.168586e-01 -7.500000e-01  2.920118e-17
     vertex  8.426936e-02 -7.500000e-01 -7.867726e-02
     vertex  1.457515e-01 -7.500000e-01 -8.092105e-02
   endloop
 endfacet
 facet normal -0.000000e+00 -1.000000e+00  0.000000e+00
   outer loop
     vertex  5.592105e-03 -7.500000e-01  1.112664e-01
     vertex -7.532895e-02 -7.500000e-01  1.401594e-01
     vertex -7.308515e-02 -7.500000e-01  7.867726e-02
   endloop
 endfacet
 facet normal -0.000000e+00 -1.000000e+00  0.000000e+00
   outer loop
     vertex  1.674342e-01 -7.500000e-01  2.610431e-17
     vertex  1.168586e-01 -7.500000e-01  2.920118e-17
     vertex  1.457515e-01 -7.500000e-01 -8.092105e-02
   endloop
 endfacet
 facet normal  0.000000e+00 -1.000000e+00  0.000000e+00
   outer loop
     vertex  5.592105e-03 -7.500000e-01  1.618421e-01
     vertex -7.532895e-02 -7.500000e-01  1.401594e-01
     vertex  5.592105e-03 -7.500000e-01  1.112664e-01
   endloop
 endfacet
 facet normal  0.000000e+00 -1.000000e+00  0.000000e+00
   outer loop
     vertex  1.457515e-01 -7.500000e-01  8.092105e-02
     vertex  8.426936e-02 -7.500000e-01  7.867726e-02
     vertex  1.168586e-01 -7.500000e-01  2.920118e-17
   endloop
 endfacet
 facet normal  0.000000e+00 -1.000000e+00 -0.000000e+00
   outer loop
     vertex  1.457515e-01 -7.500000e-01  8.092105e-02
     vertex  1.168586e-01 -7.500000e-01  2.920118e-17
     vertex  1.674342e-01 -7.500000e-01  2.610431e-17
   endloop
 endfacet
 facet normal  0.000000e+00 -1.000000e+00  0.000000e+00
   outer loop
     vertex  8.651316e-02 -7.500000e-01  1.401594e-01
     vertex  5.592105e-03 -7.500000e-01  1.112664e-01
     vertex  8.426936e-02 -7.500000e-01  7.867726e-02
   endloop
 endfacet
 facet normal -0.000000e+00 -1.000000e+00  0.000000e+00
   outer loop
     vertex  8.651316e-02 -7.500000e-01  1.401594e-01
     vertex  5.592105e-03 -7.500000e-01  1.618421e-01
     vertex  5.592105e-03 -7.500000e-01  1.112664e-01
   endloop
 endfacet
 facet normal  0.000000e+00 -1.000000e+00 -0.000000e+00
   outer loop
     vertex  8.651316e-02 -7.500000e-01  1.401594e-01
     vertex  8.426936e-02 -7.500000e-01  7.867726e-02
     vertex  1.457515e-01 -7.500000e-01  8.092105e-02
   endloop
 endfacet
 facet normal  4.338837e-01  0.000000e+00 -9.009689e-01
   outer loop
     vertex  7.505509e-02 -7.500000e-01 -5.906745e-02
     vertex  9.868421e-04 -7.500000e-01 -9.473684e-02
     vertex  9.868421e-04 -7.265625e-01 -9.473684e-02
   endloop
 endfacet
 facet normal  4.338837e-01  0.000000e+00 -9.009689e-01
   outer loop
     vertex  7.505509e-02 -7.500000e-01 -5.906745e-02
     vertex  9.868421e-04 -7.265625e-01 -9.473684e-02
     vertex  7.505509e-02 -7.265625e-01 -5.906745e-02
   endloop
 endfacet
 facet normal  9.749279e-01  0.000000e+00 -2.225209e-01
   outer loop
     vertex  9.334843e-02 -7.500000e-01  2.108093e-02
     vertex  7.505509e-02 -7.265625e-01 -5.906745e-02
     vertex  9.334843e-02 -7.265625e-01  2.108093e-02
   endloop
 endfacet
 facet normal  9.749279e-01  0.000000e+00 -2.225209e-01
   outer loop
     vertex  9.334843e-02 -7.500000e-01  2.108093e-02
     vertex  7.505509e-02 -7.500000e-01 -5.906745e-02
     vertex  7.505509e-02 -7.265625e-01 -5.906745e-02
   endloop
 endfacet
 facet normal  7.818315e-01  3.691801e-16  6.234898e-01
   outer loop
     vertex  4.209162e-02 -7.500000e-01  8.535495e-02
     vertex  9.334843e-02 -7.265625e-01  2.108093e-02
     vertex  4.209162e-02 -7.265625e-01  8.535495e-02
   endloop
 endfacet
 facet normal  7.818315e-01  0.000000e+00  6.234898e-01
   outer loop
     vertex  4.209162e-02 -7.500000e-01  8.535495e-02
     vertex  9.334843e-02 -7.500000e-01  2.108093e-02
     vertex  9.334843e-02 -7.265625e-01  2.108093e-02
   endloop
 endfacet
 facet normal  1.688099e-16  5.921189e-16  1.000000e+00
   outer loop
     vertex -4.011793e-02 -7.500000e-01  8.535495e-02
     vertex  4.209162e-02 -7.265625e-01  8.535495e-02
     vertex -4.011793e-02 -7.265625e-01  8.535495e-02
   endloop
 endfacet
 facet normal  1.688099e-16  5.921189e-16  1.000000e+00
   outer loop
     vertex -4.011793e-02 -7.500000e-01  8.535495e-02
     vertex  4.209162e-02 -7.500000e-01  8.535495e-02
     vertex  4.209162e-02 -7.265625e-01  8.535495e-02
   endloop
 endfacet
 facet normal -7.818315e-01  0.000000e+00  6.234898e-01
   outer loop
     vertex -9.137475e-02 -7.500000e-01  2.108093e-02
     vertex -4.011793e-02 -7.265625e-01  8.535495e-02
     vertex -9.137475e-02 -7.265625e-01  2.108093e-02
   endloop
 endfacet
 facet normal -7.818315e-01  0.000000e+00  6.234898e-01
   outer loop
     vertex -9.137475e-02 -7.500000e-01  2.108093e-02
     vertex -4.011793e-02 -7.500000e-01  8.535495e-02
     vertex -4.011793e-02 -7.265625e-01  8.535495e-02
   endloop
 endfacet
 facet normal -9.749279e-01  0.000000e+00 -2.225209e-01
   outer loop
     vertex -7.308140e-02 -7.500000e-01 -5.906745e-02
     vertex -9.137475e-02 -7.265625e-01  2.108093e-02
     vertex -7.308140e-02 -7.265625e-01 -5.906745e-02
   endloop
 endfacet
 facet normal -9.749279e-01  0.000000e+00 -2.225209e-01
   outer loop
     vertex -7.308140e-02 -7.500000e-01 -5.906745e-02
     vertex -9.137475e-02 -7.500000e-01  2.108093e-02
     vertex -9.137475e-02 -7.265625e-01  2.108093e-02
   endloop
 endfacet
 facet normal -4.338837e-01  0.000000e+00 -9.009689e-01
   outer loop
     vertex  9.868421e-04 -7.500000e-01 -9.473684e-02
     vertex -7.308140e-02 -7.265625e-01 -5.906745e-02
     vertex  9.868421e-04 -7.265625e-01 -9.473684e-02
   endloop
 endfacet
 facet normal -4.338837e-01  0.000000e+00 -9.009689e-01
   outer loop
     vertex  9.868421e-04 -7.500000e-01 -9.473684e-02
     vertex -7.308140e-02 -7.500000e-01 -5.906745e-02
     vertex -7.308140e-02 -7.265625e-01 -5.906745e-02
   endloop
 endfacet
 facet normal  0.000000e+00 -1.000000e+00 -0.000000e+00
   outer loop
     vertex  4.209162e-02 -7.500000e-01  8.535495e-02
     vertex  9.868421e-04 -7.500000e-01 -9.473684e-02
     vertex  7.505509e-02 -7.500000e-01 -5.906745e-02
   endloop
 endfacet
 facet normal  0.000000e+00 -1.000000e+00  0.000000e+00
   outer loop
     vertex  4.209162e-02 -7.500000e-01  8.535495e-02
     vertex  7.505509e-02 -7.500000e-01 -5.906745e-02
     vertex  9.334843e-02 -7.500000e-01  2.108093e-02
   endloop
 endfacet
 facet normal -0.000000e+00 -1.000000e+00  0.000000e+00
   outer loop
     vertex  4.209162e-02 -7.500000e-01  8.535495e-02
     vertex -4.011793e-02 -7.500000e-01  8.535495e-02
     vertex -9.137475e-02 -7.500000e-01  2.108093e-02
   endloop
 endfacet
 facet normal  0.000000e+00 -1.000000e+00  0.000000e+00
   outer loop
     vertex  4.209162e-02 -7.500000e-01  8.535495e-02
     vertex -9.137475e-02 -7.500000e-01  2.108093e-02
     vertex -7.308140e-02 -7.500000e-01 -5.906745e-02
   endloop
 endfacet
 facet normal  0.000000e+00 -1.000000e+00  0.000000e+00
   outer loop
     vertex  4.209162e-02 -7.500000e-01  8.535495e-02
     vertex -7.308140e-02 -7.500000e-01 -5.906745e-02
     vertex  9.868421e-04 -7.500000e-01 -9.473684e-02
   endloop
 endfacet
 facet normal  0.000000e+00  1.000000e+00  0.000000e+00
   outer loop
     vertex  4.209162e-02 -7.265625e-01  8.535495e-02
     vertex  7.505509e-02 -7.265625e-01 -5.906745e-02
     vertex  9.868421e-04 -7.265625e-01 -9.473684e-02
   endloop
 endfacet
 facet normal  0.000000e+00  1.000000e+00  0.000000e+00
   outer loop
     vertex  4.209162e-02 -7.265625e-01  8.535495e-02
     vertex  9.334843e-02 -7.265625e-01  2.108093e-02
     vertex  7.505509e-02 -7.265625e-01 -5.906745e-02
   endloop
 endfacet
 facet normal  0.000000e+00  1.000000e+00  0.000000e+00
   outer loop
     vertex  4.209162e-02 -7.265625e-01  8.535495e-02
     vertex -9.137475e-02 -7.265625e-01  2.108093e-02
     vertex -4.011793e-02 -7.265625e-01  8.535495e-02
   endloop
 endfacet
 facet normal  0.000000e+00  1.000000e+00  0.000000e+00
   outer loop
     vertex  4.209162e-02 -7.265625e-01  8.535495e-02
     vertex -7.308140e-02 -7.265625e-01 -5.906745e-02
     vertex -9.137475e-02 -7.265625e-01  2.108093e-02
   endloop
 endfacet
 facet normal  0.000000e+00  1.000000e+00  0.000000e+00
   outer loop
     vertex  4.209162e-02 -7.265625e-01  8.535495e-02
     vertex  9.868421e-04 -7.265625e-01 -9.473684e-02
     vertex -7.308140e-02 -7.265625e-01 -5.906745e-02
   endloop
 endfacet
endsolid
