solid 
 facet normal -6.123234e-17 -6.123234e-17 -1.000000e+00
   outer loop
     vertex  6.015625e-01  3.683508e-17 -3.683508e-17
     vertex  4.592425e-17 -7.500000e-01  4.592425e-17
     vertex  0.000000e+00  0.000000e+00  0.000000e+00
   endloop
 endfacet
 facet normal -6.123234e-17 -6.123234e-17 -1.000000e+00
   outer loop
     vertex  6.015625e-01  3.683508e-17 -3.683508e-17
     vertex  6.015625e-01 -7.500000e-01  9.089175e-18
     vertex  4.592425e-17 -7.500000e-01  4.592425e-17
   endloop
 endfacet
 facet normal  1.000000e+00  0.000000e+00  0.000000e+00
   outer loop
     vertex  6.015625e-01  4.536531e-17  1.393092e-01
     vertex  6.015625e-01 -7.500000e-01  9.089175e-18
     vertex  6.015625e-01  3.683508e-17 -3.683508e-17
   endloop
 endfacet
 facet normal  1.000000e+00  0.000000e+00  0.000000e+00
   outer loop
     vertex  6.015625e-01  4.536531e-17  1.393092e-01
     vertex  6.015625e-01 -7.500000e-01  1.393092e-01
     vertex  6.015625e-01 -7.500000e-01  9.089175e-18
   endloop
 endfacet
 facet normal -0.000000e+00  0.000000e+00  1.000000e+00
   outer loop
     vertex  8.530229e-18  8.530229e-18  1.393092e-01
     vertex  6.015625e-01 -7.500000e-01  1.393092e-01
     vertex  6.015625e-01  4.536531e-17  1.393092e-01
   endloop
 endfacet
 facet normal  0.000000e+00  0.000000e+00  1.000000e+00
   outer loop
     vertex  8.530229e-18  8.530229e-18  1.393092e-01
     vertex  5.445448e-17 -7.500000e-01  1.393092e-01
     vertex  6.015625e-01 -7.500000e-01  1.393092e-01
   endloop
 endfacet
 facet normal -1.000000e+00 -6.123234e-17  6.123234e-17
   outer loop
     vertex  0.000000e+00  0.000000e+00  0.000000e+00
     vertex  5.445448e-17 -7.500000e-01  1.393092e-01
     vertex  8.530229e-18  8.530229e-18  1.393092e-01
   endloop
 endfacet
 facet normal -1.000000e+00 -6.123234e-17  6.123234e-17
   outer loop
     vertex  0.000000e+00  0.000000e+00  0.000000e+00
     vertex  4.592425e-17 -7.500000e-01  4.592425e-17
     vertex  5.445448e-17 -7.500000e-01  1.393092e-01
   endloop
 endfacet
 facet normal -6.123234e-17  1.000000e+00 -6.123234e-17
   outer loop
     vertex  6.015625e-01  4.536531e-17  1.393092e-01
     vertex  6.015625e-01  3.683508e-17 -3.683508e-17
     vertex  0.000000e+00  0.000000e+00  0.000000e+00
   endloop
 endfacet
 facet normal -6.123234e-17  1.000000e+00 -6.123234e-17
   outer loop
     vertex  6.015625e-01  4.536531e-17  1.393092e-01
     vertex  0.000000e+00  0.000000e+00  0.000000e+00
     vertex  8.530229e-18  8.530229e-18  1.393092e-01
   endloop
 endfacet
 facet normal  0.000000e+00 -1.000000e+00 -0.000000e+00
   outer loop
     vertex  6.015625e-01 -7.500000e-01  1.393092e-01
     vertex  4.592425e-17 -7.500000e-01  4.592425e-17
     vertex  6.015625e-01 -7.500000e-01  9.089175e-18
   endloop
 endfacet
 facet normal -0.000000e+00 -1.000000e+00  0.000000e+00
   outer loop
     vertex  6.015625e-01 -7.500000e-01  1.393092e-01
     vertex  5.445448e-17 -7.500000e-01  1.393092e-01
     vertex  4.592425e-17 -7.500000e-01  4.592425e-17
   endloop
 endfacet
endsolid
