solid 
 facet normal -1.205367e-01  0.000000e+00 -9.927089e-01
   outer loop
     vertex -1.192684e-01 -6.708322e-18 -5.059118e-01
     vertex  5.427632e-03  0.000000e+00 -5.210526e-01
     vertex  5.427632e-03 -1.093750e-01 -5.210526e-01
   endloop
 endfacet
 facet normal -1.205367e-01 -0.000000e+00 -9.927089e-01
   outer loop
     vertex -1.192684e-01 -6.708322e-18 -5.059118e-01
     vertex  5.427632e-03 -1.093750e-01 -5.210526e-01
     vertex -1.192684e-01 -1.093750e-01 -5.059118e-01
   endloop
 endfacet
 facet normal -3.546049e-01 -4.745493e-16 -9.350162e-01
   outer loop
     vertex -2.367176e-01 -1.117256e-17 -4.613692e-01
     vertex -1.192684e-01 -1.093750e-01 -5.059118e-01
     vertex -2.367176e-01 -1.093750e-01 -4.613692e-01
   endloop
 endfacet
 facet normal -3.546049e-01  0.000000e+00 -9.350162e-01
   outer loop
     vertex -2.367176e-01 -1.117256e-17 -4.613692e-01
     vertex -1.192684e-01 -6.708322e-18 -5.059118e-01
     vertex -1.192684e-01 -1.093750e-01 -5.059118e-01
   endloop
 endfacet
 facet normal -5.680647e-01 -4.176894e-16 -8.229839e-01
   outer loop
     vertex -3.400942e-01 -1.313328e-17 -3.900135e-01
     vertex -2.367176e-01 -1.093750e-01 -4.613692e-01
     vertex -3.400942e-01 -1.093750e-01 -3.900135e-01
   endloop
 endfacet
 facet normal -5.680647e-01 -3.787936e-16 -8.229839e-01
   outer loop
     vertex -3.400942e-01 -1.313328e-17 -3.900135e-01
     vertex -2.367176e-01 -1.117256e-17 -4.613692e-01
     vertex -2.367176e-01 -1.093750e-01 -4.613692e-01
   endloop
 endfacet
 facet normal -7.485107e-01 -3.365550e-16 -6.631227e-01
   outer loop
     vertex -4.233903e-01 -1.247651e-17 -2.959916e-01
     vertex -3.400942e-01 -1.093750e-01 -3.900135e-01
     vertex -4.233903e-01 -1.093750e-01 -2.959916e-01
   endloop
 endfacet
 facet normal -7.485107e-01 -3.787936e-16 -6.631227e-01
   outer loop
     vertex -4.233903e-01 -1.247651e-17 -2.959916e-01
     vertex -3.400942e-01 -1.313328e-17 -3.900135e-01
     vertex -3.400942e-01 -1.093750e-01 -3.900135e-01
   endloop
 endfacet
 facet normal -8.854560e-01 -0.000000e+00 -4.647232e-01
   outer loop
     vertex -4.817650e-01 -9.240441e-18 -1.847678e-01
     vertex -4.233903e-01 -1.093750e-01 -2.959916e-01
     vertex -4.817650e-01 -1.093750e-01 -1.847678e-01
   endloop
 endfacet
 facet normal -8.854560e-01 -2.525291e-16 -4.647232e-01
   outer loop
     vertex -4.817650e-01 -9.240441e-18 -1.847678e-01
     vertex -4.233903e-01 -1.247651e-17 -2.959916e-01
     vertex -4.233903e-01 -1.093750e-01 -2.959916e-01
   endloop
 endfacet
 facet normal -9.709418e-01 -0.000000e+00 -2.393157e-01
   outer loop
     vertex -5.118259e-01 -3.613130e-18 -6.280595e-02
     vertex -4.817650e-01 -1.093750e-01 -1.847678e-01
     vertex -5.118259e-01 -1.093750e-01 -6.280595e-02
   endloop
 endfacet
 facet normal -9.709418e-01  0.000000e+00 -2.393157e-01
   outer loop
     vertex -5.118259e-01 -3.613130e-18 -6.280595e-02
     vertex -4.817650e-01 -9.240441e-18 -1.847678e-01
     vertex -4.817650e-01 -1.093750e-01 -1.847678e-01
   endloop
 endfacet
 facet normal -1.000000e+00  0.000000e+00  2.651555e-15
   outer loop
     vertex -5.118259e-01  4.078381e-18  6.280595e-02
     vertex -5.118259e-01 -1.093750e-01 -6.280595e-02
     vertex -5.118259e-01 -1.093750e-01  6.280595e-02
   endloop
 endfacet
 facet normal -1.000000e+00  0.000000e+00  2.651555e-15
   outer loop
     vertex -5.118259e-01  4.078381e-18  6.280595e-02
     vertex -5.118259e-01 -3.613130e-18 -6.280595e-02
     vertex -5.118259e-01 -1.093750e-01 -6.280595e-02
   endloop
 endfacet
 facet normal -9.709418e-01  0.000000e+00  2.393157e-01
   outer loop
     vertex -4.817650e-01  1.338709e-17  1.847678e-01
     vertex -5.118259e-01 -1.093750e-01  6.280595e-02
     vertex -4.817650e-01 -1.093750e-01  1.847678e-01
   endloop
 endfacet
 facet normal -9.709418e-01  0.000000e+00  2.393157e-01
   outer loop
     vertex -4.817650e-01  1.338709e-17  1.847678e-01
     vertex -5.118259e-01  4.078381e-18  6.280595e-02
     vertex -5.118259e-01 -1.093750e-01  6.280595e-02
   endloop
 endfacet
 facet normal -8.854560e-01  2.358612e-16  4.647232e-01
   outer loop
     vertex -4.233903e-01  2.377201e-17  2.959916e-01
     vertex -4.817650e-01 -1.093750e-01  1.847678e-01
     vertex -4.233903e-01 -1.093750e-01  2.959916e-01
   endloop
 endfacet
 facet normal -8.854560e-01  0.000000e+00  4.647232e-01
   outer loop
     vertex -4.233903e-01  2.377201e-17  2.959916e-01
     vertex -4.817650e-01  1.338709e-17  1.847678e-01
     vertex -4.817650e-01 -1.093750e-01  1.847678e-01
   endloop
 endfacet
 facet normal -7.485107e-01  3.365550e-16  6.631227e-01
   outer loop
     vertex -3.400942e-01  3.462960e-17  3.900135e-01
     vertex -4.233903e-01 -1.093750e-01  2.959916e-01
     vertex -3.400942e-01 -1.093750e-01  3.900135e-01
   endloop
 endfacet
 facet normal -7.485107e-01  3.787936e-16  6.631227e-01
   outer loop
     vertex -3.400942e-01  3.462960e-17  3.900135e-01
     vertex -4.233903e-01  2.377201e-17  2.959916e-01
     vertex -4.233903e-01 -1.093750e-01  2.959916e-01
   endloop
 endfacet
 facet normal -5.680647e-01  4.419259e-16  8.229839e-01
   outer loop
     vertex -2.367176e-01  4.532887e-17  4.613692e-01
     vertex -3.400942e-01  3.462960e-17  3.900135e-01
     vertex -3.400942e-01 -1.093750e-01  3.900135e-01
   endloop
 endfacet
 facet normal -5.680647e-01  4.176894e-16  8.229839e-01
   outer loop
     vertex -2.367176e-01  4.532887e-17  4.613692e-01
     vertex -3.400942e-01 -1.093750e-01  3.900135e-01
     vertex -2.367176e-01 -1.093750e-01  4.613692e-01
   endloop
 endfacet
 facet normal -3.546049e-01  5.050581e-16  9.350162e-01
   outer loop
     vertex -1.192684e-01  5.524800e-17  5.059118e-01
     vertex -2.367176e-01  4.532887e-17  4.613692e-01
     vertex -2.367176e-01 -1.093750e-01  4.613692e-01
   endloop
 endfacet
 facet normal -3.546049e-01  0.000000e+00  9.350162e-01
   outer loop
     vertex -1.192684e-01  5.524800e-17  5.059118e-01
     vertex -2.367176e-01 -1.093750e-01  4.613692e-01
     vertex -1.192684e-01 -1.093750e-01  5.059118e-01
   endloop
 endfacet
 facet normal -1.205367e-01  0.000000e+00  9.927089e-01
   outer loop
     vertex  5.427632e-03  6.381054e-17  5.210526e-01
     vertex -1.192684e-01  5.524800e-17  5.059118e-01
     vertex -1.192684e-01 -1.093750e-01  5.059118e-01
   endloop
 endfacet
 facet normal -1.205367e-01  0.000000e+00  9.927089e-01
   outer loop
     vertex  5.427632e-03  6.381054e-17  5.210526e-01
     vertex -1.192684e-01 -1.093750e-01  5.059118e-01
     vertex  5.427632e-03 -1.093750e-01  5.210526e-01
   endloop
 endfacet
 facet normal  1.205367e-01  0.000000e+00  9.927089e-01
   outer loop
     vertex  1.301237e-01  7.051887e-17  5.059118e-01
     vertex  5.427632e-03  6.381054e-17  5.210526e-01
     vertex  5.427632e-03 -1.093750e-01  5.210526e-01
   endloop
 endfacet
 facet normal  1.205367e-01  0.000000e+00  9.927089e-01
   outer loop
     vertex  1.301237e-01  7.051887e-17  5.059118e-01
     vertex  5.427632e-03 -1.093750e-01  5.210526e-01
     vertex  1.301237e-01 -1.093750e-01  5.059118e-01
   endloop
 endfacet
 facet normal  3.546049e-01  0.000000e+00  9.350162e-01
   outer loop
     vertex  2.475729e-01  7.498311e-17  4.613692e-01
     vertex  1.301237e-01  7.051887e-17  5.059118e-01
     vertex  1.301237e-01 -1.093750e-01  5.059118e-01
   endloop
 endfacet
 facet normal  3.546049e-01  4.745493e-16  9.350162e-01
   outer loop
     vertex  2.475729e-01  7.498311e-17  4.613692e-01
     vertex  1.301237e-01 -1.093750e-01  5.059118e-01
     vertex  2.475729e-01 -1.093750e-01  4.613692e-01
   endloop
 endfacet
 facet normal  5.680647e-01  4.419259e-16  8.229839e-01
   outer loop
     vertex  3.509494e-01  7.694382e-17  3.900135e-01
     vertex  2.475729e-01  7.498311e-17  4.613692e-01
     vertex  2.475729e-01 -1.093750e-01  4.613692e-01
   endloop
 endfacet
 facet normal  5.680647e-01  4.176894e-16  8.229839e-01
   outer loop
     vertex  3.509494e-01  7.694382e-17  3.900135e-01
     vertex  2.475729e-01 -1.093750e-01  4.613692e-01
     vertex  3.509494e-01 -1.093750e-01  3.900135e-01
   endloop
 endfacet
 facet normal  7.485107e-01  2.525291e-16  6.631227e-01
   outer loop
     vertex  4.342455e-01  7.628706e-17  2.959916e-01
     vertex  3.509494e-01  7.694382e-17  3.900135e-01
     vertex  3.509494e-01 -1.093750e-01  3.900135e-01
   endloop
 endfacet
 facet normal  8.854560e-01  2.358612e-16  4.647232e-01
   outer loop
     vertex  4.342455e-01  7.628706e-17  2.959916e-01
     vertex  4.342455e-01 -1.093750e-01  2.959916e-01
     vertex  4.926203e-01 -1.093750e-01  1.847678e-01
   endloop
 endfacet
 facet normal  7.485107e-01  3.365550e-16  6.631227e-01
   outer loop
     vertex  4.342455e-01  7.628706e-17  2.959916e-01
     vertex  3.509494e-01 -1.093750e-01  3.900135e-01
     vertex  4.342455e-01 -1.093750e-01  2.959916e-01
   endloop
 endfacet
 facet normal  8.854560e-01  0.000000e+00  4.647232e-01
   outer loop
     vertex  4.926203e-01  7.305098e-17  1.847678e-01
     vertex  4.342455e-01  7.628706e-17  2.959916e-01
     vertex  4.926203e-01 -1.093750e-01  1.847678e-01
   endloop
 endfacet
 facet normal  9.709418e-01  0.000000e+00  2.393157e-01
   outer loop
     vertex  5.226812e-01  6.742367e-17  6.280595e-02
     vertex  4.926203e-01  7.305098e-17  1.847678e-01
     vertex  4.926203e-01 -1.093750e-01  1.847678e-01
   endloop
 endfacet
 facet normal  9.709418e-01  0.000000e+00  2.393157e-01
   outer loop
     vertex  5.226812e-01  6.742367e-17  6.280595e-02
     vertex  4.926203e-01 -1.093750e-01  1.847678e-01
     vertex  5.226812e-01 -1.093750e-01  6.280595e-02
   endloop
 endfacet
 facet normal  1.000000e+00  0.000000e+00  0.000000e+00
   outer loop
     vertex  5.226812e-01  5.973216e-17 -6.280595e-02
     vertex  5.226812e-01 -1.093750e-01  6.280595e-02
     vertex  5.226812e-01 -1.093750e-01 -6.280595e-02
   endloop
 endfacet
 facet normal  1.000000e+00  0.000000e+00 -0.000000e+00
   outer loop
     vertex  5.226812e-01  5.973216e-17 -6.280595e-02
     vertex  5.226812e-01  6.742367e-17  6.280595e-02
     vertex  5.226812e-01 -1.093750e-01  6.280595e-02
   endloop
 endfacet
 facet normal  9.709418e-01  0.000000e+00 -2.393157e-01
   outer loop
     vertex  4.926203e-01  5.042345e-17 -1.847678e-01
     vertex  5.226812e-01 -1.093750e-01 -6.280595e-02
     vertex  4.926203e-01 -1.093750e-01 -1.847678e-01
   endloop
 endfacet
 facet normal  9.709418e-01  0.000000e+00 -2.393157e-01
   outer loop
     vertex  4.926203e-01  5.042345e-17 -1.847678e-01
     vertex  5.226812e-01  5.973216e-17 -6.280595e-02
     vertex  5.226812e-01 -1.093750e-01 -6.280595e-02
   endloop
 endfacet
 facet normal  7.485107e-01 -3.365550e-16 -6.631227e-01
   outer loop
     vertex  4.342455e-01  4.003854e-17 -2.959916e-01
     vertex  4.342455e-01 -1.093750e-01 -2.959916e-01
     vertex  3.509494e-01 -1.093750e-01 -3.900135e-01
   endloop
 endfacet
 facet normal  8.854560e-01 -2.358612e-16 -4.647232e-01
   outer loop
     vertex  4.342455e-01  4.003854e-17 -2.959916e-01
     vertex  4.926203e-01 -1.093750e-01 -1.847678e-01
     vertex  4.342455e-01 -1.093750e-01 -2.959916e-01
   endloop
 endfacet
 facet normal  8.854560e-01  0.000000e+00 -4.647232e-01
   outer loop
     vertex  4.342455e-01  4.003854e-17 -2.959916e-01
     vertex  4.926203e-01  5.042345e-17 -1.847678e-01
     vertex  4.926203e-01 -1.093750e-01 -1.847678e-01
   endloop
 endfacet
 facet normal  7.485107e-01 -3.365550e-16 -6.631227e-01
   outer loop
     vertex  3.509494e-01  2.918094e-17 -3.900135e-01
     vertex  4.342455e-01  4.003854e-17 -2.959916e-01
     vertex  3.509494e-01 -1.093750e-01 -3.900135e-01
   endloop
 endfacet
 facet normal  5.680647e-01 -4.176894e-16 -8.229839e-01
   outer loop
     vertex  2.475729e-01  1.848168e-17 -4.613692e-01
     vertex  3.509494e-01 -1.093750e-01 -3.900135e-01
     vertex  2.475729e-01 -1.093750e-01 -4.613692e-01
   endloop
 endfacet
 facet normal  5.680647e-01 -4.419259e-16 -8.229839e-01
   outer loop
     vertex  2.475729e-01  1.848168e-17 -4.613692e-01
     vertex  3.509494e-01  2.918094e-17 -3.900135e-01
     vertex  3.509494e-01 -1.093750e-01 -3.900135e-01
   endloop
 endfacet
 facet normal  3.546049e-01  0.000000e+00 -9.350162e-01
   outer loop
     vertex  1.301237e-01  8.562541e-18 -5.059118e-01
     vertex  2.475729e-01 -1.093750e-01 -4.613692e-01
     vertex  1.301237e-01 -1.093750e-01 -5.059118e-01
   endloop
 endfacet
 facet normal  3.546049e-01 -4.419259e-16 -9.350162e-01
   outer loop
     vertex  1.301237e-01  8.562541e-18 -5.059118e-01
     vertex  2.475729e-01  1.848168e-17 -4.613692e-01
     vertex  2.475729e-01 -1.093750e-01 -4.613692e-01
   endloop
 endfacet
 facet normal  1.205367e-01  0.000000e+00 -9.927089e-01
   outer loop
     vertex  5.427632e-03  0.000000e+00 -5.210526e-01
     vertex  1.301237e-01 -1.093750e-01 -5.059118e-01
     vertex  5.427632e-03 -1.093750e-01 -5.210526e-01
   endloop
 endfacet
 facet normal  1.205367e-01  0.000000e+00 -9.927089e-01
   outer loop
     vertex  5.427632e-03  0.000000e+00 -5.210526e-01
     vertex  1.301237e-01  8.562541e-18 -5.059118e-01
     vertex  1.301237e-01 -1.093750e-01 -5.059118e-01
   endloop
 endfacet
 facet normal -1.940596e-17  1.000000e+00 -8.318452e-17
   outer loop
     vertex -5.575658e-02  6.284372e-18 -1.256874e-17
     vertex -4.817650e-01  1.338709e-17  1.847678e-01
     vertex -4.233903e-01  2.377201e-17  2.959916e-01
   endloop
 endfacet
 facet normal -1.484391e-17  1.000000e+00 -7.266606e-17
   outer loop
     vertex -5.575658e-02  6.284372e-18 -1.256874e-17
     vertex -5.118259e-01  4.078381e-18  6.280595e-02
     vertex -4.817650e-01  1.338709e-17  1.847678e-01
   endloop
 endfacet
 facet normal -1.326936e-17  1.000000e+00 -6.123234e-17
   outer loop
     vertex -5.575658e-02  6.284372e-18 -1.256874e-17
     vertex -5.118259e-01 -3.613130e-18 -6.280595e-02
     vertex -5.118259e-01  4.078381e-18  6.280595e-02
   endloop
 endfacet
 facet normal -1.484391e-17  1.000000e+00 -4.979862e-17
   outer loop
     vertex -5.575658e-02  6.284372e-18 -1.256874e-17
     vertex -4.817650e-01 -9.240441e-18 -1.847678e-01
     vertex -5.118259e-01 -3.613130e-18 -6.280595e-02
   endloop
 endfacet
 facet normal -1.940596e-17  1.000000e+00 -3.928016e-17
   outer loop
     vertex -5.575658e-02  6.284372e-18 -1.256874e-17
     vertex -4.233903e-01 -1.247651e-17 -2.959916e-01
     vertex -4.817650e-01 -9.240441e-18 -1.847678e-01
   endloop
 endfacet
 facet normal -2.650324e-17  1.000000e+00 -3.046505e-17
   outer loop
     vertex -5.575658e-02  6.284372e-18 -1.256874e-17
     vertex -3.400942e-01 -1.313328e-17 -3.900135e-01
     vertex -4.233903e-01 -1.247651e-17 -2.959916e-01
   endloop
 endfacet
 facet normal -6.687227e-17  1.000000e+00 -1.478337e-17
   outer loop
     vertex -4.440789e-03  6.284372e-18 -5.131579e-02
     vertex  1.301237e-01  8.562541e-18 -5.059118e-01
     vertex  5.427632e-03  0.000000e+00 -5.210526e-01
   endloop
 endfacet
 facet normal -7.763938e-17  1.000000e+00 -1.797054e-17
   outer loop
     vertex -4.440789e-03  6.284372e-18 -5.131579e-02
     vertex  2.475729e-01  1.848168e-17 -4.613692e-01
     vertex  1.301237e-01  8.562541e-18 -5.059118e-01
   endloop
 endfacet
 facet normal -3.476091e-17  1.000000e+00 -2.288185e-17
   outer loop
     vertex -4.440789e-03  6.284372e-18 -5.131579e-02
     vertex -2.367176e-01 -1.117256e-17 -4.613692e-01
     vertex -3.400942e-01 -1.313328e-17 -3.900135e-01
   endloop
 endfacet
 facet normal -4.457877e-17  1.000000e+00 -1.732048e-17
   outer loop
     vertex -4.440789e-03  6.284372e-18 -5.131579e-02
     vertex -1.192684e-01 -6.708322e-18 -5.059118e-01
     vertex -2.367176e-01 -1.117256e-17 -4.613692e-01
   endloop
 endfacet
 facet normal -5.556357e-17  1.000000e+00 -1.454580e-17
   outer loop
     vertex -4.440789e-03  6.284372e-18 -5.131579e-02
     vertex  5.427632e-03  0.000000e+00 -5.210526e-01
     vertex -1.192684e-01 -6.708322e-18 -5.059118e-01
   endloop
 endfacet
 facet normal -2.879457e-17  1.000000e+00 -2.879457e-17
   outer loop
     vertex -4.440789e-03  6.284372e-18 -5.131579e-02
     vertex -3.400942e-01 -1.313328e-17 -3.900135e-01
     vertex -5.575658e-02  6.284372e-18 -1.256874e-17
   endloop
 endfacet
 facet normal -8.708626e-17  1.000000e+00 -2.377647e-17
   outer loop
     vertex  3.509494e-01  2.918094e-17 -3.900135e-01
     vertex  2.475729e-01  1.848168e-17 -4.613692e-01
     vertex -4.440789e-03  6.284372e-18 -5.131579e-02
   endloop
 endfacet
 facet normal  2.677173e-17  1.000000e+00  9.569295e-17
   outer loop
     vertex  4.687500e-02 -2.026078e-31  8.242980e-32
     vertex  3.509494e-01  2.918094e-17 -3.900135e-01
     vertex -4.440789e-03  6.284372e-18 -5.131579e-02
   endloop
 endfacet
 facet normal  1.128613e-16  1.000000e+00  9.603428e-18
   outer loop
     vertex -3.400942e-01  3.462960e-17  3.900135e-01
     vertex -4.440789e-03  0.000000e+00  5.131579e-02
     vertex -5.575658e-02  6.284372e-18 -1.256874e-17
   endloop
 endfacet
 facet normal -2.650324e-17  1.000000e+00 -9.199963e-17
   outer loop
     vertex -3.400942e-01  3.462960e-17  3.900135e-01
     vertex -5.575658e-02  6.284372e-18 -1.256874e-17
     vertex -4.233903e-01  2.377201e-17  2.959916e-01
   endloop
 endfacet
 facet normal -1.142548e-16  1.000000e+00 -1.425854e-17
   outer loop
     vertex  4.342455e-01  4.003854e-17 -2.959916e-01
     vertex  3.509494e-01  2.918094e-17 -3.900135e-01
     vertex  4.687500e-02 -2.026078e-31  8.242980e-32
   endloop
 endfacet
 facet normal -1.955081e-17  1.000000e+00 -1.216185e-16
   outer loop
     vertex -2.367176e-01  4.532887e-17  4.613692e-01
     vertex -4.440789e-03  0.000000e+00  5.131579e-02
     vertex -3.400942e-01  3.462960e-17  3.900135e-01
   endloop
 endfacet
 facet normal -1.246965e-16  1.000000e+00 -2.792379e-17
   outer loop
     vertex  4.926203e-01  5.042345e-17 -1.847678e-01
     vertex  4.342455e-01  4.003854e-17 -2.959916e-01
     vertex  4.687500e-02 -2.026078e-31  8.242980e-32
   endloop
 endfacet
 facet normal -3.500986e-17  1.000000e+00 -1.303753e-16
   outer loop
     vertex -1.192684e-01  5.524800e-17  5.059118e-01
     vertex -4.440789e-03  0.000000e+00  5.131579e-02
     vertex -2.367176e-01  4.532887e-17  4.613692e-01
   endloop
 endfacet
 facet normal -1.313405e-16  1.000000e+00 -4.395223e-17
   outer loop
     vertex  5.226812e-01  5.973216e-17 -6.280595e-02
     vertex  4.926203e-01  5.042345e-17 -1.847678e-01
     vertex  4.687500e-02 -2.026078e-31  8.242980e-32
   endloop
 endfacet
 facet normal -5.230637e-17  1.000000e+00 -1.347443e-16
   outer loop
     vertex  5.427632e-03  6.381054e-17  5.210526e-01
     vertex -4.440789e-03  0.000000e+00  5.131579e-02
     vertex -1.192684e-01  5.524800e-17  5.059118e-01
   endloop
 endfacet
 facet normal -1.336215e-16  1.000000e+00 -6.123234e-17
   outer loop
     vertex  5.226812e-01  6.742367e-17  6.280595e-02
     vertex  5.226812e-01  5.973216e-17 -6.280595e-02
     vertex  4.687500e-02 -2.026078e-31  8.242980e-32
   endloop
 endfacet
 facet normal -7.011289e-17  1.000000e+00 -1.343702e-16
   outer loop
     vertex  1.301237e-01  7.051887e-17  5.059118e-01
     vertex -4.440789e-03  0.000000e+00  5.131579e-02
     vertex  5.427632e-03  6.381054e-17  5.210526e-01
   endloop
 endfacet
 facet normal -1.313405e-16  1.000000e+00 -7.851245e-17
   outer loop
     vertex  4.926203e-01  7.305098e-17  1.847678e-01
     vertex  5.226812e-01  6.742367e-17  6.280595e-02
     vertex  4.687500e-02 -2.026078e-31  8.242980e-32
   endloop
 endfacet
 facet normal -8.706663e-17  1.000000e+00 -1.293518e-16
   outer loop
     vertex  2.475729e-01  7.498311e-17  4.613692e-01
     vertex -4.440789e-03  0.000000e+00  5.131579e-02
     vertex  1.301237e-01  7.051887e-17  5.059118e-01
   endloop
 endfacet
 facet normal -1.246965e-16  1.000000e+00 -9.454089e-17
   outer loop
     vertex  4.342455e-01  7.628706e-17  2.959916e-01
     vertex  4.926203e-01  7.305098e-17  1.847678e-01
     vertex  4.687500e-02 -2.026078e-31  8.242980e-32
   endloop
 endfacet
 facet normal -1.108560e-16  1.000000e+00 -1.108560e-16
   outer loop
     vertex  3.509494e-01  7.694382e-17  3.900135e-01
     vertex  4.687500e-02 -2.026078e-31  8.242980e-32
     vertex -4.440789e-03  0.000000e+00  5.131579e-02
   endloop
 endfacet
 facet normal -1.142548e-16  1.000000e+00 -1.082061e-16
   outer loop
     vertex  3.509494e-01  7.694382e-17  3.900135e-01
     vertex  4.342455e-01  7.628706e-17  2.959916e-01
     vertex  4.687500e-02 -2.026078e-31  8.242980e-32
   endloop
 endfacet
 facet normal -1.019416e-16  1.000000e+00 -1.202098e-16
   outer loop
     vertex  3.509494e-01  7.694382e-17  3.900135e-01
     vertex -4.440789e-03  0.000000e+00  5.131579e-02
     vertex  2.475729e-01  7.498311e-17  4.613692e-01
   endloop
 endfacet
 facet normal  6.246338e-17 -1.000000e+00 -3.278331e-17
   outer loop
     vertex -2.706731e-01 -1.093750e-01  1.636513e-01
     vertex -4.233903e-01 -1.093750e-01  2.959916e-01
     vertex -4.817650e-01 -1.093750e-01  1.847678e-01
   endloop
 endfacet
 facet normal  7.526970e-17 -1.000000e+00  9.523562e-17
   outer loop
     vertex -2.706731e-01 -1.093750e-01  1.636513e-01
     vertex -4.817650e-01 -1.093750e-01  1.847678e-01
     vertex -5.118259e-01 -1.093750e-01  6.280595e-02
   endloop
 endfacet
 facet normal  6.889419e-17 -1.000000e+00  1.104815e-16
   outer loop
     vertex -2.706731e-01 -1.093750e-01  1.636513e-01
     vertex -5.118259e-01 -1.093750e-01  6.280595e-02
     vertex -5.118259e-01 -1.093750e-01 -6.280595e-02
   endloop
 endfacet
 facet normal  1.170757e-16 -1.000000e+00  2.885657e-17
   outer loop
     vertex -2.023026e-01 -1.093750e-01  1.241776e-01
     vertex -5.118259e-01 -1.093750e-01 -6.280595e-02
     vertex -4.817650e-01 -1.093750e-01 -1.847678e-01
   endloop
 endfacet
 facet normal  9.427642e-17 -1.000000e+00  4.948008e-17
   outer loop
     vertex -2.023026e-01 -1.093750e-01  1.241776e-01
     vertex -4.817650e-01 -1.093750e-01 -1.847678e-01
     vertex -4.233903e-01 -1.093750e-01 -2.959916e-01
   endloop
 endfacet
 facet normal  7.016956e-17 -1.000000e+00  6.216481e-17
   outer loop
     vertex -2.023026e-01 -1.093750e-01  1.241776e-01
     vertex -4.233903e-01 -1.093750e-01 -2.959916e-01
     vertex -3.400942e-01 -1.093750e-01 -3.900135e-01
   endloop
 endfacet
 facet normal  4.716454e-17 -1.000000e+00  6.832963e-17
   outer loop
     vertex -2.023026e-01 -1.093750e-01  1.241776e-01
     vertex -3.400942e-01 -1.093750e-01 -3.900135e-01
     vertex -2.367176e-01 -1.093750e-01 -4.613692e-01
   endloop
 endfacet
 facet normal  2.637736e-17 -1.000000e+00  6.955138e-17
   outer loop
     vertex -2.023026e-01 -1.093750e-01  1.241776e-01
     vertex -2.367176e-01 -1.093750e-01 -4.613692e-01
     vertex -1.192684e-01 -1.093750e-01 -5.059118e-01
   endloop
 endfacet
 facet normal  3.474615e-16 -1.000000e+00  1.118644e-16
   outer loop
     vertex -2.023026e-01 -1.093750e-01  1.241776e-01
     vertex -1.192684e-01 -1.093750e-01 -5.059118e-01
     vertex  5.427632e-03 -1.093750e-01 -5.210526e-01
   endloop
 endfacet
 facet normal  6.573118e-17 -1.000000e+00  1.138497e-16
   outer loop
     vertex -2.023026e-01 -1.093750e-01  1.241776e-01
     vertex -2.706731e-01 -1.093750e-01  1.636513e-01
     vertex -5.118259e-01 -1.093750e-01 -6.280595e-02
   endloop
 endfacet
 facet normal  9.087245e-17 -1.000000e+00 -6.389617e-32
   outer loop
     vertex -2.706731e-01 -1.093750e-01  2.425987e-01
     vertex -4.233903e-01 -1.093750e-01  2.959916e-01
     vertex -2.706731e-01 -1.093750e-01  1.636513e-01
   endloop
 endfacet
 facet normal -2.172177e-16 -1.000000e+00 -4.421096e-17
   outer loop
     vertex -1.339322e-01 -1.093750e-01  1.636513e-01
     vertex  5.427632e-03 -1.093750e-01 -5.210526e-01
     vertex  1.301237e-01 -1.093750e-01 -5.059118e-01
   endloop
 endfacet
 facet normal  8.911092e-17 -1.000000e+00  7.659598e-17
   outer loop
     vertex -1.339322e-01 -1.093750e-01  1.636513e-01
     vertex  1.301237e-01 -1.093750e-01 -5.059118e-01
     vertex  2.475729e-01 -1.093750e-01 -4.613692e-01
   endloop
 endfacet
 facet normal  8.366788e-17 -1.000000e+00  7.327361e-17
   outer loop
     vertex -1.339322e-01 -1.093750e-01  1.636513e-01
     vertex  2.475729e-01 -1.093750e-01 -4.613692e-01
     vertex  3.509494e-01 -1.093750e-01 -3.900135e-01
   endloop
 endfacet
 facet normal  0.000000e+00 -1.000000e+00 -0.000000e+00
   outer loop
     vertex -1.339322e-01 -1.093750e-01  1.636513e-01
     vertex -2.023026e-01 -1.093750e-01  1.241776e-01
     vertex  5.427632e-03 -1.093750e-01 -5.210526e-01
   endloop
 endfacet
 facet normal  1.087829e-16 -1.000000e+00  5.122845e-17
   outer loop
     vertex -3.400942e-01 -1.093750e-01  3.900135e-01
     vertex -4.233903e-01 -1.093750e-01  2.959916e-01
     vertex -2.706731e-01 -1.093750e-01  2.425987e-01
   endloop
 endfacet
 facet normal -0.000000e+00 -1.000000e+00  0.000000e+00
   outer loop
     vertex -2.023026e-01 -1.093750e-01  2.820724e-01
     vertex -3.400942e-01 -1.093750e-01  3.900135e-01
     vertex -2.706731e-01 -1.093750e-01  2.425987e-01
   endloop
 endfacet
 facet normal  8.378415e-17 -1.000000e+00  7.337543e-17
   outer loop
     vertex  4.342455e-01 -1.093750e-01 -2.959916e-01
     vertex -1.339322e-01 -1.093750e-01  1.636513e-01
     vertex  3.509494e-01 -1.093750e-01 -3.900135e-01
   endloop
 endfacet
 facet normal  7.136385e-17 -1.000000e+00  9.109906e-17
   outer loop
     vertex -2.367176e-01 -1.093750e-01  4.613692e-01
     vertex -3.400942e-01 -1.093750e-01  3.900135e-01
     vertex -2.023026e-01 -1.093750e-01  2.820724e-01
   endloop
 endfacet
 facet normal  1.714541e-17 -1.000000e+00 -8.998607e-18
   outer loop
     vertex  4.926203e-01 -1.093750e-01 -1.847678e-01
     vertex -1.339322e-01 -1.093750e-01  1.636513e-01
     vertex  4.342455e-01 -1.093750e-01 -2.959916e-01
   endloop
 endfacet
 facet normal  5.896215e-17 -1.000000e+00  1.021254e-16
   outer loop
     vertex -1.192684e-01 -1.093750e-01  5.059118e-01
     vertex -2.023026e-01 -1.093750e-01  2.820724e-01
     vertex -1.339322e-01 -1.093750e-01  2.425987e-01
   endloop
 endfacet
 facet normal  8.277962e-17 -1.000000e+00  9.329025e-17
   outer loop
     vertex -1.192684e-01 -1.093750e-01  5.059118e-01
     vertex -2.367176e-01 -1.093750e-01  4.613692e-01
     vertex -2.023026e-01 -1.093750e-01  2.820724e-01
   endloop
 endfacet
 facet normal  7.512833e-17 -1.000000e+00  9.527047e-17
   outer loop
     vertex  5.226812e-01 -1.093750e-01 -6.280595e-02
     vertex -1.339322e-01 -1.093750e-01  1.636513e-01
     vertex  4.926203e-01 -1.093750e-01 -1.847678e-01
   endloop
 endfacet
 facet normal -1.288611e-17 -1.000000e+00  1.061266e-16
   outer loop
     vertex  5.427632e-03 -1.093750e-01  5.210526e-01
     vertex -1.192684e-01 -1.093750e-01  5.059118e-01
     vertex -1.339322e-01 -1.093750e-01  2.425987e-01
   endloop
 endfacet
 facet normal  8.037440e-17 -1.000000e+00  1.104815e-16
   outer loop
     vertex  5.226812e-01 -1.093750e-01  6.280595e-02
     vertex -1.339322e-01 -1.093750e-01  1.636513e-01
     vertex  5.226812e-01 -1.093750e-01 -6.280595e-02
   endloop
 endfacet
 facet normal  1.163269e-16 -1.000000e+00  4.145849e-17
   outer loop
     vertex  1.301237e-01 -1.093750e-01  5.059118e-01
     vertex  5.427632e-03 -1.093750e-01  5.210526e-01
     vertex -1.339322e-01 -1.093750e-01  2.425987e-01
   endloop
 endfacet
 facet normal  6.590089e-17 -1.000000e+00  1.624311e-17
   outer loop
     vertex  4.926203e-01 -1.093750e-01  1.847678e-01
     vertex -1.339322e-01 -1.093750e-01  1.636513e-01
     vertex  5.226812e-01 -1.093750e-01  6.280595e-02
   endloop
 endfacet
 facet normal  1.091293e-16 -1.000000e+00  0.000000e+00
   outer loop
     vertex  2.475729e-01 -1.093750e-01  4.613692e-01
     vertex -1.339322e-01 -1.093750e-01  2.425987e-01
     vertex -1.339322e-01 -1.093750e-01  1.636513e-01
   endloop
 endfacet
 facet normal  4.344251e-17 -1.000000e+00  1.145485e-16
   outer loop
     vertex  2.475729e-01 -1.093750e-01  4.613692e-01
     vertex  1.301237e-01 -1.093750e-01  5.059118e-01
     vertex -1.339322e-01 -1.093750e-01  2.425987e-01
   endloop
 endfacet
 facet normal  6.529338e-17 -1.000000e+00  3.426861e-17
   outer loop
     vertex  4.342455e-01 -1.093750e-01  2.959916e-01
     vertex -1.339322e-01 -1.093750e-01  1.636513e-01
     vertex  4.926203e-01 -1.093750e-01  1.847678e-01
   endloop
 endfacet
 facet normal  5.122065e-17 -1.000000e+00  7.420592e-17
   outer loop
     vertex  3.509494e-01 -1.093750e-01  3.900135e-01
     vertex  2.475729e-01 -1.093750e-01  4.613692e-01
     vertex -1.339322e-01 -1.093750e-01  1.636513e-01
   endloop
 endfacet
 facet normal  6.074130e-17 -1.000000e+00  5.381209e-17
   outer loop
     vertex  3.509494e-01 -1.093750e-01  3.900135e-01
     vertex -1.339322e-01 -1.093750e-01  1.636513e-01
     vertex  4.342455e-01 -1.093750e-01  2.959916e-01
   endloop
 endfacet
 facet normal -7.071068e-01  0.000000e+00  7.071068e-01
   outer loop
     vertex -5.575658e-02  6.284372e-18 -1.256874e-17
     vertex -4.440789e-03  0.000000e+00  5.131579e-02
     vertex -4.440789e-03  7.500000e-01  5.131579e-02
   endloop
 endfacet
 facet normal -7.071068e-01 -4.329780e-17  7.071068e-01
   outer loop
     vertex -5.575658e-02  6.284372e-18 -1.256874e-17
     vertex -4.440789e-03  7.500000e-01  5.131579e-02
     vertex -5.575658e-02  7.500000e-01  3.335551e-17
   endloop
 endfacet
 facet normal -7.071068e-01  3.925231e-17 -7.071068e-01
   outer loop
     vertex -4.440789e-03  6.284372e-18 -5.131579e-02
     vertex -5.575658e-02  7.500000e-01  3.335551e-17
     vertex -4.440789e-03  7.500000e-01 -5.131579e-02
   endloop
 endfacet
 facet normal -7.071068e-01  4.780730e-17 -7.071068e-01
   outer loop
     vertex -4.440789e-03  6.284372e-18 -5.131579e-02
     vertex -5.575658e-02  6.284372e-18 -1.256874e-17
     vertex -5.575658e-02  7.500000e-01  3.335551e-17
   endloop
 endfacet
 facet normal  7.071068e-01  4.329780e-17 -7.071068e-01
   outer loop
     vertex  4.687500e-02 -2.026078e-31  8.242980e-32
     vertex -4.440789e-03  7.500000e-01 -5.131579e-02
     vertex  4.687500e-02  7.500000e-01  4.592425e-17
   endloop
 endfacet
 facet normal  7.071068e-01  3.983942e-17 -7.071068e-01
   outer loop
     vertex  4.687500e-02 -2.026078e-31  8.242980e-32
     vertex -4.440789e-03  6.284372e-18 -5.131579e-02
     vertex -4.440789e-03  7.500000e-01 -5.131579e-02
   endloop
 endfacet
 facet normal  7.071068e-01 -0.000000e+00  7.071068e-01
   outer loop
     vertex -4.440789e-03  0.000000e+00  5.131579e-02
     vertex  4.687500e-02  7.500000e-01  4.592425e-17
     vertex -4.440789e-03  7.500000e-01  5.131579e-02
   endloop
 endfacet
 facet normal  7.071068e-01 -4.780730e-17  7.071068e-01
   outer loop
     vertex -4.440789e-03  0.000000e+00  5.131579e-02
     vertex  4.687500e-02 -2.026078e-31  8.242980e-32
     vertex  4.687500e-02  7.500000e-01  4.592425e-17
   endloop
 endfacet
 facet normal -5.000000e-01  0.000000e+00 -8.660254e-01
   outer loop
     vertex -2.706731e-01 -1.093750e-01  1.636513e-01
     vertex -2.023026e-01 -1.093750e-01  1.241776e-01
     vertex -2.023026e-01 -6.250000e-01  1.241776e-01
   endloop
 endfacet
 facet normal -5.000000e-01 -0.000000e+00 -8.660254e-01
   outer loop
     vertex -2.706731e-01 -1.093750e-01  1.636513e-01
     vertex -2.023026e-01 -6.250000e-01  1.241776e-01
     vertex -2.706731e-01 -6.250000e-01  1.636513e-01
   endloop
 endfacet
 facet normal -1.000000e+00  0.000000e+00  7.031412e-16
   outer loop
     vertex -2.706731e-01 -1.093750e-01  2.425987e-01
     vertex -2.706731e-01 -6.250000e-01  1.636513e-01
     vertex -2.706731e-01 -6.250000e-01  2.425987e-01
   endloop
 endfacet
 facet normal -1.000000e+00  0.000000e+00  7.031412e-16
   outer loop
     vertex -2.706731e-01 -1.093750e-01  2.425987e-01
     vertex -2.706731e-01 -1.093750e-01  1.636513e-01
     vertex -2.706731e-01 -6.250000e-01  1.636513e-01
   endloop
 endfacet
 facet normal -5.000000e-01  0.000000e+00  8.660254e-01
   outer loop
     vertex -2.023026e-01 -1.093750e-01  2.820724e-01
     vertex -2.706731e-01 -6.250000e-01  2.425987e-01
     vertex -2.023026e-01 -6.250000e-01  2.820724e-01
   endloop
 endfacet
 facet normal -5.000000e-01  0.000000e+00  8.660254e-01
   outer loop
     vertex -2.023026e-01 -1.093750e-01  2.820724e-01
     vertex -2.706731e-01 -1.093750e-01  2.425987e-01
     vertex -2.706731e-01 -6.250000e-01  2.425987e-01
   endloop
 endfacet
 facet normal  5.000000e-01  0.000000e+00  8.660254e-01
   outer loop
     vertex -1.339322e-01 -1.093750e-01  2.425987e-01
     vertex -2.023026e-01 -6.250000e-01  2.820724e-01
     vertex -1.339322e-01 -6.250000e-01  2.425987e-01
   endloop
 endfacet
 facet normal  5.000000e-01  0.000000e+00  8.660254e-01
   outer loop
     vertex -1.339322e-01 -1.093750e-01  2.425987e-01
     vertex -2.023026e-01 -1.093750e-01  2.820724e-01
     vertex -2.023026e-01 -6.250000e-01  2.820724e-01
   endloop
 endfacet
 facet normal  5.000000e-01  0.000000e+00 -8.660254e-01
   outer loop
     vertex -1.339322e-01 -1.093750e-01  1.636513e-01
     vertex -1.339322e-01 -6.250000e-01  1.636513e-01
     vertex -2.023026e-01 -6.250000e-01  1.241776e-01
   endloop
 endfacet
 facet normal  1.000000e+00  0.000000e+00 -3.515706e-16
   outer loop
     vertex -1.339322e-01 -1.093750e-01  1.636513e-01
     vertex -1.339322e-01 -6.250000e-01  2.425987e-01
     vertex -1.339322e-01 -6.250000e-01  1.636513e-01
   endloop
 endfacet
 facet normal  1.000000e+00  0.000000e+00 -3.515706e-16
   outer loop
     vertex -1.339322e-01 -1.093750e-01  1.636513e-01
     vertex -1.339322e-01 -1.093750e-01  2.425987e-01
     vertex -1.339322e-01 -6.250000e-01  2.425987e-01
   endloop
 endfacet
 facet normal  5.000000e-01  0.000000e+00 -8.660254e-01
   outer loop
     vertex -2.023026e-01 -1.093750e-01  1.241776e-01
     vertex -1.339322e-01 -1.093750e-01  1.636513e-01
     vertex -2.023026e-01 -6.250000e-01  1.241776e-01
   endloop
 endfacet
 facet normal  0.000000e+00  1.000000e+00  0.000000e+00
   outer loop
     vertex -5.575658e-02  7.500000e-01  3.335551e-17
     vertex -4.440789e-03  7.500000e-01  5.131579e-02
     vertex  4.687500e-02  7.500000e-01  4.592425e-17
   endloop
 endfacet
 facet normal -0.000000e+00  1.000000e+00  0.000000e+00
   outer loop
     vertex -5.575658e-02  7.500000e-01  3.335551e-17
     vertex  4.687500e-02  7.500000e-01  4.592425e-17
     vertex -4.440789e-03  7.500000e-01 -5.131579e-02
   endloop
 endfacet
 facet normal  0.000000e+00 -1.000000e+00  0.000000e+00
   outer loop
     vertex -1.339322e-01 -6.250000e-01  2.425987e-01
     vertex -2.023026e-01 -6.250000e-01  1.241776e-01
     vertex -1.339322e-01 -6.250000e-01  1.636513e-01
   endloop
 endfacet
 facet normal  0.000000e+00 -1.000000e+00  0.000000e+00
   outer loop
     vertex -1.339322e-01 -6.250000e-01  2.425987e-01
     vertex -2.023026e-01 -6.250000e-01  2.820724e-01
     vertex -2.706731e-01 -6.250000e-01  2.425987e-01
   endloop
 endfacet
 facet normal -0.000000e+00 -1.000000e+00  0.000000e+00
   outer loop
     vertex -1.339322e-01 -6.250000e-01  2.425987e-01
     vertex -2.706731e-01 -6.250000e-01  2.425987e-01
     vertex -2.706731e-01 -6.250000e-01  1.636513e-01
   endloop
 endfacet
 facet normal  0.000000e+00 -1.000000e+00  0.000000e+00
   outer loop
     vertex -1.339322e-01 -6.250000e-01  2.425987e-01
     vertex -2.706731e-01 -6.250000e-01  1.636513e-01
     vertex -2.023026e-01 -6.250000e-01  1.241776e-01
   endloop
 endfacet
endsolid
