solid 
 facet normal -2.588190e-01 -9.659258e-01  0.000000e+00
   outer loop
     vertex -7.105263e-01 -7.402454e-01  0.000000e+00
     vertex -6.710526e-01 -7.508224e-01  0.000000e+00
     vertex -6.710526e-01 -7.508224e-01  2.343750e-01
   endloop
 endfacet
 facet normal -2.588190e-01 -9.659258e-01  0.000000e+00
   outer loop
     vertex -7.105263e-01 -7.402454e-01  0.000000e+00
     vertex -6.710526e-01 -7.508224e-01  2.343750e-01
     vertex -7.105263e-01 -7.402454e-01  2.343750e-01
   endloop
 endfacet
 facet normal -7.071068e-01 -7.071068e-01  0.000000e+00
   outer loop
     vertex -7.394231e-01 -7.113487e-01  0.000000e+00
     vertex -7.105263e-01 -7.402454e-01  2.343750e-01
     vertex -7.394231e-01 -7.113487e-01  2.343750e-01
   endloop
 endfacet
 facet normal -7.071068e-01 -7.071068e-01  0.000000e+00
   outer loop
     vertex -7.394231e-01 -7.113487e-01  0.000000e+00
     vertex -7.105263e-01 -7.402454e-01  0.000000e+00
     vertex -7.105263e-01 -7.402454e-01  2.343750e-01
   endloop
 endfacet
 facet normal -9.659258e-01 -2.588190e-01  0.000000e+00
   outer loop
     vertex -7.500000e-01 -6.718750e-01  0.000000e+00
     vertex -7.394231e-01 -7.113487e-01  2.343750e-01
     vertex -7.500000e-01 -6.718750e-01  2.343750e-01
   endloop
 endfacet
 facet normal -9.659258e-01 -2.588190e-01  0.000000e+00
   outer loop
     vertex -7.500000e-01 -6.718750e-01  0.000000e+00
     vertex -7.394231e-01 -7.113487e-01  0.000000e+00
     vertex -7.394231e-01 -7.113487e-01  2.343750e-01
   endloop
 endfacet
 facet normal  0.000000e+00 -1.000000e+00  0.000000e+00
   outer loop
     vertex  6.710526e-01 -7.508224e-01  0.000000e+00
     vertex -6.710526e-01 -7.508224e-01  2.343750e-01
     vertex -6.710526e-01 -7.508224e-01  0.000000e+00
   endloop
 endfacet
 facet normal  0.000000e+00 -1.000000e+00  0.000000e+00
   outer loop
     vertex  6.710526e-01 -7.508224e-01  0.000000e+00
     vertex  6.710526e-01 -7.508224e-01  2.343750e-01
     vertex -6.710526e-01 -7.508224e-01  2.343750e-01
   endloop
 endfacet
 facet normal  9.659258e-01 -2.588190e-01  0.000000e+00
   outer loop
     vertex  7.394231e-01 -7.113487e-01  0.000000e+00
     vertex  7.500000e-01 -6.718750e-01  0.000000e+00
     vertex  7.500000e-01 -6.718750e-01  2.343750e-01
   endloop
 endfacet
 facet normal  9.659258e-01 -2.588190e-01  0.000000e+00
   outer loop
     vertex  7.394231e-01 -7.113487e-01  0.000000e+00
     vertex  7.500000e-01 -6.718750e-01  2.343750e-01
     vertex  7.394231e-01 -7.113487e-01  2.343750e-01
   endloop
 endfacet
 facet normal  7.071068e-01 -7.071068e-01  0.000000e+00
   outer loop
     vertex  7.105263e-01 -7.402454e-01  0.000000e+00
     vertex  7.394231e-01 -7.113487e-01  2.343750e-01
     vertex  7.105263e-01 -7.402454e-01  2.343750e-01
   endloop
 endfacet
 facet normal  7.071068e-01 -7.071068e-01  0.000000e+00
   outer loop
     vertex  7.105263e-01 -7.402454e-01  0.000000e+00
     vertex  7.394231e-01 -7.113487e-01  0.000000e+00
     vertex  7.394231e-01 -7.113487e-01  2.343750e-01
   endloop
 endfacet
 facet normal  2.588190e-01 -9.659258e-01  0.000000e+00
   outer loop
     vertex  6.710526e-01 -7.508224e-01  0.000000e+00
     vertex  7.105263e-01 -7.402454e-01  2.343750e-01
     vertex  6.710526e-01 -7.508224e-01  2.343750e-01
   endloop
 endfacet
 facet normal  2.588190e-01 -9.659258e-01  0.000000e+00
   outer loop
     vertex  6.710526e-01 -7.508224e-01  0.000000e+00
     vertex  7.105263e-01 -7.402454e-01  0.000000e+00
     vertex  7.105263e-01 -7.402454e-01  2.343750e-01
   endloop
 endfacet
 facet normal  1.000000e+00  0.000000e+00  0.000000e+00
   outer loop
     vertex  7.500000e-01  6.860197e-01  0.000000e+00
     vertex  7.500000e-01 -6.718750e-01  2.343750e-01
     vertex  7.500000e-01 -6.718750e-01  0.000000e+00
   endloop
 endfacet
 facet normal  1.000000e+00  0.000000e+00 -0.000000e+00
   outer loop
     vertex  7.500000e-01  6.860197e-01  0.000000e+00
     vertex  7.500000e-01  6.860197e-01  2.343750e-01
     vertex  7.500000e-01 -6.718750e-01  2.343750e-01
   endloop
 endfacet
 facet normal  1.505674e-01  9.885997e-01  0.000000e+00
   outer loop
     vertex  7.076366e-01  7.436058e-01  0.000000e+00
     vertex  6.710526e-01  7.491776e-01  0.000000e+00
     vertex  6.710526e-01  7.491776e-01  2.343750e-01
   endloop
 endfacet
 facet normal  1.505674e-01  9.885997e-01 -0.000000e+00
   outer loop
     vertex  7.076366e-01  7.436058e-01  0.000000e+00
     vertex  6.710526e-01  7.491776e-01  2.343750e-01
     vertex  7.076366e-01  7.436058e-01  2.343750e-01
   endloop
 endfacet
 facet normal  6.246950e-01  7.808688e-01 -0.000000e+00
   outer loop
     vertex  7.365334e-01  7.204884e-01  0.000000e+00
     vertex  7.076366e-01  7.436058e-01  2.343750e-01
     vertex  7.365334e-01  7.204884e-01  2.343750e-01
   endloop
 endfacet
 facet normal  6.246950e-01  7.808688e-01  0.000000e+00
   outer loop
     vertex  7.365334e-01  7.204884e-01  0.000000e+00
     vertex  7.076366e-01  7.436058e-01  0.000000e+00
     vertex  7.076366e-01  7.436058e-01  2.343750e-01
   endloop
 endfacet
 facet normal  9.314362e-01  3.639047e-01 -0.000000e+00
   outer loop
     vertex  7.500000e-01  6.860197e-01  0.000000e+00
     vertex  7.365334e-01  7.204884e-01  2.343750e-01
     vertex  7.500000e-01  6.860197e-01  2.343750e-01
   endloop
 endfacet
 facet normal  9.314362e-01  3.639047e-01  0.000000e+00
   outer loop
     vertex  7.500000e-01  6.860197e-01  0.000000e+00
     vertex  7.365334e-01  7.204884e-01  0.000000e+00
     vertex  7.365334e-01  7.204884e-01  2.343750e-01
   endloop
 endfacet
 facet normal  0.000000e+00  1.000000e+00  0.000000e+00
   outer loop
     vertex -6.710526e-01  7.491776e-01  0.000000e+00
     vertex  6.710526e-01  7.491776e-01  2.343750e-01
     vertex  6.710526e-01  7.491776e-01  0.000000e+00
   endloop
 endfacet
 facet normal  0.000000e+00  1.000000e+00  0.000000e+00
   outer loop
     vertex -6.710526e-01  7.491776e-01  0.000000e+00
     vertex -6.710526e-01  7.491776e-01  2.343750e-01
     vertex  6.710526e-01  7.491776e-01  2.343750e-01
   endloop
 endfacet
 facet normal -9.314362e-01  3.639047e-01  0.000000e+00
   outer loop
     vertex -7.500000e-01  6.860197e-01  0.000000e+00
     vertex -7.500000e-01  6.860197e-01  2.343750e-01
     vertex -7.365334e-01  7.204884e-01  2.343750e-01
   endloop
 endfacet
 facet normal -9.314362e-01  3.639047e-01  0.000000e+00
   outer loop
     vertex -7.365334e-01  7.204884e-01  0.000000e+00
     vertex -7.500000e-01  6.860197e-01  0.000000e+00
     vertex -7.365334e-01  7.204884e-01  2.343750e-01
   endloop
 endfacet
 facet normal -6.246950e-01  7.808688e-01  0.000000e+00
   outer loop
     vertex -7.076366e-01  7.436058e-01  0.000000e+00
     vertex -7.365334e-01  7.204884e-01  2.343750e-01
     vertex -7.076366e-01  7.436058e-01  2.343750e-01
   endloop
 endfacet
 facet normal -6.246950e-01  7.808688e-01  0.000000e+00
   outer loop
     vertex -7.076366e-01  7.436058e-01  0.000000e+00
     vertex -7.365334e-01  7.204884e-01  0.000000e+00
     vertex -7.365334e-01  7.204884e-01  2.343750e-01
   endloop
 endfacet
 facet normal -1.505674e-01  9.885997e-01  0.000000e+00
   outer loop
     vertex -6.710526e-01  7.491776e-01  0.000000e+00
     vertex -7.076366e-01  7.436058e-01  2.343750e-01
     vertex -6.710526e-01  7.491776e-01  2.343750e-01
   endloop
 endfacet
 facet normal -1.505674e-01  9.885997e-01  0.000000e+00
   outer loop
     vertex -6.710526e-01  7.491776e-01  0.000000e+00
     vertex -7.076366e-01  7.436058e-01  0.000000e+00
     vertex -7.076366e-01  7.436058e-01  2.343750e-01
   endloop
 endfacet
 facet normal -1.000000e+00  0.000000e+00  0.000000e+00
   outer loop
     vertex -7.500000e-01 -6.718750e-01  0.000000e+00
     vertex -7.500000e-01  6.860197e-01  2.343750e-01
     vertex -7.500000e-01  6.860197e-01  0.000000e+00
   endloop
 endfacet
 facet normal -1.000000e+00  0.000000e+00  0.000000e+00
   outer loop
     vertex -7.500000e-01 -6.718750e-01  0.000000e+00
     vertex -7.500000e-01 -6.718750e-01  2.343750e-01
     vertex -7.500000e-01  6.860197e-01  2.343750e-01
   endloop
 endfacet
 facet normal -8.090170e-01  5.877853e-01  0.000000e+00
   outer loop
     vertex -5.883779e-01  5.470056e-01  0.000000e+00
     vertex -5.447368e-01  6.070724e-01  2.343750e-01
     vertex -5.447368e-01  6.070724e-01  0.000000e+00
   endloop
 endfacet
 facet normal -8.090170e-01  5.877853e-01  0.000000e+00
   outer loop
     vertex -5.883779e-01  5.470056e-01  0.000000e+00
     vertex -5.883779e-01  5.470056e-01  2.343750e-01
     vertex -5.447368e-01  6.070724e-01  2.343750e-01
   endloop
 endfacet
 facet normal  3.090170e-01  9.510565e-01 -0.000000e+00
   outer loop
     vertex -6.589905e-01  5.699491e-01  0.000000e+00
     vertex -6.589905e-01  5.699491e-01  2.343750e-01
     vertex -5.883779e-01  5.470056e-01  2.343750e-01
   endloop
 endfacet
 facet normal  3.090170e-01  9.510565e-01  0.000000e+00
   outer loop
     vertex -6.589905e-01  5.699491e-01  0.000000e+00
     vertex -5.883779e-01  5.470056e-01  2.343750e-01
     vertex -5.883779e-01  5.470056e-01  0.000000e+00
   endloop
 endfacet
 facet normal  1.000000e+00  0.000000e+00 -0.000000e+00
   outer loop
     vertex -6.589905e-01  6.441956e-01  0.000000e+00
     vertex -6.589905e-01  6.441956e-01  2.343750e-01
     vertex -6.589905e-01  5.699491e-01  2.343750e-01
   endloop
 endfacet
 facet normal  1.000000e+00  0.000000e+00  0.000000e+00
   outer loop
     vertex -6.589905e-01  6.441956e-01  0.000000e+00
     vertex -6.589905e-01  5.699491e-01  2.343750e-01
     vertex -6.589905e-01  5.699491e-01  0.000000e+00
   endloop
 endfacet
 facet normal  3.090170e-01 -9.510565e-01  0.000000e+00
   outer loop
     vertex -5.883779e-01  6.671391e-01  0.000000e+00
     vertex -5.883779e-01  6.671391e-01  2.343750e-01
     vertex -6.589905e-01  6.441956e-01  2.343750e-01
   endloop
 endfacet
 facet normal  3.090170e-01 -9.510565e-01  0.000000e+00
   outer loop
     vertex -5.883779e-01  6.671391e-01  0.000000e+00
     vertex -6.589905e-01  6.441956e-01  2.343750e-01
     vertex -6.589905e-01  6.441956e-01  0.000000e+00
   endloop
 endfacet
 facet normal -8.090170e-01 -5.877853e-01  0.000000e+00
   outer loop
     vertex -5.447368e-01  6.070724e-01  0.000000e+00
     vertex -5.447368e-01  6.070724e-01  2.343750e-01
     vertex -5.883779e-01  6.671391e-01  2.343750e-01
   endloop
 endfacet
 facet normal -8.090170e-01 -5.877853e-01  0.000000e+00
   outer loop
     vertex -5.447368e-01  6.070724e-01  0.000000e+00
     vertex -5.883779e-01  6.671391e-01  2.343750e-01
     vertex -5.883779e-01  6.671391e-01  0.000000e+00
   endloop
 endfacet
 facet normal -8.090170e-01  5.877853e-01  0.000000e+00
   outer loop
     vertex  6.274116e-01  5.470056e-01  0.000000e+00
     vertex  6.710526e-01  6.070724e-01  2.343750e-01
     vertex  6.710526e-01  6.070724e-01  0.000000e+00
   endloop
 endfacet
 facet normal -8.090170e-01  5.877853e-01  0.000000e+00
   outer loop
     vertex  6.274116e-01  5.470056e-01  0.000000e+00
     vertex  6.274116e-01  5.470056e-01  2.343750e-01
     vertex  6.710526e-01  6.070724e-01  2.343750e-01
   endloop
 endfacet
 facet normal  3.090170e-01  9.510565e-01 -0.000000e+00
   outer loop
     vertex  5.567989e-01  5.699491e-01  0.000000e+00
     vertex  5.567989e-01  5.699491e-01  2.343750e-01
     vertex  6.274116e-01  5.470056e-01  2.343750e-01
   endloop
 endfacet
 facet normal  3.090170e-01  9.510565e-01  0.000000e+00
   outer loop
     vertex  5.567989e-01  5.699491e-01  0.000000e+00
     vertex  6.274116e-01  5.470056e-01  2.343750e-01
     vertex  6.274116e-01  5.470056e-01  0.000000e+00
   endloop
 endfacet
 facet normal  1.000000e+00  0.000000e+00 -0.000000e+00
   outer loop
     vertex  5.567989e-01  6.441956e-01  0.000000e+00
     vertex  5.567989e-01  6.441956e-01  2.343750e-01
     vertex  5.567989e-01  5.699491e-01  2.343750e-01
   endloop
 endfacet
 facet normal  1.000000e+00  0.000000e+00  0.000000e+00
   outer loop
     vertex  5.567989e-01  6.441956e-01  0.000000e+00
     vertex  5.567989e-01  5.699491e-01  2.343750e-01
     vertex  5.567989e-01  5.699491e-01  0.000000e+00
   endloop
 endfacet
 facet normal  3.090170e-01 -9.510565e-01  0.000000e+00
   outer loop
     vertex  6.274116e-01  6.671391e-01  0.000000e+00
     vertex  6.274116e-01  6.671391e-01  2.343750e-01
     vertex  5.567989e-01  6.441956e-01  2.343750e-01
   endloop
 endfacet
 facet normal  3.090170e-01 -9.510565e-01  0.000000e+00
   outer loop
     vertex  6.274116e-01  6.671391e-01  0.000000e+00
     vertex  5.567989e-01  6.441956e-01  2.343750e-01
     vertex  5.567989e-01  6.441956e-01  0.000000e+00
   endloop
 endfacet
 facet normal -8.090170e-01 -5.877853e-01  0.000000e+00
   outer loop
     vertex  6.710526e-01  6.070724e-01  0.000000e+00
     vertex  6.710526e-01  6.070724e-01  2.343750e-01
     vertex  6.274116e-01  6.671391e-01  2.343750e-01
   endloop
 endfacet
 facet normal -8.090170e-01 -5.877853e-01  0.000000e+00
   outer loop
     vertex  6.710526e-01  6.070724e-01  0.000000e+00
     vertex  6.274116e-01  6.671391e-01  2.343750e-01
     vertex  6.274116e-01  6.671391e-01  0.000000e+00
   endloop
 endfacet
 facet normal  0.000000e+00  0.000000e+00 -1.000000e+00
   outer loop
     vertex -7.500000e-01 -6.718750e-01  0.000000e+00
     vertex -7.105263e-01 -7.402454e-01  0.000000e+00
     vertex -7.394231e-01 -7.113487e-01  0.000000e+00
   endloop
 endfacet
 facet normal  0.000000e+00  0.000000e+00 -1.000000e+00
   outer loop
     vertex -7.500000e-01 -6.718750e-01  0.000000e+00
     vertex -6.710526e-01 -7.508224e-01  0.000000e+00
     vertex -7.105263e-01 -7.402454e-01  0.000000e+00
   endloop
 endfacet
 facet normal  0.000000e+00  0.000000e+00 -1.000000e+00
   outer loop
     vertex -7.500000e-01  6.860197e-01  0.000000e+00
     vertex -6.589905e-01  5.699491e-01  0.000000e+00
     vertex -7.500000e-01 -6.718750e-01  0.000000e+00
   endloop
 endfacet
 facet normal  0.000000e+00  0.000000e+00 -1.000000e+00
   outer loop
     vertex -5.883779e-01  5.470056e-01  0.000000e+00
     vertex -6.710526e-01 -7.508224e-01  0.000000e+00
     vertex -7.500000e-01 -6.718750e-01  0.000000e+00
   endloop
 endfacet
 facet normal -0.000000e+00  0.000000e+00 -1.000000e+00
   outer loop
     vertex -5.883779e-01  5.470056e-01  0.000000e+00
     vertex -7.500000e-01 -6.718750e-01  0.000000e+00
     vertex -6.589905e-01  5.699491e-01  0.000000e+00
   endloop
 endfacet
 facet normal  0.000000e+00  0.000000e+00 -1.000000e+00
   outer loop
     vertex -6.589905e-01  6.441956e-01  0.000000e+00
     vertex -7.500000e-01  6.860197e-01  0.000000e+00
     vertex -7.365334e-01  7.204884e-01  0.000000e+00
   endloop
 endfacet
 facet normal -0.000000e+00 -0.000000e+00 -1.000000e+00
   outer loop
     vertex -6.589905e-01  6.441956e-01  0.000000e+00
     vertex -6.589905e-01  5.699491e-01  0.000000e+00
     vertex -7.500000e-01  6.860197e-01  0.000000e+00
   endloop
 endfacet
 facet normal  0.000000e+00 -0.000000e+00 -1.000000e+00
   outer loop
     vertex -7.076366e-01  7.436058e-01  0.000000e+00
     vertex -6.589905e-01  6.441956e-01  0.000000e+00
     vertex -7.365334e-01  7.204884e-01  0.000000e+00
   endloop
 endfacet
 facet normal  0.000000e+00  0.000000e+00 -1.000000e+00
   outer loop
     vertex  7.500000e-01 -6.718750e-01  0.000000e+00
     vertex  7.105263e-01 -7.402454e-01  0.000000e+00
     vertex  6.710526e-01 -7.508224e-01  0.000000e+00
   endloop
 endfacet
 facet normal  0.000000e+00  0.000000e+00 -1.000000e+00
   outer loop
     vertex  7.500000e-01 -6.718750e-01  0.000000e+00
     vertex  7.394231e-01 -7.113487e-01  0.000000e+00
     vertex  7.105263e-01 -7.402454e-01  0.000000e+00
   endloop
 endfacet
 facet normal  0.000000e+00 -0.000000e+00 -1.000000e+00
   outer loop
     vertex -6.710526e-01  7.491776e-01  0.000000e+00
     vertex -6.589905e-01  6.441956e-01  0.000000e+00
     vertex -7.076366e-01  7.436058e-01  0.000000e+00
   endloop
 endfacet
 facet normal -0.000000e+00  0.000000e+00 -1.000000e+00
   outer loop
     vertex -5.883779e-01  6.671391e-01  0.000000e+00
     vertex -6.589905e-01  6.441956e-01  0.000000e+00
     vertex -6.710526e-01  7.491776e-01  0.000000e+00
   endloop
 endfacet
 facet normal  0.000000e+00 -0.000000e+00 -1.000000e+00
   outer loop
     vertex  5.567989e-01  5.699491e-01  0.000000e+00
     vertex  6.710526e-01 -7.508224e-01  0.000000e+00
     vertex -6.710526e-01 -7.508224e-01  0.000000e+00
   endloop
 endfacet
 facet normal -0.000000e+00  0.000000e+00 -1.000000e+00
   outer loop
     vertex  5.567989e-01  5.699491e-01  0.000000e+00
     vertex -5.883779e-01  5.470056e-01  0.000000e+00
     vertex -5.447368e-01  6.070724e-01  0.000000e+00
   endloop
 endfacet
 facet normal  0.000000e+00  0.000000e+00 -1.000000e+00
   outer loop
     vertex  5.567989e-01  5.699491e-01  0.000000e+00
     vertex -6.710526e-01 -7.508224e-01  0.000000e+00
     vertex -5.883779e-01  5.470056e-01  0.000000e+00
   endloop
 endfacet
 facet normal  0.000000e+00  0.000000e+00 -1.000000e+00
   outer loop
     vertex  5.567989e-01  5.699491e-01  0.000000e+00
     vertex  7.500000e-01 -6.718750e-01  0.000000e+00
     vertex  6.710526e-01 -7.508224e-01  0.000000e+00
   endloop
 endfacet
 facet normal -0.000000e+00 -0.000000e+00 -1.000000e+00
   outer loop
     vertex  6.274116e-01  5.470056e-01  0.000000e+00
     vertex  7.500000e-01 -6.718750e-01  0.000000e+00
     vertex  5.567989e-01  5.699491e-01  0.000000e+00
   endloop
 endfacet
 facet normal -0.000000e+00  0.000000e+00 -1.000000e+00
   outer loop
     vertex  5.567989e-01  6.441956e-01  0.000000e+00
     vertex -5.447368e-01  6.070724e-01  0.000000e+00
     vertex -5.883779e-01  6.671391e-01  0.000000e+00
   endloop
 endfacet
 facet normal  0.000000e+00 -0.000000e+00 -1.000000e+00
   outer loop
     vertex  5.567989e-01  6.441956e-01  0.000000e+00
     vertex  5.567989e-01  5.699491e-01  0.000000e+00
     vertex -5.447368e-01  6.070724e-01  0.000000e+00
   endloop
 endfacet
 facet normal  0.000000e+00  0.000000e+00 -1.000000e+00
   outer loop
     vertex  5.567989e-01  6.441956e-01  0.000000e+00
     vertex -5.883779e-01  6.671391e-01  0.000000e+00
     vertex -6.710526e-01  7.491776e-01  0.000000e+00
   endloop
 endfacet
 facet normal  0.000000e+00  0.000000e+00 -1.000000e+00
   outer loop
     vertex  6.710526e-01  7.491776e-01  0.000000e+00
     vertex  6.274116e-01  6.671391e-01  0.000000e+00
     vertex  5.567989e-01  6.441956e-01  0.000000e+00
   endloop
 endfacet
 facet normal  0.000000e+00  0.000000e+00 -1.000000e+00
   outer loop
     vertex  7.500000e-01  6.860197e-01  0.000000e+00
     vertex  6.710526e-01  6.070724e-01  0.000000e+00
     vertex  6.274116e-01  6.671391e-01  0.000000e+00
   endloop
 endfacet
 facet normal  0.000000e+00  0.000000e+00 -1.000000e+00
   outer loop
     vertex  7.500000e-01  6.860197e-01  0.000000e+00
     vertex  6.274116e-01  5.470056e-01  0.000000e+00
     vertex  6.710526e-01  6.070724e-01  0.000000e+00
   endloop
 endfacet
 facet normal  0.000000e+00 -0.000000e+00 -1.000000e+00
   outer loop
     vertex  7.500000e-01  6.860197e-01  0.000000e+00
     vertex  7.500000e-01 -6.718750e-01  0.000000e+00
     vertex  6.274116e-01  5.470056e-01  0.000000e+00
   endloop
 endfacet
 facet normal -0.000000e+00  0.000000e+00 -1.000000e+00
   outer loop
     vertex  7.076366e-01  7.436058e-01  0.000000e+00
     vertex  6.274116e-01  6.671391e-01  0.000000e+00
     vertex  6.710526e-01  7.491776e-01  0.000000e+00
   endloop
 endfacet
 facet normal  0.000000e+00 -0.000000e+00 -1.000000e+00
   outer loop
     vertex  7.365334e-01  7.204884e-01  0.000000e+00
     vertex  7.500000e-01  6.860197e-01  0.000000e+00
     vertex  6.274116e-01  6.671391e-01  0.000000e+00
   endloop
 endfacet
 facet normal -0.000000e+00  0.000000e+00 -1.000000e+00
   outer loop
     vertex  7.365334e-01  7.204884e-01  0.000000e+00
     vertex  6.274116e-01  6.671391e-01  0.000000e+00
     vertex  7.076366e-01  7.436058e-01  0.000000e+00
   endloop
 endfacet
 facet normal -0.000000e+00  0.000000e+00 -1.000000e+00
   outer loop
     vertex  6.710526e-01  7.491776e-01  0.000000e+00
     vertex  5.567989e-01  6.441956e-01  0.000000e+00
     vertex -6.710526e-01  7.491776e-01  0.000000e+00
   endloop
 endfacet
 facet normal  0.000000e+00  0.000000e+00  1.000000e+00
   outer loop
     vertex -7.500000e-01 -6.718750e-01  2.343750e-01
     vertex -7.394231e-01 -7.113487e-01  2.343750e-01
     vertex -7.105263e-01 -7.402454e-01  2.343750e-01
   endloop
 endfacet
 facet normal  0.000000e+00  0.000000e+00  1.000000e+00
   outer loop
     vertex -7.500000e-01 -6.718750e-01  2.343750e-01
     vertex -7.105263e-01 -7.402454e-01  2.343750e-01
     vertex -6.710526e-01 -7.508224e-01  2.343750e-01
   endloop
 endfacet
 facet normal  0.000000e+00  0.000000e+00  1.000000e+00
   outer loop
     vertex -7.500000e-01  6.860197e-01  2.343750e-01
     vertex -7.500000e-01 -6.718750e-01  2.343750e-01
     vertex -6.589905e-01  5.699491e-01  2.343750e-01
   endloop
 endfacet
 facet normal  0.000000e+00  0.000000e+00  1.000000e+00
   outer loop
     vertex -5.883779e-01  5.470056e-01  2.343750e-01
     vertex -7.500000e-01 -6.718750e-01  2.343750e-01
     vertex -6.710526e-01 -7.508224e-01  2.343750e-01
   endloop
 endfacet
 facet normal  0.000000e+00  0.000000e+00  1.000000e+00
   outer loop
     vertex -5.883779e-01  5.470056e-01  2.343750e-01
     vertex -6.589905e-01  5.699491e-01  2.343750e-01
     vertex -7.500000e-01 -6.718750e-01  2.343750e-01
   endloop
 endfacet
 facet normal  0.000000e+00  0.000000e+00  1.000000e+00
   outer loop
     vertex -6.589905e-01  6.441956e-01  2.343750e-01
     vertex -7.365334e-01  7.204884e-01  2.343750e-01
     vertex -7.500000e-01  6.860197e-01  2.343750e-01
   endloop
 endfacet
 facet normal  0.000000e+00  0.000000e+00  1.000000e+00
   outer loop
     vertex -6.589905e-01  6.441956e-01  2.343750e-01
     vertex -7.500000e-01  6.860197e-01  2.343750e-01
     vertex -6.589905e-01  5.699491e-01  2.343750e-01
   endloop
 endfacet
 facet normal  0.000000e+00  0.000000e+00  1.000000e+00
   outer loop
     vertex -7.076366e-01  7.436058e-01  2.343750e-01
     vertex -7.365334e-01  7.204884e-01  2.343750e-01
     vertex -6.589905e-01  6.441956e-01  2.343750e-01
   endloop
 endfacet
 facet normal  0.000000e+00  0.000000e+00  1.000000e+00
   outer loop
     vertex  7.500000e-01 -6.718750e-01  2.343750e-01
     vertex  6.710526e-01 -7.508224e-01  2.343750e-01
     vertex  7.105263e-01 -7.402454e-01  2.343750e-01
   endloop
 endfacet
 facet normal  0.000000e+00  0.000000e+00  1.000000e+00
   outer loop
     vertex  7.500000e-01 -6.718750e-01  2.343750e-01
     vertex  7.105263e-01 -7.402454e-01  2.343750e-01
     vertex  7.394231e-01 -7.113487e-01  2.343750e-01
   endloop
 endfacet
 facet normal  0.000000e+00  0.000000e+00  1.000000e+00
   outer loop
     vertex -6.710526e-01  7.491776e-01  2.343750e-01
     vertex -7.076366e-01  7.436058e-01  2.343750e-01
     vertex -6.589905e-01  6.441956e-01  2.343750e-01
   endloop
 endfacet
 facet normal  0.000000e+00  0.000000e+00  1.000000e+00
   outer loop
     vertex -5.883779e-01  6.671391e-01  2.343750e-01
     vertex -6.710526e-01  7.491776e-01  2.343750e-01
     vertex -6.589905e-01  6.441956e-01  2.343750e-01
   endloop
 endfacet
 facet normal  0.000000e+00  0.000000e+00  1.000000e+00
   outer loop
     vertex  5.567989e-01  5.699491e-01  2.343750e-01
     vertex -6.710526e-01 -7.508224e-01  2.343750e-01
     vertex  6.710526e-01 -7.508224e-01  2.343750e-01
   endloop
 endfacet
 facet normal  0.000000e+00  0.000000e+00  1.000000e+00
   outer loop
     vertex  5.567989e-01  5.699491e-01  2.343750e-01
     vertex -5.447368e-01  6.070724e-01  2.343750e-01
     vertex -5.883779e-01  5.470056e-01  2.343750e-01
   endloop
 endfacet
 facet normal  0.000000e+00  0.000000e+00  1.000000e+00
   outer loop
     vertex  5.567989e-01  5.699491e-01  2.343750e-01
     vertex -5.883779e-01  5.470056e-01  2.343750e-01
     vertex -6.710526e-01 -7.508224e-01  2.343750e-01
   endloop
 endfacet
 facet normal  0.000000e+00  0.000000e+00  1.000000e+00
   outer loop
     vertex  5.567989e-01  5.699491e-01  2.343750e-01
     vertex  6.710526e-01 -7.508224e-01  2.343750e-01
     vertex  7.500000e-01 -6.718750e-01  2.343750e-01
   endloop
 endfacet
 facet normal  0.000000e+00  0.000000e+00  1.000000e+00
   outer loop
     vertex  6.274116e-01  5.470056e-01  2.343750e-01
     vertex  5.567989e-01  5.699491e-01  2.343750e-01
     vertex  7.500000e-01 -6.718750e-01  2.343750e-01
   endloop
 endfacet
 facet normal  0.000000e+00  0.000000e+00  1.000000e+00
   outer loop
     vertex  5.567989e-01  6.441956e-01  2.343750e-01
     vertex -5.883779e-01  6.671391e-01  2.343750e-01
     vertex -5.447368e-01  6.070724e-01  2.343750e-01
   endloop
 endfacet
 facet normal  0.000000e+00  0.000000e+00  1.000000e+00
   outer loop
     vertex  5.567989e-01  6.441956e-01  2.343750e-01
     vertex -5.447368e-01  6.070724e-01  2.343750e-01
     vertex  5.567989e-01  5.699491e-01  2.343750e-01
   endloop
 endfacet
 facet normal  0.000000e+00  0.000000e+00  1.000000e+00
   outer loop
     vertex  5.567989e-01  6.441956e-01  2.343750e-01
     vertex -6.710526e-01  7.491776e-01  2.343750e-01
     vertex -5.883779e-01  6.671391e-01  2.343750e-01
   endloop
 endfacet
 facet normal  0.000000e+00  0.000000e+00  1.000000e+00
   outer loop
     vertex  6.710526e-01  7.491776e-01  2.343750e-01
     vertex  5.567989e-01  6.441956e-01  2.343750e-01
     vertex  6.274116e-01  6.671391e-01  2.343750e-01
   endloop
 endfacet
 facet normal  0.000000e+00  0.000000e+00  1.000000e+00
   outer loop
     vertex  7.500000e-01  6.860197e-01  2.343750e-01
     vertex  6.274116e-01  6.671391e-01  2.343750e-01
     vertex  6.710526e-01  6.070724e-01  2.343750e-01
   endloop
 endfacet
 facet normal  0.000000e+00  0.000000e+00  1.000000e+00
   outer loop
     vertex  7.500000e-01  6.860197e-01  2.343750e-01
     vertex  6.710526e-01  6.070724e-01  2.343750e-01
     vertex  6.274116e-01  5.470056e-01  2.343750e-01
   endloop
 endfacet
 facet normal  0.000000e+00  0.000000e+00  1.000000e+00
   outer loop
     vertex  7.500000e-01  6.860197e-01  2.343750e-01
     vertex  6.274116e-01  5.470056e-01  2.343750e-01
     vertex  7.500000e-01 -6.718750e-01  2.343750e-01
   endloop
 endfacet
 facet normal  0.000000e+00  0.000000e+00  1.000000e+00
   outer loop
     vertex  7.076366e-01  7.436058e-01  2.343750e-01
     vertex  6.710526e-01  7.491776e-01  2.343750e-01
     vertex  6.274116e-01  6.671391e-01  2.343750e-01
   endloop
 endfacet
 facet normal  0.000000e+00  0.000000e+00  1.000000e+00
   outer loop
     vertex  7.365334e-01  7.204884e-01  2.343750e-01
     vertex  6.274116e-01  6.671391e-01  2.343750e-01
     vertex  7.500000e-01  6.860197e-01  2.343750e-01
   endloop
 endfacet
 facet normal  0.000000e+00  0.000000e+00  1.000000e+00
   outer loop
     vertex  7.365334e-01  7.204884e-01  2.343750e-01
     vertex  7.076366e-01  7.436058e-01  2.343750e-01
     vertex  6.274116e-01  6.671391e-01  2.343750e-01
   endloop
 endfacet
 facet normal  0.000000e+00  0.000000e+00  1.000000e+00
   outer loop
     vertex  6.710526e-01  7.491776e-01  2.343750e-01
     vertex -6.710526e-01  7.491776e-01  2.343750e-01
     vertex  5.567989e-01  6.441956e-01  2.343750e-01
   endloop
 endfacet
endsolid
