solid 
 facet normal  0.000000e+00  0.000000e+00 -1.000000e+00
   outer loop
     vertex  7.500000e-01  9.184851e-17 -3.593750e-01
     vertex -7.500000e-01 -1.484375e-01 -3.593750e-01
     vertex -7.500000e-01  0.000000e+00 -3.593750e-01
   endloop
 endfacet
 facet normal  0.000000e+00 -0.000000e+00 -1.000000e+00
   outer loop
     vertex  7.500000e-01  9.184851e-17 -3.593750e-01
     vertex  7.500000e-01 -1.484375e-01 -3.593750e-01
     vertex -7.500000e-01 -1.484375e-01 -3.593750e-01
   endloop
 endfacet
 facet normal  1.000000e+00  0.000000e+00  0.000000e+00
   outer loop
     vertex  7.500000e-01  1.353557e-16  3.511513e-01
     vertex  7.500000e-01 -1.484375e-01 -3.593750e-01
     vertex  7.500000e-01  9.184851e-17 -3.593750e-01
   endloop
 endfacet
 facet normal  1.000000e+00  0.000000e+00  0.000000e+00
   outer loop
     vertex  7.500000e-01  1.353557e-16  3.511513e-01
     vertex  7.500000e-01 -1.484375e-01  3.511513e-01
     vertex  7.500000e-01 -1.484375e-01 -3.593750e-01
   endloop
 endfacet
 facet normal -0.000000e+00  0.000000e+00  1.000000e+00
   outer loop
     vertex -7.500000e-01  4.350719e-17  3.511513e-01
     vertex  7.500000e-01 -1.484375e-01  3.511513e-01
     vertex  7.500000e-01  1.353557e-16  3.511513e-01
   endloop
 endfacet
 facet normal  0.000000e+00  0.000000e+00  1.000000e+00
   outer loop
     vertex -7.500000e-01  4.350719e-17  3.511513e-01
     vertex -7.500000e-01 -1.484375e-01  3.511513e-01
     vertex  7.500000e-01 -1.484375e-01  3.511513e-01
   endloop
 endfacet
 facet normal -1.000000e+00  0.000000e+00  0.000000e+00
   outer loop
     vertex -7.500000e-01  0.000000e+00 -3.593750e-01
     vertex -7.500000e-01 -1.484375e-01  3.511513e-01
     vertex -7.500000e-01  4.350719e-17  3.511513e-01
   endloop
 endfacet
 facet normal -1.000000e+00  0.000000e+00  0.000000e+00
   outer loop
     vertex -7.500000e-01  0.000000e+00 -3.593750e-01
     vertex -7.500000e-01 -1.484375e-01 -3.593750e-01
     vertex -7.500000e-01 -1.484375e-01  3.511513e-01
   endloop
 endfacet
 facet normal  5.877853e-01  0.000000e+00  8.090170e-01
   outer loop
     vertex -6.521720e-01  2.703218e-17 -1.573397e-02
     vertex -5.921053e-01 -1.484375e-01 -5.937500e-02
     vertex -5.921053e-01  2.803797e-17 -5.937500e-02
   endloop
 endfacet
 facet normal  5.877853e-01  0.000000e+00  8.090170e-01
   outer loop
     vertex -6.521720e-01  2.703218e-17 -1.573397e-02
     vertex -6.521720e-01 -1.484375e-01 -1.573397e-02
     vertex -5.921053e-01 -1.484375e-01 -5.937500e-02
   endloop
 endfacet
 facet normal  9.510565e-01  0.000000e+00 -3.090170e-01
   outer loop
     vertex -6.292285e-01  3.276084e-17  5.487870e-02
     vertex -6.292285e-01 -1.484375e-01  5.487870e-02
     vertex -6.521720e-01 -1.484375e-01 -1.573397e-02
   endloop
 endfacet
 facet normal  9.510565e-01  0.000000e+00 -3.090170e-01
   outer loop
     vertex -6.292285e-01  3.276084e-17  5.487870e-02
     vertex -6.521720e-01 -1.484375e-01 -1.573397e-02
     vertex -6.521720e-01  2.703218e-17 -1.573397e-02
   endloop
 endfacet
 facet normal -1.869149e-16 -0.000000e+00 -1.000000e+00
   outer loop
     vertex -5.549820e-01  3.730713e-17  5.487870e-02
     vertex -5.549820e-01 -1.484375e-01  5.487870e-02
     vertex -6.292285e-01 -1.484375e-01  5.487870e-02
   endloop
 endfacet
 facet normal -1.869149e-16  0.000000e+00 -1.000000e+00
   outer loop
     vertex -5.549820e-01  3.730713e-17  5.487870e-02
     vertex -6.292285e-01 -1.484375e-01  5.487870e-02
     vertex -6.292285e-01  3.276084e-17  5.487870e-02
   endloop
 endfacet
 facet normal -9.510565e-01 -0.000000e+00 -3.090170e-01
   outer loop
     vertex -5.320385e-01  3.438823e-17 -1.573397e-02
     vertex -5.320385e-01 -1.484375e-01 -1.573397e-02
     vertex -5.549820e-01 -1.484375e-01  5.487870e-02
   endloop
 endfacet
 facet normal -9.510565e-01  0.000000e+00 -3.090170e-01
   outer loop
     vertex -5.320385e-01  3.438823e-17 -1.573397e-02
     vertex -5.549820e-01 -1.484375e-01  5.487870e-02
     vertex -5.549820e-01  3.730713e-17  5.487870e-02
   endloop
 endfacet
 facet normal -5.877853e-01  0.000000e+00  8.090170e-01
   outer loop
     vertex -5.921053e-01  2.803797e-17 -5.937500e-02
     vertex -5.921053e-01 -1.484375e-01 -5.937500e-02
     vertex -5.320385e-01 -1.484375e-01 -1.573397e-02
   endloop
 endfacet
 facet normal -5.877853e-01  0.000000e+00  8.090170e-01
   outer loop
     vertex -5.921053e-01  2.803797e-17 -5.937500e-02
     vertex -5.320385e-01 -1.484375e-01 -1.573397e-02
     vertex -5.320385e-01  3.438823e-17 -1.573397e-02
   endloop
 endfacet
 facet normal  1.950903e-01  0.000000e+00  9.807853e-01
   outer loop
     vertex -7.669844e-02  5.095960e-17 -2.004431e-01
     vertex  7.894737e-03 -1.484375e-01 -2.172697e-01
     vertex  7.894737e-03  5.510911e-17 -2.172697e-01
   endloop
 endfacet
 facet normal  1.950903e-01  0.000000e+00  9.807853e-01
   outer loop
     vertex -7.669844e-02  5.095960e-17 -2.004431e-01
     vertex -7.669844e-02 -1.484375e-01 -2.004431e-01
     vertex  7.894737e-03 -1.484375e-01 -2.172697e-01
   endloop
 endfacet
 facet normal  5.555702e-01  0.000000e+00  8.314696e-01
   outer loop
     vertex -1.484131e-01  4.950249e-17 -1.525249e-01
     vertex -1.484131e-01 -1.484375e-01 -1.525249e-01
     vertex -7.669844e-02 -1.484375e-01 -2.004431e-01
   endloop
 endfacet
 facet normal  5.555702e-01  0.000000e+00  8.314696e-01
   outer loop
     vertex -1.484131e-01  4.950249e-17 -1.525249e-01
     vertex -7.669844e-02 -1.484375e-01 -2.004431e-01
     vertex -7.669844e-02  5.095960e-17 -2.004431e-01
   endloop
 endfacet
 facet normal  8.314696e-01  0.000000e+00  5.555702e-01
   outer loop
     vertex -1.963313e-01  5.095960e-17 -8.081029e-02
     vertex -1.963313e-01 -1.484375e-01 -8.081029e-02
     vertex -1.484131e-01 -1.484375e-01 -1.525249e-01
   endloop
 endfacet
 facet normal  8.314696e-01  0.000000e+00  5.555702e-01
   outer loop
     vertex -1.963313e-01  5.095960e-17 -8.081029e-02
     vertex -1.484131e-01 -1.484375e-01 -1.525249e-01
     vertex -1.484131e-01  4.950249e-17 -1.525249e-01
   endloop
 endfacet
 facet normal  9.807853e-01  0.000000e+00  1.950903e-01
   outer loop
     vertex -2.131579e-01  5.510911e-17  3.782895e-03
     vertex -2.131579e-01 -1.484375e-01  3.782895e-03
     vertex -1.963313e-01 -1.484375e-01 -8.081029e-02
   endloop
 endfacet
 facet normal  9.807853e-01  0.000000e+00  1.950903e-01
   outer loop
     vertex -2.131579e-01  5.510911e-17  3.782895e-03
     vertex -1.963313e-01 -1.484375e-01 -8.081029e-02
     vertex -1.963313e-01  5.095960e-17 -8.081029e-02
   endloop
 endfacet
 facet normal  9.807853e-01  0.000000e+00 -1.950903e-01
   outer loop
     vertex -1.963313e-01  6.131928e-17  8.837607e-02
     vertex -1.963313e-01 -1.484375e-01  8.837607e-02
     vertex -2.131579e-01 -1.484375e-01  3.782895e-03
   endloop
 endfacet
 facet normal  9.807853e-01  0.000000e+00 -1.950903e-01
   outer loop
     vertex -1.963313e-01  6.131928e-17  8.837607e-02
     vertex -2.131579e-01 -1.484375e-01  3.782895e-03
     vertex -2.131579e-01  5.510911e-17  3.782895e-03
   endloop
 endfacet
 facet normal  8.314696e-01  0.000000e+00 -5.555702e-01
   outer loop
     vertex -1.484131e-01  6.864468e-17  1.600907e-01
     vertex -1.484131e-01 -1.484375e-01  1.600907e-01
     vertex -1.963313e-01 -1.484375e-01  8.837607e-02
   endloop
 endfacet
 facet normal  8.314696e-01  0.000000e+00 -5.555702e-01
   outer loop
     vertex -1.484131e-01  6.864468e-17  1.600907e-01
     vertex -1.963313e-01 -1.484375e-01  8.837607e-02
     vertex -1.963313e-01  6.131928e-17  8.837607e-02
   endloop
 endfacet
 facet normal  5.555702e-01  0.000000e+00 -8.314696e-01
   outer loop
     vertex -7.669844e-02  7.597007e-17  2.080089e-01
     vertex -7.669844e-02 -1.484375e-01  2.080089e-01
     vertex -1.484131e-01 -1.484375e-01  1.600907e-01
   endloop
 endfacet
 facet normal  5.555702e-01  0.000000e+00 -8.314696e-01
   outer loop
     vertex -7.669844e-02  7.597007e-17  2.080089e-01
     vertex -1.484131e-01 -1.484375e-01  1.600907e-01
     vertex -1.484131e-01  6.864468e-17  1.600907e-01
   endloop
 endfacet
 facet normal  1.950903e-01  0.000000e+00 -9.807853e-01
   outer loop
     vertex  7.894737e-03  8.218025e-17  2.248355e-01
     vertex  7.894737e-03 -1.484375e-01  2.248355e-01
     vertex -7.669844e-02 -1.484375e-01  2.080089e-01
   endloop
 endfacet
 facet normal  1.950903e-01  0.000000e+00 -9.807853e-01
   outer loop
     vertex  7.894737e-03  8.218025e-17  2.248355e-01
     vertex -7.669844e-02 -1.484375e-01  2.080089e-01
     vertex -7.669844e-02  7.597007e-17  2.080089e-01
   endloop
 endfacet
 facet normal -5.555702e-01 -0.000000e+00 -8.314696e-01
   outer loop
     vertex  9.248792e-02  8.632975e-17  2.080089e-01
     vertex  1.642026e-01 -1.484375e-01  1.600907e-01
     vertex  9.248792e-02 -1.484375e-01  2.080089e-01
   endloop
 endfacet
 facet normal -1.950903e-01 -0.000000e+00 -9.807853e-01
   outer loop
     vertex  9.248792e-02  8.632975e-17  2.080089e-01
     vertex  9.248792e-02 -1.484375e-01  2.080089e-01
     vertex  7.894737e-03 -1.484375e-01  2.248355e-01
   endloop
 endfacet
 facet normal -1.950903e-01  0.000000e+00 -9.807853e-01
   outer loop
     vertex  9.248792e-02  8.632975e-17  2.080089e-01
     vertex  7.894737e-03 -1.484375e-01  2.248355e-01
     vertex  7.894737e-03  8.218025e-17  2.248355e-01
   endloop
 endfacet
 facet normal -5.555702e-01 -0.000000e+00 -8.314696e-01
   outer loop
     vertex  1.642026e-01  8.778686e-17  1.600907e-01
     vertex  1.642026e-01 -1.484375e-01  1.600907e-01
     vertex  9.248792e-02  8.632975e-17  2.080089e-01
   endloop
 endfacet
 facet normal -9.807853e-01 -0.000000e+00 -1.950903e-01
   outer loop
     vertex  2.121207e-01  8.632975e-17  8.837607e-02
     vertex  2.289474e-01 -1.484375e-01  3.782895e-03
     vertex  2.121207e-01 -1.484375e-01  8.837607e-02
   endloop
 endfacet
 facet normal -8.314696e-01 -0.000000e+00 -5.555702e-01
   outer loop
     vertex  2.121207e-01  8.632975e-17  8.837607e-02
     vertex  2.121207e-01 -1.484375e-01  8.837607e-02
     vertex  1.642026e-01 -1.484375e-01  1.600907e-01
   endloop
 endfacet
 facet normal -8.314696e-01  0.000000e+00 -5.555702e-01
   outer loop
     vertex  2.121207e-01  8.632975e-17  8.837607e-02
     vertex  1.642026e-01 -1.484375e-01  1.600907e-01
     vertex  1.642026e-01  8.778686e-17  1.600907e-01
   endloop
 endfacet
 facet normal -9.807853e-01 -0.000000e+00 -1.950903e-01
   outer loop
     vertex  2.289474e-01  8.218025e-17  3.782895e-03
     vertex  2.289474e-01 -1.484375e-01  3.782895e-03
     vertex  2.121207e-01  8.632975e-17  8.837607e-02
   endloop
 endfacet
 facet normal -9.807853e-01  0.000000e+00  1.950903e-01
   outer loop
     vertex  2.121207e-01  7.597007e-17 -8.081029e-02
     vertex  2.121207e-01 -1.484375e-01 -8.081029e-02
     vertex  2.289474e-01 -1.484375e-01  3.782895e-03
   endloop
 endfacet
 facet normal -9.807853e-01  0.000000e+00  1.950903e-01
   outer loop
     vertex  2.121207e-01  7.597007e-17 -8.081029e-02
     vertex  2.289474e-01 -1.484375e-01  3.782895e-03
     vertex  2.289474e-01  8.218025e-17  3.782895e-03
   endloop
 endfacet
 facet normal -8.314696e-01  0.000000e+00  5.555702e-01
   outer loop
     vertex  1.642026e-01  6.864468e-17 -1.525249e-01
     vertex  1.642026e-01 -1.484375e-01 -1.525249e-01
     vertex  2.121207e-01 -1.484375e-01 -8.081029e-02
   endloop
 endfacet
 facet normal -8.314696e-01  0.000000e+00  5.555702e-01
   outer loop
     vertex  1.642026e-01  6.864468e-17 -1.525249e-01
     vertex  2.121207e-01 -1.484375e-01 -8.081029e-02
     vertex  2.121207e-01  7.597007e-17 -8.081029e-02
   endloop
 endfacet
 facet normal -5.555702e-01  0.000000e+00  8.314696e-01
   outer loop
     vertex  9.248792e-02  6.131928e-17 -2.004431e-01
     vertex  9.248792e-02 -1.484375e-01 -2.004431e-01
     vertex  1.642026e-01 -1.484375e-01 -1.525249e-01
   endloop
 endfacet
 facet normal -5.555702e-01  0.000000e+00  8.314696e-01
   outer loop
     vertex  9.248792e-02  6.131928e-17 -2.004431e-01
     vertex  1.642026e-01 -1.484375e-01 -1.525249e-01
     vertex  1.642026e-01  6.864468e-17 -1.525249e-01
   endloop
 endfacet
 facet normal -1.950903e-01  0.000000e+00  9.807853e-01
   outer loop
     vertex  7.894737e-03  5.510911e-17 -2.172697e-01
     vertex  9.248792e-02 -1.484375e-01 -2.004431e-01
     vertex  9.248792e-02  6.131928e-17 -2.004431e-01
   endloop
 endfacet
 facet normal -1.950903e-01  0.000000e+00  9.807853e-01
   outer loop
     vertex  7.894737e-03  5.510911e-17 -2.172697e-01
     vertex  7.894737e-03 -1.484375e-01 -2.172697e-01
     vertex  9.248792e-02 -1.484375e-01 -2.004431e-01
   endloop
 endfacet
 facet normal  5.877853e-01  0.000000e+00  8.090170e-01
   outer loop
     vertex  5.478280e-01  1.005110e-16 -1.573397e-02
     vertex  6.078947e-01 -1.484375e-01 -5.937500e-02
     vertex  6.078947e-01  1.015168e-16 -5.937500e-02
   endloop
 endfacet
 facet normal  5.877853e-01  0.000000e+00  8.090170e-01
   outer loop
     vertex  5.478280e-01  1.005110e-16 -1.573397e-02
     vertex  5.478280e-01 -1.484375e-01 -1.573397e-02
     vertex  6.078947e-01 -1.484375e-01 -5.937500e-02
   endloop
 endfacet
 facet normal  9.510565e-01  0.000000e+00 -3.090170e-01
   outer loop
     vertex  5.707715e-01  1.062397e-16  5.487870e-02
     vertex  5.707715e-01 -1.484375e-01  5.487870e-02
     vertex  5.478280e-01 -1.484375e-01 -1.573397e-02
   endloop
 endfacet
 facet normal  9.510565e-01  0.000000e+00 -3.090170e-01
   outer loop
     vertex  5.707715e-01  1.062397e-16  5.487870e-02
     vertex  5.478280e-01 -1.484375e-01 -1.573397e-02
     vertex  5.478280e-01  1.005110e-16 -1.573397e-02
   endloop
 endfacet
 facet normal -1.869149e-16 -0.000000e+00 -1.000000e+00
   outer loop
     vertex  6.450180e-01  1.107859e-16  5.487870e-02
     vertex  6.450180e-01 -1.484375e-01  5.487870e-02
     vertex  5.707715e-01 -1.484375e-01  5.487870e-02
   endloop
 endfacet
 facet normal -1.869149e-16  0.000000e+00 -1.000000e+00
   outer loop
     vertex  6.450180e-01  1.107859e-16  5.487870e-02
     vertex  5.707715e-01 -1.484375e-01  5.487870e-02
     vertex  5.707715e-01  1.062397e-16  5.487870e-02
   endloop
 endfacet
 facet normal -9.510565e-01 -0.000000e+00 -3.090170e-01
   outer loop
     vertex  6.679615e-01  1.078670e-16 -1.573397e-02
     vertex  6.679615e-01 -1.484375e-01 -1.573397e-02
     vertex  6.450180e-01 -1.484375e-01  5.487870e-02
   endloop
 endfacet
 facet normal -9.510565e-01  0.000000e+00 -3.090170e-01
   outer loop
     vertex  6.679615e-01  1.078670e-16 -1.573397e-02
     vertex  6.450180e-01 -1.484375e-01  5.487870e-02
     vertex  6.450180e-01  1.107859e-16  5.487870e-02
   endloop
 endfacet
 facet normal -5.877853e-01  0.000000e+00  8.090170e-01
   outer loop
     vertex  6.078947e-01  1.015168e-16 -5.937500e-02
     vertex  6.078947e-01 -1.484375e-01 -5.937500e-02
     vertex  6.679615e-01 -1.484375e-01 -1.573397e-02
   endloop
 endfacet
 facet normal -5.877853e-01  0.000000e+00  8.090170e-01
   outer loop
     vertex  6.078947e-01  1.015168e-16 -5.937500e-02
     vertex  6.679615e-01 -1.484375e-01 -1.573397e-02
     vertex  6.679615e-01  1.078670e-16 -1.573397e-02
   endloop
 endfacet
 facet normal -6.123234e-17  1.000000e+00 -6.123234e-17
   outer loop
     vertex -5.921053e-01  2.803797e-17 -5.937500e-02
     vertex -7.500000e-01  0.000000e+00 -3.593750e-01
     vertex -6.521720e-01  2.703218e-17 -1.573397e-02
   endloop
 endfacet
 facet normal -6.123234e-17  1.000000e+00 -6.123234e-17
   outer loop
     vertex -7.500000e-01  4.350719e-17  3.511513e-01
     vertex -5.549820e-01  3.730713e-17  5.487870e-02
     vertex -6.292285e-01  3.276084e-17  5.487870e-02
   endloop
 endfacet
 facet normal -6.123234e-17  1.000000e+00 -6.123234e-17
   outer loop
     vertex -7.500000e-01  4.350719e-17  3.511513e-01
     vertex -6.292285e-01  3.276084e-17  5.487870e-02
     vertex -6.521720e-01  2.703218e-17 -1.573397e-02
   endloop
 endfacet
 facet normal -6.123234e-17  1.000000e+00 -6.123234e-17
   outer loop
     vertex -7.500000e-01  4.350719e-17  3.511513e-01
     vertex -6.521720e-01  2.703218e-17 -1.573397e-02
     vertex -7.500000e-01  0.000000e+00 -3.593750e-01
   endloop
 endfacet
 facet normal -6.123234e-17  1.000000e+00 -6.123234e-17
   outer loop
     vertex -1.484131e-01  4.950249e-17 -1.525249e-01
     vertex -7.500000e-01  0.000000e+00 -3.593750e-01
     vertex -5.921053e-01  2.803797e-17 -5.937500e-02
   endloop
 endfacet
 facet normal -6.123234e-17  1.000000e+00 -6.123234e-17
   outer loop
     vertex -1.963313e-01  5.095960e-17 -8.081029e-02
     vertex -5.921053e-01  2.803797e-17 -5.937500e-02
     vertex -5.320385e-01  3.438823e-17 -1.573397e-02
   endloop
 endfacet
 facet normal -6.123234e-17  1.000000e+00 -6.123234e-17
   outer loop
     vertex -1.963313e-01  5.095960e-17 -8.081029e-02
     vertex -1.484131e-01  4.950249e-17 -1.525249e-01
     vertex -5.921053e-01  2.803797e-17 -5.937500e-02
   endloop
 endfacet
 facet normal -6.123234e-17  1.000000e+00 -6.123234e-17
   outer loop
     vertex -7.669844e-02  5.095960e-17 -2.004431e-01
     vertex -7.500000e-01  0.000000e+00 -3.593750e-01
     vertex -1.484131e-01  4.950249e-17 -1.525249e-01
   endloop
 endfacet
 facet normal -6.123234e-17  1.000000e+00 -6.123234e-17
   outer loop
     vertex  7.894737e-03  5.510911e-17 -2.172697e-01
     vertex -7.500000e-01  0.000000e+00 -3.593750e-01
     vertex -7.669844e-02  5.095960e-17 -2.004431e-01
   endloop
 endfacet
 facet normal -6.123234e-17  1.000000e+00 -6.123234e-17
   outer loop
     vertex -2.131579e-01  5.510911e-17  3.782895e-03
     vertex -5.320385e-01  3.438823e-17 -1.573397e-02
     vertex -5.549820e-01  3.730713e-17  5.487870e-02
   endloop
 endfacet
 facet normal -6.123234e-17  1.000000e+00 -6.123234e-17
   outer loop
     vertex -2.131579e-01  5.510911e-17  3.782895e-03
     vertex -1.963313e-01  5.095960e-17 -8.081029e-02
     vertex -5.320385e-01  3.438823e-17 -1.573397e-02
   endloop
 endfacet
 facet normal -6.123234e-17  1.000000e+00 -6.123234e-17
   outer loop
     vertex -1.963313e-01  6.131928e-17  8.837607e-02
     vertex -2.131579e-01  5.510911e-17  3.782895e-03
     vertex -5.549820e-01  3.730713e-17  5.487870e-02
   endloop
 endfacet
 facet normal -6.123234e-17  1.000000e+00 -6.123234e-17
   outer loop
     vertex -1.484131e-01  6.864468e-17  1.600907e-01
     vertex -5.549820e-01  3.730713e-17  5.487870e-02
     vertex -7.500000e-01  4.350719e-17  3.511513e-01
   endloop
 endfacet
 facet normal -6.123234e-17  1.000000e+00 -6.123234e-17
   outer loop
     vertex -1.484131e-01  6.864468e-17  1.600907e-01
     vertex -1.963313e-01  6.131928e-17  8.837607e-02
     vertex -5.549820e-01  3.730713e-17  5.487870e-02
   endloop
 endfacet
 facet normal -6.123234e-17  1.000000e+00 -6.123234e-17
   outer loop
     vertex -7.669844e-02  7.597007e-17  2.080089e-01
     vertex -1.484131e-01  6.864468e-17  1.600907e-01
     vertex -7.500000e-01  4.350719e-17  3.511513e-01
   endloop
 endfacet
 facet normal -6.123234e-17  1.000000e+00 -6.123234e-17
   outer loop
     vertex  7.500000e-01  9.184851e-17 -3.593750e-01
     vertex  7.894737e-03  5.510911e-17 -2.172697e-01
     vertex  9.248792e-02  6.131928e-17 -2.004431e-01
   endloop
 endfacet
 facet normal -6.123234e-17  1.000000e+00 -6.123234e-17
   outer loop
     vertex  7.500000e-01  9.184851e-17 -3.593750e-01
     vertex  9.248792e-02  6.131928e-17 -2.004431e-01
     vertex  1.642026e-01  6.864468e-17 -1.525249e-01
   endloop
 endfacet
 facet normal -6.123234e-17  1.000000e+00 -6.123234e-17
   outer loop
     vertex  7.500000e-01  9.184851e-17 -3.593750e-01
     vertex -7.500000e-01  0.000000e+00 -3.593750e-01
     vertex  7.894737e-03  5.510911e-17 -2.172697e-01
   endloop
 endfacet
 facet normal -6.123234e-17  1.000000e+00 -6.123234e-17
   outer loop
     vertex  5.478280e-01  1.005110e-16 -1.573397e-02
     vertex  2.121207e-01  7.597007e-17 -8.081029e-02
     vertex  2.289474e-01  8.218025e-17  3.782895e-03
   endloop
 endfacet
 facet normal -6.123234e-17  1.000000e+00 -6.123234e-17
   outer loop
     vertex  6.078947e-01  1.015168e-16 -5.937500e-02
     vertex  1.642026e-01  6.864468e-17 -1.525249e-01
     vertex  2.121207e-01  7.597007e-17 -8.081029e-02
   endloop
 endfacet
 facet normal -6.123234e-17  1.000000e+00 -6.123234e-17
   outer loop
     vertex  6.078947e-01  1.015168e-16 -5.937500e-02
     vertex  7.500000e-01  9.184851e-17 -3.593750e-01
     vertex  1.642026e-01  6.864468e-17 -1.525249e-01
   endloop
 endfacet
 facet normal -6.123234e-17  1.000000e+00 -6.123234e-17
   outer loop
     vertex  6.078947e-01  1.015168e-16 -5.937500e-02
     vertex  2.121207e-01  7.597007e-17 -8.081029e-02
     vertex  5.478280e-01  1.005110e-16 -1.573397e-02
   endloop
 endfacet
 facet normal -6.123234e-17  1.000000e+00 -6.123234e-17
   outer loop
     vertex  5.707715e-01  1.062397e-16  5.487870e-02
     vertex  2.289474e-01  8.218025e-17  3.782895e-03
     vertex  2.121207e-01  8.632975e-17  8.837607e-02
   endloop
 endfacet
 facet normal -6.123234e-17  1.000000e+00 -6.123234e-17
   outer loop
     vertex  5.707715e-01  1.062397e-16  5.487870e-02
     vertex  2.121207e-01  8.632975e-17  8.837607e-02
     vertex  1.642026e-01  8.778686e-17  1.600907e-01
   endloop
 endfacet
 facet normal -6.123234e-17  1.000000e+00 -6.123234e-17
   outer loop
     vertex  5.707715e-01  1.062397e-16  5.487870e-02
     vertex  5.478280e-01  1.005110e-16 -1.573397e-02
     vertex  2.289474e-01  8.218025e-17  3.782895e-03
   endloop
 endfacet
 facet normal -6.123234e-17  1.000000e+00 -6.123234e-17
   outer loop
     vertex  6.679615e-01  1.078670e-16 -1.573397e-02
     vertex  7.500000e-01  9.184851e-17 -3.593750e-01
     vertex  6.078947e-01  1.015168e-16 -5.937500e-02
   endloop
 endfacet
 facet normal -6.123234e-17  1.000000e+00 -6.123234e-17
   outer loop
     vertex  7.500000e-01  1.353557e-16  3.511513e-01
     vertex  1.642026e-01  8.778686e-17  1.600907e-01
     vertex  9.248792e-02  8.632975e-17  2.080089e-01
   endloop
 endfacet
 facet normal -6.123234e-17  1.000000e+00 -6.123234e-17
   outer loop
     vertex  7.500000e-01  1.353557e-16  3.511513e-01
     vertex  6.679615e-01  1.078670e-16 -1.573397e-02
     vertex  6.450180e-01  1.107859e-16  5.487870e-02
   endloop
 endfacet
 facet normal -6.123234e-17  1.000000e+00 -6.123234e-17
   outer loop
     vertex  7.500000e-01  1.353557e-16  3.511513e-01
     vertex  6.450180e-01  1.107859e-16  5.487870e-02
     vertex  5.707715e-01  1.062397e-16  5.487870e-02
   endloop
 endfacet
 facet normal -6.123234e-17  1.000000e+00 -6.123234e-17
   outer loop
     vertex  7.500000e-01  1.353557e-16  3.511513e-01
     vertex  5.707715e-01  1.062397e-16  5.487870e-02
     vertex  1.642026e-01  8.778686e-17  1.600907e-01
   endloop
 endfacet
 facet normal -6.123234e-17  1.000000e+00 -6.123234e-17
   outer loop
     vertex  7.500000e-01  1.353557e-16  3.511513e-01
     vertex  7.500000e-01  9.184851e-17 -3.593750e-01
     vertex  6.679615e-01  1.078670e-16 -1.573397e-02
   endloop
 endfacet
 facet normal -6.123234e-17  1.000000e+00 -6.123234e-17
   outer loop
     vertex  7.500000e-01  1.353557e-16  3.511513e-01
     vertex  7.894737e-03  8.218025e-17  2.248355e-01
     vertex -7.500000e-01  4.350719e-17  3.511513e-01
   endloop
 endfacet
 facet normal -6.123234e-17  1.000000e+00 -6.123234e-17
   outer loop
     vertex  7.894737e-03  8.218025e-17  2.248355e-01
     vertex -7.669844e-02  7.597007e-17  2.080089e-01
     vertex -7.500000e-01  4.350719e-17  3.511513e-01
   endloop
 endfacet
 facet normal -6.123234e-17  1.000000e+00 -6.123234e-17
   outer loop
     vertex  7.500000e-01  1.353557e-16  3.511513e-01
     vertex  9.248792e-02  8.632975e-17  2.080089e-01
     vertex  7.894737e-03  8.218025e-17  2.248355e-01
   endloop
 endfacet
 facet normal -0.000000e+00 -1.000000e+00  0.000000e+00
   outer loop
     vertex -5.921053e-01 -1.484375e-01 -5.937500e-02
     vertex -6.521720e-01 -1.484375e-01 -1.573397e-02
     vertex -7.500000e-01 -1.484375e-01 -3.593750e-01
   endloop
 endfacet
 facet normal  0.000000e+00 -1.000000e+00  0.000000e+00
   outer loop
     vertex -7.500000e-01 -1.484375e-01  3.511513e-01
     vertex -6.292285e-01 -1.484375e-01  5.487870e-02
     vertex -5.549820e-01 -1.484375e-01  5.487870e-02
   endloop
 endfacet
 facet normal  0.000000e+00 -1.000000e+00  0.000000e+00
   outer loop
     vertex -7.500000e-01 -1.484375e-01  3.511513e-01
     vertex -6.521720e-01 -1.484375e-01 -1.573397e-02
     vertex -6.292285e-01 -1.484375e-01  5.487870e-02
   endloop
 endfacet
 facet normal  0.000000e+00 -1.000000e+00  0.000000e+00
   outer loop
     vertex -7.500000e-01 -1.484375e-01  3.511513e-01
     vertex -7.500000e-01 -1.484375e-01 -3.593750e-01
     vertex -6.521720e-01 -1.484375e-01 -1.573397e-02
   endloop
 endfacet
 facet normal -5.633151e-17 -1.000000e+00  2.964816e-17
   outer loop
     vertex -1.484131e-01 -1.484375e-01 -1.525249e-01
     vertex -5.921053e-01 -1.484375e-01 -5.937500e-02
     vertex -7.500000e-01 -1.484375e-01 -3.593750e-01
   endloop
 endfacet
 facet normal -6.526468e-17 -1.000000e+00  8.982912e-17
   outer loop
     vertex -1.963313e-01 -1.484375e-01 -8.081029e-02
     vertex -5.320385e-01 -1.484375e-01 -1.573397e-02
     vertex -5.921053e-01 -1.484375e-01 -5.937500e-02
   endloop
 endfacet
 facet normal -7.276307e-17 -1.000000e+00 -4.861873e-17
   outer loop
     vertex -1.963313e-01 -1.484375e-01 -8.081029e-02
     vertex -5.921053e-01 -1.484375e-01 -5.937500e-02
     vertex -1.484131e-01 -1.484375e-01 -1.525249e-01
   endloop
 endfacet
 facet normal -3.046180e-17 -1.000000e+00 -4.558931e-17
   outer loop
     vertex -7.669844e-02 -1.484375e-01 -2.004431e-01
     vertex -1.484131e-01 -1.484375e-01 -1.525249e-01
     vertex -7.500000e-01 -1.484375e-01 -3.593750e-01
   endloop
 endfacet
 facet normal  1.592081e-16 -1.000000e+00 -8.491098e-16
   outer loop
     vertex  7.894737e-03 -1.484375e-01 -2.172697e-01
     vertex -7.669844e-02 -1.484375e-01 -2.004431e-01
     vertex -7.500000e-01 -1.484375e-01 -3.593750e-01
   endloop
 endfacet
 facet normal -0.000000e+00 -1.000000e+00  0.000000e+00
   outer loop
     vertex -2.131579e-01 -1.484375e-01  3.782895e-03
     vertex -5.549820e-01 -1.484375e-01  5.487870e-02
     vertex -5.320385e-01 -1.484375e-01 -1.573397e-02
   endloop
 endfacet
 facet normal -1.983999e-17 -1.000000e+00  3.241601e-16
   outer loop
     vertex -2.131579e-01 -1.484375e-01  3.782895e-03
     vertex -5.320385e-01 -1.484375e-01 -1.573397e-02
     vertex -1.963313e-01 -1.484375e-01 -8.081029e-02
   endloop
 endfacet
 facet normal  0.000000e+00 -1.000000e+00  0.000000e+00
   outer loop
     vertex -1.963313e-01 -1.484375e-01  8.837607e-02
     vertex -5.549820e-01 -1.484375e-01  5.487870e-02
     vertex -2.131579e-01 -1.484375e-01  3.782895e-03
   endloop
 endfacet
 facet normal -0.000000e+00 -1.000000e+00  0.000000e+00
   outer loop
     vertex -1.484131e-01 -1.484375e-01  1.600907e-01
     vertex -7.500000e-01 -1.484375e-01  3.511513e-01
     vertex -5.549820e-01 -1.484375e-01  5.487870e-02
   endloop
 endfacet
 facet normal  0.000000e+00 -1.000000e+00  0.000000e+00
   outer loop
     vertex -1.484131e-01 -1.484375e-01  1.600907e-01
     vertex -5.549820e-01 -1.484375e-01  5.487870e-02
     vertex -1.963313e-01 -1.484375e-01  8.837607e-02
   endloop
 endfacet
 facet normal -0.000000e+00 -1.000000e+00  0.000000e+00
   outer loop
     vertex -7.669844e-02 -1.484375e-01  2.080089e-01
     vertex -7.500000e-01 -1.484375e-01  3.511513e-01
     vertex -1.484131e-01 -1.484375e-01  1.600907e-01
   endloop
 endfacet
 facet normal  0.000000e+00 -1.000000e+00  0.000000e+00
   outer loop
     vertex  7.500000e-01 -1.484375e-01 -3.593750e-01
     vertex  9.248792e-02 -1.484375e-01 -2.004431e-01
     vertex  7.894737e-03 -1.484375e-01 -2.172697e-01
   endloop
 endfacet
 facet normal  0.000000e+00 -1.000000e+00  0.000000e+00
   outer loop
     vertex  7.500000e-01 -1.484375e-01 -3.593750e-01
     vertex  1.642026e-01 -1.484375e-01 -1.525249e-01
     vertex  9.248792e-02 -1.484375e-01 -2.004431e-01
   endloop
 endfacet
 facet normal  0.000000e+00 -1.000000e+00  0.000000e+00
   outer loop
     vertex  7.500000e-01 -1.484375e-01 -3.593750e-01
     vertex  7.894737e-03 -1.484375e-01 -2.172697e-01
     vertex -7.500000e-01 -1.484375e-01 -3.593750e-01
   endloop
 endfacet
 facet normal -0.000000e+00 -1.000000e+00  0.000000e+00
   outer loop
     vertex  5.478280e-01 -1.484375e-01 -1.573397e-02
     vertex  2.289474e-01 -1.484375e-01  3.782895e-03
     vertex  2.121207e-01 -1.484375e-01 -8.081029e-02
   endloop
 endfacet
 facet normal  0.000000e+00 -1.000000e+00  0.000000e+00
   outer loop
     vertex  6.078947e-01 -1.484375e-01 -5.937500e-02
     vertex  2.121207e-01 -1.484375e-01 -8.081029e-02
     vertex  1.642026e-01 -1.484375e-01 -1.525249e-01
   endloop
 endfacet
 facet normal  0.000000e+00 -1.000000e+00 -0.000000e+00
   outer loop
     vertex  6.078947e-01 -1.484375e-01 -5.937500e-02
     vertex  1.642026e-01 -1.484375e-01 -1.525249e-01
     vertex  7.500000e-01 -1.484375e-01 -3.593750e-01
   endloop
 endfacet
 facet normal -0.000000e+00 -1.000000e+00  0.000000e+00
   outer loop
     vertex  6.078947e-01 -1.484375e-01 -5.937500e-02
     vertex  5.478280e-01 -1.484375e-01 -1.573397e-02
     vertex  2.121207e-01 -1.484375e-01 -8.081029e-02
   endloop
 endfacet
 facet normal -4.762914e-17 -1.000000e+00  3.186325e-16
   outer loop
     vertex  5.707715e-01 -1.484375e-01  5.487870e-02
     vertex  2.121207e-01 -1.484375e-01  8.837607e-02
     vertex  2.289474e-01 -1.484375e-01  3.782895e-03
   endloop
 endfacet
 facet normal -8.253992e-17 -1.000000e+00 -5.515141e-17
   outer loop
     vertex  5.707715e-01 -1.484375e-01  5.487870e-02
     vertex  1.642026e-01 -1.484375e-01  1.600907e-01
     vertex  2.121207e-01 -1.484375e-01  8.837607e-02
   endloop
 endfacet
 facet normal  0.000000e+00 -1.000000e+00  0.000000e+00
   outer loop
     vertex  5.707715e-01 -1.484375e-01  5.487870e-02
     vertex  2.289474e-01 -1.484375e-01  3.782895e-03
     vertex  5.478280e-01 -1.484375e-01 -1.573397e-02
   endloop
 endfacet
 facet normal  0.000000e+00 -1.000000e+00 -0.000000e+00
   outer loop
     vertex  6.679615e-01 -1.484375e-01 -1.573397e-02
     vertex  6.078947e-01 -1.484375e-01 -5.937500e-02
     vertex  7.500000e-01 -1.484375e-01 -3.593750e-01
   endloop
 endfacet
 facet normal -3.183929e-17 -1.000000e+00 -4.765086e-17
   outer loop
     vertex  7.500000e-01 -1.484375e-01  3.511513e-01
     vertex  9.248792e-02 -1.484375e-01  2.080089e-01
     vertex  1.642026e-01 -1.484375e-01  1.600907e-01
   endloop
 endfacet
 facet normal  0.000000e+00 -1.000000e+00  0.000000e+00
   outer loop
     vertex  7.500000e-01 -1.484375e-01  3.511513e-01
     vertex  6.450180e-01 -1.484375e-01  5.487870e-02
     vertex  6.679615e-01 -1.484375e-01 -1.573397e-02
   endloop
 endfacet
 facet normal  0.000000e+00 -1.000000e+00  0.000000e+00
   outer loop
     vertex  7.500000e-01 -1.484375e-01  3.511513e-01
     vertex  5.707715e-01 -1.484375e-01  5.487870e-02
     vertex  6.450180e-01 -1.484375e-01  5.487870e-02
   endloop
 endfacet
 facet normal -5.902724e-17 -1.000000e+00  3.570822e-17
   outer loop
     vertex  7.500000e-01 -1.484375e-01  3.511513e-01
     vertex  1.642026e-01 -1.484375e-01  1.600907e-01
     vertex  5.707715e-01 -1.484375e-01  5.487870e-02
   endloop
 endfacet
 facet normal  0.000000e+00 -1.000000e+00 -0.000000e+00
   outer loop
     vertex  7.500000e-01 -1.484375e-01  3.511513e-01
     vertex  6.679615e-01 -1.484375e-01 -1.573397e-02
     vertex  7.500000e-01 -1.484375e-01 -3.593750e-01
   endloop
 endfacet
 facet normal -0.000000e+00 -1.000000e+00  0.000000e+00
   outer loop
     vertex  7.500000e-01 -1.484375e-01  3.511513e-01
     vertex -7.500000e-01 -1.484375e-01  3.511513e-01
     vertex  7.894737e-03 -1.484375e-01  2.248355e-01
   endloop
 endfacet
 facet normal -0.000000e+00 -1.000000e+00  0.000000e+00
   outer loop
     vertex  7.894737e-03 -1.484375e-01  2.248355e-01
     vertex -7.500000e-01 -1.484375e-01  3.511513e-01
     vertex -7.669844e-02 -1.484375e-01  2.080089e-01
   endloop
 endfacet
 facet normal  1.512981e-16 -1.000000e+00 -8.888762e-16
   outer loop
     vertex  7.500000e-01 -1.484375e-01  3.511513e-01
     vertex  7.894737e-03 -1.484375e-01  2.248355e-01
     vertex  9.248792e-02 -1.484375e-01  2.080089e-01
   endloop
 endfacet
endsolid
