solid 
 facet normal  0.000000e+00 -1.000000e+00  0.000000e+00
   outer loop
     vertex  3.906250e-01 -1.953125e-01  0.000000e+00
     vertex -3.984375e-01 -1.953125e-01  1.718750e-01
     vertex -3.984375e-01 -1.953125e-01  0.000000e+00
   endloop
 endfacet
 facet normal  0.000000e+00 -1.000000e+00  0.000000e+00
   outer loop
     vertex  3.906250e-01 -1.953125e-01  0.000000e+00
     vertex  3.906250e-01 -1.953125e-01  1.718750e-01
     vertex -3.984375e-01 -1.953125e-01  1.718750e-01
   endloop
 endfacet
 facet normal  1.000000e+00  0.000000e+00  0.000000e+00
   outer loop
     vertex  3.906250e-01  2.199836e-01  0.000000e+00
     vertex  3.906250e-01 -1.953125e-01  1.718750e-01
     vertex  3.906250e-01 -1.953125e-01  0.000000e+00
   endloop
 endfacet
 facet normal  1.000000e+00  0.000000e+00 -0.000000e+00
   outer loop
     vertex  3.906250e-01  2.199836e-01  0.000000e+00
     vertex  3.906250e-01  2.199836e-01  1.718750e-01
     vertex  3.906250e-01 -1.953125e-01  1.718750e-01
   endloop
 endfacet
 facet normal  0.000000e+00  1.000000e+00  0.000000e+00
   outer loop
     vertex -3.984375e-01  2.199836e-01  0.000000e+00
     vertex  3.906250e-01  2.199836e-01  1.718750e-01
     vertex  3.906250e-01  2.199836e-01  0.000000e+00
   endloop
 endfacet
 facet normal  0.000000e+00  1.000000e+00  0.000000e+00
   outer loop
     vertex -3.984375e-01  2.199836e-01  0.000000e+00
     vertex -3.984375e-01  2.199836e-01  1.718750e-01
     vertex  3.906250e-01  2.199836e-01  1.718750e-01
   endloop
 endfacet
 facet normal -1.000000e+00  0.000000e+00  0.000000e+00
   outer loop
     vertex -3.984375e-01 -1.953125e-01  0.000000e+00
     vertex -3.984375e-01  2.199836e-01  1.718750e-01
     vertex -3.984375e-01  2.199836e-01  0.000000e+00
   endloop
 endfacet
 facet normal -1.000000e+00  0.000000e+00  0.000000e+00
   outer loop
     vertex -3.984375e-01 -1.953125e-01  0.000000e+00
     vertex -3.984375e-01 -1.953125e-01  1.718750e-01
     vertex -3.984375e-01  2.199836e-01  1.718750e-01
   endloop
 endfacet
 facet normal -7.071068e-01  7.071068e-01  0.000000e+00
   outer loop
     vertex -3.236842e-01 -2.919408e-02  0.000000e+00
     vertex -2.821546e-01  1.233553e-02  1.718750e-01
     vertex -2.821546e-01  1.233553e-02  0.000000e+00
   endloop
 endfacet
 facet normal -7.071068e-01  7.071068e-01  0.000000e+00
   outer loop
     vertex -3.236842e-01 -2.919408e-02  0.000000e+00
     vertex -3.236842e-01 -2.919408e-02  1.718750e-01
     vertex -2.821546e-01  1.233553e-02  1.718750e-01
   endloop
 endfacet
 facet normal  7.071068e-01  7.071068e-01 -0.000000e+00
   outer loop
     vertex -3.652138e-01  1.233553e-02  0.000000e+00
     vertex -3.652138e-01  1.233553e-02  1.718750e-01
     vertex -3.236842e-01 -2.919408e-02  1.718750e-01
   endloop
 endfacet
 facet normal  7.071068e-01  7.071068e-01  0.000000e+00
   outer loop
     vertex -3.652138e-01  1.233553e-02  0.000000e+00
     vertex -3.236842e-01 -2.919408e-02  1.718750e-01
     vertex -3.236842e-01 -2.919408e-02  0.000000e+00
   endloop
 endfacet
 facet normal  7.071068e-01 -7.071068e-01  0.000000e+00
   outer loop
     vertex -3.236842e-01  5.386513e-02  0.000000e+00
     vertex -3.236842e-01  5.386513e-02  1.718750e-01
     vertex -3.652138e-01  1.233553e-02  1.718750e-01
   endloop
 endfacet
 facet normal  7.071068e-01 -7.071068e-01  0.000000e+00
   outer loop
     vertex -3.236842e-01  5.386513e-02  0.000000e+00
     vertex -3.652138e-01  1.233553e-02  1.718750e-01
     vertex -3.652138e-01  1.233553e-02  0.000000e+00
   endloop
 endfacet
 facet normal -7.071068e-01 -7.071068e-01  0.000000e+00
   outer loop
     vertex -2.821546e-01  1.233553e-02  0.000000e+00
     vertex -2.821546e-01  1.233553e-02  1.718750e-01
     vertex -3.236842e-01  5.386513e-02  1.718750e-01
   endloop
 endfacet
 facet normal -7.071068e-01 -7.071068e-01  0.000000e+00
   outer loop
     vertex -2.821546e-01  1.233553e-02  0.000000e+00
     vertex -3.236842e-01  5.386513e-02  1.718750e-01
     vertex -3.236842e-01  5.386513e-02  0.000000e+00
   endloop
 endfacet
 facet normal -7.071068e-01  7.071068e-01  0.000000e+00
   outer loop
     vertex  3.158717e-01 -2.919408e-02  0.000000e+00
     vertex  3.574013e-01  1.233553e-02  1.718750e-01
     vertex  3.574013e-01  1.233553e-02  0.000000e+00
   endloop
 endfacet
 facet normal -7.071068e-01  7.071068e-01  0.000000e+00
   outer loop
     vertex  3.158717e-01 -2.919408e-02  0.000000e+00
     vertex  3.158717e-01 -2.919408e-02  1.718750e-01
     vertex  3.574013e-01  1.233553e-02  1.718750e-01
   endloop
 endfacet
 facet normal  7.071068e-01  7.071068e-01 -0.000000e+00
   outer loop
     vertex  2.743421e-01  1.233553e-02  0.000000e+00
     vertex  2.743421e-01  1.233553e-02  1.718750e-01
     vertex  3.158717e-01 -2.919408e-02  1.718750e-01
   endloop
 endfacet
 facet normal  7.071068e-01  7.071068e-01  0.000000e+00
   outer loop
     vertex  2.743421e-01  1.233553e-02  0.000000e+00
     vertex  3.158717e-01 -2.919408e-02  1.718750e-01
     vertex  3.158717e-01 -2.919408e-02  0.000000e+00
   endloop
 endfacet
 facet normal  7.071068e-01 -7.071068e-01  0.000000e+00
   outer loop
     vertex  3.158717e-01  5.386513e-02  0.000000e+00
     vertex  3.158717e-01  5.386513e-02  1.718750e-01
     vertex  2.743421e-01  1.233553e-02  1.718750e-01
   endloop
 endfacet
 facet normal  7.071068e-01 -7.071068e-01  0.000000e+00
   outer loop
     vertex  3.158717e-01  5.386513e-02  0.000000e+00
     vertex  2.743421e-01  1.233553e-02  1.718750e-01
     vertex  2.743421e-01  1.233553e-02  0.000000e+00
   endloop
 endfacet
 facet normal -7.071068e-01 -7.071068e-01  0.000000e+00
   outer loop
     vertex  3.574013e-01  1.233553e-02  0.000000e+00
     vertex  3.574013e-01  1.233553e-02  1.718750e-01
     vertex  3.158717e-01  5.386513e-02  1.718750e-01
   endloop
 endfacet
 facet normal -7.071068e-01 -7.071068e-01  0.000000e+00
   outer loop
     vertex  3.574013e-01  1.233553e-02  0.000000e+00
     vertex  3.158717e-01  5.386513e-02  1.718750e-01
     vertex  3.158717e-01  5.386513e-02  0.000000e+00
   endloop
 endfacet
 facet normal  0.000000e+00 -0.000000e+00 -1.000000e+00
   outer loop
     vertex -3.652138e-01  1.233553e-02  0.000000e+00
     vertex -3.236842e-01 -2.919408e-02  0.000000e+00
     vertex -3.984375e-01 -1.953125e-01  0.000000e+00
   endloop
 endfacet
 facet normal  0.000000e+00  0.000000e+00 -1.000000e+00
   outer loop
     vertex -2.821546e-01  1.233553e-02  0.000000e+00
     vertex -3.984375e-01 -1.953125e-01  0.000000e+00
     vertex -3.236842e-01 -2.919408e-02  0.000000e+00
   endloop
 endfacet
 facet normal  0.000000e+00  0.000000e+00 -1.000000e+00
   outer loop
     vertex -3.984375e-01  2.199836e-01  0.000000e+00
     vertex -2.821546e-01  1.233553e-02  0.000000e+00
     vertex -3.236842e-01  5.386513e-02  0.000000e+00
   endloop
 endfacet
 facet normal  0.000000e+00  0.000000e+00 -1.000000e+00
   outer loop
     vertex -3.984375e-01  2.199836e-01  0.000000e+00
     vertex -3.236842e-01  5.386513e-02  0.000000e+00
     vertex -3.652138e-01  1.233553e-02  0.000000e+00
   endloop
 endfacet
 facet normal  0.000000e+00  0.000000e+00 -1.000000e+00
   outer loop
     vertex -3.984375e-01  2.199836e-01  0.000000e+00
     vertex -3.652138e-01  1.233553e-02  0.000000e+00
     vertex -3.984375e-01 -1.953125e-01  0.000000e+00
   endloop
 endfacet
 facet normal  0.000000e+00 -0.000000e+00 -1.000000e+00
   outer loop
     vertex  2.743421e-01  1.233553e-02  0.000000e+00
     vertex  3.906250e-01 -1.953125e-01  0.000000e+00
     vertex -3.984375e-01 -1.953125e-01  0.000000e+00
   endloop
 endfacet
 facet normal  0.000000e+00  0.000000e+00 -1.000000e+00
   outer loop
     vertex  2.743421e-01  1.233553e-02  0.000000e+00
     vertex -3.984375e-01 -1.953125e-01  0.000000e+00
     vertex -2.821546e-01  1.233553e-02  0.000000e+00
   endloop
 endfacet
 facet normal  0.000000e+00  0.000000e+00 -1.000000e+00
   outer loop
     vertex  2.743421e-01  1.233553e-02  0.000000e+00
     vertex  3.158717e-01 -2.919408e-02  0.000000e+00
     vertex  3.906250e-01 -1.953125e-01  0.000000e+00
   endloop
 endfacet
 facet normal  0.000000e+00 -0.000000e+00 -1.000000e+00
   outer loop
     vertex  3.574013e-01  1.233553e-02  0.000000e+00
     vertex  3.906250e-01 -1.953125e-01  0.000000e+00
     vertex  3.158717e-01 -2.919408e-02  0.000000e+00
   endloop
 endfacet
 facet normal  0.000000e+00  0.000000e+00 -1.000000e+00
   outer loop
     vertex  3.906250e-01  2.199836e-01  0.000000e+00
     vertex  3.574013e-01  1.233553e-02  0.000000e+00
     vertex  3.158717e-01  5.386513e-02  0.000000e+00
   endloop
 endfacet
 facet normal  0.000000e+00  0.000000e+00 -1.000000e+00
   outer loop
     vertex  3.906250e-01  2.199836e-01  0.000000e+00
     vertex  3.158717e-01  5.386513e-02  0.000000e+00
     vertex  2.743421e-01  1.233553e-02  0.000000e+00
   endloop
 endfacet
 facet normal -0.000000e+00  0.000000e+00 -1.000000e+00
   outer loop
     vertex  3.906250e-01  2.199836e-01  0.000000e+00
     vertex -2.821546e-01  1.233553e-02  0.000000e+00
     vertex -3.984375e-01  2.199836e-01  0.000000e+00
   endloop
 endfacet
 facet normal  0.000000e+00  0.000000e+00 -1.000000e+00
   outer loop
     vertex  3.906250e-01  2.199836e-01  0.000000e+00
     vertex  2.743421e-01  1.233553e-02  0.000000e+00
     vertex -2.821546e-01  1.233553e-02  0.000000e+00
   endloop
 endfacet
 facet normal  0.000000e+00 -0.000000e+00 -1.000000e+00
   outer loop
     vertex  3.906250e-01  2.199836e-01  0.000000e+00
     vertex  3.906250e-01 -1.953125e-01  0.000000e+00
     vertex  3.574013e-01  1.233553e-02  0.000000e+00
   endloop
 endfacet
 facet normal  0.000000e+00  0.000000e+00  1.000000e+00
   outer loop
     vertex -3.652138e-01  1.233553e-02  1.718750e-01
     vertex -3.984375e-01 -1.953125e-01  1.718750e-01
     vertex -3.236842e-01 -2.919408e-02  1.718750e-01
   endloop
 endfacet
 facet normal  0.000000e+00  0.000000e+00  1.000000e+00
   outer loop
     vertex -2.821546e-01  1.233553e-02  1.718750e-01
     vertex -3.236842e-01 -2.919408e-02  1.718750e-01
     vertex -3.984375e-01 -1.953125e-01  1.718750e-01
   endloop
 endfacet
 facet normal  0.000000e+00  0.000000e+00  1.000000e+00
   outer loop
     vertex -3.984375e-01  2.199836e-01  1.718750e-01
     vertex -3.236842e-01  5.386513e-02  1.718750e-01
     vertex -2.821546e-01  1.233553e-02  1.718750e-01
   endloop
 endfacet
 facet normal  0.000000e+00  0.000000e+00  1.000000e+00
   outer loop
     vertex -3.984375e-01  2.199836e-01  1.718750e-01
     vertex -3.652138e-01  1.233553e-02  1.718750e-01
     vertex -3.236842e-01  5.386513e-02  1.718750e-01
   endloop
 endfacet
 facet normal  0.000000e+00  0.000000e+00  1.000000e+00
   outer loop
     vertex -3.984375e-01  2.199836e-01  1.718750e-01
     vertex -3.984375e-01 -1.953125e-01  1.718750e-01
     vertex -3.652138e-01  1.233553e-02  1.718750e-01
   endloop
 endfacet
 facet normal  0.000000e+00  0.000000e+00  1.000000e+00
   outer loop
     vertex  2.743421e-01  1.233553e-02  1.718750e-01
     vertex -3.984375e-01 -1.953125e-01  1.718750e-01
     vertex  3.906250e-01 -1.953125e-01  1.718750e-01
   endloop
 endfacet
 facet normal  0.000000e+00  0.000000e+00  1.000000e+00
   outer loop
     vertex  2.743421e-01  1.233553e-02  1.718750e-01
     vertex -2.821546e-01  1.233553e-02  1.718750e-01
     vertex -3.984375e-01 -1.953125e-01  1.718750e-01
   endloop
 endfacet
 facet normal  0.000000e+00  0.000000e+00  1.000000e+00
   outer loop
     vertex  2.743421e-01  1.233553e-02  1.718750e-01
     vertex  3.906250e-01 -1.953125e-01  1.718750e-01
     vertex  3.158717e-01 -2.919408e-02  1.718750e-01
   endloop
 endfacet
 facet normal  0.000000e+00  0.000000e+00  1.000000e+00
   outer loop
     vertex  3.574013e-01  1.233553e-02  1.718750e-01
     vertex  3.158717e-01 -2.919408e-02  1.718750e-01
     vertex  3.906250e-01 -1.953125e-01  1.718750e-01
   endloop
 endfacet
 facet normal  0.000000e+00  0.000000e+00  1.000000e+00
   outer loop
     vertex  3.906250e-01  2.199836e-01  1.718750e-01
     vertex  3.158717e-01  5.386513e-02  1.718750e-01
     vertex  3.574013e-01  1.233553e-02  1.718750e-01
   endloop
 endfacet
 facet normal  0.000000e+00  0.000000e+00  1.000000e+00
   outer loop
     vertex  3.906250e-01  2.199836e-01  1.718750e-01
     vertex  2.743421e-01  1.233553e-02  1.718750e-01
     vertex  3.158717e-01  5.386513e-02  1.718750e-01
   endloop
 endfacet
 facet normal  0.000000e+00  0.000000e+00  1.000000e+00
   outer loop
     vertex  3.906250e-01  2.199836e-01  1.718750e-01
     vertex -3.984375e-01  2.199836e-01  1.718750e-01
     vertex -2.821546e-01  1.233553e-02  1.718750e-01
   endloop
 endfacet
 facet normal  0.000000e+00  0.000000e+00  1.000000e+00
   outer loop
     vertex  3.906250e-01  2.199836e-01  1.718750e-01
     vertex -2.821546e-01  1.233553e-02  1.718750e-01
     vertex  2.743421e-01  1.233553e-02  1.718750e-01
   endloop
 endfacet
 facet normal  0.000000e+00  0.000000e+00  1.000000e+00
   outer loop
     vertex  3.906250e-01  2.199836e-01  1.718750e-01
     vertex  3.574013e-01  1.233553e-02  1.718750e-01
     vertex  3.906250e-01 -1.953125e-01  1.718750e-01
   endloop
 endfacet
 facet normal  0.000000e+00 -1.000000e+00  0.000000e+00
   outer loop
     vertex  3.984375e-01 -7.500000e-01  0.000000e+00
     vertex -3.906250e-01 -7.500000e-01  1.718750e-01
     vertex -3.906250e-01 -7.500000e-01  0.000000e+00
   endloop
 endfacet
 facet normal  0.000000e+00 -1.000000e+00  0.000000e+00
   outer loop
     vertex  3.984375e-01 -7.500000e-01  0.000000e+00
     vertex  3.984375e-01 -7.500000e-01  1.718750e-01
     vertex -3.906250e-01 -7.500000e-01  1.718750e-01
   endloop
 endfacet
 facet normal  1.000000e+00  0.000000e+00  0.000000e+00
   outer loop
     vertex  3.984375e-01 -3.347039e-01  0.000000e+00
     vertex  3.984375e-01 -7.500000e-01  1.718750e-01
     vertex  3.984375e-01 -7.500000e-01  0.000000e+00
   endloop
 endfacet
 facet normal  1.000000e+00  0.000000e+00 -0.000000e+00
   outer loop
     vertex  3.984375e-01 -3.347039e-01  0.000000e+00
     vertex  3.984375e-01 -3.347039e-01  1.718750e-01
     vertex  3.984375e-01 -7.500000e-01  1.718750e-01
   endloop
 endfacet
 facet normal  0.000000e+00  1.000000e+00  0.000000e+00
   outer loop
     vertex -3.906250e-01 -3.347039e-01  0.000000e+00
     vertex  3.984375e-01 -3.347039e-01  1.718750e-01
     vertex  3.984375e-01 -3.347039e-01  0.000000e+00
   endloop
 endfacet
 facet normal  0.000000e+00  1.000000e+00  0.000000e+00
   outer loop
     vertex -3.906250e-01 -3.347039e-01  0.000000e+00
     vertex -3.906250e-01 -3.347039e-01  1.718750e-01
     vertex  3.984375e-01 -3.347039e-01  1.718750e-01
   endloop
 endfacet
 facet normal -1.000000e+00  0.000000e+00  0.000000e+00
   outer loop
     vertex -3.906250e-01 -7.500000e-01  0.000000e+00
     vertex -3.906250e-01 -3.347039e-01  1.718750e-01
     vertex -3.906250e-01 -3.347039e-01  0.000000e+00
   endloop
 endfacet
 facet normal -1.000000e+00  0.000000e+00  0.000000e+00
   outer loop
     vertex -3.906250e-01 -7.500000e-01  0.000000e+00
     vertex -3.906250e-01 -7.500000e-01  1.718750e-01
     vertex -3.906250e-01 -3.347039e-01  1.718750e-01
   endloop
 endfacet
 facet normal -7.071068e-01  7.071068e-01  0.000000e+00
   outer loop
     vertex -3.158717e-01 -5.838816e-01  0.000000e+00
     vertex -2.743421e-01 -5.423520e-01  1.718750e-01
     vertex -2.743421e-01 -5.423520e-01  0.000000e+00
   endloop
 endfacet
 facet normal -7.071068e-01  7.071068e-01  0.000000e+00
   outer loop
     vertex -3.158717e-01 -5.838816e-01  0.000000e+00
     vertex -3.158717e-01 -5.838816e-01  1.718750e-01
     vertex -2.743421e-01 -5.423520e-01  1.718750e-01
   endloop
 endfacet
 facet normal  7.071068e-01  7.071068e-01 -0.000000e+00
   outer loop
     vertex -3.574013e-01 -5.423520e-01  0.000000e+00
     vertex -3.574013e-01 -5.423520e-01  1.718750e-01
     vertex -3.158717e-01 -5.838816e-01  1.718750e-01
   endloop
 endfacet
 facet normal  7.071068e-01  7.071068e-01  0.000000e+00
   outer loop
     vertex -3.574013e-01 -5.423520e-01  0.000000e+00
     vertex -3.158717e-01 -5.838816e-01  1.718750e-01
     vertex -3.158717e-01 -5.838816e-01  0.000000e+00
   endloop
 endfacet
 facet normal  7.071068e-01 -7.071068e-01  0.000000e+00
   outer loop
     vertex -3.158717e-01 -5.008224e-01  0.000000e+00
     vertex -3.158717e-01 -5.008224e-01  1.718750e-01
     vertex -3.574013e-01 -5.423520e-01  1.718750e-01
   endloop
 endfacet
 facet normal  7.071068e-01 -7.071068e-01  0.000000e+00
   outer loop
     vertex -3.158717e-01 -5.008224e-01  0.000000e+00
     vertex -3.574013e-01 -5.423520e-01  1.718750e-01
     vertex -3.574013e-01 -5.423520e-01  0.000000e+00
   endloop
 endfacet
 facet normal -7.071068e-01 -7.071068e-01  0.000000e+00
   outer loop
     vertex -2.743421e-01 -5.423520e-01  0.000000e+00
     vertex -2.743421e-01 -5.423520e-01  1.718750e-01
     vertex -3.158717e-01 -5.008224e-01  1.718750e-01
   endloop
 endfacet
 facet normal -7.071068e-01 -7.071068e-01  0.000000e+00
   outer loop
     vertex -2.743421e-01 -5.423520e-01  0.000000e+00
     vertex -3.158717e-01 -5.008224e-01  1.718750e-01
     vertex -3.158717e-01 -5.008224e-01  0.000000e+00
   endloop
 endfacet
 facet normal -7.071068e-01  7.071068e-01  0.000000e+00
   outer loop
     vertex  3.236842e-01 -5.838816e-01  0.000000e+00
     vertex  3.652138e-01 -5.423520e-01  1.718750e-01
     vertex  3.652138e-01 -5.423520e-01  0.000000e+00
   endloop
 endfacet
 facet normal -7.071068e-01  7.071068e-01  0.000000e+00
   outer loop
     vertex  3.236842e-01 -5.838816e-01  0.000000e+00
     vertex  3.236842e-01 -5.838816e-01  1.718750e-01
     vertex  3.652138e-01 -5.423520e-01  1.718750e-01
   endloop
 endfacet
 facet normal  7.071068e-01  7.071068e-01 -0.000000e+00
   outer loop
     vertex  2.821546e-01 -5.423520e-01  0.000000e+00
     vertex  2.821546e-01 -5.423520e-01  1.718750e-01
     vertex  3.236842e-01 -5.838816e-01  1.718750e-01
   endloop
 endfacet
 facet normal  7.071068e-01  7.071068e-01  0.000000e+00
   outer loop
     vertex  2.821546e-01 -5.423520e-01  0.000000e+00
     vertex  3.236842e-01 -5.838816e-01  1.718750e-01
     vertex  3.236842e-01 -5.838816e-01  0.000000e+00
   endloop
 endfacet
 facet normal  7.071068e-01 -7.071068e-01  0.000000e+00
   outer loop
     vertex  3.236842e-01 -5.008224e-01  0.000000e+00
     vertex  3.236842e-01 -5.008224e-01  1.718750e-01
     vertex  2.821546e-01 -5.423520e-01  1.718750e-01
   endloop
 endfacet
 facet normal  7.071068e-01 -7.071068e-01  0.000000e+00
   outer loop
     vertex  3.236842e-01 -5.008224e-01  0.000000e+00
     vertex  2.821546e-01 -5.423520e-01  1.718750e-01
     vertex  2.821546e-01 -5.423520e-01  0.000000e+00
   endloop
 endfacet
 facet normal -7.071068e-01 -7.071068e-01  0.000000e+00
   outer loop
     vertex  3.652138e-01 -5.423520e-01  0.000000e+00
     vertex  3.652138e-01 -5.423520e-01  1.718750e-01
     vertex  3.236842e-01 -5.008224e-01  1.718750e-01
   endloop
 endfacet
 facet normal -7.071068e-01 -7.071068e-01  0.000000e+00
   outer loop
     vertex  3.652138e-01 -5.423520e-01  0.000000e+00
     vertex  3.236842e-01 -5.008224e-01  1.718750e-01
     vertex  3.236842e-01 -5.008224e-01  0.000000e+00
   endloop
 endfacet
 facet normal  0.000000e+00 -0.000000e+00 -1.000000e+00
   outer loop
     vertex -3.574013e-01 -5.423520e-01  0.000000e+00
     vertex -3.158717e-01 -5.838816e-01  0.000000e+00
     vertex -3.906250e-01 -7.500000e-01  0.000000e+00
   endloop
 endfacet
 facet normal  0.000000e+00  0.000000e+00 -1.000000e+00
   outer loop
     vertex -2.743421e-01 -5.423520e-01  0.000000e+00
     vertex -3.906250e-01 -7.500000e-01  0.000000e+00
     vertex -3.158717e-01 -5.838816e-01  0.000000e+00
   endloop
 endfacet
 facet normal  0.000000e+00  0.000000e+00 -1.000000e+00
   outer loop
     vertex -3.906250e-01 -3.347039e-01  0.000000e+00
     vertex -2.743421e-01 -5.423520e-01  0.000000e+00
     vertex -3.158717e-01 -5.008224e-01  0.000000e+00
   endloop
 endfacet
 facet normal  0.000000e+00  0.000000e+00 -1.000000e+00
   outer loop
     vertex -3.906250e-01 -3.347039e-01  0.000000e+00
     vertex -3.158717e-01 -5.008224e-01  0.000000e+00
     vertex -3.574013e-01 -5.423520e-01  0.000000e+00
   endloop
 endfacet
 facet normal  0.000000e+00  0.000000e+00 -1.000000e+00
   outer loop
     vertex -3.906250e-01 -3.347039e-01  0.000000e+00
     vertex -3.574013e-01 -5.423520e-01  0.000000e+00
     vertex -3.906250e-01 -7.500000e-01  0.000000e+00
   endloop
 endfacet
 facet normal  0.000000e+00 -0.000000e+00 -1.000000e+00
   outer loop
     vertex  2.821546e-01 -5.423520e-01  0.000000e+00
     vertex  3.984375e-01 -7.500000e-01  0.000000e+00
     vertex -3.906250e-01 -7.500000e-01  0.000000e+00
   endloop
 endfacet
 facet normal -0.000000e+00  0.000000e+00 -1.000000e+00
   outer loop
     vertex  2.821546e-01 -5.423520e-01  0.000000e+00
     vertex -3.906250e-01 -7.500000e-01  0.000000e+00
     vertex -2.743421e-01 -5.423520e-01  0.000000e+00
   endloop
 endfacet
 facet normal  0.000000e+00  0.000000e+00 -1.000000e+00
   outer loop
     vertex  2.821546e-01 -5.423520e-01  0.000000e+00
     vertex  3.236842e-01 -5.838816e-01  0.000000e+00
     vertex  3.984375e-01 -7.500000e-01  0.000000e+00
   endloop
 endfacet
 facet normal  0.000000e+00 -0.000000e+00 -1.000000e+00
   outer loop
     vertex  3.652138e-01 -5.423520e-01  0.000000e+00
     vertex  3.984375e-01 -7.500000e-01  0.000000e+00
     vertex  3.236842e-01 -5.838816e-01  0.000000e+00
   endloop
 endfacet
 facet normal  0.000000e+00  0.000000e+00 -1.000000e+00
   outer loop
     vertex  3.984375e-01 -3.347039e-01  0.000000e+00
     vertex  3.652138e-01 -5.423520e-01  0.000000e+00
     vertex  3.236842e-01 -5.008224e-01  0.000000e+00
   endloop
 endfacet
 facet normal  0.000000e+00  0.000000e+00 -1.000000e+00
   outer loop
     vertex  3.984375e-01 -3.347039e-01  0.000000e+00
     vertex  3.236842e-01 -5.008224e-01  0.000000e+00
     vertex  2.821546e-01 -5.423520e-01  0.000000e+00
   endloop
 endfacet
 facet normal -0.000000e+00  0.000000e+00 -1.000000e+00
   outer loop
     vertex  3.984375e-01 -3.347039e-01  0.000000e+00
     vertex -2.743421e-01 -5.423520e-01  0.000000e+00
     vertex -3.906250e-01 -3.347039e-01  0.000000e+00
   endloop
 endfacet
 facet normal  0.000000e+00  0.000000e+00 -1.000000e+00
   outer loop
     vertex  3.984375e-01 -3.347039e-01  0.000000e+00
     vertex  2.821546e-01 -5.423520e-01  0.000000e+00
     vertex -2.743421e-01 -5.423520e-01  0.000000e+00
   endloop
 endfacet
 facet normal  0.000000e+00 -0.000000e+00 -1.000000e+00
   outer loop
     vertex  3.984375e-01 -3.347039e-01  0.000000e+00
     vertex  3.984375e-01 -7.500000e-01  0.000000e+00
     vertex  3.652138e-01 -5.423520e-01  0.000000e+00
   endloop
 endfacet
 facet normal  0.000000e+00  0.000000e+00  1.000000e+00
   outer loop
     vertex -3.574013e-01 -5.423520e-01  1.718750e-01
     vertex -3.906250e-01 -7.500000e-01  1.718750e-01
     vertex -3.158717e-01 -5.838816e-01  1.718750e-01
   endloop
 endfacet
 facet normal  0.000000e+00  0.000000e+00  1.000000e+00
   outer loop
     vertex -2.743421e-01 -5.423520e-01  1.718750e-01
     vertex -3.158717e-01 -5.838816e-01  1.718750e-01
     vertex -3.906250e-01 -7.500000e-01  1.718750e-01
   endloop
 endfacet
 facet normal  0.000000e+00  0.000000e+00  1.000000e+00
   outer loop
     vertex -3.906250e-01 -3.347039e-01  1.718750e-01
     vertex -3.158717e-01 -5.008224e-01  1.718750e-01
     vertex -2.743421e-01 -5.423520e-01  1.718750e-01
   endloop
 endfacet
 facet normal  0.000000e+00  0.000000e+00  1.000000e+00
   outer loop
     vertex -3.906250e-01 -3.347039e-01  1.718750e-01
     vertex -3.574013e-01 -5.423520e-01  1.718750e-01
     vertex -3.158717e-01 -5.008224e-01  1.718750e-01
   endloop
 endfacet
 facet normal  0.000000e+00  0.000000e+00  1.000000e+00
   outer loop
     vertex -3.906250e-01 -3.347039e-01  1.718750e-01
     vertex -3.906250e-01 -7.500000e-01  1.718750e-01
     vertex -3.574013e-01 -5.423520e-01  1.718750e-01
   endloop
 endfacet
 facet normal  0.000000e+00  0.000000e+00  1.000000e+00
   outer loop
     vertex  2.821546e-01 -5.423520e-01  1.718750e-01
     vertex -3.906250e-01 -7.500000e-01  1.718750e-01
     vertex  3.984375e-01 -7.500000e-01  1.718750e-01
   endloop
 endfacet
 facet normal  0.000000e+00  0.000000e+00  1.000000e+00
   outer loop
     vertex  2.821546e-01 -5.423520e-01  1.718750e-01
     vertex -2.743421e-01 -5.423520e-01  1.718750e-01
     vertex -3.906250e-01 -7.500000e-01  1.718750e-01
   endloop
 endfacet
 facet normal  0.000000e+00  0.000000e+00  1.000000e+00
   outer loop
     vertex  2.821546e-01 -5.423520e-01  1.718750e-01
     vertex  3.984375e-01 -7.500000e-01  1.718750e-01
     vertex  3.236842e-01 -5.838816e-01  1.718750e-01
   endloop
 endfacet
 facet normal  0.000000e+00  0.000000e+00  1.000000e+00
   outer loop
     vertex  3.652138e-01 -5.423520e-01  1.718750e-01
     vertex  3.236842e-01 -5.838816e-01  1.718750e-01
     vertex  3.984375e-01 -7.500000e-01  1.718750e-01
   endloop
 endfacet
 facet normal  0.000000e+00  0.000000e+00  1.000000e+00
   outer loop
     vertex  3.984375e-01 -3.347039e-01  1.718750e-01
     vertex  3.236842e-01 -5.008224e-01  1.718750e-01
     vertex  3.652138e-01 -5.423520e-01  1.718750e-01
   endloop
 endfacet
 facet normal  0.000000e+00  0.000000e+00  1.000000e+00
   outer loop
     vertex  3.984375e-01 -3.347039e-01  1.718750e-01
     vertex  2.821546e-01 -5.423520e-01  1.718750e-01
     vertex  3.236842e-01 -5.008224e-01  1.718750e-01
   endloop
 endfacet
 facet normal  0.000000e+00  0.000000e+00  1.000000e+00
   outer loop
     vertex  3.984375e-01 -3.347039e-01  1.718750e-01
     vertex -3.906250e-01 -3.347039e-01  1.718750e-01
     vertex -2.743421e-01 -5.423520e-01  1.718750e-01
   endloop
 endfacet
 facet normal  0.000000e+00  0.000000e+00  1.000000e+00
   outer loop
     vertex  3.984375e-01 -3.347039e-01  1.718750e-01
     vertex -2.743421e-01 -5.423520e-01  1.718750e-01
     vertex  2.821546e-01 -5.423520e-01  1.718750e-01
   endloop
 endfacet
 facet normal  0.000000e+00  0.000000e+00  1.000000e+00
   outer loop
     vertex  3.984375e-01 -3.347039e-01  1.718750e-01
     vertex  3.652138e-01 -5.423520e-01  1.718750e-01
     vertex  3.984375e-01 -7.500000e-01  1.718750e-01
   endloop
 endfacet
endsolid
