solid 
 facet normal  0.000000e+00  0.000000e+00 -1.000000e+00
   outer loop
     vertex  8.388158e-03  3.524888e-20 -4.687500e-02
     vertex  7.812500e-03 -2.734375e-01 -4.687500e-02
     vertex  7.812500e-03  0.000000e+00 -4.687500e-02
   endloop
 endfacet
 facet normal  0.000000e+00 -0.000000e+00 -1.000000e+00
   outer loop
     vertex  8.388158e-03  3.524888e-20 -4.687500e-02
     vertex  8.388158e-03 -2.734375e-01 -4.687500e-02
     vertex  7.812500e-03 -2.734375e-01 -4.687500e-02
   endloop
 endfacet
 facet normal -1.000000e+00  0.000000e+00  0.000000e+00
   outer loop
     vertex  7.812500e-03  0.000000e+00 -4.687500e-02
     vertex  7.812500e-03 -2.734375e-01  7.812500e-03
     vertex  7.812500e-03  3.348644e-18  7.812500e-03
   endloop
 endfacet
 facet normal -1.000000e+00  0.000000e+00  0.000000e+00
   outer loop
     vertex  7.812500e-03  0.000000e+00 -4.687500e-02
     vertex  7.812500e-03 -2.734375e-01 -4.687500e-02
     vertex  7.812500e-03 -2.734375e-01  7.812500e-03
   endloop
 endfacet
 facet normal  1.000000e+00  0.000000e+00  0.000000e+00
   outer loop
     vertex  8.388158e-03  3.383892e-18  7.812500e-03
     vertex  8.388158e-03 -2.734375e-01 -4.687500e-02
     vertex  8.388158e-03  3.524888e-20 -4.687500e-02
   endloop
 endfacet
 facet normal  1.000000e+00  0.000000e+00  0.000000e+00
   outer loop
     vertex  8.388158e-03  3.383892e-18  7.812500e-03
     vertex  8.388158e-03 -2.734375e-01  7.812500e-03
     vertex  8.388158e-03 -2.734375e-01 -4.687500e-02
   endloop
 endfacet
 facet normal -0.000000e+00  0.000000e+00 -1.000000e+00
   outer loop
     vertex  8.388158e-03  3.524888e-20 -4.687500e-02
     vertex  7.812500e-03  0.000000e+00 -4.687500e-02
     vertex  7.812500e-03  7.500000e-01 -4.687500e-02
   endloop
 endfacet
 facet normal  0.000000e+00  0.000000e+00 -1.000000e+00
   outer loop
     vertex  8.388158e-03  3.524888e-20 -4.687500e-02
     vertex  7.812500e-03  7.500000e-01 -4.687500e-02
     vertex  8.388158e-03  7.500000e-01 -4.687500e-02
   endloop
 endfacet
 facet normal  0.000000e+00 -1.000000e+00 -0.000000e+00
   outer loop
     vertex  8.388158e-03 -2.734375e-01  7.812500e-03
     vertex  7.812500e-03 -2.734375e-01 -4.687500e-02
     vertex  8.388158e-03 -2.734375e-01 -4.687500e-02
   endloop
 endfacet
 facet normal -0.000000e+00 -1.000000e+00  0.000000e+00
   outer loop
     vertex  8.388158e-03 -2.734375e-01  7.812500e-03
     vertex  7.812500e-03 -2.734375e-01  7.812500e-03
     vertex  7.812500e-03 -2.734375e-01 -4.687500e-02
   endloop
 endfacet
 facet normal -0.000000e+00  0.000000e+00  1.000000e+00
   outer loop
     vertex  7.812500e-03  3.348644e-18  7.812500e-03
     vertex  8.388158e-03 -2.734375e-01  7.812500e-03
     vertex  8.388158e-03  3.383892e-18  7.812500e-03
   endloop
 endfacet
 facet normal  0.000000e+00  0.000000e+00  1.000000e+00
   outer loop
     vertex  7.812500e-03  3.348644e-18  7.812500e-03
     vertex  7.812500e-03 -2.734375e-01  7.812500e-03
     vertex  8.388158e-03 -2.734375e-01  7.812500e-03
   endloop
 endfacet
 facet normal -1.000000e+00  0.000000e+00  0.000000e+00
   outer loop
     vertex  7.812500e-03  0.000000e+00 -4.687500e-02
     vertex  7.812500e-03  3.348644e-18  7.812500e-03
     vertex  7.812500e-03  7.500000e-01  7.812500e-03
   endloop
 endfacet
 facet normal -1.000000e+00  0.000000e+00  0.000000e+00
   outer loop
     vertex  7.812500e-03  0.000000e+00 -4.687500e-02
     vertex  7.812500e-03  7.500000e-01  7.812500e-03
     vertex  7.812500e-03  7.500000e-01 -4.687500e-02
   endloop
 endfacet
 facet normal  1.000000e+00  0.000000e+00  0.000000e+00
   outer loop
     vertex  8.388158e-03  3.383892e-18  7.812500e-03
     vertex  8.388158e-03  3.524888e-20 -4.687500e-02
     vertex  8.388158e-03  7.500000e-01 -4.687500e-02
   endloop
 endfacet
 facet normal  1.000000e+00 -0.000000e+00  0.000000e+00
   outer loop
     vertex  8.388158e-03  3.383892e-18  7.812500e-03
     vertex  8.388158e-03  7.500000e-01 -4.687500e-02
     vertex  8.388158e-03  7.500000e-01  7.812500e-03
   endloop
 endfacet
 facet normal  0.000000e+00  1.000000e+00  0.000000e+00
   outer loop
     vertex  8.388158e-03  7.500000e-01  7.812500e-03
     vertex  8.388158e-03  7.500000e-01 -4.687500e-02
     vertex  7.812500e-03  7.500000e-01 -4.687500e-02
   endloop
 endfacet
 facet normal  0.000000e+00  1.000000e+00  0.000000e+00
   outer loop
     vertex  8.388158e-03  7.500000e-01  7.812500e-03
     vertex  7.812500e-03  7.500000e-01 -4.687500e-02
     vertex  7.812500e-03  7.500000e-01  7.812500e-03
   endloop
 endfacet
 facet normal  0.000000e+00  0.000000e+00  1.000000e+00
   outer loop
     vertex  7.812500e-03  3.348644e-18  7.812500e-03
     vertex  8.388158e-03  3.383892e-18  7.812500e-03
     vertex  8.388158e-03  7.500000e-01  7.812500e-03
   endloop
 endfacet
 facet normal  0.000000e+00  0.000000e+00  1.000000e+00
   outer loop
     vertex  7.812500e-03  3.348644e-18  7.812500e-03
     vertex  8.388158e-03  7.500000e-01  7.812500e-03
     vertex  7.812500e-03  7.500000e-01  7.812500e-03
   endloop
 endfacet
endsolid
