solid 
 facet normal  0.000000e+00 -1.000000e+00  0.000000e+00
   outer loop
     vertex  4.973684e-01  0.000000e+00  0.000000e+00
     vertex  0.000000e+00  0.000000e+00  2.500000e-01
     vertex  0.000000e+00  0.000000e+00  0.000000e+00
   endloop
 endfacet
 facet normal  0.000000e+00 -1.000000e+00  0.000000e+00
   outer loop
     vertex  4.973684e-01  0.000000e+00  0.000000e+00
     vertex  4.973684e-01  0.000000e+00  2.500000e-01
     vertex  0.000000e+00  0.000000e+00  2.500000e-01
   endloop
 endfacet
 facet normal -1.000000e+00  0.000000e+00  0.000000e+00
   outer loop
     vertex  0.000000e+00  0.000000e+00  0.000000e+00
     vertex  0.000000e+00  7.500000e-01  2.500000e-01
     vertex  0.000000e+00  7.500000e-01  0.000000e+00
   endloop
 endfacet
 facet normal -1.000000e+00  0.000000e+00  0.000000e+00
   outer loop
     vertex  0.000000e+00  0.000000e+00  0.000000e+00
     vertex  0.000000e+00  0.000000e+00  2.500000e-01
     vertex  0.000000e+00  7.500000e-01  2.500000e-01
   endloop
 endfacet
 facet normal  1.000000e+00  0.000000e+00  0.000000e+00
   outer loop
     vertex  4.973684e-01  7.500000e-01  0.000000e+00
     vertex  4.973684e-01  0.000000e+00  2.500000e-01
     vertex  4.973684e-01  0.000000e+00  0.000000e+00
   endloop
 endfacet
 facet normal  1.000000e+00  0.000000e+00 -0.000000e+00
   outer loop
     vertex  4.973684e-01  7.500000e-01  0.000000e+00
     vertex  4.973684e-01  7.500000e-01  2.500000e-01
     vertex  4.973684e-01  0.000000e+00  2.500000e-01
   endloop
 endfacet
 facet normal  0.000000e+00  0.000000e+00 -1.000000e+00
   outer loop
     vertex  4.973684e-01  0.000000e+00  0.000000e+00
     vertex  0.000000e+00  0.000000e+00  0.000000e+00
     vertex  3.031250e-01  1.850481e-01  0.000000e+00
   endloop
 endfacet
 facet normal  0.000000e+00 -0.000000e+00 -1.000000e+00
   outer loop
     vertex  2.656250e-01  2.500000e-01  0.000000e+00
     vertex  3.031250e-01  1.850481e-01  0.000000e+00
     vertex  0.000000e+00  0.000000e+00  0.000000e+00
   endloop
 endfacet
 facet normal  0.000000e+00 -0.000000e+00 -1.000000e+00
   outer loop
     vertex  1.019737e-01  4.316296e-01  0.000000e+00
     vertex  2.656250e-01  2.500000e-01  0.000000e+00
     vertex  0.000000e+00  0.000000e+00  0.000000e+00
   endloop
 endfacet
 facet normal  0.000000e+00 -0.000000e+00 -1.000000e+00
   outer loop
     vertex  6.250000e-02  5.000000e-01  0.000000e+00
     vertex  1.019737e-01  4.316296e-01  0.000000e+00
     vertex  0.000000e+00  0.000000e+00  0.000000e+00
   endloop
 endfacet
 facet normal -0.000000e+00 -0.000000e+00 -1.000000e+00
   outer loop
     vertex  3.781250e-01  1.850481e-01  0.000000e+00
     vertex  4.973684e-01  0.000000e+00  0.000000e+00
     vertex  3.031250e-01  1.850481e-01  0.000000e+00
   endloop
 endfacet
 facet normal -0.000000e+00 -0.000000e+00 -1.000000e+00
   outer loop
     vertex  1.809211e-01  4.316296e-01  0.000000e+00
     vertex  2.656250e-01  2.500000e-01  0.000000e+00
     vertex  1.019737e-01  4.316296e-01  0.000000e+00
   endloop
 endfacet
 facet normal -0.000000e+00  0.000000e+00 -1.000000e+00
   outer loop
     vertex  3.031250e-01  3.149519e-01  0.000000e+00
     vertex  2.656250e-01  2.500000e-01  0.000000e+00
     vertex  1.809211e-01  4.316296e-01  0.000000e+00
   endloop
 endfacet
 facet normal  0.000000e+00 -0.000000e+00 -1.000000e+00
   outer loop
     vertex  4.156250e-01  2.500000e-01  0.000000e+00
     vertex  4.973684e-01  0.000000e+00  0.000000e+00
     vertex  3.781250e-01  1.850481e-01  0.000000e+00
   endloop
 endfacet
 facet normal  0.000000e+00  0.000000e+00 -1.000000e+00
   outer loop
     vertex  2.203947e-01  5.000000e-01  0.000000e+00
     vertex  3.781250e-01  3.149519e-01  0.000000e+00
     vertex  3.031250e-01  3.149519e-01  0.000000e+00
   endloop
 endfacet
 facet normal  0.000000e+00 -0.000000e+00 -1.000000e+00
   outer loop
     vertex  2.203947e-01  5.000000e-01  0.000000e+00
     vertex  3.031250e-01  3.149519e-01  0.000000e+00
     vertex  1.809211e-01  4.316296e-01  0.000000e+00
   endloop
 endfacet
 facet normal  0.000000e+00  0.000000e+00 -1.000000e+00
   outer loop
     vertex  0.000000e+00  7.500000e-01  0.000000e+00
     vertex  1.809211e-01  5.683704e-01  0.000000e+00
     vertex  1.019737e-01  5.683704e-01  0.000000e+00
   endloop
 endfacet
 facet normal  0.000000e+00  0.000000e+00 -1.000000e+00
   outer loop
     vertex  0.000000e+00  7.500000e-01  0.000000e+00
     vertex  1.019737e-01  5.683704e-01  0.000000e+00
     vertex  6.250000e-02  5.000000e-01  0.000000e+00
   endloop
 endfacet
 facet normal  0.000000e+00  0.000000e+00 -1.000000e+00
   outer loop
     vertex  4.973684e-01  7.500000e-01  0.000000e+00
     vertex  4.156250e-01  2.500000e-01  0.000000e+00
     vertex  3.781250e-01  3.149519e-01  0.000000e+00
   endloop
 endfacet
 facet normal  0.000000e+00  0.000000e+00 -1.000000e+00
   outer loop
     vertex  4.973684e-01  7.500000e-01  0.000000e+00
     vertex  2.203947e-01  5.000000e-01  0.000000e+00
     vertex  1.809211e-01  5.683704e-01  0.000000e+00
   endloop
 endfacet
 facet normal  0.000000e+00 -0.000000e+00 -1.000000e+00
   outer loop
     vertex  4.973684e-01  7.500000e-01  0.000000e+00
     vertex  4.973684e-01  0.000000e+00  0.000000e+00
     vertex  4.156250e-01  2.500000e-01  0.000000e+00
   endloop
 endfacet
 facet normal -0.000000e+00  0.000000e+00 -1.000000e+00
   outer loop
     vertex  4.973684e-01  7.500000e-01  0.000000e+00
     vertex  1.809211e-01  5.683704e-01  0.000000e+00
     vertex  0.000000e+00  7.500000e-01  0.000000e+00
   endloop
 endfacet
 facet normal  0.000000e+00  0.000000e+00 -1.000000e+00
   outer loop
     vertex  4.973684e-01  7.500000e-01  0.000000e+00
     vertex  3.781250e-01  3.149519e-01  0.000000e+00
     vertex  2.203947e-01  5.000000e-01  0.000000e+00
   endloop
 endfacet
 facet normal  0.000000e+00  0.000000e+00 -1.000000e+00
   outer loop
     vertex  0.000000e+00  7.500000e-01  0.000000e+00
     vertex  6.250000e-02  5.000000e-01  0.000000e+00
     vertex  0.000000e+00  0.000000e+00  0.000000e+00
   endloop
 endfacet
 facet normal  0.000000e+00  0.000000e+00  1.000000e+00
   outer loop
     vertex  4.973684e-01  0.000000e+00  2.500000e-01
     vertex  3.031250e-01  1.850481e-01  2.500000e-01
     vertex  0.000000e+00  0.000000e+00  2.500000e-01
   endloop
 endfacet
 facet normal  0.000000e+00  0.000000e+00  1.000000e+00
   outer loop
     vertex  2.656250e-01  2.500000e-01  2.500000e-01
     vertex  0.000000e+00  0.000000e+00  2.500000e-01
     vertex  3.031250e-01  1.850481e-01  2.500000e-01
   endloop
 endfacet
 facet normal  0.000000e+00  0.000000e+00  1.000000e+00
   outer loop
     vertex  1.019737e-01  4.316296e-01  2.500000e-01
     vertex  0.000000e+00  0.000000e+00  2.500000e-01
     vertex  2.656250e-01  2.500000e-01  2.500000e-01
   endloop
 endfacet
 facet normal  0.000000e+00  0.000000e+00  1.000000e+00
   outer loop
     vertex  6.250000e-02  5.000000e-01  2.500000e-01
     vertex  0.000000e+00  0.000000e+00  2.500000e-01
     vertex  1.019737e-01  4.316296e-01  2.500000e-01
   endloop
 endfacet
 facet normal  0.000000e+00  0.000000e+00  1.000000e+00
   outer loop
     vertex  3.781250e-01  1.850481e-01  2.500000e-01
     vertex  3.031250e-01  1.850481e-01  2.500000e-01
     vertex  4.973684e-01  0.000000e+00  2.500000e-01
   endloop
 endfacet
 facet normal  0.000000e+00  0.000000e+00  1.000000e+00
   outer loop
     vertex  1.809211e-01  4.316296e-01  2.500000e-01
     vertex  1.019737e-01  4.316296e-01  2.500000e-01
     vertex  2.656250e-01  2.500000e-01  2.500000e-01
   endloop
 endfacet
 facet normal  0.000000e+00  0.000000e+00  1.000000e+00
   outer loop
     vertex  3.031250e-01  3.149519e-01  2.500000e-01
     vertex  1.809211e-01  4.316296e-01  2.500000e-01
     vertex  2.656250e-01  2.500000e-01  2.500000e-01
   endloop
 endfacet
 facet normal  0.000000e+00  0.000000e+00  1.000000e+00
   outer loop
     vertex  4.156250e-01  2.500000e-01  2.500000e-01
     vertex  3.781250e-01  1.850481e-01  2.500000e-01
     vertex  4.973684e-01  0.000000e+00  2.500000e-01
   endloop
 endfacet
 facet normal  0.000000e+00  0.000000e+00  1.000000e+00
   outer loop
     vertex  2.203947e-01  5.000000e-01  2.500000e-01
     vertex  3.031250e-01  3.149519e-01  2.500000e-01
     vertex  3.781250e-01  3.149519e-01  2.500000e-01
   endloop
 endfacet
 facet normal  0.000000e+00  0.000000e+00  1.000000e+00
   outer loop
     vertex  2.203947e-01  5.000000e-01  2.500000e-01
     vertex  1.809211e-01  4.316296e-01  2.500000e-01
     vertex  3.031250e-01  3.149519e-01  2.500000e-01
   endloop
 endfacet
 facet normal  0.000000e+00  0.000000e+00  1.000000e+00
   outer loop
     vertex  0.000000e+00  7.500000e-01  2.500000e-01
     vertex  1.019737e-01  5.683704e-01  2.500000e-01
     vertex  1.809211e-01  5.683704e-01  2.500000e-01
   endloop
 endfacet
 facet normal  0.000000e+00  0.000000e+00  1.000000e+00
   outer loop
     vertex  0.000000e+00  7.500000e-01  2.500000e-01
     vertex  6.250000e-02  5.000000e-01  2.500000e-01
     vertex  1.019737e-01  5.683704e-01  2.500000e-01
   endloop
 endfacet
 facet normal  0.000000e+00  0.000000e+00  1.000000e+00
   outer loop
     vertex  4.973684e-01  7.500000e-01  2.500000e-01
     vertex  3.781250e-01  3.149519e-01  2.500000e-01
     vertex  4.156250e-01  2.500000e-01  2.500000e-01
   endloop
 endfacet
 facet normal  0.000000e+00  0.000000e+00  1.000000e+00
   outer loop
     vertex  4.973684e-01  7.500000e-01  2.500000e-01
     vertex  1.809211e-01  5.683704e-01  2.500000e-01
     vertex  2.203947e-01  5.000000e-01  2.500000e-01
   endloop
 endfacet
 facet normal  0.000000e+00  0.000000e+00  1.000000e+00
   outer loop
     vertex  4.973684e-01  7.500000e-01  2.500000e-01
     vertex  4.156250e-01  2.500000e-01  2.500000e-01
     vertex  4.973684e-01  0.000000e+00  2.500000e-01
   endloop
 endfacet
 facet normal  0.000000e+00  0.000000e+00  1.000000e+00
   outer loop
     vertex  4.973684e-01  7.500000e-01  2.500000e-01
     vertex  0.000000e+00  7.500000e-01  2.500000e-01
     vertex  1.809211e-01  5.683704e-01  2.500000e-01
   endloop
 endfacet
 facet normal  0.000000e+00  0.000000e+00  1.000000e+00
   outer loop
     vertex  4.973684e-01  7.500000e-01  2.500000e-01
     vertex  2.203947e-01  5.000000e-01  2.500000e-01
     vertex  3.781250e-01  3.149519e-01  2.500000e-01
   endloop
 endfacet
 facet normal  0.000000e+00  0.000000e+00  1.000000e+00
   outer loop
     vertex  0.000000e+00  7.500000e-01  2.500000e-01
     vertex  0.000000e+00  0.000000e+00  2.500000e-01
     vertex  6.250000e-02  5.000000e-01  2.500000e-01
   endloop
 endfacet
 facet normal  0.000000e+00  1.000000e+00  0.000000e+00
   outer loop
     vertex  0.000000e+00  7.500000e-01  0.000000e+00
     vertex  4.973684e-01  7.500000e-01  2.500000e-01
     vertex  4.973684e-01  7.500000e-01  0.000000e+00
   endloop
 endfacet
 facet normal  0.000000e+00  1.000000e+00  0.000000e+00
   outer loop
     vertex  0.000000e+00  7.500000e-01  0.000000e+00
     vertex  0.000000e+00  7.500000e-01  2.500000e-01
     vertex  4.973684e-01  7.500000e-01  2.500000e-01
   endloop
 endfacet
 facet normal -8.660254e-01 -5.000000e-01  0.000000e+00
   outer loop
     vertex  3.781250e-01  3.149519e-01  2.500000e-01
     vertex  4.156250e-01  2.500000e-01  0.000000e+00
     vertex  4.156250e-01  2.500000e-01  2.500000e-01
   endloop
 endfacet
 facet normal -8.660254e-01 -5.000000e-01 -0.000000e+00
   outer loop
     vertex  3.781250e-01  3.149519e-01  2.500000e-01
     vertex  3.781250e-01  3.149519e-01  0.000000e+00
     vertex  4.156250e-01  2.500000e-01  0.000000e+00
   endloop
 endfacet
 facet normal  0.000000e+00 -1.000000e+00  0.000000e+00
   outer loop
     vertex  3.031250e-01  3.149519e-01  2.500000e-01
     vertex  3.031250e-01  3.149519e-01  0.000000e+00
     vertex  3.781250e-01  3.149519e-01  0.000000e+00
   endloop
 endfacet
 facet normal  0.000000e+00 -1.000000e+00  0.000000e+00
   outer loop
     vertex  3.031250e-01  3.149519e-01  2.500000e-01
     vertex  3.781250e-01  3.149519e-01  0.000000e+00
     vertex  3.781250e-01  3.149519e-01  2.500000e-01
   endloop
 endfacet
 facet normal  8.660254e-01 -5.000000e-01  0.000000e+00
   outer loop
     vertex  2.656250e-01  2.500000e-01  2.500000e-01
     vertex  2.656250e-01  2.500000e-01  0.000000e+00
     vertex  3.031250e-01  3.149519e-01  0.000000e+00
   endloop
 endfacet
 facet normal  8.660254e-01 -5.000000e-01  0.000000e+00
   outer loop
     vertex  2.656250e-01  2.500000e-01  2.500000e-01
     vertex  3.031250e-01  3.149519e-01  0.000000e+00
     vertex  3.031250e-01  3.149519e-01  2.500000e-01
   endloop
 endfacet
 facet normal  8.660254e-01  5.000000e-01  0.000000e+00
   outer loop
     vertex  3.031250e-01  1.850481e-01  2.500000e-01
     vertex  3.031250e-01  1.850481e-01  0.000000e+00
     vertex  2.656250e-01  2.500000e-01  0.000000e+00
   endloop
 endfacet
 facet normal  8.660254e-01  5.000000e-01  0.000000e+00
   outer loop
     vertex  3.031250e-01  1.850481e-01  2.500000e-01
     vertex  2.656250e-01  2.500000e-01  0.000000e+00
     vertex  2.656250e-01  2.500000e-01  2.500000e-01
   endloop
 endfacet
 facet normal  7.401487e-16  1.000000e+00  0.000000e+00
   outer loop
     vertex  3.781250e-01  1.850481e-01  2.500000e-01
     vertex  3.781250e-01  1.850481e-01  0.000000e+00
     vertex  3.031250e-01  1.850481e-01  0.000000e+00
   endloop
 endfacet
 facet normal  7.401487e-16  1.000000e+00  0.000000e+00
   outer loop
     vertex  3.781250e-01  1.850481e-01  2.500000e-01
     vertex  3.031250e-01  1.850481e-01  0.000000e+00
     vertex  3.031250e-01  1.850481e-01  2.500000e-01
   endloop
 endfacet
 facet normal -8.660254e-01  5.000000e-01  0.000000e+00
   outer loop
     vertex  4.156250e-01  2.500000e-01  2.500000e-01
     vertex  4.156250e-01  2.500000e-01  0.000000e+00
     vertex  3.781250e-01  1.850481e-01  0.000000e+00
   endloop
 endfacet
 facet normal -8.660254e-01  5.000000e-01  0.000000e+00
   outer loop
     vertex  4.156250e-01  2.500000e-01  2.500000e-01
     vertex  3.781250e-01  1.850481e-01  0.000000e+00
     vertex  3.781250e-01  1.850481e-01  2.500000e-01
   endloop
 endfacet
 facet normal -8.660254e-01 -5.000000e-01  0.000000e+00
   outer loop
     vertex  1.809211e-01  5.683704e-01  2.500000e-01
     vertex  2.203947e-01  5.000000e-01  0.000000e+00
     vertex  2.203947e-01  5.000000e-01  2.500000e-01
   endloop
 endfacet
 facet normal -8.660254e-01 -5.000000e-01 -0.000000e+00
   outer loop
     vertex  1.809211e-01  5.683704e-01  2.500000e-01
     vertex  1.809211e-01  5.683704e-01  0.000000e+00
     vertex  2.203947e-01  5.000000e-01  0.000000e+00
   endloop
 endfacet
 facet normal -1.406282e-15 -1.000000e+00 -0.000000e+00
   outer loop
     vertex  1.019737e-01  5.683704e-01  2.500000e-01
     vertex  1.019737e-01  5.683704e-01  0.000000e+00
     vertex  1.809211e-01  5.683704e-01  0.000000e+00
   endloop
 endfacet
 facet normal -1.406282e-15 -1.000000e+00  0.000000e+00
   outer loop
     vertex  1.019737e-01  5.683704e-01  2.500000e-01
     vertex  1.809211e-01  5.683704e-01  0.000000e+00
     vertex  1.809211e-01  5.683704e-01  2.500000e-01
   endloop
 endfacet
 facet normal  8.660254e-01 -5.000000e-01  0.000000e+00
   outer loop
     vertex  6.250000e-02  5.000000e-01  2.500000e-01
     vertex  6.250000e-02  5.000000e-01  0.000000e+00
     vertex  1.019737e-01  5.683704e-01  0.000000e+00
   endloop
 endfacet
 facet normal  8.660254e-01 -5.000000e-01  0.000000e+00
   outer loop
     vertex  6.250000e-02  5.000000e-01  2.500000e-01
     vertex  1.019737e-01  5.683704e-01  0.000000e+00
     vertex  1.019737e-01  5.683704e-01  2.500000e-01
   endloop
 endfacet
 facet normal  8.660254e-01  5.000000e-01  0.000000e+00
   outer loop
     vertex  1.019737e-01  4.316296e-01  2.500000e-01
     vertex  1.019737e-01  4.316296e-01  0.000000e+00
     vertex  6.250000e-02  5.000000e-01  0.000000e+00
   endloop
 endfacet
 facet normal  8.660254e-01  5.000000e-01  0.000000e+00
   outer loop
     vertex  1.019737e-01  4.316296e-01  2.500000e-01
     vertex  6.250000e-02  5.000000e-01  0.000000e+00
     vertex  6.250000e-02  5.000000e-01  2.500000e-01
   endloop
 endfacet
 facet normal  7.031412e-16  1.000000e+00  0.000000e+00
   outer loop
     vertex  1.809211e-01  4.316296e-01  2.500000e-01
     vertex  1.809211e-01  4.316296e-01  0.000000e+00
     vertex  1.019737e-01  4.316296e-01  0.000000e+00
   endloop
 endfacet
 facet normal  7.031412e-16  1.000000e+00  0.000000e+00
   outer loop
     vertex  1.809211e-01  4.316296e-01  2.500000e-01
     vertex  1.019737e-01  4.316296e-01  0.000000e+00
     vertex  1.019737e-01  4.316296e-01  2.500000e-01
   endloop
 endfacet
 facet normal -8.660254e-01  5.000000e-01  0.000000e+00
   outer loop
     vertex  2.203947e-01  5.000000e-01  2.500000e-01
     vertex  2.203947e-01  5.000000e-01  0.000000e+00
     vertex  1.809211e-01  4.316296e-01  0.000000e+00
   endloop
 endfacet
 facet normal -8.660254e-01  5.000000e-01  0.000000e+00
   outer loop
     vertex  2.203947e-01  5.000000e-01  2.500000e-01
     vertex  1.809211e-01  4.316296e-01  0.000000e+00
     vertex  1.809211e-01  4.316296e-01  2.500000e-01
   endloop
 endfacet
endsolid
