solid 
 facet normal  0.000000e+00  0.000000e+00 -1.000000e+00
   outer loop
     vertex  6.015625e-01  6.984314e-17 -5.937500e-01
     vertex -5.390625e-01 -7.500000e-01 -5.937500e-01
     vertex -5.390625e-01  0.000000e+00 -5.937500e-01
   endloop
 endfacet
 facet normal  0.000000e+00 -0.000000e+00 -1.000000e+00
   outer loop
     vertex  6.015625e-01  6.984314e-17 -5.937500e-01
     vertex  6.015625e-01 -7.500000e-01 -5.937500e-01
     vertex -5.390625e-01 -7.500000e-01 -5.937500e-01
   endloop
 endfacet
 facet normal  1.000000e+00  0.000000e+00  0.000000e+00
   outer loop
     vertex  6.015625e-01  1.198361e-16  2.226974e-01
     vertex  6.015625e-01 -7.500000e-01 -5.937500e-01
     vertex  6.015625e-01  6.984314e-17 -5.937500e-01
   endloop
 endfacet
 facet normal  1.000000e+00  0.000000e+00  0.000000e+00
   outer loop
     vertex  6.015625e-01  1.198361e-16  2.226974e-01
     vertex  6.015625e-01 -7.500000e-01  2.226974e-01
     vertex  6.015625e-01 -7.500000e-01 -5.937500e-01
   endloop
 endfacet
 facet normal -0.000000e+00  0.000000e+00  1.000000e+00
   outer loop
     vertex -5.390625e-01  4.999298e-17  2.226974e-01
     vertex  6.015625e-01 -7.500000e-01  2.226974e-01
     vertex  6.015625e-01  1.198361e-16  2.226974e-01
   endloop
 endfacet
 facet normal  0.000000e+00  0.000000e+00  1.000000e+00
   outer loop
     vertex -5.390625e-01  4.999298e-17  2.226974e-01
     vertex -5.390625e-01 -7.500000e-01  2.226974e-01
     vertex  6.015625e-01 -7.500000e-01  2.226974e-01
   endloop
 endfacet
 facet normal -1.000000e+00  0.000000e+00  0.000000e+00
   outer loop
     vertex -5.390625e-01  0.000000e+00 -5.937500e-01
     vertex -5.390625e-01 -7.500000e-01  2.226974e-01
     vertex -5.390625e-01  4.999298e-17  2.226974e-01
   endloop
 endfacet
 facet normal -1.000000e+00  0.000000e+00  0.000000e+00
   outer loop
     vertex -5.390625e-01  0.000000e+00 -5.937500e-01
     vertex -5.390625e-01 -7.500000e-01 -5.937500e-01
     vertex -5.390625e-01 -7.500000e-01  2.226974e-01
   endloop
 endfacet
 facet normal  0.000000e+00  0.000000e+00  1.000000e+00
   outer loop
     vertex  5.655428e-01  6.984314e-17 -5.577303e-01
     vertex -5.030428e-01  4.411146e-18 -5.577303e-01
     vertex -5.030428e-01 -7.500000e-01 -5.577303e-01
   endloop
 endfacet
 facet normal  0.000000e+00  0.000000e+00  1.000000e+00
   outer loop
     vertex  5.655428e-01  6.984314e-17 -5.577303e-01
     vertex -5.030428e-01 -7.500000e-01 -5.577303e-01
     vertex  5.655428e-01 -7.500000e-01 -5.577303e-01
   endloop
 endfacet
 facet normal -1.000000e+00  0.000000e+00  0.000000e+00
   outer loop
     vertex  5.655428e-01  1.154250e-16  1.866776e-01
     vertex  5.655428e-01  6.984314e-17 -5.577303e-01
     vertex  5.655428e-01 -7.500000e-01 -5.577303e-01
   endloop
 endfacet
 facet normal -1.000000e+00 -0.000000e+00  0.000000e+00
   outer loop
     vertex  5.655428e-01  1.154250e-16  1.866776e-01
     vertex  5.655428e-01 -7.500000e-01 -5.577303e-01
     vertex  5.655428e-01 -7.500000e-01  1.866776e-01
   endloop
 endfacet
 facet normal  0.000000e+00  0.000000e+00 -1.000000e+00
   outer loop
     vertex -5.030428e-01  4.999298e-17  1.866776e-01
     vertex  5.655428e-01  1.154250e-16  1.866776e-01
     vertex  5.655428e-01 -7.500000e-01  1.866776e-01
   endloop
 endfacet
 facet normal  0.000000e+00  0.000000e+00 -1.000000e+00
   outer loop
     vertex -5.030428e-01  4.999298e-17  1.866776e-01
     vertex  5.655428e-01 -7.500000e-01  1.866776e-01
     vertex -5.030428e-01 -7.500000e-01  1.866776e-01
   endloop
 endfacet
 facet normal  1.000000e+00  0.000000e+00 -0.000000e+00
   outer loop
     vertex -5.030428e-01  4.411146e-18 -5.577303e-01
     vertex -5.030428e-01  4.999298e-17  1.866776e-01
     vertex -5.030428e-01 -7.500000e-01  1.866776e-01
   endloop
 endfacet
 facet normal  1.000000e+00  0.000000e+00  0.000000e+00
   outer loop
     vertex -5.030428e-01  4.411146e-18 -5.577303e-01
     vertex -5.030428e-01 -7.500000e-01  1.866776e-01
     vertex -5.030428e-01 -7.500000e-01 -5.577303e-01
   endloop
 endfacet
 facet normal -6.123234e-17  1.000000e+00 -6.123234e-17
   outer loop
     vertex -5.030428e-01  4.999298e-17  1.866776e-01
     vertex -5.390625e-01  0.000000e+00 -5.937500e-01
     vertex -5.390625e-01  4.999298e-17  2.226974e-01
   endloop
 endfacet
 facet normal -6.123234e-17  1.000000e+00 -6.123234e-17
   outer loop
     vertex -5.030428e-01  4.999298e-17  1.866776e-01
     vertex -5.030428e-01  4.411146e-18 -5.577303e-01
     vertex -5.390625e-01  0.000000e+00 -5.937500e-01
   endloop
 endfacet
 facet normal -6.123234e-17  1.000000e+00 -6.123234e-17
   outer loop
     vertex  5.655428e-01  6.984314e-17 -5.577303e-01
     vertex  6.015625e-01  6.984314e-17 -5.937500e-01
     vertex -5.390625e-01  0.000000e+00 -5.937500e-01
   endloop
 endfacet
 facet normal -6.123234e-17  1.000000e+00 -6.123234e-17
   outer loop
     vertex  5.655428e-01  6.984314e-17 -5.577303e-01
     vertex -5.390625e-01  0.000000e+00 -5.937500e-01
     vertex -5.030428e-01  4.411146e-18 -5.577303e-01
   endloop
 endfacet
 facet normal -6.123234e-17  1.000000e+00 -6.123234e-17
   outer loop
     vertex  6.015625e-01  1.198361e-16  2.226974e-01
     vertex  5.655428e-01  6.984314e-17 -5.577303e-01
     vertex  5.655428e-01  1.154250e-16  1.866776e-01
   endloop
 endfacet
 facet normal -6.123234e-17  1.000000e+00 -6.123234e-17
   outer loop
     vertex  6.015625e-01  1.198361e-16  2.226974e-01
     vertex  6.015625e-01  6.984314e-17 -5.937500e-01
     vertex  5.655428e-01  6.984314e-17 -5.577303e-01
   endloop
 endfacet
 facet normal -6.123234e-17  1.000000e+00 -6.123234e-17
   outer loop
     vertex  6.015625e-01  1.198361e-16  2.226974e-01
     vertex -5.030428e-01  4.999298e-17  1.866776e-01
     vertex -5.390625e-01  4.999298e-17  2.226974e-01
   endloop
 endfacet
 facet normal -6.123234e-17  1.000000e+00 -6.123234e-17
   outer loop
     vertex  6.015625e-01  1.198361e-16  2.226974e-01
     vertex  5.655428e-01  1.154250e-16  1.866776e-01
     vertex -5.030428e-01  4.999298e-17  1.866776e-01
   endloop
 endfacet
 facet normal -0.000000e+00 -1.000000e+00  0.000000e+00
   outer loop
     vertex -5.030428e-01 -7.500000e-01  1.866776e-01
     vertex -5.390625e-01 -7.500000e-01  2.226974e-01
     vertex -5.390625e-01 -7.500000e-01 -5.937500e-01
   endloop
 endfacet
 facet normal  0.000000e+00 -1.000000e+00 -0.000000e+00
   outer loop
     vertex -5.030428e-01 -7.500000e-01  1.866776e-01
     vertex -5.390625e-01 -7.500000e-01 -5.937500e-01
     vertex -5.030428e-01 -7.500000e-01 -5.577303e-01
   endloop
 endfacet
 facet normal  0.000000e+00 -1.000000e+00 -0.000000e+00
   outer loop
     vertex  5.655428e-01 -7.500000e-01 -5.577303e-01
     vertex -5.390625e-01 -7.500000e-01 -5.937500e-01
     vertex  6.015625e-01 -7.500000e-01 -5.937500e-01
   endloop
 endfacet
 facet normal -0.000000e+00 -1.000000e+00  0.000000e+00
   outer loop
     vertex  5.655428e-01 -7.500000e-01 -5.577303e-01
     vertex -5.030428e-01 -7.500000e-01 -5.577303e-01
     vertex -5.390625e-01 -7.500000e-01 -5.937500e-01
   endloop
 endfacet
 facet normal  0.000000e+00 -1.000000e+00  0.000000e+00
   outer loop
     vertex  6.015625e-01 -7.500000e-01  2.226974e-01
     vertex  5.655428e-01 -7.500000e-01  1.866776e-01
     vertex  5.655428e-01 -7.500000e-01 -5.577303e-01
   endloop
 endfacet
 facet normal  0.000000e+00 -1.000000e+00 -0.000000e+00
   outer loop
     vertex  6.015625e-01 -7.500000e-01  2.226974e-01
     vertex  5.655428e-01 -7.500000e-01 -5.577303e-01
     vertex  6.015625e-01 -7.500000e-01 -5.937500e-01
   endloop
 endfacet
 facet normal -0.000000e+00 -1.000000e+00  0.000000e+00
   outer loop
     vertex  6.015625e-01 -7.500000e-01  2.226974e-01
     vertex -5.390625e-01 -7.500000e-01  2.226974e-01
     vertex -5.030428e-01 -7.500000e-01  1.866776e-01
   endloop
 endfacet
 facet normal  0.000000e+00 -1.000000e+00  0.000000e+00
   outer loop
     vertex  6.015625e-01 -7.500000e-01  2.226974e-01
     vertex -5.030428e-01 -7.500000e-01  1.866776e-01
     vertex  5.655428e-01 -7.500000e-01  1.866776e-01
   endloop
 endfacet
endsolid
