solid 
 facet normal -2.452835e-01 -0.000000e+00 -9.694514e-01
   outer loop
     vertex -5.847039e-01 -1.087680e-17  1.644737e-02
     vertex -5.847039e-01 -4.218750e-01  1.644737e-02
     vertex -6.628116e-01 -4.218750e-01  3.620961e-02
   endloop
 endfacet
 facet normal -2.452835e-01 -0.000000e+00 -9.694514e-01
   outer loop
     vertex -6.628116e-01 -1.444943e-17  3.620961e-02
     vertex -5.847039e-01 -1.087680e-17  1.644737e-02
     vertex -6.628116e-01 -4.218750e-01  3.620961e-02
   endloop
 endfacet
 facet normal -6.586710e-01 -0.000000e+00 -7.524311e-01
   outer loop
     vertex -7.234343e-01 -1.491199e-17  8.927805e-02
     vertex -6.628116e-01 -4.218750e-01  3.620961e-02
     vertex -7.234343e-01 -4.218750e-01  8.927805e-02
   endloop
 endfacet
 facet normal -6.586710e-01  0.000000e+00 -7.524311e-01
   outer loop
     vertex -7.234343e-01 -1.491199e-17  8.927805e-02
     vertex -6.628116e-01 -1.444943e-17  3.620961e-02
     vertex -6.628116e-01 -4.218750e-01  3.620961e-02
   endloop
 endfacet
 facet normal -9.284767e-01 -0.000000e+00 -3.713907e-01
   outer loop
     vertex -7.533568e-01 -1.216364e-17  1.640845e-01
     vertex -7.234343e-01 -4.218750e-01  8.927805e-02
     vertex -7.533568e-01 -4.218750e-01  1.640845e-01
   endloop
 endfacet
 facet normal -9.284767e-01  0.000000e+00 -3.713907e-01
   outer loop
     vertex -7.533568e-01 -1.216364e-17  1.640845e-01
     vertex -7.234343e-01 -1.491199e-17  8.927805e-02
     vertex -7.234343e-01 -4.218750e-01  8.927805e-02
   endloop
 endfacet
 facet normal -9.958866e-01  0.000000e+00  9.060808e-02
   outer loop
     vertex -7.460566e-01 -6.803500e-18  2.443220e-01
     vertex -7.533568e-01 -4.218750e-01  1.640845e-01
     vertex -7.460566e-01 -4.218750e-01  2.443220e-01
   endloop
 endfacet
 facet normal -9.958866e-01  0.000000e+00  9.060808e-02
   outer loop
     vertex -7.460566e-01 -6.803500e-18  2.443220e-01
     vertex -7.533568e-01 -1.216364e-17  1.640845e-01
     vertex -7.533568e-01 -4.218750e-01  1.640845e-01
   endloop
 endfacet
 facet normal -8.462063e-01  0.000000e+00  5.328555e-01
   outer loop
     vertex -7.031250e-01  4.116675e-33  3.125000e-01
     vertex -7.460566e-01 -4.218750e-01  2.443220e-01
     vertex -7.031250e-01 -4.218750e-01  3.125000e-01
   endloop
 endfacet
 facet normal -8.462063e-01  0.000000e+00  5.328555e-01
   outer loop
     vertex -7.031250e-01  4.116675e-33  3.125000e-01
     vertex -7.460566e-01 -6.803500e-18  2.443220e-01
     vertex -7.460566e-01 -4.218750e-01  2.443220e-01
   endloop
 endfacet
 facet normal  0.000000e+00  0.000000e+00 -1.000000e+00
   outer loop
     vertex -8.141447e-02  1.994079e-17  1.644737e-02
     vertex -5.847039e-01 -4.218750e-01  1.644737e-02
     vertex -5.847039e-01 -1.087680e-17  1.644737e-02
   endloop
 endfacet
 facet normal  0.000000e+00 -0.000000e+00 -1.000000e+00
   outer loop
     vertex -8.141447e-02  1.994079e-17  1.644737e-02
     vertex -8.141447e-02 -4.218750e-01  1.644737e-02
     vertex -5.847039e-01 -4.218750e-01  1.644737e-02
   endloop
 endfacet
 facet normal  9.997372e-01  6.143650e-17  2.292302e-02
   outer loop
     vertex  1.294510e-03  2.925265e-17  8.581250e-02
     vertex  6.938894e-17  3.263039e-17  1.422697e-01
     vertex  9.522134e-17 -4.218750e-01  1.422697e-01
   endloop
 endfacet
 facet normal  9.997372e-01  0.000000e+00  2.292302e-02
   outer loop
     vertex  1.294510e-03  2.925265e-17  8.581250e-02
     vertex  9.522134e-17 -4.218750e-01  1.422697e-01
     vertex  1.294510e-03 -4.218750e-01  8.581250e-02
   endloop
 endfacet
 facet normal  8.395702e-01  0.000000e+00 -5.432513e-01
   outer loop
     vertex -2.938402e-02  2.447097e-17  3.840022e-02
     vertex  1.294510e-03 -4.218750e-01  8.581250e-02
     vertex -2.938402e-02 -4.218750e-01  3.840022e-02
   endloop
 endfacet
 facet normal  8.395702e-01  0.000000e+00 -5.432513e-01
   outer loop
     vertex -2.938402e-02  2.447097e-17  3.840022e-02
     vertex  1.294510e-03  2.925265e-17  8.581250e-02
     vertex  1.294510e-03 -4.218750e-01  8.581250e-02
   endloop
 endfacet
 facet normal  3.887382e-01  0.000000e+00 -9.213483e-01
   outer loop
     vertex -8.141447e-02  1.994079e-17  1.644737e-02
     vertex -2.938402e-02 -4.218750e-01  3.840022e-02
     vertex -8.141447e-02 -4.218750e-01  1.644737e-02
   endloop
 endfacet
 facet normal  3.887382e-01  0.000000e+00 -9.213483e-01
   outer loop
     vertex -8.141447e-02  1.994079e-17  1.644737e-02
     vertex -2.938402e-02  2.447097e-17  3.840022e-02
     vertex -2.938402e-02 -4.218750e-01  3.840022e-02
   endloop
 endfacet
 facet normal -6.773931e-01  0.000000e+00  7.356212e-01
   outer loop
     vertex -6.301936e-01  8.578034e-18  3.796585e-01
     vertex -7.031250e-01  4.116675e-33  3.125000e-01
     vertex -7.031250e-01 -4.218750e-01  3.125000e-01
   endloop
 endfacet
 facet normal -6.773931e-01  0.000000e+00  7.356212e-01
   outer loop
     vertex -6.301936e-01  8.578034e-18  3.796585e-01
     vertex -7.031250e-01 -4.218750e-01  3.125000e-01
     vertex -6.301936e-01 -4.218750e-01  3.796585e-01
   endloop
 endfacet
 facet normal -4.783511e-01  0.000000e+00  8.781687e-01
   outer loop
     vertex -5.431297e-01  1.681310e-17  4.270835e-01
     vertex -6.301936e-01 -4.218750e-01  3.796585e-01
     vertex -5.431297e-01 -4.218750e-01  4.270835e-01
   endloop
 endfacet
 facet normal -4.783511e-01  0.000000e+00  8.781687e-01
   outer loop
     vertex -5.431297e-01  1.681310e-17  4.270835e-01
     vertex -6.301936e-01  8.578034e-18  3.796585e-01
     vertex -6.301936e-01 -4.218750e-01  3.796585e-01
   endloop
 endfacet
 facet normal -2.506380e-01  0.000000e+00  9.680809e-01
   outer loop
     vertex -4.471516e-01  2.421162e-17  4.519324e-01
     vertex -5.431297e-01 -4.218750e-01  4.270835e-01
     vertex -4.471516e-01 -4.218750e-01  4.519324e-01
   endloop
 endfacet
 facet normal -2.506380e-01  0.000000e+00  9.680809e-01
   outer loop
     vertex -4.471516e-01  2.421162e-17  4.519324e-01
     vertex -5.431297e-01  1.681310e-17  4.270835e-01
     vertex -5.431297e-01 -4.218750e-01  4.270835e-01
   endloop
 endfacet
 facet normal -7.902212e-03  0.000000e+00  9.999688e-01
   outer loop
     vertex -3.480121e-01  3.033014e-17  4.527158e-01
     vertex -4.471516e-01 -4.218750e-01  4.519324e-01
     vertex -3.480121e-01 -4.218750e-01  4.527158e-01
   endloop
 endfacet
 facet normal -7.902212e-03  0.000000e+00  9.999688e-01
   outer loop
     vertex -3.480121e-01  3.033014e-17  4.527158e-01
     vertex -4.471516e-01  2.421162e-17  4.519324e-01
     vertex -4.471516e-01 -4.218750e-01  4.519324e-01
   endloop
 endfacet
 facet normal  2.353072e-01  0.000000e+00  9.719210e-01
   outer loop
     vertex -2.516533e-01  3.480192e-17  4.293869e-01
     vertex -3.480121e-01 -4.218750e-01  4.527158e-01
     vertex -2.516533e-01 -4.218750e-01  4.293869e-01
   endloop
 endfacet
 facet normal  2.353072e-01  0.000000e+00  9.719210e-01
   outer loop
     vertex -2.516533e-01  3.480192e-17  4.293869e-01
     vertex -3.480121e-01  3.033014e-17  4.527158e-01
     vertex -3.480121e-01 -4.218750e-01  4.527158e-01
   endloop
 endfacet
 facet normal  4.644129e-01  0.000000e+00  8.856188e-01
   outer loop
     vertex -1.638508e-01  3.735895e-17  3.833438e-01
     vertex -2.516533e-01 -4.218750e-01  4.293869e-01
     vertex -1.638508e-01 -4.218750e-01  3.833438e-01
   endloop
 endfacet
 facet normal  4.644129e-01  0.000000e+00  8.856188e-01
   outer loop
     vertex -1.638508e-01  3.735895e-17  3.833438e-01
     vertex -2.516533e-01  3.480192e-17  4.293869e-01
     vertex -2.516533e-01 -4.218750e-01  4.293869e-01
   endloop
 endfacet
 facet normal  6.656828e-01  0.000000e+00  7.462348e-01
   outer loop
     vertex -8.986711e-02  3.784796e-17  3.173462e-01
     vertex -1.638508e-01 -4.218750e-01  3.833438e-01
     vertex -8.986711e-02 -4.218750e-01  3.173462e-01
   endloop
 endfacet
 facet normal  6.656828e-01  0.000000e+00  7.462348e-01
   outer loop
     vertex -8.986711e-02  3.784796e-17  3.173462e-01
     vertex -1.638508e-01  3.735895e-17  3.833438e-01
     vertex -1.638508e-01 -4.218750e-01  3.833438e-01
   endloop
 endfacet
 facet normal  8.270534e-01  0.000000e+00  5.621233e-01
   outer loop
     vertex -3.413674e-02  3.623964e-17  2.353500e-01
     vertex -8.986711e-02 -4.218750e-01  3.173462e-01
     vertex -3.413674e-02 -4.218750e-01  2.353500e-01
   endloop
 endfacet
 facet normal  8.270534e-01  0.000000e+00  5.621233e-01
   outer loop
     vertex -3.413674e-02  3.623964e-17  2.353500e-01
     vertex -8.986711e-02  3.784796e-17  3.173462e-01
     vertex -8.986711e-02 -4.218750e-01  3.173462e-01
   endloop
 endfacet
 facet normal  9.388525e-01  5.748813e-17  3.443196e-01
   outer loop
     vertex  6.938894e-17  3.263039e-17  1.422697e-01
     vertex -3.413674e-02 -4.218750e-01  2.353500e-01
     vertex  9.522134e-17 -4.218750e-01  1.422697e-01
   endloop
 endfacet
 facet normal  9.388525e-01  0.000000e+00  3.443196e-01
   outer loop
     vertex  6.938894e-17  3.263039e-17  1.422697e-01
     vertex -3.413674e-02  3.623964e-17  2.353500e-01
     vertex -3.413674e-02 -4.218750e-01  2.353500e-01
   endloop
 endfacet
 facet normal -6.123234e-17  1.000000e+00 -6.123234e-17
   outer loop
     vertex -5.847039e-01 -1.087680e-17  1.644737e-02
     vertex -6.628116e-01 -1.444943e-17  3.620961e-02
     vertex -7.234343e-01 -1.491199e-17  8.927805e-02
   endloop
 endfacet
 facet normal -6.123234e-17  1.000000e+00 -6.123234e-17
   outer loop
     vertex -7.031250e-01  4.116675e-33  3.125000e-01
     vertex -7.533568e-01 -1.216364e-17  1.640845e-01
     vertex -7.460566e-01 -6.803500e-18  2.443220e-01
   endloop
 endfacet
 facet normal -6.123234e-17  1.000000e+00 -6.123234e-17
   outer loop
     vertex -7.031250e-01  4.116675e-33  3.125000e-01
     vertex -7.234343e-01 -1.491199e-17  8.927805e-02
     vertex -7.533568e-01 -1.216364e-17  1.640845e-01
   endloop
 endfacet
 facet normal -6.123234e-17  1.000000e+00 -6.123234e-17
   outer loop
     vertex -7.031250e-01  4.116675e-33  3.125000e-01
     vertex -5.847039e-01 -1.087680e-17  1.644737e-02
     vertex -7.234343e-01 -1.491199e-17  8.927805e-02
   endloop
 endfacet
 facet normal -6.123234e-17  1.000000e+00 -6.123234e-17
   outer loop
     vertex -6.301936e-01  8.578034e-18  3.796585e-01
     vertex -5.847039e-01 -1.087680e-17  1.644737e-02
     vertex -7.031250e-01  4.116675e-33  3.125000e-01
   endloop
 endfacet
 facet normal -6.123234e-17  1.000000e+00 -6.123234e-17
   outer loop
     vertex -5.431297e-01  1.681310e-17  4.270835e-01
     vertex -5.847039e-01 -1.087680e-17  1.644737e-02
     vertex -6.301936e-01  8.578034e-18  3.796585e-01
   endloop
 endfacet
 facet normal -6.123234e-17  1.000000e+00 -6.123234e-17
   outer loop
     vertex -4.471516e-01  2.421162e-17  4.519324e-01
     vertex -5.847039e-01 -1.087680e-17  1.644737e-02
     vertex -5.431297e-01  1.681310e-17  4.270835e-01
   endloop
 endfacet
 facet normal -6.123234e-17  1.000000e+00 -6.123234e-17
   outer loop
     vertex -3.480121e-01  3.033014e-17  4.527158e-01
     vertex -5.847039e-01 -1.087680e-17  1.644737e-02
     vertex -4.471516e-01  2.421162e-17  4.519324e-01
   endloop
 endfacet
 facet normal -6.123234e-17  1.000000e+00 -6.123234e-17
   outer loop
     vertex  6.938894e-17  3.263039e-17  1.422697e-01
     vertex -2.938402e-02  2.447097e-17  3.840022e-02
     vertex -8.141447e-02  1.994079e-17  1.644737e-02
   endloop
 endfacet
 facet normal -6.123234e-17  1.000000e+00 -6.123234e-17
   outer loop
     vertex  6.938894e-17  3.263039e-17  1.422697e-01
     vertex  1.294510e-03  2.925265e-17  8.581250e-02
     vertex -2.938402e-02  2.447097e-17  3.840022e-02
   endloop
 endfacet
 facet normal -6.123234e-17  1.000000e+00 -6.123234e-17
   outer loop
     vertex -2.516533e-01  3.480192e-17  4.293869e-01
     vertex -5.847039e-01 -1.087680e-17  1.644737e-02
     vertex -3.480121e-01  3.033014e-17  4.527158e-01
   endloop
 endfacet
 facet normal -6.123234e-17  1.000000e+00 -6.123234e-17
   outer loop
     vertex -3.413674e-02  3.623964e-17  2.353500e-01
     vertex  6.938894e-17  3.263039e-17  1.422697e-01
     vertex -8.141447e-02  1.994079e-17  1.644737e-02
   endloop
 endfacet
 facet normal -6.123234e-17  1.000000e+00 -6.123234e-17
   outer loop
     vertex -1.638508e-01  3.735895e-17  3.833438e-01
     vertex -8.141447e-02  1.994079e-17  1.644737e-02
     vertex -5.847039e-01 -1.087680e-17  1.644737e-02
   endloop
 endfacet
 facet normal -6.123234e-17  1.000000e+00 -6.123234e-17
   outer loop
     vertex -1.638508e-01  3.735895e-17  3.833438e-01
     vertex -5.847039e-01 -1.087680e-17  1.644737e-02
     vertex -2.516533e-01  3.480192e-17  4.293869e-01
   endloop
 endfacet
 facet normal -6.123234e-17  1.000000e+00 -6.123234e-17
   outer loop
     vertex -8.986711e-02  3.784796e-17  3.173462e-01
     vertex -8.141447e-02  1.994079e-17  1.644737e-02
     vertex -1.638508e-01  3.735895e-17  3.833438e-01
   endloop
 endfacet
 facet normal -6.123234e-17  1.000000e+00 -6.123234e-17
   outer loop
     vertex -8.986711e-02  3.784796e-17  3.173462e-01
     vertex -3.413674e-02  3.623964e-17  2.353500e-01
     vertex -8.141447e-02  1.994079e-17  1.644737e-02
   endloop
 endfacet
 facet normal  0.000000e+00 -1.000000e+00  0.000000e+00
   outer loop
     vertex -5.847039e-01 -4.218750e-01  1.644737e-02
     vertex -7.234343e-01 -4.218750e-01  8.927805e-02
     vertex -6.628116e-01 -4.218750e-01  3.620961e-02
   endloop
 endfacet
 facet normal  0.000000e+00 -1.000000e+00  0.000000e+00
   outer loop
     vertex -7.031250e-01 -4.218750e-01  3.125000e-01
     vertex -7.460566e-01 -4.218750e-01  2.443220e-01
     vertex -7.533568e-01 -4.218750e-01  1.640845e-01
   endloop
 endfacet
 facet normal  0.000000e+00 -1.000000e+00  0.000000e+00
   outer loop
     vertex -7.031250e-01 -4.218750e-01  3.125000e-01
     vertex -7.533568e-01 -4.218750e-01  1.640845e-01
     vertex -7.234343e-01 -4.218750e-01  8.927805e-02
   endloop
 endfacet
 facet normal  0.000000e+00 -1.000000e+00 -0.000000e+00
   outer loop
     vertex -7.031250e-01 -4.218750e-01  3.125000e-01
     vertex -7.234343e-01 -4.218750e-01  8.927805e-02
     vertex -5.847039e-01 -4.218750e-01  1.644737e-02
   endloop
 endfacet
 facet normal  0.000000e+00 -1.000000e+00 -0.000000e+00
   outer loop
     vertex -6.301936e-01 -4.218750e-01  3.796585e-01
     vertex -7.031250e-01 -4.218750e-01  3.125000e-01
     vertex -5.847039e-01 -4.218750e-01  1.644737e-02
   endloop
 endfacet
 facet normal  0.000000e+00 -1.000000e+00  0.000000e+00
   outer loop
     vertex -5.431297e-01 -4.218750e-01  4.270835e-01
     vertex -6.301936e-01 -4.218750e-01  3.796585e-01
     vertex -5.847039e-01 -4.218750e-01  1.644737e-02
   endloop
 endfacet
 facet normal  0.000000e+00 -1.000000e+00  0.000000e+00
   outer loop
     vertex -4.471516e-01 -4.218750e-01  4.519324e-01
     vertex -5.431297e-01 -4.218750e-01  4.270835e-01
     vertex -5.847039e-01 -4.218750e-01  1.644737e-02
   endloop
 endfacet
 facet normal  0.000000e+00 -1.000000e+00  0.000000e+00
   outer loop
     vertex -3.480121e-01 -4.218750e-01  4.527158e-01
     vertex -4.471516e-01 -4.218750e-01  4.519324e-01
     vertex -5.847039e-01 -4.218750e-01  1.644737e-02
   endloop
 endfacet
 facet normal  0.000000e+00 -1.000000e+00  0.000000e+00
   outer loop
     vertex  9.522134e-17 -4.218750e-01  1.422697e-01
     vertex -8.141447e-02 -4.218750e-01  1.644737e-02
     vertex -2.938402e-02 -4.218750e-01  3.840022e-02
   endloop
 endfacet
 facet normal  0.000000e+00 -1.000000e+00 -0.000000e+00
   outer loop
     vertex  9.522134e-17 -4.218750e-01  1.422697e-01
     vertex -2.938402e-02 -4.218750e-01  3.840022e-02
     vertex  1.294510e-03 -4.218750e-01  8.581250e-02
   endloop
 endfacet
 facet normal  5.092037e-16 -1.000000e+00 -2.762619e-16
   outer loop
     vertex -2.516533e-01 -4.218750e-01  4.293869e-01
     vertex -3.480121e-01 -4.218750e-01  4.527158e-01
     vertex -5.847039e-01 -4.218750e-01  1.644737e-02
   endloop
 endfacet
 facet normal -5.882590e-16 -1.000000e+00  3.806382e-16
   outer loop
     vertex -3.413674e-02 -4.218750e-01  2.353500e-01
     vertex -8.141447e-02 -4.218750e-01  1.644737e-02
     vertex  9.522134e-17 -4.218750e-01  1.422697e-01
   endloop
 endfacet
 facet normal  0.000000e+00 -1.000000e+00  1.512993e-16
   outer loop
     vertex -1.638508e-01 -4.218750e-01  3.833438e-01
     vertex -5.847039e-01 -4.218750e-01  1.644737e-02
     vertex -8.141447e-02 -4.218750e-01  1.644737e-02
   endloop
 endfacet
 facet normal  4.954090e-17 -1.000000e+00  9.447273e-17
   outer loop
     vertex -1.638508e-01 -4.218750e-01  3.833438e-01
     vertex -2.516533e-01 -4.218750e-01  4.293869e-01
     vertex -5.847039e-01 -4.218750e-01  1.644737e-02
   endloop
 endfacet
 facet normal  1.688003e-16 -1.000000e+00  1.892262e-16
   outer loop
     vertex -8.986711e-02 -4.218750e-01  3.173462e-01
     vertex -1.638508e-01 -4.218750e-01  3.833438e-01
     vertex -8.141447e-02 -4.218750e-01  1.644737e-02
   endloop
 endfacet
 facet normal  2.831345e-16 -1.000000e+00  1.924380e-16
   outer loop
     vertex -8.986711e-02 -4.218750e-01  3.173462e-01
     vertex -8.141447e-02 -4.218750e-01  1.644737e-02
     vertex -3.413674e-02 -4.218750e-01  2.353500e-01
   endloop
 endfacet
endsolid
