solid 
 facet normal  0.000000e+00  0.000000e+00 -1.000000e+00
   outer loop
     vertex -6.394737e-01  6.767785e-18 -1.562500e-01
     vertex -7.500000e-01 -1.796875e-01 -1.562500e-01
     vertex -7.500000e-01  0.000000e+00 -1.562500e-01
   endloop
 endfacet
 facet normal  0.000000e+00 -0.000000e+00 -1.000000e+00
   outer loop
     vertex -6.394737e-01  6.767785e-18 -1.562500e-01
     vertex -6.394737e-01 -1.796875e-01 -1.562500e-01
     vertex -7.500000e-01 -1.796875e-01 -1.562500e-01
   endloop
 endfacet
 facet normal  1.000000e+00  0.000000e+00  0.000000e+00
   outer loop
     vertex -6.394737e-01  2.417066e-17  1.279605e-01
     vertex -6.394737e-01 -1.796875e-01 -1.562500e-01
     vertex -6.394737e-01  6.767785e-18 -1.562500e-01
   endloop
 endfacet
 facet normal  1.000000e+00  0.000000e+00  0.000000e+00
   outer loop
     vertex -6.394737e-01  2.417066e-17  1.279605e-01
     vertex -6.394737e-01 -1.796875e-01  1.279605e-01
     vertex -6.394737e-01 -1.796875e-01 -1.562500e-01
   endloop
 endfacet
 facet normal  7.893522e-01  0.000000e+00 -6.139406e-01
   outer loop
     vertex -3.631579e-01  6.284372e-17  4.832237e-01
     vertex -6.394737e-01 -1.796875e-01  1.279605e-01
     vertex -6.394737e-01  2.417066e-17  1.279605e-01
   endloop
 endfacet
 facet normal  7.893522e-01  0.000000e+00 -6.139406e-01
   outer loop
     vertex -3.631579e-01  6.284372e-17  4.832237e-01
     vertex -3.631579e-01 -1.796875e-01  4.832237e-01
     vertex -6.394737e-01 -1.796875e-01  1.279605e-01
   endloop
 endfacet
 facet normal  0.000000e+00  0.000000e+00 -1.000000e+00
   outer loop
     vertex  0.000000e+00  8.508072e-17  4.832237e-01
     vertex -3.631579e-01 -1.796875e-01  4.832237e-01
     vertex -3.631579e-01  6.284372e-17  4.832237e-01
   endloop
 endfacet
 facet normal  0.000000e+00 -0.000000e+00 -1.000000e+00
   outer loop
     vertex  0.000000e+00  8.508072e-17  4.832237e-01
     vertex  1.100269e-17 -1.796875e-01  4.832237e-01
     vertex -3.631579e-01 -1.796875e-01  4.832237e-01
   endloop
 endfacet
 facet normal  1.000000e+00  6.123234e-17 -3.749399e-33
   outer loop
     vertex  0.000000e+00  9.184851e-17  5.937500e-01
     vertex  1.100269e-17 -1.796875e-01  4.832237e-01
     vertex  0.000000e+00  8.508072e-17  4.832237e-01
   endloop
 endfacet
 facet normal  1.000000e+00  6.123234e-17  0.000000e+00
   outer loop
     vertex  0.000000e+00  9.184851e-17  5.937500e-01
     vertex  1.100269e-17 -1.796875e-01  5.937500e-01
     vertex  1.100269e-17 -1.796875e-01  4.832237e-01
   endloop
 endfacet
 facet normal -0.000000e+00  0.000000e+00  1.000000e+00
   outer loop
     vertex -3.631579e-01  6.961150e-17  5.937500e-01
     vertex  1.100269e-17 -1.796875e-01  5.937500e-01
     vertex  0.000000e+00  9.184851e-17  5.937500e-01
   endloop
 endfacet
 facet normal  0.000000e+00  0.000000e+00  1.000000e+00
   outer loop
     vertex -3.631579e-01  6.961150e-17  5.937500e-01
     vertex -3.631579e-01 -1.796875e-01  5.937500e-01
     vertex  1.100269e-17 -1.796875e-01  5.937500e-01
   endloop
 endfacet
 facet normal -7.342721e-01  0.000000e+00  6.788553e-01
   outer loop
     vertex -7.500000e-01  2.030335e-17  1.753289e-01
     vertex -3.631579e-01 -1.796875e-01  5.937500e-01
     vertex -3.631579e-01  6.961150e-17  5.937500e-01
   endloop
 endfacet
 facet normal -7.342721e-01  0.000000e+00  6.788553e-01
   outer loop
     vertex -7.500000e-01  2.030335e-17  1.753289e-01
     vertex -7.500000e-01 -1.796875e-01  1.753289e-01
     vertex -3.631579e-01 -1.796875e-01  5.937500e-01
   endloop
 endfacet
 facet normal -1.000000e+00  0.000000e+00  0.000000e+00
   outer loop
     vertex -7.500000e-01  0.000000e+00 -1.562500e-01
     vertex -7.500000e-01 -1.796875e-01  1.753289e-01
     vertex -7.500000e-01  2.030335e-17  1.753289e-01
   endloop
 endfacet
 facet normal -1.000000e+00  0.000000e+00  0.000000e+00
   outer loop
     vertex -7.500000e-01  0.000000e+00 -1.562500e-01
     vertex -7.500000e-01 -1.796875e-01 -1.562500e-01
     vertex -7.500000e-01 -1.796875e-01  1.753289e-01
   endloop
 endfacet
 facet normal -6.123234e-17  1.000000e+00 -6.123234e-17
   outer loop
     vertex -6.394737e-01  2.417066e-17  1.279605e-01
     vertex -6.394737e-01  6.767785e-18 -1.562500e-01
     vertex -7.500000e-01  0.000000e+00 -1.562500e-01
   endloop
 endfacet
 facet normal -6.123234e-17  1.000000e+00 -6.123234e-17
   outer loop
     vertex -6.394737e-01  2.417066e-17  1.279605e-01
     vertex -7.500000e-01  0.000000e+00 -1.562500e-01
     vertex -7.500000e-01  2.030335e-17  1.753289e-01
   endloop
 endfacet
 facet normal -6.123234e-17  1.000000e+00 -6.123234e-17
   outer loop
     vertex -3.631579e-01  6.284372e-17  4.832237e-01
     vertex -6.394737e-01  2.417066e-17  1.279605e-01
     vertex -7.500000e-01  2.030335e-17  1.753289e-01
   endloop
 endfacet
 facet normal -6.123234e-17  1.000000e+00 -6.123234e-17
   outer loop
     vertex -3.631579e-01  6.961150e-17  5.937500e-01
     vertex -3.631579e-01  6.284372e-17  4.832237e-01
     vertex -7.500000e-01  2.030335e-17  1.753289e-01
   endloop
 endfacet
 facet normal -6.123234e-17  1.000000e+00 -6.123234e-17
   outer loop
     vertex  0.000000e+00  9.184851e-17  5.937500e-01
     vertex  0.000000e+00  8.508072e-17  4.832237e-01
     vertex -3.631579e-01  6.284372e-17  4.832237e-01
   endloop
 endfacet
 facet normal -6.123234e-17  1.000000e+00 -6.123234e-17
   outer loop
     vertex  0.000000e+00  9.184851e-17  5.937500e-01
     vertex -3.631579e-01  6.284372e-17  4.832237e-01
     vertex -3.631579e-01  6.961150e-17  5.937500e-01
   endloop
 endfacet
 facet normal  0.000000e+00 -1.000000e+00 -0.000000e+00
   outer loop
     vertex -6.394737e-01 -1.796875e-01  1.279605e-01
     vertex -7.500000e-01 -1.796875e-01 -1.562500e-01
     vertex -6.394737e-01 -1.796875e-01 -1.562500e-01
   endloop
 endfacet
 facet normal -0.000000e+00 -1.000000e+00  0.000000e+00
   outer loop
     vertex -6.394737e-01 -1.796875e-01  1.279605e-01
     vertex -7.500000e-01 -1.796875e-01  1.753289e-01
     vertex -7.500000e-01 -1.796875e-01 -1.562500e-01
   endloop
 endfacet
 facet normal  0.000000e+00 -1.000000e+00  0.000000e+00
   outer loop
     vertex -3.631579e-01 -1.796875e-01  4.832237e-01
     vertex -7.500000e-01 -1.796875e-01  1.753289e-01
     vertex -6.394737e-01 -1.796875e-01  1.279605e-01
   endloop
 endfacet
 facet normal  0.000000e+00 -1.000000e+00 -0.000000e+00
   outer loop
     vertex -3.631579e-01 -1.796875e-01  5.937500e-01
     vertex -7.500000e-01 -1.796875e-01  1.753289e-01
     vertex -3.631579e-01 -1.796875e-01  4.832237e-01
   endloop
 endfacet
 facet normal  0.000000e+00 -1.000000e+00 -0.000000e+00
   outer loop
     vertex  1.100269e-17 -1.796875e-01  5.937500e-01
     vertex -3.631579e-01 -1.796875e-01  4.832237e-01
     vertex  1.100269e-17 -1.796875e-01  4.832237e-01
   endloop
 endfacet
 facet normal -0.000000e+00 -1.000000e+00  0.000000e+00
   outer loop
     vertex  1.100269e-17 -1.796875e-01  5.937500e-01
     vertex -3.631579e-01 -1.796875e-01  5.937500e-01
     vertex -3.631579e-01 -1.796875e-01  4.832237e-01
   endloop
 endfacet
endsolid
