solid 
 facet normal  0.000000e+00 -1.000000e+00  0.000000e+00
   outer loop
     vertex  6.093750e-01 -7.187500e-01  0.000000e+00
     vertex -7.578125e-01 -7.187500e-01  1.328125e-01
     vertex -7.578125e-01 -7.187500e-01  0.000000e+00
   endloop
 endfacet
 facet normal  0.000000e+00 -1.000000e+00  0.000000e+00
   outer loop
     vertex  6.093750e-01 -7.187500e-01  0.000000e+00
     vertex  6.093750e-01 -7.187500e-01  1.328125e-01
     vertex -7.578125e-01 -7.187500e-01  1.328125e-01
   endloop
 endfacet
 facet normal -1.000000e+00  0.000000e+00  0.000000e+00
   outer loop
     vertex -7.578125e-01 -7.187500e-01  0.000000e+00
     vertex -7.578125e-01  8.223684e-04  1.328125e-01
     vertex -7.578125e-01  8.223684e-04  0.000000e+00
   endloop
 endfacet
 facet normal -1.000000e+00  0.000000e+00  0.000000e+00
   outer loop
     vertex -7.578125e-01 -7.187500e-01  0.000000e+00
     vertex -7.578125e-01 -7.187500e-01  1.328125e-01
     vertex -7.578125e-01  8.223684e-04  1.328125e-01
   endloop
 endfacet
 facet normal  1.000000e+00  0.000000e+00  0.000000e+00
   outer loop
     vertex  6.093750e-01 -2.582237e-01  0.000000e+00
     vertex  6.093750e-01 -7.187500e-01  1.328125e-01
     vertex  6.093750e-01 -7.187500e-01  0.000000e+00
   endloop
 endfacet
 facet normal  1.000000e+00  0.000000e+00 -0.000000e+00
   outer loop
     vertex  6.093750e-01 -2.582237e-01  0.000000e+00
     vertex  6.093750e-01 -2.582237e-01  1.328125e-01
     vertex  6.093750e-01 -7.187500e-01  1.328125e-01
   endloop
 endfacet
 facet normal -0.000000e+00  0.000000e+00 -1.000000e+00
   outer loop
     vertex -3.836349e-01  8.223684e-04  0.000000e+00
     vertex -7.578125e-01 -7.187500e-01  0.000000e+00
     vertex -7.578125e-01  8.223684e-04  0.000000e+00
   endloop
 endfacet
 facet normal -0.000000e+00  0.000000e+00 -1.000000e+00
   outer loop
     vertex  3.791118e-01 -5.892270e-01  0.000000e+00
     vertex -7.578125e-01 -7.187500e-01  0.000000e+00
     vertex  3.078778e-01 -5.597209e-01  0.000000e+00
   endloop
 endfacet
 facet normal -0.000000e+00  0.000000e+00 -1.000000e+00
   outer loop
     vertex  2.783717e-01 -4.884868e-01  0.000000e+00
     vertex -7.578125e-01 -7.187500e-01  0.000000e+00
     vertex -3.836349e-01  8.223684e-04  0.000000e+00
   endloop
 endfacet
 facet normal  0.000000e+00 -0.000000e+00 -1.000000e+00
   outer loop
     vertex  2.783717e-01 -4.884868e-01  0.000000e+00
     vertex  3.078778e-01 -5.597209e-01  0.000000e+00
     vertex -7.578125e-01 -7.187500e-01  0.000000e+00
   endloop
 endfacet
 facet normal  0.000000e+00  0.000000e+00 -1.000000e+00
   outer loop
     vertex  6.093750e-01 -7.187500e-01  0.000000e+00
     vertex -7.578125e-01 -7.187500e-01  0.000000e+00
     vertex  3.791118e-01 -5.892270e-01  0.000000e+00
   endloop
 endfacet
 facet normal -0.000000e+00  0.000000e+00 -1.000000e+00
   outer loop
     vertex  3.078778e-01 -4.172528e-01  0.000000e+00
     vertex  2.783717e-01 -4.884868e-01  0.000000e+00
     vertex -3.836349e-01  8.223684e-04  0.000000e+00
   endloop
 endfacet
 facet normal  0.000000e+00 -0.000000e+00 -1.000000e+00
   outer loop
     vertex  4.503459e-01 -5.597209e-01  0.000000e+00
     vertex  6.093750e-01 -7.187500e-01  0.000000e+00
     vertex  3.791118e-01 -5.892270e-01  0.000000e+00
   endloop
 endfacet
 facet normal  0.000000e+00 -0.000000e+00 -1.000000e+00
   outer loop
     vertex  4.798520e-01 -4.884868e-01  0.000000e+00
     vertex  6.093750e-01 -7.187500e-01  0.000000e+00
     vertex  4.503459e-01 -5.597209e-01  0.000000e+00
   endloop
 endfacet
 facet normal -0.000000e+00  0.000000e+00 -1.000000e+00
   outer loop
     vertex  3.791118e-01 -3.877467e-01  0.000000e+00
     vertex  3.078778e-01 -4.172528e-01  0.000000e+00
     vertex -3.836349e-01  8.223684e-04  0.000000e+00
   endloop
 endfacet
 facet normal  0.000000e+00  0.000000e+00 -1.000000e+00
   outer loop
     vertex  6.093750e-01 -2.582237e-01  0.000000e+00
     vertex  4.798520e-01 -4.884868e-01  0.000000e+00
     vertex  4.503459e-01 -4.172528e-01  0.000000e+00
   endloop
 endfacet
 facet normal  0.000000e+00  0.000000e+00 -1.000000e+00
   outer loop
     vertex  6.093750e-01 -2.582237e-01  0.000000e+00
     vertex  4.503459e-01 -4.172528e-01  0.000000e+00
     vertex  3.791118e-01 -3.877467e-01  0.000000e+00
   endloop
 endfacet
 facet normal  0.000000e+00 -0.000000e+00 -1.000000e+00
   outer loop
     vertex  6.093750e-01 -2.582237e-01  0.000000e+00
     vertex  6.093750e-01 -7.187500e-01  0.000000e+00
     vertex  4.798520e-01 -4.884868e-01  0.000000e+00
   endloop
 endfacet
 facet normal -0.000000e+00  0.000000e+00 -1.000000e+00
   outer loop
     vertex  6.093750e-01 -2.582237e-01  0.000000e+00
     vertex  3.791118e-01 -3.877467e-01  0.000000e+00
     vertex -3.836349e-01  8.223684e-04  0.000000e+00
   endloop
 endfacet
 facet normal  0.000000e+00  0.000000e+00  1.000000e+00
   outer loop
     vertex -3.836349e-01  8.223684e-04  1.328125e-01
     vertex -7.578125e-01  8.223684e-04  1.328125e-01
     vertex -7.578125e-01 -7.187500e-01  1.328125e-01
   endloop
 endfacet
 facet normal  0.000000e+00  0.000000e+00  1.000000e+00
   outer loop
     vertex  3.791118e-01 -5.892270e-01  1.328125e-01
     vertex  3.078778e-01 -5.597209e-01  1.328125e-01
     vertex -7.578125e-01 -7.187500e-01  1.328125e-01
   endloop
 endfacet
 facet normal  0.000000e+00  0.000000e+00  1.000000e+00
   outer loop
     vertex  2.783717e-01 -4.884868e-01  1.328125e-01
     vertex -3.836349e-01  8.223684e-04  1.328125e-01
     vertex -7.578125e-01 -7.187500e-01  1.328125e-01
   endloop
 endfacet
 facet normal  0.000000e+00  0.000000e+00  1.000000e+00
   outer loop
     vertex  2.783717e-01 -4.884868e-01  1.328125e-01
     vertex -7.578125e-01 -7.187500e-01  1.328125e-01
     vertex  3.078778e-01 -5.597209e-01  1.328125e-01
   endloop
 endfacet
 facet normal  0.000000e+00  0.000000e+00  1.000000e+00
   outer loop
     vertex  6.093750e-01 -7.187500e-01  1.328125e-01
     vertex  3.791118e-01 -5.892270e-01  1.328125e-01
     vertex -7.578125e-01 -7.187500e-01  1.328125e-01
   endloop
 endfacet
 facet normal  0.000000e+00  0.000000e+00  1.000000e+00
   outer loop
     vertex  3.078778e-01 -4.172528e-01  1.328125e-01
     vertex -3.836349e-01  8.223684e-04  1.328125e-01
     vertex  2.783717e-01 -4.884868e-01  1.328125e-01
   endloop
 endfacet
 facet normal  0.000000e+00  0.000000e+00  1.000000e+00
   outer loop
     vertex  4.503459e-01 -5.597209e-01  1.328125e-01
     vertex  3.791118e-01 -5.892270e-01  1.328125e-01
     vertex  6.093750e-01 -7.187500e-01  1.328125e-01
   endloop
 endfacet
 facet normal  0.000000e+00  0.000000e+00  1.000000e+00
   outer loop
     vertex  4.798520e-01 -4.884868e-01  1.328125e-01
     vertex  4.503459e-01 -5.597209e-01  1.328125e-01
     vertex  6.093750e-01 -7.187500e-01  1.328125e-01
   endloop
 endfacet
 facet normal  0.000000e+00  0.000000e+00  1.000000e+00
   outer loop
     vertex  3.791118e-01 -3.877467e-01  1.328125e-01
     vertex -3.836349e-01  8.223684e-04  1.328125e-01
     vertex  3.078778e-01 -4.172528e-01  1.328125e-01
   endloop
 endfacet
 facet normal  0.000000e+00  0.000000e+00  1.000000e+00
   outer loop
     vertex  6.093750e-01 -2.582237e-01  1.328125e-01
     vertex  4.503459e-01 -4.172528e-01  1.328125e-01
     vertex  4.798520e-01 -4.884868e-01  1.328125e-01
   endloop
 endfacet
 facet normal  0.000000e+00  0.000000e+00  1.000000e+00
   outer loop
     vertex  6.093750e-01 -2.582237e-01  1.328125e-01
     vertex  3.791118e-01 -3.877467e-01  1.328125e-01
     vertex  4.503459e-01 -4.172528e-01  1.328125e-01
   endloop
 endfacet
 facet normal  0.000000e+00  0.000000e+00  1.000000e+00
   outer loop
     vertex  6.093750e-01 -2.582237e-01  1.328125e-01
     vertex  4.798520e-01 -4.884868e-01  1.328125e-01
     vertex  6.093750e-01 -7.187500e-01  1.328125e-01
   endloop
 endfacet
 facet normal  0.000000e+00  0.000000e+00  1.000000e+00
   outer loop
     vertex  6.093750e-01 -2.582237e-01  1.328125e-01
     vertex -3.836349e-01  8.223684e-04  1.328125e-01
     vertex  3.791118e-01 -3.877467e-01  1.328125e-01
   endloop
 endfacet
 facet normal  0.000000e+00  1.000000e+00  0.000000e+00
   outer loop
     vertex -7.578125e-01  8.223684e-04  0.000000e+00
     vertex -3.836349e-01  8.223684e-04  1.328125e-01
     vertex -3.836349e-01  8.223684e-04  0.000000e+00
   endloop
 endfacet
 facet normal  0.000000e+00  1.000000e+00  0.000000e+00
   outer loop
     vertex -7.578125e-01  8.223684e-04  0.000000e+00
     vertex -7.578125e-01  8.223684e-04  1.328125e-01
     vertex -3.836349e-01  8.223684e-04  1.328125e-01
   endloop
 endfacet
 facet normal  2.524219e-01  9.676173e-01  0.000000e+00
   outer loop
     vertex  7.421222e-02 -1.186160e-01  8.628771e-04
     vertex  6.093750e-01 -2.582237e-01  1.328125e-01
     vertex  6.093750e-01 -2.582237e-01  0.000000e+00
   endloop
 endfacet
 facet normal  2.524219e-01  9.676173e-01 -1.549117e-12
   outer loop
     vertex  7.421222e-02 -1.186160e-01  8.628771e-04
     vertex  7.131776e-02 -1.178609e-01  1.180146e-01
     vertex  6.093750e-01 -2.582237e-01  1.328125e-01
   endloop
 endfacet
 facet normal  2.524219e-01  9.676173e-01 -1.718340e-10
   outer loop
     vertex -3.836349e-01  8.223684e-04  1.328125e-01
     vertex  7.131776e-02 -1.178609e-01  1.180146e-01
     vertex  3.655574e-02 -1.087926e-01  1.171613e-01
   endloop
 endfacet
 facet normal  2.524219e-01  9.676173e-01  5.527829e-12
   outer loop
     vertex -3.836349e-01  8.223684e-04  1.328125e-01
     vertex  6.093750e-01 -2.582237e-01  1.328125e-01
     vertex  7.131776e-02 -1.178609e-01  1.180146e-01
   endloop
 endfacet
 facet normal  2.524219e-01  9.676173e-01  6.675291e-12
   outer loop
     vertex -3.836349e-01  8.223684e-04  0.000000e+00
     vertex  3.655574e-02 -1.087926e-01  1.171613e-01
     vertex  3.945019e-02 -1.095476e-01  9.517346e-06
   endloop
 endfacet
 facet normal  2.524219e-01  9.676173e-01 -0.000000e+00
   outer loop
     vertex -3.836349e-01  8.223684e-04  0.000000e+00
     vertex -3.836349e-01  8.223684e-04  1.328125e-01
     vertex  3.655574e-02 -1.087926e-01  1.171613e-01
   endloop
 endfacet
 facet normal  2.524219e-01  9.676173e-01 -5.465804e-08
   outer loop
     vertex -3.836349e-01  8.223684e-04  0.000000e+00
     vertex  3.945019e-02 -1.095476e-01  9.517346e-06
     vertex  6.093750e-01 -2.582237e-01  0.000000e+00
   endloop
 endfacet
 facet normal  2.524219e-01  9.676173e-01  6.893999e-10
   outer loop
     vertex  3.945019e-02 -1.095476e-01  9.517346e-06
     vertex  7.421222e-02 -1.186160e-01  8.628771e-04
     vertex  6.093750e-01 -2.582237e-01  0.000000e+00
   endloop
 endfacet
 facet normal -9.238795e-01  3.826834e-01  0.000000e+00
   outer loop
     vertex  4.503459e-01 -5.597209e-01  0.000000e+00
     vertex  4.798520e-01 -4.884868e-01  1.328125e-01
     vertex  4.798520e-01 -4.884868e-01  0.000000e+00
   endloop
 endfacet
 facet normal -9.238795e-01  3.826834e-01  0.000000e+00
   outer loop
     vertex  4.503459e-01 -5.597209e-01  0.000000e+00
     vertex  4.503459e-01 -5.597209e-01  1.328125e-01
     vertex  4.798520e-01 -4.884868e-01  1.328125e-01
   endloop
 endfacet
 facet normal -3.826834e-01  9.238795e-01  0.000000e+00
   outer loop
     vertex  3.791118e-01 -5.892270e-01  0.000000e+00
     vertex  3.791118e-01 -5.892270e-01  1.328125e-01
     vertex  4.503459e-01 -5.597209e-01  1.328125e-01
   endloop
 endfacet
 facet normal -3.826834e-01  9.238795e-01  0.000000e+00
   outer loop
     vertex  3.791118e-01 -5.892270e-01  0.000000e+00
     vertex  4.503459e-01 -5.597209e-01  1.328125e-01
     vertex  4.503459e-01 -5.597209e-01  0.000000e+00
   endloop
 endfacet
 facet normal  3.826834e-01  9.238795e-01 -0.000000e+00
   outer loop
     vertex  3.078778e-01 -5.597209e-01  0.000000e+00
     vertex  3.078778e-01 -5.597209e-01  1.328125e-01
     vertex  3.791118e-01 -5.892270e-01  1.328125e-01
   endloop
 endfacet
 facet normal  3.826834e-01  9.238795e-01  0.000000e+00
   outer loop
     vertex  3.078778e-01 -5.597209e-01  0.000000e+00
     vertex  3.791118e-01 -5.892270e-01  1.328125e-01
     vertex  3.791118e-01 -5.892270e-01  0.000000e+00
   endloop
 endfacet
 facet normal  9.238795e-01  3.826834e-01 -0.000000e+00
   outer loop
     vertex  2.783717e-01 -4.884868e-01  0.000000e+00
     vertex  2.783717e-01 -4.884868e-01  1.328125e-01
     vertex  3.078778e-01 -5.597209e-01  1.328125e-01
   endloop
 endfacet
 facet normal  9.238795e-01  3.826834e-01  0.000000e+00
   outer loop
     vertex  2.783717e-01 -4.884868e-01  0.000000e+00
     vertex  3.078778e-01 -5.597209e-01  1.328125e-01
     vertex  3.078778e-01 -5.597209e-01  0.000000e+00
   endloop
 endfacet
 facet normal  9.238795e-01 -3.826834e-01  0.000000e+00
   outer loop
     vertex  3.078778e-01 -4.172528e-01  0.000000e+00
     vertex  3.078778e-01 -4.172528e-01  1.328125e-01
     vertex  2.783717e-01 -4.884868e-01  1.328125e-01
   endloop
 endfacet
 facet normal  9.238795e-01 -3.826834e-01  0.000000e+00
   outer loop
     vertex  3.078778e-01 -4.172528e-01  0.000000e+00
     vertex  2.783717e-01 -4.884868e-01  1.328125e-01
     vertex  2.783717e-01 -4.884868e-01  0.000000e+00
   endloop
 endfacet
 facet normal  3.826834e-01 -9.238795e-01  0.000000e+00
   outer loop
     vertex  3.791118e-01 -3.877467e-01  0.000000e+00
     vertex  3.791118e-01 -3.877467e-01  1.328125e-01
     vertex  3.078778e-01 -4.172528e-01  1.328125e-01
   endloop
 endfacet
 facet normal  3.826834e-01 -9.238795e-01  0.000000e+00
   outer loop
     vertex  3.791118e-01 -3.877467e-01  0.000000e+00
     vertex  3.078778e-01 -4.172528e-01  1.328125e-01
     vertex  3.078778e-01 -4.172528e-01  0.000000e+00
   endloop
 endfacet
 facet normal -3.826834e-01 -9.238795e-01  0.000000e+00
   outer loop
     vertex  4.503459e-01 -4.172528e-01  0.000000e+00
     vertex  4.503459e-01 -4.172528e-01  1.328125e-01
     vertex  3.791118e-01 -3.877467e-01  1.328125e-01
   endloop
 endfacet
 facet normal -3.826834e-01 -9.238795e-01  0.000000e+00
   outer loop
     vertex  4.503459e-01 -4.172528e-01  0.000000e+00
     vertex  3.791118e-01 -3.877467e-01  1.328125e-01
     vertex  3.791118e-01 -3.877467e-01  0.000000e+00
   endloop
 endfacet
 facet normal -9.238795e-01 -3.826834e-01  0.000000e+00
   outer loop
     vertex  4.798520e-01 -4.884868e-01  0.000000e+00
     vertex  4.798520e-01 -4.884868e-01  1.328125e-01
     vertex  4.503459e-01 -4.172528e-01  1.328125e-01
   endloop
 endfacet
 facet normal -9.238795e-01 -3.826834e-01  0.000000e+00
   outer loop
     vertex  4.798520e-01 -4.884868e-01  0.000000e+00
     vertex  4.503459e-01 -4.172528e-01  1.328125e-01
     vertex  4.503459e-01 -4.172528e-01  0.000000e+00
   endloop
 endfacet
 facet normal -9.993977e-01 -2.454123e-02 -2.453384e-02
   outer loop
     vertex  8.220548e-02 -5.615112e-01  1.182819e-01
     vertex  7.131776e-02 -1.178609e-01  1.180146e-01
     vertex  7.421222e-02 -1.186160e-01  8.628771e-04
   endloop
 endfacet
 facet normal -9.993977e-01 -2.454123e-02 -2.453384e-02
   outer loop
     vertex  8.508141e-02 -5.615112e-01  1.129701e-03
     vertex  8.220548e-02 -5.615112e-01  1.182819e-01
     vertex  7.421222e-02 -1.186160e-01  8.628771e-04
   endloop
 endfacet
 facet normal  2.454123e-02 -5.107258e-13 -9.996988e-01
   outer loop
     vertex  4.768681e-02 -5.623588e-01  1.174345e-01
     vertex  3.655574e-02 -1.087926e-01  1.171613e-01
     vertex  7.131776e-02 -1.178609e-01  1.180146e-01
   endloop
 endfacet
 facet normal  2.454123e-02 -8.255136e-13 -9.996988e-01
   outer loop
     vertex  8.220548e-02 -5.615112e-01  1.182819e-01
     vertex  4.768681e-02 -5.623588e-01  1.174345e-01
     vertex  7.131776e-02 -1.178609e-01  1.180146e-01
   endloop
 endfacet
 facet normal  9.993977e-01  2.454123e-02  2.453384e-02
   outer loop
     vertex  3.945019e-02 -1.095476e-01  9.517346e-06
     vertex  4.768681e-02 -5.623588e-01  1.174345e-01
     vertex  5.056274e-02 -5.623588e-01  2.823150e-04
   endloop
 endfacet
 facet normal  9.993977e-01  2.454123e-02  2.453384e-02
   outer loop
     vertex  3.945019e-02 -1.095476e-01  9.517346e-06
     vertex  3.655574e-02 -1.087926e-01  1.171613e-01
     vertex  4.768681e-02 -5.623588e-01  1.174345e-01
   endloop
 endfacet
 facet normal -2.454123e-02 -1.729846e-16  9.996988e-01
   outer loop
     vertex  5.056274e-02 -5.623588e-01  2.823150e-04
     vertex  7.421222e-02 -1.186160e-01  8.628771e-04
     vertex  3.945019e-02 -1.095476e-01  9.517346e-06
   endloop
 endfacet
 facet normal -2.454123e-02 -6.097850e-16  9.996988e-01
   outer loop
     vertex  8.508141e-02 -5.615112e-01  1.129701e-03
     vertex  7.421222e-02 -1.186160e-01  8.628771e-04
     vertex  5.056274e-02 -5.623588e-01  2.823150e-04
   endloop
 endfacet
 facet normal -2.453384e-02  9.996988e-01 -6.022719e-04
   outer loop
     vertex  5.056274e-02 -5.623588e-01  2.823150e-04
     vertex  8.220548e-02 -5.615112e-01  1.182819e-01
     vertex  8.508141e-02 -5.615112e-01  1.129701e-03
   endloop
 endfacet
 facet normal -2.453384e-02  9.996988e-01 -6.022719e-04
   outer loop
     vertex  5.056274e-02 -5.623588e-01  2.823150e-04
     vertex  4.768681e-02 -5.623588e-01  1.174345e-01
     vertex  8.220548e-02 -5.615112e-01  1.182819e-01
   endloop
 endfacet
 facet normal  2.453384e-02 -9.996988e-01  6.022719e-04
   outer loop
     vertex -6.640625e-01 -9.375000e-02  0.000000e+00
     vertex -6.324198e-01 -9.290236e-02  1.179996e-01
     vertex -6.669384e-01 -9.375000e-02  1.171522e-01
   endloop
 endfacet
 facet normal  2.453384e-02 -9.996988e-01  6.022719e-04
   outer loop
     vertex -6.295438e-01 -9.290236e-02  8.473858e-04
     vertex -6.324198e-01 -9.290236e-02  1.179996e-01
     vertex -6.640625e-01 -9.375000e-02  0.000000e+00
   endloop
 endfacet
 facet normal  9.993977e-01  2.454123e-02  2.453384e-02
   outer loop
     vertex -6.669384e-01 -9.375000e-02  1.171522e-01
     vertex -6.554382e-01 -5.623588e-01  1.174345e-01
     vertex -6.525623e-01 -5.623588e-01  2.823150e-04
   endloop
 endfacet
 facet normal  9.993977e-01  2.454123e-02  2.453384e-02
   outer loop
     vertex -6.640625e-01 -9.375000e-02  0.000000e+00
     vertex -6.669384e-01 -9.375000e-02  1.171522e-01
     vertex -6.525623e-01 -5.623588e-01  2.823150e-04
   endloop
 endfacet
 facet normal -9.993977e-01 -2.454123e-02 -2.453384e-02
   outer loop
     vertex -6.180436e-01 -5.615112e-01  1.129701e-03
     vertex -6.324198e-01 -9.290236e-02  1.179996e-01
     vertex -6.295438e-01 -9.290236e-02  8.473858e-04
   endloop
 endfacet
 facet normal -9.993977e-01 -2.454123e-02 -2.453384e-02
   outer loop
     vertex -6.180436e-01 -5.615112e-01  1.129701e-03
     vertex -6.209195e-01 -5.615112e-01  1.182819e-01
     vertex -6.324198e-01 -9.290236e-02  1.179996e-01
   endloop
 endfacet
 facet normal -2.454123e-02  2.737291e-14  9.996988e-01
   outer loop
     vertex -6.180436e-01 -5.615112e-01  1.129701e-03
     vertex -6.295438e-01 -9.290236e-02  8.473858e-04
     vertex -6.640625e-01 -9.375000e-02  0.000000e+00
   endloop
 endfacet
 facet normal -2.454123e-02  2.822568e-14  9.996988e-01
   outer loop
     vertex -6.180436e-01 -5.615112e-01  1.129701e-03
     vertex -6.640625e-01 -9.375000e-02  0.000000e+00
     vertex -6.525623e-01 -5.623588e-01  2.823150e-04
   endloop
 endfacet
 facet normal  2.454123e-02 -2.247277e-13 -9.996988e-01
   outer loop
     vertex -6.209195e-01 -5.615112e-01  1.182819e-01
     vertex -6.669384e-01 -9.375000e-02  1.171522e-01
     vertex -6.324198e-01 -9.290236e-02  1.179996e-01
   endloop
 endfacet
 facet normal  2.454123e-02 -2.247277e-13 -9.996988e-01
   outer loop
     vertex -6.209195e-01 -5.615112e-01  1.182819e-01
     vertex -6.554382e-01 -5.623588e-01  1.174345e-01
     vertex -6.669384e-01 -9.375000e-02  1.171522e-01
   endloop
 endfacet
 facet normal -2.453384e-02  9.996988e-01 -6.022719e-04
   outer loop
     vertex -6.180436e-01 -5.615112e-01  1.129701e-03
     vertex -6.554382e-01 -5.623588e-01  1.174345e-01
     vertex -6.209195e-01 -5.615112e-01  1.182819e-01
   endloop
 endfacet
 facet normal -2.453384e-02  9.996988e-01 -6.022719e-04
   outer loop
     vertex -6.525623e-01 -5.623588e-01  2.823150e-04
     vertex -6.554382e-01 -5.623588e-01  1.174345e-01
     vertex -6.180436e-01 -5.615112e-01  1.129701e-03
   endloop
 endfacet
endsolid
