solid 
 facet normal -0.000000e+00  0.000000e+00 -1.000000e+00
   outer loop
     vertex -1.484375e-01  0.000000e+00 -2.812500e-01
     vertex -7.500000e-01 -1.015625e-01 -2.812500e-01
     vertex -7.500000e-01  0.000000e+00 -2.812500e-01
   endloop
 endfacet
 facet normal  0.000000e+00 -0.000000e+00 -1.000000e+00
   outer loop
     vertex -1.484375e-01  0.000000e+00 -2.812500e-01
     vertex -1.484375e-01 -1.015625e-01 -2.812500e-01
     vertex -7.500000e-01 -1.015625e-01 -2.812500e-01
   endloop
 endfacet
 facet normal  1.017888e-17  1.000000e+00 -6.123234e-17
   outer loop
     vertex -1.484375e-01  0.000000e+00 -1.812500e-01
     vertex -7.500000e-01  0.000000e+00 -2.812500e-01
     vertex -7.500000e-01  1.836970e-17  1.875000e-02
   endloop
 endfacet
 facet normal  0.000000e+00  1.000000e+00  0.000000e+00
   outer loop
     vertex -1.484375e-01  0.000000e+00 -1.812500e-01
     vertex -1.484375e-01  0.000000e+00 -2.812500e-01
     vertex -7.500000e-01  0.000000e+00 -2.812500e-01
   endloop
 endfacet
 facet normal -9.349247e-17  1.000000e+00 -1.547889e-16
   outer loop
     vertex  7.894737e-03  7.734611e-17  2.240132e-01
     vertex  1.484375e-01  2.775558e-17 -1.812500e-01
     vertex -1.484375e-01  0.000000e+00 -1.812500e-01
   endloop
 endfacet
 facet normal -2.917447e-17  1.000000e+00 -1.795999e-16
   outer loop
     vertex  7.894737e-03  7.734611e-17  2.240132e-01
     vertex -1.484375e-01  0.000000e+00 -1.812500e-01
     vertex -7.500000e-01  1.836970e-17  1.875000e-02
   endloop
 endfacet
 facet normal -1.296137e-16  1.000000e+00 -1.387779e-16
   outer loop
     vertex  7.500000e-01  9.184851e-17 -2.812500e-01
     vertex  1.484375e-01  1.387779e-17 -2.812500e-01
     vertex  1.484375e-01  2.775558e-17 -1.812500e-01
   endloop
 endfacet
 facet normal -8.643247e-17  1.000000e+00 -1.523405e-16
   outer loop
     vertex  7.500000e-01  1.102182e-16  1.875000e-02
     vertex  1.484375e-01  2.775558e-17 -1.812500e-01
     vertex  7.894737e-03  7.734611e-17  2.240132e-01
   endloop
 endfacet
 facet normal -1.167230e-16  1.000000e+00 -6.123234e-17
   outer loop
     vertex  7.500000e-01  1.102182e-16  1.875000e-02
     vertex  7.500000e-01  9.184851e-17 -2.812500e-01
     vertex  1.484375e-01  2.775558e-17 -1.812500e-01
   endloop
 endfacet
 facet normal  1.000000e+00  0.000000e+00  0.000000e+00
   outer loop
     vertex -1.484375e-01 -1.015625e-01 -2.812500e-01
     vertex -1.484375e-01  0.000000e+00 -1.812500e-01
     vertex -1.484375e-01 -1.015625e-01 -1.812500e-01
   endloop
 endfacet
 facet normal  1.000000e+00  0.000000e+00  0.000000e+00
   outer loop
     vertex -1.484375e-01 -1.015625e-01 -2.812500e-01
     vertex -1.484375e-01  0.000000e+00 -2.812500e-01
     vertex -1.484375e-01  0.000000e+00 -1.812500e-01
   endloop
 endfacet
 facet normal -0.000000e+00 -1.000000e+00  0.000000e+00
   outer loop
     vertex -1.484375e-01 -1.015625e-01 -1.812500e-01
     vertex -7.500000e-01 -1.015625e-01  1.875000e-02
     vertex -7.500000e-01 -1.015625e-01 -2.812500e-01
   endloop
 endfacet
 facet normal  0.000000e+00 -1.000000e+00 -0.000000e+00
   outer loop
     vertex -1.484375e-01 -1.015625e-01 -1.812500e-01
     vertex -7.500000e-01 -1.015625e-01 -2.812500e-01
     vertex -1.484375e-01 -1.015625e-01 -2.812500e-01
   endloop
 endfacet
 facet normal  0.000000e+00 -1.000000e+00 -0.000000e+00
   outer loop
     vertex  7.894737e-03 -1.015625e-01  2.240132e-01
     vertex -1.484375e-01 -1.015625e-01 -1.812500e-01
     vertex  1.484375e-01 -1.015625e-01 -1.812500e-01
   endloop
 endfacet
 facet normal  0.000000e+00 -1.000000e+00  0.000000e+00
   outer loop
     vertex  7.894737e-03 -1.015625e-01  2.240132e-01
     vertex -7.500000e-01 -1.015625e-01  1.875000e-02
     vertex -1.484375e-01 -1.015625e-01 -1.812500e-01
   endloop
 endfacet
 facet normal  0.000000e+00 -1.000000e+00  0.000000e+00
   outer loop
     vertex  7.500000e-01 -1.015625e-01 -2.812500e-01
     vertex  1.484375e-01 -1.015625e-01 -1.812500e-01
     vertex  1.484375e-01 -1.015625e-01 -2.812500e-01
   endloop
 endfacet
 facet normal -0.000000e+00 -1.000000e+00  0.000000e+00
   outer loop
     vertex  7.500000e-01 -1.015625e-01  1.875000e-02
     vertex  7.894737e-03 -1.015625e-01  2.240132e-01
     vertex  1.484375e-01 -1.015625e-01 -1.812500e-01
   endloop
 endfacet
 facet normal  0.000000e+00 -1.000000e+00 -0.000000e+00
   outer loop
     vertex  7.500000e-01 -1.015625e-01  1.875000e-02
     vertex  1.484375e-01 -1.015625e-01 -1.812500e-01
     vertex  7.500000e-01 -1.015625e-01 -2.812500e-01
   endloop
 endfacet
 facet normal -1.000000e+00  0.000000e+00  0.000000e+00
   outer loop
     vertex -7.500000e-01  0.000000e+00 -2.812500e-01
     vertex -7.500000e-01 -1.015625e-01  1.875000e-02
     vertex -7.500000e-01  1.836970e-17  1.875000e-02
   endloop
 endfacet
 facet normal -1.000000e+00  0.000000e+00  0.000000e+00
   outer loop
     vertex -7.500000e-01  0.000000e+00 -2.812500e-01
     vertex -7.500000e-01 -1.015625e-01 -2.812500e-01
     vertex -7.500000e-01 -1.015625e-01  1.875000e-02
   endloop
 endfacet
 facet normal -2.614155e-01  0.000000e+00  9.652264e-01
   outer loop
     vertex -7.500000e-01  1.836970e-17  1.875000e-02
     vertex  7.894737e-03 -1.015625e-01  2.240132e-01
     vertex  7.894737e-03  7.734611e-17  2.240132e-01
   endloop
 endfacet
 facet normal -2.614155e-01  0.000000e+00  9.652264e-01
   outer loop
     vertex -7.500000e-01  1.836970e-17  1.875000e-02
     vertex -7.500000e-01 -1.015625e-01  1.875000e-02
     vertex  7.894737e-03 -1.015625e-01  2.240132e-01
   endloop
 endfacet
 facet normal  2.665861e-01  0.000000e+00  9.638111e-01
   outer loop
     vertex  7.894737e-03  7.734611e-17  2.240132e-01
     vertex  7.500000e-01 -1.015625e-01  1.875000e-02
     vertex  7.500000e-01  1.102182e-16  1.875000e-02
   endloop
 endfacet
 facet normal  2.665861e-01  0.000000e+00  9.638111e-01
   outer loop
     vertex  7.894737e-03  7.734611e-17  2.240132e-01
     vertex  7.894737e-03 -1.015625e-01  2.240132e-01
     vertex  7.500000e-01 -1.015625e-01  1.875000e-02
   endloop
 endfacet
 facet normal  1.000000e+00  0.000000e+00  0.000000e+00
   outer loop
     vertex  7.500000e-01  1.102182e-16  1.875000e-02
     vertex  7.500000e-01 -1.015625e-01 -2.812500e-01
     vertex  7.500000e-01  9.184851e-17 -2.812500e-01
   endloop
 endfacet
 facet normal  1.000000e+00  0.000000e+00  0.000000e+00
   outer loop
     vertex  7.500000e-01  1.102182e-16  1.875000e-02
     vertex  7.500000e-01 -1.015625e-01  1.875000e-02
     vertex  7.500000e-01 -1.015625e-01 -2.812500e-01
   endloop
 endfacet
 facet normal  0.000000e+00  0.000000e+00 -1.000000e+00
   outer loop
     vertex  7.500000e-01  9.184851e-17 -2.812500e-01
     vertex  1.484375e-01 -1.015625e-01 -2.812500e-01
     vertex  1.484375e-01  1.387779e-17 -2.812500e-01
   endloop
 endfacet
 facet normal  0.000000e+00 -0.000000e+00 -1.000000e+00
   outer loop
     vertex  7.500000e-01  9.184851e-17 -2.812500e-01
     vertex  7.500000e-01 -1.015625e-01 -2.812500e-01
     vertex  1.484375e-01 -1.015625e-01 -2.812500e-01
   endloop
 endfacet
 facet normal -1.000000e+00  0.000000e+00  0.000000e+00
   outer loop
     vertex  1.484375e-01 -1.015625e-01 -1.812500e-01
     vertex  1.484375e-01  1.387779e-17 -2.812500e-01
     vertex  1.484375e-01 -1.015625e-01 -2.812500e-01
   endloop
 endfacet
 facet normal -1.000000e+00  0.000000e+00  0.000000e+00
   outer loop
     vertex  1.484375e-01 -1.015625e-01 -1.812500e-01
     vertex  1.484375e-01  2.775558e-17 -1.812500e-01
     vertex  1.484375e-01  1.387779e-17 -2.812500e-01
   endloop
 endfacet
 facet normal  0.000000e+00  0.000000e+00 -1.000000e+00
   outer loop
     vertex -1.484375e-01 -1.015625e-01 -1.812500e-01
     vertex  1.484375e-01  2.775558e-17 -1.812500e-01
     vertex  1.484375e-01 -1.015625e-01 -1.812500e-01
   endloop
 endfacet
 facet normal  0.000000e+00  0.000000e+00 -1.000000e+00
   outer loop
     vertex -1.484375e-01 -1.015625e-01 -1.812500e-01
     vertex -1.484375e-01  0.000000e+00 -1.812500e-01
     vertex  1.484375e-01  2.775558e-17 -1.812500e-01
   endloop
 endfacet
endsolid
