solid 
 facet normal  0.000000e+00  0.000000e+00 -1.000000e+00
   outer loop
     vertex -5.781250e-01  2.965941e-17  4.062500e-01
     vertex -5.000000e-01  7.500000e-01  4.062500e-01
     vertex -5.000000e-01  0.000000e+00  4.062500e-01
   endloop
 endfacet
 facet normal  0.000000e+00  0.000000e+00 -1.000000e+00
   outer loop
     vertex -5.781250e-01  2.965941e-17  4.062500e-01
     vertex -5.859375e-01  7.500000e-01  4.062500e-01
     vertex -5.000000e-01  7.500000e-01  4.062500e-01
   endloop
 endfacet
 facet normal  0.000000e+00  0.000000e+00 -1.000000e+00
   outer loop
     vertex -5.859375e-01  5.262154e-18  4.062500e-01
     vertex -5.859375e-01  7.500000e-01  4.062500e-01
     vertex -5.781250e-01  2.965941e-17  4.062500e-01
   endloop
 endfacet
 facet normal  1.000000e+00  0.000000e+00 -0.000000e+00
   outer loop
     vertex -5.000000e-01  0.000000e+00  4.062500e-01
     vertex -5.000000e-01  7.500000e-01  4.921875e-01
     vertex -5.000000e-01 -5.262154e-18  4.921875e-01
   endloop
 endfacet
 facet normal  1.000000e+00  0.000000e+00  0.000000e+00
   outer loop
     vertex -5.000000e-01  0.000000e+00  4.062500e-01
     vertex -5.000000e-01  7.500000e-01  4.062500e-01
     vertex -5.000000e-01  7.500000e-01  4.921875e-01
   endloop
 endfacet
 facet normal -1.000000e+00  0.000000e+00  0.000000e+00
   outer loop
     vertex -5.859375e-01  0.000000e+00  4.921875e-01
     vertex -5.859375e-01  7.500000e-01  4.062500e-01
     vertex -5.859375e-01  5.262154e-18  4.062500e-01
   endloop
 endfacet
 facet normal -1.000000e+00  0.000000e+00  0.000000e+00
   outer loop
     vertex -5.859375e-01  0.000000e+00  4.921875e-01
     vertex -5.859375e-01  7.500000e-01  4.921875e-01
     vertex -5.859375e-01  7.500000e-01  4.062500e-01
   endloop
 endfacet
 facet normal  3.796405e-16  1.000000e+00 -3.330180e-17
   outer loop
     vertex -5.000000e-01  0.000000e+00  4.062500e-01
     vertex -5.781250e-01  0.000000e+00 -4.843750e-01
     vertex -5.781250e-01  2.965941e-17  4.062500e-01
   endloop
 endfacet
 facet normal  4.469961e-16  1.000000e+00 -3.304379e-15
   outer loop
     vertex -5.000000e-01 -5.262154e-18  4.921875e-01
     vertex -5.781250e-01  2.965941e-17  4.921875e-01
     vertex -5.781250e-01  6.036622e-17  5.014803e-01
   endloop
 endfacet
 facet normal -6.123234e-17  1.000000e+00  3.949486e-15
   outer loop
     vertex  5.781250e-01  7.079989e-17 -4.843750e-01
     vertex -5.781250e-01  0.000000e+00 -4.843750e-01
     vertex  5.000000e-01  4.305399e-18 -4.687500e-01
   endloop
 endfacet
 facet normal  6.123234e-17  1.000000e+00  4.561809e-15
   outer loop
     vertex  5.703125e-01  0.000000e+00 -4.687500e-01
     vertex  5.781250e-01  7.079989e-17 -4.843750e-01
     vertex  5.000000e-01  4.305399e-18 -4.687500e-01
   endloop
 endfacet
 facet normal  0.000000e+00  1.000000e+00  0.000000e+00
   outer loop
     vertex  5.000000e-01  0.000000e+00 -3.984375e-01
     vertex -5.781250e-01  0.000000e+00 -4.843750e-01
     vertex -5.000000e-01  0.000000e+00  4.062500e-01
   endloop
 endfacet
 facet normal -4.880839e-18  1.000000e+00  6.123234e-17
   outer loop
     vertex  5.000000e-01  0.000000e+00 -3.984375e-01
     vertex  5.000000e-01  4.305399e-18 -4.687500e-01
     vertex -5.781250e-01  0.000000e+00 -4.843750e-01
   endloop
 endfacet
 facet normal -8.939922e-15  1.000000e+00  6.123234e-17
   outer loop
     vertex  5.703125e-01 -4.305399e-18 -3.984375e-01
     vertex  5.781250e-01  7.079989e-17 -4.843750e-01
     vertex  5.703125e-01  0.000000e+00 -4.687500e-01
   endloop
 endfacet
 facet normal -5.345680e-18  1.000000e+00 -6.643176e-18
   outer loop
     vertex  4.843750e-01  5.262154e-18  4.062500e-01
     vertex  5.000000e-01  0.000000e+00 -3.984375e-01
     vertex -5.000000e-01  0.000000e+00  4.062500e-01
   endloop
 endfacet
 facet normal -5.345680e-18  1.000000e+00  6.123234e-17
   outer loop
     vertex  4.843750e-01  0.000000e+00  4.921875e-01
     vertex -5.000000e-01  0.000000e+00  4.062500e-01
     vertex -5.000000e-01 -5.262154e-18  4.921875e-01
   endloop
 endfacet
 facet normal -5.345680e-18  1.000000e+00  6.123234e-17
   outer loop
     vertex  4.843750e-01  0.000000e+00  4.921875e-01
     vertex  4.843750e-01  5.262154e-18  4.062500e-01
     vertex -5.000000e-01  0.000000e+00  4.062500e-01
   endloop
 endfacet
 facet normal  6.123234e-17  1.000000e+00 -5.350399e-18
   outer loop
     vertex  5.703125e-01  0.000000e+00  4.062500e-01
     vertex  5.703125e-01 -4.305399e-18 -3.984375e-01
     vertex  5.000000e-01  0.000000e+00 -3.984375e-01
   endloop
 endfacet
 facet normal  6.123234e-17  1.000000e+00 -5.350399e-18
   outer loop
     vertex  5.703125e-01  0.000000e+00  4.062500e-01
     vertex  5.000000e-01  0.000000e+00 -3.984375e-01
     vertex  4.843750e-01  5.262154e-18  4.062500e-01
   endloop
 endfacet
 facet normal -1.753565e-14  1.000000e+00  6.123234e-17
   outer loop
     vertex  5.781250e-01  1.311661e-16  5.014803e-01
     vertex  5.703125e-01  0.000000e+00  4.062500e-01
     vertex  5.703125e-01 -5.262154e-18  4.921875e-01
   endloop
 endfacet
 facet normal  6.123234e-17  1.000000e+00 -1.473261e-14
   outer loop
     vertex  5.781250e-01  1.311661e-16  5.014803e-01
     vertex  5.703125e-01 -5.262154e-18  4.921875e-01
     vertex  4.843750e-01  0.000000e+00  4.921875e-01
   endloop
 endfacet
 facet normal -1.604287e-14  1.000000e+00 -6.123234e-17
   outer loop
     vertex  5.781250e-01  7.079989e-17 -4.843750e-01
     vertex  5.703125e-01  0.000000e+00  4.062500e-01
     vertex  5.781250e-01  1.311661e-16  5.014803e-01
   endloop
 endfacet
 facet normal -9.672332e-15  1.000000e+00 -5.350399e-18
   outer loop
     vertex  5.781250e-01  7.079989e-17 -4.843750e-01
     vertex  5.703125e-01 -4.305399e-18 -3.984375e-01
     vertex  5.703125e-01  0.000000e+00  4.062500e-01
   endloop
 endfacet
 facet normal -6.123234e-17  1.000000e+00 -1.349712e-14
   outer loop
     vertex  5.781250e-01  1.311661e-16  5.014803e-01
     vertex  4.843750e-01  0.000000e+00  4.921875e-01
     vertex -5.781250e-01  6.036622e-17  5.014803e-01
   endloop
 endfacet
 facet normal -5.345680e-18  1.000000e+00 -7.107252e-15
   outer loop
     vertex  4.843750e-01  0.000000e+00  4.921875e-01
     vertex -5.000000e-01 -5.262154e-18  4.921875e-01
     vertex -5.781250e-01  6.036622e-17  5.014803e-01
   endloop
 endfacet
 facet normal  3.796405e-15 -1.000000e+00  0.000000e+00
   outer loop
     vertex -5.859375e-01  0.000000e+00  4.921875e-01
     vertex -5.781250e-01  2.965941e-17  4.062500e-01
     vertex -5.781250e-01  2.965941e-17  4.921875e-01
   endloop
 endfacet
 facet normal  3.122849e-15 -1.000000e+00 -6.123234e-17
   outer loop
     vertex -5.859375e-01  0.000000e+00  4.921875e-01
     vertex -5.859375e-01  5.262154e-18  4.062500e-01
     vertex -5.781250e-01  2.965941e-17  4.062500e-01
   endloop
 endfacet
 facet normal  0.000000e+00  1.000000e+00  0.000000e+00
   outer loop
     vertex -5.859375e-01  7.500000e-01  4.921875e-01
     vertex -5.000000e-01  7.500000e-01  4.062500e-01
     vertex -5.859375e-01  7.500000e-01  4.062500e-01
   endloop
 endfacet
 facet normal -0.000000e+00  1.000000e+00  0.000000e+00
   outer loop
     vertex -5.859375e-01  7.500000e-01  4.921875e-01
     vertex -5.000000e-01  7.500000e-01  4.921875e-01
     vertex -5.000000e-01  7.500000e-01  4.062500e-01
   endloop
 endfacet
 facet normal  0.000000e+00  0.000000e+00  1.000000e+00
   outer loop
     vertex -5.781250e-01  2.965941e-17  4.921875e-01
     vertex -5.859375e-01  7.500000e-01  4.921875e-01
     vertex -5.859375e-01  0.000000e+00  4.921875e-01
   endloop
 endfacet
 facet normal  0.000000e+00 -0.000000e+00  1.000000e+00
   outer loop
     vertex -5.781250e-01  2.965941e-17  4.921875e-01
     vertex -5.000000e-01  7.500000e-01  4.921875e-01
     vertex -5.859375e-01  7.500000e-01  4.921875e-01
   endloop
 endfacet
 facet normal  0.000000e+00 -0.000000e+00  1.000000e+00
   outer loop
     vertex -5.000000e-01 -5.262154e-18  4.921875e-01
     vertex -5.000000e-01  7.500000e-01  4.921875e-01
     vertex -5.781250e-01  2.965941e-17  4.921875e-01
   endloop
 endfacet
 facet normal -1.000000e+00  0.000000e+00  0.000000e+00
   outer loop
     vertex -5.781250e-01  2.965941e-17  4.921875e-01
     vertex -5.781250e-01 -1.015625e-01  5.014803e-01
     vertex -5.781250e-01  6.036622e-17  5.014803e-01
   endloop
 endfacet
 facet normal -1.000000e+00  0.000000e+00  0.000000e+00
   outer loop
     vertex -5.781250e-01  2.965941e-17  4.062500e-01
     vertex -5.781250e-01 -1.015625e-01  5.014803e-01
     vertex -5.781250e-01  2.965941e-17  4.921875e-01
   endloop
 endfacet
 facet normal -1.000000e+00  0.000000e+00  0.000000e+00
   outer loop
     vertex -5.781250e-01 -1.015625e-01 -4.843750e-01
     vertex -5.781250e-01 -1.015625e-01  5.014803e-01
     vertex -5.781250e-01  2.965941e-17  4.062500e-01
   endloop
 endfacet
 facet normal -1.000000e+00  0.000000e+00  0.000000e+00
   outer loop
     vertex -5.781250e-01  0.000000e+00 -4.843750e-01
     vertex -5.781250e-01 -1.015625e-01 -4.843750e-01
     vertex -5.781250e-01  2.965941e-17  4.062500e-01
   endloop
 endfacet
 facet normal  0.000000e+00  0.000000e+00 -1.000000e+00
   outer loop
     vertex  5.781250e-01  7.079989e-17 -4.843750e-01
     vertex -5.781250e-01 -1.015625e-01 -4.843750e-01
     vertex -5.781250e-01  0.000000e+00 -4.843750e-01
   endloop
 endfacet
 facet normal  0.000000e+00 -0.000000e+00 -1.000000e+00
   outer loop
     vertex  5.781250e-01  7.079989e-17 -4.843750e-01
     vertex  5.781250e-01 -1.015625e-01 -4.843750e-01
     vertex -5.781250e-01 -1.015625e-01 -4.843750e-01
   endloop
 endfacet
 facet normal  1.000000e+00  0.000000e+00  0.000000e+00
   outer loop
     vertex  5.781250e-01  1.311661e-16  5.014803e-01
     vertex  5.781250e-01 -1.015625e-01 -4.843750e-01
     vertex  5.781250e-01  7.079989e-17 -4.843750e-01
   endloop
 endfacet
 facet normal  1.000000e+00  0.000000e+00  0.000000e+00
   outer loop
     vertex  5.781250e-01  1.311661e-16  5.014803e-01
     vertex  5.781250e-01 -1.015625e-01  5.014803e-01
     vertex  5.781250e-01 -1.015625e-01 -4.843750e-01
   endloop
 endfacet
 facet normal -0.000000e+00  0.000000e+00  1.000000e+00
   outer loop
     vertex -5.781250e-01  6.036622e-17  5.014803e-01
     vertex  5.781250e-01 -1.015625e-01  5.014803e-01
     vertex  5.781250e-01  1.311661e-16  5.014803e-01
   endloop
 endfacet
 facet normal  0.000000e+00  0.000000e+00  1.000000e+00
   outer loop
     vertex -5.781250e-01  6.036622e-17  5.014803e-01
     vertex -5.781250e-01 -1.015625e-01  5.014803e-01
     vertex  5.781250e-01 -1.015625e-01  5.014803e-01
   endloop
 endfacet
 facet normal  1.000000e+00  0.000000e+00 -0.000000e+00
   outer loop
     vertex  5.703125e-01  0.000000e+00 -4.687500e-01
     vertex  5.703125e-01  7.500000e-01 -3.984375e-01
     vertex  5.703125e-01 -4.305399e-18 -3.984375e-01
   endloop
 endfacet
 facet normal  1.000000e+00  0.000000e+00  0.000000e+00
   outer loop
     vertex  5.703125e-01  0.000000e+00 -4.687500e-01
     vertex  5.703125e-01  7.500000e-01 -4.687500e-01
     vertex  5.703125e-01  7.500000e-01 -3.984375e-01
   endloop
 endfacet
 facet normal  0.000000e+00  0.000000e+00  1.000000e+00
   outer loop
     vertex  5.703125e-01 -4.305399e-18 -3.984375e-01
     vertex  5.000000e-01  7.500000e-01 -3.984375e-01
     vertex  5.000000e-01  0.000000e+00 -3.984375e-01
   endloop
 endfacet
 facet normal  0.000000e+00 -0.000000e+00  1.000000e+00
   outer loop
     vertex  5.703125e-01 -4.305399e-18 -3.984375e-01
     vertex  5.703125e-01  7.500000e-01 -3.984375e-01
     vertex  5.000000e-01  7.500000e-01 -3.984375e-01
   endloop
 endfacet
 facet normal -1.000000e+00  0.000000e+00  0.000000e+00
   outer loop
     vertex  5.000000e-01  0.000000e+00 -3.984375e-01
     vertex  5.000000e-01  7.500000e-01 -4.687500e-01
     vertex  5.000000e-01  4.305399e-18 -4.687500e-01
   endloop
 endfacet
 facet normal -1.000000e+00  0.000000e+00  0.000000e+00
   outer loop
     vertex  5.000000e-01  0.000000e+00 -3.984375e-01
     vertex  5.000000e-01  7.500000e-01 -3.984375e-01
     vertex  5.000000e-01  7.500000e-01 -4.687500e-01
   endloop
 endfacet
 facet normal  0.000000e+00  0.000000e+00 -1.000000e+00
   outer loop
     vertex  5.000000e-01  4.305399e-18 -4.687500e-01
     vertex  5.703125e-01  7.500000e-01 -4.687500e-01
     vertex  5.703125e-01  0.000000e+00 -4.687500e-01
   endloop
 endfacet
 facet normal  0.000000e+00  0.000000e+00 -1.000000e+00
   outer loop
     vertex  5.000000e-01  4.305399e-18 -4.687500e-01
     vertex  5.000000e-01  7.500000e-01 -4.687500e-01
     vertex  5.703125e-01  7.500000e-01 -4.687500e-01
   endloop
 endfacet
 facet normal  1.000000e+00  0.000000e+00 -0.000000e+00
   outer loop
     vertex  5.703125e-01  0.000000e+00  4.062500e-01
     vertex  5.703125e-01  7.500000e-01  4.921875e-01
     vertex  5.703125e-01 -5.262154e-18  4.921875e-01
   endloop
 endfacet
 facet normal  1.000000e+00  0.000000e+00  0.000000e+00
   outer loop
     vertex  5.703125e-01  0.000000e+00  4.062500e-01
     vertex  5.703125e-01  7.500000e-01  4.062500e-01
     vertex  5.703125e-01  7.500000e-01  4.921875e-01
   endloop
 endfacet
 facet normal  0.000000e+00  0.000000e+00  1.000000e+00
   outer loop
     vertex  5.703125e-01 -5.262154e-18  4.921875e-01
     vertex  4.843750e-01  7.500000e-01  4.921875e-01
     vertex  4.843750e-01  0.000000e+00  4.921875e-01
   endloop
 endfacet
 facet normal  0.000000e+00 -0.000000e+00  1.000000e+00
   outer loop
     vertex  5.703125e-01 -5.262154e-18  4.921875e-01
     vertex  5.703125e-01  7.500000e-01  4.921875e-01
     vertex  4.843750e-01  7.500000e-01  4.921875e-01
   endloop
 endfacet
 facet normal  0.000000e+00  0.000000e+00 -1.000000e+00
   outer loop
     vertex  4.843750e-01  5.262154e-18  4.062500e-01
     vertex  5.703125e-01  7.500000e-01  4.062500e-01
     vertex  5.703125e-01  0.000000e+00  4.062500e-01
   endloop
 endfacet
 facet normal  0.000000e+00  0.000000e+00 -1.000000e+00
   outer loop
     vertex  4.843750e-01  5.262154e-18  4.062500e-01
     vertex  4.843750e-01  7.500000e-01  4.062500e-01
     vertex  5.703125e-01  7.500000e-01  4.062500e-01
   endloop
 endfacet
 facet normal -1.000000e+00  0.000000e+00  0.000000e+00
   outer loop
     vertex  4.843750e-01  0.000000e+00  4.921875e-01
     vertex  4.843750e-01  7.500000e-01  4.062500e-01
     vertex  4.843750e-01  5.262154e-18  4.062500e-01
   endloop
 endfacet
 facet normal -1.000000e+00  0.000000e+00  0.000000e+00
   outer loop
     vertex  4.843750e-01  0.000000e+00  4.921875e-01
     vertex  4.843750e-01  7.500000e-01  4.921875e-01
     vertex  4.843750e-01  7.500000e-01  4.062500e-01
   endloop
 endfacet
 facet normal  0.000000e+00 -1.000000e+00 -0.000000e+00
   outer loop
     vertex  5.781250e-01 -1.015625e-01  5.014803e-01
     vertex -5.781250e-01 -1.015625e-01 -4.843750e-01
     vertex  5.781250e-01 -1.015625e-01 -4.843750e-01
   endloop
 endfacet
 facet normal -0.000000e+00 -1.000000e+00  0.000000e+00
   outer loop
     vertex  5.781250e-01 -1.015625e-01  5.014803e-01
     vertex -5.781250e-01 -1.015625e-01  5.014803e-01
     vertex -5.781250e-01 -1.015625e-01 -4.843750e-01
   endloop
 endfacet
 facet normal  0.000000e+00  1.000000e+00  0.000000e+00
   outer loop
     vertex  5.000000e-01  7.500000e-01 -3.984375e-01
     vertex  5.703125e-01  7.500000e-01 -4.687500e-01
     vertex  5.000000e-01  7.500000e-01 -4.687500e-01
   endloop
 endfacet
 facet normal -0.000000e+00  1.000000e+00  0.000000e+00
   outer loop
     vertex  5.000000e-01  7.500000e-01 -3.984375e-01
     vertex  5.703125e-01  7.500000e-01 -3.984375e-01
     vertex  5.703125e-01  7.500000e-01 -4.687500e-01
   endloop
 endfacet
 facet normal  0.000000e+00  1.000000e+00  0.000000e+00
   outer loop
     vertex  4.843750e-01  7.500000e-01  4.921875e-01
     vertex  5.703125e-01  7.500000e-01  4.062500e-01
     vertex  4.843750e-01  7.500000e-01  4.062500e-01
   endloop
 endfacet
 facet normal -0.000000e+00  1.000000e+00  0.000000e+00
   outer loop
     vertex  4.843750e-01  7.500000e-01  4.921875e-01
     vertex  5.703125e-01  7.500000e-01  4.921875e-01
     vertex  5.703125e-01  7.500000e-01  4.062500e-01
   endloop
 endfacet
endsolid
