solid 
 facet normal  0.000000e+00 -1.000000e+00  0.000000e+00
   outer loop
     vertex -2.893092e-01 -7.500000e-01  0.000000e+00
     vertex -3.593750e-01 -7.500000e-01  3.125000e-02
     vertex -3.593750e-01 -7.500000e-01  0.000000e+00
   endloop
 endfacet
 facet normal  0.000000e+00 -1.000000e+00  0.000000e+00
   outer loop
     vertex -2.893092e-01 -7.500000e-01  0.000000e+00
     vertex -2.893092e-01 -7.500000e-01  3.125000e-02
     vertex -3.593750e-01 -7.500000e-01  3.125000e-02
   endloop
 endfacet
 facet normal  9.876883e-01 -1.564345e-01  0.000000e+00
   outer loop
     vertex -2.764495e-01 -6.688068e-01  0.000000e+00
     vertex -2.893092e-01 -7.500000e-01  3.125000e-02
     vertex -2.893092e-01 -7.500000e-01  0.000000e+00
   endloop
 endfacet
 facet normal  9.876883e-01 -1.564345e-01  0.000000e+00
   outer loop
     vertex -2.764495e-01 -6.688068e-01  0.000000e+00
     vertex -2.764495e-01 -6.688068e-01  3.125000e-02
     vertex -2.893092e-01 -7.500000e-01  3.125000e-02
   endloop
 endfacet
 facet normal  8.910065e-01 -4.539905e-01  0.000000e+00
   outer loop
     vertex -2.391291e-01 -5.955614e-01  0.000000e+00
     vertex -2.391291e-01 -5.955614e-01  3.125000e-02
     vertex -2.764495e-01 -6.688068e-01  3.125000e-02
   endloop
 endfacet
 facet normal  8.910065e-01 -4.539905e-01  0.000000e+00
   outer loop
     vertex -2.391291e-01 -5.955614e-01  0.000000e+00
     vertex -2.764495e-01 -6.688068e-01  3.125000e-02
     vertex -2.764495e-01 -6.688068e-01  0.000000e+00
   endloop
 endfacet
 facet normal  7.071068e-01 -7.071068e-01  0.000000e+00
   outer loop
     vertex -1.810011e-01 -5.374334e-01  0.000000e+00
     vertex -1.810011e-01 -5.374334e-01  3.125000e-02
     vertex -2.391291e-01 -5.955614e-01  3.125000e-02
   endloop
 endfacet
 facet normal  7.071068e-01 -7.071068e-01  0.000000e+00
   outer loop
     vertex -1.810011e-01 -5.374334e-01  0.000000e+00
     vertex -2.391291e-01 -5.955614e-01  3.125000e-02
     vertex -2.391291e-01 -5.955614e-01  0.000000e+00
   endloop
 endfacet
 facet normal  4.539905e-01 -8.910065e-01  0.000000e+00
   outer loop
     vertex -1.077557e-01 -5.001130e-01  0.000000e+00
     vertex -1.077557e-01 -5.001130e-01  3.125000e-02
     vertex -1.810011e-01 -5.374334e-01  3.125000e-02
   endloop
 endfacet
 facet normal  4.539905e-01 -8.910065e-01  0.000000e+00
   outer loop
     vertex -1.077557e-01 -5.001130e-01  0.000000e+00
     vertex -1.810011e-01 -5.374334e-01  3.125000e-02
     vertex -1.810011e-01 -5.374334e-01  0.000000e+00
   endloop
 endfacet
 facet normal  1.564345e-01 -9.876883e-01  0.000000e+00
   outer loop
     vertex -2.656250e-02 -4.872533e-01  0.000000e+00
     vertex -2.656250e-02 -4.872533e-01  3.125000e-02
     vertex -1.077557e-01 -5.001130e-01  3.125000e-02
   endloop
 endfacet
 facet normal  1.564345e-01 -9.876883e-01  0.000000e+00
   outer loop
     vertex -2.656250e-02 -4.872533e-01  0.000000e+00
     vertex -1.077557e-01 -5.001130e-01  3.125000e-02
     vertex -1.077557e-01 -5.001130e-01  0.000000e+00
   endloop
 endfacet
 facet normal -1.564345e-01 -9.876883e-01  0.000000e+00
   outer loop
     vertex  5.463070e-02 -5.001130e-01  0.000000e+00
     vertex  5.463070e-02 -5.001130e-01  3.125000e-02
     vertex -2.656250e-02 -4.872533e-01  3.125000e-02
   endloop
 endfacet
 facet normal -1.564345e-01 -9.876883e-01  0.000000e+00
   outer loop
     vertex  5.463070e-02 -5.001130e-01  0.000000e+00
     vertex -2.656250e-02 -4.872533e-01  3.125000e-02
     vertex -2.656250e-02 -4.872533e-01  0.000000e+00
   endloop
 endfacet
 facet normal -4.539905e-01 -8.910065e-01  0.000000e+00
   outer loop
     vertex  1.278761e-01 -5.374334e-01  0.000000e+00
     vertex  1.278761e-01 -5.374334e-01  3.125000e-02
     vertex  5.463070e-02 -5.001130e-01  3.125000e-02
   endloop
 endfacet
 facet normal -4.539905e-01 -8.910065e-01  0.000000e+00
   outer loop
     vertex  1.278761e-01 -5.374334e-01  0.000000e+00
     vertex  5.463070e-02 -5.001130e-01  3.125000e-02
     vertex  5.463070e-02 -5.001130e-01  0.000000e+00
   endloop
 endfacet
 facet normal -7.071068e-01 -7.071068e-01  0.000000e+00
   outer loop
     vertex  1.860041e-01 -5.955614e-01  0.000000e+00
     vertex  1.860041e-01 -5.955614e-01  3.125000e-02
     vertex  1.278761e-01 -5.374334e-01  3.125000e-02
   endloop
 endfacet
 facet normal -7.071068e-01 -7.071068e-01  0.000000e+00
   outer loop
     vertex  1.860041e-01 -5.955614e-01  0.000000e+00
     vertex  1.278761e-01 -5.374334e-01  3.125000e-02
     vertex  1.278761e-01 -5.374334e-01  0.000000e+00
   endloop
 endfacet
 facet normal -8.910065e-01 -4.539905e-01  0.000000e+00
   outer loop
     vertex  2.233245e-01 -6.688068e-01  0.000000e+00
     vertex  2.233245e-01 -6.688068e-01  3.125000e-02
     vertex  1.860041e-01 -5.955614e-01  3.125000e-02
   endloop
 endfacet
 facet normal -8.910065e-01 -4.539905e-01  0.000000e+00
   outer loop
     vertex  2.233245e-01 -6.688068e-01  0.000000e+00
     vertex  1.860041e-01 -5.955614e-01  3.125000e-02
     vertex  1.860041e-01 -5.955614e-01  0.000000e+00
   endloop
 endfacet
 facet normal -9.876883e-01 -1.564345e-01  0.000000e+00
   outer loop
     vertex  2.361842e-01 -7.500000e-01  0.000000e+00
     vertex  2.361842e-01 -7.500000e-01  3.125000e-02
     vertex  2.233245e-01 -6.688068e-01  3.125000e-02
   endloop
 endfacet
 facet normal -9.876883e-01 -1.564345e-01  0.000000e+00
   outer loop
     vertex  2.361842e-01 -7.500000e-01  0.000000e+00
     vertex  2.233245e-01 -6.688068e-01  3.125000e-02
     vertex  2.233245e-01 -6.688068e-01  0.000000e+00
   endloop
 endfacet
 facet normal  0.000000e+00 -1.000000e+00  0.000000e+00
   outer loop
     vertex  3.062500e-01 -7.500000e-01  0.000000e+00
     vertex  2.361842e-01 -7.500000e-01  3.125000e-02
     vertex  2.361842e-01 -7.500000e-01  0.000000e+00
   endloop
 endfacet
 facet normal  0.000000e+00 -1.000000e+00  0.000000e+00
   outer loop
     vertex  3.062500e-01 -7.500000e-01  0.000000e+00
     vertex  3.062500e-01 -7.500000e-01  3.125000e-02
     vertex  2.361842e-01 -7.500000e-01  3.125000e-02
   endloop
 endfacet
 facet normal  1.000000e+00  0.000000e+00  0.000000e+00
   outer loop
     vertex  3.062500e-01  2.072368e-02  0.000000e+00
     vertex  3.062500e-01 -7.500000e-01  3.125000e-02
     vertex  3.062500e-01 -7.500000e-01  0.000000e+00
   endloop
 endfacet
 facet normal  1.000000e+00  0.000000e+00 -0.000000e+00
   outer loop
     vertex  3.062500e-01  2.072368e-02  0.000000e+00
     vertex  3.062500e-01  2.072368e-02  3.125000e-02
     vertex  3.062500e-01 -7.500000e-01  3.125000e-02
   endloop
 endfacet
 facet normal -9.914449e-01  1.305262e-01  0.000000e+00
   outer loop
     vertex -3.480347e-01  1.068619e-01  0.000000e+00
     vertex -3.593750e-01  2.072368e-02  0.000000e+00
     vertex -3.593750e-01  2.072368e-02  3.125000e-02
   endloop
 endfacet
 facet normal -9.914449e-01  1.305262e-01  0.000000e+00
   outer loop
     vertex -3.480347e-01  1.068619e-01  0.000000e+00
     vertex -3.593750e-01  2.072368e-02  3.125000e-02
     vertex -3.480347e-01  1.068619e-01  3.125000e-02
   endloop
 endfacet
 facet normal -9.238795e-01  3.826834e-01  0.000000e+00
   outer loop
     vertex -3.147866e-01  1.871299e-01  0.000000e+00
     vertex -3.480347e-01  1.068619e-01  3.125000e-02
     vertex -3.147866e-01  1.871299e-01  3.125000e-02
   endloop
 endfacet
 facet normal -9.238795e-01  3.826834e-01  0.000000e+00
   outer loop
     vertex -3.147866e-01  1.871299e-01  0.000000e+00
     vertex -3.480347e-01  1.068619e-01  0.000000e+00
     vertex -3.480347e-01  1.068619e-01  3.125000e-02
   endloop
 endfacet
 facet normal -7.933533e-01  6.087614e-01  0.000000e+00
   outer loop
     vertex -2.618965e-01  2.560577e-01  0.000000e+00
     vertex -3.147866e-01  1.871299e-01  3.125000e-02
     vertex -2.618965e-01  2.560577e-01  3.125000e-02
   endloop
 endfacet
 facet normal -7.933533e-01  6.087614e-01  0.000000e+00
   outer loop
     vertex -2.618965e-01  2.560577e-01  0.000000e+00
     vertex -3.147866e-01  1.871299e-01  0.000000e+00
     vertex -3.147866e-01  1.871299e-01  3.125000e-02
   endloop
 endfacet
 facet normal -6.087614e-01  7.933533e-01  0.000000e+00
   outer loop
     vertex -1.929687e-01  3.089478e-01  0.000000e+00
     vertex -2.618965e-01  2.560577e-01  3.125000e-02
     vertex -1.929687e-01  3.089478e-01  3.125000e-02
   endloop
 endfacet
 facet normal -6.087614e-01  7.933533e-01  0.000000e+00
   outer loop
     vertex -1.929687e-01  3.089478e-01  0.000000e+00
     vertex -2.618965e-01  2.560577e-01  0.000000e+00
     vertex -2.618965e-01  2.560577e-01  3.125000e-02
   endloop
 endfacet
 facet normal -3.826834e-01  9.238795e-01  0.000000e+00
   outer loop
     vertex -1.127007e-01  3.421959e-01  0.000000e+00
     vertex -1.929687e-01  3.089478e-01  3.125000e-02
     vertex -1.127007e-01  3.421959e-01  3.125000e-02
   endloop
 endfacet
 facet normal -3.826834e-01  9.238795e-01  0.000000e+00
   outer loop
     vertex -1.127007e-01  3.421959e-01  0.000000e+00
     vertex -1.929687e-01  3.089478e-01  0.000000e+00
     vertex -1.929687e-01  3.089478e-01  3.125000e-02
   endloop
 endfacet
 facet normal -1.305262e-01  9.914449e-01  0.000000e+00
   outer loop
     vertex -2.656250e-02  3.535362e-01  0.000000e+00
     vertex -1.127007e-01  3.421959e-01  3.125000e-02
     vertex -2.656250e-02  3.535362e-01  3.125000e-02
   endloop
 endfacet
 facet normal -1.305262e-01  9.914449e-01  0.000000e+00
   outer loop
     vertex -2.656250e-02  3.535362e-01  0.000000e+00
     vertex -1.127007e-01  3.421959e-01  0.000000e+00
     vertex -1.127007e-01  3.421959e-01  3.125000e-02
   endloop
 endfacet
 facet normal  1.305262e-01  9.914449e-01 -0.000000e+00
   outer loop
     vertex  5.957571e-02  3.421959e-01  0.000000e+00
     vertex -2.656250e-02  3.535362e-01  3.125000e-02
     vertex  5.957571e-02  3.421959e-01  3.125000e-02
   endloop
 endfacet
 facet normal  1.305262e-01  9.914449e-01  0.000000e+00
   outer loop
     vertex  5.957571e-02  3.421959e-01  0.000000e+00
     vertex -2.656250e-02  3.535362e-01  0.000000e+00
     vertex -2.656250e-02  3.535362e-01  3.125000e-02
   endloop
 endfacet
 facet normal  3.826834e-01  9.238795e-01 -0.000000e+00
   outer loop
     vertex  1.398437e-01  3.089478e-01  0.000000e+00
     vertex  5.957571e-02  3.421959e-01  3.125000e-02
     vertex  1.398437e-01  3.089478e-01  3.125000e-02
   endloop
 endfacet
 facet normal  3.826834e-01  9.238795e-01  0.000000e+00
   outer loop
     vertex  1.398437e-01  3.089478e-01  0.000000e+00
     vertex  5.957571e-02  3.421959e-01  0.000000e+00
     vertex  5.957571e-02  3.421959e-01  3.125000e-02
   endloop
 endfacet
 facet normal  6.087614e-01  7.933533e-01 -0.000000e+00
   outer loop
     vertex  2.087715e-01  2.560577e-01  0.000000e+00
     vertex  1.398437e-01  3.089478e-01  3.125000e-02
     vertex  2.087715e-01  2.560577e-01  3.125000e-02
   endloop
 endfacet
 facet normal  6.087614e-01  7.933533e-01  0.000000e+00
   outer loop
     vertex  2.087715e-01  2.560577e-01  0.000000e+00
     vertex  1.398437e-01  3.089478e-01  0.000000e+00
     vertex  1.398437e-01  3.089478e-01  3.125000e-02
   endloop
 endfacet
 facet normal  7.933533e-01  6.087614e-01 -0.000000e+00
   outer loop
     vertex  2.616616e-01  1.871299e-01  0.000000e+00
     vertex  2.087715e-01  2.560577e-01  3.125000e-02
     vertex  2.616616e-01  1.871299e-01  3.125000e-02
   endloop
 endfacet
 facet normal  7.933533e-01  6.087614e-01  0.000000e+00
   outer loop
     vertex  2.616616e-01  1.871299e-01  0.000000e+00
     vertex  2.087715e-01  2.560577e-01  0.000000e+00
     vertex  2.087715e-01  2.560577e-01  3.125000e-02
   endloop
 endfacet
 facet normal  9.238795e-01  3.826834e-01 -0.000000e+00
   outer loop
     vertex  2.949097e-01  1.068619e-01  0.000000e+00
     vertex  2.616616e-01  1.871299e-01  3.125000e-02
     vertex  2.949097e-01  1.068619e-01  3.125000e-02
   endloop
 endfacet
 facet normal  9.238795e-01  3.826834e-01  0.000000e+00
   outer loop
     vertex  2.949097e-01  1.068619e-01  0.000000e+00
     vertex  2.616616e-01  1.871299e-01  0.000000e+00
     vertex  2.616616e-01  1.871299e-01  3.125000e-02
   endloop
 endfacet
 facet normal  9.914449e-01  1.305262e-01 -0.000000e+00
   outer loop
     vertex  3.062500e-01  2.072368e-02  0.000000e+00
     vertex  2.949097e-01  1.068619e-01  3.125000e-02
     vertex  3.062500e-01  2.072368e-02  3.125000e-02
   endloop
 endfacet
 facet normal  9.914449e-01  1.305262e-01  0.000000e+00
   outer loop
     vertex  3.062500e-01  2.072368e-02  0.000000e+00
     vertex  2.949097e-01  1.068619e-01  0.000000e+00
     vertex  2.949097e-01  1.068619e-01  3.125000e-02
   endloop
 endfacet
 facet normal -1.000000e+00  0.000000e+00  0.000000e+00
   outer loop
     vertex -3.593750e-01 -7.500000e-01  0.000000e+00
     vertex -3.593750e-01  2.072368e-02  3.125000e-02
     vertex -3.593750e-01  2.072368e-02  0.000000e+00
   endloop
 endfacet
 facet normal -1.000000e+00  0.000000e+00  0.000000e+00
   outer loop
     vertex -3.593750e-01 -7.500000e-01  0.000000e+00
     vertex -3.593750e-01 -7.500000e-01  3.125000e-02
     vertex -3.593750e-01  2.072368e-02  3.125000e-02
   endloop
 endfacet
 facet normal -4.982277e-01  8.670462e-01  0.000000e+00
   outer loop
     vertex -1.742116e-01 -4.070846e-01  0.000000e+00
     vertex -2.425987e-01 -4.463816e-01  0.000000e+00
     vertex -2.425987e-01 -4.463816e-01  3.125000e-02
   endloop
 endfacet
 facet normal -4.982277e-01  8.670462e-01  0.000000e+00
   outer loop
     vertex -1.742116e-01 -4.070846e-01  0.000000e+00
     vertex -2.425987e-01 -4.463816e-01  3.125000e-02
     vertex -1.742116e-01 -4.070846e-01  3.125000e-02
   endloop
 endfacet
 facet normal -3.078496e-01  9.514350e-01  0.000000e+00
   outer loop
     vertex -9.916855e-02 -3.828034e-01  0.000000e+00
     vertex -1.742116e-01 -4.070846e-01  3.125000e-02
     vertex -9.916855e-02 -3.828034e-01  3.125000e-02
   endloop
 endfacet
 facet normal -3.078496e-01  9.514350e-01  0.000000e+00
   outer loop
     vertex -9.916855e-02 -3.828034e-01  0.000000e+00
     vertex -1.742116e-01 -4.070846e-01  0.000000e+00
     vertex -1.742116e-01 -4.070846e-01  3.125000e-02
   endloop
 endfacet
 facet normal -1.041216e-01  9.945646e-01  0.000000e+00
   outer loop
     vertex -2.072368e-02 -3.745909e-01  0.000000e+00
     vertex -9.916855e-02 -3.828034e-01  3.125000e-02
     vertex -2.072368e-02 -3.745909e-01  3.125000e-02
   endloop
 endfacet
 facet normal -1.041216e-01  9.945646e-01  0.000000e+00
   outer loop
     vertex -2.072368e-02 -3.745909e-01  0.000000e+00
     vertex -9.916855e-02 -3.828034e-01  0.000000e+00
     vertex -9.916855e-02 -3.828034e-01  3.125000e-02
   endloop
 endfacet
 facet normal  1.041216e-01  9.945646e-01 -0.000000e+00
   outer loop
     vertex  5.772119e-02 -3.828034e-01  0.000000e+00
     vertex -2.072368e-02 -3.745909e-01  3.125000e-02
     vertex  5.772119e-02 -3.828034e-01  3.125000e-02
   endloop
 endfacet
 facet normal  1.041216e-01  9.945646e-01  0.000000e+00
   outer loop
     vertex  5.772119e-02 -3.828034e-01  0.000000e+00
     vertex -2.072368e-02 -3.745909e-01  0.000000e+00
     vertex -2.072368e-02 -3.745909e-01  3.125000e-02
   endloop
 endfacet
 facet normal  3.078496e-01  9.514350e-01 -0.000000e+00
   outer loop
     vertex  1.327643e-01 -4.070846e-01  0.000000e+00
     vertex  5.772119e-02 -3.828034e-01  3.125000e-02
     vertex  1.327643e-01 -4.070846e-01  3.125000e-02
   endloop
 endfacet
 facet normal  3.078496e-01  9.514350e-01  0.000000e+00
   outer loop
     vertex  1.327643e-01 -4.070846e-01  0.000000e+00
     vertex  5.772119e-02 -3.828034e-01  0.000000e+00
     vertex  5.772119e-02 -3.828034e-01  3.125000e-02
   endloop
 endfacet
 facet normal  4.982277e-01  8.670462e-01 -0.000000e+00
   outer loop
     vertex  2.011513e-01 -4.463816e-01  0.000000e+00
     vertex  1.327643e-01 -4.070846e-01  3.125000e-02
     vertex  2.011513e-01 -4.463816e-01  3.125000e-02
   endloop
 endfacet
 facet normal  4.982277e-01  8.670462e-01  0.000000e+00
   outer loop
     vertex  2.011513e-01 -4.463816e-01  0.000000e+00
     vertex  1.327643e-01 -4.070846e-01  0.000000e+00
     vertex  1.327643e-01 -4.070846e-01  3.125000e-02
   endloop
 endfacet
 facet normal -1.000000e+00  0.000000e+00  0.000000e+00
   outer loop
     vertex  2.011513e-01  2.072368e-02  0.000000e+00
     vertex  2.011513e-01 -4.463816e-01  0.000000e+00
     vertex  2.011513e-01 -4.463816e-01  3.125000e-02
   endloop
 endfacet
 facet normal -1.000000e+00  0.000000e+00  0.000000e+00
   outer loop
     vertex  2.011513e-01  2.072368e-02  0.000000e+00
     vertex  2.011513e-01 -4.463816e-01  3.125000e-02
     vertex  2.011513e-01  2.072368e-02  3.125000e-02
   endloop
 endfacet
 facet normal  9.807853e-01 -1.950903e-01  0.000000e+00
   outer loop
     vertex -2.257095e-01  1.056316e-01  0.000000e+00
     vertex -2.425987e-01  2.072368e-02  3.125000e-02
     vertex -2.425987e-01  2.072368e-02  0.000000e+00
   endloop
 endfacet
 facet normal  9.807853e-01 -1.950903e-01  0.000000e+00
   outer loop
     vertex -2.257095e-01  1.056316e-01  0.000000e+00
     vertex -2.257095e-01  1.056316e-01  3.125000e-02
     vertex -2.425987e-01  2.072368e-02  3.125000e-02
   endloop
 endfacet
 facet normal  8.314696e-01 -5.555702e-01  0.000000e+00
   outer loop
     vertex -1.776130e-01  1.776130e-01  0.000000e+00
     vertex -1.776130e-01  1.776130e-01  3.125000e-02
     vertex -2.257095e-01  1.056316e-01  3.125000e-02
   endloop
 endfacet
 facet normal  8.314696e-01 -5.555702e-01  0.000000e+00
   outer loop
     vertex -1.776130e-01  1.776130e-01  0.000000e+00
     vertex -2.257095e-01  1.056316e-01  3.125000e-02
     vertex -2.257095e-01  1.056316e-01  0.000000e+00
   endloop
 endfacet
 facet normal  5.555702e-01 -8.314696e-01  0.000000e+00
   outer loop
     vertex -1.056316e-01  2.257095e-01  0.000000e+00
     vertex -1.056316e-01  2.257095e-01  3.125000e-02
     vertex -1.776130e-01  1.776130e-01  3.125000e-02
   endloop
 endfacet
 facet normal  5.555702e-01 -8.314696e-01  0.000000e+00
   outer loop
     vertex -1.056316e-01  2.257095e-01  0.000000e+00
     vertex -1.776130e-01  1.776130e-01  3.125000e-02
     vertex -1.776130e-01  1.776130e-01  0.000000e+00
   endloop
 endfacet
 facet normal  1.950903e-01 -9.807853e-01  0.000000e+00
   outer loop
     vertex -2.072368e-02  2.425987e-01  0.000000e+00
     vertex -2.072368e-02  2.425987e-01  3.125000e-02
     vertex -1.056316e-01  2.257095e-01  3.125000e-02
   endloop
 endfacet
 facet normal  1.950903e-01 -9.807853e-01  0.000000e+00
   outer loop
     vertex -2.072368e-02  2.425987e-01  0.000000e+00
     vertex -1.056316e-01  2.257095e-01  3.125000e-02
     vertex -1.056316e-01  2.257095e-01  0.000000e+00
   endloop
 endfacet
 facet normal -1.950903e-01 -9.807853e-01  0.000000e+00
   outer loop
     vertex  6.418420e-02  2.257095e-01  0.000000e+00
     vertex  6.418420e-02  2.257095e-01  3.125000e-02
     vertex -2.072368e-02  2.425987e-01  3.125000e-02
   endloop
 endfacet
 facet normal -1.950903e-01 -9.807853e-01  0.000000e+00
   outer loop
     vertex  6.418420e-02  2.257095e-01  0.000000e+00
     vertex -2.072368e-02  2.425987e-01  3.125000e-02
     vertex -2.072368e-02  2.425987e-01  0.000000e+00
   endloop
 endfacet
 facet normal -5.555702e-01 -8.314696e-01  0.000000e+00
   outer loop
     vertex  1.361656e-01  1.776130e-01  0.000000e+00
     vertex  1.361656e-01  1.776130e-01  3.125000e-02
     vertex  6.418420e-02  2.257095e-01  3.125000e-02
   endloop
 endfacet
 facet normal -5.555702e-01 -8.314696e-01  0.000000e+00
   outer loop
     vertex  1.361656e-01  1.776130e-01  0.000000e+00
     vertex  6.418420e-02  2.257095e-01  3.125000e-02
     vertex  6.418420e-02  2.257095e-01  0.000000e+00
   endloop
 endfacet
 facet normal -8.314696e-01 -5.555702e-01  0.000000e+00
   outer loop
     vertex  1.842621e-01  1.056316e-01  0.000000e+00
     vertex  1.842621e-01  1.056316e-01  3.125000e-02
     vertex  1.361656e-01  1.776130e-01  3.125000e-02
   endloop
 endfacet
 facet normal -8.314696e-01 -5.555702e-01  0.000000e+00
   outer loop
     vertex  1.842621e-01  1.056316e-01  0.000000e+00
     vertex  1.361656e-01  1.776130e-01  3.125000e-02
     vertex  1.361656e-01  1.776130e-01  0.000000e+00
   endloop
 endfacet
 facet normal -9.807853e-01 -1.950903e-01  0.000000e+00
   outer loop
     vertex  2.011513e-01  2.072368e-02  0.000000e+00
     vertex  2.011513e-01  2.072368e-02  3.125000e-02
     vertex  1.842621e-01  1.056316e-01  3.125000e-02
   endloop
 endfacet
 facet normal -9.807853e-01 -1.950903e-01  0.000000e+00
   outer loop
     vertex  2.011513e-01  2.072368e-02  0.000000e+00
     vertex  1.842621e-01  1.056316e-01  3.125000e-02
     vertex  1.842621e-01  1.056316e-01  0.000000e+00
   endloop
 endfacet
 facet normal  1.000000e+00  0.000000e+00  0.000000e+00
   outer loop
     vertex -2.425987e-01 -4.463816e-01  0.000000e+00
     vertex -2.425987e-01  2.072368e-02  0.000000e+00
     vertex -2.425987e-01  2.072368e-02  3.125000e-02
   endloop
 endfacet
 facet normal  1.000000e+00  0.000000e+00  0.000000e+00
   outer loop
     vertex -2.425987e-01 -4.463816e-01  0.000000e+00
     vertex -2.425987e-01  2.072368e-02  3.125000e-02
     vertex -2.425987e-01 -4.463816e-01  3.125000e-02
   endloop
 endfacet
 facet normal  0.000000e+00  0.000000e+00 -1.000000e+00
   outer loop
     vertex -2.764495e-01 -6.688068e-01  0.000000e+00
     vertex -2.893092e-01 -7.500000e-01  0.000000e+00
     vertex -3.593750e-01 -7.500000e-01  0.000000e+00
   endloop
 endfacet
 facet normal  0.000000e+00 -0.000000e+00 -1.000000e+00
   outer loop
     vertex -2.425987e-01 -4.463816e-01  0.000000e+00
     vertex -2.391291e-01 -5.955614e-01  0.000000e+00
     vertex -2.764495e-01 -6.688068e-01  0.000000e+00
   endloop
 endfacet
 facet normal  0.000000e+00  0.000000e+00 -1.000000e+00
   outer loop
     vertex -2.425987e-01 -4.463816e-01  0.000000e+00
     vertex -1.810011e-01 -5.374334e-01  0.000000e+00
     vertex -2.391291e-01 -5.955614e-01  0.000000e+00
   endloop
 endfacet
 facet normal  0.000000e+00  0.000000e+00 -1.000000e+00
   outer loop
     vertex -2.425987e-01 -4.463816e-01  0.000000e+00
     vertex -2.764495e-01 -6.688068e-01  0.000000e+00
     vertex -3.593750e-01 -7.500000e-01  0.000000e+00
   endloop
 endfacet
 facet normal  0.000000e+00 -0.000000e+00 -1.000000e+00
   outer loop
     vertex -1.742116e-01 -4.070846e-01  0.000000e+00
     vertex -1.077557e-01 -5.001130e-01  0.000000e+00
     vertex -1.810011e-01 -5.374334e-01  0.000000e+00
   endloop
 endfacet
 facet normal  0.000000e+00  0.000000e+00 -1.000000e+00
   outer loop
     vertex -1.742116e-01 -4.070846e-01  0.000000e+00
     vertex -1.810011e-01 -5.374334e-01  0.000000e+00
     vertex -2.425987e-01 -4.463816e-01  0.000000e+00
   endloop
 endfacet
 facet normal  0.000000e+00 -0.000000e+00 -1.000000e+00
   outer loop
     vertex -9.916855e-02 -3.828034e-01  0.000000e+00
     vertex -2.656250e-02 -4.872533e-01  0.000000e+00
     vertex -1.077557e-01 -5.001130e-01  0.000000e+00
   endloop
 endfacet
 facet normal  0.000000e+00  0.000000e+00 -1.000000e+00
   outer loop
     vertex -9.916855e-02 -3.828034e-01  0.000000e+00
     vertex -1.077557e-01 -5.001130e-01  0.000000e+00
     vertex -1.742116e-01 -4.070846e-01  0.000000e+00
   endloop
 endfacet
 facet normal  0.000000e+00  0.000000e+00 -1.000000e+00
   outer loop
     vertex  3.062500e-01 -7.500000e-01  0.000000e+00
     vertex  2.361842e-01 -7.500000e-01  0.000000e+00
     vertex  2.233245e-01 -6.688068e-01  0.000000e+00
   endloop
 endfacet
 facet normal  0.000000e+00  0.000000e+00 -1.000000e+00
   outer loop
     vertex -2.072368e-02 -3.745909e-01  0.000000e+00
     vertex -2.656250e-02 -4.872533e-01  0.000000e+00
     vertex -9.916855e-02 -3.828034e-01  0.000000e+00
   endloop
 endfacet
 facet normal  0.000000e+00  0.000000e+00 -1.000000e+00
   outer loop
     vertex -3.593750e-01  2.072368e-02  0.000000e+00
     vertex -2.425987e-01 -4.463816e-01  0.000000e+00
     vertex -3.593750e-01 -7.500000e-01  0.000000e+00
   endloop
 endfacet
 facet normal  0.000000e+00  0.000000e+00 -1.000000e+00
   outer loop
     vertex  5.772119e-02 -3.828034e-01  0.000000e+00
     vertex  5.463070e-02 -5.001130e-01  0.000000e+00
     vertex -2.656250e-02 -4.872533e-01  0.000000e+00
   endloop
 endfacet
 facet normal -0.000000e+00  0.000000e+00 -1.000000e+00
   outer loop
     vertex  5.772119e-02 -3.828034e-01  0.000000e+00
     vertex -2.656250e-02 -4.872533e-01  0.000000e+00
     vertex -2.072368e-02 -3.745909e-01  0.000000e+00
   endloop
 endfacet
 facet normal  0.000000e+00  0.000000e+00 -1.000000e+00
   outer loop
     vertex  1.327643e-01 -4.070846e-01  0.000000e+00
     vertex  1.278761e-01 -5.374334e-01  0.000000e+00
     vertex  5.463070e-02 -5.001130e-01  0.000000e+00
   endloop
 endfacet
 facet normal -0.000000e+00  0.000000e+00 -1.000000e+00
   outer loop
     vertex  1.327643e-01 -4.070846e-01  0.000000e+00
     vertex  5.463070e-02 -5.001130e-01  0.000000e+00
     vertex  5.772119e-02 -3.828034e-01  0.000000e+00
   endloop
 endfacet
 facet normal  0.000000e+00  0.000000e+00 -1.000000e+00
   outer loop
     vertex  2.011513e-01 -4.463816e-01  0.000000e+00
     vertex  1.860041e-01 -5.955614e-01  0.000000e+00
     vertex  1.278761e-01 -5.374334e-01  0.000000e+00
   endloop
 endfacet
 facet normal  0.000000e+00 -0.000000e+00 -1.000000e+00
   outer loop
     vertex  2.011513e-01 -4.463816e-01  0.000000e+00
     vertex  2.233245e-01 -6.688068e-01  0.000000e+00
     vertex  1.860041e-01 -5.955614e-01  0.000000e+00
   endloop
 endfacet
 facet normal  0.000000e+00  0.000000e+00 -1.000000e+00
   outer loop
     vertex  2.011513e-01 -4.463816e-01  0.000000e+00
     vertex  3.062500e-01 -7.500000e-01  0.000000e+00
     vertex  2.233245e-01 -6.688068e-01  0.000000e+00
   endloop
 endfacet
 facet normal -0.000000e+00  0.000000e+00 -1.000000e+00
   outer loop
     vertex  2.011513e-01 -4.463816e-01  0.000000e+00
     vertex  1.278761e-01 -5.374334e-01  0.000000e+00
     vertex  1.327643e-01 -4.070846e-01  0.000000e+00
   endloop
 endfacet
 facet normal  0.000000e+00  0.000000e+00 -1.000000e+00
   outer loop
     vertex -2.425987e-01  2.072368e-02  0.000000e+00
     vertex -3.593750e-01  2.072368e-02  0.000000e+00
     vertex -3.480347e-01  1.068619e-01  0.000000e+00
   endloop
 endfacet
 facet normal  0.000000e+00  0.000000e+00 -1.000000e+00
   outer loop
     vertex -2.257095e-01  1.056316e-01  0.000000e+00
     vertex -3.480347e-01  1.068619e-01  0.000000e+00
     vertex -3.147866e-01  1.871299e-01  0.000000e+00
   endloop
 endfacet
 facet normal -0.000000e+00  0.000000e+00 -1.000000e+00
   outer loop
     vertex -2.257095e-01  1.056316e-01  0.000000e+00
     vertex -2.425987e-01  2.072368e-02  0.000000e+00
     vertex -3.480347e-01  1.068619e-01  0.000000e+00
   endloop
 endfacet
 facet normal  0.000000e+00  0.000000e+00 -1.000000e+00
   outer loop
     vertex -1.776130e-01  1.776130e-01  0.000000e+00
     vertex -3.147866e-01  1.871299e-01  0.000000e+00
     vertex -2.618965e-01  2.560577e-01  0.000000e+00
   endloop
 endfacet
 facet normal -0.000000e+00  0.000000e+00 -1.000000e+00
   outer loop
     vertex -1.776130e-01  1.776130e-01  0.000000e+00
     vertex -2.257095e-01  1.056316e-01  0.000000e+00
     vertex -3.147866e-01  1.871299e-01  0.000000e+00
   endloop
 endfacet
 facet normal  0.000000e+00 -0.000000e+00 -1.000000e+00
   outer loop
     vertex -1.929687e-01  3.089478e-01  0.000000e+00
     vertex -1.776130e-01  1.776130e-01  0.000000e+00
     vertex -2.618965e-01  2.560577e-01  0.000000e+00
   endloop
 endfacet
 facet normal -0.000000e+00  0.000000e+00 -1.000000e+00
   outer loop
     vertex -1.056316e-01  2.257095e-01  0.000000e+00
     vertex -1.776130e-01  1.776130e-01  0.000000e+00
     vertex -1.929687e-01  3.089478e-01  0.000000e+00
   endloop
 endfacet
 facet normal  0.000000e+00 -0.000000e+00 -1.000000e+00
   outer loop
     vertex -1.127007e-01  3.421959e-01  0.000000e+00
     vertex -1.056316e-01  2.257095e-01  0.000000e+00
     vertex -1.929687e-01  3.089478e-01  0.000000e+00
   endloop
 endfacet
 facet normal  0.000000e+00  0.000000e+00 -1.000000e+00
   outer loop
     vertex -1.127007e-01  3.421959e-01  0.000000e+00
     vertex -2.072368e-02  2.425987e-01  0.000000e+00
     vertex -1.056316e-01  2.257095e-01  0.000000e+00
   endloop
 endfacet
 facet normal  0.000000e+00 -0.000000e+00 -1.000000e+00
   outer loop
     vertex -2.656250e-02  3.535362e-01  0.000000e+00
     vertex -2.072368e-02  2.425987e-01  0.000000e+00
     vertex -1.127007e-01  3.421959e-01  0.000000e+00
   endloop
 endfacet
 facet normal  0.000000e+00 -0.000000e+00 -1.000000e+00
   outer loop
     vertex  3.062500e-01  2.072368e-02  0.000000e+00
     vertex  3.062500e-01 -7.500000e-01  0.000000e+00
     vertex  2.011513e-01 -4.463816e-01  0.000000e+00
   endloop
 endfacet
 facet normal -0.000000e+00  0.000000e+00 -1.000000e+00
   outer loop
     vertex  5.957571e-02  3.421959e-01  0.000000e+00
     vertex -2.072368e-02  2.425987e-01  0.000000e+00
     vertex -2.656250e-02  3.535362e-01  0.000000e+00
   endloop
 endfacet
 facet normal  0.000000e+00 -0.000000e+00 -1.000000e+00
   outer loop
     vertex  5.957571e-02  3.421959e-01  0.000000e+00
     vertex  6.418420e-02  2.257095e-01  0.000000e+00
     vertex -2.072368e-02  2.425987e-01  0.000000e+00
   endloop
 endfacet
 facet normal  0.000000e+00 -0.000000e+00 -1.000000e+00
   outer loop
     vertex  2.949097e-01  1.068619e-01  0.000000e+00
     vertex  3.062500e-01  2.072368e-02  0.000000e+00
     vertex  2.011513e-01  2.072368e-02  0.000000e+00
   endloop
 endfacet
 facet normal  0.000000e+00  0.000000e+00 -1.000000e+00
   outer loop
     vertex  2.949097e-01  1.068619e-01  0.000000e+00
     vertex  2.011513e-01  2.072368e-02  0.000000e+00
     vertex  1.842621e-01  1.056316e-01  0.000000e+00
   endloop
 endfacet
 facet normal -0.000000e+00  0.000000e+00 -1.000000e+00
   outer loop
     vertex  1.398437e-01  3.089478e-01  0.000000e+00
     vertex  6.418420e-02  2.257095e-01  0.000000e+00
     vertex  5.957571e-02  3.421959e-01  0.000000e+00
   endloop
 endfacet
 facet normal  0.000000e+00  0.000000e+00 -1.000000e+00
   outer loop
     vertex  1.398437e-01  3.089478e-01  0.000000e+00
     vertex  1.361656e-01  1.776130e-01  0.000000e+00
     vertex  6.418420e-02  2.257095e-01  0.000000e+00
   endloop
 endfacet
 facet normal  0.000000e+00 -0.000000e+00 -1.000000e+00
   outer loop
     vertex  2.616616e-01  1.871299e-01  0.000000e+00
     vertex  2.949097e-01  1.068619e-01  0.000000e+00
     vertex  1.842621e-01  1.056316e-01  0.000000e+00
   endloop
 endfacet
 facet normal  0.000000e+00  0.000000e+00 -1.000000e+00
   outer loop
     vertex  2.616616e-01  1.871299e-01  0.000000e+00
     vertex  1.842621e-01  1.056316e-01  0.000000e+00
     vertex  1.361656e-01  1.776130e-01  0.000000e+00
   endloop
 endfacet
 facet normal -0.000000e+00  0.000000e+00 -1.000000e+00
   outer loop
     vertex  2.087715e-01  2.560577e-01  0.000000e+00
     vertex  1.361656e-01  1.776130e-01  0.000000e+00
     vertex  1.398437e-01  3.089478e-01  0.000000e+00
   endloop
 endfacet
 facet normal  0.000000e+00 -0.000000e+00 -1.000000e+00
   outer loop
     vertex  2.087715e-01  2.560577e-01  0.000000e+00
     vertex  2.616616e-01  1.871299e-01  0.000000e+00
     vertex  1.361656e-01  1.776130e-01  0.000000e+00
   endloop
 endfacet
 facet normal  0.000000e+00  0.000000e+00 -1.000000e+00
   outer loop
     vertex -2.425987e-01 -4.463816e-01  0.000000e+00
     vertex -3.593750e-01  2.072368e-02  0.000000e+00
     vertex -2.425987e-01  2.072368e-02  0.000000e+00
   endloop
 endfacet
 facet normal  0.000000e+00  0.000000e+00 -1.000000e+00
   outer loop
     vertex  2.011513e-01  2.072368e-02  0.000000e+00
     vertex  3.062500e-01  2.072368e-02  0.000000e+00
     vertex  2.011513e-01 -4.463816e-01  0.000000e+00
   endloop
 endfacet
 facet normal  0.000000e+00  0.000000e+00  1.000000e+00
   outer loop
     vertex -2.764495e-01 -6.688068e-01  3.125000e-02
     vertex -3.593750e-01 -7.500000e-01  3.125000e-02
     vertex -2.893092e-01 -7.500000e-01  3.125000e-02
   endloop
 endfacet
 facet normal  0.000000e+00  0.000000e+00  1.000000e+00
   outer loop
     vertex -2.425987e-01 -4.463816e-01  3.125000e-02
     vertex -2.764495e-01 -6.688068e-01  3.125000e-02
     vertex -2.391291e-01 -5.955614e-01  3.125000e-02
   endloop
 endfacet
 facet normal  0.000000e+00  0.000000e+00  1.000000e+00
   outer loop
     vertex -2.425987e-01 -4.463816e-01  3.125000e-02
     vertex -2.391291e-01 -5.955614e-01  3.125000e-02
     vertex -1.810011e-01 -5.374334e-01  3.125000e-02
   endloop
 endfacet
 facet normal  0.000000e+00  0.000000e+00  1.000000e+00
   outer loop
     vertex -2.425987e-01 -4.463816e-01  3.125000e-02
     vertex -3.593750e-01 -7.500000e-01  3.125000e-02
     vertex -2.764495e-01 -6.688068e-01  3.125000e-02
   endloop
 endfacet
 facet normal  0.000000e+00  0.000000e+00  1.000000e+00
   outer loop
     vertex -1.742116e-01 -4.070846e-01  3.125000e-02
     vertex -1.810011e-01 -5.374334e-01  3.125000e-02
     vertex -1.077557e-01 -5.001130e-01  3.125000e-02
   endloop
 endfacet
 facet normal  0.000000e+00  0.000000e+00  1.000000e+00
   outer loop
     vertex -1.742116e-01 -4.070846e-01  3.125000e-02
     vertex -2.425987e-01 -4.463816e-01  3.125000e-02
     vertex -1.810011e-01 -5.374334e-01  3.125000e-02
   endloop
 endfacet
 facet normal  0.000000e+00  0.000000e+00  1.000000e+00
   outer loop
     vertex -9.916855e-02 -3.828034e-01  3.125000e-02
     vertex -1.077557e-01 -5.001130e-01  3.125000e-02
     vertex -2.656250e-02 -4.872533e-01  3.125000e-02
   endloop
 endfacet
 facet normal  0.000000e+00  0.000000e+00  1.000000e+00
   outer loop
     vertex -9.916855e-02 -3.828034e-01  3.125000e-02
     vertex -1.742116e-01 -4.070846e-01  3.125000e-02
     vertex -1.077557e-01 -5.001130e-01  3.125000e-02
   endloop
 endfacet
 facet normal  0.000000e+00  0.000000e+00  1.000000e+00
   outer loop
     vertex  3.062500e-01 -7.500000e-01  3.125000e-02
     vertex  2.233245e-01 -6.688068e-01  3.125000e-02
     vertex  2.361842e-01 -7.500000e-01  3.125000e-02
   endloop
 endfacet
 facet normal  0.000000e+00  0.000000e+00  1.000000e+00
   outer loop
     vertex -2.072368e-02 -3.745909e-01  3.125000e-02
     vertex -9.916855e-02 -3.828034e-01  3.125000e-02
     vertex -2.656250e-02 -4.872533e-01  3.125000e-02
   endloop
 endfacet
 facet normal  0.000000e+00  0.000000e+00  1.000000e+00
   outer loop
     vertex -3.593750e-01  2.072368e-02  3.125000e-02
     vertex -3.593750e-01 -7.500000e-01  3.125000e-02
     vertex -2.425987e-01 -4.463816e-01  3.125000e-02
   endloop
 endfacet
 facet normal  0.000000e+00  0.000000e+00  1.000000e+00
   outer loop
     vertex  5.772119e-02 -3.828034e-01  3.125000e-02
     vertex -2.656250e-02 -4.872533e-01  3.125000e-02
     vertex  5.463070e-02 -5.001130e-01  3.125000e-02
   endloop
 endfacet
 facet normal  0.000000e+00  0.000000e+00  1.000000e+00
   outer loop
     vertex  5.772119e-02 -3.828034e-01  3.125000e-02
     vertex -2.072368e-02 -3.745909e-01  3.125000e-02
     vertex -2.656250e-02 -4.872533e-01  3.125000e-02
   endloop
 endfacet
 facet normal  0.000000e+00  0.000000e+00  1.000000e+00
   outer loop
     vertex  1.327643e-01 -4.070846e-01  3.125000e-02
     vertex  5.463070e-02 -5.001130e-01  3.125000e-02
     vertex  1.278761e-01 -5.374334e-01  3.125000e-02
   endloop
 endfacet
 facet normal  0.000000e+00  0.000000e+00  1.000000e+00
   outer loop
     vertex  1.327643e-01 -4.070846e-01  3.125000e-02
     vertex  5.772119e-02 -3.828034e-01  3.125000e-02
     vertex  5.463070e-02 -5.001130e-01  3.125000e-02
   endloop
 endfacet
 facet normal  0.000000e+00  0.000000e+00  1.000000e+00
   outer loop
     vertex  2.011513e-01 -4.463816e-01  3.125000e-02
     vertex  1.278761e-01 -5.374334e-01  3.125000e-02
     vertex  1.860041e-01 -5.955614e-01  3.125000e-02
   endloop
 endfacet
 facet normal  0.000000e+00  0.000000e+00  1.000000e+00
   outer loop
     vertex  2.011513e-01 -4.463816e-01  3.125000e-02
     vertex  1.860041e-01 -5.955614e-01  3.125000e-02
     vertex  2.233245e-01 -6.688068e-01  3.125000e-02
   endloop
 endfacet
 facet normal  0.000000e+00  0.000000e+00  1.000000e+00
   outer loop
     vertex  2.011513e-01 -4.463816e-01  3.125000e-02
     vertex  2.233245e-01 -6.688068e-01  3.125000e-02
     vertex  3.062500e-01 -7.500000e-01  3.125000e-02
   endloop
 endfacet
 facet normal  0.000000e+00  0.000000e+00  1.000000e+00
   outer loop
     vertex  2.011513e-01 -4.463816e-01  3.125000e-02
     vertex  1.327643e-01 -4.070846e-01  3.125000e-02
     vertex  1.278761e-01 -5.374334e-01  3.125000e-02
   endloop
 endfacet
 facet normal  0.000000e+00  0.000000e+00  1.000000e+00
   outer loop
     vertex -2.425987e-01  2.072368e-02  3.125000e-02
     vertex -3.480347e-01  1.068619e-01  3.125000e-02
     vertex -3.593750e-01  2.072368e-02  3.125000e-02
   endloop
 endfacet
 facet normal  0.000000e+00  0.000000e+00  1.000000e+00
   outer loop
     vertex -2.257095e-01  1.056316e-01  3.125000e-02
     vertex -3.147866e-01  1.871299e-01  3.125000e-02
     vertex -3.480347e-01  1.068619e-01  3.125000e-02
   endloop
 endfacet
 facet normal  0.000000e+00  0.000000e+00  1.000000e+00
   outer loop
     vertex -2.257095e-01  1.056316e-01  3.125000e-02
     vertex -3.480347e-01  1.068619e-01  3.125000e-02
     vertex -2.425987e-01  2.072368e-02  3.125000e-02
   endloop
 endfacet
 facet normal  0.000000e+00  0.000000e+00  1.000000e+00
   outer loop
     vertex -1.776130e-01  1.776130e-01  3.125000e-02
     vertex -2.618965e-01  2.560577e-01  3.125000e-02
     vertex -3.147866e-01  1.871299e-01  3.125000e-02
   endloop
 endfacet
 facet normal  0.000000e+00  0.000000e+00  1.000000e+00
   outer loop
     vertex -1.776130e-01  1.776130e-01  3.125000e-02
     vertex -3.147866e-01  1.871299e-01  3.125000e-02
     vertex -2.257095e-01  1.056316e-01  3.125000e-02
   endloop
 endfacet
 facet normal  0.000000e+00  0.000000e+00  1.000000e+00
   outer loop
     vertex -1.929687e-01  3.089478e-01  3.125000e-02
     vertex -2.618965e-01  2.560577e-01  3.125000e-02
     vertex -1.776130e-01  1.776130e-01  3.125000e-02
   endloop
 endfacet
 facet normal  0.000000e+00  0.000000e+00  1.000000e+00
   outer loop
     vertex -1.056316e-01  2.257095e-01  3.125000e-02
     vertex -1.929687e-01  3.089478e-01  3.125000e-02
     vertex -1.776130e-01  1.776130e-01  3.125000e-02
   endloop
 endfacet
 facet normal  0.000000e+00  0.000000e+00  1.000000e+00
   outer loop
     vertex -1.127007e-01  3.421959e-01  3.125000e-02
     vertex -1.929687e-01  3.089478e-01  3.125000e-02
     vertex -1.056316e-01  2.257095e-01  3.125000e-02
   endloop
 endfacet
 facet normal  0.000000e+00  0.000000e+00  1.000000e+00
   outer loop
     vertex -1.127007e-01  3.421959e-01  3.125000e-02
     vertex -1.056316e-01  2.257095e-01  3.125000e-02
     vertex -2.072368e-02  2.425987e-01  3.125000e-02
   endloop
 endfacet
 facet normal  0.000000e+00  0.000000e+00  1.000000e+00
   outer loop
     vertex -2.656250e-02  3.535362e-01  3.125000e-02
     vertex -1.127007e-01  3.421959e-01  3.125000e-02
     vertex -2.072368e-02  2.425987e-01  3.125000e-02
   endloop
 endfacet
 facet normal  0.000000e+00  0.000000e+00  1.000000e+00
   outer loop
     vertex  3.062500e-01  2.072368e-02  3.125000e-02
     vertex  2.011513e-01 -4.463816e-01  3.125000e-02
     vertex  3.062500e-01 -7.500000e-01  3.125000e-02
   endloop
 endfacet
 facet normal  0.000000e+00  0.000000e+00  1.000000e+00
   outer loop
     vertex  5.957571e-02  3.421959e-01  3.125000e-02
     vertex -2.656250e-02  3.535362e-01  3.125000e-02
     vertex -2.072368e-02  2.425987e-01  3.125000e-02
   endloop
 endfacet
 facet normal  0.000000e+00  0.000000e+00  1.000000e+00
   outer loop
     vertex  5.957571e-02  3.421959e-01  3.125000e-02
     vertex -2.072368e-02  2.425987e-01  3.125000e-02
     vertex  6.418420e-02  2.257095e-01  3.125000e-02
   endloop
 endfacet
 facet normal  0.000000e+00  0.000000e+00  1.000000e+00
   outer loop
     vertex  2.949097e-01  1.068619e-01  3.125000e-02
     vertex  2.011513e-01  2.072368e-02  3.125000e-02
     vertex  3.062500e-01  2.072368e-02  3.125000e-02
   endloop
 endfacet
 facet normal  0.000000e+00  0.000000e+00  1.000000e+00
   outer loop
     vertex  2.949097e-01  1.068619e-01  3.125000e-02
     vertex  1.842621e-01  1.056316e-01  3.125000e-02
     vertex  2.011513e-01  2.072368e-02  3.125000e-02
   endloop
 endfacet
 facet normal  0.000000e+00  0.000000e+00  1.000000e+00
   outer loop
     vertex  1.398437e-01  3.089478e-01  3.125000e-02
     vertex  5.957571e-02  3.421959e-01  3.125000e-02
     vertex  6.418420e-02  2.257095e-01  3.125000e-02
   endloop
 endfacet
 facet normal  0.000000e+00  0.000000e+00  1.000000e+00
   outer loop
     vertex  1.398437e-01  3.089478e-01  3.125000e-02
     vertex  6.418420e-02  2.257095e-01  3.125000e-02
     vertex  1.361656e-01  1.776130e-01  3.125000e-02
   endloop
 endfacet
 facet normal  0.000000e+00  0.000000e+00  1.000000e+00
   outer loop
     vertex  2.616616e-01  1.871299e-01  3.125000e-02
     vertex  1.842621e-01  1.056316e-01  3.125000e-02
     vertex  2.949097e-01  1.068619e-01  3.125000e-02
   endloop
 endfacet
 facet normal  0.000000e+00  0.000000e+00  1.000000e+00
   outer loop
     vertex  2.616616e-01  1.871299e-01  3.125000e-02
     vertex  1.361656e-01  1.776130e-01  3.125000e-02
     vertex  1.842621e-01  1.056316e-01  3.125000e-02
   endloop
 endfacet
 facet normal  0.000000e+00  0.000000e+00  1.000000e+00
   outer loop
     vertex  2.087715e-01  2.560577e-01  3.125000e-02
     vertex  1.398437e-01  3.089478e-01  3.125000e-02
     vertex  1.361656e-01  1.776130e-01  3.125000e-02
   endloop
 endfacet
 facet normal  0.000000e+00  0.000000e+00  1.000000e+00
   outer loop
     vertex  2.087715e-01  2.560577e-01  3.125000e-02
     vertex  1.361656e-01  1.776130e-01  3.125000e-02
     vertex  2.616616e-01  1.871299e-01  3.125000e-02
   endloop
 endfacet
 facet normal  0.000000e+00 -0.000000e+00  1.000000e+00
   outer loop
     vertex -2.425987e-01 -4.463816e-01  3.125000e-02
     vertex -2.425987e-01  2.072368e-02  3.125000e-02
     vertex -3.593750e-01  2.072368e-02  3.125000e-02
   endloop
 endfacet
 facet normal -0.000000e+00  0.000000e+00  1.000000e+00
   outer loop
     vertex  2.011513e-01  2.072368e-02  3.125000e-02
     vertex  2.011513e-01 -4.463816e-01  3.125000e-02
     vertex  3.062500e-01  2.072368e-02  3.125000e-02
   endloop
 endfacet
endsolid
