solid 
 facet normal -1.205367e-01  0.000000e+00 -9.927089e-01
   outer loop
     vertex -1.337252e-01 -7.521452e-18 -5.672344e-01
     vertex  6.085526e-03  0.000000e+00 -5.842105e-01
     vertex  6.085526e-03 -6.406250e-01 -5.842105e-01
   endloop
 endfacet
 facet normal -1.205367e-01 -0.000000e+00 -9.927089e-01
   outer loop
     vertex -1.337252e-01 -7.521452e-18 -5.672344e-01
     vertex  6.085526e-03 -6.406250e-01 -5.842105e-01
     vertex -1.337252e-01 -6.406250e-01 -5.672344e-01
   endloop
 endfacet
 facet normal -3.546049e-01 -0.000000e+00 -9.350162e-01
   outer loop
     vertex -2.654106e-01 -1.252681e-17 -5.172927e-01
     vertex -1.337252e-01 -6.406250e-01 -5.672344e-01
     vertex -2.654106e-01 -6.406250e-01 -5.172927e-01
   endloop
 endfacet
 facet normal -3.546049e-01  0.000000e+00 -9.350162e-01
   outer loop
     vertex -2.654106e-01 -1.252681e-17 -5.172927e-01
     vertex -1.337252e-01 -7.521452e-18 -5.672344e-01
     vertex -1.337252e-01 -6.406250e-01 -5.672344e-01
   endloop
 endfacet
 facet normal -5.680647e-01 -7.131283e-17 -8.229839e-01
   outer loop
     vertex -3.813177e-01 -1.472519e-17 -4.372879e-01
     vertex -2.654106e-01 -6.406250e-01 -5.172927e-01
     vertex -3.813177e-01 -6.406250e-01 -4.372879e-01
   endloop
 endfacet
 facet normal -5.680647e-01  0.000000e+00 -8.229839e-01
   outer loop
     vertex -3.813177e-01 -1.472519e-17 -4.372879e-01
     vertex -2.654106e-01 -1.252681e-17 -5.172927e-01
     vertex -2.654106e-01 -6.406250e-01 -5.172927e-01
   endloop
 endfacet
 facet normal -7.485107e-01 -5.746061e-17 -6.631227e-01
   outer loop
     vertex -4.747103e-01 -1.398882e-17 -3.318694e-01
     vertex -3.813177e-01 -6.406250e-01 -4.372879e-01
     vertex -4.747103e-01 -6.406250e-01 -3.318694e-01
   endloop
 endfacet
 facet normal -7.485107e-01 -5.768050e-17 -6.631227e-01
   outer loop
     vertex -4.747103e-01 -1.398882e-17 -3.318694e-01
     vertex -3.813177e-01 -1.472519e-17 -4.372879e-01
     vertex -3.813177e-01 -6.406250e-01 -4.372879e-01
   endloop
 endfacet
 facet normal -8.854560e-01 -2.013449e-17 -4.647232e-01
   outer loop
     vertex -5.401608e-01 -1.036049e-17 -2.071639e-01
     vertex -4.747103e-01 -6.406250e-01 -3.318694e-01
     vertex -5.401608e-01 -6.406250e-01 -2.071639e-01
   endloop
 endfacet
 facet normal -8.854560e-01 -5.768050e-17 -4.647232e-01
   outer loop
     vertex -5.401608e-01 -1.036049e-17 -2.071639e-01
     vertex -4.747103e-01 -1.398882e-17 -3.318694e-01
     vertex -4.747103e-01 -6.406250e-01 -3.318694e-01
   endloop
 endfacet
 facet normal -9.709418e-01 -1.555281e-17 -2.393157e-01
   outer loop
     vertex -5.738654e-01 -4.051085e-18 -7.041880e-02
     vertex -5.401608e-01 -6.406250e-01 -2.071639e-01
     vertex -5.738654e-01 -6.406250e-01 -7.041880e-02
   endloop
 endfacet
 facet normal -9.709418e-01 -9.613417e-18 -2.393157e-01
   outer loop
     vertex -5.738654e-01 -4.051085e-18 -7.041880e-02
     vertex -5.401608e-01 -1.036049e-17 -2.071639e-01
     vertex -5.401608e-01 -6.406250e-01 -2.071639e-01
   endloop
 endfacet
 facet normal -1.000000e+00  1.536917e-31  2.364901e-15
   outer loop
     vertex -5.738654e-01  4.572730e-18  7.041880e-02
     vertex -5.738654e-01 -6.406250e-01 -7.041880e-02
     vertex -5.738654e-01 -6.406250e-01  7.041880e-02
   endloop
 endfacet
 facet normal -1.000000e+00  2.049223e-31  2.364901e-15
   outer loop
     vertex -5.738654e-01  4.572730e-18  7.041880e-02
     vertex -5.738654e-01 -4.051085e-18 -7.041880e-02
     vertex -5.738654e-01 -6.406250e-01 -7.041880e-02
   endloop
 endfacet
 facet normal -9.709418e-01  1.036854e-17  2.393157e-01
   outer loop
     vertex -5.401608e-01  1.500977e-17  2.071639e-01
     vertex -5.738654e-01 -6.406250e-01  7.041880e-02
     vertex -5.401608e-01 -6.406250e-01  2.071639e-01
   endloop
 endfacet
 facet normal -9.709418e-01  2.884025e-17  2.393157e-01
   outer loop
     vertex -5.401608e-01  1.500977e-17  2.071639e-01
     vertex -5.738654e-01  4.572730e-18  7.041880e-02
     vertex -5.738654e-01 -6.406250e-01  7.041880e-02
   endloop
 endfacet
 facet normal -8.854560e-01  4.026898e-17  4.647232e-01
   outer loop
     vertex -4.747103e-01  2.665346e-17  3.318694e-01
     vertex -5.401608e-01 -6.406250e-01  2.071639e-01
     vertex -4.747103e-01 -6.406250e-01  3.318694e-01
   endloop
 endfacet
 facet normal -8.854560e-01  1.922683e-17  4.647232e-01
   outer loop
     vertex -4.747103e-01  2.665346e-17  3.318694e-01
     vertex -5.401608e-01  1.500977e-17  2.071639e-01
     vertex -5.401608e-01 -6.406250e-01  2.071639e-01
   endloop
 endfacet
 facet normal -5.680647e-01  7.131283e-17  8.229839e-01
   outer loop
     vertex -3.813177e-01  3.882713e-17  4.372879e-01
     vertex -3.813177e-01 -6.406250e-01  4.372879e-01
     vertex -2.654106e-01 -6.406250e-01  5.172927e-01
   endloop
 endfacet
 facet normal -7.485107e-01  5.746061e-17  6.631227e-01
   outer loop
     vertex -3.813177e-01  3.882713e-17  4.372879e-01
     vertex -4.747103e-01 -6.406250e-01  3.318694e-01
     vertex -3.813177e-01 -6.406250e-01  4.372879e-01
   endloop
 endfacet
 facet normal -7.485107e-01  5.768050e-17  6.631227e-01
   outer loop
     vertex -3.813177e-01  3.882713e-17  4.372879e-01
     vertex -4.747103e-01  2.665346e-17  3.318694e-01
     vertex -4.747103e-01 -6.406250e-01  3.318694e-01
   endloop
 endfacet
 facet normal -3.546049e-01  0.000000e+00  9.350162e-01
   outer loop
     vertex -2.654106e-01  5.082328e-17  5.172927e-01
     vertex -2.654106e-01 -6.406250e-01  5.172927e-01
     vertex -1.337252e-01 -6.406250e-01  5.672344e-01
   endloop
 endfacet
 facet normal -5.680647e-01  0.000000e+00  8.229839e-01
   outer loop
     vertex -2.654106e-01  5.082328e-17  5.172927e-01
     vertex -3.813177e-01  3.882713e-17  4.372879e-01
     vertex -2.654106e-01 -6.406250e-01  5.172927e-01
   endloop
 endfacet
 facet normal -3.546049e-01  0.000000e+00  9.350162e-01
   outer loop
     vertex -1.337252e-01  6.194473e-17  5.672344e-01
     vertex -2.654106e-01  5.082328e-17  5.172927e-01
     vertex -1.337252e-01 -6.406250e-01  5.672344e-01
   endloop
 endfacet
 facet normal -1.205367e-01  0.000000e+00  9.927089e-01
   outer loop
     vertex  6.085526e-03  7.154516e-17  5.842105e-01
     vertex -1.337252e-01  6.194473e-17  5.672344e-01
     vertex -1.337252e-01 -6.406250e-01  5.672344e-01
   endloop
 endfacet
 facet normal -1.205367e-01  0.000000e+00  9.927089e-01
   outer loop
     vertex  6.085526e-03  7.154516e-17  5.842105e-01
     vertex -1.337252e-01 -6.406250e-01  5.672344e-01
     vertex  6.085526e-03 -6.406250e-01  5.842105e-01
   endloop
 endfacet
 facet normal  1.205367e-01  0.000000e+00  9.927089e-01
   outer loop
     vertex  1.458963e-01  7.906661e-17  5.672344e-01
     vertex  6.085526e-03  7.154516e-17  5.842105e-01
     vertex  6.085526e-03 -6.406250e-01  5.842105e-01
   endloop
 endfacet
 facet normal  1.205367e-01  0.000000e+00  9.927089e-01
   outer loop
     vertex  1.458963e-01  7.906661e-17  5.672344e-01
     vertex  6.085526e-03 -6.406250e-01  5.842105e-01
     vertex  1.458963e-01 -6.406250e-01  5.672344e-01
   endloop
 endfacet
 facet normal  3.546049e-01  0.000000e+00  9.350162e-01
   outer loop
     vertex  2.775817e-01  8.407197e-17  5.172927e-01
     vertex  1.458963e-01  7.906661e-17  5.672344e-01
     vertex  1.458963e-01 -6.406250e-01  5.672344e-01
   endloop
 endfacet
 facet normal  3.546049e-01  0.000000e+00  9.350162e-01
   outer loop
     vertex  2.775817e-01  8.407197e-17  5.172927e-01
     vertex  1.458963e-01 -6.406250e-01  5.672344e-01
     vertex  2.775817e-01 -6.406250e-01  5.172927e-01
   endloop
 endfacet
 facet normal  5.680647e-01  0.000000e+00  8.229839e-01
   outer loop
     vertex  3.934888e-01  8.627034e-17  4.372879e-01
     vertex  2.775817e-01  8.407197e-17  5.172927e-01
     vertex  2.775817e-01 -6.406250e-01  5.172927e-01
   endloop
 endfacet
 facet normal  5.680647e-01  7.131283e-17  8.229839e-01
   outer loop
     vertex  3.934888e-01  8.627034e-17  4.372879e-01
     vertex  2.775817e-01 -6.406250e-01  5.172927e-01
     vertex  3.934888e-01 -6.406250e-01  4.372879e-01
   endloop
 endfacet
 facet normal  7.485107e-01  5.768050e-17  6.631227e-01
   outer loop
     vertex  4.868814e-01  8.553397e-17  3.318694e-01
     vertex  3.934888e-01  8.627034e-17  4.372879e-01
     vertex  3.934888e-01 -6.406250e-01  4.372879e-01
   endloop
 endfacet
 facet normal  7.485107e-01  5.746061e-17  6.631227e-01
   outer loop
     vertex  4.868814e-01  8.553397e-17  3.318694e-01
     vertex  3.934888e-01 -6.406250e-01  4.372879e-01
     vertex  4.868814e-01 -6.406250e-01  3.318694e-01
   endloop
 endfacet
 facet normal  8.854560e-01  3.845367e-17  4.647232e-01
   outer loop
     vertex  5.523319e-01  8.190565e-17  2.071639e-01
     vertex  4.868814e-01  8.553397e-17  3.318694e-01
     vertex  4.868814e-01 -6.406250e-01  3.318694e-01
   endloop
 endfacet
 facet normal  8.854560e-01  2.013449e-17  4.647232e-01
   outer loop
     vertex  5.523319e-01  8.190565e-17  2.071639e-01
     vertex  4.868814e-01 -6.406250e-01  3.318694e-01
     vertex  5.523319e-01 -6.406250e-01  2.071639e-01
   endloop
 endfacet
 facet normal  9.709418e-01  1.555281e-17  2.393157e-01
   outer loop
     vertex  5.860365e-01  7.559624e-17  7.041880e-02
     vertex  5.523319e-01 -6.406250e-01  2.071639e-01
     vertex  5.860365e-01 -6.406250e-01  7.041880e-02
   endloop
 endfacet
 facet normal  9.709418e-01  1.922683e-17  2.393157e-01
   outer loop
     vertex  5.860365e-01  7.559624e-17  7.041880e-02
     vertex  5.523319e-01  8.190565e-17  2.071639e-01
     vertex  5.523319e-01 -6.406250e-01  2.071639e-01
   endloop
 endfacet
 facet normal  1.000000e+00  0.000000e+00 -0.000000e+00
   outer loop
     vertex  5.860365e-01  6.697242e-17 -7.041880e-02
     vertex  5.860365e-01  7.559624e-17  7.041880e-02
     vertex  5.860365e-01 -6.406250e-01  7.041880e-02
   endloop
 endfacet
 facet normal  1.000000e+00  0.000000e+00  0.000000e+00
   outer loop
     vertex  5.860365e-01  6.697242e-17 -7.041880e-02
     vertex  5.860365e-01 -6.406250e-01  7.041880e-02
     vertex  5.860365e-01 -6.406250e-01 -7.041880e-02
   endloop
 endfacet
 facet normal  9.709418e-01 -1.036854e-17 -2.393157e-01
   outer loop
     vertex  5.523319e-01  5.653539e-17 -2.071639e-01
     vertex  5.860365e-01 -6.406250e-01 -7.041880e-02
     vertex  5.523319e-01 -6.406250e-01 -2.071639e-01
   endloop
 endfacet
 facet normal  9.709418e-01 -9.613417e-18 -2.393157e-01
   outer loop
     vertex  5.523319e-01  5.653539e-17 -2.071639e-01
     vertex  5.860365e-01  6.697242e-17 -7.041880e-02
     vertex  5.860365e-01 -6.406250e-01 -7.041880e-02
   endloop
 endfacet
 facet normal  8.854560e-01 -1.922683e-17 -4.647232e-01
   outer loop
     vertex  4.868814e-01  4.489169e-17 -3.318694e-01
     vertex  5.523319e-01  5.653539e-17 -2.071639e-01
     vertex  5.523319e-01 -6.406250e-01 -2.071639e-01
   endloop
 endfacet
 facet normal  7.485107e-01 -5.746061e-17 -6.631227e-01
   outer loop
     vertex  4.868814e-01  4.489169e-17 -3.318694e-01
     vertex  4.868814e-01 -6.406250e-01 -3.318694e-01
     vertex  3.934888e-01 -6.406250e-01 -4.372879e-01
   endloop
 endfacet
 facet normal  8.854560e-01 -4.026898e-17 -4.647232e-01
   outer loop
     vertex  4.868814e-01  4.489169e-17 -3.318694e-01
     vertex  5.523319e-01 -6.406250e-01 -2.071639e-01
     vertex  4.868814e-01 -6.406250e-01 -3.318694e-01
   endloop
 endfacet
 facet normal  7.485107e-01 -5.746061e-17 -6.631227e-01
   outer loop
     vertex  3.934888e-01  3.271803e-17 -4.372879e-01
     vertex  4.868814e-01  4.489169e-17 -3.318694e-01
     vertex  3.934888e-01 -6.406250e-01 -4.372879e-01
   endloop
 endfacet
 facet normal  5.680647e-01  0.000000e+00 -8.229839e-01
   outer loop
     vertex  2.775817e-01  2.072188e-17 -5.172927e-01
     vertex  3.934888e-01 -6.406250e-01 -4.372879e-01
     vertex  2.775817e-01 -6.406250e-01 -5.172927e-01
   endloop
 endfacet
 facet normal  5.680647e-01 -7.690734e-17 -8.229839e-01
   outer loop
     vertex  2.775817e-01  2.072188e-17 -5.172927e-01
     vertex  3.934888e-01  3.271803e-17 -4.372879e-01
     vertex  3.934888e-01 -6.406250e-01 -4.372879e-01
   endloop
 endfacet
 facet normal  3.546049e-01  0.000000e+00 -9.350162e-01
   outer loop
     vertex  1.458963e-01  9.600424e-18 -5.672344e-01
     vertex  2.775817e-01 -6.406250e-01 -5.172927e-01
     vertex  1.458963e-01 -6.406250e-01 -5.672344e-01
   endloop
 endfacet
 facet normal  3.546049e-01  0.000000e+00 -9.350162e-01
   outer loop
     vertex  1.458963e-01  9.600424e-18 -5.672344e-01
     vertex  2.775817e-01  2.072188e-17 -5.172927e-01
     vertex  2.775817e-01 -6.406250e-01 -5.172927e-01
   endloop
 endfacet
 facet normal  1.205367e-01  0.000000e+00 -9.927089e-01
   outer loop
     vertex  6.085526e-03  0.000000e+00 -5.842105e-01
     vertex  1.458963e-01 -6.406250e-01 -5.672344e-01
     vertex  6.085526e-03 -6.406250e-01 -5.842105e-01
   endloop
 endfacet
 facet normal  1.205367e-01  0.000000e+00 -9.927089e-01
   outer loop
     vertex  6.085526e-03  0.000000e+00 -5.842105e-01
     vertex  1.458963e-01  9.600424e-18 -5.672344e-01
     vertex  1.458963e-01 -6.406250e-01 -5.672344e-01
   endloop
 endfacet
 facet normal  2.817326e-01  0.000000e+00  9.594930e-01
   outer loop
     vertex -7.287649e-02  2.341410e-17 -1.228673e-01
     vertex  6.085526e-03 -6.406250e-01 -1.460526e-01
     vertex  6.085526e-03  2.682943e-17 -1.460526e-01
   endloop
 endfacet
 facet normal  2.817326e-01  6.235617e-17  9.594930e-01
   outer loop
     vertex -7.287649e-02  2.341410e-17 -1.228673e-01
     vertex -7.287649e-02 -6.406250e-01 -1.228673e-01
     vertex  6.085526e-03 -6.406250e-01 -1.460526e-01
   endloop
 endfacet
 facet normal  7.557496e-01  3.546544e-17  6.548607e-01
   outer loop
     vertex -1.267686e-01  2.392249e-17 -6.067246e-02
     vertex -1.267686e-01 -6.406250e-01 -6.067246e-02
     vertex -7.287649e-02 -6.406250e-01 -1.228673e-01
   endloop
 endfacet
 facet normal  7.557496e-01  4.935614e-17  6.548607e-01
   outer loop
     vertex -1.267686e-01  2.392249e-17 -6.067246e-02
     vertex -7.287649e-02 -6.406250e-01 -1.228673e-01
     vertex -7.287649e-02  2.341410e-17 -1.228673e-01
   endloop
 endfacet
 facet normal  9.898214e-01  8.478114e-18  1.423148e-01
   outer loop
     vertex -1.384805e-01  2.819320e-17  2.078546e-02
     vertex -1.384805e-01 -6.406250e-01  2.078546e-02
     vertex -1.267686e-01 -6.406250e-01 -6.067246e-02
   endloop
 endfacet
 facet normal  9.898214e-01  6.169518e-18  1.423148e-01
   outer loop
     vertex -1.384805e-01  2.819320e-17  2.078546e-02
     vertex -1.267686e-01 -6.406250e-01 -6.067246e-02
     vertex -1.267686e-01  2.392249e-17 -6.067246e-02
   endloop
 endfacet
 facet normal  9.096320e-01 -2.699727e-17 -4.154150e-01
   outer loop
     vertex -1.042937e-01  3.487031e-17  9.564413e-02
     vertex -1.042937e-01 -6.406250e-01  9.564413e-02
     vertex -1.384805e-01 -6.406250e-01  2.078546e-02
   endloop
 endfacet
 facet normal  9.096320e-01 -2.467807e-17 -4.154150e-01
   outer loop
     vertex -1.042937e-01  3.487031e-17  9.564413e-02
     vertex -1.384805e-01 -6.406250e-01  2.078546e-02
     vertex -1.384805e-01  2.819320e-17  2.078546e-02
   endloop
 endfacet
 facet normal  5.406408e-01 -3.644796e-17 -8.412535e-01
   outer loop
     vertex -3.506226e-02  4.183389e-17  1.401365e-01
     vertex -3.506226e-02 -6.406250e-01  1.401365e-01
     vertex -1.042937e-01 -6.406250e-01  9.564413e-02
   endloop
 endfacet
 facet normal  5.406408e-01 -5.758217e-17 -8.412535e-01
   outer loop
     vertex -3.506226e-02  4.183389e-17  1.401365e-01
     vertex -1.042937e-01 -6.406250e-01  9.564413e-02
     vertex -1.042937e-01  3.487031e-17  9.564413e-02
   endloop
 endfacet
 facet normal  0.000000e+00 -4.332578e-17 -1.000000e+00
   outer loop
     vertex  4.723331e-02  4.687304e-17  1.401365e-01
     vertex  4.723331e-02 -6.406250e-01  1.401365e-01
     vertex -3.506226e-02 -6.406250e-01  1.401365e-01
   endloop
 endfacet
 facet normal  2.652939e-33 -4.332578e-17 -1.000000e+00
   outer loop
     vertex  4.723331e-02  4.687304e-17  1.401365e-01
     vertex -3.506226e-02 -6.406250e-01  1.401365e-01
     vertex -3.506226e-02  4.183389e-17  1.401365e-01
   endloop
 endfacet
 facet normal -9.096320e-01 -2.699727e-17 -4.154150e-01
   outer loop
     vertex  1.164647e-01  4.838787e-17  9.564413e-02
     vertex  1.506516e-01 -6.406250e-01  2.078546e-02
     vertex  1.164647e-01 -6.406250e-01  9.564413e-02
   endloop
 endfacet
 facet normal -5.406408e-01 -5.467194e-17 -8.412535e-01
   outer loop
     vertex  1.164647e-01  4.838787e-17  9.564413e-02
     vertex  1.164647e-01 -6.406250e-01  9.564413e-02
     vertex  4.723331e-02 -6.406250e-01  1.401365e-01
   endloop
 endfacet
 facet normal -5.406408e-01 -4.113012e-17 -8.412535e-01
   outer loop
     vertex  1.164647e-01  4.838787e-17  9.564413e-02
     vertex  4.723331e-02 -6.406250e-01  1.401365e-01
     vertex  4.723331e-02  4.687304e-17  1.401365e-01
   endloop
 endfacet
 facet normal -9.096320e-01 -2.474749e-17 -4.154150e-01
   outer loop
     vertex  1.506516e-01  4.589744e-17  2.078546e-02
     vertex  1.506516e-01 -6.406250e-01  2.078546e-02
     vertex  1.164647e-01  4.838787e-17  9.564413e-02
   endloop
 endfacet
 facet normal -9.898214e-01  7.707376e-18  1.423148e-01
   outer loop
     vertex  1.389397e-01  4.019243e-17 -6.067246e-02
     vertex  1.389397e-01 -6.406250e-01 -6.067246e-02
     vertex  1.506516e-01 -6.406250e-01  2.078546e-02
   endloop
 endfacet
 facet normal -9.898214e-01  8.226024e-18  1.423148e-01
   outer loop
     vertex  1.389397e-01  4.019243e-17 -6.067246e-02
     vertex  1.506516e-01 -6.406250e-01  2.078546e-02
     vertex  1.506516e-01  4.589744e-17  2.078546e-02
   endloop
 endfacet
 facet normal -7.557496e-01  4.255852e-17  6.548607e-01
   outer loop
     vertex  8.504754e-02  3.308415e-17 -1.228673e-01
     vertex  8.504754e-02 -6.406250e-01 -1.228673e-01
     vertex  1.389397e-01 -6.406250e-01 -6.067246e-02
   endloop
 endfacet
 facet normal -7.557496e-01  4.113012e-17  6.548607e-01
   outer loop
     vertex  8.504754e-02  3.308415e-17 -1.228673e-01
     vertex  1.389397e-01 -6.406250e-01 -6.067246e-02
     vertex  1.389397e-01  4.019243e-17 -6.067246e-02
   endloop
 endfacet
 facet normal -2.817326e-01  0.000000e+00  9.594930e-01
   outer loop
     vertex  6.085526e-03  2.682943e-17 -1.460526e-01
     vertex  6.085526e-03 -6.406250e-01 -1.460526e-01
     vertex  8.504754e-02 -6.406250e-01 -1.228673e-01
   endloop
 endfacet
 facet normal -2.817326e-01  6.169518e-17  9.594930e-01
   outer loop
     vertex  6.085526e-03  2.682943e-17 -1.460526e-01
     vertex  8.504754e-02 -6.406250e-01 -1.228673e-01
     vertex  8.504754e-02  3.308415e-17 -1.228673e-01
   endloop
 endfacet
 facet normal -6.123234e-17  1.000000e+00 -6.123234e-17
   outer loop
     vertex -7.287649e-02  2.341410e-17 -1.228673e-01
     vertex -3.813177e-01 -1.472519e-17 -4.372879e-01
     vertex -4.747103e-01 -1.398882e-17 -3.318694e-01
   endloop
 endfacet
 facet normal -6.123234e-17  1.000000e+00 -6.123234e-17
   outer loop
     vertex -7.287649e-02  2.341410e-17 -1.228673e-01
     vertex -2.654106e-01 -1.252681e-17 -5.172927e-01
     vertex -3.813177e-01 -1.472519e-17 -4.372879e-01
   endloop
 endfacet
 facet normal -6.123234e-17  1.000000e+00 -6.123234e-17
   outer loop
     vertex -7.287649e-02  2.341410e-17 -1.228673e-01
     vertex -1.337252e-01 -7.521452e-18 -5.672344e-01
     vertex -2.654106e-01 -1.252681e-17 -5.172927e-01
   endloop
 endfacet
 facet normal -6.123234e-17  1.000000e+00 -6.123234e-17
   outer loop
     vertex -1.267686e-01  2.392249e-17 -6.067246e-02
     vertex -5.401608e-01 -1.036049e-17 -2.071639e-01
     vertex -5.738654e-01 -4.051085e-18 -7.041880e-02
   endloop
 endfacet
 facet normal -6.123234e-17  1.000000e+00 -6.123234e-17
   outer loop
     vertex -1.267686e-01  2.392249e-17 -6.067246e-02
     vertex -4.747103e-01 -1.398882e-17 -3.318694e-01
     vertex -5.401608e-01 -1.036049e-17 -2.071639e-01
   endloop
 endfacet
 facet normal -6.123234e-17  1.000000e+00 -6.123234e-17
   outer loop
     vertex -1.267686e-01  2.392249e-17 -6.067246e-02
     vertex -7.287649e-02  2.341410e-17 -1.228673e-01
     vertex -4.747103e-01 -1.398882e-17 -3.318694e-01
   endloop
 endfacet
 facet normal -6.123234e-17  1.000000e+00 -6.123234e-17
   outer loop
     vertex  6.085526e-03  2.682943e-17 -1.460526e-01
     vertex  1.458963e-01  9.600424e-18 -5.672344e-01
     vertex  6.085526e-03  0.000000e+00 -5.842105e-01
   endloop
 endfacet
 facet normal -6.123234e-17  1.000000e+00 -6.123234e-17
   outer loop
     vertex  6.085526e-03  2.682943e-17 -1.460526e-01
     vertex  6.085526e-03  0.000000e+00 -5.842105e-01
     vertex -1.337252e-01 -7.521452e-18 -5.672344e-01
   endloop
 endfacet
 facet normal -6.123234e-17  1.000000e+00 -6.123234e-17
   outer loop
     vertex  6.085526e-03  2.682943e-17 -1.460526e-01
     vertex -1.337252e-01 -7.521452e-18 -5.672344e-01
     vertex -7.287649e-02  2.341410e-17 -1.228673e-01
   endloop
 endfacet
 facet normal -6.123234e-17  1.000000e+00 -6.123234e-17
   outer loop
     vertex -1.384805e-01  2.819320e-17  2.078546e-02
     vertex -5.738654e-01  4.572730e-18  7.041880e-02
     vertex -5.401608e-01  1.500977e-17  2.071639e-01
   endloop
 endfacet
 facet normal -6.123234e-17  1.000000e+00 -6.123234e-17
   outer loop
     vertex -1.384805e-01  2.819320e-17  2.078546e-02
     vertex -5.738654e-01 -4.051085e-18 -7.041880e-02
     vertex -5.738654e-01  4.572730e-18  7.041880e-02
   endloop
 endfacet
 facet normal -6.123234e-17  1.000000e+00 -6.123234e-17
   outer loop
     vertex -1.384805e-01  2.819320e-17  2.078546e-02
     vertex -1.267686e-01  2.392249e-17 -6.067246e-02
     vertex -5.738654e-01 -4.051085e-18 -7.041880e-02
   endloop
 endfacet
 facet normal -6.123234e-17  1.000000e+00 -6.123234e-17
   outer loop
     vertex  8.504754e-02  3.308415e-17 -1.228673e-01
     vertex  2.775817e-01  2.072188e-17 -5.172927e-01
     vertex  1.458963e-01  9.600424e-18 -5.672344e-01
   endloop
 endfacet
 facet normal -6.123234e-17  1.000000e+00 -6.123234e-17
   outer loop
     vertex  8.504754e-02  3.308415e-17 -1.228673e-01
     vertex  3.934888e-01  3.271803e-17 -4.372879e-01
     vertex  2.775817e-01  2.072188e-17 -5.172927e-01
   endloop
 endfacet
 facet normal -6.123234e-17  1.000000e+00 -6.123234e-17
   outer loop
     vertex  8.504754e-02  3.308415e-17 -1.228673e-01
     vertex  1.458963e-01  9.600424e-18 -5.672344e-01
     vertex  6.085526e-03  2.682943e-17 -1.460526e-01
   endloop
 endfacet
 facet normal -6.123234e-17  1.000000e+00 -6.123234e-17
   outer loop
     vertex -1.042937e-01  3.487031e-17  9.564413e-02
     vertex -5.401608e-01  1.500977e-17  2.071639e-01
     vertex -4.747103e-01  2.665346e-17  3.318694e-01
   endloop
 endfacet
 facet normal -6.123234e-17  1.000000e+00 -6.123234e-17
   outer loop
     vertex -1.042937e-01  3.487031e-17  9.564413e-02
     vertex -1.384805e-01  2.819320e-17  2.078546e-02
     vertex -5.401608e-01  1.500977e-17  2.071639e-01
   endloop
 endfacet
 facet normal -6.123234e-17  1.000000e+00 -6.123234e-17
   outer loop
     vertex -3.813177e-01  3.882713e-17  4.372879e-01
     vertex -1.042937e-01  3.487031e-17  9.564413e-02
     vertex -4.747103e-01  2.665346e-17  3.318694e-01
   endloop
 endfacet
 facet normal -6.123234e-17  1.000000e+00 -6.123234e-17
   outer loop
     vertex  4.868814e-01  4.489169e-17 -3.318694e-01
     vertex  8.504754e-02  3.308415e-17 -1.228673e-01
     vertex  1.389397e-01  4.019243e-17 -6.067246e-02
   endloop
 endfacet
 facet normal -6.123234e-17  1.000000e+00 -6.123234e-17
   outer loop
     vertex  4.868814e-01  4.489169e-17 -3.318694e-01
     vertex  3.934888e-01  3.271803e-17 -4.372879e-01
     vertex  8.504754e-02  3.308415e-17 -1.228673e-01
   endloop
 endfacet
 facet normal -6.123234e-17  1.000000e+00 -6.123234e-17
   outer loop
     vertex -2.654106e-01  5.082328e-17  5.172927e-01
     vertex -3.506226e-02  4.183389e-17  1.401365e-01
     vertex -1.042937e-01  3.487031e-17  9.564413e-02
   endloop
 endfacet
 facet normal -6.123234e-17  1.000000e+00 -6.123234e-17
   outer loop
     vertex -2.654106e-01  5.082328e-17  5.172927e-01
     vertex -1.042937e-01  3.487031e-17  9.564413e-02
     vertex -3.813177e-01  3.882713e-17  4.372879e-01
   endloop
 endfacet
 facet normal -6.123234e-17  1.000000e+00 -6.123234e-17
   outer loop
     vertex  5.523319e-01  5.653539e-17 -2.071639e-01
     vertex  4.868814e-01  4.489169e-17 -3.318694e-01
     vertex  1.389397e-01  4.019243e-17 -6.067246e-02
   endloop
 endfacet
 facet normal -6.123234e-17  1.000000e+00 -6.123234e-17
   outer loop
     vertex -1.337252e-01  6.194473e-17  5.672344e-01
     vertex -3.506226e-02  4.183389e-17  1.401365e-01
     vertex -2.654106e-01  5.082328e-17  5.172927e-01
   endloop
 endfacet
 facet normal -6.123234e-17  1.000000e+00 -6.123234e-17
   outer loop
     vertex  5.860365e-01  6.697242e-17 -7.041880e-02
     vertex  1.389397e-01  4.019243e-17 -6.067246e-02
     vertex  1.506516e-01  4.589744e-17  2.078546e-02
   endloop
 endfacet
 facet normal -6.123234e-17  1.000000e+00 -6.123234e-17
   outer loop
     vertex  5.860365e-01  6.697242e-17 -7.041880e-02
     vertex  5.523319e-01  5.653539e-17 -2.071639e-01
     vertex  1.389397e-01  4.019243e-17 -6.067246e-02
   endloop
 endfacet
 facet normal -6.123234e-17  1.000000e+00 -6.123234e-17
   outer loop
     vertex  6.085526e-03  7.154516e-17  5.842105e-01
     vertex  4.723331e-02  4.687304e-17  1.401365e-01
     vertex -3.506226e-02  4.183389e-17  1.401365e-01
   endloop
 endfacet
 facet normal -6.123234e-17  1.000000e+00 -6.123234e-17
   outer loop
     vertex  6.085526e-03  7.154516e-17  5.842105e-01
     vertex -3.506226e-02  4.183389e-17  1.401365e-01
     vertex -1.337252e-01  6.194473e-17  5.672344e-01
   endloop
 endfacet
 facet normal -6.123234e-17  1.000000e+00 -6.123234e-17
   outer loop
     vertex  5.860365e-01  7.559624e-17  7.041880e-02
     vertex  5.860365e-01  6.697242e-17 -7.041880e-02
     vertex  1.506516e-01  4.589744e-17  2.078546e-02
   endloop
 endfacet
 facet normal -6.123234e-17  1.000000e+00 -6.123234e-17
   outer loop
     vertex  1.458963e-01  7.906661e-17  5.672344e-01
     vertex  4.723331e-02  4.687304e-17  1.401365e-01
     vertex  6.085526e-03  7.154516e-17  5.842105e-01
   endloop
 endfacet
 facet normal -6.123234e-17  1.000000e+00 -6.123234e-17
   outer loop
     vertex  5.523319e-01  8.190565e-17  2.071639e-01
     vertex  5.860365e-01  7.559624e-17  7.041880e-02
     vertex  1.506516e-01  4.589744e-17  2.078546e-02
   endloop
 endfacet
 facet normal -6.123234e-17  1.000000e+00 -6.123234e-17
   outer loop
     vertex  5.523319e-01  8.190565e-17  2.071639e-01
     vertex  1.506516e-01  4.589744e-17  2.078546e-02
     vertex  1.164647e-01  4.838787e-17  9.564413e-02
   endloop
 endfacet
 facet normal -6.123234e-17  1.000000e+00 -6.123234e-17
   outer loop
     vertex  2.775817e-01  8.407197e-17  5.172927e-01
     vertex  4.723331e-02  4.687304e-17  1.401365e-01
     vertex  1.458963e-01  7.906661e-17  5.672344e-01
   endloop
 endfacet
 facet normal -6.123234e-17  1.000000e+00 -6.123234e-17
   outer loop
     vertex  2.775817e-01  8.407197e-17  5.172927e-01
     vertex  1.164647e-01  4.838787e-17  9.564413e-02
     vertex  4.723331e-02  4.687304e-17  1.401365e-01
   endloop
 endfacet
 facet normal -6.123234e-17  1.000000e+00 -6.123234e-17
   outer loop
     vertex  4.868814e-01  8.553397e-17  3.318694e-01
     vertex  5.523319e-01  8.190565e-17  2.071639e-01
     vertex  1.164647e-01  4.838787e-17  9.564413e-02
   endloop
 endfacet
 facet normal -6.123234e-17  1.000000e+00 -6.123234e-17
   outer loop
     vertex  3.934888e-01  8.627034e-17  4.372879e-01
     vertex  1.164647e-01  4.838787e-17  9.564413e-02
     vertex  2.775817e-01  8.407197e-17  5.172927e-01
   endloop
 endfacet
 facet normal -6.123234e-17  1.000000e+00 -6.123234e-17
   outer loop
     vertex  3.934888e-01  8.627034e-17  4.372879e-01
     vertex  4.868814e-01  8.553397e-17  3.318694e-01
     vertex  1.164647e-01  4.838787e-17  9.564413e-02
   endloop
 endfacet
 facet normal  0.000000e+00 -1.000000e+00  0.000000e+00
   outer loop
     vertex -7.287649e-02 -6.406250e-01 -1.228673e-01
     vertex -4.747103e-01 -6.406250e-01 -3.318694e-01
     vertex -3.813177e-01 -6.406250e-01 -4.372879e-01
   endloop
 endfacet
 facet normal  0.000000e+00 -1.000000e+00  0.000000e+00
   outer loop
     vertex -7.287649e-02 -6.406250e-01 -1.228673e-01
     vertex -3.813177e-01 -6.406250e-01 -4.372879e-01
     vertex -2.654106e-01 -6.406250e-01 -5.172927e-01
   endloop
 endfacet
 facet normal  0.000000e+00 -1.000000e+00  0.000000e+00
   outer loop
     vertex -7.287649e-02 -6.406250e-01 -1.228673e-01
     vertex -2.654106e-01 -6.406250e-01 -5.172927e-01
     vertex -1.337252e-01 -6.406250e-01 -5.672344e-01
   endloop
 endfacet
 facet normal  0.000000e+00 -1.000000e+00  0.000000e+00
   outer loop
     vertex -1.267686e-01 -6.406250e-01 -6.067246e-02
     vertex -5.738654e-01 -6.406250e-01 -7.041880e-02
     vertex -5.401608e-01 -6.406250e-01 -2.071639e-01
   endloop
 endfacet
 facet normal  0.000000e+00 -1.000000e+00  0.000000e+00
   outer loop
     vertex -1.267686e-01 -6.406250e-01 -6.067246e-02
     vertex -5.401608e-01 -6.406250e-01 -2.071639e-01
     vertex -4.747103e-01 -6.406250e-01 -3.318694e-01
   endloop
 endfacet
 facet normal  0.000000e+00 -1.000000e+00 -0.000000e+00
   outer loop
     vertex -1.267686e-01 -6.406250e-01 -6.067246e-02
     vertex -4.747103e-01 -6.406250e-01 -3.318694e-01
     vertex -7.287649e-02 -6.406250e-01 -1.228673e-01
   endloop
 endfacet
 facet normal  0.000000e+00 -1.000000e+00  0.000000e+00
   outer loop
     vertex  6.085526e-03 -6.406250e-01 -1.460526e-01
     vertex  6.085526e-03 -6.406250e-01 -5.842105e-01
     vertex  1.458963e-01 -6.406250e-01 -5.672344e-01
   endloop
 endfacet
 facet normal  0.000000e+00 -1.000000e+00 -0.000000e+00
   outer loop
     vertex  6.085526e-03 -6.406250e-01 -1.460526e-01
     vertex -1.337252e-01 -6.406250e-01 -5.672344e-01
     vertex  6.085526e-03 -6.406250e-01 -5.842105e-01
   endloop
 endfacet
 facet normal -0.000000e+00 -1.000000e+00  0.000000e+00
   outer loop
     vertex  6.085526e-03 -6.406250e-01 -1.460526e-01
     vertex -7.287649e-02 -6.406250e-01 -1.228673e-01
     vertex -1.337252e-01 -6.406250e-01 -5.672344e-01
   endloop
 endfacet
 facet normal  0.000000e+00 -1.000000e+00  0.000000e+00
   outer loop
     vertex -1.384805e-01 -6.406250e-01  2.078546e-02
     vertex -5.401608e-01 -6.406250e-01  2.071639e-01
     vertex -5.738654e-01 -6.406250e-01  7.041880e-02
   endloop
 endfacet
 facet normal -0.000000e+00 -1.000000e+00  0.000000e+00
   outer loop
     vertex -1.384805e-01 -6.406250e-01  2.078546e-02
     vertex -5.738654e-01 -6.406250e-01  7.041880e-02
     vertex -5.738654e-01 -6.406250e-01 -7.041880e-02
   endloop
 endfacet
 facet normal  0.000000e+00 -1.000000e+00 -0.000000e+00
   outer loop
     vertex -1.384805e-01 -6.406250e-01  2.078546e-02
     vertex -5.738654e-01 -6.406250e-01 -7.041880e-02
     vertex -1.267686e-01 -6.406250e-01 -6.067246e-02
   endloop
 endfacet
 facet normal  0.000000e+00 -1.000000e+00  0.000000e+00
   outer loop
     vertex  8.504754e-02 -6.406250e-01 -1.228673e-01
     vertex  1.458963e-01 -6.406250e-01 -5.672344e-01
     vertex  2.775817e-01 -6.406250e-01 -5.172927e-01
   endloop
 endfacet
 facet normal  0.000000e+00 -1.000000e+00  0.000000e+00
   outer loop
     vertex  8.504754e-02 -6.406250e-01 -1.228673e-01
     vertex  2.775817e-01 -6.406250e-01 -5.172927e-01
     vertex  3.934888e-01 -6.406250e-01 -4.372879e-01
   endloop
 endfacet
 facet normal  0.000000e+00 -1.000000e+00 -0.000000e+00
   outer loop
     vertex  8.504754e-02 -6.406250e-01 -1.228673e-01
     vertex  6.085526e-03 -6.406250e-01 -1.460526e-01
     vertex  1.458963e-01 -6.406250e-01 -5.672344e-01
   endloop
 endfacet
 facet normal  0.000000e+00 -1.000000e+00  0.000000e+00
   outer loop
     vertex -1.042937e-01 -6.406250e-01  9.564413e-02
     vertex -4.747103e-01 -6.406250e-01  3.318694e-01
     vertex -5.401608e-01 -6.406250e-01  2.071639e-01
   endloop
 endfacet
 facet normal -0.000000e+00 -1.000000e+00  0.000000e+00
   outer loop
     vertex -1.042937e-01 -6.406250e-01  9.564413e-02
     vertex -5.401608e-01 -6.406250e-01  2.071639e-01
     vertex -1.384805e-01 -6.406250e-01  2.078546e-02
   endloop
 endfacet
 facet normal  0.000000e+00 -1.000000e+00 -0.000000e+00
   outer loop
     vertex -3.813177e-01 -6.406250e-01  4.372879e-01
     vertex -4.747103e-01 -6.406250e-01  3.318694e-01
     vertex -1.042937e-01 -6.406250e-01  9.564413e-02
   endloop
 endfacet
 facet normal  0.000000e+00 -1.000000e+00  0.000000e+00
   outer loop
     vertex  4.868814e-01 -6.406250e-01 -3.318694e-01
     vertex  1.389397e-01 -6.406250e-01 -6.067246e-02
     vertex  8.504754e-02 -6.406250e-01 -1.228673e-01
   endloop
 endfacet
 facet normal -0.000000e+00 -1.000000e+00  0.000000e+00
   outer loop
     vertex  4.868814e-01 -6.406250e-01 -3.318694e-01
     vertex  8.504754e-02 -6.406250e-01 -1.228673e-01
     vertex  3.934888e-01 -6.406250e-01 -4.372879e-01
   endloop
 endfacet
 facet normal  0.000000e+00 -1.000000e+00  0.000000e+00
   outer loop
     vertex -2.654106e-01 -6.406250e-01  5.172927e-01
     vertex -1.042937e-01 -6.406250e-01  9.564413e-02
     vertex -3.506226e-02 -6.406250e-01  1.401365e-01
   endloop
 endfacet
 facet normal  0.000000e+00 -1.000000e+00 -0.000000e+00
   outer loop
     vertex -2.654106e-01 -6.406250e-01  5.172927e-01
     vertex -3.813177e-01 -6.406250e-01  4.372879e-01
     vertex -1.042937e-01 -6.406250e-01  9.564413e-02
   endloop
 endfacet
 facet normal -0.000000e+00 -1.000000e+00  0.000000e+00
   outer loop
     vertex  5.523319e-01 -6.406250e-01 -2.071639e-01
     vertex  1.389397e-01 -6.406250e-01 -6.067246e-02
     vertex  4.868814e-01 -6.406250e-01 -3.318694e-01
   endloop
 endfacet
 facet normal  0.000000e+00 -1.000000e+00 -0.000000e+00
   outer loop
     vertex -1.337252e-01 -6.406250e-01  5.672344e-01
     vertex -2.654106e-01 -6.406250e-01  5.172927e-01
     vertex -3.506226e-02 -6.406250e-01  1.401365e-01
   endloop
 endfacet
 facet normal  0.000000e+00 -1.000000e+00  0.000000e+00
   outer loop
     vertex  5.860365e-01 -6.406250e-01 -7.041880e-02
     vertex  1.506516e-01 -6.406250e-01  2.078546e-02
     vertex  1.389397e-01 -6.406250e-01 -6.067246e-02
   endloop
 endfacet
 facet normal -0.000000e+00 -1.000000e+00  0.000000e+00
   outer loop
     vertex  5.860365e-01 -6.406250e-01 -7.041880e-02
     vertex  1.389397e-01 -6.406250e-01 -6.067246e-02
     vertex  5.523319e-01 -6.406250e-01 -2.071639e-01
   endloop
 endfacet
 facet normal  0.000000e+00 -1.000000e+00 -0.000000e+00
   outer loop
     vertex  6.085526e-03 -6.406250e-01  5.842105e-01
     vertex -3.506226e-02 -6.406250e-01  1.401365e-01
     vertex  4.723331e-02 -6.406250e-01  1.401365e-01
   endloop
 endfacet
 facet normal  0.000000e+00 -1.000000e+00  0.000000e+00
   outer loop
     vertex  6.085526e-03 -6.406250e-01  5.842105e-01
     vertex -1.337252e-01 -6.406250e-01  5.672344e-01
     vertex -3.506226e-02 -6.406250e-01  1.401365e-01
   endloop
 endfacet
 facet normal  0.000000e+00 -1.000000e+00 -0.000000e+00
   outer loop
     vertex  5.860365e-01 -6.406250e-01  7.041880e-02
     vertex  1.506516e-01 -6.406250e-01  2.078546e-02
     vertex  5.860365e-01 -6.406250e-01 -7.041880e-02
   endloop
 endfacet
 facet normal -0.000000e+00 -1.000000e+00  0.000000e+00
   outer loop
     vertex  1.458963e-01 -6.406250e-01  5.672344e-01
     vertex  6.085526e-03 -6.406250e-01  5.842105e-01
     vertex  4.723331e-02 -6.406250e-01  1.401365e-01
   endloop
 endfacet
 facet normal  0.000000e+00 -1.000000e+00 -0.000000e+00
   outer loop
     vertex  5.523319e-01 -6.406250e-01  2.071639e-01
     vertex  1.506516e-01 -6.406250e-01  2.078546e-02
     vertex  5.860365e-01 -6.406250e-01  7.041880e-02
   endloop
 endfacet
 facet normal  0.000000e+00 -1.000000e+00  0.000000e+00
   outer loop
     vertex  5.523319e-01 -6.406250e-01  2.071639e-01
     vertex  1.164647e-01 -6.406250e-01  9.564413e-02
     vertex  1.506516e-01 -6.406250e-01  2.078546e-02
   endloop
 endfacet
 facet normal -0.000000e+00 -1.000000e+00  0.000000e+00
   outer loop
     vertex  2.775817e-01 -6.406250e-01  5.172927e-01
     vertex  1.458963e-01 -6.406250e-01  5.672344e-01
     vertex  4.723331e-02 -6.406250e-01  1.401365e-01
   endloop
 endfacet
 facet normal  0.000000e+00 -1.000000e+00  0.000000e+00
   outer loop
     vertex  2.775817e-01 -6.406250e-01  5.172927e-01
     vertex  4.723331e-02 -6.406250e-01  1.401365e-01
     vertex  1.164647e-01 -6.406250e-01  9.564413e-02
   endloop
 endfacet
 facet normal  0.000000e+00 -1.000000e+00 -0.000000e+00
   outer loop
     vertex  4.868814e-01 -6.406250e-01  3.318694e-01
     vertex  1.164647e-01 -6.406250e-01  9.564413e-02
     vertex  5.523319e-01 -6.406250e-01  2.071639e-01
   endloop
 endfacet
 facet normal -0.000000e+00 -1.000000e+00  0.000000e+00
   outer loop
     vertex  3.934888e-01 -6.406250e-01  4.372879e-01
     vertex  2.775817e-01 -6.406250e-01  5.172927e-01
     vertex  1.164647e-01 -6.406250e-01  9.564413e-02
   endloop
 endfacet
 facet normal  0.000000e+00 -1.000000e+00 -0.000000e+00
   outer loop
     vertex  3.934888e-01 -6.406250e-01  4.372879e-01
     vertex  1.164647e-01 -6.406250e-01  9.564413e-02
     vertex  4.868814e-01 -6.406250e-01  3.318694e-01
   endloop
 endfacet
endsolid
