solid 
 facet normal  0.000000e+00 -1.000000e+00  0.000000e+00
   outer loop
     vertex  7.500000e-01 -8.593750e-02  0.000000e+00
     vertex -5.546875e-01 -8.593750e-02  2.343750e-02
     vertex -5.546875e-01 -8.593750e-02  0.000000e+00
   endloop
 endfacet
 facet normal  0.000000e+00 -1.000000e+00  0.000000e+00
   outer loop
     vertex  7.500000e-01 -8.593750e-02  0.000000e+00
     vertex  7.500000e-01 -8.593750e-02  2.343750e-02
     vertex -5.546875e-01 -8.593750e-02  2.343750e-02
   endloop
 endfacet
 facet normal  1.000000e+00  0.000000e+00  0.000000e+00
   outer loop
     vertex  7.500000e-01  1.887336e-01  0.000000e+00
     vertex  7.500000e-01 -8.593750e-02  2.343750e-02
     vertex  7.500000e-01 -8.593750e-02  0.000000e+00
   endloop
 endfacet
 facet normal  1.000000e+00  0.000000e+00 -0.000000e+00
   outer loop
     vertex  7.500000e-01  1.887336e-01  0.000000e+00
     vertex  7.500000e-01  1.887336e-01  2.343750e-02
     vertex  7.500000e-01 -8.593750e-02  2.343750e-02
   endloop
 endfacet
 facet normal  0.000000e+00  1.000000e+00  0.000000e+00
   outer loop
     vertex -5.546875e-01  1.887336e-01  0.000000e+00
     vertex  7.500000e-01  1.887336e-01  2.343750e-02
     vertex  7.500000e-01  1.887336e-01  0.000000e+00
   endloop
 endfacet
 facet normal  0.000000e+00  1.000000e+00  0.000000e+00
   outer loop
     vertex -5.546875e-01  1.887336e-01  0.000000e+00
     vertex -5.546875e-01  1.887336e-01  2.343750e-02
     vertex  7.500000e-01  1.887336e-01  2.343750e-02
   endloop
 endfacet
 facet normal -1.000000e+00  0.000000e+00  0.000000e+00
   outer loop
     vertex -5.546875e-01 -8.593750e-02  0.000000e+00
     vertex -5.546875e-01  1.887336e-01  2.343750e-02
     vertex -5.546875e-01  1.887336e-01  0.000000e+00
   endloop
 endfacet
 facet normal -1.000000e+00  0.000000e+00  0.000000e+00
   outer loop
     vertex -5.546875e-01 -8.593750e-02  0.000000e+00
     vertex -5.546875e-01 -8.593750e-02  2.343750e-02
     vertex -5.546875e-01  1.887336e-01  2.343750e-02
   endloop
 endfacet
 facet normal -9.009689e-01  4.338837e-01  0.000000e+00
   outer loop
     vertex -3.436793e-01 -2.376324e-02  0.000000e+00
     vertex -3.074836e-01  5.139803e-02  2.343750e-02
     vertex -3.074836e-01  5.139803e-02  0.000000e+00
   endloop
 endfacet
 facet normal -9.009689e-01  4.338837e-01  0.000000e+00
   outer loop
     vertex -3.436793e-01 -2.376324e-02  0.000000e+00
     vertex -3.436793e-01 -2.376324e-02  2.343750e-02
     vertex -3.074836e-01  5.139803e-02  2.343750e-02
   endloop
 endfacet
 facet normal -2.225209e-01  9.749279e-01  0.000000e+00
   outer loop
     vertex -4.250104e-01 -4.232654e-02  0.000000e+00
     vertex -4.250104e-01 -4.232654e-02  2.343750e-02
     vertex -3.436793e-01 -2.376324e-02  2.343750e-02
   endloop
 endfacet
 facet normal -2.225209e-01  9.749279e-01  0.000000e+00
   outer loop
     vertex -4.250104e-01 -4.232654e-02  0.000000e+00
     vertex -3.436793e-01 -2.376324e-02  2.343750e-02
     vertex -3.436793e-01 -2.376324e-02  0.000000e+00
   endloop
 endfacet
 facet normal  6.234898e-01  7.818315e-01 -0.000000e+00
   outer loop
     vertex -4.902329e-01  9.686670e-03  0.000000e+00
     vertex -4.902329e-01  9.686670e-03  2.343750e-02
     vertex -4.250104e-01 -4.232654e-02  2.343750e-02
   endloop
 endfacet
 facet normal  6.234898e-01  7.818315e-01  0.000000e+00
   outer loop
     vertex -4.902329e-01  9.686670e-03  0.000000e+00
     vertex -4.250104e-01 -4.232654e-02  2.343750e-02
     vertex -4.250104e-01 -4.232654e-02  0.000000e+00
   endloop
 endfacet
 facet normal  1.000000e+00  0.000000e+00 -0.000000e+00
   outer loop
     vertex -4.902329e-01  9.310938e-02  0.000000e+00
     vertex -4.902329e-01  9.310938e-02  2.343750e-02
     vertex -4.902329e-01  9.686670e-03  2.343750e-02
   endloop
 endfacet
 facet normal  1.000000e+00  0.000000e+00  0.000000e+00
   outer loop
     vertex -4.902329e-01  9.310938e-02  0.000000e+00
     vertex -4.902329e-01  9.686670e-03  2.343750e-02
     vertex -4.902329e-01  9.686670e-03  0.000000e+00
   endloop
 endfacet
 facet normal  6.234898e-01 -7.818315e-01  0.000000e+00
   outer loop
     vertex -4.250104e-01  1.451226e-01  0.000000e+00
     vertex -4.250104e-01  1.451226e-01  2.343750e-02
     vertex -4.902329e-01  9.310938e-02  2.343750e-02
   endloop
 endfacet
 facet normal  6.234898e-01 -7.818315e-01  0.000000e+00
   outer loop
     vertex -4.250104e-01  1.451226e-01  0.000000e+00
     vertex -4.902329e-01  9.310938e-02  2.343750e-02
     vertex -4.902329e-01  9.310938e-02  0.000000e+00
   endloop
 endfacet
 facet normal -2.225209e-01 -9.749279e-01  0.000000e+00
   outer loop
     vertex -3.436793e-01  1.265593e-01  0.000000e+00
     vertex -3.436793e-01  1.265593e-01  2.343750e-02
     vertex -4.250104e-01  1.451226e-01  2.343750e-02
   endloop
 endfacet
 facet normal -2.225209e-01 -9.749279e-01  0.000000e+00
   outer loop
     vertex -3.436793e-01  1.265593e-01  0.000000e+00
     vertex -4.250104e-01  1.451226e-01  2.343750e-02
     vertex -4.250104e-01  1.451226e-01  0.000000e+00
   endloop
 endfacet
 facet normal -9.009689e-01 -4.338837e-01  0.000000e+00
   outer loop
     vertex -3.074836e-01  5.139803e-02  0.000000e+00
     vertex -3.074836e-01  5.139803e-02  2.343750e-02
     vertex -3.436793e-01  1.265593e-01  2.343750e-02
   endloop
 endfacet
 facet normal -9.009689e-01 -4.338837e-01  0.000000e+00
   outer loop
     vertex -3.074836e-01  5.139803e-02  0.000000e+00
     vertex -3.436793e-01  1.265593e-01  2.343750e-02
     vertex -3.436793e-01  1.265593e-01  0.000000e+00
   endloop
 endfacet
 facet normal -9.009689e-01  4.338837e-01  0.000000e+00
   outer loop
     vertex  6.588700e-01 -2.376324e-02  0.000000e+00
     vertex  6.950658e-01  5.139803e-02  2.343750e-02
     vertex  6.950658e-01  5.139803e-02  0.000000e+00
   endloop
 endfacet
 facet normal -9.009689e-01  4.338837e-01  0.000000e+00
   outer loop
     vertex  6.588700e-01 -2.376324e-02  0.000000e+00
     vertex  6.588700e-01 -2.376324e-02  2.343750e-02
     vertex  6.950658e-01  5.139803e-02  2.343750e-02
   endloop
 endfacet
 facet normal -2.225209e-01  9.749279e-01  0.000000e+00
   outer loop
     vertex  5.775389e-01 -4.232654e-02  0.000000e+00
     vertex  5.775389e-01 -4.232654e-02  2.343750e-02
     vertex  6.588700e-01 -2.376324e-02  2.343750e-02
   endloop
 endfacet
 facet normal -2.225209e-01  9.749279e-01  0.000000e+00
   outer loop
     vertex  5.775389e-01 -4.232654e-02  0.000000e+00
     vertex  6.588700e-01 -2.376324e-02  2.343750e-02
     vertex  6.588700e-01 -2.376324e-02  0.000000e+00
   endloop
 endfacet
 facet normal  6.234898e-01  7.818315e-01 -0.000000e+00
   outer loop
     vertex  5.123164e-01  9.686670e-03  0.000000e+00
     vertex  5.123164e-01  9.686670e-03  2.343750e-02
     vertex  5.775389e-01 -4.232654e-02  2.343750e-02
   endloop
 endfacet
 facet normal  6.234898e-01  7.818315e-01  0.000000e+00
   outer loop
     vertex  5.123164e-01  9.686670e-03  0.000000e+00
     vertex  5.775389e-01 -4.232654e-02  2.343750e-02
     vertex  5.775389e-01 -4.232654e-02  0.000000e+00
   endloop
 endfacet
 facet normal  1.000000e+00  0.000000e+00 -0.000000e+00
   outer loop
     vertex  5.123164e-01  9.310938e-02  0.000000e+00
     vertex  5.123164e-01  9.310938e-02  2.343750e-02
     vertex  5.123164e-01  9.686670e-03  2.343750e-02
   endloop
 endfacet
 facet normal  1.000000e+00  0.000000e+00  0.000000e+00
   outer loop
     vertex  5.123164e-01  9.310938e-02  0.000000e+00
     vertex  5.123164e-01  9.686670e-03  2.343750e-02
     vertex  5.123164e-01  9.686670e-03  0.000000e+00
   endloop
 endfacet
 facet normal  6.234898e-01 -7.818315e-01  0.000000e+00
   outer loop
     vertex  5.775389e-01  1.451226e-01  0.000000e+00
     vertex  5.775389e-01  1.451226e-01  2.343750e-02
     vertex  5.123164e-01  9.310938e-02  2.343750e-02
   endloop
 endfacet
 facet normal  6.234898e-01 -7.818315e-01  0.000000e+00
   outer loop
     vertex  5.775389e-01  1.451226e-01  0.000000e+00
     vertex  5.123164e-01  9.310938e-02  2.343750e-02
     vertex  5.123164e-01  9.310938e-02  0.000000e+00
   endloop
 endfacet
 facet normal -2.225209e-01 -9.749279e-01  0.000000e+00
   outer loop
     vertex  6.588700e-01  1.265593e-01  0.000000e+00
     vertex  6.588700e-01  1.265593e-01  2.343750e-02
     vertex  5.775389e-01  1.451226e-01  2.343750e-02
   endloop
 endfacet
 facet normal -2.225209e-01 -9.749279e-01  0.000000e+00
   outer loop
     vertex  6.588700e-01  1.265593e-01  0.000000e+00
     vertex  5.775389e-01  1.451226e-01  2.343750e-02
     vertex  5.775389e-01  1.451226e-01  0.000000e+00
   endloop
 endfacet
 facet normal -9.009689e-01 -4.338837e-01  0.000000e+00
   outer loop
     vertex  6.950658e-01  5.139803e-02  0.000000e+00
     vertex  6.950658e-01  5.139803e-02  2.343750e-02
     vertex  6.588700e-01  1.265593e-01  2.343750e-02
   endloop
 endfacet
 facet normal -9.009689e-01 -4.338837e-01  0.000000e+00
   outer loop
     vertex  6.950658e-01  5.139803e-02  0.000000e+00
     vertex  6.588700e-01  1.265593e-01  2.343750e-02
     vertex  6.588700e-01  1.265593e-01  0.000000e+00
   endloop
 endfacet
 facet normal -0.000000e+00  0.000000e+00 -1.000000e+00
   outer loop
     vertex -4.250104e-01 -4.232654e-02  0.000000e+00
     vertex -5.546875e-01 -8.593750e-02  0.000000e+00
     vertex -4.902329e-01  9.686670e-03  0.000000e+00
   endloop
 endfacet
 facet normal  0.000000e+00 -0.000000e+00 -1.000000e+00
   outer loop
     vertex -4.902329e-01  9.310938e-02  0.000000e+00
     vertex -4.902329e-01  9.686670e-03  0.000000e+00
     vertex -5.546875e-01 -8.593750e-02  0.000000e+00
   endloop
 endfacet
 facet normal  0.000000e+00  0.000000e+00 -1.000000e+00
   outer loop
     vertex -3.436793e-01 -2.376324e-02  0.000000e+00
     vertex -5.546875e-01 -8.593750e-02  0.000000e+00
     vertex -4.250104e-01 -4.232654e-02  0.000000e+00
   endloop
 endfacet
 facet normal  0.000000e+00  0.000000e+00 -1.000000e+00
   outer loop
     vertex -5.546875e-01  1.887336e-01  0.000000e+00
     vertex -4.902329e-01  9.310938e-02  0.000000e+00
     vertex -5.546875e-01 -8.593750e-02  0.000000e+00
   endloop
 endfacet
 facet normal -0.000000e+00  0.000000e+00 -1.000000e+00
   outer loop
     vertex -4.250104e-01  1.451226e-01  0.000000e+00
     vertex -4.902329e-01  9.310938e-02  0.000000e+00
     vertex -5.546875e-01  1.887336e-01  0.000000e+00
   endloop
 endfacet
 facet normal -0.000000e+00  0.000000e+00 -1.000000e+00
   outer loop
     vertex  5.123164e-01  9.686670e-03  0.000000e+00
     vertex -3.436793e-01 -2.376324e-02  0.000000e+00
     vertex -3.074836e-01  5.139803e-02  0.000000e+00
   endloop
 endfacet
 facet normal  0.000000e+00  0.000000e+00 -1.000000e+00
   outer loop
     vertex  5.775389e-01 -4.232654e-02  0.000000e+00
     vertex -3.436793e-01 -2.376324e-02  0.000000e+00
     vertex  5.123164e-01  9.686670e-03  0.000000e+00
   endloop
 endfacet
 facet normal -0.000000e+00  0.000000e+00 -1.000000e+00
   outer loop
     vertex  5.775389e-01 -4.232654e-02  0.000000e+00
     vertex -5.546875e-01 -8.593750e-02  0.000000e+00
     vertex -3.436793e-01 -2.376324e-02  0.000000e+00
   endloop
 endfacet
 facet normal -0.000000e+00  0.000000e+00 -1.000000e+00
   outer loop
     vertex  5.123164e-01  9.310938e-02  0.000000e+00
     vertex -3.074836e-01  5.139803e-02  0.000000e+00
     vertex -3.436793e-01  1.265593e-01  0.000000e+00
   endloop
 endfacet
 facet normal  0.000000e+00 -0.000000e+00 -1.000000e+00
   outer loop
     vertex  5.123164e-01  9.310938e-02  0.000000e+00
     vertex  5.123164e-01  9.686670e-03  0.000000e+00
     vertex -3.074836e-01  5.139803e-02  0.000000e+00
   endloop
 endfacet
 facet normal  0.000000e+00  0.000000e+00 -1.000000e+00
   outer loop
     vertex  7.500000e-01 -8.593750e-02  0.000000e+00
     vertex  5.775389e-01 -4.232654e-02  0.000000e+00
     vertex  6.588700e-01 -2.376324e-02  0.000000e+00
   endloop
 endfacet
 facet normal  0.000000e+00  0.000000e+00 -1.000000e+00
   outer loop
     vertex  7.500000e-01 -8.593750e-02  0.000000e+00
     vertex -5.546875e-01 -8.593750e-02  0.000000e+00
     vertex  5.775389e-01 -4.232654e-02  0.000000e+00
   endloop
 endfacet
 facet normal  0.000000e+00  0.000000e+00 -1.000000e+00
   outer loop
     vertex  5.775389e-01  1.451226e-01  0.000000e+00
     vertex  5.123164e-01  9.310938e-02  0.000000e+00
     vertex -3.436793e-01  1.265593e-01  0.000000e+00
   endloop
 endfacet
 facet normal  0.000000e+00 -0.000000e+00 -1.000000e+00
   outer loop
     vertex  6.950658e-01  5.139803e-02  0.000000e+00
     vertex  7.500000e-01 -8.593750e-02  0.000000e+00
     vertex  6.588700e-01 -2.376324e-02  0.000000e+00
   endloop
 endfacet
 facet normal  0.000000e+00  0.000000e+00 -1.000000e+00
   outer loop
     vertex  7.500000e-01  1.887336e-01  0.000000e+00
     vertex  6.950658e-01  5.139803e-02  0.000000e+00
     vertex  6.588700e-01  1.265593e-01  0.000000e+00
   endloop
 endfacet
 facet normal  0.000000e+00  0.000000e+00 -1.000000e+00
   outer loop
     vertex  7.500000e-01  1.887336e-01  0.000000e+00
     vertex  6.588700e-01  1.265593e-01  0.000000e+00
     vertex  5.775389e-01  1.451226e-01  0.000000e+00
   endloop
 endfacet
 facet normal  0.000000e+00 -0.000000e+00 -1.000000e+00
   outer loop
     vertex  7.500000e-01  1.887336e-01  0.000000e+00
     vertex  7.500000e-01 -8.593750e-02  0.000000e+00
     vertex  6.950658e-01  5.139803e-02  0.000000e+00
   endloop
 endfacet
 facet normal -0.000000e+00  0.000000e+00 -1.000000e+00
   outer loop
     vertex  7.500000e-01  1.887336e-01  0.000000e+00
     vertex -4.250104e-01  1.451226e-01  0.000000e+00
     vertex -5.546875e-01  1.887336e-01  0.000000e+00
   endloop
 endfacet
 facet normal  0.000000e+00  0.000000e+00 -1.000000e+00
   outer loop
     vertex  7.500000e-01  1.887336e-01  0.000000e+00
     vertex -3.436793e-01  1.265593e-01  0.000000e+00
     vertex -4.250104e-01  1.451226e-01  0.000000e+00
   endloop
 endfacet
 facet normal  0.000000e+00  0.000000e+00 -1.000000e+00
   outer loop
     vertex  7.500000e-01  1.887336e-01  0.000000e+00
     vertex  5.775389e-01  1.451226e-01  0.000000e+00
     vertex -3.436793e-01  1.265593e-01  0.000000e+00
   endloop
 endfacet
 facet normal  0.000000e+00  0.000000e+00  1.000000e+00
   outer loop
     vertex -4.250104e-01 -4.232654e-02  2.343750e-02
     vertex -4.902329e-01  9.686670e-03  2.343750e-02
     vertex -5.546875e-01 -8.593750e-02  2.343750e-02
   endloop
 endfacet
 facet normal  0.000000e+00  0.000000e+00  1.000000e+00
   outer loop
     vertex -4.902329e-01  9.310938e-02  2.343750e-02
     vertex -5.546875e-01 -8.593750e-02  2.343750e-02
     vertex -4.902329e-01  9.686670e-03  2.343750e-02
   endloop
 endfacet
 facet normal  0.000000e+00  0.000000e+00  1.000000e+00
   outer loop
     vertex -3.436793e-01 -2.376324e-02  2.343750e-02
     vertex -4.250104e-01 -4.232654e-02  2.343750e-02
     vertex -5.546875e-01 -8.593750e-02  2.343750e-02
   endloop
 endfacet
 facet normal  0.000000e+00  0.000000e+00  1.000000e+00
   outer loop
     vertex -5.546875e-01  1.887336e-01  2.343750e-02
     vertex -5.546875e-01 -8.593750e-02  2.343750e-02
     vertex -4.902329e-01  9.310938e-02  2.343750e-02
   endloop
 endfacet
 facet normal  0.000000e+00  0.000000e+00  1.000000e+00
   outer loop
     vertex -4.250104e-01  1.451226e-01  2.343750e-02
     vertex -5.546875e-01  1.887336e-01  2.343750e-02
     vertex -4.902329e-01  9.310938e-02  2.343750e-02
   endloop
 endfacet
 facet normal  0.000000e+00  0.000000e+00  1.000000e+00
   outer loop
     vertex  5.123164e-01  9.686670e-03  2.343750e-02
     vertex -3.074836e-01  5.139803e-02  2.343750e-02
     vertex -3.436793e-01 -2.376324e-02  2.343750e-02
   endloop
 endfacet
 facet normal  0.000000e+00  0.000000e+00  1.000000e+00
   outer loop
     vertex  5.775389e-01 -4.232654e-02  2.343750e-02
     vertex  5.123164e-01  9.686670e-03  2.343750e-02
     vertex -3.436793e-01 -2.376324e-02  2.343750e-02
   endloop
 endfacet
 facet normal  0.000000e+00  0.000000e+00  1.000000e+00
   outer loop
     vertex  5.775389e-01 -4.232654e-02  2.343750e-02
     vertex -3.436793e-01 -2.376324e-02  2.343750e-02
     vertex -5.546875e-01 -8.593750e-02  2.343750e-02
   endloop
 endfacet
 facet normal  0.000000e+00  0.000000e+00  1.000000e+00
   outer loop
     vertex  5.123164e-01  9.310938e-02  2.343750e-02
     vertex -3.436793e-01  1.265593e-01  2.343750e-02
     vertex -3.074836e-01  5.139803e-02  2.343750e-02
   endloop
 endfacet
 facet normal  0.000000e+00  0.000000e+00  1.000000e+00
   outer loop
     vertex  5.123164e-01  9.310938e-02  2.343750e-02
     vertex -3.074836e-01  5.139803e-02  2.343750e-02
     vertex  5.123164e-01  9.686670e-03  2.343750e-02
   endloop
 endfacet
 facet normal  0.000000e+00  0.000000e+00  1.000000e+00
   outer loop
     vertex  7.500000e-01 -8.593750e-02  2.343750e-02
     vertex  6.588700e-01 -2.376324e-02  2.343750e-02
     vertex  5.775389e-01 -4.232654e-02  2.343750e-02
   endloop
 endfacet
 facet normal  0.000000e+00  0.000000e+00  1.000000e+00
   outer loop
     vertex  7.500000e-01 -8.593750e-02  2.343750e-02
     vertex  5.775389e-01 -4.232654e-02  2.343750e-02
     vertex -5.546875e-01 -8.593750e-02  2.343750e-02
   endloop
 endfacet
 facet normal  0.000000e+00  0.000000e+00  1.000000e+00
   outer loop
     vertex  5.775389e-01  1.451226e-01  2.343750e-02
     vertex -3.436793e-01  1.265593e-01  2.343750e-02
     vertex  5.123164e-01  9.310938e-02  2.343750e-02
   endloop
 endfacet
 facet normal  0.000000e+00  0.000000e+00  1.000000e+00
   outer loop
     vertex  6.950658e-01  5.139803e-02  2.343750e-02
     vertex  6.588700e-01 -2.376324e-02  2.343750e-02
     vertex  7.500000e-01 -8.593750e-02  2.343750e-02
   endloop
 endfacet
 facet normal  0.000000e+00  0.000000e+00  1.000000e+00
   outer loop
     vertex  7.500000e-01  1.887336e-01  2.343750e-02
     vertex  6.588700e-01  1.265593e-01  2.343750e-02
     vertex  6.950658e-01  5.139803e-02  2.343750e-02
   endloop
 endfacet
 facet normal  0.000000e+00  0.000000e+00  1.000000e+00
   outer loop
     vertex  7.500000e-01  1.887336e-01  2.343750e-02
     vertex  5.775389e-01  1.451226e-01  2.343750e-02
     vertex  6.588700e-01  1.265593e-01  2.343750e-02
   endloop
 endfacet
 facet normal  0.000000e+00  0.000000e+00  1.000000e+00
   outer loop
     vertex  7.500000e-01  1.887336e-01  2.343750e-02
     vertex  6.950658e-01  5.139803e-02  2.343750e-02
     vertex  7.500000e-01 -8.593750e-02  2.343750e-02
   endloop
 endfacet
 facet normal  0.000000e+00  0.000000e+00  1.000000e+00
   outer loop
     vertex  7.500000e-01  1.887336e-01  2.343750e-02
     vertex -5.546875e-01  1.887336e-01  2.343750e-02
     vertex -4.250104e-01  1.451226e-01  2.343750e-02
   endloop
 endfacet
 facet normal  0.000000e+00  0.000000e+00  1.000000e+00
   outer loop
     vertex  7.500000e-01  1.887336e-01  2.343750e-02
     vertex -4.250104e-01  1.451226e-01  2.343750e-02
     vertex -3.436793e-01  1.265593e-01  2.343750e-02
   endloop
 endfacet
 facet normal  0.000000e+00  0.000000e+00  1.000000e+00
   outer loop
     vertex  7.500000e-01  1.887336e-01  2.343750e-02
     vertex -3.436793e-01  1.265593e-01  2.343750e-02
     vertex  5.775389e-01  1.451226e-01  2.343750e-02
   endloop
 endfacet
endsolid
