solid 
 facet normal -1.205367e-01  0.000000e+00 -9.927089e-01
   outer loop
     vertex -1.697027e-01 -8.587451e-18 -7.205410e-01
     vertex  7.894737e-03  9.668264e-19 -7.421053e-01
     vertex  7.894737e-03 -7.500000e-01 -7.421053e-01
   endloop
 endfacet
 facet normal -1.205367e-01 -0.000000e+00 -9.927089e-01
   outer loop
     vertex -1.697027e-01 -8.587451e-18 -7.205410e-01
     vertex  7.894737e-03 -7.500000e-01 -7.421053e-01
     vertex -1.697027e-01 -7.500000e-01 -7.205410e-01
   endloop
 endfacet
 facet normal -3.546049e-01 -0.000000e+00 -9.350162e-01
   outer loop
     vertex -3.369788e-01 -1.494561e-17 -6.571016e-01
     vertex -1.697027e-01 -7.500000e-01 -7.205410e-01
     vertex -3.369788e-01 -7.500000e-01 -6.571016e-01
   endloop
 endfacet
 facet normal -3.546049e-01  0.000000e+00 -9.350162e-01
   outer loop
     vertex -3.369788e-01 -1.494561e-17 -6.571016e-01
     vertex -1.697027e-01 -8.587451e-18 -7.205410e-01
     vertex -1.697027e-01 -7.500000e-01 -7.205410e-01
   endloop
 endfacet
 facet normal -5.680647e-01 -0.000000e+00 -8.229839e-01
   outer loop
     vertex -4.842121e-01 -1.773814e-17 -5.554738e-01
     vertex -3.369788e-01 -7.500000e-01 -6.571016e-01
     vertex -4.842121e-01 -7.500000e-01 -5.554738e-01
   endloop
 endfacet
 facet normal -5.680647e-01  0.000000e+00 -8.229839e-01
   outer loop
     vertex -4.842121e-01 -1.773814e-17 -5.554738e-01
     vertex -3.369788e-01 -1.494561e-17 -6.571016e-01
     vertex -3.369788e-01 -7.500000e-01 -6.571016e-01
   endloop
 endfacet
 facet normal -7.485107e-01 -4.908094e-17 -6.631227e-01
   outer loop
     vertex -6.028459e-01 -1.680275e-17 -4.215638e-01
     vertex -4.842121e-01 -7.500000e-01 -5.554738e-01
     vertex -6.028459e-01 -7.500000e-01 -4.215638e-01
   endloop
 endfacet
 facet normal -7.485107e-01  0.000000e+00 -6.631227e-01
   outer loop
     vertex -6.028459e-01 -1.680275e-17 -4.215638e-01
     vertex -4.842121e-01 -1.773814e-17 -5.554738e-01
     vertex -4.842121e-01 -7.500000e-01 -5.554738e-01
   endloop
 endfacet
 facet normal -8.854560e-01 -3.439642e-17 -4.647232e-01
   outer loop
     vertex -6.859857e-01 -1.219380e-17 -2.631542e-01
     vertex -6.028459e-01 -7.500000e-01 -4.215638e-01
     vertex -6.859857e-01 -7.500000e-01 -2.631542e-01
   endloop
 endfacet
 facet normal -8.854560e-01 -3.878605e-17 -4.647232e-01
   outer loop
     vertex -6.859857e-01 -1.219380e-17 -2.631542e-01
     vertex -6.028459e-01 -1.680275e-17 -4.215638e-01
     vertex -6.028459e-01 -7.500000e-01 -4.215638e-01
   endloop
 endfacet
 facet normal -9.709418e-01 -1.328469e-17 -2.393157e-01
   outer loop
     vertex -7.287997e-01 -4.179147e-18 -8.945090e-02
     vertex -6.859857e-01 -7.500000e-01 -2.631542e-01
     vertex -7.287997e-01 -7.500000e-01 -8.945090e-02
   endloop
 endfacet
 facet normal -9.709418e-01 -1.939302e-17 -2.393157e-01
   outer loop
     vertex -7.287997e-01 -4.179147e-18 -8.945090e-02
     vertex -6.859857e-01 -1.219380e-17 -2.631542e-01
     vertex -6.859857e-01 -7.500000e-01 -2.631542e-01
   endloop
 endfacet
 facet normal -9.709418e-01  1.328469e-17  2.393157e-01
   outer loop
     vertex -7.287997e-01  6.775430e-18  8.945090e-02
     vertex -7.287997e-01 -7.500000e-01  8.945090e-02
     vertex -6.859857e-01 -7.500000e-01  2.631542e-01
   endloop
 endfacet
 facet normal -1.000000e+00  1.377957e-31  2.482307e-15
   outer loop
     vertex -7.287997e-01  6.775430e-18  8.945090e-02
     vertex -7.287997e-01 -7.500000e-01 -8.945090e-02
     vertex -7.287997e-01 -7.500000e-01  8.945090e-02
   endloop
 endfacet
 facet normal -1.000000e+00  9.186381e-32  2.482307e-15
   outer loop
     vertex -7.287997e-01  6.775430e-18  8.945090e-02
     vertex -7.287997e-01 -4.179147e-18 -8.945090e-02
     vertex -7.287997e-01 -7.500000e-01 -8.945090e-02
   endloop
 endfacet
 facet normal -9.709418e-01  1.771292e-17  2.393157e-01
   outer loop
     vertex -6.859857e-01  2.003329e-17  2.631542e-01
     vertex -7.287997e-01  6.775430e-18  8.945090e-02
     vertex -6.859857e-01 -7.500000e-01  2.631542e-01
   endloop
 endfacet
 facet normal -8.854560e-01  3.439642e-17  4.647232e-01
   outer loop
     vertex -6.028459e-01  3.482393e-17  4.215638e-01
     vertex -6.859857e-01 -7.500000e-01  2.631542e-01
     vertex -6.028459e-01 -7.500000e-01  4.215638e-01
   endloop
 endfacet
 facet normal -8.854560e-01  3.878605e-17  4.647232e-01
   outer loop
     vertex -6.028459e-01  3.482393e-17  4.215638e-01
     vertex -6.859857e-01  2.003329e-17  2.631542e-01
     vertex -6.859857e-01 -7.500000e-01  2.631542e-01
   endloop
 endfacet
 facet normal -7.485107e-01  0.000000e+00  6.631227e-01
   outer loop
     vertex -4.842121e-01  5.028777e-17  5.554738e-01
     vertex -6.028459e-01 -7.500000e-01  4.215638e-01
     vertex -4.842121e-01 -7.500000e-01  5.554738e-01
   endloop
 endfacet
 facet normal -7.485107e-01  2.585736e-17  6.631227e-01
   outer loop
     vertex -4.842121e-01  5.028777e-17  5.554738e-01
     vertex -6.028459e-01  3.482393e-17  4.215638e-01
     vertex -6.028459e-01 -7.500000e-01  4.215638e-01
   endloop
 endfacet
 facet normal -5.680647e-01  0.000000e+00  8.229839e-01
   outer loop
     vertex -3.369788e-01  6.552612e-17  6.571016e-01
     vertex -4.842121e-01  5.028777e-17  5.554738e-01
     vertex -4.842121e-01 -7.500000e-01  5.554738e-01
   endloop
 endfacet
 facet normal -5.680647e-01  0.000000e+00  8.229839e-01
   outer loop
     vertex -3.369788e-01  6.552612e-17  6.571016e-01
     vertex -4.842121e-01 -7.500000e-01  5.554738e-01
     vertex -3.369788e-01 -7.500000e-01  6.571016e-01
   endloop
 endfacet
 facet normal -3.546049e-01  0.000000e+00  9.350162e-01
   outer loop
     vertex -1.697027e-01  7.965338e-17  7.205410e-01
     vertex -3.369788e-01  6.552612e-17  6.571016e-01
     vertex -3.369788e-01 -7.500000e-01  6.571016e-01
   endloop
 endfacet
 facet normal -1.205367e-01  0.000000e+00  9.927089e-01
   outer loop
     vertex -1.697027e-01  7.965338e-17  7.205410e-01
     vertex -1.697027e-01 -7.500000e-01  7.205410e-01
     vertex  7.894737e-03 -7.500000e-01  7.421053e-01
   endloop
 endfacet
 facet normal -3.546049e-01  0.000000e+00  9.350162e-01
   outer loop
     vertex -1.697027e-01  7.965338e-17  7.205410e-01
     vertex -3.369788e-01 -7.500000e-01  6.571016e-01
     vertex -1.697027e-01 -7.500000e-01  7.205410e-01
   endloop
 endfacet
 facet normal -1.205367e-01  0.000000e+00  9.927089e-01
   outer loop
     vertex  7.894737e-03  9.184851e-17  7.421053e-01
     vertex -1.697027e-01  7.965338e-17  7.205410e-01
     vertex  7.894737e-03 -7.500000e-01  7.421053e-01
   endloop
 endfacet
 facet normal  1.205367e-01  0.000000e+00  9.927089e-01
   outer loop
     vertex  7.894737e-03  9.184851e-17  7.421053e-01
     vertex  7.894737e-03 -7.500000e-01  7.421053e-01
     vertex  1.854922e-01 -7.500000e-01  7.205410e-01
   endloop
 endfacet
 facet normal  1.205367e-01  0.000000e+00  9.927089e-01
   outer loop
     vertex  1.854922e-01  1.014028e-16  7.205410e-01
     vertex  7.894737e-03  9.184851e-17  7.421053e-01
     vertex  1.854922e-01 -7.500000e-01  7.205410e-01
   endloop
 endfacet
 facet normal  3.546049e-01  0.000000e+00  9.350162e-01
   outer loop
     vertex  3.527682e-01  1.077609e-16  6.571016e-01
     vertex  1.854922e-01  1.014028e-16  7.205410e-01
     vertex  1.854922e-01 -7.500000e-01  7.205410e-01
   endloop
 endfacet
 facet normal  5.680647e-01  0.000000e+00  8.229839e-01
   outer loop
     vertex  3.527682e-01  1.077609e-16  6.571016e-01
     vertex  3.527682e-01 -7.500000e-01  6.571016e-01
     vertex  5.000016e-01 -7.500000e-01  5.554738e-01
   endloop
 endfacet
 facet normal  3.546049e-01  0.000000e+00  9.350162e-01
   outer loop
     vertex  3.527682e-01  1.077609e-16  6.571016e-01
     vertex  1.854922e-01 -7.500000e-01  7.205410e-01
     vertex  3.527682e-01 -7.500000e-01  6.571016e-01
   endloop
 endfacet
 facet normal  5.680647e-01  0.000000e+00  8.229839e-01
   outer loop
     vertex  5.000016e-01  1.105535e-16  5.554738e-01
     vertex  3.527682e-01  1.077609e-16  6.571016e-01
     vertex  5.000016e-01 -7.500000e-01  5.554738e-01
   endloop
 endfacet
 facet normal  7.485107e-01  0.000000e+00  6.631227e-01
   outer loop
     vertex  5.000016e-01  1.105535e-16  5.554738e-01
     vertex  5.000016e-01 -7.500000e-01  5.554738e-01
     vertex  6.186354e-01 -7.500000e-01  4.215638e-01
   endloop
 endfacet
 facet normal  7.485107e-01  4.908094e-17  6.631227e-01
   outer loop
     vertex  6.186354e-01  1.096181e-16  4.215638e-01
     vertex  5.000016e-01  1.105535e-16  5.554738e-01
     vertex  6.186354e-01 -7.500000e-01  4.215638e-01
   endloop
 endfacet
 facet normal  8.854560e-01  2.585736e-17  4.647232e-01
   outer loop
     vertex  7.017752e-01  1.050091e-16  2.631542e-01
     vertex  6.186354e-01  1.096181e-16  4.215638e-01
     vertex  6.186354e-01 -7.500000e-01  4.215638e-01
   endloop
 endfacet
 facet normal  8.854560e-01  3.439642e-17  4.647232e-01
   outer loop
     vertex  7.017752e-01  1.050091e-16  2.631542e-01
     vertex  6.186354e-01 -7.500000e-01  4.215638e-01
     vertex  7.017752e-01 -7.500000e-01  2.631542e-01
   endloop
 endfacet
 facet normal  1.000000e+00  0.000000e+00  0.000000e+00
   outer loop
     vertex  7.445892e-01  9.699448e-17  8.945090e-02
     vertex  7.445892e-01 -7.500000e-01  8.945090e-02
     vertex  7.445892e-01 -7.500000e-01 -8.945090e-02
   endloop
 endfacet
 facet normal  9.709418e-01  1.328469e-17  2.393157e-01
   outer loop
     vertex  7.445892e-01  9.699448e-17  8.945090e-02
     vertex  7.017752e-01 -7.500000e-01  2.631542e-01
     vertex  7.445892e-01 -7.500000e-01  8.945090e-02
   endloop
 endfacet
 facet normal  9.709418e-01  1.939302e-17  2.393157e-01
   outer loop
     vertex  7.445892e-01  9.699448e-17  8.945090e-02
     vertex  7.017752e-01  1.050091e-16  2.631542e-01
     vertex  7.017752e-01 -7.500000e-01  2.631542e-01
   endloop
 endfacet
 facet normal  1.000000e+00  0.000000e+00 -0.000000e+00
   outer loop
     vertex  7.445892e-01  8.603991e-17 -8.945090e-02
     vertex  7.445892e-01  9.699448e-17  8.945090e-02
     vertex  7.445892e-01 -7.500000e-01 -8.945090e-02
   endloop
 endfacet
 facet normal  8.854560e-01 -3.439642e-17 -4.647232e-01
   outer loop
     vertex  7.017752e-01  7.278205e-17 -2.631542e-01
     vertex  7.017752e-01 -7.500000e-01 -2.631542e-01
     vertex  6.186354e-01 -7.500000e-01 -4.215638e-01
   endloop
 endfacet
 facet normal  9.709418e-01 -1.771292e-17 -2.393157e-01
   outer loop
     vertex  7.017752e-01  7.278205e-17 -2.631542e-01
     vertex  7.445892e-01 -7.500000e-01 -8.945090e-02
     vertex  7.017752e-01 -7.500000e-01 -2.631542e-01
   endloop
 endfacet
 facet normal  9.709418e-01 -1.939302e-17 -2.393157e-01
   outer loop
     vertex  7.017752e-01  7.278205e-17 -2.631542e-01
     vertex  7.445892e-01  8.603991e-17 -8.945090e-02
     vertex  7.445892e-01 -7.500000e-01 -8.945090e-02
   endloop
 endfacet
 facet normal  8.854560e-01 -3.439642e-17 -4.647232e-01
   outer loop
     vertex  6.186354e-01  5.799141e-17 -4.215638e-01
     vertex  7.017752e-01  7.278205e-17 -2.631542e-01
     vertex  6.186354e-01 -7.500000e-01 -4.215638e-01
   endloop
 endfacet
 facet normal  5.680647e-01  0.000000e+00 -8.229839e-01
   outer loop
     vertex  5.000016e-01  4.252756e-17 -5.554738e-01
     vertex  5.000016e-01 -7.500000e-01 -5.554738e-01
     vertex  3.527682e-01 -7.500000e-01 -6.571016e-01
   endloop
 endfacet
 facet normal  7.485107e-01  0.000000e+00 -6.631227e-01
   outer loop
     vertex  5.000016e-01  4.252756e-17 -5.554738e-01
     vertex  6.186354e-01 -7.500000e-01 -4.215638e-01
     vertex  5.000016e-01 -7.500000e-01 -5.554738e-01
   endloop
 endfacet
 facet normal  7.485107e-01 -5.171473e-17 -6.631227e-01
   outer loop
     vertex  5.000016e-01  4.252756e-17 -5.554738e-01
     vertex  6.186354e-01  5.799141e-17 -4.215638e-01
     vertex  6.186354e-01 -7.500000e-01 -4.215638e-01
   endloop
 endfacet
 facet normal  3.546049e-01  0.000000e+00 -9.350162e-01
   outer loop
     vertex  3.527682e-01  2.728921e-17 -6.571016e-01
     vertex  3.527682e-01 -7.500000e-01 -6.571016e-01
     vertex  1.854922e-01 -7.500000e-01 -7.205410e-01
   endloop
 endfacet
 facet normal  5.680647e-01  0.000000e+00 -8.229839e-01
   outer loop
     vertex  3.527682e-01  2.728921e-17 -6.571016e-01
     vertex  5.000016e-01  4.252756e-17 -5.554738e-01
     vertex  3.527682e-01 -7.500000e-01 -6.571016e-01
   endloop
 endfacet
 facet normal  3.546049e-01  0.000000e+00 -9.350162e-01
   outer loop
     vertex  1.854922e-01  1.316196e-17 -7.205410e-01
     vertex  3.527682e-01  2.728921e-17 -6.571016e-01
     vertex  1.854922e-01 -7.500000e-01 -7.205410e-01
   endloop
 endfacet
 facet normal  1.205367e-01  0.000000e+00 -9.927089e-01
   outer loop
     vertex  7.894737e-03  9.668264e-19 -7.421053e-01
     vertex  1.854922e-01 -7.500000e-01 -7.205410e-01
     vertex  7.894737e-03 -7.500000e-01 -7.421053e-01
   endloop
 endfacet
 facet normal  1.205367e-01  0.000000e+00 -9.927089e-01
   outer loop
     vertex  7.894737e-03  9.668264e-19 -7.421053e-01
     vertex  1.854922e-01  1.316196e-17 -7.205410e-01
     vertex  1.854922e-01 -7.500000e-01 -7.205410e-01
   endloop
 endfacet
 facet normal  3.420201e-01  0.000000e+00  9.396926e-01
   outer loop
     vertex -3.259311e-01  4.572454e-18 -3.493951e-01
     vertex -2.447368e-01 -7.500000e-01 -3.789474e-01
     vertex -2.447368e-01  7.734611e-18 -3.789474e-01
   endloop
 endfacet
 facet normal  3.420201e-01  0.000000e+00  9.396926e-01
   outer loop
     vertex -3.259311e-01  4.572454e-18 -3.493951e-01
     vertex -3.259311e-01 -7.500000e-01 -3.493951e-01
     vertex -2.447368e-01 -7.500000e-01 -3.789474e-01
   endloop
 endfacet
 facet normal  8.660254e-01  0.000000e+00  5.000000e-01
   outer loop
     vertex -3.691336e-01  6.509016e-18 -2.745661e-01
     vertex -3.691336e-01 -7.500000e-01 -2.745661e-01
     vertex -3.259311e-01 -7.500000e-01 -3.493951e-01
   endloop
 endfacet
 facet normal  8.660254e-01  0.000000e+00  5.000000e-01
   outer loop
     vertex -3.691336e-01  6.509016e-18 -2.745661e-01
     vertex -3.259311e-01 -7.500000e-01 -3.493951e-01
     vertex -3.259311e-01  4.572454e-18 -3.493951e-01
   endloop
 endfacet
 facet normal  9.848078e-01  0.000000e+00 -1.736482e-01
   outer loop
     vertex -3.541295e-01  1.263816e-17 -1.894737e-01
     vertex -3.541295e-01 -7.500000e-01 -1.894737e-01
     vertex -3.691336e-01 -7.500000e-01 -2.745661e-01
   endloop
 endfacet
 facet normal  9.848078e-01  0.000000e+00 -1.736482e-01
   outer loop
     vertex -3.541295e-01  1.263816e-17 -1.894737e-01
     vertex -3.691336e-01 -7.500000e-01 -2.745661e-01
     vertex -3.691336e-01  6.509016e-18 -2.745661e-01
   endloop
 endfacet
 facet normal  6.427876e-01  0.000000e+00 -7.660444e-01
   outer loop
     vertex -2.879394e-01  2.009199e-17 -1.339336e-01
     vertex -2.879394e-01 -7.500000e-01 -1.339336e-01
     vertex -3.541295e-01 -7.500000e-01 -1.894737e-01
   endloop
 endfacet
 facet normal  6.427876e-01  0.000000e+00 -7.660444e-01
   outer loop
     vertex -2.879394e-01  2.009199e-17 -1.339336e-01
     vertex -3.541295e-01 -7.500000e-01 -1.894737e-01
     vertex -3.541295e-01  1.263816e-17 -1.894737e-01
   endloop
 endfacet
 facet normal -6.427876e-01 -0.000000e+00 -7.660444e-01
   outer loop
     vertex -2.015343e-01  2.538277e-17 -1.339336e-01
     vertex -1.353442e-01 -7.500000e-01 -1.894737e-01
     vertex -2.015343e-01 -7.500000e-01 -1.339336e-01
   endloop
 endfacet
 facet normal  0.000000e+00 -0.000000e+00 -1.000000e+00
   outer loop
     vertex -2.015343e-01  2.538277e-17 -1.339336e-01
     vertex -2.015343e-01 -7.500000e-01 -1.339336e-01
     vertex -2.879394e-01 -7.500000e-01 -1.339336e-01
   endloop
 endfacet
 facet normal  0.000000e+00  0.000000e+00 -1.000000e+00
   outer loop
     vertex -2.015343e-01  2.538277e-17 -1.339336e-01
     vertex -2.879394e-01 -7.500000e-01 -1.339336e-01
     vertex -2.879394e-01  2.009199e-17 -1.339336e-01
   endloop
 endfacet
 facet normal -6.427876e-01 -0.000000e+00 -7.660444e-01
   outer loop
     vertex -1.353442e-01  2.603490e-17 -1.894737e-01
     vertex -1.353442e-01 -7.500000e-01 -1.894737e-01
     vertex -2.015343e-01  2.538277e-17 -1.339336e-01
   endloop
 endfacet
 facet normal -9.848078e-01 -0.000000e+00 -1.736482e-01
   outer loop
     vertex -1.203401e-01  2.174323e-17 -2.745661e-01
     vertex -1.203401e-01 -7.500000e-01 -2.745661e-01
     vertex -1.353442e-01 -7.500000e-01 -1.894737e-01
   endloop
 endfacet
 facet normal -9.848078e-01  0.000000e+00 -1.736482e-01
   outer loop
     vertex -1.203401e-01  2.174323e-17 -2.745661e-01
     vertex -1.353442e-01 -7.500000e-01 -1.894737e-01
     vertex -1.353442e-01  2.603490e-17 -1.894737e-01
   endloop
 endfacet
 facet normal -8.660254e-01  0.000000e+00  5.000000e-01
   outer loop
     vertex -1.635426e-01  1.451588e-17 -3.493951e-01
     vertex -1.635426e-01 -7.500000e-01 -3.493951e-01
     vertex -1.203401e-01 -7.500000e-01 -2.745661e-01
   endloop
 endfacet
 facet normal -8.660254e-01  0.000000e+00  5.000000e-01
   outer loop
     vertex -1.635426e-01  1.451588e-17 -3.493951e-01
     vertex -1.203401e-01 -7.500000e-01 -2.745661e-01
     vertex -1.203401e-01  2.174323e-17 -2.745661e-01
   endloop
 endfacet
 facet normal -3.420201e-01  0.000000e+00  9.396926e-01
   outer loop
     vertex -2.447368e-01  7.734611e-18 -3.789474e-01
     vertex -2.447368e-01 -7.500000e-01 -3.789474e-01
     vertex -1.635426e-01 -7.500000e-01 -3.493951e-01
   endloop
 endfacet
 facet normal -3.420201e-01  0.000000e+00  9.396926e-01
   outer loop
     vertex -2.447368e-01  7.734611e-18 -3.789474e-01
     vertex -1.635426e-01 -7.500000e-01 -3.493951e-01
     vertex -1.635426e-01  1.451588e-17 -3.493951e-01
   endloop
 endfacet
 facet normal  3.420201e-01  0.000000e+00  9.396926e-01
   outer loop
     vertex -3.259311e-01  3.551090e-17  1.558681e-01
     vertex -2.447368e-01 -7.500000e-01  1.263158e-01
     vertex -2.447368e-01  3.867306e-17  1.263158e-01
   endloop
 endfacet
 facet normal  3.420201e-01  0.000000e+00  9.396926e-01
   outer loop
     vertex -3.259311e-01  3.551090e-17  1.558681e-01
     vertex -3.259311e-01 -7.500000e-01  1.558681e-01
     vertex -2.447368e-01 -7.500000e-01  1.263158e-01
   endloop
 endfacet
 facet normal  8.660254e-01  0.000000e+00  5.000000e-01
   outer loop
     vertex -3.691336e-01  3.744746e-17  2.306971e-01
     vertex -3.691336e-01 -7.500000e-01  2.306971e-01
     vertex -3.259311e-01 -7.500000e-01  1.558681e-01
   endloop
 endfacet
 facet normal  8.660254e-01  0.000000e+00  5.000000e-01
   outer loop
     vertex -3.691336e-01  3.744746e-17  2.306971e-01
     vertex -3.259311e-01 -7.500000e-01  1.558681e-01
     vertex -3.259311e-01  3.551090e-17  1.558681e-01
   endloop
 endfacet
 facet normal  9.848078e-01  0.000000e+00 -1.736482e-01
   outer loop
     vertex -3.541295e-01  4.357660e-17  3.157895e-01
     vertex -3.541295e-01 -7.500000e-01  3.157895e-01
     vertex -3.691336e-01 -7.500000e-01  2.306971e-01
   endloop
 endfacet
 facet normal  9.848078e-01  0.000000e+00 -1.736482e-01
   outer loop
     vertex -3.541295e-01  4.357660e-17  3.157895e-01
     vertex -3.691336e-01 -7.500000e-01  2.306971e-01
     vertex -3.691336e-01  3.744746e-17  2.306971e-01
   endloop
 endfacet
 facet normal  6.427876e-01  0.000000e+00 -7.660444e-01
   outer loop
     vertex -2.879394e-01  5.103043e-17  3.713296e-01
     vertex -2.879394e-01 -7.500000e-01  3.713296e-01
     vertex -3.541295e-01 -7.500000e-01  3.157895e-01
   endloop
 endfacet
 facet normal  6.427876e-01  0.000000e+00 -7.660444e-01
   outer loop
     vertex -2.879394e-01  5.103043e-17  3.713296e-01
     vertex -3.541295e-01 -7.500000e-01  3.157895e-01
     vertex -3.541295e-01  4.357660e-17  3.157895e-01
   endloop
 endfacet
 facet normal -6.427876e-01 -0.000000e+00 -7.660444e-01
   outer loop
     vertex -2.015343e-01  5.632122e-17  3.713296e-01
     vertex -1.353442e-01 -7.500000e-01  3.157895e-01
     vertex -2.015343e-01 -7.500000e-01  3.713296e-01
   endloop
 endfacet
 facet normal  0.000000e+00 -0.000000e+00 -1.000000e+00
   outer loop
     vertex -2.015343e-01  5.632122e-17  3.713296e-01
     vertex -2.015343e-01 -7.500000e-01  3.713296e-01
     vertex -2.879394e-01 -7.500000e-01  3.713296e-01
   endloop
 endfacet
 facet normal  0.000000e+00  0.000000e+00 -1.000000e+00
   outer loop
     vertex -2.015343e-01  5.632122e-17  3.713296e-01
     vertex -2.879394e-01 -7.500000e-01  3.713296e-01
     vertex -2.879394e-01  5.103043e-17  3.713296e-01
   endloop
 endfacet
 facet normal -6.427876e-01 -0.000000e+00 -7.660444e-01
   outer loop
     vertex -1.353442e-01  5.697334e-17  3.157895e-01
     vertex -1.353442e-01 -7.500000e-01  3.157895e-01
     vertex -2.015343e-01  5.632122e-17  3.713296e-01
   endloop
 endfacet
 facet normal -9.848078e-01 -0.000000e+00 -1.736482e-01
   outer loop
     vertex -1.203401e-01  5.268167e-17  2.306971e-01
     vertex -1.203401e-01 -7.500000e-01  2.306971e-01
     vertex -1.353442e-01 -7.500000e-01  3.157895e-01
   endloop
 endfacet
 facet normal -9.848078e-01  0.000000e+00 -1.736482e-01
   outer loop
     vertex -1.203401e-01  5.268167e-17  2.306971e-01
     vertex -1.353442e-01 -7.500000e-01  3.157895e-01
     vertex -1.353442e-01  5.697334e-17  3.157895e-01
   endloop
 endfacet
 facet normal -8.660254e-01  0.000000e+00  5.000000e-01
   outer loop
     vertex -1.635426e-01  4.545432e-17  1.558681e-01
     vertex -1.635426e-01 -7.500000e-01  1.558681e-01
     vertex -1.203401e-01 -7.500000e-01  2.306971e-01
   endloop
 endfacet
 facet normal -8.660254e-01  0.000000e+00  5.000000e-01
   outer loop
     vertex -1.635426e-01  4.545432e-17  1.558681e-01
     vertex -1.203401e-01 -7.500000e-01  2.306971e-01
     vertex -1.203401e-01  5.268167e-17  2.306971e-01
   endloop
 endfacet
 facet normal -3.420201e-01  0.000000e+00  9.396926e-01
   outer loop
     vertex -2.447368e-01  3.867306e-17  1.263158e-01
     vertex -2.447368e-01 -7.500000e-01  1.263158e-01
     vertex -1.635426e-01 -7.500000e-01  1.558681e-01
   endloop
 endfacet
 facet normal -3.420201e-01  0.000000e+00  9.396926e-01
   outer loop
     vertex -2.447368e-01  3.867306e-17  1.263158e-01
     vertex -1.635426e-01 -7.500000e-01  1.558681e-01
     vertex -1.635426e-01  4.545432e-17  1.558681e-01
   endloop
 endfacet
 facet normal  3.420201e-01  0.000000e+00  9.396926e-01
   outer loop
     vertex  1.635426e-01  3.454407e-17 -3.493951e-01
     vertex  2.447368e-01 -7.500000e-01 -3.789474e-01
     vertex  2.447368e-01  3.770623e-17 -3.789474e-01
   endloop
 endfacet
 facet normal  3.420201e-01  0.000000e+00  9.396926e-01
   outer loop
     vertex  1.635426e-01  3.454407e-17 -3.493951e-01
     vertex  1.635426e-01 -7.500000e-01 -3.493951e-01
     vertex  2.447368e-01 -7.500000e-01 -3.789474e-01
   endloop
 endfacet
 facet normal  8.660254e-01  0.000000e+00  5.000000e-01
   outer loop
     vertex  1.203401e-01  3.648064e-17 -2.745661e-01
     vertex  1.203401e-01 -7.500000e-01 -2.745661e-01
     vertex  1.635426e-01 -7.500000e-01 -3.493951e-01
   endloop
 endfacet
 facet normal  8.660254e-01  0.000000e+00  5.000000e-01
   outer loop
     vertex  1.203401e-01  3.648064e-17 -2.745661e-01
     vertex  1.635426e-01 -7.500000e-01 -3.493951e-01
     vertex  1.635426e-01  3.454407e-17 -3.493951e-01
   endloop
 endfacet
 facet normal  9.848078e-01  0.000000e+00 -1.736482e-01
   outer loop
     vertex  1.353442e-01  4.260978e-17 -1.894737e-01
     vertex  1.353442e-01 -7.500000e-01 -1.894737e-01
     vertex  1.203401e-01 -7.500000e-01 -2.745661e-01
   endloop
 endfacet
 facet normal  9.848078e-01  0.000000e+00 -1.736482e-01
   outer loop
     vertex  1.353442e-01  4.260978e-17 -1.894737e-01
     vertex  1.203401e-01 -7.500000e-01 -2.745661e-01
     vertex  1.203401e-01  3.648064e-17 -2.745661e-01
   endloop
 endfacet
 facet normal  6.427876e-01  0.000000e+00 -7.660444e-01
   outer loop
     vertex  2.015343e-01  5.006361e-17 -1.339336e-01
     vertex  2.015343e-01 -7.500000e-01 -1.339336e-01
     vertex  1.353442e-01 -7.500000e-01 -1.894737e-01
   endloop
 endfacet
 facet normal  6.427876e-01  0.000000e+00 -7.660444e-01
   outer loop
     vertex  2.015343e-01  5.006361e-17 -1.339336e-01
     vertex  1.353442e-01 -7.500000e-01 -1.894737e-01
     vertex  1.353442e-01  4.260978e-17 -1.894737e-01
   endloop
 endfacet
 facet normal -6.427876e-01 -0.000000e+00 -7.660444e-01
   outer loop
     vertex  2.879394e-01  5.535439e-17 -1.339336e-01
     vertex  3.541295e-01 -7.500000e-01 -1.894737e-01
     vertex  2.879394e-01 -7.500000e-01 -1.339336e-01
   endloop
 endfacet
 facet normal  0.000000e+00 -0.000000e+00 -1.000000e+00
   outer loop
     vertex  2.879394e-01  5.535439e-17 -1.339336e-01
     vertex  2.879394e-01 -7.500000e-01 -1.339336e-01
     vertex  2.015343e-01 -7.500000e-01 -1.339336e-01
   endloop
 endfacet
 facet normal  0.000000e+00  0.000000e+00 -1.000000e+00
   outer loop
     vertex  2.879394e-01  5.535439e-17 -1.339336e-01
     vertex  2.015343e-01 -7.500000e-01 -1.339336e-01
     vertex  2.015343e-01  5.006361e-17 -1.339336e-01
   endloop
 endfacet
 facet normal -6.427876e-01 -0.000000e+00 -7.660444e-01
   outer loop
     vertex  3.541295e-01  5.600652e-17 -1.894737e-01
     vertex  3.541295e-01 -7.500000e-01 -1.894737e-01
     vertex  2.879394e-01  5.535439e-17 -1.339336e-01
   endloop
 endfacet
 facet normal -9.848078e-01 -0.000000e+00 -1.736482e-01
   outer loop
     vertex  3.691336e-01  5.171485e-17 -2.745661e-01
     vertex  3.691336e-01 -7.500000e-01 -2.745661e-01
     vertex  3.541295e-01 -7.500000e-01 -1.894737e-01
   endloop
 endfacet
 facet normal -9.848078e-01  0.000000e+00 -1.736482e-01
   outer loop
     vertex  3.691336e-01  5.171485e-17 -2.745661e-01
     vertex  3.541295e-01 -7.500000e-01 -1.894737e-01
     vertex  3.541295e-01  5.600652e-17 -1.894737e-01
   endloop
 endfacet
 facet normal -8.660254e-01  0.000000e+00  5.000000e-01
   outer loop
     vertex  3.259311e-01  4.448750e-17 -3.493951e-01
     vertex  3.259311e-01 -7.500000e-01 -3.493951e-01
     vertex  3.691336e-01 -7.500000e-01 -2.745661e-01
   endloop
 endfacet
 facet normal -8.660254e-01  0.000000e+00  5.000000e-01
   outer loop
     vertex  3.259311e-01  4.448750e-17 -3.493951e-01
     vertex  3.691336e-01 -7.500000e-01 -2.745661e-01
     vertex  3.691336e-01  5.171485e-17 -2.745661e-01
   endloop
 endfacet
 facet normal -3.420201e-01  0.000000e+00  9.396926e-01
   outer loop
     vertex  2.447368e-01  3.770623e-17 -3.789474e-01
     vertex  2.447368e-01 -7.500000e-01 -3.789474e-01
     vertex  3.259311e-01 -7.500000e-01 -3.493951e-01
   endloop
 endfacet
 facet normal -3.420201e-01  0.000000e+00  9.396926e-01
   outer loop
     vertex  2.447368e-01  3.770623e-17 -3.789474e-01
     vertex  3.259311e-01 -7.500000e-01 -3.493951e-01
     vertex  3.259311e-01  4.448750e-17 -3.493951e-01
   endloop
 endfacet
 facet normal  3.420201e-01  0.000000e+00  9.396926e-01
   outer loop
     vertex  1.635426e-01  6.548252e-17  1.558681e-01
     vertex  2.447368e-01 -7.500000e-01  1.263158e-01
     vertex  2.447368e-01  6.864468e-17  1.263158e-01
   endloop
 endfacet
 facet normal  3.420201e-01  0.000000e+00  9.396926e-01
   outer loop
     vertex  1.635426e-01  6.548252e-17  1.558681e-01
     vertex  1.635426e-01 -7.500000e-01  1.558681e-01
     vertex  2.447368e-01 -7.500000e-01  1.263158e-01
   endloop
 endfacet
 facet normal  8.660254e-01  0.000000e+00  5.000000e-01
   outer loop
     vertex  1.203401e-01  6.741908e-17  2.306971e-01
     vertex  1.203401e-01 -7.500000e-01  2.306971e-01
     vertex  1.635426e-01 -7.500000e-01  1.558681e-01
   endloop
 endfacet
 facet normal  8.660254e-01  0.000000e+00  5.000000e-01
   outer loop
     vertex  1.203401e-01  6.741908e-17  2.306971e-01
     vertex  1.635426e-01 -7.500000e-01  1.558681e-01
     vertex  1.635426e-01  6.548252e-17  1.558681e-01
   endloop
 endfacet
 facet normal  9.848078e-01  0.000000e+00 -1.736482e-01
   outer loop
     vertex  1.353442e-01  7.354822e-17  3.157895e-01
     vertex  1.353442e-01 -7.500000e-01  3.157895e-01
     vertex  1.203401e-01 -7.500000e-01  2.306971e-01
   endloop
 endfacet
 facet normal  9.848078e-01  0.000000e+00 -1.736482e-01
   outer loop
     vertex  1.353442e-01  7.354822e-17  3.157895e-01
     vertex  1.203401e-01 -7.500000e-01  2.306971e-01
     vertex  1.203401e-01  6.741908e-17  2.306971e-01
   endloop
 endfacet
 facet normal  0.000000e+00  0.000000e+00 -1.000000e+00
   outer loop
     vertex  2.015343e-01  8.100205e-17  3.713296e-01
     vertex  2.879394e-01 -7.500000e-01  3.713296e-01
     vertex  2.015343e-01 -7.500000e-01  3.713296e-01
   endloop
 endfacet
 facet normal  6.427876e-01  0.000000e+00 -7.660444e-01
   outer loop
     vertex  2.015343e-01  8.100205e-17  3.713296e-01
     vertex  2.015343e-01 -7.500000e-01  3.713296e-01
     vertex  1.353442e-01 -7.500000e-01  3.157895e-01
   endloop
 endfacet
 facet normal  6.427876e-01  0.000000e+00 -7.660444e-01
   outer loop
     vertex  2.015343e-01  8.100205e-17  3.713296e-01
     vertex  1.353442e-01 -7.500000e-01  3.157895e-01
     vertex  1.353442e-01  7.354822e-17  3.157895e-01
   endloop
 endfacet
 facet normal  0.000000e+00 -0.000000e+00 -1.000000e+00
   outer loop
     vertex  2.879394e-01  8.629284e-17  3.713296e-01
     vertex  2.879394e-01 -7.500000e-01  3.713296e-01
     vertex  2.015343e-01  8.100205e-17  3.713296e-01
   endloop
 endfacet
 facet normal -6.427876e-01 -0.000000e+00 -7.660444e-01
   outer loop
     vertex  3.541295e-01  8.694496e-17  3.157895e-01
     vertex  3.541295e-01 -7.500000e-01  3.157895e-01
     vertex  2.879394e-01 -7.500000e-01  3.713296e-01
   endloop
 endfacet
 facet normal -6.427876e-01  0.000000e+00 -7.660444e-01
   outer loop
     vertex  3.541295e-01  8.694496e-17  3.157895e-01
     vertex  2.879394e-01 -7.500000e-01  3.713296e-01
     vertex  2.879394e-01  8.629284e-17  3.713296e-01
   endloop
 endfacet
 facet normal -9.848078e-01 -0.000000e+00 -1.736482e-01
   outer loop
     vertex  3.691336e-01  8.265329e-17  2.306971e-01
     vertex  3.691336e-01 -7.500000e-01  2.306971e-01
     vertex  3.541295e-01 -7.500000e-01  3.157895e-01
   endloop
 endfacet
 facet normal -9.848078e-01  0.000000e+00 -1.736482e-01
   outer loop
     vertex  3.691336e-01  8.265329e-17  2.306971e-01
     vertex  3.541295e-01 -7.500000e-01  3.157895e-01
     vertex  3.541295e-01  8.694496e-17  3.157895e-01
   endloop
 endfacet
 facet normal -8.660254e-01  0.000000e+00  5.000000e-01
   outer loop
     vertex  3.259311e-01  7.542594e-17  1.558681e-01
     vertex  3.259311e-01 -7.500000e-01  1.558681e-01
     vertex  3.691336e-01 -7.500000e-01  2.306971e-01
   endloop
 endfacet
 facet normal -8.660254e-01  0.000000e+00  5.000000e-01
   outer loop
     vertex  3.259311e-01  7.542594e-17  1.558681e-01
     vertex  3.691336e-01 -7.500000e-01  2.306971e-01
     vertex  3.691336e-01  8.265329e-17  2.306971e-01
   endloop
 endfacet
 facet normal -3.420201e-01  0.000000e+00  9.396926e-01
   outer loop
     vertex  2.447368e-01  6.864468e-17  1.263158e-01
     vertex  2.447368e-01 -7.500000e-01  1.263158e-01
     vertex  3.259311e-01 -7.500000e-01  1.558681e-01
   endloop
 endfacet
 facet normal -3.420201e-01  0.000000e+00  9.396926e-01
   outer loop
     vertex  2.447368e-01  6.864468e-17  1.263158e-01
     vertex  3.259311e-01 -7.500000e-01  1.558681e-01
     vertex  3.259311e-01  7.542594e-17  1.558681e-01
   endloop
 endfacet
 facet normal -6.123234e-17  1.000000e+00 -6.123234e-17
   outer loop
     vertex -3.259311e-01  4.572454e-18 -3.493951e-01
     vertex -4.842121e-01 -1.773814e-17 -5.554738e-01
     vertex -6.028459e-01 -1.680275e-17 -4.215638e-01
   endloop
 endfacet
 facet normal -6.123234e-17  1.000000e+00 -6.123234e-17
   outer loop
     vertex -3.259311e-01  4.572454e-18 -3.493951e-01
     vertex -3.369788e-01 -1.494561e-17 -6.571016e-01
     vertex -4.842121e-01 -1.773814e-17 -5.554738e-01
   endloop
 endfacet
 facet normal -6.123234e-17  1.000000e+00 -6.123234e-17
   outer loop
     vertex -3.691336e-01  6.509016e-18 -2.745661e-01
     vertex -6.028459e-01 -1.680275e-17 -4.215638e-01
     vertex -6.859857e-01 -1.219380e-17 -2.631542e-01
   endloop
 endfacet
 facet normal -6.123234e-17  1.000000e+00 -6.123234e-17
   outer loop
     vertex -3.691336e-01  6.509016e-18 -2.745661e-01
     vertex -3.259311e-01  4.572454e-18 -3.493951e-01
     vertex -6.028459e-01 -1.680275e-17 -4.215638e-01
   endloop
 endfacet
 facet normal -6.123234e-17  1.000000e+00 -6.123234e-17
   outer loop
     vertex -2.447368e-01  7.734611e-18 -3.789474e-01
     vertex -1.697027e-01 -8.587451e-18 -7.205410e-01
     vertex -3.369788e-01 -1.494561e-17 -6.571016e-01
   endloop
 endfacet
 facet normal -6.123234e-17  1.000000e+00 -6.123234e-17
   outer loop
     vertex -2.447368e-01  7.734611e-18 -3.789474e-01
     vertex -3.369788e-01 -1.494561e-17 -6.571016e-01
     vertex -3.259311e-01  4.572454e-18 -3.493951e-01
   endloop
 endfacet
 facet normal -6.123234e-17  1.000000e+00 -6.123234e-17
   outer loop
     vertex -3.541295e-01  1.263816e-17 -1.894737e-01
     vertex -6.859857e-01 -1.219380e-17 -2.631542e-01
     vertex -7.287997e-01 -4.179147e-18 -8.945090e-02
   endloop
 endfacet
 facet normal -6.123234e-17  1.000000e+00 -6.123234e-17
   outer loop
     vertex -3.541295e-01  1.263816e-17 -1.894737e-01
     vertex -3.691336e-01  6.509016e-18 -2.745661e-01
     vertex -6.859857e-01 -1.219380e-17 -2.631542e-01
   endloop
 endfacet
 facet normal -6.123234e-17  1.000000e+00 -6.123234e-17
   outer loop
     vertex -1.635426e-01  1.451588e-17 -3.493951e-01
     vertex  7.894737e-03  9.668264e-19 -7.421053e-01
     vertex -1.697027e-01 -8.587451e-18 -7.205410e-01
   endloop
 endfacet
 facet normal -6.123234e-17  1.000000e+00 -6.123234e-17
   outer loop
     vertex -1.635426e-01  1.451588e-17 -3.493951e-01
     vertex -1.697027e-01 -8.587451e-18 -7.205410e-01
     vertex -2.447368e-01  7.734611e-18 -3.789474e-01
   endloop
 endfacet
 facet normal -6.123234e-17  1.000000e+00 -6.123234e-17
   outer loop
     vertex  1.635426e-01  3.454407e-17 -3.493951e-01
     vertex  1.854922e-01  1.316196e-17 -7.205410e-01
     vertex  7.894737e-03  9.668264e-19 -7.421053e-01
   endloop
 endfacet
 facet normal -6.123234e-17  1.000000e+00 -6.123234e-17
   outer loop
     vertex  1.635426e-01  3.454407e-17 -3.493951e-01
     vertex  7.894737e-03  9.668264e-19 -7.421053e-01
     vertex -1.635426e-01  1.451588e-17 -3.493951e-01
   endloop
 endfacet
 facet normal -6.123234e-17  1.000000e+00 -6.123234e-17
   outer loop
     vertex -3.259311e-01  3.551090e-17  1.558681e-01
     vertex -7.287997e-01 -4.179147e-18 -8.945090e-02
     vertex -7.287997e-01  6.775430e-18  8.945090e-02
   endloop
 endfacet
 facet normal -6.123234e-17  1.000000e+00 -6.123234e-17
   outer loop
     vertex -3.259311e-01  3.551090e-17  1.558681e-01
     vertex -2.879394e-01  2.009199e-17 -1.339336e-01
     vertex -3.541295e-01  1.263816e-17 -1.894737e-01
   endloop
 endfacet
 facet normal -6.123234e-17  1.000000e+00 -6.123234e-17
   outer loop
     vertex -3.259311e-01  3.551090e-17  1.558681e-01
     vertex -3.541295e-01  1.263816e-17 -1.894737e-01
     vertex -7.287997e-01 -4.179147e-18 -8.945090e-02
   endloop
 endfacet
 facet normal -6.123234e-17  1.000000e+00 -6.123234e-17
   outer loop
     vertex  1.203401e-01  3.648064e-17 -2.745661e-01
     vertex  1.635426e-01  3.454407e-17 -3.493951e-01
     vertex -1.635426e-01  1.451588e-17 -3.493951e-01
   endloop
 endfacet
 facet normal -6.123234e-17  1.000000e+00 -6.123234e-17
   outer loop
     vertex  1.203401e-01  3.648064e-17 -2.745661e-01
     vertex -1.635426e-01  1.451588e-17 -3.493951e-01
     vertex -1.203401e-01  2.174323e-17 -2.745661e-01
   endloop
 endfacet
 facet normal -6.123234e-17  1.000000e+00 -6.123234e-17
   outer loop
     vertex -3.691336e-01  3.744746e-17  2.306971e-01
     vertex -6.859857e-01  2.003329e-17  2.631542e-01
     vertex -6.028459e-01  3.482393e-17  4.215638e-01
   endloop
 endfacet
 facet normal -6.123234e-17  1.000000e+00 -6.123234e-17
   outer loop
     vertex -3.691336e-01  3.744746e-17  2.306971e-01
     vertex -7.287997e-01  6.775430e-18  8.945090e-02
     vertex -6.859857e-01  2.003329e-17  2.631542e-01
   endloop
 endfacet
 facet normal -6.123234e-17  1.000000e+00 -6.123234e-17
   outer loop
     vertex -3.691336e-01  3.744746e-17  2.306971e-01
     vertex -3.259311e-01  3.551090e-17  1.558681e-01
     vertex -7.287997e-01  6.775430e-18  8.945090e-02
   endloop
 endfacet
 facet normal -6.123234e-17  1.000000e+00 -6.123234e-17
   outer loop
     vertex  2.447368e-01  3.770623e-17 -3.789474e-01
     vertex  3.527682e-01  2.728921e-17 -6.571016e-01
     vertex  1.854922e-01  1.316196e-17 -7.205410e-01
   endloop
 endfacet
 facet normal -6.123234e-17  1.000000e+00 -6.123234e-17
   outer loop
     vertex  2.447368e-01  3.770623e-17 -3.789474e-01
     vertex  1.854922e-01  1.316196e-17 -7.205410e-01
     vertex  1.635426e-01  3.454407e-17 -3.493951e-01
   endloop
 endfacet
 facet normal -6.123234e-17  1.000000e+00 -6.123234e-17
   outer loop
     vertex -2.447368e-01  3.867306e-17  1.263158e-01
     vertex -2.879394e-01  2.009199e-17 -1.339336e-01
     vertex -3.259311e-01  3.551090e-17  1.558681e-01
   endloop
 endfacet
 facet normal -6.123234e-17  1.000000e+00 -6.123234e-17
   outer loop
     vertex -2.447368e-01  3.867306e-17  1.263158e-01
     vertex -2.015343e-01  2.538277e-17 -1.339336e-01
     vertex -2.879394e-01  2.009199e-17 -1.339336e-01
   endloop
 endfacet
 facet normal -6.123234e-17  1.000000e+00 -6.123234e-17
   outer loop
     vertex  1.353442e-01  4.260978e-17 -1.894737e-01
     vertex  1.203401e-01  3.648064e-17 -2.745661e-01
     vertex -1.203401e-01  2.174323e-17 -2.745661e-01
   endloop
 endfacet
 facet normal -6.123234e-17  1.000000e+00 -6.123234e-17
   outer loop
     vertex  1.353442e-01  4.260978e-17 -1.894737e-01
     vertex -1.203401e-01  2.174323e-17 -2.745661e-01
     vertex -1.353442e-01  2.603490e-17 -1.894737e-01
   endloop
 endfacet
 facet normal -6.123234e-17  1.000000e+00 -6.123234e-17
   outer loop
     vertex -3.541295e-01  4.357660e-17  3.157895e-01
     vertex -3.691336e-01  3.744746e-17  2.306971e-01
     vertex -6.028459e-01  3.482393e-17  4.215638e-01
   endloop
 endfacet
 facet normal -6.123234e-17  1.000000e+00 -6.123234e-17
   outer loop
     vertex  3.259311e-01  4.448750e-17 -3.493951e-01
     vertex  5.000016e-01  4.252756e-17 -5.554738e-01
     vertex  3.527682e-01  2.728921e-17 -6.571016e-01
   endloop
 endfacet
 facet normal -6.123234e-17  1.000000e+00 -6.123234e-17
   outer loop
     vertex  3.259311e-01  4.448750e-17 -3.493951e-01
     vertex  3.527682e-01  2.728921e-17 -6.571016e-01
     vertex  2.447368e-01  3.770623e-17 -3.789474e-01
   endloop
 endfacet
 facet normal -6.123234e-17  1.000000e+00 -6.123234e-17
   outer loop
     vertex -1.635426e-01  4.545432e-17  1.558681e-01
     vertex -2.015343e-01  2.538277e-17 -1.339336e-01
     vertex -2.447368e-01  3.867306e-17  1.263158e-01
   endloop
 endfacet
 facet normal -6.123234e-17  1.000000e+00 -6.123234e-17
   outer loop
     vertex -1.635426e-01  4.545432e-17  1.558681e-01
     vertex -1.353442e-01  2.603490e-17 -1.894737e-01
     vertex -2.015343e-01  2.538277e-17 -1.339336e-01
   endloop
 endfacet
 facet normal -6.123234e-17  1.000000e+00 -6.123234e-17
   outer loop
     vertex -4.842121e-01  5.028777e-17  5.554738e-01
     vertex -3.541295e-01  4.357660e-17  3.157895e-01
     vertex -6.028459e-01  3.482393e-17  4.215638e-01
   endloop
 endfacet
 facet normal -6.123234e-17  1.000000e+00 -6.123234e-17
   outer loop
     vertex -2.879394e-01  5.103043e-17  3.713296e-01
     vertex -3.541295e-01  4.357660e-17  3.157895e-01
     vertex -4.842121e-01  5.028777e-17  5.554738e-01
   endloop
 endfacet
 facet normal -6.123234e-17  1.000000e+00 -6.123234e-17
   outer loop
     vertex  6.186354e-01  5.799141e-17 -4.215638e-01
     vertex  5.000016e-01  4.252756e-17 -5.554738e-01
     vertex  3.259311e-01  4.448750e-17 -3.493951e-01
   endloop
 endfacet
 facet normal -6.123234e-17  1.000000e+00 -6.123234e-17
   outer loop
     vertex  6.186354e-01  5.799141e-17 -4.215638e-01
     vertex  3.259311e-01  4.448750e-17 -3.493951e-01
     vertex  3.691336e-01  5.171485e-17 -2.745661e-01
   endloop
 endfacet
 facet normal -6.123234e-17  1.000000e+00 -6.123234e-17
   outer loop
     vertex  1.635426e-01  6.548252e-17  1.558681e-01
     vertex  1.353442e-01  4.260978e-17 -1.894737e-01
     vertex -1.353442e-01  2.603490e-17 -1.894737e-01
   endloop
 endfacet
 facet normal -6.123234e-17  1.000000e+00 -6.123234e-17
   outer loop
     vertex  1.635426e-01  6.548252e-17  1.558681e-01
     vertex -1.353442e-01  2.603490e-17 -1.894737e-01
     vertex -1.635426e-01  4.545432e-17  1.558681e-01
   endloop
 endfacet
 facet normal -6.123234e-17  1.000000e+00 -6.123234e-17
   outer loop
     vertex  1.635426e-01  6.548252e-17  1.558681e-01
     vertex  2.015343e-01  5.006361e-17 -1.339336e-01
     vertex  1.353442e-01  4.260978e-17 -1.894737e-01
   endloop
 endfacet
 facet normal -6.123234e-17  1.000000e+00 -6.123234e-17
   outer loop
     vertex -3.369788e-01  6.552612e-17  6.571016e-01
     vertex -2.879394e-01  5.103043e-17  3.713296e-01
     vertex -4.842121e-01  5.028777e-17  5.554738e-01
   endloop
 endfacet
 facet normal -6.123234e-17  1.000000e+00 -6.123234e-17
   outer loop
     vertex -3.369788e-01  6.552612e-17  6.571016e-01
     vertex -2.015343e-01  5.632122e-17  3.713296e-01
     vertex -2.879394e-01  5.103043e-17  3.713296e-01
   endloop
 endfacet
 facet normal -6.123234e-17  1.000000e+00 -6.123234e-17
   outer loop
     vertex  1.203401e-01  6.741908e-17  2.306971e-01
     vertex -1.635426e-01  4.545432e-17  1.558681e-01
     vertex -1.203401e-01  5.268167e-17  2.306971e-01
   endloop
 endfacet
 facet normal -6.123234e-17  1.000000e+00 -6.123234e-17
   outer loop
     vertex  1.203401e-01  6.741908e-17  2.306971e-01
     vertex  1.635426e-01  6.548252e-17  1.558681e-01
     vertex -1.635426e-01  4.545432e-17  1.558681e-01
   endloop
 endfacet
 facet normal -6.123234e-17  1.000000e+00 -6.123234e-17
   outer loop
     vertex  2.447368e-01  6.864468e-17  1.263158e-01
     vertex  2.879394e-01  5.535439e-17 -1.339336e-01
     vertex  2.015343e-01  5.006361e-17 -1.339336e-01
   endloop
 endfacet
 facet normal -6.123234e-17  1.000000e+00 -6.123234e-17
   outer loop
     vertex  2.447368e-01  6.864468e-17  1.263158e-01
     vertex  2.015343e-01  5.006361e-17 -1.339336e-01
     vertex  1.635426e-01  6.548252e-17  1.558681e-01
   endloop
 endfacet
 facet normal -6.123234e-17  1.000000e+00 -6.123234e-17
   outer loop
     vertex  7.017752e-01  7.278205e-17 -2.631542e-01
     vertex  3.691336e-01  5.171485e-17 -2.745661e-01
     vertex  3.541295e-01  5.600652e-17 -1.894737e-01
   endloop
 endfacet
 facet normal -6.123234e-17  1.000000e+00 -6.123234e-17
   outer loop
     vertex  7.017752e-01  7.278205e-17 -2.631542e-01
     vertex  6.186354e-01  5.799141e-17 -4.215638e-01
     vertex  3.691336e-01  5.171485e-17 -2.745661e-01
   endloop
 endfacet
 facet normal -6.123234e-17  1.000000e+00 -6.123234e-17
   outer loop
     vertex  1.353442e-01  7.354822e-17  3.157895e-01
     vertex  1.203401e-01  6.741908e-17  2.306971e-01
     vertex -1.203401e-01  5.268167e-17  2.306971e-01
   endloop
 endfacet
 facet normal -6.123234e-17  1.000000e+00 -6.123234e-17
   outer loop
     vertex  1.353442e-01  7.354822e-17  3.157895e-01
     vertex -1.203401e-01  5.268167e-17  2.306971e-01
     vertex -1.353442e-01  5.697334e-17  3.157895e-01
   endloop
 endfacet
 facet normal -6.123234e-17  1.000000e+00 -6.123234e-17
   outer loop
     vertex  3.259311e-01  7.542594e-17  1.558681e-01
     vertex  3.541295e-01  5.600652e-17 -1.894737e-01
     vertex  2.879394e-01  5.535439e-17 -1.339336e-01
   endloop
 endfacet
 facet normal -6.123234e-17  1.000000e+00 -6.123234e-17
   outer loop
     vertex  3.259311e-01  7.542594e-17  1.558681e-01
     vertex  2.879394e-01  5.535439e-17 -1.339336e-01
     vertex  2.447368e-01  6.864468e-17  1.263158e-01
   endloop
 endfacet
 facet normal -6.123234e-17  1.000000e+00 -6.123234e-17
   outer loop
     vertex -1.697027e-01  7.965338e-17  7.205410e-01
     vertex -2.015343e-01  5.632122e-17  3.713296e-01
     vertex -3.369788e-01  6.552612e-17  6.571016e-01
   endloop
 endfacet
 facet normal -6.123234e-17  1.000000e+00 -6.123234e-17
   outer loop
     vertex  7.445892e-01  8.603991e-17 -8.945090e-02
     vertex  7.017752e-01  7.278205e-17 -2.631542e-01
     vertex  3.541295e-01  5.600652e-17 -1.894737e-01
   endloop
 endfacet
 facet normal -6.123234e-17  1.000000e+00 -6.123234e-17
   outer loop
     vertex  7.445892e-01  8.603991e-17 -8.945090e-02
     vertex  3.541295e-01  5.600652e-17 -1.894737e-01
     vertex  3.259311e-01  7.542594e-17  1.558681e-01
   endloop
 endfacet
 facet normal -6.123234e-17  1.000000e+00 -6.123234e-17
   outer loop
     vertex  7.894737e-03  9.184851e-17  7.421053e-01
     vertex  1.353442e-01  7.354822e-17  3.157895e-01
     vertex -1.353442e-01  5.697334e-17  3.157895e-01
   endloop
 endfacet
 facet normal -6.123234e-17  1.000000e+00 -6.123234e-17
   outer loop
     vertex  7.894737e-03  9.184851e-17  7.421053e-01
     vertex -1.353442e-01  5.697334e-17  3.157895e-01
     vertex -2.015343e-01  5.632122e-17  3.713296e-01
   endloop
 endfacet
 facet normal -6.123234e-17  1.000000e+00 -6.123234e-17
   outer loop
     vertex  7.894737e-03  9.184851e-17  7.421053e-01
     vertex  2.015343e-01  8.100205e-17  3.713296e-01
     vertex  1.353442e-01  7.354822e-17  3.157895e-01
   endloop
 endfacet
 facet normal -6.123234e-17  1.000000e+00 -6.123234e-17
   outer loop
     vertex  7.894737e-03  9.184851e-17  7.421053e-01
     vertex -2.015343e-01  5.632122e-17  3.713296e-01
     vertex -1.697027e-01  7.965338e-17  7.205410e-01
   endloop
 endfacet
 facet normal -6.123234e-17  1.000000e+00 -6.123234e-17
   outer loop
     vertex  7.445892e-01  9.699448e-17  8.945090e-02
     vertex  7.445892e-01  8.603991e-17 -8.945090e-02
     vertex  3.259311e-01  7.542594e-17  1.558681e-01
   endloop
 endfacet
 facet normal -6.123234e-17  1.000000e+00 -6.123234e-17
   outer loop
     vertex  7.445892e-01  9.699448e-17  8.945090e-02
     vertex  3.259311e-01  7.542594e-17  1.558681e-01
     vertex  3.691336e-01  8.265329e-17  2.306971e-01
   endloop
 endfacet
 facet normal -6.123234e-17  1.000000e+00 -6.123234e-17
   outer loop
     vertex  1.854922e-01  1.014028e-16  7.205410e-01
     vertex  2.015343e-01  8.100205e-17  3.713296e-01
     vertex  7.894737e-03  9.184851e-17  7.421053e-01
   endloop
 endfacet
 facet normal -6.123234e-17  1.000000e+00 -6.123234e-17
   outer loop
     vertex  7.017752e-01  1.050091e-16  2.631542e-01
     vertex  7.445892e-01  9.699448e-17  8.945090e-02
     vertex  3.691336e-01  8.265329e-17  2.306971e-01
   endloop
 endfacet
 facet normal -6.123234e-17  1.000000e+00 -6.123234e-17
   outer loop
     vertex  3.527682e-01  1.077609e-16  6.571016e-01
     vertex  2.015343e-01  8.100205e-17  3.713296e-01
     vertex  1.854922e-01  1.014028e-16  7.205410e-01
   endloop
 endfacet
 facet normal -6.123234e-17  1.000000e+00 -6.123234e-17
   outer loop
     vertex  3.527682e-01  1.077609e-16  6.571016e-01
     vertex  2.879394e-01  8.629284e-17  3.713296e-01
     vertex  2.015343e-01  8.100205e-17  3.713296e-01
   endloop
 endfacet
 facet normal -6.123234e-17  1.000000e+00 -6.123234e-17
   outer loop
     vertex  6.186354e-01  1.096181e-16  4.215638e-01
     vertex  3.691336e-01  8.265329e-17  2.306971e-01
     vertex  3.541295e-01  8.694496e-17  3.157895e-01
   endloop
 endfacet
 facet normal -6.123234e-17  1.000000e+00 -6.123234e-17
   outer loop
     vertex  6.186354e-01  1.096181e-16  4.215638e-01
     vertex  7.017752e-01  1.050091e-16  2.631542e-01
     vertex  3.691336e-01  8.265329e-17  2.306971e-01
   endloop
 endfacet
 facet normal -6.123234e-17  1.000000e+00 -6.123234e-17
   outer loop
     vertex  5.000016e-01  1.105535e-16  5.554738e-01
     vertex  3.541295e-01  8.694496e-17  3.157895e-01
     vertex  2.879394e-01  8.629284e-17  3.713296e-01
   endloop
 endfacet
 facet normal -6.123234e-17  1.000000e+00 -6.123234e-17
   outer loop
     vertex  5.000016e-01  1.105535e-16  5.554738e-01
     vertex  2.879394e-01  8.629284e-17  3.713296e-01
     vertex  3.527682e-01  1.077609e-16  6.571016e-01
   endloop
 endfacet
 facet normal -6.123234e-17  1.000000e+00 -6.123234e-17
   outer loop
     vertex  5.000016e-01  1.105535e-16  5.554738e-01
     vertex  6.186354e-01  1.096181e-16  4.215638e-01
     vertex  3.541295e-01  8.694496e-17  3.157895e-01
   endloop
 endfacet
 facet normal  3.257211e-16 -1.000000e+00  2.885637e-16
   outer loop
     vertex -3.259311e-01 -7.500000e-01 -3.493951e-01
     vertex -6.028459e-01 -7.500000e-01 -4.215638e-01
     vertex -4.842121e-01 -7.500000e-01 -5.554738e-01
   endloop
 endfacet
 facet normal  2.430236e-16 -1.000000e+00  3.520805e-16
   outer loop
     vertex -3.259311e-01 -7.500000e-01 -3.493951e-01
     vertex -4.842121e-01 -7.500000e-01 -5.554738e-01
     vertex -3.369788e-01 -7.500000e-01 -6.571016e-01
   endloop
 endfacet
 facet normal  3.571426e-16 -1.000000e+00  1.874429e-16
   outer loop
     vertex -3.691336e-01 -7.500000e-01 -2.745661e-01
     vertex -6.859857e-01 -7.500000e-01 -2.631542e-01
     vertex -6.028459e-01 -7.500000e-01 -4.215638e-01
   endloop
 endfacet
 facet normal  3.484895e-16 -1.000000e+00  2.012005e-16
   outer loop
     vertex -3.691336e-01 -7.500000e-01 -2.745661e-01
     vertex -6.028459e-01 -7.500000e-01 -4.215638e-01
     vertex -3.259311e-01 -7.500000e-01 -3.493951e-01
   endloop
 endfacet
 facet normal  7.240221e-16 -1.000000e+00  1.590381e-16
   outer loop
     vertex -2.447368e-01 -7.500000e-01 -3.789474e-01
     vertex -3.369788e-01 -7.500000e-01 -6.571016e-01
     vertex -1.697027e-01 -7.500000e-01 -7.205410e-01
   endloop
 endfacet
 facet normal  1.296286e-16 -1.000000e+00  3.561517e-16
   outer loop
     vertex -2.447368e-01 -7.500000e-01 -3.789474e-01
     vertex -3.259311e-01 -7.500000e-01 -3.493951e-01
     vertex -3.369788e-01 -7.500000e-01 -6.571016e-01
   endloop
 endfacet
 facet normal  1.826469e-16 -1.000000e+00  6.841677e-16
   outer loop
     vertex -3.541295e-01 -7.500000e-01 -1.894737e-01
     vertex -7.287997e-01 -7.500000e-01 -8.945090e-02
     vertex -6.859857e-01 -7.500000e-01 -2.631542e-01
   endloop
 endfacet
 facet normal  3.481803e-16 -1.000000e+00 -6.139359e-17
   outer loop
     vertex -3.541295e-01 -7.500000e-01 -1.894737e-01
     vertex -6.859857e-01 -7.500000e-01 -2.631542e-01
     vertex -3.691336e-01 -7.500000e-01 -2.745661e-01
   endloop
 endfacet
 facet normal  0.000000e+00 -1.000000e+00 -0.000000e+00
   outer loop
     vertex -1.635426e-01 -7.500000e-01 -3.493951e-01
     vertex -1.697027e-01 -7.500000e-01 -7.205410e-01
     vertex  7.894737e-03 -7.500000e-01 -7.421053e-01
   endloop
 endfacet
 facet normal  0.000000e+00 -1.000000e+00  0.000000e+00
   outer loop
     vertex -1.635426e-01 -7.500000e-01 -3.493951e-01
     vertex -2.447368e-01 -7.500000e-01 -3.789474e-01
     vertex -1.697027e-01 -7.500000e-01 -7.205410e-01
   endloop
 endfacet
 facet normal  0.000000e+00 -1.000000e+00 -0.000000e+00
   outer loop
     vertex  1.635426e-01 -7.500000e-01 -3.493951e-01
     vertex  7.894737e-03 -7.500000e-01 -7.421053e-01
     vertex  1.854922e-01 -7.500000e-01 -7.205410e-01
   endloop
 endfacet
 facet normal  0.000000e+00 -1.000000e+00  0.000000e+00
   outer loop
     vertex  1.635426e-01 -7.500000e-01 -3.493951e-01
     vertex -1.635426e-01 -7.500000e-01 -3.493951e-01
     vertex  7.894737e-03 -7.500000e-01 -7.421053e-01
   endloop
 endfacet
 facet normal  0.000000e+00 -1.000000e+00  0.000000e+00
   outer loop
     vertex -3.259311e-01 -7.500000e-01  1.558681e-01
     vertex -7.287997e-01 -7.500000e-01  8.945090e-02
     vertex -7.287997e-01 -7.500000e-01 -8.945090e-02
   endloop
 endfacet
 facet normal  0.000000e+00 -1.000000e+00 -0.000000e+00
   outer loop
     vertex -3.259311e-01 -7.500000e-01  1.558681e-01
     vertex -3.541295e-01 -7.500000e-01 -1.894737e-01
     vertex -2.879394e-01 -7.500000e-01 -1.339336e-01
   endloop
 endfacet
 facet normal  0.000000e+00 -1.000000e+00  0.000000e+00
   outer loop
     vertex -3.259311e-01 -7.500000e-01  1.558681e-01
     vertex -7.287997e-01 -7.500000e-01 -8.945090e-02
     vertex -3.541295e-01 -7.500000e-01 -1.894737e-01
   endloop
 endfacet
 facet normal  0.000000e+00 -1.000000e+00  0.000000e+00
   outer loop
     vertex  1.203401e-01 -7.500000e-01 -2.745661e-01
     vertex -1.203401e-01 -7.500000e-01 -2.745661e-01
     vertex -1.635426e-01 -7.500000e-01 -3.493951e-01
   endloop
 endfacet
 facet normal -0.000000e+00 -1.000000e+00  0.000000e+00
   outer loop
     vertex  1.203401e-01 -7.500000e-01 -2.745661e-01
     vertex -1.353442e-01 -7.500000e-01 -1.894737e-01
     vertex -1.203401e-01 -7.500000e-01 -2.745661e-01
   endloop
 endfacet
 facet normal  0.000000e+00 -1.000000e+00 -0.000000e+00
   outer loop
     vertex  1.203401e-01 -7.500000e-01 -2.745661e-01
     vertex -1.635426e-01 -7.500000e-01 -3.493951e-01
     vertex  1.635426e-01 -7.500000e-01 -3.493951e-01
   endloop
 endfacet
 facet normal  0.000000e+00 -1.000000e+00  0.000000e+00
   outer loop
     vertex -3.691336e-01 -7.500000e-01  2.306971e-01
     vertex -6.028459e-01 -7.500000e-01  4.215638e-01
     vertex -6.859857e-01 -7.500000e-01  2.631542e-01
   endloop
 endfacet
 facet normal -0.000000e+00 -1.000000e+00  0.000000e+00
   outer loop
     vertex -3.691336e-01 -7.500000e-01  2.306971e-01
     vertex -6.859857e-01 -7.500000e-01  2.631542e-01
     vertex -7.287997e-01 -7.500000e-01  8.945090e-02
   endloop
 endfacet
 facet normal  0.000000e+00 -1.000000e+00 -0.000000e+00
   outer loop
     vertex -3.691336e-01 -7.500000e-01  2.306971e-01
     vertex -7.287997e-01 -7.500000e-01  8.945090e-02
     vertex -3.259311e-01 -7.500000e-01  1.558681e-01
   endloop
 endfacet
 facet normal  0.000000e+00 -1.000000e+00 -0.000000e+00
   outer loop
     vertex  2.447368e-01 -7.500000e-01 -3.789474e-01
     vertex  1.854922e-01 -7.500000e-01 -7.205410e-01
     vertex  3.527682e-01 -7.500000e-01 -6.571016e-01
   endloop
 endfacet
 facet normal -0.000000e+00 -1.000000e+00  0.000000e+00
   outer loop
     vertex  2.447368e-01 -7.500000e-01 -3.789474e-01
     vertex  1.635426e-01 -7.500000e-01 -3.493951e-01
     vertex  1.854922e-01 -7.500000e-01 -7.205410e-01
   endloop
 endfacet
 facet normal -0.000000e+00 -1.000000e+00  0.000000e+00
   outer loop
     vertex -2.447368e-01 -7.500000e-01  1.263158e-01
     vertex -3.259311e-01 -7.500000e-01  1.558681e-01
     vertex -2.879394e-01 -7.500000e-01 -1.339336e-01
   endloop
 endfacet
 facet normal  0.000000e+00 -1.000000e+00 -0.000000e+00
   outer loop
     vertex -2.447368e-01 -7.500000e-01  1.263158e-01
     vertex -2.879394e-01 -7.500000e-01 -1.339336e-01
     vertex -2.015343e-01 -7.500000e-01 -1.339336e-01
   endloop
 endfacet
 facet normal  0.000000e+00 -1.000000e+00  0.000000e+00
   outer loop
     vertex  1.353442e-01 -7.500000e-01 -1.894737e-01
     vertex -1.353442e-01 -7.500000e-01 -1.894737e-01
     vertex  1.203401e-01 -7.500000e-01 -2.745661e-01
   endloop
 endfacet
 facet normal -0.000000e+00 -1.000000e+00  0.000000e+00
   outer loop
     vertex -3.541295e-01 -7.500000e-01  3.157895e-01
     vertex -6.028459e-01 -7.500000e-01  4.215638e-01
     vertex -3.691336e-01 -7.500000e-01  2.306971e-01
   endloop
 endfacet
 facet normal  0.000000e+00 -1.000000e+00  0.000000e+00
   outer loop
     vertex  3.259311e-01 -7.500000e-01 -3.493951e-01
     vertex  3.527682e-01 -7.500000e-01 -6.571016e-01
     vertex  5.000016e-01 -7.500000e-01 -5.554738e-01
   endloop
 endfacet
 facet normal  0.000000e+00 -1.000000e+00 -0.000000e+00
   outer loop
     vertex  3.259311e-01 -7.500000e-01 -3.493951e-01
     vertex  2.447368e-01 -7.500000e-01 -3.789474e-01
     vertex  3.527682e-01 -7.500000e-01 -6.571016e-01
   endloop
 endfacet
 facet normal  0.000000e+00 -1.000000e+00  0.000000e+00
   outer loop
     vertex -1.635426e-01 -7.500000e-01  1.558681e-01
     vertex -2.447368e-01 -7.500000e-01  1.263158e-01
     vertex -2.015343e-01 -7.500000e-01 -1.339336e-01
   endloop
 endfacet
 facet normal  0.000000e+00 -1.000000e+00 -0.000000e+00
   outer loop
     vertex -1.635426e-01 -7.500000e-01  1.558681e-01
     vertex -2.015343e-01 -7.500000e-01 -1.339336e-01
     vertex -1.353442e-01 -7.500000e-01 -1.894737e-01
   endloop
 endfacet
 facet normal  0.000000e+00 -1.000000e+00 -0.000000e+00
   outer loop
     vertex -4.842121e-01 -7.500000e-01  5.554738e-01
     vertex -6.028459e-01 -7.500000e-01  4.215638e-01
     vertex -3.541295e-01 -7.500000e-01  3.157895e-01
   endloop
 endfacet
 facet normal -0.000000e+00 -1.000000e+00  0.000000e+00
   outer loop
     vertex -2.879394e-01 -7.500000e-01  3.713296e-01
     vertex -4.842121e-01 -7.500000e-01  5.554738e-01
     vertex -3.541295e-01 -7.500000e-01  3.157895e-01
   endloop
 endfacet
 facet normal -0.000000e+00 -1.000000e+00  0.000000e+00
   outer loop
     vertex  6.186354e-01 -7.500000e-01 -4.215638e-01
     vertex  3.259311e-01 -7.500000e-01 -3.493951e-01
     vertex  5.000016e-01 -7.500000e-01 -5.554738e-01
   endloop
 endfacet
 facet normal  0.000000e+00 -1.000000e+00  0.000000e+00
   outer loop
     vertex  6.186354e-01 -7.500000e-01 -4.215638e-01
     vertex  3.691336e-01 -7.500000e-01 -2.745661e-01
     vertex  3.259311e-01 -7.500000e-01 -3.493951e-01
   endloop
 endfacet
 facet normal  0.000000e+00 -1.000000e+00  0.000000e+00
   outer loop
     vertex  1.635426e-01 -7.500000e-01  1.558681e-01
     vertex -1.353442e-01 -7.500000e-01 -1.894737e-01
     vertex  1.353442e-01 -7.500000e-01 -1.894737e-01
   endloop
 endfacet
 facet normal  0.000000e+00 -1.000000e+00 -0.000000e+00
   outer loop
     vertex  1.635426e-01 -7.500000e-01  1.558681e-01
     vertex  1.353442e-01 -7.500000e-01 -1.894737e-01
     vertex  2.015343e-01 -7.500000e-01 -1.339336e-01
   endloop
 endfacet
 facet normal  0.000000e+00 -1.000000e+00  0.000000e+00
   outer loop
     vertex  1.635426e-01 -7.500000e-01  1.558681e-01
     vertex -1.635426e-01 -7.500000e-01  1.558681e-01
     vertex -1.353442e-01 -7.500000e-01 -1.894737e-01
   endloop
 endfacet
 facet normal  0.000000e+00 -1.000000e+00 -0.000000e+00
   outer loop
     vertex -3.369788e-01 -7.500000e-01  6.571016e-01
     vertex -4.842121e-01 -7.500000e-01  5.554738e-01
     vertex -2.879394e-01 -7.500000e-01  3.713296e-01
   endloop
 endfacet
 facet normal  0.000000e+00 -1.000000e+00  0.000000e+00
   outer loop
     vertex -3.369788e-01 -7.500000e-01  6.571016e-01
     vertex -2.879394e-01 -7.500000e-01  3.713296e-01
     vertex -2.015343e-01 -7.500000e-01  3.713296e-01
   endloop
 endfacet
 facet normal  0.000000e+00 -1.000000e+00  0.000000e+00
   outer loop
     vertex  1.203401e-01 -7.500000e-01  2.306971e-01
     vertex -1.203401e-01 -7.500000e-01  2.306971e-01
     vertex -1.635426e-01 -7.500000e-01  1.558681e-01
   endloop
 endfacet
 facet normal  0.000000e+00 -1.000000e+00 -0.000000e+00
   outer loop
     vertex  1.203401e-01 -7.500000e-01  2.306971e-01
     vertex -1.635426e-01 -7.500000e-01  1.558681e-01
     vertex  1.635426e-01 -7.500000e-01  1.558681e-01
   endloop
 endfacet
 facet normal  0.000000e+00 -1.000000e+00 -0.000000e+00
   outer loop
     vertex  2.447368e-01 -7.500000e-01  1.263158e-01
     vertex  2.015343e-01 -7.500000e-01 -1.339336e-01
     vertex  2.879394e-01 -7.500000e-01 -1.339336e-01
   endloop
 endfacet
 facet normal -0.000000e+00 -1.000000e+00  0.000000e+00
   outer loop
     vertex  2.447368e-01 -7.500000e-01  1.263158e-01
     vertex  1.635426e-01 -7.500000e-01  1.558681e-01
     vertex  2.015343e-01 -7.500000e-01 -1.339336e-01
   endloop
 endfacet
 facet normal -0.000000e+00 -1.000000e+00  0.000000e+00
   outer loop
     vertex  7.017752e-01 -7.500000e-01 -2.631542e-01
     vertex  3.541295e-01 -7.500000e-01 -1.894737e-01
     vertex  3.691336e-01 -7.500000e-01 -2.745661e-01
   endloop
 endfacet
 facet normal  0.000000e+00 -1.000000e+00  0.000000e+00
   outer loop
     vertex  7.017752e-01 -7.500000e-01 -2.631542e-01
     vertex  3.691336e-01 -7.500000e-01 -2.745661e-01
     vertex  6.186354e-01 -7.500000e-01 -4.215638e-01
   endloop
 endfacet
 facet normal  0.000000e+00 -1.000000e+00  0.000000e+00
   outer loop
     vertex  1.353442e-01 -7.500000e-01  3.157895e-01
     vertex -1.203401e-01 -7.500000e-01  2.306971e-01
     vertex  1.203401e-01 -7.500000e-01  2.306971e-01
   endloop
 endfacet
 facet normal  0.000000e+00 -1.000000e+00  0.000000e+00
   outer loop
     vertex  1.353442e-01 -7.500000e-01  3.157895e-01
     vertex -1.353442e-01 -7.500000e-01  3.157895e-01
     vertex -1.203401e-01 -7.500000e-01  2.306971e-01
   endloop
 endfacet
 facet normal  0.000000e+00 -1.000000e+00 -0.000000e+00
   outer loop
     vertex  3.259311e-01 -7.500000e-01  1.558681e-01
     vertex  2.879394e-01 -7.500000e-01 -1.339336e-01
     vertex  3.541295e-01 -7.500000e-01 -1.894737e-01
   endloop
 endfacet
 facet normal  0.000000e+00 -1.000000e+00  0.000000e+00
   outer loop
     vertex  3.259311e-01 -7.500000e-01  1.558681e-01
     vertex  2.447368e-01 -7.500000e-01  1.263158e-01
     vertex  2.879394e-01 -7.500000e-01 -1.339336e-01
   endloop
 endfacet
 facet normal  0.000000e+00 -1.000000e+00  0.000000e+00
   outer loop
     vertex -1.697027e-01 -7.500000e-01  7.205410e-01
     vertex -3.369788e-01 -7.500000e-01  6.571016e-01
     vertex -2.015343e-01 -7.500000e-01  3.713296e-01
   endloop
 endfacet
 facet normal  0.000000e+00 -1.000000e+00  0.000000e+00
   outer loop
     vertex  7.445892e-01 -7.500000e-01 -8.945090e-02
     vertex  3.541295e-01 -7.500000e-01 -1.894737e-01
     vertex  7.017752e-01 -7.500000e-01 -2.631542e-01
   endloop
 endfacet
 facet normal -0.000000e+00 -1.000000e+00  0.000000e+00
   outer loop
     vertex  7.445892e-01 -7.500000e-01 -8.945090e-02
     vertex  3.259311e-01 -7.500000e-01  1.558681e-01
     vertex  3.541295e-01 -7.500000e-01 -1.894737e-01
   endloop
 endfacet
 facet normal  0.000000e+00 -1.000000e+00  0.000000e+00
   outer loop
     vertex  7.894737e-03 -7.500000e-01  7.421053e-01
     vertex -1.697027e-01 -7.500000e-01  7.205410e-01
     vertex -2.015343e-01 -7.500000e-01  3.713296e-01
   endloop
 endfacet
 facet normal  0.000000e+00 -1.000000e+00  0.000000e+00
   outer loop
     vertex  7.894737e-03 -7.500000e-01  7.421053e-01
     vertex -2.015343e-01 -7.500000e-01  3.713296e-01
     vertex -1.353442e-01 -7.500000e-01  3.157895e-01
   endloop
 endfacet
 facet normal  0.000000e+00 -1.000000e+00 -0.000000e+00
   outer loop
     vertex  7.894737e-03 -7.500000e-01  7.421053e-01
     vertex -1.353442e-01 -7.500000e-01  3.157895e-01
     vertex  1.353442e-01 -7.500000e-01  3.157895e-01
   endloop
 endfacet
 facet normal  0.000000e+00 -1.000000e+00  0.000000e+00
   outer loop
     vertex  7.894737e-03 -7.500000e-01  7.421053e-01
     vertex  1.353442e-01 -7.500000e-01  3.157895e-01
     vertex  2.015343e-01 -7.500000e-01  3.713296e-01
   endloop
 endfacet
 facet normal  0.000000e+00 -1.000000e+00  0.000000e+00
   outer loop
     vertex  7.445892e-01 -7.500000e-01  8.945090e-02
     vertex  3.691336e-01 -7.500000e-01  2.306971e-01
     vertex  3.259311e-01 -7.500000e-01  1.558681e-01
   endloop
 endfacet
 facet normal -0.000000e+00 -1.000000e+00 -0.000000e+00
   outer loop
     vertex  7.445892e-01 -7.500000e-01  8.945090e-02
     vertex  3.259311e-01 -7.500000e-01  1.558681e-01
     vertex  7.445892e-01 -7.500000e-01 -8.945090e-02
   endloop
 endfacet
 facet normal -0.000000e+00 -1.000000e+00 -0.000000e+00
   outer loop
     vertex  1.854922e-01 -7.500000e-01  7.205410e-01
     vertex  7.894737e-03 -7.500000e-01  7.421053e-01
     vertex  2.015343e-01 -7.500000e-01  3.713296e-01
   endloop
 endfacet
 facet normal  2.650216e-16 -1.000000e+00  7.044712e-16
   outer loop
     vertex  7.017752e-01 -7.500000e-01  2.631542e-01
     vertex  3.691336e-01 -7.500000e-01  2.306971e-01
     vertex  7.445892e-01 -7.500000e-01  8.945090e-02
   endloop
 endfacet
 facet normal  0.000000e+00 -1.000000e+00  3.884996e-16
   outer loop
     vertex  3.527682e-01 -7.500000e-01  6.571016e-01
     vertex  2.015343e-01 -7.500000e-01  3.713296e-01
     vertex  2.879394e-01 -7.500000e-01  3.713296e-01
   endloop
 endfacet
 facet normal  6.754751e-16 -1.000000e+00  3.103011e-17
   outer loop
     vertex  3.527682e-01 -7.500000e-01  6.571016e-01
     vertex  1.854922e-01 -7.500000e-01  7.205410e-01
     vertex  2.015343e-01 -7.500000e-01  3.713296e-01
   endloop
 endfacet
 facet normal  3.920878e-16 -1.000000e+00  6.913566e-17
   outer loop
     vertex  6.186354e-01 -7.500000e-01  4.215638e-01
     vertex  3.541295e-01 -7.500000e-01  3.157895e-01
     vertex  3.691336e-01 -7.500000e-01  2.306971e-01
   endloop
 endfacet
 facet normal  3.175001e-16 -1.000000e+00  1.666369e-16
   outer loop
     vertex  6.186354e-01 -7.500000e-01  4.215638e-01
     vertex  3.691336e-01 -7.500000e-01  2.306971e-01
     vertex  7.017752e-01 -7.500000e-01  2.631542e-01
   endloop
 endfacet
 facet normal  2.572839e-16 -1.000000e+00  3.066191e-16
   outer loop
     vertex  5.000016e-01 -7.500000e-01  5.554738e-01
     vertex  2.879394e-01 -7.500000e-01  3.713296e-01
     vertex  3.541295e-01 -7.500000e-01  3.157895e-01
   endloop
 endfacet
 facet normal  2.318563e-16 -1.000000e+00  3.359018e-16
   outer loop
     vertex  5.000016e-01 -7.500000e-01  5.554738e-01
     vertex  3.527682e-01 -7.500000e-01  6.571016e-01
     vertex  2.879394e-01 -7.500000e-01  3.713296e-01
   endloop
 endfacet
 facet normal  3.099331e-16 -1.000000e+00  2.745768e-16
   outer loop
     vertex  5.000016e-01 -7.500000e-01  5.554738e-01
     vertex  3.541295e-01 -7.500000e-01  3.157895e-01
     vertex  6.186354e-01 -7.500000e-01  4.215638e-01
   endloop
 endfacet
endsolid
