solid 
 facet normal -1.000000e+00  0.000000e+00  0.000000e+00
   outer loop
     vertex -6.093750e-01 -2.220289e-01  4.230630e-01
     vertex -6.093750e-01 -3.842211e-01  4.230630e-01
     vertex -6.093750e-01 -3.031250e-01  4.468750e-01
   endloop
 endfacet
 facet normal -1.000000e+00 -0.000000e+00  0.000000e+00
   outer loop
     vertex -6.093750e-01 -2.220289e-01  4.230630e-01
     vertex -6.093750e-01 -4.395698e-01  3.591873e-01
     vertex -6.093750e-01 -3.842211e-01  4.230630e-01
   endloop
 endfacet
 facet normal -1.000000e+00  0.000000e+00  0.000000e+00
   outer loop
     vertex -6.093750e-01 -2.220289e-01  4.230630e-01
     vertex -6.093750e-01 -4.515982e-01  2.755278e-01
     vertex -6.093750e-01 -4.395698e-01  3.591873e-01
   endloop
 endfacet
 facet normal -1.000000e+00  0.000000e+00  0.000000e+00
   outer loop
     vertex -6.093750e-01 -2.220289e-01  4.230630e-01
     vertex -6.093750e-01 -4.164874e-01  1.986459e-01
     vertex -6.093750e-01 -4.515982e-01  2.755278e-01
   endloop
 endfacet
 facet normal -1.000000e+00  0.000000e+00  0.000000e+00
   outer loop
     vertex -6.093750e-01 -2.220289e-01  4.230630e-01
     vertex -6.093750e-01 -3.453849e-01  1.529511e-01
     vertex -6.093750e-01 -4.164874e-01  1.986459e-01
   endloop
 endfacet
 facet normal -1.000000e+00  0.000000e+00  0.000000e+00
   outer loop
     vertex -6.093750e-01 -2.220289e-01  4.230630e-01
     vertex -6.093750e-01 -2.608651e-01  1.529511e-01
     vertex -6.093750e-01 -3.453849e-01  1.529511e-01
   endloop
 endfacet
 facet normal -1.000000e+00  0.000000e+00 -0.000000e+00
   outer loop
     vertex -6.093750e-01 -2.220289e-01  4.230630e-01
     vertex -6.093750e-01 -1.897626e-01  1.986459e-01
     vertex -6.093750e-01 -2.608651e-01  1.529511e-01
   endloop
 endfacet
 facet normal -1.000000e+00  0.000000e+00  0.000000e+00
   outer loop
     vertex -6.093750e-01 -2.220289e-01  4.230630e-01
     vertex -6.093750e-01 -1.546518e-01  2.755278e-01
     vertex -6.093750e-01 -1.897626e-01  1.986459e-01
   endloop
 endfacet
 facet normal -1.000000e+00  0.000000e+00  0.000000e+00
   outer loop
     vertex -6.093750e-01 -2.220289e-01  4.230630e-01
     vertex -6.093750e-01 -1.666802e-01  3.591873e-01
     vertex -6.093750e-01 -1.546518e-01  2.755278e-01
   endloop
 endfacet
 facet normal -1.000000e+00  0.000000e+00  0.000000e+00
   outer loop
     vertex -6.093750e-01 -4.395698e-01  3.591873e-01
     vertex -6.093750e-01 -6.093750e-01  6.093750e-01
     vertex -6.093750e-01 -3.842211e-01  4.230630e-01
   endloop
 endfacet
 facet normal -1.000000e+00 -0.000000e+00  0.000000e+00
   outer loop
     vertex -6.093750e-01 -3.031250e-01  4.468750e-01
     vertex -6.093750e-01 -3.842211e-01  4.230630e-01
     vertex -6.093750e-01 -6.093750e-01  6.093750e-01
   endloop
 endfacet
 facet normal -1.000000e+00  0.000000e+00  0.000000e+00
   outer loop
     vertex -6.093750e-01 -4.515982e-01  2.755278e-01
     vertex -6.093750e-01 -6.093750e-01  6.093750e-01
     vertex -6.093750e-01 -4.395698e-01  3.591873e-01
   endloop
 endfacet
 facet normal -1.000000e+00  0.000000e+00  0.000000e+00
   outer loop
     vertex -6.093750e-01  3.731346e-17  6.093750e-01
     vertex -6.093750e-01 -2.220289e-01  4.230630e-01
     vertex -6.093750e-01 -3.031250e-01  4.468750e-01
   endloop
 endfacet
 facet normal -1.000000e+00 -0.000000e+00  0.000000e+00
   outer loop
     vertex -6.093750e-01  3.731346e-17  6.093750e-01
     vertex -6.093750e-01 -3.031250e-01  4.468750e-01
     vertex -6.093750e-01 -6.093750e-01  6.093750e-01
   endloop
 endfacet
 facet normal -1.000000e+00  0.000000e+00  0.000000e+00
   outer loop
     vertex -6.093750e-01 -6.093750e-01  3.731346e-17
     vertex -6.093750e-01 -4.515982e-01  2.755278e-01
     vertex -6.093750e-01 -4.164874e-01  1.986459e-01
   endloop
 endfacet
 facet normal -1.000000e+00  0.000000e+00  0.000000e+00
   outer loop
     vertex -6.093750e-01 -6.093750e-01  3.731346e-17
     vertex -6.093750e-01 -6.093750e-01  6.093750e-01
     vertex -6.093750e-01 -4.515982e-01  2.755278e-01
   endloop
 endfacet
 facet normal -1.000000e+00  0.000000e+00  0.000000e+00
   outer loop
     vertex -6.093750e-01 -1.666802e-01  3.591873e-01
     vertex -6.093750e-01 -2.220289e-01  4.230630e-01
     vertex -6.093750e-01  3.731346e-17  6.093750e-01
   endloop
 endfacet
 facet normal -1.000000e+00 -0.000000e+00  0.000000e+00
   outer loop
     vertex -6.093750e-01 -3.453849e-01  1.529511e-01
     vertex -6.093750e-01 -6.093750e-01  3.731346e-17
     vertex -6.093750e-01 -4.164874e-01  1.986459e-01
   endloop
 endfacet
 facet normal -1.000000e+00  0.000000e+00  0.000000e+00
   outer loop
     vertex -6.093750e-01 -1.546518e-01  2.755278e-01
     vertex -6.093750e-01 -1.666802e-01  3.591873e-01
     vertex -6.093750e-01  3.731346e-17  6.093750e-01
   endloop
 endfacet
 facet normal -1.000000e+00  0.000000e+00  0.000000e+00
   outer loop
     vertex -6.093750e-01  0.000000e+00  0.000000e+00
     vertex -6.093750e-01 -3.453849e-01  1.529511e-01
     vertex -6.093750e-01 -2.608651e-01  1.529511e-01
   endloop
 endfacet
 facet normal -1.000000e+00  0.000000e+00  0.000000e+00
   outer loop
     vertex -6.093750e-01  0.000000e+00  0.000000e+00
     vertex -6.093750e-01 -2.608651e-01  1.529511e-01
     vertex -6.093750e-01 -1.897626e-01  1.986459e-01
   endloop
 endfacet
 facet normal -1.000000e+00  0.000000e+00  0.000000e+00
   outer loop
     vertex -6.093750e-01  0.000000e+00  0.000000e+00
     vertex -6.093750e-01 -1.897626e-01  1.986459e-01
     vertex -6.093750e-01 -1.546518e-01  2.755278e-01
   endloop
 endfacet
 facet normal -1.000000e+00  0.000000e+00  0.000000e+00
   outer loop
     vertex -6.093750e-01  0.000000e+00  0.000000e+00
     vertex -6.093750e-01 -6.093750e-01  3.731346e-17
     vertex -6.093750e-01 -3.453849e-01  1.529511e-01
   endloop
 endfacet
 facet normal -1.000000e+00  0.000000e+00  0.000000e+00
   outer loop
     vertex -6.093750e-01  0.000000e+00  0.000000e+00
     vertex -6.093750e-01 -1.546518e-01  2.755278e-01
     vertex -6.093750e-01  3.731346e-17  6.093750e-01
   endloop
 endfacet
 facet normal -0.000000e+00  0.000000e+00  1.000000e+00
   outer loop
     vertex -6.093750e-01  3.731346e-17  6.093750e-01
     vertex  3.731346e-17 -6.093750e-01  6.093750e-01
     vertex  0.000000e+00  7.462691e-17  6.093750e-01
   endloop
 endfacet
 facet normal  0.000000e+00  0.000000e+00  1.000000e+00
   outer loop
     vertex -6.093750e-01  3.731346e-17  6.093750e-01
     vertex -6.093750e-01 -6.093750e-01  6.093750e-01
     vertex  3.731346e-17 -6.093750e-01  6.093750e-01
   endloop
 endfacet
 facet normal -6.123234e-17  1.000000e+00 -6.123234e-17
   outer loop
     vertex  0.000000e+00  7.462691e-17  6.093750e-01
     vertex  0.000000e+00  3.731346e-17 -3.731346e-17
     vertex -6.093750e-01  0.000000e+00  0.000000e+00
   endloop
 endfacet
 facet normal -6.123234e-17  1.000000e+00 -6.123234e-17
   outer loop
     vertex  0.000000e+00  7.462691e-17  6.093750e-01
     vertex -6.093750e-01  0.000000e+00  0.000000e+00
     vertex -6.093750e-01  3.731346e-17  6.093750e-01
   endloop
 endfacet
 facet normal  0.000000e+00 -1.000000e+00 -0.000000e+00
   outer loop
     vertex -4.609375e-01 -6.093750e-01  4.453125e-01
     vertex -6.093750e-01 -6.093750e-01  3.731346e-17
     vertex -4.609375e-01 -6.093750e-01  1.484375e-01
   endloop
 endfacet
 facet normal -0.000000e+00 -1.000000e+00  0.000000e+00
   outer loop
     vertex -1.640625e-01 -6.093750e-01  1.484375e-01
     vertex -4.609375e-01 -6.093750e-01  1.484375e-01
     vertex -6.093750e-01 -6.093750e-01  3.731346e-17
   endloop
 endfacet
 facet normal  0.000000e+00 -1.000000e+00  0.000000e+00
   outer loop
     vertex  3.731346e-17 -6.093750e-01  0.000000e+00
     vertex -1.640625e-01 -6.093750e-01  1.484375e-01
     vertex -6.093750e-01 -6.093750e-01  3.731346e-17
   endloop
 endfacet
 facet normal  0.000000e+00 -1.000000e+00  0.000000e+00
   outer loop
     vertex -6.093750e-01 -6.093750e-01  6.093750e-01
     vertex -6.093750e-01 -6.093750e-01  3.731346e-17
     vertex -4.609375e-01 -6.093750e-01  4.453125e-01
   endloop
 endfacet
 facet normal  0.000000e+00 -1.000000e+00  0.000000e+00
   outer loop
     vertex -1.640625e-01 -6.093750e-01  4.453125e-01
     vertex -1.640625e-01 -6.093750e-01  1.484375e-01
     vertex  3.731346e-17 -6.093750e-01  0.000000e+00
   endloop
 endfacet
 facet normal  0.000000e+00 -1.000000e+00  0.000000e+00
   outer loop
     vertex -1.640625e-01 -6.093750e-01  4.453125e-01
     vertex -6.093750e-01 -6.093750e-01  6.093750e-01
     vertex -4.609375e-01 -6.093750e-01  4.453125e-01
   endloop
 endfacet
 facet normal  0.000000e+00 -1.000000e+00 -0.000000e+00
   outer loop
     vertex  3.731346e-17 -6.093750e-01  6.093750e-01
     vertex -1.640625e-01 -6.093750e-01  4.453125e-01
     vertex  3.731346e-17 -6.093750e-01  0.000000e+00
   endloop
 endfacet
 facet normal -0.000000e+00 -1.000000e+00  0.000000e+00
   outer loop
     vertex  3.731346e-17 -6.093750e-01  6.093750e-01
     vertex -6.093750e-01 -6.093750e-01  6.093750e-01
     vertex -1.640625e-01 -6.093750e-01  4.453125e-01
   endloop
 endfacet
 facet normal -1.136960e-16 -7.306795e-17 -1.000000e+00
   outer loop
     vertex -4.548614e-01 -3.391349e-01  0.000000e+00
     vertex -4.091666e-01 -4.102374e-01  0.000000e+00
     vertex -6.093750e-01 -6.093750e-01  3.731346e-17
   endloop
 endfacet
 facet normal -5.864509e-17 -1.284148e-16 -1.000000e+00
   outer loop
     vertex -3.322847e-01 -4.453482e-01  0.000000e+00
     vertex -6.093750e-01 -6.093750e-01  3.731346e-17
     vertex -4.091666e-01 -4.102374e-01  0.000000e+00
   endloop
 endfacet
 facet normal  0.000000e+00  0.000000e+00 -1.000000e+00
   outer loop
     vertex -6.093750e-01  0.000000e+00  0.000000e+00
     vertex -4.548614e-01 -2.546151e-01  0.000000e+00
     vertex -4.548614e-01 -3.391349e-01  0.000000e+00
   endloop
 endfacet
 facet normal -1.343961e-16 -6.123234e-17 -1.000000e+00
   outer loop
     vertex -6.093750e-01  0.000000e+00  0.000000e+00
     vertex -4.548614e-01 -3.391349e-01  0.000000e+00
     vertex -6.093750e-01 -6.093750e-01  3.731346e-17
   endloop
 endfacet
 facet normal  0.000000e+00  0.000000e+00 -1.000000e+00
   outer loop
     vertex  3.731346e-17 -6.093750e-01  0.000000e+00
     vertex -3.322847e-01 -4.453482e-01  0.000000e+00
     vertex -2.486252e-01 -4.333198e-01  0.000000e+00
   endloop
 endfacet
 facet normal -6.123234e-17 -1.240442e-16 -1.000000e+00
   outer loop
     vertex  3.731346e-17 -6.093750e-01  0.000000e+00
     vertex -6.093750e-01 -6.093750e-01  3.731346e-17
     vertex -3.322847e-01 -4.453482e-01  0.000000e+00
   endloop
 endfacet
 facet normal -0.000000e+00  0.000000e+00 -1.000000e+00
   outer loop
     vertex -4.091666e-01 -1.835126e-01  0.000000e+00
     vertex -4.548614e-01 -2.546151e-01  0.000000e+00
     vertex -6.093750e-01  0.000000e+00  0.000000e+00
   endloop
 endfacet
 facet normal  0.000000e+00 -0.000000e+00 -1.000000e+00
   outer loop
     vertex -1.847495e-01 -3.779711e-01  0.000000e+00
     vertex  3.731346e-17 -6.093750e-01  0.000000e+00
     vertex -2.486252e-01 -4.333198e-01  0.000000e+00
   endloop
 endfacet
 facet normal -0.000000e+00  0.000000e+00 -1.000000e+00
   outer loop
     vertex -3.322847e-01 -1.484018e-01  0.000000e+00
     vertex -4.091666e-01 -1.835126e-01  0.000000e+00
     vertex -6.093750e-01  0.000000e+00  0.000000e+00
   endloop
 endfacet
 facet normal  0.000000e+00 -0.000000e+00 -1.000000e+00
   outer loop
     vertex -1.609375e-01 -2.968750e-01  0.000000e+00
     vertex  3.731346e-17 -6.093750e-01  0.000000e+00
     vertex -1.847495e-01 -3.779711e-01  0.000000e+00
   endloop
 endfacet
 facet normal -1.503921e-16 -4.415910e-17 -1.000000e+00
   outer loop
     vertex  0.000000e+00  3.731346e-17 -3.731346e-17
     vertex -1.609375e-01 -2.968750e-01  0.000000e+00
     vertex -1.847495e-01 -2.157789e-01  0.000000e+00
   endloop
 endfacet
 facet normal -8.602098e-17 -9.927351e-17 -1.000000e+00
   outer loop
     vertex  0.000000e+00  3.731346e-17 -3.731346e-17
     vertex -1.847495e-01 -2.157789e-01  0.000000e+00
     vertex -2.486252e-01 -1.604302e-01  0.000000e+00
   endloop
 endfacet
 facet normal -2.734705e-17 -1.902029e-16 -1.000000e+00
   outer loop
     vertex  0.000000e+00  3.731346e-17 -3.731346e-17
     vertex -2.486252e-01 -1.604302e-01  0.000000e+00
     vertex -3.322847e-01 -1.484018e-01  0.000000e+00
   endloop
 endfacet
 facet normal -1.188977e-16 -6.123234e-17 -1.000000e+00
   outer loop
     vertex  0.000000e+00  3.731346e-17 -3.731346e-17
     vertex  3.731346e-17 -6.093750e-01  0.000000e+00
     vertex -1.609375e-01 -2.968750e-01  0.000000e+00
   endloop
 endfacet
 facet normal -6.123234e-17 -1.143307e-16 -1.000000e+00
   outer loop
     vertex  0.000000e+00  3.731346e-17 -3.731346e-17
     vertex -3.322847e-01 -1.484018e-01  0.000000e+00
     vertex -6.093750e-01  0.000000e+00  0.000000e+00
   endloop
 endfacet
 facet normal  1.000000e+00  6.123234e-17 -3.749399e-33
   outer loop
     vertex  0.000000e+00  7.462691e-17  6.093750e-01
     vertex  3.731346e-17 -6.093750e-01  0.000000e+00
     vertex  0.000000e+00  3.731346e-17 -3.731346e-17
   endloop
 endfacet
 facet normal  1.000000e+00  6.123234e-17  0.000000e+00
   outer loop
     vertex  0.000000e+00  7.462691e-17  6.093750e-01
     vertex  3.731346e-17 -6.093750e-01  6.093750e-01
     vertex  3.731346e-17 -6.093750e-01  0.000000e+00
   endloop
 endfacet
 facet normal -0.000000e+00  0.000000e+00 -1.000000e+00
   outer loop
     vertex -1.640625e-01 -6.093750e-01  1.484375e-01
     vertex -4.609375e-01 -7.500000e-01  1.484375e-01
     vertex -4.609375e-01 -6.093750e-01  1.484375e-01
   endloop
 endfacet
 facet normal  0.000000e+00 -0.000000e+00 -1.000000e+00
   outer loop
     vertex -1.640625e-01 -6.093750e-01  1.484375e-01
     vertex -1.640625e-01 -7.500000e-01  1.484375e-01
     vertex -4.609375e-01 -7.500000e-01  1.484375e-01
   endloop
 endfacet
 facet normal  1.000000e+00  0.000000e+00  0.000000e+00
   outer loop
     vertex -1.640625e-01 -6.093750e-01  4.453125e-01
     vertex -1.640625e-01 -7.500000e-01  1.484375e-01
     vertex -1.640625e-01 -6.093750e-01  1.484375e-01
   endloop
 endfacet
 facet normal  1.000000e+00  0.000000e+00  0.000000e+00
   outer loop
     vertex -1.640625e-01 -6.093750e-01  4.453125e-01
     vertex -1.640625e-01 -7.500000e-01  4.453125e-01
     vertex -1.640625e-01 -7.500000e-01  1.484375e-01
   endloop
 endfacet
 facet normal -0.000000e+00  0.000000e+00  1.000000e+00
   outer loop
     vertex -4.609375e-01 -6.093750e-01  4.453125e-01
     vertex -1.640625e-01 -7.500000e-01  4.453125e-01
     vertex -1.640625e-01 -6.093750e-01  4.453125e-01
   endloop
 endfacet
 facet normal  0.000000e+00  0.000000e+00  1.000000e+00
   outer loop
     vertex -4.609375e-01 -6.093750e-01  4.453125e-01
     vertex -4.609375e-01 -7.500000e-01  4.453125e-01
     vertex -1.640625e-01 -7.500000e-01  4.453125e-01
   endloop
 endfacet
 facet normal -1.000000e+00  0.000000e+00  0.000000e+00
   outer loop
     vertex -4.609375e-01 -6.093750e-01  1.484375e-01
     vertex -4.609375e-01 -7.500000e-01  4.453125e-01
     vertex -4.609375e-01 -6.093750e-01  4.453125e-01
   endloop
 endfacet
 facet normal -1.000000e+00  0.000000e+00  0.000000e+00
   outer loop
     vertex -4.609375e-01 -6.093750e-01  1.484375e-01
     vertex -4.609375e-01 -7.500000e-01  1.484375e-01
     vertex -4.609375e-01 -7.500000e-01  4.453125e-01
   endloop
 endfacet
 facet normal -9.594930e-01 -2.817326e-01 -0.000000e+00
   outer loop
     vertex -1.609375e-01 -2.968750e-01  6.015625e-01
     vertex -1.847495e-01 -2.157789e-01  0.000000e+00
     vertex -1.609375e-01 -2.968750e-01  0.000000e+00
   endloop
 endfacet
 facet normal -9.594930e-01 -2.817326e-01 -0.000000e+00
   outer loop
     vertex -1.847495e-01 -2.157789e-01  6.015625e-01
     vertex -1.847495e-01 -2.157789e-01  0.000000e+00
     vertex -1.609375e-01 -2.968750e-01  6.015625e-01
   endloop
 endfacet
 facet normal -6.548607e-01 -7.557496e-01 -0.000000e+00
   outer loop
     vertex -2.486252e-01 -1.604302e-01  6.015625e-01
     vertex -2.486252e-01 -1.604302e-01  0.000000e+00
     vertex -1.847495e-01 -2.157789e-01  0.000000e+00
   endloop
 endfacet
 facet normal -6.548607e-01 -7.557496e-01  0.000000e+00
   outer loop
     vertex -2.486252e-01 -1.604302e-01  6.015625e-01
     vertex -1.847495e-01 -2.157789e-01  0.000000e+00
     vertex -1.847495e-01 -2.157789e-01  6.015625e-01
   endloop
 endfacet
 facet normal -1.423148e-01 -9.898214e-01 -0.000000e+00
   outer loop
     vertex -3.322847e-01 -1.484018e-01  6.015625e-01
     vertex -3.322847e-01 -1.484018e-01  0.000000e+00
     vertex -2.486252e-01 -1.604302e-01  0.000000e+00
   endloop
 endfacet
 facet normal -1.423148e-01 -9.898214e-01  0.000000e+00
   outer loop
     vertex -3.322847e-01 -1.484018e-01  6.015625e-01
     vertex -2.486252e-01 -1.604302e-01  0.000000e+00
     vertex -2.486252e-01 -1.604302e-01  6.015625e-01
   endloop
 endfacet
 facet normal  4.154150e-01 -9.096320e-01  0.000000e+00
   outer loop
     vertex -4.091666e-01 -1.835126e-01  6.015625e-01
     vertex -4.091666e-01 -1.835126e-01  0.000000e+00
     vertex -3.322847e-01 -1.484018e-01  0.000000e+00
   endloop
 endfacet
 facet normal  4.154150e-01 -9.096320e-01  0.000000e+00
   outer loop
     vertex -4.091666e-01 -1.835126e-01  6.015625e-01
     vertex -3.322847e-01 -1.484018e-01  0.000000e+00
     vertex -3.322847e-01 -1.484018e-01  6.015625e-01
   endloop
 endfacet
 facet normal  8.412535e-01 -5.406408e-01  0.000000e+00
   outer loop
     vertex -4.548614e-01 -2.546151e-01  6.015625e-01
     vertex -4.548614e-01 -2.546151e-01  0.000000e+00
     vertex -4.091666e-01 -1.835126e-01  0.000000e+00
   endloop
 endfacet
 facet normal  8.412535e-01 -5.406408e-01  0.000000e+00
   outer loop
     vertex -4.548614e-01 -2.546151e-01  6.015625e-01
     vertex -4.091666e-01 -1.835126e-01  0.000000e+00
     vertex -4.091666e-01 -1.835126e-01  6.015625e-01
   endloop
 endfacet
 facet normal  1.000000e+00  0.000000e+00  0.000000e+00
   outer loop
     vertex -4.548614e-01 -3.391349e-01  6.015625e-01
     vertex -4.548614e-01 -3.391349e-01  0.000000e+00
     vertex -4.548614e-01 -2.546151e-01  0.000000e+00
   endloop
 endfacet
 facet normal  8.412535e-01  5.406408e-01  0.000000e+00
   outer loop
     vertex -4.548614e-01 -3.391349e-01  6.015625e-01
     vertex -4.091666e-01 -4.102374e-01  0.000000e+00
     vertex -4.548614e-01 -3.391349e-01  0.000000e+00
   endloop
 endfacet
 facet normal  1.000000e+00 -0.000000e+00  0.000000e+00
   outer loop
     vertex -4.548614e-01 -3.391349e-01  6.015625e-01
     vertex -4.548614e-01 -2.546151e-01  0.000000e+00
     vertex -4.548614e-01 -2.546151e-01  6.015625e-01
   endloop
 endfacet
 facet normal  8.412535e-01  5.406408e-01  0.000000e+00
   outer loop
     vertex -4.091666e-01 -4.102374e-01  6.015625e-01
     vertex -4.091666e-01 -4.102374e-01  0.000000e+00
     vertex -4.548614e-01 -3.391349e-01  6.015625e-01
   endloop
 endfacet
 facet normal  4.154150e-01  9.096320e-01  0.000000e+00
   outer loop
     vertex -3.322847e-01 -4.453482e-01  6.015625e-01
     vertex -3.322847e-01 -4.453482e-01  0.000000e+00
     vertex -4.091666e-01 -4.102374e-01  0.000000e+00
   endloop
 endfacet
 facet normal -1.423148e-01  9.898214e-01  0.000000e+00
   outer loop
     vertex -3.322847e-01 -4.453482e-01  6.015625e-01
     vertex -2.486252e-01 -4.333198e-01  0.000000e+00
     vertex -3.322847e-01 -4.453482e-01  0.000000e+00
   endloop
 endfacet
 facet normal  4.154150e-01  9.096320e-01  0.000000e+00
   outer loop
     vertex -3.322847e-01 -4.453482e-01  6.015625e-01
     vertex -4.091666e-01 -4.102374e-01  0.000000e+00
     vertex -4.091666e-01 -4.102374e-01  6.015625e-01
   endloop
 endfacet
 facet normal -1.423148e-01  9.898214e-01  0.000000e+00
   outer loop
     vertex -2.486252e-01 -4.333198e-01  6.015625e-01
     vertex -2.486252e-01 -4.333198e-01  0.000000e+00
     vertex -3.322847e-01 -4.453482e-01  6.015625e-01
   endloop
 endfacet
 facet normal -6.548607e-01  7.557496e-01  0.000000e+00
   outer loop
     vertex -1.847495e-01 -3.779711e-01  6.015625e-01
     vertex -1.847495e-01 -3.779711e-01  0.000000e+00
     vertex -2.486252e-01 -4.333198e-01  0.000000e+00
   endloop
 endfacet
 facet normal -6.548607e-01  7.557496e-01  0.000000e+00
   outer loop
     vertex -1.847495e-01 -3.779711e-01  6.015625e-01
     vertex -2.486252e-01 -4.333198e-01  0.000000e+00
     vertex -2.486252e-01 -4.333198e-01  6.015625e-01
   endloop
 endfacet
 facet normal -9.594930e-01  2.817326e-01  0.000000e+00
   outer loop
     vertex -1.609375e-01 -2.968750e-01  6.015625e-01
     vertex -1.609375e-01 -2.968750e-01  0.000000e+00
     vertex -1.847495e-01 -3.779711e-01  0.000000e+00
   endloop
 endfacet
 facet normal -9.594930e-01  2.817326e-01  0.000000e+00
   outer loop
     vertex -1.609375e-01 -2.968750e-01  6.015625e-01
     vertex -1.847495e-01 -3.779711e-01  0.000000e+00
     vertex -1.847495e-01 -3.779711e-01  6.015625e-01
   endloop
 endfacet
 facet normal  0.000000e+00 -1.000000e+00 -0.000000e+00
   outer loop
     vertex -1.640625e-01 -7.500000e-01  4.453125e-01
     vertex -4.609375e-01 -7.500000e-01  1.484375e-01
     vertex -1.640625e-01 -7.500000e-01  1.484375e-01
   endloop
 endfacet
 facet normal -0.000000e+00 -1.000000e+00  0.000000e+00
   outer loop
     vertex -1.640625e-01 -7.500000e-01  4.453125e-01
     vertex -4.609375e-01 -7.500000e-01  4.453125e-01
     vertex -4.609375e-01 -7.500000e-01  1.484375e-01
   endloop
 endfacet
 facet normal  0.000000e+00  0.000000e+00 -1.000000e+00
   outer loop
     vertex -1.847495e-01 -2.157789e-01  6.015625e-01
     vertex -3.322847e-01 -1.484018e-01  6.015625e-01
     vertex -2.486252e-01 -1.604302e-01  6.015625e-01
   endloop
 endfacet
 facet normal  0.000000e+00  0.000000e+00 -1.000000e+00
   outer loop
     vertex -1.847495e-01 -2.157789e-01  6.015625e-01
     vertex -4.091666e-01 -1.835126e-01  6.015625e-01
     vertex -3.322847e-01 -1.484018e-01  6.015625e-01
   endloop
 endfacet
 facet normal -0.000000e+00  0.000000e+00 -1.000000e+00
   outer loop
     vertex -1.847495e-01 -2.157789e-01  6.015625e-01
     vertex -4.548614e-01 -2.546151e-01  6.015625e-01
     vertex -4.091666e-01 -1.835126e-01  6.015625e-01
   endloop
 endfacet
 facet normal  0.000000e+00  0.000000e+00 -1.000000e+00
   outer loop
     vertex -1.847495e-01 -2.157789e-01  6.015625e-01
     vertex -4.548614e-01 -3.391349e-01  6.015625e-01
     vertex -4.548614e-01 -2.546151e-01  6.015625e-01
   endloop
 endfacet
 facet normal  0.000000e+00  0.000000e+00 -1.000000e+00
   outer loop
     vertex -1.847495e-01 -2.157789e-01  6.015625e-01
     vertex -4.091666e-01 -4.102374e-01  6.015625e-01
     vertex -4.548614e-01 -3.391349e-01  6.015625e-01
   endloop
 endfacet
 facet normal  0.000000e+00  0.000000e+00 -1.000000e+00
   outer loop
     vertex -1.847495e-01 -2.157789e-01  6.015625e-01
     vertex -3.322847e-01 -4.453482e-01  6.015625e-01
     vertex -4.091666e-01 -4.102374e-01  6.015625e-01
   endloop
 endfacet
 facet normal  0.000000e+00  0.000000e+00 -1.000000e+00
   outer loop
     vertex -1.847495e-01 -2.157789e-01  6.015625e-01
     vertex -2.486252e-01 -4.333198e-01  6.015625e-01
     vertex -3.322847e-01 -4.453482e-01  6.015625e-01
   endloop
 endfacet
 facet normal  0.000000e+00  0.000000e+00 -1.000000e+00
   outer loop
     vertex -1.847495e-01 -2.157789e-01  6.015625e-01
     vertex -1.847495e-01 -3.779711e-01  6.015625e-01
     vertex -2.486252e-01 -4.333198e-01  6.015625e-01
   endloop
 endfacet
 facet normal  0.000000e+00 -0.000000e+00 -1.000000e+00
   outer loop
     vertex -1.847495e-01 -2.157789e-01  6.015625e-01
     vertex -1.609375e-01 -2.968750e-01  6.015625e-01
     vertex -1.847495e-01 -3.779711e-01  6.015625e-01
   endloop
 endfacet
endsolid
