solid 
 facet normal  1.000000e+00  0.000000e+00  0.000000e+00
   outer loop
     vertex  1.875000e-01  7.500000e-01  0.000000e+00
     vertex  1.875000e-01  0.000000e+00  1.328125e-01
     vertex  1.875000e-01  0.000000e+00  0.000000e+00
   endloop
 endfacet
 facet normal  1.000000e+00  0.000000e+00 -0.000000e+00
   outer loop
     vertex  1.875000e-01  7.500000e-01  0.000000e+00
     vertex  1.875000e-01  7.500000e-01  1.328125e-01
     vertex  1.875000e-01  0.000000e+00  1.328125e-01
   endloop
 endfacet
 facet normal -1.205367e-01 -9.927089e-01  0.000000e+00
   outer loop
     vertex  9.775663e-02  1.089682e-02  0.000000e+00
     vertex  1.875000e-01  0.000000e+00  0.000000e+00
     vertex  1.875000e-01  0.000000e+00  1.328125e-01
   endloop
 endfacet
 facet normal -1.205367e-01 -9.927089e-01  0.000000e+00
   outer loop
     vertex  9.775663e-02  1.089682e-02  0.000000e+00
     vertex  1.875000e-01  0.000000e+00  1.328125e-01
     vertex  9.775663e-02  1.089682e-02  1.328125e-01
   endloop
 endfacet
 facet normal -3.546049e-01 -9.350162e-01  0.000000e+00
   outer loop
     vertex  1.322881e-02  4.295399e-02  0.000000e+00
     vertex  9.775663e-02  1.089682e-02  1.328125e-01
     vertex  1.322881e-02  4.295399e-02  1.328125e-01
   endloop
 endfacet
 facet normal -3.546049e-01 -9.350162e-01  0.000000e+00
   outer loop
     vertex  1.322881e-02  4.295399e-02  0.000000e+00
     vertex  9.775663e-02  1.089682e-02  0.000000e+00
     vertex  9.775663e-02  1.089682e-02  1.328125e-01
   endloop
 endfacet
 facet normal -5.680647e-01 -8.229839e-01  0.000000e+00
   outer loop
     vertex -6.117100e-02  9.430847e-02  0.000000e+00
     vertex  1.322881e-02  4.295399e-02  1.328125e-01
     vertex -6.117100e-02  9.430847e-02  1.328125e-01
   endloop
 endfacet
 facet normal -5.680647e-01 -8.229839e-01  0.000000e+00
   outer loop
     vertex -6.117100e-02  9.430847e-02  0.000000e+00
     vertex  1.322881e-02  4.295399e-02  0.000000e+00
     vertex  1.322881e-02  4.295399e-02  1.328125e-01
   endloop
 endfacet
 facet normal -7.485107e-01 -6.631227e-01  0.000000e+00
   outer loop
     vertex -1.211189e-01  1.619757e-01  0.000000e+00
     vertex -6.117100e-02  9.430847e-02  1.328125e-01
     vertex -1.211189e-01  1.619757e-01  1.328125e-01
   endloop
 endfacet
 facet normal -7.485107e-01 -6.631227e-01  0.000000e+00
   outer loop
     vertex -1.211189e-01  1.619757e-01  0.000000e+00
     vertex -6.117100e-02  9.430847e-02  0.000000e+00
     vertex -6.117100e-02  9.430847e-02  1.328125e-01
   endloop
 endfacet
 facet normal -8.854560e-01 -4.647232e-01  0.000000e+00
   outer loop
     vertex -1.631311e-01  2.420232e-01  0.000000e+00
     vertex -1.211189e-01  1.619757e-01  1.328125e-01
     vertex -1.631311e-01  2.420232e-01  1.328125e-01
   endloop
 endfacet
 facet normal -8.854560e-01 -4.647232e-01  0.000000e+00
   outer loop
     vertex -1.631311e-01  2.420232e-01  0.000000e+00
     vertex -1.211189e-01  1.619757e-01  0.000000e+00
     vertex -1.211189e-01  1.619757e-01  1.328125e-01
   endloop
 endfacet
 facet normal -9.709418e-01 -2.393157e-01  0.000000e+00
   outer loop
     vertex -1.847658e-01  3.297987e-01  0.000000e+00
     vertex -1.631311e-01  2.420232e-01  1.328125e-01
     vertex -1.847658e-01  3.297987e-01  1.328125e-01
   endloop
 endfacet
 facet normal -9.709418e-01 -2.393157e-01  0.000000e+00
   outer loop
     vertex -1.847658e-01  3.297987e-01  0.000000e+00
     vertex -1.631311e-01  2.420232e-01  0.000000e+00
     vertex -1.631311e-01  2.420232e-01  1.328125e-01
   endloop
 endfacet
 facet normal -1.000000e+00  0.000000e+00  0.000000e+00
   outer loop
     vertex -1.847658e-01  4.202013e-01  0.000000e+00
     vertex -1.847658e-01  3.297987e-01  1.328125e-01
     vertex -1.847658e-01  4.202013e-01  1.328125e-01
   endloop
 endfacet
 facet normal -1.000000e+00  0.000000e+00  0.000000e+00
   outer loop
     vertex -1.847658e-01  4.202013e-01  0.000000e+00
     vertex -1.847658e-01  3.297987e-01  0.000000e+00
     vertex -1.847658e-01  3.297987e-01  1.328125e-01
   endloop
 endfacet
 facet normal -9.709418e-01  2.393157e-01  0.000000e+00
   outer loop
     vertex -1.631311e-01  5.079768e-01  0.000000e+00
     vertex -1.847658e-01  4.202013e-01  1.328125e-01
     vertex -1.631311e-01  5.079768e-01  1.328125e-01
   endloop
 endfacet
 facet normal -9.709418e-01  2.393157e-01  0.000000e+00
   outer loop
     vertex -1.631311e-01  5.079768e-01  0.000000e+00
     vertex -1.847658e-01  4.202013e-01  0.000000e+00
     vertex -1.847658e-01  4.202013e-01  1.328125e-01
   endloop
 endfacet
 facet normal -8.854560e-01  4.647232e-01  0.000000e+00
   outer loop
     vertex -1.211189e-01  5.880243e-01  0.000000e+00
     vertex -1.631311e-01  5.079768e-01  1.328125e-01
     vertex -1.211189e-01  5.880243e-01  1.328125e-01
   endloop
 endfacet
 facet normal -8.854560e-01  4.647232e-01  0.000000e+00
   outer loop
     vertex -1.211189e-01  5.880243e-01  0.000000e+00
     vertex -1.631311e-01  5.079768e-01  0.000000e+00
     vertex -1.631311e-01  5.079768e-01  1.328125e-01
   endloop
 endfacet
 facet normal -7.485107e-01  6.631227e-01  0.000000e+00
   outer loop
     vertex -6.117100e-02  6.556915e-01  0.000000e+00
     vertex -1.211189e-01  5.880243e-01  1.328125e-01
     vertex -6.117100e-02  6.556915e-01  1.328125e-01
   endloop
 endfacet
 facet normal -7.485107e-01  6.631227e-01  0.000000e+00
   outer loop
     vertex -6.117100e-02  6.556915e-01  0.000000e+00
     vertex -1.211189e-01  5.880243e-01  0.000000e+00
     vertex -1.211189e-01  5.880243e-01  1.328125e-01
   endloop
 endfacet
 facet normal -5.680647e-01  8.229839e-01  0.000000e+00
   outer loop
     vertex  1.322881e-02  7.070460e-01  0.000000e+00
     vertex -6.117100e-02  6.556915e-01  1.328125e-01
     vertex  1.322881e-02  7.070460e-01  1.328125e-01
   endloop
 endfacet
 facet normal -5.680647e-01  8.229839e-01  0.000000e+00
   outer loop
     vertex  1.322881e-02  7.070460e-01  0.000000e+00
     vertex -6.117100e-02  6.556915e-01  0.000000e+00
     vertex -6.117100e-02  6.556915e-01  1.328125e-01
   endloop
 endfacet
 facet normal -3.546049e-01  9.350162e-01  0.000000e+00
   outer loop
     vertex  9.775663e-02  7.391032e-01  0.000000e+00
     vertex  1.322881e-02  7.070460e-01  1.328125e-01
     vertex  9.775663e-02  7.391032e-01  1.328125e-01
   endloop
 endfacet
 facet normal -3.546049e-01  9.350162e-01  0.000000e+00
   outer loop
     vertex  9.775663e-02  7.391032e-01  0.000000e+00
     vertex  1.322881e-02  7.070460e-01  0.000000e+00
     vertex  1.322881e-02  7.070460e-01  1.328125e-01
   endloop
 endfacet
 facet normal -1.205367e-01  9.927089e-01  0.000000e+00
   outer loop
     vertex  1.875000e-01  7.500000e-01  0.000000e+00
     vertex  9.775663e-02  7.391032e-01  1.328125e-01
     vertex  1.875000e-01  7.500000e-01  1.328125e-01
   endloop
 endfacet
 facet normal -1.205367e-01  9.927089e-01  0.000000e+00
   outer loop
     vertex  1.875000e-01  7.500000e-01  0.000000e+00
     vertex  9.775663e-02  7.391032e-01  0.000000e+00
     vertex  9.775663e-02  7.391032e-01  1.328125e-01
   endloop
 endfacet
 facet normal  0.000000e+00  0.000000e+00 -1.000000e+00
   outer loop
     vertex  1.875000e-01  7.500000e-01  0.000000e+00
     vertex  1.322881e-02  7.070460e-01  0.000000e+00
     vertex  9.775663e-02  7.391032e-01  0.000000e+00
   endloop
 endfacet
 facet normal  0.000000e+00  0.000000e+00 -1.000000e+00
   outer loop
     vertex  1.875000e-01  7.500000e-01  0.000000e+00
     vertex -6.117100e-02  6.556915e-01  0.000000e+00
     vertex  1.322881e-02  7.070460e-01  0.000000e+00
   endloop
 endfacet
 facet normal  0.000000e+00  0.000000e+00 -1.000000e+00
   outer loop
     vertex  1.875000e-01  7.500000e-01  0.000000e+00
     vertex -1.211189e-01  5.880243e-01  0.000000e+00
     vertex -6.117100e-02  6.556915e-01  0.000000e+00
   endloop
 endfacet
 facet normal  0.000000e+00  0.000000e+00 -1.000000e+00
   outer loop
     vertex  1.875000e-01  7.500000e-01  0.000000e+00
     vertex -1.631311e-01  5.079768e-01  0.000000e+00
     vertex -1.211189e-01  5.880243e-01  0.000000e+00
   endloop
 endfacet
 facet normal  0.000000e+00  0.000000e+00 -1.000000e+00
   outer loop
     vertex  1.875000e-01  7.500000e-01  0.000000e+00
     vertex -1.847658e-01  4.202013e-01  0.000000e+00
     vertex -1.631311e-01  5.079768e-01  0.000000e+00
   endloop
 endfacet
 facet normal  0.000000e+00  0.000000e+00 -1.000000e+00
   outer loop
     vertex  1.875000e-01  7.500000e-01  0.000000e+00
     vertex -1.847658e-01  3.297987e-01  0.000000e+00
     vertex -1.847658e-01  4.202013e-01  0.000000e+00
   endloop
 endfacet
 facet normal  0.000000e+00  0.000000e+00 -1.000000e+00
   outer loop
     vertex  1.875000e-01  7.500000e-01  0.000000e+00
     vertex -1.631311e-01  2.420232e-01  0.000000e+00
     vertex -1.847658e-01  3.297987e-01  0.000000e+00
   endloop
 endfacet
 facet normal  0.000000e+00  0.000000e+00 -1.000000e+00
   outer loop
     vertex  1.875000e-01  7.500000e-01  0.000000e+00
     vertex -1.211189e-01  1.619757e-01  0.000000e+00
     vertex -1.631311e-01  2.420232e-01  0.000000e+00
   endloop
 endfacet
 facet normal  0.000000e+00  0.000000e+00 -1.000000e+00
   outer loop
     vertex  1.875000e-01  7.500000e-01  0.000000e+00
     vertex -6.117100e-02  9.430847e-02  0.000000e+00
     vertex -1.211189e-01  1.619757e-01  0.000000e+00
   endloop
 endfacet
 facet normal  0.000000e+00  0.000000e+00 -1.000000e+00
   outer loop
     vertex  1.875000e-01  7.500000e-01  0.000000e+00
     vertex  1.322881e-02  4.295399e-02  0.000000e+00
     vertex -6.117100e-02  9.430847e-02  0.000000e+00
   endloop
 endfacet
 facet normal  0.000000e+00  0.000000e+00 -1.000000e+00
   outer loop
     vertex  1.875000e-01  7.500000e-01  0.000000e+00
     vertex  9.775663e-02  1.089682e-02  0.000000e+00
     vertex  1.322881e-02  4.295399e-02  0.000000e+00
   endloop
 endfacet
 facet normal  0.000000e+00 -0.000000e+00 -1.000000e+00
   outer loop
     vertex  1.875000e-01  7.500000e-01  0.000000e+00
     vertex  1.875000e-01  0.000000e+00  0.000000e+00
     vertex  9.775663e-02  1.089682e-02  0.000000e+00
   endloop
 endfacet
 facet normal  0.000000e+00  0.000000e+00  1.000000e+00
   outer loop
     vertex  1.875000e-01  7.500000e-01  1.328125e-01
     vertex  9.775663e-02  7.391032e-01  1.328125e-01
     vertex  1.322881e-02  7.070460e-01  1.328125e-01
   endloop
 endfacet
 facet normal  0.000000e+00  0.000000e+00  1.000000e+00
   outer loop
     vertex  1.875000e-01  7.500000e-01  1.328125e-01
     vertex  1.322881e-02  7.070460e-01  1.328125e-01
     vertex -6.117100e-02  6.556915e-01  1.328125e-01
   endloop
 endfacet
 facet normal  0.000000e+00  0.000000e+00  1.000000e+00
   outer loop
     vertex  1.875000e-01  7.500000e-01  1.328125e-01
     vertex -6.117100e-02  6.556915e-01  1.328125e-01
     vertex -1.211189e-01  5.880243e-01  1.328125e-01
   endloop
 endfacet
 facet normal  0.000000e+00  0.000000e+00  1.000000e+00
   outer loop
     vertex  1.875000e-01  7.500000e-01  1.328125e-01
     vertex -1.211189e-01  5.880243e-01  1.328125e-01
     vertex -1.631311e-01  5.079768e-01  1.328125e-01
   endloop
 endfacet
 facet normal  0.000000e+00  0.000000e+00  1.000000e+00
   outer loop
     vertex  1.875000e-01  7.500000e-01  1.328125e-01
     vertex -1.631311e-01  5.079768e-01  1.328125e-01
     vertex -1.847658e-01  4.202013e-01  1.328125e-01
   endloop
 endfacet
 facet normal  0.000000e+00  0.000000e+00  1.000000e+00
   outer loop
     vertex  1.875000e-01  7.500000e-01  1.328125e-01
     vertex -1.847658e-01  4.202013e-01  1.328125e-01
     vertex -1.847658e-01  3.297987e-01  1.328125e-01
   endloop
 endfacet
 facet normal  0.000000e+00  0.000000e+00  1.000000e+00
   outer loop
     vertex  1.875000e-01  7.500000e-01  1.328125e-01
     vertex -1.847658e-01  3.297987e-01  1.328125e-01
     vertex -1.631311e-01  2.420232e-01  1.328125e-01
   endloop
 endfacet
 facet normal  0.000000e+00  0.000000e+00  1.000000e+00
   outer loop
     vertex  1.875000e-01  7.500000e-01  1.328125e-01
     vertex -1.631311e-01  2.420232e-01  1.328125e-01
     vertex -1.211189e-01  1.619757e-01  1.328125e-01
   endloop
 endfacet
 facet normal  0.000000e+00  0.000000e+00  1.000000e+00
   outer loop
     vertex  1.875000e-01  7.500000e-01  1.328125e-01
     vertex -1.211189e-01  1.619757e-01  1.328125e-01
     vertex -6.117100e-02  9.430847e-02  1.328125e-01
   endloop
 endfacet
 facet normal  0.000000e+00  0.000000e+00  1.000000e+00
   outer loop
     vertex  1.875000e-01  7.500000e-01  1.328125e-01
     vertex -6.117100e-02  9.430847e-02  1.328125e-01
     vertex  1.322881e-02  4.295399e-02  1.328125e-01
   endloop
 endfacet
 facet normal  0.000000e+00  0.000000e+00  1.000000e+00
   outer loop
     vertex  1.875000e-01  7.500000e-01  1.328125e-01
     vertex  1.322881e-02  4.295399e-02  1.328125e-01
     vertex  9.775663e-02  1.089682e-02  1.328125e-01
   endloop
 endfacet
 facet normal  0.000000e+00  0.000000e+00  1.000000e+00
   outer loop
     vertex  1.875000e-01  7.500000e-01  1.328125e-01
     vertex  9.775663e-02  1.089682e-02  1.328125e-01
     vertex  1.875000e-01  0.000000e+00  1.328125e-01
   endloop
 endfacet
endsolid
