solid 
 facet normal  0.000000e+00 -1.000000e+00  0.000000e+00
   outer loop
     vertex -6.087171e-01  2.421875e-01  7.812500e-03
     vertex -6.718750e-01  2.421875e-01  1.562500e-02
     vertex -6.718750e-01  2.421875e-01  7.812500e-03
   endloop
 endfacet
 facet normal  0.000000e+00 -1.000000e+00  0.000000e+00
   outer loop
     vertex -6.087171e-01  2.421875e-01  7.812500e-03
     vertex -6.087171e-01  2.421875e-01  1.562500e-02
     vertex -6.718750e-01  2.421875e-01  1.562500e-02
   endloop
 endfacet
 facet normal  1.000000e+00  0.000000e+00  0.000000e+00
   outer loop
     vertex -6.087171e-01  3.671875e-01  7.812500e-03
     vertex -6.087171e-01  2.421875e-01  1.562500e-02
     vertex -6.087171e-01  2.421875e-01  7.812500e-03
   endloop
 endfacet
 facet normal  1.000000e+00  0.000000e+00 -0.000000e+00
   outer loop
     vertex -6.087171e-01  3.671875e-01  7.812500e-03
     vertex -6.087171e-01  3.671875e-01  1.562500e-02
     vertex -6.087171e-01  2.421875e-01  1.562500e-02
   endloop
 endfacet
 facet normal  0.000000e+00  1.000000e+00  0.000000e+00
   outer loop
     vertex -6.718750e-01  3.671875e-01  7.812500e-03
     vertex -6.087171e-01  3.671875e-01  1.562500e-02
     vertex -6.087171e-01  3.671875e-01  7.812500e-03
   endloop
 endfacet
 facet normal  0.000000e+00  1.000000e+00  0.000000e+00
   outer loop
     vertex -6.718750e-01  3.671875e-01  7.812500e-03
     vertex -6.718750e-01  3.671875e-01  1.562500e-02
     vertex -6.087171e-01  3.671875e-01  1.562500e-02
   endloop
 endfacet
 facet normal -1.000000e+00  0.000000e+00  0.000000e+00
   outer loop
     vertex -6.718750e-01  2.421875e-01  7.812500e-03
     vertex -6.718750e-01  3.671875e-01  1.562500e-02
     vertex -6.718750e-01  3.671875e-01  7.812500e-03
   endloop
 endfacet
 facet normal -1.000000e+00  0.000000e+00  0.000000e+00
   outer loop
     vertex -6.718750e-01  2.421875e-01  7.812500e-03
     vertex -6.718750e-01  2.421875e-01  1.562500e-02
     vertex -6.718750e-01  3.671875e-01  1.562500e-02
   endloop
 endfacet
 facet normal  0.000000e+00 -0.000000e+00 -1.000000e+00
   outer loop
     vertex -6.087171e-01  3.671875e-01  7.812500e-03
     vertex -6.087171e-01  2.421875e-01  7.812500e-03
     vertex -6.718750e-01  2.421875e-01  7.812500e-03
   endloop
 endfacet
 facet normal -0.000000e+00  0.000000e+00 -1.000000e+00
   outer loop
     vertex -6.087171e-01  3.671875e-01  7.812500e-03
     vertex -6.718750e-01  2.421875e-01  7.812500e-03
     vertex -6.718750e-01  3.671875e-01  7.812500e-03
   endloop
 endfacet
 facet normal  0.000000e+00  0.000000e+00  1.000000e+00
   outer loop
     vertex -6.087171e-01  3.671875e-01  1.562500e-02
     vertex -6.718750e-01  2.421875e-01  1.562500e-02
     vertex -6.087171e-01  2.421875e-01  1.562500e-02
   endloop
 endfacet
 facet normal  0.000000e+00  0.000000e+00  1.000000e+00
   outer loop
     vertex -6.087171e-01  3.671875e-01  1.562500e-02
     vertex -6.718750e-01  3.671875e-01  1.562500e-02
     vertex -6.718750e-01  2.421875e-01  1.562500e-02
   endloop
 endfacet
 facet normal  7.071068e-01 -7.071068e-01  0.000000e+00
   outer loop
     vertex -5.853618e-01 -1.099507e-01  7.812500e-03
     vertex -5.300987e-01 -5.468750e-02  7.812500e-03
     vertex -5.300987e-01 -5.468750e-02  1.562500e-02
   endloop
 endfacet
 facet normal  7.071068e-01 -7.071068e-01  0.000000e+00
   outer loop
     vertex -5.853618e-01 -1.099507e-01  7.812500e-03
     vertex -5.300987e-01 -5.468750e-02  1.562500e-02
     vertex -5.853618e-01 -1.099507e-01  1.562500e-02
   endloop
 endfacet
 facet normal -7.071068e-01 -7.071068e-01  0.000000e+00
   outer loop
     vertex -6.406250e-01 -5.468750e-02  7.812500e-03
     vertex -5.853618e-01 -1.099507e-01  1.562500e-02
     vertex -6.406250e-01 -5.468750e-02  1.562500e-02
   endloop
 endfacet
 facet normal -7.071068e-01 -7.071068e-01  0.000000e+00
   outer loop
     vertex -6.406250e-01 -5.468750e-02  7.812500e-03
     vertex -5.853618e-01 -1.099507e-01  7.812500e-03
     vertex -5.853618e-01 -1.099507e-01  1.562500e-02
   endloop
 endfacet
 facet normal -7.071068e-01  7.071068e-01  0.000000e+00
   outer loop
     vertex -5.853618e-01  5.756579e-04  7.812500e-03
     vertex -6.406250e-01 -5.468750e-02  1.562500e-02
     vertex -5.853618e-01  5.756579e-04  1.562500e-02
   endloop
 endfacet
 facet normal -7.071068e-01  7.071068e-01  0.000000e+00
   outer loop
     vertex -5.853618e-01  5.756579e-04  7.812500e-03
     vertex -6.406250e-01 -5.468750e-02  7.812500e-03
     vertex -6.406250e-01 -5.468750e-02  1.562500e-02
   endloop
 endfacet
 facet normal  7.071068e-01  7.071068e-01 -0.000000e+00
   outer loop
     vertex -5.300987e-01 -5.468750e-02  7.812500e-03
     vertex -5.853618e-01  5.756579e-04  1.562500e-02
     vertex -5.300987e-01 -5.468750e-02  1.562500e-02
   endloop
 endfacet
 facet normal  7.071068e-01  7.071068e-01  0.000000e+00
   outer loop
     vertex -5.300987e-01 -5.468750e-02  7.812500e-03
     vertex -5.853618e-01  5.756579e-04  7.812500e-03
     vertex -5.853618e-01  5.756579e-04  1.562500e-02
   endloop
 endfacet
 facet normal  0.000000e+00 -0.000000e+00 -1.000000e+00
   outer loop
     vertex -5.853618e-01  5.756579e-04  7.812500e-03
     vertex -5.853618e-01 -1.099507e-01  7.812500e-03
     vertex -6.406250e-01 -5.468750e-02  7.812500e-03
   endloop
 endfacet
 facet normal  0.000000e+00  0.000000e+00 -1.000000e+00
   outer loop
     vertex -5.853618e-01  5.756579e-04  7.812500e-03
     vertex -5.300987e-01 -5.468750e-02  7.812500e-03
     vertex -5.853618e-01 -1.099507e-01  7.812500e-03
   endloop
 endfacet
 facet normal  0.000000e+00  0.000000e+00  1.000000e+00
   outer loop
     vertex -5.853618e-01  5.756579e-04  1.562500e-02
     vertex -6.406250e-01 -5.468750e-02  1.562500e-02
     vertex -5.853618e-01 -1.099507e-01  1.562500e-02
   endloop
 endfacet
 facet normal  0.000000e+00  0.000000e+00  1.000000e+00
   outer loop
     vertex -5.853618e-01  5.756579e-04  1.562500e-02
     vertex -5.853618e-01 -1.099507e-01  1.562500e-02
     vertex -5.300987e-01 -5.468750e-02  1.562500e-02
   endloop
 endfacet
endsolid
