solid 
 facet normal -0.000000e+00  0.000000e+00 -1.000000e+00
   outer loop
     vertex  2.343750e-02 -7.812500e-03  1.562500e-02
     vertex  1.562500e-02 -2.812500e-01  1.562500e-02
     vertex  1.562500e-02 -7.812500e-03  1.562500e-02
   endloop
 endfacet
 facet normal  0.000000e+00 -0.000000e+00 -1.000000e+00
   outer loop
     vertex  2.343750e-02 -7.812500e-03  1.562500e-02
     vertex  2.343750e-02 -2.812500e-01  1.562500e-02
     vertex  1.562500e-02 -2.812500e-01  1.562500e-02
   endloop
 endfacet
 facet normal  1.000000e+00  0.000000e+00  0.000000e+00
   outer loop
     vertex  2.343750e-02 -7.812500e-03  2.343750e-02
     vertex  2.343750e-02 -2.812500e-01  1.562500e-02
     vertex  2.343750e-02 -7.812500e-03  1.562500e-02
   endloop
 endfacet
 facet normal  1.000000e+00  0.000000e+00  0.000000e+00
   outer loop
     vertex  2.343750e-02 -7.812500e-03  2.343750e-02
     vertex  2.343750e-02 -2.812500e-01  2.343750e-02
     vertex  2.343750e-02 -2.812500e-01  1.562500e-02
   endloop
 endfacet
 facet normal -0.000000e+00  0.000000e+00  1.000000e+00
   outer loop
     vertex  1.562500e-02 -7.812500e-03  2.343750e-02
     vertex  2.343750e-02 -2.812500e-01  2.343750e-02
     vertex  2.343750e-02 -7.812500e-03  2.343750e-02
   endloop
 endfacet
 facet normal  0.000000e+00  0.000000e+00  1.000000e+00
   outer loop
     vertex  1.562500e-02 -7.812500e-03  2.343750e-02
     vertex  1.562500e-02 -2.812500e-01  2.343750e-02
     vertex  2.343750e-02 -2.812500e-01  2.343750e-02
   endloop
 endfacet
 facet normal -1.000000e+00  0.000000e+00  0.000000e+00
   outer loop
     vertex  1.562500e-02 -7.812500e-03  1.562500e-02
     vertex  1.562500e-02 -2.812500e-01  2.343750e-02
     vertex  1.562500e-02 -7.812500e-03  2.343750e-02
   endloop
 endfacet
 facet normal -1.000000e+00  0.000000e+00  0.000000e+00
   outer loop
     vertex  1.562500e-02 -7.812500e-03  1.562500e-02
     vertex  1.562500e-02 -2.812500e-01  1.562500e-02
     vertex  1.562500e-02 -2.812500e-01  2.343750e-02
   endloop
 endfacet
 facet normal  0.000000e+00  1.000000e+00  0.000000e+00
   outer loop
     vertex  2.343750e-02 -7.812500e-03  2.343750e-02
     vertex  2.343750e-02 -7.812500e-03  1.562500e-02
     vertex  1.562500e-02 -7.812500e-03  1.562500e-02
   endloop
 endfacet
 facet normal  0.000000e+00  1.000000e+00  0.000000e+00
   outer loop
     vertex  2.343750e-02 -7.812500e-03  2.343750e-02
     vertex  1.562500e-02 -7.812500e-03  1.562500e-02
     vertex  1.562500e-02 -7.812500e-03  2.343750e-02
   endloop
 endfacet
 facet normal  0.000000e+00 -1.000000e+00 -0.000000e+00
   outer loop
     vertex  2.343750e-02 -2.812500e-01  2.343750e-02
     vertex  1.562500e-02 -2.812500e-01  1.562500e-02
     vertex  2.343750e-02 -2.812500e-01  1.562500e-02
   endloop
 endfacet
 facet normal -0.000000e+00 -1.000000e+00  0.000000e+00
   outer loop
     vertex  2.343750e-02 -2.812500e-01  2.343750e-02
     vertex  1.562500e-02 -2.812500e-01  2.343750e-02
     vertex  1.562500e-02 -2.812500e-01  1.562500e-02
   endloop
 endfacet
 facet normal -6.123234e-17 -6.123234e-17 -1.000000e+00
   outer loop
     vertex  3.125000e-02 -2.578125e-01 -4.783777e-19
     vertex  2.343750e-02 -7.500000e-01  3.013779e-17
     vertex  2.343750e-02 -2.578125e-01  0.000000e+00
   endloop
 endfacet
 facet normal -6.123234e-17 -6.123234e-17 -1.000000e+00
   outer loop
     vertex  3.125000e-02 -2.578125e-01 -4.783777e-19
     vertex  3.125000e-02 -7.500000e-01  2.965941e-17
     vertex  2.343750e-02 -7.500000e-01  3.013779e-17
   endloop
 endfacet
 facet normal  1.000000e+00  0.000000e+00  0.000000e+00
   outer loop
     vertex  3.125000e-02 -2.578125e-01  7.812500e-03
     vertex  3.125000e-02 -7.500000e-01  2.965941e-17
     vertex  3.125000e-02 -2.578125e-01 -4.783777e-19
   endloop
 endfacet
 facet normal  1.000000e+00  0.000000e+00  0.000000e+00
   outer loop
     vertex  3.125000e-02 -2.578125e-01  7.812500e-03
     vertex  3.125000e-02 -7.500000e-01  7.812500e-03
     vertex  3.125000e-02 -7.500000e-01  2.965941e-17
   endloop
 endfacet
 facet normal -0.000000e+00  0.000000e+00  1.000000e+00
   outer loop
     vertex  2.343750e-02 -2.578125e-01  7.812500e-03
     vertex  3.125000e-02 -7.500000e-01  7.812500e-03
     vertex  3.125000e-02 -2.578125e-01  7.812500e-03
   endloop
 endfacet
 facet normal  0.000000e+00  0.000000e+00  1.000000e+00
   outer loop
     vertex  2.343750e-02 -2.578125e-01  7.812500e-03
     vertex  2.343750e-02 -7.500000e-01  7.812500e-03
     vertex  3.125000e-02 -7.500000e-01  7.812500e-03
   endloop
 endfacet
 facet normal -1.000000e+00  0.000000e+00  0.000000e+00
   outer loop
     vertex  2.343750e-02 -2.578125e-01  0.000000e+00
     vertex  2.343750e-02 -7.500000e-01  7.812500e-03
     vertex  2.343750e-02 -2.578125e-01  7.812500e-03
   endloop
 endfacet
 facet normal -1.000000e+00  0.000000e+00  0.000000e+00
   outer loop
     vertex  2.343750e-02 -2.578125e-01  0.000000e+00
     vertex  2.343750e-02 -7.500000e-01  3.013779e-17
     vertex  2.343750e-02 -7.500000e-01  7.812500e-03
   endloop
 endfacet
 facet normal  0.000000e+00  1.000000e+00  0.000000e+00
   outer loop
     vertex  3.125000e-02 -2.578125e-01  7.812500e-03
     vertex  3.125000e-02 -2.578125e-01 -4.783777e-19
     vertex  2.343750e-02 -2.578125e-01  0.000000e+00
   endloop
 endfacet
 facet normal  0.000000e+00  1.000000e+00  0.000000e+00
   outer loop
     vertex  3.125000e-02 -2.578125e-01  7.812500e-03
     vertex  2.343750e-02 -2.578125e-01  0.000000e+00
     vertex  2.343750e-02 -2.578125e-01  7.812500e-03
   endloop
 endfacet
 facet normal  0.000000e+00 -1.000000e+00 -0.000000e+00
   outer loop
     vertex  3.125000e-02 -7.500000e-01  7.812500e-03
     vertex  2.343750e-02 -7.500000e-01  3.013779e-17
     vertex  3.125000e-02 -7.500000e-01  2.965941e-17
   endloop
 endfacet
 facet normal -0.000000e+00 -1.000000e+00  0.000000e+00
   outer loop
     vertex  3.125000e-02 -7.500000e-01  7.812500e-03
     vertex  2.343750e-02 -7.500000e-01  7.812500e-03
     vertex  2.343750e-02 -7.500000e-01  3.013779e-17
   endloop
 endfacet
endsolid
