solid 
 facet normal  0.000000e+00  0.000000e+00 -1.000000e+00
   outer loop
     vertex  7.500000e-01  4.592425e-17  7.812500e-03
     vertex  2.774590e-17 -4.531250e-01  7.812500e-03
     vertex  0.000000e+00  0.000000e+00  7.812500e-03
   endloop
 endfacet
 facet normal  0.000000e+00 -0.000000e+00 -1.000000e+00
   outer loop
     vertex  7.500000e-01  4.592425e-17  7.812500e-03
     vertex  7.500000e-01 -4.531250e-01  7.812500e-03
     vertex  2.774590e-17 -4.531250e-01  7.812500e-03
   endloop
 endfacet
 facet normal  1.000000e+00  0.000000e+00  0.000000e+00
   outer loop
     vertex  7.500000e-01  4.640767e-17  1.570724e-02
     vertex  7.500000e-01 -4.531250e-01  7.812500e-03
     vertex  7.500000e-01  4.592425e-17  7.812500e-03
   endloop
 endfacet
 facet normal  1.000000e+00  0.000000e+00  0.000000e+00
   outer loop
     vertex  7.500000e-01  4.640767e-17  1.570724e-02
     vertex  7.500000e-01 -4.531250e-01  1.570724e-02
     vertex  7.500000e-01 -4.531250e-01  7.812500e-03
   endloop
 endfacet
 facet normal -0.000000e+00  0.000000e+00  1.000000e+00
   outer loop
     vertex  4.834132e-19  4.834132e-19  1.570724e-02
     vertex  7.500000e-01 -4.531250e-01  1.570724e-02
     vertex  7.500000e-01  4.640767e-17  1.570724e-02
   endloop
 endfacet
 facet normal  0.000000e+00  0.000000e+00  1.000000e+00
   outer loop
     vertex  4.834132e-19  4.834132e-19  1.570724e-02
     vertex  2.822932e-17 -4.531250e-01  1.570724e-02
     vertex  7.500000e-01 -4.531250e-01  1.570724e-02
   endloop
 endfacet
 facet normal -1.000000e+00 -6.123234e-17  6.123234e-17
   outer loop
     vertex  0.000000e+00  0.000000e+00  7.812500e-03
     vertex  2.822932e-17 -4.531250e-01  1.570724e-02
     vertex  4.834132e-19  4.834132e-19  1.570724e-02
   endloop
 endfacet
 facet normal -1.000000e+00 -6.123234e-17  6.123234e-17
   outer loop
     vertex  0.000000e+00  0.000000e+00  7.812500e-03
     vertex  2.774590e-17 -4.531250e-01  7.812500e-03
     vertex  2.822932e-17 -4.531250e-01  1.570724e-02
   endloop
 endfacet
 facet normal -6.123234e-17  1.000000e+00 -6.123234e-17
   outer loop
     vertex  7.500000e-01  4.640767e-17  1.570724e-02
     vertex  7.500000e-01  4.592425e-17  7.812500e-03
     vertex  0.000000e+00  0.000000e+00  7.812500e-03
   endloop
 endfacet
 facet normal -6.123234e-17  1.000000e+00 -6.123234e-17
   outer loop
     vertex  7.500000e-01  4.640767e-17  1.570724e-02
     vertex  0.000000e+00  0.000000e+00  7.812500e-03
     vertex  4.834132e-19  4.834132e-19  1.570724e-02
   endloop
 endfacet
 facet normal  0.000000e+00 -1.000000e+00 -0.000000e+00
   outer loop
     vertex  7.500000e-01 -4.531250e-01  1.570724e-02
     vertex  2.774590e-17 -4.531250e-01  7.812500e-03
     vertex  7.500000e-01 -4.531250e-01  7.812500e-03
   endloop
 endfacet
 facet normal -0.000000e+00 -1.000000e+00  0.000000e+00
   outer loop
     vertex  7.500000e-01 -4.531250e-01  1.570724e-02
     vertex  2.822932e-17 -4.531250e-01  1.570724e-02
     vertex  2.774590e-17 -4.531250e-01  7.812500e-03
   endloop
 endfacet
endsolid
