solid 
 facet normal  9.238795e-01  0.000000e+00 -3.826834e-01
   outer loop
     vertex  7.141539e-02  5.924330e-18 -7.324762e-01
     vertex  9.975329e-02  1.184866e-17 -6.640625e-01
     vertex  9.975329e-02 -1.796875e-01 -6.640625e-01
   endloop
 endfacet
 facet normal  9.238795e-01  0.000000e+00 -3.826834e-01
   outer loop
     vertex  7.141539e-02  5.924330e-18 -7.324762e-01
     vertex  9.975329e-02 -1.796875e-01 -6.640625e-01
     vertex  7.141539e-02 -1.796875e-01 -7.324762e-01
   endloop
 endfacet
 facet normal  3.826834e-01  0.000000e+00 -9.238795e-01
   outer loop
     vertex  3.001645e-03  1.325040e-31 -7.608141e-01
     vertex  7.141539e-02 -1.796875e-01 -7.324762e-01
     vertex  3.001645e-03 -1.796875e-01 -7.608141e-01
   endloop
 endfacet
 facet normal  3.826834e-01  0.000000e+00 -9.238795e-01
   outer loop
     vertex  3.001645e-03  1.325040e-31 -7.608141e-01
     vertex  7.141539e-02  5.924330e-18 -7.324762e-01
     vertex  7.141539e-02 -1.796875e-01 -7.324762e-01
   endloop
 endfacet
 facet normal -3.826834e-01 -0.000000e+00 -9.238795e-01
   outer loop
     vertex -6.541210e-02 -2.453938e-18 -7.324762e-01
     vertex  3.001645e-03 -1.796875e-01 -7.608141e-01
     vertex -6.541210e-02 -1.796875e-01 -7.324762e-01
   endloop
 endfacet
 facet normal -3.826834e-01  0.000000e+00 -9.238795e-01
   outer loop
     vertex -6.541210e-02 -2.453938e-18 -7.324762e-01
     vertex  3.001645e-03  1.325040e-31 -7.608141e-01
     vertex  3.001645e-03 -1.796875e-01 -7.608141e-01
   endloop
 endfacet
 facet normal -9.238795e-01 -0.000000e+00 -3.826834e-01
   outer loop
     vertex -9.375000e-02 -3.081488e-33 -6.640625e-01
     vertex -6.541210e-02 -1.796875e-01 -7.324762e-01
     vertex -9.375000e-02 -1.796875e-01 -6.640625e-01
   endloop
 endfacet
 facet normal -9.238795e-01  0.000000e+00 -3.826834e-01
   outer loop
     vertex -9.375000e-02 -3.081488e-33 -6.640625e-01
     vertex -6.541210e-02 -2.453938e-18 -7.324762e-01
     vertex -6.541210e-02 -1.796875e-01 -7.324762e-01
   endloop
 endfacet
 facet normal  1.000000e+00  0.000000e+00  0.000000e+00
   outer loop
     vertex  9.975329e-02  9.205497e-17  6.458059e-01
     vertex  9.975329e-02 -1.796875e-01 -6.640625e-01
     vertex  9.975329e-02  1.184866e-17 -6.640625e-01
   endloop
 endfacet
 facet normal  1.000000e+00  0.000000e+00  0.000000e+00
   outer loop
     vertex  9.975329e-02  9.205497e-17  6.458059e-01
     vertex  9.975329e-02 -1.796875e-01  6.458059e-01
     vertex  9.975329e-02 -1.796875e-01 -6.640625e-01
   endloop
 endfacet
 facet normal -9.238795e-01  0.000000e+00  3.826834e-01
   outer loop
     vertex -6.541210e-02  8.613064e-17  7.142197e-01
     vertex -9.375000e-02  8.020631e-17  6.458059e-01
     vertex -9.375000e-02 -1.796875e-01  6.458059e-01
   endloop
 endfacet
 facet normal -9.238795e-01  0.000000e+00  3.826834e-01
   outer loop
     vertex -6.541210e-02  8.613064e-17  7.142197e-01
     vertex -9.375000e-02 -1.796875e-01  6.458059e-01
     vertex -6.541210e-02 -1.796875e-01  7.142197e-01
   endloop
 endfacet
 facet normal -3.826834e-01  0.000000e+00  9.238795e-01
   outer loop
     vertex  3.001645e-03  9.205497e-17  7.425576e-01
     vertex -6.541210e-02 -1.796875e-01  7.142197e-01
     vertex  3.001645e-03 -1.796875e-01  7.425576e-01
   endloop
 endfacet
 facet normal -3.826834e-01  0.000000e+00  9.238795e-01
   outer loop
     vertex  3.001645e-03  9.205497e-17  7.425576e-01
     vertex -6.541210e-02  8.613064e-17  7.142197e-01
     vertex -6.541210e-02 -1.796875e-01  7.142197e-01
   endloop
 endfacet
 facet normal  3.826834e-01  0.000000e+00  9.238795e-01
   outer loop
     vertex  7.141539e-02  9.450891e-17  7.142197e-01
     vertex  3.001645e-03 -1.796875e-01  7.425576e-01
     vertex  7.141539e-02 -1.796875e-01  7.142197e-01
   endloop
 endfacet
 facet normal  3.826834e-01  0.000000e+00  9.238795e-01
   outer loop
     vertex  7.141539e-02  9.450891e-17  7.142197e-01
     vertex  3.001645e-03  9.205497e-17  7.425576e-01
     vertex  3.001645e-03 -1.796875e-01  7.425576e-01
   endloop
 endfacet
 facet normal  9.238795e-01  0.000000e+00  3.826834e-01
   outer loop
     vertex  9.975329e-02  9.205497e-17  6.458059e-01
     vertex  7.141539e-02 -1.796875e-01  7.142197e-01
     vertex  9.975329e-02 -1.796875e-01  6.458059e-01
   endloop
 endfacet
 facet normal  9.238795e-01  0.000000e+00  3.826834e-01
   outer loop
     vertex  9.975329e-02  9.205497e-17  6.458059e-01
     vertex  7.141539e-02  9.450891e-17  7.142197e-01
     vertex  7.141539e-02 -1.796875e-01  7.142197e-01
   endloop
 endfacet
 facet normal -1.000000e+00  0.000000e+00  0.000000e+00
   outer loop
     vertex -9.375000e-02 -3.081488e-33 -6.640625e-01
     vertex -9.375000e-02 -1.796875e-01  6.458059e-01
     vertex -9.375000e-02  8.020631e-17  6.458059e-01
   endloop
 endfacet
 facet normal -1.000000e+00  0.000000e+00  0.000000e+00
   outer loop
     vertex -9.375000e-02 -3.081488e-33 -6.640625e-01
     vertex -9.375000e-02 -1.796875e-01 -6.640625e-01
     vertex -9.375000e-02 -1.796875e-01  6.458059e-01
   endloop
 endfacet
 facet normal  5.877853e-01  0.000000e+00  8.090170e-01
   outer loop
     vertex -4.618133e-02  1.786145e-18 -6.824612e-01
     vertex  1.044408e-02 -1.796875e-01 -7.236020e-01
     vertex  1.044408e-02  2.734306e-18 -7.236020e-01
   endloop
 endfacet
 facet normal  5.877853e-01  0.000000e+00  8.090170e-01
   outer loop
     vertex -4.618133e-02  1.786145e-18 -6.824612e-01
     vertex -4.618133e-02 -1.796875e-01 -6.824612e-01
     vertex  1.044408e-02 -1.796875e-01 -7.236020e-01
   endloop
 endfacet
 facet normal  9.510565e-01  0.000000e+00 -3.090170e-01
   outer loop
     vertex -2.455235e-02  7.186601e-18 -6.158941e-01
     vertex -2.455235e-02 -1.796875e-01 -6.158941e-01
     vertex -4.618133e-02 -1.796875e-01 -6.824612e-01
   endloop
 endfacet
 facet normal  9.510565e-01  0.000000e+00 -3.090170e-01
   outer loop
     vertex -2.455235e-02  7.186601e-18 -6.158941e-01
     vertex -4.618133e-02 -1.796875e-01 -6.824612e-01
     vertex -4.618133e-02  1.786145e-18 -6.824612e-01
   endloop
 endfacet
 facet normal  0.000000e+00 -0.000000e+00 -1.000000e+00
   outer loop
     vertex  4.544050e-02  1.147243e-17 -6.158941e-01
     vertex  4.544050e-02 -1.796875e-01 -6.158941e-01
     vertex -2.455235e-02 -1.796875e-01 -6.158941e-01
   endloop
 endfacet
 facet normal  0.000000e+00  0.000000e+00 -1.000000e+00
   outer loop
     vertex  4.544050e-02  1.147243e-17 -6.158941e-01
     vertex -2.455235e-02 -1.796875e-01 -6.158941e-01
     vertex -2.455235e-02  7.186601e-18 -6.158941e-01
   endloop
 endfacet
 facet normal -9.510565e-01 -0.000000e+00 -3.090170e-01
   outer loop
     vertex  6.706948e-02  8.720757e-18 -6.824612e-01
     vertex  6.706948e-02 -1.796875e-01 -6.824612e-01
     vertex  4.544050e-02 -1.796875e-01 -6.158941e-01
   endloop
 endfacet
 facet normal -9.510565e-01  0.000000e+00 -3.090170e-01
   outer loop
     vertex  6.706948e-02  8.720757e-18 -6.824612e-01
     vertex  4.544050e-02 -1.796875e-01 -6.158941e-01
     vertex  4.544050e-02  1.147243e-17 -6.158941e-01
   endloop
 endfacet
 facet normal -5.877853e-01  0.000000e+00  8.090170e-01
   outer loop
     vertex  1.044408e-02  2.734306e-18 -7.236020e-01
     vertex  1.044408e-02 -1.796875e-01 -7.236020e-01
     vertex  6.706948e-02 -1.796875e-01 -6.824612e-01
   endloop
 endfacet
 facet normal -5.877853e-01  0.000000e+00  8.090170e-01
   outer loop
     vertex  1.044408e-02  2.734306e-18 -7.236020e-01
     vertex  6.706948e-02 -1.796875e-01 -6.824612e-01
     vertex  6.706948e-02  8.720757e-18 -6.824612e-01
   endloop
 endfacet
 facet normal  5.877853e-01  0.000000e+00  8.090170e-01
   outer loop
     vertex -4.618133e-02  8.199245e-17  6.274072e-01
     vertex  1.044408e-02 -1.796875e-01  5.862664e-01
     vertex  1.044408e-02  8.294061e-17  5.862664e-01
   endloop
 endfacet
 facet normal  5.877853e-01  0.000000e+00  8.090170e-01
   outer loop
     vertex -4.618133e-02  8.199245e-17  6.274072e-01
     vertex -4.618133e-02 -1.796875e-01  6.274072e-01
     vertex  1.044408e-02 -1.796875e-01  5.862664e-01
   endloop
 endfacet
 facet normal  9.510565e-01  0.000000e+00 -3.090170e-01
   outer loop
     vertex -2.455235e-02  8.739291e-17  6.939744e-01
     vertex -2.455235e-02 -1.796875e-01  6.939744e-01
     vertex -4.618133e-02 -1.796875e-01  6.274072e-01
   endloop
 endfacet
 facet normal  9.510565e-01  0.000000e+00 -3.090170e-01
   outer loop
     vertex -2.455235e-02  8.739291e-17  6.939744e-01
     vertex -4.618133e-02 -1.796875e-01  6.274072e-01
     vertex -4.618133e-02  8.199245e-17  6.274072e-01
   endloop
 endfacet
 facet normal  0.000000e+00 -0.000000e+00 -1.000000e+00
   outer loop
     vertex  4.544050e-02  9.167874e-17  6.939744e-01
     vertex  4.544050e-02 -1.796875e-01  6.939744e-01
     vertex -2.455235e-02 -1.796875e-01  6.939744e-01
   endloop
 endfacet
 facet normal  0.000000e+00  0.000000e+00 -1.000000e+00
   outer loop
     vertex  4.544050e-02  9.167874e-17  6.939744e-01
     vertex -2.455235e-02 -1.796875e-01  6.939744e-01
     vertex -2.455235e-02  8.739291e-17  6.939744e-01
   endloop
 endfacet
 facet normal -9.510565e-01 -0.000000e+00 -3.090170e-01
   outer loop
     vertex  6.706948e-02  8.892707e-17  6.274072e-01
     vertex  6.706948e-02 -1.796875e-01  6.274072e-01
     vertex  4.544050e-02 -1.796875e-01  6.939744e-01
   endloop
 endfacet
 facet normal -9.510565e-01  0.000000e+00 -3.090170e-01
   outer loop
     vertex  6.706948e-02  8.892707e-17  6.274072e-01
     vertex  4.544050e-02 -1.796875e-01  6.939744e-01
     vertex  4.544050e-02  9.167874e-17  6.939744e-01
   endloop
 endfacet
 facet normal -5.877853e-01  0.000000e+00  8.090170e-01
   outer loop
     vertex  1.044408e-02  8.294061e-17  5.862664e-01
     vertex  1.044408e-02 -1.796875e-01  5.862664e-01
     vertex  6.706948e-02 -1.796875e-01  6.274072e-01
   endloop
 endfacet
 facet normal -5.877853e-01  0.000000e+00  8.090170e-01
   outer loop
     vertex  1.044408e-02  8.294061e-17  5.862664e-01
     vertex  6.706948e-02 -1.796875e-01  6.274072e-01
     vertex  6.706948e-02  8.892707e-17  6.274072e-01
   endloop
 endfacet
 facet normal -6.123234e-17  1.000000e+00 -6.123234e-17
   outer loop
     vertex -4.618133e-02  1.786145e-18 -6.824612e-01
     vertex -6.541210e-02 -2.453938e-18 -7.324762e-01
     vertex -9.375000e-02 -3.081488e-33 -6.640625e-01
   endloop
 endfacet
 facet normal -6.123234e-17  1.000000e+00 -6.123234e-17
   outer loop
     vertex  1.044408e-02  2.734306e-18 -7.236020e-01
     vertex  3.001645e-03  1.325040e-31 -7.608141e-01
     vertex -6.541210e-02 -2.453938e-18 -7.324762e-01
   endloop
 endfacet
 facet normal -6.123234e-17  1.000000e+00 -6.123234e-17
   outer loop
     vertex  1.044408e-02  2.734306e-18 -7.236020e-01
     vertex -6.541210e-02 -2.453938e-18 -7.324762e-01
     vertex -4.618133e-02  1.786145e-18 -6.824612e-01
   endloop
 endfacet
 facet normal -6.123234e-17  1.000000e+00 -6.123234e-17
   outer loop
     vertex  7.141539e-02  5.924330e-18 -7.324762e-01
     vertex  3.001645e-03  1.325040e-31 -7.608141e-01
     vertex  1.044408e-02  2.734306e-18 -7.236020e-01
   endloop
 endfacet
 facet normal -6.123234e-17  1.000000e+00 -6.123234e-17
   outer loop
     vertex -2.455235e-02  7.186601e-18 -6.158941e-01
     vertex -4.618133e-02  1.786145e-18 -6.824612e-01
     vertex -9.375000e-02 -3.081488e-33 -6.640625e-01
   endloop
 endfacet
 facet normal -6.123234e-17  1.000000e+00 -6.123234e-17
   outer loop
     vertex  6.706948e-02  8.720757e-18 -6.824612e-01
     vertex  7.141539e-02  5.924330e-18 -7.324762e-01
     vertex  1.044408e-02  2.734306e-18 -7.236020e-01
   endloop
 endfacet
 facet normal -6.123234e-17  1.000000e+00 -6.123234e-17
   outer loop
     vertex  9.975329e-02  1.184866e-17 -6.640625e-01
     vertex  6.706948e-02  8.720757e-18 -6.824612e-01
     vertex  4.544050e-02  1.147243e-17 -6.158941e-01
   endloop
 endfacet
 facet normal -6.123234e-17  1.000000e+00 -6.123234e-17
   outer loop
     vertex  9.975329e-02  1.184866e-17 -6.640625e-01
     vertex  7.141539e-02  5.924330e-18 -7.324762e-01
     vertex  6.706948e-02  8.720757e-18 -6.824612e-01
   endloop
 endfacet
 facet normal -6.123234e-17  1.000000e+00 -6.123234e-17
   outer loop
     vertex -9.375000e-02  8.020631e-17  6.458059e-01
     vertex -2.455235e-02  7.186601e-18 -6.158941e-01
     vertex -9.375000e-02 -3.081488e-33 -6.640625e-01
   endloop
 endfacet
 facet normal -6.123234e-17  1.000000e+00 -6.123234e-17
   outer loop
     vertex  1.044408e-02  8.294061e-17  5.862664e-01
     vertex  4.544050e-02  1.147243e-17 -6.158941e-01
     vertex -2.455235e-02  7.186601e-18 -6.158941e-01
   endloop
 endfacet
 facet normal -6.123234e-17  1.000000e+00 -6.123234e-17
   outer loop
     vertex  1.044408e-02  8.294061e-17  5.862664e-01
     vertex -2.455235e-02  7.186601e-18 -6.158941e-01
     vertex -9.375000e-02  8.020631e-17  6.458059e-01
   endloop
 endfacet
 facet normal -6.123234e-17  1.000000e+00 -6.123234e-17
   outer loop
     vertex  1.044408e-02  8.294061e-17  5.862664e-01
     vertex -9.375000e-02  8.020631e-17  6.458059e-01
     vertex -4.618133e-02  8.199245e-17  6.274072e-01
   endloop
 endfacet
 facet normal -6.123234e-17  1.000000e+00 -6.123234e-17
   outer loop
     vertex -2.455235e-02  8.739291e-17  6.939744e-01
     vertex -9.375000e-02  8.020631e-17  6.458059e-01
     vertex -6.541210e-02  8.613064e-17  7.142197e-01
   endloop
 endfacet
 facet normal -6.123234e-17  1.000000e+00 -6.123234e-17
   outer loop
     vertex -2.455235e-02  8.739291e-17  6.939744e-01
     vertex -4.618133e-02  8.199245e-17  6.274072e-01
     vertex -9.375000e-02  8.020631e-17  6.458059e-01
   endloop
 endfacet
 facet normal -6.123234e-17  1.000000e+00 -6.123234e-17
   outer loop
     vertex  3.001645e-03  9.205497e-17  7.425576e-01
     vertex  4.544050e-02  9.167874e-17  6.939744e-01
     vertex -2.455235e-02  8.739291e-17  6.939744e-01
   endloop
 endfacet
 facet normal -6.123234e-17  1.000000e+00 -6.123234e-17
   outer loop
     vertex  3.001645e-03  9.205497e-17  7.425576e-01
     vertex -2.455235e-02  8.739291e-17  6.939744e-01
     vertex -6.541210e-02  8.613064e-17  7.142197e-01
   endloop
 endfacet
 facet normal -6.123234e-17  1.000000e+00 -6.123234e-17
   outer loop
     vertex  9.975329e-02  9.205497e-17  6.458059e-01
     vertex  1.044408e-02  8.294061e-17  5.862664e-01
     vertex  6.706948e-02  8.892707e-17  6.274072e-01
   endloop
 endfacet
 facet normal -6.123234e-17  1.000000e+00 -6.123234e-17
   outer loop
     vertex  9.975329e-02  9.205497e-17  6.458059e-01
     vertex  6.706948e-02  8.892707e-17  6.274072e-01
     vertex  4.544050e-02  9.167874e-17  6.939744e-01
   endloop
 endfacet
 facet normal -6.123234e-17  1.000000e+00 -6.123234e-17
   outer loop
     vertex  9.975329e-02  9.205497e-17  6.458059e-01
     vertex  9.975329e-02  1.184866e-17 -6.640625e-01
     vertex  4.544050e-02  1.147243e-17 -6.158941e-01
   endloop
 endfacet
 facet normal -6.123234e-17  1.000000e+00 -6.123234e-17
   outer loop
     vertex  9.975329e-02  9.205497e-17  6.458059e-01
     vertex  4.544050e-02  1.147243e-17 -6.158941e-01
     vertex  1.044408e-02  8.294061e-17  5.862664e-01
   endloop
 endfacet
 facet normal -6.123234e-17  1.000000e+00 -6.123234e-17
   outer loop
     vertex  7.141539e-02  9.450891e-17  7.142197e-01
     vertex  9.975329e-02  9.205497e-17  6.458059e-01
     vertex  4.544050e-02  9.167874e-17  6.939744e-01
   endloop
 endfacet
 facet normal -6.123234e-17  1.000000e+00 -6.123234e-17
   outer loop
     vertex  7.141539e-02  9.450891e-17  7.142197e-01
     vertex  4.544050e-02  9.167874e-17  6.939744e-01
     vertex  3.001645e-03  9.205497e-17  7.425576e-01
   endloop
 endfacet
 facet normal -0.000000e+00 -1.000000e+00  0.000000e+00
   outer loop
     vertex -4.618133e-02 -1.796875e-01 -6.824612e-01
     vertex -9.375000e-02 -1.796875e-01 -6.640625e-01
     vertex -6.541210e-02 -1.796875e-01 -7.324762e-01
   endloop
 endfacet
 facet normal  0.000000e+00 -1.000000e+00  0.000000e+00
   outer loop
     vertex  1.044408e-02 -1.796875e-01 -7.236020e-01
     vertex -6.541210e-02 -1.796875e-01 -7.324762e-01
     vertex  3.001645e-03 -1.796875e-01 -7.608141e-01
   endloop
 endfacet
 facet normal -0.000000e+00 -1.000000e+00  0.000000e+00
   outer loop
     vertex  1.044408e-02 -1.796875e-01 -7.236020e-01
     vertex -4.618133e-02 -1.796875e-01 -6.824612e-01
     vertex -6.541210e-02 -1.796875e-01 -7.324762e-01
   endloop
 endfacet
 facet normal -0.000000e+00 -1.000000e+00  0.000000e+00
   outer loop
     vertex  7.141539e-02 -1.796875e-01 -7.324762e-01
     vertex  1.044408e-02 -1.796875e-01 -7.236020e-01
     vertex  3.001645e-03 -1.796875e-01 -7.608141e-01
   endloop
 endfacet
 facet normal  0.000000e+00 -1.000000e+00  0.000000e+00
   outer loop
     vertex -2.455235e-02 -1.796875e-01 -6.158941e-01
     vertex -9.375000e-02 -1.796875e-01 -6.640625e-01
     vertex -4.618133e-02 -1.796875e-01 -6.824612e-01
   endloop
 endfacet
 facet normal  0.000000e+00 -1.000000e+00 -0.000000e+00
   outer loop
     vertex  6.706948e-02 -1.796875e-01 -6.824612e-01
     vertex  1.044408e-02 -1.796875e-01 -7.236020e-01
     vertex  7.141539e-02 -1.796875e-01 -7.324762e-01
   endloop
 endfacet
 facet normal -0.000000e+00 -1.000000e+00  0.000000e+00
   outer loop
     vertex  9.975329e-02 -1.796875e-01 -6.640625e-01
     vertex  4.544050e-02 -1.796875e-01 -6.158941e-01
     vertex  6.706948e-02 -1.796875e-01 -6.824612e-01
   endloop
 endfacet
 facet normal  0.000000e+00 -1.000000e+00  0.000000e+00
   outer loop
     vertex  9.975329e-02 -1.796875e-01 -6.640625e-01
     vertex  6.706948e-02 -1.796875e-01 -6.824612e-01
     vertex  7.141539e-02 -1.796875e-01 -7.324762e-01
   endloop
 endfacet
 facet normal  0.000000e+00 -1.000000e+00  0.000000e+00
   outer loop
     vertex -9.375000e-02 -1.796875e-01  6.458059e-01
     vertex -9.375000e-02 -1.796875e-01 -6.640625e-01
     vertex -2.455235e-02 -1.796875e-01 -6.158941e-01
   endloop
 endfacet
 facet normal  0.000000e+00 -1.000000e+00 -0.000000e+00
   outer loop
     vertex  1.044408e-02 -1.796875e-01  5.862664e-01
     vertex -2.455235e-02 -1.796875e-01 -6.158941e-01
     vertex  4.544050e-02 -1.796875e-01 -6.158941e-01
   endloop
 endfacet
 facet normal -0.000000e+00 -1.000000e+00  0.000000e+00
   outer loop
     vertex  1.044408e-02 -1.796875e-01  5.862664e-01
     vertex -9.375000e-02 -1.796875e-01  6.458059e-01
     vertex -2.455235e-02 -1.796875e-01 -6.158941e-01
   endloop
 endfacet
 facet normal  0.000000e+00 -1.000000e+00  0.000000e+00
   outer loop
     vertex  1.044408e-02 -1.796875e-01  5.862664e-01
     vertex -4.618133e-02 -1.796875e-01  6.274072e-01
     vertex -9.375000e-02 -1.796875e-01  6.458059e-01
   endloop
 endfacet
 facet normal -0.000000e+00 -1.000000e+00  0.000000e+00
   outer loop
     vertex -2.455235e-02 -1.796875e-01  6.939744e-01
     vertex -6.541210e-02 -1.796875e-01  7.142197e-01
     vertex -9.375000e-02 -1.796875e-01  6.458059e-01
   endloop
 endfacet
 facet normal  0.000000e+00 -1.000000e+00  0.000000e+00
   outer loop
     vertex -2.455235e-02 -1.796875e-01  6.939744e-01
     vertex -9.375000e-02 -1.796875e-01  6.458059e-01
     vertex -4.618133e-02 -1.796875e-01  6.274072e-01
   endloop
 endfacet
 facet normal  0.000000e+00 -1.000000e+00 -0.000000e+00
   outer loop
     vertex  3.001645e-03 -1.796875e-01  7.425576e-01
     vertex -2.455235e-02 -1.796875e-01  6.939744e-01
     vertex  4.544050e-02 -1.796875e-01  6.939744e-01
   endloop
 endfacet
 facet normal  0.000000e+00 -1.000000e+00  0.000000e+00
   outer loop
     vertex  3.001645e-03 -1.796875e-01  7.425576e-01
     vertex -6.541210e-02 -1.796875e-01  7.142197e-01
     vertex -2.455235e-02 -1.796875e-01  6.939744e-01
   endloop
 endfacet
 facet normal  0.000000e+00 -1.000000e+00  0.000000e+00
   outer loop
     vertex  9.975329e-02 -1.796875e-01  6.458059e-01
     vertex  6.706948e-02 -1.796875e-01  6.274072e-01
     vertex  1.044408e-02 -1.796875e-01  5.862664e-01
   endloop
 endfacet
 facet normal -0.000000e+00 -1.000000e+00  0.000000e+00
   outer loop
     vertex  9.975329e-02 -1.796875e-01  6.458059e-01
     vertex  4.544050e-02 -1.796875e-01  6.939744e-01
     vertex  6.706948e-02 -1.796875e-01  6.274072e-01
   endloop
 endfacet
 facet normal  0.000000e+00 -1.000000e+00 -0.000000e+00
   outer loop
     vertex  9.975329e-02 -1.796875e-01  6.458059e-01
     vertex  4.544050e-02 -1.796875e-01 -6.158941e-01
     vertex  9.975329e-02 -1.796875e-01 -6.640625e-01
   endloop
 endfacet
 facet normal  0.000000e+00 -1.000000e+00  0.000000e+00
   outer loop
     vertex  9.975329e-02 -1.796875e-01  6.458059e-01
     vertex  1.044408e-02 -1.796875e-01  5.862664e-01
     vertex  4.544050e-02 -1.796875e-01 -6.158941e-01
   endloop
 endfacet
 facet normal  0.000000e+00 -1.000000e+00 -0.000000e+00
   outer loop
     vertex  7.141539e-02 -1.796875e-01  7.142197e-01
     vertex  4.544050e-02 -1.796875e-01  6.939744e-01
     vertex  9.975329e-02 -1.796875e-01  6.458059e-01
   endloop
 endfacet
 facet normal -0.000000e+00 -1.000000e+00  0.000000e+00
   outer loop
     vertex  7.141539e-02 -1.796875e-01  7.142197e-01
     vertex  3.001645e-03 -1.796875e-01  7.425576e-01
     vertex  4.544050e-02 -1.796875e-01  6.939744e-01
   endloop
 endfacet
endsolid
