solid 
 facet normal  0.000000e+00  0.000000e+00 -1.000000e+00
   outer loop
     vertex  2.919408e-02  1.787622e-18  1.953125e-01
     vertex  2.152699e-17 -3.515625e-01  1.953125e-01
     vertex  0.000000e+00  0.000000e+00  1.953125e-01
   endloop
 endfacet
 facet normal  0.000000e+00 -0.000000e+00 -1.000000e+00
   outer loop
     vertex  2.919408e-02  1.787622e-18  1.953125e-01
     vertex  2.919408e-02 -3.515625e-01  1.953125e-01
     vertex  2.152699e-17 -3.515625e-01  1.953125e-01
   endloop
 endfacet
 facet normal -1.000000e+00 -6.123234e-17  4.663201e-17
   outer loop
     vertex  2.775558e-17 -7.376645e-02  5.199836e-01
     vertex  5.549181e-17 -3.515625e-01  7.500000e-01
     vertex  3.396481e-17  3.396481e-17  7.500000e-01
   endloop
 endfacet
 facet normal -1.000000e+00  1.776543e-17  1.420394e-16
   outer loop
     vertex  2.081668e-17 -1.171875e-01  4.765625e-01
     vertex  5.549181e-17 -3.515625e-01  7.500000e-01
     vertex  2.775558e-17 -7.376645e-02  5.199836e-01
   endloop
 endfacet
 facet normal -1.000000e+00 -7.650948e-17  6.123234e-17
   outer loop
     vertex  2.152699e-17 -3.515625e-01  1.953125e-01
     vertex  5.549181e-17 -3.515625e-01  7.500000e-01
     vertex  2.081668e-17 -1.171875e-01  4.765625e-01
   endloop
 endfacet
 facet normal -1.000000e+00  3.202188e-17 -2.921046e-17
   outer loop
     vertex  2.347545e-17 -7.376645e-02  4.331414e-01
     vertex  2.152699e-17 -3.515625e-01  1.953125e-01
     vertex  2.081668e-17 -1.171875e-01  4.765625e-01
   endloop
 endfacet
 facet normal -1.000000e+00 -1.005603e-16  5.924452e-17
   outer loop
     vertex  2.081668e-17 -3.034539e-02  4.765625e-01
     vertex  2.775558e-17 -7.376645e-02  5.199836e-01
     vertex  3.396481e-17  3.396481e-17  7.500000e-01
   endloop
 endfacet
 facet normal -1.000000e+00 -1.220759e-16  6.084352e-17
   outer loop
     vertex  0.000000e+00  0.000000e+00  1.953125e-01
     vertex  2.347545e-17 -7.376645e-02  4.331414e-01
     vertex  2.081668e-17 -3.034539e-02  4.765625e-01
   endloop
 endfacet
 facet normal -1.000000e+00 -6.123234e-17  7.971512e-17
   outer loop
     vertex  0.000000e+00  0.000000e+00  1.953125e-01
     vertex  2.152699e-17 -3.515625e-01  1.953125e-01
     vertex  2.347545e-17 -7.376645e-02  4.331414e-01
   endloop
 endfacet
 facet normal -1.000000e+00 -1.184722e-16  6.123234e-17
   outer loop
     vertex  0.000000e+00  0.000000e+00  1.953125e-01
     vertex  2.081668e-17 -3.034539e-02  4.765625e-01
     vertex  3.396481e-17  3.396481e-17  7.500000e-01
   endloop
 endfacet
 facet normal  1.000000e+00  0.000000e+00 -1.458799e-17
   outer loop
     vertex  2.919408e-02 -7.376645e-02  4.331414e-01
     vertex  2.919408e-02 -3.515625e-01  1.953125e-01
     vertex  2.919408e-02  1.787622e-18  1.953125e-01
   endloop
 endfacet
 facet normal  1.000000e+00 -4.358314e-17  3.631928e-17
   outer loop
     vertex  2.919408e-02 -1.171875e-01  4.765625e-01
     vertex  2.919408e-02 -3.515625e-01  1.953125e-01
     vertex  2.919408e-02 -7.376645e-02  4.331414e-01
   endloop
 endfacet
 facet normal  1.000000e+00  0.000000e+00  0.000000e+00
   outer loop
     vertex  2.919408e-02 -3.515625e-01  7.500000e-01
     vertex  2.919408e-02 -3.515625e-01  1.953125e-01
     vertex  2.919408e-02 -1.171875e-01  4.765625e-01
   endloop
 endfacet
 facet normal  1.000000e+00  0.000000e+00  0.000000e+00
   outer loop
     vertex  2.919408e-02 -7.376645e-02  5.199836e-01
     vertex  2.919408e-02 -3.515625e-01  7.500000e-01
     vertex  2.919408e-02 -1.171875e-01  4.765625e-01
   endloop
 endfacet
 facet normal  1.000000e+00  7.212094e-17  7.781470e-18
   outer loop
     vertex  2.919408e-02 -3.034539e-02  4.765625e-01
     vertex  2.919408e-02 -7.376645e-02  4.331414e-01
     vertex  2.919408e-02  1.787622e-18  1.953125e-01
   endloop
 endfacet
 facet normal  1.000000e+00  0.000000e+00  0.000000e+00
   outer loop
     vertex  2.919408e-02  3.575244e-17  7.500000e-01
     vertex  2.919408e-02 -7.376645e-02  5.199836e-01
     vertex  2.919408e-02 -3.034539e-02  4.765625e-01
   endloop
 endfacet
 facet normal  1.000000e+00  0.000000e+00  0.000000e+00
   outer loop
     vertex  2.919408e-02  3.575244e-17  7.500000e-01
     vertex  2.919408e-02 -3.515625e-01  7.500000e-01
     vertex  2.919408e-02 -7.376645e-02  5.199836e-01
   endloop
 endfacet
 facet normal  1.000000e+00  0.000000e+00  0.000000e+00
   outer loop
     vertex  2.919408e-02  3.575244e-17  7.500000e-01
     vertex  2.919408e-02 -3.034539e-02  4.765625e-01
     vertex  2.919408e-02  1.787622e-18  1.953125e-01
   endloop
 endfacet
 facet normal -6.123234e-17  1.000000e+00 -6.123234e-17
   outer loop
     vertex  2.919408e-02  3.575244e-17  7.500000e-01
     vertex  2.919408e-02  1.787622e-18  1.953125e-01
     vertex  0.000000e+00  0.000000e+00  1.953125e-01
   endloop
 endfacet
 facet normal -6.123234e-17  1.000000e+00 -6.123234e-17
   outer loop
     vertex  2.919408e-02  3.575244e-17  7.500000e-01
     vertex  0.000000e+00  0.000000e+00  1.953125e-01
     vertex  3.396481e-17  3.396481e-17  7.500000e-01
   endloop
 endfacet
 facet normal  0.000000e+00 -1.000000e+00 -0.000000e+00
   outer loop
     vertex  2.919408e-02 -3.515625e-01  7.500000e-01
     vertex  2.152699e-17 -3.515625e-01  1.953125e-01
     vertex  2.919408e-02 -3.515625e-01  1.953125e-01
   endloop
 endfacet
 facet normal -0.000000e+00 -1.000000e+00  0.000000e+00
   outer loop
     vertex  2.919408e-02 -3.515625e-01  7.500000e-01
     vertex  5.549181e-17 -3.515625e-01  7.500000e-01
     vertex  2.152699e-17 -3.515625e-01  1.953125e-01
   endloop
 endfacet
 facet normal -0.000000e+00  0.000000e+00  1.000000e+00
   outer loop
     vertex  3.396481e-17  3.396481e-17  7.500000e-01
     vertex  2.919408e-02 -3.515625e-01  7.500000e-01
     vertex  2.919408e-02  3.575244e-17  7.500000e-01
   endloop
 endfacet
 facet normal  0.000000e+00  0.000000e+00  1.000000e+00
   outer loop
     vertex  3.396481e-17  3.396481e-17  7.500000e-01
     vertex  5.549181e-17 -3.515625e-01  7.500000e-01
     vertex  2.919408e-02 -3.515625e-01  7.500000e-01
   endloop
 endfacet
 facet normal  0.000000e+00  7.071068e-01 -7.071068e-01
   outer loop
     vertex  2.919408e-02 -7.376645e-02  5.199836e-01
     vertex  2.081668e-17 -1.171875e-01  4.765625e-01
     vertex  2.775558e-17 -7.376645e-02  5.199836e-01
   endloop
 endfacet
 facet normal  0.000000e+00  7.071068e-01 -7.071068e-01
   outer loop
     vertex  2.919408e-02 -1.171875e-01  4.765625e-01
     vertex  2.081668e-17 -1.171875e-01  4.765625e-01
     vertex  2.919408e-02 -7.376645e-02  5.199836e-01
   endloop
 endfacet
 facet normal  0.000000e+00  7.071068e-01  7.071068e-01
   outer loop
     vertex  2.919408e-02 -7.376645e-02  4.331414e-01
     vertex  2.347545e-17 -7.376645e-02  4.331414e-01
     vertex  2.081668e-17 -1.171875e-01  4.765625e-01
   endloop
 endfacet
 facet normal  0.000000e+00  7.071068e-01  7.071068e-01
   outer loop
     vertex  2.919408e-02 -7.376645e-02  4.331414e-01
     vertex  2.081668e-17 -1.171875e-01  4.765625e-01
     vertex  2.919408e-02 -1.171875e-01  4.765625e-01
   endloop
 endfacet
 facet normal  0.000000e+00 -7.071068e-01  7.071068e-01
   outer loop
     vertex  2.919408e-02 -3.034539e-02  4.765625e-01
     vertex  2.081668e-17 -3.034539e-02  4.765625e-01
     vertex  2.347545e-17 -7.376645e-02  4.331414e-01
   endloop
 endfacet
 facet normal  0.000000e+00 -7.071068e-01  7.071068e-01
   outer loop
     vertex  2.919408e-02 -3.034539e-02  4.765625e-01
     vertex  2.347545e-17 -7.376645e-02  4.331414e-01
     vertex  2.919408e-02 -7.376645e-02  4.331414e-01
   endloop
 endfacet
 facet normal -0.000000e+00 -7.071068e-01 -7.071068e-01
   outer loop
     vertex  2.919408e-02 -7.376645e-02  5.199836e-01
     vertex  2.775558e-17 -7.376645e-02  5.199836e-01
     vertex  2.081668e-17 -3.034539e-02  4.765625e-01
   endloop
 endfacet
 facet normal  0.000000e+00 -7.071068e-01 -7.071068e-01
   outer loop
     vertex  2.919408e-02 -7.376645e-02  5.199836e-01
     vertex  2.081668e-17 -3.034539e-02  4.765625e-01
     vertex  2.919408e-02 -3.034539e-02  4.765625e-01
   endloop
 endfacet
endsolid
