solid 
 facet normal  9.927089e-01 -1.205367e-01  0.000000e+00
   outer loop
     vertex  2.151787e-01  2.242116e-01  0.000000e+00
     vertex  2.277961e-01  3.281250e-01  0.000000e+00
     vertex  2.277961e-01  3.281250e-01  3.046875e-01
   endloop
 endfacet
 facet normal  9.927089e-01 -1.205367e-01  0.000000e+00
   outer loop
     vertex  2.151787e-01  2.242116e-01  0.000000e+00
     vertex  2.277961e-01  3.281250e-01  3.046875e-01
     vertex  2.151787e-01  2.242116e-01  3.046875e-01
   endloop
 endfacet
 facet normal  9.350162e-01 -3.546049e-01  0.000000e+00
   outer loop
     vertex  1.780599e-01  1.263373e-01  0.000000e+00
     vertex  2.151787e-01  2.242116e-01  3.046875e-01
     vertex  1.780599e-01  1.263373e-01  3.046875e-01
   endloop
 endfacet
 facet normal  9.350162e-01 -3.546049e-01  0.000000e+00
   outer loop
     vertex  1.780599e-01  1.263373e-01  0.000000e+00
     vertex  2.151787e-01  2.242116e-01  0.000000e+00
     vertex  2.151787e-01  2.242116e-01  3.046875e-01
   endloop
 endfacet
 facet normal  8.229839e-01 -5.680647e-01  0.000000e+00
   outer loop
     vertex  1.185968e-01  4.019016e-02  0.000000e+00
     vertex  1.780599e-01  1.263373e-01  3.046875e-01
     vertex  1.185968e-01  4.019016e-02  3.046875e-01
   endloop
 endfacet
 facet normal  8.229839e-01 -5.680647e-01  0.000000e+00
   outer loop
     vertex  1.185968e-01  4.019016e-02  0.000000e+00
     vertex  1.780599e-01  1.263373e-01  0.000000e+00
     vertex  1.780599e-01  1.263373e-01  3.046875e-01
   endloop
 endfacet
 facet normal  6.631227e-01 -7.485107e-01  0.000000e+00
   outer loop
     vertex  4.024522e-02 -2.922326e-02  0.000000e+00
     vertex  1.185968e-01  4.019016e-02  3.046875e-01
     vertex  4.024522e-02 -2.922326e-02  3.046875e-01
   endloop
 endfacet
 facet normal  6.631227e-01 -7.485107e-01  0.000000e+00
   outer loop
     vertex  4.024522e-02 -2.922326e-02  0.000000e+00
     vertex  1.185968e-01  4.019016e-02  0.000000e+00
     vertex  1.185968e-01  4.019016e-02  3.046875e-01
   endloop
 endfacet
 facet normal  4.647232e-01 -8.854560e-01  0.000000e+00
   outer loop
     vertex -5.244130e-02 -7.786889e-02  0.000000e+00
     vertex  4.024522e-02 -2.922326e-02  3.046875e-01
     vertex -5.244130e-02 -7.786889e-02  3.046875e-01
   endloop
 endfacet
 facet normal  4.647232e-01 -8.854560e-01  0.000000e+00
   outer loop
     vertex -5.244130e-02 -7.786889e-02  0.000000e+00
     vertex  4.024522e-02 -2.922326e-02  0.000000e+00
     vertex  4.024522e-02 -2.922326e-02  3.046875e-01
   endloop
 endfacet
 facet normal  2.393157e-01 -9.709418e-01  0.000000e+00
   outer loop
     vertex -1.540762e-01 -1.029196e-01  0.000000e+00
     vertex -5.244130e-02 -7.786889e-02  3.046875e-01
     vertex -1.540762e-01 -1.029196e-01  3.046875e-01
   endloop
 endfacet
 facet normal  2.393157e-01 -9.709418e-01  0.000000e+00
   outer loop
     vertex -1.540762e-01 -1.029196e-01  0.000000e+00
     vertex -5.244130e-02 -7.786889e-02  0.000000e+00
     vertex -5.244130e-02 -7.786889e-02  3.046875e-01
   endloop
 endfacet
 facet normal -2.393157e-01 -9.709418e-01  0.000000e+00
   outer loop
     vertex -2.587528e-01 -1.029196e-01  0.000000e+00
     vertex -2.587528e-01 -1.029196e-01  3.046875e-01
     vertex -3.603876e-01 -7.786889e-02  3.046875e-01
   endloop
 endfacet
 facet normal -2.121244e-15 -1.000000e+00  0.000000e+00
   outer loop
     vertex -2.587528e-01 -1.029196e-01  0.000000e+00
     vertex -1.540762e-01 -1.029196e-01  3.046875e-01
     vertex -2.587528e-01 -1.029196e-01  3.046875e-01
   endloop
 endfacet
 facet normal -2.121244e-15 -1.000000e+00  0.000000e+00
   outer loop
     vertex -2.587528e-01 -1.029196e-01  0.000000e+00
     vertex -1.540762e-01 -1.029196e-01  0.000000e+00
     vertex -1.540762e-01 -1.029196e-01  3.046875e-01
   endloop
 endfacet
 facet normal -2.393157e-01 -9.709418e-01  0.000000e+00
   outer loop
     vertex -3.603876e-01 -7.786889e-02  0.000000e+00
     vertex -2.587528e-01 -1.029196e-01  0.000000e+00
     vertex -3.603876e-01 -7.786889e-02  3.046875e-01
   endloop
 endfacet
 facet normal -4.647232e-01 -8.854560e-01  0.000000e+00
   outer loop
     vertex -4.530742e-01 -2.922326e-02  0.000000e+00
     vertex -3.603876e-01 -7.786889e-02  3.046875e-01
     vertex -4.530742e-01 -2.922326e-02  3.046875e-01
   endloop
 endfacet
 facet normal -4.647232e-01 -8.854560e-01  0.000000e+00
   outer loop
     vertex -4.530742e-01 -2.922326e-02  0.000000e+00
     vertex -3.603876e-01 -7.786889e-02  0.000000e+00
     vertex -3.603876e-01 -7.786889e-02  3.046875e-01
   endloop
 endfacet
 facet normal -6.631227e-01 -7.485107e-01  0.000000e+00
   outer loop
     vertex -5.314257e-01  4.019016e-02  0.000000e+00
     vertex -4.530742e-01 -2.922326e-02  3.046875e-01
     vertex -5.314257e-01  4.019016e-02  3.046875e-01
   endloop
 endfacet
 facet normal -6.631227e-01 -7.485107e-01  0.000000e+00
   outer loop
     vertex -5.314257e-01  4.019016e-02  0.000000e+00
     vertex -4.530742e-01 -2.922326e-02  0.000000e+00
     vertex -4.530742e-01 -2.922326e-02  3.046875e-01
   endloop
 endfacet
 facet normal -8.229839e-01 -5.680647e-01  0.000000e+00
   outer loop
     vertex -5.908888e-01  1.263373e-01  0.000000e+00
     vertex -5.314257e-01  4.019016e-02  0.000000e+00
     vertex -5.314257e-01  4.019016e-02  3.046875e-01
   endloop
 endfacet
 facet normal -8.229839e-01 -5.680647e-01  0.000000e+00
   outer loop
     vertex -5.908888e-01  1.263373e-01  0.000000e+00
     vertex -5.314257e-01  4.019016e-02  3.046875e-01
     vertex -5.908888e-01  1.263373e-01  3.046875e-01
   endloop
 endfacet
 facet normal -9.350162e-01 -3.546049e-01  0.000000e+00
   outer loop
     vertex -6.280076e-01  2.242116e-01  0.000000e+00
     vertex -5.908888e-01  1.263373e-01  0.000000e+00
     vertex -5.908888e-01  1.263373e-01  3.046875e-01
   endloop
 endfacet
 facet normal -9.350162e-01 -3.546049e-01  0.000000e+00
   outer loop
     vertex -6.280076e-01  2.242116e-01  0.000000e+00
     vertex -5.908888e-01  1.263373e-01  3.046875e-01
     vertex -6.280076e-01  2.242116e-01  3.046875e-01
   endloop
 endfacet
 facet normal -9.927089e-01 -1.205367e-01  0.000000e+00
   outer loop
     vertex -6.406250e-01  3.281250e-01  0.000000e+00
     vertex -6.280076e-01  2.242116e-01  0.000000e+00
     vertex -6.280076e-01  2.242116e-01  3.046875e-01
   endloop
 endfacet
 facet normal -9.927089e-01 -1.205367e-01  0.000000e+00
   outer loop
     vertex -6.406250e-01  3.281250e-01  0.000000e+00
     vertex -6.280076e-01  2.242116e-01  3.046875e-01
     vertex -6.406250e-01  3.281250e-01  3.046875e-01
   endloop
 endfacet
 facet normal -9.927089e-01  1.205367e-01  0.000000e+00
   outer loop
     vertex -6.280076e-01  4.320384e-01  0.000000e+00
     vertex -6.406250e-01  3.281250e-01  0.000000e+00
     vertex -6.406250e-01  3.281250e-01  3.046875e-01
   endloop
 endfacet
 facet normal -9.927089e-01  1.205367e-01  0.000000e+00
   outer loop
     vertex -6.280076e-01  4.320384e-01  0.000000e+00
     vertex -6.406250e-01  3.281250e-01  3.046875e-01
     vertex -6.280076e-01  4.320384e-01  3.046875e-01
   endloop
 endfacet
 facet normal -9.350162e-01  3.546049e-01  0.000000e+00
   outer loop
     vertex -5.908888e-01  5.299127e-01  0.000000e+00
     vertex -6.280076e-01  4.320384e-01  0.000000e+00
     vertex -6.280076e-01  4.320384e-01  3.046875e-01
   endloop
 endfacet
 facet normal -9.350162e-01  3.546049e-01  0.000000e+00
   outer loop
     vertex -5.908888e-01  5.299127e-01  0.000000e+00
     vertex -6.280076e-01  4.320384e-01  3.046875e-01
     vertex -5.908888e-01  5.299127e-01  3.046875e-01
   endloop
 endfacet
 facet normal -8.229839e-01  5.680647e-01  0.000000e+00
   outer loop
     vertex -5.314257e-01  6.160598e-01  0.000000e+00
     vertex -5.908888e-01  5.299127e-01  0.000000e+00
     vertex -5.908888e-01  5.299127e-01  3.046875e-01
   endloop
 endfacet
 facet normal -8.229839e-01  5.680647e-01  0.000000e+00
   outer loop
     vertex -5.314257e-01  6.160598e-01  0.000000e+00
     vertex -5.908888e-01  5.299127e-01  3.046875e-01
     vertex -5.314257e-01  6.160598e-01  3.046875e-01
   endloop
 endfacet
 facet normal -6.631227e-01  7.485107e-01  0.000000e+00
   outer loop
     vertex -4.530742e-01  6.854733e-01  0.000000e+00
     vertex -5.314257e-01  6.160598e-01  0.000000e+00
     vertex -5.314257e-01  6.160598e-01  3.046875e-01
   endloop
 endfacet
 facet normal -6.631227e-01  7.485107e-01  0.000000e+00
   outer loop
     vertex -4.530742e-01  6.854733e-01  0.000000e+00
     vertex -5.314257e-01  6.160598e-01  3.046875e-01
     vertex -4.530742e-01  6.854733e-01  3.046875e-01
   endloop
 endfacet
 facet normal -4.647232e-01  8.854560e-01  0.000000e+00
   outer loop
     vertex -3.603876e-01  7.341189e-01  0.000000e+00
     vertex -4.530742e-01  6.854733e-01  0.000000e+00
     vertex -4.530742e-01  6.854733e-01  3.046875e-01
   endloop
 endfacet
 facet normal -4.647232e-01  8.854560e-01  0.000000e+00
   outer loop
     vertex -3.603876e-01  7.341189e-01  0.000000e+00
     vertex -4.530742e-01  6.854733e-01  3.046875e-01
     vertex -3.603876e-01  7.341189e-01  3.046875e-01
   endloop
 endfacet
 facet normal -2.393157e-01  9.709418e-01  0.000000e+00
   outer loop
     vertex -2.587528e-01  7.591696e-01  0.000000e+00
     vertex -3.603876e-01  7.341189e-01  3.046875e-01
     vertex -2.587528e-01  7.591696e-01  3.046875e-01
   endloop
 endfacet
 facet normal -2.393157e-01  9.709418e-01  0.000000e+00
   outer loop
     vertex -2.587528e-01  7.591696e-01  0.000000e+00
     vertex -3.603876e-01  7.341189e-01  0.000000e+00
     vertex -3.603876e-01  7.341189e-01  3.046875e-01
   endloop
 endfacet
 facet normal  0.000000e+00  1.000000e+00 -0.000000e+00
   outer loop
     vertex -1.540762e-01  7.591696e-01  0.000000e+00
     vertex -2.587528e-01  7.591696e-01  3.046875e-01
     vertex -1.540762e-01  7.591696e-01  3.046875e-01
   endloop
 endfacet
 facet normal  0.000000e+00  1.000000e+00  0.000000e+00
   outer loop
     vertex -1.540762e-01  7.591696e-01  0.000000e+00
     vertex -2.587528e-01  7.591696e-01  0.000000e+00
     vertex -2.587528e-01  7.591696e-01  3.046875e-01
   endloop
 endfacet
 facet normal  2.393157e-01  9.709418e-01 -0.000000e+00
   outer loop
     vertex -5.244130e-02  7.341189e-01  0.000000e+00
     vertex -1.540762e-01  7.591696e-01  3.046875e-01
     vertex -5.244130e-02  7.341189e-01  3.046875e-01
   endloop
 endfacet
 facet normal  2.393157e-01  9.709418e-01  0.000000e+00
   outer loop
     vertex -5.244130e-02  7.341189e-01  0.000000e+00
     vertex -1.540762e-01  7.591696e-01  0.000000e+00
     vertex -1.540762e-01  7.591696e-01  3.046875e-01
   endloop
 endfacet
 facet normal  4.647232e-01  8.854560e-01 -0.000000e+00
   outer loop
     vertex  4.024522e-02  6.854733e-01  0.000000e+00
     vertex -5.244130e-02  7.341189e-01  3.046875e-01
     vertex  4.024522e-02  6.854733e-01  3.046875e-01
   endloop
 endfacet
 facet normal  4.647232e-01  8.854560e-01  0.000000e+00
   outer loop
     vertex  4.024522e-02  6.854733e-01  0.000000e+00
     vertex -5.244130e-02  7.341189e-01  0.000000e+00
     vertex -5.244130e-02  7.341189e-01  3.046875e-01
   endloop
 endfacet
 facet normal  8.229839e-01  5.680647e-01 -0.000000e+00
   outer loop
     vertex  1.185968e-01  6.160598e-01  0.000000e+00
     vertex  1.185968e-01  6.160598e-01  3.046875e-01
     vertex  1.780599e-01  5.299127e-01  3.046875e-01
   endloop
 endfacet
 facet normal  6.631227e-01  7.485107e-01 -0.000000e+00
   outer loop
     vertex  1.185968e-01  6.160598e-01  0.000000e+00
     vertex  4.024522e-02  6.854733e-01  3.046875e-01
     vertex  1.185968e-01  6.160598e-01  3.046875e-01
   endloop
 endfacet
 facet normal  6.631227e-01  7.485107e-01  0.000000e+00
   outer loop
     vertex  1.185968e-01  6.160598e-01  0.000000e+00
     vertex  4.024522e-02  6.854733e-01  0.000000e+00
     vertex  4.024522e-02  6.854733e-01  3.046875e-01
   endloop
 endfacet
 facet normal  8.229839e-01  5.680647e-01 -0.000000e+00
   outer loop
     vertex  1.780599e-01  5.299127e-01  0.000000e+00
     vertex  1.185968e-01  6.160598e-01  0.000000e+00
     vertex  1.780599e-01  5.299127e-01  3.046875e-01
   endloop
 endfacet
 facet normal  9.350162e-01  3.546049e-01 -0.000000e+00
   outer loop
     vertex  2.151787e-01  4.320384e-01  0.000000e+00
     vertex  1.780599e-01  5.299127e-01  3.046875e-01
     vertex  2.151787e-01  4.320384e-01  3.046875e-01
   endloop
 endfacet
 facet normal  9.350162e-01  3.546049e-01  0.000000e+00
   outer loop
     vertex  2.151787e-01  4.320384e-01  0.000000e+00
     vertex  1.780599e-01  5.299127e-01  0.000000e+00
     vertex  1.780599e-01  5.299127e-01  3.046875e-01
   endloop
 endfacet
 facet normal  9.927089e-01  1.205367e-01 -0.000000e+00
   outer loop
     vertex  2.277961e-01  3.281250e-01  0.000000e+00
     vertex  2.151787e-01  4.320384e-01  3.046875e-01
     vertex  2.277961e-01  3.281250e-01  3.046875e-01
   endloop
 endfacet
 facet normal  9.927089e-01  1.205367e-01  0.000000e+00
   outer loop
     vertex  2.277961e-01  3.281250e-01  0.000000e+00
     vertex  2.151787e-01  4.320384e-01  0.000000e+00
     vertex  2.151787e-01  4.320384e-01  3.046875e-01
   endloop
 endfacet
 facet normal  0.000000e+00  0.000000e+00 -1.000000e+00
   outer loop
     vertex  2.151787e-01  4.320384e-01  0.000000e+00
     vertex  2.151787e-01  2.242116e-01  0.000000e+00
     vertex  1.780599e-01  1.263373e-01  0.000000e+00
   endloop
 endfacet
 facet normal  0.000000e+00 -0.000000e+00 -1.000000e+00
   outer loop
     vertex  2.151787e-01  4.320384e-01  0.000000e+00
     vertex  2.277961e-01  3.281250e-01  0.000000e+00
     vertex  2.151787e-01  2.242116e-01  0.000000e+00
   endloop
 endfacet
 facet normal  0.000000e+00  0.000000e+00 -1.000000e+00
   outer loop
     vertex  1.185968e-01  6.160598e-01  0.000000e+00
     vertex  1.780599e-01  5.299127e-01  0.000000e+00
     vertex  2.151787e-01  4.320384e-01  0.000000e+00
   endloop
 endfacet
 facet normal  0.000000e+00  0.000000e+00 -1.000000e+00
   outer loop
     vertex  1.185968e-01  6.160598e-01  0.000000e+00
     vertex -5.244130e-02  7.341189e-01  0.000000e+00
     vertex  4.024522e-02  6.854733e-01  0.000000e+00
   endloop
 endfacet
 facet normal  0.000000e+00  0.000000e+00 -1.000000e+00
   outer loop
     vertex  1.185968e-01  6.160598e-01  0.000000e+00
     vertex -1.540762e-01  7.591696e-01  0.000000e+00
     vertex -5.244130e-02  7.341189e-01  0.000000e+00
   endloop
 endfacet
 facet normal  0.000000e+00  0.000000e+00 -1.000000e+00
   outer loop
     vertex  1.185968e-01  6.160598e-01  0.000000e+00
     vertex -2.587528e-01  7.591696e-01  0.000000e+00
     vertex -1.540762e-01  7.591696e-01  0.000000e+00
   endloop
 endfacet
 facet normal  0.000000e+00  0.000000e+00 -1.000000e+00
   outer loop
     vertex  1.185968e-01  6.160598e-01  0.000000e+00
     vertex -3.603876e-01  7.341189e-01  0.000000e+00
     vertex -2.587528e-01  7.591696e-01  0.000000e+00
   endloop
 endfacet
 facet normal  0.000000e+00  0.000000e+00 -1.000000e+00
   outer loop
     vertex  1.185968e-01  6.160598e-01  0.000000e+00
     vertex -4.530742e-01  6.854733e-01  0.000000e+00
     vertex -3.603876e-01  7.341189e-01  0.000000e+00
   endloop
 endfacet
 facet normal  0.000000e+00  0.000000e+00 -1.000000e+00
   outer loop
     vertex  1.185968e-01  6.160598e-01  0.000000e+00
     vertex -5.314257e-01  6.160598e-01  0.000000e+00
     vertex -4.530742e-01  6.854733e-01  0.000000e+00
   endloop
 endfacet
 facet normal -0.000000e+00  0.000000e+00 -1.000000e+00
   outer loop
     vertex  1.185968e-01  6.160598e-01  0.000000e+00
     vertex -5.908888e-01  5.299127e-01  0.000000e+00
     vertex -5.314257e-01  6.160598e-01  0.000000e+00
   endloop
 endfacet
 facet normal  0.000000e+00  0.000000e+00 -1.000000e+00
   outer loop
     vertex  1.185968e-01  6.160598e-01  0.000000e+00
     vertex -6.280076e-01  4.320384e-01  0.000000e+00
     vertex -5.908888e-01  5.299127e-01  0.000000e+00
   endloop
 endfacet
 facet normal  0.000000e+00  0.000000e+00 -1.000000e+00
   outer loop
     vertex  1.185968e-01  6.160598e-01  0.000000e+00
     vertex -6.406250e-01  3.281250e-01  0.000000e+00
     vertex -6.280076e-01  4.320384e-01  0.000000e+00
   endloop
 endfacet
 facet normal  0.000000e+00  0.000000e+00 -1.000000e+00
   outer loop
     vertex  1.185968e-01  6.160598e-01  0.000000e+00
     vertex -6.280076e-01  2.242116e-01  0.000000e+00
     vertex -6.406250e-01  3.281250e-01  0.000000e+00
   endloop
 endfacet
 facet normal  0.000000e+00  0.000000e+00 -1.000000e+00
   outer loop
     vertex  1.185968e-01  6.160598e-01  0.000000e+00
     vertex -5.908888e-01  1.263373e-01  0.000000e+00
     vertex -6.280076e-01  2.242116e-01  0.000000e+00
   endloop
 endfacet
 facet normal  0.000000e+00  0.000000e+00 -1.000000e+00
   outer loop
     vertex  1.185968e-01  6.160598e-01  0.000000e+00
     vertex -5.314257e-01  4.019016e-02  0.000000e+00
     vertex -5.908888e-01  1.263373e-01  0.000000e+00
   endloop
 endfacet
 facet normal  0.000000e+00  0.000000e+00 -1.000000e+00
   outer loop
     vertex  1.185968e-01  6.160598e-01  0.000000e+00
     vertex -4.530742e-01 -2.922326e-02  0.000000e+00
     vertex -5.314257e-01  4.019016e-02  0.000000e+00
   endloop
 endfacet
 facet normal  0.000000e+00  0.000000e+00 -1.000000e+00
   outer loop
     vertex  1.185968e-01  6.160598e-01  0.000000e+00
     vertex -3.603876e-01 -7.786889e-02  0.000000e+00
     vertex -4.530742e-01 -2.922326e-02  0.000000e+00
   endloop
 endfacet
 facet normal  0.000000e+00  0.000000e+00 -1.000000e+00
   outer loop
     vertex  1.185968e-01  6.160598e-01  0.000000e+00
     vertex -2.587528e-01 -1.029196e-01  0.000000e+00
     vertex -3.603876e-01 -7.786889e-02  0.000000e+00
   endloop
 endfacet
 facet normal  0.000000e+00  0.000000e+00 -1.000000e+00
   outer loop
     vertex  1.185968e-01  6.160598e-01  0.000000e+00
     vertex -1.540762e-01 -1.029196e-01  0.000000e+00
     vertex -2.587528e-01 -1.029196e-01  0.000000e+00
   endloop
 endfacet
 facet normal  0.000000e+00  0.000000e+00 -1.000000e+00
   outer loop
     vertex  1.185968e-01  6.160598e-01  0.000000e+00
     vertex -5.244130e-02 -7.786889e-02  0.000000e+00
     vertex -1.540762e-01 -1.029196e-01  0.000000e+00
   endloop
 endfacet
 facet normal  0.000000e+00  0.000000e+00 -1.000000e+00
   outer loop
     vertex  1.185968e-01  6.160598e-01  0.000000e+00
     vertex  4.024522e-02 -2.922326e-02  0.000000e+00
     vertex -5.244130e-02 -7.786889e-02  0.000000e+00
   endloop
 endfacet
 facet normal  0.000000e+00  0.000000e+00 -1.000000e+00
   outer loop
     vertex  1.185968e-01  6.160598e-01  0.000000e+00
     vertex  1.185968e-01  4.019016e-02  0.000000e+00
     vertex  4.024522e-02 -2.922326e-02  0.000000e+00
   endloop
 endfacet
 facet normal  0.000000e+00 -0.000000e+00 -1.000000e+00
   outer loop
     vertex  1.185968e-01  6.160598e-01  0.000000e+00
     vertex  1.780599e-01  1.263373e-01  0.000000e+00
     vertex  1.185968e-01  4.019016e-02  0.000000e+00
   endloop
 endfacet
 facet normal  0.000000e+00  0.000000e+00 -1.000000e+00
   outer loop
     vertex  1.185968e-01  6.160598e-01  0.000000e+00
     vertex  2.151787e-01  4.320384e-01  0.000000e+00
     vertex  1.780599e-01  1.263373e-01  0.000000e+00
   endloop
 endfacet
 facet normal  0.000000e+00  0.000000e+00  1.000000e+00
   outer loop
     vertex  2.151787e-01  4.320384e-01  3.046875e-01
     vertex  1.780599e-01  1.263373e-01  3.046875e-01
     vertex  2.151787e-01  2.242116e-01  3.046875e-01
   endloop
 endfacet
 facet normal  0.000000e+00  0.000000e+00  1.000000e+00
   outer loop
     vertex  2.151787e-01  4.320384e-01  3.046875e-01
     vertex  2.151787e-01  2.242116e-01  3.046875e-01
     vertex  2.277961e-01  3.281250e-01  3.046875e-01
   endloop
 endfacet
 facet normal  0.000000e+00  0.000000e+00  1.000000e+00
   outer loop
     vertex  1.185968e-01  6.160598e-01  3.046875e-01
     vertex  2.151787e-01  4.320384e-01  3.046875e-01
     vertex  1.780599e-01  5.299127e-01  3.046875e-01
   endloop
 endfacet
 facet normal  0.000000e+00  0.000000e+00  1.000000e+00
   outer loop
     vertex  1.185968e-01  6.160598e-01  3.046875e-01
     vertex  4.024522e-02  6.854733e-01  3.046875e-01
     vertex -5.244130e-02  7.341189e-01  3.046875e-01
   endloop
 endfacet
 facet normal  0.000000e+00  0.000000e+00  1.000000e+00
   outer loop
     vertex  1.185968e-01  6.160598e-01  3.046875e-01
     vertex -5.244130e-02  7.341189e-01  3.046875e-01
     vertex -1.540762e-01  7.591696e-01  3.046875e-01
   endloop
 endfacet
 facet normal  0.000000e+00  0.000000e+00  1.000000e+00
   outer loop
     vertex  1.185968e-01  6.160598e-01  3.046875e-01
     vertex -1.540762e-01  7.591696e-01  3.046875e-01
     vertex -2.587528e-01  7.591696e-01  3.046875e-01
   endloop
 endfacet
 facet normal  0.000000e+00  0.000000e+00  1.000000e+00
   outer loop
     vertex  1.185968e-01  6.160598e-01  3.046875e-01
     vertex -2.587528e-01  7.591696e-01  3.046875e-01
     vertex -3.603876e-01  7.341189e-01  3.046875e-01
   endloop
 endfacet
 facet normal  0.000000e+00  0.000000e+00  1.000000e+00
   outer loop
     vertex  1.185968e-01  6.160598e-01  3.046875e-01
     vertex -3.603876e-01  7.341189e-01  3.046875e-01
     vertex -4.530742e-01  6.854733e-01  3.046875e-01
   endloop
 endfacet
 facet normal  0.000000e+00  0.000000e+00  1.000000e+00
   outer loop
     vertex  1.185968e-01  6.160598e-01  3.046875e-01
     vertex -4.530742e-01  6.854733e-01  3.046875e-01
     vertex -5.314257e-01  6.160598e-01  3.046875e-01
   endloop
 endfacet
 facet normal  0.000000e+00  0.000000e+00  1.000000e+00
   outer loop
     vertex  1.185968e-01  6.160598e-01  3.046875e-01
     vertex -5.314257e-01  6.160598e-01  3.046875e-01
     vertex -5.908888e-01  5.299127e-01  3.046875e-01
   endloop
 endfacet
 facet normal  0.000000e+00  0.000000e+00  1.000000e+00
   outer loop
     vertex  1.185968e-01  6.160598e-01  3.046875e-01
     vertex -5.908888e-01  5.299127e-01  3.046875e-01
     vertex -6.280076e-01  4.320384e-01  3.046875e-01
   endloop
 endfacet
 facet normal  0.000000e+00  0.000000e+00  1.000000e+00
   outer loop
     vertex  1.185968e-01  6.160598e-01  3.046875e-01
     vertex -6.280076e-01  4.320384e-01  3.046875e-01
     vertex -6.406250e-01  3.281250e-01  3.046875e-01
   endloop
 endfacet
 facet normal  0.000000e+00  0.000000e+00  1.000000e+00
   outer loop
     vertex  1.185968e-01  6.160598e-01  3.046875e-01
     vertex -6.406250e-01  3.281250e-01  3.046875e-01
     vertex -6.280076e-01  2.242116e-01  3.046875e-01
   endloop
 endfacet
 facet normal  0.000000e+00  0.000000e+00  1.000000e+00
   outer loop
     vertex  1.185968e-01  6.160598e-01  3.046875e-01
     vertex -6.280076e-01  2.242116e-01  3.046875e-01
     vertex -5.908888e-01  1.263373e-01  3.046875e-01
   endloop
 endfacet
 facet normal  0.000000e+00  0.000000e+00  1.000000e+00
   outer loop
     vertex  1.185968e-01  6.160598e-01  3.046875e-01
     vertex -5.908888e-01  1.263373e-01  3.046875e-01
     vertex -5.314257e-01  4.019016e-02  3.046875e-01
   endloop
 endfacet
 facet normal  0.000000e+00  0.000000e+00  1.000000e+00
   outer loop
     vertex  1.185968e-01  6.160598e-01  3.046875e-01
     vertex -5.314257e-01  4.019016e-02  3.046875e-01
     vertex -4.530742e-01 -2.922326e-02  3.046875e-01
   endloop
 endfacet
 facet normal  0.000000e+00  0.000000e+00  1.000000e+00
   outer loop
     vertex  1.185968e-01  6.160598e-01  3.046875e-01
     vertex -4.530742e-01 -2.922326e-02  3.046875e-01
     vertex -3.603876e-01 -7.786889e-02  3.046875e-01
   endloop
 endfacet
 facet normal  0.000000e+00  0.000000e+00  1.000000e+00
   outer loop
     vertex  1.185968e-01  6.160598e-01  3.046875e-01
     vertex -3.603876e-01 -7.786889e-02  3.046875e-01
     vertex -2.587528e-01 -1.029196e-01  3.046875e-01
   endloop
 endfacet
 facet normal  0.000000e+00  0.000000e+00  1.000000e+00
   outer loop
     vertex  1.185968e-01  6.160598e-01  3.046875e-01
     vertex -2.587528e-01 -1.029196e-01  3.046875e-01
     vertex -1.540762e-01 -1.029196e-01  3.046875e-01
   endloop
 endfacet
 facet normal  0.000000e+00  0.000000e+00  1.000000e+00
   outer loop
     vertex  1.185968e-01  6.160598e-01  3.046875e-01
     vertex -1.540762e-01 -1.029196e-01  3.046875e-01
     vertex -5.244130e-02 -7.786889e-02  3.046875e-01
   endloop
 endfacet
 facet normal  0.000000e+00  0.000000e+00  1.000000e+00
   outer loop
     vertex  1.185968e-01  6.160598e-01  3.046875e-01
     vertex -5.244130e-02 -7.786889e-02  3.046875e-01
     vertex  4.024522e-02 -2.922326e-02  3.046875e-01
   endloop
 endfacet
 facet normal  0.000000e+00  0.000000e+00  1.000000e+00
   outer loop
     vertex  1.185968e-01  6.160598e-01  3.046875e-01
     vertex  4.024522e-02 -2.922326e-02  3.046875e-01
     vertex  1.185968e-01  4.019016e-02  3.046875e-01
   endloop
 endfacet
 facet normal  0.000000e+00  0.000000e+00  1.000000e+00
   outer loop
     vertex  1.185968e-01  6.160598e-01  3.046875e-01
     vertex  1.185968e-01  4.019016e-02  3.046875e-01
     vertex  1.780599e-01  1.263373e-01  3.046875e-01
   endloop
 endfacet
 facet normal  0.000000e+00  0.000000e+00  1.000000e+00
   outer loop
     vertex  1.185968e-01  6.160598e-01  3.046875e-01
     vertex  1.780599e-01  1.263373e-01  3.046875e-01
     vertex  2.151787e-01  4.320384e-01  3.046875e-01
   endloop
 endfacet
endsolid
