solid 
 facet normal  0.000000e+00 -1.000000e+00  0.000000e+00
   outer loop
     vertex  7.500000e-01  0.000000e+00  0.000000e+00
     vertex  0.000000e+00  0.000000e+00  7.031250e-02
     vertex  0.000000e+00  0.000000e+00  0.000000e+00
   endloop
 endfacet
 facet normal  0.000000e+00 -1.000000e+00  0.000000e+00
   outer loop
     vertex  7.500000e-01  0.000000e+00  0.000000e+00
     vertex  7.500000e-01  0.000000e+00  7.031250e-02
     vertex  0.000000e+00  0.000000e+00  7.031250e-02
   endloop
 endfacet
 facet normal -1.000000e+00  0.000000e+00  0.000000e+00
   outer loop
     vertex  0.000000e+00  0.000000e+00  0.000000e+00
     vertex  0.000000e+00  3.789474e-01  7.031250e-02
     vertex  0.000000e+00  3.789474e-01  0.000000e+00
   endloop
 endfacet
 facet normal -1.000000e+00  0.000000e+00  0.000000e+00
   outer loop
     vertex  0.000000e+00  0.000000e+00  0.000000e+00
     vertex  0.000000e+00  0.000000e+00  7.031250e-02
     vertex  0.000000e+00  3.789474e-01  7.031250e-02
   endloop
 endfacet
 facet normal  1.000000e+00  0.000000e+00  0.000000e+00
   outer loop
     vertex  7.500000e-01  3.789474e-01  0.000000e+00
     vertex  7.500000e-01  0.000000e+00  7.031250e-02
     vertex  7.500000e-01  0.000000e+00  0.000000e+00
   endloop
 endfacet
 facet normal  1.000000e+00  0.000000e+00 -0.000000e+00
   outer loop
     vertex  7.500000e-01  3.789474e-01  0.000000e+00
     vertex  7.500000e-01  3.789474e-01  7.031250e-02
     vertex  7.500000e-01  0.000000e+00  7.031250e-02
   endloop
 endfacet
 facet normal  0.000000e+00 -0.000000e+00 -1.000000e+00
   outer loop
     vertex  7.812500e-02  2.421875e-01  0.000000e+00
     vertex  1.175987e-01  2.027138e-01  0.000000e+00
     vertex  0.000000e+00  0.000000e+00  0.000000e+00
   endloop
 endfacet
 facet normal  0.000000e+00  0.000000e+00 -1.000000e+00
   outer loop
     vertex  0.000000e+00  3.789474e-01  0.000000e+00
     vertex  7.812500e-02  2.421875e-01  0.000000e+00
     vertex  0.000000e+00  0.000000e+00  0.000000e+00
   endloop
 endfacet
 facet normal -0.000000e+00  0.000000e+00 -1.000000e+00
   outer loop
     vertex  1.175987e-01  2.816612e-01  0.000000e+00
     vertex  7.812500e-02  2.421875e-01  0.000000e+00
     vertex  0.000000e+00  3.789474e-01  0.000000e+00
   endloop
 endfacet
 facet normal  0.000000e+00 -0.000000e+00 -1.000000e+00
   outer loop
     vertex  6.254112e-01  2.027138e-01  0.000000e+00
     vertex  7.500000e-01  0.000000e+00  0.000000e+00
     vertex  0.000000e+00  0.000000e+00  0.000000e+00
   endloop
 endfacet
 facet normal  0.000000e+00  0.000000e+00 -1.000000e+00
   outer loop
     vertex  6.254112e-01  2.027138e-01  0.000000e+00
     vertex  1.175987e-01  2.027138e-01  0.000000e+00
     vertex  1.570724e-01  2.421875e-01  0.000000e+00
   endloop
 endfacet
 facet normal -0.000000e+00  0.000000e+00 -1.000000e+00
   outer loop
     vertex  6.254112e-01  2.027138e-01  0.000000e+00
     vertex  0.000000e+00  0.000000e+00  0.000000e+00
     vertex  1.175987e-01  2.027138e-01  0.000000e+00
   endloop
 endfacet
 facet normal  0.000000e+00  0.000000e+00 -1.000000e+00
   outer loop
     vertex  6.254112e-01  2.027138e-01  0.000000e+00
     vertex  1.570724e-01  2.421875e-01  0.000000e+00
     vertex  5.859375e-01  2.421875e-01  0.000000e+00
   endloop
 endfacet
 facet normal  0.000000e+00 -0.000000e+00 -1.000000e+00
   outer loop
     vertex  6.648849e-01  2.421875e-01  0.000000e+00
     vertex  7.500000e-01  0.000000e+00  0.000000e+00
     vertex  6.254112e-01  2.027138e-01  0.000000e+00
   endloop
 endfacet
 facet normal -0.000000e+00  0.000000e+00 -1.000000e+00
   outer loop
     vertex  6.254112e-01  2.816612e-01  0.000000e+00
     vertex  1.570724e-01  2.421875e-01  0.000000e+00
     vertex  1.175987e-01  2.816612e-01  0.000000e+00
   endloop
 endfacet
 facet normal  0.000000e+00  0.000000e+00 -1.000000e+00
   outer loop
     vertex  6.254112e-01  2.816612e-01  0.000000e+00
     vertex  5.859375e-01  2.421875e-01  0.000000e+00
     vertex  1.570724e-01  2.421875e-01  0.000000e+00
   endloop
 endfacet
 facet normal  0.000000e+00  0.000000e+00 -1.000000e+00
   outer loop
     vertex  7.500000e-01  3.789474e-01  0.000000e+00
     vertex  6.648849e-01  2.421875e-01  0.000000e+00
     vertex  6.254112e-01  2.816612e-01  0.000000e+00
   endloop
 endfacet
 facet normal  0.000000e+00 -0.000000e+00 -1.000000e+00
   outer loop
     vertex  7.500000e-01  3.789474e-01  0.000000e+00
     vertex  7.500000e-01  0.000000e+00  0.000000e+00
     vertex  6.648849e-01  2.421875e-01  0.000000e+00
   endloop
 endfacet
 facet normal -0.000000e+00  0.000000e+00 -1.000000e+00
   outer loop
     vertex  7.500000e-01  3.789474e-01  0.000000e+00
     vertex  1.175987e-01  2.816612e-01  0.000000e+00
     vertex  0.000000e+00  3.789474e-01  0.000000e+00
   endloop
 endfacet
 facet normal  0.000000e+00  0.000000e+00 -1.000000e+00
   outer loop
     vertex  7.500000e-01  3.789474e-01  0.000000e+00
     vertex  6.254112e-01  2.816612e-01  0.000000e+00
     vertex  1.175987e-01  2.816612e-01  0.000000e+00
   endloop
 endfacet
 facet normal  0.000000e+00  0.000000e+00  1.000000e+00
   outer loop
     vertex  7.812500e-02  2.421875e-01  7.031250e-02
     vertex  0.000000e+00  0.000000e+00  7.031250e-02
     vertex  1.175987e-01  2.027138e-01  7.031250e-02
   endloop
 endfacet
 facet normal  0.000000e+00  0.000000e+00  1.000000e+00
   outer loop
     vertex  0.000000e+00  3.789474e-01  7.031250e-02
     vertex  0.000000e+00  0.000000e+00  7.031250e-02
     vertex  7.812500e-02  2.421875e-01  7.031250e-02
   endloop
 endfacet
 facet normal  0.000000e+00  0.000000e+00  1.000000e+00
   outer loop
     vertex  1.175987e-01  2.816612e-01  7.031250e-02
     vertex  0.000000e+00  3.789474e-01  7.031250e-02
     vertex  7.812500e-02  2.421875e-01  7.031250e-02
   endloop
 endfacet
 facet normal  0.000000e+00  0.000000e+00  1.000000e+00
   outer loop
     vertex  6.254112e-01  2.027138e-01  7.031250e-02
     vertex  0.000000e+00  0.000000e+00  7.031250e-02
     vertex  7.500000e-01  0.000000e+00  7.031250e-02
   endloop
 endfacet
 facet normal  0.000000e+00  0.000000e+00  1.000000e+00
   outer loop
     vertex  6.254112e-01  2.027138e-01  7.031250e-02
     vertex  1.570724e-01  2.421875e-01  7.031250e-02
     vertex  1.175987e-01  2.027138e-01  7.031250e-02
   endloop
 endfacet
 facet normal  0.000000e+00  0.000000e+00  1.000000e+00
   outer loop
     vertex  6.254112e-01  2.027138e-01  7.031250e-02
     vertex  1.175987e-01  2.027138e-01  7.031250e-02
     vertex  0.000000e+00  0.000000e+00  7.031250e-02
   endloop
 endfacet
 facet normal  0.000000e+00  0.000000e+00  1.000000e+00
   outer loop
     vertex  6.254112e-01  2.027138e-01  7.031250e-02
     vertex  5.859375e-01  2.421875e-01  7.031250e-02
     vertex  1.570724e-01  2.421875e-01  7.031250e-02
   endloop
 endfacet
 facet normal  0.000000e+00  0.000000e+00  1.000000e+00
   outer loop
     vertex  6.648849e-01  2.421875e-01  7.031250e-02
     vertex  6.254112e-01  2.027138e-01  7.031250e-02
     vertex  7.500000e-01  0.000000e+00  7.031250e-02
   endloop
 endfacet
 facet normal  0.000000e+00  0.000000e+00  1.000000e+00
   outer loop
     vertex  6.254112e-01  2.816612e-01  7.031250e-02
     vertex  1.175987e-01  2.816612e-01  7.031250e-02
     vertex  1.570724e-01  2.421875e-01  7.031250e-02
   endloop
 endfacet
 facet normal  0.000000e+00  0.000000e+00  1.000000e+00
   outer loop
     vertex  6.254112e-01  2.816612e-01  7.031250e-02
     vertex  1.570724e-01  2.421875e-01  7.031250e-02
     vertex  5.859375e-01  2.421875e-01  7.031250e-02
   endloop
 endfacet
 facet normal  0.000000e+00  0.000000e+00  1.000000e+00
   outer loop
     vertex  7.500000e-01  3.789474e-01  7.031250e-02
     vertex  6.254112e-01  2.816612e-01  7.031250e-02
     vertex  6.648849e-01  2.421875e-01  7.031250e-02
   endloop
 endfacet
 facet normal  0.000000e+00  0.000000e+00  1.000000e+00
   outer loop
     vertex  7.500000e-01  3.789474e-01  7.031250e-02
     vertex  6.648849e-01  2.421875e-01  7.031250e-02
     vertex  7.500000e-01  0.000000e+00  7.031250e-02
   endloop
 endfacet
 facet normal  0.000000e+00  0.000000e+00  1.000000e+00
   outer loop
     vertex  7.500000e-01  3.789474e-01  7.031250e-02
     vertex  0.000000e+00  3.789474e-01  7.031250e-02
     vertex  1.175987e-01  2.816612e-01  7.031250e-02
   endloop
 endfacet
 facet normal  0.000000e+00  0.000000e+00  1.000000e+00
   outer loop
     vertex  7.500000e-01  3.789474e-01  7.031250e-02
     vertex  1.175987e-01  2.816612e-01  7.031250e-02
     vertex  6.254112e-01  2.816612e-01  7.031250e-02
   endloop
 endfacet
 facet normal  0.000000e+00  1.000000e+00  0.000000e+00
   outer loop
     vertex  0.000000e+00  3.789474e-01  0.000000e+00
     vertex  7.500000e-01  3.789474e-01  7.031250e-02
     vertex  7.500000e-01  3.789474e-01  0.000000e+00
   endloop
 endfacet
 facet normal  0.000000e+00  1.000000e+00  0.000000e+00
   outer loop
     vertex  0.000000e+00  3.789474e-01  0.000000e+00
     vertex  0.000000e+00  3.789474e-01  7.031250e-02
     vertex  7.500000e-01  3.789474e-01  7.031250e-02
   endloop
 endfacet
 facet normal -7.071068e-01 -7.071068e-01  0.000000e+00
   outer loop
     vertex  1.175987e-01  2.816612e-01  7.031250e-02
     vertex  1.570724e-01  2.421875e-01  0.000000e+00
     vertex  1.570724e-01  2.421875e-01  7.031250e-02
   endloop
 endfacet
 facet normal -7.071068e-01 -7.071068e-01 -0.000000e+00
   outer loop
     vertex  1.175987e-01  2.816612e-01  7.031250e-02
     vertex  1.175987e-01  2.816612e-01  0.000000e+00
     vertex  1.570724e-01  2.421875e-01  0.000000e+00
   endloop
 endfacet
 facet normal  7.071068e-01 -7.071068e-01  0.000000e+00
   outer loop
     vertex  7.812500e-02  2.421875e-01  7.031250e-02
     vertex  7.812500e-02  2.421875e-01  0.000000e+00
     vertex  1.175987e-01  2.816612e-01  0.000000e+00
   endloop
 endfacet
 facet normal  7.071068e-01 -7.071068e-01  0.000000e+00
   outer loop
     vertex  7.812500e-02  2.421875e-01  7.031250e-02
     vertex  1.175987e-01  2.816612e-01  0.000000e+00
     vertex  1.175987e-01  2.816612e-01  7.031250e-02
   endloop
 endfacet
 facet normal  7.071068e-01  7.071068e-01  0.000000e+00
   outer loop
     vertex  1.175987e-01  2.027138e-01  7.031250e-02
     vertex  1.175987e-01  2.027138e-01  0.000000e+00
     vertex  7.812500e-02  2.421875e-01  0.000000e+00
   endloop
 endfacet
 facet normal  7.071068e-01  7.071068e-01  0.000000e+00
   outer loop
     vertex  1.175987e-01  2.027138e-01  7.031250e-02
     vertex  7.812500e-02  2.421875e-01  0.000000e+00
     vertex  7.812500e-02  2.421875e-01  7.031250e-02
   endloop
 endfacet
 facet normal -7.071068e-01  7.071068e-01  0.000000e+00
   outer loop
     vertex  1.570724e-01  2.421875e-01  7.031250e-02
     vertex  1.570724e-01  2.421875e-01  0.000000e+00
     vertex  1.175987e-01  2.027138e-01  0.000000e+00
   endloop
 endfacet
 facet normal -7.071068e-01  7.071068e-01  0.000000e+00
   outer loop
     vertex  1.570724e-01  2.421875e-01  7.031250e-02
     vertex  1.175987e-01  2.027138e-01  0.000000e+00
     vertex  1.175987e-01  2.027138e-01  7.031250e-02
   endloop
 endfacet
 facet normal -7.071068e-01 -7.071068e-01  0.000000e+00
   outer loop
     vertex  6.254112e-01  2.816612e-01  7.031250e-02
     vertex  6.648849e-01  2.421875e-01  0.000000e+00
     vertex  6.648849e-01  2.421875e-01  7.031250e-02
   endloop
 endfacet
 facet normal -7.071068e-01 -7.071068e-01 -0.000000e+00
   outer loop
     vertex  6.254112e-01  2.816612e-01  7.031250e-02
     vertex  6.254112e-01  2.816612e-01  0.000000e+00
     vertex  6.648849e-01  2.421875e-01  0.000000e+00
   endloop
 endfacet
 facet normal  7.071068e-01 -7.071068e-01  0.000000e+00
   outer loop
     vertex  5.859375e-01  2.421875e-01  7.031250e-02
     vertex  5.859375e-01  2.421875e-01  0.000000e+00
     vertex  6.254112e-01  2.816612e-01  0.000000e+00
   endloop
 endfacet
 facet normal  7.071068e-01 -7.071068e-01  0.000000e+00
   outer loop
     vertex  5.859375e-01  2.421875e-01  7.031250e-02
     vertex  6.254112e-01  2.816612e-01  0.000000e+00
     vertex  6.254112e-01  2.816612e-01  7.031250e-02
   endloop
 endfacet
 facet normal  7.071068e-01  7.071068e-01  0.000000e+00
   outer loop
     vertex  6.254112e-01  2.027138e-01  7.031250e-02
     vertex  6.254112e-01  2.027138e-01  0.000000e+00
     vertex  5.859375e-01  2.421875e-01  0.000000e+00
   endloop
 endfacet
 facet normal  7.071068e-01  7.071068e-01  0.000000e+00
   outer loop
     vertex  6.254112e-01  2.027138e-01  7.031250e-02
     vertex  5.859375e-01  2.421875e-01  0.000000e+00
     vertex  5.859375e-01  2.421875e-01  7.031250e-02
   endloop
 endfacet
 facet normal -7.071068e-01  7.071068e-01  0.000000e+00
   outer loop
     vertex  6.648849e-01  2.421875e-01  7.031250e-02
     vertex  6.648849e-01  2.421875e-01  0.000000e+00
     vertex  6.254112e-01  2.027138e-01  0.000000e+00
   endloop
 endfacet
 facet normal -7.071068e-01  7.071068e-01  0.000000e+00
   outer loop
     vertex  6.648849e-01  2.421875e-01  7.031250e-02
     vertex  6.254112e-01  2.027138e-01  0.000000e+00
     vertex  6.254112e-01  2.027138e-01  7.031250e-02
   endloop
 endfacet
endsolid
