solid 
 facet normal  0.000000e+00  0.000000e+00 -1.000000e+00
   outer loop
     vertex  7.500000e-01  8.754311e-17 -2.343750e-01
     vertex -6.796875e-01 -5.468750e-02 -2.343750e-01
     vertex -6.796875e-01  0.000000e+00 -2.343750e-01
   endloop
 endfacet
 facet normal  0.000000e+00 -0.000000e+00 -1.000000e+00
   outer loop
     vertex  7.500000e-01  8.754311e-17 -2.343750e-01
     vertex  7.500000e-01 -5.468750e-02 -2.343750e-01
     vertex -6.796875e-01 -5.468750e-02 -2.343750e-01
   endloop
 endfacet
 facet normal  1.000000e+00  0.000000e+00  0.000000e+00
   outer loop
     vertex  7.500000e-01  1.078163e-16  9.671053e-02
     vertex  7.500000e-01 -5.468750e-02 -2.343750e-01
     vertex  7.500000e-01  8.754311e-17 -2.343750e-01
   endloop
 endfacet
 facet normal  1.000000e+00  0.000000e+00  0.000000e+00
   outer loop
     vertex  7.500000e-01  1.078163e-16  9.671053e-02
     vertex  7.500000e-01 -5.468750e-02  9.671053e-02
     vertex  7.500000e-01 -5.468750e-02 -2.343750e-01
   endloop
 endfacet
 facet normal -0.000000e+00  0.000000e+00  1.000000e+00
   outer loop
     vertex -6.796875e-01  2.027314e-17  9.671053e-02
     vertex  7.500000e-01 -5.468750e-02  9.671053e-02
     vertex  7.500000e-01  1.078163e-16  9.671053e-02
   endloop
 endfacet
 facet normal  0.000000e+00  0.000000e+00  1.000000e+00
   outer loop
     vertex -6.796875e-01  2.027314e-17  9.671053e-02
     vertex -6.796875e-01 -5.468750e-02  9.671053e-02
     vertex  7.500000e-01 -5.468750e-02  9.671053e-02
   endloop
 endfacet
 facet normal -1.000000e+00  0.000000e+00  0.000000e+00
   outer loop
     vertex -6.796875e-01  0.000000e+00 -2.343750e-01
     vertex -6.796875e-01 -5.468750e-02  9.671053e-02
     vertex -6.796875e-01  2.027314e-17  9.671053e-02
   endloop
 endfacet
 facet normal -1.000000e+00  0.000000e+00  0.000000e+00
   outer loop
     vertex -6.796875e-01  0.000000e+00 -2.343750e-01
     vertex -6.796875e-01 -5.468750e-02 -2.343750e-01
     vertex -6.796875e-01 -5.468750e-02  9.671053e-02
   endloop
 endfacet
 facet normal -6.123234e-17  1.000000e+00 -6.123234e-17
   outer loop
     vertex  7.500000e-01  1.078163e-16  9.671053e-02
     vertex  7.500000e-01  8.754311e-17 -2.343750e-01
     vertex -6.796875e-01  0.000000e+00 -2.343750e-01
   endloop
 endfacet
 facet normal -6.123234e-17  1.000000e+00 -6.123234e-17
   outer loop
     vertex  7.500000e-01  1.078163e-16  9.671053e-02
     vertex -6.796875e-01  0.000000e+00 -2.343750e-01
     vertex -6.796875e-01  2.027314e-17  9.671053e-02
   endloop
 endfacet
 facet normal  0.000000e+00 -1.000000e+00 -0.000000e+00
   outer loop
     vertex  7.500000e-01 -5.468750e-02  9.671053e-02
     vertex -6.796875e-01 -5.468750e-02 -2.343750e-01
     vertex  7.500000e-01 -5.468750e-02 -2.343750e-01
   endloop
 endfacet
 facet normal -0.000000e+00 -1.000000e+00  0.000000e+00
   outer loop
     vertex  7.500000e-01 -5.468750e-02  9.671053e-02
     vertex -6.796875e-01 -5.468750e-02  9.671053e-02
     vertex -6.796875e-01 -5.468750e-02 -2.343750e-01
   endloop
 endfacet
endsolid
