solid 
 facet normal  0.000000e+00  0.000000e+00 -1.000000e+00
   outer loop
     vertex  1.595395e-01  5.569323e-17 -6.406250e-01
     vertex -7.500000e-01 -1.093750e-01 -6.406250e-01
     vertex -7.500000e-01  0.000000e+00 -6.406250e-01
   endloop
 endfacet
 facet normal  0.000000e+00 -0.000000e+00 -1.000000e+00
   outer loop
     vertex  1.595395e-01  5.569323e-17 -6.406250e-01
     vertex  1.595395e-01 -1.093750e-01 -6.406250e-01
     vertex -7.500000e-01 -1.093750e-01 -6.406250e-01
   endloop
 endfacet
 facet normal -1.000000e+00  0.000000e+00  0.000000e+00
   outer loop
     vertex -7.500000e-01  0.000000e+00 -6.406250e-01
     vertex -7.500000e-01 -1.093750e-01 -2.378289e-01
     vertex -7.500000e-01  2.466414e-17 -2.378289e-01
   endloop
 endfacet
 facet normal -1.000000e+00  0.000000e+00  0.000000e+00
   outer loop
     vertex -7.500000e-01  0.000000e+00 -6.406250e-01
     vertex -7.500000e-01 -1.093750e-01 -6.406250e-01
     vertex -7.500000e-01 -1.093750e-01 -2.378289e-01
   endloop
 endfacet
 facet normal  1.000000e+00  0.000000e+00  0.000000e+00
   outer loop
     vertex  1.595395e-01  7.080996e-17 -3.937500e-01
     vertex  1.595395e-01 -1.093750e-01 -6.406250e-01
     vertex  1.595395e-01  5.569323e-17 -6.406250e-01
   endloop
 endfacet
 facet normal  1.000000e+00  0.000000e+00  0.000000e+00
   outer loop
     vertex  1.595395e-01  7.080996e-17 -3.937500e-01
     vertex  1.595395e-01 -1.093750e-01 -3.937500e-01
     vertex  1.595395e-01 -1.093750e-01 -6.406250e-01
   endloop
 endfacet
 facet normal -0.000000e+00  0.000000e+00 -1.000000e+00
   outer loop
     vertex  1.595395e-01  5.569323e-17 -6.406250e-01
     vertex -7.500000e-01  0.000000e+00 -6.406250e-01
     vertex -7.500000e-01  1.093750e-01 -6.406250e-01
   endloop
 endfacet
 facet normal  0.000000e+00  0.000000e+00 -1.000000e+00
   outer loop
     vertex  1.595395e-01  5.569323e-17 -6.406250e-01
     vertex -7.500000e-01  1.093750e-01 -6.406250e-01
     vertex  1.595395e-01  1.093750e-01 -6.406250e-01
   endloop
 endfacet
 facet normal -0.000000e+00 -1.000000e+00  0.000000e+00
   outer loop
     vertex -4.901316e-01 -1.093750e-01 -4.327303e-01
     vertex -7.500000e-01 -1.093750e-01 -2.378289e-01
     vertex -7.500000e-01 -1.093750e-01 -6.406250e-01
   endloop
 endfacet
 facet normal -1.296596e-16 -1.000000e+00  1.620745e-16
   outer loop
     vertex -4.901316e-01 -1.093750e-01 -4.327303e-01
     vertex -7.500000e-01 -1.093750e-01 -6.406250e-01
     vertex -4.634918e-01 -1.093750e-01 -4.970444e-01
   endloop
 endfacet
 facet normal  9.621748e-17 -1.000000e+00 -2.886524e-16
   outer loop
     vertex -3.991776e-01 -1.093750e-01 -5.236842e-01
     vertex -4.634918e-01 -1.093750e-01 -4.970444e-01
     vertex -7.500000e-01 -1.093750e-01 -6.406250e-01
   endloop
 endfacet
 facet normal -0.000000e+00 -1.000000e+00  0.000000e+00
   outer loop
     vertex -4.634918e-01 -1.093750e-01 -3.684161e-01
     vertex -7.500000e-01 -1.093750e-01 -2.378289e-01
     vertex -4.901316e-01 -1.093750e-01 -4.327303e-01
   endloop
 endfacet
 facet normal -0.000000e+00 -1.000000e+00  0.000000e+00
   outer loop
     vertex -3.991776e-01 -1.093750e-01 -3.417763e-01
     vertex -7.500000e-01 -1.093750e-01 -2.378289e-01
     vertex -4.634918e-01 -1.093750e-01 -3.684161e-01
   endloop
 endfacet
 facet normal  0.000000e+00 -1.000000e+00  0.000000e+00
   outer loop
     vertex  1.595395e-01 -1.093750e-01 -6.406250e-01
     vertex -8.733553e-02 -1.093750e-01 -5.236842e-01
     vertex -3.991776e-01 -1.093750e-01 -5.236842e-01
   endloop
 endfacet
 facet normal  0.000000e+00 -1.000000e+00  0.000000e+00
   outer loop
     vertex  1.595395e-01 -1.093750e-01 -6.406250e-01
     vertex -2.302137e-02 -1.093750e-01 -4.970444e-01
     vertex -8.733553e-02 -1.093750e-01 -5.236842e-01
   endloop
 endfacet
 facet normal  0.000000e+00 -1.000000e+00  0.000000e+00
   outer loop
     vertex  1.595395e-01 -1.093750e-01 -6.406250e-01
     vertex -3.991776e-01 -1.093750e-01 -5.236842e-01
     vertex -7.500000e-01 -1.093750e-01 -6.406250e-01
   endloop
 endfacet
 facet normal  0.000000e+00 -1.000000e+00  0.000000e+00
   outer loop
     vertex  1.595395e-01 -1.093750e-01 -3.937500e-01
     vertex  3.618421e-03 -1.093750e-01 -4.327303e-01
     vertex -2.302137e-02 -1.093750e-01 -4.970444e-01
   endloop
 endfacet
 facet normal -4.888328e-17 -1.000000e+00  1.955331e-16
   outer loop
     vertex  1.595395e-01 -1.093750e-01 -3.937500e-01
     vertex -2.302137e-02 -1.093750e-01 -3.684161e-01
     vertex  3.618421e-03 -1.093750e-01 -4.327303e-01
   endloop
 endfacet
 facet normal  0.000000e+00 -1.000000e+00 -0.000000e+00
   outer loop
     vertex  1.595395e-01 -1.093750e-01 -3.937500e-01
     vertex -2.302137e-02 -1.093750e-01 -4.970444e-01
     vertex  1.595395e-01 -1.093750e-01 -6.406250e-01
   endloop
 endfacet
 facet normal  0.000000e+00 -1.000000e+00 -0.000000e+00
   outer loop
     vertex  2.500000e-01 -1.093750e-01 -3.879934e-01
     vertex  1.595395e-01 -1.093750e-01 -3.937500e-01
     vertex  2.500000e-01 -1.093750e-01 -3.937500e-01
   endloop
 endfacet
 facet normal  9.404620e-17 -1.000000e+00 -2.938944e-16
   outer loop
     vertex  2.375000e-01 -1.093750e-01 -2.378289e-01
     vertex -8.733553e-02 -1.093750e-01 -3.417763e-01
     vertex -2.302137e-02 -1.093750e-01 -3.684161e-01
   endloop
 endfacet
 facet normal -7.108510e-17 -1.000000e+00  3.554255e-17
   outer loop
     vertex  2.375000e-01 -1.093750e-01 -2.378289e-01
     vertex -2.302137e-02 -1.093750e-01 -3.684161e-01
     vertex  1.595395e-01 -1.093750e-01 -3.937500e-01
   endloop
 endfacet
 facet normal  0.000000e+00 -1.000000e+00 -0.000000e+00
   outer loop
     vertex  2.375000e-01 -1.093750e-01 -2.378289e-01
     vertex  1.595395e-01 -1.093750e-01 -3.937500e-01
     vertex  2.500000e-01 -1.093750e-01 -3.879934e-01
   endloop
 endfacet
 facet normal  0.000000e+00 -1.000000e+00 -0.000000e+00
   outer loop
     vertex  3.804276e-01 -1.093750e-01 -2.378289e-01
     vertex  2.500000e-01 -1.093750e-01 -3.879934e-01
     vertex  4.805373e-01 -1.093750e-01 -3.879934e-01
   endloop
 endfacet
 facet normal -0.000000e+00 -1.000000e+00  0.000000e+00
   outer loop
     vertex  3.804276e-01 -1.093750e-01 -2.378289e-01
     vertex  2.375000e-01 -1.093750e-01 -2.378289e-01
     vertex  2.500000e-01 -1.093750e-01 -3.879934e-01
   endloop
 endfacet
 facet normal -0.000000e+00 -1.000000e+00  0.000000e+00
   outer loop
     vertex  2.375000e-01 -1.093750e-01 -2.378289e-01
     vertex -7.500000e-01 -1.093750e-01 -2.378289e-01
     vertex -3.991776e-01 -1.093750e-01 -3.417763e-01
   endloop
 endfacet
 facet normal  0.000000e+00 -1.000000e+00  0.000000e+00
   outer loop
     vertex  2.375000e-01 -1.093750e-01 -2.378289e-01
     vertex -3.991776e-01 -1.093750e-01 -3.417763e-01
     vertex -8.733553e-02 -1.093750e-01 -3.417763e-01
   endloop
 endfacet
 facet normal -0.000000e+00  0.000000e+00  1.000000e+00
   outer loop
     vertex -7.500000e-01  2.466414e-17 -2.378289e-01
     vertex  2.375000e-01 -1.093750e-01 -2.378289e-01
     vertex  2.375000e-01  8.513108e-17 -2.378289e-01
   endloop
 endfacet
 facet normal  0.000000e+00  0.000000e+00  1.000000e+00
   outer loop
     vertex -7.500000e-01  2.466414e-17 -2.378289e-01
     vertex -7.500000e-01 -1.093750e-01 -2.378289e-01
     vertex  2.375000e-01 -1.093750e-01 -2.378289e-01
   endloop
 endfacet
 facet normal -1.000000e+00  0.000000e+00  0.000000e+00
   outer loop
     vertex -7.500000e-01  0.000000e+00 -6.406250e-01
     vertex -7.500000e-01  2.466414e-17 -2.378289e-01
     vertex -7.500000e-01  1.093750e-01 -2.378289e-01
   endloop
 endfacet
 facet normal -1.000000e+00  0.000000e+00  0.000000e+00
   outer loop
     vertex -7.500000e-01  0.000000e+00 -6.406250e-01
     vertex -7.500000e-01  1.093750e-01 -2.378289e-01
     vertex -7.500000e-01  1.093750e-01 -6.406250e-01
   endloop
 endfacet
 facet normal -0.000000e+00  0.000000e+00 -1.000000e+00
   outer loop
     vertex  2.500000e-01  4.573290e-17 -3.937500e-01
     vertex  1.595395e-01 -1.093750e-01 -3.937500e-01
     vertex  1.595395e-01  7.080996e-17 -3.937500e-01
   endloop
 endfacet
 facet normal  0.000000e+00 -0.000000e+00 -1.000000e+00
   outer loop
     vertex  2.500000e-01  4.573290e-17 -3.937500e-01
     vertex  2.500000e-01 -1.093750e-01 -3.937500e-01
     vertex  1.595395e-01 -1.093750e-01 -3.937500e-01
   endloop
 endfacet
 facet normal  1.000000e+00  0.000000e+00  0.000000e+00
   outer loop
     vertex  1.595395e-01  7.080996e-17 -3.937500e-01
     vertex  1.595395e-01  5.569323e-17 -6.406250e-01
     vertex  1.595395e-01  1.093750e-01 -6.406250e-01
   endloop
 endfacet
 facet normal  1.000000e+00 -0.000000e+00  0.000000e+00
   outer loop
     vertex  1.595395e-01  7.080996e-17 -3.937500e-01
     vertex  1.595395e-01  1.093750e-01 -6.406250e-01
     vertex  1.595395e-01  1.093750e-01 -3.937500e-01
   endloop
 endfacet
 facet normal  0.000000e+00  1.000000e+00  0.000000e+00
   outer loop
     vertex -4.901316e-01  1.093750e-01 -4.327303e-01
     vertex -7.500000e-01  1.093750e-01 -6.406250e-01
     vertex -7.500000e-01  1.093750e-01 -2.378289e-01
   endloop
 endfacet
 facet normal  1.296596e-16  1.000000e+00 -1.620745e-16
   outer loop
     vertex -4.901316e-01  1.093750e-01 -4.327303e-01
     vertex -4.634918e-01  1.093750e-01 -4.970444e-01
     vertex -7.500000e-01  1.093750e-01 -6.406250e-01
   endloop
 endfacet
 facet normal -9.621748e-17  1.000000e+00  2.886524e-16
   outer loop
     vertex -3.991776e-01  1.093750e-01 -5.236842e-01
     vertex -7.500000e-01  1.093750e-01 -6.406250e-01
     vertex -4.634918e-01  1.093750e-01 -4.970444e-01
   endloop
 endfacet
 facet normal  0.000000e+00  1.000000e+00  0.000000e+00
   outer loop
     vertex -4.634918e-01  1.093750e-01 -3.684161e-01
     vertex -4.901316e-01  1.093750e-01 -4.327303e-01
     vertex -7.500000e-01  1.093750e-01 -2.378289e-01
   endloop
 endfacet
 facet normal  0.000000e+00  1.000000e+00  0.000000e+00
   outer loop
     vertex -3.991776e-01  1.093750e-01 -3.417763e-01
     vertex -4.634918e-01  1.093750e-01 -3.684161e-01
     vertex -7.500000e-01  1.093750e-01 -2.378289e-01
   endloop
 endfacet
 facet normal  0.000000e+00  1.000000e+00  0.000000e+00
   outer loop
     vertex  1.595395e-01  1.093750e-01 -6.406250e-01
     vertex -3.991776e-01  1.093750e-01 -5.236842e-01
     vertex -8.733553e-02  1.093750e-01 -5.236842e-01
   endloop
 endfacet
 facet normal  0.000000e+00  1.000000e+00  0.000000e+00
   outer loop
     vertex  1.595395e-01  1.093750e-01 -6.406250e-01
     vertex -8.733553e-02  1.093750e-01 -5.236842e-01
     vertex -2.302137e-02  1.093750e-01 -4.970444e-01
   endloop
 endfacet
 facet normal  0.000000e+00  1.000000e+00  0.000000e+00
   outer loop
     vertex  1.595395e-01  1.093750e-01 -6.406250e-01
     vertex -7.500000e-01  1.093750e-01 -6.406250e-01
     vertex -3.991776e-01  1.093750e-01 -5.236842e-01
   endloop
 endfacet
 facet normal  0.000000e+00  1.000000e+00  0.000000e+00
   outer loop
     vertex  1.595395e-01  1.093750e-01 -3.937500e-01
     vertex -2.302137e-02  1.093750e-01 -4.970444e-01
     vertex  3.618421e-03  1.093750e-01 -4.327303e-01
   endloop
 endfacet
 facet normal  4.888328e-17  1.000000e+00 -1.955331e-16
   outer loop
     vertex  1.595395e-01  1.093750e-01 -3.937500e-01
     vertex  3.618421e-03  1.093750e-01 -4.327303e-01
     vertex -2.302137e-02  1.093750e-01 -3.684161e-01
   endloop
 endfacet
 facet normal  0.000000e+00  1.000000e+00  0.000000e+00
   outer loop
     vertex  1.595395e-01  1.093750e-01 -3.937500e-01
     vertex  1.595395e-01  1.093750e-01 -6.406250e-01
     vertex -2.302137e-02  1.093750e-01 -4.970444e-01
   endloop
 endfacet
 facet normal  0.000000e+00  1.000000e+00  0.000000e+00
   outer loop
     vertex  2.500000e-01  1.093750e-01 -3.879934e-01
     vertex  2.500000e-01  1.093750e-01 -3.937500e-01
     vertex  1.595395e-01  1.093750e-01 -3.937500e-01
   endloop
 endfacet
 facet normal -9.404620e-17  1.000000e+00  2.938944e-16
   outer loop
     vertex  2.375000e-01  1.093750e-01 -2.378289e-01
     vertex -2.302137e-02  1.093750e-01 -3.684161e-01
     vertex -8.733553e-02  1.093750e-01 -3.417763e-01
   endloop
 endfacet
 facet normal  7.108510e-17  1.000000e+00 -3.554255e-17
   outer loop
     vertex  2.375000e-01  1.093750e-01 -2.378289e-01
     vertex  1.595395e-01  1.093750e-01 -3.937500e-01
     vertex -2.302137e-02  1.093750e-01 -3.684161e-01
   endloop
 endfacet
 facet normal  0.000000e+00  1.000000e+00  0.000000e+00
   outer loop
     vertex  2.375000e-01  1.093750e-01 -2.378289e-01
     vertex  2.500000e-01  1.093750e-01 -3.879934e-01
     vertex  1.595395e-01  1.093750e-01 -3.937500e-01
   endloop
 endfacet
 facet normal  0.000000e+00  1.000000e+00  0.000000e+00
   outer loop
     vertex  3.804276e-01  1.093750e-01 -2.378289e-01
     vertex  4.805373e-01  1.093750e-01 -3.879934e-01
     vertex  2.500000e-01  1.093750e-01 -3.879934e-01
   endloop
 endfacet
 facet normal  0.000000e+00  1.000000e+00  0.000000e+00
   outer loop
     vertex  3.804276e-01  1.093750e-01 -2.378289e-01
     vertex  2.500000e-01  1.093750e-01 -3.879934e-01
     vertex  2.375000e-01  1.093750e-01 -2.378289e-01
   endloop
 endfacet
 facet normal  0.000000e+00  1.000000e+00  0.000000e+00
   outer loop
     vertex  2.375000e-01  1.093750e-01 -2.378289e-01
     vertex -3.991776e-01  1.093750e-01 -3.417763e-01
     vertex -7.500000e-01  1.093750e-01 -2.378289e-01
   endloop
 endfacet
 facet normal  0.000000e+00  1.000000e+00  0.000000e+00
   outer loop
     vertex  2.375000e-01  1.093750e-01 -2.378289e-01
     vertex -8.733553e-02  1.093750e-01 -3.417763e-01
     vertex -3.991776e-01  1.093750e-01 -3.417763e-01
   endloop
 endfacet
 facet normal -0.000000e+00  0.000000e+00  1.000000e+00
   outer loop
     vertex  2.375000e-01  8.513108e-17 -2.378289e-01
     vertex  3.804276e-01 -1.093750e-01 -2.378289e-01
     vertex  3.804276e-01  9.388287e-17 -2.378289e-01
   endloop
 endfacet
 facet normal  0.000000e+00  0.000000e+00  1.000000e+00
   outer loop
     vertex  2.375000e-01  8.513108e-17 -2.378289e-01
     vertex  2.375000e-01 -1.093750e-01 -2.378289e-01
     vertex  3.804276e-01 -1.093750e-01 -2.378289e-01
   endloop
 endfacet
 facet normal  8.320503e-01  0.000000e+00  5.547002e-01
   outer loop
     vertex  3.804276e-01  9.388287e-17 -2.378289e-01
     vertex  4.805373e-01 -1.093750e-01 -3.879934e-01
     vertex  4.805373e-01  6.020173e-17 -3.879934e-01
   endloop
 endfacet
 facet normal  8.320503e-01  0.000000e+00  5.547002e-01
   outer loop
     vertex  3.804276e-01  9.388287e-17 -2.378289e-01
     vertex  3.804276e-01 -1.093750e-01 -2.378289e-01
     vertex  4.805373e-01 -1.093750e-01 -3.879934e-01
   endloop
 endfacet
 facet normal  0.000000e+00  0.000000e+00  1.000000e+00
   outer loop
     vertex  5.026316e-01  3.093845e-17 -3.879934e-01
     vertex  4.805373e-01 -1.093750e-01 -3.879934e-01
     vertex  5.026316e-01 -1.796875e-01 -3.879934e-01
   endloop
 endfacet
 facet normal  0.000000e+00  0.000000e+00  1.000000e+00
   outer loop
     vertex  4.805373e-01  6.020173e-17 -3.879934e-01
     vertex  4.805373e-01 -1.093750e-01 -3.879934e-01
     vertex  5.026316e-01  3.093845e-17 -3.879934e-01
   endloop
 endfacet
 facet normal  0.000000e+00  0.000000e+00  1.000000e+00
   outer loop
     vertex  2.500000e-01 -1.796875e-01 -3.879934e-01
     vertex  5.026316e-01 -1.796875e-01 -3.879934e-01
     vertex  4.805373e-01 -1.093750e-01 -3.879934e-01
   endloop
 endfacet
 facet normal -0.000000e+00  0.000000e+00  1.000000e+00
   outer loop
     vertex  2.500000e-01 -1.093750e-01 -3.879934e-01
     vertex  2.500000e-01 -1.796875e-01 -3.879934e-01
     vertex  4.805373e-01 -1.093750e-01 -3.879934e-01
   endloop
 endfacet
 facet normal -1.000000e+00  0.000000e+00  0.000000e+00
   outer loop
     vertex  2.500000e-01 -1.093750e-01 -3.937500e-01
     vertex  2.500000e-01 -1.796875e-01 -3.879934e-01
     vertex  2.500000e-01 -1.093750e-01 -3.879934e-01
   endloop
 endfacet
 facet normal -1.000000e+00  0.000000e+00  0.000000e+00
   outer loop
     vertex  2.500000e-01 -1.796875e-01 -6.406250e-01
     vertex  2.500000e-01 -1.796875e-01 -3.879934e-01
     vertex  2.500000e-01 -1.093750e-01 -3.937500e-01
   endloop
 endfacet
 facet normal -1.000000e+00  0.000000e+00  0.000000e+00
   outer loop
     vertex  2.500000e-01  0.000000e+00 -6.406250e-01
     vertex  2.500000e-01 -1.093750e-01 -3.937500e-01
     vertex  2.500000e-01  4.573290e-17 -3.937500e-01
   endloop
 endfacet
 facet normal -1.000000e+00  0.000000e+00  0.000000e+00
   outer loop
     vertex  2.500000e-01  0.000000e+00 -6.406250e-01
     vertex  2.500000e-01 -1.796875e-01 -6.406250e-01
     vertex  2.500000e-01 -1.093750e-01 -3.937500e-01
   endloop
 endfacet
 facet normal  0.000000e+00  0.000000e+00  1.000000e+00
   outer loop
     vertex -8.733553e-02  4.773705e-17 -5.236842e-01
     vertex -3.991776e-01  2.864223e-17 -5.236842e-01
     vertex -3.991776e-01 -1.093750e-01 -5.236842e-01
   endloop
 endfacet
 facet normal  0.000000e+00  0.000000e+00  1.000000e+00
   outer loop
     vertex -8.733553e-02  4.773705e-17 -5.236842e-01
     vertex -3.991776e-01 -1.093750e-01 -5.236842e-01
     vertex -8.733553e-02 -1.093750e-01 -5.236842e-01
   endloop
 endfacet
 facet normal  3.826834e-01  0.000000e+00  9.238795e-01
   outer loop
     vertex -4.634918e-01  2.633534e-17 -4.970444e-01
     vertex -3.991776e-01 -1.093750e-01 -5.236842e-01
     vertex -3.991776e-01  2.864223e-17 -5.236842e-01
   endloop
 endfacet
 facet normal  3.826834e-01  0.000000e+00  9.238795e-01
   outer loop
     vertex -4.634918e-01  2.633534e-17 -4.970444e-01
     vertex -4.634918e-01 -1.093750e-01 -4.970444e-01
     vertex -3.991776e-01 -1.093750e-01 -5.236842e-01
   endloop
 endfacet
 facet normal  9.238795e-01  0.000000e+00  3.826834e-01
   outer loop
     vertex -4.901316e-01  2.864223e-17 -4.327303e-01
     vertex -4.901316e-01 -1.093750e-01 -4.327303e-01
     vertex -4.634918e-01 -1.093750e-01 -4.970444e-01
   endloop
 endfacet
 facet normal  9.238795e-01  0.000000e+00  3.826834e-01
   outer loop
     vertex -4.901316e-01  2.864223e-17 -4.327303e-01
     vertex -4.634918e-01 -1.093750e-01 -4.970444e-01
     vertex -4.634918e-01  2.633534e-17 -4.970444e-01
   endloop
 endfacet
 facet normal  9.238795e-01  0.000000e+00 -3.826834e-01
   outer loop
     vertex -4.634918e-01  3.421156e-17 -3.684161e-01
     vertex -4.634918e-01 -1.093750e-01 -3.684161e-01
     vertex -4.901316e-01 -1.093750e-01 -4.327303e-01
   endloop
 endfacet
 facet normal  9.238795e-01  0.000000e+00 -3.826834e-01
   outer loop
     vertex -4.634918e-01  3.421156e-17 -3.684161e-01
     vertex -4.901316e-01 -1.093750e-01 -4.327303e-01
     vertex -4.901316e-01  2.864223e-17 -4.327303e-01
   endloop
 endfacet
 facet normal  3.826834e-01  0.000000e+00 -9.238795e-01
   outer loop
     vertex -3.991776e-01  3.978088e-17 -3.417763e-01
     vertex -3.991776e-01 -1.093750e-01 -3.417763e-01
     vertex -4.634918e-01 -1.093750e-01 -3.684161e-01
   endloop
 endfacet
 facet normal  3.826834e-01  0.000000e+00 -9.238795e-01
   outer loop
     vertex -3.991776e-01  3.978088e-17 -3.417763e-01
     vertex -4.634918e-01 -1.093750e-01 -3.684161e-01
     vertex -4.634918e-01  3.421156e-17 -3.684161e-01
   endloop
 endfacet
 facet normal -3.826834e-01  0.000000e+00 -9.238795e-01
   outer loop
     vertex -2.302137e-02  6.118259e-17 -3.684161e-01
     vertex -8.733553e-02 -1.093750e-01 -3.417763e-01
     vertex -8.733553e-02  5.887570e-17 -3.417763e-01
   endloop
 endfacet
 facet normal -3.826834e-01 -0.000000e+00 -9.238795e-01
   outer loop
     vertex -2.302137e-02  6.118259e-17 -3.684161e-01
     vertex -2.302137e-02 -1.093750e-01 -3.684161e-01
     vertex -8.733553e-02 -1.093750e-01 -3.417763e-01
   endloop
 endfacet
 facet normal -9.238795e-01 -0.000000e+00 -3.826834e-01
   outer loop
     vertex  3.618421e-03  5.887570e-17 -4.327303e-01
     vertex  3.618421e-03 -1.093750e-01 -4.327303e-01
     vertex -2.302137e-02 -1.093750e-01 -3.684161e-01
   endloop
 endfacet
 facet normal -9.238795e-01  0.000000e+00 -3.826834e-01
   outer loop
     vertex  3.618421e-03  5.887570e-17 -4.327303e-01
     vertex -2.302137e-02 -1.093750e-01 -3.684161e-01
     vertex -2.302137e-02  6.118259e-17 -3.684161e-01
   endloop
 endfacet
 facet normal -9.238795e-01  0.000000e+00  3.826834e-01
   outer loop
     vertex -2.302137e-02  5.330638e-17 -4.970444e-01
     vertex -2.302137e-02 -1.093750e-01 -4.970444e-01
     vertex  3.618421e-03 -1.093750e-01 -4.327303e-01
   endloop
 endfacet
 facet normal -9.238795e-01  0.000000e+00  3.826834e-01
   outer loop
     vertex -2.302137e-02  5.330638e-17 -4.970444e-01
     vertex  3.618421e-03 -1.093750e-01 -4.327303e-01
     vertex  3.618421e-03  5.887570e-17 -4.327303e-01
   endloop
 endfacet
 facet normal -3.826834e-01  0.000000e+00  9.238795e-01
   outer loop
     vertex -8.733553e-02  4.773705e-17 -5.236842e-01
     vertex -8.733553e-02 -1.093750e-01 -5.236842e-01
     vertex -2.302137e-02 -1.093750e-01 -4.970444e-01
   endloop
 endfacet
 facet normal -3.826834e-01  0.000000e+00  9.238795e-01
   outer loop
     vertex -8.733553e-02  4.773705e-17 -5.236842e-01
     vertex -2.302137e-02 -1.093750e-01 -4.970444e-01
     vertex -2.302137e-02  5.330638e-17 -4.970444e-01
   endloop
 endfacet
 facet normal  0.000000e+00  0.000000e+00 -1.000000e+00
   outer loop
     vertex -3.991776e-01  3.978088e-17 -3.417763e-01
     vertex -8.733553e-02  5.887570e-17 -3.417763e-01
     vertex -8.733553e-02 -1.093750e-01 -3.417763e-01
   endloop
 endfacet
 facet normal  0.000000e+00  0.000000e+00 -1.000000e+00
   outer loop
     vertex -3.991776e-01  3.978088e-17 -3.417763e-01
     vertex -8.733553e-02 -1.093750e-01 -3.417763e-01
     vertex -3.991776e-01 -1.093750e-01 -3.417763e-01
   endloop
 endfacet
 facet normal  0.000000e+00  0.000000e+00  1.000000e+00
   outer loop
     vertex -7.500000e-01  2.466414e-17 -2.378289e-01
     vertex  2.375000e-01  8.513108e-17 -2.378289e-01
     vertex  2.375000e-01  1.093750e-01 -2.378289e-01
   endloop
 endfacet
 facet normal  0.000000e+00  0.000000e+00  1.000000e+00
   outer loop
     vertex -7.500000e-01  2.466414e-17 -2.378289e-01
     vertex  2.375000e-01  1.093750e-01 -2.378289e-01
     vertex -7.500000e-01  1.093750e-01 -2.378289e-01
   endloop
 endfacet
 facet normal  0.000000e+00  0.000000e+00 -1.000000e+00
   outer loop
     vertex  2.500000e-01  4.573290e-17 -3.937500e-01
     vertex  1.595395e-01  7.080996e-17 -3.937500e-01
     vertex  1.595395e-01  1.093750e-01 -3.937500e-01
   endloop
 endfacet
 facet normal  0.000000e+00  0.000000e+00 -1.000000e+00
   outer loop
     vertex  2.500000e-01  4.573290e-17 -3.937500e-01
     vertex  1.595395e-01  1.093750e-01 -3.937500e-01
     vertex  2.500000e-01  1.093750e-01 -3.937500e-01
   endloop
 endfacet
 facet normal  0.000000e+00  0.000000e+00  1.000000e+00
   outer loop
     vertex  2.375000e-01  8.513108e-17 -2.378289e-01
     vertex  3.804276e-01  9.388287e-17 -2.378289e-01
     vertex  3.804276e-01  1.093750e-01 -2.378289e-01
   endloop
 endfacet
 facet normal  0.000000e+00  0.000000e+00  1.000000e+00
   outer loop
     vertex  2.375000e-01  8.513108e-17 -2.378289e-01
     vertex  3.804276e-01  1.093750e-01 -2.378289e-01
     vertex  2.375000e-01  1.093750e-01 -2.378289e-01
   endloop
 endfacet
 facet normal  8.320503e-01  0.000000e+00  5.547002e-01
   outer loop
     vertex  3.804276e-01  9.388287e-17 -2.378289e-01
     vertex  4.805373e-01  6.020173e-17 -3.879934e-01
     vertex  4.805373e-01  1.093750e-01 -3.879934e-01
   endloop
 endfacet
 facet normal  8.320503e-01 -0.000000e+00  5.547002e-01
   outer loop
     vertex  3.804276e-01  9.388287e-17 -2.378289e-01
     vertex  4.805373e-01  1.093750e-01 -3.879934e-01
     vertex  3.804276e-01  1.093750e-01 -2.378289e-01
   endloop
 endfacet
 facet normal  0.000000e+00 -0.000000e+00  1.000000e+00
   outer loop
     vertex  5.026316e-01  3.093845e-17 -3.879934e-01
     vertex  5.026316e-01  1.796875e-01 -3.879934e-01
     vertex  4.805373e-01  1.093750e-01 -3.879934e-01
   endloop
 endfacet
 facet normal -0.000000e+00  0.000000e+00  1.000000e+00
   outer loop
     vertex  4.805373e-01  6.020173e-17 -3.879934e-01
     vertex  5.026316e-01  3.093845e-17 -3.879934e-01
     vertex  4.805373e-01  1.093750e-01 -3.879934e-01
   endloop
 endfacet
 facet normal -0.000000e+00  0.000000e+00  1.000000e+00
   outer loop
     vertex  2.500000e-01  1.796875e-01 -3.879934e-01
     vertex  4.805373e-01  1.093750e-01 -3.879934e-01
     vertex  5.026316e-01  1.796875e-01 -3.879934e-01
   endloop
 endfacet
 facet normal  0.000000e+00  0.000000e+00  1.000000e+00
   outer loop
     vertex  2.500000e-01  1.093750e-01 -3.879934e-01
     vertex  4.805373e-01  1.093750e-01 -3.879934e-01
     vertex  2.500000e-01  1.796875e-01 -3.879934e-01
   endloop
 endfacet
 facet normal -1.000000e+00  0.000000e+00  0.000000e+00
   outer loop
     vertex  2.500000e-01  1.093750e-01 -3.937500e-01
     vertex  2.500000e-01  1.093750e-01 -3.879934e-01
     vertex  2.500000e-01  1.796875e-01 -3.879934e-01
   endloop
 endfacet
 facet normal -1.000000e+00  0.000000e+00  0.000000e+00
   outer loop
     vertex  2.500000e-01  1.796875e-01 -6.406250e-01
     vertex  2.500000e-01  1.093750e-01 -3.937500e-01
     vertex  2.500000e-01  1.796875e-01 -3.879934e-01
   endloop
 endfacet
 facet normal -1.000000e+00  0.000000e+00  0.000000e+00
   outer loop
     vertex  2.500000e-01  0.000000e+00 -6.406250e-01
     vertex  2.500000e-01  4.573290e-17 -3.937500e-01
     vertex  2.500000e-01  1.093750e-01 -3.937500e-01
   endloop
 endfacet
 facet normal -1.000000e+00  0.000000e+00  0.000000e+00
   outer loop
     vertex  2.500000e-01  0.000000e+00 -6.406250e-01
     vertex  2.500000e-01  1.093750e-01 -3.937500e-01
     vertex  2.500000e-01  1.796875e-01 -6.406250e-01
   endloop
 endfacet
 facet normal  0.000000e+00  0.000000e+00  1.000000e+00
   outer loop
     vertex -8.733553e-02  4.773705e-17 -5.236842e-01
     vertex -3.991776e-01  1.093750e-01 -5.236842e-01
     vertex -3.991776e-01  2.864223e-17 -5.236842e-01
   endloop
 endfacet
 facet normal  0.000000e+00 -0.000000e+00  1.000000e+00
   outer loop
     vertex -8.733553e-02  4.773705e-17 -5.236842e-01
     vertex -8.733553e-02  1.093750e-01 -5.236842e-01
     vertex -3.991776e-01  1.093750e-01 -5.236842e-01
   endloop
 endfacet
 facet normal  3.826834e-01  0.000000e+00 -9.238795e-01
   outer loop
     vertex -4.634918e-01  3.421156e-17 -3.684161e-01
     vertex -3.991776e-01  1.093750e-01 -3.417763e-01
     vertex -3.991776e-01  3.978088e-17 -3.417763e-01
   endloop
 endfacet
 facet normal  3.826834e-01  0.000000e+00 -9.238795e-01
   outer loop
     vertex -4.634918e-01  3.421156e-17 -3.684161e-01
     vertex -4.634918e-01  1.093750e-01 -3.684161e-01
     vertex -3.991776e-01  1.093750e-01 -3.417763e-01
   endloop
 endfacet
 facet normal  9.238795e-01  0.000000e+00 -3.826834e-01
   outer loop
     vertex -4.901316e-01  2.864223e-17 -4.327303e-01
     vertex -4.901316e-01  1.093750e-01 -4.327303e-01
     vertex -4.634918e-01  1.093750e-01 -3.684161e-01
   endloop
 endfacet
 facet normal  9.238795e-01  0.000000e+00 -3.826834e-01
   outer loop
     vertex -4.901316e-01  2.864223e-17 -4.327303e-01
     vertex -4.634918e-01  1.093750e-01 -3.684161e-01
     vertex -4.634918e-01  3.421156e-17 -3.684161e-01
   endloop
 endfacet
 facet normal  9.238795e-01 -0.000000e+00  3.826834e-01
   outer loop
     vertex -4.634918e-01  2.633534e-17 -4.970444e-01
     vertex -4.634918e-01  1.093750e-01 -4.970444e-01
     vertex -4.901316e-01  1.093750e-01 -4.327303e-01
   endloop
 endfacet
 facet normal  9.238795e-01  0.000000e+00  3.826834e-01
   outer loop
     vertex -4.634918e-01  2.633534e-17 -4.970444e-01
     vertex -4.901316e-01  1.093750e-01 -4.327303e-01
     vertex -4.901316e-01  2.864223e-17 -4.327303e-01
   endloop
 endfacet
 facet normal  3.826834e-01 -0.000000e+00  9.238795e-01
   outer loop
     vertex -3.991776e-01  2.864223e-17 -5.236842e-01
     vertex -3.991776e-01  1.093750e-01 -5.236842e-01
     vertex -4.634918e-01  1.093750e-01 -4.970444e-01
   endloop
 endfacet
 facet normal  3.826834e-01  0.000000e+00  9.238795e-01
   outer loop
     vertex -3.991776e-01  2.864223e-17 -5.236842e-01
     vertex -4.634918e-01  1.093750e-01 -4.970444e-01
     vertex -4.634918e-01  2.633534e-17 -4.970444e-01
   endloop
 endfacet
 facet normal -3.826834e-01  0.000000e+00  9.238795e-01
   outer loop
     vertex -2.302137e-02  5.330638e-17 -4.970444e-01
     vertex -8.733553e-02  1.093750e-01 -5.236842e-01
     vertex -8.733553e-02  4.773705e-17 -5.236842e-01
   endloop
 endfacet
 facet normal -3.826834e-01  0.000000e+00  9.238795e-01
   outer loop
     vertex -2.302137e-02  5.330638e-17 -4.970444e-01
     vertex -2.302137e-02  1.093750e-01 -4.970444e-01
     vertex -8.733553e-02  1.093750e-01 -5.236842e-01
   endloop
 endfacet
 facet normal -9.238795e-01  0.000000e+00  3.826834e-01
   outer loop
     vertex  3.618421e-03  5.887570e-17 -4.327303e-01
     vertex  3.618421e-03  1.093750e-01 -4.327303e-01
     vertex -2.302137e-02  1.093750e-01 -4.970444e-01
   endloop
 endfacet
 facet normal -9.238795e-01  0.000000e+00  3.826834e-01
   outer loop
     vertex  3.618421e-03  5.887570e-17 -4.327303e-01
     vertex -2.302137e-02  1.093750e-01 -4.970444e-01
     vertex -2.302137e-02  5.330638e-17 -4.970444e-01
   endloop
 endfacet
 facet normal -9.238795e-01  0.000000e+00 -3.826834e-01
   outer loop
     vertex -2.302137e-02  6.118259e-17 -3.684161e-01
     vertex -2.302137e-02  1.093750e-01 -3.684161e-01
     vertex  3.618421e-03  1.093750e-01 -4.327303e-01
   endloop
 endfacet
 facet normal -9.238795e-01  0.000000e+00 -3.826834e-01
   outer loop
     vertex -2.302137e-02  6.118259e-17 -3.684161e-01
     vertex  3.618421e-03  1.093750e-01 -4.327303e-01
     vertex  3.618421e-03  5.887570e-17 -4.327303e-01
   endloop
 endfacet
 facet normal -3.826834e-01  0.000000e+00 -9.238795e-01
   outer loop
     vertex -8.733553e-02  5.887570e-17 -3.417763e-01
     vertex -8.733553e-02  1.093750e-01 -3.417763e-01
     vertex -2.302137e-02  1.093750e-01 -3.684161e-01
   endloop
 endfacet
 facet normal -3.826834e-01  0.000000e+00 -9.238795e-01
   outer loop
     vertex -8.733553e-02  5.887570e-17 -3.417763e-01
     vertex -2.302137e-02  1.093750e-01 -3.684161e-01
     vertex -2.302137e-02  6.118259e-17 -3.684161e-01
   endloop
 endfacet
 facet normal  0.000000e+00  0.000000e+00 -1.000000e+00
   outer loop
     vertex -3.991776e-01  3.978088e-17 -3.417763e-01
     vertex -8.733553e-02  1.093750e-01 -3.417763e-01
     vertex -8.733553e-02  5.887570e-17 -3.417763e-01
   endloop
 endfacet
 facet normal  0.000000e+00  0.000000e+00 -1.000000e+00
   outer loop
     vertex -3.991776e-01  3.978088e-17 -3.417763e-01
     vertex -3.991776e-01  1.093750e-01 -3.417763e-01
     vertex -8.733553e-02  1.093750e-01 -3.417763e-01
   endloop
 endfacet
 facet normal  0.000000e+00 -1.000000e+00 -0.000000e+00
   outer loop
     vertex  5.026316e-01 -1.796875e-01 -3.879934e-01
     vertex  2.500000e-01 -1.796875e-01 -6.406250e-01
     vertex  7.500000e-01 -1.796875e-01 -6.406250e-01
   endloop
 endfacet
 facet normal -0.000000e+00 -1.000000e+00  0.000000e+00
   outer loop
     vertex  5.026316e-01 -1.796875e-01 -3.879934e-01
     vertex  2.500000e-01 -1.796875e-01 -3.879934e-01
     vertex  2.500000e-01 -1.796875e-01 -6.406250e-01
   endloop
 endfacet
 facet normal  7.145104e-01  0.000000e+00  6.996248e-01
   outer loop
     vertex  5.026316e-01  3.093845e-17 -3.879934e-01
     vertex  7.500000e-01 -1.796875e-01 -6.406250e-01
     vertex  7.500000e-01  3.061617e-17 -6.406250e-01
   endloop
 endfacet
 facet normal  7.145104e-01  0.000000e+00  6.996248e-01
   outer loop
     vertex  5.026316e-01  3.093845e-17 -3.879934e-01
     vertex  5.026316e-01 -1.796875e-01 -3.879934e-01
     vertex  7.500000e-01 -1.796875e-01 -6.406250e-01
   endloop
 endfacet
 facet normal  0.000000e+00  0.000000e+00 -1.000000e+00
   outer loop
     vertex  7.500000e-01  3.061617e-17 -6.406250e-01
     vertex  2.500000e-01 -1.796875e-01 -6.406250e-01
     vertex  2.500000e-01  0.000000e+00 -6.406250e-01
   endloop
 endfacet
 facet normal  0.000000e+00 -0.000000e+00 -1.000000e+00
   outer loop
     vertex  7.500000e-01  3.061617e-17 -6.406250e-01
     vertex  7.500000e-01 -1.796875e-01 -6.406250e-01
     vertex  2.500000e-01 -1.796875e-01 -6.406250e-01
   endloop
 endfacet
 facet normal  0.000000e+00  1.000000e+00  0.000000e+00
   outer loop
     vertex  5.026316e-01  1.796875e-01 -3.879934e-01
     vertex  7.500000e-01  1.796875e-01 -6.406250e-01
     vertex  2.500000e-01  1.796875e-01 -6.406250e-01
   endloop
 endfacet
 facet normal  0.000000e+00  1.000000e+00  0.000000e+00
   outer loop
     vertex  5.026316e-01  1.796875e-01 -3.879934e-01
     vertex  2.500000e-01  1.796875e-01 -6.406250e-01
     vertex  2.500000e-01  1.796875e-01 -3.879934e-01
   endloop
 endfacet
 facet normal  7.145104e-01  0.000000e+00  6.996248e-01
   outer loop
     vertex  5.026316e-01  3.093845e-17 -3.879934e-01
     vertex  7.500000e-01  3.061617e-17 -6.406250e-01
     vertex  7.500000e-01  1.796875e-01 -6.406250e-01
   endloop
 endfacet
 facet normal  7.145104e-01 -0.000000e+00  6.996248e-01
   outer loop
     vertex  5.026316e-01  3.093845e-17 -3.879934e-01
     vertex  7.500000e-01  1.796875e-01 -6.406250e-01
     vertex  5.026316e-01  1.796875e-01 -3.879934e-01
   endloop
 endfacet
 facet normal -0.000000e+00  0.000000e+00 -1.000000e+00
   outer loop
     vertex  7.500000e-01  3.061617e-17 -6.406250e-01
     vertex  2.500000e-01  0.000000e+00 -6.406250e-01
     vertex  2.500000e-01  1.796875e-01 -6.406250e-01
   endloop
 endfacet
 facet normal  0.000000e+00  0.000000e+00 -1.000000e+00
   outer loop
     vertex  7.500000e-01  3.061617e-17 -6.406250e-01
     vertex  2.500000e-01  1.796875e-01 -6.406250e-01
     vertex  7.500000e-01  1.796875e-01 -6.406250e-01
   endloop
 endfacet
 facet normal  0.000000e+00  0.000000e+00 -1.000000e+00
   outer loop
     vertex  3.046875e-01  6.458098e-17 -2.265625e-01
     vertex -7.500000e-01 -2.031250e-01 -2.265625e-01
     vertex -7.500000e-01  0.000000e+00 -2.265625e-01
   endloop
 endfacet
 facet normal  0.000000e+00 -0.000000e+00 -1.000000e+00
   outer loop
     vertex  3.046875e-01  6.458098e-17 -2.265625e-01
     vertex  3.046875e-01 -2.031250e-01 -2.265625e-01
     vertex -7.500000e-01 -2.031250e-01 -2.265625e-01
   endloop
 endfacet
 facet normal -1.000000e+00  0.000000e+00  0.000000e+00
   outer loop
     vertex -7.500000e-01 -1.093750e-01  2.031250e-01
     vertex -7.500000e-01 -2.031250e-01  2.286184e-01
     vertex -7.500000e-01 -1.093750e-01  2.286184e-01
   endloop
 endfacet
 facet normal -1.000000e+00  0.000000e+00  0.000000e+00
   outer loop
     vertex -7.500000e-01 -2.031250e-01 -2.265625e-01
     vertex -7.500000e-01 -2.031250e-01  2.286184e-01
     vertex -7.500000e-01 -1.093750e-01  2.031250e-01
   endloop
 endfacet
 facet normal -1.000000e+00  0.000000e+00  0.000000e+00
   outer loop
     vertex -7.500000e-01  0.000000e+00 -2.265625e-01
     vertex -7.500000e-01 -1.093750e-01  2.031250e-01
     vertex -7.500000e-01  0.000000e+00  2.031250e-01
   endloop
 endfacet
 facet normal -1.000000e+00  0.000000e+00  0.000000e+00
   outer loop
     vertex -7.500000e-01  0.000000e+00 -2.265625e-01
     vertex -7.500000e-01 -2.031250e-01 -2.265625e-01
     vertex -7.500000e-01 -1.093750e-01  2.031250e-01
   endloop
 endfacet
 facet normal  1.000000e+00  0.000000e+00  0.000000e+00
   outer loop
     vertex  3.046875e-01  7.953658e-17  1.768092e-02
     vertex  3.046875e-01 -2.031250e-01 -2.265625e-01
     vertex  3.046875e-01  6.458098e-17 -2.265625e-01
   endloop
 endfacet
 facet normal  1.000000e+00  0.000000e+00  0.000000e+00
   outer loop
     vertex  3.046875e-01  7.953658e-17  1.768092e-02
     vertex  3.046875e-01 -2.031250e-01  1.768092e-02
     vertex  3.046875e-01 -2.031250e-01 -2.265625e-01
   endloop
 endfacet
 facet normal -0.000000e+00  0.000000e+00 -1.000000e+00
   outer loop
     vertex  3.046875e-01  6.458098e-17 -2.265625e-01
     vertex -7.500000e-01  0.000000e+00 -2.265625e-01
     vertex -7.500000e-01  2.031250e-01 -2.265625e-01
   endloop
 endfacet
 facet normal  0.000000e+00  0.000000e+00 -1.000000e+00
   outer loop
     vertex  3.046875e-01  6.458098e-17 -2.265625e-01
     vertex -7.500000e-01  2.031250e-01 -2.265625e-01
     vertex  3.046875e-01  2.031250e-01 -2.265625e-01
   endloop
 endfacet
 facet normal -0.000000e+00 -1.000000e+00  0.000000e+00
   outer loop
     vertex -6.611842e-01 -2.031250e-01  2.286184e-01
     vertex -7.500000e-01 -2.031250e-01  2.286184e-01
     vertex -7.500000e-01 -2.031250e-01 -2.265625e-01
   endloop
 endfacet
 facet normal  0.000000e+00 -1.000000e+00 -0.000000e+00
   outer loop
     vertex  3.046875e-01 -2.031250e-01  1.768092e-02
     vertex -7.500000e-01 -2.031250e-01 -2.265625e-01
     vertex  3.046875e-01 -2.031250e-01 -2.265625e-01
   endloop
 endfacet
 facet normal -0.000000e+00 -1.000000e+00  0.000000e+00
   outer loop
     vertex  3.046875e-01 -2.031250e-01  1.768092e-02
     vertex -6.611842e-01 -2.031250e-01  2.286184e-01
     vertex -7.500000e-01 -2.031250e-01 -2.265625e-01
   endloop
 endfacet
 facet normal -0.000000e+00 -1.000000e+00 -0.000000e+00
   outer loop
     vertex  3.046875e-01 -2.031250e-01  2.286184e-01
     vertex -6.611842e-01 -2.031250e-01  2.286184e-01
     vertex  3.046875e-01 -2.031250e-01  1.768092e-02
   endloop
 endfacet
 facet normal -1.000000e+00  0.000000e+00  0.000000e+00
   outer loop
     vertex -7.500000e-01  0.000000e+00  2.031250e-01
     vertex -7.500000e-01 -1.093750e-01  2.286184e-01
     vertex -7.500000e-01  2.787179e-17  2.286184e-01
   endloop
 endfacet
 facet normal -1.000000e+00  0.000000e+00  0.000000e+00
   outer loop
     vertex -7.500000e-01  0.000000e+00  2.031250e-01
     vertex -7.500000e-01 -1.093750e-01  2.031250e-01
     vertex -7.500000e-01 -1.093750e-01  2.286184e-01
   endloop
 endfacet
 facet normal -1.000000e+00  0.000000e+00  0.000000e+00
   outer loop
     vertex -7.500000e-01  1.093750e-01  2.031250e-01
     vertex -7.500000e-01  1.093750e-01  2.286184e-01
     vertex -7.500000e-01  2.031250e-01  2.286184e-01
   endloop
 endfacet
 facet normal -1.000000e+00  0.000000e+00  0.000000e+00
   outer loop
     vertex -7.500000e-01  2.031250e-01 -2.265625e-01
     vertex -7.500000e-01  1.093750e-01  2.031250e-01
     vertex -7.500000e-01  2.031250e-01  2.286184e-01
   endloop
 endfacet
 facet normal -1.000000e+00  0.000000e+00  0.000000e+00
   outer loop
     vertex -7.500000e-01  0.000000e+00 -2.265625e-01
     vertex -7.500000e-01  0.000000e+00  2.031250e-01
     vertex -7.500000e-01  1.093750e-01  2.031250e-01
   endloop
 endfacet
 facet normal -1.000000e+00  0.000000e+00  0.000000e+00
   outer loop
     vertex -7.500000e-01  0.000000e+00 -2.265625e-01
     vertex -7.500000e-01  1.093750e-01  2.031250e-01
     vertex -7.500000e-01  2.031250e-01 -2.265625e-01
   endloop
 endfacet
 facet normal -0.000000e+00  0.000000e+00  1.000000e+00
   outer loop
     vertex -7.500000e-01 -1.093750e-01  2.286184e-01
     vertex -6.611842e-01 -2.031250e-01  2.286184e-01
     vertex -6.611842e-01 -1.093750e-01  2.286184e-01
   endloop
 endfacet
 facet normal  0.000000e+00  0.000000e+00  1.000000e+00
   outer loop
     vertex -7.500000e-01 -1.093750e-01  2.286184e-01
     vertex -7.500000e-01 -2.031250e-01  2.286184e-01
     vertex -6.611842e-01 -2.031250e-01  2.286184e-01
   endloop
 endfacet
 facet normal  1.000000e+00  0.000000e+00  0.000000e+00
   outer loop
     vertex  3.046875e-01 -1.093750e-01  2.031250e-01
     vertex  3.046875e-01 -2.031250e-01  1.768092e-02
     vertex  3.046875e-01  7.953658e-17  1.768092e-02
   endloop
 endfacet
 facet normal  1.000000e+00  0.000000e+00  0.000000e+00
   outer loop
     vertex  3.046875e-01 -1.093750e-01  2.031250e-01
     vertex  3.046875e-01 -2.031250e-01  2.286184e-01
     vertex  3.046875e-01 -2.031250e-01  1.768092e-02
   endloop
 endfacet
 facet normal  1.000000e+00  0.000000e+00  0.000000e+00
   outer loop
     vertex  3.046875e-01 -1.093750e-01  2.286184e-01
     vertex  3.046875e-01 -2.031250e-01  2.286184e-01
     vertex  3.046875e-01 -1.093750e-01  2.031250e-01
   endloop
 endfacet
 facet normal  1.000000e+00  0.000000e+00  0.000000e+00
   outer loop
     vertex  3.046875e-01  7.773637e-17  2.031250e-01
     vertex  3.046875e-01 -1.093750e-01  2.031250e-01
     vertex  3.046875e-01  7.953658e-17  1.768092e-02
   endloop
 endfacet
 facet normal  1.000000e+00  0.000000e+00  0.000000e+00
   outer loop
     vertex  3.046875e-01  7.953658e-17  1.768092e-02
     vertex  3.046875e-01  6.458098e-17 -2.265625e-01
     vertex  3.046875e-01  2.031250e-01 -2.265625e-01
   endloop
 endfacet
 facet normal  1.000000e+00 -0.000000e+00  0.000000e+00
   outer loop
     vertex  3.046875e-01  7.953658e-17  1.768092e-02
     vertex  3.046875e-01  2.031250e-01 -2.265625e-01
     vertex  3.046875e-01  2.031250e-01  1.768092e-02
   endloop
 endfacet
 facet normal  0.000000e+00  1.000000e+00  0.000000e+00
   outer loop
     vertex -6.611842e-01  2.031250e-01  2.286184e-01
     vertex -7.500000e-01  2.031250e-01 -2.265625e-01
     vertex -7.500000e-01  2.031250e-01  2.286184e-01
   endloop
 endfacet
 facet normal  0.000000e+00  1.000000e+00  0.000000e+00
   outer loop
     vertex  3.046875e-01  2.031250e-01  1.768092e-02
     vertex  3.046875e-01  2.031250e-01 -2.265625e-01
     vertex -7.500000e-01  2.031250e-01 -2.265625e-01
   endloop
 endfacet
 facet normal  0.000000e+00  1.000000e+00  0.000000e+00
   outer loop
     vertex  3.046875e-01  2.031250e-01  1.768092e-02
     vertex -7.500000e-01  2.031250e-01 -2.265625e-01
     vertex -6.611842e-01  2.031250e-01  2.286184e-01
   endloop
 endfacet
 facet normal  0.000000e+00  1.000000e+00  0.000000e+00
   outer loop
     vertex  3.046875e-01  2.031250e-01  2.286184e-01
     vertex  3.046875e-01  2.031250e-01  1.768092e-02
     vertex -6.611842e-01  2.031250e-01  2.286184e-01
   endloop
 endfacet
 facet normal -0.000000e+00  0.000000e+00  1.000000e+00
   outer loop
     vertex -6.611842e-01 -1.093750e-01  2.286184e-01
     vertex  3.046875e-01 -2.031250e-01  2.286184e-01
     vertex  3.046875e-01 -1.093750e-01  2.286184e-01
   endloop
 endfacet
 facet normal  0.000000e+00  0.000000e+00  1.000000e+00
   outer loop
     vertex -6.611842e-01 -1.093750e-01  2.286184e-01
     vertex -6.611842e-01 -2.031250e-01  2.286184e-01
     vertex  3.046875e-01 -2.031250e-01  2.286184e-01
   endloop
 endfacet
 facet normal -1.000000e+00  0.000000e+00  0.000000e+00
   outer loop
     vertex -7.500000e-01  0.000000e+00  2.031250e-01
     vertex -7.500000e-01  2.787179e-17  2.286184e-01
     vertex -7.500000e-01  1.093750e-01  2.286184e-01
   endloop
 endfacet
 facet normal -1.000000e+00  0.000000e+00  0.000000e+00
   outer loop
     vertex -7.500000e-01  0.000000e+00  2.031250e-01
     vertex -7.500000e-01  1.093750e-01  2.286184e-01
     vertex -7.500000e-01  1.093750e-01  2.031250e-01
   endloop
 endfacet
 facet normal -1.000000e+00  0.000000e+00  0.000000e+00
   outer loop
     vertex -7.500000e-01  2.787179e-17  2.286184e-01
     vertex -7.500000e-01 -1.093750e-01  6.059211e-01
     vertex -7.500000e-01  2.466414e-17  6.059211e-01
   endloop
 endfacet
 facet normal -1.000000e+00  0.000000e+00  0.000000e+00
   outer loop
     vertex -7.500000e-01  2.787179e-17  2.286184e-01
     vertex -7.500000e-01 -1.093750e-01  2.286184e-01
     vertex -7.500000e-01 -1.093750e-01  6.059211e-01
   endloop
 endfacet
 facet normal  0.000000e+00  0.000000e+00  1.000000e+00
   outer loop
     vertex -7.500000e-01  1.093750e-01  2.286184e-01
     vertex -6.611842e-01  1.093750e-01  2.286184e-01
     vertex -6.611842e-01  2.031250e-01  2.286184e-01
   endloop
 endfacet
 facet normal  0.000000e+00  0.000000e+00  1.000000e+00
   outer loop
     vertex -7.500000e-01  1.093750e-01  2.286184e-01
     vertex -6.611842e-01  2.031250e-01  2.286184e-01
     vertex -7.500000e-01  2.031250e-01  2.286184e-01
   endloop
 endfacet
 facet normal  0.000000e+00 -1.000000e+00  0.000000e+00
   outer loop
     vertex -7.500000e-01 -1.093750e-01  6.059211e-01
     vertex -7.500000e-01 -1.093750e-01  2.286184e-01
     vertex -6.611842e-01 -1.093750e-01  2.286184e-01
   endloop
 endfacet
 facet normal -0.000000e+00 -1.000000e+00  0.000000e+00
   outer loop
     vertex -4.901316e-01 -1.093750e-01  4.110197e-01
     vertex -7.500000e-01 -1.093750e-01  6.059211e-01
     vertex -6.611842e-01 -1.093750e-01  2.286184e-01
   endloop
 endfacet
 facet normal -1.596021e-16 -1.000000e+00  1.496719e-16
   outer loop
     vertex -4.901316e-01 -1.093750e-01  4.110197e-01
     vertex -6.611842e-01 -1.093750e-01  2.286184e-01
     vertex -4.634918e-01 -1.093750e-01  3.467056e-01
   endloop
 endfacet
 facet normal  9.867594e-17 -1.000000e+00 -2.827172e-16
   outer loop
     vertex -3.991776e-01 -1.093750e-01  3.200658e-01
     vertex -4.634918e-01 -1.093750e-01  3.467056e-01
     vertex -6.611842e-01 -1.093750e-01  2.286184e-01
   endloop
 endfacet
 facet normal -0.000000e+00 -1.000000e+00  0.000000e+00
   outer loop
     vertex -4.634918e-01 -1.093750e-01  4.753339e-01
     vertex -7.500000e-01 -1.093750e-01  6.059211e-01
     vertex -4.901316e-01 -1.093750e-01  4.110197e-01
   endloop
 endfacet
 facet normal -0.000000e+00 -1.000000e+00  0.000000e+00
   outer loop
     vertex -3.991776e-01 -1.093750e-01  5.019737e-01
     vertex -7.500000e-01 -1.093750e-01  6.059211e-01
     vertex -4.634918e-01 -1.093750e-01  4.753339e-01
   endloop
 endfacet
 facet normal -0.000000e+00 -1.000000e+00  0.000000e+00
   outer loop
     vertex -8.733553e-02 -1.093750e-01  3.200658e-01
     vertex -3.991776e-01 -1.093750e-01  3.200658e-01
     vertex -6.611842e-01 -1.093750e-01  2.286184e-01
   endloop
 endfacet
 facet normal -0.000000e+00 -1.000000e+00  0.000000e+00
   outer loop
     vertex  1.595395e-01 -1.093750e-01  3.590461e-01
     vertex  3.618421e-03 -1.093750e-01  4.110197e-01
     vertex -2.302137e-02 -1.093750e-01  3.467056e-01
   endloop
 endfacet
 facet normal  0.000000e+00 -1.000000e+00  0.000000e+00
   outer loop
     vertex  3.804276e-01 -1.093750e-01  2.031250e-01
     vertex  3.046875e-01 -1.093750e-01  2.286184e-01
     vertex  3.046875e-01 -1.093750e-01  2.031250e-01
   endloop
 endfacet
 facet normal -1.777128e-16 -1.000000e+00  1.421702e-16
   outer loop
     vertex  1.595395e-01 -1.093750e-01  6.059211e-01
     vertex -2.302137e-02 -1.093750e-01  4.753339e-01
     vertex  3.618421e-03 -1.093750e-01  4.110197e-01
   endloop
 endfacet
 facet normal  1.087740e-16 -1.000000e+00 -2.583383e-16
   outer loop
     vertex  1.595395e-01 -1.093750e-01  6.059211e-01
     vertex -8.733553e-02 -1.093750e-01  5.019737e-01
     vertex -2.302137e-02 -1.093750e-01  4.753339e-01
   endloop
 endfacet
 facet normal  0.000000e+00 -1.000000e+00 -0.000000e+00
   outer loop
     vertex  1.595395e-01 -1.093750e-01  6.059211e-01
     vertex  3.618421e-03 -1.093750e-01  4.110197e-01
     vertex  1.595395e-01 -1.093750e-01  3.590461e-01
   endloop
 endfacet
 facet normal  0.000000e+00 -1.000000e+00  0.000000e+00
   outer loop
     vertex  4.843750e-01 -1.093750e-01  3.590461e-01
     vertex  3.046875e-01 -1.093750e-01  2.286184e-01
     vertex  3.804276e-01 -1.093750e-01  2.031250e-01
   endloop
 endfacet
 facet normal -0.000000e+00 -1.000000e+00  0.000000e+00
   outer loop
     vertex  4.843750e-01 -1.093750e-01  3.590461e-01
     vertex  1.595395e-01 -1.093750e-01  3.590461e-01
     vertex  3.046875e-01 -1.093750e-01  2.286184e-01
   endloop
 endfacet
 facet normal  0.000000e+00 -1.000000e+00  0.000000e+00
   outer loop
     vertex -6.611842e-01 -1.093750e-01  2.286184e-01
     vertex  3.046875e-01 -1.093750e-01  2.286184e-01
     vertex -8.733553e-02 -1.093750e-01  3.200658e-01
   endloop
 endfacet
 facet normal  0.000000e+00 -1.000000e+00  0.000000e+00
   outer loop
     vertex -8.733553e-02 -1.093750e-01  3.200658e-01
     vertex  3.046875e-01 -1.093750e-01  2.286184e-01
     vertex -2.302137e-02 -1.093750e-01  3.467056e-01
   endloop
 endfacet
 facet normal  0.000000e+00 -1.000000e+00  0.000000e+00
   outer loop
     vertex -2.302137e-02 -1.093750e-01  3.467056e-01
     vertex  3.046875e-01 -1.093750e-01  2.286184e-01
     vertex  1.595395e-01 -1.093750e-01  3.590461e-01
   endloop
 endfacet
 facet normal -0.000000e+00 -1.000000e+00  0.000000e+00
   outer loop
     vertex  1.595395e-01 -1.093750e-01  6.059211e-01
     vertex -7.500000e-01 -1.093750e-01  6.059211e-01
     vertex -3.991776e-01 -1.093750e-01  5.019737e-01
   endloop
 endfacet
 facet normal  0.000000e+00 -1.000000e+00  0.000000e+00
   outer loop
     vertex  1.595395e-01 -1.093750e-01  6.059211e-01
     vertex -3.991776e-01 -1.093750e-01  5.019737e-01
     vertex -8.733553e-02 -1.093750e-01  5.019737e-01
   endloop
 endfacet
 facet normal  1.000000e+00  0.000000e+00  0.000000e+00
   outer loop
     vertex  3.046875e-01  1.093750e-01  2.031250e-01
     vertex  3.046875e-01  7.953658e-17  1.768092e-02
     vertex  3.046875e-01  2.031250e-01  1.768092e-02
   endloop
 endfacet
 facet normal  1.000000e+00 -0.000000e+00  0.000000e+00
   outer loop
     vertex  3.046875e-01  1.093750e-01  2.031250e-01
     vertex  3.046875e-01  2.031250e-01  1.768092e-02
     vertex  3.046875e-01  2.031250e-01  2.286184e-01
   endloop
 endfacet
 facet normal  1.000000e+00 -0.000000e+00  0.000000e+00
   outer loop
     vertex  3.046875e-01  1.093750e-01  2.286184e-01
     vertex  3.046875e-01  1.093750e-01  2.031250e-01
     vertex  3.046875e-01  2.031250e-01  2.286184e-01
   endloop
 endfacet
 facet normal  1.000000e+00 -0.000000e+00  0.000000e+00
   outer loop
     vertex  3.046875e-01  7.773637e-17  2.031250e-01
     vertex  3.046875e-01  7.953658e-17  1.768092e-02
     vertex  3.046875e-01  1.093750e-01  2.031250e-01
   endloop
 endfacet
 facet normal -0.000000e+00  0.000000e+00 -1.000000e+00
   outer loop
     vertex  3.804276e-01  6.921873e-17  2.031250e-01
     vertex  3.046875e-01 -1.093750e-01  2.031250e-01
     vertex  3.046875e-01  7.773637e-17  2.031250e-01
   endloop
 endfacet
 facet normal  0.000000e+00 -0.000000e+00 -1.000000e+00
   outer loop
     vertex  3.804276e-01  6.921873e-17  2.031250e-01
     vertex  3.804276e-01 -1.093750e-01  2.031250e-01
     vertex  3.046875e-01 -1.093750e-01  2.031250e-01
   endloop
 endfacet
 facet normal  0.000000e+00  0.000000e+00  1.000000e+00
   outer loop
     vertex -6.611842e-01  1.093750e-01  2.286184e-01
     vertex  3.046875e-01  1.093750e-01  2.286184e-01
     vertex  3.046875e-01  2.031250e-01  2.286184e-01
   endloop
 endfacet
 facet normal  0.000000e+00  0.000000e+00  1.000000e+00
   outer loop
     vertex -6.611842e-01  1.093750e-01  2.286184e-01
     vertex  3.046875e-01  2.031250e-01  2.286184e-01
     vertex -6.611842e-01  2.031250e-01  2.286184e-01
   endloop
 endfacet
 facet normal -1.000000e+00  0.000000e+00  0.000000e+00
   outer loop
     vertex -7.500000e-01  2.787179e-17  2.286184e-01
     vertex -7.500000e-01  2.466414e-17  6.059211e-01
     vertex -7.500000e-01  1.093750e-01  6.059211e-01
   endloop
 endfacet
 facet normal -1.000000e+00  0.000000e+00  0.000000e+00
   outer loop
     vertex -7.500000e-01  2.787179e-17  2.286184e-01
     vertex -7.500000e-01  1.093750e-01  6.059211e-01
     vertex -7.500000e-01  1.093750e-01  2.286184e-01
   endloop
 endfacet
 facet normal -0.000000e+00  0.000000e+00  1.000000e+00
   outer loop
     vertex -7.500000e-01  2.466414e-17  6.059211e-01
     vertex  1.595395e-01 -1.093750e-01  6.059211e-01
     vertex  1.595395e-01  8.035738e-17  6.059211e-01
   endloop
 endfacet
 facet normal  0.000000e+00  0.000000e+00  1.000000e+00
   outer loop
     vertex -7.500000e-01  2.466414e-17  6.059211e-01
     vertex -7.500000e-01 -1.093750e-01  6.059211e-01
     vertex  1.595395e-01 -1.093750e-01  6.059211e-01
   endloop
 endfacet
 facet normal  0.000000e+00  1.000000e+00  0.000000e+00
   outer loop
     vertex -7.500000e-01  1.093750e-01  6.059211e-01
     vertex -6.611842e-01  1.093750e-01  2.286184e-01
     vertex -7.500000e-01  1.093750e-01  2.286184e-01
   endloop
 endfacet
 facet normal  0.000000e+00  1.000000e+00  0.000000e+00
   outer loop
     vertex -4.901316e-01  1.093750e-01  4.110197e-01
     vertex -6.611842e-01  1.093750e-01  2.286184e-01
     vertex -7.500000e-01  1.093750e-01  6.059211e-01
   endloop
 endfacet
 facet normal  1.596021e-16  1.000000e+00 -1.496719e-16
   outer loop
     vertex -4.901316e-01  1.093750e-01  4.110197e-01
     vertex -4.634918e-01  1.093750e-01  3.467056e-01
     vertex -6.611842e-01  1.093750e-01  2.286184e-01
   endloop
 endfacet
 facet normal -9.867594e-17  1.000000e+00  2.827172e-16
   outer loop
     vertex -3.991776e-01  1.093750e-01  3.200658e-01
     vertex -6.611842e-01  1.093750e-01  2.286184e-01
     vertex -4.634918e-01  1.093750e-01  3.467056e-01
   endloop
 endfacet
 facet normal  0.000000e+00  1.000000e+00  0.000000e+00
   outer loop
     vertex -4.634918e-01  1.093750e-01  4.753339e-01
     vertex -4.901316e-01  1.093750e-01  4.110197e-01
     vertex -7.500000e-01  1.093750e-01  6.059211e-01
   endloop
 endfacet
 facet normal  0.000000e+00  1.000000e+00  0.000000e+00
   outer loop
     vertex -3.991776e-01  1.093750e-01  5.019737e-01
     vertex -4.634918e-01  1.093750e-01  4.753339e-01
     vertex -7.500000e-01  1.093750e-01  6.059211e-01
   endloop
 endfacet
 facet normal  0.000000e+00  1.000000e+00  0.000000e+00
   outer loop
     vertex -8.733553e-02  1.093750e-01  3.200658e-01
     vertex -6.611842e-01  1.093750e-01  2.286184e-01
     vertex -3.991776e-01  1.093750e-01  3.200658e-01
   endloop
 endfacet
 facet normal  0.000000e+00  1.000000e+00  0.000000e+00
   outer loop
     vertex  1.595395e-01  1.093750e-01  3.590461e-01
     vertex -2.302137e-02  1.093750e-01  3.467056e-01
     vertex  3.618421e-03  1.093750e-01  4.110197e-01
   endloop
 endfacet
 facet normal  0.000000e+00  1.000000e+00  0.000000e+00
   outer loop
     vertex  3.804276e-01  1.093750e-01  2.031250e-01
     vertex  3.046875e-01  1.093750e-01  2.031250e-01
     vertex  3.046875e-01  1.093750e-01  2.286184e-01
   endloop
 endfacet
 facet normal  1.777128e-16  1.000000e+00 -1.421702e-16
   outer loop
     vertex  1.595395e-01  1.093750e-01  6.059211e-01
     vertex  3.618421e-03  1.093750e-01  4.110197e-01
     vertex -2.302137e-02  1.093750e-01  4.753339e-01
   endloop
 endfacet
 facet normal -1.087740e-16  1.000000e+00  2.583383e-16
   outer loop
     vertex  1.595395e-01  1.093750e-01  6.059211e-01
     vertex -2.302137e-02  1.093750e-01  4.753339e-01
     vertex -8.733553e-02  1.093750e-01  5.019737e-01
   endloop
 endfacet
 facet normal  0.000000e+00  1.000000e+00  0.000000e+00
   outer loop
     vertex  1.595395e-01  1.093750e-01  6.059211e-01
     vertex  1.595395e-01  1.093750e-01  3.590461e-01
     vertex  3.618421e-03  1.093750e-01  4.110197e-01
   endloop
 endfacet
 facet normal  0.000000e+00  1.000000e+00  0.000000e+00
   outer loop
     vertex  4.843750e-01  1.093750e-01  3.590461e-01
     vertex  3.804276e-01  1.093750e-01  2.031250e-01
     vertex  3.046875e-01  1.093750e-01  2.286184e-01
   endloop
 endfacet
 facet normal  0.000000e+00  1.000000e+00  0.000000e+00
   outer loop
     vertex  4.843750e-01  1.093750e-01  3.590461e-01
     vertex  3.046875e-01  1.093750e-01  2.286184e-01
     vertex  1.595395e-01  1.093750e-01  3.590461e-01
   endloop
 endfacet
 facet normal  0.000000e+00  1.000000e+00  0.000000e+00
   outer loop
     vertex -6.611842e-01  1.093750e-01  2.286184e-01
     vertex -8.733553e-02  1.093750e-01  3.200658e-01
     vertex  3.046875e-01  1.093750e-01  2.286184e-01
   endloop
 endfacet
 facet normal -0.000000e+00  1.000000e+00  0.000000e+00
   outer loop
     vertex -8.733553e-02  1.093750e-01  3.200658e-01
     vertex -2.302137e-02  1.093750e-01  3.467056e-01
     vertex  3.046875e-01  1.093750e-01  2.286184e-01
   endloop
 endfacet
 facet normal -0.000000e+00  1.000000e+00  0.000000e+00
   outer loop
     vertex -2.302137e-02  1.093750e-01  3.467056e-01
     vertex  1.595395e-01  1.093750e-01  3.590461e-01
     vertex  3.046875e-01  1.093750e-01  2.286184e-01
   endloop
 endfacet
 facet normal  0.000000e+00  1.000000e+00  0.000000e+00
   outer loop
     vertex  1.595395e-01  1.093750e-01  6.059211e-01
     vertex -3.991776e-01  1.093750e-01  5.019737e-01
     vertex -7.500000e-01  1.093750e-01  6.059211e-01
   endloop
 endfacet
 facet normal  0.000000e+00  1.000000e+00  0.000000e+00
   outer loop
     vertex  1.595395e-01  1.093750e-01  6.059211e-01
     vertex -8.733553e-02  1.093750e-01  5.019737e-01
     vertex -3.991776e-01  1.093750e-01  5.019737e-01
   endloop
 endfacet
 facet normal  1.000000e+00  0.000000e+00  0.000000e+00
   outer loop
     vertex  1.595395e-01  8.035738e-17  6.059211e-01
     vertex  1.595395e-01 -1.093750e-01  3.590461e-01
     vertex  1.595395e-01  6.524064e-17  3.590461e-01
   endloop
 endfacet
 facet normal  1.000000e+00  0.000000e+00  0.000000e+00
   outer loop
     vertex  1.595395e-01  8.035738e-17  6.059211e-01
     vertex  1.595395e-01 -1.093750e-01  6.059211e-01
     vertex  1.595395e-01 -1.093750e-01  3.590461e-01
   endloop
 endfacet
 facet normal -0.000000e+00  0.000000e+00  1.000000e+00
   outer loop
     vertex  1.595395e-01  6.524064e-17  3.590461e-01
     vertex  4.843750e-01 -1.093750e-01  3.590461e-01
     vertex  4.843750e-01  8.513108e-17  3.590461e-01
   endloop
 endfacet
 facet normal  0.000000e+00  0.000000e+00  1.000000e+00
   outer loop
     vertex  1.595395e-01  6.524064e-17  3.590461e-01
     vertex  1.595395e-01 -1.093750e-01  3.590461e-01
     vertex  4.843750e-01 -1.093750e-01  3.590461e-01
   endloop
 endfacet
 facet normal  8.320503e-01  0.000000e+00 -5.547002e-01
   outer loop
     vertex  4.843750e-01  8.513108e-17  3.590461e-01
     vertex  3.804276e-01 -1.093750e-01  2.031250e-01
     vertex  3.804276e-01  6.921873e-17  2.031250e-01
   endloop
 endfacet
 facet normal  8.320503e-01  0.000000e+00 -5.547002e-01
   outer loop
     vertex  4.843750e-01  8.513108e-17  3.590461e-01
     vertex  4.843750e-01 -1.093750e-01  3.590461e-01
     vertex  3.804276e-01 -1.093750e-01  2.031250e-01
   endloop
 endfacet
 facet normal  0.000000e+00  0.000000e+00  1.000000e+00
   outer loop
     vertex -8.733553e-02  4.773705e-17  3.200658e-01
     vertex -3.991776e-01  2.864223e-17  3.200658e-01
     vertex -3.991776e-01 -1.093750e-01  3.200658e-01
   endloop
 endfacet
 facet normal  0.000000e+00  0.000000e+00  1.000000e+00
   outer loop
     vertex -8.733553e-02  4.773705e-17  3.200658e-01
     vertex -3.991776e-01 -1.093750e-01  3.200658e-01
     vertex -8.733553e-02 -1.093750e-01  3.200658e-01
   endloop
 endfacet
 facet normal  3.826834e-01  0.000000e+00  9.238795e-01
   outer loop
     vertex -4.634918e-01  2.633534e-17  3.467056e-01
     vertex -3.991776e-01 -1.093750e-01  3.200658e-01
     vertex -3.991776e-01  2.864223e-17  3.200658e-01
   endloop
 endfacet
 facet normal  3.826834e-01  0.000000e+00  9.238795e-01
   outer loop
     vertex -4.634918e-01  2.633534e-17  3.467056e-01
     vertex -4.634918e-01 -1.093750e-01  3.467056e-01
     vertex -3.991776e-01 -1.093750e-01  3.200658e-01
   endloop
 endfacet
 facet normal  9.238795e-01  0.000000e+00  3.826834e-01
   outer loop
     vertex -4.901316e-01  2.864223e-17  4.110197e-01
     vertex -4.901316e-01 -1.093750e-01  4.110197e-01
     vertex -4.634918e-01 -1.093750e-01  3.467056e-01
   endloop
 endfacet
 facet normal  9.238795e-01  0.000000e+00  3.826834e-01
   outer loop
     vertex -4.901316e-01  2.864223e-17  4.110197e-01
     vertex -4.634918e-01 -1.093750e-01  3.467056e-01
     vertex -4.634918e-01  2.633534e-17  3.467056e-01
   endloop
 endfacet
 facet normal  9.238795e-01  0.000000e+00 -3.826834e-01
   outer loop
     vertex -4.634918e-01  3.421156e-17  4.753339e-01
     vertex -4.634918e-01 -1.093750e-01  4.753339e-01
     vertex -4.901316e-01 -1.093750e-01  4.110197e-01
   endloop
 endfacet
 facet normal  9.238795e-01  0.000000e+00 -3.826834e-01
   outer loop
     vertex -4.634918e-01  3.421156e-17  4.753339e-01
     vertex -4.901316e-01 -1.093750e-01  4.110197e-01
     vertex -4.901316e-01  2.864223e-17  4.110197e-01
   endloop
 endfacet
 facet normal  3.826834e-01  0.000000e+00 -9.238795e-01
   outer loop
     vertex -3.991776e-01  3.978088e-17  5.019737e-01
     vertex -3.991776e-01 -1.093750e-01  5.019737e-01
     vertex -4.634918e-01 -1.093750e-01  4.753339e-01
   endloop
 endfacet
 facet normal  3.826834e-01  0.000000e+00 -9.238795e-01
   outer loop
     vertex -3.991776e-01  3.978088e-17  5.019737e-01
     vertex -4.634918e-01 -1.093750e-01  4.753339e-01
     vertex -4.634918e-01  3.421156e-17  4.753339e-01
   endloop
 endfacet
 facet normal -3.826834e-01  0.000000e+00 -9.238795e-01
   outer loop
     vertex -2.302137e-02  6.118259e-17  4.753339e-01
     vertex -8.733553e-02 -1.093750e-01  5.019737e-01
     vertex -8.733553e-02  5.887570e-17  5.019737e-01
   endloop
 endfacet
 facet normal -3.826834e-01 -0.000000e+00 -9.238795e-01
   outer loop
     vertex -2.302137e-02  6.118259e-17  4.753339e-01
     vertex -2.302137e-02 -1.093750e-01  4.753339e-01
     vertex -8.733553e-02 -1.093750e-01  5.019737e-01
   endloop
 endfacet
 facet normal -9.238795e-01 -0.000000e+00 -3.826834e-01
   outer loop
     vertex  3.618421e-03  5.887570e-17  4.110197e-01
     vertex  3.618421e-03 -1.093750e-01  4.110197e-01
     vertex -2.302137e-02 -1.093750e-01  4.753339e-01
   endloop
 endfacet
 facet normal -9.238795e-01  0.000000e+00 -3.826834e-01
   outer loop
     vertex  3.618421e-03  5.887570e-17  4.110197e-01
     vertex -2.302137e-02 -1.093750e-01  4.753339e-01
     vertex -2.302137e-02  6.118259e-17  4.753339e-01
   endloop
 endfacet
 facet normal -9.238795e-01  0.000000e+00  3.826834e-01
   outer loop
     vertex -2.302137e-02  5.330638e-17  3.467056e-01
     vertex -2.302137e-02 -1.093750e-01  3.467056e-01
     vertex  3.618421e-03 -1.093750e-01  4.110197e-01
   endloop
 endfacet
 facet normal -9.238795e-01  0.000000e+00  3.826834e-01
   outer loop
     vertex -2.302137e-02  5.330638e-17  3.467056e-01
     vertex  3.618421e-03 -1.093750e-01  4.110197e-01
     vertex  3.618421e-03  5.887570e-17  4.110197e-01
   endloop
 endfacet
 facet normal -3.826834e-01  0.000000e+00  9.238795e-01
   outer loop
     vertex -8.733553e-02  4.773705e-17  3.200658e-01
     vertex -8.733553e-02 -1.093750e-01  3.200658e-01
     vertex -2.302137e-02 -1.093750e-01  3.467056e-01
   endloop
 endfacet
 facet normal -3.826834e-01  0.000000e+00  9.238795e-01
   outer loop
     vertex -8.733553e-02  4.773705e-17  3.200658e-01
     vertex -2.302137e-02 -1.093750e-01  3.467056e-01
     vertex -2.302137e-02  5.330638e-17  3.467056e-01
   endloop
 endfacet
 facet normal  0.000000e+00  0.000000e+00 -1.000000e+00
   outer loop
     vertex -3.991776e-01  3.978088e-17  5.019737e-01
     vertex -8.733553e-02  5.887570e-17  5.019737e-01
     vertex -8.733553e-02 -1.093750e-01  5.019737e-01
   endloop
 endfacet
 facet normal  0.000000e+00  0.000000e+00 -1.000000e+00
   outer loop
     vertex -3.991776e-01  3.978088e-17  5.019737e-01
     vertex -8.733553e-02 -1.093750e-01  5.019737e-01
     vertex -3.991776e-01 -1.093750e-01  5.019737e-01
   endloop
 endfacet
 facet normal  0.000000e+00  0.000000e+00 -1.000000e+00
   outer loop
     vertex  3.804276e-01  6.921873e-17  2.031250e-01
     vertex  3.046875e-01  7.773637e-17  2.031250e-01
     vertex  3.046875e-01  1.093750e-01  2.031250e-01
   endloop
 endfacet
 facet normal  0.000000e+00  0.000000e+00 -1.000000e+00
   outer loop
     vertex  3.804276e-01  6.921873e-17  2.031250e-01
     vertex  3.046875e-01  1.093750e-01  2.031250e-01
     vertex  3.804276e-01  1.093750e-01  2.031250e-01
   endloop
 endfacet
 facet normal  0.000000e+00  0.000000e+00  1.000000e+00
   outer loop
     vertex -7.500000e-01  2.466414e-17  6.059211e-01
     vertex  1.595395e-01  8.035738e-17  6.059211e-01
     vertex  1.595395e-01  1.093750e-01  6.059211e-01
   endloop
 endfacet
 facet normal  0.000000e+00  0.000000e+00  1.000000e+00
   outer loop
     vertex -7.500000e-01  2.466414e-17  6.059211e-01
     vertex  1.595395e-01  1.093750e-01  6.059211e-01
     vertex -7.500000e-01  1.093750e-01  6.059211e-01
   endloop
 endfacet
 facet normal  1.000000e+00  0.000000e+00  0.000000e+00
   outer loop
     vertex  1.595395e-01  8.035738e-17  6.059211e-01
     vertex  1.595395e-01  6.524064e-17  3.590461e-01
     vertex  1.595395e-01  1.093750e-01  3.590461e-01
   endloop
 endfacet
 facet normal  1.000000e+00 -0.000000e+00  0.000000e+00
   outer loop
     vertex  1.595395e-01  8.035738e-17  6.059211e-01
     vertex  1.595395e-01  1.093750e-01  3.590461e-01
     vertex  1.595395e-01  1.093750e-01  6.059211e-01
   endloop
 endfacet
 facet normal  0.000000e+00  0.000000e+00  1.000000e+00
   outer loop
     vertex  1.595395e-01  6.524064e-17  3.590461e-01
     vertex  4.843750e-01  8.513108e-17  3.590461e-01
     vertex  4.843750e-01  1.093750e-01  3.590461e-01
   endloop
 endfacet
 facet normal  0.000000e+00  0.000000e+00  1.000000e+00
   outer loop
     vertex  1.595395e-01  6.524064e-17  3.590461e-01
     vertex  4.843750e-01  1.093750e-01  3.590461e-01
     vertex  1.595395e-01  1.093750e-01  3.590461e-01
   endloop
 endfacet
 facet normal  8.320503e-01  0.000000e+00 -5.547002e-01
   outer loop
     vertex  4.843750e-01  8.513108e-17  3.590461e-01
     vertex  3.804276e-01  6.921873e-17  2.031250e-01
     vertex  3.804276e-01  1.093750e-01  2.031250e-01
   endloop
 endfacet
 facet normal  8.320503e-01  0.000000e+00 -5.547002e-01
   outer loop
     vertex  4.843750e-01  8.513108e-17  3.590461e-01
     vertex  3.804276e-01  1.093750e-01  2.031250e-01
     vertex  4.843750e-01  1.093750e-01  3.590461e-01
   endloop
 endfacet
 facet normal  0.000000e+00  0.000000e+00  1.000000e+00
   outer loop
     vertex -8.733553e-02  4.773705e-17  3.200658e-01
     vertex -3.991776e-01  1.093750e-01  3.200658e-01
     vertex -3.991776e-01  2.864223e-17  3.200658e-01
   endloop
 endfacet
 facet normal  0.000000e+00 -0.000000e+00  1.000000e+00
   outer loop
     vertex -8.733553e-02  4.773705e-17  3.200658e-01
     vertex -8.733553e-02  1.093750e-01  3.200658e-01
     vertex -3.991776e-01  1.093750e-01  3.200658e-01
   endloop
 endfacet
 facet normal  3.826834e-01  0.000000e+00 -9.238795e-01
   outer loop
     vertex -4.634918e-01  3.421156e-17  4.753339e-01
     vertex -3.991776e-01  1.093750e-01  5.019737e-01
     vertex -3.991776e-01  3.978088e-17  5.019737e-01
   endloop
 endfacet
 facet normal  3.826834e-01  0.000000e+00 -9.238795e-01
   outer loop
     vertex -4.634918e-01  3.421156e-17  4.753339e-01
     vertex -4.634918e-01  1.093750e-01  4.753339e-01
     vertex -3.991776e-01  1.093750e-01  5.019737e-01
   endloop
 endfacet
 facet normal  9.238795e-01  0.000000e+00 -3.826834e-01
   outer loop
     vertex -4.901316e-01  2.864223e-17  4.110197e-01
     vertex -4.901316e-01  1.093750e-01  4.110197e-01
     vertex -4.634918e-01  1.093750e-01  4.753339e-01
   endloop
 endfacet
 facet normal  9.238795e-01  0.000000e+00 -3.826834e-01
   outer loop
     vertex -4.901316e-01  2.864223e-17  4.110197e-01
     vertex -4.634918e-01  1.093750e-01  4.753339e-01
     vertex -4.634918e-01  3.421156e-17  4.753339e-01
   endloop
 endfacet
 facet normal  9.238795e-01 -0.000000e+00  3.826834e-01
   outer loop
     vertex -4.634918e-01  2.633534e-17  3.467056e-01
     vertex -4.634918e-01  1.093750e-01  3.467056e-01
     vertex -4.901316e-01  1.093750e-01  4.110197e-01
   endloop
 endfacet
 facet normal  9.238795e-01  0.000000e+00  3.826834e-01
   outer loop
     vertex -4.634918e-01  2.633534e-17  3.467056e-01
     vertex -4.901316e-01  1.093750e-01  4.110197e-01
     vertex -4.901316e-01  2.864223e-17  4.110197e-01
   endloop
 endfacet
 facet normal  3.826834e-01 -0.000000e+00  9.238795e-01
   outer loop
     vertex -3.991776e-01  2.864223e-17  3.200658e-01
     vertex -3.991776e-01  1.093750e-01  3.200658e-01
     vertex -4.634918e-01  1.093750e-01  3.467056e-01
   endloop
 endfacet
 facet normal  3.826834e-01  0.000000e+00  9.238795e-01
   outer loop
     vertex -3.991776e-01  2.864223e-17  3.200658e-01
     vertex -4.634918e-01  1.093750e-01  3.467056e-01
     vertex -4.634918e-01  2.633534e-17  3.467056e-01
   endloop
 endfacet
 facet normal -3.826834e-01  0.000000e+00  9.238795e-01
   outer loop
     vertex -2.302137e-02  5.330638e-17  3.467056e-01
     vertex -8.733553e-02  1.093750e-01  3.200658e-01
     vertex -8.733553e-02  4.773705e-17  3.200658e-01
   endloop
 endfacet
 facet normal -3.826834e-01  0.000000e+00  9.238795e-01
   outer loop
     vertex -2.302137e-02  5.330638e-17  3.467056e-01
     vertex -2.302137e-02  1.093750e-01  3.467056e-01
     vertex -8.733553e-02  1.093750e-01  3.200658e-01
   endloop
 endfacet
 facet normal -9.238795e-01  0.000000e+00  3.826834e-01
   outer loop
     vertex  3.618421e-03  5.887570e-17  4.110197e-01
     vertex  3.618421e-03  1.093750e-01  4.110197e-01
     vertex -2.302137e-02  1.093750e-01  3.467056e-01
   endloop
 endfacet
 facet normal -9.238795e-01  0.000000e+00  3.826834e-01
   outer loop
     vertex  3.618421e-03  5.887570e-17  4.110197e-01
     vertex -2.302137e-02  1.093750e-01  3.467056e-01
     vertex -2.302137e-02  5.330638e-17  3.467056e-01
   endloop
 endfacet
 facet normal -9.238795e-01  0.000000e+00 -3.826834e-01
   outer loop
     vertex -2.302137e-02  6.118259e-17  4.753339e-01
     vertex -2.302137e-02  1.093750e-01  4.753339e-01
     vertex  3.618421e-03  1.093750e-01  4.110197e-01
   endloop
 endfacet
 facet normal -9.238795e-01  0.000000e+00 -3.826834e-01
   outer loop
     vertex -2.302137e-02  6.118259e-17  4.753339e-01
     vertex  3.618421e-03  1.093750e-01  4.110197e-01
     vertex  3.618421e-03  5.887570e-17  4.110197e-01
   endloop
 endfacet
 facet normal -3.826834e-01  0.000000e+00 -9.238795e-01
   outer loop
     vertex -8.733553e-02  5.887570e-17  5.019737e-01
     vertex -8.733553e-02  1.093750e-01  5.019737e-01
     vertex -2.302137e-02  1.093750e-01  4.753339e-01
   endloop
 endfacet
 facet normal -3.826834e-01  0.000000e+00 -9.238795e-01
   outer loop
     vertex -8.733553e-02  5.887570e-17  5.019737e-01
     vertex -2.302137e-02  1.093750e-01  4.753339e-01
     vertex -2.302137e-02  6.118259e-17  4.753339e-01
   endloop
 endfacet
 facet normal  0.000000e+00  0.000000e+00 -1.000000e+00
   outer loop
     vertex -3.991776e-01  3.978088e-17  5.019737e-01
     vertex -8.733553e-02  1.093750e-01  5.019737e-01
     vertex -8.733553e-02  5.887570e-17  5.019737e-01
   endloop
 endfacet
 facet normal  0.000000e+00  0.000000e+00 -1.000000e+00
   outer loop
     vertex -3.991776e-01  3.978088e-17  5.019737e-01
     vertex -3.991776e-01  1.093750e-01  5.019737e-01
     vertex -8.733553e-02  1.093750e-01  5.019737e-01
   endloop
 endfacet
 facet normal  0.000000e+00  0.000000e+00 -1.000000e+00
   outer loop
     vertex  5.763158e-01  1.998108e-17  3.828125e-01
     vertex  2.500000e-01 -1.796875e-01  3.828125e-01
     vertex  2.500000e-01  0.000000e+00  3.828125e-01
   endloop
 endfacet
 facet normal  0.000000e+00 -0.000000e+00 -1.000000e+00
   outer loop
     vertex  5.763158e-01  1.998108e-17  3.828125e-01
     vertex  5.763158e-01 -1.796875e-01  3.828125e-01
     vertex  2.500000e-01 -1.796875e-01  3.828125e-01
   endloop
 endfacet
 facet normal -1.000000e+00  0.000000e+00  0.000000e+00
   outer loop
     vertex  2.500000e-01  0.000000e+00  3.828125e-01
     vertex  2.500000e-01 -1.796875e-01  6.354441e-01
     vertex  2.500000e-01  1.546922e-17  6.354441e-01
   endloop
 endfacet
 facet normal -1.000000e+00  0.000000e+00  0.000000e+00
   outer loop
     vertex  2.500000e-01  0.000000e+00  3.828125e-01
     vertex  2.500000e-01 -1.796875e-01  3.828125e-01
     vertex  2.500000e-01 -1.796875e-01  6.354441e-01
   endloop
 endfacet
 facet normal  8.240419e-01  0.000000e+00 -5.665288e-01
   outer loop
     vertex  7.500000e-01  4.608539e-17  6.354441e-01
     vertex  5.763158e-01 -1.796875e-01  3.828125e-01
     vertex  5.763158e-01  1.998108e-17  3.828125e-01
   endloop
 endfacet
 facet normal  8.240419e-01  0.000000e+00 -5.665288e-01
   outer loop
     vertex  7.500000e-01  4.608539e-17  6.354441e-01
     vertex  7.500000e-01 -1.796875e-01  6.354441e-01
     vertex  5.763158e-01 -1.796875e-01  3.828125e-01
   endloop
 endfacet
 facet normal -0.000000e+00  0.000000e+00 -1.000000e+00
   outer loop
     vertex  5.763158e-01  1.998108e-17  3.828125e-01
     vertex  2.500000e-01  0.000000e+00  3.828125e-01
     vertex  2.500000e-01  1.796875e-01  3.828125e-01
   endloop
 endfacet
 facet normal  0.000000e+00  0.000000e+00 -1.000000e+00
   outer loop
     vertex  5.763158e-01  1.998108e-17  3.828125e-01
     vertex  2.500000e-01  1.796875e-01  3.828125e-01
     vertex  5.763158e-01  1.796875e-01  3.828125e-01
   endloop
 endfacet
 facet normal  0.000000e+00 -1.000000e+00  0.000000e+00
   outer loop
     vertex  5.763158e-01 -1.796875e-01  3.828125e-01
     vertex  2.500000e-01 -1.796875e-01  6.354441e-01
     vertex  2.500000e-01 -1.796875e-01  3.828125e-01
   endloop
 endfacet
 facet normal -0.000000e+00 -1.000000e+00  0.000000e+00
   outer loop
     vertex  7.500000e-01 -1.796875e-01  6.354441e-01
     vertex  2.500000e-01 -1.796875e-01  6.354441e-01
     vertex  5.763158e-01 -1.796875e-01  3.828125e-01
   endloop
 endfacet
 facet normal -0.000000e+00  0.000000e+00  1.000000e+00
   outer loop
     vertex  2.500000e-01  1.546922e-17  6.354441e-01
     vertex  7.500000e-01 -1.796875e-01  6.354441e-01
     vertex  7.500000e-01  4.608539e-17  6.354441e-01
   endloop
 endfacet
 facet normal  0.000000e+00  0.000000e+00  1.000000e+00
   outer loop
     vertex  2.500000e-01  1.546922e-17  6.354441e-01
     vertex  2.500000e-01 -1.796875e-01  6.354441e-01
     vertex  7.500000e-01 -1.796875e-01  6.354441e-01
   endloop
 endfacet
 facet normal -1.000000e+00  0.000000e+00  0.000000e+00
   outer loop
     vertex  2.500000e-01  0.000000e+00  3.828125e-01
     vertex  2.500000e-01  1.546922e-17  6.354441e-01
     vertex  2.500000e-01  1.796875e-01  6.354441e-01
   endloop
 endfacet
 facet normal -1.000000e+00  0.000000e+00  0.000000e+00
   outer loop
     vertex  2.500000e-01  0.000000e+00  3.828125e-01
     vertex  2.500000e-01  1.796875e-01  6.354441e-01
     vertex  2.500000e-01  1.796875e-01  3.828125e-01
   endloop
 endfacet
 facet normal  8.240419e-01  0.000000e+00 -5.665288e-01
   outer loop
     vertex  7.500000e-01  4.608539e-17  6.354441e-01
     vertex  5.763158e-01  1.998108e-17  3.828125e-01
     vertex  5.763158e-01  1.796875e-01  3.828125e-01
   endloop
 endfacet
 facet normal  8.240419e-01  0.000000e+00 -5.665288e-01
   outer loop
     vertex  7.500000e-01  4.608539e-17  6.354441e-01
     vertex  5.763158e-01  1.796875e-01  3.828125e-01
     vertex  7.500000e-01  1.796875e-01  6.354441e-01
   endloop
 endfacet
 facet normal  0.000000e+00  1.000000e+00  0.000000e+00
   outer loop
     vertex  5.763158e-01  1.796875e-01  3.828125e-01
     vertex  2.500000e-01  1.796875e-01  3.828125e-01
     vertex  2.500000e-01  1.796875e-01  6.354441e-01
   endloop
 endfacet
 facet normal  0.000000e+00  1.000000e+00  0.000000e+00
   outer loop
     vertex  7.500000e-01  1.796875e-01  6.354441e-01
     vertex  5.763158e-01  1.796875e-01  3.828125e-01
     vertex  2.500000e-01  1.796875e-01  6.354441e-01
   endloop
 endfacet
 facet normal  0.000000e+00  0.000000e+00  1.000000e+00
   outer loop
     vertex  2.500000e-01  1.546922e-17  6.354441e-01
     vertex  7.500000e-01  4.608539e-17  6.354441e-01
     vertex  7.500000e-01  1.796875e-01  6.354441e-01
   endloop
 endfacet
 facet normal  0.000000e+00  0.000000e+00  1.000000e+00
   outer loop
     vertex  2.500000e-01  1.546922e-17  6.354441e-01
     vertex  7.500000e-01  1.796875e-01  6.354441e-01
     vertex  2.500000e-01  1.796875e-01  6.354441e-01
   endloop
 endfacet
endsolid
