solid 
 facet normal  0.000000e+00  0.000000e+00 -1.000000e+00
   outer loop
     vertex  1.824013e-01 -4.490954e-01  4.140625e-01
     vertex  2.812500e-01 -5.859375e-01  4.140625e-01
     vertex  1.824013e-01 -5.859375e-01  4.140625e-01
   endloop
 endfacet
 facet normal  0.000000e+00  0.000000e+00 -1.000000e+00
   outer loop
     vertex  1.824013e-01 -4.490954e-01  4.140625e-01
     vertex  2.812500e-01 -4.490954e-01  4.140625e-01
     vertex  2.812500e-01 -5.859375e-01  4.140625e-01
   endloop
 endfacet
 facet normal  1.000000e+00  0.000000e+00  0.000000e+00
   outer loop
     vertex  1.824013e-01 -5.781250e-01  3.750000e-01
     vertex  1.824013e-01 -7.500000e-01  5.156250e-01
     vertex  1.824013e-01 -7.500000e-01 -1.570724e-02
   endloop
 endfacet
 facet normal  1.000000e+00  0.000000e+00  0.000000e+00
   outer loop
     vertex  1.824013e-01 -5.781250e-01  3.750000e-01
     vertex  1.824013e-01 -7.500000e-01 -1.570724e-02
     vertex  1.824013e-01 -5.781250e-01  9.733726e-18
   endloop
 endfacet
 facet normal  1.000000e+00  0.000000e+00  0.000000e+00
   outer loop
     vertex  1.824013e-01 -5.859375e-01  4.140625e-01
     vertex  1.824013e-01 -7.500000e-01  5.156250e-01
     vertex  1.824013e-01 -5.781250e-01  3.750000e-01
   endloop
 endfacet
 facet normal  1.000000e+00  0.000000e+00  0.000000e+00
   outer loop
     vertex  1.824013e-01 -5.859375e-01  4.824836e-01
     vertex  1.824013e-01 -7.500000e-01  5.156250e-01
     vertex  1.824013e-01 -5.859375e-01  4.140625e-01
   endloop
 endfacet
 facet normal  1.000000e+00  0.000000e+00  0.000000e+00
   outer loop
     vertex  1.824013e-01 -4.490954e-01  4.140625e-01
     vertex  1.824013e-01 -5.781250e-01  3.750000e-01
     vertex  1.824013e-01 -4.490954e-01  3.750000e-01
   endloop
 endfacet
 facet normal  1.000000e+00  0.000000e+00  0.000000e+00
   outer loop
     vertex  1.824013e-01 -4.490954e-01  4.140625e-01
     vertex  1.824013e-01 -5.859375e-01  4.140625e-01
     vertex  1.824013e-01 -5.781250e-01  3.750000e-01
   endloop
 endfacet
 facet normal  1.000000e+00  0.000000e+00  0.000000e+00
   outer loop
     vertex  1.824013e-01 -2.031250e-01  3.750000e-01
     vertex  1.824013e-01 -3.165296e-01  4.140625e-01
     vertex  1.824013e-01 -3.165296e-01  3.750000e-01
   endloop
 endfacet
 facet normal  1.000000e+00  0.000000e+00  0.000000e+00
   outer loop
     vertex  1.824013e-01 -2.031250e-01  3.750000e-01
     vertex  1.824013e-01 -2.031250e-01 -1.322840e-17
     vertex  1.824013e-01 -3.665884e-18 -1.570724e-02
   endloop
 endfacet
 facet normal  1.000000e+00  0.000000e+00  0.000000e+00
   outer loop
     vertex  1.824013e-01 -1.796875e-01  4.140625e-01
     vertex  1.824013e-01 -3.165296e-01  4.140625e-01
     vertex  1.824013e-01 -2.031250e-01  3.750000e-01
   endloop
 endfacet
 facet normal  1.000000e+00  0.000000e+00  0.000000e+00
   outer loop
     vertex  1.824013e-01  2.886883e-17  5.156250e-01
     vertex  1.824013e-01 -1.796875e-01  4.824836e-01
     vertex  1.824013e-01 -1.796875e-01  4.140625e-01
   endloop
 endfacet
 facet normal  1.000000e+00  0.000000e+00  0.000000e+00
   outer loop
     vertex  1.824013e-01  2.886883e-17  5.156250e-01
     vertex  1.824013e-01 -2.031250e-01  3.750000e-01
     vertex  1.824013e-01 -3.665884e-18 -1.570724e-02
   endloop
 endfacet
 facet normal  1.000000e+00  0.000000e+00  0.000000e+00
   outer loop
     vertex  1.824013e-01  2.886883e-17  5.156250e-01
     vertex  1.824013e-01 -1.796875e-01  4.140625e-01
     vertex  1.824013e-01 -2.031250e-01  3.750000e-01
   endloop
 endfacet
 facet normal  1.000000e+00  0.000000e+00  0.000000e+00
   outer loop
     vertex  1.824013e-01 -3.665884e-18 -1.570724e-02
     vertex  1.824013e-01 -2.031250e-01 -1.322840e-17
     vertex  1.824013e-01 -7.500000e-01 -1.570724e-02
   endloop
 endfacet
 facet normal  1.000000e+00  0.000000e+00  0.000000e+00
   outer loop
     vertex  1.824013e-01 -2.031250e-01 -1.322840e-17
     vertex  1.824013e-01 -5.781250e-01  9.733726e-18
     vertex  1.824013e-01 -7.500000e-01 -1.570724e-02
   endloop
 endfacet
 facet normal  1.000000e+00 -0.000000e+00  0.000000e+00
   outer loop
     vertex  1.824013e-01 -7.500000e-01  5.156250e-01
     vertex  1.824013e-01 -1.796875e-01  4.824836e-01
     vertex  1.824013e-01  2.886883e-17  5.156250e-01
   endloop
 endfacet
 facet normal  1.000000e+00  0.000000e+00  0.000000e+00
   outer loop
     vertex  1.824013e-01 -7.500000e-01  5.156250e-01
     vertex  1.824013e-01 -5.859375e-01  4.824836e-01
     vertex  1.824013e-01 -1.796875e-01  4.824836e-01
   endloop
 endfacet
 facet normal  0.000000e+00 -1.000000e+00  0.000000e+00
   outer loop
     vertex  1.824013e-01 -4.490954e-01  4.140625e-01
     vertex  2.578125e-01 -4.490954e-01  3.750000e-01
     vertex  2.812500e-01 -4.490954e-01  4.140625e-01
   endloop
 endfacet
 facet normal  0.000000e+00 -1.000000e+00  0.000000e+00
   outer loop
     vertex  1.824013e-01 -4.490954e-01  3.750000e-01
     vertex  2.578125e-01 -4.490954e-01  3.750000e-01
     vertex  1.824013e-01 -4.490954e-01  4.140625e-01
   endloop
 endfacet
 facet normal  0.000000e+00 -1.000000e+00  0.000000e+00
   outer loop
     vertex  2.812500e-01 -4.490954e-01  1.104441e-01
     vertex  2.812500e-01 -4.490954e-01  4.140625e-01
     vertex  2.578125e-01 -4.490954e-01  3.750000e-01
   endloop
 endfacet
 facet normal  0.000000e+00 -1.000000e+00  0.000000e+00
   outer loop
     vertex  2.578125e-01 -4.490954e-01  1.104441e-01
     vertex  2.812500e-01 -4.490954e-01  1.104441e-01
     vertex  2.578125e-01 -4.490954e-01  3.750000e-01
   endloop
 endfacet
 facet normal  1.000000e+00  0.000000e+00  0.000000e+00
   outer loop
     vertex  2.812500e-01 -4.490954e-01  4.140625e-01
     vertex  2.812500e-01 -4.490954e-01  1.104441e-01
     vertex  2.812500e-01 -3.806743e-01  1.104441e-01
   endloop
 endfacet
 facet normal  1.000000e+00  0.000000e+00  0.000000e+00
   outer loop
     vertex  2.812500e-01 -4.490954e-01  4.140625e-01
     vertex  2.812500e-01 -5.859375e-01  4.824836e-01
     vertex  2.812500e-01 -5.859375e-01  4.140625e-01
   endloop
 endfacet
 facet normal  1.000000e+00  0.000000e+00  0.000000e+00
   outer loop
     vertex  2.812500e-01 -3.165296e-01  4.140625e-01
     vertex  2.812500e-01 -3.806743e-01  1.104441e-01
     vertex  2.812500e-01 -3.165296e-01  1.104441e-01
   endloop
 endfacet
 facet normal  1.000000e+00  0.000000e+00  0.000000e+00
   outer loop
     vertex  2.812500e-01 -3.165296e-01  4.140625e-01
     vertex  2.812500e-01 -4.490954e-01  4.140625e-01
     vertex  2.812500e-01 -3.806743e-01  1.104441e-01
   endloop
 endfacet
 facet normal  1.000000e+00  0.000000e+00  0.000000e+00
   outer loop
     vertex  2.812500e-01 -1.796875e-01  4.824836e-01
     vertex  2.812500e-01 -3.165296e-01  4.140625e-01
     vertex  2.812500e-01 -1.796875e-01  4.140625e-01
   endloop
 endfacet
 facet normal  1.000000e+00  0.000000e+00  0.000000e+00
   outer loop
     vertex  2.812500e-01 -1.796875e-01  4.824836e-01
     vertex  2.812500e-01 -5.859375e-01  4.824836e-01
     vertex  2.812500e-01 -4.490954e-01  4.140625e-01
   endloop
 endfacet
 facet normal  1.000000e+00  0.000000e+00  0.000000e+00
   outer loop
     vertex  2.812500e-01 -1.796875e-01  4.824836e-01
     vertex  2.812500e-01 -4.490954e-01  4.140625e-01
     vertex  2.812500e-01 -3.165296e-01  4.140625e-01
   endloop
 endfacet
 facet normal  0.000000e+00 -1.000000e+00  0.000000e+00
   outer loop
     vertex  1.824013e-01 -5.859375e-01  4.140625e-01
     vertex  2.812500e-01 -5.859375e-01  4.824836e-01
     vertex  1.824013e-01 -5.859375e-01  4.824836e-01
   endloop
 endfacet
 facet normal  0.000000e+00 -1.000000e+00  0.000000e+00
   outer loop
     vertex  1.824013e-01 -5.859375e-01  4.140625e-01
     vertex  2.812500e-01 -5.859375e-01  4.140625e-01
     vertex  2.812500e-01 -5.859375e-01  4.824836e-01
   endloop
 endfacet
 facet normal  0.000000e+00  0.000000e+00 -1.000000e+00
   outer loop
     vertex  1.824013e-01 -3.665884e-18 -1.570724e-02
     vertex  7.014803e-02 -7.500000e-01 -1.570724e-02
     vertex  7.014803e-02 -1.053942e-17 -1.570724e-02
   endloop
 endfacet
 facet normal  0.000000e+00 -0.000000e+00 -1.000000e+00
   outer loop
     vertex  1.824013e-01 -3.665884e-18 -1.570724e-02
     vertex  1.824013e-01 -7.500000e-01 -1.570724e-02
     vertex  7.014803e-02 -7.500000e-01 -1.570724e-02
   endloop
 endfacet
 facet normal -6.123234e-17  1.000000e+00 -6.123234e-17
   outer loop
     vertex -4.958882e-02  1.466353e-17  5.156250e-01
     vertex  7.014803e-02 -1.053942e-17 -1.570724e-02
     vertex -4.958882e-02 -1.787118e-17 -1.570724e-02
   endloop
 endfacet
 facet normal -6.123234e-17  1.000000e+00 -6.123234e-17
   outer loop
     vertex -4.958882e-02  1.466353e-17  5.156250e-01
     vertex -2.890625e-01  0.000000e+00  5.156250e-01
     vertex -2.890625e-01  7.331767e-18  6.353618e-01
   endloop
 endfacet
 facet normal -6.123234e-17  1.000000e+00 -6.123234e-17
   outer loop
     vertex  1.824013e-01  2.886883e-17  5.156250e-01
     vertex  1.824013e-01 -3.665884e-18 -1.570724e-02
     vertex  7.014803e-02 -1.053942e-17 -1.570724e-02
   endloop
 endfacet
 facet normal -6.123234e-17  1.000000e+00 -6.123234e-17
   outer loop
     vertex  1.824013e-01  2.886883e-17  5.156250e-01
     vertex  7.014803e-02 -1.053942e-17 -1.570724e-02
     vertex -4.958882e-02  1.466353e-17  5.156250e-01
   endloop
 endfacet
 facet normal -6.123234e-17  1.000000e+00 -6.123234e-17
   outer loop
     vertex  4.218750e-01  5.086413e-17  6.353618e-01
     vertex  4.218750e-01  4.353237e-17  5.156250e-01
     vertex  1.824013e-01  2.886883e-17  5.156250e-01
   endloop
 endfacet
 facet normal -6.123234e-17  1.000000e+00 -6.123234e-17
   outer loop
     vertex  4.218750e-01  5.086413e-17  6.353618e-01
     vertex -4.958882e-02  1.466353e-17  5.156250e-01
     vertex -2.890625e-01  7.331767e-18  6.353618e-01
   endloop
 endfacet
 facet normal -6.123234e-17  1.000000e+00 -6.123234e-17
   outer loop
     vertex  4.218750e-01  5.086413e-17  6.353618e-01
     vertex  1.824013e-01  2.886883e-17  5.156250e-01
     vertex -4.958882e-02  1.466353e-17  5.156250e-01
   endloop
 endfacet
 facet normal  0.000000e+00 -1.000000e+00  0.000000e+00
   outer loop
     vertex -4.958882e-02 -7.500000e-01  5.156250e-01
     vertex -4.958882e-02 -7.500000e-01 -1.570724e-02
     vertex  7.014803e-02 -7.500000e-01 -1.570724e-02
   endloop
 endfacet
 facet normal  0.000000e+00 -1.000000e+00  0.000000e+00
   outer loop
     vertex -4.958882e-02 -7.500000e-01  5.156250e-01
     vertex -2.890625e-01 -7.500000e-01  6.353618e-01
     vertex -2.890625e-01 -7.500000e-01  5.156250e-01
   endloop
 endfacet
 facet normal  0.000000e+00 -1.000000e+00 -0.000000e+00
   outer loop
     vertex  1.824013e-01 -7.500000e-01  5.156250e-01
     vertex  7.014803e-02 -7.500000e-01 -1.570724e-02
     vertex  1.824013e-01 -7.500000e-01 -1.570724e-02
   endloop
 endfacet
 facet normal -0.000000e+00 -1.000000e+00  0.000000e+00
   outer loop
     vertex  1.824013e-01 -7.500000e-01  5.156250e-01
     vertex -4.958882e-02 -7.500000e-01  5.156250e-01
     vertex  7.014803e-02 -7.500000e-01 -1.570724e-02
   endloop
 endfacet
 facet normal  0.000000e+00 -1.000000e+00 -0.000000e+00
   outer loop
     vertex  4.218750e-01 -7.500000e-01  6.353618e-01
     vertex  1.824013e-01 -7.500000e-01  5.156250e-01
     vertex  4.218750e-01 -7.500000e-01  5.156250e-01
   endloop
 endfacet
 facet normal -0.000000e+00 -1.000000e+00  0.000000e+00
   outer loop
     vertex  4.218750e-01 -7.500000e-01  6.353618e-01
     vertex -2.890625e-01 -7.500000e-01  6.353618e-01
     vertex -4.958882e-02 -7.500000e-01  5.156250e-01
   endloop
 endfacet
 facet normal  0.000000e+00 -1.000000e+00  0.000000e+00
   outer loop
     vertex  4.218750e-01 -7.500000e-01  6.353618e-01
     vertex -4.958882e-02 -7.500000e-01  5.156250e-01
     vertex  1.824013e-01 -7.500000e-01  5.156250e-01
   endloop
 endfacet
 facet normal  0.000000e+00  0.000000e+00 -1.000000e+00
   outer loop
     vertex  4.218750e-01  4.353237e-17  5.156250e-01
     vertex  1.824013e-01 -7.500000e-01  5.156250e-01
     vertex  1.824013e-01  2.886883e-17  5.156250e-01
   endloop
 endfacet
 facet normal  0.000000e+00 -0.000000e+00 -1.000000e+00
   outer loop
     vertex  4.218750e-01  4.353237e-17  5.156250e-01
     vertex  4.218750e-01 -7.500000e-01  5.156250e-01
     vertex  1.824013e-01 -7.500000e-01  5.156250e-01
   endloop
 endfacet
 facet normal  0.000000e+00  0.000000e+00  1.000000e+00
   outer loop
     vertex  1.824013e-01 -5.781250e-01  3.750000e-01
     vertex  2.578125e-01 -4.490954e-01  3.750000e-01
     vertex  1.824013e-01 -4.490954e-01  3.750000e-01
   endloop
 endfacet
 facet normal  0.000000e+00  0.000000e+00  1.000000e+00
   outer loop
     vertex  1.824013e-01 -5.781250e-01  3.750000e-01
     vertex  2.578125e-01 -5.781250e-01  3.750000e-01
     vertex  2.578125e-01 -4.490954e-01  3.750000e-01
   endloop
 endfacet
 facet normal  0.000000e+00  0.000000e+00  1.000000e+00
   outer loop
     vertex  1.824013e-01 -5.859375e-01  4.824836e-01
     vertex  2.812500e-01 -1.796875e-01  4.824836e-01
     vertex  1.824013e-01 -1.796875e-01  4.824836e-01
   endloop
 endfacet
 facet normal  0.000000e+00  0.000000e+00  1.000000e+00
   outer loop
     vertex  1.824013e-01 -5.859375e-01  4.824836e-01
     vertex  2.812500e-01 -5.859375e-01  4.824836e-01
     vertex  2.812500e-01 -1.796875e-01  4.824836e-01
   endloop
 endfacet
 facet normal  0.000000e+00  1.000000e+00  0.000000e+00
   outer loop
     vertex  1.824013e-01 -1.796875e-01  4.824836e-01
     vertex  2.812500e-01 -1.796875e-01  4.140625e-01
     vertex  1.824013e-01 -1.796875e-01  4.140625e-01
   endloop
 endfacet
 facet normal -0.000000e+00  1.000000e+00  0.000000e+00
   outer loop
     vertex  1.824013e-01 -1.796875e-01  4.824836e-01
     vertex  2.812500e-01 -1.796875e-01  4.824836e-01
     vertex  2.812500e-01 -1.796875e-01  4.140625e-01
   endloop
 endfacet
 facet normal  0.000000e+00  0.000000e+00 -1.000000e+00
   outer loop
     vertex  1.824013e-01 -1.796875e-01  4.140625e-01
     vertex  2.812500e-01 -3.165296e-01  4.140625e-01
     vertex  1.824013e-01 -3.165296e-01  4.140625e-01
   endloop
 endfacet
 facet normal  0.000000e+00  0.000000e+00 -1.000000e+00
   outer loop
     vertex  1.824013e-01 -1.796875e-01  4.140625e-01
     vertex  2.812500e-01 -1.796875e-01  4.140625e-01
     vertex  2.812500e-01 -3.165296e-01  4.140625e-01
   endloop
 endfacet
 facet normal  0.000000e+00  1.000000e+00  0.000000e+00
   outer loop
     vertex  2.578125e-01 -3.165296e-01  3.750000e-01
     vertex  2.812500e-01 -3.165296e-01  1.104441e-01
     vertex  2.578125e-01 -3.165296e-01  1.104441e-01
   endloop
 endfacet
 facet normal  0.000000e+00  1.000000e+00  0.000000e+00
   outer loop
     vertex  2.812500e-01 -3.165296e-01  4.140625e-01
     vertex  2.812500e-01 -3.165296e-01  1.104441e-01
     vertex  2.578125e-01 -3.165296e-01  3.750000e-01
   endloop
 endfacet
 facet normal  0.000000e+00  1.000000e+00  0.000000e+00
   outer loop
     vertex  1.824013e-01 -3.165296e-01  4.140625e-01
     vertex  2.578125e-01 -3.165296e-01  3.750000e-01
     vertex  1.824013e-01 -3.165296e-01  3.750000e-01
   endloop
 endfacet
 facet normal -0.000000e+00  1.000000e+00  0.000000e+00
   outer loop
     vertex  1.824013e-01 -3.165296e-01  4.140625e-01
     vertex  2.812500e-01 -3.165296e-01  4.140625e-01
     vertex  2.578125e-01 -3.165296e-01  3.750000e-01
   endloop
 endfacet
 facet normal  0.000000e+00  0.000000e+00  1.000000e+00
   outer loop
     vertex  1.824013e-01 -3.165296e-01  3.750000e-01
     vertex  2.578125e-01 -2.031250e-01  3.750000e-01
     vertex  1.824013e-01 -2.031250e-01  3.750000e-01
   endloop
 endfacet
 facet normal  0.000000e+00  0.000000e+00  1.000000e+00
   outer loop
     vertex  1.824013e-01 -3.165296e-01  3.750000e-01
     vertex  2.578125e-01 -3.165296e-01  3.750000e-01
     vertex  2.578125e-01 -2.031250e-01  3.750000e-01
   endloop
 endfacet
 facet normal  0.000000e+00  1.000000e+00  0.000000e+00
   outer loop
     vertex  1.824013e-01 -2.031250e-01  3.750000e-01
     vertex  2.578125e-01 -2.031250e-01 -8.610798e-18
     vertex  1.824013e-01 -2.031250e-01 -1.322840e-17
   endloop
 endfacet
 facet normal -0.000000e+00  1.000000e+00  0.000000e+00
   outer loop
     vertex  1.824013e-01 -2.031250e-01  3.750000e-01
     vertex  2.578125e-01 -2.031250e-01  3.750000e-01
     vertex  2.578125e-01 -2.031250e-01 -8.610798e-18
   endloop
 endfacet
 facet normal  6.123234e-17 -6.123234e-17 -1.000000e+00
   outer loop
     vertex  1.824013e-01 -2.031250e-01 -1.322840e-17
     vertex  2.578125e-01 -5.781250e-01  1.435133e-17
     vertex  1.824013e-01 -5.781250e-01  9.733726e-18
   endloop
 endfacet
 facet normal  6.123234e-17 -6.123234e-17 -1.000000e+00
   outer loop
     vertex  1.824013e-01 -2.031250e-01 -1.322840e-17
     vertex  2.578125e-01 -2.031250e-01 -8.610798e-18
     vertex  2.578125e-01 -5.781250e-01  1.435133e-17
   endloop
 endfacet
 facet normal  0.000000e+00 -1.000000e+00  0.000000e+00
   outer loop
     vertex  1.824013e-01 -5.781250e-01  9.733726e-18
     vertex  2.578125e-01 -5.781250e-01  3.750000e-01
     vertex  1.824013e-01 -5.781250e-01  3.750000e-01
   endloop
 endfacet
 facet normal  0.000000e+00 -1.000000e+00  0.000000e+00
   outer loop
     vertex  1.824013e-01 -5.781250e-01  9.733726e-18
     vertex  2.578125e-01 -5.781250e-01  1.435133e-17
     vertex  2.578125e-01 -5.781250e-01  3.750000e-01
   endloop
 endfacet
 facet normal  1.000000e+00  0.000000e+00  0.000000e+00
   outer loop
     vertex  2.578125e-01 -3.806743e-01  1.104441e-01
     vertex  2.578125e-01 -4.490954e-01  1.104441e-01
     vertex  2.578125e-01 -5.781250e-01  1.435133e-17
   endloop
 endfacet
 facet normal  1.000000e+00  0.000000e+00  0.000000e+00
   outer loop
     vertex  2.578125e-01 -5.781250e-01  3.750000e-01
     vertex  2.578125e-01 -5.781250e-01  1.435133e-17
     vertex  2.578125e-01 -4.490954e-01  1.104441e-01
   endloop
 endfacet
 facet normal  1.000000e+00  0.000000e+00  0.000000e+00
   outer loop
     vertex  2.578125e-01 -2.031250e-01 -8.610798e-18
     vertex  2.578125e-01 -3.165296e-01  1.104441e-01
     vertex  2.578125e-01 -3.806743e-01  1.104441e-01
   endloop
 endfacet
 facet normal  1.000000e+00  0.000000e+00  0.000000e+00
   outer loop
     vertex  2.578125e-01 -2.031250e-01 -8.610798e-18
     vertex  2.578125e-01 -3.806743e-01  1.104441e-01
     vertex  2.578125e-01 -5.781250e-01  1.435133e-17
   endloop
 endfacet
 facet normal  1.000000e+00  0.000000e+00  0.000000e+00
   outer loop
     vertex  2.578125e-01 -4.490954e-01  3.750000e-01
     vertex  2.578125e-01 -5.781250e-01  3.750000e-01
     vertex  2.578125e-01 -4.490954e-01  1.104441e-01
   endloop
 endfacet
 facet normal  1.000000e+00  0.000000e+00  0.000000e+00
   outer loop
     vertex  2.578125e-01 -2.031250e-01  3.750000e-01
     vertex  2.578125e-01 -3.165296e-01  3.750000e-01
     vertex  2.578125e-01 -3.165296e-01  1.104441e-01
   endloop
 endfacet
 facet normal  1.000000e+00  0.000000e+00  0.000000e+00
   outer loop
     vertex  2.578125e-01 -2.031250e-01  3.750000e-01
     vertex  2.578125e-01 -3.165296e-01  1.104441e-01
     vertex  2.578125e-01 -2.031250e-01 -8.610798e-18
   endloop
 endfacet
 facet normal  0.000000e+00  0.000000e+00 -1.000000e+00
   outer loop
     vertex  2.578125e-01 -3.806743e-01  1.104441e-01
     vertex  2.812500e-01 -4.490954e-01  1.104441e-01
     vertex  2.578125e-01 -4.490954e-01  1.104441e-01
   endloop
 endfacet
 facet normal  0.000000e+00  0.000000e+00 -1.000000e+00
   outer loop
     vertex  2.578125e-01 -3.806743e-01  1.104441e-01
     vertex  2.812500e-01 -3.806743e-01  1.104441e-01
     vertex  2.812500e-01 -4.490954e-01  1.104441e-01
   endloop
 endfacet
 facet normal  0.000000e+00  0.000000e+00 -1.000000e+00
   outer loop
     vertex  2.578125e-01 -3.165296e-01  1.104441e-01
     vertex  2.812500e-01 -3.806743e-01  1.104441e-01
     vertex  2.578125e-01 -3.806743e-01  1.104441e-01
   endloop
 endfacet
 facet normal  0.000000e+00  0.000000e+00 -1.000000e+00
   outer loop
     vertex  2.578125e-01 -3.165296e-01  1.104441e-01
     vertex  2.812500e-01 -3.165296e-01  1.104441e-01
     vertex  2.812500e-01 -3.806743e-01  1.104441e-01
   endloop
 endfacet
 facet normal  0.000000e+00  0.000000e+00 -1.000000e+00
   outer loop
     vertex  7.014803e-02 -1.053942e-17 -1.570724e-02
     vertex -4.958882e-02 -7.500000e-01 -1.570724e-02
     vertex -4.958882e-02 -1.787118e-17 -1.570724e-02
   endloop
 endfacet
 facet normal  0.000000e+00 -0.000000e+00 -1.000000e+00
   outer loop
     vertex  7.014803e-02 -1.053942e-17 -1.570724e-02
     vertex  7.014803e-02 -7.500000e-01 -1.570724e-02
     vertex -4.958882e-02 -7.500000e-01 -1.570724e-02
   endloop
 endfacet
 facet normal  0.000000e+00  0.000000e+00 -1.000000e+00
   outer loop
     vertex -4.958882e-02  1.466353e-17  5.156250e-01
     vertex -2.890625e-01 -7.500000e-01  5.156250e-01
     vertex -2.890625e-01  0.000000e+00  5.156250e-01
   endloop
 endfacet
 facet normal  0.000000e+00 -0.000000e+00 -1.000000e+00
   outer loop
     vertex -4.958882e-02  1.466353e-17  5.156250e-01
     vertex -4.958882e-02 -7.500000e-01  5.156250e-01
     vertex -2.890625e-01 -7.500000e-01  5.156250e-01
   endloop
 endfacet
 facet normal -1.000000e+00  0.000000e+00  0.000000e+00
   outer loop
     vertex -4.958882e-02 -1.787118e-17 -1.570724e-02
     vertex -4.958882e-02 -7.500000e-01  5.156250e-01
     vertex -4.958882e-02  1.466353e-17  5.156250e-01
   endloop
 endfacet
 facet normal -1.000000e+00  0.000000e+00  0.000000e+00
   outer loop
     vertex -4.958882e-02 -1.787118e-17 -1.570724e-02
     vertex -4.958882e-02 -7.500000e-01 -1.570724e-02
     vertex -4.958882e-02 -7.500000e-01  5.156250e-01
   endloop
 endfacet
 facet normal  1.000000e+00  0.000000e+00  0.000000e+00
   outer loop
     vertex  4.218750e-01  5.086413e-17  6.353618e-01
     vertex  4.218750e-01 -7.500000e-01  5.156250e-01
     vertex  4.218750e-01  4.353237e-17  5.156250e-01
   endloop
 endfacet
 facet normal  1.000000e+00  0.000000e+00  0.000000e+00
   outer loop
     vertex  4.218750e-01  5.086413e-17  6.353618e-01
     vertex  4.218750e-01 -7.500000e-01  6.353618e-01
     vertex  4.218750e-01 -7.500000e-01  5.156250e-01
   endloop
 endfacet
 facet normal -0.000000e+00  0.000000e+00  1.000000e+00
   outer loop
     vertex -2.890625e-01  7.331767e-18  6.353618e-01
     vertex  4.218750e-01 -7.500000e-01  6.353618e-01
     vertex  4.218750e-01  5.086413e-17  6.353618e-01
   endloop
 endfacet
 facet normal  0.000000e+00  0.000000e+00  1.000000e+00
   outer loop
     vertex -2.890625e-01  7.331767e-18  6.353618e-01
     vertex -2.890625e-01 -7.500000e-01  6.353618e-01
     vertex  4.218750e-01 -7.500000e-01  6.353618e-01
   endloop
 endfacet
 facet normal -1.000000e+00  0.000000e+00  0.000000e+00
   outer loop
     vertex -2.890625e-01  0.000000e+00  5.156250e-01
     vertex -2.890625e-01 -7.500000e-01  6.353618e-01
     vertex -2.890625e-01  7.331767e-18  6.353618e-01
   endloop
 endfacet
 facet normal -1.000000e+00  0.000000e+00  0.000000e+00
   outer loop
     vertex -2.890625e-01  0.000000e+00  5.156250e-01
     vertex -2.890625e-01 -7.500000e-01  5.156250e-01
     vertex -2.890625e-01 -7.500000e-01  6.353618e-01
   endloop
 endfacet
endsolid
