solid 
 facet normal -2.588190e-01  0.000000e+00 -9.659258e-01
   outer loop
     vertex  6.315789e-02 -2.831064e-18  1.560732e-02
     vertex  1.263158e-01  7.703720e-34 -1.315789e-03
     vertex  1.263158e-01 -1.250000e-01 -1.315789e-03
   endloop
 endfacet
 facet normal -2.588190e-01 -0.000000e+00 -9.659258e-01
   outer loop
     vertex  6.315789e-02 -2.831064e-18  1.560732e-02
     vertex  1.263158e-01 -1.250000e-01 -1.315789e-03
     vertex  6.315789e-02 -1.250000e-01  1.560732e-02
   endloop
 endfacet
 facet normal -7.071068e-01 -0.000000e+00 -7.071068e-01
   outer loop
     vertex  1.692311e-02 -2.831064e-18  6.184211e-02
     vertex  6.315789e-02 -1.250000e-01  1.560732e-02
     vertex  1.692311e-02 -1.250000e-01  6.184211e-02
   endloop
 endfacet
 facet normal -7.071068e-01  0.000000e+00 -7.071068e-01
   outer loop
     vertex  1.692311e-02 -2.831064e-18  6.184211e-02
     vertex  6.315789e-02 -2.831064e-18  1.560732e-02
     vertex  6.315789e-02 -1.250000e-01  1.560732e-02
   endloop
 endfacet
 facet normal -9.659258e-01 -5.914590e-17 -2.588190e-01
   outer loop
     vertex  0.000000e+00  0.000000e+00  1.250000e-01
     vertex  1.692311e-02 -1.250000e-01  6.184211e-02
     vertex  7.654042e-18 -1.250000e-01  1.250000e-01
   endloop
 endfacet
 facet normal -9.659258e-01  0.000000e+00 -2.588190e-01
   outer loop
     vertex  0.000000e+00  0.000000e+00  1.250000e-01
     vertex  1.692311e-02 -2.831064e-18  6.184211e-02
     vertex  1.692311e-02 -1.250000e-01  6.184211e-02
   endloop
 endfacet
 facet normal -1.000000e+00 -6.123234e-17  3.061616e-17
   outer loop
     vertex  0.000000e+00  0.000000e+00  1.250000e-01
     vertex  2.288155e-17 -1.250000e-01  6.223684e-01
     vertex  1.522751e-17  3.045503e-17  6.223684e-01
   endloop
 endfacet
 facet normal -1.000000e+00 -6.123234e-17  3.061616e-17
   outer loop
     vertex  0.000000e+00  0.000000e+00  1.250000e-01
     vertex  7.654042e-18 -1.250000e-01  1.250000e-01
     vertex  2.288155e-17 -1.250000e-01  6.223684e-01
   endloop
 endfacet
 facet normal  0.000000e+00  0.000000e+00 -1.000000e+00
   outer loop
     vertex  6.236842e-01  3.045503e-17 -1.315789e-03
     vertex  1.263158e-01 -1.250000e-01 -1.315789e-03
     vertex  1.263158e-01  7.703720e-34 -1.315789e-03
   endloop
 endfacet
 facet normal  0.000000e+00 -0.000000e+00 -1.000000e+00
   outer loop
     vertex  6.236842e-01  3.045503e-17 -1.315789e-03
     vertex  6.236842e-01 -1.250000e-01 -1.315789e-03
     vertex  1.263158e-01 -1.250000e-01 -1.315789e-03
   endloop
 endfacet
 facet normal -1.701638e-16  1.000000e+00  2.474214e-16
   outer loop
     vertex  1.228430e-01 -4.229885e-18  2.265810e-01
     vertex  1.439753e-01  4.724038e-18  2.049258e-01
     vertex  0.000000e+00  0.000000e+00  1.250000e-01
   endloop
 endfacet
 facet normal -6.123234e-17  1.000000e+00 -6.123234e-17
   outer loop
     vertex  1.575419e-01  1.396393e-17  1.955063e-01
     vertex  1.692311e-02 -2.831064e-18  6.184211e-02
     vertex  0.000000e+00  0.000000e+00  1.250000e-01
   endloop
 endfacet
 facet normal -6.123234e-17  1.000000e+00 -6.123234e-17
   outer loop
     vertex  1.575419e-01  1.396393e-17  1.955063e-01
     vertex  6.315789e-02 -2.831064e-18  1.560732e-02
     vertex  1.692311e-02 -2.831064e-18  6.184211e-02
   endloop
 endfacet
 facet normal -6.123234e-17  1.000000e+00 -6.123234e-17
   outer loop
     vertex  1.575419e-01  1.396393e-17  1.955063e-01
     vertex  1.263158e-01  7.703720e-34 -1.315789e-03
     vertex  6.315789e-02 -2.831064e-18  1.560732e-02
   endloop
 endfacet
 facet normal -3.208388e-16  1.000000e+00  5.188416e-16
   outer loop
     vertex  1.575419e-01  1.396393e-17  1.955063e-01
     vertex  0.000000e+00  0.000000e+00  1.250000e-01
     vertex  1.439753e-01  4.724038e-18  2.049258e-01
   endloop
 endfacet
 facet normal -6.123234e-17  1.000000e+00 -6.123234e-17
   outer loop
     vertex  1.730390e-01  1.456314e-17  1.897951e-01
     vertex  1.263158e-01  7.703720e-34 -1.315789e-03
     vertex  1.575419e-01  1.396393e-17  1.955063e-01
   endloop
 endfacet
 facet normal  6.643947e-17  1.000000e+00 -3.870545e-17
   outer loop
     vertex  1.175854e-01 -2.727256e-18  2.563784e-01
     vertex  1.228430e-01 -4.229885e-18  2.265810e-01
     vertex  0.000000e+00  0.000000e+00  1.250000e-01
   endloop
 endfacet
 facet normal -6.123234e-17  1.000000e+00 -6.123234e-17
   outer loop
     vertex  1.894737e-01  1.546922e-17  1.881579e-01
     vertex  1.263158e-01  7.703720e-34 -1.315789e-03
     vertex  1.730390e-01  1.456314e-17  1.897951e-01
   endloop
 endfacet
 facet normal -6.123234e-17  1.000000e+00 -6.123234e-17
   outer loop
     vertex  6.236842e-01  3.045503e-17 -1.315789e-03
     vertex  1.263158e-01  7.703720e-34 -1.315789e-03
     vertex  1.894737e-01  1.546922e-17  1.881579e-01
   endloop
 endfacet
 facet normal -6.123234e-17  1.000000e+00 -6.123234e-17
   outer loop
     vertex  1.522751e-17  3.045503e-17  6.223684e-01
     vertex  1.342105e-01  1.836970e-17  2.907895e-01
     vertex  1.327243e-01  1.814280e-17  2.885701e-01
   endloop
 endfacet
 facet normal -6.123234e-17  1.000000e+00 -6.123234e-17
   outer loop
     vertex  1.522751e-17  3.045503e-17  6.223684e-01
     vertex  1.327243e-01  1.814280e-17  2.885701e-01
     vertex  1.313302e-01  1.791792e-17  2.862917e-01
   endloop
 endfacet
 facet normal -4.124351e-15  1.000000e+00 -1.648995e-15
   outer loop
     vertex  1.522751e-17  3.045503e-17  6.223684e-01
     vertex  1.313302e-01  1.791792e-17  2.862917e-01
     vertex  1.300305e-01  8.709504e-18  2.839581e-01
   endloop
 endfacet
 facet normal -4.194264e-16  1.000000e+00 -2.254180e-16
   outer loop
     vertex  1.522751e-17  3.045503e-17  6.223684e-01
     vertex  1.300305e-01  8.709504e-18  2.839581e-01
     vertex  1.175854e-01 -2.727256e-18  2.563784e-01
   endloop
 endfacet
 facet normal  9.160880e-17  1.000000e+00 -6.123234e-17
   outer loop
     vertex  1.522751e-17  3.045503e-17  6.223684e-01
     vertex  1.175854e-01 -2.727256e-18  2.563784e-01
     vertex  0.000000e+00  0.000000e+00  1.250000e-01
   endloop
 endfacet
 facet normal -6.123234e-17  1.000000e+00 -6.123234e-17
   outer loop
     vertex  5.605263e-01  3.818964e-17  1.881579e-01
     vertex  6.236842e-01  3.045503e-17 -1.315789e-03
     vertex  1.894737e-01  1.546922e-17  1.881579e-01
   endloop
 endfacet
 facet normal -6.123234e-17  1.000000e+00 -6.123234e-17
   outer loop
     vertex  6.047950e-01  4.186084e-17  2.038445e-01
     vertex  6.868421e-01  3.535858e-17  1.560732e-02
     vertex  6.236842e-01  3.045503e-17 -1.315789e-03
   endloop
 endfacet
 facet normal -6.123234e-17  1.000000e+00 -6.123234e-17
   outer loop
     vertex  6.047950e-01  4.186084e-17  2.038445e-01
     vertex  7.330769e-01  4.102071e-17  6.184211e-02
     vertex  6.868421e-01  3.535858e-17  1.560732e-02
   endloop
 endfacet
 facet normal -6.123234e-17  1.000000e+00 -6.123234e-17
   outer loop
     vertex  6.047950e-01  4.186084e-17  2.038445e-01
     vertex  6.236842e-01  3.045503e-17 -1.315789e-03
     vertex  5.605263e-01  3.818964e-17  1.881579e-01
   endloop
 endfacet
 facet normal -6.123234e-17  1.000000e+00 -6.123234e-17
   outer loop
     vertex  3.236842e-01  4.495743e-17  5.355263e-01
     vertex  1.342105e-01  1.836970e-17  2.907895e-01
     vertex  1.522751e-17  3.045503e-17  6.223684e-01
   endloop
 endfacet
 facet normal -6.123234e-17  1.000000e+00 -6.123234e-17
   outer loop
     vertex  7.500000e-01  4.592425e-17  1.250000e-01
     vertex  6.047950e-01  4.186084e-17  2.038445e-01
     vertex  6.270614e-01  4.575635e-17  2.451964e-01
   endloop
 endfacet
 facet normal -6.123234e-17  1.000000e+00 -6.123234e-17
   outer loop
     vertex  7.500000e-01  4.592425e-17  1.250000e-01
     vertex  7.330769e-01  4.102071e-17  6.184211e-02
     vertex  6.047950e-01  4.186084e-17  2.038445e-01
   endloop
 endfacet
 facet normal -6.123234e-17  1.000000e+00 -6.123234e-17
   outer loop
     vertex  1.263158e-01  4.592425e-17  7.486842e-01
     vertex  1.692311e-02  3.535858e-17  6.855263e-01
     vertex  6.315789e-02  4.102071e-17  7.317611e-01
   endloop
 endfacet
 facet normal -6.123234e-17  1.000000e+00 -6.123234e-17
   outer loop
     vertex  1.263158e-01  4.592425e-17  7.486842e-01
     vertex  1.522751e-17  3.045503e-17  6.223684e-01
     vertex  1.692311e-02  3.535858e-17  6.855263e-01
   endloop
 endfacet
 facet normal -6.123234e-17  1.000000e+00 -6.123234e-17
   outer loop
     vertex  1.263158e-01  4.592425e-17  7.486842e-01
     vertex  3.236842e-01  4.495743e-17  5.355263e-01
     vertex  1.522751e-17  3.045503e-17  6.223684e-01
   endloop
 endfacet
 facet normal -6.123234e-17  1.000000e+00 -6.123234e-17
   outer loop
     vertex  6.157895e-01  4.785791e-17  2.907895e-01
     vertex  7.500000e-01  4.592425e-17  1.250000e-01
     vertex  6.270614e-01  4.575635e-17  2.451964e-01
   endloop
 endfacet
 facet normal -6.123234e-17  1.000000e+00 -6.123234e-17
   outer loop
     vertex  3.554563e-01  4.829702e-17  5.582939e-01
     vertex  3.236842e-01  4.495743e-17  5.355263e-01
     vertex  1.263158e-01  4.592425e-17  7.486842e-01
   endloop
 endfacet
 facet normal -6.123234e-17  1.000000e+00 -6.123234e-17
   outer loop
     vertex  3.945437e-01  5.069043e-17  5.582939e-01
     vertex  3.554563e-01  4.829702e-17  5.582939e-01
     vertex  1.263158e-01  4.592425e-17  7.486842e-01
   endloop
 endfacet
 facet normal -6.123234e-17  1.000000e+00 -6.123234e-17
   outer loop
     vertex  6.236842e-01  7.637929e-17  7.486842e-01
     vertex  4.263158e-01  5.124180e-17  5.355263e-01
     vertex  3.945437e-01  5.069043e-17  5.582939e-01
   endloop
 endfacet
 facet normal -6.123234e-17  1.000000e+00 -6.123234e-17
   outer loop
     vertex  6.236842e-01  7.637929e-17  7.486842e-01
     vertex  3.945437e-01  5.069043e-17  5.582939e-01
     vertex  1.263158e-01  4.592425e-17  7.486842e-01
   endloop
 endfacet
 facet normal -6.123234e-17  1.000000e+00 -6.123234e-17
   outer loop
     vertex  7.500000e-01  7.637929e-17  6.223684e-01
     vertex  6.157895e-01  4.785791e-17  2.907895e-01
     vertex  4.263158e-01  5.124180e-17  5.355263e-01
   endloop
 endfacet
 facet normal -6.123234e-17  1.000000e+00 -6.123234e-17
   outer loop
     vertex  7.500000e-01  7.637929e-17  6.223684e-01
     vertex  4.263158e-01  5.124180e-17  5.355263e-01
     vertex  6.236842e-01  7.637929e-17  7.486842e-01
   endloop
 endfacet
 facet normal -6.123234e-17  1.000000e+00 -6.123234e-17
   outer loop
     vertex  7.500000e-01  7.637929e-17  6.223684e-01
     vertex  7.500000e-01  4.592425e-17  1.250000e-01
     vertex  6.157895e-01  4.785791e-17  2.907895e-01
   endloop
 endfacet
 facet normal -6.123234e-17  1.000000e+00 -6.123234e-17
   outer loop
     vertex  7.330769e-01  7.921035e-17  6.855263e-01
     vertex  7.500000e-01  7.637929e-17  6.223684e-01
     vertex  6.236842e-01  7.637929e-17  7.486842e-01
   endloop
 endfacet
 facet normal -6.123234e-17  1.000000e+00 -6.123234e-17
   outer loop
     vertex  6.868421e-01  7.921035e-17  7.317611e-01
     vertex  7.330769e-01  7.921035e-17  6.855263e-01
     vertex  6.236842e-01  7.637929e-17  7.486842e-01
   endloop
 endfacet
 facet normal  0.000000e+00 -1.000000e+00 -0.000000e+00
   outer loop
     vertex  1.228430e-01 -1.250000e-01  2.265810e-01
     vertex  7.654042e-18 -1.250000e-01  1.250000e-01
     vertex  1.439753e-01 -1.250000e-01  2.049258e-01
   endloop
 endfacet
 facet normal  0.000000e+00 -1.000000e+00  0.000000e+00
   outer loop
     vertex  1.575419e-01 -1.250000e-01  1.955063e-01
     vertex  7.654042e-18 -1.250000e-01  1.250000e-01
     vertex  1.692311e-02 -1.250000e-01  6.184211e-02
   endloop
 endfacet
 facet normal  0.000000e+00 -1.000000e+00  0.000000e+00
   outer loop
     vertex  1.575419e-01 -1.250000e-01  1.955063e-01
     vertex  1.692311e-02 -1.250000e-01  6.184211e-02
     vertex  6.315789e-02 -1.250000e-01  1.560732e-02
   endloop
 endfacet
 facet normal  0.000000e+00 -1.000000e+00  0.000000e+00
   outer loop
     vertex  1.575419e-01 -1.250000e-01  1.955063e-01
     vertex  6.315789e-02 -1.250000e-01  1.560732e-02
     vertex  1.263158e-01 -1.250000e-01 -1.315789e-03
   endloop
 endfacet
 facet normal -0.000000e+00 -1.000000e+00  0.000000e+00
   outer loop
     vertex  1.575419e-01 -1.250000e-01  1.955063e-01
     vertex  1.439753e-01 -1.250000e-01  2.049258e-01
     vertex  7.654042e-18 -1.250000e-01  1.250000e-01
   endloop
 endfacet
 facet normal -0.000000e+00 -1.000000e+00  0.000000e+00
   outer loop
     vertex  1.730390e-01 -1.250000e-01  1.897951e-01
     vertex  1.575419e-01 -1.250000e-01  1.955063e-01
     vertex  1.263158e-01 -1.250000e-01 -1.315789e-03
   endloop
 endfacet
 facet normal  0.000000e+00 -1.000000e+00 -0.000000e+00
   outer loop
     vertex  1.175854e-01 -1.250000e-01  2.563784e-01
     vertex  7.654042e-18 -1.250000e-01  1.250000e-01
     vertex  1.228430e-01 -1.250000e-01  2.265810e-01
   endloop
 endfacet
 facet normal -0.000000e+00 -1.000000e+00  0.000000e+00
   outer loop
     vertex  1.894737e-01 -1.250000e-01  1.881579e-01
     vertex  1.730390e-01 -1.250000e-01  1.897951e-01
     vertex  1.263158e-01 -1.250000e-01 -1.315789e-03
   endloop
 endfacet
 facet normal  0.000000e+00 -1.000000e+00  0.000000e+00
   outer loop
     vertex  6.236842e-01 -1.250000e-01 -1.315789e-03
     vertex  1.894737e-01 -1.250000e-01  1.881579e-01
     vertex  1.263158e-01 -1.250000e-01 -1.315789e-03
   endloop
 endfacet
 facet normal  0.000000e+00 -1.000000e+00  0.000000e+00
   outer loop
     vertex  2.288155e-17 -1.250000e-01  6.223684e-01
     vertex  1.327243e-01 -1.250000e-01  2.885701e-01
     vertex  1.342105e-01 -1.250000e-01  2.907895e-01
   endloop
 endfacet
 facet normal  0.000000e+00 -1.000000e+00  0.000000e+00
   outer loop
     vertex  2.288155e-17 -1.250000e-01  6.223684e-01
     vertex  1.313302e-01 -1.250000e-01  2.862917e-01
     vertex  1.327243e-01 -1.250000e-01  2.885701e-01
   endloop
 endfacet
 facet normal  0.000000e+00 -1.000000e+00  0.000000e+00
   outer loop
     vertex  2.288155e-17 -1.250000e-01  6.223684e-01
     vertex  1.300305e-01 -1.250000e-01  2.839581e-01
     vertex  1.313302e-01 -1.250000e-01  2.862917e-01
   endloop
 endfacet
 facet normal  0.000000e+00 -1.000000e+00  0.000000e+00
   outer loop
     vertex  2.288155e-17 -1.250000e-01  6.223684e-01
     vertex  1.175854e-01 -1.250000e-01  2.563784e-01
     vertex  1.300305e-01 -1.250000e-01  2.839581e-01
   endloop
 endfacet
 facet normal  0.000000e+00 -1.000000e+00 -0.000000e+00
   outer loop
     vertex  2.288155e-17 -1.250000e-01  6.223684e-01
     vertex  7.654042e-18 -1.250000e-01  1.250000e-01
     vertex  1.175854e-01 -1.250000e-01  2.563784e-01
   endloop
 endfacet
 facet normal -0.000000e+00 -1.000000e+00 -0.000000e+00
   outer loop
     vertex  5.605263e-01 -1.250000e-01  1.881579e-01
     vertex  1.894737e-01 -1.250000e-01  1.881579e-01
     vertex  6.236842e-01 -1.250000e-01 -1.315789e-03
   endloop
 endfacet
 facet normal  0.000000e+00 -1.000000e+00  0.000000e+00
   outer loop
     vertex  6.047950e-01 -1.250000e-01  2.038445e-01
     vertex  6.236842e-01 -1.250000e-01 -1.315789e-03
     vertex  6.868421e-01 -1.250000e-01  1.560732e-02
   endloop
 endfacet
 facet normal  0.000000e+00 -1.000000e+00  0.000000e+00
   outer loop
     vertex  6.047950e-01 -1.250000e-01  2.038445e-01
     vertex  6.868421e-01 -1.250000e-01  1.560732e-02
     vertex  7.330769e-01 -1.250000e-01  6.184211e-02
   endloop
 endfacet
 facet normal  0.000000e+00 -1.000000e+00 -0.000000e+00
   outer loop
     vertex  6.047950e-01 -1.250000e-01  2.038445e-01
     vertex  5.605263e-01 -1.250000e-01  1.881579e-01
     vertex  6.236842e-01 -1.250000e-01 -1.315789e-03
   endloop
 endfacet
 facet normal -0.000000e+00 -1.000000e+00  0.000000e+00
   outer loop
     vertex  3.236842e-01 -1.250000e-01  5.355263e-01
     vertex  2.288155e-17 -1.250000e-01  6.223684e-01
     vertex  1.342105e-01 -1.250000e-01  2.907895e-01
   endloop
 endfacet
 facet normal  0.000000e+00 -1.000000e+00  0.000000e+00
   outer loop
     vertex  7.500000e-01 -1.250000e-01  1.250000e-01
     vertex  6.270614e-01 -1.250000e-01  2.451964e-01
     vertex  6.047950e-01 -1.250000e-01  2.038445e-01
   endloop
 endfacet
 facet normal -0.000000e+00 -1.000000e+00  0.000000e+00
   outer loop
     vertex  7.500000e-01 -1.250000e-01  1.250000e-01
     vertex  6.047950e-01 -1.250000e-01  2.038445e-01
     vertex  7.330769e-01 -1.250000e-01  6.184211e-02
   endloop
 endfacet
 facet normal  0.000000e+00 -1.000000e+00  0.000000e+00
   outer loop
     vertex  1.263158e-01 -1.250000e-01  7.486842e-01
     vertex  6.315789e-02 -1.250000e-01  7.317611e-01
     vertex  1.692311e-02 -1.250000e-01  6.855263e-01
   endloop
 endfacet
 facet normal  0.000000e+00 -1.000000e+00  0.000000e+00
   outer loop
     vertex  1.263158e-01 -1.250000e-01  7.486842e-01
     vertex  1.692311e-02 -1.250000e-01  6.855263e-01
     vertex  2.288155e-17 -1.250000e-01  6.223684e-01
   endloop
 endfacet
 facet normal  0.000000e+00 -1.000000e+00 -0.000000e+00
   outer loop
     vertex  1.263158e-01 -1.250000e-01  7.486842e-01
     vertex  2.288155e-17 -1.250000e-01  6.223684e-01
     vertex  3.236842e-01 -1.250000e-01  5.355263e-01
   endloop
 endfacet
 facet normal  0.000000e+00 -1.000000e+00  0.000000e+00
   outer loop
     vertex  6.157895e-01 -1.250000e-01  2.907895e-01
     vertex  6.270614e-01 -1.250000e-01  2.451964e-01
     vertex  7.500000e-01 -1.250000e-01  1.250000e-01
   endloop
 endfacet
 facet normal -0.000000e+00 -1.000000e+00  0.000000e+00
   outer loop
     vertex  3.554563e-01 -1.250000e-01  5.582939e-01
     vertex  1.263158e-01 -1.250000e-01  7.486842e-01
     vertex  3.236842e-01 -1.250000e-01  5.355263e-01
   endloop
 endfacet
 facet normal -0.000000e+00 -1.000000e+00  0.000000e+00
   outer loop
     vertex  3.945437e-01 -1.250000e-01  5.582939e-01
     vertex  1.263158e-01 -1.250000e-01  7.486842e-01
     vertex  3.554563e-01 -1.250000e-01  5.582939e-01
   endloop
 endfacet
 facet normal  0.000000e+00 -1.000000e+00  0.000000e+00
   outer loop
     vertex  6.236842e-01 -1.250000e-01  7.486842e-01
     vertex  3.945437e-01 -1.250000e-01  5.582939e-01
     vertex  4.263158e-01 -1.250000e-01  5.355263e-01
   endloop
 endfacet
 facet normal -0.000000e+00 -1.000000e+00  0.000000e+00
   outer loop
     vertex  6.236842e-01 -1.250000e-01  7.486842e-01
     vertex  1.263158e-01 -1.250000e-01  7.486842e-01
     vertex  3.945437e-01 -1.250000e-01  5.582939e-01
   endloop
 endfacet
 facet normal  0.000000e+00 -1.000000e+00  0.000000e+00
   outer loop
     vertex  7.500000e-01 -1.250000e-01  6.223684e-01
     vertex  4.263158e-01 -1.250000e-01  5.355263e-01
     vertex  6.157895e-01 -1.250000e-01  2.907895e-01
   endloop
 endfacet
 facet normal -0.000000e+00 -1.000000e+00  0.000000e+00
   outer loop
     vertex  7.500000e-01 -1.250000e-01  6.223684e-01
     vertex  6.236842e-01 -1.250000e-01  7.486842e-01
     vertex  4.263158e-01 -1.250000e-01  5.355263e-01
   endloop
 endfacet
 facet normal  0.000000e+00 -1.000000e+00 -0.000000e+00
   outer loop
     vertex  7.500000e-01 -1.250000e-01  6.223684e-01
     vertex  6.157895e-01 -1.250000e-01  2.907895e-01
     vertex  7.500000e-01 -1.250000e-01  1.250000e-01
   endloop
 endfacet
 facet normal  3.001590e-16 -1.000000e+00  3.001590e-16
   outer loop
     vertex  7.330769e-01 -1.250000e-01  6.855263e-01
     vertex  6.236842e-01 -1.250000e-01  7.486842e-01
     vertex  7.500000e-01 -1.250000e-01  6.223684e-01
   endloop
 endfacet
 facet normal  3.001590e-16 -1.000000e+00  3.001590e-16
   outer loop
     vertex  6.868421e-01 -1.250000e-01  7.317611e-01
     vertex  6.236842e-01 -1.250000e-01  7.486842e-01
     vertex  7.330769e-01 -1.250000e-01  6.855263e-01
   endloop
 endfacet
 facet normal -9.659258e-01 -7.959167e-17  2.588190e-01
   outer loop
     vertex  1.692311e-02  3.535858e-17  6.855263e-01
     vertex  1.522751e-17  3.045503e-17  6.223684e-01
     vertex  2.288155e-17 -1.250000e-01  6.223684e-01
   endloop
 endfacet
 facet normal -9.659258e-01  0.000000e+00  2.588190e-01
   outer loop
     vertex  1.692311e-02  3.535858e-17  6.855263e-01
     vertex  2.288155e-17 -1.250000e-01  6.223684e-01
     vertex  1.692311e-02 -1.250000e-01  6.855263e-01
   endloop
 endfacet
 facet normal -7.071068e-01  0.000000e+00  7.071068e-01
   outer loop
     vertex  6.315789e-02  4.102071e-17  7.317611e-01
     vertex  1.692311e-02 -1.250000e-01  6.855263e-01
     vertex  6.315789e-02 -1.250000e-01  7.317611e-01
   endloop
 endfacet
 facet normal -7.071068e-01  0.000000e+00  7.071068e-01
   outer loop
     vertex  6.315789e-02  4.102071e-17  7.317611e-01
     vertex  1.692311e-02  3.535858e-17  6.855263e-01
     vertex  1.692311e-02 -1.250000e-01  6.855263e-01
   endloop
 endfacet
 facet normal -2.588190e-01  0.000000e+00  9.659258e-01
   outer loop
     vertex  1.263158e-01  4.592425e-17  7.486842e-01
     vertex  6.315789e-02 -1.250000e-01  7.317611e-01
     vertex  1.263158e-01 -1.250000e-01  7.486842e-01
   endloop
 endfacet
 facet normal -2.588190e-01  0.000000e+00  9.659258e-01
   outer loop
     vertex  1.263158e-01  4.592425e-17  7.486842e-01
     vertex  6.315789e-02  4.102071e-17  7.317611e-01
     vertex  6.315789e-02 -1.250000e-01  7.317611e-01
   endloop
 endfacet
 facet normal  9.659258e-01  0.000000e+00 -2.588190e-01
   outer loop
     vertex  7.330769e-01  4.102071e-17  6.184211e-02
     vertex  7.500000e-01  4.592425e-17  1.250000e-01
     vertex  7.500000e-01 -1.250000e-01  1.250000e-01
   endloop
 endfacet
 facet normal  9.659258e-01  0.000000e+00 -2.588190e-01
   outer loop
     vertex  7.330769e-01  4.102071e-17  6.184211e-02
     vertex  7.500000e-01 -1.250000e-01  1.250000e-01
     vertex  7.330769e-01 -1.250000e-01  6.184211e-02
   endloop
 endfacet
 facet normal  7.071068e-01  0.000000e+00 -7.071068e-01
   outer loop
     vertex  6.868421e-01  3.535858e-17  1.560732e-02
     vertex  7.330769e-01 -1.250000e-01  6.184211e-02
     vertex  6.868421e-01 -1.250000e-01  1.560732e-02
   endloop
 endfacet
 facet normal  7.071068e-01  0.000000e+00 -7.071068e-01
   outer loop
     vertex  6.868421e-01  3.535858e-17  1.560732e-02
     vertex  7.330769e-01  4.102071e-17  6.184211e-02
     vertex  7.330769e-01 -1.250000e-01  6.184211e-02
   endloop
 endfacet
 facet normal  2.588190e-01  0.000000e+00 -9.659258e-01
   outer loop
     vertex  6.236842e-01  3.045503e-17 -1.315789e-03
     vertex  6.868421e-01 -1.250000e-01  1.560732e-02
     vertex  6.236842e-01 -1.250000e-01 -1.315789e-03
   endloop
 endfacet
 facet normal  2.588190e-01  0.000000e+00 -9.659258e-01
   outer loop
     vertex  6.236842e-01  3.045503e-17 -1.315789e-03
     vertex  6.868421e-01  3.535858e-17  1.560732e-02
     vertex  6.868421e-01 -1.250000e-01  1.560732e-02
   endloop
 endfacet
 facet normal -0.000000e+00  0.000000e+00  1.000000e+00
   outer loop
     vertex  1.263158e-01  4.592425e-17  7.486842e-01
     vertex  6.236842e-01 -1.250000e-01  7.486842e-01
     vertex  6.236842e-01  7.637929e-17  7.486842e-01
   endloop
 endfacet
 facet normal  0.000000e+00  0.000000e+00  1.000000e+00
   outer loop
     vertex  1.263158e-01  4.592425e-17  7.486842e-01
     vertex  1.263158e-01 -1.250000e-01  7.486842e-01
     vertex  6.236842e-01 -1.250000e-01  7.486842e-01
   endloop
 endfacet
 facet normal  1.000000e+00  0.000000e+00  0.000000e+00
   outer loop
     vertex  7.500000e-01  7.637929e-17  6.223684e-01
     vertex  7.500000e-01 -1.250000e-01  1.250000e-01
     vertex  7.500000e-01  4.592425e-17  1.250000e-01
   endloop
 endfacet
 facet normal  1.000000e+00  0.000000e+00  0.000000e+00
   outer loop
     vertex  7.500000e-01  7.637929e-17  6.223684e-01
     vertex  7.500000e-01 -1.250000e-01  6.223684e-01
     vertex  7.500000e-01 -1.250000e-01  1.250000e-01
   endloop
 endfacet
 facet normal  2.588190e-01  0.000000e+00  9.659258e-01
   outer loop
     vertex  6.868421e-01  7.921035e-17  7.317611e-01
     vertex  6.236842e-01  7.637929e-17  7.486842e-01
     vertex  6.236842e-01 -1.250000e-01  7.486842e-01
   endloop
 endfacet
 facet normal  2.588190e-01  0.000000e+00  9.659258e-01
   outer loop
     vertex  6.868421e-01  7.921035e-17  7.317611e-01
     vertex  6.236842e-01 -1.250000e-01  7.486842e-01
     vertex  6.868421e-01 -1.250000e-01  7.317611e-01
   endloop
 endfacet
 facet normal  7.071068e-01  0.000000e+00  7.071068e-01
   outer loop
     vertex  7.330769e-01  7.921035e-17  6.855263e-01
     vertex  6.868421e-01 -1.250000e-01  7.317611e-01
     vertex  7.330769e-01 -1.250000e-01  6.855263e-01
   endloop
 endfacet
 facet normal  7.071068e-01  0.000000e+00  7.071068e-01
   outer loop
     vertex  7.330769e-01  7.921035e-17  6.855263e-01
     vertex  6.868421e-01  7.921035e-17  7.317611e-01
     vertex  6.868421e-01 -1.250000e-01  7.317611e-01
   endloop
 endfacet
 facet normal  9.659258e-01  0.000000e+00  2.588190e-01
   outer loop
     vertex  7.500000e-01  7.637929e-17  6.223684e-01
     vertex  7.330769e-01 -1.250000e-01  6.855263e-01
     vertex  7.500000e-01 -1.250000e-01  6.223684e-01
   endloop
 endfacet
 facet normal  9.659258e-01  0.000000e+00  2.588190e-01
   outer loop
     vertex  7.500000e-01  7.637929e-17  6.223684e-01
     vertex  7.330769e-01  7.921035e-17  6.855263e-01
     vertex  7.330769e-01 -1.250000e-01  6.855263e-01
   endloop
 endfacet
 facet normal  8.736332e-01  0.000000e+00 -4.865851e-01
   outer loop
     vertex  1.313302e-01  1.791792e-17  2.862917e-01
     vertex  1.300305e-01 -1.250000e-01  2.839581e-01
     vertex  1.300305e-01  8.709504e-18  2.839581e-01
   endloop
 endfacet
 facet normal  8.736332e-01  0.000000e+00 -4.865851e-01
   outer loop
     vertex  1.313302e-01  1.791792e-17  2.862917e-01
     vertex  1.313302e-01 -1.250000e-01  2.862917e-01
     vertex  1.300305e-01 -1.250000e-01  2.839581e-01
   endloop
 endfacet
 facet normal  8.529863e-01  0.000000e+00 -5.219333e-01
   outer loop
     vertex  1.327243e-01  1.814280e-17  2.885701e-01
     vertex  1.327243e-01 -1.250000e-01  2.885701e-01
     vertex  1.313302e-01 -1.250000e-01  2.862917e-01
   endloop
 endfacet
 facet normal  8.529863e-01  0.000000e+00 -5.219333e-01
   outer loop
     vertex  1.327243e-01  1.814280e-17  2.885701e-01
     vertex  1.313302e-01 -1.250000e-01  2.862917e-01
     vertex  1.313302e-01  1.791792e-17  2.862917e-01
   endloop
 endfacet
 facet normal  8.309100e-01  0.000000e+00 -5.564069e-01
   outer loop
     vertex  1.342105e-01  1.836970e-17  2.907895e-01
     vertex  1.342105e-01 -1.250000e-01  2.907895e-01
     vertex  1.327243e-01 -1.250000e-01  2.885701e-01
   endloop
 endfacet
 facet normal  8.309100e-01  0.000000e+00 -5.564069e-01
   outer loop
     vertex  1.342105e-01  1.836970e-17  2.907895e-01
     vertex  1.327243e-01 -1.250000e-01  2.885701e-01
     vertex  1.327243e-01  1.814280e-17  2.885701e-01
   endloop
 endfacet
 facet normal  9.114985e-01  0.000000e+00 -4.113033e-01
   outer loop
     vertex  1.175854e-01 -1.250000e-01  2.563784e-01
     vertex  1.300305e-01  8.709504e-18  2.839581e-01
     vertex  1.300305e-01 -1.250000e-01  2.839581e-01
   endloop
 endfacet
 facet normal  9.114985e-01  0.000000e+00 -4.113033e-01
   outer loop
     vertex  1.175854e-01 -1.250000e-01  2.563784e-01
     vertex  1.175854e-01 -2.727256e-18  2.563784e-01
     vertex  1.300305e-01  8.709504e-18  2.839581e-01
   endloop
 endfacet
 facet normal  9.847881e-01 -0.000000e+00  1.737597e-01
   outer loop
     vertex  1.228430e-01 -1.250000e-01  2.265810e-01
     vertex  1.228430e-01 -4.229885e-18  2.265810e-01
     vertex  1.175854e-01 -2.727256e-18  2.563784e-01
   endloop
 endfacet
 facet normal  9.847881e-01  0.000000e+00  1.737597e-01
   outer loop
     vertex  1.228430e-01 -1.250000e-01  2.265810e-01
     vertex  1.175854e-01 -2.727256e-18  2.563784e-01
     vertex  1.175854e-01 -1.250000e-01  2.563784e-01
   endloop
 endfacet
 facet normal  7.156963e-01 -0.000000e+00  6.984116e-01
   outer loop
     vertex  1.439753e-01 -1.250000e-01  2.049258e-01
     vertex  1.439753e-01  4.724038e-18  2.049258e-01
     vertex  1.228430e-01 -4.229885e-18  2.265810e-01
   endloop
 endfacet
 facet normal  7.156963e-01  0.000000e+00  6.984116e-01
   outer loop
     vertex  1.439753e-01 -1.250000e-01  2.049258e-01
     vertex  1.228430e-01 -4.229885e-18  2.265810e-01
     vertex  1.228430e-01 -1.250000e-01  2.265810e-01
   endloop
 endfacet
 facet normal  9.912711e-02  0.000000e+00  9.950748e-01
   outer loop
     vertex  1.730390e-01  1.456314e-17  1.897951e-01
     vertex  1.894737e-01 -1.250000e-01  1.881579e-01
     vertex  1.894737e-01  1.546922e-17  1.881579e-01
   endloop
 endfacet
 facet normal  9.912711e-02  0.000000e+00  9.950748e-01
   outer loop
     vertex  1.730390e-01  1.456314e-17  1.897951e-01
     vertex  1.730390e-01 -1.250000e-01  1.897951e-01
     vertex  1.894737e-01 -1.250000e-01  1.881579e-01
   endloop
 endfacet
 facet normal  5.703203e-01  0.000000e+00  8.214224e-01
   outer loop
     vertex  1.575419e-01  1.396393e-17  1.955063e-01
     vertex  1.439753e-01 -1.250000e-01  2.049258e-01
     vertex  1.575419e-01 -1.250000e-01  1.955063e-01
   endloop
 endfacet
 facet normal  3.458016e-01  0.000000e+00  9.383077e-01
   outer loop
     vertex  1.575419e-01  1.396393e-17  1.955063e-01
     vertex  1.575419e-01 -1.250000e-01  1.955063e-01
     vertex  1.730390e-01 -1.250000e-01  1.897951e-01
   endloop
 endfacet
 facet normal  3.458016e-01  0.000000e+00  9.383077e-01
   outer loop
     vertex  1.575419e-01  1.396393e-17  1.955063e-01
     vertex  1.730390e-01 -1.250000e-01  1.897951e-01
     vertex  1.730390e-01  1.456314e-17  1.897951e-01
   endloop
 endfacet
 facet normal  5.703203e-01  0.000000e+00  8.214224e-01
   outer loop
     vertex  1.439753e-01  4.724038e-18  2.049258e-01
     vertex  1.439753e-01 -1.250000e-01  2.049258e-01
     vertex  1.575419e-01  1.396393e-17  1.955063e-01
   endloop
 endfacet
 facet normal  0.000000e+00  0.000000e+00  1.000000e+00
   outer loop
     vertex  5.605263e-01  3.818964e-17  1.881579e-01
     vertex  1.894737e-01  1.546922e-17  1.881579e-01
     vertex  1.894737e-01 -1.250000e-01  1.881579e-01
   endloop
 endfacet
 facet normal  0.000000e+00  0.000000e+00  1.000000e+00
   outer loop
     vertex  5.605263e-01  3.818964e-17  1.881579e-01
     vertex  1.894737e-01 -1.250000e-01  1.881579e-01
     vertex  5.605263e-01 -1.250000e-01  1.881579e-01
   endloop
 endfacet
 facet normal -9.707720e-01 -0.000000e+00 -2.400035e-01
   outer loop
     vertex  6.157895e-01  4.785791e-17  2.907895e-01
     vertex  6.270614e-01 -1.250000e-01  2.451964e-01
     vertex  6.157895e-01 -1.250000e-01  2.907895e-01
   endloop
 endfacet
 facet normal -9.707720e-01 -0.000000e+00 -2.400035e-01
   outer loop
     vertex  6.270614e-01  4.575635e-17  2.451964e-01
     vertex  6.270614e-01 -1.250000e-01  2.451964e-01
     vertex  6.157895e-01  4.785791e-17  2.907895e-01
   endloop
 endfacet
 facet normal -8.804711e-01  0.000000e+00  4.740998e-01
   outer loop
     vertex  6.047950e-01  4.186084e-17  2.038445e-01
     vertex  6.047950e-01 -1.250000e-01  2.038445e-01
     vertex  6.270614e-01 -1.250000e-01  2.451964e-01
   endloop
 endfacet
 facet normal -8.804711e-01  0.000000e+00  4.740998e-01
   outer loop
     vertex  6.047950e-01  4.186084e-17  2.038445e-01
     vertex  6.270614e-01 -1.250000e-01  2.451964e-01
     vertex  6.270614e-01  4.575635e-17  2.451964e-01
   endloop
 endfacet
 facet normal -3.340001e-01  0.000000e+00  9.425730e-01
   outer loop
     vertex  5.605263e-01  3.818964e-17  1.881579e-01
     vertex  5.605263e-01 -1.250000e-01  1.881579e-01
     vertex  6.047950e-01 -1.250000e-01  2.038445e-01
   endloop
 endfacet
 facet normal -3.340001e-01  0.000000e+00  9.425730e-01
   outer loop
     vertex  5.605263e-01  3.818964e-17  1.881579e-01
     vertex  6.047950e-01 -1.250000e-01  2.038445e-01
     vertex  6.047950e-01  4.186084e-17  2.038445e-01
   endloop
 endfacet
 facet normal -7.907237e-01  0.000000e+00 -6.121732e-01
   outer loop
     vertex  4.263158e-01  5.124180e-17  5.355263e-01
     vertex  6.157895e-01  4.785791e-17  2.907895e-01
     vertex  6.157895e-01 -1.250000e-01  2.907895e-01
   endloop
 endfacet
 facet normal -7.907237e-01 -0.000000e+00 -6.121732e-01
   outer loop
     vertex  4.263158e-01  5.124180e-17  5.355263e-01
     vertex  6.157895e-01 -1.250000e-01  2.907895e-01
     vertex  4.263158e-01 -1.250000e-01  5.355263e-01
   endloop
 endfacet
 facet normal  5.824777e-01  0.000000e+00 -8.128467e-01
   outer loop
     vertex  3.236842e-01  4.495743e-17  5.355263e-01
     vertex  3.554563e-01 -1.250000e-01  5.582939e-01
     vertex  3.236842e-01 -1.250000e-01  5.355263e-01
   endloop
 endfacet
 facet normal  5.824777e-01  0.000000e+00 -8.128467e-01
   outer loop
     vertex  3.554563e-01  4.829702e-17  5.582939e-01
     vertex  3.554563e-01 -1.250000e-01  5.582939e-01
     vertex  3.236842e-01  4.495743e-17  5.355263e-01
   endloop
 endfacet
 facet normal  4.578659e-12  0.000000e+00 -1.000000e+00
   outer loop
     vertex  3.945437e-01  5.069043e-17  5.582939e-01
     vertex  3.945437e-01 -1.250000e-01  5.582939e-01
     vertex  3.554563e-01 -1.250000e-01  5.582939e-01
   endloop
 endfacet
 facet normal  4.578659e-12  0.000000e+00 -1.000000e+00
   outer loop
     vertex  3.945437e-01  5.069043e-17  5.582939e-01
     vertex  3.554563e-01 -1.250000e-01  5.582939e-01
     vertex  3.554563e-01  4.829702e-17  5.582939e-01
   endloop
 endfacet
 facet normal -5.824777e-01 -0.000000e+00 -8.128467e-01
   outer loop
     vertex  4.263158e-01  5.124180e-17  5.355263e-01
     vertex  4.263158e-01 -1.250000e-01  5.355263e-01
     vertex  3.945437e-01 -1.250000e-01  5.582939e-01
   endloop
 endfacet
 facet normal -5.824777e-01  0.000000e+00 -8.128467e-01
   outer loop
     vertex  4.263158e-01  5.124180e-17  5.355263e-01
     vertex  3.945437e-01 -1.250000e-01  5.582939e-01
     vertex  3.945437e-01  5.069043e-17  5.582939e-01
   endloop
 endfacet
 facet normal  7.907237e-01  0.000000e+00 -6.121732e-01
   outer loop
     vertex  1.342105e-01  1.836970e-17  2.907895e-01
     vertex  3.236842e-01  4.495743e-17  5.355263e-01
     vertex  3.236842e-01 -1.250000e-01  5.355263e-01
   endloop
 endfacet
 facet normal  7.907237e-01  0.000000e+00 -6.121732e-01
   outer loop
     vertex  1.342105e-01  1.836970e-17  2.907895e-01
     vertex  3.236842e-01 -1.250000e-01  5.355263e-01
     vertex  1.342105e-01 -1.250000e-01  2.907895e-01
   endloop
 endfacet
endsolid
