solid 
 facet normal  0.000000e+00  0.000000e+00  1.000000e+00
   outer loop
     vertex -5.390625e-01 -2.537007e-01  7.500000e-01
     vertex -5.468750e-01 -2.537007e-01  7.500000e-01
     vertex -5.468750e-01 -2.734375e-01  7.500000e-01
   endloop
 endfacet
 facet normal  0.000000e+00  0.000000e+00  1.000000e+00
   outer loop
     vertex -5.390625e-01 -2.537007e-01  7.500000e-01
     vertex -5.468750e-01 -2.734375e-01  7.500000e-01
     vertex -5.390625e-01 -2.734375e-01  7.500000e-01
   endloop
 endfacet
 facet normal  1.000000e+00 -0.000000e+00  0.000000e+00
   outer loop
     vertex -5.390625e-01 -2.537007e-01  7.500000e-01
     vertex -5.390625e-01  1.074013e-01  5.625000e-01
     vertex -5.390625e-01  1.074013e-01  7.500000e-01
   endloop
 endfacet
 facet normal  1.000000e+00  0.000000e+00  0.000000e+00
   outer loop
     vertex -5.390625e-01 -4.531250e-01  5.625000e-01
     vertex -5.390625e-01  1.074013e-01  5.625000e-01
     vertex -5.390625e-01 -2.537007e-01  7.500000e-01
   endloop
 endfacet
 facet normal  1.000000e+00 -0.000000e+00  0.000000e+00
   outer loop
     vertex -5.390625e-01 -2.734375e-01  7.500000e-01
     vertex -5.390625e-01 -4.531250e-01  5.625000e-01
     vertex -5.390625e-01 -2.537007e-01  7.500000e-01
   endloop
 endfacet
 facet normal  1.000000e+00 -0.000000e+00  0.000000e+00
   outer loop
     vertex -5.390625e-01 -4.531250e-01  7.500000e-01
     vertex -5.390625e-01 -4.531250e-01  5.625000e-01
     vertex -5.390625e-01 -2.734375e-01  7.500000e-01
   endloop
 endfacet
 facet normal  0.000000e+00  0.000000e+00  1.000000e+00
   outer loop
     vertex -5.468750e-01 -2.734375e-01  7.500000e-01
     vertex -7.265625e-01 -2.537007e-01  7.500000e-01
     vertex -7.265625e-01 -4.609375e-01  7.500000e-01
   endloop
 endfacet
 facet normal  0.000000e+00  0.000000e+00  1.000000e+00
   outer loop
     vertex -5.468750e-01 -2.734375e-01  7.500000e-01
     vertex -7.265625e-01 -4.609375e-01  7.500000e-01
     vertex -5.390625e-01 -4.531250e-01  7.500000e-01
   endloop
 endfacet
 facet normal  0.000000e+00  0.000000e+00  1.000000e+00
   outer loop
     vertex -5.390625e-01 -2.734375e-01  7.500000e-01
     vertex -5.468750e-01 -2.734375e-01  7.500000e-01
     vertex -5.390625e-01 -4.531250e-01  7.500000e-01
   endloop
 endfacet
 facet normal  0.000000e+00  0.000000e+00  1.000000e+00
   outer loop
     vertex -5.468750e-01 -2.537007e-01  7.500000e-01
     vertex -7.265625e-01 -2.537007e-01  7.500000e-01
     vertex -5.468750e-01 -2.734375e-01  7.500000e-01
   endloop
 endfacet
 facet normal  0.000000e+00  0.000000e+00  1.000000e+00
   outer loop
     vertex  2.109375e-01 -4.531250e-01  7.500000e-01
     vertex -5.390625e-01 -4.531250e-01  7.500000e-01
     vertex  2.109375e-01 -4.609375e-01  7.500000e-01
   endloop
 endfacet
 facet normal  0.000000e+00  0.000000e+00  1.000000e+00
   outer loop
     vertex -7.265625e-01 -4.609375e-01  7.500000e-01
     vertex  2.109375e-01 -4.609375e-01  7.500000e-01
     vertex -5.390625e-01 -4.531250e-01  7.500000e-01
   endloop
 endfacet
 facet normal  0.000000e+00  0.000000e+00  1.000000e+00
   outer loop
     vertex -5.390625e-01  1.074013e-01  7.500000e-01
     vertex -5.468750e-01 -2.537007e-01  7.500000e-01
     vertex -5.390625e-01 -2.537007e-01  7.500000e-01
   endloop
 endfacet
 facet normal  0.000000e+00  0.000000e+00  1.000000e+00
   outer loop
     vertex  2.031250e-01  2.870888e-01  7.500000e-01
     vertex -5.390625e-01  1.074013e-01  7.500000e-01
     vertex  2.031250e-01  1.074013e-01  7.500000e-01
   endloop
 endfacet
 facet normal  0.000000e+00  0.000000e+00  1.000000e+00
   outer loop
     vertex  2.031250e-01  2.870888e-01  7.500000e-01
     vertex -5.468750e-01  2.870888e-01  7.500000e-01
     vertex -5.390625e-01  1.074013e-01  7.500000e-01
   endloop
 endfacet
 facet normal  0.000000e+00  0.000000e+00  1.000000e+00
   outer loop
     vertex -5.468750e-01  2.870888e-01  7.500000e-01
     vertex -5.468750e-01 -2.537007e-01  7.500000e-01
     vertex -5.390625e-01  1.074013e-01  7.500000e-01
   endloop
 endfacet
 facet normal  0.000000e+00 -1.000000e+00  0.000000e+00
   outer loop
     vertex -5.390625e-01  1.074013e-01  7.500000e-01
     vertex  2.031250e-01  1.074013e-01  5.625000e-01
     vertex  2.031250e-01  1.074013e-01  7.500000e-01
   endloop
 endfacet
 facet normal  0.000000e+00 -1.000000e+00  0.000000e+00
   outer loop
     vertex -5.390625e-01  1.074013e-01  7.500000e-01
     vertex -5.390625e-01  1.074013e-01  5.625000e-01
     vertex  2.031250e-01  1.074013e-01  5.625000e-01
   endloop
 endfacet
 facet normal  0.000000e+00  1.000000e+00  0.000000e+00
   outer loop
     vertex  2.109375e-01 -4.531250e-01  7.500000e-01
     vertex -5.390625e-01 -4.531250e-01  5.625000e-01
     vertex -5.390625e-01 -4.531250e-01  7.500000e-01
   endloop
 endfacet
 facet normal  0.000000e+00  1.000000e+00  0.000000e+00
   outer loop
     vertex  2.109375e-01 -4.531250e-01  7.500000e-01
     vertex  2.109375e-01 -4.531250e-01  5.625000e-01
     vertex -5.390625e-01 -4.531250e-01  5.625000e-01
   endloop
 endfacet
 facet normal  0.000000e+00  0.000000e+00  1.000000e+00
   outer loop
     vertex  2.031250e-01 -2.537007e-01  5.625000e-01
     vertex -5.390625e-01  1.074013e-01  5.625000e-01
     vertex -5.390625e-01 -4.531250e-01  5.625000e-01
   endloop
 endfacet
 facet normal  0.000000e+00  0.000000e+00  1.000000e+00
   outer loop
     vertex  2.031250e-01 -2.537007e-01  5.625000e-01
     vertex -5.390625e-01 -4.531250e-01  5.625000e-01
     vertex  2.109375e-01 -4.531250e-01  5.625000e-01
   endloop
 endfacet
 facet normal  0.000000e+00  0.000000e+00  1.000000e+00
   outer loop
     vertex  2.109375e-01 -2.537007e-01  5.625000e-01
     vertex  2.031250e-01 -2.537007e-01  5.625000e-01
     vertex  2.109375e-01 -4.531250e-01  5.625000e-01
   endloop
 endfacet
 facet normal  0.000000e+00  0.000000e+00  1.000000e+00
   outer loop
     vertex  2.031250e-01  1.074013e-01  5.625000e-01
     vertex -5.390625e-01  1.074013e-01  5.625000e-01
     vertex  2.031250e-01 -2.537007e-01  5.625000e-01
   endloop
 endfacet
 facet normal  0.000000e+00  1.000000e+00  0.000000e+00
   outer loop
     vertex -7.265625e-01 -2.537007e-01  3.750000e-01
     vertex -5.468750e-01 -2.537007e-01  7.500000e-01
     vertex -5.468750e-01 -2.537007e-01  3.750000e-01
   endloop
 endfacet
 facet normal  0.000000e+00  1.000000e+00  0.000000e+00
   outer loop
     vertex -7.265625e-01 -2.537007e-01  3.750000e-01
     vertex -7.265625e-01 -2.537007e-01  7.500000e-01
     vertex -5.468750e-01 -2.537007e-01  7.500000e-01
   endloop
 endfacet
 facet normal  1.000000e+00  0.000000e+00 -0.000000e+00
   outer loop
     vertex  2.109375e-01 -4.531250e-01  5.625000e-01
     vertex  2.109375e-01 -4.531250e-01  7.500000e-01
     vertex  2.109375e-01 -4.609375e-01  7.500000e-01
   endloop
 endfacet
 facet normal  1.000000e+00  0.000000e+00 -0.000000e+00
   outer loop
     vertex  2.109375e-01 -2.734375e-01  3.750000e-01
     vertex  2.109375e-01 -2.537007e-01  5.625000e-01
     vertex  2.109375e-01 -4.531250e-01  5.625000e-01
   endloop
 endfacet
 facet normal  1.000000e+00  0.000000e+00  0.000000e+00
   outer loop
     vertex  2.109375e-01 -2.734375e-01  3.750000e-01
     vertex  2.109375e-01 -4.531250e-01  5.625000e-01
     vertex  2.109375e-01 -4.609375e-01  3.750000e-01
   endloop
 endfacet
 facet normal  1.000000e+00  0.000000e+00 -0.000000e+00
   outer loop
     vertex  2.109375e-01 -2.537007e-01  3.750000e-01
     vertex  2.109375e-01 -2.537007e-01  5.625000e-01
     vertex  2.109375e-01 -2.734375e-01  3.750000e-01
   endloop
 endfacet
 facet normal  1.000000e+00  0.000000e+00  0.000000e+00
   outer loop
     vertex  2.109375e-01 -4.609375e-01  3.750000e-01
     vertex  2.109375e-01 -4.531250e-01  5.625000e-01
     vertex  2.109375e-01 -4.609375e-01  7.500000e-01
   endloop
 endfacet
 facet normal  0.000000e+00 -1.000000e+00  0.000000e+00
   outer loop
     vertex  2.109375e-01 -4.609375e-01  3.750000e-01
     vertex -7.265625e-01 -4.609375e-01  7.500000e-01
     vertex -7.265625e-01 -4.609375e-01  3.750000e-01
   endloop
 endfacet
 facet normal  0.000000e+00 -1.000000e+00  0.000000e+00
   outer loop
     vertex  2.109375e-01 -4.609375e-01  3.750000e-01
     vertex  2.109375e-01 -4.609375e-01  7.500000e-01
     vertex -7.265625e-01 -4.609375e-01  7.500000e-01
   endloop
 endfacet
 facet normal -1.000000e+00  0.000000e+00  0.000000e+00
   outer loop
     vertex -7.265625e-01 -2.734375e-01  3.750000e-01
     vertex -7.265625e-01 -2.537007e-01  7.500000e-01
     vertex -7.265625e-01 -2.537007e-01  3.750000e-01
   endloop
 endfacet
 facet normal -1.000000e+00  0.000000e+00  0.000000e+00
   outer loop
     vertex -7.265625e-01 -2.734375e-01  3.750000e-01
     vertex -7.265625e-01 -4.609375e-01  7.500000e-01
     vertex -7.265625e-01 -2.537007e-01  7.500000e-01
   endloop
 endfacet
 facet normal -1.000000e+00  0.000000e+00  0.000000e+00
   outer loop
     vertex -7.265625e-01 -4.609375e-01  3.750000e-01
     vertex -7.265625e-01 -4.609375e-01  7.500000e-01
     vertex -7.265625e-01 -2.734375e-01  3.750000e-01
   endloop
 endfacet
 facet normal  0.000000e+00  1.000000e+00  0.000000e+00
   outer loop
     vertex -5.468750e-01  2.870888e-01  3.750000e-01
     vertex  2.031250e-01  2.870888e-01  7.500000e-01
     vertex  2.031250e-01  2.870888e-01  3.750000e-01
   endloop
 endfacet
 facet normal  0.000000e+00  1.000000e+00  0.000000e+00
   outer loop
     vertex -5.468750e-01  2.870888e-01  3.750000e-01
     vertex -5.468750e-01  2.870888e-01  7.500000e-01
     vertex  2.031250e-01  2.870888e-01  7.500000e-01
   endloop
 endfacet
 facet normal  1.000000e+00  0.000000e+00  0.000000e+00
   outer loop
     vertex  2.031250e-01  1.074013e-01  5.625000e-01
     vertex  2.031250e-01 -2.537007e-01  5.625000e-01
     vertex  2.031250e-01 -2.537007e-01  3.750000e-01
   endloop
 endfacet
 facet normal  1.000000e+00  0.000000e+00  0.000000e+00
   outer loop
     vertex  2.031250e-01  1.074013e-01  5.625000e-01
     vertex  2.031250e-01  2.870888e-01  7.500000e-01
     vertex  2.031250e-01  1.074013e-01  7.500000e-01
   endloop
 endfacet
 facet normal  1.000000e+00  0.000000e+00  0.000000e+00
   outer loop
     vertex  2.031250e-01  2.861020e-01  3.750000e-01
     vertex  2.031250e-01  1.074013e-01  5.625000e-01
     vertex  2.031250e-01 -2.537007e-01  3.750000e-01
   endloop
 endfacet
 facet normal  1.000000e+00  0.000000e+00 -0.000000e+00
   outer loop
     vertex  2.031250e-01  2.870888e-01  3.750000e-01
     vertex  2.031250e-01  2.870888e-01  7.500000e-01
     vertex  2.031250e-01  1.074013e-01  5.625000e-01
   endloop
 endfacet
 facet normal  1.000000e+00  0.000000e+00  0.000000e+00
   outer loop
     vertex  2.031250e-01  2.870888e-01  3.750000e-01
     vertex  2.031250e-01  1.074013e-01  5.625000e-01
     vertex  2.031250e-01  2.861020e-01  3.750000e-01
   endloop
 endfacet
 facet normal -1.000000e+00  0.000000e+00  0.000000e+00
   outer loop
     vertex -5.468750e-01  2.861020e-01  3.750000e-01
     vertex -5.468750e-01  2.870888e-01  7.500000e-01
     vertex -5.468750e-01  2.870888e-01  3.750000e-01
   endloop
 endfacet
 facet normal -1.000000e+00  0.000000e+00  0.000000e+00
   outer loop
     vertex -5.468750e-01 -2.537007e-01  7.500000e-01
     vertex -5.468750e-01  2.870888e-01  7.500000e-01
     vertex -5.468750e-01  2.861020e-01  3.750000e-01
   endloop
 endfacet
 facet normal -1.000000e+00  0.000000e+00  0.000000e+00
   outer loop
     vertex -5.468750e-01 -2.537007e-01  3.750000e-01
     vertex -5.468750e-01 -2.537007e-01  7.500000e-01
     vertex -5.468750e-01  2.861020e-01  3.750000e-01
   endloop
 endfacet
 facet normal  0.000000e+00  1.000000e+00  0.000000e+00
   outer loop
     vertex  2.031250e-01 -2.537007e-01  3.750000e-01
     vertex  2.109375e-01 -2.537007e-01  5.625000e-01
     vertex  2.109375e-01 -2.537007e-01  3.750000e-01
   endloop
 endfacet
 facet normal  0.000000e+00  1.000000e+00  0.000000e+00
   outer loop
     vertex  2.031250e-01 -2.537007e-01  3.750000e-01
     vertex  2.031250e-01 -2.537007e-01  5.625000e-01
     vertex  2.109375e-01 -2.537007e-01  5.625000e-01
   endloop
 endfacet
 facet normal  0.000000e+00  0.000000e+00  1.000000e+00
   outer loop
     vertex -5.468750e-01  2.861020e-01  3.750000e-01
     vertex -7.265625e-01 -2.537007e-01  3.750000e-01
     vertex -5.468750e-01 -2.537007e-01  3.750000e-01
   endloop
 endfacet
 facet normal  0.000000e+00  0.000000e+00  1.000000e+00
   outer loop
     vertex -5.468750e-01  2.861020e-01  3.750000e-01
     vertex -7.265625e-01  2.861020e-01  3.750000e-01
     vertex -7.265625e-01 -2.537007e-01  3.750000e-01
   endloop
 endfacet
 facet normal -0.000000e+00  0.000000e+00 -1.000000e+00
   outer loop
     vertex -5.468750e-01 -2.734375e-01  3.750000e-01
     vertex -7.265625e-01 -4.609375e-01  3.750000e-01
     vertex -7.265625e-01 -2.734375e-01  3.750000e-01
   endloop
 endfacet
 facet normal  0.000000e+00  0.000000e+00 -1.000000e+00
   outer loop
     vertex  2.109375e-01 -4.609375e-01  3.750000e-01
     vertex -7.265625e-01 -4.609375e-01  3.750000e-01
     vertex -5.468750e-01 -2.734375e-01  3.750000e-01
   endloop
 endfacet
 facet normal -0.000000e+00 -0.000000e+00 -1.000000e+00
   outer loop
     vertex  2.031250e-01 -2.734375e-01  3.750000e-01
     vertex  2.109375e-01 -4.609375e-01  3.750000e-01
     vertex -5.468750e-01 -2.734375e-01  3.750000e-01
   endloop
 endfacet
 facet normal -0.000000e+00 -0.000000e+00 -1.000000e+00
   outer loop
     vertex  2.109375e-01 -2.734375e-01  3.750000e-01
     vertex  2.109375e-01 -4.609375e-01  3.750000e-01
     vertex  2.031250e-01 -2.734375e-01  3.750000e-01
   endloop
 endfacet
 facet normal  0.000000e+00  0.000000e+00  1.000000e+00
   outer loop
     vertex  7.500000e-01 -2.734375e-01  3.750000e-01
     vertex  2.109375e-01 -2.537007e-01  3.750000e-01
     vertex  2.109375e-01 -2.734375e-01  3.750000e-01
   endloop
 endfacet
 facet normal  0.000000e+00  0.000000e+00  1.000000e+00
   outer loop
     vertex  2.031250e-01  2.861020e-01  3.750000e-01
     vertex  2.031250e-01 -2.537007e-01  3.750000e-01
     vertex  2.109375e-01 -2.537007e-01  3.750000e-01
   endloop
 endfacet
 facet normal  0.000000e+00  0.000000e+00  1.000000e+00
   outer loop
     vertex  7.500000e-01  2.861020e-01  3.750000e-01
     vertex  2.109375e-01 -2.537007e-01  3.750000e-01
     vertex  7.500000e-01 -2.734375e-01  3.750000e-01
   endloop
 endfacet
 facet normal  0.000000e+00  0.000000e+00  1.000000e+00
   outer loop
     vertex  7.500000e-01  2.861020e-01  3.750000e-01
     vertex  2.031250e-01  2.861020e-01  3.750000e-01
     vertex  2.109375e-01 -2.537007e-01  3.750000e-01
   endloop
 endfacet
 facet normal -1.000000e+00  0.000000e+00  0.000000e+00
   outer loop
     vertex -7.265625e-01 -2.537007e-01  3.750000e-01
     vertex -7.265625e-01  2.861020e-01  3.750000e-01
     vertex -7.265625e-01  2.861020e-01  0.000000e+00
   endloop
 endfacet
 facet normal -1.000000e+00  0.000000e+00  0.000000e+00
   outer loop
     vertex -7.265625e-01 -2.734375e-01  0.000000e+00
     vertex -7.265625e-01 -2.734375e-01  3.750000e-01
     vertex -7.265625e-01 -2.537007e-01  3.750000e-01
   endloop
 endfacet
 facet normal -1.000000e+00  0.000000e+00  0.000000e+00
   outer loop
     vertex -7.265625e-01 -2.734375e-01  0.000000e+00
     vertex -7.265625e-01 -2.537007e-01  3.750000e-01
     vertex -7.265625e-01  2.861020e-01  0.000000e+00
   endloop
 endfacet
 facet normal -0.000000e+00  0.000000e+00 -1.000000e+00
   outer loop
     vertex  2.031250e-01  2.870888e-01  3.750000e-01
     vertex -5.468750e-01  2.861020e-01  3.750000e-01
     vertex -5.468750e-01  2.870888e-01  3.750000e-01
   endloop
 endfacet
 facet normal  0.000000e+00 -0.000000e+00 -1.000000e+00
   outer loop
     vertex  2.031250e-01  2.870888e-01  3.750000e-01
     vertex  2.031250e-01  2.861020e-01  3.750000e-01
     vertex -5.468750e-01  2.861020e-01  3.750000e-01
   endloop
 endfacet
 facet normal -0.000000e+00  1.000000e+00  0.000000e+00
   outer loop
     vertex  2.031250e-01  2.861020e-01  3.750000e-01
     vertex  7.500000e-01  2.861020e-01  3.750000e-01
     vertex  7.500000e-01  2.861020e-01  0.000000e+00
   endloop
 endfacet
 facet normal  0.000000e+00  1.000000e+00  0.000000e+00
   outer loop
     vertex -7.265625e-01  2.861020e-01  0.000000e+00
     vertex -5.468750e-01  2.861020e-01  3.750000e-01
     vertex  2.031250e-01  2.861020e-01  3.750000e-01
   endloop
 endfacet
 facet normal  0.000000e+00  1.000000e+00  0.000000e+00
   outer loop
     vertex -7.265625e-01  2.861020e-01  0.000000e+00
     vertex -7.265625e-01  2.861020e-01  3.750000e-01
     vertex -5.468750e-01  2.861020e-01  3.750000e-01
   endloop
 endfacet
 facet normal  0.000000e+00  1.000000e+00  0.000000e+00
   outer loop
     vertex -7.265625e-01  2.861020e-01  0.000000e+00
     vertex  2.031250e-01  2.861020e-01  3.750000e-01
     vertex  7.500000e-01  2.861020e-01  0.000000e+00
   endloop
 endfacet
 facet normal  0.000000e+00 -1.000000e+00  0.000000e+00
   outer loop
     vertex -7.265625e-01 -2.734375e-01  0.000000e+00
     vertex -5.468750e-01 -2.734375e-01  3.750000e-01
     vertex -7.265625e-01 -2.734375e-01  3.750000e-01
   endloop
 endfacet
 facet normal -0.000000e+00 -1.000000e+00  0.000000e+00
   outer loop
     vertex  2.031250e-01 -2.734375e-01  3.750000e-01
     vertex -5.468750e-01 -2.734375e-01  3.750000e-01
     vertex -7.265625e-01 -2.734375e-01  0.000000e+00
   endloop
 endfacet
 facet normal  0.000000e+00 -1.000000e+00  0.000000e+00
   outer loop
     vertex  7.500000e-01 -2.734375e-01  0.000000e+00
     vertex  2.109375e-01 -2.734375e-01  3.750000e-01
     vertex  2.031250e-01 -2.734375e-01  3.750000e-01
   endloop
 endfacet
 facet normal  0.000000e+00 -1.000000e+00  0.000000e+00
   outer loop
     vertex  7.500000e-01 -2.734375e-01  0.000000e+00
     vertex  7.500000e-01 -2.734375e-01  3.750000e-01
     vertex  2.109375e-01 -2.734375e-01  3.750000e-01
   endloop
 endfacet
 facet normal  0.000000e+00 -1.000000e+00  0.000000e+00
   outer loop
     vertex  7.500000e-01 -2.734375e-01  0.000000e+00
     vertex  2.031250e-01 -2.734375e-01  3.750000e-01
     vertex -7.265625e-01 -2.734375e-01  0.000000e+00
   endloop
 endfacet
 facet normal  1.000000e+00  0.000000e+00  0.000000e+00
   outer loop
     vertex  7.500000e-01  2.861020e-01  0.000000e+00
     vertex  7.500000e-01 -2.734375e-01  3.750000e-01
     vertex  7.500000e-01 -2.734375e-01  0.000000e+00
   endloop
 endfacet
 facet normal  1.000000e+00  0.000000e+00 -0.000000e+00
   outer loop
     vertex  7.500000e-01  2.861020e-01  0.000000e+00
     vertex  7.500000e-01  2.861020e-01  3.750000e-01
     vertex  7.500000e-01 -2.734375e-01  3.750000e-01
   endloop
 endfacet
 facet normal  0.000000e+00 -0.000000e+00 -1.000000e+00
   outer loop
     vertex  7.500000e-01  2.861020e-01  0.000000e+00
     vertex  7.500000e-01 -2.734375e-01  0.000000e+00
     vertex -7.265625e-01 -2.734375e-01  0.000000e+00
   endloop
 endfacet
 facet normal -0.000000e+00  0.000000e+00 -1.000000e+00
   outer loop
     vertex  7.500000e-01  2.861020e-01  0.000000e+00
     vertex -7.265625e-01 -2.734375e-01  0.000000e+00
     vertex -7.265625e-01  2.861020e-01  0.000000e+00
   endloop
 endfacet
endsolid
