solid 
 facet normal  0.000000e+00 -1.000000e+00  0.000000e+00
   outer loop
     vertex  5.583882e-02 -2.500000e-01  2.187500e-01
     vertex -5.468750e-02 -2.500000e-01  2.578125e-01
     vertex -5.468750e-02 -2.500000e-01  2.187500e-01
   endloop
 endfacet
 facet normal  0.000000e+00 -1.000000e+00  0.000000e+00
   outer loop
     vertex  5.583882e-02 -2.500000e-01  2.187500e-01
     vertex  5.583882e-02 -2.500000e-01  2.578125e-01
     vertex -5.468750e-02 -2.500000e-01  2.578125e-01
   endloop
 endfacet
 facet normal  1.000000e+00  0.000000e+00  0.000000e+00
   outer loop
     vertex  5.583882e-02 -1.250000e-01  2.187500e-01
     vertex  5.583882e-02 -2.500000e-01  2.578125e-01
     vertex  5.583882e-02 -2.500000e-01  2.187500e-01
   endloop
 endfacet
 facet normal  1.000000e+00  0.000000e+00 -0.000000e+00
   outer loop
     vertex  5.583882e-02 -1.250000e-01  2.187500e-01
     vertex  5.583882e-02 -1.250000e-01  2.578125e-01
     vertex  5.583882e-02 -2.500000e-01  2.578125e-01
   endloop
 endfacet
 facet normal  0.000000e+00  1.000000e+00  0.000000e+00
   outer loop
     vertex -5.468750e-02 -1.250000e-01  2.187500e-01
     vertex  5.583882e-02 -1.250000e-01  2.578125e-01
     vertex  5.583882e-02 -1.250000e-01  2.187500e-01
   endloop
 endfacet
 facet normal  0.000000e+00  1.000000e+00  0.000000e+00
   outer loop
     vertex -5.468750e-02 -1.250000e-01  2.187500e-01
     vertex -5.468750e-02 -1.250000e-01  2.578125e-01
     vertex  5.583882e-02 -1.250000e-01  2.578125e-01
   endloop
 endfacet
 facet normal -1.000000e+00  0.000000e+00  0.000000e+00
   outer loop
     vertex -5.468750e-02 -2.500000e-01  2.187500e-01
     vertex -5.468750e-02 -1.250000e-01  2.578125e-01
     vertex -5.468750e-02 -1.250000e-01  2.187500e-01
   endloop
 endfacet
 facet normal -1.000000e+00  0.000000e+00  0.000000e+00
   outer loop
     vertex -5.468750e-02 -2.500000e-01  2.187500e-01
     vertex -5.468750e-02 -2.500000e-01  2.578125e-01
     vertex -5.468750e-02 -1.250000e-01  2.578125e-01
   endloop
 endfacet
 facet normal  0.000000e+00 -0.000000e+00 -1.000000e+00
   outer loop
     vertex  5.583882e-02 -1.250000e-01  2.187500e-01
     vertex  5.583882e-02 -2.500000e-01  2.187500e-01
     vertex -5.468750e-02 -2.500000e-01  2.187500e-01
   endloop
 endfacet
 facet normal -0.000000e+00  0.000000e+00 -1.000000e+00
   outer loop
     vertex  5.583882e-02 -1.250000e-01  2.187500e-01
     vertex -5.468750e-02 -2.500000e-01  2.187500e-01
     vertex -5.468750e-02 -1.250000e-01  2.187500e-01
   endloop
 endfacet
 facet normal  0.000000e+00  0.000000e+00  1.000000e+00
   outer loop
     vertex  5.583882e-02 -1.250000e-01  2.578125e-01
     vertex -5.468750e-02 -2.500000e-01  2.578125e-01
     vertex  5.583882e-02 -2.500000e-01  2.578125e-01
   endloop
 endfacet
 facet normal  0.000000e+00  0.000000e+00  1.000000e+00
   outer loop
     vertex  5.583882e-02 -1.250000e-01  2.578125e-01
     vertex -5.468750e-02 -1.250000e-01  2.578125e-01
     vertex -5.468750e-02 -2.500000e-01  2.578125e-01
   endloop
 endfacet
 facet normal -4.902612e-01 -8.715755e-01  0.000000e+00
   outer loop
     vertex  5.756579e-03 -7.014803e-01  0.000000e+00
     vertex -5.468750e-01 -3.906250e-01  1.406250e-01
     vertex -5.468750e-01 -3.906250e-01  0.000000e+00
   endloop
 endfacet
 facet normal -4.902612e-01 -8.715755e-01  0.000000e+00
   outer loop
     vertex  5.756579e-03 -7.014803e-01  0.000000e+00
     vertex  5.756579e-03 -7.014803e-01  1.406250e-01
     vertex -5.468750e-01 -3.906250e-01  1.406250e-01
   endloop
 endfacet
 facet normal -1.000000e+00  0.000000e+00  0.000000e+00
   outer loop
     vertex -5.468750e-01 -3.906250e-01  0.000000e+00
     vertex -5.468750e-01  2.425987e-01  1.406250e-01
     vertex -5.468750e-01  2.425987e-01  0.000000e+00
   endloop
 endfacet
 facet normal -1.000000e+00  0.000000e+00  0.000000e+00
   outer loop
     vertex -5.468750e-01 -3.906250e-01  0.000000e+00
     vertex -5.468750e-01 -3.906250e-01  1.406250e-01
     vertex -5.468750e-01  2.425987e-01  1.406250e-01
   endloop
 endfacet
 facet normal  4.981245e-01 -8.671055e-01  0.000000e+00
   outer loop
     vertex  5.468750e-01 -3.906250e-01  0.000000e+00
     vertex  5.756579e-03 -7.014803e-01  1.406250e-01
     vertex  5.756579e-03 -7.014803e-01  0.000000e+00
   endloop
 endfacet
 facet normal  4.981245e-01 -8.671055e-01  0.000000e+00
   outer loop
     vertex  5.468750e-01 -3.906250e-01  0.000000e+00
     vertex  5.468750e-01 -3.906250e-01  1.406250e-01
     vertex  5.756579e-03 -7.014803e-01  1.406250e-01
   endloop
 endfacet
 facet normal  0.000000e+00 -0.000000e+00 -1.000000e+00
   outer loop
     vertex  5.756579e-03  5.534539e-01  0.000000e+00
     vertex  5.756579e-03 -7.014803e-01  0.000000e+00
     vertex -5.468750e-01 -3.906250e-01  0.000000e+00
   endloop
 endfacet
 facet normal  0.000000e+00  0.000000e+00 -1.000000e+00
   outer loop
     vertex  5.756579e-03  5.534539e-01  0.000000e+00
     vertex  5.468750e-01 -3.906250e-01  0.000000e+00
     vertex  5.756579e-03 -7.014803e-01  0.000000e+00
   endloop
 endfacet
 facet normal  0.000000e+00  0.000000e+00 -1.000000e+00
   outer loop
     vertex  5.756579e-03  5.534539e-01  0.000000e+00
     vertex -5.468750e-01 -3.906250e-01  0.000000e+00
     vertex -5.468750e-01  2.425987e-01  0.000000e+00
   endloop
 endfacet
 facet normal -0.000000e+00 -0.000000e+00 -1.000000e+00
   outer loop
     vertex  5.468750e-01  2.425987e-01  0.000000e+00
     vertex  5.468750e-01 -3.906250e-01  0.000000e+00
     vertex  5.756579e-03  5.534539e-01  0.000000e+00
   endloop
 endfacet
 facet normal  0.000000e+00  0.000000e+00  1.000000e+00
   outer loop
     vertex -3.359375e-01 -3.359375e-01  1.406250e-01
     vertex -5.468750e-01 -3.906250e-01  1.406250e-01
     vertex  5.756579e-03 -7.014803e-01  1.406250e-01
   endloop
 endfacet
 facet normal  0.000000e+00  0.000000e+00  1.000000e+00
   outer loop
     vertex -3.359375e-01 -9.268092e-02  1.406250e-01
     vertex -5.468750e-01 -3.906250e-01  1.406250e-01
     vertex -3.359375e-01 -3.359375e-01  1.406250e-01
   endloop
 endfacet
 facet normal  0.000000e+00  0.000000e+00  1.000000e+00
   outer loop
     vertex -5.468750e-01  2.425987e-01  1.406250e-01
     vertex -5.468750e-01 -3.906250e-01  1.406250e-01
     vertex -3.359375e-01 -9.268092e-02  1.406250e-01
   endloop
 endfacet
 facet normal  0.000000e+00  0.000000e+00  1.000000e+00
   outer loop
     vertex -5.468750e-01  2.425987e-01  1.406250e-01
     vertex -3.359375e-01 -9.268092e-02  1.406250e-01
     vertex -3.359375e-01 -1.562500e-02  1.406250e-01
   endloop
 endfacet
 facet normal  0.000000e+00  0.000000e+00  1.000000e+00
   outer loop
     vertex -3.359375e-01  2.562500e-01  1.406250e-01
     vertex -5.468750e-01  2.425987e-01  1.406250e-01
     vertex -3.359375e-01 -1.562500e-02  1.406250e-01
   endloop
 endfacet
 facet normal  0.000000e+00  0.000000e+00  1.000000e+00
   outer loop
     vertex  3.437500e-01 -3.359375e-01  1.406250e-01
     vertex -3.359375e-01 -3.359375e-01  1.406250e-01
     vertex  5.756579e-03 -7.014803e-01  1.406250e-01
   endloop
 endfacet
 facet normal  0.000000e+00  0.000000e+00  1.000000e+00
   outer loop
     vertex  5.468750e-01 -3.906250e-01  1.406250e-01
     vertex  3.437500e-01 -3.359375e-01  1.406250e-01
     vertex  5.756579e-03 -7.014803e-01  1.406250e-01
   endloop
 endfacet
 facet normal  0.000000e+00  0.000000e+00  1.000000e+00
   outer loop
     vertex  3.437500e-01 -9.268092e-02  1.406250e-01
     vertex  3.437500e-01 -3.359375e-01  1.406250e-01
     vertex  5.468750e-01 -3.906250e-01  1.406250e-01
   endloop
 endfacet
 facet normal  0.000000e+00  0.000000e+00  1.000000e+00
   outer loop
     vertex  3.437500e-01 -1.562500e-02  1.406250e-01
     vertex -3.359375e-01 -9.268092e-02  1.406250e-01
     vertex  3.437500e-01 -9.268092e-02  1.406250e-01
   endloop
 endfacet
 facet normal  0.000000e+00  0.000000e+00  1.000000e+00
   outer loop
     vertex  3.437500e-01 -1.562500e-02  1.406250e-01
     vertex -3.359375e-01 -1.562500e-02  1.406250e-01
     vertex -3.359375e-01 -9.268092e-02  1.406250e-01
   endloop
 endfacet
 facet normal  0.000000e+00  0.000000e+00  1.000000e+00
   outer loop
     vertex  5.756579e-03  5.534539e-01  1.406250e-01
     vertex -5.468750e-01  2.425987e-01  1.406250e-01
     vertex -3.359375e-01  2.562500e-01  1.406250e-01
   endloop
 endfacet
 facet normal  0.000000e+00  0.000000e+00  1.000000e+00
   outer loop
     vertex  3.437500e-01  2.562500e-01  1.406250e-01
     vertex  5.756579e-03  5.534539e-01  1.406250e-01
     vertex -3.359375e-01  2.562500e-01  1.406250e-01
   endloop
 endfacet
 facet normal  0.000000e+00  0.000000e+00  1.000000e+00
   outer loop
     vertex  5.468750e-01  2.425987e-01  1.406250e-01
     vertex  3.437500e-01  2.562500e-01  1.406250e-01
     vertex  3.437500e-01 -1.562500e-02  1.406250e-01
   endloop
 endfacet
 facet normal  0.000000e+00  0.000000e+00  1.000000e+00
   outer loop
     vertex  5.468750e-01  2.425987e-01  1.406250e-01
     vertex  5.756579e-03  5.534539e-01  1.406250e-01
     vertex  3.437500e-01  2.562500e-01  1.406250e-01
   endloop
 endfacet
 facet normal  0.000000e+00  0.000000e+00  1.000000e+00
   outer loop
     vertex  5.468750e-01  2.425987e-01  1.406250e-01
     vertex  3.437500e-01 -1.562500e-02  1.406250e-01
     vertex  3.437500e-01 -9.268092e-02  1.406250e-01
   endloop
 endfacet
 facet normal  0.000000e+00  0.000000e+00  1.000000e+00
   outer loop
     vertex  5.468750e-01  2.425987e-01  1.406250e-01
     vertex  3.437500e-01 -9.268092e-02  1.406250e-01
     vertex  5.468750e-01 -3.906250e-01  1.406250e-01
   endloop
 endfacet
 facet normal -4.902612e-01  8.715755e-01  0.000000e+00
   outer loop
     vertex -5.468750e-01  2.425987e-01  0.000000e+00
     vertex  5.756579e-03  5.534539e-01  1.406250e-01
     vertex  5.756579e-03  5.534539e-01  0.000000e+00
   endloop
 endfacet
 facet normal -4.902612e-01  8.715755e-01  0.000000e+00
   outer loop
     vertex -5.468750e-01  2.425987e-01  0.000000e+00
     vertex -5.468750e-01  2.425987e-01  1.406250e-01
     vertex  5.756579e-03  5.534539e-01  1.406250e-01
   endloop
 endfacet
 facet normal  1.000000e+00  0.000000e+00  0.000000e+00
   outer loop
     vertex  5.468750e-01  2.425987e-01  0.000000e+00
     vertex  5.468750e-01 -3.906250e-01  1.406250e-01
     vertex  5.468750e-01 -3.906250e-01  0.000000e+00
   endloop
 endfacet
 facet normal  1.000000e+00  0.000000e+00 -0.000000e+00
   outer loop
     vertex  5.468750e-01  2.425987e-01  0.000000e+00
     vertex  5.468750e-01  2.425987e-01  1.406250e-01
     vertex  5.468750e-01 -3.906250e-01  1.406250e-01
   endloop
 endfacet
 facet normal  4.981245e-01  8.671055e-01  0.000000e+00
   outer loop
     vertex  5.756579e-03  5.534539e-01  0.000000e+00
     vertex  5.468750e-01  2.425987e-01  1.406250e-01
     vertex  5.468750e-01  2.425987e-01  0.000000e+00
   endloop
 endfacet
 facet normal  4.981245e-01  8.671055e-01 -0.000000e+00
   outer loop
     vertex  5.756579e-03  5.534539e-01  0.000000e+00
     vertex  5.756579e-03  5.534539e-01  1.406250e-01
     vertex  5.468750e-01  2.425987e-01  1.406250e-01
   endloop
 endfacet
 facet normal  0.000000e+00 -1.000000e+00  0.000000e+00
   outer loop
     vertex  3.437500e-01 -3.359375e-01  1.406250e-01
     vertex -3.359375e-01 -3.359375e-01  2.109375e-01
     vertex -3.359375e-01 -3.359375e-01  1.406250e-01
   endloop
 endfacet
 facet normal  0.000000e+00 -1.000000e+00  0.000000e+00
   outer loop
     vertex  3.437500e-01 -3.359375e-01  1.406250e-01
     vertex  3.437500e-01 -3.359375e-01  2.109375e-01
     vertex -3.359375e-01 -3.359375e-01  2.109375e-01
   endloop
 endfacet
 facet normal -1.000000e+00  0.000000e+00  0.000000e+00
   outer loop
     vertex -3.359375e-01 -3.359375e-01  1.406250e-01
     vertex -3.359375e-01 -9.268092e-02  2.109375e-01
     vertex -3.359375e-01 -9.268092e-02  1.406250e-01
   endloop
 endfacet
 facet normal -1.000000e+00  0.000000e+00  0.000000e+00
   outer loop
     vertex -3.359375e-01 -3.359375e-01  1.406250e-01
     vertex -3.359375e-01 -3.359375e-01  2.109375e-01
     vertex -3.359375e-01 -9.268092e-02  2.109375e-01
   endloop
 endfacet
 facet normal  1.000000e+00  0.000000e+00  0.000000e+00
   outer loop
     vertex  3.437500e-01 -9.268092e-02  1.406250e-01
     vertex  3.437500e-01 -3.359375e-01  2.109375e-01
     vertex  3.437500e-01 -3.359375e-01  1.406250e-01
   endloop
 endfacet
 facet normal  1.000000e+00  0.000000e+00 -0.000000e+00
   outer loop
     vertex  3.437500e-01 -9.268092e-02  1.406250e-01
     vertex  3.437500e-01 -9.268092e-02  2.109375e-01
     vertex  3.437500e-01 -3.359375e-01  2.109375e-01
   endloop
 endfacet
 facet normal  0.000000e+00  1.000000e+00  0.000000e+00
   outer loop
     vertex -3.359375e-01 -9.268092e-02  1.406250e-01
     vertex  3.437500e-01 -9.268092e-02  2.109375e-01
     vertex  3.437500e-01 -9.268092e-02  1.406250e-01
   endloop
 endfacet
 facet normal  0.000000e+00  1.000000e+00  0.000000e+00
   outer loop
     vertex -3.359375e-01 -9.268092e-02  1.406250e-01
     vertex -3.359375e-01 -9.268092e-02  2.109375e-01
     vertex  3.437500e-01 -9.268092e-02  2.109375e-01
   endloop
 endfacet
 facet normal  0.000000e+00 -1.000000e+00  0.000000e+00
   outer loop
     vertex  3.437500e-01 -1.562500e-02  1.406250e-01
     vertex -3.359375e-01 -1.562500e-02  2.109375e-01
     vertex -3.359375e-01 -1.562500e-02  1.406250e-01
   endloop
 endfacet
 facet normal  0.000000e+00 -1.000000e+00  0.000000e+00
   outer loop
     vertex  3.437500e-01 -1.562500e-02  1.406250e-01
     vertex  3.437500e-01 -1.562500e-02  2.109375e-01
     vertex -3.359375e-01 -1.562500e-02  2.109375e-01
   endloop
 endfacet
 facet normal  1.000000e+00  0.000000e+00  0.000000e+00
   outer loop
     vertex  3.437500e-01  2.562500e-01  1.406250e-01
     vertex  3.437500e-01 -1.562500e-02  2.109375e-01
     vertex  3.437500e-01 -1.562500e-02  1.406250e-01
   endloop
 endfacet
 facet normal  1.000000e+00  0.000000e+00 -0.000000e+00
   outer loop
     vertex  3.437500e-01  2.562500e-01  1.406250e-01
     vertex  3.437500e-01  2.562500e-01  2.109375e-01
     vertex  3.437500e-01 -1.562500e-02  2.109375e-01
   endloop
 endfacet
 facet normal  0.000000e+00  1.000000e+00  0.000000e+00
   outer loop
     vertex -3.359375e-01  2.562500e-01  1.406250e-01
     vertex  3.437500e-01  2.562500e-01  2.109375e-01
     vertex  3.437500e-01  2.562500e-01  1.406250e-01
   endloop
 endfacet
 facet normal  0.000000e+00  1.000000e+00  0.000000e+00
   outer loop
     vertex -3.359375e-01  2.562500e-01  1.406250e-01
     vertex -3.359375e-01  2.562500e-01  2.109375e-01
     vertex  3.437500e-01  2.562500e-01  2.109375e-01
   endloop
 endfacet
 facet normal -1.000000e+00  0.000000e+00  0.000000e+00
   outer loop
     vertex -3.359375e-01 -1.562500e-02  1.406250e-01
     vertex -3.359375e-01  2.562500e-01  2.109375e-01
     vertex -3.359375e-01  2.562500e-01  1.406250e-01
   endloop
 endfacet
 facet normal -1.000000e+00  0.000000e+00  0.000000e+00
   outer loop
     vertex -3.359375e-01 -1.562500e-02  1.406250e-01
     vertex -3.359375e-01 -1.562500e-02  2.109375e-01
     vertex -3.359375e-01  2.562500e-01  2.109375e-01
   endloop
 endfacet
 facet normal  0.000000e+00  0.000000e+00  1.000000e+00
   outer loop
     vertex  3.437500e-01 -9.268092e-02  2.109375e-01
     vertex -3.359375e-01 -3.359375e-01  2.109375e-01
     vertex  3.437500e-01 -3.359375e-01  2.109375e-01
   endloop
 endfacet
 facet normal  0.000000e+00  0.000000e+00  1.000000e+00
   outer loop
     vertex  3.437500e-01 -9.268092e-02  2.109375e-01
     vertex -3.359375e-01 -9.268092e-02  2.109375e-01
     vertex -3.359375e-01 -3.359375e-01  2.109375e-01
   endloop
 endfacet
 facet normal  0.000000e+00  0.000000e+00  1.000000e+00
   outer loop
     vertex  3.437500e-01  2.562500e-01  2.109375e-01
     vertex -3.359375e-01 -1.562500e-02  2.109375e-01
     vertex  3.437500e-01 -1.562500e-02  2.109375e-01
   endloop
 endfacet
 facet normal  0.000000e+00  0.000000e+00  1.000000e+00
   outer loop
     vertex  3.437500e-01  2.562500e-01  2.109375e-01
     vertex -3.359375e-01  2.562500e-01  2.109375e-01
     vertex -3.359375e-01 -1.562500e-02  2.109375e-01
   endloop
 endfacet
endsolid
