solid 
 facet normal  0.000000e+00 -1.000000e+00  0.000000e+00
   outer loop
     vertex  7.343750e-01  1.562500e-02  0.000000e+00
     vertex  1.484375e-01  1.562500e-02  7.812500e-03
     vertex  1.484375e-01  1.562500e-02  0.000000e+00
   endloop
 endfacet
 facet normal  0.000000e+00 -1.000000e+00  0.000000e+00
   outer loop
     vertex  7.343750e-01  1.562500e-02  0.000000e+00
     vertex  7.343750e-01  1.562500e-02  7.812500e-03
     vertex  1.484375e-01  1.562500e-02  7.812500e-03
   endloop
 endfacet
 facet normal  1.000000e+00  0.000000e+00  0.000000e+00
   outer loop
     vertex  7.343750e-01  2.179276e-02  0.000000e+00
     vertex  7.343750e-01  1.562500e-02  7.812500e-03
     vertex  7.343750e-01  1.562500e-02  0.000000e+00
   endloop
 endfacet
 facet normal  1.000000e+00  0.000000e+00 -0.000000e+00
   outer loop
     vertex  7.343750e-01  2.179276e-02  0.000000e+00
     vertex  7.343750e-01  2.179276e-02  7.812500e-03
     vertex  7.343750e-01  1.562500e-02  7.812500e-03
   endloop
 endfacet
 facet normal  0.000000e+00  1.000000e+00  0.000000e+00
   outer loop
     vertex  1.484375e-01  2.179276e-02  0.000000e+00
     vertex  7.343750e-01  2.179276e-02  7.812500e-03
     vertex  7.343750e-01  2.179276e-02  0.000000e+00
   endloop
 endfacet
 facet normal  0.000000e+00  1.000000e+00  0.000000e+00
   outer loop
     vertex  1.484375e-01  2.179276e-02  0.000000e+00
     vertex  1.484375e-01  2.179276e-02  7.812500e-03
     vertex  7.343750e-01  2.179276e-02  7.812500e-03
   endloop
 endfacet
 facet normal -1.000000e+00  0.000000e+00  0.000000e+00
   outer loop
     vertex  1.484375e-01  1.562500e-02  0.000000e+00
     vertex  1.484375e-01  2.179276e-02  7.812500e-03
     vertex  1.484375e-01  2.179276e-02  0.000000e+00
   endloop
 endfacet
 facet normal -1.000000e+00  0.000000e+00  0.000000e+00
   outer loop
     vertex  1.484375e-01  1.562500e-02  0.000000e+00
     vertex  1.484375e-01  1.562500e-02  7.812500e-03
     vertex  1.484375e-01  2.179276e-02  7.812500e-03
   endloop
 endfacet
 facet normal  0.000000e+00 -0.000000e+00 -1.000000e+00
   outer loop
     vertex  7.343750e-01  2.179276e-02  0.000000e+00
     vertex  7.343750e-01  1.562500e-02  0.000000e+00
     vertex  1.484375e-01  1.562500e-02  0.000000e+00
   endloop
 endfacet
 facet normal -0.000000e+00  0.000000e+00 -1.000000e+00
   outer loop
     vertex  7.343750e-01  2.179276e-02  0.000000e+00
     vertex  1.484375e-01  1.562500e-02  0.000000e+00
     vertex  1.484375e-01  2.179276e-02  0.000000e+00
   endloop
 endfacet
 facet normal  0.000000e+00  0.000000e+00  1.000000e+00
   outer loop
     vertex  7.343750e-01  2.179276e-02  7.812500e-03
     vertex  1.484375e-01  1.562500e-02  7.812500e-03
     vertex  7.343750e-01  1.562500e-02  7.812500e-03
   endloop
 endfacet
 facet normal  0.000000e+00  0.000000e+00  1.000000e+00
   outer loop
     vertex  7.343750e-01  2.179276e-02  7.812500e-03
     vertex  1.484375e-01  2.179276e-02  7.812500e-03
     vertex  1.484375e-01  1.562500e-02  7.812500e-03
   endloop
 endfacet
 facet normal  0.000000e+00 -1.000000e+00  0.000000e+00
   outer loop
     vertex  7.500000e-01  7.031250e-02  0.000000e+00
     vertex  1.015625e-01  7.031250e-02  7.812500e-03
     vertex  1.015625e-01  7.031250e-02  0.000000e+00
   endloop
 endfacet
 facet normal  0.000000e+00 -1.000000e+00  0.000000e+00
   outer loop
     vertex  7.500000e-01  7.031250e-02  0.000000e+00
     vertex  7.500000e-01  7.031250e-02  7.812500e-03
     vertex  1.015625e-01  7.031250e-02  7.812500e-03
   endloop
 endfacet
 facet normal  1.000000e+00  0.000000e+00  0.000000e+00
   outer loop
     vertex  7.500000e-01  7.713816e-02  0.000000e+00
     vertex  7.500000e-01  7.031250e-02  7.812500e-03
     vertex  7.500000e-01  7.031250e-02  0.000000e+00
   endloop
 endfacet
 facet normal  1.000000e+00  0.000000e+00 -0.000000e+00
   outer loop
     vertex  7.500000e-01  7.713816e-02  0.000000e+00
     vertex  7.500000e-01  7.713816e-02  7.812500e-03
     vertex  7.500000e-01  7.031250e-02  7.812500e-03
   endloop
 endfacet
 facet normal  0.000000e+00  1.000000e+00  0.000000e+00
   outer loop
     vertex  1.015625e-01  7.713816e-02  0.000000e+00
     vertex  7.500000e-01  7.713816e-02  7.812500e-03
     vertex  7.500000e-01  7.713816e-02  0.000000e+00
   endloop
 endfacet
 facet normal  0.000000e+00  1.000000e+00  0.000000e+00
   outer loop
     vertex  1.015625e-01  7.713816e-02  0.000000e+00
     vertex  1.015625e-01  7.713816e-02  7.812500e-03
     vertex  7.500000e-01  7.713816e-02  7.812500e-03
   endloop
 endfacet
 facet normal -1.000000e+00  0.000000e+00  0.000000e+00
   outer loop
     vertex  1.015625e-01  7.031250e-02  0.000000e+00
     vertex  1.015625e-01  7.713816e-02  7.812500e-03
     vertex  1.015625e-01  7.713816e-02  0.000000e+00
   endloop
 endfacet
 facet normal -1.000000e+00  0.000000e+00  0.000000e+00
   outer loop
     vertex  1.015625e-01  7.031250e-02  0.000000e+00
     vertex  1.015625e-01  7.031250e-02  7.812500e-03
     vertex  1.015625e-01  7.713816e-02  7.812500e-03
   endloop
 endfacet
 facet normal  0.000000e+00 -0.000000e+00 -1.000000e+00
   outer loop
     vertex  7.500000e-01  7.713816e-02  0.000000e+00
     vertex  7.500000e-01  7.031250e-02  0.000000e+00
     vertex  1.015625e-01  7.031250e-02  0.000000e+00
   endloop
 endfacet
 facet normal -0.000000e+00  0.000000e+00 -1.000000e+00
   outer loop
     vertex  7.500000e-01  7.713816e-02  0.000000e+00
     vertex  1.015625e-01  7.031250e-02  0.000000e+00
     vertex  1.015625e-01  7.713816e-02  0.000000e+00
   endloop
 endfacet
 facet normal  0.000000e+00  0.000000e+00  1.000000e+00
   outer loop
     vertex  7.500000e-01  7.713816e-02  7.812500e-03
     vertex  1.015625e-01  7.031250e-02  7.812500e-03
     vertex  7.500000e-01  7.031250e-02  7.812500e-03
   endloop
 endfacet
 facet normal  0.000000e+00  0.000000e+00  1.000000e+00
   outer loop
     vertex  7.500000e-01  7.713816e-02  7.812500e-03
     vertex  1.015625e-01  7.713816e-02  7.812500e-03
     vertex  1.015625e-01  7.031250e-02  7.812500e-03
   endloop
 endfacet
endsolid
