solid 
 facet normal  0.000000e+00 -0.000000e+00 -1.000000e+00
   outer loop
     vertex  5.624099e-33  7.500000e-01 -4.531250e-01
     vertex  7.031250e-02 -7.500000e-01 -4.531250e-01
     vertex  0.000000e+00 -7.500000e-01 -4.531250e-01
   endloop
 endfacet
 facet normal  0.000000e+00  0.000000e+00 -1.000000e+00
   outer loop
     vertex  5.624099e-33  7.500000e-01 -4.531250e-01
     vertex  7.031250e-02  7.500000e-01 -4.531250e-01
     vertex  7.031250e-02 -7.500000e-01 -4.531250e-01
   endloop
 endfacet
 facet normal  0.000000e+00 -1.000000e+00  0.000000e+00
   outer loop
     vertex  0.000000e+00 -7.500000e-01 -4.531250e-01
     vertex  7.031250e-02 -7.500000e-01 -4.218750e-01
     vertex  0.000000e+00 -7.500000e-01 -4.218750e-01
   endloop
 endfacet
 facet normal  0.000000e+00 -1.000000e+00  0.000000e+00
   outer loop
     vertex  0.000000e+00 -7.500000e-01 -4.531250e-01
     vertex  7.031250e-02 -7.500000e-01 -4.531250e-01
     vertex  7.031250e-02 -7.500000e-01 -4.218750e-01
   endloop
 endfacet
 facet normal  0.000000e+00  1.000000e+00  0.000000e+00
   outer loop
     vertex  0.000000e+00  7.500000e-01 -4.218750e-01
     vertex  7.031250e-02  7.500000e-01 -4.531250e-01
     vertex  5.624099e-33  7.500000e-01 -4.531250e-01
   endloop
 endfacet
 facet normal -0.000000e+00  1.000000e+00  0.000000e+00
   outer loop
     vertex  0.000000e+00  7.500000e-01 -4.218750e-01
     vertex  7.031250e-02  7.500000e-01 -4.218750e-01
     vertex  7.031250e-02  7.500000e-01 -4.531250e-01
   endloop
 endfacet
 facet normal -1.000000e+00 -0.000000e+00  0.000000e+00
   outer loop
     vertex  0.000000e+00  7.500000e-01 -4.218750e-01
     vertex  0.000000e+00 -7.500000e-01 -4.531250e-01
     vertex  0.000000e+00 -7.500000e-01 -4.218750e-01
   endloop
 endfacet
 facet normal -1.000000e+00  3.749399e-33 -1.799712e-31
   outer loop
     vertex  0.000000e+00  7.500000e-01 -4.218750e-01
     vertex  5.624099e-33  7.500000e-01 -4.531250e-01
     vertex  0.000000e+00 -7.500000e-01 -4.531250e-01
   endloop
 endfacet
 facet normal  1.000000e+00  0.000000e+00  0.000000e+00
   outer loop
     vertex  7.031250e-02  7.500000e-01 -4.218750e-01
     vertex  7.031250e-02 -7.500000e-01 -4.218750e-01
     vertex  7.031250e-02 -7.500000e-01 -4.531250e-01
   endloop
 endfacet
 facet normal  1.000000e+00  0.000000e+00  0.000000e+00
   outer loop
     vertex  7.031250e-02  7.500000e-01 -4.218750e-01
     vertex  7.031250e-02 -7.500000e-01 -4.531250e-01
     vertex  7.031250e-02  7.500000e-01 -4.531250e-01
   endloop
 endfacet
 facet normal  0.000000e+00  0.000000e+00  1.000000e+00
   outer loop
     vertex  7.031250e-02  7.500000e-01 -4.218750e-01
     vertex  0.000000e+00 -7.500000e-01 -4.218750e-01
     vertex  7.031250e-02 -7.500000e-01 -4.218750e-01
   endloop
 endfacet
 facet normal  0.000000e+00  0.000000e+00  1.000000e+00
   outer loop
     vertex  7.031250e-02  7.500000e-01 -4.218750e-01
     vertex  0.000000e+00  7.500000e-01 -4.218750e-01
     vertex  0.000000e+00 -7.500000e-01 -4.218750e-01
   endloop
 endfacet
 facet normal  0.000000e+00 -1.000000e+00  0.000000e+00
   outer loop
     vertex  0.000000e+00 -7.500000e-01 -3.587171e-01
     vertex  7.031250e-02 -7.500000e-01  4.531250e-01
     vertex  0.000000e+00 -7.500000e-01  4.531250e-01
   endloop
 endfacet
 facet normal  0.000000e+00 -1.000000e+00  0.000000e+00
   outer loop
     vertex  0.000000e+00 -7.500000e-01 -3.587171e-01
     vertex  7.031250e-02 -7.500000e-01 -3.587171e-01
     vertex  7.031250e-02 -7.500000e-01  4.531250e-01
   endloop
 endfacet
 facet normal -1.000000e+00 -0.000000e+00  0.000000e+00
   outer loop
     vertex  0.000000e+00  0.000000e+00  4.531250e-01
     vertex  0.000000e+00 -7.500000e-01 -3.587171e-01
     vertex  0.000000e+00 -7.500000e-01  4.531250e-01
   endloop
 endfacet
 facet normal -1.000000e+00  0.000000e+00 -0.000000e+00
   outer loop
     vertex  0.000000e+00  0.000000e+00  4.531250e-01
     vertex  0.000000e+00  7.500000e-01 -3.587171e-01
     vertex  0.000000e+00 -7.500000e-01 -3.587171e-01
   endloop
 endfacet
 facet normal -1.000000e+00 -0.000000e+00 -2.162225e-15
   outer loop
     vertex -1.387779e-17  0.000000e+00  6.425987e-01
     vertex -1.387779e-17 -7.500000e-01  6.425987e-01
     vertex -6.864468e-17 -7.500000e-01  6.679276e-01
   endloop
 endfacet
 facet normal -1.000000e+00 -7.054893e-17 -7.324388e-17
   outer loop
     vertex -6.864468e-17  7.500000e-01  6.679276e-01
     vertex  0.000000e+00  0.000000e+00  4.531250e-01
     vertex -1.387779e-17  0.000000e+00  6.425987e-01
   endloop
 endfacet
 facet normal -1.000000e+00 -7.237640e-17 -6.686313e-17
   outer loop
     vertex -6.864468e-17  7.500000e-01  6.679276e-01
     vertex  0.000000e+00  7.500000e-01 -3.587171e-01
     vertex  0.000000e+00  0.000000e+00  4.531250e-01
   endloop
 endfacet
 facet normal -1.000000e+00 -0.000000e+00 -2.162225e-15
   outer loop
     vertex -6.864468e-17  7.500000e-01  6.679276e-01
     vertex -1.387779e-17  0.000000e+00  6.425987e-01
     vertex -6.864468e-17 -7.500000e-01  6.679276e-01
   endloop
 endfacet
 facet normal  0.000000e+00  0.000000e+00 -1.000000e+00
   outer loop
     vertex  7.031250e-02 -7.500000e-01 -3.587171e-01
     vertex  0.000000e+00  7.500000e-01 -3.587171e-01
     vertex  7.031250e-02  7.500000e-01 -3.587171e-01
   endloop
 endfacet
 facet normal  0.000000e+00  0.000000e+00 -1.000000e+00
   outer loop
     vertex  7.031250e-02 -7.500000e-01 -3.587171e-01
     vertex  0.000000e+00 -7.500000e-01 -3.587171e-01
     vertex  0.000000e+00  7.500000e-01 -3.587171e-01
   endloop
 endfacet
 facet normal  1.000000e+00  0.000000e+00  0.000000e+00
   outer loop
     vertex  7.031250e-02  0.000000e+00  4.531250e-01
     vertex  7.031250e-02 -7.500000e-01  4.531250e-01
     vertex  7.031250e-02 -7.500000e-01 -3.587171e-01
   endloop
 endfacet
 facet normal  1.000000e+00  0.000000e+00  0.000000e+00
   outer loop
     vertex  7.031250e-02  0.000000e+00  4.531250e-01
     vertex  7.031250e-02 -7.500000e-01 -3.587171e-01
     vertex  7.031250e-02  7.500000e-01 -3.587171e-01
   endloop
 endfacet
 facet normal  1.000000e+00  0.000000e+00  0.000000e+00
   outer loop
     vertex  7.031250e-02  0.000000e+00  6.425987e-01
     vertex  7.031250e-02 -7.500000e-01  6.679276e-01
     vertex  7.031250e-02 -7.500000e-01  6.425987e-01
   endloop
 endfacet
 facet normal  1.000000e+00  0.000000e+00  0.000000e+00
   outer loop
     vertex  7.031250e-02  7.500000e-01  6.679276e-01
     vertex  7.031250e-02  0.000000e+00  6.425987e-01
     vertex  7.031250e-02  0.000000e+00  4.531250e-01
   endloop
 endfacet
 facet normal  1.000000e+00  0.000000e+00  0.000000e+00
   outer loop
     vertex  7.031250e-02  7.500000e-01  6.679276e-01
     vertex  7.031250e-02  0.000000e+00  4.531250e-01
     vertex  7.031250e-02  7.500000e-01 -3.587171e-01
   endloop
 endfacet
 facet normal  1.000000e+00  0.000000e+00  0.000000e+00
   outer loop
     vertex  7.031250e-02  7.500000e-01  6.679276e-01
     vertex  7.031250e-02 -7.500000e-01  6.679276e-01
     vertex  7.031250e-02  0.000000e+00  6.425987e-01
   endloop
 endfacet
 facet normal  0.000000e+00  0.000000e+00  1.000000e+00
   outer loop
     vertex  7.031250e-02  0.000000e+00  4.531250e-01
     vertex  0.000000e+00 -7.500000e-01  4.531250e-01
     vertex  7.031250e-02 -7.500000e-01  4.531250e-01
   endloop
 endfacet
 facet normal  0.000000e+00  0.000000e+00  1.000000e+00
   outer loop
     vertex  7.031250e-02  0.000000e+00  4.531250e-01
     vertex  0.000000e+00  0.000000e+00  4.531250e-01
     vertex  0.000000e+00 -7.500000e-01  4.531250e-01
   endloop
 endfacet
 facet normal  0.000000e+00 -1.000000e+00 -0.000000e+00
   outer loop
     vertex  7.031250e-02  0.000000e+00  6.425987e-01
     vertex  0.000000e+00  0.000000e+00  4.531250e-01
     vertex  7.031250e-02  0.000000e+00  4.531250e-01
   endloop
 endfacet
 facet normal -0.000000e+00 -1.000000e+00  0.000000e+00
   outer loop
     vertex  7.031250e-02  0.000000e+00  6.425987e-01
     vertex -1.387779e-17  0.000000e+00  6.425987e-01
     vertex  0.000000e+00  0.000000e+00  4.531250e-01
   endloop
 endfacet
 facet normal  0.000000e+00  0.000000e+00 -1.000000e+00
   outer loop
     vertex  7.031250e-02 -7.500000e-01  6.425987e-01
     vertex -1.387779e-17  0.000000e+00  6.425987e-01
     vertex  7.031250e-02  0.000000e+00  6.425987e-01
   endloop
 endfacet
 facet normal  0.000000e+00  0.000000e+00 -1.000000e+00
   outer loop
     vertex  7.031250e-02 -7.500000e-01  6.425987e-01
     vertex -1.387779e-17 -7.500000e-01  6.425987e-01
     vertex -1.387779e-17  0.000000e+00  6.425987e-01
   endloop
 endfacet
 facet normal  0.000000e+00 -1.000000e+00  0.000000e+00
   outer loop
     vertex -1.387779e-17 -7.500000e-01  6.425987e-01
     vertex  7.031250e-02 -7.500000e-01  6.679276e-01
     vertex -6.864468e-17 -7.500000e-01  6.679276e-01
   endloop
 endfacet
 facet normal  0.000000e+00 -1.000000e+00  0.000000e+00
   outer loop
     vertex -1.387779e-17 -7.500000e-01  6.425987e-01
     vertex  7.031250e-02 -7.500000e-01  6.425987e-01
     vertex  7.031250e-02 -7.500000e-01  6.679276e-01
   endloop
 endfacet
 facet normal  0.000000e+00  0.000000e+00  1.000000e+00
   outer loop
     vertex -6.864468e-17 -7.500000e-01  6.679276e-01
     vertex  7.031250e-02  7.500000e-01  6.679276e-01
     vertex -6.864468e-17  7.500000e-01  6.679276e-01
   endloop
 endfacet
 facet normal  0.000000e+00  0.000000e+00  1.000000e+00
   outer loop
     vertex -6.864468e-17 -7.500000e-01  6.679276e-01
     vertex  7.031250e-02 -7.500000e-01  6.679276e-01
     vertex  7.031250e-02  7.500000e-01  6.679276e-01
   endloop
 endfacet
 facet normal  0.000000e+00  1.000000e+00  0.000000e+00
   outer loop
     vertex -6.864468e-17  7.500000e-01  6.679276e-01
     vertex  7.031250e-02  7.500000e-01 -3.587171e-01
     vertex  0.000000e+00  7.500000e-01 -3.587171e-01
   endloop
 endfacet
 facet normal -0.000000e+00  1.000000e+00  0.000000e+00
   outer loop
     vertex -6.864468e-17  7.500000e-01  6.679276e-01
     vertex  7.031250e-02  7.500000e-01  6.679276e-01
     vertex  7.031250e-02  7.500000e-01 -3.587171e-01
   endloop
 endfacet
endsolid
