solid 
 facet normal  0.000000e+00  0.000000e+00 -1.000000e+00
   outer loop
     vertex  6.710526e-02  4.109012e-18  7.812500e-03
     vertex  4.592425e-17 -7.500000e-01  7.812500e-03
     vertex  0.000000e+00  0.000000e+00  7.812500e-03
   endloop
 endfacet
 facet normal  0.000000e+00 -0.000000e+00 -1.000000e+00
   outer loop
     vertex  6.710526e-02  4.109012e-18  7.812500e-03
     vertex  6.710526e-02 -7.500000e-01  7.812500e-03
     vertex  4.592425e-17 -7.500000e-01  7.812500e-03
   endloop
 endfacet
 facet normal  1.000000e+00  0.000000e+00  0.000000e+00
   outer loop
     vertex  6.710526e-02  4.194617e-18  9.210526e-03
     vertex  6.710526e-02 -7.500000e-01  7.812500e-03
     vertex  6.710526e-02  4.109012e-18  7.812500e-03
   endloop
 endfacet
 facet normal  1.000000e+00  0.000000e+00  0.000000e+00
   outer loop
     vertex  6.710526e-02  4.194617e-18  9.210526e-03
     vertex  6.710526e-02 -7.500000e-01  9.210526e-03
     vertex  6.710526e-02 -7.500000e-01  7.812500e-03
   endloop
 endfacet
 facet normal -8.171949e-32  1.334581e-15  1.000000e+00
   outer loop
     vertex  1.398026e-03  1.712088e-19  9.210526e-03
     vertex  6.710526e-02 -7.500000e-01  9.210526e-03
     vertex  6.710526e-02  4.194617e-18  9.210526e-03
   endloop
 endfacet
 facet normal  0.000000e+00  1.334581e-15  1.000000e+00
   outer loop
     vertex  1.398026e-03  1.712088e-19  9.210526e-03
     vertex  1.398026e-03 -7.500000e-01  9.210526e-03
     vertex  6.710526e-02 -7.500000e-01  9.210526e-03
   endloop
 endfacet
 facet normal  1.000000e+00  1.333424e-15 -8.164868e-32
   outer loop
     vertex  1.398026e-03  8.218025e-18  1.406250e-01
     vertex  1.398026e-03 -7.500000e-01  9.210526e-03
     vertex  1.398026e-03  1.712088e-19  9.210526e-03
   endloop
 endfacet
 facet normal  1.000000e+00  1.333424e-15  0.000000e+00
   outer loop
     vertex  1.398026e-03  8.218025e-18  1.406250e-01
     vertex  1.398026e-03 -7.500000e-01  1.406250e-01
     vertex  1.398026e-03 -7.500000e-01  9.210526e-03
   endloop
 endfacet
 facet normal -0.000000e+00  0.000000e+00  1.000000e+00
   outer loop
     vertex  8.132420e-18  8.132420e-18  1.406250e-01
     vertex  1.398026e-03 -7.500000e-01  1.406250e-01
     vertex  1.398026e-03  8.218025e-18  1.406250e-01
   endloop
 endfacet
 facet normal  0.000000e+00  0.000000e+00  1.000000e+00
   outer loop
     vertex  8.132420e-18  8.132420e-18  1.406250e-01
     vertex  5.405668e-17 -7.500000e-01  1.406250e-01
     vertex  1.398026e-03 -7.500000e-01  1.406250e-01
   endloop
 endfacet
 facet normal -1.000000e+00 -6.123234e-17  6.123234e-17
   outer loop
     vertex  0.000000e+00  0.000000e+00  7.812500e-03
     vertex  5.405668e-17 -7.500000e-01  1.406250e-01
     vertex  8.132420e-18  8.132420e-18  1.406250e-01
   endloop
 endfacet
 facet normal -1.000000e+00 -6.123234e-17  6.123234e-17
   outer loop
     vertex  0.000000e+00  0.000000e+00  7.812500e-03
     vertex  4.592425e-17 -7.500000e-01  7.812500e-03
     vertex  5.405668e-17 -7.500000e-01  1.406250e-01
   endloop
 endfacet
 facet normal -6.123234e-17  1.000000e+00 -6.123234e-17
   outer loop
     vertex  6.710526e-02  4.109012e-18  7.812500e-03
     vertex  0.000000e+00  0.000000e+00  7.812500e-03
     vertex  1.398026e-03  1.712088e-19  9.210526e-03
   endloop
 endfacet
 facet normal -6.123234e-17  1.000000e+00 -6.123234e-17
   outer loop
     vertex  6.710526e-02  4.194617e-18  9.210526e-03
     vertex  6.710526e-02  4.109012e-18  7.812500e-03
     vertex  1.398026e-03  1.712088e-19  9.210526e-03
   endloop
 endfacet
 facet normal -6.123234e-17  1.000000e+00 -6.123234e-17
   outer loop
     vertex  8.132420e-18  8.132420e-18  1.406250e-01
     vertex  1.398026e-03  1.712088e-19  9.210526e-03
     vertex  0.000000e+00  0.000000e+00  7.812500e-03
   endloop
 endfacet
 facet normal -6.123234e-17  1.000000e+00 -6.123234e-17
   outer loop
     vertex  1.398026e-03  8.218025e-18  1.406250e-01
     vertex  1.398026e-03  1.712088e-19  9.210526e-03
     vertex  8.132420e-18  8.132420e-18  1.406250e-01
   endloop
 endfacet
 facet normal  0.000000e+00 -1.000000e+00  0.000000e+00
   outer loop
     vertex  6.710526e-02 -7.500000e-01  7.812500e-03
     vertex  1.398026e-03 -7.500000e-01  9.210526e-03
     vertex  4.592425e-17 -7.500000e-01  7.812500e-03
   endloop
 endfacet
 facet normal -0.000000e+00 -1.000000e+00 -0.000000e+00
   outer loop
     vertex  6.710526e-02 -7.500000e-01  9.210526e-03
     vertex  1.398026e-03 -7.500000e-01  9.210526e-03
     vertex  6.710526e-02 -7.500000e-01  7.812500e-03
   endloop
 endfacet
 facet normal  0.000000e+00 -1.000000e+00 -0.000000e+00
   outer loop
     vertex  5.405668e-17 -7.500000e-01  1.406250e-01
     vertex  4.592425e-17 -7.500000e-01  7.812500e-03
     vertex  1.398026e-03 -7.500000e-01  9.210526e-03
   endloop
 endfacet
 facet normal -0.000000e+00 -1.000000e+00 -0.000000e+00
   outer loop
     vertex  1.398026e-03 -7.500000e-01  1.406250e-01
     vertex  5.405668e-17 -7.500000e-01  1.406250e-01
     vertex  1.398026e-03 -7.500000e-01  9.210526e-03
   endloop
 endfacet
endsolid
