solid 
 facet normal  9.927089e-01 -1.205367e-01  0.000000e+00
   outer loop
     vertex  3.873783e-01 -9.446671e-02  0.000000e+00
     vertex  3.988487e-01  0.000000e+00  0.000000e+00
     vertex  3.988487e-01  0.000000e+00  2.500000e-01
   endloop
 endfacet
 facet normal  9.927089e-01 -1.205367e-01  0.000000e+00
   outer loop
     vertex  3.873783e-01 -9.446671e-02  0.000000e+00
     vertex  3.988487e-01  0.000000e+00  2.500000e-01
     vertex  3.873783e-01 -9.446671e-02  2.500000e-01
   endloop
 endfacet
 facet normal  9.350162e-01 -3.546049e-01  0.000000e+00
   outer loop
     vertex  3.536340e-01 -1.834434e-01  0.000000e+00
     vertex  3.873783e-01 -9.446671e-02  2.500000e-01
     vertex  3.536340e-01 -1.834434e-01  2.500000e-01
   endloop
 endfacet
 facet normal  9.350162e-01 -3.546049e-01  0.000000e+00
   outer loop
     vertex  3.536340e-01 -1.834434e-01  0.000000e+00
     vertex  3.873783e-01 -9.446671e-02  0.000000e+00
     vertex  3.873783e-01 -9.446671e-02  2.500000e-01
   endloop
 endfacet
 facet normal  8.229839e-01 -5.680647e-01  0.000000e+00
   outer loop
     vertex  2.995766e-01 -2.617589e-01  0.000000e+00
     vertex  3.536340e-01 -1.834434e-01  2.500000e-01
     vertex  2.995766e-01 -2.617589e-01  2.500000e-01
   endloop
 endfacet
 facet normal  8.229839e-01 -5.680647e-01  0.000000e+00
   outer loop
     vertex  2.995766e-01 -2.617589e-01  0.000000e+00
     vertex  3.536340e-01 -1.834434e-01  0.000000e+00
     vertex  3.536340e-01 -1.834434e-01  2.500000e-01
   endloop
 endfacet
 facet normal  6.631227e-01 -7.485107e-01  0.000000e+00
   outer loop
     vertex  2.283479e-01 -3.248621e-01  0.000000e+00
     vertex  2.995766e-01 -2.617589e-01  2.500000e-01
     vertex  2.283479e-01 -3.248621e-01  2.500000e-01
   endloop
 endfacet
 facet normal  6.631227e-01 -7.485107e-01  0.000000e+00
   outer loop
     vertex  2.283479e-01 -3.248621e-01  0.000000e+00
     vertex  2.995766e-01 -2.617589e-01  0.000000e+00
     vertex  2.995766e-01 -2.617589e-01  2.500000e-01
   endloop
 endfacet
 facet normal  4.647232e-01 -8.854560e-01  0.000000e+00
   outer loop
     vertex  1.440875e-01 -3.690854e-01  0.000000e+00
     vertex  2.283479e-01 -3.248621e-01  2.500000e-01
     vertex  1.440875e-01 -3.690854e-01  2.500000e-01
   endloop
 endfacet
 facet normal  4.647232e-01 -8.854560e-01  0.000000e+00
   outer loop
     vertex  1.440875e-01 -3.690854e-01  0.000000e+00
     vertex  2.283479e-01 -3.248621e-01  0.000000e+00
     vertex  2.283479e-01 -3.248621e-01  2.500000e-01
   endloop
 endfacet
 facet normal  2.393157e-01 -9.709418e-01  0.000000e+00
   outer loop
     vertex  5.169211e-02 -3.918588e-01  0.000000e+00
     vertex  1.440875e-01 -3.690854e-01  2.500000e-01
     vertex  5.169211e-02 -3.918588e-01  2.500000e-01
   endloop
 endfacet
 facet normal  2.393157e-01 -9.709418e-01  0.000000e+00
   outer loop
     vertex  5.169211e-02 -3.918588e-01  0.000000e+00
     vertex  1.440875e-01 -3.690854e-01  0.000000e+00
     vertex  1.440875e-01 -3.690854e-01  2.500000e-01
   endloop
 endfacet
 facet normal -2.333369e-15 -1.000000e+00  0.000000e+00
   outer loop
     vertex -4.346843e-02 -3.918588e-01  0.000000e+00
     vertex  5.169211e-02 -3.918588e-01  2.500000e-01
     vertex -4.346843e-02 -3.918588e-01  2.500000e-01
   endloop
 endfacet
 facet normal -2.333369e-15 -1.000000e+00  0.000000e+00
   outer loop
     vertex -4.346843e-02 -3.918588e-01  0.000000e+00
     vertex  5.169211e-02 -3.918588e-01  0.000000e+00
     vertex  5.169211e-02 -3.918588e-01  2.500000e-01
   endloop
 endfacet
 facet normal -2.393157e-01 -9.709418e-01  0.000000e+00
   outer loop
     vertex -1.358638e-01 -3.690854e-01  0.000000e+00
     vertex -4.346843e-02 -3.918588e-01  2.500000e-01
     vertex -1.358638e-01 -3.690854e-01  2.500000e-01
   endloop
 endfacet
 facet normal -2.393157e-01 -9.709418e-01  0.000000e+00
   outer loop
     vertex -1.358638e-01 -3.690854e-01  0.000000e+00
     vertex -4.346843e-02 -3.918588e-01  0.000000e+00
     vertex -4.346843e-02 -3.918588e-01  2.500000e-01
   endloop
 endfacet
 facet normal -4.647232e-01 -8.854560e-01  0.000000e+00
   outer loop
     vertex -2.201242e-01 -3.248621e-01  0.000000e+00
     vertex -1.358638e-01 -3.690854e-01  2.500000e-01
     vertex -2.201242e-01 -3.248621e-01  2.500000e-01
   endloop
 endfacet
 facet normal -4.647232e-01 -8.854560e-01  0.000000e+00
   outer loop
     vertex -2.201242e-01 -3.248621e-01  0.000000e+00
     vertex -1.358638e-01 -3.690854e-01  0.000000e+00
     vertex -1.358638e-01 -3.690854e-01  2.500000e-01
   endloop
 endfacet
 facet normal -6.631227e-01 -7.485107e-01  0.000000e+00
   outer loop
     vertex -2.913529e-01 -2.617589e-01  0.000000e+00
     vertex -2.201242e-01 -3.248621e-01  2.500000e-01
     vertex -2.913529e-01 -2.617589e-01  2.500000e-01
   endloop
 endfacet
 facet normal -6.631227e-01 -7.485107e-01  0.000000e+00
   outer loop
     vertex -2.913529e-01 -2.617589e-01  0.000000e+00
     vertex -2.201242e-01 -3.248621e-01  0.000000e+00
     vertex -2.201242e-01 -3.248621e-01  2.500000e-01
   endloop
 endfacet
 facet normal -8.229839e-01 -5.680647e-01  0.000000e+00
   outer loop
     vertex -3.454103e-01 -1.834434e-01  0.000000e+00
     vertex -2.913529e-01 -2.617589e-01  0.000000e+00
     vertex -2.913529e-01 -2.617589e-01  2.500000e-01
   endloop
 endfacet
 facet normal -8.229839e-01 -5.680647e-01  0.000000e+00
   outer loop
     vertex -3.454103e-01 -1.834434e-01  0.000000e+00
     vertex -2.913529e-01 -2.617589e-01  2.500000e-01
     vertex -3.454103e-01 -1.834434e-01  2.500000e-01
   endloop
 endfacet
 facet normal -9.350162e-01 -3.546049e-01  0.000000e+00
   outer loop
     vertex -3.791547e-01 -9.446671e-02  0.000000e+00
     vertex -3.454103e-01 -1.834434e-01  0.000000e+00
     vertex -3.454103e-01 -1.834434e-01  2.500000e-01
   endloop
 endfacet
 facet normal -9.350162e-01 -3.546049e-01  0.000000e+00
   outer loop
     vertex -3.791547e-01 -9.446671e-02  0.000000e+00
     vertex -3.454103e-01 -1.834434e-01  2.500000e-01
     vertex -3.791547e-01 -9.446671e-02  2.500000e-01
   endloop
 endfacet
 facet normal -9.927089e-01 -1.205367e-01  0.000000e+00
   outer loop
     vertex -3.906250e-01  3.989381e-16  0.000000e+00
     vertex -3.791547e-01 -9.446671e-02  0.000000e+00
     vertex -3.791547e-01 -9.446671e-02  2.500000e-01
   endloop
 endfacet
 facet normal -9.927089e-01 -1.205367e-01  0.000000e+00
   outer loop
     vertex -3.906250e-01  3.989381e-16  0.000000e+00
     vertex -3.791547e-01 -9.446671e-02  2.500000e-01
     vertex -3.906250e-01  3.989381e-16  2.500000e-01
   endloop
 endfacet
 facet normal -9.927089e-01  1.205367e-01  0.000000e+00
   outer loop
     vertex -3.791547e-01  9.446671e-02  0.000000e+00
     vertex -3.906250e-01  3.989381e-16  0.000000e+00
     vertex -3.906250e-01  3.989381e-16  2.500000e-01
   endloop
 endfacet
 facet normal -9.350162e-01  3.546049e-01  0.000000e+00
   outer loop
     vertex -3.791547e-01  9.446671e-02  0.000000e+00
     vertex -3.791547e-01  9.446671e-02  2.500000e-01
     vertex -3.454103e-01  1.834434e-01  2.500000e-01
   endloop
 endfacet
 facet normal -9.927089e-01  1.205367e-01  0.000000e+00
   outer loop
     vertex -3.791547e-01  9.446671e-02  0.000000e+00
     vertex -3.906250e-01  3.989381e-16  2.500000e-01
     vertex -3.791547e-01  9.446671e-02  2.500000e-01
   endloop
 endfacet
 facet normal -9.350162e-01  3.546049e-01  0.000000e+00
   outer loop
     vertex -3.454103e-01  1.834434e-01  0.000000e+00
     vertex -3.791547e-01  9.446671e-02  0.000000e+00
     vertex -3.454103e-01  1.834434e-01  2.500000e-01
   endloop
 endfacet
 facet normal -8.229839e-01  5.680647e-01  0.000000e+00
   outer loop
     vertex -2.913529e-01  2.617589e-01  0.000000e+00
     vertex -3.454103e-01  1.834434e-01  0.000000e+00
     vertex -3.454103e-01  1.834434e-01  2.500000e-01
   endloop
 endfacet
 facet normal -8.229839e-01  5.680647e-01  0.000000e+00
   outer loop
     vertex -2.913529e-01  2.617589e-01  0.000000e+00
     vertex -3.454103e-01  1.834434e-01  2.500000e-01
     vertex -2.913529e-01  2.617589e-01  2.500000e-01
   endloop
 endfacet
 facet normal -6.631227e-01  7.485107e-01  0.000000e+00
   outer loop
     vertex -2.201242e-01  3.248621e-01  0.000000e+00
     vertex -2.913529e-01  2.617589e-01  0.000000e+00
     vertex -2.913529e-01  2.617589e-01  2.500000e-01
   endloop
 endfacet
 facet normal -6.631227e-01  7.485107e-01  0.000000e+00
   outer loop
     vertex -2.201242e-01  3.248621e-01  0.000000e+00
     vertex -2.913529e-01  2.617589e-01  2.500000e-01
     vertex -2.201242e-01  3.248621e-01  2.500000e-01
   endloop
 endfacet
 facet normal -4.647232e-01  8.854560e-01  0.000000e+00
   outer loop
     vertex -1.358638e-01  3.690854e-01  0.000000e+00
     vertex -2.201242e-01  3.248621e-01  0.000000e+00
     vertex -2.201242e-01  3.248621e-01  2.500000e-01
   endloop
 endfacet
 facet normal -4.647232e-01  8.854560e-01  0.000000e+00
   outer loop
     vertex -1.358638e-01  3.690854e-01  0.000000e+00
     vertex -2.201242e-01  3.248621e-01  2.500000e-01
     vertex -1.358638e-01  3.690854e-01  2.500000e-01
   endloop
 endfacet
 facet normal -2.393157e-01  9.709418e-01  0.000000e+00
   outer loop
     vertex -4.346843e-02  3.918588e-01  0.000000e+00
     vertex -1.358638e-01  3.690854e-01  2.500000e-01
     vertex -4.346843e-02  3.918588e-01  2.500000e-01
   endloop
 endfacet
 facet normal -2.393157e-01  9.709418e-01  0.000000e+00
   outer loop
     vertex -4.346843e-02  3.918588e-01  0.000000e+00
     vertex -1.358638e-01  3.690854e-01  0.000000e+00
     vertex -1.358638e-01  3.690854e-01  2.500000e-01
   endloop
 endfacet
 facet normal  2.393157e-01  9.709418e-01 -0.000000e+00
   outer loop
     vertex  5.169211e-02  3.918588e-01  0.000000e+00
     vertex  5.169211e-02  3.918588e-01  2.500000e-01
     vertex  1.440875e-01  3.690854e-01  2.500000e-01
   endloop
 endfacet
 facet normal  0.000000e+00  1.000000e+00 -0.000000e+00
   outer loop
     vertex  5.169211e-02  3.918588e-01  0.000000e+00
     vertex -4.346843e-02  3.918588e-01  2.500000e-01
     vertex  5.169211e-02  3.918588e-01  2.500000e-01
   endloop
 endfacet
 facet normal  0.000000e+00  1.000000e+00  0.000000e+00
   outer loop
     vertex  5.169211e-02  3.918588e-01  0.000000e+00
     vertex -4.346843e-02  3.918588e-01  0.000000e+00
     vertex -4.346843e-02  3.918588e-01  2.500000e-01
   endloop
 endfacet
 facet normal  2.393157e-01  9.709418e-01 -0.000000e+00
   outer loop
     vertex  1.440875e-01  3.690854e-01  0.000000e+00
     vertex  5.169211e-02  3.918588e-01  0.000000e+00
     vertex  1.440875e-01  3.690854e-01  2.500000e-01
   endloop
 endfacet
 facet normal  4.647232e-01  8.854560e-01 -0.000000e+00
   outer loop
     vertex  2.283479e-01  3.248621e-01  0.000000e+00
     vertex  1.440875e-01  3.690854e-01  2.500000e-01
     vertex  2.283479e-01  3.248621e-01  2.500000e-01
   endloop
 endfacet
 facet normal  4.647232e-01  8.854560e-01  0.000000e+00
   outer loop
     vertex  2.283479e-01  3.248621e-01  0.000000e+00
     vertex  1.440875e-01  3.690854e-01  0.000000e+00
     vertex  1.440875e-01  3.690854e-01  2.500000e-01
   endloop
 endfacet
 facet normal  6.631227e-01  7.485107e-01 -0.000000e+00
   outer loop
     vertex  2.995766e-01  2.617589e-01  0.000000e+00
     vertex  2.283479e-01  3.248621e-01  2.500000e-01
     vertex  2.995766e-01  2.617589e-01  2.500000e-01
   endloop
 endfacet
 facet normal  6.631227e-01  7.485107e-01  0.000000e+00
   outer loop
     vertex  2.995766e-01  2.617589e-01  0.000000e+00
     vertex  2.283479e-01  3.248621e-01  0.000000e+00
     vertex  2.283479e-01  3.248621e-01  2.500000e-01
   endloop
 endfacet
 facet normal  9.350162e-01  3.546049e-01 -0.000000e+00
   outer loop
     vertex  3.536340e-01  1.834434e-01  0.000000e+00
     vertex  3.536340e-01  1.834434e-01  2.500000e-01
     vertex  3.873783e-01  9.446671e-02  2.500000e-01
   endloop
 endfacet
 facet normal  8.229839e-01  5.680647e-01 -0.000000e+00
   outer loop
     vertex  3.536340e-01  1.834434e-01  0.000000e+00
     vertex  2.995766e-01  2.617589e-01  2.500000e-01
     vertex  3.536340e-01  1.834434e-01  2.500000e-01
   endloop
 endfacet
 facet normal  8.229839e-01  5.680647e-01  0.000000e+00
   outer loop
     vertex  3.536340e-01  1.834434e-01  0.000000e+00
     vertex  2.995766e-01  2.617589e-01  0.000000e+00
     vertex  2.995766e-01  2.617589e-01  2.500000e-01
   endloop
 endfacet
 facet normal  9.350162e-01  3.546049e-01 -0.000000e+00
   outer loop
     vertex  3.873783e-01  9.446671e-02  0.000000e+00
     vertex  3.536340e-01  1.834434e-01  0.000000e+00
     vertex  3.873783e-01  9.446671e-02  2.500000e-01
   endloop
 endfacet
 facet normal  9.927089e-01  1.205367e-01 -0.000000e+00
   outer loop
     vertex  3.988487e-01  0.000000e+00  0.000000e+00
     vertex  3.873783e-01  9.446671e-02  2.500000e-01
     vertex  3.988487e-01  0.000000e+00  2.500000e-01
   endloop
 endfacet
 facet normal  9.927089e-01  1.205367e-01  0.000000e+00
   outer loop
     vertex  3.988487e-01  0.000000e+00  0.000000e+00
     vertex  3.873783e-01  9.446671e-02  0.000000e+00
     vertex  3.873783e-01  9.446671e-02  2.500000e-01
   endloop
 endfacet
 facet normal  0.000000e+00  0.000000e+00 -1.000000e+00
   outer loop
     vertex -7.812500e-02 -1.424384e-01  0.000000e+00
     vertex -2.201242e-01 -3.248621e-01  0.000000e+00
     vertex -2.913529e-01 -2.617589e-01  0.000000e+00
   endloop
 endfacet
 facet normal  0.000000e+00  0.000000e+00 -1.000000e+00
   outer loop
     vertex -7.812500e-02 -1.424384e-01  0.000000e+00
     vertex -1.358638e-01 -3.690854e-01  0.000000e+00
     vertex -2.201242e-01 -3.248621e-01  0.000000e+00
   endloop
 endfacet
 facet normal  0.000000e+00  0.000000e+00 -1.000000e+00
   outer loop
     vertex -1.383265e-01 -8.223684e-02  0.000000e+00
     vertex -3.454103e-01 -1.834434e-01  0.000000e+00
     vertex -3.791547e-01 -9.446671e-02  0.000000e+00
   endloop
 endfacet
 facet normal  0.000000e+00  0.000000e+00 -1.000000e+00
   outer loop
     vertex -1.383265e-01 -8.223684e-02  0.000000e+00
     vertex -2.913529e-01 -2.617589e-01  0.000000e+00
     vertex -3.454103e-01 -1.834434e-01  0.000000e+00
   endloop
 endfacet
 facet normal  0.000000e+00 -0.000000e+00 -1.000000e+00
   outer loop
     vertex -1.383265e-01 -8.223684e-02  0.000000e+00
     vertex -7.812500e-02 -1.424384e-01  0.000000e+00
     vertex -2.913529e-01 -2.617589e-01  0.000000e+00
   endloop
 endfacet
 facet normal  0.000000e+00  0.000000e+00 -1.000000e+00
   outer loop
     vertex  4.111842e-03 -1.644737e-01  0.000000e+00
     vertex -4.346843e-02 -3.918588e-01  0.000000e+00
     vertex -1.358638e-01 -3.690854e-01  0.000000e+00
   endloop
 endfacet
 facet normal  0.000000e+00 -0.000000e+00 -1.000000e+00
   outer loop
     vertex  4.111842e-03 -1.644737e-01  0.000000e+00
     vertex  5.169211e-02 -3.918588e-01  0.000000e+00
     vertex -4.346843e-02 -3.918588e-01  0.000000e+00
   endloop
 endfacet
 facet normal  0.000000e+00  0.000000e+00 -1.000000e+00
   outer loop
     vertex  4.111842e-03 -1.644737e-01  0.000000e+00
     vertex  1.440875e-01 -3.690854e-01  0.000000e+00
     vertex  5.169211e-02 -3.918588e-01  0.000000e+00
   endloop
 endfacet
 facet normal -0.000000e+00  0.000000e+00 -1.000000e+00
   outer loop
     vertex  4.111842e-03 -1.644737e-01  0.000000e+00
     vertex -1.358638e-01 -3.690854e-01  0.000000e+00
     vertex -7.812500e-02 -1.424384e-01  0.000000e+00
   endloop
 endfacet
 facet normal  0.000000e+00  0.000000e+00 -1.000000e+00
   outer loop
     vertex -1.603618e-01  9.318321e-17  0.000000e+00
     vertex -3.906250e-01  3.989381e-16  0.000000e+00
     vertex -3.791547e-01  9.446671e-02  0.000000e+00
   endloop
 endfacet
 facet normal -0.000000e+00  0.000000e+00 -1.000000e+00
   outer loop
     vertex -1.603618e-01  9.318321e-17  0.000000e+00
     vertex -3.791547e-01 -9.446671e-02  0.000000e+00
     vertex -3.906250e-01  3.989381e-16  0.000000e+00
   endloop
 endfacet
 facet normal  0.000000e+00 -0.000000e+00 -1.000000e+00
   outer loop
     vertex -1.603618e-01  9.318321e-17  0.000000e+00
     vertex -1.383265e-01 -8.223684e-02  0.000000e+00
     vertex -3.791547e-01 -9.446671e-02  0.000000e+00
   endloop
 endfacet
 facet normal  0.000000e+00  0.000000e+00 -1.000000e+00
   outer loop
     vertex  8.634868e-02 -1.424384e-01  0.000000e+00
     vertex  2.283479e-01 -3.248621e-01  0.000000e+00
     vertex  1.440875e-01 -3.690854e-01  0.000000e+00
   endloop
 endfacet
 facet normal  0.000000e+00 -0.000000e+00 -1.000000e+00
   outer loop
     vertex  8.634868e-02 -1.424384e-01  0.000000e+00
     vertex  1.440875e-01 -3.690854e-01  0.000000e+00
     vertex  4.111842e-03 -1.644737e-01  0.000000e+00
   endloop
 endfacet
 facet normal  0.000000e+00  0.000000e+00 -1.000000e+00
   outer loop
     vertex -1.383265e-01  8.223684e-02  0.000000e+00
     vertex -3.791547e-01  9.446671e-02  0.000000e+00
     vertex -3.454103e-01  1.834434e-01  0.000000e+00
   endloop
 endfacet
 facet normal -0.000000e+00  0.000000e+00 -1.000000e+00
   outer loop
     vertex -1.383265e-01  8.223684e-02  0.000000e+00
     vertex -1.603618e-01  9.318321e-17  0.000000e+00
     vertex -3.791547e-01  9.446671e-02  0.000000e+00
   endloop
 endfacet
 facet normal  0.000000e+00 -0.000000e+00 -1.000000e+00
   outer loop
     vertex -2.913529e-01  2.617589e-01  0.000000e+00
     vertex -1.383265e-01  8.223684e-02  0.000000e+00
     vertex -3.454103e-01  1.834434e-01  0.000000e+00
   endloop
 endfacet
 facet normal -0.000000e+00  0.000000e+00 -1.000000e+00
   outer loop
     vertex  2.995766e-01 -2.617589e-01  0.000000e+00
     vertex  2.283479e-01 -3.248621e-01  0.000000e+00
     vertex  8.634868e-02 -1.424384e-01  0.000000e+00
   endloop
 endfacet
 facet normal  0.000000e+00 -0.000000e+00 -1.000000e+00
   outer loop
     vertex  1.465502e-01 -8.223684e-02  0.000000e+00
     vertex  2.995766e-01 -2.617589e-01  0.000000e+00
     vertex  8.634868e-02 -1.424384e-01  0.000000e+00
   endloop
 endfacet
 facet normal -0.000000e+00  0.000000e+00 -1.000000e+00
   outer loop
     vertex -7.812500e-02  1.424384e-01  0.000000e+00
     vertex -1.383265e-01  8.223684e-02  0.000000e+00
     vertex -2.913529e-01  2.617589e-01  0.000000e+00
   endloop
 endfacet
 facet normal  0.000000e+00 -0.000000e+00 -1.000000e+00
   outer loop
     vertex -2.201242e-01  3.248621e-01  0.000000e+00
     vertex -7.812500e-02  1.424384e-01  0.000000e+00
     vertex -2.913529e-01  2.617589e-01  0.000000e+00
   endloop
 endfacet
 facet normal -0.000000e+00  0.000000e+00 -1.000000e+00
   outer loop
     vertex  3.536340e-01 -1.834434e-01  0.000000e+00
     vertex  2.995766e-01 -2.617589e-01  0.000000e+00
     vertex  1.465502e-01 -8.223684e-02  0.000000e+00
   endloop
 endfacet
 facet normal  0.000000e+00  0.000000e+00 -1.000000e+00
   outer loop
     vertex -1.358638e-01  3.690854e-01  0.000000e+00
     vertex  4.111842e-03  1.644737e-01  0.000000e+00
     vertex -7.812500e-02  1.424384e-01  0.000000e+00
   endloop
 endfacet
 facet normal  0.000000e+00 -0.000000e+00 -1.000000e+00
   outer loop
     vertex -1.358638e-01  3.690854e-01  0.000000e+00
     vertex -7.812500e-02  1.424384e-01  0.000000e+00
     vertex -2.201242e-01  3.248621e-01  0.000000e+00
   endloop
 endfacet
 facet normal  0.000000e+00  0.000000e+00 -1.000000e+00
   outer loop
     vertex  3.873783e-01 -9.446671e-02  0.000000e+00
     vertex  1.465502e-01 -8.223684e-02  0.000000e+00
     vertex  1.685855e-01  0.000000e+00  0.000000e+00
   endloop
 endfacet
 facet normal -0.000000e+00  0.000000e+00 -1.000000e+00
   outer loop
     vertex  3.873783e-01 -9.446671e-02  0.000000e+00
     vertex  3.536340e-01 -1.834434e-01  0.000000e+00
     vertex  1.465502e-01 -8.223684e-02  0.000000e+00
   endloop
 endfacet
 facet normal  0.000000e+00 -0.000000e+00 -1.000000e+00
   outer loop
     vertex -4.346843e-02  3.918588e-01  0.000000e+00
     vertex  4.111842e-03  1.644737e-01  0.000000e+00
     vertex -1.358638e-01  3.690854e-01  0.000000e+00
   endloop
 endfacet
 facet normal -0.000000e+00  0.000000e+00 -1.000000e+00
   outer loop
     vertex  3.988487e-01  0.000000e+00  0.000000e+00
     vertex  3.873783e-01 -9.446671e-02  0.000000e+00
     vertex  1.685855e-01  0.000000e+00  0.000000e+00
   endloop
 endfacet
 facet normal -0.000000e+00  0.000000e+00 -1.000000e+00
   outer loop
     vertex  5.169211e-02  3.918588e-01  0.000000e+00
     vertex  4.111842e-03  1.644737e-01  0.000000e+00
     vertex -4.346843e-02  3.918588e-01  0.000000e+00
   endloop
 endfacet
 facet normal  0.000000e+00 -0.000000e+00 -1.000000e+00
   outer loop
     vertex  3.873783e-01  9.446671e-02  0.000000e+00
     vertex  3.988487e-01  0.000000e+00  0.000000e+00
     vertex  1.685855e-01  0.000000e+00  0.000000e+00
   endloop
 endfacet
 facet normal  0.000000e+00  0.000000e+00 -1.000000e+00
   outer loop
     vertex  3.873783e-01  9.446671e-02  0.000000e+00
     vertex  1.685855e-01  0.000000e+00  0.000000e+00
     vertex  1.465502e-01  8.223684e-02  0.000000e+00
   endloop
 endfacet
 facet normal -0.000000e+00  0.000000e+00 -1.000000e+00
   outer loop
     vertex  1.440875e-01  3.690854e-01  0.000000e+00
     vertex  4.111842e-03  1.644737e-01  0.000000e+00
     vertex  5.169211e-02  3.918588e-01  0.000000e+00
   endloop
 endfacet
 facet normal  0.000000e+00  0.000000e+00 -1.000000e+00
   outer loop
     vertex  1.440875e-01  3.690854e-01  0.000000e+00
     vertex  8.634868e-02  1.424384e-01  0.000000e+00
     vertex  4.111842e-03  1.644737e-01  0.000000e+00
   endloop
 endfacet
 facet normal  0.000000e+00 -0.000000e+00 -1.000000e+00
   outer loop
     vertex  3.536340e-01  1.834434e-01  0.000000e+00
     vertex  3.873783e-01  9.446671e-02  0.000000e+00
     vertex  1.465502e-01  8.223684e-02  0.000000e+00
   endloop
 endfacet
 facet normal -0.000000e+00  0.000000e+00 -1.000000e+00
   outer loop
     vertex  2.283479e-01  3.248621e-01  0.000000e+00
     vertex  8.634868e-02  1.424384e-01  0.000000e+00
     vertex  1.440875e-01  3.690854e-01  0.000000e+00
   endloop
 endfacet
 facet normal -0.000000e+00  0.000000e+00 -1.000000e+00
   outer loop
     vertex  2.995766e-01  2.617589e-01  0.000000e+00
     vertex  8.634868e-02  1.424384e-01  0.000000e+00
     vertex  2.283479e-01  3.248621e-01  0.000000e+00
   endloop
 endfacet
 facet normal  0.000000e+00  0.000000e+00 -1.000000e+00
   outer loop
     vertex  2.995766e-01  2.617589e-01  0.000000e+00
     vertex  1.465502e-01  8.223684e-02  0.000000e+00
     vertex  8.634868e-02  1.424384e-01  0.000000e+00
   endloop
 endfacet
 facet normal  0.000000e+00 -0.000000e+00 -1.000000e+00
   outer loop
     vertex  2.995766e-01  2.617589e-01  0.000000e+00
     vertex  3.536340e-01  1.834434e-01  0.000000e+00
     vertex  1.465502e-01  8.223684e-02  0.000000e+00
   endloop
 endfacet
 facet normal  9.927089e-01 -1.205367e-01  0.000000e+00
   outer loop
     vertex  3.873783e-01 -9.446671e-02  2.500000e-01
     vertex  3.988487e-01  0.000000e+00  2.500000e-01
     vertex  3.988487e-01  0.000000e+00  7.500000e-01
   endloop
 endfacet
 facet normal  9.927089e-01 -1.205367e-01  0.000000e+00
   outer loop
     vertex  3.873783e-01 -9.446671e-02  2.500000e-01
     vertex  3.988487e-01  0.000000e+00  7.500000e-01
     vertex  3.873783e-01 -9.446671e-02  7.500000e-01
   endloop
 endfacet
 facet normal  9.350162e-01 -3.546049e-01  0.000000e+00
   outer loop
     vertex  3.536340e-01 -1.834434e-01  2.500000e-01
     vertex  3.873783e-01 -9.446671e-02  7.500000e-01
     vertex  3.536340e-01 -1.834434e-01  7.500000e-01
   endloop
 endfacet
 facet normal  9.350162e-01 -3.546049e-01  0.000000e+00
   outer loop
     vertex  3.536340e-01 -1.834434e-01  2.500000e-01
     vertex  3.873783e-01 -9.446671e-02  2.500000e-01
     vertex  3.873783e-01 -9.446671e-02  7.500000e-01
   endloop
 endfacet
 facet normal  8.229839e-01 -5.680647e-01  0.000000e+00
   outer loop
     vertex  2.995766e-01 -2.617589e-01  2.500000e-01
     vertex  3.536340e-01 -1.834434e-01  7.500000e-01
     vertex  2.995766e-01 -2.617589e-01  7.500000e-01
   endloop
 endfacet
 facet normal  8.229839e-01 -5.680647e-01  0.000000e+00
   outer loop
     vertex  2.995766e-01 -2.617589e-01  2.500000e-01
     vertex  3.536340e-01 -1.834434e-01  2.500000e-01
     vertex  3.536340e-01 -1.834434e-01  7.500000e-01
   endloop
 endfacet
 facet normal  6.631227e-01 -7.485107e-01  0.000000e+00
   outer loop
     vertex  2.283479e-01 -3.248621e-01  2.500000e-01
     vertex  2.995766e-01 -2.617589e-01  7.500000e-01
     vertex  2.283479e-01 -3.248621e-01  7.500000e-01
   endloop
 endfacet
 facet normal  6.631227e-01 -7.485107e-01  0.000000e+00
   outer loop
     vertex  2.283479e-01 -3.248621e-01  2.500000e-01
     vertex  2.995766e-01 -2.617589e-01  2.500000e-01
     vertex  2.995766e-01 -2.617589e-01  7.500000e-01
   endloop
 endfacet
 facet normal  4.647232e-01 -8.854560e-01  0.000000e+00
   outer loop
     vertex  1.440875e-01 -3.690854e-01  2.500000e-01
     vertex  2.283479e-01 -3.248621e-01  7.500000e-01
     vertex  1.440875e-01 -3.690854e-01  7.500000e-01
   endloop
 endfacet
 facet normal  4.647232e-01 -8.854560e-01  0.000000e+00
   outer loop
     vertex  1.440875e-01 -3.690854e-01  2.500000e-01
     vertex  2.283479e-01 -3.248621e-01  2.500000e-01
     vertex  2.283479e-01 -3.248621e-01  7.500000e-01
   endloop
 endfacet
 facet normal  2.393157e-01 -9.709418e-01  0.000000e+00
   outer loop
     vertex  5.169211e-02 -3.918588e-01  2.500000e-01
     vertex  1.440875e-01 -3.690854e-01  7.500000e-01
     vertex  5.169211e-02 -3.918588e-01  7.500000e-01
   endloop
 endfacet
 facet normal  2.393157e-01 -9.709418e-01  0.000000e+00
   outer loop
     vertex  5.169211e-02 -3.918588e-01  2.500000e-01
     vertex  1.440875e-01 -3.690854e-01  2.500000e-01
     vertex  1.440875e-01 -3.690854e-01  7.500000e-01
   endloop
 endfacet
 facet normal -2.333369e-15 -1.000000e+00  0.000000e+00
   outer loop
     vertex -4.346843e-02 -3.918588e-01  2.500000e-01
     vertex  5.169211e-02 -3.918588e-01  7.500000e-01
     vertex -4.346843e-02 -3.918588e-01  7.500000e-01
   endloop
 endfacet
 facet normal -2.333369e-15 -1.000000e+00  0.000000e+00
   outer loop
     vertex -4.346843e-02 -3.918588e-01  2.500000e-01
     vertex  5.169211e-02 -3.918588e-01  2.500000e-01
     vertex  5.169211e-02 -3.918588e-01  7.500000e-01
   endloop
 endfacet
 facet normal -2.393157e-01 -9.709418e-01  0.000000e+00
   outer loop
     vertex -1.358638e-01 -3.690854e-01  2.500000e-01
     vertex -4.346843e-02 -3.918588e-01  7.500000e-01
     vertex -1.358638e-01 -3.690854e-01  7.500000e-01
   endloop
 endfacet
 facet normal -2.393157e-01 -9.709418e-01  0.000000e+00
   outer loop
     vertex -1.358638e-01 -3.690854e-01  2.500000e-01
     vertex -4.346843e-02 -3.918588e-01  2.500000e-01
     vertex -4.346843e-02 -3.918588e-01  7.500000e-01
   endloop
 endfacet
 facet normal -4.647232e-01 -8.854560e-01  0.000000e+00
   outer loop
     vertex -2.201242e-01 -3.248621e-01  2.500000e-01
     vertex -1.358638e-01 -3.690854e-01  7.500000e-01
     vertex -2.201242e-01 -3.248621e-01  7.500000e-01
   endloop
 endfacet
 facet normal -4.647232e-01 -8.854560e-01  0.000000e+00
   outer loop
     vertex -2.201242e-01 -3.248621e-01  2.500000e-01
     vertex -1.358638e-01 -3.690854e-01  2.500000e-01
     vertex -1.358638e-01 -3.690854e-01  7.500000e-01
   endloop
 endfacet
 facet normal -6.631227e-01 -7.485107e-01  0.000000e+00
   outer loop
     vertex -2.913529e-01 -2.617589e-01  2.500000e-01
     vertex -2.201242e-01 -3.248621e-01  7.500000e-01
     vertex -2.913529e-01 -2.617589e-01  7.500000e-01
   endloop
 endfacet
 facet normal -6.631227e-01 -7.485107e-01  0.000000e+00
   outer loop
     vertex -2.913529e-01 -2.617589e-01  2.500000e-01
     vertex -2.201242e-01 -3.248621e-01  2.500000e-01
     vertex -2.201242e-01 -3.248621e-01  7.500000e-01
   endloop
 endfacet
 facet normal -8.229839e-01 -5.680647e-01  0.000000e+00
   outer loop
     vertex -3.454103e-01 -1.834434e-01  2.500000e-01
     vertex -2.913529e-01 -2.617589e-01  2.500000e-01
     vertex -2.913529e-01 -2.617589e-01  7.500000e-01
   endloop
 endfacet
 facet normal -8.229839e-01 -5.680647e-01  0.000000e+00
   outer loop
     vertex -3.454103e-01 -1.834434e-01  2.500000e-01
     vertex -2.913529e-01 -2.617589e-01  7.500000e-01
     vertex -3.454103e-01 -1.834434e-01  7.500000e-01
   endloop
 endfacet
 facet normal -9.350162e-01 -3.546049e-01  0.000000e+00
   outer loop
     vertex -3.791547e-01 -9.446671e-02  2.500000e-01
     vertex -3.454103e-01 -1.834434e-01  2.500000e-01
     vertex -3.454103e-01 -1.834434e-01  7.500000e-01
   endloop
 endfacet
 facet normal -9.350162e-01 -3.546049e-01  0.000000e+00
   outer loop
     vertex -3.791547e-01 -9.446671e-02  2.500000e-01
     vertex -3.454103e-01 -1.834434e-01  7.500000e-01
     vertex -3.791547e-01 -9.446671e-02  7.500000e-01
   endloop
 endfacet
 facet normal -9.927089e-01 -1.205367e-01  0.000000e+00
   outer loop
     vertex -3.906250e-01  3.989381e-16  2.500000e-01
     vertex -3.791547e-01 -9.446671e-02  2.500000e-01
     vertex -3.791547e-01 -9.446671e-02  7.500000e-01
   endloop
 endfacet
 facet normal -9.927089e-01 -1.205367e-01  0.000000e+00
   outer loop
     vertex -3.906250e-01  3.989381e-16  2.500000e-01
     vertex -3.791547e-01 -9.446671e-02  7.500000e-01
     vertex -3.906250e-01  3.989381e-16  7.500000e-01
   endloop
 endfacet
 facet normal -9.927089e-01  1.205367e-01  0.000000e+00
   outer loop
     vertex -3.791547e-01  9.446671e-02  2.500000e-01
     vertex -3.906250e-01  3.989381e-16  2.500000e-01
     vertex -3.906250e-01  3.989381e-16  7.500000e-01
   endloop
 endfacet
 facet normal -9.350162e-01  3.546049e-01  0.000000e+00
   outer loop
     vertex -3.791547e-01  9.446671e-02  2.500000e-01
     vertex -3.791547e-01  9.446671e-02  7.500000e-01
     vertex -3.454103e-01  1.834434e-01  7.500000e-01
   endloop
 endfacet
 facet normal -9.927089e-01  1.205367e-01  0.000000e+00
   outer loop
     vertex -3.791547e-01  9.446671e-02  2.500000e-01
     vertex -3.906250e-01  3.989381e-16  7.500000e-01
     vertex -3.791547e-01  9.446671e-02  7.500000e-01
   endloop
 endfacet
 facet normal -9.350162e-01  3.546049e-01  0.000000e+00
   outer loop
     vertex -3.454103e-01  1.834434e-01  2.500000e-01
     vertex -3.791547e-01  9.446671e-02  2.500000e-01
     vertex -3.454103e-01  1.834434e-01  7.500000e-01
   endloop
 endfacet
 facet normal -8.229839e-01  5.680647e-01  0.000000e+00
   outer loop
     vertex -2.913529e-01  2.617589e-01  2.500000e-01
     vertex -3.454103e-01  1.834434e-01  2.500000e-01
     vertex -3.454103e-01  1.834434e-01  7.500000e-01
   endloop
 endfacet
 facet normal -8.229839e-01  5.680647e-01  0.000000e+00
   outer loop
     vertex -2.913529e-01  2.617589e-01  2.500000e-01
     vertex -3.454103e-01  1.834434e-01  7.500000e-01
     vertex -2.913529e-01  2.617589e-01  7.500000e-01
   endloop
 endfacet
 facet normal -6.631227e-01  7.485107e-01  0.000000e+00
   outer loop
     vertex -2.201242e-01  3.248621e-01  2.500000e-01
     vertex -2.913529e-01  2.617589e-01  2.500000e-01
     vertex -2.913529e-01  2.617589e-01  7.500000e-01
   endloop
 endfacet
 facet normal -4.647232e-01  8.854560e-01  0.000000e+00
   outer loop
     vertex -2.201242e-01  3.248621e-01  2.500000e-01
     vertex -2.201242e-01  3.248621e-01  7.500000e-01
     vertex -1.358638e-01  3.690854e-01  7.500000e-01
   endloop
 endfacet
 facet normal -6.631227e-01  7.485107e-01  0.000000e+00
   outer loop
     vertex -2.201242e-01  3.248621e-01  2.500000e-01
     vertex -2.913529e-01  2.617589e-01  7.500000e-01
     vertex -2.201242e-01  3.248621e-01  7.500000e-01
   endloop
 endfacet
 facet normal -4.647232e-01  8.854560e-01  0.000000e+00
   outer loop
     vertex -1.358638e-01  3.690854e-01  2.500000e-01
     vertex -2.201242e-01  3.248621e-01  2.500000e-01
     vertex -1.358638e-01  3.690854e-01  7.500000e-01
   endloop
 endfacet
 facet normal -2.393157e-01  9.709418e-01  0.000000e+00
   outer loop
     vertex -1.358638e-01  3.690854e-01  2.500000e-01
     vertex -1.358638e-01  3.690854e-01  7.500000e-01
     vertex -4.346843e-02  3.918588e-01  7.500000e-01
   endloop
 endfacet
 facet normal -2.393157e-01  9.709418e-01  0.000000e+00
   outer loop
     vertex -4.346843e-02  3.918588e-01  2.500000e-01
     vertex -1.358638e-01  3.690854e-01  2.500000e-01
     vertex -4.346843e-02  3.918588e-01  7.500000e-01
   endloop
 endfacet
 facet normal  0.000000e+00  1.000000e+00 -0.000000e+00
   outer loop
     vertex  5.169211e-02  3.918588e-01  2.500000e-01
     vertex -4.346843e-02  3.918588e-01  7.500000e-01
     vertex  5.169211e-02  3.918588e-01  7.500000e-01
   endloop
 endfacet
 facet normal  0.000000e+00  1.000000e+00  0.000000e+00
   outer loop
     vertex  5.169211e-02  3.918588e-01  2.500000e-01
     vertex -4.346843e-02  3.918588e-01  2.500000e-01
     vertex -4.346843e-02  3.918588e-01  7.500000e-01
   endloop
 endfacet
 facet normal  4.647232e-01  8.854560e-01 -0.000000e+00
   outer loop
     vertex  1.440875e-01  3.690854e-01  2.500000e-01
     vertex  1.440875e-01  3.690854e-01  7.500000e-01
     vertex  2.283479e-01  3.248621e-01  7.500000e-01
   endloop
 endfacet
 facet normal  2.393157e-01  9.709418e-01 -0.000000e+00
   outer loop
     vertex  1.440875e-01  3.690854e-01  2.500000e-01
     vertex  5.169211e-02  3.918588e-01  7.500000e-01
     vertex  1.440875e-01  3.690854e-01  7.500000e-01
   endloop
 endfacet
 facet normal  2.393157e-01  9.709418e-01  0.000000e+00
   outer loop
     vertex  1.440875e-01  3.690854e-01  2.500000e-01
     vertex  5.169211e-02  3.918588e-01  2.500000e-01
     vertex  5.169211e-02  3.918588e-01  7.500000e-01
   endloop
 endfacet
 facet normal  4.647232e-01  8.854560e-01 -0.000000e+00
   outer loop
     vertex  2.283479e-01  3.248621e-01  2.500000e-01
     vertex  1.440875e-01  3.690854e-01  2.500000e-01
     vertex  2.283479e-01  3.248621e-01  7.500000e-01
   endloop
 endfacet
 facet normal  6.631227e-01  7.485107e-01 -0.000000e+00
   outer loop
     vertex  2.995766e-01  2.617589e-01  2.500000e-01
     vertex  2.283479e-01  3.248621e-01  7.500000e-01
     vertex  2.995766e-01  2.617589e-01  7.500000e-01
   endloop
 endfacet
 facet normal  6.631227e-01  7.485107e-01  0.000000e+00
   outer loop
     vertex  2.995766e-01  2.617589e-01  2.500000e-01
     vertex  2.283479e-01  3.248621e-01  2.500000e-01
     vertex  2.283479e-01  3.248621e-01  7.500000e-01
   endloop
 endfacet
 facet normal  8.229839e-01  5.680647e-01 -0.000000e+00
   outer loop
     vertex  3.536340e-01  1.834434e-01  2.500000e-01
     vertex  2.995766e-01  2.617589e-01  7.500000e-01
     vertex  3.536340e-01  1.834434e-01  7.500000e-01
   endloop
 endfacet
 facet normal  8.229839e-01  5.680647e-01  0.000000e+00
   outer loop
     vertex  3.536340e-01  1.834434e-01  2.500000e-01
     vertex  2.995766e-01  2.617589e-01  2.500000e-01
     vertex  2.995766e-01  2.617589e-01  7.500000e-01
   endloop
 endfacet
 facet normal  9.927089e-01  1.205367e-01 -0.000000e+00
   outer loop
     vertex  3.873783e-01  9.446671e-02  2.500000e-01
     vertex  3.873783e-01  9.446671e-02  7.500000e-01
     vertex  3.988487e-01  0.000000e+00  7.500000e-01
   endloop
 endfacet
 facet normal  9.350162e-01  3.546049e-01 -0.000000e+00
   outer loop
     vertex  3.873783e-01  9.446671e-02  2.500000e-01
     vertex  3.536340e-01  1.834434e-01  7.500000e-01
     vertex  3.873783e-01  9.446671e-02  7.500000e-01
   endloop
 endfacet
 facet normal  9.350162e-01  3.546049e-01  0.000000e+00
   outer loop
     vertex  3.873783e-01  9.446671e-02  2.500000e-01
     vertex  3.536340e-01  1.834434e-01  2.500000e-01
     vertex  3.536340e-01  1.834434e-01  7.500000e-01
   endloop
 endfacet
 facet normal  9.927089e-01  1.205367e-01 -0.000000e+00
   outer loop
     vertex  3.988487e-01  0.000000e+00  2.500000e-01
     vertex  3.873783e-01  9.446671e-02  2.500000e-01
     vertex  3.988487e-01  0.000000e+00  7.500000e-01
   endloop
 endfacet
 facet normal -9.659258e-01  2.588190e-01  0.000000e+00
   outer loop
     vertex  1.465502e-01 -8.223684e-02  0.000000e+00
     vertex  1.685855e-01  0.000000e+00  2.500000e-01
     vertex  1.685855e-01  0.000000e+00  0.000000e+00
   endloop
 endfacet
 facet normal -9.659258e-01  2.588190e-01  0.000000e+00
   outer loop
     vertex  1.465502e-01 -8.223684e-02  0.000000e+00
     vertex  1.465502e-01 -8.223684e-02  2.500000e-01
     vertex  1.685855e-01  0.000000e+00  2.500000e-01
   endloop
 endfacet
 facet normal -7.071068e-01  7.071068e-01  0.000000e+00
   outer loop
     vertex  8.634868e-02 -1.424384e-01  0.000000e+00
     vertex  8.634868e-02 -1.424384e-01  2.500000e-01
     vertex  1.465502e-01 -8.223684e-02  2.500000e-01
   endloop
 endfacet
 facet normal -7.071068e-01  7.071068e-01  0.000000e+00
   outer loop
     vertex  8.634868e-02 -1.424384e-01  0.000000e+00
     vertex  1.465502e-01 -8.223684e-02  2.500000e-01
     vertex  1.465502e-01 -8.223684e-02  0.000000e+00
   endloop
 endfacet
 facet normal -2.588190e-01  9.659258e-01  0.000000e+00
   outer loop
     vertex  4.111842e-03 -1.644737e-01  0.000000e+00
     vertex  4.111842e-03 -1.644737e-01  2.500000e-01
     vertex  8.634868e-02 -1.424384e-01  2.500000e-01
   endloop
 endfacet
 facet normal -2.588190e-01  9.659258e-01  0.000000e+00
   outer loop
     vertex  4.111842e-03 -1.644737e-01  0.000000e+00
     vertex  8.634868e-02 -1.424384e-01  2.500000e-01
     vertex  8.634868e-02 -1.424384e-01  0.000000e+00
   endloop
 endfacet
 facet normal  2.588190e-01  9.659258e-01 -0.000000e+00
   outer loop
     vertex -7.812500e-02 -1.424384e-01  0.000000e+00
     vertex -7.812500e-02 -1.424384e-01  2.500000e-01
     vertex  4.111842e-03 -1.644737e-01  2.500000e-01
   endloop
 endfacet
 facet normal  2.588190e-01  9.659258e-01  0.000000e+00
   outer loop
     vertex -7.812500e-02 -1.424384e-01  0.000000e+00
     vertex  4.111842e-03 -1.644737e-01  2.500000e-01
     vertex  4.111842e-03 -1.644737e-01  0.000000e+00
   endloop
 endfacet
 facet normal  7.071068e-01  7.071068e-01 -0.000000e+00
   outer loop
     vertex -1.383265e-01 -8.223684e-02  0.000000e+00
     vertex -1.383265e-01 -8.223684e-02  2.500000e-01
     vertex -7.812500e-02 -1.424384e-01  2.500000e-01
   endloop
 endfacet
 facet normal  7.071068e-01  7.071068e-01  0.000000e+00
   outer loop
     vertex -1.383265e-01 -8.223684e-02  0.000000e+00
     vertex -7.812500e-02 -1.424384e-01  2.500000e-01
     vertex -7.812500e-02 -1.424384e-01  0.000000e+00
   endloop
 endfacet
 facet normal  9.659258e-01  2.588190e-01 -0.000000e+00
   outer loop
     vertex -1.603618e-01  9.318321e-17  0.000000e+00
     vertex -1.603618e-01  9.318321e-17  2.500000e-01
     vertex -1.383265e-01 -8.223684e-02  2.500000e-01
   endloop
 endfacet
 facet normal  9.659258e-01  2.588190e-01  0.000000e+00
   outer loop
     vertex -1.603618e-01  9.318321e-17  0.000000e+00
     vertex -1.383265e-01 -8.223684e-02  2.500000e-01
     vertex -1.383265e-01 -8.223684e-02  0.000000e+00
   endloop
 endfacet
 facet normal  9.659258e-01 -2.588190e-01  0.000000e+00
   outer loop
     vertex -1.383265e-01  8.223684e-02  0.000000e+00
     vertex -1.383265e-01  8.223684e-02  2.500000e-01
     vertex -1.603618e-01  9.318321e-17  2.500000e-01
   endloop
 endfacet
 facet normal  9.659258e-01 -2.588190e-01  0.000000e+00
   outer loop
     vertex -1.383265e-01  8.223684e-02  0.000000e+00
     vertex -1.603618e-01  9.318321e-17  2.500000e-01
     vertex -1.603618e-01  9.318321e-17  0.000000e+00
   endloop
 endfacet
 facet normal  7.071068e-01 -7.071068e-01  0.000000e+00
   outer loop
     vertex -7.812500e-02  1.424384e-01  0.000000e+00
     vertex -7.812500e-02  1.424384e-01  2.500000e-01
     vertex -1.383265e-01  8.223684e-02  2.500000e-01
   endloop
 endfacet
 facet normal  7.071068e-01 -7.071068e-01  0.000000e+00
   outer loop
     vertex -7.812500e-02  1.424384e-01  0.000000e+00
     vertex -1.383265e-01  8.223684e-02  2.500000e-01
     vertex -1.383265e-01  8.223684e-02  0.000000e+00
   endloop
 endfacet
 facet normal  2.588190e-01 -9.659258e-01  0.000000e+00
   outer loop
     vertex  4.111842e-03  1.644737e-01  0.000000e+00
     vertex  4.111842e-03  1.644737e-01  2.500000e-01
     vertex -7.812500e-02  1.424384e-01  2.500000e-01
   endloop
 endfacet
 facet normal  2.588190e-01 -9.659258e-01  0.000000e+00
   outer loop
     vertex  4.111842e-03  1.644737e-01  0.000000e+00
     vertex -7.812500e-02  1.424384e-01  2.500000e-01
     vertex -7.812500e-02  1.424384e-01  0.000000e+00
   endloop
 endfacet
 facet normal -2.588190e-01 -9.659258e-01  0.000000e+00
   outer loop
     vertex  8.634868e-02  1.424384e-01  0.000000e+00
     vertex  8.634868e-02  1.424384e-01  2.500000e-01
     vertex  4.111842e-03  1.644737e-01  2.500000e-01
   endloop
 endfacet
 facet normal -2.588190e-01 -9.659258e-01  0.000000e+00
   outer loop
     vertex  8.634868e-02  1.424384e-01  0.000000e+00
     vertex  4.111842e-03  1.644737e-01  2.500000e-01
     vertex  4.111842e-03  1.644737e-01  0.000000e+00
   endloop
 endfacet
 facet normal -7.071068e-01 -7.071068e-01  0.000000e+00
   outer loop
     vertex  1.465502e-01  8.223684e-02  0.000000e+00
     vertex  1.465502e-01  8.223684e-02  2.500000e-01
     vertex  8.634868e-02  1.424384e-01  2.500000e-01
   endloop
 endfacet
 facet normal -7.071068e-01 -7.071068e-01  0.000000e+00
   outer loop
     vertex  1.465502e-01  8.223684e-02  0.000000e+00
     vertex  8.634868e-02  1.424384e-01  2.500000e-01
     vertex  8.634868e-02  1.424384e-01  0.000000e+00
   endloop
 endfacet
 facet normal -9.659258e-01 -2.588190e-01  0.000000e+00
   outer loop
     vertex  1.685855e-01  0.000000e+00  0.000000e+00
     vertex  1.685855e-01  0.000000e+00  2.500000e-01
     vertex  1.465502e-01  8.223684e-02  2.500000e-01
   endloop
 endfacet
 facet normal -9.659258e-01 -2.588190e-01  0.000000e+00
   outer loop
     vertex  1.685855e-01  0.000000e+00  0.000000e+00
     vertex  1.465502e-01  8.223684e-02  2.500000e-01
     vertex  1.465502e-01  8.223684e-02  0.000000e+00
   endloop
 endfacet
 facet normal  0.000000e+00  0.000000e+00  1.000000e+00
   outer loop
     vertex -2.510563e-01 -2.075947e-01  7.500000e-01
     vertex -3.454103e-01 -1.834434e-01  7.500000e-01
     vertex -2.913529e-01 -2.617589e-01  7.500000e-01
   endloop
 endfacet
 facet normal  0.000000e+00  0.000000e+00  1.000000e+00
   outer loop
     vertex -1.855856e-01 -2.687401e-01  7.500000e-01
     vertex -2.913529e-01 -2.617589e-01  7.500000e-01
     vertex -2.201242e-01 -3.248621e-01  7.500000e-01
   endloop
 endfacet
 facet normal  0.000000e+00  0.000000e+00  1.000000e+00
   outer loop
     vertex -1.855856e-01 -2.687401e-01  7.500000e-01
     vertex -2.201242e-01 -3.248621e-01  7.500000e-01
     vertex -1.358638e-01 -3.690854e-01  7.500000e-01
   endloop
 endfacet
 facet normal  0.000000e+00  0.000000e+00  1.000000e+00
   outer loop
     vertex -1.855856e-01 -2.687401e-01  7.500000e-01
     vertex -2.510563e-01 -2.075947e-01  7.500000e-01
     vertex -2.913529e-01 -2.617589e-01  7.500000e-01
   endloop
 endfacet
 facet normal  0.000000e+00  0.000000e+00  1.000000e+00
   outer loop
     vertex -2.976024e-01 -1.310530e-01  7.500000e-01
     vertex -3.791547e-01 -9.446671e-02  7.500000e-01
     vertex -3.454103e-01 -1.834434e-01  7.500000e-01
   endloop
 endfacet
 facet normal  0.000000e+00  0.000000e+00  1.000000e+00
   outer loop
     vertex -2.976024e-01 -1.310530e-01  7.500000e-01
     vertex -3.454103e-01 -1.834434e-01  7.500000e-01
     vertex -2.510563e-01 -2.075947e-01  7.500000e-01
   endloop
 endfacet
 facet normal  0.000000e+00  0.000000e+00  1.000000e+00
   outer loop
     vertex -1.060459e-01 -3.099543e-01  7.500000e-01
     vertex -1.358638e-01 -3.690854e-01  7.500000e-01
     vertex -4.346843e-02 -3.918588e-01  7.500000e-01
   endloop
 endfacet
 facet normal  0.000000e+00  0.000000e+00  1.000000e+00
   outer loop
     vertex -1.060459e-01 -3.099543e-01  7.500000e-01
     vertex -1.855856e-01 -2.687401e-01  7.500000e-01
     vertex -1.358638e-01 -3.690854e-01  7.500000e-01
   endloop
 endfacet
 facet normal  0.000000e+00  0.000000e+00  1.000000e+00
   outer loop
     vertex -3.217717e-01 -4.479166e-02  7.500000e-01
     vertex -3.906250e-01  3.989381e-16  7.500000e-01
     vertex -3.791547e-01 -9.446671e-02  7.500000e-01
   endloop
 endfacet
 facet normal  0.000000e+00  0.000000e+00  1.000000e+00
   outer loop
     vertex -3.217717e-01 -4.479166e-02  7.500000e-01
     vertex -3.791547e-01 -9.446671e-02  7.500000e-01
     vertex -2.976024e-01 -1.310530e-01  7.500000e-01
   endloop
 endfacet
 facet normal  0.000000e+00  0.000000e+00  1.000000e+00
   outer loop
     vertex -1.833632e-02 -3.281805e-01  7.500000e-01
     vertex -1.060459e-01 -3.099543e-01  7.500000e-01
     vertex -4.346843e-02 -3.918588e-01  7.500000e-01
   endloop
 endfacet
 facet normal  0.000000e+00  0.000000e+00  1.000000e+00
   outer loop
     vertex  5.169211e-02 -3.918588e-01  7.500000e-01
     vertex -1.833632e-02 -3.281805e-01  7.500000e-01
     vertex -4.346843e-02 -3.918588e-01  7.500000e-01
   endloop
 endfacet
 facet normal  0.000000e+00  0.000000e+00  1.000000e+00
   outer loop
     vertex -3.217717e-01  4.479166e-02  7.500000e-01
     vertex -3.791547e-01  9.446671e-02  7.500000e-01
     vertex -3.906250e-01  3.989381e-16  7.500000e-01
   endloop
 endfacet
 facet normal  0.000000e+00  0.000000e+00  1.000000e+00
   outer loop
     vertex -3.217717e-01  4.479166e-02  7.500000e-01
     vertex -3.906250e-01  3.989381e-16  7.500000e-01
     vertex -3.217717e-01 -4.479166e-02  7.500000e-01
   endloop
 endfacet
 facet normal  0.000000e+00  0.000000e+00  1.000000e+00
   outer loop
     vertex  7.103816e-02 -3.220671e-01  7.500000e-01
     vertex -1.833632e-02 -3.281805e-01  7.500000e-01
     vertex  5.169211e-02 -3.918588e-01  7.500000e-01
   endloop
 endfacet
 facet normal  0.000000e+00  0.000000e+00  1.000000e+00
   outer loop
     vertex  1.440875e-01 -3.690854e-01  7.500000e-01
     vertex  7.103816e-02 -3.220671e-01  7.500000e-01
     vertex  5.169211e-02 -3.918588e-01  7.500000e-01
   endloop
 endfacet
 facet normal  0.000000e+00  0.000000e+00  1.000000e+00
   outer loop
     vertex -2.976024e-01  1.310530e-01  7.500000e-01
     vertex -3.791547e-01  9.446671e-02  7.500000e-01
     vertex -3.217717e-01  4.479166e-02  7.500000e-01
   endloop
 endfacet
 facet normal  0.000000e+00  0.000000e+00  1.000000e+00
   outer loop
     vertex -3.454103e-01  1.834434e-01  7.500000e-01
     vertex -3.791547e-01  9.446671e-02  7.500000e-01
     vertex -2.976024e-01  1.310530e-01  7.500000e-01
   endloop
 endfacet
 facet normal  0.000000e+00  0.000000e+00  1.000000e+00
   outer loop
     vertex  1.554490e-01 -2.920675e-01  7.500000e-01
     vertex  7.103816e-02 -3.220671e-01  7.500000e-01
     vertex  1.440875e-01 -3.690854e-01  7.500000e-01
   endloop
 endfacet
 facet normal  0.000000e+00  0.000000e+00  1.000000e+00
   outer loop
     vertex  2.283479e-01 -3.248621e-01  7.500000e-01
     vertex  1.554490e-01 -2.920675e-01  7.500000e-01
     vertex  1.440875e-01 -3.690854e-01  7.500000e-01
   endloop
 endfacet
 facet normal  0.000000e+00  0.000000e+00  1.000000e+00
   outer loop
     vertex -2.510563e-01  2.075947e-01  7.500000e-01
     vertex -3.454103e-01  1.834434e-01  7.500000e-01
     vertex -2.976024e-01  1.310530e-01  7.500000e-01
   endloop
 endfacet
 facet normal  0.000000e+00  0.000000e+00  1.000000e+00
   outer loop
     vertex -2.913529e-01  2.617589e-01  7.500000e-01
     vertex -3.454103e-01  1.834434e-01  7.500000e-01
     vertex -2.510563e-01  2.075947e-01  7.500000e-01
   endloop
 endfacet
 facet normal  0.000000e+00  0.000000e+00  1.000000e+00
   outer loop
     vertex  2.286359e-01 -2.404066e-01  7.500000e-01
     vertex  1.554490e-01 -2.920675e-01  7.500000e-01
     vertex  2.283479e-01 -3.248621e-01  7.500000e-01
   endloop
 endfacet
 facet normal  0.000000e+00  0.000000e+00  1.000000e+00
   outer loop
     vertex  2.995766e-01 -2.617589e-01  7.500000e-01
     vertex  2.286359e-01 -2.404066e-01  7.500000e-01
     vertex  2.283479e-01 -3.248621e-01  7.500000e-01
   endloop
 endfacet
 facet normal  0.000000e+00  0.000000e+00  1.000000e+00
   outer loop
     vertex -1.855856e-01  2.687401e-01  7.500000e-01
     vertex -2.913529e-01  2.617589e-01  7.500000e-01
     vertex -2.510563e-01  2.075947e-01  7.500000e-01
   endloop
 endfacet
 facet normal  0.000000e+00  0.000000e+00  1.000000e+00
   outer loop
     vertex -2.201242e-01  3.248621e-01  7.500000e-01
     vertex -2.913529e-01  2.617589e-01  7.500000e-01
     vertex -1.855856e-01  2.687401e-01  7.500000e-01
   endloop
 endfacet
 facet normal  0.000000e+00  0.000000e+00  1.000000e+00
   outer loop
     vertex  2.851709e-01 -1.709158e-01  7.500000e-01
     vertex  2.286359e-01 -2.404066e-01  7.500000e-01
     vertex  2.995766e-01 -2.617589e-01  7.500000e-01
   endloop
 endfacet
 facet normal  0.000000e+00  0.000000e+00  1.000000e+00
   outer loop
     vertex  3.536340e-01 -1.834434e-01  7.500000e-01
     vertex  2.851709e-01 -1.709158e-01  7.500000e-01
     vertex  2.995766e-01 -2.617589e-01  7.500000e-01
   endloop
 endfacet
 facet normal  0.000000e+00  0.000000e+00  1.000000e+00
   outer loop
     vertex  3.208609e-01 -8.874894e-02  7.500000e-01
     vertex  2.851709e-01 -1.709158e-01  7.500000e-01
     vertex  3.536340e-01 -1.834434e-01  7.500000e-01
   endloop
 endfacet
 facet normal  0.000000e+00  0.000000e+00  1.000000e+00
   outer loop
     vertex -1.358638e-01  3.690854e-01  7.500000e-01
     vertex -2.201242e-01  3.248621e-01  7.500000e-01
     vertex -1.855856e-01  2.687401e-01  7.500000e-01
   endloop
 endfacet
 facet normal  0.000000e+00  0.000000e+00  1.000000e+00
   outer loop
     vertex -1.358638e-01  3.690854e-01  7.500000e-01
     vertex -1.855856e-01  2.687401e-01  7.500000e-01
     vertex -1.060459e-01  3.099543e-01  7.500000e-01
   endloop
 endfacet
 facet normal  0.000000e+00  0.000000e+00  1.000000e+00
   outer loop
     vertex  3.873783e-01 -9.446671e-02  7.500000e-01
     vertex  3.208609e-01 -8.874894e-02  7.500000e-01
     vertex  3.536340e-01 -1.834434e-01  7.500000e-01
   endloop
 endfacet
 facet normal  0.000000e+00  0.000000e+00  1.000000e+00
   outer loop
     vertex  3.330592e-01  0.000000e+00  7.500000e-01
     vertex  3.208609e-01 -8.874894e-02  7.500000e-01
     vertex  3.873783e-01 -9.446671e-02  7.500000e-01
   endloop
 endfacet
 facet normal  0.000000e+00  0.000000e+00  1.000000e+00
   outer loop
     vertex -4.346843e-02  3.918588e-01  7.500000e-01
     vertex -1.358638e-01  3.690854e-01  7.500000e-01
     vertex -1.060459e-01  3.099543e-01  7.500000e-01
   endloop
 endfacet
 facet normal  0.000000e+00  0.000000e+00  1.000000e+00
   outer loop
     vertex -4.346843e-02  3.918588e-01  7.500000e-01
     vertex -1.060459e-01  3.099543e-01  7.500000e-01
     vertex -1.833632e-02  3.281805e-01  7.500000e-01
   endloop
 endfacet
 facet normal  0.000000e+00  0.000000e+00  1.000000e+00
   outer loop
     vertex  3.988487e-01  0.000000e+00  7.500000e-01
     vertex  3.330592e-01  0.000000e+00  7.500000e-01
     vertex  3.873783e-01 -9.446671e-02  7.500000e-01
   endloop
 endfacet
 facet normal  0.000000e+00  0.000000e+00  1.000000e+00
   outer loop
     vertex  5.169211e-02  3.918588e-01  7.500000e-01
     vertex -4.346843e-02  3.918588e-01  7.500000e-01
     vertex -1.833632e-02  3.281805e-01  7.500000e-01
   endloop
 endfacet
 facet normal  0.000000e+00  0.000000e+00  1.000000e+00
   outer loop
     vertex  5.169211e-02  3.918588e-01  7.500000e-01
     vertex -1.833632e-02  3.281805e-01  7.500000e-01
     vertex  7.103816e-02  3.220671e-01  7.500000e-01
   endloop
 endfacet
 facet normal  0.000000e+00  0.000000e+00  1.000000e+00
   outer loop
     vertex  3.873783e-01  9.446671e-02  7.500000e-01
     vertex  3.208609e-01  8.874894e-02  7.500000e-01
     vertex  3.330592e-01  0.000000e+00  7.500000e-01
   endloop
 endfacet
 facet normal  0.000000e+00  0.000000e+00  1.000000e+00
   outer loop
     vertex  3.873783e-01  9.446671e-02  7.500000e-01
     vertex  3.330592e-01  0.000000e+00  7.500000e-01
     vertex  3.988487e-01  0.000000e+00  7.500000e-01
   endloop
 endfacet
 facet normal  0.000000e+00  0.000000e+00  1.000000e+00
   outer loop
     vertex  1.440875e-01  3.690854e-01  7.500000e-01
     vertex  7.103816e-02  3.220671e-01  7.500000e-01
     vertex  1.554490e-01  2.920675e-01  7.500000e-01
   endloop
 endfacet
 facet normal  0.000000e+00  0.000000e+00  1.000000e+00
   outer loop
     vertex  1.440875e-01  3.690854e-01  7.500000e-01
     vertex  5.169211e-02  3.918588e-01  7.500000e-01
     vertex  7.103816e-02  3.220671e-01  7.500000e-01
   endloop
 endfacet
 facet normal  0.000000e+00  0.000000e+00  1.000000e+00
   outer loop
     vertex  3.536340e-01  1.834434e-01  7.500000e-01
     vertex  2.851709e-01  1.709158e-01  7.500000e-01
     vertex  3.208609e-01  8.874894e-02  7.500000e-01
   endloop
 endfacet
 facet normal  0.000000e+00  0.000000e+00  1.000000e+00
   outer loop
     vertex  3.536340e-01  1.834434e-01  7.500000e-01
     vertex  3.208609e-01  8.874894e-02  7.500000e-01
     vertex  3.873783e-01  9.446671e-02  7.500000e-01
   endloop
 endfacet
 facet normal  0.000000e+00  0.000000e+00  1.000000e+00
   outer loop
     vertex  2.283479e-01  3.248621e-01  7.500000e-01
     vertex  1.554490e-01  2.920675e-01  7.500000e-01
     vertex  2.286359e-01  2.404066e-01  7.500000e-01
   endloop
 endfacet
 facet normal  0.000000e+00  0.000000e+00  1.000000e+00
   outer loop
     vertex  2.283479e-01  3.248621e-01  7.500000e-01
     vertex  1.440875e-01  3.690854e-01  7.500000e-01
     vertex  1.554490e-01  2.920675e-01  7.500000e-01
   endloop
 endfacet
 facet normal  0.000000e+00  0.000000e+00  1.000000e+00
   outer loop
     vertex  2.995766e-01  2.617589e-01  7.500000e-01
     vertex  2.286359e-01  2.404066e-01  7.500000e-01
     vertex  2.851709e-01  1.709158e-01  7.500000e-01
   endloop
 endfacet
 facet normal  0.000000e+00  0.000000e+00  1.000000e+00
   outer loop
     vertex  2.995766e-01  2.617589e-01  7.500000e-01
     vertex  2.851709e-01  1.709158e-01  7.500000e-01
     vertex  3.536340e-01  1.834434e-01  7.500000e-01
   endloop
 endfacet
 facet normal  0.000000e+00  0.000000e+00  1.000000e+00
   outer loop
     vertex  2.995766e-01  2.617589e-01  7.500000e-01
     vertex  2.283479e-01  3.248621e-01  7.500000e-01
     vertex  2.286359e-01  2.404066e-01  7.500000e-01
   endloop
 endfacet
 facet normal  0.000000e+00  0.000000e+00  1.000000e+00
   outer loop
     vertex -1.383265e-01 -8.223684e-02  2.500000e-01
     vertex -3.217717e-01 -4.479166e-02  2.500000e-01
     vertex -2.976024e-01 -1.310530e-01  2.500000e-01
   endloop
 endfacet
 facet normal  0.000000e+00  0.000000e+00  1.000000e+00
   outer loop
     vertex -1.383265e-01 -8.223684e-02  2.500000e-01
     vertex -2.976024e-01 -1.310530e-01  2.500000e-01
     vertex -2.510563e-01 -2.075947e-01  2.500000e-01
   endloop
 endfacet
 facet normal  0.000000e+00  0.000000e+00  1.000000e+00
   outer loop
     vertex -7.812500e-02 -1.424384e-01  2.500000e-01
     vertex -2.510563e-01 -2.075947e-01  2.500000e-01
     vertex -1.855856e-01 -2.687401e-01  2.500000e-01
   endloop
 endfacet
 facet normal  0.000000e+00  0.000000e+00  1.000000e+00
   outer loop
     vertex -7.812500e-02 -1.424384e-01  2.500000e-01
     vertex -1.855856e-01 -2.687401e-01  2.500000e-01
     vertex -1.060459e-01 -3.099543e-01  2.500000e-01
   endloop
 endfacet
 facet normal  0.000000e+00  0.000000e+00  1.000000e+00
   outer loop
     vertex -7.812500e-02 -1.424384e-01  2.500000e-01
     vertex -1.383265e-01 -8.223684e-02  2.500000e-01
     vertex -2.510563e-01 -2.075947e-01  2.500000e-01
   endloop
 endfacet
 facet normal  0.000000e+00  0.000000e+00  1.000000e+00
   outer loop
     vertex  4.111842e-03 -1.644737e-01  2.500000e-01
     vertex -1.060459e-01 -3.099543e-01  2.500000e-01
     vertex -1.833632e-02 -3.281805e-01  2.500000e-01
   endloop
 endfacet
 facet normal  0.000000e+00  0.000000e+00  1.000000e+00
   outer loop
     vertex  4.111842e-03 -1.644737e-01  2.500000e-01
     vertex -1.833632e-02 -3.281805e-01  2.500000e-01
     vertex  7.103816e-02 -3.220671e-01  2.500000e-01
   endloop
 endfacet
 facet normal  0.000000e+00  0.000000e+00  1.000000e+00
   outer loop
     vertex  4.111842e-03 -1.644737e-01  2.500000e-01
     vertex -7.812500e-02 -1.424384e-01  2.500000e-01
     vertex -1.060459e-01 -3.099543e-01  2.500000e-01
   endloop
 endfacet
 facet normal  0.000000e+00  0.000000e+00  1.000000e+00
   outer loop
     vertex -1.603618e-01  9.318321e-17  2.500000e-01
     vertex -3.217717e-01  4.479166e-02  2.500000e-01
     vertex -3.217717e-01 -4.479166e-02  2.500000e-01
   endloop
 endfacet
 facet normal  0.000000e+00  0.000000e+00  1.000000e+00
   outer loop
     vertex -1.603618e-01  9.318321e-17  2.500000e-01
     vertex -3.217717e-01 -4.479166e-02  2.500000e-01
     vertex -1.383265e-01 -8.223684e-02  2.500000e-01
   endloop
 endfacet
 facet normal  0.000000e+00  0.000000e+00  1.000000e+00
   outer loop
     vertex  8.634868e-02 -1.424384e-01  2.500000e-01
     vertex  7.103816e-02 -3.220671e-01  2.500000e-01
     vertex  1.554490e-01 -2.920675e-01  2.500000e-01
   endloop
 endfacet
 facet normal  0.000000e+00  0.000000e+00  1.000000e+00
   outer loop
     vertex  8.634868e-02 -1.424384e-01  2.500000e-01
     vertex  4.111842e-03 -1.644737e-01  2.500000e-01
     vertex  7.103816e-02 -3.220671e-01  2.500000e-01
   endloop
 endfacet
 facet normal  0.000000e+00  0.000000e+00  1.000000e+00
   outer loop
     vertex -1.383265e-01  8.223684e-02  2.500000e-01
     vertex -2.976024e-01  1.310530e-01  2.500000e-01
     vertex -3.217717e-01  4.479166e-02  2.500000e-01
   endloop
 endfacet
 facet normal  0.000000e+00  0.000000e+00  1.000000e+00
   outer loop
     vertex -1.383265e-01  8.223684e-02  2.500000e-01
     vertex -3.217717e-01  4.479166e-02  2.500000e-01
     vertex -1.603618e-01  9.318321e-17  2.500000e-01
   endloop
 endfacet
 facet normal  0.000000e+00  0.000000e+00  1.000000e+00
   outer loop
     vertex -2.510563e-01  2.075947e-01  2.500000e-01
     vertex -2.976024e-01  1.310530e-01  2.500000e-01
     vertex -1.383265e-01  8.223684e-02  2.500000e-01
   endloop
 endfacet
 facet normal  0.000000e+00  0.000000e+00  1.000000e+00
   outer loop
     vertex  2.286359e-01 -2.404066e-01  2.500000e-01
     vertex  8.634868e-02 -1.424384e-01  2.500000e-01
     vertex  1.554490e-01 -2.920675e-01  2.500000e-01
   endloop
 endfacet
 facet normal  0.000000e+00  0.000000e+00  1.000000e+00
   outer loop
     vertex  1.465502e-01 -8.223684e-02  2.500000e-01
     vertex  8.634868e-02 -1.424384e-01  2.500000e-01
     vertex  2.286359e-01 -2.404066e-01  2.500000e-01
   endloop
 endfacet
 facet normal  0.000000e+00  0.000000e+00  1.000000e+00
   outer loop
     vertex -7.812500e-02  1.424384e-01  2.500000e-01
     vertex -2.510563e-01  2.075947e-01  2.500000e-01
     vertex -1.383265e-01  8.223684e-02  2.500000e-01
   endloop
 endfacet
 facet normal  0.000000e+00  0.000000e+00  1.000000e+00
   outer loop
     vertex -1.855856e-01  2.687401e-01  2.500000e-01
     vertex -2.510563e-01  2.075947e-01  2.500000e-01
     vertex -7.812500e-02  1.424384e-01  2.500000e-01
   endloop
 endfacet
 facet normal  0.000000e+00  0.000000e+00  1.000000e+00
   outer loop
     vertex  2.851709e-01 -1.709158e-01  2.500000e-01
     vertex  1.465502e-01 -8.223684e-02  2.500000e-01
     vertex  2.286359e-01 -2.404066e-01  2.500000e-01
   endloop
 endfacet
 facet normal  0.000000e+00  0.000000e+00  1.000000e+00
   outer loop
     vertex -1.060459e-01  3.099543e-01  2.500000e-01
     vertex -7.812500e-02  1.424384e-01  2.500000e-01
     vertex  4.111842e-03  1.644737e-01  2.500000e-01
   endloop
 endfacet
 facet normal  0.000000e+00  0.000000e+00  1.000000e+00
   outer loop
     vertex -1.060459e-01  3.099543e-01  2.500000e-01
     vertex -1.855856e-01  2.687401e-01  2.500000e-01
     vertex -7.812500e-02  1.424384e-01  2.500000e-01
   endloop
 endfacet
 facet normal  0.000000e+00  0.000000e+00  1.000000e+00
   outer loop
     vertex  3.208609e-01 -8.874894e-02  2.500000e-01
     vertex  1.685855e-01  0.000000e+00  2.500000e-01
     vertex  1.465502e-01 -8.223684e-02  2.500000e-01
   endloop
 endfacet
 facet normal  0.000000e+00  0.000000e+00  1.000000e+00
   outer loop
     vertex  3.208609e-01 -8.874894e-02  2.500000e-01
     vertex  1.465502e-01 -8.223684e-02  2.500000e-01
     vertex  2.851709e-01 -1.709158e-01  2.500000e-01
   endloop
 endfacet
 facet normal  0.000000e+00  0.000000e+00  1.000000e+00
   outer loop
     vertex -1.833632e-02  3.281805e-01  2.500000e-01
     vertex -1.060459e-01  3.099543e-01  2.500000e-01
     vertex  4.111842e-03  1.644737e-01  2.500000e-01
   endloop
 endfacet
 facet normal  0.000000e+00  0.000000e+00  1.000000e+00
   outer loop
     vertex  3.330592e-01  0.000000e+00  2.500000e-01
     vertex  1.685855e-01  0.000000e+00  2.500000e-01
     vertex  3.208609e-01 -8.874894e-02  2.500000e-01
   endloop
 endfacet
 facet normal  0.000000e+00  0.000000e+00  1.000000e+00
   outer loop
     vertex  7.103816e-02  3.220671e-01  2.500000e-01
     vertex  4.111842e-03  1.644737e-01  2.500000e-01
     vertex  8.634868e-02  1.424384e-01  2.500000e-01
   endloop
 endfacet
 facet normal  0.000000e+00  0.000000e+00  1.000000e+00
   outer loop
     vertex  7.103816e-02  3.220671e-01  2.500000e-01
     vertex -1.833632e-02  3.281805e-01  2.500000e-01
     vertex  4.111842e-03  1.644737e-01  2.500000e-01
   endloop
 endfacet
 facet normal  0.000000e+00  0.000000e+00  1.000000e+00
   outer loop
     vertex  3.208609e-01  8.874894e-02  2.500000e-01
     vertex  1.465502e-01  8.223684e-02  2.500000e-01
     vertex  1.685855e-01  0.000000e+00  2.500000e-01
   endloop
 endfacet
 facet normal  0.000000e+00  0.000000e+00  1.000000e+00
   outer loop
     vertex  3.208609e-01  8.874894e-02  2.500000e-01
     vertex  1.685855e-01  0.000000e+00  2.500000e-01
     vertex  3.330592e-01  0.000000e+00  2.500000e-01
   endloop
 endfacet
 facet normal  0.000000e+00  0.000000e+00  1.000000e+00
   outer loop
     vertex  1.554490e-01  2.920675e-01  2.500000e-01
     vertex  7.103816e-02  3.220671e-01  2.500000e-01
     vertex  8.634868e-02  1.424384e-01  2.500000e-01
   endloop
 endfacet
 facet normal  0.000000e+00  0.000000e+00  1.000000e+00
   outer loop
     vertex  2.851709e-01  1.709158e-01  2.500000e-01
     vertex  1.465502e-01  8.223684e-02  2.500000e-01
     vertex  3.208609e-01  8.874894e-02  2.500000e-01
   endloop
 endfacet
 facet normal  0.000000e+00  0.000000e+00  1.000000e+00
   outer loop
     vertex  2.286359e-01  2.404066e-01  2.500000e-01
     vertex  1.554490e-01  2.920675e-01  2.500000e-01
     vertex  8.634868e-02  1.424384e-01  2.500000e-01
   endloop
 endfacet
 facet normal  0.000000e+00  0.000000e+00  1.000000e+00
   outer loop
     vertex  2.286359e-01  2.404066e-01  2.500000e-01
     vertex  1.465502e-01  8.223684e-02  2.500000e-01
     vertex  2.851709e-01  1.709158e-01  2.500000e-01
   endloop
 endfacet
 facet normal  0.000000e+00  0.000000e+00  1.000000e+00
   outer loop
     vertex  2.286359e-01  2.404066e-01  2.500000e-01
     vertex  8.634868e-02  1.424384e-01  2.500000e-01
     vertex  1.465502e-01  8.223684e-02  2.500000e-01
   endloop
 endfacet
 facet normal -9.906859e-01  1.361666e-01  0.000000e+00
   outer loop
     vertex  3.208609e-01 -8.874894e-02  2.500000e-01
     vertex  3.330592e-01  0.000000e+00  7.500000e-01
     vertex  3.330592e-01  0.000000e+00  2.500000e-01
   endloop
 endfacet
 facet normal -9.906859e-01  1.361666e-01  0.000000e+00
   outer loop
     vertex  3.208609e-01 -8.874894e-02  2.500000e-01
     vertex  3.208609e-01 -8.874894e-02  7.500000e-01
     vertex  3.330592e-01  0.000000e+00  7.500000e-01
   endloop
 endfacet
 facet normal -9.172113e-01  3.984011e-01  0.000000e+00
   outer loop
     vertex  2.851709e-01 -1.709158e-01  2.500000e-01
     vertex  2.851709e-01 -1.709158e-01  7.500000e-01
     vertex  3.208609e-01 -8.874894e-02  7.500000e-01
   endloop
 endfacet
 facet normal -9.172113e-01  3.984011e-01  0.000000e+00
   outer loop
     vertex  2.851709e-01 -1.709158e-01  2.500000e-01
     vertex  3.208609e-01 -8.874894e-02  7.500000e-01
     vertex  3.208609e-01 -8.874894e-02  2.500000e-01
   endloop
 endfacet
 facet normal -7.757113e-01  6.310879e-01  0.000000e+00
   outer loop
     vertex  2.286359e-01 -2.404066e-01  2.500000e-01
     vertex  2.286359e-01 -2.404066e-01  7.500000e-01
     vertex  2.851709e-01 -1.709158e-01  7.500000e-01
   endloop
 endfacet
 facet normal -7.757113e-01  6.310879e-01  0.000000e+00
   outer loop
     vertex  2.286359e-01 -2.404066e-01  2.500000e-01
     vertex  2.851709e-01 -1.709158e-01  7.500000e-01
     vertex  2.851709e-01 -1.709158e-01  2.500000e-01
   endloop
 endfacet
 facet normal -5.766803e-01  8.169699e-01  0.000000e+00
   outer loop
     vertex  1.554490e-01 -2.920675e-01  2.500000e-01
     vertex  1.554490e-01 -2.920675e-01  7.500000e-01
     vertex  2.286359e-01 -2.404066e-01  7.500000e-01
   endloop
 endfacet
 facet normal -5.766803e-01  8.169699e-01  0.000000e+00
   outer loop
     vertex  1.554490e-01 -2.920675e-01  2.500000e-01
     vertex  2.286359e-01 -2.404066e-01  7.500000e-01
     vertex  2.286359e-01 -2.404066e-01  2.500000e-01
   endloop
 endfacet
 facet normal -3.348796e-01  9.422609e-01  0.000000e+00
   outer loop
     vertex  7.103816e-02 -3.220671e-01  2.500000e-01
     vertex  7.103816e-02 -3.220671e-01  7.500000e-01
     vertex  1.554490e-01 -2.920675e-01  7.500000e-01
   endloop
 endfacet
 facet normal -3.348796e-01  9.422609e-01  0.000000e+00
   outer loop
     vertex  7.103816e-02 -3.220671e-01  2.500000e-01
     vertex  1.554490e-01 -2.920675e-01  7.500000e-01
     vertex  1.554490e-01 -2.920675e-01  2.500000e-01
   endloop
 endfacet
 facet normal -6.824241e-02  9.976688e-01  0.000000e+00
   outer loop
     vertex -1.833632e-02 -3.281805e-01  2.500000e-01
     vertex -1.833632e-02 -3.281805e-01  7.500000e-01
     vertex  7.103816e-02 -3.220671e-01  7.500000e-01
   endloop
 endfacet
 facet normal -6.824241e-02  9.976688e-01  0.000000e+00
   outer loop
     vertex -1.833632e-02 -3.281805e-01  2.500000e-01
     vertex  7.103816e-02 -3.220671e-01  7.500000e-01
     vertex  7.103816e-02 -3.220671e-01  2.500000e-01
   endloop
 endfacet
 facet normal  2.034560e-01  9.790841e-01 -0.000000e+00
   outer loop
     vertex -1.060459e-01 -3.099543e-01  2.500000e-01
     vertex -1.060459e-01 -3.099543e-01  7.500000e-01
     vertex -1.833632e-02 -3.281805e-01  7.500000e-01
   endloop
 endfacet
 facet normal  2.034560e-01  9.790841e-01  0.000000e+00
   outer loop
     vertex -1.060459e-01 -3.099543e-01  2.500000e-01
     vertex -1.833632e-02 -3.281805e-01  7.500000e-01
     vertex -1.833632e-02 -3.281805e-01  2.500000e-01
   endloop
 endfacet
 facet normal  4.600650e-01  8.878852e-01 -0.000000e+00
   outer loop
     vertex -1.855856e-01 -2.687401e-01  2.500000e-01
     vertex -1.855856e-01 -2.687401e-01  7.500000e-01
     vertex -1.060459e-01 -3.099543e-01  7.500000e-01
   endloop
 endfacet
 facet normal  4.600650e-01  8.878852e-01  0.000000e+00
   outer loop
     vertex -1.855856e-01 -2.687401e-01  2.500000e-01
     vertex -1.060459e-01 -3.099543e-01  7.500000e-01
     vertex -1.060459e-01 -3.099543e-01  2.500000e-01
   endloop
 endfacet
 facet normal  6.825531e-01  7.308360e-01 -0.000000e+00
   outer loop
     vertex -2.510563e-01 -2.075947e-01  2.500000e-01
     vertex -2.510563e-01 -2.075947e-01  7.500000e-01
     vertex -1.855856e-01 -2.687401e-01  7.500000e-01
   endloop
 endfacet
 facet normal  6.825531e-01  7.308360e-01  0.000000e+00
   outer loop
     vertex -2.510563e-01 -2.075947e-01  2.500000e-01
     vertex -1.855856e-01 -2.687401e-01  7.500000e-01
     vertex -1.855856e-01 -2.687401e-01  2.500000e-01
   endloop
 endfacet
 facet normal  8.544194e-01  5.195840e-01 -0.000000e+00
   outer loop
     vertex -2.976024e-01 -1.310530e-01  2.500000e-01
     vertex -2.976024e-01 -1.310530e-01  7.500000e-01
     vertex -2.510563e-01 -2.075947e-01  7.500000e-01
   endloop
 endfacet
 facet normal  8.544194e-01  5.195840e-01  0.000000e+00
   outer loop
     vertex -2.976024e-01 -1.310530e-01  2.500000e-01
     vertex -2.510563e-01 -2.075947e-01  7.500000e-01
     vertex -2.510563e-01 -2.075947e-01  2.500000e-01
   endloop
 endfacet
 facet normal  9.629173e-01  2.697968e-01 -0.000000e+00
   outer loop
     vertex -3.217717e-01 -4.479166e-02  2.500000e-01
     vertex -3.217717e-01 -4.479166e-02  7.500000e-01
     vertex -2.976024e-01 -1.310530e-01  7.500000e-01
   endloop
 endfacet
 facet normal  9.629173e-01  2.697968e-01  0.000000e+00
   outer loop
     vertex -3.217717e-01 -4.479166e-02  2.500000e-01
     vertex -2.976024e-01 -1.310530e-01  7.500000e-01
     vertex -2.976024e-01 -1.310530e-01  2.500000e-01
   endloop
 endfacet
 facet normal  1.000000e+00 -1.239319e-15  0.000000e+00
   outer loop
     vertex -3.217717e-01  4.479166e-02  2.500000e-01
     vertex -3.217717e-01  4.479166e-02  7.500000e-01
     vertex -3.217717e-01 -4.479166e-02  7.500000e-01
   endloop
 endfacet
 facet normal  1.000000e+00 -1.239319e-15  0.000000e+00
   outer loop
     vertex -3.217717e-01  4.479166e-02  2.500000e-01
     vertex -3.217717e-01 -4.479166e-02  7.500000e-01
     vertex -3.217717e-01 -4.479166e-02  2.500000e-01
   endloop
 endfacet
 facet normal  9.629173e-01 -2.697968e-01  0.000000e+00
   outer loop
     vertex -2.976024e-01  1.310530e-01  2.500000e-01
     vertex -3.217717e-01  4.479166e-02  7.500000e-01
     vertex -3.217717e-01  4.479166e-02  2.500000e-01
   endloop
 endfacet
 facet normal  9.629173e-01 -2.697968e-01  0.000000e+00
   outer loop
     vertex -2.976024e-01  1.310530e-01  2.500000e-01
     vertex -2.976024e-01  1.310530e-01  7.500000e-01
     vertex -3.217717e-01  4.479166e-02  7.500000e-01
   endloop
 endfacet
 facet normal  8.544194e-01 -5.195840e-01  0.000000e+00
   outer loop
     vertex -2.510563e-01  2.075947e-01  2.500000e-01
     vertex -2.976024e-01  1.310530e-01  7.500000e-01
     vertex -2.976024e-01  1.310530e-01  2.500000e-01
   endloop
 endfacet
 facet normal  8.544194e-01 -5.195840e-01  0.000000e+00
   outer loop
     vertex -2.510563e-01  2.075947e-01  2.500000e-01
     vertex -2.510563e-01  2.075947e-01  7.500000e-01
     vertex -2.976024e-01  1.310530e-01  7.500000e-01
   endloop
 endfacet
 facet normal  6.825531e-01 -7.308360e-01  0.000000e+00
   outer loop
     vertex -1.855856e-01  2.687401e-01  2.500000e-01
     vertex -2.510563e-01  2.075947e-01  7.500000e-01
     vertex -2.510563e-01  2.075947e-01  2.500000e-01
   endloop
 endfacet
 facet normal  6.825531e-01 -7.308360e-01  0.000000e+00
   outer loop
     vertex -1.855856e-01  2.687401e-01  2.500000e-01
     vertex -1.855856e-01  2.687401e-01  7.500000e-01
     vertex -2.510563e-01  2.075947e-01  7.500000e-01
   endloop
 endfacet
 facet normal  4.600650e-01 -8.878852e-01  0.000000e+00
   outer loop
     vertex -1.060459e-01  3.099543e-01  2.500000e-01
     vertex -1.855856e-01  2.687401e-01  7.500000e-01
     vertex -1.855856e-01  2.687401e-01  2.500000e-01
   endloop
 endfacet
 facet normal  4.600650e-01 -8.878852e-01  0.000000e+00
   outer loop
     vertex -1.060459e-01  3.099543e-01  2.500000e-01
     vertex -1.060459e-01  3.099543e-01  7.500000e-01
     vertex -1.855856e-01  2.687401e-01  7.500000e-01
   endloop
 endfacet
 facet normal  2.034560e-01 -9.790841e-01  0.000000e+00
   outer loop
     vertex -1.833632e-02  3.281805e-01  2.500000e-01
     vertex -1.060459e-01  3.099543e-01  7.500000e-01
     vertex -1.060459e-01  3.099543e-01  2.500000e-01
   endloop
 endfacet
 facet normal  2.034560e-01 -9.790841e-01  0.000000e+00
   outer loop
     vertex -1.833632e-02  3.281805e-01  2.500000e-01
     vertex -1.833632e-02  3.281805e-01  7.500000e-01
     vertex -1.060459e-01  3.099543e-01  7.500000e-01
   endloop
 endfacet
 facet normal -6.824241e-02 -9.976688e-01  0.000000e+00
   outer loop
     vertex  7.103816e-02  3.220671e-01  2.500000e-01
     vertex -1.833632e-02  3.281805e-01  7.500000e-01
     vertex -1.833632e-02  3.281805e-01  2.500000e-01
   endloop
 endfacet
 facet normal -6.824241e-02 -9.976688e-01  0.000000e+00
   outer loop
     vertex  7.103816e-02  3.220671e-01  2.500000e-01
     vertex  7.103816e-02  3.220671e-01  7.500000e-01
     vertex -1.833632e-02  3.281805e-01  7.500000e-01
   endloop
 endfacet
 facet normal -3.348796e-01 -9.422609e-01  0.000000e+00
   outer loop
     vertex  1.554490e-01  2.920675e-01  2.500000e-01
     vertex  1.554490e-01  2.920675e-01  7.500000e-01
     vertex  7.103816e-02  3.220671e-01  7.500000e-01
   endloop
 endfacet
 facet normal -3.348796e-01 -9.422609e-01  0.000000e+00
   outer loop
     vertex  1.554490e-01  2.920675e-01  2.500000e-01
     vertex  7.103816e-02  3.220671e-01  7.500000e-01
     vertex  7.103816e-02  3.220671e-01  2.500000e-01
   endloop
 endfacet
 facet normal -5.766803e-01 -8.169699e-01  0.000000e+00
   outer loop
     vertex  2.286359e-01  2.404066e-01  2.500000e-01
     vertex  2.286359e-01  2.404066e-01  7.500000e-01
     vertex  1.554490e-01  2.920675e-01  7.500000e-01
   endloop
 endfacet
 facet normal -5.766803e-01 -8.169699e-01  0.000000e+00
   outer loop
     vertex  2.286359e-01  2.404066e-01  2.500000e-01
     vertex  1.554490e-01  2.920675e-01  7.500000e-01
     vertex  1.554490e-01  2.920675e-01  2.500000e-01
   endloop
 endfacet
 facet normal -7.757113e-01 -6.310879e-01  0.000000e+00
   outer loop
     vertex  2.851709e-01  1.709158e-01  2.500000e-01
     vertex  2.851709e-01  1.709158e-01  7.500000e-01
     vertex  2.286359e-01  2.404066e-01  7.500000e-01
   endloop
 endfacet
 facet normal -7.757113e-01 -6.310879e-01  0.000000e+00
   outer loop
     vertex  2.851709e-01  1.709158e-01  2.500000e-01
     vertex  2.286359e-01  2.404066e-01  7.500000e-01
     vertex  2.286359e-01  2.404066e-01  2.500000e-01
   endloop
 endfacet
 facet normal -9.172113e-01 -3.984011e-01  0.000000e+00
   outer loop
     vertex  3.208609e-01  8.874894e-02  2.500000e-01
     vertex  3.208609e-01  8.874894e-02  7.500000e-01
     vertex  2.851709e-01  1.709158e-01  7.500000e-01
   endloop
 endfacet
 facet normal -9.172113e-01 -3.984011e-01  0.000000e+00
   outer loop
     vertex  3.208609e-01  8.874894e-02  2.500000e-01
     vertex  2.851709e-01  1.709158e-01  7.500000e-01
     vertex  2.851709e-01  1.709158e-01  2.500000e-01
   endloop
 endfacet
 facet normal -9.906859e-01 -1.361666e-01  0.000000e+00
   outer loop
     vertex  3.330592e-01  0.000000e+00  2.500000e-01
     vertex  3.330592e-01  0.000000e+00  7.500000e-01
     vertex  3.208609e-01  8.874894e-02  7.500000e-01
   endloop
 endfacet
 facet normal -9.906859e-01 -1.361666e-01  0.000000e+00
   outer loop
     vertex  3.330592e-01  0.000000e+00  2.500000e-01
     vertex  3.208609e-01  8.874894e-02  7.500000e-01
     vertex  3.208609e-01  8.874894e-02  2.500000e-01
   endloop
 endfacet
endsolid
