solid 
 facet normal -5.102695e-17 -6.123234e-17 -1.000000e+00
   outer loop
     vertex  7.500000e-01  4.592425e-17 -4.592425e-17
     vertex  1.530808e-17 -3.750000e-01  1.530808e-17
     vertex -7.654042e-18  0.000000e+00 -7.654042e-18
   endloop
 endfacet
 facet normal -5.102695e-17 -6.123234e-17 -1.000000e+00
   outer loop
     vertex  7.500000e-01  4.592425e-17 -4.592425e-17
     vertex  7.500000e-01 -3.750000e-01 -2.296213e-17
     vertex  1.530808e-17 -3.750000e-01  1.530808e-17
   endloop
 endfacet
 facet normal -9.284767e-01 -1.718027e-17  3.713907e-01
   outer loop
     vertex  2.500000e-02 -3.750000e-01  6.250000e-02
     vertex -7.654042e-18  0.000000e+00 -7.654042e-18
     vertex  1.530808e-17 -3.750000e-01  1.530808e-17
   endloop
 endfacet
 facet normal -9.284767e-01  0.000000e+00  3.713907e-01
   outer loop
     vertex  2.500000e-02 -3.750000e-01  6.250000e-02
     vertex  2.500000e-02  0.000000e+00  6.250000e-02
     vertex -7.654042e-18  0.000000e+00 -7.654042e-18
   endloop
 endfacet
 facet normal  1.000000e+00  0.000000e+00  0.000000e+00
   outer loop
     vertex  7.500000e-01  6.139348e-17  2.526316e-01
     vertex  7.500000e-01 -3.750000e-01 -2.296213e-17
     vertex  7.500000e-01  4.592425e-17 -4.592425e-17
   endloop
 endfacet
 facet normal  1.000000e+00  0.000000e+00  0.000000e+00
   outer loop
     vertex  7.500000e-01  6.139348e-17  2.526316e-01
     vertex  7.500000e-01 -3.750000e-01  2.526316e-01
     vertex  7.500000e-01 -3.750000e-01 -2.296213e-17
   endloop
 endfacet
 facet normal  0.000000e+00  1.000000e+00  0.000000e+00
   outer loop
     vertex  1.559211e-01  0.000000e+00  6.250000e-02
     vertex -7.654042e-18  0.000000e+00 -7.654042e-18
     vertex  2.500000e-02  0.000000e+00  6.250000e-02
   endloop
 endfacet
 facet normal  0.000000e+00  1.000000e+00 -5.878305e-15
   outer loop
     vertex  1.559211e-01  0.000000e+00  2.500000e-01
     vertex -1.148106e-17  0.000000e+00  2.500000e-01
     vertex  1.546922e-17  1.546922e-17  2.526316e-01
   endloop
 endfacet
 facet normal -6.123234e-17  1.000000e+00  1.527586e-16
   outer loop
     vertex  7.500000e-01  4.592425e-17 -4.592425e-17
     vertex -7.654042e-18  0.000000e+00 -7.654042e-18
     vertex  1.559211e-01  0.000000e+00  6.250000e-02
   endloop
 endfacet
 facet normal  0.000000e+00  1.000000e+00  7.347881e-16
   outer loop
     vertex  7.500000e-01  4.592425e-17 -4.592425e-17
     vertex  1.559211e-01  0.000000e+00  6.250000e-02
     vertex  6.375000e-01  0.000000e+00  6.250000e-02
   endloop
 endfacet
 facet normal  0.000000e+00  1.000000e+00  0.000000e+00
   outer loop
     vertex  5.625000e-01  0.000000e+00  2.500000e-01
     vertex  1.559211e-01  0.000000e+00  6.250000e-02
     vertex  1.559211e-01  0.000000e+00  2.500000e-01
   endloop
 endfacet
 facet normal  0.000000e+00  1.000000e+00  0.000000e+00
   outer loop
     vertex  5.625000e-01  0.000000e+00  2.500000e-01
     vertex  6.375000e-01  0.000000e+00  6.250000e-02
     vertex  1.559211e-01  0.000000e+00  6.250000e-02
   endloop
 endfacet
 facet normal -5.457198e-16  1.000000e+00  0.000000e+00
   outer loop
     vertex  7.500000e-01  6.139348e-17  2.526316e-01
     vertex  6.375000e-01  0.000000e+00  6.250000e-02
     vertex  6.375000e-01  0.000000e+00  2.500000e-01
   endloop
 endfacet
 facet normal -4.422336e-16  1.000000e+00 -6.123234e-17
   outer loop
     vertex  7.500000e-01  6.139348e-17  2.526316e-01
     vertex  7.500000e-01  4.592425e-17 -4.592425e-17
     vertex  6.375000e-01  0.000000e+00  6.250000e-02
   endloop
 endfacet
 facet normal -6.123234e-17  1.000000e+00 -1.896672e-14
   outer loop
     vertex  7.500000e-01  6.139348e-17  2.526316e-01
     vertex  5.625000e-01  0.000000e+00  2.500000e-01
     vertex  1.546922e-17  1.546922e-17  2.526316e-01
   endloop
 endfacet
 facet normal  0.000000e+00  1.000000e+00 -5.878305e-15
   outer loop
     vertex  5.625000e-01  0.000000e+00  2.500000e-01
     vertex  1.559211e-01  0.000000e+00  2.500000e-01
     vertex  1.546922e-17  1.546922e-17  2.526316e-01
   endloop
 endfacet
 facet normal  0.000000e+00  1.000000e+00 -2.332952e-14
   outer loop
     vertex  7.500000e-01  6.139348e-17  2.526316e-01
     vertex  6.375000e-01  0.000000e+00  2.500000e-01
     vertex  5.625000e-01  0.000000e+00  2.500000e-01
   endloop
 endfacet
 facet normal -0.000000e+00 -1.000000e+00  0.000000e+00
   outer loop
     vertex  1.559211e-01 -3.750000e-01  6.250000e-02
     vertex  2.500000e-02 -3.750000e-01  6.250000e-02
     vertex  1.530808e-17 -3.750000e-01  1.530808e-17
   endloop
 endfacet
 facet normal  0.000000e+00 -1.000000e+00  0.000000e+00
   outer loop
     vertex  1.559211e-01 -3.750000e-01  2.500000e-01
     vertex  3.843135e-17 -3.750000e-01  2.526316e-01
     vertex  1.148106e-17 -3.750000e-01  2.500000e-01
   endloop
 endfacet
 facet normal  0.000000e+00 -1.000000e+00  0.000000e+00
   outer loop
     vertex  7.500000e-01 -3.750000e-01 -2.296213e-17
     vertex  1.559211e-01 -3.750000e-01  6.250000e-02
     vertex  1.530808e-17 -3.750000e-01  1.530808e-17
   endloop
 endfacet
 facet normal  0.000000e+00 -1.000000e+00  0.000000e+00
   outer loop
     vertex  7.500000e-01 -3.750000e-01 -2.296213e-17
     vertex  6.375000e-01 -3.750000e-01  6.250000e-02
     vertex  1.559211e-01 -3.750000e-01  6.250000e-02
   endloop
 endfacet
 facet normal -0.000000e+00 -1.000000e+00  0.000000e+00
   outer loop
     vertex  5.625000e-01 -3.750000e-01  2.500000e-01
     vertex  1.559211e-01 -3.750000e-01  2.500000e-01
     vertex  1.559211e-01 -3.750000e-01  6.250000e-02
   endloop
 endfacet
 facet normal  0.000000e+00 -1.000000e+00 -0.000000e+00
   outer loop
     vertex  5.625000e-01 -3.750000e-01  2.500000e-01
     vertex  1.559211e-01 -3.750000e-01  6.250000e-02
     vertex  6.375000e-01 -3.750000e-01  6.250000e-02
   endloop
 endfacet
 facet normal  0.000000e+00 -1.000000e+00  0.000000e+00
   outer loop
     vertex  7.500000e-01 -3.750000e-01  2.526316e-01
     vertex  6.375000e-01 -3.750000e-01  2.500000e-01
     vertex  6.375000e-01 -3.750000e-01  6.250000e-02
   endloop
 endfacet
 facet normal  0.000000e+00 -1.000000e+00 -0.000000e+00
   outer loop
     vertex  7.500000e-01 -3.750000e-01  2.526316e-01
     vertex  6.375000e-01 -3.750000e-01  6.250000e-02
     vertex  7.500000e-01 -3.750000e-01 -2.296213e-17
   endloop
 endfacet
 facet normal -0.000000e+00 -1.000000e+00  0.000000e+00
   outer loop
     vertex  7.500000e-01 -3.750000e-01  2.526316e-01
     vertex  3.843135e-17 -3.750000e-01  2.526316e-01
     vertex  1.559211e-01 -3.750000e-01  2.500000e-01
   endloop
 endfacet
 facet normal  0.000000e+00 -1.000000e+00  0.000000e+00
   outer loop
     vertex  7.500000e-01 -3.750000e-01  2.526316e-01
     vertex  1.559211e-01 -3.750000e-01  2.500000e-01
     vertex  5.625000e-01 -3.750000e-01  2.500000e-01
   endloop
 endfacet
 facet normal  0.000000e+00 -1.000000e+00  0.000000e+00
   outer loop
     vertex  7.500000e-01 -3.750000e-01  2.526316e-01
     vertex  5.625000e-01 -3.750000e-01  2.500000e-01
     vertex  6.375000e-01 -3.750000e-01  2.500000e-01
   endloop
 endfacet
 facet normal  0.000000e+00  0.000000e+00  1.000000e+00
   outer loop
     vertex  1.559211e-01 -3.750000e-01  6.250000e-02
     vertex  2.500000e-02  0.000000e+00  6.250000e-02
     vertex  2.500000e-02 -3.750000e-01  6.250000e-02
   endloop
 endfacet
 facet normal  0.000000e+00 -0.000000e+00  1.000000e+00
   outer loop
     vertex  1.559211e-01 -3.750000e-01  6.250000e-02
     vertex  1.559211e-01  0.000000e+00  6.250000e-02
     vertex  2.500000e-02  0.000000e+00  6.250000e-02
   endloop
 endfacet
 facet normal -0.000000e+00  0.000000e+00  1.000000e+00
   outer loop
     vertex  1.546922e-17  1.546922e-17  2.526316e-01
     vertex  7.500000e-01 -3.750000e-01  2.526316e-01
     vertex  7.500000e-01  6.139348e-17  2.526316e-01
   endloop
 endfacet
 facet normal  0.000000e+00  0.000000e+00  1.000000e+00
   outer loop
     vertex  1.546922e-17  1.546922e-17  2.526316e-01
     vertex  3.843135e-17 -3.750000e-01  2.526316e-01
     vertex  7.500000e-01 -3.750000e-01  2.526316e-01
   endloop
 endfacet
 facet normal -1.000000e+00  0.000000e+00  0.000000e+00
   outer loop
     vertex  1.559211e-01 -3.750000e-01  2.500000e-01
     vertex  1.559211e-01  0.000000e+00  6.250000e-02
     vertex  1.559211e-01 -3.750000e-01  6.250000e-02
   endloop
 endfacet
 facet normal -1.000000e+00  0.000000e+00  0.000000e+00
   outer loop
     vertex  1.559211e-01 -3.750000e-01  2.500000e-01
     vertex  1.559211e-01  0.000000e+00  2.500000e-01
     vertex  1.559211e-01  0.000000e+00  6.250000e-02
   endloop
 endfacet
 facet normal  0.000000e+00  0.000000e+00 -1.000000e+00
   outer loop
     vertex  1.148106e-17 -3.750000e-01  2.500000e-01
     vertex  1.559211e-01  0.000000e+00  2.500000e-01
     vertex  1.559211e-01 -3.750000e-01  2.500000e-01
   endloop
 endfacet
 facet normal  0.000000e+00  0.000000e+00 -1.000000e+00
   outer loop
     vertex  1.148106e-17 -3.750000e-01  2.500000e-01
     vertex -1.148106e-17  0.000000e+00  2.500000e-01
     vertex  1.559211e-01  0.000000e+00  2.500000e-01
   endloop
 endfacet
 facet normal -1.000000e+00 -6.123234e-17  1.024111e-14
   outer loop
     vertex -1.148106e-17  0.000000e+00  2.500000e-01
     vertex  3.843135e-17 -3.750000e-01  2.526316e-01
     vertex  1.546922e-17  1.546922e-17  2.526316e-01
   endloop
 endfacet
 facet normal -1.000000e+00 -6.123234e-17  1.024111e-14
   outer loop
     vertex -1.148106e-17  0.000000e+00  2.500000e-01
     vertex  1.148106e-17 -3.750000e-01  2.500000e-01
     vertex  3.843135e-17 -3.750000e-01  2.526316e-01
   endloop
 endfacet
 facet normal  9.284767e-01  0.000000e+00  3.713907e-01
   outer loop
     vertex  6.375000e-01 -3.750000e-01  6.250000e-02
     vertex  5.625000e-01  0.000000e+00  2.500000e-01
     vertex  5.625000e-01 -3.750000e-01  2.500000e-01
   endloop
 endfacet
 facet normal  9.284767e-01 -0.000000e+00  3.713907e-01
   outer loop
     vertex  6.375000e-01 -3.750000e-01  6.250000e-02
     vertex  6.375000e-01  0.000000e+00  6.250000e-02
     vertex  5.625000e-01  0.000000e+00  2.500000e-01
   endloop
 endfacet
 facet normal  0.000000e+00  0.000000e+00 -1.000000e+00
   outer loop
     vertex  5.625000e-01 -3.750000e-01  2.500000e-01
     vertex  6.375000e-01  0.000000e+00  2.500000e-01
     vertex  6.375000e-01 -3.750000e-01  2.500000e-01
   endloop
 endfacet
 facet normal  0.000000e+00  0.000000e+00 -1.000000e+00
   outer loop
     vertex  5.625000e-01 -3.750000e-01  2.500000e-01
     vertex  5.625000e-01  0.000000e+00  2.500000e-01
     vertex  6.375000e-01  0.000000e+00  2.500000e-01
   endloop
 endfacet
 facet normal -1.000000e+00  0.000000e+00  0.000000e+00
   outer loop
     vertex  6.375000e-01 -3.750000e-01  2.500000e-01
     vertex  6.375000e-01  0.000000e+00  6.250000e-02
     vertex  6.375000e-01 -3.750000e-01  6.250000e-02
   endloop
 endfacet
 facet normal -1.000000e+00  0.000000e+00  0.000000e+00
   outer loop
     vertex  6.375000e-01 -3.750000e-01  2.500000e-01
     vertex  6.375000e-01  0.000000e+00  2.500000e-01
     vertex  6.375000e-01  0.000000e+00  6.250000e-02
   endloop
 endfacet
endsolid
