solid 
 facet normal  0.000000e+00  0.000000e+00 -1.000000e+00
   outer loop
     vertex  7.500000e-01  9.184851e-17 -2.500000e-01
     vertex -7.500000e-01 -5.000000e-01 -2.500000e-01
     vertex -7.500000e-01  0.000000e+00 -2.500000e-01
   endloop
 endfacet
 facet normal  0.000000e+00 -0.000000e+00 -1.000000e+00
   outer loop
     vertex  7.500000e-01  9.184851e-17 -2.500000e-01
     vertex  7.500000e-01 -5.000000e-01 -2.500000e-01
     vertex -7.500000e-01 -5.000000e-01 -2.500000e-01
   endloop
 endfacet
 facet normal -1.000000e+00  0.000000e+00  0.000000e+00
   outer loop
     vertex -7.500000e-01  0.000000e+00 -2.500000e-01
     vertex -7.500000e-01 -5.000000e-01  2.552632e-01
     vertex -7.500000e-01  3.093845e-17  2.552632e-01
   endloop
 endfacet
 facet normal -1.000000e+00  0.000000e+00  0.000000e+00
   outer loop
     vertex -7.500000e-01  0.000000e+00 -2.500000e-01
     vertex -7.500000e-01 -5.000000e-01 -2.500000e-01
     vertex -7.500000e-01 -5.000000e-01  2.552632e-01
   endloop
 endfacet
 facet normal  1.000000e+00  0.000000e+00  0.000000e+00
   outer loop
     vertex  7.500000e-01  1.227870e-16  2.552632e-01
     vertex  7.500000e-01 -5.000000e-01 -2.500000e-01
     vertex  7.500000e-01  9.184851e-17 -2.500000e-01
   endloop
 endfacet
 facet normal  1.000000e+00  0.000000e+00  0.000000e+00
   outer loop
     vertex  7.500000e-01  1.227870e-16  2.552632e-01
     vertex  7.500000e-01 -5.000000e-01  2.552632e-01
     vertex  7.500000e-01 -5.000000e-01 -2.500000e-01
   endloop
 endfacet
 facet normal  0.000000e+00  1.000000e+00  0.000000e+00
   outer loop
     vertex -7.031250e-01  0.000000e+00  4.761513e-02
     vertex -7.031250e-01  0.000000e+00 -2.187500e-01
     vertex -7.500000e-01  0.000000e+00 -2.500000e-01
   endloop
 endfacet
 facet normal  0.000000e+00  1.000000e+00  0.000000e+00
   outer loop
     vertex -3.906250e-01  0.000000e+00 -2.187500e-01
     vertex -7.500000e-01  0.000000e+00 -2.500000e-01
     vertex -7.031250e-01  0.000000e+00 -2.187500e-01
   endloop
 endfacet
 facet normal  0.000000e+00  1.000000e+00  0.000000e+00
   outer loop
     vertex -3.828125e-01  0.000000e+00 -2.187500e-01
     vertex -7.500000e-01  0.000000e+00 -2.500000e-01
     vertex -3.906250e-01  0.000000e+00 -2.187500e-01
   endloop
 endfacet
 facet normal  3.887716e-16  1.000000e+00 -6.123234e-17
   outer loop
     vertex -7.500000e-01  3.093845e-17  2.552632e-01
     vertex -7.031250e-01  0.000000e+00  4.761513e-02
     vertex -7.500000e-01  0.000000e+00 -2.500000e-01
   endloop
 endfacet
 facet normal  0.000000e+00  1.000000e+00 -1.489947e-16
   outer loop
     vertex -3.906250e-01  0.000000e+00  4.761513e-02
     vertex -7.031250e-01  0.000000e+00  4.761513e-02
     vertex -7.500000e-01  3.093845e-17  2.552632e-01
   endloop
 endfacet
 facet normal -7.105427e-15  1.000000e+00 -1.244631e-14
   outer loop
     vertex -3.828125e-01  5.551115e-17  4.761513e-02
     vertex -3.906250e-01  0.000000e+00  4.761513e-02
     vertex -7.500000e-01  3.093845e-17  2.552632e-01
   endloop
 endfacet
 facet normal  0.000000e+00  1.000000e+00  0.000000e+00
   outer loop
     vertex -7.031250e-02  0.000000e+00 -2.187500e-01
     vertex -7.500000e-01  0.000000e+00 -2.500000e-01
     vertex -3.828125e-01  0.000000e+00 -2.187500e-01
   endloop
 endfacet
 facet normal  0.000000e+00  1.000000e+00  1.183383e-16
   outer loop
     vertex -7.031250e-02  5.551115e-17  4.761513e-02
     vertex -3.828125e-01  5.551115e-17  4.761513e-02
     vertex -7.500000e-01  3.093845e-17  2.552632e-01
   endloop
 endfacet
 facet normal  1.776357e-16  1.000000e+00 -2.084025e-16
   outer loop
     vertex  2.421875e-01  0.000000e+00  4.761513e-02
     vertex -7.031250e-02  0.000000e+00 -2.187500e-01
     vertex -7.031250e-02  5.551115e-17  4.761513e-02
   endloop
 endfacet
 facet normal  0.000000e+00  1.000000e+00  0.000000e+00
   outer loop
     vertex  2.421875e-01  0.000000e+00  4.761513e-02
     vertex  2.421875e-01  0.000000e+00 -2.187500e-01
     vertex -7.031250e-02  0.000000e+00 -2.187500e-01
   endloop
 endfacet
 facet normal  0.000000e+00  1.000000e+00  2.939152e-15
   outer loop
     vertex  7.500000e-01  9.184851e-17 -2.500000e-01
     vertex  2.421875e-01  0.000000e+00 -2.187500e-01
     vertex  5.625000e-01  0.000000e+00 -2.187500e-01
   endloop
 endfacet
 facet normal  0.000000e+00  1.000000e+00  2.939152e-15
   outer loop
     vertex  7.500000e-01  9.184851e-17 -2.500000e-01
     vertex -7.031250e-02  0.000000e+00 -2.187500e-01
     vertex  2.421875e-01  0.000000e+00 -2.187500e-01
   endloop
 endfacet
 facet normal -5.245925e-16  1.000000e+00 -2.084025e-16
   outer loop
     vertex  5.625000e-01  5.551115e-17  4.761513e-02
     vertex  7.500000e-01  9.184851e-17 -2.500000e-01
     vertex  5.625000e-01  0.000000e+00 -2.187500e-01
   endloop
 endfacet
 facet normal -1.733031e-16  1.000000e+00 -1.675021e-16
   outer loop
     vertex  7.500000e-01  1.227870e-16  2.552632e-01
     vertex  5.625000e-01  5.551115e-17  4.761513e-02
     vertex  2.421875e-01  0.000000e+00  4.761513e-02
   endloop
 endfacet
 facet normal -2.909922e-16  1.000000e+00 -6.123234e-17
   outer loop
     vertex  7.500000e-01  1.227870e-16  2.552632e-01
     vertex  7.500000e-01  9.184851e-17 -2.500000e-01
     vertex  5.625000e-01  5.551115e-17  4.761513e-02
   endloop
 endfacet
 facet normal -6.123234e-17  1.000000e+00  1.331803e-15
   outer loop
     vertex -7.500000e-01  0.000000e+00 -2.500000e-01
     vertex -7.031250e-02  0.000000e+00 -2.187500e-01
     vertex  7.500000e-01  9.184851e-17 -2.500000e-01
   endloop
 endfacet
 facet normal -6.123234e-17  1.000000e+00 -8.209156e-17
   outer loop
     vertex  7.500000e-01  1.227870e-16  2.552632e-01
     vertex -7.031250e-02  5.551115e-17  4.761513e-02
     vertex -7.500000e-01  3.093845e-17  2.552632e-01
   endloop
 endfacet
 facet normal  1.776357e-16  1.000000e+00 -1.025739e-15
   outer loop
     vertex  7.500000e-01  1.227870e-16  2.552632e-01
     vertex  2.421875e-01  0.000000e+00  4.761513e-02
     vertex -7.031250e-02  5.551115e-17  4.761513e-02
   endloop
 endfacet
 facet normal  0.000000e+00 -1.000000e+00 -0.000000e+00
   outer loop
     vertex -7.031250e-01 -5.000000e-01  4.761513e-02
     vertex -7.500000e-01 -5.000000e-01 -2.500000e-01
     vertex -7.031250e-01 -5.000000e-01 -2.187500e-01
   endloop
 endfacet
 facet normal -0.000000e+00 -1.000000e+00  0.000000e+00
   outer loop
     vertex -3.906250e-01 -5.000000e-01 -2.187500e-01
     vertex -7.031250e-01 -5.000000e-01 -2.187500e-01
     vertex -7.500000e-01 -5.000000e-01 -2.500000e-01
   endloop
 endfacet
 facet normal -0.000000e+00 -1.000000e+00  0.000000e+00
   outer loop
     vertex -3.828125e-01 -5.000000e-01 -2.187500e-01
     vertex -3.906250e-01 -5.000000e-01 -2.187500e-01
     vertex -7.500000e-01 -5.000000e-01 -2.500000e-01
   endloop
 endfacet
 facet normal  0.000000e+00 -1.000000e+00  0.000000e+00
   outer loop
     vertex -7.500000e-01 -5.000000e-01  2.552632e-01
     vertex -7.500000e-01 -5.000000e-01 -2.500000e-01
     vertex -7.031250e-01 -5.000000e-01  4.761513e-02
   endloop
 endfacet
 facet normal  0.000000e+00 -1.000000e+00  0.000000e+00
   outer loop
     vertex -3.906250e-01 -5.000000e-01  4.761513e-02
     vertex -7.500000e-01 -5.000000e-01  2.552632e-01
     vertex -7.031250e-01 -5.000000e-01  4.761513e-02
   endloop
 endfacet
 facet normal  0.000000e+00 -1.000000e+00  0.000000e+00
   outer loop
     vertex -3.828125e-01 -5.000000e-01  4.761513e-02
     vertex -7.500000e-01 -5.000000e-01  2.552632e-01
     vertex -3.906250e-01 -5.000000e-01  4.761513e-02
   endloop
 endfacet
 facet normal -0.000000e+00 -1.000000e+00  0.000000e+00
   outer loop
     vertex -7.031250e-02 -5.000000e-01 -2.187500e-01
     vertex -3.828125e-01 -5.000000e-01 -2.187500e-01
     vertex -7.500000e-01 -5.000000e-01 -2.500000e-01
   endloop
 endfacet
 facet normal  0.000000e+00 -1.000000e+00  0.000000e+00
   outer loop
     vertex -7.031250e-02 -5.000000e-01  4.761513e-02
     vertex -7.500000e-01 -5.000000e-01  2.552632e-01
     vertex -3.828125e-01 -5.000000e-01  4.761513e-02
   endloop
 endfacet
 facet normal -0.000000e+00 -1.000000e+00  0.000000e+00
   outer loop
     vertex  2.421875e-01 -5.000000e-01  4.761513e-02
     vertex -7.031250e-02 -5.000000e-01  4.761513e-02
     vertex -7.031250e-02 -5.000000e-01 -2.187500e-01
   endloop
 endfacet
 facet normal  0.000000e+00 -1.000000e+00 -0.000000e+00
   outer loop
     vertex  2.421875e-01 -5.000000e-01  4.761513e-02
     vertex -7.031250e-02 -5.000000e-01 -2.187500e-01
     vertex  2.421875e-01 -5.000000e-01 -2.187500e-01
   endloop
 endfacet
 facet normal  0.000000e+00 -1.000000e+00  0.000000e+00
   outer loop
     vertex  7.500000e-01 -5.000000e-01 -2.500000e-01
     vertex  5.625000e-01 -5.000000e-01 -2.187500e-01
     vertex  2.421875e-01 -5.000000e-01 -2.187500e-01
   endloop
 endfacet
 facet normal  0.000000e+00 -1.000000e+00  0.000000e+00
   outer loop
     vertex  7.500000e-01 -5.000000e-01 -2.500000e-01
     vertex  2.421875e-01 -5.000000e-01 -2.187500e-01
     vertex -7.031250e-02 -5.000000e-01 -2.187500e-01
   endloop
 endfacet
 facet normal  0.000000e+00 -1.000000e+00  0.000000e+00
   outer loop
     vertex  5.625000e-01 -5.000000e-01  4.761513e-02
     vertex  5.625000e-01 -5.000000e-01 -2.187500e-01
     vertex  7.500000e-01 -5.000000e-01 -2.500000e-01
   endloop
 endfacet
 facet normal  0.000000e+00 -1.000000e+00  0.000000e+00
   outer loop
     vertex  7.500000e-01 -5.000000e-01  2.552632e-01
     vertex  2.421875e-01 -5.000000e-01  4.761513e-02
     vertex  5.625000e-01 -5.000000e-01  4.761513e-02
   endloop
 endfacet
 facet normal  0.000000e+00 -1.000000e+00 -0.000000e+00
   outer loop
     vertex  7.500000e-01 -5.000000e-01  2.552632e-01
     vertex  5.625000e-01 -5.000000e-01  4.761513e-02
     vertex  7.500000e-01 -5.000000e-01 -2.500000e-01
   endloop
 endfacet
 facet normal  0.000000e+00 -1.000000e+00  0.000000e+00
   outer loop
     vertex -7.500000e-01 -5.000000e-01 -2.500000e-01
     vertex  7.500000e-01 -5.000000e-01 -2.500000e-01
     vertex -7.031250e-02 -5.000000e-01 -2.187500e-01
   endloop
 endfacet
 facet normal -0.000000e+00 -1.000000e+00  0.000000e+00
   outer loop
     vertex  7.500000e-01 -5.000000e-01  2.552632e-01
     vertex -7.500000e-01 -5.000000e-01  2.552632e-01
     vertex -7.031250e-02 -5.000000e-01  4.761513e-02
   endloop
 endfacet
 facet normal  0.000000e+00 -1.000000e+00  0.000000e+00
   outer loop
     vertex  7.500000e-01 -5.000000e-01  2.552632e-01
     vertex -7.031250e-02 -5.000000e-01  4.761513e-02
     vertex  2.421875e-01 -5.000000e-01  4.761513e-02
   endloop
 endfacet
 facet normal -0.000000e+00  0.000000e+00  1.000000e+00
   outer loop
     vertex -7.500000e-01  3.093845e-17  2.552632e-01
     vertex  7.500000e-01 -5.000000e-01  2.552632e-01
     vertex  7.500000e-01  1.227870e-16  2.552632e-01
   endloop
 endfacet
 facet normal  0.000000e+00  0.000000e+00  1.000000e+00
   outer loop
     vertex -7.500000e-01  3.093845e-17  2.552632e-01
     vertex -7.500000e-01 -5.000000e-01  2.552632e-01
     vertex  7.500000e-01 -5.000000e-01  2.552632e-01
   endloop
 endfacet
 facet normal  0.000000e+00  0.000000e+00  1.000000e+00
   outer loop
     vertex -3.828125e-01 -5.000000e-01 -2.187500e-01
     vertex -3.906250e-01  0.000000e+00 -2.187500e-01
     vertex -3.906250e-01 -5.000000e-01 -2.187500e-01
   endloop
 endfacet
 facet normal  0.000000e+00 -0.000000e+00  1.000000e+00
   outer loop
     vertex -3.828125e-01 -5.000000e-01 -2.187500e-01
     vertex -3.828125e-01  0.000000e+00 -2.187500e-01
     vertex -3.906250e-01  0.000000e+00 -2.187500e-01
   endloop
 endfacet
 facet normal  0.000000e+00  0.000000e+00  1.000000e+00
   outer loop
     vertex -7.031250e-02 -5.000000e-01 -2.187500e-01
     vertex -3.828125e-01  0.000000e+00 -2.187500e-01
     vertex -3.828125e-01 -5.000000e-01 -2.187500e-01
   endloop
 endfacet
 facet normal  0.000000e+00 -0.000000e+00  1.000000e+00
   outer loop
     vertex -7.031250e-02 -5.000000e-01 -2.187500e-01
     vertex -7.031250e-02  0.000000e+00 -2.187500e-01
     vertex -3.828125e-01  0.000000e+00 -2.187500e-01
   endloop
 endfacet
 facet normal -1.000000e+00  0.000000e+00  0.000000e+00
   outer loop
     vertex -7.031250e-02 -5.000000e-01  4.761513e-02
     vertex -7.031250e-02  0.000000e+00 -2.187500e-01
     vertex -7.031250e-02 -5.000000e-01 -2.187500e-01
   endloop
 endfacet
 facet normal -1.000000e+00  0.000000e+00  0.000000e+00
   outer loop
     vertex -7.031250e-02 -5.000000e-01  4.761513e-02
     vertex -7.031250e-02  5.551115e-17  4.761513e-02
     vertex -7.031250e-02  0.000000e+00 -2.187500e-01
   endloop
 endfacet
 facet normal  0.000000e+00  0.000000e+00 -1.000000e+00
   outer loop
     vertex -3.828125e-01 -5.000000e-01  4.761513e-02
     vertex -7.031250e-02  5.551115e-17  4.761513e-02
     vertex -7.031250e-02 -5.000000e-01  4.761513e-02
   endloop
 endfacet
 facet normal  0.000000e+00  0.000000e+00 -1.000000e+00
   outer loop
     vertex -3.828125e-01 -5.000000e-01  4.761513e-02
     vertex -3.828125e-01  5.551115e-17  4.761513e-02
     vertex -7.031250e-02  5.551115e-17  4.761513e-02
   endloop
 endfacet
 facet normal  0.000000e+00  0.000000e+00 -1.000000e+00
   outer loop
     vertex -3.906250e-01 -5.000000e-01  4.761513e-02
     vertex -3.828125e-01  5.551115e-17  4.761513e-02
     vertex -3.828125e-01 -5.000000e-01  4.761513e-02
   endloop
 endfacet
 facet normal  0.000000e+00  0.000000e+00 -1.000000e+00
   outer loop
     vertex -3.906250e-01 -5.000000e-01  4.761513e-02
     vertex -3.906250e-01  0.000000e+00  4.761513e-02
     vertex -3.828125e-01  5.551115e-17  4.761513e-02
   endloop
 endfacet
 facet normal  0.000000e+00  0.000000e+00 -1.000000e+00
   outer loop
     vertex -7.031250e-01 -5.000000e-01  4.761513e-02
     vertex -3.906250e-01  0.000000e+00  4.761513e-02
     vertex -3.906250e-01 -5.000000e-01  4.761513e-02
   endloop
 endfacet
 facet normal  0.000000e+00  0.000000e+00 -1.000000e+00
   outer loop
     vertex -7.031250e-01 -5.000000e-01  4.761513e-02
     vertex -7.031250e-01  0.000000e+00  4.761513e-02
     vertex -3.906250e-01  0.000000e+00  4.761513e-02
   endloop
 endfacet
 facet normal  1.000000e+00  0.000000e+00  0.000000e+00
   outer loop
     vertex -7.031250e-01 -5.000000e-01 -2.187500e-01
     vertex -7.031250e-01  0.000000e+00  4.761513e-02
     vertex -7.031250e-01 -5.000000e-01  4.761513e-02
   endloop
 endfacet
 facet normal  1.000000e+00  0.000000e+00  0.000000e+00
   outer loop
     vertex -7.031250e-01 -5.000000e-01 -2.187500e-01
     vertex -7.031250e-01  0.000000e+00 -2.187500e-01
     vertex -7.031250e-01  0.000000e+00  4.761513e-02
   endloop
 endfacet
 facet normal  0.000000e+00  0.000000e+00  1.000000e+00
   outer loop
     vertex -3.906250e-01 -5.000000e-01 -2.187500e-01
     vertex -7.031250e-01  0.000000e+00 -2.187500e-01
     vertex -7.031250e-01 -5.000000e-01 -2.187500e-01
   endloop
 endfacet
 facet normal  0.000000e+00 -0.000000e+00  1.000000e+00
   outer loop
     vertex -3.906250e-01 -5.000000e-01 -2.187500e-01
     vertex -3.906250e-01  0.000000e+00 -2.187500e-01
     vertex -7.031250e-01  0.000000e+00 -2.187500e-01
   endloop
 endfacet
 facet normal  0.000000e+00  0.000000e+00  1.000000e+00
   outer loop
     vertex  5.625000e-01 -5.000000e-01 -2.187500e-01
     vertex  2.421875e-01  0.000000e+00 -2.187500e-01
     vertex  2.421875e-01 -5.000000e-01 -2.187500e-01
   endloop
 endfacet
 facet normal  0.000000e+00 -0.000000e+00  1.000000e+00
   outer loop
     vertex  5.625000e-01 -5.000000e-01 -2.187500e-01
     vertex  5.625000e-01  0.000000e+00 -2.187500e-01
     vertex  2.421875e-01  0.000000e+00 -2.187500e-01
   endloop
 endfacet
 facet normal  1.000000e+00  0.000000e+00  0.000000e+00
   outer loop
     vertex  2.421875e-01 -5.000000e-01 -2.187500e-01
     vertex  2.421875e-01  0.000000e+00  4.761513e-02
     vertex  2.421875e-01 -5.000000e-01  4.761513e-02
   endloop
 endfacet
 facet normal  1.000000e+00  0.000000e+00  0.000000e+00
   outer loop
     vertex  2.421875e-01 -5.000000e-01 -2.187500e-01
     vertex  2.421875e-01  0.000000e+00 -2.187500e-01
     vertex  2.421875e-01  0.000000e+00  4.761513e-02
   endloop
 endfacet
 facet normal -1.000000e+00  0.000000e+00  0.000000e+00
   outer loop
     vertex  5.625000e-01 -5.000000e-01  4.761513e-02
     vertex  5.625000e-01  0.000000e+00 -2.187500e-01
     vertex  5.625000e-01 -5.000000e-01 -2.187500e-01
   endloop
 endfacet
 facet normal -1.000000e+00  0.000000e+00  0.000000e+00
   outer loop
     vertex  5.625000e-01 -5.000000e-01  4.761513e-02
     vertex  5.625000e-01  5.551115e-17  4.761513e-02
     vertex  5.625000e-01  0.000000e+00 -2.187500e-01
   endloop
 endfacet
 facet normal  0.000000e+00  0.000000e+00 -1.000000e+00
   outer loop
     vertex  2.421875e-01 -5.000000e-01  4.761513e-02
     vertex  5.625000e-01  5.551115e-17  4.761513e-02
     vertex  5.625000e-01 -5.000000e-01  4.761513e-02
   endloop
 endfacet
 facet normal  0.000000e+00  0.000000e+00 -1.000000e+00
   outer loop
     vertex  2.421875e-01 -5.000000e-01  4.761513e-02
     vertex  2.421875e-01  0.000000e+00  4.761513e-02
     vertex  5.625000e-01  5.551115e-17  4.761513e-02
   endloop
 endfacet
endsolid
