solid 
 facet normal  0.000000e+00  0.000000e+00 -1.000000e+00
   outer loop
     vertex -5.781250e-01  1.052431e-17  1.796875e-01
     vertex -7.500000e-01 -4.687500e-02  1.796875e-01
     vertex -7.500000e-01  0.000000e+00  1.796875e-01
   endloop
 endfacet
 facet normal  0.000000e+00 -0.000000e+00 -1.000000e+00
   outer loop
     vertex -5.781250e-01  1.052431e-17  1.796875e-01
     vertex -5.781250e-01 -4.687500e-02  1.796875e-01
     vertex -7.500000e-01 -4.687500e-02  1.796875e-01
   endloop
 endfacet
 facet normal  1.000000e+00  0.000000e+00  0.000000e+00
   outer loop
     vertex -5.781250e-01  2.104862e-17  3.515625e-01
     vertex -5.781250e-01 -4.687500e-02  1.796875e-01
     vertex -5.781250e-01  1.052431e-17  1.796875e-01
   endloop
 endfacet
 facet normal  1.000000e+00  0.000000e+00  0.000000e+00
   outer loop
     vertex -5.781250e-01  2.104862e-17  3.515625e-01
     vertex -5.781250e-01 -4.687500e-02  3.515625e-01
     vertex -5.781250e-01 -4.687500e-02  1.796875e-01
   endloop
 endfacet
 facet normal -0.000000e+00  0.000000e+00  1.000000e+00
   outer loop
     vertex -7.500000e-01  1.052431e-17  3.515625e-01
     vertex -5.781250e-01 -4.687500e-02  3.515625e-01
     vertex -5.781250e-01  2.104862e-17  3.515625e-01
   endloop
 endfacet
 facet normal  0.000000e+00  0.000000e+00  1.000000e+00
   outer loop
     vertex -7.500000e-01  1.052431e-17  3.515625e-01
     vertex -7.500000e-01 -4.687500e-02  3.515625e-01
     vertex -5.781250e-01 -4.687500e-02  3.515625e-01
   endloop
 endfacet
 facet normal -1.000000e+00  0.000000e+00  0.000000e+00
   outer loop
     vertex -7.500000e-01  0.000000e+00  1.796875e-01
     vertex -7.500000e-01 -4.687500e-02  3.515625e-01
     vertex -7.500000e-01  1.052431e-17  3.515625e-01
   endloop
 endfacet
 facet normal -1.000000e+00  0.000000e+00  0.000000e+00
   outer loop
     vertex -7.500000e-01  0.000000e+00  1.796875e-01
     vertex -7.500000e-01 -4.687500e-02  1.796875e-01
     vertex -7.500000e-01 -4.687500e-02  3.515625e-01
   endloop
 endfacet
 facet normal -6.123234e-17  1.000000e+00 -6.123234e-17
   outer loop
     vertex -5.781250e-01  2.104862e-17  3.515625e-01
     vertex -5.781250e-01  1.052431e-17  1.796875e-01
     vertex -7.500000e-01  0.000000e+00  1.796875e-01
   endloop
 endfacet
 facet normal -6.123234e-17  1.000000e+00 -6.123234e-17
   outer loop
     vertex -5.781250e-01  2.104862e-17  3.515625e-01
     vertex -7.500000e-01  0.000000e+00  1.796875e-01
     vertex -7.500000e-01  1.052431e-17  3.515625e-01
   endloop
 endfacet
 facet normal  0.000000e+00 -1.000000e+00 -0.000000e+00
   outer loop
     vertex -5.781250e-01 -4.687500e-02  3.515625e-01
     vertex -7.500000e-01 -4.687500e-02  1.796875e-01
     vertex -5.781250e-01 -4.687500e-02  1.796875e-01
   endloop
 endfacet
 facet normal -0.000000e+00 -1.000000e+00  0.000000e+00
   outer loop
     vertex -5.781250e-01 -4.687500e-02  3.515625e-01
     vertex -7.500000e-01 -4.687500e-02  3.515625e-01
     vertex -7.500000e-01 -4.687500e-02  1.796875e-01
   endloop
 endfacet
endsolid
