solid 
 facet normal  0.000000e+00 -1.000000e+00  0.000000e+00
   outer loop
     vertex  7.500000e-01 -4.843750e-01  0.000000e+00
     vertex -6.562500e-01 -4.843750e-01  5.000000e-01
     vertex -6.562500e-01 -4.843750e-01  0.000000e+00
   endloop
 endfacet
 facet normal  0.000000e+00 -1.000000e+00  0.000000e+00
   outer loop
     vertex  7.500000e-01 -4.843750e-01  0.000000e+00
     vertex  7.500000e-01 -4.843750e-01  5.000000e-01
     vertex -6.562500e-01 -4.843750e-01  5.000000e-01
   endloop
 endfacet
 facet normal  1.000000e+00  0.000000e+00  0.000000e+00
   outer loop
     vertex  7.500000e-01  3.001645e-01  0.000000e+00
     vertex  7.500000e-01 -4.843750e-01  5.000000e-01
     vertex  7.500000e-01 -4.843750e-01  0.000000e+00
   endloop
 endfacet
 facet normal  1.000000e+00  0.000000e+00 -0.000000e+00
   outer loop
     vertex  7.500000e-01  3.001645e-01  0.000000e+00
     vertex  7.500000e-01  3.001645e-01  5.000000e-01
     vertex  7.500000e-01 -4.843750e-01  5.000000e-01
   endloop
 endfacet
 facet normal  0.000000e+00  1.000000e+00  0.000000e+00
   outer loop
     vertex -2.417763e-01  3.001645e-01  0.000000e+00
     vertex  7.500000e-01  3.001645e-01  5.000000e-01
     vertex  7.500000e-01  3.001645e-01  0.000000e+00
   endloop
 endfacet
 facet normal  0.000000e+00  1.000000e+00  0.000000e+00
   outer loop
     vertex -2.417763e-01  3.001645e-01  0.000000e+00
     vertex -2.417763e-01  3.001645e-01  5.000000e-01
     vertex  7.500000e-01  3.001645e-01  5.000000e-01
   endloop
 endfacet
 facet normal -1.000000e+00  0.000000e+00  0.000000e+00
   outer loop
     vertex -2.417763e-01 -9.950658e-02  0.000000e+00
     vertex -2.417763e-01  3.001645e-01  5.000000e-01
     vertex -2.417763e-01  3.001645e-01  0.000000e+00
   endloop
 endfacet
 facet normal -1.000000e+00  0.000000e+00  0.000000e+00
   outer loop
     vertex -2.417763e-01 -9.950658e-02  0.000000e+00
     vertex -2.417763e-01 -9.950658e-02  5.000000e-01
     vertex -2.417763e-01  3.001645e-01  5.000000e-01
   endloop
 endfacet
 facet normal  0.000000e+00  1.000000e+00  0.000000e+00
   outer loop
     vertex -6.562500e-01 -9.950658e-02  0.000000e+00
     vertex -2.417763e-01 -9.950658e-02  5.000000e-01
     vertex -2.417763e-01 -9.950658e-02  0.000000e+00
   endloop
 endfacet
 facet normal  0.000000e+00  1.000000e+00  0.000000e+00
   outer loop
     vertex -6.562500e-01 -9.950658e-02  0.000000e+00
     vertex -6.562500e-01 -9.950658e-02  5.000000e-01
     vertex -2.417763e-01 -9.950658e-02  5.000000e-01
   endloop
 endfacet
 facet normal -1.000000e+00  0.000000e+00  0.000000e+00
   outer loop
     vertex -6.562500e-01 -4.843750e-01  0.000000e+00
     vertex -6.562500e-01 -9.950658e-02  5.000000e-01
     vertex -6.562500e-01 -9.950658e-02  0.000000e+00
   endloop
 endfacet
 facet normal -1.000000e+00  0.000000e+00  0.000000e+00
   outer loop
     vertex -6.562500e-01 -4.843750e-01  0.000000e+00
     vertex -6.562500e-01 -4.843750e-01  5.000000e-01
     vertex -6.562500e-01 -9.950658e-02  5.000000e-01
   endloop
 endfacet
 facet normal -0.000000e+00  0.000000e+00 -1.000000e+00
   outer loop
     vertex -2.417763e-01 -9.950658e-02  0.000000e+00
     vertex -6.562500e-01 -4.843750e-01  0.000000e+00
     vertex -6.562500e-01 -9.950658e-02  0.000000e+00
   endloop
 endfacet
 facet normal  0.000000e+00  0.000000e+00 -1.000000e+00
   outer loop
     vertex  7.500000e-01 -4.843750e-01  0.000000e+00
     vertex -6.562500e-01 -4.843750e-01  0.000000e+00
     vertex -2.417763e-01 -9.950658e-02  0.000000e+00
   endloop
 endfacet
 facet normal -0.000000e+00  0.000000e+00 -1.000000e+00
   outer loop
     vertex  7.500000e-01  3.001645e-01  0.000000e+00
     vertex -2.417763e-01 -9.950658e-02  0.000000e+00
     vertex -2.417763e-01  3.001645e-01  0.000000e+00
   endloop
 endfacet
 facet normal  0.000000e+00 -0.000000e+00 -1.000000e+00
   outer loop
     vertex  7.500000e-01  3.001645e-01  0.000000e+00
     vertex  7.500000e-01 -4.843750e-01  0.000000e+00
     vertex -2.417763e-01 -9.950658e-02  0.000000e+00
   endloop
 endfacet
 facet normal  0.000000e+00  0.000000e+00  1.000000e+00
   outer loop
     vertex -2.417763e-01 -9.950658e-02  5.000000e-01
     vertex -6.562500e-01 -9.950658e-02  5.000000e-01
     vertex -6.562500e-01 -4.843750e-01  5.000000e-01
   endloop
 endfacet
 facet normal  0.000000e+00  0.000000e+00  1.000000e+00
   outer loop
     vertex  7.500000e-01 -4.843750e-01  5.000000e-01
     vertex -2.417763e-01 -9.950658e-02  5.000000e-01
     vertex -6.562500e-01 -4.843750e-01  5.000000e-01
   endloop
 endfacet
 facet normal  0.000000e+00  0.000000e+00  1.000000e+00
   outer loop
     vertex  7.500000e-01  3.001645e-01  5.000000e-01
     vertex -2.417763e-01  3.001645e-01  5.000000e-01
     vertex -2.417763e-01 -9.950658e-02  5.000000e-01
   endloop
 endfacet
 facet normal  0.000000e+00  0.000000e+00  1.000000e+00
   outer loop
     vertex  7.500000e-01  3.001645e-01  5.000000e-01
     vertex -2.417763e-01 -9.950658e-02  5.000000e-01
     vertex  7.500000e-01 -4.843750e-01  5.000000e-01
   endloop
 endfacet
endsolid
