solid 
 facet normal  0.000000e+00  0.000000e+00 -1.000000e+00
   outer loop
     vertex  5.052632e-01  3.093845e-17 -7.500000e-01
     vertex  1.722160e-17 -2.812500e-01 -7.500000e-01
     vertex  0.000000e+00  0.000000e+00 -7.500000e-01
   endloop
 endfacet
 facet normal  0.000000e+00 -0.000000e+00 -1.000000e+00
   outer loop
     vertex  5.052632e-01  3.093845e-17 -7.500000e-01
     vertex  5.052632e-01 -2.812500e-01 -7.500000e-01
     vertex  1.722160e-17 -2.812500e-01 -7.500000e-01
   endloop
 endfacet
 facet normal  1.000000e+00  0.000000e+00  0.000000e+00
   outer loop
     vertex  5.052632e-01  1.227870e-16  7.500000e-01
     vertex  5.052632e-01 -2.812500e-01 -7.500000e-01
     vertex  5.052632e-01  3.093845e-17 -7.500000e-01
   endloop
 endfacet
 facet normal  1.000000e+00  0.000000e+00  0.000000e+00
   outer loop
     vertex  5.052632e-01  1.227870e-16  7.500000e-01
     vertex  5.052632e-01 -2.812500e-01  7.500000e-01
     vertex  5.052632e-01 -2.812500e-01 -7.500000e-01
   endloop
 endfacet
 facet normal -0.000000e+00  0.000000e+00  1.000000e+00
   outer loop
     vertex  9.184851e-17  9.184851e-17  7.500000e-01
     vertex  5.052632e-01 -2.812500e-01  7.500000e-01
     vertex  5.052632e-01  1.227870e-16  7.500000e-01
   endloop
 endfacet
 facet normal  0.000000e+00  0.000000e+00  1.000000e+00
   outer loop
     vertex  9.184851e-17  9.184851e-17  7.500000e-01
     vertex  1.090701e-16 -2.812500e-01  7.500000e-01
     vertex  5.052632e-01 -2.812500e-01  7.500000e-01
   endloop
 endfacet
 facet normal -1.000000e+00 -6.123234e-17  6.123234e-17
   outer loop
     vertex  0.000000e+00  0.000000e+00 -7.500000e-01
     vertex  1.090701e-16 -2.812500e-01  7.500000e-01
     vertex  9.184851e-17  9.184851e-17  7.500000e-01
   endloop
 endfacet
 facet normal -1.000000e+00 -6.123234e-17  6.123234e-17
   outer loop
     vertex  0.000000e+00  0.000000e+00 -7.500000e-01
     vertex  1.722160e-17 -2.812500e-01 -7.500000e-01
     vertex  1.090701e-16 -2.812500e-01  7.500000e-01
   endloop
 endfacet
 facet normal  3.420201e-01  0.000000e+00  9.396926e-01
   outer loop
     vertex  1.714374e-01  2.004168e-17 -5.941319e-01
     vertex  2.526316e-01 -2.812500e-01 -6.236842e-01
     vertex  2.526316e-01  2.320383e-17 -6.236842e-01
   endloop
 endfacet
 facet normal  3.420201e-01  0.000000e+00  9.396926e-01
   outer loop
     vertex  1.714374e-01  2.004168e-17 -5.941319e-01
     vertex  1.714374e-01 -2.812500e-01 -5.941319e-01
     vertex  2.526316e-01 -2.812500e-01 -6.236842e-01
   endloop
 endfacet
 facet normal  8.660254e-01  0.000000e+00  5.000000e-01
   outer loop
     vertex  1.282348e-01  2.197824e-17 -5.193029e-01
     vertex  1.282348e-01 -2.812500e-01 -5.193029e-01
     vertex  1.714374e-01 -2.812500e-01 -5.941319e-01
   endloop
 endfacet
 facet normal  8.660254e-01  0.000000e+00  5.000000e-01
   outer loop
     vertex  1.282348e-01  2.197824e-17 -5.193029e-01
     vertex  1.714374e-01 -2.812500e-01 -5.941319e-01
     vertex  1.714374e-01  2.004168e-17 -5.941319e-01
   endloop
 endfacet
 facet normal  9.848078e-01  0.000000e+00 -1.736482e-01
   outer loop
     vertex  1.432389e-01  2.810738e-17 -4.342105e-01
     vertex  1.432389e-01 -2.812500e-01 -4.342105e-01
     vertex  1.282348e-01 -2.812500e-01 -5.193029e-01
   endloop
 endfacet
 facet normal  9.848078e-01  0.000000e+00 -1.736482e-01
   outer loop
     vertex  1.432389e-01  2.810738e-17 -4.342105e-01
     vertex  1.282348e-01 -2.812500e-01 -5.193029e-01
     vertex  1.282348e-01  2.197824e-17 -5.193029e-01
   endloop
 endfacet
 facet normal  6.427876e-01  0.000000e+00 -7.660444e-01
   outer loop
     vertex  2.094290e-01  3.556121e-17 -3.786704e-01
     vertex  2.094290e-01 -2.812500e-01 -3.786704e-01
     vertex  1.432389e-01 -2.812500e-01 -4.342105e-01
   endloop
 endfacet
 facet normal  6.427876e-01  0.000000e+00 -7.660444e-01
   outer loop
     vertex  2.094290e-01  3.556121e-17 -3.786704e-01
     vertex  1.432389e-01 -2.812500e-01 -4.342105e-01
     vertex  1.432389e-01  2.810738e-17 -4.342105e-01
   endloop
 endfacet
 facet normal  0.000000e+00 -0.000000e+00 -1.000000e+00
   outer loop
     vertex  2.958341e-01  4.085200e-17 -3.786704e-01
     vertex  2.958341e-01 -2.812500e-01 -3.786704e-01
     vertex  2.094290e-01 -2.812500e-01 -3.786704e-01
   endloop
 endfacet
 facet normal  0.000000e+00  0.000000e+00 -1.000000e+00
   outer loop
     vertex  2.958341e-01  4.085200e-17 -3.786704e-01
     vertex  2.094290e-01 -2.812500e-01 -3.786704e-01
     vertex  2.094290e-01  3.556121e-17 -3.786704e-01
   endloop
 endfacet
 facet normal -6.427876e-01 -0.000000e+00 -7.660444e-01
   outer loop
     vertex  3.620243e-01  4.150412e-17 -4.342105e-01
     vertex  3.620243e-01 -2.812500e-01 -4.342105e-01
     vertex  2.958341e-01 -2.812500e-01 -3.786704e-01
   endloop
 endfacet
 facet normal -6.427876e-01  0.000000e+00 -7.660444e-01
   outer loop
     vertex  3.620243e-01  4.150412e-17 -4.342105e-01
     vertex  2.958341e-01 -2.812500e-01 -3.786704e-01
     vertex  2.958341e-01  4.085200e-17 -3.786704e-01
   endloop
 endfacet
 facet normal -9.848078e-01 -0.000000e+00 -1.736482e-01
   outer loop
     vertex  3.770283e-01  3.721245e-17 -5.193029e-01
     vertex  3.770283e-01 -2.812500e-01 -5.193029e-01
     vertex  3.620243e-01 -2.812500e-01 -4.342105e-01
   endloop
 endfacet
 facet normal -9.848078e-01  0.000000e+00 -1.736482e-01
   outer loop
     vertex  3.770283e-01  3.721245e-17 -5.193029e-01
     vertex  3.620243e-01 -2.812500e-01 -4.342105e-01
     vertex  3.620243e-01  4.150412e-17 -4.342105e-01
   endloop
 endfacet
 facet normal -3.420201e-01  0.000000e+00  9.396926e-01
   outer loop
     vertex  3.338258e-01  2.998510e-17 -5.941319e-01
     vertex  2.526316e-01 -2.812500e-01 -6.236842e-01
     vertex  3.338258e-01 -2.812500e-01 -5.941319e-01
   endloop
 endfacet
 facet normal -8.660254e-01  0.000000e+00  5.000000e-01
   outer loop
     vertex  3.338258e-01  2.998510e-17 -5.941319e-01
     vertex  3.338258e-01 -2.812500e-01 -5.941319e-01
     vertex  3.770283e-01 -2.812500e-01 -5.193029e-01
   endloop
 endfacet
 facet normal -8.660254e-01  0.000000e+00  5.000000e-01
   outer loop
     vertex  3.338258e-01  2.998510e-17 -5.941319e-01
     vertex  3.770283e-01 -2.812500e-01 -5.193029e-01
     vertex  3.770283e-01  3.721245e-17 -5.193029e-01
   endloop
 endfacet
 facet normal -3.420201e-01  0.000000e+00  9.396926e-01
   outer loop
     vertex  2.526316e-01  2.320383e-17 -6.236842e-01
     vertex  2.526316e-01 -2.812500e-01 -6.236842e-01
     vertex  3.338258e-01  2.998510e-17 -5.941319e-01
   endloop
 endfacet
 facet normal -6.123234e-17  1.000000e+00 -6.123234e-17
   outer loop
     vertex  1.282348e-01  2.197824e-17 -5.193029e-01
     vertex  1.714374e-01  2.004168e-17 -5.941319e-01
     vertex  0.000000e+00  0.000000e+00 -7.500000e-01
   endloop
 endfacet
 facet normal -6.123234e-17  1.000000e+00 -6.123234e-17
   outer loop
     vertex  2.526316e-01  2.320383e-17 -6.236842e-01
     vertex  0.000000e+00  0.000000e+00 -7.500000e-01
     vertex  1.714374e-01  2.004168e-17 -5.941319e-01
   endloop
 endfacet
 facet normal -6.123234e-17  1.000000e+00 -6.123234e-17
   outer loop
     vertex  1.432389e-01  2.810738e-17 -4.342105e-01
     vertex  1.282348e-01  2.197824e-17 -5.193029e-01
     vertex  0.000000e+00  0.000000e+00 -7.500000e-01
   endloop
 endfacet
 facet normal -6.123234e-17  1.000000e+00 -6.123234e-17
   outer loop
     vertex  5.052632e-01  3.093845e-17 -7.500000e-01
     vertex  2.526316e-01  2.320383e-17 -6.236842e-01
     vertex  3.338258e-01  2.998510e-17 -5.941319e-01
   endloop
 endfacet
 facet normal -6.123234e-17  1.000000e+00 -6.123234e-17
   outer loop
     vertex  5.052632e-01  3.093845e-17 -7.500000e-01
     vertex  0.000000e+00  0.000000e+00 -7.500000e-01
     vertex  2.526316e-01  2.320383e-17 -6.236842e-01
   endloop
 endfacet
 facet normal -6.123234e-17  1.000000e+00 -6.123234e-17
   outer loop
     vertex  3.770283e-01  3.721245e-17 -5.193029e-01
     vertex  5.052632e-01  3.093845e-17 -7.500000e-01
     vertex  3.338258e-01  2.998510e-17 -5.941319e-01
   endloop
 endfacet
 facet normal -6.123234e-17  1.000000e+00 -6.123234e-17
   outer loop
     vertex  3.620243e-01  4.150412e-17 -4.342105e-01
     vertex  5.052632e-01  3.093845e-17 -7.500000e-01
     vertex  3.770283e-01  3.721245e-17 -5.193029e-01
   endloop
 endfacet
 facet normal -6.123234e-17  1.000000e+00 -6.123234e-17
   outer loop
     vertex  9.184851e-17  9.184851e-17  7.500000e-01
     vertex  2.958341e-01  4.085200e-17 -3.786704e-01
     vertex  2.094290e-01  3.556121e-17 -3.786704e-01
   endloop
 endfacet
 facet normal -6.123234e-17  1.000000e+00 -6.123234e-17
   outer loop
     vertex  9.184851e-17  9.184851e-17  7.500000e-01
     vertex  2.094290e-01  3.556121e-17 -3.786704e-01
     vertex  1.432389e-01  2.810738e-17 -4.342105e-01
   endloop
 endfacet
 facet normal -6.123234e-17  1.000000e+00 -6.123234e-17
   outer loop
     vertex  9.184851e-17  9.184851e-17  7.500000e-01
     vertex  1.432389e-01  2.810738e-17 -4.342105e-01
     vertex  0.000000e+00  0.000000e+00 -7.500000e-01
   endloop
 endfacet
 facet normal -6.123234e-17  1.000000e+00 -6.123234e-17
   outer loop
     vertex  5.052632e-01  1.227870e-16  7.500000e-01
     vertex  3.620243e-01  4.150412e-17 -4.342105e-01
     vertex  2.958341e-01  4.085200e-17 -3.786704e-01
   endloop
 endfacet
 facet normal -6.123234e-17  1.000000e+00 -6.123234e-17
   outer loop
     vertex  5.052632e-01  1.227870e-16  7.500000e-01
     vertex  2.958341e-01  4.085200e-17 -3.786704e-01
     vertex  9.184851e-17  9.184851e-17  7.500000e-01
   endloop
 endfacet
 facet normal -6.123234e-17  1.000000e+00 -6.123234e-17
   outer loop
     vertex  5.052632e-01  1.227870e-16  7.500000e-01
     vertex  5.052632e-01  3.093845e-17 -7.500000e-01
     vertex  3.620243e-01  4.150412e-17 -4.342105e-01
   endloop
 endfacet
 facet normal  0.000000e+00 -1.000000e+00 -0.000000e+00
   outer loop
     vertex  1.282348e-01 -2.812500e-01 -5.193029e-01
     vertex  1.722160e-17 -2.812500e-01 -7.500000e-01
     vertex  1.714374e-01 -2.812500e-01 -5.941319e-01
   endloop
 endfacet
 facet normal -0.000000e+00 -1.000000e+00  0.000000e+00
   outer loop
     vertex  2.526316e-01 -2.812500e-01 -6.236842e-01
     vertex  1.714374e-01 -2.812500e-01 -5.941319e-01
     vertex  1.722160e-17 -2.812500e-01 -7.500000e-01
   endloop
 endfacet
 facet normal  0.000000e+00 -1.000000e+00  0.000000e+00
   outer loop
     vertex  1.432389e-01 -2.812500e-01 -4.342105e-01
     vertex  1.722160e-17 -2.812500e-01 -7.500000e-01
     vertex  1.282348e-01 -2.812500e-01 -5.193029e-01
   endloop
 endfacet
 facet normal  0.000000e+00 -1.000000e+00  0.000000e+00
   outer loop
     vertex  5.052632e-01 -2.812500e-01 -7.500000e-01
     vertex  3.338258e-01 -2.812500e-01 -5.941319e-01
     vertex  2.526316e-01 -2.812500e-01 -6.236842e-01
   endloop
 endfacet
 facet normal  0.000000e+00 -1.000000e+00  0.000000e+00
   outer loop
     vertex  5.052632e-01 -2.812500e-01 -7.500000e-01
     vertex  2.526316e-01 -2.812500e-01 -6.236842e-01
     vertex  1.722160e-17 -2.812500e-01 -7.500000e-01
   endloop
 endfacet
 facet normal  0.000000e+00 -1.000000e+00 -0.000000e+00
   outer loop
     vertex  3.770283e-01 -2.812500e-01 -5.193029e-01
     vertex  3.338258e-01 -2.812500e-01 -5.941319e-01
     vertex  5.052632e-01 -2.812500e-01 -7.500000e-01
   endloop
 endfacet
 facet normal  0.000000e+00 -1.000000e+00  0.000000e+00
   outer loop
     vertex  3.620243e-01 -2.812500e-01 -4.342105e-01
     vertex  3.770283e-01 -2.812500e-01 -5.193029e-01
     vertex  5.052632e-01 -2.812500e-01 -7.500000e-01
   endloop
 endfacet
 facet normal  0.000000e+00 -1.000000e+00  0.000000e+00
   outer loop
     vertex  1.090701e-16 -2.812500e-01  7.500000e-01
     vertex  2.094290e-01 -2.812500e-01 -3.786704e-01
     vertex  2.958341e-01 -2.812500e-01 -3.786704e-01
   endloop
 endfacet
 facet normal  0.000000e+00 -1.000000e+00  0.000000e+00
   outer loop
     vertex  1.090701e-16 -2.812500e-01  7.500000e-01
     vertex  1.432389e-01 -2.812500e-01 -4.342105e-01
     vertex  2.094290e-01 -2.812500e-01 -3.786704e-01
   endloop
 endfacet
 facet normal  0.000000e+00 -1.000000e+00 -0.000000e+00
   outer loop
     vertex  1.090701e-16 -2.812500e-01  7.500000e-01
     vertex  1.722160e-17 -2.812500e-01 -7.500000e-01
     vertex  1.432389e-01 -2.812500e-01 -4.342105e-01
   endloop
 endfacet
 facet normal  0.000000e+00 -1.000000e+00  0.000000e+00
   outer loop
     vertex  5.052632e-01 -2.812500e-01  7.500000e-01
     vertex  2.958341e-01 -2.812500e-01 -3.786704e-01
     vertex  3.620243e-01 -2.812500e-01 -4.342105e-01
   endloop
 endfacet
 facet normal -0.000000e+00 -1.000000e+00  0.000000e+00
   outer loop
     vertex  5.052632e-01 -2.812500e-01  7.500000e-01
     vertex  1.090701e-16 -2.812500e-01  7.500000e-01
     vertex  2.958341e-01 -2.812500e-01 -3.786704e-01
   endloop
 endfacet
 facet normal  0.000000e+00 -1.000000e+00 -0.000000e+00
   outer loop
     vertex  5.052632e-01 -2.812500e-01  7.500000e-01
     vertex  3.620243e-01 -2.812500e-01 -4.342105e-01
     vertex  5.052632e-01 -2.812500e-01 -7.500000e-01
   endloop
 endfacet
endsolid
