solid 
 facet normal -6.123234e-17 -6.123234e-17 -1.000000e+00
   outer loop
     vertex -8.223684e-05  2.247871e-17 -2.247871e-17
     vertex -3.671875e-01  0.000000e+00  0.000000e+00
     vertex -3.671875e-01  1.796875e-01 -1.100269e-17
   endloop
 endfacet
 facet normal -6.123234e-17 -6.123234e-17 -1.000000e+00
   outer loop
     vertex -8.223684e-05  2.247871e-17 -2.247871e-17
     vertex -3.671875e-01  1.796875e-01 -1.100269e-17
     vertex -8.223684e-05  1.796875e-01 -3.348140e-17
   endloop
 endfacet
 facet normal -1.000000e+00  0.000000e+00  0.000000e+00
   outer loop
     vertex -3.671875e-01  0.000000e+00  0.000000e+00
     vertex -3.671875e-01  1.966887e-17  3.212171e-01
     vertex -3.671875e-01  1.796875e-01  3.212171e-01
   endloop
 endfacet
 facet normal -1.000000e+00  0.000000e+00  0.000000e+00
   outer loop
     vertex -3.671875e-01  0.000000e+00  0.000000e+00
     vertex -3.671875e-01  1.796875e-01  3.212171e-01
     vertex -3.671875e-01  1.796875e-01 -1.100269e-17
   endloop
 endfacet
 facet normal -6.123234e-17 -6.123234e-17 -1.000000e+00
   outer loop
     vertex  3.593750e-01  4.448912e-17 -4.448912e-17
     vertex -8.223684e-05  2.247871e-17 -2.247871e-17
     vertex -8.223684e-05  1.796875e-01 -3.348140e-17
   endloop
 endfacet
 facet normal -6.123234e-17 -6.123234e-17 -1.000000e+00
   outer loop
     vertex  3.593750e-01  4.448912e-17 -4.448912e-17
     vertex -8.223684e-05  1.796875e-01 -3.348140e-17
     vertex  3.593750e-01  1.796875e-01 -5.549181e-17
   endloop
 endfacet
 facet normal  6.123234e-17 -1.000000e+00  6.123234e-17
   outer loop
     vertex -7.382309e-02  2.616313e-17  1.339118e-01
     vertex -3.671875e-01  0.000000e+00  0.000000e+00
     vertex -8.223684e-05  2.247871e-17 -2.247871e-17
   endloop
 endfacet
 facet normal  6.123234e-17 -1.000000e+00  6.123234e-17
   outer loop
     vertex -1.130598e-01  2.792192e-17  2.018718e-01
     vertex -3.671875e-01  1.966887e-17  3.212171e-01
     vertex -3.671875e-01  0.000000e+00  0.000000e+00
   endloop
 endfacet
 facet normal  6.123234e-17 -1.000000e+00  6.123234e-17
   outer loop
     vertex -1.130598e-01  2.792192e-17  2.018718e-01
     vertex -3.671875e-01  0.000000e+00  0.000000e+00
     vertex -7.382309e-02  2.616313e-17  1.339118e-01
   endloop
 endfacet
 facet normal  6.123234e-17 -1.000000e+00  6.123234e-17
   outer loop
     vertex -8.223684e-05  2.903501e-17  1.070724e-01
     vertex -7.382309e-02  2.616313e-17  1.339118e-01
     vertex -8.223684e-05  2.247871e-17 -2.247871e-17
   endloop
 endfacet
 facet normal  6.123234e-17 -1.000000e+00  6.123234e-17
   outer loop
     vertex -9.943301e-02  3.348842e-17  2.791530e-01
     vertex -3.671875e-01  1.966887e-17  3.212171e-01
     vertex -1.130598e-01  2.792192e-17  2.018718e-01
   endloop
 endfacet
 facet normal  6.123234e-17 -1.000000e+00  6.123234e-17
   outer loop
     vertex  7.365861e-02  3.519377e-17  1.339118e-01
     vertex -8.223684e-05  2.903501e-17  1.070724e-01
     vertex -8.223684e-05  2.247871e-17 -2.247871e-17
   endloop
 endfacet
 facet normal  6.123234e-17 -1.000000e+00  6.123234e-17
   outer loop
     vertex -1.453947e-01  3.886944e-17  4.129934e-01
     vertex -3.671875e-01  1.966887e-17  3.212171e-01
     vertex -9.943301e-02  3.348842e-17  2.791530e-01
   endloop
 endfacet
 facet normal  6.123234e-17 -1.000000e+00  6.123234e-17
   outer loop
     vertex -1.759868e-01  3.886944e-17  4.435855e-01
     vertex -3.671875e-01  1.966887e-17  3.212171e-01
     vertex -1.453947e-01  3.886944e-17  4.129934e-01
   endloop
 endfacet
 facet normal  6.123234e-17 -1.000000e+00  6.123234e-17
   outer loop
     vertex -3.931892e-02  4.025801e-17  3.295947e-01
     vertex -1.453947e-01  3.886944e-17  4.129934e-01
     vertex -9.943301e-02  3.348842e-17  2.791530e-01
   endloop
 endfacet
 facet normal  6.123234e-17 -1.000000e+00  6.123234e-17
   outer loop
     vertex -1.148026e-01  4.261590e-17  4.435855e-01
     vertex -1.453947e-01  3.886944e-17  4.129934e-01
     vertex -3.931892e-02  4.025801e-17  3.295947e-01
   endloop
 endfacet
 facet normal  6.123234e-17 -1.000000e+00  6.123234e-17
   outer loop
     vertex -1.989309e-01  4.448912e-17  5.583059e-01
     vertex -1.759868e-01  3.886944e-17  4.435855e-01
     vertex -1.453947e-01  4.261590e-17  4.741776e-01
   endloop
 endfacet
 facet normal  6.123234e-17 -1.000000e+00  6.123234e-17
   outer loop
     vertex -1.989309e-01  4.448912e-17  5.583059e-01
     vertex -3.671875e-01  1.966887e-17  3.212171e-01
     vertex -1.759868e-01  3.886944e-17  4.435855e-01
   endloop
 endfacet
 facet normal  6.123234e-17 -1.000000e+00  6.123234e-17
   outer loop
     vertex  3.593750e-01  4.448912e-17 -4.448912e-17
     vertex  1.128953e-01  4.175767e-17  2.018718e-01
     vertex  7.365861e-02  3.519377e-17  1.339118e-01
   endloop
 endfacet
 facet normal  6.123234e-17 -1.000000e+00  6.123234e-17
   outer loop
     vertex  3.593750e-01  4.448912e-17 -4.448912e-17
     vertex  7.365861e-02  3.519377e-17  1.339118e-01
     vertex -8.223684e-05  2.247871e-17 -2.247871e-17
   endloop
 endfacet
 facet normal  6.123234e-17 -1.000000e+00  6.123234e-17
   outer loop
     vertex  1.375822e-01  5.619679e-17  4.129934e-01
     vertex  3.915445e-02  4.506312e-17  3.295947e-01
     vertex  9.926854e-02  4.565538e-17  2.791530e-01
   endloop
 endfacet
 facet normal  6.123234e-17 -1.000000e+00  6.123234e-17
   outer loop
     vertex  1.069901e-01  5.619679e-17  4.435855e-01
     vertex -3.931892e-02  4.025801e-17  3.295947e-01
     vertex  3.915445e-02  4.506312e-17  3.295947e-01
   endloop
 endfacet
 facet normal  6.123234e-17 -1.000000e+00  6.123234e-17
   outer loop
     vertex  1.069901e-01  5.619679e-17  4.435855e-01
     vertex -1.148026e-01  4.261590e-17  4.435855e-01
     vertex -3.931892e-02  4.025801e-17  3.295947e-01
   endloop
 endfacet
 facet normal  6.123234e-17 -1.000000e+00  6.123234e-17
   outer loop
     vertex  1.069901e-01  5.619679e-17  4.435855e-01
     vertex  3.915445e-02  4.506312e-17  3.295947e-01
     vertex  1.375822e-01  5.619679e-17  4.129934e-01
   endloop
 endfacet
 facet normal  6.123234e-17 -1.000000e+00  6.123234e-17
   outer loop
     vertex -8.223684e-05  5.666509e-17  5.583059e-01
     vertex -1.453947e-01  4.261590e-17  4.741776e-01
     vertex -1.148026e-01  4.261590e-17  4.435855e-01
   endloop
 endfacet
 facet normal  6.123234e-17 -1.000000e+00  6.123234e-17
   outer loop
     vertex -8.223684e-05  5.666509e-17  5.583059e-01
     vertex -1.989309e-01  4.448912e-17  5.583059e-01
     vertex -1.453947e-01  4.261590e-17  4.741776e-01
   endloop
 endfacet
 facet normal  6.123234e-17 -1.000000e+00  6.123234e-17
   outer loop
     vertex -8.223684e-05  5.666509e-17  5.583059e-01
     vertex -1.148026e-01  4.261590e-17  4.435855e-01
     vertex  1.069901e-01  5.619679e-17  4.435855e-01
   endloop
 endfacet
 facet normal  6.123234e-17 -1.000000e+00  6.123234e-17
   outer loop
     vertex  1.375822e-01  5.994324e-17  4.741776e-01
     vertex -8.223684e-05  5.666509e-17  5.583059e-01
     vertex  1.069901e-01  5.619679e-17  4.435855e-01
   endloop
 endfacet
 facet normal  6.123234e-17 -1.000000e+00  6.123234e-17
   outer loop
     vertex  3.593750e-01  6.415800e-17  3.212171e-01
     vertex  9.926854e-02  4.565538e-17  2.791530e-01
     vertex  1.128953e-01  4.175767e-17  2.018718e-01
   endloop
 endfacet
 facet normal  6.123234e-17 -1.000000e+00  6.123234e-17
   outer loop
     vertex  3.593750e-01  6.415800e-17  3.212171e-01
     vertex  1.681743e-01  5.994324e-17  4.435855e-01
     vertex  1.375822e-01  5.619679e-17  4.129934e-01
   endloop
 endfacet
 facet normal  6.123234e-17 -1.000000e+00  6.123234e-17
   outer loop
     vertex  3.593750e-01  6.415800e-17  3.212171e-01
     vertex  1.128953e-01  4.175767e-17  2.018718e-01
     vertex  3.593750e-01  4.448912e-17 -4.448912e-17
   endloop
 endfacet
 facet normal  6.123234e-17 -1.000000e+00  6.123234e-17
   outer loop
     vertex  3.593750e-01  6.415800e-17  3.212171e-01
     vertex  1.375822e-01  5.619679e-17  4.129934e-01
     vertex  9.926854e-02  4.565538e-17  2.791530e-01
   endloop
 endfacet
 facet normal  6.123234e-17 -1.000000e+00  6.123234e-17
   outer loop
     vertex  1.911184e-01  6.837276e-17  5.583059e-01
     vertex  1.375822e-01  5.994324e-17  4.741776e-01
     vertex  1.681743e-01  5.994324e-17  4.435855e-01
   endloop
 endfacet
 facet normal  6.123234e-17 -1.000000e+00  6.123234e-17
   outer loop
     vertex  1.911184e-01  6.837276e-17  5.583059e-01
     vertex -8.223684e-05  5.666509e-17  5.583059e-01
     vertex  1.375822e-01  5.994324e-17  4.741776e-01
   endloop
 endfacet
 facet normal  6.123234e-17 -1.000000e+00  6.123234e-17
   outer loop
     vertex  1.911184e-01  6.837276e-17  5.583059e-01
     vertex  1.681743e-01  5.994324e-17  4.435855e-01
     vertex  3.593750e-01  6.415800e-17  3.212171e-01
   endloop
 endfacet
 facet normal  0.000000e+00  1.000000e+00  0.000000e+00
   outer loop
     vertex -7.382309e-02  1.796875e-01  1.339118e-01
     vertex -8.223684e-05  1.796875e-01 -3.348140e-17
     vertex -3.671875e-01  1.796875e-01 -1.100269e-17
   endloop
 endfacet
 facet normal  0.000000e+00  1.000000e+00  0.000000e+00
   outer loop
     vertex -1.130598e-01  1.796875e-01  2.018718e-01
     vertex -3.671875e-01  1.796875e-01 -1.100269e-17
     vertex -3.671875e-01  1.796875e-01  3.212171e-01
   endloop
 endfacet
 facet normal  0.000000e+00  1.000000e+00  0.000000e+00
   outer loop
     vertex -1.130598e-01  1.796875e-01  2.018718e-01
     vertex -7.382309e-02  1.796875e-01  1.339118e-01
     vertex -3.671875e-01  1.796875e-01 -1.100269e-17
   endloop
 endfacet
 facet normal  0.000000e+00  1.000000e+00  0.000000e+00
   outer loop
     vertex -8.223684e-05  1.796875e-01  1.070724e-01
     vertex -8.223684e-05  1.796875e-01 -3.348140e-17
     vertex -7.382309e-02  1.796875e-01  1.339118e-01
   endloop
 endfacet
 facet normal  0.000000e+00  1.000000e+00  0.000000e+00
   outer loop
     vertex -9.943301e-02  1.796875e-01  2.791530e-01
     vertex -1.130598e-01  1.796875e-01  2.018718e-01
     vertex -3.671875e-01  1.796875e-01  3.212171e-01
   endloop
 endfacet
 facet normal  0.000000e+00  1.000000e+00  0.000000e+00
   outer loop
     vertex  7.365861e-02  1.796875e-01  1.339118e-01
     vertex -8.223684e-05  1.796875e-01 -3.348140e-17
     vertex -8.223684e-05  1.796875e-01  1.070724e-01
   endloop
 endfacet
 facet normal  0.000000e+00  1.000000e+00  0.000000e+00
   outer loop
     vertex -1.453947e-01  1.796875e-01  4.129934e-01
     vertex -9.943301e-02  1.796875e-01  2.791530e-01
     vertex -3.671875e-01  1.796875e-01  3.212171e-01
   endloop
 endfacet
 facet normal  0.000000e+00  1.000000e+00  0.000000e+00
   outer loop
     vertex -1.759868e-01  1.796875e-01  4.435855e-01
     vertex -1.453947e-01  1.796875e-01  4.129934e-01
     vertex -3.671875e-01  1.796875e-01  3.212171e-01
   endloop
 endfacet
 facet normal  0.000000e+00  1.000000e+00  0.000000e+00
   outer loop
     vertex -3.931892e-02  1.796875e-01  3.295947e-01
     vertex -9.943301e-02  1.796875e-01  2.791530e-01
     vertex -1.453947e-01  1.796875e-01  4.129934e-01
   endloop
 endfacet
 facet normal  0.000000e+00  1.000000e+00  0.000000e+00
   outer loop
     vertex -1.148026e-01  1.796875e-01  4.435855e-01
     vertex -3.931892e-02  1.796875e-01  3.295947e-01
     vertex -1.453947e-01  1.796875e-01  4.129934e-01
   endloop
 endfacet
 facet normal  0.000000e+00  1.000000e+00  0.000000e+00
   outer loop
     vertex -1.989309e-01  1.796875e-01  5.583059e-01
     vertex -1.453947e-01  1.796875e-01  4.741776e-01
     vertex -1.759868e-01  1.796875e-01  4.435855e-01
   endloop
 endfacet
 facet normal  0.000000e+00  1.000000e+00  0.000000e+00
   outer loop
     vertex -1.989309e-01  1.796875e-01  5.583059e-01
     vertex -1.759868e-01  1.796875e-01  4.435855e-01
     vertex -3.671875e-01  1.796875e-01  3.212171e-01
   endloop
 endfacet
 facet normal  0.000000e+00  1.000000e+00  0.000000e+00
   outer loop
     vertex  3.593750e-01  1.796875e-01 -5.549181e-17
     vertex  7.365861e-02  1.796875e-01  1.339118e-01
     vertex  1.128953e-01  1.796875e-01  2.018718e-01
   endloop
 endfacet
 facet normal  0.000000e+00  1.000000e+00  0.000000e+00
   outer loop
     vertex  3.593750e-01  1.796875e-01 -5.549181e-17
     vertex -8.223684e-05  1.796875e-01 -3.348140e-17
     vertex  7.365861e-02  1.796875e-01  1.339118e-01
   endloop
 endfacet
 facet normal  0.000000e+00  1.000000e+00  0.000000e+00
   outer loop
     vertex  1.375822e-01  1.796875e-01  4.129934e-01
     vertex  9.926854e-02  1.796875e-01  2.791530e-01
     vertex  3.915445e-02  1.796875e-01  3.295947e-01
   endloop
 endfacet
 facet normal  0.000000e+00  1.000000e+00  0.000000e+00
   outer loop
     vertex  1.069901e-01  1.796875e-01  4.435855e-01
     vertex  3.915445e-02  1.796875e-01  3.295947e-01
     vertex -3.931892e-02  1.796875e-01  3.295947e-01
   endloop
 endfacet
 facet normal  0.000000e+00  1.000000e+00  0.000000e+00
   outer loop
     vertex  1.069901e-01  1.796875e-01  4.435855e-01
     vertex -3.931892e-02  1.796875e-01  3.295947e-01
     vertex -1.148026e-01  1.796875e-01  4.435855e-01
   endloop
 endfacet
 facet normal  0.000000e+00  1.000000e+00  0.000000e+00
   outer loop
     vertex  1.069901e-01  1.796875e-01  4.435855e-01
     vertex  1.375822e-01  1.796875e-01  4.129934e-01
     vertex  3.915445e-02  1.796875e-01  3.295947e-01
   endloop
 endfacet
 facet normal  0.000000e+00  1.000000e+00  0.000000e+00
   outer loop
     vertex -8.223684e-05  1.796875e-01  5.583059e-01
     vertex -1.148026e-01  1.796875e-01  4.435855e-01
     vertex -1.453947e-01  1.796875e-01  4.741776e-01
   endloop
 endfacet
 facet normal  0.000000e+00  1.000000e+00  0.000000e+00
   outer loop
     vertex -8.223684e-05  1.796875e-01  5.583059e-01
     vertex -1.453947e-01  1.796875e-01  4.741776e-01
     vertex -1.989309e-01  1.796875e-01  5.583059e-01
   endloop
 endfacet
 facet normal  0.000000e+00  1.000000e+00  0.000000e+00
   outer loop
     vertex -8.223684e-05  1.796875e-01  5.583059e-01
     vertex  1.069901e-01  1.796875e-01  4.435855e-01
     vertex -1.148026e-01  1.796875e-01  4.435855e-01
   endloop
 endfacet
 facet normal  0.000000e+00  1.000000e+00  0.000000e+00
   outer loop
     vertex  1.375822e-01  1.796875e-01  4.741776e-01
     vertex  1.069901e-01  1.796875e-01  4.435855e-01
     vertex -8.223684e-05  1.796875e-01  5.583059e-01
   endloop
 endfacet
 facet normal  0.000000e+00  1.000000e+00  0.000000e+00
   outer loop
     vertex  3.593750e-01  1.796875e-01  3.212171e-01
     vertex  1.128953e-01  1.796875e-01  2.018718e-01
     vertex  9.926854e-02  1.796875e-01  2.791530e-01
   endloop
 endfacet
 facet normal  0.000000e+00  1.000000e+00  0.000000e+00
   outer loop
     vertex  3.593750e-01  1.796875e-01  3.212171e-01
     vertex  1.375822e-01  1.796875e-01  4.129934e-01
     vertex  1.681743e-01  1.796875e-01  4.435855e-01
   endloop
 endfacet
 facet normal  0.000000e+00  1.000000e+00  0.000000e+00
   outer loop
     vertex  3.593750e-01  1.796875e-01  3.212171e-01
     vertex  3.593750e-01  1.796875e-01 -5.549181e-17
     vertex  1.128953e-01  1.796875e-01  2.018718e-01
   endloop
 endfacet
 facet normal  0.000000e+00  1.000000e+00  0.000000e+00
   outer loop
     vertex  3.593750e-01  1.796875e-01  3.212171e-01
     vertex  9.926854e-02  1.796875e-01  2.791530e-01
     vertex  1.375822e-01  1.796875e-01  4.129934e-01
   endloop
 endfacet
 facet normal  0.000000e+00  1.000000e+00  0.000000e+00
   outer loop
     vertex  1.911184e-01  1.796875e-01  5.583059e-01
     vertex  1.681743e-01  1.796875e-01  4.435855e-01
     vertex  1.375822e-01  1.796875e-01  4.741776e-01
   endloop
 endfacet
 facet normal  0.000000e+00  1.000000e+00  0.000000e+00
   outer loop
     vertex  1.911184e-01  1.796875e-01  5.583059e-01
     vertex  1.375822e-01  1.796875e-01  4.741776e-01
     vertex -8.223684e-05  1.796875e-01  5.583059e-01
   endloop
 endfacet
 facet normal  0.000000e+00  1.000000e+00  0.000000e+00
   outer loop
     vertex  1.911184e-01  1.796875e-01  5.583059e-01
     vertex  3.593750e-01  1.796875e-01  3.212171e-01
     vertex  1.681743e-01  1.796875e-01  4.435855e-01
   endloop
 endfacet
 facet normal -8.155071e-01  0.000000e+00  5.787470e-01
   outer loop
     vertex -3.671875e-01  1.966887e-17  3.212171e-01
     vertex -1.989309e-01  4.448912e-17  5.583059e-01
     vertex -1.989309e-01  1.796875e-01  5.583059e-01
   endloop
 endfacet
 facet normal -8.155071e-01  0.000000e+00  5.787470e-01
   outer loop
     vertex -3.671875e-01  1.966887e-17  3.212171e-01
     vertex -1.989309e-01  1.796875e-01  5.583059e-01
     vertex -3.671875e-01  1.796875e-01  3.212171e-01
   endloop
 endfacet
 facet normal  1.000000e+00  0.000000e+00  0.000000e+00
   outer loop
     vertex  3.593750e-01  6.415800e-17  3.212171e-01
     vertex  3.593750e-01  4.448912e-17 -4.448912e-17
     vertex  3.593750e-01  1.796875e-01 -5.549181e-17
   endloop
 endfacet
 facet normal  1.000000e+00 -0.000000e+00  0.000000e+00
   outer loop
     vertex  3.593750e-01  6.415800e-17  3.212171e-01
     vertex  3.593750e-01  1.796875e-01 -5.549181e-17
     vertex  3.593750e-01  1.796875e-01  3.212171e-01
   endloop
 endfacet
 facet normal  8.155071e-01  0.000000e+00  5.787470e-01
   outer loop
     vertex  1.911184e-01  6.837276e-17  5.583059e-01
     vertex  3.593750e-01  6.415800e-17  3.212171e-01
     vertex  3.593750e-01  1.796875e-01  3.212171e-01
   endloop
 endfacet
 facet normal  8.155071e-01 -0.000000e+00  5.787470e-01
   outer loop
     vertex  1.911184e-01  6.837276e-17  5.583059e-01
     vertex  3.593750e-01  1.796875e-01  3.212171e-01
     vertex  1.911184e-01  1.796875e-01  5.583059e-01
   endloop
 endfacet
 facet normal  0.000000e+00  0.000000e+00  1.000000e+00
   outer loop
     vertex -8.223684e-05  5.666509e-17  5.583059e-01
     vertex  1.911184e-01  6.837276e-17  5.583059e-01
     vertex  1.911184e-01  1.796875e-01  5.583059e-01
   endloop
 endfacet
 facet normal  0.000000e+00 -0.000000e+00  1.000000e+00
   outer loop
     vertex -8.223684e-05  5.666509e-17  5.583059e-01
     vertex  1.911184e-01  1.796875e-01  5.583059e-01
     vertex -8.223684e-05  1.796875e-01  5.583059e-01
   endloop
 endfacet
 facet normal  0.000000e+00  0.000000e+00  1.000000e+00
   outer loop
     vertex -1.989309e-01  4.448912e-17  5.583059e-01
     vertex -8.223684e-05  5.666509e-17  5.583059e-01
     vertex -8.223684e-05  1.796875e-01  5.583059e-01
   endloop
 endfacet
 facet normal  0.000000e+00  0.000000e+00  1.000000e+00
   outer loop
     vertex -1.989309e-01  4.448912e-17  5.583059e-01
     vertex -8.223684e-05  1.796875e-01  5.583059e-01
     vertex -1.989309e-01  1.796875e-01  5.583059e-01
   endloop
 endfacet
 facet normal -7.071068e-01  0.000000e+00  7.071068e-01
   outer loop
     vertex -1.148026e-01  4.261590e-17  4.435855e-01
     vertex -1.453947e-01  1.796875e-01  4.129934e-01
     vertex -1.453947e-01  3.886944e-17  4.129934e-01
   endloop
 endfacet
 facet normal -7.071068e-01  0.000000e+00  7.071068e-01
   outer loop
     vertex -1.148026e-01  4.261590e-17  4.435855e-01
     vertex -1.148026e-01  1.796875e-01  4.435855e-01
     vertex -1.453947e-01  1.796875e-01  4.129934e-01
   endloop
 endfacet
 facet normal -7.071068e-01  0.000000e+00 -7.071068e-01
   outer loop
     vertex -1.453947e-01  4.261590e-17  4.741776e-01
     vertex -1.453947e-01  1.796875e-01  4.741776e-01
     vertex -1.148026e-01  1.796875e-01  4.435855e-01
   endloop
 endfacet
 facet normal -7.071068e-01  0.000000e+00 -7.071068e-01
   outer loop
     vertex -1.453947e-01  4.261590e-17  4.741776e-01
     vertex -1.148026e-01  1.796875e-01  4.435855e-01
     vertex -1.148026e-01  4.261590e-17  4.435855e-01
   endloop
 endfacet
 facet normal  7.071068e-01  0.000000e+00 -7.071068e-01
   outer loop
     vertex -1.759868e-01  3.886944e-17  4.435855e-01
     vertex -1.759868e-01  1.796875e-01  4.435855e-01
     vertex -1.453947e-01  1.796875e-01  4.741776e-01
   endloop
 endfacet
 facet normal  7.071068e-01  0.000000e+00 -7.071068e-01
   outer loop
     vertex -1.759868e-01  3.886944e-17  4.435855e-01
     vertex -1.453947e-01  1.796875e-01  4.741776e-01
     vertex -1.453947e-01  4.261590e-17  4.741776e-01
   endloop
 endfacet
 facet normal  7.071068e-01 -0.000000e+00  7.071068e-01
   outer loop
     vertex -1.453947e-01  3.886944e-17  4.129934e-01
     vertex -1.453947e-01  1.796875e-01  4.129934e-01
     vertex -1.759868e-01  1.796875e-01  4.435855e-01
   endloop
 endfacet
 facet normal  7.071068e-01  0.000000e+00  7.071068e-01
   outer loop
     vertex -1.453947e-01  3.886944e-17  4.129934e-01
     vertex -1.759868e-01  1.796875e-01  4.435855e-01
     vertex -1.759868e-01  3.886944e-17  4.435855e-01
   endloop
 endfacet
 facet normal -3.420201e-01 -3.075602e-17  9.396926e-01
   outer loop
     vertex  7.365861e-02  3.519377e-17  1.339118e-01
     vertex -8.223684e-05  1.796875e-01  1.070724e-01
     vertex -8.223684e-05  2.903501e-17  1.070724e-01
   endloop
 endfacet
 facet normal -3.420201e-01 -2.641521e-17  9.396926e-01
   outer loop
     vertex  7.365861e-02  3.519377e-17  1.339118e-01
     vertex  7.365861e-02  1.796875e-01  1.339118e-01
     vertex -8.223684e-05  1.796875e-01  1.070724e-01
   endloop
 endfacet
 facet normal -8.660254e-01 -6.688566e-17  5.000000e-01
   outer loop
     vertex  1.128953e-01  4.175767e-17  2.018718e-01
     vertex  1.128953e-01  1.796875e-01  2.018718e-01
     vertex  7.365861e-02  1.796875e-01  1.339118e-01
   endloop
 endfacet
 facet normal -8.660254e-01 -6.151203e-17  5.000000e-01
   outer loop
     vertex  1.128953e-01  4.175767e-17  2.018718e-01
     vertex  7.365861e-02  1.796875e-01  1.339118e-01
     vertex  7.365861e-02  3.519377e-17  1.339118e-01
   endloop
 endfacet
 facet normal -9.848078e-01 -7.605956e-17 -1.736482e-01
   outer loop
     vertex  9.926854e-02  4.565538e-17  2.791530e-01
     vertex  9.926854e-02  1.796875e-01  2.791530e-01
     vertex  1.128953e-01  1.796875e-01  2.018718e-01
   endloop
 endfacet
 facet normal -9.848078e-01 -7.689004e-17 -1.736482e-01
   outer loop
     vertex  9.926854e-02  4.565538e-17  2.791530e-01
     vertex  1.128953e-01  1.796875e-01  2.018718e-01
     vertex  1.128953e-01  4.175767e-17  2.018718e-01
   endloop
 endfacet
 facet normal -6.427876e-01 -2.482218e-17 -7.660444e-01
   outer loop
     vertex  3.915445e-02  4.506312e-17  3.295947e-01
     vertex  3.915445e-02  1.796875e-01  3.295947e-01
     vertex  9.926854e-02  1.796875e-01  2.791530e-01
   endloop
 endfacet
 facet normal -6.427876e-01 -6.151203e-17 -7.660444e-01
   outer loop
     vertex  3.915445e-02  4.506312e-17  3.295947e-01
     vertex  9.926854e-02  1.796875e-01  2.791530e-01
     vertex  9.926854e-02  4.565538e-17  2.791530e-01
   endloop
 endfacet
 facet normal  0.000000e+00  0.000000e+00 -1.000000e+00
   outer loop
     vertex -3.931892e-02  4.025801e-17  3.295947e-01
     vertex -3.931892e-02  1.796875e-01  3.295947e-01
     vertex  3.915445e-02  1.796875e-01  3.295947e-01
   endloop
 endfacet
 facet normal  0.000000e+00  0.000000e+00 -1.000000e+00
   outer loop
     vertex -3.931892e-02  4.025801e-17  3.295947e-01
     vertex  3.915445e-02  1.796875e-01  3.295947e-01
     vertex  3.915445e-02  4.506312e-17  3.295947e-01
   endloop
 endfacet
 facet normal  6.427876e-01  4.964436e-17 -7.660444e-01
   outer loop
     vertex -9.943301e-02  3.348842e-17  2.791530e-01
     vertex -9.943301e-02  1.796875e-01  2.791530e-01
     vertex -3.931892e-02  1.796875e-01  3.295947e-01
   endloop
 endfacet
 facet normal  6.427876e-01  3.075602e-17 -7.660444e-01
   outer loop
     vertex -9.943301e-02  3.348842e-17  2.791530e-01
     vertex -3.931892e-02  1.796875e-01  3.295947e-01
     vertex -3.931892e-02  4.025801e-17  3.295947e-01
   endloop
 endfacet
 facet normal  9.848078e-01  7.605956e-17 -1.736482e-01
   outer loop
     vertex -1.130598e-01  2.792192e-17  2.018718e-01
     vertex -1.130598e-01  1.796875e-01  2.018718e-01
     vertex -9.943301e-02  1.796875e-01  2.791530e-01
   endloop
 endfacet
 facet normal  9.848078e-01  6.151203e-17 -1.736482e-01
   outer loop
     vertex -1.130598e-01  2.792192e-17  2.018718e-01
     vertex -9.943301e-02  1.796875e-01  2.791530e-01
     vertex -9.943301e-02  3.348842e-17  2.791530e-01
   endloop
 endfacet
 facet normal  8.660254e-01  6.688566e-17  5.000000e-01
   outer loop
     vertex -7.382309e-02  2.616313e-17  1.339118e-01
     vertex -7.382309e-02  1.796875e-01  1.339118e-01
     vertex -1.130598e-01  1.796875e-01  2.018718e-01
   endloop
 endfacet
 facet normal  8.660254e-01  6.151203e-17  5.000000e-01
   outer loop
     vertex -7.382309e-02  2.616313e-17  1.339118e-01
     vertex -1.130598e-01  1.796875e-01  2.018718e-01
     vertex -1.130598e-01  2.792192e-17  2.018718e-01
   endloop
 endfacet
 facet normal  3.420201e-01  1.901173e-17  9.396926e-01
   outer loop
     vertex -8.223684e-05  2.903501e-17  1.070724e-01
     vertex -8.223684e-05  1.796875e-01  1.070724e-01
     vertex -7.382309e-02  1.796875e-01  1.339118e-01
   endloop
 endfacet
 facet normal  3.420201e-01  3.075602e-17  9.396926e-01
   outer loop
     vertex -8.223684e-05  2.903501e-17  1.070724e-01
     vertex -7.382309e-02  1.796875e-01  1.339118e-01
     vertex -7.382309e-02  2.616313e-17  1.339118e-01
   endloop
 endfacet
 facet normal -7.071068e-01  0.000000e+00  7.071068e-01
   outer loop
     vertex  1.681743e-01  5.994324e-17  4.435855e-01
     vertex  1.375822e-01  1.796875e-01  4.129934e-01
     vertex  1.375822e-01  5.619679e-17  4.129934e-01
   endloop
 endfacet
 facet normal -7.071068e-01  0.000000e+00  7.071068e-01
   outer loop
     vertex  1.681743e-01  5.994324e-17  4.435855e-01
     vertex  1.681743e-01  1.796875e-01  4.435855e-01
     vertex  1.375822e-01  1.796875e-01  4.129934e-01
   endloop
 endfacet
 facet normal -7.071068e-01  0.000000e+00 -7.071068e-01
   outer loop
     vertex  1.375822e-01  5.994324e-17  4.741776e-01
     vertex  1.375822e-01  1.796875e-01  4.741776e-01
     vertex  1.681743e-01  1.796875e-01  4.435855e-01
   endloop
 endfacet
 facet normal -7.071068e-01  0.000000e+00 -7.071068e-01
   outer loop
     vertex  1.375822e-01  5.994324e-17  4.741776e-01
     vertex  1.681743e-01  1.796875e-01  4.435855e-01
     vertex  1.681743e-01  5.994324e-17  4.435855e-01
   endloop
 endfacet
 facet normal  7.071068e-01  0.000000e+00 -7.071068e-01
   outer loop
     vertex  1.069901e-01  5.619679e-17  4.435855e-01
     vertex  1.069901e-01  1.796875e-01  4.435855e-01
     vertex  1.375822e-01  1.796875e-01  4.741776e-01
   endloop
 endfacet
 facet normal  7.071068e-01  0.000000e+00 -7.071068e-01
   outer loop
     vertex  1.069901e-01  5.619679e-17  4.435855e-01
     vertex  1.375822e-01  1.796875e-01  4.741776e-01
     vertex  1.375822e-01  5.994324e-17  4.741776e-01
   endloop
 endfacet
 facet normal  7.071068e-01 -0.000000e+00  7.071068e-01
   outer loop
     vertex  1.375822e-01  5.619679e-17  4.129934e-01
     vertex  1.375822e-01  1.796875e-01  4.129934e-01
     vertex  1.069901e-01  1.796875e-01  4.435855e-01
   endloop
 endfacet
 facet normal  7.071068e-01  0.000000e+00  7.071068e-01
   outer loop
     vertex  1.375822e-01  5.619679e-17  4.129934e-01
     vertex  1.069901e-01  1.796875e-01  4.435855e-01
     vertex  1.069901e-01  5.619679e-17  4.435855e-01
   endloop
 endfacet
 facet normal  7.068938e-01 -7.071068e-01  1.735327e-02
   outer loop
     vertex -2.728951e-01  1.414056e-01  1.355817e-03
     vertex -3.314004e-01  8.729373e-02  1.796612e-01
     vertex -3.269907e-01  8.729373e-02  2.784623e-05
   endloop
 endfacet
 facet normal  7.068938e-01 -7.071068e-01  1.735327e-02
   outer loop
     vertex -2.728951e-01  1.414056e-01  1.355817e-03
     vertex -2.773049e-01  1.414056e-01  1.809892e-01
     vertex -3.314004e-01  8.729373e-02  1.796612e-01
   endloop
 endfacet
 facet normal -7.068938e-01 -7.071068e-01 -1.735327e-02
   outer loop
     vertex -2.187996e-01  8.729373e-02  2.683788e-03
     vertex -2.232093e-01  8.729373e-02  1.823172e-01
     vertex -2.773049e-01  1.414056e-01  1.809892e-01
   endloop
 endfacet
 facet normal -7.068938e-01 -7.071068e-01 -1.735327e-02
   outer loop
     vertex -2.187996e-01  8.729373e-02  2.683788e-03
     vertex -2.773049e-01  1.414056e-01  1.809892e-01
     vertex -2.728951e-01  1.414056e-01  1.355817e-03
   endloop
 endfacet
 facet normal -7.068938e-01  7.071068e-01 -1.735327e-02
   outer loop
     vertex -2.728951e-01  3.318188e-02  1.355817e-03
     vertex -2.773049e-01  3.318188e-02  1.809892e-01
     vertex -2.232093e-01  8.729373e-02  1.823172e-01
   endloop
 endfacet
 facet normal -7.068938e-01  7.071068e-01 -1.735327e-02
   outer loop
     vertex -2.728951e-01  3.318188e-02  1.355817e-03
     vertex -2.232093e-01  8.729373e-02  1.823172e-01
     vertex -2.187996e-01  8.729373e-02  2.683788e-03
   endloop
 endfacet
 facet normal  7.068938e-01  7.071068e-01  1.735327e-02
   outer loop
     vertex -3.269907e-01  8.729373e-02  2.784623e-05
     vertex -3.314004e-01  8.729373e-02  1.796612e-01
     vertex -2.773049e-01  3.318188e-02  1.809892e-01
   endloop
 endfacet
 facet normal  7.068938e-01  7.071068e-01  1.735327e-02
   outer loop
     vertex -3.269907e-01  8.729373e-02  2.784623e-05
     vertex -2.773049e-01  3.318188e-02  1.809892e-01
     vertex -2.728951e-01  3.318188e-02  1.355817e-03
   endloop
 endfacet
 facet normal -2.454123e-02 -2.468353e-14  9.996988e-01
   outer loop
     vertex -2.187996e-01  8.729373e-02  2.683788e-03
     vertex -2.728951e-01  1.414056e-01  1.355817e-03
     vertex -3.269907e-01  8.729373e-02  2.784623e-05
   endloop
 endfacet
 facet normal -2.454123e-02  2.468816e-14  9.996988e-01
   outer loop
     vertex -2.187996e-01  8.729373e-02  2.683788e-03
     vertex -3.269907e-01  8.729373e-02  2.784623e-05
     vertex -2.728951e-01  3.318188e-02  1.355817e-03
   endloop
 endfacet
 facet normal  2.454123e-02 -8.526805e-12 -9.996988e-01
   outer loop
     vertex -2.232093e-01  8.729373e-02  1.823172e-01
     vertex -3.314004e-01  8.729373e-02  1.796612e-01
     vertex -2.773049e-01  1.414056e-01  1.809892e-01
   endloop
 endfacet
 facet normal  2.454123e-02  8.526805e-12 -9.996988e-01
   outer loop
     vertex -2.232093e-01  8.729373e-02  1.823172e-01
     vertex -2.773049e-01  3.318188e-02  1.809892e-01
     vertex -3.314004e-01  8.729373e-02  1.796612e-01
   endloop
 endfacet
 facet normal  7.068938e-01 -7.071068e-01  1.735327e-02
   outer loop
     vertex  2.661674e-01  1.414056e-01  1.355817e-03
     vertex  2.076621e-01  8.729373e-02  1.796612e-01
     vertex  2.120718e-01  8.729373e-02  2.784623e-05
   endloop
 endfacet
 facet normal  7.068938e-01 -7.071068e-01  1.735327e-02
   outer loop
     vertex  2.661674e-01  1.414056e-01  1.355817e-03
     vertex  2.617576e-01  1.414056e-01  1.809892e-01
     vertex  2.076621e-01  8.729373e-02  1.796612e-01
   endloop
 endfacet
 facet normal -7.068938e-01 -7.071068e-01 -1.735327e-02
   outer loop
     vertex  3.202629e-01  8.729373e-02  2.683788e-03
     vertex  3.158532e-01  8.729373e-02  1.823172e-01
     vertex  2.617576e-01  1.414056e-01  1.809892e-01
   endloop
 endfacet
 facet normal -7.068938e-01 -7.071068e-01 -1.735327e-02
   outer loop
     vertex  3.202629e-01  8.729373e-02  2.683788e-03
     vertex  2.617576e-01  1.414056e-01  1.809892e-01
     vertex  2.661674e-01  1.414056e-01  1.355817e-03
   endloop
 endfacet
 facet normal -7.068938e-01  7.071068e-01 -1.735327e-02
   outer loop
     vertex  2.661674e-01  3.318188e-02  1.355817e-03
     vertex  2.617576e-01  3.318188e-02  1.809892e-01
     vertex  3.158532e-01  8.729373e-02  1.823172e-01
   endloop
 endfacet
 facet normal -7.068938e-01  7.071068e-01 -1.735327e-02
   outer loop
     vertex  2.661674e-01  3.318188e-02  1.355817e-03
     vertex  3.158532e-01  8.729373e-02  1.823172e-01
     vertex  3.202629e-01  8.729373e-02  2.683788e-03
   endloop
 endfacet
 facet normal  7.068938e-01  7.071068e-01  1.735327e-02
   outer loop
     vertex  2.120718e-01  8.729373e-02  2.784623e-05
     vertex  2.076621e-01  8.729373e-02  1.796612e-01
     vertex  2.617576e-01  3.318188e-02  1.809892e-01
   endloop
 endfacet
 facet normal  7.068938e-01  7.071068e-01  1.735327e-02
   outer loop
     vertex  2.120718e-01  8.729373e-02  2.784623e-05
     vertex  2.617576e-01  3.318188e-02  1.809892e-01
     vertex  2.661674e-01  3.318188e-02  1.355817e-03
   endloop
 endfacet
 facet normal -2.454123e-02 -2.468353e-14  9.996988e-01
   outer loop
     vertex  3.202629e-01  8.729373e-02  2.683788e-03
     vertex  2.661674e-01  1.414056e-01  1.355817e-03
     vertex  2.120718e-01  8.729373e-02  2.784623e-05
   endloop
 endfacet
 facet normal -2.454123e-02  2.468816e-14  9.996988e-01
   outer loop
     vertex  3.202629e-01  8.729373e-02  2.683788e-03
     vertex  2.120718e-01  8.729373e-02  2.784623e-05
     vertex  2.661674e-01  3.318188e-02  1.355817e-03
   endloop
 endfacet
 facet normal  2.454123e-02 -8.526814e-12 -9.996988e-01
   outer loop
     vertex  3.158532e-01  8.729373e-02  1.823172e-01
     vertex  2.076621e-01  8.729373e-02  1.796612e-01
     vertex  2.617576e-01  1.414056e-01  1.809892e-01
   endloop
 endfacet
 facet normal  2.454123e-02  8.526814e-12 -9.996988e-01
   outer loop
     vertex  3.158532e-01  8.729373e-02  1.823172e-01
     vertex  2.617576e-01  3.318188e-02  1.809892e-01
     vertex  2.076621e-01  8.729373e-02  1.796612e-01
   endloop
 endfacet
endsolid
