solid 
 facet normal -0.000000e+00  0.000000e+00 -1.000000e+00
   outer loop
     vertex -4.133758e-01 -7.424656e-02 -2.187500e-01
     vertex -7.500000e-01 -3.750000e-01 -2.187500e-01
     vertex -7.500000e-01  0.000000e+00 -2.187500e-01
   endloop
 endfacet
 facet normal -0.000000e+00  0.000000e+00 -1.000000e+00
   outer loop
     vertex -3.502179e-01 -1.201335e-01 -2.187500e-01
     vertex -7.500000e-01 -3.750000e-01 -2.187500e-01
     vertex -4.133758e-01 -7.424656e-02 -2.187500e-01
   endloop
 endfacet
 facet normal  0.000000e+00 -0.000000e+00 -1.000000e+00
   outer loop
     vertex -4.375000e-01  1.913511e-17 -2.187500e-01
     vertex -4.133758e-01 -7.424656e-02 -2.187500e-01
     vertex -7.500000e-01  0.000000e+00 -2.187500e-01
   endloop
 endfacet
 facet normal  0.000000e+00  0.000000e+00 -1.000000e+00
   outer loop
     vertex  7.894737e-03 -3.750000e-01 -2.187500e-01
     vertex -3.502179e-01 -1.201335e-01 -2.187500e-01
     vertex -2.721505e-01 -1.201335e-01 -2.187500e-01
   endloop
 endfacet
 facet normal  0.000000e+00  0.000000e+00 -1.000000e+00
   outer loop
     vertex  7.894737e-03 -3.750000e-01 -2.187500e-01
     vertex -7.500000e-01 -3.750000e-01 -2.187500e-01
     vertex -3.502179e-01 -1.201335e-01 -2.187500e-01
   endloop
 endfacet
 facet normal  0.000000e+00 -0.000000e+00 -1.000000e+00
   outer loop
     vertex -2.089926e-01 -7.424656e-02 -2.187500e-01
     vertex  7.894737e-03 -3.750000e-01 -2.187500e-01
     vertex -2.721505e-01 -1.201335e-01 -2.187500e-01
   endloop
 endfacet
 facet normal  0.000000e+00  0.000000e+00 -1.000000e+00
   outer loop
     vertex  7.894737e-03  4.640767e-17 -2.187500e-01
     vertex -2.089926e-01 -7.424656e-02 -2.187500e-01
     vertex -1.848684e-01  1.730216e-17 -2.187500e-01
   endloop
 endfacet
 facet normal  0.000000e+00 -0.000000e+00 -1.000000e+00
   outer loop
     vertex  7.894737e-03  4.640767e-17 -2.187500e-01
     vertex  7.894737e-03 -3.750000e-01 -2.187500e-01
     vertex -2.089926e-01 -7.424656e-02 -2.187500e-01
   endloop
 endfacet
 facet normal -0.000000e+00  0.000000e+00 -1.000000e+00
   outer loop
     vertex -4.133758e-01  7.424656e-02 -2.187500e-01
     vertex -7.500000e-01  0.000000e+00 -2.187500e-01
     vertex -7.500000e-01  3.750000e-01 -2.187500e-01
   endloop
 endfacet
 facet normal -0.000000e+00  0.000000e+00 -1.000000e+00
   outer loop
     vertex -3.502179e-01  1.201335e-01 -2.187500e-01
     vertex -4.133758e-01  7.424656e-02 -2.187500e-01
     vertex -7.500000e-01  3.750000e-01 -2.187500e-01
   endloop
 endfacet
 facet normal -0.000000e+00  0.000000e+00 -1.000000e+00
   outer loop
     vertex -4.375000e-01  1.913511e-17 -2.187500e-01
     vertex -7.500000e-01  0.000000e+00 -2.187500e-01
     vertex -4.133758e-01  7.424656e-02 -2.187500e-01
   endloop
 endfacet
 facet normal  0.000000e+00  0.000000e+00 -1.000000e+00
   outer loop
     vertex  7.894737e-03  3.750000e-01 -2.187500e-01
     vertex -2.721505e-01  1.201335e-01 -2.187500e-01
     vertex -3.502179e-01  1.201335e-01 -2.187500e-01
   endloop
 endfacet
 facet normal -0.000000e+00  0.000000e+00 -1.000000e+00
   outer loop
     vertex  7.894737e-03  3.750000e-01 -2.187500e-01
     vertex -3.502179e-01  1.201335e-01 -2.187500e-01
     vertex -7.500000e-01  3.750000e-01 -2.187500e-01
   endloop
 endfacet
 facet normal  0.000000e+00  0.000000e+00 -1.000000e+00
   outer loop
     vertex -2.089926e-01  7.424656e-02 -2.187500e-01
     vertex -2.721505e-01  1.201335e-01 -2.187500e-01
     vertex  7.894737e-03  3.750000e-01 -2.187500e-01
   endloop
 endfacet
 facet normal -0.000000e+00  0.000000e+00 -1.000000e+00
   outer loop
     vertex  7.894737e-03  4.640767e-17 -2.187500e-01
     vertex -1.848684e-01  1.730216e-17 -2.187500e-01
     vertex -2.089926e-01  7.424656e-02 -2.187500e-01
   endloop
 endfacet
 facet normal  0.000000e+00  0.000000e+00 -1.000000e+00
   outer loop
     vertex  7.894737e-03  4.640767e-17 -2.187500e-01
     vertex -2.089926e-01  7.424656e-02 -2.187500e-01
     vertex  7.894737e-03  3.750000e-01 -2.187500e-01
   endloop
 endfacet
 facet normal -9.903012e-01 -1.389372e-01 -9.266708e-18
   outer loop
     vertex -1.897451e-01  3.475949e-02  3.125000e-02
     vertex -1.848684e-01  1.730216e-17 -2.187500e-01
     vertex -1.848684e-01  0.000000e+00  3.125000e-02
   endloop
 endfacet
 facet normal -9.507732e-01 -3.089249e-01  2.440581e-02
   outer loop
     vertex -1.897451e-01  3.475949e-02  3.125000e-02
     vertex -2.089926e-01  7.424656e-02 -2.187500e-01
     vertex -1.848684e-01  1.730216e-17 -2.187500e-01
   endloop
 endfacet
 facet normal -9.138183e-01 -4.060757e-01  6.215860e-03
   outer loop
     vertex -2.039986e-01  6.683505e-02  3.125000e-02
     vertex -2.089926e-01  7.424656e-02 -2.187500e-01
     vertex -1.897451e-01  3.475949e-02  3.125000e-02
   endloop
 endfacet
 facet normal -5.876445e-01 -8.088233e-01  2.188020e-02
   outer loop
     vertex -2.265283e-01  9.375000e-02  3.125000e-02
     vertex -2.721505e-01  1.201335e-01 -2.187500e-01
     vertex -2.089926e-01  7.424656e-02 -2.187500e-01
   endloop
 endfacet
 facet normal -7.668044e-01 -6.418701e-01 -3.711255e-03
   outer loop
     vertex -2.265283e-01  9.375000e-02  3.125000e-02
     vertex -2.089926e-01  7.424656e-02 -2.187500e-01
     vertex -2.039986e-01  6.683505e-02  3.125000e-02
   endloop
 endfacet
 facet normal -4.703003e-01 -8.824762e-01 -7.306656e-03
   outer loop
     vertex -2.805673e-01  1.225491e-01  3.125000e-02
     vertex -2.721505e-01  1.201335e-01 -2.187500e-01
     vertex -2.265283e-01  9.375000e-02  3.125000e-02
   endloop
 endfacet
 facet normal -1.777583e-16 -9.999533e-01  9.662110e-03
   outer loop
     vertex -3.418012e-01  1.225491e-01  3.125000e-02
     vertex -3.502179e-01  1.201335e-01 -2.187500e-01
     vertex -2.721505e-01  1.201335e-01 -2.187500e-01
   endloop
 endfacet
 facet normal  0.000000e+00 -9.999533e-01  9.662110e-03
   outer loop
     vertex -3.418012e-01  1.225491e-01  3.125000e-02
     vertex -2.721505e-01  1.201335e-01 -2.187500e-01
     vertex -2.805673e-01  1.225491e-01  3.125000e-02
   endloop
 endfacet
 facet normal  5.876445e-01 -8.088233e-01  2.188020e-02
   outer loop
     vertex -3.958401e-01  9.375000e-02  3.125000e-02
     vertex -4.133758e-01  7.424656e-02 -2.187500e-01
     vertex -3.502179e-01  1.201335e-01 -2.187500e-01
   endloop
 endfacet
 facet normal  4.703003e-01 -8.824762e-01 -7.306656e-03
   outer loop
     vertex -3.958401e-01  9.375000e-02  3.125000e-02
     vertex -3.502179e-01  1.201335e-01 -2.187500e-01
     vertex -3.418012e-01  1.225491e-01  3.125000e-02
   endloop
 endfacet
 facet normal  9.508715e-01 -3.089569e-01  1.972419e-02
   outer loop
     vertex -4.356070e-01  2.178630e-02  3.125000e-02
     vertex -4.375000e-01  1.913511e-17 -2.187500e-01
     vertex -4.133758e-01  7.424656e-02 -2.187500e-01
   endloop
 endfacet
 facet normal  8.750094e-01 -4.835277e-01 -2.365397e-02
   outer loop
     vertex -4.356070e-01  2.178630e-02  3.125000e-02
     vertex -4.133758e-01  7.424656e-02 -2.187500e-01
     vertex -3.958401e-01  9.375000e-02  3.125000e-02
   endloop
 endfacet
 facet normal  9.509196e-01  3.089725e-01  1.696697e-02
   outer loop
     vertex -4.226579e-01 -5.940794e-02  3.125000e-02
     vertex -4.133758e-01 -7.424656e-02 -2.187500e-01
     vertex -4.375000e-01  1.913511e-17 -2.187500e-01
   endloop
 endfacet
 facet normal  9.872982e-01  1.574580e-01 -2.119744e-02
   outer loop
     vertex -4.226579e-01 -5.940794e-02  3.125000e-02
     vertex -4.375000e-01  1.913511e-17 -2.187500e-01
     vertex -4.356070e-01  2.178630e-02  3.125000e-02
   endloop
 endfacet
 facet normal  5.877308e-01  8.089420e-01  1.361165e-02
   outer loop
     vertex -3.624790e-01 -1.154319e-01  3.125000e-02
     vertex -3.502179e-01 -1.201335e-01 -2.187500e-01
     vertex -4.133758e-01 -7.424656e-02 -2.187500e-01
   endloop
 endfacet
 facet normal  6.812761e-01  7.318017e-01 -1.814120e-02
   outer loop
     vertex -3.624790e-01 -1.154319e-01  3.125000e-02
     vertex -4.133758e-01 -7.424656e-02 -2.187500e-01
     vertex -4.226579e-01 -5.940794e-02  3.125000e-02
   endloop
 endfacet
 facet normal  1.777583e-16  9.999533e-01  9.662110e-03
   outer loop
     vertex -2.805673e-01 -1.225491e-01  3.125000e-02
     vertex -2.721505e-01 -1.201335e-01 -2.187500e-01
     vertex -3.502179e-01 -1.201335e-01 -2.187500e-01
   endloop
 endfacet
 facet normal  8.655326e-02  9.961419e-01 -1.448869e-02
   outer loop
     vertex -2.805673e-01 -1.225491e-01  3.125000e-02
     vertex -3.502179e-01 -1.201335e-01 -2.187500e-01
     vertex -3.624790e-01 -1.154319e-01  3.125000e-02
   endloop
 endfacet
 facet normal -5.877775e-01  8.090064e-01  5.123038e-03
   outer loop
     vertex -2.116275e-01 -7.774405e-02  3.125000e-02
     vertex -2.089926e-01 -7.424656e-02 -2.187500e-01
     vertex -2.721505e-01 -1.201335e-01 -2.187500e-01
   endloop
 endfacet
 facet normal -5.449101e-01  8.384319e-01 -1.024413e-02
   outer loop
     vertex -2.116275e-01 -7.774405e-02  3.125000e-02
     vertex -2.721505e-01 -1.201335e-01 -2.187500e-01
     vertex -2.805673e-01 -1.225491e-01  3.125000e-02
   endloop
 endfacet
 facet normal -9.510565e-01  3.090170e-01  2.138665e-17
   outer loop
     vertex -1.848684e-01  0.000000e+00  3.125000e-02
     vertex -1.848684e-01  1.730216e-17 -2.187500e-01
     vertex -2.089926e-01 -7.424656e-02 -2.187500e-01
   endloop
 endfacet
 facet normal -9.455435e-01  3.254507e-01 -5.412585e-03
   outer loop
     vertex -1.848684e-01  0.000000e+00  3.125000e-02
     vertex -2.089926e-01 -7.424656e-02 -2.187500e-01
     vertex -2.116275e-01 -7.774405e-02  3.125000e-02
   endloop
 endfacet
 facet normal  1.000000e+00  0.000000e+00  0.000000e+00
   outer loop
     vertex  7.894737e-03  5.607593e-17 -6.085526e-02
     vertex  7.894737e-03 -3.750000e-01 -2.187500e-01
     vertex  7.894737e-03  4.640767e-17 -2.187500e-01
   endloop
 endfacet
 facet normal  1.000000e+00  0.000000e+00  0.000000e+00
   outer loop
     vertex  7.894737e-03  5.607593e-17 -6.085526e-02
     vertex  7.894737e-03 -3.750000e-01 -6.085526e-02
     vertex  7.894737e-03 -3.750000e-01 -2.187500e-01
   endloop
 endfacet
 facet normal -0.000000e+00 -1.000000e+00  0.000000e+00
   outer loop
     vertex -5.605263e-01 -3.750000e-01  9.703947e-02
     vertex -7.500000e-01 -3.750000e-01  2.233553e-01
     vertex -7.500000e-01 -3.750000e-01 -2.187500e-01
   endloop
 endfacet
 facet normal -0.000000e+00 -1.000000e+00 -0.000000e+00
   outer loop
     vertex -5.605263e-01 -3.750000e-01  2.233553e-01
     vertex -7.500000e-01 -3.750000e-01  2.233553e-01
     vertex -5.605263e-01 -3.750000e-01  9.703947e-02
   endloop
 endfacet
 facet normal  0.000000e+00 -1.000000e+00  0.000000e+00
   outer loop
     vertex  7.894737e-03 -3.750000e-01 -2.187500e-01
     vertex -5.605263e-01 -3.750000e-01  9.703947e-02
     vertex -7.500000e-01 -3.750000e-01 -2.187500e-01
   endloop
 endfacet
 facet normal -0.000000e+00 -1.000000e+00 -0.000000e+00
   outer loop
     vertex  7.894737e-03 -3.750000e-01 -6.085526e-02
     vertex -5.605263e-01 -3.750000e-01  9.703947e-02
     vertex  7.894737e-03 -3.750000e-01 -2.187500e-01
   endloop
 endfacet
 facet normal -0.000000e+00 -1.000000e+00  0.000000e+00
   outer loop
     vertex  7.500000e-01 -3.750000e-01  2.233553e-01
     vertex  5.605263e-01 -3.750000e-01  2.233553e-01
     vertex  5.605263e-01 -3.750000e-01  9.703947e-02
   endloop
 endfacet
 facet normal  0.000000e+00 -1.000000e+00 -0.000000e+00
   outer loop
     vertex  7.500000e-01 -3.750000e-01  2.233553e-01
     vertex  5.605263e-01 -3.750000e-01  9.703947e-02
     vertex  7.500000e-01 -3.750000e-01 -6.085526e-02
   endloop
 endfacet
 facet normal  0.000000e+00 -1.000000e+00  0.000000e+00
   outer loop
     vertex  7.894737e-03 -3.750000e-01 -6.085526e-02
     vertex  7.500000e-01 -3.750000e-01 -6.085526e-02
     vertex  5.605263e-01 -3.750000e-01  9.703947e-02
   endloop
 endfacet
 facet normal  0.000000e+00 -1.000000e+00  0.000000e+00
   outer loop
     vertex  7.894737e-03 -3.750000e-01 -6.085526e-02
     vertex  5.605263e-01 -3.750000e-01  9.703947e-02
     vertex -5.605263e-01 -3.750000e-01  9.703947e-02
   endloop
 endfacet
 facet normal -1.000000e+00  0.000000e+00  0.000000e+00
   outer loop
     vertex -7.500000e-01 -1.875000e-01  3.125000e-02
     vertex -7.500000e-01 -3.750000e-01  2.233553e-01
     vertex -7.500000e-01 -1.875000e-01  2.233553e-01
   endloop
 endfacet
 facet normal -1.000000e+00  0.000000e+00  0.000000e+00
   outer loop
     vertex -7.500000e-01 -3.750000e-01 -2.187500e-01
     vertex -7.500000e-01 -3.750000e-01  2.233553e-01
     vertex -7.500000e-01 -1.875000e-01  3.125000e-02
   endloop
 endfacet
 facet normal -1.000000e+00  0.000000e+00  0.000000e+00
   outer loop
     vertex -7.500000e-01  0.000000e+00 -2.187500e-01
     vertex -7.500000e-01 -1.875000e-01  3.125000e-02
     vertex -7.500000e-01  2.153183e-17  3.125000e-02
   endloop
 endfacet
 facet normal -1.000000e+00  0.000000e+00  0.000000e+00
   outer loop
     vertex -7.500000e-01  0.000000e+00 -2.187500e-01
     vertex -7.500000e-01 -3.750000e-01 -2.187500e-01
     vertex -7.500000e-01 -1.875000e-01  3.125000e-02
   endloop
 endfacet
 facet normal  1.000000e+00  0.000000e+00  0.000000e+00
   outer loop
     vertex  7.894737e-03  5.607593e-17 -6.085526e-02
     vertex  7.894737e-03  4.640767e-17 -2.187500e-01
     vertex  7.894737e-03  3.750000e-01 -2.187500e-01
   endloop
 endfacet
 facet normal  1.000000e+00 -0.000000e+00  0.000000e+00
   outer loop
     vertex  7.894737e-03  5.607593e-17 -6.085526e-02
     vertex  7.894737e-03  3.750000e-01 -2.187500e-01
     vertex  7.894737e-03  3.750000e-01 -6.085526e-02
   endloop
 endfacet
 facet normal  0.000000e+00  1.000000e+00  0.000000e+00
   outer loop
     vertex  7.894737e-03  3.750000e-01 -6.085526e-02
     vertex -7.500000e-01  3.750000e-01 -2.187500e-01
     vertex -7.500000e-01  3.750000e-01  3.125000e-02
   endloop
 endfacet
 facet normal  0.000000e+00  1.000000e+00  0.000000e+00
   outer loop
     vertex  7.894737e-03  3.750000e-01 -6.085526e-02
     vertex  7.894737e-03  3.750000e-01 -2.187500e-01
     vertex -7.500000e-01  3.750000e-01 -2.187500e-01
   endloop
 endfacet
 facet normal  0.000000e+00  1.000000e+00  0.000000e+00
   outer loop
     vertex  1.054519e-33  3.750000e-01  3.125000e-02
     vertex  7.894737e-03  3.750000e-01 -6.085526e-02
     vertex -7.500000e-01  3.750000e-01  3.125000e-02
   endloop
 endfacet
 facet normal  0.000000e+00  1.000000e+00  0.000000e+00
   outer loop
     vertex  7.500000e-01  3.750000e-01  3.125000e-02
     vertex  7.500000e-01  3.750000e-01 -6.085526e-02
     vertex  7.894737e-03  3.750000e-01 -6.085526e-02
   endloop
 endfacet
 facet normal  0.000000e+00  1.000000e+00  0.000000e+00
   outer loop
     vertex  7.500000e-01  3.750000e-01  3.125000e-02
     vertex  7.894737e-03  3.750000e-01 -6.085526e-02
     vertex  1.054519e-33  3.750000e-01  3.125000e-02
   endloop
 endfacet
 facet normal -1.000000e+00  0.000000e+00  0.000000e+00
   outer loop
     vertex -7.500000e-01  3.750000e-01 -2.187500e-01
     vertex -7.500000e-01  1.875000e-01  3.125000e-02
     vertex -7.500000e-01  3.750000e-01  3.125000e-02
   endloop
 endfacet
 facet normal -1.000000e+00  0.000000e+00  0.000000e+00
   outer loop
     vertex -7.500000e-01  0.000000e+00 -2.187500e-01
     vertex -7.500000e-01  9.375000e-02  3.125000e-02
     vertex -7.500000e-01  1.875000e-01  3.125000e-02
   endloop
 endfacet
 facet normal -1.000000e+00  0.000000e+00  0.000000e+00
   outer loop
     vertex -7.500000e-01  0.000000e+00 -2.187500e-01
     vertex -7.500000e-01  2.153183e-17  3.125000e-02
     vertex -7.500000e-01  9.375000e-02  3.125000e-02
   endloop
 endfacet
 facet normal -1.000000e+00  0.000000e+00  0.000000e+00
   outer loop
     vertex -7.500000e-01  0.000000e+00 -2.187500e-01
     vertex -7.500000e-01  1.875000e-01  3.125000e-02
     vertex -7.500000e-01  3.750000e-01 -2.187500e-01
   endloop
 endfacet
 facet normal  0.000000e+00  0.000000e+00  1.000000e+00
   outer loop
     vertex -4.226579e-01 -5.940794e-02  3.125000e-02
     vertex -7.500000e-01  2.153183e-17  3.125000e-02
     vertex -7.500000e-01 -1.875000e-01  3.125000e-02
   endloop
 endfacet
 facet normal  0.000000e+00  0.000000e+00  1.000000e+00
   outer loop
     vertex -3.624790e-01 -1.154319e-01  3.125000e-02
     vertex -4.226579e-01 -5.940794e-02  3.125000e-02
     vertex -7.500000e-01 -1.875000e-01  3.125000e-02
   endloop
 endfacet
 facet normal  0.000000e+00  0.000000e+00  1.000000e+00
   outer loop
     vertex -4.356070e-01  2.178630e-02  3.125000e-02
     vertex -7.500000e-01  9.375000e-02  3.125000e-02
     vertex -7.500000e-01  2.153183e-17  3.125000e-02
   endloop
 endfacet
 facet normal  0.000000e+00  0.000000e+00  1.000000e+00
   outer loop
     vertex -4.356070e-01  2.178630e-02  3.125000e-02
     vertex -7.500000e-01  2.153183e-17  3.125000e-02
     vertex -4.226579e-01 -5.940794e-02  3.125000e-02
   endloop
 endfacet
 facet normal  0.000000e+00  0.000000e+00  1.000000e+00
   outer loop
     vertex -3.958401e-01  9.375000e-02  3.125000e-02
     vertex -7.500000e-01  9.375000e-02  3.125000e-02
     vertex -4.356070e-01  2.178630e-02  3.125000e-02
   endloop
 endfacet
 facet normal  0.000000e+00  0.000000e+00  1.000000e+00
   outer loop
     vertex  0.000000e+00 -1.875000e-01  3.125000e-02
     vertex -2.116275e-01 -7.774405e-02  3.125000e-02
     vertex -2.805673e-01 -1.225491e-01  3.125000e-02
   endloop
 endfacet
 facet normal  0.000000e+00  0.000000e+00  1.000000e+00
   outer loop
     vertex -1.848684e-01  0.000000e+00  3.125000e-02
     vertex -2.116275e-01 -7.774405e-02  3.125000e-02
     vertex  0.000000e+00 -1.875000e-01  3.125000e-02
   endloop
 endfacet
 facet normal  0.000000e+00  0.000000e+00  1.000000e+00
   outer loop
     vertex  0.000000e+00  9.375000e-02  3.125000e-02
     vertex -1.897451e-01  3.475949e-02  3.125000e-02
     vertex -1.848684e-01  0.000000e+00  3.125000e-02
   endloop
 endfacet
 facet normal  0.000000e+00  0.000000e+00  1.000000e+00
   outer loop
     vertex  0.000000e+00  9.375000e-02  3.125000e-02
     vertex -2.039986e-01  6.683505e-02  3.125000e-02
     vertex -1.897451e-01  3.475949e-02  3.125000e-02
   endloop
 endfacet
 facet normal  0.000000e+00  0.000000e+00  1.000000e+00
   outer loop
     vertex  0.000000e+00  9.375000e-02  3.125000e-02
     vertex -2.265283e-01  9.375000e-02  3.125000e-02
     vertex -2.039986e-01  6.683505e-02  3.125000e-02
   endloop
 endfacet
 facet normal  0.000000e+00  0.000000e+00  1.000000e+00
   outer loop
     vertex  0.000000e+00  9.375000e-02  3.125000e-02
     vertex -1.848684e-01  0.000000e+00  3.125000e-02
     vertex  0.000000e+00 -1.875000e-01  3.125000e-02
   endloop
 endfacet
 facet normal  0.000000e+00  0.000000e+00  1.000000e+00
   outer loop
     vertex  0.000000e+00 -1.875000e-01  3.125000e-02
     vertex -2.805673e-01 -1.225491e-01  3.125000e-02
     vertex -7.500000e-01 -1.875000e-01  3.125000e-02
   endloop
 endfacet
 facet normal  0.000000e+00  0.000000e+00  1.000000e+00
   outer loop
     vertex -2.805673e-01 -1.225491e-01  3.125000e-02
     vertex -3.624790e-01 -1.154319e-01  3.125000e-02
     vertex -7.500000e-01 -1.875000e-01  3.125000e-02
   endloop
 endfacet
 facet normal  0.000000e+00  0.000000e+00  1.000000e+00
   outer loop
     vertex -3.958401e-01  9.375000e-02  3.125000e-02
     vertex -7.500000e-01  1.875000e-01  3.125000e-02
     vertex -7.500000e-01  9.375000e-02  3.125000e-02
   endloop
 endfacet
 facet normal  0.000000e+00  0.000000e+00  1.000000e+00
   outer loop
     vertex -3.418012e-01  1.225491e-01  3.125000e-02
     vertex -7.500000e-01  1.875000e-01  3.125000e-02
     vertex -3.958401e-01  9.375000e-02  3.125000e-02
   endloop
 endfacet
 facet normal  0.000000e+00  0.000000e+00  1.000000e+00
   outer loop
     vertex  1.406025e-33  1.875000e-01  3.125000e-02
     vertex -2.265283e-01  9.375000e-02  3.125000e-02
     vertex  0.000000e+00  9.375000e-02  3.125000e-02
   endloop
 endfacet
 facet normal  0.000000e+00  0.000000e+00  1.000000e+00
   outer loop
     vertex  1.406025e-33  1.875000e-01  3.125000e-02
     vertex -2.805673e-01  1.225491e-01  3.125000e-02
     vertex -2.265283e-01  9.375000e-02  3.125000e-02
   endloop
 endfacet
 facet normal -0.000000e+00  0.000000e+00  1.000000e+00
   outer loop
     vertex -7.500000e-01  1.875000e-01  3.125000e-02
     vertex -2.805673e-01  1.225491e-01  3.125000e-02
     vertex  1.406025e-33  1.875000e-01  3.125000e-02
   endloop
 endfacet
 facet normal  0.000000e+00  0.000000e+00  1.000000e+00
   outer loop
     vertex -7.500000e-01  1.875000e-01  3.125000e-02
     vertex -3.418012e-01  1.225491e-01  3.125000e-02
     vertex -2.805673e-01  1.225491e-01  3.125000e-02
   endloop
 endfacet
 facet normal -0.000000e+00  0.000000e+00 -1.000000e+00
   outer loop
     vertex  1.491242e-01 -7.424656e-02 -6.085526e-02
     vertex  7.894737e-03 -3.750000e-01 -6.085526e-02
     vertex  7.894737e-03  5.607593e-17 -6.085526e-02
   endloop
 endfacet
 facet normal -0.000000e+00  0.000000e+00 -1.000000e+00
   outer loop
     vertex  2.122821e-01 -1.201335e-01 -6.085526e-02
     vertex  7.894737e-03 -3.750000e-01 -6.085526e-02
     vertex  1.491242e-01 -7.424656e-02 -6.085526e-02
   endloop
 endfacet
 facet normal  0.000000e+00 -0.000000e+00 -1.000000e+00
   outer loop
     vertex  1.250000e-01  6.324656e-17 -6.085526e-02
     vertex  1.491242e-01 -7.424656e-02 -6.085526e-02
     vertex  7.894737e-03  5.607593e-17 -6.085526e-02
   endloop
 endfacet
 facet normal -0.000000e+00  0.000000e+00 -1.000000e+00
   outer loop
     vertex  2.903495e-01 -1.201335e-01 -6.085526e-02
     vertex  7.894737e-03 -3.750000e-01 -6.085526e-02
     vertex  2.122821e-01 -1.201335e-01 -6.085526e-02
   endloop
 endfacet
 facet normal  0.000000e+00  0.000000e+00 -1.000000e+00
   outer loop
     vertex  7.500000e-01 -3.750000e-01 -6.085526e-02
     vertex  2.903495e-01 -1.201335e-01 -6.085526e-02
     vertex  3.535074e-01 -7.424656e-02 -6.085526e-02
   endloop
 endfacet
 facet normal  0.000000e+00  0.000000e+00 -1.000000e+00
   outer loop
     vertex  7.500000e-01 -3.750000e-01 -6.085526e-02
     vertex  7.894737e-03 -3.750000e-01 -6.085526e-02
     vertex  2.903495e-01 -1.201335e-01 -6.085526e-02
   endloop
 endfacet
 facet normal  0.000000e+00  0.000000e+00 -1.000000e+00
   outer loop
     vertex  7.500000e-01  1.015168e-16 -6.085526e-02
     vertex  3.535074e-01 -7.424656e-02 -6.085526e-02
     vertex  3.776316e-01  3.935789e-17 -6.085526e-02
   endloop
 endfacet
 facet normal  0.000000e+00 -0.000000e+00 -1.000000e+00
   outer loop
     vertex  7.500000e-01  1.015168e-16 -6.085526e-02
     vertex  7.500000e-01 -3.750000e-01 -6.085526e-02
     vertex  3.535074e-01 -7.424656e-02 -6.085526e-02
   endloop
 endfacet
 facet normal  1.000000e+00  0.000000e+00  0.000000e+00
   outer loop
     vertex  7.500000e-01 -3.750000e-01  2.233553e-01
     vertex  7.500000e-01 -3.750000e-01 -6.085526e-02
     vertex  7.500000e-01 -1.875000e-01  3.125000e-02
   endloop
 endfacet
 facet normal  1.000000e+00  0.000000e+00  0.000000e+00
   outer loop
     vertex  7.500000e-01  1.015168e-16 -6.085526e-02
     vertex  7.500000e-01 -1.875000e-01  3.125000e-02
     vertex  7.500000e-01 -3.750000e-01 -6.085526e-02
   endloop
 endfacet
 facet normal  1.000000e+00  0.000000e+00  0.000000e+00
   outer loop
     vertex  7.500000e-01  1.090894e-16  3.125000e-02
     vertex  7.500000e-01 -1.875000e-01  3.125000e-02
     vertex  7.500000e-01  1.015168e-16 -6.085526e-02
   endloop
 endfacet
 facet normal  1.000000e+00  0.000000e+00  0.000000e+00
   outer loop
     vertex  7.500000e-01 -1.875000e-01  2.233553e-01
     vertex  7.500000e-01 -3.750000e-01  2.233553e-01
     vertex  7.500000e-01 -1.875000e-01  3.125000e-02
   endloop
 endfacet
 facet normal -0.000000e+00  0.000000e+00  1.000000e+00
   outer loop
     vertex  5.605263e-01 -1.875000e-01  2.233553e-01
     vertex  7.500000e-01 -3.750000e-01  2.233553e-01
     vertex  7.500000e-01 -1.875000e-01  2.233553e-01
   endloop
 endfacet
 facet normal  0.000000e+00  0.000000e+00  1.000000e+00
   outer loop
     vertex  5.605263e-01 -1.875000e-01  2.233553e-01
     vertex  5.605263e-01 -3.750000e-01  2.233553e-01
     vertex  7.500000e-01 -3.750000e-01  2.233553e-01
   endloop
 endfacet
 facet normal -1.000000e+00  0.000000e+00  0.000000e+00
   outer loop
     vertex  5.605263e-01 -1.875000e-01  9.703947e-02
     vertex  5.605263e-01 -3.750000e-01  2.233553e-01
     vertex  5.605263e-01 -1.875000e-01  2.233553e-01
   endloop
 endfacet
 facet normal -1.000000e+00  0.000000e+00  0.000000e+00
   outer loop
     vertex  5.605263e-01 -1.875000e-01  9.703947e-02
     vertex  5.605263e-01 -3.750000e-01  9.703947e-02
     vertex  5.605263e-01 -3.750000e-01  2.233553e-01
   endloop
 endfacet
 facet normal -0.000000e+00  0.000000e+00  1.000000e+00
   outer loop
     vertex -4.028443e-18 -1.875000e-01  9.703947e-02
     vertex  5.605263e-01 -3.750000e-01  9.703947e-02
     vertex  5.605263e-01 -1.875000e-01  9.703947e-02
   endloop
 endfacet
 facet normal  0.000000e+00  0.000000e+00  1.000000e+00
   outer loop
     vertex -5.605263e-01 -3.750000e-01  9.703947e-02
     vertex  5.605263e-01 -3.750000e-01  9.703947e-02
     vertex -4.028443e-18 -1.875000e-01  9.703947e-02
   endloop
 endfacet
 facet normal -0.000000e+00  0.000000e+00  1.000000e+00
   outer loop
     vertex -5.605263e-01 -1.875000e-01  9.703947e-02
     vertex -5.605263e-01 -3.750000e-01  9.703947e-02
     vertex -4.028443e-18 -1.875000e-01  9.703947e-02
   endloop
 endfacet
 facet normal  1.000000e+00  0.000000e+00  0.000000e+00
   outer loop
     vertex -5.605263e-01 -1.875000e-01  2.233553e-01
     vertex -5.605263e-01 -3.750000e-01  9.703947e-02
     vertex -5.605263e-01 -1.875000e-01  9.703947e-02
   endloop
 endfacet
 facet normal  1.000000e+00  0.000000e+00  0.000000e+00
   outer loop
     vertex -5.605263e-01 -1.875000e-01  2.233553e-01
     vertex -5.605263e-01 -3.750000e-01  2.233553e-01
     vertex -5.605263e-01 -3.750000e-01  9.703947e-02
   endloop
 endfacet
 facet normal -0.000000e+00  0.000000e+00  1.000000e+00
   outer loop
     vertex -7.500000e-01 -1.875000e-01  2.233553e-01
     vertex -5.605263e-01 -3.750000e-01  2.233553e-01
     vertex -5.605263e-01 -1.875000e-01  2.233553e-01
   endloop
 endfacet
 facet normal  0.000000e+00  0.000000e+00  1.000000e+00
   outer loop
     vertex -7.500000e-01 -1.875000e-01  2.233553e-01
     vertex -7.500000e-01 -3.750000e-01  2.233553e-01
     vertex -5.605263e-01 -3.750000e-01  2.233553e-01
   endloop
 endfacet
 facet normal  0.000000e+00  1.000000e+00 -0.000000e+00
   outer loop
     vertex -5.605263e-01 -1.875000e-01  9.703947e-02
     vertex -7.500000e-01 -1.875000e-01  2.233553e-01
     vertex -5.605263e-01 -1.875000e-01  2.233553e-01
   endloop
 endfacet
 facet normal  0.000000e+00  1.000000e+00  0.000000e+00
   outer loop
     vertex -5.605263e-01 -1.875000e-01  9.703947e-02
     vertex -7.500000e-01 -1.875000e-01  3.125000e-02
     vertex -7.500000e-01 -1.875000e-01  2.233553e-01
   endloop
 endfacet
 facet normal  0.000000e+00  1.000000e+00  0.000000e+00
   outer loop
     vertex  0.000000e+00 -1.875000e-01  3.125000e-02
     vertex -5.605263e-01 -1.875000e-01  9.703947e-02
     vertex -4.028443e-18 -1.875000e-01  9.703947e-02
   endloop
 endfacet
 facet normal  0.000000e+00  1.000000e+00  0.000000e+00
   outer loop
     vertex -7.500000e-01 -1.875000e-01  3.125000e-02
     vertex -5.605263e-01 -1.875000e-01  9.703947e-02
     vertex  0.000000e+00 -1.875000e-01  3.125000e-02
   endloop
 endfacet
 facet normal -0.000000e+00  0.000000e+00 -1.000000e+00
   outer loop
     vertex  1.491242e-01  7.424656e-02 -6.085526e-02
     vertex  7.894737e-03  5.607593e-17 -6.085526e-02
     vertex  7.894737e-03  3.750000e-01 -6.085526e-02
   endloop
 endfacet
 facet normal -0.000000e+00  0.000000e+00 -1.000000e+00
   outer loop
     vertex  2.122821e-01  1.201335e-01 -6.085526e-02
     vertex  1.491242e-01  7.424656e-02 -6.085526e-02
     vertex  7.894737e-03  3.750000e-01 -6.085526e-02
   endloop
 endfacet
 facet normal -0.000000e+00  0.000000e+00 -1.000000e+00
   outer loop
     vertex  1.250000e-01  6.324656e-17 -6.085526e-02
     vertex  7.894737e-03  5.607593e-17 -6.085526e-02
     vertex  1.491242e-01  7.424656e-02 -6.085526e-02
   endloop
 endfacet
 facet normal  0.000000e+00  0.000000e+00 -1.000000e+00
   outer loop
     vertex  2.903495e-01  1.201335e-01 -6.085526e-02
     vertex  2.122821e-01  1.201335e-01 -6.085526e-02
     vertex  7.894737e-03  3.750000e-01 -6.085526e-02
   endloop
 endfacet
 facet normal  0.000000e+00  0.000000e+00 -1.000000e+00
   outer loop
     vertex  7.500000e-01  3.750000e-01 -6.085526e-02
     vertex  3.535074e-01  7.424656e-02 -6.085526e-02
     vertex  2.903495e-01  1.201335e-01 -6.085526e-02
   endloop
 endfacet
 facet normal -0.000000e+00  0.000000e+00 -1.000000e+00
   outer loop
     vertex  7.500000e-01  3.750000e-01 -6.085526e-02
     vertex  2.903495e-01  1.201335e-01 -6.085526e-02
     vertex  7.894737e-03  3.750000e-01 -6.085526e-02
   endloop
 endfacet
 facet normal -0.000000e+00  0.000000e+00 -1.000000e+00
   outer loop
     vertex  7.500000e-01  1.015168e-16 -6.085526e-02
     vertex  3.776316e-01  3.935789e-17 -6.085526e-02
     vertex  3.535074e-01  7.424656e-02 -6.085526e-02
   endloop
 endfacet
 facet normal  0.000000e+00  0.000000e+00 -1.000000e+00
   outer loop
     vertex  7.500000e-01  1.015168e-16 -6.085526e-02
     vertex  3.535074e-01  7.424656e-02 -6.085526e-02
     vertex  7.500000e-01  3.750000e-01 -6.085526e-02
   endloop
 endfacet
 facet normal  0.000000e+00  0.000000e+00  1.000000e+00
   outer loop
     vertex  1.054519e-33  3.750000e-01  3.125000e-02
     vertex -7.500000e-01  1.875000e-01  3.125000e-02
     vertex  1.406025e-33  1.875000e-01  3.125000e-02
   endloop
 endfacet
 facet normal  0.000000e+00  0.000000e+00  1.000000e+00
   outer loop
     vertex  1.054519e-33  3.750000e-01  3.125000e-02
     vertex -7.500000e-01  3.750000e-01  3.125000e-02
     vertex -7.500000e-01  1.875000e-01  3.125000e-02
   endloop
 endfacet
 facet normal  0.000000e+00  0.000000e+00  1.000000e+00
   outer loop
     vertex  1.054519e-33  3.750000e-01  3.125000e-02
     vertex  1.406025e-33  1.875000e-01  3.125000e-02
     vertex  7.500000e-01  1.875000e-01  3.125000e-02
   endloop
 endfacet
 facet normal -0.000000e+00  0.000000e+00  1.000000e+00
   outer loop
     vertex  1.054519e-33  3.750000e-01  3.125000e-02
     vertex  7.500000e-01  1.875000e-01  3.125000e-02
     vertex  7.500000e-01  3.750000e-01  3.125000e-02
   endloop
 endfacet
 facet normal  1.000000e+00 -0.000000e+00  0.000000e+00
   outer loop
     vertex  7.500000e-01  1.875000e-01  3.125000e-02
     vertex  7.500000e-01  3.750000e-01 -6.085526e-02
     vertex  7.500000e-01  3.750000e-01  3.125000e-02
   endloop
 endfacet
 facet normal  1.000000e+00  0.000000e+00  0.000000e+00
   outer loop
     vertex  7.500000e-01  1.015168e-16 -6.085526e-02
     vertex  7.500000e-01  1.875000e-01  3.125000e-02
     vertex  7.500000e-01  9.375000e-02  3.125000e-02
   endloop
 endfacet
 facet normal  1.000000e+00  0.000000e+00  0.000000e+00
   outer loop
     vertex  7.500000e-01  1.015168e-16 -6.085526e-02
     vertex  7.500000e-01  3.750000e-01 -6.085526e-02
     vertex  7.500000e-01  1.875000e-01  3.125000e-02
   endloop
 endfacet
 facet normal  1.000000e+00 -0.000000e+00  0.000000e+00
   outer loop
     vertex  7.500000e-01  1.090894e-16  3.125000e-02
     vertex  7.500000e-01  1.015168e-16 -6.085526e-02
     vertex  7.500000e-01  9.375000e-02  3.125000e-02
   endloop
 endfacet
 facet normal -0.000000e+00  0.000000e+00  1.000000e+00
   outer loop
     vertex  2.819327e-01 -1.225491e-01  3.125000e-02
     vertex  7.500000e-01 -1.875000e-01  3.125000e-02
     vertex  3.508725e-01 -7.774405e-02  3.125000e-02
   endloop
 endfacet
 facet normal -0.000000e+00  0.000000e+00  1.000000e+00
   outer loop
     vertex  3.776316e-01  0.000000e+00  3.125000e-02
     vertex  7.500000e-01 -1.875000e-01  3.125000e-02
     vertex  7.500000e-01  1.090894e-16  3.125000e-02
   endloop
 endfacet
 facet normal  0.000000e+00  0.000000e+00  1.000000e+00
   outer loop
     vertex  3.776316e-01  0.000000e+00  3.125000e-02
     vertex  3.508725e-01 -7.774405e-02  3.125000e-02
     vertex  7.500000e-01 -1.875000e-01  3.125000e-02
   endloop
 endfacet
 facet normal -0.000000e+00  0.000000e+00  1.000000e+00
   outer loop
     vertex  3.727549e-01  3.475949e-02  3.125000e-02
     vertex  7.500000e-01  1.090894e-16  3.125000e-02
     vertex  7.500000e-01  9.375000e-02  3.125000e-02
   endloop
 endfacet
 facet normal  0.000000e+00  0.000000e+00  1.000000e+00
   outer loop
     vertex  3.727549e-01  3.475949e-02  3.125000e-02
     vertex  3.776316e-01  0.000000e+00  3.125000e-02
     vertex  7.500000e-01  1.090894e-16  3.125000e-02
   endloop
 endfacet
 facet normal -0.000000e+00  0.000000e+00  1.000000e+00
   outer loop
     vertex  3.585014e-01  6.683505e-02  3.125000e-02
     vertex  3.727549e-01  3.475949e-02  3.125000e-02
     vertex  7.500000e-01  9.375000e-02  3.125000e-02
   endloop
 endfacet
 facet normal -0.000000e+00  0.000000e+00  1.000000e+00
   outer loop
     vertex  3.359717e-01  9.375000e-02  3.125000e-02
     vertex  3.585014e-01  6.683505e-02  3.125000e-02
     vertex  7.500000e-01  9.375000e-02  3.125000e-02
   endloop
 endfacet
 facet normal  0.000000e+00  0.000000e+00  1.000000e+00
   outer loop
     vertex  0.000000e+00 -1.875000e-01  3.125000e-02
     vertex  2.000210e-01 -1.154319e-01  3.125000e-02
     vertex  1.398421e-01 -5.940794e-02  3.125000e-02
   endloop
 endfacet
 facet normal  0.000000e+00  0.000000e+00  1.000000e+00
   outer loop
     vertex  0.000000e+00 -1.875000e-01  3.125000e-02
     vertex  2.819327e-01 -1.225491e-01  3.125000e-02
     vertex  2.000210e-01 -1.154319e-01  3.125000e-02
   endloop
 endfacet
 facet normal -0.000000e+00  0.000000e+00  1.000000e+00
   outer loop
     vertex  0.000000e+00  9.375000e-02  3.125000e-02
     vertex  1.268930e-01  2.178630e-02  3.125000e-02
     vertex  1.666599e-01  9.375000e-02  3.125000e-02
   endloop
 endfacet
 facet normal  0.000000e+00  0.000000e+00  1.000000e+00
   outer loop
     vertex  0.000000e+00  9.375000e-02  3.125000e-02
     vertex  1.398421e-01 -5.940794e-02  3.125000e-02
     vertex  1.268930e-01  2.178630e-02  3.125000e-02
   endloop
 endfacet
 facet normal  0.000000e+00  0.000000e+00  1.000000e+00
   outer loop
     vertex  0.000000e+00  9.375000e-02  3.125000e-02
     vertex  0.000000e+00 -1.875000e-01  3.125000e-02
     vertex  1.398421e-01 -5.940794e-02  3.125000e-02
   endloop
 endfacet
 facet normal  0.000000e+00  0.000000e+00  1.000000e+00
   outer loop
     vertex  0.000000e+00 -1.875000e-01  3.125000e-02
     vertex  7.500000e-01 -1.875000e-01  3.125000e-02
     vertex  2.819327e-01 -1.225491e-01  3.125000e-02
   endloop
 endfacet
 facet normal  0.000000e+00  0.000000e+00  1.000000e+00
   outer loop
     vertex  3.359717e-01  9.375000e-02  3.125000e-02
     vertex  7.500000e-01  9.375000e-02  3.125000e-02
     vertex  7.500000e-01  1.875000e-01  3.125000e-02
   endloop
 endfacet
 facet normal -0.000000e+00  0.000000e+00  1.000000e+00
   outer loop
     vertex  2.819327e-01  1.225491e-01  3.125000e-02
     vertex  3.359717e-01  9.375000e-02  3.125000e-02
     vertex  7.500000e-01  1.875000e-01  3.125000e-02
   endloop
 endfacet
 facet normal  0.000000e+00  0.000000e+00  1.000000e+00
   outer loop
     vertex  1.406025e-33  1.875000e-01  3.125000e-02
     vertex  0.000000e+00  9.375000e-02  3.125000e-02
     vertex  1.666599e-01  9.375000e-02  3.125000e-02
   endloop
 endfacet
 facet normal  0.000000e+00  0.000000e+00  1.000000e+00
   outer loop
     vertex  1.406025e-33  1.875000e-01  3.125000e-02
     vertex  2.206988e-01  1.225491e-01  3.125000e-02
     vertex  2.819327e-01  1.225491e-01  3.125000e-02
   endloop
 endfacet
 facet normal  0.000000e+00  0.000000e+00  1.000000e+00
   outer loop
     vertex  1.406025e-33  1.875000e-01  3.125000e-02
     vertex  1.666599e-01  9.375000e-02  3.125000e-02
     vertex  2.206988e-01  1.225491e-01  3.125000e-02
   endloop
 endfacet
 facet normal  0.000000e+00  0.000000e+00  1.000000e+00
   outer loop
     vertex  7.500000e-01  1.875000e-01  3.125000e-02
     vertex  1.406025e-33  1.875000e-01  3.125000e-02
     vertex  2.819327e-01  1.225491e-01  3.125000e-02
   endloop
 endfacet
 facet normal -9.903012e-01 -1.389372e-01 -6.707332e-17
   outer loop
     vertex  3.727549e-01  3.475949e-02  3.125000e-02
     vertex  3.776316e-01  3.935789e-17 -6.085526e-02
     vertex  3.776316e-01  0.000000e+00  3.125000e-02
   endloop
 endfacet
 facet normal -9.489754e-01 -3.083408e-01  6.611909e-02
   outer loop
     vertex  3.727549e-01  3.475949e-02  3.125000e-02
     vertex  3.535074e-01  7.424656e-02 -6.085526e-02
     vertex  3.776316e-01  3.935789e-17 -6.085526e-02
   endloop
 endfacet
 facet normal -9.137059e-01 -4.060258e-01  1.686955e-02
   outer loop
     vertex  3.585014e-01  6.683505e-02  3.125000e-02
     vertex  3.535074e-01  7.424656e-02 -6.085526e-02
     vertex  3.727549e-01  3.475949e-02  3.125000e-02
   endloop
 endfacet
 facet normal -5.867509e-01 -8.075933e-01  5.929880e-02
   outer loop
     vertex  3.359717e-01  9.375000e-02  3.125000e-02
     vertex  2.903495e-01  1.201335e-01 -6.085526e-02
     vertex  3.535074e-01  7.424656e-02 -6.085526e-02
   endloop
 endfacet
 facet normal -7.667708e-01 -6.418420e-01 -1.007297e-02
   outer loop
     vertex  3.359717e-01  9.375000e-02  3.125000e-02
     vertex  3.535074e-01  7.424656e-02 -6.085526e-02
     vertex  3.585014e-01  6.683505e-02  3.125000e-02
   endloop
 endfacet
 facet normal -4.702204e-01 -8.823263e-01 -1.982898e-02
   outer loop
     vertex  2.819327e-01  1.225491e-01  3.125000e-02
     vertex  2.903495e-01  1.201335e-01 -6.085526e-02
     vertex  3.359717e-01  9.375000e-02  3.125000e-02
   endloop
 endfacet
 facet normal -1.771105e-16 -9.996563e-01  2.621794e-02
   outer loop
     vertex  2.206988e-01  1.225491e-01  3.125000e-02
     vertex  2.122821e-01  1.201335e-01 -6.085526e-02
     vertex  2.903495e-01  1.201335e-01 -6.085526e-02
   endloop
 endfacet
 facet normal  0.000000e+00 -9.996563e-01  2.621794e-02
   outer loop
     vertex  2.206988e-01  1.225491e-01  3.125000e-02
     vertex  2.903495e-01  1.201335e-01 -6.085526e-02
     vertex  2.819327e-01  1.225491e-01  3.125000e-02
   endloop
 endfacet
 facet normal  5.867509e-01 -8.075933e-01  5.929880e-02
   outer loop
     vertex  1.666599e-01  9.375000e-02  3.125000e-02
     vertex  1.491242e-01  7.424656e-02 -6.085526e-02
     vertex  2.122821e-01  1.201335e-01 -6.085526e-02
   endloop
 endfacet
 facet normal  4.702204e-01 -8.823263e-01 -1.982898e-02
   outer loop
     vertex  1.666599e-01  9.375000e-02  3.125000e-02
     vertex  2.122821e-01  1.201335e-01 -6.085526e-02
     vertex  2.206988e-01  1.225491e-01  3.125000e-02
   endloop
 endfacet
 facet normal  9.496959e-01 -3.085749e-01  5.347090e-02
   outer loop
     vertex  1.268930e-01  2.178630e-02  3.125000e-02
     vertex  1.250000e-01  6.324656e-17 -6.085526e-02
     vertex  1.491242e-01  7.424656e-02 -6.085526e-02
   endloop
 endfacet
 facet normal  8.734549e-01 -4.826687e-01 -6.408956e-02
   outer loop
     vertex  1.268930e-01  2.178630e-02  3.125000e-02
     vertex  1.491242e-01  7.424656e-02 -6.085526e-02
     vertex  1.666599e-01  9.375000e-02  3.125000e-02
   endloop
 endfacet
 facet normal  9.500493e-01  3.086897e-01  4.601105e-02
   outer loop
     vertex  1.398421e-01 -5.940794e-02  3.125000e-02
     vertex  1.491242e-01 -7.424656e-02 -6.085526e-02
     vertex  1.250000e-01  6.324656e-17 -6.085526e-02
   endloop
 endfacet
 facet normal  9.858888e-01  1.572332e-01 -5.745378e-02
   outer loop
     vertex  1.398421e-01 -5.940794e-02  3.125000e-02
     vertex  1.250000e-01  6.324656e-17 -6.085526e-02
     vertex  1.268930e-01  2.178630e-02  3.125000e-02
   endloop
 endfacet
 facet normal  5.873844e-01  8.084653e-01  3.692414e-02
   outer loop
     vertex  2.000210e-01 -1.154319e-01  3.125000e-02
     vertex  2.122821e-01 -1.201335e-01 -6.085526e-02
     vertex  1.491242e-01 -7.424656e-02 -6.085526e-02
   endloop
 endfacet
 facet normal  6.805634e-01  7.310362e-01 -4.918889e-02
   outer loop
     vertex  2.000210e-01 -1.154319e-01  3.125000e-02
     vertex  1.491242e-01 -7.424656e-02 -6.085526e-02
     vertex  1.398421e-01 -5.940794e-02  3.125000e-02
   endloop
 endfacet
 facet normal  1.808788e-16  9.996563e-01  2.621794e-02
   outer loop
     vertex  2.819327e-01 -1.225491e-01  3.125000e-02
     vertex  2.903495e-01 -1.201335e-01 -6.085526e-02
     vertex  2.122821e-01 -1.201335e-01 -6.085526e-02
   endloop
 endfacet
 facet normal  8.649547e-02  9.954768e-01 -3.930019e-02
   outer loop
     vertex  2.819327e-01 -1.225491e-01  3.125000e-02
     vertex  2.122821e-01 -1.201335e-01 -6.085526e-02
     vertex  2.000210e-01 -1.154319e-01  3.125000e-02
   endloop
 endfacet
 facet normal -5.877284e-01  8.089388e-01  1.390423e-02
   outer loop
     vertex  3.508725e-01 -7.774405e-02  3.125000e-02
     vertex  3.535074e-01 -7.424656e-02 -6.085526e-02
     vertex  2.903495e-01 -1.201335e-01 -6.085526e-02
   endloop
 endfacet
 facet normal -5.447282e-01  8.381519e-01 -2.779622e-02
   outer loop
     vertex  3.508725e-01 -7.774405e-02  3.125000e-02
     vertex  2.903495e-01 -1.201335e-01 -6.085526e-02
     vertex  2.819327e-01 -1.225491e-01  3.125000e-02
   endloop
 endfacet
 facet normal -9.510565e-01  3.090170e-01  1.320474e-16
   outer loop
     vertex  3.776316e-01  0.000000e+00  3.125000e-02
     vertex  3.776316e-01  3.935789e-17 -6.085526e-02
     vertex  3.535074e-01 -7.424656e-02 -6.085526e-02
   endloop
 endfacet
 facet normal -9.454553e-01  3.254204e-01 -1.468993e-02
   outer loop
     vertex  3.776316e-01  0.000000e+00  3.125000e-02
     vertex  3.535074e-01 -7.424656e-02 -6.085526e-02
     vertex  3.508725e-01 -7.774405e-02  3.125000e-02
   endloop
 endfacet
 facet normal  0.000000e+00  1.000000e+00  0.000000e+00
   outer loop
     vertex  5.605263e-01 -1.875000e-01  9.703947e-02
     vertex  5.605263e-01 -1.875000e-01  2.233553e-01
     vertex  7.500000e-01 -1.875000e-01  2.233553e-01
   endloop
 endfacet
 facet normal -0.000000e+00  1.000000e+00  0.000000e+00
   outer loop
     vertex  5.605263e-01 -1.875000e-01  9.703947e-02
     vertex  7.500000e-01 -1.875000e-01  2.233553e-01
     vertex  7.500000e-01 -1.875000e-01  3.125000e-02
   endloop
 endfacet
 facet normal  0.000000e+00  1.000000e+00 -0.000000e+00
   outer loop
     vertex  0.000000e+00 -1.875000e-01  3.125000e-02
     vertex -4.028443e-18 -1.875000e-01  9.703947e-02
     vertex  5.605263e-01 -1.875000e-01  9.703947e-02
   endloop
 endfacet
 facet normal  0.000000e+00  1.000000e+00  0.000000e+00
   outer loop
     vertex  7.500000e-01 -1.875000e-01  3.125000e-02
     vertex  0.000000e+00 -1.875000e-01  3.125000e-02
     vertex  5.605263e-01 -1.875000e-01  9.703947e-02
   endloop
 endfacet
endsolid
