solid 
 facet normal -4.592425e-17 -6.123234e-17 -1.000000e+00
   outer loop
     vertex  4.687500e-02  3.169856e-18 -2.152699e-18
     vertex  0.000000e+00  0.000000e+00  0.000000e+00
     vertex -1.435133e-18  2.343750e-02 -1.435133e-18
   endloop
 endfacet
 facet normal -3.061617e-17 -3.061617e-17 -1.000000e+00
   outer loop
     vertex  4.687500e-02  3.169856e-18 -2.152699e-18
     vertex -1.435133e-18  2.343750e-02 -1.435133e-18
     vertex  4.687500e-02  2.343750e-02 -2.870266e-18
   endloop
 endfacet
 facet normal  6.762360e-17 -1.000000e+00  6.422392e-17
   outer loop
     vertex  4.687500e-02  2.775558e-17  3.828125e-01
     vertex  0.000000e+00  0.000000e+00  0.000000e+00
     vertex  4.687500e-02  3.169856e-18 -2.152699e-18
   endloop
 endfacet
 facet normal  9.205484e-17 -1.000000e+00  6.123234e-17
   outer loop
     vertex  2.900479e-17  2.900479e-17  4.736842e-01
     vertex  0.000000e+00  0.000000e+00  0.000000e+00
     vertex  4.687500e-02  2.775558e-17  3.828125e-01
   endloop
 endfacet
 facet normal  5.381183e-17 -1.000000e+00  4.150518e-17
   outer loop
     vertex  2.402961e-01  3.816392e-17  3.828125e-01
     vertex  2.900479e-17  2.900479e-17  4.736842e-01
     vertex  4.687500e-02  2.775558e-17  3.828125e-01
   endloop
 endfacet
 facet normal  6.205252e-17 -1.000000e+00  6.234926e-17
   outer loop
     vertex  7.500000e-01  4.592425e-17 -4.592425e-17
     vertex  2.402961e-01  3.816392e-17  3.828125e-01
     vertex  2.402961e-01  1.429584e-17 -1.399632e-17
   endloop
 endfacet
 facet normal  6.121366e-17 -1.000000e+00  6.123234e-17
   outer loop
     vertex  7.500000e-01  7.492905e-17  4.736842e-01
     vertex  2.402961e-01  3.816392e-17  3.828125e-01
     vertex  7.500000e-01  4.592425e-17 -4.592425e-17
   endloop
 endfacet
 facet normal  6.123234e-17 -1.000000e+00  6.112756e-17
   outer loop
     vertex  7.500000e-01  7.492905e-17  4.736842e-01
     vertex  2.900479e-17  2.900479e-17  4.736842e-01
     vertex  2.402961e-01  3.816392e-17  3.828125e-01
   endloop
 endfacet
 facet normal  1.000000e+00  0.000000e+00  0.000000e+00
   outer loop
     vertex  4.687500e-02  3.169856e-18 -2.152699e-18
     vertex  4.687500e-02  2.343750e-02  3.828125e-01
     vertex  4.687500e-02  2.775558e-17  3.828125e-01
   endloop
 endfacet
 facet normal  1.000000e+00 -0.000000e+00  0.000000e+00
   outer loop
     vertex  4.687500e-02  3.169856e-18 -2.152699e-18
     vertex  4.687500e-02  2.343750e-02 -2.870266e-18
     vertex  4.687500e-02  2.343750e-02  3.828125e-01
   endloop
 endfacet
 facet normal  0.000000e+00  1.000000e+00  0.000000e+00
   outer loop
     vertex  4.687500e-02  2.343750e-02  3.828125e-01
     vertex  4.687500e-02  2.343750e-02 -2.870266e-18
     vertex -1.435133e-18  2.343750e-02 -1.435133e-18
   endloop
 endfacet
 facet normal  0.000000e+00  1.000000e+00  0.000000e+00
   outer loop
     vertex  2.756966e-17  2.343750e-02  4.736842e-01
     vertex  4.687500e-02  2.343750e-02  3.828125e-01
     vertex -1.435133e-18  2.343750e-02 -1.435133e-18
   endloop
 endfacet
 facet normal  0.000000e+00  1.000000e+00  0.000000e+00
   outer loop
     vertex  2.402961e-01  2.343750e-02  3.828125e-01
     vertex  4.687500e-02  2.343750e-02  3.828125e-01
     vertex  2.756966e-17  2.343750e-02  4.736842e-01
   endloop
 endfacet
 facet normal  0.000000e+00  1.000000e+00  0.000000e+00
   outer loop
     vertex  7.500000e-01  2.343750e-02 -4.735939e-17
     vertex  2.402961e-01  2.343750e-02 -1.471389e-17
     vertex  2.402961e-01  2.343750e-02  3.828125e-01
   endloop
 endfacet
 facet normal  0.000000e+00  1.000000e+00  0.000000e+00
   outer loop
     vertex  7.500000e-01  2.343750e-02  4.736842e-01
     vertex  7.500000e-01  2.343750e-02 -4.735939e-17
     vertex  2.402961e-01  2.343750e-02  3.828125e-01
   endloop
 endfacet
 facet normal  0.000000e+00  1.000000e+00  0.000000e+00
   outer loop
     vertex  7.500000e-01  2.343750e-02  4.736842e-01
     vertex  2.402961e-01  2.343750e-02  3.828125e-01
     vertex  2.756966e-17  2.343750e-02  4.736842e-01
   endloop
 endfacet
 facet normal -1.000000e+00 -6.123234e-17  6.123234e-17
   outer loop
     vertex  0.000000e+00  0.000000e+00  0.000000e+00
     vertex  2.900479e-17  2.900479e-17  4.736842e-01
     vertex  2.756966e-17  2.343750e-02  4.736842e-01
   endloop
 endfacet
 facet normal -1.000000e+00 -6.123234e-17  6.123234e-17
   outer loop
     vertex  0.000000e+00  0.000000e+00  0.000000e+00
     vertex  2.756966e-17  2.343750e-02  4.736842e-01
     vertex -1.435133e-18  2.343750e-02 -1.435133e-18
   endloop
 endfacet
 facet normal  0.000000e+00  0.000000e+00  1.000000e+00
   outer loop
     vertex  2.900479e-17  2.900479e-17  4.736842e-01
     vertex  7.500000e-01  7.492905e-17  4.736842e-01
     vertex  7.500000e-01  2.343750e-02  4.736842e-01
   endloop
 endfacet
 facet normal  0.000000e+00 -0.000000e+00  1.000000e+00
   outer loop
     vertex  2.900479e-17  2.900479e-17  4.736842e-01
     vertex  7.500000e-01  2.343750e-02  4.736842e-01
     vertex  2.756966e-17  2.343750e-02  4.736842e-01
   endloop
 endfacet
 facet normal  1.000000e+00  0.000000e+00  0.000000e+00
   outer loop
     vertex  7.500000e-01  7.492905e-17  4.736842e-01
     vertex  7.500000e-01  4.592425e-17 -4.592425e-17
     vertex  7.500000e-01  2.343750e-02 -4.735939e-17
   endloop
 endfacet
 facet normal  1.000000e+00 -0.000000e+00  0.000000e+00
   outer loop
     vertex  7.500000e-01  7.492905e-17  4.736842e-01
     vertex  7.500000e-01  2.343750e-02 -4.735939e-17
     vertex  7.500000e-01  2.343750e-02  4.736842e-01
   endloop
 endfacet
 facet normal -6.264015e-17 -3.061617e-17 -1.000000e+00
   outer loop
     vertex  7.500000e-01  4.592425e-17 -4.592425e-17
     vertex  2.402961e-01  1.429584e-17 -1.399632e-17
     vertex  2.402961e-01  2.343750e-02 -1.471389e-17
   endloop
 endfacet
 facet normal -6.404796e-17 -6.123234e-17 -1.000000e+00
   outer loop
     vertex  7.500000e-01  4.592425e-17 -4.592425e-17
     vertex  2.402961e-01  2.343750e-02 -1.471389e-17
     vertex  7.500000e-01  2.343750e-02 -4.735939e-17
   endloop
 endfacet
 facet normal -1.000000e+00  0.000000e+00 -0.000000e+00
   outer loop
     vertex  2.402961e-01  3.816392e-17  3.828125e-01
     vertex  2.402961e-01  2.343750e-02 -1.471389e-17
     vertex  2.402961e-01  1.429584e-17 -1.399632e-17
   endloop
 endfacet
 facet normal -1.000000e+00  0.000000e+00  0.000000e+00
   outer loop
     vertex  2.402961e-01  3.816392e-17  3.828125e-01
     vertex  2.402961e-01  2.343750e-02  3.828125e-01
     vertex  2.402961e-01  2.343750e-02 -1.471389e-17
   endloop
 endfacet
 facet normal  0.000000e+00  0.000000e+00 -1.000000e+00
   outer loop
     vertex  4.687500e-02  2.775558e-17  3.828125e-01
     vertex  2.402961e-01  2.343750e-02  3.828125e-01
     vertex  2.402961e-01  3.816392e-17  3.828125e-01
   endloop
 endfacet
 facet normal  0.000000e+00  0.000000e+00 -1.000000e+00
   outer loop
     vertex  4.687500e-02  2.775558e-17  3.828125e-01
     vertex  4.687500e-02  2.343750e-02  3.828125e-01
     vertex  2.402961e-01  2.343750e-02  3.828125e-01
   endloop
 endfacet
endsolid
