solid 
 facet normal  7.479158e-01  0.000000e+00  6.637936e-01
   outer loop
     vertex -3.420030e-01  5.320641e-19  4.600481e-02
     vertex -2.734375e-01 -2.109375e-01 -3.125000e-02
     vertex -2.734375e-01 -6.162976e-33 -3.125000e-02
   endloop
 endfacet
 facet normal  7.479158e-01  0.000000e+00  6.637936e-01
   outer loop
     vertex -3.420030e-01  5.320641e-19  4.600481e-02
     vertex -3.420030e-01 -2.109375e-01  4.600481e-02
     vertex -2.734375e-01 -2.109375e-01 -3.125000e-02
   endloop
 endfacet
 facet normal  8.850829e-01  0.000000e+00  4.654335e-01
   outer loop
     vertex -3.900793e-01  3.186305e-18  1.374281e-01
     vertex -3.900793e-01 -2.109375e-01  1.374281e-01
     vertex -3.420030e-01 -2.109375e-01  4.600481e-02
   endloop
 endfacet
 facet normal  8.850829e-01  0.000000e+00  4.654335e-01
   outer loop
     vertex -3.900793e-01  3.186305e-18  1.374281e-01
     vertex -3.420030e-01 -2.109375e-01  4.600481e-02
     vertex -3.420030e-01  5.320641e-19  4.600481e-02
   endloop
 endfacet
 facet normal  9.707721e-01  0.000000e+00  2.400030e-01
   outer loop
     vertex -4.148700e-01  7.808347e-18  2.377025e-01
     vertex -4.148700e-01 -2.109375e-01  2.377025e-01
     vertex -3.900793e-01 -2.109375e-01  1.374281e-01
   endloop
 endfacet
 facet normal  9.707721e-01  0.000000e+00  2.400030e-01
   outer loop
     vertex -4.148700e-01  7.808347e-18  2.377025e-01
     vertex -3.900793e-01 -2.109375e-01  1.374281e-01
     vertex -3.900793e-01  3.186305e-18  1.374281e-01
   endloop
 endfacet
 facet normal  9.999998e-01  0.000000e+00  6.135923e-04
   outer loop
     vertex -4.149334e-01  1.412937e-17  3.409960e-01
     vertex -4.149334e-01 -2.109375e-01  3.409960e-01
     vertex -4.148700e-01 -2.109375e-01  2.377025e-01
   endloop
 endfacet
 facet normal  9.999998e-01  0.000000e+00  6.135923e-04
   outer loop
     vertex -4.149334e-01  1.412937e-17  3.409960e-01
     vertex -4.148700e-01 -2.109375e-01  2.377025e-01
     vertex -4.148700e-01  7.808347e-18  2.377025e-01
   endloop
 endfacet
 facet normal  9.710659e-01  0.000000e+00 -2.388115e-01
   outer loop
     vertex -3.902657e-01  2.178172e-17  4.413007e-01
     vertex -3.902657e-01 -2.109375e-01  4.413007e-01
     vertex -4.149334e-01 -2.109375e-01  3.409960e-01
   endloop
 endfacet
 facet normal  9.710659e-01  0.000000e+00 -2.388115e-01
   outer loop
     vertex -3.902657e-01  2.178172e-17  4.413007e-01
     vertex -4.149334e-01 -2.109375e-01  3.409960e-01
     vertex -4.149334e-01  1.412937e-17  3.409960e-01
   endloop
 endfacet
 facet normal  8.856534e-01  0.000000e+00 -4.643470e-01
   outer loop
     vertex -3.423017e-01  3.032034e-17  5.327829e-01
     vertex -3.423017e-01 -2.109375e-01  5.327829e-01
     vertex -3.902657e-01 -2.109375e-01  4.413007e-01
   endloop
 endfacet
 facet normal  8.856534e-01  0.000000e+00 -4.643470e-01
   outer loop
     vertex -3.423017e-01  3.032034e-17  5.327829e-01
     vertex -3.902657e-01 -2.109375e-01  4.413007e-01
     vertex -3.902657e-01  2.178172e-17  4.413007e-01
   endloop
 endfacet
 facet normal  7.487298e-01  0.000000e+00 -6.628753e-01
   outer loop
     vertex -2.738310e-01  3.924860e-17  6.101218e-01
     vertex -2.738310e-01 -2.109375e-01  6.101218e-01
     vertex -3.423017e-01 -2.109375e-01  5.327829e-01
   endloop
 endfacet
 facet normal  7.487298e-01  0.000000e+00 -6.628753e-01
   outer loop
     vertex -2.738310e-01  3.924860e-17  6.101218e-01
     vertex -3.423017e-01 -2.109375e-01  5.327829e-01
     vertex -3.423017e-01  3.032034e-17  5.327829e-01
   endloop
 endfacet
 facet normal  5.682590e-01  0.000000e+00 -8.228498e-01
   outer loop
     vertex -1.888360e-01  4.804723e-17  6.688193e-01
     vertex -1.888360e-01 -2.109375e-01  6.688193e-01
     vertex -2.738310e-01 -2.109375e-01  6.101218e-01
   endloop
 endfacet
 facet normal  5.682590e-01  0.000000e+00 -8.228498e-01
   outer loop
     vertex -1.888360e-01  4.804723e-17  6.688193e-01
     vertex -2.738310e-01 -2.109375e-01  6.101218e-01
     vertex -2.738310e-01  3.924860e-17  6.101218e-01
   endloop
 endfacet
 facet normal  3.547373e-01  0.000000e+00 -9.349660e-01
   outer loop
     vertex -9.226015e-02  5.620447e-17  7.054613e-01
     vertex -9.226015e-02 -2.109375e-01  7.054613e-01
     vertex -1.888360e-01 -2.109375e-01  6.688193e-01
   endloop
 endfacet
 facet normal  3.547373e-01  0.000000e+00 -9.349660e-01
   outer loop
     vertex -9.226015e-02  5.620447e-17  7.054613e-01
     vertex -1.888360e-01 -2.109375e-01  6.688193e-01
     vertex -1.888360e-01  4.804723e-17  6.688193e-01
   endloop
 endfacet
 facet normal  1.205835e-01  0.000000e+00 -9.927032e-01
   outer loop
     vertex  1.027961e-02  6.324590e-17  7.179168e-01
     vertex  1.027961e-02 -2.109375e-01  7.179168e-01
     vertex -9.226015e-02 -2.109375e-01  7.054613e-01
   endloop
 endfacet
 facet normal  1.205835e-01  0.000000e+00 -9.927032e-01
   outer loop
     vertex  1.027961e-02  6.324590e-17  7.179168e-01
     vertex -9.226015e-02 -2.109375e-01  7.054613e-01
     vertex -9.226015e-02  5.620447e-17  7.054613e-01
   endloop
 endfacet
 facet normal -1.205835e-01 -0.000000e+00 -9.927032e-01
   outer loop
     vertex  1.128194e-01  6.876197e-17  7.054613e-01
     vertex  1.128194e-01 -2.109375e-01  7.054613e-01
     vertex  1.027961e-02 -2.109375e-01  7.179168e-01
   endloop
 endfacet
 facet normal -3.547373e-01 -0.000000e+00 -9.349660e-01
   outer loop
     vertex  1.128194e-01  6.876197e-17  7.054613e-01
     vertex  2.093952e-01 -2.109375e-01  6.688193e-01
     vertex  1.128194e-01 -2.109375e-01  7.054613e-01
   endloop
 endfacet
 facet normal -1.205835e-01  0.000000e+00 -9.927032e-01
   outer loop
     vertex  1.128194e-01  6.876197e-17  7.054613e-01
     vertex  1.027961e-02 -2.109375e-01  7.179168e-01
     vertex  1.027961e-02  6.324590e-17  7.179168e-01
   endloop
 endfacet
 facet normal -3.547373e-01 -0.000000e+00 -9.349660e-01
   outer loop
     vertex  2.093952e-01  7.243186e-17  6.688193e-01
     vertex  2.093952e-01 -2.109375e-01  6.688193e-01
     vertex  1.128194e-01  6.876197e-17  7.054613e-01
   endloop
 endfacet
 facet normal -5.682590e-01 -0.000000e+00 -8.228498e-01
   outer loop
     vertex  2.943903e-01  7.404212e-17  6.101218e-01
     vertex  2.943903e-01 -2.109375e-01  6.101218e-01
     vertex  2.093952e-01 -2.109375e-01  6.688193e-01
   endloop
 endfacet
 facet normal -5.682590e-01  0.000000e+00 -8.228498e-01
   outer loop
     vertex  2.943903e-01  7.404212e-17  6.101218e-01
     vertex  2.093952e-01 -2.109375e-01  6.688193e-01
     vertex  2.093952e-01  7.243186e-17  6.688193e-01
   endloop
 endfacet
 facet normal -7.487298e-01  0.000000e+00 -6.628753e-01
   outer loop
     vertex  3.628609e-01  7.349910e-17  5.327829e-01
     vertex  2.943903e-01 -2.109375e-01  6.101218e-01
     vertex  2.943903e-01  7.404212e-17  6.101218e-01
   endloop
 endfacet
 facet normal -7.487298e-01 -0.000000e+00 -6.628753e-01
   outer loop
     vertex  3.628609e-01  7.349910e-17  5.327829e-01
     vertex  3.628609e-01 -2.109375e-01  5.327829e-01
     vertex  2.943903e-01 -2.109375e-01  6.101218e-01
   endloop
 endfacet
 facet normal -8.856534e-01  0.000000e+00 -4.643470e-01
   outer loop
     vertex  4.108250e-01  7.083438e-17  4.413007e-01
     vertex  3.628609e-01 -2.109375e-01  5.327829e-01
     vertex  3.628609e-01  7.349910e-17  5.327829e-01
   endloop
 endfacet
 facet normal -8.856534e-01 -0.000000e+00 -4.643470e-01
   outer loop
     vertex  4.108250e-01  7.083438e-17  4.413007e-01
     vertex  4.108250e-01 -2.109375e-01  4.413007e-01
     vertex  3.628609e-01 -2.109375e-01  5.327829e-01
   endloop
 endfacet
 facet normal -9.710659e-01  0.000000e+00 -2.388115e-01
   outer loop
     vertex  4.354926e-01  6.620294e-17  3.409960e-01
     vertex  4.108250e-01 -2.109375e-01  4.413007e-01
     vertex  4.108250e-01  7.083438e-17  4.413007e-01
   endloop
 endfacet
 facet normal -9.710659e-01 -0.000000e+00 -2.388115e-01
   outer loop
     vertex  4.354926e-01  6.620294e-17  3.409960e-01
     vertex  4.354926e-01 -2.109375e-01  3.409960e-01
     vertex  4.108250e-01 -2.109375e-01  4.413007e-01
   endloop
 endfacet
 facet normal -9.999998e-01  0.000000e+00  6.135923e-04
   outer loop
     vertex  4.354926e-01  6.620294e-17  3.409960e-01
     vertex  4.354292e-01 -2.109375e-01  2.377025e-01
     vertex  4.354926e-01 -2.109375e-01  3.409960e-01
   endloop
 endfacet
 facet normal -9.999998e-01  0.000000e+00  6.135923e-04
   outer loop
     vertex  4.354292e-01  5.987416e-17  2.377025e-01
     vertex  4.354292e-01 -2.109375e-01  2.377025e-01
     vertex  4.354926e-01  6.620294e-17  3.409960e-01
   endloop
 endfacet
 facet normal -9.707721e-01  0.000000e+00  2.400030e-01
   outer loop
     vertex  4.106385e-01  5.221613e-17  1.374281e-01
     vertex  4.354292e-01 -2.109375e-01  2.377025e-01
     vertex  4.354292e-01  5.987416e-17  2.377025e-01
   endloop
 endfacet
 facet normal -9.707721e-01  0.000000e+00  2.400030e-01
   outer loop
     vertex  4.106385e-01  5.221613e-17  1.374281e-01
     vertex  4.106385e-01 -2.109375e-01  1.374281e-01
     vertex  4.354292e-01 -2.109375e-01  2.377025e-01
   endloop
 endfacet
 facet normal -8.850829e-01  0.000000e+00  4.654335e-01
   outer loop
     vertex  3.625623e-01  4.367425e-17  4.600481e-02
     vertex  3.625623e-01 -2.109375e-01  4.600481e-02
     vertex  4.106385e-01 -2.109375e-01  1.374281e-01
   endloop
 endfacet
 facet normal -8.850829e-01  0.000000e+00  4.654335e-01
   outer loop
     vertex  3.625623e-01  4.367425e-17  4.600481e-02
     vertex  4.106385e-01 -2.109375e-01  1.374281e-01
     vertex  4.106385e-01  5.221613e-17  1.374281e-01
   endloop
 endfacet
 facet normal -7.479158e-01  0.000000e+00  6.637936e-01
   outer loop
     vertex  3.625623e-01  4.367425e-17  4.600481e-02
     vertex  2.939967e-01 -2.109375e-01 -3.125000e-02
     vertex  3.625623e-01 -2.109375e-01  4.600481e-02
   endloop
 endfacet
 facet normal -7.479158e-01  0.000000e+00  6.637936e-01
   outer loop
     vertex  2.939967e-01  3.474532e-17 -3.125000e-02
     vertex  2.939967e-01 -2.109375e-01 -3.125000e-02
     vertex  3.625623e-01  4.367425e-17  4.600481e-02
   endloop
 endfacet
 facet normal -7.242471e-01 -0.000000e+00 -6.895405e-01
   outer loop
     vertex -2.734375e-01 -6.162976e-33 -3.125000e-02
     vertex -2.734375e-01 -2.109375e-01 -3.125000e-02
     vertex -3.489356e-01 -2.109375e-01  4.804814e-02
   endloop
 endfacet
 facet normal -7.242471e-01 -0.000000e+00 -6.895405e-01
   outer loop
     vertex -3.489356e-01  2.326850e-19  4.804814e-02
     vertex -2.734375e-01 -6.162976e-33 -3.125000e-02
     vertex -3.489356e-01 -2.109375e-01  4.804814e-02
   endloop
 endfacet
 facet normal -8.700870e-01 -0.000000e+00 -4.928982e-01
   outer loop
     vertex -4.029032e-01  2.761493e-18  1.433144e-01
     vertex -3.489356e-01 -2.109375e-01  4.804814e-02
     vertex -4.029032e-01 -2.109375e-01  1.433144e-01
   endloop
 endfacet
 facet normal -8.700870e-01  0.000000e+00 -4.928982e-01
   outer loop
     vertex -4.029032e-01  2.761493e-18  1.433144e-01
     vertex -3.489356e-01  2.326850e-19  4.804814e-02
     vertex -3.489356e-01 -2.109375e-01  4.804814e-02
   endloop
 endfacet
 facet normal -9.637761e-01 -0.000000e+00 -2.667128e-01
   outer loop
     vertex -4.321057e-01  7.434854e-18  2.488386e-01
     vertex -4.029032e-01 -2.109375e-01  1.433144e-01
     vertex -4.321057e-01 -2.109375e-01  2.488386e-01
   endloop
 endfacet
 facet normal -9.637761e-01  0.000000e+00 -2.667128e-01
   outer loop
     vertex -4.321057e-01  7.434854e-18  2.488386e-01
     vertex -4.029032e-01  2.761493e-18  1.433144e-01
     vertex -4.029032e-01 -2.109375e-01  1.433144e-01
   endloop
 endfacet
 facet normal -9.996988e-01 -0.000000e+00 -2.454123e-02
   outer loop
     vertex -4.347928e-01  1.397266e-17  3.582961e-01
     vertex -4.321057e-01 -2.109375e-01  2.488386e-01
     vertex -4.347928e-01 -2.109375e-01  3.582961e-01
   endloop
 endfacet
 facet normal -9.996988e-01  0.000000e+00 -2.454123e-02
   outer loop
     vertex -4.347928e-01  1.397266e-17  3.582961e-01
     vertex -4.321057e-01  7.434854e-18  2.488386e-01
     vertex -4.321057e-01 -2.109375e-01  2.488386e-01
   endloop
 endfacet
 facet normal -9.757021e-01  0.000000e+00  2.191012e-01
   outer loop
     vertex -4.108033e-01  2.198305e-17  4.651262e-01
     vertex -4.347928e-01 -2.109375e-01  3.582961e-01
     vertex -4.108033e-01 -2.109375e-01  4.651262e-01
   endloop
 endfacet
 facet normal -9.757021e-01  0.000000e+00  2.191012e-01
   outer loop
     vertex -4.108033e-01  2.198305e-17  4.651262e-01
     vertex -4.347928e-01  1.397266e-17  3.582961e-01
     vertex -4.347928e-01 -2.109375e-01  3.582961e-01
   endloop
 endfacet
 facet normal -8.932243e-01  0.000000e+00  4.496113e-01
   outer loop
     vertex -3.615751e-01  3.098589e-17  5.629257e-01
     vertex -4.108033e-01 -2.109375e-01  4.651262e-01
     vertex -3.615751e-01 -2.109375e-01  5.629257e-01
   endloop
 endfacet
 facet normal -8.932243e-01  0.000000e+00  4.496113e-01
   outer loop
     vertex -3.615751e-01  3.098589e-17  5.629257e-01
     vertex -4.108033e-01  2.198305e-17  4.651262e-01
     vertex -4.108033e-01 -2.109375e-01  4.651262e-01
   endloop
 endfacet
 facet normal -7.572088e-01  0.000000e+00  6.531728e-01
   outer loop
     vertex -2.900590e-01  4.044160e-17  6.458328e-01
     vertex -3.615751e-01 -2.109375e-01  5.629257e-01
     vertex -2.900590e-01 -2.109375e-01  6.458328e-01
   endloop
 endfacet
 facet normal -7.572088e-01  0.000000e+00  6.531728e-01
   outer loop
     vertex -2.900590e-01  4.044160e-17  6.458328e-01
     vertex -3.615751e-01  3.098589e-17  5.629257e-01
     vertex -3.615751e-01 -2.109375e-01  5.629257e-01
   endloop
 endfacet
 facet normal -5.758082e-01  0.000000e+00  8.175848e-01
   outer loop
     vertex -2.005412e-01  4.978340e-17  7.088783e-01
     vertex -2.900590e-01 -2.109375e-01  6.458328e-01
     vertex -2.005412e-01 -2.109375e-01  7.088783e-01
   endloop
 endfacet
 facet normal -5.758082e-01  0.000000e+00  8.175848e-01
   outer loop
     vertex -2.005412e-01  4.978340e-17  7.088783e-01
     vertex -2.900590e-01  4.044160e-17  6.458328e-01
     vertex -2.900590e-01 -2.109375e-01  6.458328e-01
   endloop
 endfacet
 facet normal -3.598950e-01  0.000000e+00  9.329928e-01
   outer loop
     vertex -9.838742e-02  5.845138e-17  7.482834e-01
     vertex -2.005412e-01 -2.109375e-01  7.088783e-01
     vertex -9.838742e-02 -2.109375e-01  7.482834e-01
   endloop
 endfacet
 facet normal -3.598950e-01  0.000000e+00  9.329928e-01
   outer loop
     vertex -9.838742e-02  5.845138e-17  7.482834e-01
     vertex -2.005412e-01  4.978340e-17  7.088783e-01
     vertex -2.005412e-01 -2.109375e-01  7.088783e-01
   endloop
 endfacet
 facet normal -1.224107e-01  0.000000e+00  9.924795e-01
   outer loop
     vertex  1.027961e-02  6.592600e-17  7.616862e-01
     vertex -9.838742e-02 -2.109375e-01  7.482834e-01
     vertex  1.027961e-02 -2.109375e-01  7.616862e-01
   endloop
 endfacet
 facet normal -1.224107e-01  0.000000e+00  9.924795e-01
   outer loop
     vertex  1.027961e-02  6.592600e-17  7.616862e-01
     vertex -9.838742e-02  5.845138e-17  7.482834e-01
     vertex -9.838742e-02 -2.109375e-01  7.482834e-01
   endloop
 endfacet
 facet normal  1.224107e-01  0.000000e+00  9.924795e-01
   outer loop
     vertex  1.189466e-01  7.175925e-17  7.482834e-01
     vertex  1.027961e-02 -2.109375e-01  7.616862e-01
     vertex  1.189466e-01 -2.109375e-01  7.482834e-01
   endloop
 endfacet
 facet normal  1.224107e-01  0.000000e+00  9.924795e-01
   outer loop
     vertex  1.189466e-01  7.175925e-17  7.482834e-01
     vertex  1.027961e-02  6.592600e-17  7.616862e-01
     vertex  1.027961e-02 -2.109375e-01  7.616862e-01
   endloop
 endfacet
 facet normal  5.758082e-01  0.000000e+00  8.175848e-01
   outer loop
     vertex  2.211004e-01  7.560150e-17  7.088783e-01
     vertex  2.211004e-01 -2.109375e-01  7.088783e-01
     vertex  3.106182e-01 -2.109375e-01  6.458328e-01
   endloop
 endfacet
 facet normal  3.598950e-01  0.000000e+00  9.329928e-01
   outer loop
     vertex  2.211004e-01  7.560150e-17  7.088783e-01
     vertex  1.189466e-01 -2.109375e-01  7.482834e-01
     vertex  2.211004e-01 -2.109375e-01  7.088783e-01
   endloop
 endfacet
 facet normal  3.598950e-01  0.000000e+00  9.329928e-01
   outer loop
     vertex  2.211004e-01  7.560150e-17  7.088783e-01
     vertex  1.189466e-01  7.175925e-17  7.482834e-01
     vertex  1.189466e-01 -2.109375e-01  7.482834e-01
   endloop
 endfacet
 facet normal  5.758082e-01  0.000000e+00  8.175848e-01
   outer loop
     vertex  3.106182e-01  7.722246e-17  6.458328e-01
     vertex  2.211004e-01  7.560150e-17  7.088783e-01
     vertex  3.106182e-01 -2.109375e-01  6.458328e-01
   endloop
 endfacet
 facet normal  7.572088e-01  0.000000e+00  6.531728e-01
   outer loop
     vertex  3.821343e-01  7.652497e-17  5.629257e-01
     vertex  3.106182e-01  7.722246e-17  6.458328e-01
     vertex  3.106182e-01 -2.109375e-01  6.458328e-01
   endloop
 endfacet
 facet normal  7.572088e-01  0.000000e+00  6.531728e-01
   outer loop
     vertex  3.821343e-01  7.652497e-17  5.629257e-01
     vertex  3.106182e-01 -2.109375e-01  6.458328e-01
     vertex  3.821343e-01 -2.109375e-01  5.629257e-01
   endloop
 endfacet
 facet normal  8.932243e-01  0.000000e+00  4.496113e-01
   outer loop
     vertex  4.313625e-01  7.355083e-17  4.651262e-01
     vertex  3.821343e-01  7.652497e-17  5.629257e-01
     vertex  3.821343e-01 -2.109375e-01  5.629257e-01
   endloop
 endfacet
 facet normal  8.932243e-01  0.000000e+00  4.496113e-01
   outer loop
     vertex  4.313625e-01  7.355083e-17  4.651262e-01
     vertex  3.821343e-01 -2.109375e-01  5.629257e-01
     vertex  4.313625e-01 -2.109375e-01  4.651262e-01
   endloop
 endfacet
 facet normal  9.757021e-01  0.000000e+00  2.191012e-01
   outer loop
     vertex  4.553520e-01  6.847830e-17  3.582961e-01
     vertex  4.313625e-01  7.355083e-17  4.651262e-01
     vertex  4.313625e-01 -2.109375e-01  4.651262e-01
   endloop
 endfacet
 facet normal  9.757021e-01  0.000000e+00  2.191012e-01
   outer loop
     vertex  4.553520e-01  6.847830e-17  3.582961e-01
     vertex  4.313625e-01 -2.109375e-01  4.651262e-01
     vertex  4.553520e-01 -2.109375e-01  3.582961e-01
   endloop
 endfacet
 facet normal  9.996988e-01  0.000000e+00 -2.454123e-02
   outer loop
     vertex  4.526650e-01  6.161143e-17  2.488386e-01
     vertex  4.553520e-01  6.847830e-17  3.582961e-01
     vertex  4.553520e-01 -2.109375e-01  3.582961e-01
   endloop
 endfacet
 facet normal  9.996988e-01  0.000000e+00 -2.454123e-02
   outer loop
     vertex  4.526650e-01  6.161143e-17  2.488386e-01
     vertex  4.553520e-01 -2.109375e-01  3.582961e-01
     vertex  4.526650e-01 -2.109375e-01  2.488386e-01
   endloop
 endfacet
 facet normal  9.637761e-01  0.000000e+00 -2.667128e-01
   outer loop
     vertex  4.234625e-01  5.336180e-17  1.433144e-01
     vertex  4.526650e-01  6.161143e-17  2.488386e-01
     vertex  4.526650e-01 -2.109375e-01  2.488386e-01
   endloop
 endfacet
 facet normal  9.637761e-01  0.000000e+00 -2.667128e-01
   outer loop
     vertex  4.234625e-01  5.336180e-17  1.433144e-01
     vertex  4.526650e-01 -2.109375e-01  2.488386e-01
     vertex  4.234625e-01 -2.109375e-01  1.433144e-01
   endloop
 endfacet
 facet normal  8.700870e-01  0.000000e+00 -4.928982e-01
   outer loop
     vertex  3.694948e-01  4.422386e-17  4.804814e-02
     vertex  4.234625e-01 -2.109375e-01  1.433144e-01
     vertex  3.694948e-01 -2.109375e-01  4.804814e-02
   endloop
 endfacet
 facet normal  8.700870e-01  0.000000e+00 -4.928982e-01
   outer loop
     vertex  3.694948e-01  4.422386e-17  4.804814e-02
     vertex  4.234625e-01  5.336180e-17  1.433144e-01
     vertex  4.234625e-01 -2.109375e-01  1.433144e-01
   endloop
 endfacet
 facet normal  7.242471e-01  0.000000e+00 -6.895405e-01
   outer loop
     vertex  2.939967e-01  3.474532e-17 -3.125000e-02
     vertex  3.694948e-01 -2.109375e-01  4.804814e-02
     vertex  2.939967e-01 -2.109375e-01 -3.125000e-02
   endloop
 endfacet
 facet normal  7.242471e-01  0.000000e+00 -6.895405e-01
   outer loop
     vertex  2.939967e-01  3.474532e-17 -3.125000e-02
     vertex  3.694948e-01  4.422386e-17  4.804814e-02
     vertex  3.694948e-01 -2.109375e-01  4.804814e-02
   endloop
 endfacet
 facet normal -6.123234e-17  1.000000e+00 -6.123234e-17
   outer loop
     vertex -3.420030e-01  5.320641e-19  4.600481e-02
     vertex -2.734375e-01 -6.162976e-33 -3.125000e-02
     vertex -3.489356e-01  2.326850e-19  4.804814e-02
   endloop
 endfacet
 facet normal -6.123234e-17  1.000000e+00 -6.123234e-17
   outer loop
     vertex -3.900793e-01  3.186305e-18  1.374281e-01
     vertex -3.489356e-01  2.326850e-19  4.804814e-02
     vertex -4.029032e-01  2.761493e-18  1.433144e-01
   endloop
 endfacet
 facet normal -6.123234e-17  1.000000e+00 -6.123234e-17
   outer loop
     vertex -3.900793e-01  3.186305e-18  1.374281e-01
     vertex -3.420030e-01  5.320641e-19  4.600481e-02
     vertex -3.489356e-01  2.326850e-19  4.804814e-02
   endloop
 endfacet
 facet normal -6.123234e-17  1.000000e+00 -6.123234e-17
   outer loop
     vertex -4.148700e-01  7.808347e-18  2.377025e-01
     vertex -4.029032e-01  2.761493e-18  1.433144e-01
     vertex -4.321057e-01  7.434854e-18  2.488386e-01
   endloop
 endfacet
 facet normal -6.123234e-17  1.000000e+00 -6.123234e-17
   outer loop
     vertex -4.148700e-01  7.808347e-18  2.377025e-01
     vertex -3.900793e-01  3.186305e-18  1.374281e-01
     vertex -4.029032e-01  2.761493e-18  1.433144e-01
   endloop
 endfacet
 facet normal -6.123234e-17  1.000000e+00 -6.123234e-17
   outer loop
     vertex -4.149334e-01  1.412937e-17  3.409960e-01
     vertex -4.321057e-01  7.434854e-18  2.488386e-01
     vertex -4.347928e-01  1.397266e-17  3.582961e-01
   endloop
 endfacet
 facet normal -6.123234e-17  1.000000e+00 -6.123234e-17
   outer loop
     vertex -4.149334e-01  1.412937e-17  3.409960e-01
     vertex -4.148700e-01  7.808347e-18  2.377025e-01
     vertex -4.321057e-01  7.434854e-18  2.488386e-01
   endloop
 endfacet
 facet normal -6.123234e-17  1.000000e+00 -6.123234e-17
   outer loop
     vertex -3.902657e-01  2.178172e-17  4.413007e-01
     vertex -4.149334e-01  1.412937e-17  3.409960e-01
     vertex -4.347928e-01  1.397266e-17  3.582961e-01
   endloop
 endfacet
 facet normal -6.123234e-17  1.000000e+00 -6.123234e-17
   outer loop
     vertex -4.108033e-01  2.198305e-17  4.651262e-01
     vertex -3.902657e-01  2.178172e-17  4.413007e-01
     vertex -4.347928e-01  1.397266e-17  3.582961e-01
   endloop
 endfacet
 facet normal -6.123234e-17  1.000000e+00 -6.123234e-17
   outer loop
     vertex -3.423017e-01  3.032034e-17  5.327829e-01
     vertex -3.902657e-01  2.178172e-17  4.413007e-01
     vertex -4.108033e-01  2.198305e-17  4.651262e-01
   endloop
 endfacet
 facet normal -6.123234e-17  1.000000e+00 -6.123234e-17
   outer loop
     vertex -3.615751e-01  3.098589e-17  5.629257e-01
     vertex -3.423017e-01  3.032034e-17  5.327829e-01
     vertex -4.108033e-01  2.198305e-17  4.651262e-01
   endloop
 endfacet
 facet normal -6.123234e-17  1.000000e+00 -6.123234e-17
   outer loop
     vertex -2.738310e-01  3.924860e-17  6.101218e-01
     vertex -3.423017e-01  3.032034e-17  5.327829e-01
     vertex -3.615751e-01  3.098589e-17  5.629257e-01
   endloop
 endfacet
 facet normal -6.123234e-17  1.000000e+00 -6.123234e-17
   outer loop
     vertex -2.900590e-01  4.044160e-17  6.458328e-01
     vertex -2.738310e-01  3.924860e-17  6.101218e-01
     vertex -3.615751e-01  3.098589e-17  5.629257e-01
   endloop
 endfacet
 facet normal -6.123234e-17  1.000000e+00 -6.123234e-17
   outer loop
     vertex  3.694948e-01  4.422386e-17  4.804814e-02
     vertex  2.939967e-01  3.474532e-17 -3.125000e-02
     vertex  3.625623e-01  4.367425e-17  4.600481e-02
   endloop
 endfacet
 facet normal -6.123234e-17  1.000000e+00 -6.123234e-17
   outer loop
     vertex -1.888360e-01  4.804723e-17  6.688193e-01
     vertex -2.738310e-01  3.924860e-17  6.101218e-01
     vertex -2.900590e-01  4.044160e-17  6.458328e-01
   endloop
 endfacet
 facet normal -6.123234e-17  1.000000e+00 -6.123234e-17
   outer loop
     vertex -2.005412e-01  4.978340e-17  7.088783e-01
     vertex -1.888360e-01  4.804723e-17  6.688193e-01
     vertex -2.900590e-01  4.044160e-17  6.458328e-01
   endloop
 endfacet
 facet normal -6.123234e-17  1.000000e+00 -6.123234e-17
   outer loop
     vertex  4.106385e-01  5.221613e-17  1.374281e-01
     vertex  3.694948e-01  4.422386e-17  4.804814e-02
     vertex  3.625623e-01  4.367425e-17  4.600481e-02
   endloop
 endfacet
 facet normal -6.123234e-17  1.000000e+00 -6.123234e-17
   outer loop
     vertex  4.234625e-01  5.336180e-17  1.433144e-01
     vertex  3.694948e-01  4.422386e-17  4.804814e-02
     vertex  4.106385e-01  5.221613e-17  1.374281e-01
   endloop
 endfacet
 facet normal -6.123234e-17  1.000000e+00 -6.123234e-17
   outer loop
     vertex -9.226015e-02  5.620447e-17  7.054613e-01
     vertex -1.888360e-01  4.804723e-17  6.688193e-01
     vertex -2.005412e-01  4.978340e-17  7.088783e-01
   endloop
 endfacet
 facet normal -6.123234e-17  1.000000e+00 -6.123234e-17
   outer loop
     vertex -9.838742e-02  5.845138e-17  7.482834e-01
     vertex -9.226015e-02  5.620447e-17  7.054613e-01
     vertex -2.005412e-01  4.978340e-17  7.088783e-01
   endloop
 endfacet
 facet normal -6.123234e-17  1.000000e+00 -6.123234e-17
   outer loop
     vertex  4.354292e-01  5.987416e-17  2.377025e-01
     vertex  4.234625e-01  5.336180e-17  1.433144e-01
     vertex  4.106385e-01  5.221613e-17  1.374281e-01
   endloop
 endfacet
 facet normal -6.123234e-17  1.000000e+00 -6.123234e-17
   outer loop
     vertex  4.526650e-01  6.161143e-17  2.488386e-01
     vertex  4.234625e-01  5.336180e-17  1.433144e-01
     vertex  4.354292e-01  5.987416e-17  2.377025e-01
   endloop
 endfacet
 facet normal -6.123234e-17  1.000000e+00 -6.123234e-17
   outer loop
     vertex  1.027961e-02  6.324590e-17  7.179168e-01
     vertex -9.226015e-02  5.620447e-17  7.054613e-01
     vertex -9.838742e-02  5.845138e-17  7.482834e-01
   endloop
 endfacet
 facet normal -6.123234e-17  1.000000e+00 -6.123234e-17
   outer loop
     vertex  1.027961e-02  6.592600e-17  7.616862e-01
     vertex  1.027961e-02  6.324590e-17  7.179168e-01
     vertex -9.838742e-02  5.845138e-17  7.482834e-01
   endloop
 endfacet
 facet normal -6.123234e-17  1.000000e+00 -6.123234e-17
   outer loop
     vertex  4.354926e-01  6.620294e-17  3.409960e-01
     vertex  4.526650e-01  6.161143e-17  2.488386e-01
     vertex  4.354292e-01  5.987416e-17  2.377025e-01
   endloop
 endfacet
 facet normal -6.123234e-17  1.000000e+00 -6.123234e-17
   outer loop
     vertex  4.553520e-01  6.847830e-17  3.582961e-01
     vertex  4.526650e-01  6.161143e-17  2.488386e-01
     vertex  4.354926e-01  6.620294e-17  3.409960e-01
   endloop
 endfacet
 facet normal -6.123234e-17  1.000000e+00 -6.123234e-17
   outer loop
     vertex  4.108250e-01  7.083438e-17  4.413007e-01
     vertex  4.553520e-01  6.847830e-17  3.582961e-01
     vertex  4.354926e-01  6.620294e-17  3.409960e-01
   endloop
 endfacet
 facet normal -6.123234e-17  1.000000e+00 -6.123234e-17
   outer loop
     vertex  1.189466e-01  7.175925e-17  7.482834e-01
     vertex  1.128194e-01  6.876197e-17  7.054613e-01
     vertex  1.027961e-02  6.324590e-17  7.179168e-01
   endloop
 endfacet
 facet normal -6.123234e-17  1.000000e+00 -6.123234e-17
   outer loop
     vertex  1.189466e-01  7.175925e-17  7.482834e-01
     vertex  1.027961e-02  6.324590e-17  7.179168e-01
     vertex  1.027961e-02  6.592600e-17  7.616862e-01
   endloop
 endfacet
 facet normal -6.123234e-17  1.000000e+00 -6.123234e-17
   outer loop
     vertex  4.313625e-01  7.355083e-17  4.651262e-01
     vertex  4.553520e-01  6.847830e-17  3.582961e-01
     vertex  4.108250e-01  7.083438e-17  4.413007e-01
   endloop
 endfacet
 facet normal -6.123234e-17  1.000000e+00 -6.123234e-17
   outer loop
     vertex  4.313625e-01  7.355083e-17  4.651262e-01
     vertex  4.108250e-01  7.083438e-17  4.413007e-01
     vertex  3.628609e-01  7.349910e-17  5.327829e-01
   endloop
 endfacet
 facet normal -6.123234e-17  1.000000e+00 -6.123234e-17
   outer loop
     vertex  2.211004e-01  7.560150e-17  7.088783e-01
     vertex  1.128194e-01  6.876197e-17  7.054613e-01
     vertex  1.189466e-01  7.175925e-17  7.482834e-01
   endloop
 endfacet
 facet normal -6.123234e-17  1.000000e+00 -6.123234e-17
   outer loop
     vertex  2.211004e-01  7.560150e-17  7.088783e-01
     vertex  2.093952e-01  7.243186e-17  6.688193e-01
     vertex  1.128194e-01  6.876197e-17  7.054613e-01
   endloop
 endfacet
 facet normal -6.123234e-17  1.000000e+00 -6.123234e-17
   outer loop
     vertex  3.821343e-01  7.652497e-17  5.629257e-01
     vertex  3.628609e-01  7.349910e-17  5.327829e-01
     vertex  2.943903e-01  7.404212e-17  6.101218e-01
   endloop
 endfacet
 facet normal -6.123234e-17  1.000000e+00 -6.123234e-17
   outer loop
     vertex  3.821343e-01  7.652497e-17  5.629257e-01
     vertex  4.313625e-01  7.355083e-17  4.651262e-01
     vertex  3.628609e-01  7.349910e-17  5.327829e-01
   endloop
 endfacet
 facet normal -6.123234e-17  1.000000e+00 -6.123234e-17
   outer loop
     vertex  3.106182e-01  7.722246e-17  6.458328e-01
     vertex  2.093952e-01  7.243186e-17  6.688193e-01
     vertex  2.211004e-01  7.560150e-17  7.088783e-01
   endloop
 endfacet
 facet normal -6.123234e-17  1.000000e+00 -6.123234e-17
   outer loop
     vertex  3.106182e-01  7.722246e-17  6.458328e-01
     vertex  2.943903e-01  7.404212e-17  6.101218e-01
     vertex  2.093952e-01  7.243186e-17  6.688193e-01
   endloop
 endfacet
 facet normal -6.123234e-17  1.000000e+00 -6.123234e-17
   outer loop
     vertex  3.106182e-01  7.722246e-17  6.458328e-01
     vertex  3.821343e-01  7.652497e-17  5.629257e-01
     vertex  2.943903e-01  7.404212e-17  6.101218e-01
   endloop
 endfacet
 facet normal -1.434076e-16 -1.000000e+00 -4.865509e-16
   outer loop
     vertex -3.420030e-01 -2.109375e-01  4.600481e-02
     vertex -3.489356e-01 -2.109375e-01  4.804814e-02
     vertex -2.734375e-01 -2.109375e-01 -3.125000e-02
   endloop
 endfacet
 facet normal -0.000000e+00 -1.000000e+00 -0.000000e+00
   outer loop
     vertex -3.900793e-01 -2.109375e-01  1.374281e-01
     vertex -4.029032e-01 -2.109375e-01  1.433144e-01
     vertex -3.489356e-01 -2.109375e-01  4.804814e-02
   endloop
 endfacet
 facet normal  0.000000e+00 -1.000000e+00  0.000000e+00
   outer loop
     vertex -3.900793e-01 -2.109375e-01  1.374281e-01
     vertex -3.489356e-01 -2.109375e-01  4.804814e-02
     vertex -3.420030e-01 -2.109375e-01  4.600481e-02
   endloop
 endfacet
 facet normal -0.000000e+00 -1.000000e+00 -0.000000e+00
   outer loop
     vertex -4.148700e-01 -2.109375e-01  2.377025e-01
     vertex -4.321057e-01 -2.109375e-01  2.488386e-01
     vertex -4.029032e-01 -2.109375e-01  1.433144e-01
   endloop
 endfacet
 facet normal  0.000000e+00 -1.000000e+00  0.000000e+00
   outer loop
     vertex -4.148700e-01 -2.109375e-01  2.377025e-01
     vertex -4.029032e-01 -2.109375e-01  1.433144e-01
     vertex -3.900793e-01 -2.109375e-01  1.374281e-01
   endloop
 endfacet
 facet normal -0.000000e+00 -1.000000e+00  0.000000e+00
   outer loop
     vertex -4.149334e-01 -2.109375e-01  3.409960e-01
     vertex -4.347928e-01 -2.109375e-01  3.582961e-01
     vertex -4.321057e-01 -2.109375e-01  2.488386e-01
   endloop
 endfacet
 facet normal  0.000000e+00 -1.000000e+00 -0.000000e+00
   outer loop
     vertex -4.149334e-01 -2.109375e-01  3.409960e-01
     vertex -4.321057e-01 -2.109375e-01  2.488386e-01
     vertex -4.148700e-01 -2.109375e-01  2.377025e-01
   endloop
 endfacet
 facet normal  0.000000e+00 -1.000000e+00  0.000000e+00
   outer loop
     vertex -3.902657e-01 -2.109375e-01  4.413007e-01
     vertex -4.347928e-01 -2.109375e-01  3.582961e-01
     vertex -4.149334e-01 -2.109375e-01  3.409960e-01
   endloop
 endfacet
 facet normal  0.000000e+00 -1.000000e+00 -0.000000e+00
   outer loop
     vertex -4.108033e-01 -2.109375e-01  4.651262e-01
     vertex -4.347928e-01 -2.109375e-01  3.582961e-01
     vertex -3.902657e-01 -2.109375e-01  4.413007e-01
   endloop
 endfacet
 facet normal  2.188550e-16 -1.000000e+00  1.886532e-16
   outer loop
     vertex -3.423017e-01 -2.109375e-01  5.327829e-01
     vertex -4.108033e-01 -2.109375e-01  4.651262e-01
     vertex -3.902657e-01 -2.109375e-01  4.413007e-01
   endloop
 endfacet
 facet normal  2.483463e-16 -1.000000e+00  1.587937e-16
   outer loop
     vertex -3.615751e-01 -2.109375e-01  5.629257e-01
     vertex -4.108033e-01 -2.109375e-01  4.651262e-01
     vertex -3.423017e-01 -2.109375e-01  5.327829e-01
   endloop
 endfacet
 facet normal  0.000000e+00 -1.000000e+00  0.000000e+00
   outer loop
     vertex -2.738310e-01 -2.109375e-01  6.101218e-01
     vertex -3.615751e-01 -2.109375e-01  5.629257e-01
     vertex -3.423017e-01 -2.109375e-01  5.327829e-01
   endloop
 endfacet
 facet normal  0.000000e+00 -1.000000e+00 -0.000000e+00
   outer loop
     vertex -2.900590e-01 -2.109375e-01  6.458328e-01
     vertex -3.615751e-01 -2.109375e-01  5.629257e-01
     vertex -2.738310e-01 -2.109375e-01  6.101218e-01
   endloop
 endfacet
 facet normal  0.000000e+00 -1.000000e+00  0.000000e+00
   outer loop
     vertex  3.694948e-01 -2.109375e-01  4.804814e-02
     vertex  3.625623e-01 -2.109375e-01  4.600481e-02
     vertex  2.939967e-01 -2.109375e-01 -3.125000e-02
   endloop
 endfacet
 facet normal  0.000000e+00 -1.000000e+00  0.000000e+00
   outer loop
     vertex -1.888360e-01 -2.109375e-01  6.688193e-01
     vertex -2.900590e-01 -2.109375e-01  6.458328e-01
     vertex -2.738310e-01 -2.109375e-01  6.101218e-01
   endloop
 endfacet
 facet normal  0.000000e+00 -1.000000e+00 -0.000000e+00
   outer loop
     vertex -2.005412e-01 -2.109375e-01  7.088783e-01
     vertex -2.900590e-01 -2.109375e-01  6.458328e-01
     vertex -1.888360e-01 -2.109375e-01  6.688193e-01
   endloop
 endfacet
 facet normal -1.058956e-16 -1.000000e+00  3.592809e-16
   outer loop
     vertex  4.106385e-01 -2.109375e-01  1.374281e-01
     vertex  3.625623e-01 -2.109375e-01  4.600481e-02
     vertex  3.694948e-01 -2.109375e-01  4.804814e-02
   endloop
 endfacet
 facet normal -1.807218e-16 -1.000000e+00  3.937252e-16
   outer loop
     vertex  4.234625e-01 -2.109375e-01  1.433144e-01
     vertex  4.106385e-01 -2.109375e-01  1.374281e-01
     vertex  3.694948e-01 -2.109375e-01  4.804814e-02
   endloop
 endfacet
 facet normal  2.587145e-16 -1.000000e+00  7.559598e-17
   outer loop
     vertex -9.226015e-02 -2.109375e-01  7.054613e-01
     vertex -2.005412e-01 -2.109375e-01  7.088783e-01
     vertex -1.888360e-01 -2.109375e-01  6.688193e-01
   endloop
 endfacet
 facet normal  2.574916e-16 -1.000000e+00  3.684366e-17
   outer loop
     vertex -9.838742e-02 -2.109375e-01  7.482834e-01
     vertex -2.005412e-01 -2.109375e-01  7.088783e-01
     vertex -9.226015e-02 -2.109375e-01  7.054613e-01
   endloop
 endfacet
 facet normal  0.000000e+00 -1.000000e+00  0.000000e+00
   outer loop
     vertex  4.354292e-01 -2.109375e-01  2.377025e-01
     vertex  4.106385e-01 -2.109375e-01  1.374281e-01
     vertex  4.234625e-01 -2.109375e-01  1.433144e-01
   endloop
 endfacet
 facet normal  0.000000e+00 -1.000000e+00  0.000000e+00
   outer loop
     vertex  4.526650e-01 -2.109375e-01  2.488386e-01
     vertex  4.354292e-01 -2.109375e-01  2.377025e-01
     vertex  4.234625e-01 -2.109375e-01  1.433144e-01
   endloop
 endfacet
 facet normal -0.000000e+00 -1.000000e+00  0.000000e+00
   outer loop
     vertex  1.027961e-02 -2.109375e-01  7.179168e-01
     vertex -9.838742e-02 -2.109375e-01  7.482834e-01
     vertex -9.226015e-02 -2.109375e-01  7.054613e-01
   endloop
 endfacet
 facet normal  0.000000e+00 -1.000000e+00 -0.000000e+00
   outer loop
     vertex  1.027961e-02 -2.109375e-01  7.616862e-01
     vertex -9.838742e-02 -2.109375e-01  7.482834e-01
     vertex  1.027961e-02 -2.109375e-01  7.179168e-01
   endloop
 endfacet
 facet normal  0.000000e+00 -1.000000e+00 -0.000000e+00
   outer loop
     vertex  4.354926e-01 -2.109375e-01  3.409960e-01
     vertex  4.354292e-01 -2.109375e-01  2.377025e-01
     vertex  4.526650e-01 -2.109375e-01  2.488386e-01
   endloop
 endfacet
 facet normal  0.000000e+00 -1.000000e+00  0.000000e+00
   outer loop
     vertex  4.553520e-01 -2.109375e-01  3.582961e-01
     vertex  4.354926e-01 -2.109375e-01  3.409960e-01
     vertex  4.526650e-01 -2.109375e-01  2.488386e-01
   endloop
 endfacet
 facet normal  0.000000e+00 -1.000000e+00  0.000000e+00
   outer loop
     vertex  4.108250e-01 -2.109375e-01  4.413007e-01
     vertex  4.354926e-01 -2.109375e-01  3.409960e-01
     vertex  4.553520e-01 -2.109375e-01  3.582961e-01
   endloop
 endfacet
 facet normal  0.000000e+00 -1.000000e+00  0.000000e+00
   outer loop
     vertex  1.189466e-01 -2.109375e-01  7.482834e-01
     vertex  1.027961e-02 -2.109375e-01  7.179168e-01
     vertex  1.128194e-01 -2.109375e-01  7.054613e-01
   endloop
 endfacet
 facet normal -0.000000e+00 -1.000000e+00  0.000000e+00
   outer loop
     vertex  1.189466e-01 -2.109375e-01  7.482834e-01
     vertex  1.027961e-02 -2.109375e-01  7.616862e-01
     vertex  1.027961e-02 -2.109375e-01  7.179168e-01
   endloop
 endfacet
 facet normal  0.000000e+00 -1.000000e+00 -0.000000e+00
   outer loop
     vertex  4.313625e-01 -2.109375e-01  4.651262e-01
     vertex  4.108250e-01 -2.109375e-01  4.413007e-01
     vertex  4.553520e-01 -2.109375e-01  3.582961e-01
   endloop
 endfacet
 facet normal -0.000000e+00 -1.000000e+00  0.000000e+00
   outer loop
     vertex  4.313625e-01 -2.109375e-01  4.651262e-01
     vertex  3.628609e-01 -2.109375e-01  5.327829e-01
     vertex  4.108250e-01 -2.109375e-01  4.413007e-01
   endloop
 endfacet
 facet normal -0.000000e+00 -1.000000e+00  0.000000e+00
   outer loop
     vertex  2.211004e-01 -2.109375e-01  7.088783e-01
     vertex  1.189466e-01 -2.109375e-01  7.482834e-01
     vertex  1.128194e-01 -2.109375e-01  7.054613e-01
   endloop
 endfacet
 facet normal  0.000000e+00 -1.000000e+00  0.000000e+00
   outer loop
     vertex  2.211004e-01 -2.109375e-01  7.088783e-01
     vertex  1.128194e-01 -2.109375e-01  7.054613e-01
     vertex  2.093952e-01 -2.109375e-01  6.688193e-01
   endloop
 endfacet
 facet normal -0.000000e+00 -1.000000e+00  0.000000e+00
   outer loop
     vertex  3.821343e-01 -2.109375e-01  5.629257e-01
     vertex  2.943903e-01 -2.109375e-01  6.101218e-01
     vertex  3.628609e-01 -2.109375e-01  5.327829e-01
   endloop
 endfacet
 facet normal  0.000000e+00 -1.000000e+00 -0.000000e+00
   outer loop
     vertex  3.821343e-01 -2.109375e-01  5.629257e-01
     vertex  3.628609e-01 -2.109375e-01  5.327829e-01
     vertex  4.313625e-01 -2.109375e-01  4.651262e-01
   endloop
 endfacet
 facet normal  0.000000e+00 -1.000000e+00  0.000000e+00
   outer loop
     vertex  3.106182e-01 -2.109375e-01  6.458328e-01
     vertex  2.211004e-01 -2.109375e-01  7.088783e-01
     vertex  2.093952e-01 -2.109375e-01  6.688193e-01
   endloop
 endfacet
 facet normal -0.000000e+00 -1.000000e+00  0.000000e+00
   outer loop
     vertex  3.106182e-01 -2.109375e-01  6.458328e-01
     vertex  2.093952e-01 -2.109375e-01  6.688193e-01
     vertex  2.943903e-01 -2.109375e-01  6.101218e-01
   endloop
 endfacet
 facet normal  0.000000e+00 -1.000000e+00 -0.000000e+00
   outer loop
     vertex  3.106182e-01 -2.109375e-01  6.458328e-01
     vertex  2.943903e-01 -2.109375e-01  6.101218e-01
     vertex  3.821343e-01 -2.109375e-01  5.629257e-01
   endloop
 endfacet
endsolid
