solid 
 facet normal -0.000000e+00 -6.123234e-17 -1.000000e+00
   outer loop
     vertex -5.000000e-01  0.000000e+00  0.000000e+00
     vertex -7.500000e-01 -5.000000e-01  3.061617e-17
     vertex -7.500000e-01  0.000000e+00  0.000000e+00
   endloop
 endfacet
 facet normal  0.000000e+00 -6.123234e-17 -1.000000e+00
   outer loop
     vertex -5.000000e-01  0.000000e+00  0.000000e+00
     vertex -5.000000e-01 -5.000000e-01  3.061617e-17
     vertex -7.500000e-01 -5.000000e-01  3.061617e-17
   endloop
 endfacet
 facet normal  0.000000e+00  1.000000e+00 -6.123234e-17
   outer loop
     vertex -5.000000e-01  3.061617e-17  5.000000e-01
     vertex -7.500000e-01  0.000000e+00  0.000000e+00
     vertex -7.500000e-01  3.061617e-17  5.000000e-01
   endloop
 endfacet
 facet normal  0.000000e+00  1.000000e+00 -6.123234e-17
   outer loop
     vertex -5.000000e-01  3.061617e-17  5.000000e-01
     vertex -5.000000e-01  0.000000e+00  0.000000e+00
     vertex -7.500000e-01  0.000000e+00  0.000000e+00
   endloop
 endfacet
 facet normal -1.224647e-16 -6.123234e-17 -1.000000e+00
   outer loop
     vertex -2.500000e-01  3.061617e-17 -3.061617e-17
     vertex -5.000000e-01 -5.000000e-01  3.061617e-17
     vertex -5.000000e-01  0.000000e+00  0.000000e+00
   endloop
 endfacet
 facet normal -1.224647e-16 -6.123234e-17 -1.000000e+00
   outer loop
     vertex -2.500000e-01  3.061617e-17 -3.061617e-17
     vertex -2.500000e-01 -5.000000e-01  0.000000e+00
     vertex -5.000000e-01 -5.000000e-01  3.061617e-17
   endloop
 endfacet
 facet normal -0.000000e+00 -1.000000e+00  0.000000e+00
   outer loop
     vertex -5.000000e-01 -5.000000e-01  5.000000e-01
     vertex -7.500000e-01 -5.000000e-01  5.000000e-01
     vertex -7.500000e-01 -5.000000e-01  3.061617e-17
   endloop
 endfacet
 facet normal  0.000000e+00 -1.000000e+00 -0.000000e+00
   outer loop
     vertex -5.000000e-01 -5.000000e-01  5.000000e-01
     vertex -7.500000e-01 -5.000000e-01  3.061617e-17
     vertex -5.000000e-01 -5.000000e-01  3.061617e-17
   endloop
 endfacet
 facet normal -1.000000e+00  0.000000e+00  0.000000e+00
   outer loop
     vertex -7.500000e-01  0.000000e+00  0.000000e+00
     vertex -7.500000e-01 -5.000000e-01  5.000000e-01
     vertex -7.500000e-01  3.061617e-17  5.000000e-01
   endloop
 endfacet
 facet normal -1.000000e+00  0.000000e+00  0.000000e+00
   outer loop
     vertex -7.500000e-01  0.000000e+00  0.000000e+00
     vertex -7.500000e-01 -5.000000e-01  3.061617e-17
     vertex -7.500000e-01 -5.000000e-01  5.000000e-01
   endloop
 endfacet
 facet normal -0.000000e+00  0.000000e+00  1.000000e+00
   outer loop
     vertex -7.500000e-01  3.061617e-17  5.000000e-01
     vertex -5.000000e-01 -5.000000e-01  5.000000e-01
     vertex -5.000000e-01  3.061617e-17  5.000000e-01
   endloop
 endfacet
 facet normal  0.000000e+00  0.000000e+00  1.000000e+00
   outer loop
     vertex -7.500000e-01  3.061617e-17  5.000000e-01
     vertex -7.500000e-01 -5.000000e-01  5.000000e-01
     vertex -5.000000e-01 -5.000000e-01  5.000000e-01
   endloop
 endfacet
 facet normal -1.224647e-16  1.000000e+00 -6.123234e-17
   outer loop
     vertex -2.500000e-01  6.123234e-17  5.000000e-01
     vertex -5.000000e-01  0.000000e+00  0.000000e+00
     vertex -5.000000e-01  3.061617e-17  5.000000e-01
   endloop
 endfacet
 facet normal -1.224647e-16  1.000000e+00 -6.123234e-17
   outer loop
     vertex -2.500000e-01  6.123234e-17  5.000000e-01
     vertex -2.500000e-01  3.061617e-17 -3.061617e-17
     vertex -5.000000e-01  0.000000e+00  0.000000e+00
   endloop
 endfacet
 facet normal -0.000000e+00 -6.123234e-17 -1.000000e+00
   outer loop
     vertex  0.000000e+00  3.061617e-17 -3.061617e-17
     vertex -2.500000e-01 -5.000000e-01  0.000000e+00
     vertex -2.500000e-01  3.061617e-17 -3.061617e-17
   endloop
 endfacet
 facet normal  0.000000e+00 -6.123234e-17 -1.000000e+00
   outer loop
     vertex  0.000000e+00  3.061617e-17 -3.061617e-17
     vertex  3.061617e-17 -5.000000e-01  0.000000e+00
     vertex -2.500000e-01 -5.000000e-01  0.000000e+00
   endloop
 endfacet
 facet normal -0.000000e+00 -1.000000e+00  0.000000e+00
   outer loop
     vertex -2.500000e-01 -5.000000e-01  5.000000e-01
     vertex -5.000000e-01 -5.000000e-01  5.000000e-01
     vertex -5.000000e-01 -5.000000e-01  3.061617e-17
   endloop
 endfacet
 facet normal  0.000000e+00 -1.000000e+00 -0.000000e+00
   outer loop
     vertex -2.500000e-01 -5.000000e-01  5.000000e-01
     vertex -5.000000e-01 -5.000000e-01  3.061617e-17
     vertex -2.500000e-01 -5.000000e-01  0.000000e+00
   endloop
 endfacet
 facet normal -0.000000e+00  0.000000e+00  1.000000e+00
   outer loop
     vertex -5.000000e-01  3.061617e-17  5.000000e-01
     vertex -2.500000e-01 -5.000000e-01  5.000000e-01
     vertex -2.500000e-01  6.123234e-17  5.000000e-01
   endloop
 endfacet
 facet normal  0.000000e+00  0.000000e+00  1.000000e+00
   outer loop
     vertex -5.000000e-01  3.061617e-17  5.000000e-01
     vertex -5.000000e-01 -5.000000e-01  5.000000e-01
     vertex -2.500000e-01 -5.000000e-01  5.000000e-01
   endloop
 endfacet
 facet normal  0.000000e+00  1.000000e+00 -6.123234e-17
   outer loop
     vertex  0.000000e+00  6.123234e-17  5.000000e-01
     vertex -2.500000e-01  3.061617e-17 -3.061617e-17
     vertex -2.500000e-01  6.123234e-17  5.000000e-01
   endloop
 endfacet
 facet normal  0.000000e+00  1.000000e+00 -6.123234e-17
   outer loop
     vertex  0.000000e+00  6.123234e-17  5.000000e-01
     vertex  0.000000e+00  3.061617e-17 -3.061617e-17
     vertex -2.500000e-01  3.061617e-17 -3.061617e-17
   endloop
 endfacet
 facet normal  1.000000e+00  6.123234e-17 -3.749399e-33
   outer loop
     vertex  0.000000e+00  6.123234e-17  5.000000e-01
     vertex  3.061617e-17 -5.000000e-01  0.000000e+00
     vertex  0.000000e+00  3.061617e-17 -3.061617e-17
   endloop
 endfacet
 facet normal  1.000000e+00  6.123234e-17  0.000000e+00
   outer loop
     vertex  0.000000e+00  6.123234e-17  5.000000e-01
     vertex  3.061617e-17 -5.000000e-01  5.000000e-01
     vertex  3.061617e-17 -5.000000e-01  0.000000e+00
   endloop
 endfacet
 facet normal -0.000000e+00 -1.000000e+00  0.000000e+00
   outer loop
     vertex  3.061617e-17 -5.000000e-01  5.000000e-01
     vertex -2.500000e-01 -5.000000e-01  5.000000e-01
     vertex -2.500000e-01 -5.000000e-01  0.000000e+00
   endloop
 endfacet
 facet normal  0.000000e+00 -1.000000e+00 -0.000000e+00
   outer loop
     vertex  3.061617e-17 -5.000000e-01  5.000000e-01
     vertex -2.500000e-01 -5.000000e-01  0.000000e+00
     vertex  3.061617e-17 -5.000000e-01  0.000000e+00
   endloop
 endfacet
 facet normal -0.000000e+00  0.000000e+00  1.000000e+00
   outer loop
     vertex -2.500000e-01  6.123234e-17  5.000000e-01
     vertex  3.061617e-17 -5.000000e-01  5.000000e-01
     vertex  0.000000e+00  6.123234e-17  5.000000e-01
   endloop
 endfacet
 facet normal  0.000000e+00  0.000000e+00  1.000000e+00
   outer loop
     vertex -2.500000e-01  6.123234e-17  5.000000e-01
     vertex -2.500000e-01 -5.000000e-01  5.000000e-01
     vertex  3.061617e-17 -5.000000e-01  5.000000e-01
   endloop
 endfacet
endsolid
