solid 
 facet normal  3.826834e-01  0.000000e+00 -9.238795e-01
   outer loop
     vertex  8.604380e-02  7.009492e-18 -8.094512e-02
     vertex  5.098684e-03  0.000000e+00 -1.144737e-01
     vertex  5.098684e-03  7.500000e-01 -1.144737e-01
   endloop
 endfacet
 facet normal  3.826834e-01 -5.128562e-17 -9.238795e-01
   outer loop
     vertex  8.604380e-02  7.009492e-18 -8.094512e-02
     vertex  5.098684e-03  7.500000e-01 -1.144737e-01
     vertex  8.604380e-02  7.500000e-01 -8.094512e-02
   endloop
 endfacet
 facet normal  9.238795e-01 -2.343260e-17 -3.826834e-01
   outer loop
     vertex  1.195724e-01  1.401898e-17 -1.401898e-17
     vertex  8.604380e-02  7.500000e-01 -8.094512e-02
     vertex  1.195724e-01  7.500000e-01 -5.994324e-17
   endloop
 endfacet
 facet normal  9.238795e-01 -1.979953e-17 -3.826834e-01
   outer loop
     vertex  1.195724e-01  1.401898e-17 -1.401898e-17
     vertex  8.604380e-02  7.009492e-18 -8.094512e-02
     vertex  8.604380e-02  7.500000e-01 -8.094512e-02
   endloop
 endfacet
 facet normal  9.238795e-01  2.124320e-17  3.826834e-01
   outer loop
     vertex  8.604380e-02  1.692241e-17  8.094512e-02
     vertex  1.195724e-01  7.500000e-01 -5.994324e-17
     vertex  8.604380e-02  7.500000e-01  8.094512e-02
   endloop
 endfacet
 facet normal  9.238795e-01  1.979953e-17  3.826834e-01
   outer loop
     vertex  8.604380e-02  1.692241e-17  8.094512e-02
     vertex  1.195724e-01  1.401898e-17 -1.401898e-17
     vertex  1.195724e-01  7.500000e-01 -5.994324e-17
   endloop
 endfacet
 facet normal  3.826834e-01  5.128562e-17  9.238795e-01
   outer loop
     vertex  5.098684e-03  1.401898e-17  1.144737e-01
     vertex  8.604380e-02  7.500000e-01  8.094512e-02
     vertex  5.098684e-03  7.500000e-01  1.144737e-01
   endloop
 endfacet
 facet normal  3.826834e-01  4.619891e-17  9.238795e-01
   outer loop
     vertex  5.098684e-03  1.401898e-17  1.144737e-01
     vertex  8.604380e-02  1.692241e-17  8.094512e-02
     vertex  8.604380e-02  7.500000e-01  8.094512e-02
   endloop
 endfacet
 facet normal -3.826834e-01  5.128562e-17  9.238795e-01
   outer loop
     vertex -7.584643e-02  7.009492e-18  8.094512e-02
     vertex  5.098684e-03  7.500000e-01  1.144737e-01
     vertex -7.584643e-02  7.500000e-01  8.094512e-02
   endloop
 endfacet
 facet normal -3.826834e-01  4.619891e-17  9.238795e-01
   outer loop
     vertex -7.584643e-02  7.009492e-18  8.094512e-02
     vertex  5.098684e-03  1.401898e-17  1.144737e-01
     vertex  5.098684e-03  7.500000e-01  1.144737e-01
   endloop
 endfacet
 facet normal -9.238795e-01  2.343260e-17  3.826834e-01
   outer loop
     vertex -1.093750e-01 -2.956996e-29  1.401898e-17
     vertex -7.584643e-02  7.500000e-01  8.094512e-02
     vertex -1.093750e-01  7.500000e-01 -3.190527e-17
   endloop
 endfacet
 facet normal -9.238795e-01 -2.343260e-17 -3.826834e-01
   outer loop
     vertex -1.093750e-01 -2.956996e-29  1.401898e-17
     vertex -1.093750e-01  7.500000e-01 -3.190527e-17
     vertex -7.584643e-02  7.500000e-01 -8.094512e-02
   endloop
 endfacet
 facet normal -9.238795e-01  2.639938e-17  3.826834e-01
   outer loop
     vertex -1.093750e-01 -2.956996e-29  1.401898e-17
     vertex -7.584643e-02  7.009492e-18  8.094512e-02
     vertex -7.584643e-02  7.500000e-01  8.094512e-02
   endloop
 endfacet
 facet normal -9.238795e-01 -2.124320e-17 -3.826834e-01
   outer loop
     vertex -7.584643e-02 -2.903426e-18 -8.094512e-02
     vertex -1.093750e-01 -2.956996e-29  1.401898e-17
     vertex -7.584643e-02  7.500000e-01 -8.094512e-02
   endloop
 endfacet
 facet normal -3.826834e-01  0.000000e+00 -9.238795e-01
   outer loop
     vertex  5.098684e-03  0.000000e+00 -1.144737e-01
     vertex -7.584643e-02  7.500000e-01 -8.094512e-02
     vertex  5.098684e-03  7.500000e-01 -1.144737e-01
   endloop
 endfacet
 facet normal -3.826834e-01 -5.279875e-17 -9.238795e-01
   outer loop
     vertex  5.098684e-03  0.000000e+00 -1.144737e-01
     vertex -7.584643e-02 -2.903426e-18 -8.094512e-02
     vertex -7.584643e-02  7.500000e-01 -8.094512e-02
   endloop
 endfacet
 facet normal  6.123234e-17 -1.000000e+00  6.123234e-17
   outer loop
     vertex  8.604380e-02  1.692241e-17  8.094512e-02
     vertex  5.098684e-03  0.000000e+00 -1.144737e-01
     vertex  8.604380e-02  7.009492e-18 -8.094512e-02
   endloop
 endfacet
 facet normal  6.123234e-17 -1.000000e+00  6.123234e-17
   outer loop
     vertex  8.604380e-02  1.692241e-17  8.094512e-02
     vertex  8.604380e-02  7.009492e-18 -8.094512e-02
     vertex  1.195724e-01  1.401898e-17 -1.401898e-17
   endloop
 endfacet
 facet normal  6.123234e-17 -1.000000e+00  6.123234e-17
   outer loop
     vertex  8.604380e-02  1.692241e-17  8.094512e-02
     vertex  5.098684e-03  1.401898e-17  1.144737e-01
     vertex -7.584643e-02  7.009492e-18  8.094512e-02
   endloop
 endfacet
 facet normal  6.123234e-17 -1.000000e+00  6.123234e-17
   outer loop
     vertex  8.604380e-02  1.692241e-17  8.094512e-02
     vertex -7.584643e-02  7.009492e-18  8.094512e-02
     vertex -1.093750e-01 -2.956996e-29  1.401898e-17
   endloop
 endfacet
 facet normal  6.123234e-17 -1.000000e+00  6.123234e-17
   outer loop
     vertex  8.604380e-02  1.692241e-17  8.094512e-02
     vertex -1.093750e-01 -2.956996e-29  1.401898e-17
     vertex -7.584643e-02 -2.903426e-18 -8.094512e-02
   endloop
 endfacet
 facet normal  6.123234e-17 -1.000000e+00  6.123234e-17
   outer loop
     vertex  8.604380e-02  1.692241e-17  8.094512e-02
     vertex -7.584643e-02 -2.903426e-18 -8.094512e-02
     vertex  5.098684e-03  0.000000e+00 -1.144737e-01
   endloop
 endfacet
 facet normal  0.000000e+00  1.000000e+00  0.000000e+00
   outer loop
     vertex  8.604380e-02  7.500000e-01  8.094512e-02
     vertex  8.604380e-02  7.500000e-01 -8.094512e-02
     vertex  5.098684e-03  7.500000e-01 -1.144737e-01
   endloop
 endfacet
 facet normal  0.000000e+00  1.000000e+00  0.000000e+00
   outer loop
     vertex  8.604380e-02  7.500000e-01  8.094512e-02
     vertex  1.195724e-01  7.500000e-01 -5.994324e-17
     vertex  8.604380e-02  7.500000e-01 -8.094512e-02
   endloop
 endfacet
 facet normal  0.000000e+00  1.000000e+00  0.000000e+00
   outer loop
     vertex  8.604380e-02  7.500000e-01  8.094512e-02
     vertex -7.584643e-02  7.500000e-01  8.094512e-02
     vertex  5.098684e-03  7.500000e-01  1.144737e-01
   endloop
 endfacet
 facet normal  0.000000e+00  1.000000e+00  0.000000e+00
   outer loop
     vertex  8.604380e-02  7.500000e-01  8.094512e-02
     vertex -1.093750e-01  7.500000e-01 -3.190527e-17
     vertex -7.584643e-02  7.500000e-01  8.094512e-02
   endloop
 endfacet
 facet normal  0.000000e+00  1.000000e+00  0.000000e+00
   outer loop
     vertex  8.604380e-02  7.500000e-01  8.094512e-02
     vertex -7.584643e-02  7.500000e-01 -8.094512e-02
     vertex -1.093750e-01  7.500000e-01 -3.190527e-17
   endloop
 endfacet
 facet normal  0.000000e+00  1.000000e+00  0.000000e+00
   outer loop
     vertex  8.604380e-02  7.500000e-01  8.094512e-02
     vertex  5.098684e-03  7.500000e-01 -1.144737e-01
     vertex -7.584643e-02  7.500000e-01 -8.094512e-02
   endloop
 endfacet
endsolid
