solid 
 facet normal  0.000000e+00  0.000000e+00 -1.000000e+00
   outer loop
     vertex  7.500000e-01  9.184851e-17 -7.500000e-01
     vertex -7.500000e-01 -2.343750e-02 -7.500000e-01
     vertex -7.500000e-01  0.000000e+00 -7.500000e-01
   endloop
 endfacet
 facet normal  0.000000e+00 -0.000000e+00 -1.000000e+00
   outer loop
     vertex  7.500000e-01  9.184851e-17 -7.500000e-01
     vertex  7.500000e-01 -2.343750e-02 -7.500000e-01
     vertex -7.500000e-01 -2.343750e-02 -7.500000e-01
   endloop
 endfacet
 facet normal -1.000000e+00  0.000000e+00  0.000000e+00
   outer loop
     vertex -7.500000e-01  0.000000e+00 -7.500000e-01
     vertex -7.500000e-01 -2.343750e-02  1.500000e-01
     vertex -7.500000e-01  5.510911e-17  1.500000e-01
   endloop
 endfacet
 facet normal -1.000000e+00  0.000000e+00  0.000000e+00
   outer loop
     vertex -7.500000e-01  0.000000e+00 -7.500000e-01
     vertex -7.500000e-01 -2.343750e-02 -7.500000e-01
     vertex -7.500000e-01 -2.343750e-02  1.500000e-01
   endloop
 endfacet
 facet normal  1.000000e+00  0.000000e+00  0.000000e+00
   outer loop
     vertex  7.500000e-01  1.836970e-16  7.500000e-01
     vertex  7.500000e-01 -2.343750e-02 -7.500000e-01
     vertex  7.500000e-01  9.184851e-17 -7.500000e-01
   endloop
 endfacet
 facet normal  1.000000e+00  0.000000e+00  0.000000e+00
   outer loop
     vertex  7.500000e-01  1.836970e-16  7.500000e-01
     vertex  7.500000e-01 -2.343750e-02  7.500000e-01
     vertex  7.500000e-01 -2.343750e-02 -7.500000e-01
   endloop
 endfacet
 facet normal -0.000000e+00  0.000000e+00 -1.000000e+00
   outer loop
     vertex  7.500000e-01  9.184851e-17 -7.500000e-01
     vertex -7.500000e-01  0.000000e+00 -7.500000e-01
     vertex -7.500000e-01  2.343750e-02 -7.500000e-01
   endloop
 endfacet
 facet normal  0.000000e+00  0.000000e+00 -1.000000e+00
   outer loop
     vertex  7.500000e-01  9.184851e-17 -7.500000e-01
     vertex -7.500000e-01  2.343750e-02 -7.500000e-01
     vertex  7.500000e-01  2.343750e-02 -7.500000e-01
   endloop
 endfacet
 facet normal  0.000000e+00 -1.000000e+00  0.000000e+00
   outer loop
     vertex  7.500000e-01 -2.343750e-02 -7.500000e-01
     vertex -7.500000e-01 -2.343750e-02  1.500000e-01
     vertex -7.500000e-01 -2.343750e-02 -7.500000e-01
   endloop
 endfacet
 facet normal  0.000000e+00 -1.000000e+00 -0.000000e+00
   outer loop
     vertex -1.500000e-01 -2.343750e-02  7.500000e-01
     vertex -7.500000e-01 -2.343750e-02  1.500000e-01
     vertex  7.500000e-01 -2.343750e-02 -7.500000e-01
   endloop
 endfacet
 facet normal -0.000000e+00 -1.000000e+00 -0.000000e+00
   outer loop
     vertex  7.500000e-01 -2.343750e-02  7.500000e-01
     vertex -1.500000e-01 -2.343750e-02  7.500000e-01
     vertex  7.500000e-01 -2.343750e-02 -7.500000e-01
   endloop
 endfacet
 facet normal -7.071068e-01  0.000000e+00  7.071068e-01
   outer loop
     vertex -7.500000e-01  5.510911e-17  1.500000e-01
     vertex -1.500000e-01 -2.343750e-02  7.500000e-01
     vertex -1.500000e-01  1.285879e-16  7.500000e-01
   endloop
 endfacet
 facet normal -7.071068e-01  0.000000e+00  7.071068e-01
   outer loop
     vertex -7.500000e-01  5.510911e-17  1.500000e-01
     vertex -7.500000e-01 -2.343750e-02  1.500000e-01
     vertex -1.500000e-01 -2.343750e-02  7.500000e-01
   endloop
 endfacet
 facet normal -1.000000e+00  0.000000e+00  0.000000e+00
   outer loop
     vertex -7.500000e-01  0.000000e+00 -7.500000e-01
     vertex -7.500000e-01  5.510911e-17  1.500000e-01
     vertex -7.500000e-01  2.343750e-02  1.500000e-01
   endloop
 endfacet
 facet normal -1.000000e+00  0.000000e+00  0.000000e+00
   outer loop
     vertex -7.500000e-01  0.000000e+00 -7.500000e-01
     vertex -7.500000e-01  2.343750e-02  1.500000e-01
     vertex -7.500000e-01  2.343750e-02 -7.500000e-01
   endloop
 endfacet
 facet normal -0.000000e+00  0.000000e+00  1.000000e+00
   outer loop
     vertex -1.500000e-01  1.285879e-16  7.500000e-01
     vertex  7.500000e-01 -2.343750e-02  7.500000e-01
     vertex  7.500000e-01  1.836970e-16  7.500000e-01
   endloop
 endfacet
 facet normal  0.000000e+00  0.000000e+00  1.000000e+00
   outer loop
     vertex -1.500000e-01  1.285879e-16  7.500000e-01
     vertex -1.500000e-01 -2.343750e-02  7.500000e-01
     vertex  7.500000e-01 -2.343750e-02  7.500000e-01
   endloop
 endfacet
 facet normal  1.000000e+00  0.000000e+00  0.000000e+00
   outer loop
     vertex  7.500000e-01  1.836970e-16  7.500000e-01
     vertex  7.500000e-01  9.184851e-17 -7.500000e-01
     vertex  7.500000e-01  2.343750e-02 -7.500000e-01
   endloop
 endfacet
 facet normal  1.000000e+00 -0.000000e+00  0.000000e+00
   outer loop
     vertex  7.500000e-01  1.836970e-16  7.500000e-01
     vertex  7.500000e-01  2.343750e-02 -7.500000e-01
     vertex  7.500000e-01  2.343750e-02  7.500000e-01
   endloop
 endfacet
 facet normal  0.000000e+00  1.000000e+00  0.000000e+00
   outer loop
     vertex  7.500000e-01  2.343750e-02 -7.500000e-01
     vertex -7.500000e-01  2.343750e-02 -7.500000e-01
     vertex -7.500000e-01  2.343750e-02  1.500000e-01
   endloop
 endfacet
 facet normal  0.000000e+00  1.000000e+00  0.000000e+00
   outer loop
     vertex -1.500000e-01  2.343750e-02  7.500000e-01
     vertex  7.500000e-01  2.343750e-02 -7.500000e-01
     vertex -7.500000e-01  2.343750e-02  1.500000e-01
   endloop
 endfacet
 facet normal  0.000000e+00  1.000000e+00  0.000000e+00
   outer loop
     vertex  7.500000e-01  2.343750e-02  7.500000e-01
     vertex  7.500000e-01  2.343750e-02 -7.500000e-01
     vertex -1.500000e-01  2.343750e-02  7.500000e-01
   endloop
 endfacet
 facet normal -7.071068e-01  0.000000e+00  7.071068e-01
   outer loop
     vertex -7.500000e-01  5.510911e-17  1.500000e-01
     vertex -1.500000e-01  1.285879e-16  7.500000e-01
     vertex -1.500000e-01  2.343750e-02  7.500000e-01
   endloop
 endfacet
 facet normal -7.071068e-01  0.000000e+00  7.071068e-01
   outer loop
     vertex -7.500000e-01  5.510911e-17  1.500000e-01
     vertex -1.500000e-01  2.343750e-02  7.500000e-01
     vertex -7.500000e-01  2.343750e-02  1.500000e-01
   endloop
 endfacet
 facet normal  0.000000e+00  0.000000e+00  1.000000e+00
   outer loop
     vertex -1.500000e-01  1.285879e-16  7.500000e-01
     vertex  7.500000e-01  1.836970e-16  7.500000e-01
     vertex  7.500000e-01  2.343750e-02  7.500000e-01
   endloop
 endfacet
 facet normal  0.000000e+00  0.000000e+00  1.000000e+00
   outer loop
     vertex -1.500000e-01  1.285879e-16  7.500000e-01
     vertex  7.500000e-01  2.343750e-02  7.500000e-01
     vertex -1.500000e-01  2.343750e-02  7.500000e-01
   endloop
 endfacet
endsolid
