solid 
 facet normal  6.123234e-17 -6.123234e-17 -1.000000e+00
   outer loop
     vertex  7.030124e-34  7.031250e-02 -1.148106e-17
     vertex  3.593750e-01 -1.171875e-01  2.200537e-17
     vertex  0.000000e+00 -1.171875e-01  0.000000e+00
   endloop
 endfacet
 facet normal  6.123234e-17 -6.123234e-17 -1.000000e+00
   outer loop
     vertex  7.030124e-34  7.031250e-02 -1.148106e-17
     vertex  3.593750e-01  7.031250e-02  1.052431e-17
     vertex  3.593750e-01 -1.171875e-01  2.200537e-17
   endloop
 endfacet
 facet normal  0.000000e+00 -1.000000e+00  0.000000e+00
   outer loop
     vertex  0.000000e+00 -1.171875e-01  0.000000e+00
     vertex  3.593750e-01 -1.171875e-01  1.875000e-01
     vertex -1.148106e-17 -1.171875e-01  1.875000e-01
   endloop
 endfacet
 facet normal  0.000000e+00 -1.000000e+00  0.000000e+00
   outer loop
     vertex  0.000000e+00 -1.171875e-01  0.000000e+00
     vertex  3.593750e-01 -1.171875e-01  2.200537e-17
     vertex  3.593750e-01 -1.171875e-01  1.875000e-01
   endloop
 endfacet
 facet normal  0.000000e+00  1.000000e+00  0.000000e+00
   outer loop
     vertex -1.148106e-17  7.031250e-02  1.875000e-01
     vertex  3.593750e-01  7.031250e-02  1.052431e-17
     vertex  7.030124e-34  7.031250e-02 -1.148106e-17
   endloop
 endfacet
 facet normal -0.000000e+00  1.000000e+00  0.000000e+00
   outer loop
     vertex -1.148106e-17  7.031250e-02  1.875000e-01
     vertex  3.593750e-01  7.031250e-02  1.875000e-01
     vertex  3.593750e-01  7.031250e-02  1.052431e-17
   endloop
 endfacet
 facet normal -1.000000e+00  0.000000e+00 -6.123234e-17
   outer loop
     vertex -1.148106e-17  7.031250e-02  1.875000e-01
     vertex  7.030124e-34  7.031250e-02 -1.148106e-17
     vertex  0.000000e+00 -1.171875e-01  0.000000e+00
   endloop
 endfacet
 facet normal -1.000000e+00 -0.000000e+00 -6.123234e-17
   outer loop
     vertex -1.148106e-17  7.031250e-02  1.875000e-01
     vertex  0.000000e+00 -1.171875e-01  0.000000e+00
     vertex -1.148106e-17 -1.171875e-01  1.875000e-01
   endloop
 endfacet
 facet normal  1.000000e+00  0.000000e+00  0.000000e+00
   outer loop
     vertex  3.593750e-01  7.031250e-02  1.875000e-01
     vertex  3.593750e-01 -1.171875e-01  2.200537e-17
     vertex  3.593750e-01  7.031250e-02  1.052431e-17
   endloop
 endfacet
 facet normal  1.000000e+00  0.000000e+00  0.000000e+00
   outer loop
     vertex  3.593750e-01  7.031250e-02  1.875000e-01
     vertex  3.593750e-01 -1.171875e-01  1.875000e-01
     vertex  3.593750e-01 -1.171875e-01  2.200537e-17
   endloop
 endfacet
 facet normal  0.000000e+00  0.000000e+00  1.000000e+00
   outer loop
     vertex -1.148106e-17 -1.171875e-01  1.875000e-01
     vertex  3.593750e-01  7.031250e-02  1.875000e-01
     vertex -1.148106e-17  7.031250e-02  1.875000e-01
   endloop
 endfacet
 facet normal  0.000000e+00  0.000000e+00  1.000000e+00
   outer loop
     vertex -1.148106e-17 -1.171875e-01  1.875000e-01
     vertex  3.593750e-01 -1.171875e-01  1.875000e-01
     vertex  3.593750e-01  7.031250e-02  1.875000e-01
   endloop
 endfacet
endsolid
