solid 
 facet normal -4.902612e-01  0.000000e+00 -8.715755e-01
   outer loop
     vertex  5.180921e-03  3.278146e-18 -1.313322e-01
     vertex -1.171875e-01 -7.500000e-01 -6.250000e-02
     vertex -1.171875e-01  0.000000e+00 -6.250000e-02
   endloop
 endfacet
 facet normal -4.902612e-01 -0.000000e+00 -8.715755e-01
   outer loop
     vertex  5.180921e-03  3.278146e-18 -1.313322e-01
     vertex  5.180921e-03 -7.500000e-01 -1.313322e-01
     vertex -1.171875e-01 -7.500000e-01 -6.250000e-02
   endloop
 endfacet
 facet normal  4.981245e-01  0.000000e+00 -8.671055e-01
   outer loop
     vertex  1.250000e-01  1.482971e-17 -6.250000e-02
     vertex  5.180921e-03 -7.500000e-01 -1.313322e-01
     vertex  5.180921e-03  3.278146e-18 -1.313322e-01
   endloop
 endfacet
 facet normal  4.981245e-01  0.000000e+00 -8.671055e-01
   outer loop
     vertex  1.250000e-01  1.482971e-17 -6.250000e-02
     vertex  1.250000e-01 -7.500000e-01 -6.250000e-02
     vertex  5.180921e-03 -7.500000e-01 -1.313322e-01
   endloop
 endfacet
 facet normal  1.000000e+00  0.000000e+00  0.000000e+00
   outer loop
     vertex  1.250000e-01  2.341533e-17  7.771382e-02
     vertex  1.250000e-01 -7.500000e-01 -6.250000e-02
     vertex  1.250000e-01  1.482971e-17 -6.250000e-02
   endloop
 endfacet
 facet normal  1.000000e+00  0.000000e+00  0.000000e+00
   outer loop
     vertex  1.250000e-01  2.341533e-17  7.771382e-02
     vertex  1.250000e-01 -7.500000e-01  7.771382e-02
     vertex  1.250000e-01 -7.500000e-01 -6.250000e-02
   endloop
 endfacet
 facet normal  4.981245e-01  0.000000e+00  8.671055e-01
   outer loop
     vertex  5.180921e-03  2.029328e-17  1.465461e-01
     vertex  1.250000e-01 -7.500000e-01  7.771382e-02
     vertex  1.250000e-01  2.341533e-17  7.771382e-02
   endloop
 endfacet
 facet normal  4.981245e-01  0.000000e+00  8.671055e-01
   outer loop
     vertex  5.180921e-03  2.029328e-17  1.465461e-01
     vertex  5.180921e-03 -7.500000e-01  1.465461e-01
     vertex  1.250000e-01 -7.500000e-01  7.771382e-02
   endloop
 endfacet
 facet normal -4.902612e-01  0.000000e+00  8.715755e-01
   outer loop
     vertex -1.171875e-01  8.585620e-18  7.771382e-02
     vertex  5.180921e-03 -7.500000e-01  1.465461e-01
     vertex  5.180921e-03  2.029328e-17  1.465461e-01
   endloop
 endfacet
 facet normal -4.902612e-01  0.000000e+00  8.715755e-01
   outer loop
     vertex -1.171875e-01  8.585620e-18  7.771382e-02
     vertex -1.171875e-01 -7.500000e-01  7.771382e-02
     vertex  5.180921e-03 -7.500000e-01  1.465461e-01
   endloop
 endfacet
 facet normal -1.000000e+00  0.000000e+00  0.000000e+00
   outer loop
     vertex -1.171875e-01  0.000000e+00 -6.250000e-02
     vertex -1.171875e-01 -7.500000e-01  7.771382e-02
     vertex -1.171875e-01  8.585620e-18  7.771382e-02
   endloop
 endfacet
 facet normal -1.000000e+00  0.000000e+00  0.000000e+00
   outer loop
     vertex -1.171875e-01  0.000000e+00 -6.250000e-02
     vertex -1.171875e-01 -7.500000e-01 -6.250000e-02
     vertex -1.171875e-01 -7.500000e-01  7.771382e-02
   endloop
 endfacet
 facet normal  4.338837e-01  0.000000e+00  9.009689e-01
   outer loop
     vertex -6.856585e-02  3.590836e-18 -5.247885e-02
     vertex  5.180921e-03 -7.500000e-01 -8.799342e-02
     vertex  5.180921e-03  5.931883e-18 -8.799342e-02
   endloop
 endfacet
 facet normal  4.338837e-01  0.000000e+00  9.009689e-01
   outer loop
     vertex -6.856585e-02  3.590836e-18 -5.247885e-02
     vertex -6.856585e-02 -7.500000e-01 -5.247885e-02
     vertex  5.180921e-03 -7.500000e-01 -8.799342e-02
   endloop
 endfacet
 facet normal  9.749279e-01  0.000000e+00  2.225209e-01
   outer loop
     vertex -8.677980e-02  7.361926e-18  2.732167e-02
     vertex -8.677980e-02 -7.500000e-01  2.732167e-02
     vertex -6.856585e-02 -7.500000e-01 -5.247885e-02
   endloop
 endfacet
 facet normal  9.749279e-01  0.000000e+00  2.225209e-01
   outer loop
     vertex -8.677980e-02  7.361926e-18  2.732167e-02
     vertex -6.856585e-02 -7.500000e-01 -5.247885e-02
     vertex -6.856585e-02  3.590836e-18 -5.247885e-02
   endloop
 endfacet
 facet normal  7.818315e-01  0.000000e+00 -6.234898e-01
   outer loop
     vertex -3.574545e-02  1.440544e-17  9.131672e-02
     vertex -3.574545e-02 -7.500000e-01  9.131672e-02
     vertex -8.677980e-02 -7.500000e-01  2.732167e-02
   endloop
 endfacet
 facet normal  7.818315e-01  0.000000e+00 -6.234898e-01
   outer loop
     vertex -3.574545e-02  1.440544e-17  9.131672e-02
     vertex -8.677980e-02 -7.500000e-01  2.732167e-02
     vertex -8.677980e-02  7.361926e-18  2.732167e-02
   endloop
 endfacet
 facet normal -1.695458e-16 -0.000000e+00 -1.000000e+00
   outer loop
     vertex  4.610729e-02  1.941748e-17  9.131672e-02
     vertex  4.610729e-02 -7.500000e-01  9.131672e-02
     vertex -3.574545e-02 -7.500000e-01  9.131672e-02
   endloop
 endfacet
 facet normal -1.695458e-16  0.000000e+00 -1.000000e+00
   outer loop
     vertex  4.610729e-02  1.941748e-17  9.131672e-02
     vertex -3.574545e-02 -7.500000e-01  9.131672e-02
     vertex -3.574545e-02  1.440544e-17  9.131672e-02
   endloop
 endfacet
 facet normal -7.818315e-01 -0.000000e+00 -6.234898e-01
   outer loop
     vertex  9.714164e-02  1.862387e-17  2.732167e-02
     vertex  9.714164e-02 -7.500000e-01  2.732167e-02
     vertex  4.610729e-02 -7.500000e-01  9.131672e-02
   endloop
 endfacet
 facet normal -7.818315e-01  0.000000e+00 -6.234898e-01
   outer loop
     vertex  9.714164e-02  1.862387e-17  2.732167e-02
     vertex  4.610729e-02 -7.500000e-01  9.131672e-02
     vertex  4.610729e-02  1.941748e-17  9.131672e-02
   endloop
 endfacet
 facet normal -9.749279e-01  0.000000e+00  2.225209e-01
   outer loop
     vertex  7.892769e-02  1.262221e-17 -5.247885e-02
     vertex  7.892769e-02 -7.500000e-01 -5.247885e-02
     vertex  9.714164e-02 -7.500000e-01  2.732167e-02
   endloop
 endfacet
 facet normal -9.749279e-01  0.000000e+00  2.225209e-01
   outer loop
     vertex  7.892769e-02  1.262221e-17 -5.247885e-02
     vertex  9.714164e-02 -7.500000e-01  2.732167e-02
     vertex  9.714164e-02  1.862387e-17  2.732167e-02
   endloop
 endfacet
 facet normal -4.338837e-01  0.000000e+00  9.009689e-01
   outer loop
     vertex  5.180921e-03  5.931883e-18 -8.799342e-02
     vertex  5.180921e-03 -7.500000e-01 -8.799342e-02
     vertex  7.892769e-02 -7.500000e-01 -5.247885e-02
   endloop
 endfacet
 facet normal -4.338837e-01  0.000000e+00  9.009689e-01
   outer loop
     vertex  5.180921e-03  5.931883e-18 -8.799342e-02
     vertex  7.892769e-02 -7.500000e-01 -5.247885e-02
     vertex  7.892769e-02  1.262221e-17 -5.247885e-02
   endloop
 endfacet
 facet normal -6.123234e-17  1.000000e+00 -6.123234e-17
   outer loop
     vertex -6.856585e-02  3.590836e-18 -5.247885e-02
     vertex  5.180921e-03  3.278146e-18 -1.313322e-01
     vertex -1.171875e-01  0.000000e+00 -6.250000e-02
   endloop
 endfacet
 facet normal -6.123234e-17  1.000000e+00 -6.123234e-17
   outer loop
     vertex  5.180921e-03  5.931883e-18 -8.799342e-02
     vertex  5.180921e-03  3.278146e-18 -1.313322e-01
     vertex -6.856585e-02  3.590836e-18 -5.247885e-02
   endloop
 endfacet
 facet normal -6.123234e-17  1.000000e+00 -6.123234e-17
   outer loop
     vertex -8.677980e-02  7.361926e-18  2.732167e-02
     vertex -6.856585e-02  3.590836e-18 -5.247885e-02
     vertex -1.171875e-01  0.000000e+00 -6.250000e-02
   endloop
 endfacet
 facet normal -6.123234e-17  1.000000e+00 -6.123234e-17
   outer loop
     vertex -1.171875e-01  8.585620e-18  7.771382e-02
     vertex -8.677980e-02  7.361926e-18  2.732167e-02
     vertex -1.171875e-01  0.000000e+00 -6.250000e-02
   endloop
 endfacet
 facet normal -6.123234e-17  1.000000e+00 -6.123234e-17
   outer loop
     vertex  7.892769e-02  1.262221e-17 -5.247885e-02
     vertex  5.180921e-03  3.278146e-18 -1.313322e-01
     vertex  5.180921e-03  5.931883e-18 -8.799342e-02
   endloop
 endfacet
 facet normal -6.123234e-17  1.000000e+00 -6.123234e-17
   outer loop
     vertex -3.574545e-02  1.440544e-17  9.131672e-02
     vertex -8.677980e-02  7.361926e-18  2.732167e-02
     vertex -1.171875e-01  8.585620e-18  7.771382e-02
   endloop
 endfacet
 facet normal -6.123234e-17  1.000000e+00 -6.123234e-17
   outer loop
     vertex  1.250000e-01  1.482971e-17 -6.250000e-02
     vertex  5.180921e-03  3.278146e-18 -1.313322e-01
     vertex  7.892769e-02  1.262221e-17 -5.247885e-02
   endloop
 endfacet
 facet normal -6.123234e-17  1.000000e+00 -6.123234e-17
   outer loop
     vertex  9.714164e-02  1.862387e-17  2.732167e-02
     vertex  1.250000e-01  1.482971e-17 -6.250000e-02
     vertex  7.892769e-02  1.262221e-17 -5.247885e-02
   endloop
 endfacet
 facet normal -6.123234e-17  1.000000e+00 -6.123234e-17
   outer loop
     vertex  5.180921e-03  2.029328e-17  1.465461e-01
     vertex  4.610729e-02  1.941748e-17  9.131672e-02
     vertex -3.574545e-02  1.440544e-17  9.131672e-02
   endloop
 endfacet
 facet normal -6.123234e-17  1.000000e+00 -6.123234e-17
   outer loop
     vertex  5.180921e-03  2.029328e-17  1.465461e-01
     vertex -3.574545e-02  1.440544e-17  9.131672e-02
     vertex -1.171875e-01  8.585620e-18  7.771382e-02
   endloop
 endfacet
 facet normal -6.123234e-17  1.000000e+00 -6.123234e-17
   outer loop
     vertex  1.250000e-01  2.341533e-17  7.771382e-02
     vertex  9.714164e-02  1.862387e-17  2.732167e-02
     vertex  4.610729e-02  1.941748e-17  9.131672e-02
   endloop
 endfacet
 facet normal -6.123234e-17  1.000000e+00 -6.123234e-17
   outer loop
     vertex  1.250000e-01  2.341533e-17  7.771382e-02
     vertex  1.250000e-01  1.482971e-17 -6.250000e-02
     vertex  9.714164e-02  1.862387e-17  2.732167e-02
   endloop
 endfacet
 facet normal -6.123234e-17  1.000000e+00 -6.123234e-17
   outer loop
     vertex  1.250000e-01  2.341533e-17  7.771382e-02
     vertex  4.610729e-02  1.941748e-17  9.131672e-02
     vertex  5.180921e-03  2.029328e-17  1.465461e-01
   endloop
 endfacet
 facet normal  0.000000e+00 -1.000000e+00 -0.000000e+00
   outer loop
     vertex -6.856585e-02 -7.500000e-01 -5.247885e-02
     vertex -1.171875e-01 -7.500000e-01 -6.250000e-02
     vertex  5.180921e-03 -7.500000e-01 -1.313322e-01
   endloop
 endfacet
 facet normal -0.000000e+00 -1.000000e+00 -0.000000e+00
   outer loop
     vertex  5.180921e-03 -7.500000e-01 -8.799342e-02
     vertex -6.856585e-02 -7.500000e-01 -5.247885e-02
     vertex  5.180921e-03 -7.500000e-01 -1.313322e-01
   endloop
 endfacet
 facet normal  0.000000e+00 -1.000000e+00 -0.000000e+00
   outer loop
     vertex -8.677980e-02 -7.500000e-01  2.732167e-02
     vertex -1.171875e-01 -7.500000e-01 -6.250000e-02
     vertex -6.856585e-02 -7.500000e-01 -5.247885e-02
   endloop
 endfacet
 facet normal  0.000000e+00 -1.000000e+00  0.000000e+00
   outer loop
     vertex -1.171875e-01 -7.500000e-01  7.771382e-02
     vertex -1.171875e-01 -7.500000e-01 -6.250000e-02
     vertex -8.677980e-02 -7.500000e-01  2.732167e-02
   endloop
 endfacet
 facet normal  0.000000e+00 -1.000000e+00  0.000000e+00
   outer loop
     vertex  7.892769e-02 -7.500000e-01 -5.247885e-02
     vertex  5.180921e-03 -7.500000e-01 -8.799342e-02
     vertex  5.180921e-03 -7.500000e-01 -1.313322e-01
   endloop
 endfacet
 facet normal  0.000000e+00 -1.000000e+00  0.000000e+00
   outer loop
     vertex -3.574545e-02 -7.500000e-01  9.131672e-02
     vertex -1.171875e-01 -7.500000e-01  7.771382e-02
     vertex -8.677980e-02 -7.500000e-01  2.732167e-02
   endloop
 endfacet
 facet normal -0.000000e+00 -1.000000e+00  0.000000e+00
   outer loop
     vertex  1.250000e-01 -7.500000e-01 -6.250000e-02
     vertex  7.892769e-02 -7.500000e-01 -5.247885e-02
     vertex  5.180921e-03 -7.500000e-01 -1.313322e-01
   endloop
 endfacet
 facet normal  0.000000e+00 -1.000000e+00 -0.000000e+00
   outer loop
     vertex  9.714164e-02 -7.500000e-01  2.732167e-02
     vertex  7.892769e-02 -7.500000e-01 -5.247885e-02
     vertex  1.250000e-01 -7.500000e-01 -6.250000e-02
   endloop
 endfacet
 facet normal  0.000000e+00 -1.000000e+00 -0.000000e+00
   outer loop
     vertex  5.180921e-03 -7.500000e-01  1.465461e-01
     vertex -3.574545e-02 -7.500000e-01  9.131672e-02
     vertex  4.610729e-02 -7.500000e-01  9.131672e-02
   endloop
 endfacet
 facet normal  0.000000e+00 -1.000000e+00  0.000000e+00
   outer loop
     vertex  5.180921e-03 -7.500000e-01  1.465461e-01
     vertex -1.171875e-01 -7.500000e-01  7.771382e-02
     vertex -3.574545e-02 -7.500000e-01  9.131672e-02
   endloop
 endfacet
 facet normal -0.000000e+00 -1.000000e+00  0.000000e+00
   outer loop
     vertex  1.250000e-01 -7.500000e-01  7.771382e-02
     vertex  4.610729e-02 -7.500000e-01  9.131672e-02
     vertex  9.714164e-02 -7.500000e-01  2.732167e-02
   endloop
 endfacet
 facet normal  0.000000e+00 -1.000000e+00 -0.000000e+00
   outer loop
     vertex  1.250000e-01 -7.500000e-01  7.771382e-02
     vertex  9.714164e-02 -7.500000e-01  2.732167e-02
     vertex  1.250000e-01 -7.500000e-01 -6.250000e-02
   endloop
 endfacet
 facet normal  0.000000e+00 -1.000000e+00  0.000000e+00
   outer loop
     vertex  1.250000e-01 -7.500000e-01  7.771382e-02
     vertex  5.180921e-03 -7.500000e-01  1.465461e-01
     vertex  4.610729e-02 -7.500000e-01  9.131672e-02
   endloop
 endfacet
endsolid
