solid 
 facet normal -3.550824e-01 -9.348350e-01  0.000000e+00
   outer loop
     vertex -9.218750e-02 -1.312500e-01  0.000000e+00
     vertex -9.218750e-02 -1.312500e-01  7.500000e-01
     vertex -1.344885e-01 -1.151826e-01  7.500000e-01
   endloop
 endfacet
 facet normal -3.550824e-01 -9.348350e-01  0.000000e+00
   outer loop
     vertex -1.344885e-01 -1.151826e-01  0.000000e+00
     vertex -9.218750e-02 -1.312500e-01  0.000000e+00
     vertex -1.344885e-01 -1.151826e-01  7.500000e-01
   endloop
 endfacet
 facet normal -8.715755e-01 -4.902612e-01  0.000000e+00
   outer loop
     vertex -1.566727e-01 -7.574404e-02  0.000000e+00
     vertex -1.344885e-01 -1.151826e-01  7.500000e-01
     vertex -1.566727e-01 -7.574404e-02  7.500000e-01
   endloop
 endfacet
 facet normal -8.715755e-01 -4.902612e-01  0.000000e+00
   outer loop
     vertex -1.566727e-01 -7.574404e-02  0.000000e+00
     vertex -1.344885e-01 -1.151826e-01  0.000000e+00
     vertex -1.344885e-01 -1.151826e-01  7.500000e-01
   endloop
 endfacet
 facet normal -9.832994e-01  1.819952e-01  0.000000e+00
   outer loop
     vertex -1.484375e-01 -3.125000e-02  0.000000e+00
     vertex -1.566727e-01 -7.574404e-02  7.500000e-01
     vertex -1.484375e-01 -3.125000e-02  7.500000e-01
   endloop
 endfacet
 facet normal -9.832994e-01  1.819952e-01  0.000000e+00
   outer loop
     vertex -1.484375e-01 -3.125000e-02  0.000000e+00
     vertex -1.566727e-01 -7.574404e-02  0.000000e+00
     vertex -1.566727e-01 -7.574404e-02  7.500000e-01
   endloop
 endfacet
 facet normal  0.000000e+00 -1.000000e+00  0.000000e+00
   outer loop
     vertex  9.218750e-02 -1.312500e-01  0.000000e+00
     vertex -9.218750e-02 -1.312500e-01  7.500000e-01
     vertex -9.218750e-02 -1.312500e-01  0.000000e+00
   endloop
 endfacet
 facet normal  0.000000e+00 -1.000000e+00  0.000000e+00
   outer loop
     vertex  9.218750e-02 -1.312500e-01  0.000000e+00
     vertex  9.218750e-02 -1.312500e-01  7.500000e-01
     vertex -9.218750e-02 -1.312500e-01  7.500000e-01
   endloop
 endfacet
 facet normal  9.732643e-01  2.296879e-01 -0.000000e+00
   outer loop
     vertex  1.421875e-01 -3.125000e-02  0.000000e+00
     vertex  1.421875e-01 -3.125000e-02  7.500000e-01
     vertex  1.523153e-01 -7.416479e-02  7.500000e-01
   endloop
 endfacet
 facet normal  9.732643e-01  2.296879e-01 -0.000000e+00
   outer loop
     vertex  1.523153e-01 -7.416479e-02  0.000000e+00
     vertex  1.421875e-01 -3.125000e-02  0.000000e+00
     vertex  1.523153e-01 -7.416479e-02  7.500000e-01
   endloop
 endfacet
 facet normal  8.944272e-01 -4.472136e-01  0.000000e+00
   outer loop
     vertex  1.325960e-01 -1.136034e-01  0.000000e+00
     vertex  1.523153e-01 -7.416479e-02  7.500000e-01
     vertex  1.325960e-01 -1.136034e-01  7.500000e-01
   endloop
 endfacet
 facet normal  8.944272e-01 -4.472136e-01  0.000000e+00
   outer loop
     vertex  1.325960e-01 -1.136034e-01  0.000000e+00
     vertex  1.523153e-01 -7.416479e-02  0.000000e+00
     vertex  1.523153e-01 -7.416479e-02  7.500000e-01
   endloop
 endfacet
 facet normal  4.002083e-01 -9.164242e-01  0.000000e+00
   outer loop
     vertex  9.218750e-02 -1.312500e-01  0.000000e+00
     vertex  1.325960e-01 -1.136034e-01  7.500000e-01
     vertex  9.218750e-02 -1.312500e-01  7.500000e-01
   endloop
 endfacet
 facet normal  4.002083e-01 -9.164242e-01  0.000000e+00
   outer loop
     vertex  9.218750e-02 -1.312500e-01  0.000000e+00
     vertex  1.325960e-01 -1.136034e-01  0.000000e+00
     vertex  1.325960e-01 -1.136034e-01  7.500000e-01
   endloop
 endfacet
 facet normal  8.758383e-01  4.826048e-01  0.000000e+00
   outer loop
     vertex  5.781250e-02  1.218750e-01  0.000000e+00
     vertex  1.421875e-01 -3.125000e-02  7.500000e-01
     vertex  1.421875e-01 -3.125000e-02  0.000000e+00
   endloop
 endfacet
 facet normal  8.758383e-01  4.826048e-01 -0.000000e+00
   outer loop
     vertex  5.781250e-02  1.218750e-01  0.000000e+00
     vertex  5.781250e-02  1.218750e-01  7.500000e-01
     vertex  1.421875e-01 -3.125000e-02  7.500000e-01
   endloop
 endfacet
 facet normal -6.406962e-01  7.677945e-01  0.000000e+00
   outer loop
     vertex -6.718750e-02  1.218750e-01  0.000000e+00
     vertex -6.718750e-02  1.218750e-01  7.500000e-01
     vertex -2.933660e-02  1.534602e-01  7.500000e-01
   endloop
 endfacet
 facet normal -6.406962e-01  7.677945e-01  0.000000e+00
   outer loop
     vertex -2.933660e-02  1.534602e-01  0.000000e+00
     vertex -6.718750e-02  1.218750e-01  0.000000e+00
     vertex -2.933660e-02  1.534602e-01  7.500000e-01
   endloop
 endfacet
 facet normal  5.630139e-15  1.000000e+00 -0.000000e+00
   outer loop
     vertex  1.996160e-02  1.534602e-01  0.000000e+00
     vertex -2.933660e-02  1.534602e-01  7.500000e-01
     vertex  1.996160e-02  1.534602e-01  7.500000e-01
   endloop
 endfacet
 facet normal  5.630139e-15  1.000000e+00  0.000000e+00
   outer loop
     vertex  1.996160e-02  1.534602e-01  0.000000e+00
     vertex -2.933660e-02  1.534602e-01  0.000000e+00
     vertex -2.933660e-02  1.534602e-01  7.500000e-01
   endloop
 endfacet
 facet normal  6.406962e-01  7.677945e-01 -0.000000e+00
   outer loop
     vertex  5.781250e-02  1.218750e-01  0.000000e+00
     vertex  1.996160e-02  1.534602e-01  7.500000e-01
     vertex  5.781250e-02  1.218750e-01  7.500000e-01
   endloop
 endfacet
 facet normal  6.406962e-01  7.677945e-01  0.000000e+00
   outer loop
     vertex  5.781250e-02  1.218750e-01  0.000000e+00
     vertex  1.996160e-02  1.534602e-01  0.000000e+00
     vertex  1.996160e-02  1.534602e-01  7.500000e-01
   endloop
 endfacet
 facet normal -8.833490e-01  4.687158e-01  0.000000e+00
   outer loop
     vertex -1.484375e-01 -3.125000e-02  0.000000e+00
     vertex -6.718750e-02  1.218750e-01  7.500000e-01
     vertex -6.718750e-02  1.218750e-01  0.000000e+00
   endloop
 endfacet
 facet normal -8.833490e-01  4.687158e-01  0.000000e+00
   outer loop
     vertex -1.484375e-01 -3.125000e-02  0.000000e+00
     vertex -1.484375e-01 -3.125000e-02  7.500000e-01
     vertex -6.718750e-02  1.218750e-01  7.500000e-01
   endloop
 endfacet
 facet normal  0.000000e+00 -0.000000e+00 -1.000000e+00
   outer loop
     vertex -1.484375e-01 -3.125000e-02  0.000000e+00
     vertex -1.344885e-01 -1.151826e-01  0.000000e+00
     vertex -1.566727e-01 -7.574404e-02  0.000000e+00
   endloop
 endfacet
 facet normal  0.000000e+00  0.000000e+00 -1.000000e+00
   outer loop
     vertex -1.484375e-01 -3.125000e-02  0.000000e+00
     vertex -9.218750e-02 -1.312500e-01  0.000000e+00
     vertex -1.344885e-01 -1.151826e-01  0.000000e+00
   endloop
 endfacet
 facet normal  0.000000e+00  0.000000e+00 -1.000000e+00
   outer loop
     vertex  1.523153e-01 -7.416479e-02  0.000000e+00
     vertex  1.325960e-01 -1.136034e-01  0.000000e+00
     vertex  9.218750e-02 -1.312500e-01  0.000000e+00
   endloop
 endfacet
 facet normal  0.000000e+00  0.000000e+00 -1.000000e+00
   outer loop
     vertex  1.421875e-01 -3.125000e-02  0.000000e+00
     vertex  9.218750e-02 -1.312500e-01  0.000000e+00
     vertex -9.218750e-02 -1.312500e-01  0.000000e+00
   endloop
 endfacet
 facet normal -0.000000e+00  0.000000e+00 -1.000000e+00
   outer loop
     vertex  1.421875e-01 -3.125000e-02  0.000000e+00
     vertex -9.218750e-02 -1.312500e-01  0.000000e+00
     vertex -1.484375e-01 -3.125000e-02  0.000000e+00
   endloop
 endfacet
 facet normal  0.000000e+00 -0.000000e+00 -1.000000e+00
   outer loop
     vertex  1.421875e-01 -3.125000e-02  0.000000e+00
     vertex  1.523153e-01 -7.416479e-02  0.000000e+00
     vertex  9.218750e-02 -1.312500e-01  0.000000e+00
   endloop
 endfacet
 facet normal  0.000000e+00  0.000000e+00 -1.000000e+00
   outer loop
     vertex  5.781250e-02  1.218750e-01  0.000000e+00
     vertex -2.933660e-02  1.534602e-01  0.000000e+00
     vertex  1.996160e-02  1.534602e-01  0.000000e+00
   endloop
 endfacet
 facet normal  0.000000e+00  0.000000e+00 -1.000000e+00
   outer loop
     vertex  5.781250e-02  1.218750e-01  0.000000e+00
     vertex -6.718750e-02  1.218750e-01  0.000000e+00
     vertex -2.933660e-02  1.534602e-01  0.000000e+00
   endloop
 endfacet
 facet normal -0.000000e+00  0.000000e+00 -1.000000e+00
   outer loop
     vertex  5.781250e-02  1.218750e-01  0.000000e+00
     vertex -1.484375e-01 -3.125000e-02  0.000000e+00
     vertex -6.718750e-02  1.218750e-01  0.000000e+00
   endloop
 endfacet
 facet normal  0.000000e+00 -0.000000e+00 -1.000000e+00
   outer loop
     vertex  5.781250e-02  1.218750e-01  0.000000e+00
     vertex  1.421875e-01 -3.125000e-02  0.000000e+00
     vertex -1.484375e-01 -3.125000e-02  0.000000e+00
   endloop
 endfacet
 facet normal  0.000000e+00  0.000000e+00  1.000000e+00
   outer loop
     vertex -1.484375e-01 -3.125000e-02  7.500000e-01
     vertex -1.566727e-01 -7.574404e-02  7.500000e-01
     vertex -1.344885e-01 -1.151826e-01  7.500000e-01
   endloop
 endfacet
 facet normal  0.000000e+00  0.000000e+00  1.000000e+00
   outer loop
     vertex -1.484375e-01 -3.125000e-02  7.500000e-01
     vertex -1.344885e-01 -1.151826e-01  7.500000e-01
     vertex -9.218750e-02 -1.312500e-01  7.500000e-01
   endloop
 endfacet
 facet normal  0.000000e+00  0.000000e+00  1.000000e+00
   outer loop
     vertex  1.523153e-01 -7.416479e-02  7.500000e-01
     vertex  9.218750e-02 -1.312500e-01  7.500000e-01
     vertex  1.325960e-01 -1.136034e-01  7.500000e-01
   endloop
 endfacet
 facet normal  0.000000e+00  0.000000e+00  1.000000e+00
   outer loop
     vertex  1.421875e-01 -3.125000e-02  7.500000e-01
     vertex -9.218750e-02 -1.312500e-01  7.500000e-01
     vertex  9.218750e-02 -1.312500e-01  7.500000e-01
   endloop
 endfacet
 facet normal  0.000000e+00  0.000000e+00  1.000000e+00
   outer loop
     vertex  1.421875e-01 -3.125000e-02  7.500000e-01
     vertex -1.484375e-01 -3.125000e-02  7.500000e-01
     vertex -9.218750e-02 -1.312500e-01  7.500000e-01
   endloop
 endfacet
 facet normal  0.000000e+00  0.000000e+00  1.000000e+00
   outer loop
     vertex  1.421875e-01 -3.125000e-02  7.500000e-01
     vertex  9.218750e-02 -1.312500e-01  7.500000e-01
     vertex  1.523153e-01 -7.416479e-02  7.500000e-01
   endloop
 endfacet
 facet normal  0.000000e+00  0.000000e+00  1.000000e+00
   outer loop
     vertex  5.781250e-02  1.218750e-01  7.500000e-01
     vertex  1.996160e-02  1.534602e-01  7.500000e-01
     vertex -2.933660e-02  1.534602e-01  7.500000e-01
   endloop
 endfacet
 facet normal  0.000000e+00  0.000000e+00  1.000000e+00
   outer loop
     vertex  5.781250e-02  1.218750e-01  7.500000e-01
     vertex -2.933660e-02  1.534602e-01  7.500000e-01
     vertex -6.718750e-02  1.218750e-01  7.500000e-01
   endloop
 endfacet
 facet normal  0.000000e+00  0.000000e+00  1.000000e+00
   outer loop
     vertex  5.781250e-02  1.218750e-01  7.500000e-01
     vertex -6.718750e-02  1.218750e-01  7.500000e-01
     vertex -1.484375e-01 -3.125000e-02  7.500000e-01
   endloop
 endfacet
 facet normal  0.000000e+00  0.000000e+00  1.000000e+00
   outer loop
     vertex  5.781250e-02  1.218750e-01  7.500000e-01
     vertex -1.484375e-01 -3.125000e-02  7.500000e-01
     vertex  1.421875e-01 -3.125000e-02  7.500000e-01
   endloop
 endfacet
endsolid
