solid 
 facet normal  9.967988e-01 -7.995138e-02  0.000000e+00
   outer loop
     vertex  5.285687e-01 -9.958214e-02  0.000000e+00
     vertex  5.390625e-01  3.125000e-02  0.000000e+00
     vertex  5.390625e-01  3.125000e-02  7.500000e-01
   endloop
 endfacet
 facet normal  9.967988e-01 -7.995138e-02  0.000000e+00
   outer loop
     vertex  5.285687e-01 -9.958214e-02  0.000000e+00
     vertex  5.390625e-01  3.125000e-02  7.500000e-01
     vertex  5.285687e-01 -9.958214e-02  7.500000e-01
   endloop
 endfacet
 facet normal  9.487000e-01 -3.161777e-01  0.000000e+00
   outer loop
     vertex  4.870696e-01 -2.241012e-01  0.000000e+00
     vertex  5.285687e-01 -9.958214e-02  7.500000e-01
     vertex  4.870696e-01 -2.241012e-01  7.500000e-01
   endloop
 endfacet
 facet normal  9.487000e-01 -3.161777e-01  0.000000e+00
   outer loop
     vertex  4.870696e-01 -2.241012e-01  0.000000e+00
     vertex  5.285687e-01 -9.958214e-02  0.000000e+00
     vertex  5.285687e-01 -9.958214e-02  7.500000e-01
   endloop
 endfacet
 facet normal  8.454662e-01 -5.340289e-01  0.000000e+00
   outer loop
     vertex  4.169771e-01 -3.350706e-01  0.000000e+00
     vertex  4.870696e-01 -2.241012e-01  7.500000e-01
     vertex  4.169771e-01 -3.350706e-01  7.500000e-01
   endloop
 endfacet
 facet normal  8.454662e-01 -5.340289e-01  0.000000e+00
   outer loop
     vertex  4.169771e-01 -3.350706e-01  0.000000e+00
     vertex  4.870696e-01 -2.241012e-01  0.000000e+00
     vertex  4.870696e-01 -2.241012e-01  7.500000e-01
   endloop
 endfacet
 facet normal  5.004475e-01 -8.657669e-01  0.000000e+00
   outer loop
     vertex  3.223646e-01 -4.260412e-01  0.000000e+00
     vertex  3.223646e-01 -4.260412e-01  7.500000e-01
     vertex  2.087307e-01 -4.917261e-01  7.500000e-01
   endloop
 endfacet
 facet normal  6.930970e-01 -7.208443e-01  0.000000e+00
   outer loop
     vertex  3.223646e-01 -4.260412e-01  0.000000e+00
     vertex  4.169771e-01 -3.350706e-01  7.500000e-01
     vertex  3.223646e-01 -4.260412e-01  7.500000e-01
   endloop
 endfacet
 facet normal  6.930970e-01 -7.208443e-01  0.000000e+00
   outer loop
     vertex  3.223646e-01 -4.260412e-01  0.000000e+00
     vertex  4.169771e-01 -3.350706e-01  0.000000e+00
     vertex  4.169771e-01 -3.350706e-01  7.500000e-01
   endloop
 endfacet
 facet normal  5.004475e-01 -8.657669e-01  0.000000e+00
   outer loop
     vertex  2.087307e-01 -4.917261e-01  0.000000e+00
     vertex  3.223646e-01 -4.260412e-01  0.000000e+00
     vertex  2.087307e-01 -4.917261e-01  7.500000e-01
   endloop
 endfacet
 facet normal  2.787139e-01 -9.603742e-01  0.000000e+00
   outer loop
     vertex  8.267940e-02 -5.283079e-01  0.000000e+00
     vertex  2.087307e-01 -4.917261e-01  7.500000e-01
     vertex  8.267940e-02 -5.283079e-01  7.500000e-01
   endloop
 endfacet
 facet normal  2.787139e-01 -9.603742e-01  0.000000e+00
   outer loop
     vertex  8.267940e-02 -5.283079e-01  0.000000e+00
     vertex  2.087307e-01 -4.917261e-01  0.000000e+00
     vertex  2.087307e-01 -4.917261e-01  7.500000e-01
   endloop
 endfacet
 facet normal  4.078237e-02 -9.991681e-01  0.000000e+00
   outer loop
     vertex -4.846371e-02 -5.336607e-01  0.000000e+00
     vertex  8.267940e-02 -5.283079e-01  7.500000e-01
     vertex -4.846371e-02 -5.336607e-01  7.500000e-01
   endloop
 endfacet
 facet normal  4.078237e-02 -9.991681e-01  0.000000e+00
   outer loop
     vertex -4.846371e-02 -5.336607e-01  0.000000e+00
     vertex  8.267940e-02 -5.283079e-01  0.000000e+00
     vertex  8.267940e-02 -5.283079e-01  7.500000e-01
   endloop
 endfacet
 facet normal -1.995193e-01 -9.798939e-01  0.000000e+00
   outer loop
     vertex -1.770771e-01 -5.074733e-01  0.000000e+00
     vertex -4.846371e-02 -5.336607e-01  7.500000e-01
     vertex -1.770771e-01 -5.074733e-01  7.500000e-01
   endloop
 endfacet
 facet normal -1.995193e-01 -9.798939e-01  0.000000e+00
   outer loop
     vertex -1.770771e-01 -5.074733e-01  0.000000e+00
     vertex -4.846371e-02 -5.336607e-01  0.000000e+00
     vertex -4.846371e-02 -5.336607e-01  7.500000e-01
   endloop
 endfacet
 facet normal -4.282256e-01 -9.036719e-01  0.000000e+00
   outer loop
     vertex -2.956861e-01 -4.512677e-01  0.000000e+00
     vertex -1.770771e-01 -5.074733e-01  7.500000e-01
     vertex -2.956861e-01 -4.512677e-01  7.500000e-01
   endloop
 endfacet
 facet normal -4.282256e-01 -9.036719e-01  0.000000e+00
   outer loop
     vertex -2.956861e-01 -4.512677e-01  0.000000e+00
     vertex -1.770771e-01 -5.074733e-01  0.000000e+00
     vertex -1.770771e-01 -5.074733e-01  7.500000e-01
   endloop
 endfacet
 facet normal -7.991322e-01 -6.011554e-01  0.000000e+00
   outer loop
     vertex -3.973977e-01 -3.683104e-01  0.000000e+00
     vertex -3.973977e-01 -3.683104e-01  7.500000e-01
     vertex -4.763007e-01 -2.634224e-01  7.500000e-01
   endloop
 endfacet
 facet normal -6.320449e-01 -7.749317e-01  0.000000e+00
   outer loop
     vertex -3.973977e-01 -3.683104e-01  0.000000e+00
     vertex -2.956861e-01 -4.512677e-01  7.500000e-01
     vertex -3.973977e-01 -3.683104e-01  7.500000e-01
   endloop
 endfacet
 facet normal -6.320449e-01 -7.749317e-01  0.000000e+00
   outer loop
     vertex -3.973977e-01 -3.683104e-01  0.000000e+00
     vertex -2.956861e-01 -4.512677e-01  0.000000e+00
     vertex -2.956861e-01 -4.512677e-01  7.500000e-01
   endloop
 endfacet
 facet normal -7.991322e-01 -6.011554e-01  0.000000e+00
   outer loop
     vertex -4.763007e-01 -2.634224e-01  0.000000e+00
     vertex -3.973977e-01 -3.683104e-01  0.000000e+00
     vertex -4.763007e-01 -2.634224e-01  7.500000e-01
   endloop
 endfacet
 facet normal -9.197767e-01 -3.924421e-01  0.000000e+00
   outer loop
     vertex -5.278096e-01 -1.426996e-01  0.000000e+00
     vertex -4.763007e-01 -2.634224e-01  7.500000e-01
     vertex -5.278096e-01 -1.426996e-01  7.500000e-01
   endloop
 endfacet
 facet normal -9.197767e-01 -3.924421e-01  0.000000e+00
   outer loop
     vertex -5.278096e-01 -1.426996e-01  0.000000e+00
     vertex -4.763007e-01 -2.634224e-01  0.000000e+00
     vertex -4.763007e-01 -2.634224e-01  7.500000e-01
   endloop
 endfacet
 facet normal -9.869672e-01 -1.609214e-01  0.000000e+00
   outer loop
     vertex -5.489309e-01 -1.315789e-02  0.000000e+00
     vertex -5.278096e-01 -1.426996e-01  7.500000e-01
     vertex -5.489309e-01 -1.315789e-02  7.500000e-01
   endloop
 endfacet
 facet normal -9.869672e-01 -1.609214e-01  0.000000e+00
   outer loop
     vertex -5.489309e-01 -1.315789e-02  0.000000e+00
     vertex -5.278096e-01 -1.426996e-01  0.000000e+00
     vertex -5.278096e-01 -1.426996e-01  7.500000e-01
   endloop
 endfacet
 facet normal -9.977251e-01  6.741386e-02  0.000000e+00
   outer loop
     vertex -5.489309e-01 -1.315789e-02  0.000000e+00
     vertex -4.934211e-01  8.083882e-01  7.500000e-01
     vertex -4.934211e-01  8.083882e-01  0.000000e+00
   endloop
 endfacet
 facet normal -9.977251e-01  6.741386e-02  0.000000e+00
   outer loop
     vertex -5.489309e-01 -1.315789e-02  0.000000e+00
     vertex -5.489309e-01 -1.315789e-02  7.500000e-01
     vertex -4.934211e-01  8.083882e-01  7.500000e-01
   endloop
 endfacet
 facet normal  9.974587e-01  7.124705e-02  0.000000e+00
   outer loop
     vertex  4.835526e-01  8.083882e-01  0.000000e+00
     vertex  5.390625e-01  3.125000e-02  7.500000e-01
     vertex  5.390625e-01  3.125000e-02  0.000000e+00
   endloop
 endfacet
 facet normal  9.974587e-01  7.124705e-02 -0.000000e+00
   outer loop
     vertex  4.835526e-01  8.083882e-01  0.000000e+00
     vertex  4.835526e-01  8.083882e-01  7.500000e-01
     vertex  5.390625e-01  3.125000e-02  7.500000e-01
   endloop
 endfacet
 facet normal  0.000000e+00 -0.000000e+00 -1.000000e+00
   outer loop
     vertex -3.215066e-01 -3.085407e-01  0.000000e+00
     vertex -2.956861e-01 -4.512677e-01  0.000000e+00
     vertex -3.973977e-01 -3.683104e-01  0.000000e+00
   endloop
 endfacet
 facet normal  0.000000e+00 -0.000000e+00 -1.000000e+00
   outer loop
     vertex -2.425525e-01 -3.751062e-01  0.000000e+00
     vertex -1.770771e-01 -5.074733e-01  0.000000e+00
     vertex -2.956861e-01 -4.512677e-01  0.000000e+00
   endloop
 endfacet
 facet normal -0.000000e+00  0.000000e+00 -1.000000e+00
   outer loop
     vertex -2.425525e-01 -3.751062e-01  0.000000e+00
     vertex -2.956861e-01 -4.512677e-01  0.000000e+00
     vertex -3.215066e-01 -3.085407e-01  0.000000e+00
   endloop
 endfacet
 facet normal  0.000000e+00  0.000000e+00 -1.000000e+00
   outer loop
     vertex -3.824515e-01 -2.251715e-01  0.000000e+00
     vertex -3.973977e-01 -3.683104e-01  0.000000e+00
     vertex -4.763007e-01 -2.634224e-01  0.000000e+00
   endloop
 endfacet
 facet normal  0.000000e+00 -0.000000e+00 -1.000000e+00
   outer loop
     vertex -3.824515e-01 -2.251715e-01  0.000000e+00
     vertex -3.215066e-01 -3.085407e-01  0.000000e+00
     vertex -3.973977e-01 -3.683104e-01  0.000000e+00
   endloop
 endfacet
 facet normal -0.000000e+00  0.000000e+00 -1.000000e+00
   outer loop
     vertex -1.500809e-01 -4.210813e-01  0.000000e+00
     vertex -1.770771e-01 -5.074733e-01  0.000000e+00
     vertex -2.425525e-01 -3.751062e-01  0.000000e+00
   endloop
 endfacet
 facet normal  0.000000e+00  0.000000e+00 -1.000000e+00
   outer loop
     vertex -4.219203e-01 -1.297413e-01  0.000000e+00
     vertex -4.763007e-01 -2.634224e-01  0.000000e+00
     vertex -5.278096e-01 -1.426996e-01  0.000000e+00
   endloop
 endfacet
 facet normal  0.000000e+00 -0.000000e+00 -1.000000e+00
   outer loop
     vertex -4.219203e-01 -1.297413e-01  0.000000e+00
     vertex -3.824515e-01 -2.251715e-01  0.000000e+00
     vertex -4.763007e-01 -2.634224e-01  0.000000e+00
   endloop
 endfacet
 facet normal  0.000000e+00 -0.000000e+00 -1.000000e+00
   outer loop
     vertex -4.935224e-02 -4.438505e-01  0.000000e+00
     vertex -4.846371e-02 -5.336607e-01  0.000000e+00
     vertex -1.770771e-01 -5.074733e-01  0.000000e+00
   endloop
 endfacet
 facet normal -0.000000e+00  0.000000e+00 -1.000000e+00
   outer loop
     vertex -4.935224e-02 -4.438505e-01  0.000000e+00
     vertex -1.770771e-01 -5.074733e-01  0.000000e+00
     vertex -1.500809e-01 -4.210813e-01  0.000000e+00
   endloop
 endfacet
 facet normal -0.000000e+00  0.000000e+00 -1.000000e+00
   outer loop
     vertex -4.376676e-01 -2.767898e-02  0.000000e+00
     vertex -5.278096e-01 -1.426996e-01  0.000000e+00
     vertex -5.489309e-01 -1.315789e-02  0.000000e+00
   endloop
 endfacet
 facet normal  0.000000e+00 -0.000000e+00 -1.000000e+00
   outer loop
     vertex -4.376676e-01 -2.767898e-02  0.000000e+00
     vertex -4.219203e-01 -1.297413e-01  0.000000e+00
     vertex -5.278096e-01 -1.426996e-01  0.000000e+00
   endloop
 endfacet
 facet normal  0.000000e+00 -0.000000e+00 -1.000000e+00
   outer loop
     vertex  5.390330e-02 -4.421185e-01  0.000000e+00
     vertex  8.267940e-02 -5.283079e-01  0.000000e+00
     vertex -4.846371e-02 -5.336607e-01  0.000000e+00
   endloop
 endfacet
 facet normal  0.000000e+00  0.000000e+00 -1.000000e+00
   outer loop
     vertex  5.390330e-02 -4.421185e-01  0.000000e+00
     vertex -4.846371e-02 -5.336607e-01  0.000000e+00
     vertex -4.935224e-02 -4.438505e-01  0.000000e+00
   endloop
 endfacet
 facet normal  0.000000e+00  0.000000e+00 -1.000000e+00
   outer loop
     vertex -4.287977e-01  7.520946e-02  0.000000e+00
     vertex -4.376676e-01 -2.767898e-02  0.000000e+00
     vertex -5.489309e-01 -1.315789e-02  0.000000e+00
   endloop
 endfacet
 facet normal  0.000000e+00 -0.000000e+00 -1.000000e+00
   outer loop
     vertex  1.538117e-01 -4.159839e-01  0.000000e+00
     vertex  2.087307e-01 -4.917261e-01  0.000000e+00
     vertex  8.267940e-02 -5.283079e-01  0.000000e+00
   endloop
 endfacet
 facet normal  0.000000e+00  0.000000e+00 -1.000000e+00
   outer loop
     vertex  1.538117e-01 -4.159839e-01  0.000000e+00
     vertex  8.267940e-02 -5.283079e-01  0.000000e+00
     vertex  5.390330e-02 -4.421185e-01  0.000000e+00
   endloop
 endfacet
 facet normal  0.000000e+00  0.000000e+00 -1.000000e+00
   outer loop
     vertex -3.958151e-01  1.730709e-01  0.000000e+00
     vertex -4.287977e-01  7.520946e-02  0.000000e+00
     vertex -5.489309e-01 -1.315789e-02  0.000000e+00
   endloop
 endfacet
 facet normal  0.000000e+00  0.000000e+00 -1.000000e+00
   outer loop
     vertex  2.446894e-01 -3.669334e-01  0.000000e+00
     vertex  2.087307e-01 -4.917261e-01  0.000000e+00
     vertex  1.538117e-01 -4.159839e-01  0.000000e+00
   endloop
 endfacet
 facet normal -0.000000e+00  0.000000e+00 -1.000000e+00
   outer loop
     vertex  3.223646e-01 -4.260412e-01  0.000000e+00
     vertex  2.087307e-01 -4.917261e-01  0.000000e+00
     vertex  2.446894e-01 -3.669334e-01  0.000000e+00
   endloop
 endfacet
 facet normal  0.000000e+00 -0.000000e+00 -1.000000e+00
   outer loop
     vertex  3.213665e-01 -2.977574e-01  0.000000e+00
     vertex  3.223646e-01 -4.260412e-01  0.000000e+00
     vertex  2.446894e-01 -3.669334e-01  0.000000e+00
   endloop
 endfacet
 facet normal -0.000000e+00  0.000000e+00 -1.000000e+00
   outer loop
     vertex  4.169771e-01 -3.350706e-01  0.000000e+00
     vertex  3.223646e-01 -4.260412e-01  0.000000e+00
     vertex  3.213665e-01 -2.977574e-01  0.000000e+00
   endloop
 endfacet
 facet normal  0.000000e+00 -0.000000e+00 -1.000000e+00
   outer loop
     vertex  3.794811e-01 -2.123912e-01  0.000000e+00
     vertex  4.169771e-01 -3.350706e-01  0.000000e+00
     vertex  3.213665e-01 -2.977574e-01  0.000000e+00
   endloop
 endfacet
 facet normal -0.000000e+00  0.000000e+00 -1.000000e+00
   outer loop
     vertex  4.870696e-01 -2.241012e-01  0.000000e+00
     vertex  4.169771e-01 -3.350706e-01  0.000000e+00
     vertex  3.794811e-01 -2.123912e-01  0.000000e+00
   endloop
 endfacet
 facet normal  0.000000e+00 -0.000000e+00 -1.000000e+00
   outer loop
     vertex  4.157272e-01 -1.156910e-01  0.000000e+00
     vertex  4.870696e-01 -2.241012e-01  0.000000e+00
     vertex  3.794811e-01 -2.123912e-01  0.000000e+00
   endloop
 endfacet
 facet normal  0.000000e+00  0.000000e+00 -1.000000e+00
   outer loop
     vertex -4.934211e-01  8.083882e-01  0.000000e+00
     vertex -1.771007e-01  3.841175e-01  0.000000e+00
     vertex -2.662822e-01  3.320468e-01  0.000000e+00
   endloop
 endfacet
 facet normal  0.000000e+00  0.000000e+00 -1.000000e+00
   outer loop
     vertex -4.934211e-01  8.083882e-01  0.000000e+00
     vertex -2.662822e-01  3.320468e-01  0.000000e+00
     vertex -3.405962e-01  2.603381e-01  0.000000e+00
   endloop
 endfacet
 facet normal  0.000000e+00  0.000000e+00 -1.000000e+00
   outer loop
     vertex -4.934211e-01  8.083882e-01  0.000000e+00
     vertex -3.405962e-01  2.603381e-01  0.000000e+00
     vertex -3.958151e-01  1.730709e-01  0.000000e+00
   endloop
 endfacet
 facet normal  0.000000e+00 -0.000000e+00 -1.000000e+00
   outer loop
     vertex -4.934211e-01  8.083882e-01  0.000000e+00
     vertex -3.958151e-01  1.730709e-01  0.000000e+00
     vertex -5.489309e-01 -1.315789e-02  0.000000e+00
   endloop
 endfacet
 facet normal  0.000000e+00 -0.000000e+00 -1.000000e+00
   outer loop
     vertex -7.812500e-02  4.843750e-01  0.000000e+00
     vertex -7.812500e-02  4.135881e-01  0.000000e+00
     vertex -1.771007e-01  3.841175e-01  0.000000e+00
   endloop
 endfacet
 facet normal  0.000000e+00 -0.000000e+00 -1.000000e+00
   outer loop
     vertex -7.812500e-02  5.000000e-01  0.000000e+00
     vertex -7.812500e-02  4.843750e-01  0.000000e+00
     vertex -1.771007e-01  3.841175e-01  0.000000e+00
   endloop
 endfacet
 facet normal -0.000000e+00  0.000000e+00 -1.000000e+00
   outer loop
     vertex -7.812500e-02  5.000000e-01  0.000000e+00
     vertex -1.771007e-01  3.841175e-01  0.000000e+00
     vertex -4.934211e-01  8.083882e-01  0.000000e+00
   endloop
 endfacet
 facet normal -0.000000e+00  0.000000e+00 -1.000000e+00
   outer loop
     vertex  5.285687e-01 -9.958214e-02  0.000000e+00
     vertex  4.157272e-01 -1.156910e-01  0.000000e+00
     vertex  4.280428e-01 -1.315789e-02  0.000000e+00
   endloop
 endfacet
 facet normal  0.000000e+00  0.000000e+00 -1.000000e+00
   outer loop
     vertex  5.285687e-01 -9.958214e-02  0.000000e+00
     vertex  4.870696e-01 -2.241012e-01  0.000000e+00
     vertex  4.157272e-01 -1.156910e-01  0.000000e+00
   endloop
 endfacet
 facet normal  0.000000e+00  0.000000e+00 -1.000000e+00
   outer loop
     vertex  7.031250e-02  5.000000e-01  0.000000e+00
     vertex  1.666066e-01  3.843881e-01  0.000000e+00
     vertex  7.031250e-02  4.132304e-01  0.000000e+00
   endloop
 endfacet
 facet normal -0.000000e+00  0.000000e+00 -1.000000e+00
   outer loop
     vertex  5.390625e-01  3.125000e-02  0.000000e+00
     vertex  4.280428e-01 -1.315789e-02  0.000000e+00
     vertex  4.163742e-01  8.668341e-02  0.000000e+00
   endloop
 endfacet
 facet normal  0.000000e+00  0.000000e+00 -1.000000e+00
   outer loop
     vertex  5.390625e-01  3.125000e-02  0.000000e+00
     vertex  4.163742e-01  8.668341e-02  0.000000e+00
     vertex  3.819974e-01  1.811434e-01  0.000000e+00
   endloop
 endfacet
 facet normal  0.000000e+00  0.000000e+00 -1.000000e+00
   outer loop
     vertex  5.390625e-01  3.125000e-02  0.000000e+00
     vertex  5.285687e-01 -9.958214e-02  0.000000e+00
     vertex  4.280428e-01 -1.315789e-02  0.000000e+00
   endloop
 endfacet
 facet normal  0.000000e+00  0.000000e+00 -1.000000e+00
   outer loop
     vertex  4.835526e-01  8.083882e-01  0.000000e+00
     vertex  1.666066e-01  3.843881e-01  0.000000e+00
     vertex  7.031250e-02  5.000000e-01  0.000000e+00
   endloop
 endfacet
 facet normal -0.000000e+00  0.000000e+00 -1.000000e+00
   outer loop
     vertex  4.835526e-01  8.083882e-01  0.000000e+00
     vertex -7.812500e-02  5.000000e-01  0.000000e+00
     vertex -4.934211e-01  8.083882e-01  0.000000e+00
   endloop
 endfacet
 facet normal  0.000000e+00  0.000000e+00 -1.000000e+00
   outer loop
     vertex  4.835526e-01  8.083882e-01  0.000000e+00
     vertex  3.819974e-01  1.811434e-01  0.000000e+00
     vertex  3.267653e-01  2.651306e-01  0.000000e+00
   endloop
 endfacet
 facet normal  0.000000e+00  0.000000e+00 -1.000000e+00
   outer loop
     vertex  4.835526e-01  8.083882e-01  0.000000e+00
     vertex  3.267653e-01  2.651306e-01  0.000000e+00
     vertex  2.536549e-01  3.341183e-01  0.000000e+00
   endloop
 endfacet
 facet normal  0.000000e+00  0.000000e+00 -1.000000e+00
   outer loop
     vertex  4.835526e-01  8.083882e-01  0.000000e+00
     vertex  2.536549e-01  3.341183e-01  0.000000e+00
     vertex  1.666066e-01  3.843881e-01  0.000000e+00
   endloop
 endfacet
 facet normal  0.000000e+00 -0.000000e+00 -1.000000e+00
   outer loop
     vertex  4.835526e-01  8.083882e-01  0.000000e+00
     vertex  5.390625e-01  3.125000e-02  0.000000e+00
     vertex  3.819974e-01  1.811434e-01  0.000000e+00
   endloop
 endfacet
 facet normal  0.000000e+00  0.000000e+00 -1.000000e+00
   outer loop
     vertex  4.835526e-01  8.083882e-01  0.000000e+00
     vertex  7.031250e-02  5.000000e-01  0.000000e+00
     vertex -7.812500e-02  5.000000e-01  0.000000e+00
   endloop
 endfacet
 facet normal  0.000000e+00  0.000000e+00  1.000000e+00
   outer loop
     vertex -3.215066e-01 -3.085407e-01  7.500000e-01
     vertex -3.973977e-01 -3.683104e-01  7.500000e-01
     vertex -2.956861e-01 -4.512677e-01  7.500000e-01
   endloop
 endfacet
 facet normal  0.000000e+00  0.000000e+00  1.000000e+00
   outer loop
     vertex -2.425525e-01 -3.751062e-01  7.500000e-01
     vertex -2.956861e-01 -4.512677e-01  7.500000e-01
     vertex -1.770771e-01 -5.074733e-01  7.500000e-01
   endloop
 endfacet
 facet normal  0.000000e+00  0.000000e+00  1.000000e+00
   outer loop
     vertex -2.425525e-01 -3.751062e-01  7.500000e-01
     vertex -3.215066e-01 -3.085407e-01  7.500000e-01
     vertex -2.956861e-01 -4.512677e-01  7.500000e-01
   endloop
 endfacet
 facet normal  0.000000e+00  0.000000e+00  1.000000e+00
   outer loop
     vertex -3.824515e-01 -2.251715e-01  7.500000e-01
     vertex -4.763007e-01 -2.634224e-01  7.500000e-01
     vertex -3.973977e-01 -3.683104e-01  7.500000e-01
   endloop
 endfacet
 facet normal  0.000000e+00  0.000000e+00  1.000000e+00
   outer loop
     vertex -3.824515e-01 -2.251715e-01  7.500000e-01
     vertex -3.973977e-01 -3.683104e-01  7.500000e-01
     vertex -3.215066e-01 -3.085407e-01  7.500000e-01
   endloop
 endfacet
 facet normal  0.000000e+00  0.000000e+00  1.000000e+00
   outer loop
     vertex -1.500809e-01 -4.210813e-01  7.500000e-01
     vertex -2.425525e-01 -3.751062e-01  7.500000e-01
     vertex -1.770771e-01 -5.074733e-01  7.500000e-01
   endloop
 endfacet
 facet normal  0.000000e+00  0.000000e+00  1.000000e+00
   outer loop
     vertex -4.219203e-01 -1.297413e-01  7.500000e-01
     vertex -5.278096e-01 -1.426996e-01  7.500000e-01
     vertex -4.763007e-01 -2.634224e-01  7.500000e-01
   endloop
 endfacet
 facet normal  0.000000e+00  0.000000e+00  1.000000e+00
   outer loop
     vertex -4.219203e-01 -1.297413e-01  7.500000e-01
     vertex -4.763007e-01 -2.634224e-01  7.500000e-01
     vertex -3.824515e-01 -2.251715e-01  7.500000e-01
   endloop
 endfacet
 facet normal  0.000000e+00  0.000000e+00  1.000000e+00
   outer loop
     vertex -4.935224e-02 -4.438505e-01  7.500000e-01
     vertex -1.770771e-01 -5.074733e-01  7.500000e-01
     vertex -4.846371e-02 -5.336607e-01  7.500000e-01
   endloop
 endfacet
 facet normal  0.000000e+00  0.000000e+00  1.000000e+00
   outer loop
     vertex -4.935224e-02 -4.438505e-01  7.500000e-01
     vertex -1.500809e-01 -4.210813e-01  7.500000e-01
     vertex -1.770771e-01 -5.074733e-01  7.500000e-01
   endloop
 endfacet
 facet normal  0.000000e+00  0.000000e+00  1.000000e+00
   outer loop
     vertex -4.376676e-01 -2.767898e-02  7.500000e-01
     vertex -5.489309e-01 -1.315789e-02  7.500000e-01
     vertex -5.278096e-01 -1.426996e-01  7.500000e-01
   endloop
 endfacet
 facet normal  0.000000e+00  0.000000e+00  1.000000e+00
   outer loop
     vertex -4.376676e-01 -2.767898e-02  7.500000e-01
     vertex -5.278096e-01 -1.426996e-01  7.500000e-01
     vertex -4.219203e-01 -1.297413e-01  7.500000e-01
   endloop
 endfacet
 facet normal  0.000000e+00  0.000000e+00  1.000000e+00
   outer loop
     vertex  5.390330e-02 -4.421185e-01  7.500000e-01
     vertex -4.846371e-02 -5.336607e-01  7.500000e-01
     vertex  8.267940e-02 -5.283079e-01  7.500000e-01
   endloop
 endfacet
 facet normal  0.000000e+00  0.000000e+00  1.000000e+00
   outer loop
     vertex  5.390330e-02 -4.421185e-01  7.500000e-01
     vertex -4.935224e-02 -4.438505e-01  7.500000e-01
     vertex -4.846371e-02 -5.336607e-01  7.500000e-01
   endloop
 endfacet
 facet normal  0.000000e+00  0.000000e+00  1.000000e+00
   outer loop
     vertex -4.287977e-01  7.520946e-02  7.500000e-01
     vertex -5.489309e-01 -1.315789e-02  7.500000e-01
     vertex -4.376676e-01 -2.767898e-02  7.500000e-01
   endloop
 endfacet
 facet normal  0.000000e+00  0.000000e+00  1.000000e+00
   outer loop
     vertex  1.538117e-01 -4.159839e-01  7.500000e-01
     vertex  8.267940e-02 -5.283079e-01  7.500000e-01
     vertex  2.087307e-01 -4.917261e-01  7.500000e-01
   endloop
 endfacet
 facet normal  0.000000e+00  0.000000e+00  1.000000e+00
   outer loop
     vertex  1.538117e-01 -4.159839e-01  7.500000e-01
     vertex  5.390330e-02 -4.421185e-01  7.500000e-01
     vertex  8.267940e-02 -5.283079e-01  7.500000e-01
   endloop
 endfacet
 facet normal  0.000000e+00  0.000000e+00  1.000000e+00
   outer loop
     vertex -3.958151e-01  1.730709e-01  7.500000e-01
     vertex -5.489309e-01 -1.315789e-02  7.500000e-01
     vertex -4.287977e-01  7.520946e-02  7.500000e-01
   endloop
 endfacet
 facet normal  0.000000e+00  0.000000e+00  1.000000e+00
   outer loop
     vertex  2.446894e-01 -3.669334e-01  7.500000e-01
     vertex  1.538117e-01 -4.159839e-01  7.500000e-01
     vertex  2.087307e-01 -4.917261e-01  7.500000e-01
   endloop
 endfacet
 facet normal  0.000000e+00  0.000000e+00  1.000000e+00
   outer loop
     vertex  3.223646e-01 -4.260412e-01  7.500000e-01
     vertex  2.446894e-01 -3.669334e-01  7.500000e-01
     vertex  2.087307e-01 -4.917261e-01  7.500000e-01
   endloop
 endfacet
 facet normal  0.000000e+00  0.000000e+00  1.000000e+00
   outer loop
     vertex  3.213665e-01 -2.977574e-01  7.500000e-01
     vertex  2.446894e-01 -3.669334e-01  7.500000e-01
     vertex  3.223646e-01 -4.260412e-01  7.500000e-01
   endloop
 endfacet
 facet normal  0.000000e+00  0.000000e+00  1.000000e+00
   outer loop
     vertex  4.169771e-01 -3.350706e-01  7.500000e-01
     vertex  3.213665e-01 -2.977574e-01  7.500000e-01
     vertex  3.223646e-01 -4.260412e-01  7.500000e-01
   endloop
 endfacet
 facet normal  0.000000e+00  0.000000e+00  1.000000e+00
   outer loop
     vertex  3.794811e-01 -2.123912e-01  7.500000e-01
     vertex  3.213665e-01 -2.977574e-01  7.500000e-01
     vertex  4.169771e-01 -3.350706e-01  7.500000e-01
   endloop
 endfacet
 facet normal  0.000000e+00  0.000000e+00  1.000000e+00
   outer loop
     vertex  4.870696e-01 -2.241012e-01  7.500000e-01
     vertex  3.794811e-01 -2.123912e-01  7.500000e-01
     vertex  4.169771e-01 -3.350706e-01  7.500000e-01
   endloop
 endfacet
 facet normal  0.000000e+00  0.000000e+00  1.000000e+00
   outer loop
     vertex  4.157272e-01 -1.156910e-01  7.500000e-01
     vertex  3.794811e-01 -2.123912e-01  7.500000e-01
     vertex  4.870696e-01 -2.241012e-01  7.500000e-01
   endloop
 endfacet
 facet normal  0.000000e+00  0.000000e+00  1.000000e+00
   outer loop
     vertex -4.934211e-01  8.083882e-01  7.500000e-01
     vertex -2.662822e-01  3.320468e-01  7.500000e-01
     vertex -1.771007e-01  3.841175e-01  7.500000e-01
   endloop
 endfacet
 facet normal  0.000000e+00  0.000000e+00  1.000000e+00
   outer loop
     vertex -4.934211e-01  8.083882e-01  7.500000e-01
     vertex -3.405962e-01  2.603381e-01  7.500000e-01
     vertex -2.662822e-01  3.320468e-01  7.500000e-01
   endloop
 endfacet
 facet normal  0.000000e+00  0.000000e+00  1.000000e+00
   outer loop
     vertex -4.934211e-01  8.083882e-01  7.500000e-01
     vertex -3.958151e-01  1.730709e-01  7.500000e-01
     vertex -3.405962e-01  2.603381e-01  7.500000e-01
   endloop
 endfacet
 facet normal  0.000000e+00  0.000000e+00  1.000000e+00
   outer loop
     vertex -4.934211e-01  8.083882e-01  7.500000e-01
     vertex -5.489309e-01 -1.315789e-02  7.500000e-01
     vertex -3.958151e-01  1.730709e-01  7.500000e-01
   endloop
 endfacet
 facet normal  0.000000e+00  0.000000e+00  1.000000e+00
   outer loop
     vertex -7.812500e-02  4.843750e-01  7.500000e-01
     vertex -1.771007e-01  3.841175e-01  7.500000e-01
     vertex -7.812500e-02  4.135881e-01  7.500000e-01
   endloop
 endfacet
 facet normal  0.000000e+00  0.000000e+00  1.000000e+00
   outer loop
     vertex -7.812500e-02  5.000000e-01  7.500000e-01
     vertex -1.771007e-01  3.841175e-01  7.500000e-01
     vertex -7.812500e-02  4.843750e-01  7.500000e-01
   endloop
 endfacet
 facet normal  0.000000e+00  0.000000e+00  1.000000e+00
   outer loop
     vertex -7.812500e-02  5.000000e-01  7.500000e-01
     vertex -4.934211e-01  8.083882e-01  7.500000e-01
     vertex -1.771007e-01  3.841175e-01  7.500000e-01
   endloop
 endfacet
 facet normal  0.000000e+00  0.000000e+00  1.000000e+00
   outer loop
     vertex  5.285687e-01 -9.958214e-02  7.500000e-01
     vertex  4.157272e-01 -1.156910e-01  7.500000e-01
     vertex  4.870696e-01 -2.241012e-01  7.500000e-01
   endloop
 endfacet
 facet normal  0.000000e+00  0.000000e+00  1.000000e+00
   outer loop
     vertex  5.285687e-01 -9.958214e-02  7.500000e-01
     vertex  4.280428e-01 -1.315789e-02  7.500000e-01
     vertex  4.157272e-01 -1.156910e-01  7.500000e-01
   endloop
 endfacet
 facet normal  0.000000e+00  0.000000e+00  1.000000e+00
   outer loop
     vertex  7.031250e-02  5.000000e-01  7.500000e-01
     vertex  7.031250e-02  4.132304e-01  7.500000e-01
     vertex  1.666066e-01  3.843881e-01  7.500000e-01
   endloop
 endfacet
 facet normal  0.000000e+00  0.000000e+00  1.000000e+00
   outer loop
     vertex  5.390625e-01  3.125000e-02  7.500000e-01
     vertex  4.163742e-01  8.668341e-02  7.500000e-01
     vertex  4.280428e-01 -1.315789e-02  7.500000e-01
   endloop
 endfacet
 facet normal  0.000000e+00  0.000000e+00  1.000000e+00
   outer loop
     vertex  5.390625e-01  3.125000e-02  7.500000e-01
     vertex  3.819974e-01  1.811434e-01  7.500000e-01
     vertex  4.163742e-01  8.668341e-02  7.500000e-01
   endloop
 endfacet
 facet normal  0.000000e+00  0.000000e+00  1.000000e+00
   outer loop
     vertex  5.390625e-01  3.125000e-02  7.500000e-01
     vertex  4.280428e-01 -1.315789e-02  7.500000e-01
     vertex  5.285687e-01 -9.958214e-02  7.500000e-01
   endloop
 endfacet
 facet normal  0.000000e+00  0.000000e+00  1.000000e+00
   outer loop
     vertex  4.835526e-01  8.083882e-01  7.500000e-01
     vertex  7.031250e-02  5.000000e-01  7.500000e-01
     vertex  1.666066e-01  3.843881e-01  7.500000e-01
   endloop
 endfacet
 facet normal  0.000000e+00  0.000000e+00  1.000000e+00
   outer loop
     vertex  4.835526e-01  8.083882e-01  7.500000e-01
     vertex -4.934211e-01  8.083882e-01  7.500000e-01
     vertex -7.812500e-02  5.000000e-01  7.500000e-01
   endloop
 endfacet
 facet normal  0.000000e+00  0.000000e+00  1.000000e+00
   outer loop
     vertex  4.835526e-01  8.083882e-01  7.500000e-01
     vertex  3.267653e-01  2.651306e-01  7.500000e-01
     vertex  3.819974e-01  1.811434e-01  7.500000e-01
   endloop
 endfacet
 facet normal  0.000000e+00  0.000000e+00  1.000000e+00
   outer loop
     vertex  4.835526e-01  8.083882e-01  7.500000e-01
     vertex  2.536549e-01  3.341183e-01  7.500000e-01
     vertex  3.267653e-01  2.651306e-01  7.500000e-01
   endloop
 endfacet
 facet normal  0.000000e+00  0.000000e+00  1.000000e+00
   outer loop
     vertex  4.835526e-01  8.083882e-01  7.500000e-01
     vertex  1.666066e-01  3.843881e-01  7.500000e-01
     vertex  2.536549e-01  3.341183e-01  7.500000e-01
   endloop
 endfacet
 facet normal  0.000000e+00  0.000000e+00  1.000000e+00
   outer loop
     vertex  4.835526e-01  8.083882e-01  7.500000e-01
     vertex  3.819974e-01  1.811434e-01  7.500000e-01
     vertex  5.390625e-01  3.125000e-02  7.500000e-01
   endloop
 endfacet
 facet normal  0.000000e+00  0.000000e+00  1.000000e+00
   outer loop
     vertex  4.835526e-01  8.083882e-01  7.500000e-01
     vertex -7.812500e-02  5.000000e-01  7.500000e-01
     vertex  7.031250e-02  5.000000e-01  7.500000e-01
   endloop
 endfacet
 facet normal  0.000000e+00  1.000000e+00  0.000000e+00
   outer loop
     vertex -4.934211e-01  8.083882e-01  0.000000e+00
     vertex  4.835526e-01  8.083882e-01  7.500000e-01
     vertex  4.835526e-01  8.083882e-01  0.000000e+00
   endloop
 endfacet
 facet normal  0.000000e+00  1.000000e+00  0.000000e+00
   outer loop
     vertex -4.934211e-01  8.083882e-01  0.000000e+00
     vertex -4.934211e-01  8.083882e-01  7.500000e-01
     vertex  4.835526e-01  8.083882e-01  7.500000e-01
   endloop
 endfacet
 facet normal -2.869290e-01 -9.579519e-01  7.650758e-15
   outer loop
     vertex  1.666066e-01  3.843881e-01  0.000000e+00
     vertex  7.031250e-02  4.132304e-01  7.500000e-01
     vertex  7.031250e-02  4.132304e-01  0.000000e+00
   endloop
 endfacet
 facet normal -2.869290e-01 -9.579519e-01 -2.600668e-15
   outer loop
     vertex  1.666066e-01  3.843881e-01  0.000000e+00
     vertex  1.666066e-01  3.843881e-01  7.500000e-01
     vertex  7.031250e-02  4.132304e-01  7.500000e-01
   endloop
 endfacet
 facet normal -5.000930e-01 -8.659717e-01 -2.041658e-15
   outer loop
     vertex  2.536549e-01  3.341183e-01  0.000000e+00
     vertex  2.536549e-01  3.341183e-01  7.500000e-01
     vertex  1.666066e-01  3.843881e-01  7.500000e-01
   endloop
 endfacet
 facet normal -5.000930e-01 -8.659717e-01  2.485058e-15
   outer loop
     vertex  2.536549e-01  3.341183e-01  0.000000e+00
     vertex  1.666066e-01  3.843881e-01  7.500000e-01
     vertex  1.666066e-01  3.843881e-01  0.000000e+00
   endloop
 endfacet
 facet normal -6.863024e-01 -7.273163e-01 -1.479575e-15
   outer loop
     vertex  3.267653e-01  2.651306e-01  0.000000e+00
     vertex  3.267653e-01  2.651306e-01  7.500000e-01
     vertex  2.536549e-01  3.341183e-01  7.500000e-01
   endloop
 endfacet
 facet normal -6.863024e-01 -7.273163e-01  2.013357e-15
   outer loop
     vertex  3.267653e-01  2.651306e-01  0.000000e+00
     vertex  2.536549e-01  3.341183e-01  7.500000e-01
     vertex  2.536549e-01  3.341183e-01  0.000000e+00
   endloop
 endfacet
 facet normal -8.355206e-01 -5.494591e-01 -9.510782e-16
   outer loop
     vertex  3.819974e-01  1.811434e-01  0.000000e+00
     vertex  3.819974e-01  1.811434e-01  7.500000e-01
     vertex  3.267653e-01  2.651306e-01  7.500000e-01
   endloop
 endfacet
 facet normal -8.355206e-01 -5.494591e-01  1.576171e-15
   outer loop
     vertex  3.819974e-01  1.811434e-01  0.000000e+00
     vertex  3.267653e-01  2.651306e-01  7.500000e-01
     vertex  3.267653e-01  2.651306e-01  0.000000e+00
   endloop
 endfacet
 facet normal -9.397049e-01 -3.419865e-01 -4.817151e-16
   outer loop
     vertex  4.163742e-01  8.668341e-02  0.000000e+00
     vertex  4.163742e-01  8.668341e-02  7.500000e-01
     vertex  3.819974e-01  1.811434e-01  7.500000e-01
   endloop
 endfacet
 facet normal -9.397049e-01 -3.419865e-01  1.087213e-15
   outer loop
     vertex  4.163742e-01  8.668341e-02  0.000000e+00
     vertex  3.819974e-01  1.811434e-01  7.500000e-01
     vertex  3.819974e-01  1.811434e-01  0.000000e+00
   endloop
 endfacet
 facet normal -9.932397e-01 -1.160811e-01  0.000000e+00
   outer loop
     vertex  4.280428e-01 -1.315789e-02  0.000000e+00
     vertex  4.280428e-01 -1.315789e-02  7.500000e-01
     vertex  4.163742e-01  8.668341e-02  7.500000e-01
   endloop
 endfacet
 facet normal -9.932397e-01 -1.160811e-01  5.349778e-16
   outer loop
     vertex  4.280428e-01 -1.315789e-02  0.000000e+00
     vertex  4.163742e-01  8.668341e-02  7.500000e-01
     vertex  4.163742e-01  8.668341e-02  0.000000e+00
   endloop
 endfacet
 facet normal -1.000000e+00 -2.304712e-13  2.666386e-14
   outer loop
     vertex  7.031250e-02  5.000000e-01  7.500000e-01
     vertex  7.031250e-02  4.132304e-01  0.000000e+00
     vertex  7.031250e-02  4.132304e-01  7.500000e-01
   endloop
 endfacet
 facet normal -1.000000e+00  0.000000e+00 -0.000000e+00
   outer loop
     vertex  7.031250e-02  5.000000e-01  7.500000e-01
     vertex  7.031250e-02  5.000000e-01  0.000000e+00
     vertex  7.031250e-02  4.132304e-01  0.000000e+00
   endloop
 endfacet
 facet normal  0.000000e+00 -1.000000e+00  0.000000e+00
   outer loop
     vertex -7.812500e-02  5.000000e-01  7.500000e-01
     vertex  7.031250e-02  5.000000e-01  0.000000e+00
     vertex  7.031250e-02  5.000000e-01  7.500000e-01
   endloop
 endfacet
 facet normal  0.000000e+00 -1.000000e+00  0.000000e+00
   outer loop
     vertex -7.812500e-02  5.000000e-01  7.500000e-01
     vertex -7.812500e-02  5.000000e-01  0.000000e+00
     vertex  7.031250e-02  5.000000e-01  0.000000e+00
   endloop
 endfacet
 facet normal  1.000000e+00 -0.000000e+00  0.000000e+00
   outer loop
     vertex -7.812500e-02  4.843750e-01  7.500000e-01
     vertex -7.812500e-02  5.000000e-01  0.000000e+00
     vertex -7.812500e-02  5.000000e-01  7.500000e-01
   endloop
 endfacet
 facet normal  1.000000e+00  0.000000e+00  0.000000e+00
   outer loop
     vertex -7.812500e-02  4.843750e-01  7.500000e-01
     vertex -7.812500e-02  4.843750e-01  0.000000e+00
     vertex -7.812500e-02  5.000000e-01  0.000000e+00
   endloop
 endfacet
 facet normal  1.000000e+00 -1.413523e-13  0.000000e+00
   outer loop
     vertex -7.812500e-02  4.135881e-01  7.500000e-01
     vertex -7.812500e-02  4.843750e-01  0.000000e+00
     vertex -7.812500e-02  4.843750e-01  7.500000e-01
   endloop
 endfacet
 facet normal  1.000000e+00  0.000000e+00  1.334118e-14
   outer loop
     vertex -7.812500e-02  4.135881e-01  7.500000e-01
     vertex -7.812500e-02  4.135881e-01  0.000000e+00
     vertex -7.812500e-02  4.843750e-01  0.000000e+00
   endloop
 endfacet
 facet normal -9.928636e-01  1.192558e-01  0.000000e+00
   outer loop
     vertex  4.280428e-01 -1.315789e-02  0.000000e+00
     vertex  4.157272e-01 -1.156910e-01  7.500000e-01
     vertex  4.280428e-01 -1.315789e-02  7.500000e-01
   endloop
 endfacet
 facet normal -9.363817e-01  3.509833e-01 -2.423350e-16
   outer loop
     vertex  4.157272e-01 -1.156910e-01  0.000000e+00
     vertex  3.794811e-01 -2.123912e-01  7.500000e-01
     vertex  4.157272e-01 -1.156910e-01  7.500000e-01
   endloop
 endfacet
 facet normal -9.928636e-01  1.192558e-01  1.174126e-16
   outer loop
     vertex  4.157272e-01 -1.156910e-01  0.000000e+00
     vertex  4.157272e-01 -1.156910e-01  7.500000e-01
     vertex  4.280428e-01 -1.315789e-02  0.000000e+00
   endloop
 endfacet
 facet normal -8.266312e-01  5.627441e-01 -2.250810e-16
   outer loop
     vertex  3.794811e-01 -2.123912e-01  0.000000e+00
     vertex  3.213665e-01 -2.977574e-01  7.500000e-01
     vertex  3.794811e-01 -2.123912e-01  7.500000e-01
   endloop
 endfacet
 facet normal -9.363817e-01  3.509833e-01  2.645197e-16
   outer loop
     vertex  3.794811e-01 -2.123912e-01  0.000000e+00
     vertex  3.794811e-01 -2.123912e-01  7.500000e-01
     vertex  4.157272e-01 -1.156910e-01  0.000000e+00
   endloop
 endfacet
 facet normal -6.698554e-01  7.424916e-01 -2.885179e-16
   outer loop
     vertex  3.213665e-01 -2.977574e-01  0.000000e+00
     vertex  2.446894e-01 -3.669334e-01  7.500000e-01
     vertex  3.213665e-01 -2.977574e-01  7.500000e-01
   endloop
 endfacet
 facet normal -8.266312e-01  5.627441e-01  3.242718e-16
   outer loop
     vertex  3.213665e-01 -2.977574e-01  0.000000e+00
     vertex  3.213665e-01 -2.977574e-01  7.500000e-01
     vertex  3.794811e-01 -2.123912e-01  0.000000e+00
   endloop
 endfacet
 facet normal -4.749730e-01  8.800004e-01 -3.679225e-16
   outer loop
     vertex  2.446894e-01 -3.669334e-01  0.000000e+00
     vertex  1.538117e-01 -4.159839e-01  7.500000e-01
     vertex  2.446894e-01 -3.669334e-01  7.500000e-01
   endloop
 endfacet
 facet normal -6.698554e-01  7.424916e-01  3.667648e-16
   outer loop
     vertex  2.446894e-01 -3.669334e-01  0.000000e+00
     vertex  2.446894e-01 -3.669334e-01  7.500000e-01
     vertex  3.213665e-01 -2.977574e-01  0.000000e+00
   endloop
 endfacet
 facet normal -2.530704e-01  9.674479e-01 -3.744001e-16
   outer loop
     vertex  1.538117e-01 -4.159839e-01  0.000000e+00
     vertex  5.390330e-02 -4.421185e-01  7.500000e-01
     vertex  1.538117e-01 -4.159839e-01  7.500000e-01
   endloop
 endfacet
 facet normal -4.749730e-01  8.800004e-01  4.747150e-16
   outer loop
     vertex  1.538117e-01 -4.159839e-01  0.000000e+00
     vertex  1.538117e-01 -4.159839e-01  7.500000e-01
     vertex  2.446894e-01 -3.669334e-01  0.000000e+00
   endloop
 endfacet
 facet normal -1.677124e-02  9.998594e-01 -4.500689e-16
   outer loop
     vertex  5.390330e-02 -4.421185e-01  0.000000e+00
     vertex -4.935224e-02 -4.438505e-01  7.500000e-01
     vertex  5.390330e-02 -4.421185e-01  7.500000e-01
   endloop
 endfacet
 facet normal -2.530704e-01  9.674479e-01  5.242822e-16
   outer loop
     vertex  5.390330e-02 -4.421185e-01  0.000000e+00
     vertex  5.390330e-02 -4.421185e-01  7.500000e-01
     vertex  1.538117e-01 -4.159839e-01  0.000000e+00
   endloop
 endfacet
 facet normal  2.204820e-01  9.753910e-01 -5.064207e-16
   outer loop
     vertex -4.935224e-02 -4.438505e-01  0.000000e+00
     vertex -1.500809e-01 -4.210813e-01  7.500000e-01
     vertex -4.935224e-02 -4.438505e-01  7.500000e-01
   endloop
 endfacet
 facet normal -1.677124e-02  9.998594e-01  5.949931e-16
   outer loop
     vertex -4.935224e-02 -4.438505e-01  0.000000e+00
     vertex -4.935224e-02 -4.438505e-01  7.500000e-01
     vertex  5.390330e-02 -4.421185e-01  0.000000e+00
   endloop
 endfacet
 facet normal  4.451926e-01  8.954349e-01 -6.339455e-16
   outer loop
     vertex -1.500809e-01 -4.210813e-01  0.000000e+00
     vertex -2.425525e-01 -3.751062e-01  7.500000e-01
     vertex -1.500809e-01 -4.210813e-01  7.500000e-01
   endloop
 endfacet
 facet normal  2.204820e-01  9.753910e-01  5.915580e-16
   outer loop
     vertex -1.500809e-01 -4.210813e-01  0.000000e+00
     vertex -1.500809e-01 -4.210813e-01  7.500000e-01
     vertex -4.935224e-02 -4.438505e-01  0.000000e+00
   endloop
 endfacet
 facet normal  6.445771e-01  7.645394e-01 -6.289563e-16
   outer loop
     vertex -2.425525e-01 -3.751062e-01  0.000000e+00
     vertex -3.215066e-01 -3.085407e-01  7.500000e-01
     vertex -2.425525e-01 -3.751062e-01  7.500000e-01
   endloop
 endfacet
 facet normal  4.451926e-01  8.954349e-01  7.076660e-16
   outer loop
     vertex -2.425525e-01 -3.751062e-01  0.000000e+00
     vertex -2.425525e-01 -3.751062e-01  7.500000e-01
     vertex -1.500809e-01 -4.210813e-01  0.000000e+00
   endloop
 endfacet
 facet normal  8.072930e-01  5.901509e-01 -7.298332e-16
   outer loop
     vertex -3.215066e-01 -3.085407e-01  0.000000e+00
     vertex -3.824515e-01 -2.251715e-01  7.500000e-01
     vertex -3.215066e-01 -3.085407e-01  7.500000e-01
   endloop
 endfacet
 facet normal  6.445771e-01  7.645394e-01  8.067970e-16
   outer loop
     vertex -3.215066e-01 -3.085407e-01  0.000000e+00
     vertex -3.215066e-01 -3.085407e-01  7.500000e-01
     vertex -2.425525e-01 -3.751062e-01  0.000000e+00
   endloop
 endfacet
 facet normal  9.240838e-01  3.821900e-01 -8.926908e-16
   outer loop
     vertex -3.824515e-01 -2.251715e-01  0.000000e+00
     vertex -4.219203e-01 -1.297413e-01  7.500000e-01
     vertex -3.824515e-01 -2.251715e-01  7.500000e-01
   endloop
 endfacet
 facet normal  8.072930e-01  5.901509e-01  8.228740e-16
   outer loop
     vertex -3.824515e-01 -2.251715e-01  0.000000e+00
     vertex -3.824515e-01 -2.251715e-01  7.500000e-01
     vertex -3.215066e-01 -3.085407e-01  0.000000e+00
   endloop
 endfacet
 facet normal  9.883054e-01  1.524872e-01 -9.588389e-16
   outer loop
     vertex -4.219203e-01 -1.297413e-01  0.000000e+00
     vertex -4.376676e-01 -2.767898e-02  7.500000e-01
     vertex -4.219203e-01 -1.297413e-01  7.500000e-01
   endloop
 endfacet
 facet normal  9.240838e-01  3.821900e-01  9.301553e-16
   outer loop
     vertex -4.219203e-01 -1.297413e-01  0.000000e+00
     vertex -4.219203e-01 -1.297413e-01  7.500000e-01
     vertex -3.824515e-01 -2.251715e-01  0.000000e+00
   endloop
 endfacet
 facet normal  9.963046e-01 -8.589032e-02 -9.693824e-16
   outer loop
     vertex -4.376676e-01 -2.767898e-02  0.000000e+00
     vertex -4.287977e-01  7.520946e-02  7.500000e-01
     vertex -4.376676e-01 -2.767898e-02  7.500000e-01
   endloop
 endfacet
 facet normal  9.883054e-01  1.524872e-01  1.108811e-15
   outer loop
     vertex -4.376676e-01 -2.767898e-02  0.000000e+00
     vertex -4.376676e-01 -2.767898e-02  7.500000e-01
     vertex -4.219203e-01 -1.297413e-01  0.000000e+00
   endloop
 endfacet
 facet normal  9.963046e-01 -8.589032e-02  1.119452e-15
   outer loop
     vertex -4.287977e-01  7.520946e-02  0.000000e+00
     vertex -4.287977e-01  7.520946e-02  7.500000e-01
     vertex -4.376676e-01 -2.767898e-02  0.000000e+00
   endloop
 endfacet
 facet normal  9.476262e-01 -3.193817e-01 -1.143095e-15
   outer loop
     vertex -4.287977e-01  7.520946e-02  0.000000e+00
     vertex -3.958151e-01  1.730709e-01  7.500000e-01
     vertex -4.287977e-01  7.520946e-02  7.500000e-01
   endloop
 endfacet
 facet normal  9.476262e-01 -3.193817e-01  1.171473e-15
   outer loop
     vertex -3.958151e-01  1.730709e-01  0.000000e+00
     vertex -3.958151e-01  1.730709e-01  7.500000e-01
     vertex -4.287977e-01  7.520946e-02  0.000000e+00
   endloop
 endfacet
 facet normal  8.450393e-01 -5.347041e-01 -1.276612e-15
   outer loop
     vertex -3.958151e-01  1.730709e-01  0.000000e+00
     vertex -3.405962e-01  2.603381e-01  7.500000e-01
     vertex -3.958151e-01  1.730709e-01  7.500000e-01
   endloop
 endfacet
 facet normal  6.943801e-01 -7.196084e-01 -1.398676e-15
   outer loop
     vertex -3.405962e-01  2.603381e-01  0.000000e+00
     vertex -2.662822e-01  3.320468e-01  7.500000e-01
     vertex -3.405962e-01  2.603381e-01  7.500000e-01
   endloop
 endfacet
 facet normal  8.450393e-01 -5.347041e-01  1.225907e-15
   outer loop
     vertex -3.405962e-01  2.603381e-01  0.000000e+00
     vertex -3.405962e-01  2.603381e-01  7.500000e-01
     vertex -3.958151e-01  1.730709e-01  0.000000e+00
   endloop
 endfacet
 facet normal  5.042191e-01 -8.635758e-01 -1.396472e-15
   outer loop
     vertex -2.662822e-01  3.320468e-01  0.000000e+00
     vertex -1.771007e-01  3.841175e-01  7.500000e-01
     vertex -2.662822e-01  3.320468e-01  7.500000e-01
   endloop
 endfacet
 facet normal  6.943801e-01 -7.196084e-01  1.413970e-15
   outer loop
     vertex -2.662822e-01  3.320468e-01  0.000000e+00
     vertex -2.662822e-01  3.320468e-01  7.500000e-01
     vertex -3.405962e-01  2.603381e-01  0.000000e+00
   endloop
 endfacet
 facet normal  2.853741e-01 -9.584162e-01 -1.468323e-15
   outer loop
     vertex -1.771007e-01  3.841175e-01  0.000000e+00
     vertex -7.812500e-02  4.135881e-01  7.500000e-01
     vertex -1.771007e-01  3.841175e-01  7.500000e-01
   endloop
 endfacet
 facet normal  5.042191e-01 -8.635758e-01  1.520745e-15
   outer loop
     vertex -1.771007e-01  3.841175e-01  0.000000e+00
     vertex -1.771007e-01  3.841175e-01  7.500000e-01
     vertex -2.662822e-01  3.320468e-01  0.000000e+00
   endloop
 endfacet
 facet normal  2.853741e-01 -9.584162e-01  3.807227e-15
   outer loop
     vertex -7.812500e-02  4.135881e-01  0.000000e+00
     vertex -7.812500e-02  4.135881e-01  7.500000e-01
     vertex -1.771007e-01  3.841175e-01  0.000000e+00
   endloop
 endfacet
endsolid
