solid 
 facet normal -0.000000e+00  0.000000e+00 -1.000000e+00
   outer loop
     vertex  5.197368e-02 -2.968750e-01  2.968750e-01
     vertex -6.250000e-02 -4.140625e-01  2.968750e-01
     vertex -6.250000e-02 -2.968750e-01  2.968750e-01
   endloop
 endfacet
 facet normal  0.000000e+00 -0.000000e+00 -1.000000e+00
   outer loop
     vertex  5.197368e-02 -2.968750e-01  2.968750e-01
     vertex  5.197368e-02 -4.140625e-01  2.968750e-01
     vertex -6.250000e-02 -4.140625e-01  2.968750e-01
   endloop
 endfacet
 facet normal -1.000000e+00  0.000000e+00  0.000000e+00
   outer loop
     vertex -6.250000e-02 -2.968750e-01  2.968750e-01
     vertex -6.250000e-02 -4.140625e-01  7.500000e-01
     vertex -6.250000e-02 -2.968750e-01  7.500000e-01
   endloop
 endfacet
 facet normal -1.000000e+00  0.000000e+00  0.000000e+00
   outer loop
     vertex -6.250000e-02 -2.968750e-01  2.968750e-01
     vertex -6.250000e-02 -4.140625e-01  2.968750e-01
     vertex -6.250000e-02 -4.140625e-01  7.500000e-01
   endloop
 endfacet
 facet normal  1.000000e+00  0.000000e+00  0.000000e+00
   outer loop
     vertex  5.197368e-02 -4.062500e-01  3.125000e-01
     vertex  5.197368e-02 -4.140625e-01  2.968750e-01
     vertex  5.197368e-02 -4.062500e-01  3.046875e-01
   endloop
 endfacet
 facet normal  1.000000e+00  0.000000e+00  0.000000e+00
   outer loop
     vertex  5.197368e-02 -2.968750e-01  2.968750e-01
     vertex  5.197368e-02 -4.062500e-01  3.046875e-01
     vertex  5.197368e-02 -4.140625e-01  2.968750e-01
   endloop
 endfacet
 facet normal  1.000000e+00  0.000000e+00  0.000000e+00
   outer loop
     vertex  5.197368e-02 -2.968750e-01  3.046875e-01
     vertex  5.197368e-02 -4.062500e-01  3.046875e-01
     vertex  5.197368e-02 -2.968750e-01  2.968750e-01
   endloop
 endfacet
 facet normal  1.000000e+00  0.000000e+00  0.000000e+00
   outer loop
     vertex  5.197368e-02 -4.140625e-01  7.500000e-01
     vertex  5.197368e-02 -4.140625e-01  2.968750e-01
     vertex  5.197368e-02 -4.062500e-01  3.125000e-01
   endloop
 endfacet
 facet normal  1.000000e+00  0.000000e+00  0.000000e+00
   outer loop
     vertex  5.197368e-02 -2.968750e-01  7.500000e-01
     vertex  5.197368e-02 -4.062500e-01  3.125000e-01
     vertex  5.197368e-02 -2.968750e-01  3.125000e-01
   endloop
 endfacet
 facet normal  1.000000e+00  0.000000e+00  0.000000e+00
   outer loop
     vertex  5.197368e-02 -2.968750e-01  7.500000e-01
     vertex  5.197368e-02 -4.140625e-01  7.500000e-01
     vertex  5.197368e-02 -4.062500e-01  3.125000e-01
   endloop
 endfacet
 facet normal  0.000000e+00  1.000000e+00  0.000000e+00
   outer loop
     vertex  0.000000e+00 -2.968750e-01  3.125000e-01
     vertex  0.000000e+00 -2.968750e-01  3.046875e-01
     vertex -6.250000e-02 -2.968750e-01  2.968750e-01
   endloop
 endfacet
 facet normal  0.000000e+00  1.000000e+00  0.000000e+00
   outer loop
     vertex  5.197368e-02 -2.968750e-01  2.968750e-01
     vertex -6.250000e-02 -2.968750e-01  2.968750e-01
     vertex  0.000000e+00 -2.968750e-01  3.046875e-01
   endloop
 endfacet
 facet normal  0.000000e+00  1.000000e+00  0.000000e+00
   outer loop
     vertex  5.197368e-02 -2.968750e-01  3.046875e-01
     vertex  5.197368e-02 -2.968750e-01  2.968750e-01
     vertex  0.000000e+00 -2.968750e-01  3.046875e-01
   endloop
 endfacet
 facet normal  0.000000e+00  1.000000e+00  0.000000e+00
   outer loop
     vertex -6.250000e-02 -2.968750e-01  7.500000e-01
     vertex  0.000000e+00 -2.968750e-01  3.125000e-01
     vertex -6.250000e-02 -2.968750e-01  2.968750e-01
   endloop
 endfacet
 facet normal  0.000000e+00  1.000000e+00  0.000000e+00
   outer loop
     vertex  5.197368e-02 -2.968750e-01  7.500000e-01
     vertex  5.197368e-02 -2.968750e-01  3.125000e-01
     vertex  0.000000e+00 -2.968750e-01  3.125000e-01
   endloop
 endfacet
 facet normal  0.000000e+00  1.000000e+00  0.000000e+00
   outer loop
     vertex  5.197368e-02 -2.968750e-01  7.500000e-01
     vertex  0.000000e+00 -2.968750e-01  3.125000e-01
     vertex -6.250000e-02 -2.968750e-01  7.500000e-01
   endloop
 endfacet
 facet normal  0.000000e+00 -1.000000e+00 -0.000000e+00
   outer loop
     vertex  5.197368e-02 -4.140625e-01  7.500000e-01
     vertex -6.250000e-02 -4.140625e-01  2.968750e-01
     vertex  5.197368e-02 -4.140625e-01  2.968750e-01
   endloop
 endfacet
 facet normal -0.000000e+00 -1.000000e+00  0.000000e+00
   outer loop
     vertex  5.197368e-02 -4.140625e-01  7.500000e-01
     vertex -6.250000e-02 -4.140625e-01  7.500000e-01
     vertex -6.250000e-02 -4.140625e-01  2.968750e-01
   endloop
 endfacet
 facet normal -0.000000e+00  0.000000e+00  1.000000e+00
   outer loop
     vertex -6.250000e-02 -2.968750e-01  7.500000e-01
     vertex  5.197368e-02 -4.140625e-01  7.500000e-01
     vertex  5.197368e-02 -2.968750e-01  7.500000e-01
   endloop
 endfacet
 facet normal  0.000000e+00  0.000000e+00  1.000000e+00
   outer loop
     vertex -6.250000e-02 -2.968750e-01  7.500000e-01
     vertex -6.250000e-02 -4.140625e-01  7.500000e-01
     vertex  5.197368e-02 -4.140625e-01  7.500000e-01
   endloop
 endfacet
 facet normal  0.000000e+00  0.000000e+00 -1.000000e+00
   outer loop
     vertex  0.000000e+00 -1.437500e-01  3.046875e-01
     vertex  5.197368e-02 -2.968750e-01  3.046875e-01
     vertex  0.000000e+00 -2.968750e-01  3.046875e-01
   endloop
 endfacet
 facet normal  0.000000e+00  0.000000e+00 -1.000000e+00
   outer loop
     vertex  2.734375e-01 -4.062500e-01  3.046875e-01
     vertex  5.197368e-02 -4.062500e-01  3.046875e-01
     vertex  5.197368e-02 -2.968750e-01  3.046875e-01
   endloop
 endfacet
 facet normal  0.000000e+00 -0.000000e+00 -1.000000e+00
   outer loop
     vertex  2.734375e-01 -1.437500e-01  3.046875e-01
     vertex  2.734375e-01 -4.062500e-01  3.046875e-01
     vertex  5.197368e-02 -2.968750e-01  3.046875e-01
   endloop
 endfacet
 facet normal -0.000000e+00  0.000000e+00 -1.000000e+00
   outer loop
     vertex  2.734375e-01 -1.437500e-01  3.046875e-01
     vertex  5.197368e-02 -2.968750e-01  3.046875e-01
     vertex  0.000000e+00 -1.437500e-01  3.046875e-01
   endloop
 endfacet
 facet normal  0.000000e+00 -1.000000e+00  0.000000e+00
   outer loop
     vertex  2.734375e-01 -4.062500e-01  3.046875e-01
     vertex  5.197368e-02 -4.062500e-01  3.125000e-01
     vertex  5.197368e-02 -4.062500e-01  3.046875e-01
   endloop
 endfacet
 facet normal  0.000000e+00 -1.000000e+00  0.000000e+00
   outer loop
     vertex  2.734375e-01 -4.062500e-01  3.046875e-01
     vertex  2.734375e-01 -4.062500e-01  3.125000e-01
     vertex  5.197368e-02 -4.062500e-01  3.125000e-01
   endloop
 endfacet
 facet normal  0.000000e+00  0.000000e+00  1.000000e+00
   outer loop
     vertex  0.000000e+00 -1.437500e-01  3.125000e-01
     vertex  0.000000e+00 -2.968750e-01  3.125000e-01
     vertex  5.197368e-02 -2.968750e-01  3.125000e-01
   endloop
 endfacet
 facet normal  0.000000e+00  0.000000e+00  1.000000e+00
   outer loop
     vertex  2.734375e-01 -4.062500e-01  3.125000e-01
     vertex  5.197368e-02 -2.968750e-01  3.125000e-01
     vertex  5.197368e-02 -4.062500e-01  3.125000e-01
   endloop
 endfacet
 facet normal  0.000000e+00  0.000000e+00  1.000000e+00
   outer loop
     vertex  2.734375e-01 -1.437500e-01  3.125000e-01
     vertex  5.197368e-02 -2.968750e-01  3.125000e-01
     vertex  2.734375e-01 -4.062500e-01  3.125000e-01
   endloop
 endfacet
 facet normal  0.000000e+00  0.000000e+00  1.000000e+00
   outer loop
     vertex  2.734375e-01 -1.437500e-01  3.125000e-01
     vertex  0.000000e+00 -1.437500e-01  3.125000e-01
     vertex  5.197368e-02 -2.968750e-01  3.125000e-01
   endloop
 endfacet
 facet normal -1.000000e+00  0.000000e+00  0.000000e+00
   outer loop
     vertex  0.000000e+00 -2.968750e-01  3.046875e-01
     vertex  0.000000e+00 -1.437500e-01  3.125000e-01
     vertex  0.000000e+00 -1.437500e-01  3.046875e-01
   endloop
 endfacet
 facet normal -1.000000e+00  0.000000e+00  0.000000e+00
   outer loop
     vertex  0.000000e+00 -2.968750e-01  3.046875e-01
     vertex  0.000000e+00 -2.968750e-01  3.125000e-01
     vertex  0.000000e+00 -1.437500e-01  3.125000e-01
   endloop
 endfacet
 facet normal  0.000000e+00  1.000000e+00  0.000000e+00
   outer loop
     vertex  0.000000e+00 -1.437500e-01  3.046875e-01
     vertex  2.734375e-01 -1.437500e-01  3.125000e-01
     vertex  2.734375e-01 -1.437500e-01  3.046875e-01
   endloop
 endfacet
 facet normal  0.000000e+00  1.000000e+00  0.000000e+00
   outer loop
     vertex  0.000000e+00 -1.437500e-01  3.046875e-01
     vertex  0.000000e+00 -1.437500e-01  3.125000e-01
     vertex  2.734375e-01 -1.437500e-01  3.125000e-01
   endloop
 endfacet
 facet normal -0.000000e+00  0.000000e+00 -1.000000e+00
   outer loop
     vertex  5.303454e-01 -1.437500e-01  3.046875e-01
     vertex  2.734375e-01 -4.062500e-01  3.046875e-01
     vertex  2.734375e-01 -1.437500e-01  3.046875e-01
   endloop
 endfacet
 facet normal  0.000000e+00 -0.000000e+00 -1.000000e+00
   outer loop
     vertex  5.303454e-01 -1.437500e-01  3.046875e-01
     vertex  5.303454e-01 -4.062500e-01  3.046875e-01
     vertex  2.734375e-01 -4.062500e-01  3.046875e-01
   endloop
 endfacet
 facet normal  0.000000e+00 -1.000000e+00  0.000000e+00
   outer loop
     vertex  5.303454e-01 -4.062500e-01  3.046875e-01
     vertex  2.734375e-01 -4.062500e-01  3.125000e-01
     vertex  2.734375e-01 -4.062500e-01  3.046875e-01
   endloop
 endfacet
 facet normal  0.000000e+00 -1.000000e+00  0.000000e+00
   outer loop
     vertex  5.303454e-01 -4.062500e-01  3.046875e-01
     vertex  5.303454e-01 -4.062500e-01  3.125000e-01
     vertex  2.734375e-01 -4.062500e-01  3.125000e-01
   endloop
 endfacet
 facet normal  0.000000e+00  0.000000e+00  1.000000e+00
   outer loop
     vertex  5.303454e-01 -1.437500e-01  3.125000e-01
     vertex  2.734375e-01 -1.437500e-01  3.125000e-01
     vertex  2.734375e-01 -4.062500e-01  3.125000e-01
   endloop
 endfacet
 facet normal  0.000000e+00  0.000000e+00  1.000000e+00
   outer loop
     vertex  5.303454e-01 -1.437500e-01  3.125000e-01
     vertex  2.734375e-01 -4.062500e-01  3.125000e-01
     vertex  5.303454e-01 -4.062500e-01  3.125000e-01
   endloop
 endfacet
 facet normal -1.000000e+00  0.000000e+00  0.000000e+00
   outer loop
     vertex  2.734375e-01 -1.437500e-01  3.046875e-01
     vertex  2.734375e-01 -6.250000e-02  3.125000e-01
     vertex  2.734375e-01 -6.250000e-02  3.046875e-01
   endloop
 endfacet
 facet normal -1.000000e+00  0.000000e+00  0.000000e+00
   outer loop
     vertex  2.734375e-01 -1.437500e-01  3.046875e-01
     vertex  2.734375e-01 -1.437500e-01  3.125000e-01
     vertex  2.734375e-01 -6.250000e-02  3.125000e-01
   endloop
 endfacet
 facet normal -0.000000e+00  0.000000e+00 -1.000000e+00
   outer loop
     vertex  5.303454e-01 -6.250000e-02  3.046875e-01
     vertex  2.734375e-01 -1.437500e-01  3.046875e-01
     vertex  2.734375e-01 -6.250000e-02  3.046875e-01
   endloop
 endfacet
 facet normal  0.000000e+00 -0.000000e+00 -1.000000e+00
   outer loop
     vertex  5.303454e-01 -6.250000e-02  3.046875e-01
     vertex  5.303454e-01 -1.437500e-01  3.046875e-01
     vertex  2.734375e-01 -1.437500e-01  3.046875e-01
   endloop
 endfacet
 facet normal -0.000000e+00  0.000000e+00 -1.000000e+00
   outer loop
     vertex  6.562500e-01 -1.437500e-01  3.046875e-01
     vertex  5.303454e-01 -4.062500e-01  3.046875e-01
     vertex  5.303454e-01 -1.437500e-01  3.046875e-01
   endloop
 endfacet
 facet normal  0.000000e+00 -0.000000e+00 -1.000000e+00
   outer loop
     vertex  6.562500e-01 -1.437500e-01  3.046875e-01
     vertex  6.562500e-01 -4.062500e-01  3.046875e-01
     vertex  5.303454e-01 -4.062500e-01  3.046875e-01
   endloop
 endfacet
 facet normal  0.000000e+00 -1.000000e+00  0.000000e+00
   outer loop
     vertex  6.562500e-01 -4.062500e-01  3.046875e-01
     vertex  5.303454e-01 -4.062500e-01  3.125000e-01
     vertex  5.303454e-01 -4.062500e-01  3.046875e-01
   endloop
 endfacet
 facet normal  0.000000e+00 -1.000000e+00  0.000000e+00
   outer loop
     vertex  6.562500e-01 -4.062500e-01  3.046875e-01
     vertex  6.562500e-01 -4.062500e-01  3.125000e-01
     vertex  5.303454e-01 -4.062500e-01  3.125000e-01
   endloop
 endfacet
 facet normal  0.000000e+00  0.000000e+00  1.000000e+00
   outer loop
     vertex  5.303454e-01 -6.250000e-02  3.125000e-01
     vertex  2.734375e-01 -6.250000e-02  3.125000e-01
     vertex  2.734375e-01 -1.437500e-01  3.125000e-01
   endloop
 endfacet
 facet normal  0.000000e+00  0.000000e+00  1.000000e+00
   outer loop
     vertex  5.303454e-01 -6.250000e-02  3.125000e-01
     vertex  2.734375e-01 -1.437500e-01  3.125000e-01
     vertex  5.303454e-01 -1.437500e-01  3.125000e-01
   endloop
 endfacet
 facet normal  0.000000e+00  0.000000e+00  1.000000e+00
   outer loop
     vertex  6.562500e-01 -1.437500e-01  3.125000e-01
     vertex  5.303454e-01 -1.437500e-01  3.125000e-01
     vertex  5.303454e-01 -4.062500e-01  3.125000e-01
   endloop
 endfacet
 facet normal  0.000000e+00  0.000000e+00  1.000000e+00
   outer loop
     vertex  6.562500e-01 -1.437500e-01  3.125000e-01
     vertex  5.303454e-01 -4.062500e-01  3.125000e-01
     vertex  6.562500e-01 -4.062500e-01  3.125000e-01
   endloop
 endfacet
 facet normal  0.000000e+00  1.000000e+00  0.000000e+00
   outer loop
     vertex  2.734375e-01 -6.250000e-02  3.046875e-01
     vertex  5.303454e-01 -6.250000e-02  3.125000e-01
     vertex  5.303454e-01 -6.250000e-02  3.046875e-01
   endloop
 endfacet
 facet normal  0.000000e+00  1.000000e+00  0.000000e+00
   outer loop
     vertex  2.734375e-01 -6.250000e-02  3.046875e-01
     vertex  2.734375e-01 -6.250000e-02  3.125000e-01
     vertex  5.303454e-01 -6.250000e-02  3.125000e-01
   endloop
 endfacet
 facet normal  1.000000e+00  0.000000e+00  0.000000e+00
   outer loop
     vertex  5.303454e-01 -6.250000e-02  3.046875e-01
     vertex  5.303454e-01 -1.437500e-01  3.125000e-01
     vertex  5.303454e-01 -1.437500e-01  3.046875e-01
   endloop
 endfacet
 facet normal  1.000000e+00  0.000000e+00 -0.000000e+00
   outer loop
     vertex  5.303454e-01 -6.250000e-02  3.046875e-01
     vertex  5.303454e-01 -6.250000e-02  3.125000e-01
     vertex  5.303454e-01 -1.437500e-01  3.125000e-01
   endloop
 endfacet
 facet normal  0.000000e+00  1.000000e+00  0.000000e+00
   outer loop
     vertex  5.303454e-01 -1.437500e-01  3.046875e-01
     vertex  6.562500e-01 -1.437500e-01  3.125000e-01
     vertex  6.562500e-01 -1.437500e-01  3.046875e-01
   endloop
 endfacet
 facet normal  0.000000e+00  1.000000e+00  0.000000e+00
   outer loop
     vertex  5.303454e-01 -1.437500e-01  3.046875e-01
     vertex  5.303454e-01 -1.437500e-01  3.125000e-01
     vertex  6.562500e-01 -1.437500e-01  3.125000e-01
   endloop
 endfacet
 facet normal  1.000000e+00  0.000000e+00  0.000000e+00
   outer loop
     vertex  6.562500e-01 -1.437500e-01  3.046875e-01
     vertex  6.562500e-01 -4.062500e-01  3.125000e-01
     vertex  6.562500e-01 -4.062500e-01  3.046875e-01
   endloop
 endfacet
 facet normal  1.000000e+00  0.000000e+00 -0.000000e+00
   outer loop
     vertex  6.562500e-01 -1.437500e-01  3.046875e-01
     vertex  6.562500e-01 -1.437500e-01  3.125000e-01
     vertex  6.562500e-01 -4.062500e-01  3.125000e-01
   endloop
 endfacet
 facet normal -2.866787e-16 -1.000000e+00  3.061617e-17
   outer loop
     vertex  7.421875e-01  0.000000e+00  1.484375e-01
     vertex  6.562500e-01  2.726753e-17  2.343750e-01
     vertex  6.562500e-01  2.463645e-17  1.484375e-01
   endloop
 endfacet
 facet normal -3.172949e-16 -1.000000e+00  0.000000e+00
   outer loop
     vertex  7.421875e-01  0.000000e+00  1.484375e-01
     vertex  7.421875e-01  0.000000e+00  2.343750e-01
     vertex  6.562500e-01  2.726753e-17  2.343750e-01
   endloop
 endfacet
 facet normal -0.000000e+00  0.000000e+00 -1.000000e+00
   outer loop
     vertex  6.562500e-01  2.463645e-17  1.484375e-01
     vertex  2.734375e-01  0.000000e+00  1.484375e-01
     vertex  2.734375e-01  1.875000e-01  1.484375e-01
   endloop
 endfacet
 facet normal  0.000000e+00 -0.000000e+00 -1.000000e+00
   outer loop
     vertex  7.421875e-01  1.875000e-01  1.484375e-01
     vertex  7.421875e-01  0.000000e+00  1.484375e-01
     vertex  6.562500e-01  2.463645e-17  1.484375e-01
   endloop
 endfacet
 facet normal -0.000000e+00  0.000000e+00 -1.000000e+00
   outer loop
     vertex  7.421875e-01  1.875000e-01  1.484375e-01
     vertex  6.562500e-01  2.463645e-17  1.484375e-01
     vertex  2.734375e-01  1.875000e-01  1.484375e-01
   endloop
 endfacet
 facet normal  1.000000e+00  0.000000e+00  0.000000e+00
   outer loop
     vertex  7.421875e-01  1.875000e-01  1.484375e-01
     vertex  7.421875e-01  0.000000e+00  2.343750e-01
     vertex  7.421875e-01  0.000000e+00  1.484375e-01
   endloop
 endfacet
 facet normal  1.000000e+00  0.000000e+00 -0.000000e+00
   outer loop
     vertex  7.421875e-01  1.875000e-01  1.484375e-01
     vertex  7.421875e-01  1.875000e-01  2.343750e-01
     vertex  7.421875e-01  0.000000e+00  2.343750e-01
   endloop
 endfacet
 facet normal  0.000000e+00  0.000000e+00  1.000000e+00
   outer loop
     vertex  6.562500e-01  2.726753e-17  2.343750e-01
     vertex  2.734375e-01  1.875000e-01  2.343750e-01
     vertex  2.734375e-01  0.000000e+00  2.343750e-01
   endloop
 endfacet
 facet normal  0.000000e+00  0.000000e+00  1.000000e+00
   outer loop
     vertex  7.421875e-01  1.875000e-01  2.343750e-01
     vertex  6.562500e-01  2.726753e-17  2.343750e-01
     vertex  7.421875e-01  0.000000e+00  2.343750e-01
   endloop
 endfacet
 facet normal  0.000000e+00  0.000000e+00  1.000000e+00
   outer loop
     vertex  7.421875e-01  1.875000e-01  2.343750e-01
     vertex  2.734375e-01  1.875000e-01  2.343750e-01
     vertex  6.562500e-01  2.726753e-17  2.343750e-01
   endloop
 endfacet
 facet normal  1.000000e+00  0.000000e+00  0.000000e+00
   outer loop
     vertex  6.562500e-01  2.463645e-17  1.484375e-01
     vertex  6.562500e-01 -4.062500e-01 -1.530808e-17
     vertex  6.562500e-01  4.018372e-17 -4.018372e-17
   endloop
 endfacet
 facet normal  1.000000e+00  0.000000e+00  0.000000e+00
   outer loop
     vertex  6.562500e-01  2.463645e-17  1.484375e-01
     vertex  6.562500e-01 -4.062500e-01  2.625000e-01
     vertex  6.562500e-01 -4.062500e-01 -1.530808e-17
   endloop
 endfacet
 facet normal  1.000000e+00  0.000000e+00  0.000000e+00
   outer loop
     vertex  6.562500e-01  2.726753e-17  2.343750e-01
     vertex  6.562500e-01 -4.062500e-01  2.625000e-01
     vertex  6.562500e-01  2.463645e-17  1.484375e-01
   endloop
 endfacet
 facet normal  1.000000e+00  0.000000e+00  0.000000e+00
   outer loop
     vertex  6.562500e-01  5.625721e-17  2.625000e-01
     vertex  6.562500e-01 -4.062500e-01  2.625000e-01
     vertex  6.562500e-01  2.726753e-17  2.343750e-01
   endloop
 endfacet
 facet normal  3.324041e-17  1.000000e+00 -6.123234e-17
   outer loop
     vertex  2.734375e-01  0.000000e+00  1.484375e-01
     vertex  0.000000e+00  0.000000e+00  0.000000e+00
     vertex  1.607349e-17  1.607349e-17  2.625000e-01
   endloop
 endfacet
 facet normal  5.878305e-17  1.000000e+00  0.000000e+00
   outer loop
     vertex  2.734375e-01  0.000000e+00  2.343750e-01
     vertex  2.734375e-01  0.000000e+00  1.484375e-01
     vertex  1.607349e-17  1.607349e-17  2.625000e-01
   endloop
 endfacet
 facet normal -6.123234e-17  1.000000e+00  1.127964e-16
   outer loop
     vertex  6.562500e-01  4.018372e-17 -4.018372e-17
     vertex  0.000000e+00  0.000000e+00  0.000000e+00
     vertex  2.734375e-01  0.000000e+00  1.484375e-01
   endloop
 endfacet
 facet normal -6.435644e-17  1.000000e+00  1.047395e-16
   outer loop
     vertex  6.562500e-01  2.463645e-17  1.484375e-01
     vertex  6.562500e-01  4.018372e-17 -4.018372e-17
     vertex  2.734375e-01  0.000000e+00  1.484375e-01
   endloop
 endfacet
 facet normal -7.122946e-17  1.000000e+00 -1.030744e-15
   outer loop
     vertex  6.562500e-01  5.625721e-17  2.625000e-01
     vertex  6.562500e-01  2.726753e-17  2.343750e-01
     vertex  2.734375e-01  0.000000e+00  2.343750e-01
   endloop
 endfacet
 facet normal -6.123234e-17  1.000000e+00 -1.166816e-15
   outer loop
     vertex  6.562500e-01  5.625721e-17  2.625000e-01
     vertex  2.734375e-01  0.000000e+00  2.343750e-01
     vertex  1.607349e-17  1.607349e-17  2.625000e-01
   endloop
 endfacet
 facet normal  0.000000e+00  1.000000e+00  0.000000e+00
   outer loop
     vertex  2.734375e-01  1.875000e-01  1.484375e-01
     vertex  7.421875e-01  1.875000e-01  2.343750e-01
     vertex  7.421875e-01  1.875000e-01  1.484375e-01
   endloop
 endfacet
 facet normal  0.000000e+00  1.000000e+00  0.000000e+00
   outer loop
     vertex  2.734375e-01  1.875000e-01  1.484375e-01
     vertex  2.734375e-01  1.875000e-01  2.343750e-01
     vertex  7.421875e-01  1.875000e-01  2.343750e-01
   endloop
 endfacet
 facet normal -1.000000e+00  0.000000e+00  0.000000e+00
   outer loop
     vertex  2.734375e-01  0.000000e+00  1.484375e-01
     vertex  2.734375e-01  1.875000e-01  2.343750e-01
     vertex  2.734375e-01  1.875000e-01  1.484375e-01
   endloop
 endfacet
 facet normal -1.000000e+00  0.000000e+00  0.000000e+00
   outer loop
     vertex  2.734375e-01  0.000000e+00  1.484375e-01
     vertex  2.734375e-01  0.000000e+00  2.343750e-01
     vertex  2.734375e-01  1.875000e-01  2.343750e-01
   endloop
 endfacet
 facet normal -6.123234e-17 -6.123234e-17 -1.000000e+00
   outer loop
     vertex  6.562500e-01  4.018372e-17 -4.018372e-17
     vertex  2.487564e-17 -4.062500e-01  2.487564e-17
     vertex  0.000000e+00  0.000000e+00  0.000000e+00
   endloop
 endfacet
 facet normal -6.123234e-17 -6.123234e-17 -1.000000e+00
   outer loop
     vertex  6.562500e-01  4.018372e-17 -4.018372e-17
     vertex  6.562500e-01 -4.062500e-01 -1.530808e-17
     vertex  2.487564e-17 -4.062500e-01  2.487564e-17
   endloop
 endfacet
 facet normal -0.000000e+00  0.000000e+00  1.000000e+00
   outer loop
     vertex  1.607349e-17  1.607349e-17  2.625000e-01
     vertex  6.562500e-01 -4.062500e-01  2.625000e-01
     vertex  6.562500e-01  5.625721e-17  2.625000e-01
   endloop
 endfacet
 facet normal  0.000000e+00  0.000000e+00  1.000000e+00
   outer loop
     vertex  1.607349e-17  1.607349e-17  2.625000e-01
     vertex  4.094913e-17 -4.062500e-01  2.625000e-01
     vertex  6.562500e-01 -4.062500e-01  2.625000e-01
   endloop
 endfacet
 facet normal  0.000000e+00 -1.000000e+00 -0.000000e+00
   outer loop
     vertex  6.562500e-01 -4.062500e-01  2.625000e-01
     vertex  2.487564e-17 -4.062500e-01  2.487564e-17
     vertex  6.562500e-01 -4.062500e-01 -1.530808e-17
   endloop
 endfacet
 facet normal -0.000000e+00 -1.000000e+00  0.000000e+00
   outer loop
     vertex  6.562500e-01 -4.062500e-01  2.625000e-01
     vertex  4.094913e-17 -4.062500e-01  2.625000e-01
     vertex  2.487564e-17 -4.062500e-01  2.487564e-17
   endloop
 endfacet
 facet normal -1.000000e+00 -6.123234e-17  6.123234e-17
   outer loop
     vertex  0.000000e+00  0.000000e+00  0.000000e+00
     vertex  4.094913e-17 -4.062500e-01  2.625000e-01
     vertex  1.607349e-17  1.607349e-17  2.625000e-01
   endloop
 endfacet
 facet normal -1.000000e+00 -6.123234e-17  6.123234e-17
   outer loop
     vertex  0.000000e+00  0.000000e+00  0.000000e+00
     vertex  2.487564e-17 -4.062500e-01  2.487564e-17
     vertex  4.094913e-17 -4.062500e-01  2.625000e-01
   endloop
 endfacet
endsolid
