solid 
 facet normal  0.000000e+00  0.000000e+00 -1.000000e+00
   outer loop
     vertex -1.891447e-03 -1.875000e-01 -5.000000e-01
     vertex -7.812500e-03 -1.875000e-01 -5.000000e-01
     vertex -7.812500e-03  0.000000e+00 -5.000000e-01
   endloop
 endfacet
 facet normal  0.000000e+00  0.000000e+00 -1.000000e+00
   outer loop
     vertex -1.891447e-03 -1.875000e-01 -5.000000e-01
     vertex -7.812500e-03  0.000000e+00 -5.000000e-01
     vertex -1.891447e-03  0.000000e+00 -5.000000e-01
   endloop
 endfacet
 facet normal -1.000000e+00  0.000000e+00  0.000000e+00
   outer loop
     vertex -7.812500e-03 -1.875000e-01 -2.197368e-01
     vertex -7.812500e-03 -1.875000e-01 -2.775558e-17
     vertex -7.812500e-03  3.505875e-17 -4.353962e-17
   endloop
 endfacet
 facet normal -1.000000e+00  0.000000e+00  0.000000e+00
   outer loop
     vertex -7.812500e-03  0.000000e+00 -5.000000e-01
     vertex -7.812500e-03 -1.875000e-01 -2.197368e-01
     vertex -7.812500e-03  3.505875e-17 -4.353962e-17
   endloop
 endfacet
 facet normal -1.000000e+00  0.000000e+00  0.000000e+00
   outer loop
     vertex -7.812500e-03 -1.875000e-01 -5.000000e-01
     vertex -7.812500e-03 -1.875000e-01 -2.197368e-01
     vertex -7.812500e-03  0.000000e+00 -5.000000e-01
   endloop
 endfacet
 facet normal  1.000000e+00  0.000000e+00  0.000000e+00
   outer loop
     vertex -1.891447e-03 -1.875000e-01 -2.197368e-01
     vertex -1.891447e-03 -1.875000e-01 -5.000000e-01
     vertex -1.891447e-03  0.000000e+00 -5.000000e-01
   endloop
 endfacet
 facet normal  1.000000e+00  0.000000e+00  0.000000e+00
   outer loop
     vertex -1.891447e-03  3.524003e-17 -5.065979e-17
     vertex -1.891447e-03 -1.875000e-01 -2.197368e-01
     vertex -1.891447e-03  0.000000e+00 -5.000000e-01
   endloop
 endfacet
 facet normal  1.000000e+00  0.000000e+00  0.000000e+00
   outer loop
     vertex -1.891447e-03 -1.875000e-01  0.000000e+00
     vertex -1.891447e-03 -1.875000e-01 -2.197368e-01
     vertex -1.891447e-03  3.524003e-17 -5.065979e-17
   endloop
 endfacet
 facet normal  0.000000e+00  1.000000e+00  0.000000e+00
   outer loop
     vertex -1.891447e-03 -1.875000e-01 -5.000000e-01
     vertex  4.879830e-03 -1.875000e-01 -5.473684e-01
     vertex -7.812500e-03 -1.875000e-01 -5.000000e-01
   endloop
 endfacet
 facet normal  0.000000e+00  1.000000e+00  0.000000e+00
   outer loop
     vertex  4.956605e-02 -1.875000e-01 -5.446862e-01
     vertex  3.955592e-02 -1.875000e-01 -5.820445e-01
     vertex  4.879830e-03 -1.875000e-01 -5.473684e-01
   endloop
 endfacet
 facet normal  0.000000e+00  1.000000e+00  0.000000e+00
   outer loop
     vertex  2.644865e-02 -1.875000e-01 -5.100101e-01
     vertex  4.879830e-03 -1.875000e-01 -5.473684e-01
     vertex -1.891447e-03 -1.875000e-01 -5.000000e-01
   endloop
 endfacet
 facet normal  0.000000e+00  1.000000e+00  0.000000e+00
   outer loop
     vertex  2.644865e-02 -1.875000e-01 -5.100101e-01
     vertex  4.956605e-02 -1.875000e-01 -5.446862e-01
     vertex  4.879830e-03 -1.875000e-01 -5.473684e-01
   endloop
 endfacet
 facet normal  0.000000e+00  1.000000e+00  0.000000e+00
   outer loop
     vertex  8.692434e-02 -1.875000e-01 -5.631579e-01
     vertex  8.692434e-02 -1.875000e-01 -5.947368e-01
     vertex  3.955592e-02 -1.875000e-01 -5.820445e-01
   endloop
 endfacet
 facet normal  0.000000e+00  1.000000e+00  0.000000e+00
   outer loop
     vertex  8.692434e-02 -1.875000e-01 -5.631579e-01
     vertex  3.955592e-02 -1.875000e-01 -5.820445e-01
     vertex  4.956605e-02 -1.875000e-01 -5.446862e-01
   endloop
 endfacet
 facet normal  0.000000e+00  1.000000e+00  0.000000e+00
   outer loop
     vertex  2.376645e-02 -1.875000e-01 -4.684211e-01
     vertex  2.644865e-02 -1.875000e-01 -5.100101e-01
     vertex -1.891447e-03 -1.875000e-01 -5.000000e-01
   endloop
 endfacet
 facet normal  0.000000e+00  1.000000e+00  0.000000e+00
   outer loop
     vertex  3.671875e-01 -1.875000e-01 -5.631579e-01
     vertex  3.671875e-01 -1.875000e-01 -5.947368e-01
     vertex  8.692434e-02 -1.875000e-01 -5.947368e-01
   endloop
 endfacet
 facet normal  0.000000e+00  1.000000e+00  0.000000e+00
   outer loop
     vertex  3.671875e-01 -1.875000e-01 -5.631579e-01
     vertex  8.692434e-02 -1.875000e-01 -5.947368e-01
     vertex  8.692434e-02 -1.875000e-01 -5.631579e-01
   endloop
 endfacet
 facet normal  0.000000e+00  1.000000e+00  0.000000e+00
   outer loop
     vertex  2.376645e-02 -1.875000e-01 -2.197368e-01
     vertex  2.376645e-02 -1.875000e-01 -4.684211e-01
     vertex -1.891447e-03 -1.875000e-01 -2.197368e-01
   endloop
 endfacet
 facet normal  0.000000e+00  1.000000e+00  0.000000e+00
   outer loop
     vertex -1.891447e-03 -1.875000e-01 -2.197368e-01
     vertex  2.376645e-02 -1.875000e-01 -4.684211e-01
     vertex -1.891447e-03 -1.875000e-01 -5.000000e-01
   endloop
 endfacet
 facet normal -3.061617e-17  1.000000e+00 -7.011750e-17
   outer loop
     vertex -1.891447e-03  3.524003e-17 -5.065979e-17
     vertex -7.812500e-03  0.000000e+00 -5.000000e-01
     vertex -7.812500e-03  3.505875e-17 -4.353962e-17
   endloop
 endfacet
 facet normal  0.000000e+00  1.000000e+00 -7.048006e-17
   outer loop
     vertex -1.891447e-03  3.524003e-17 -5.065979e-17
     vertex -1.891447e-03  0.000000e+00 -5.000000e-01
     vertex -7.812500e-03  0.000000e+00 -5.000000e-01
   endloop
 endfacet
 facet normal  0.000000e+00 -1.000000e+00  0.000000e+00
   outer loop
     vertex -1.891447e-03 -1.875000e-01  0.000000e+00
     vertex -7.812500e-03 -1.875000e-01 -2.775558e-17
     vertex -7.812500e-03 -1.875000e-01 -2.197368e-01
   endloop
 endfacet
 facet normal  0.000000e+00 -1.000000e+00 -0.000000e+00
   outer loop
     vertex -1.891447e-03 -1.875000e-01  0.000000e+00
     vertex -7.812500e-03 -1.875000e-01 -2.197368e-01
     vertex -1.891447e-03 -1.875000e-01 -2.197368e-01
   endloop
 endfacet
 facet normal -1.000000e+00  0.000000e+00  0.000000e+00
   outer loop
     vertex -7.812500e-03 -1.875000e-01 -5.000000e-01
     vertex -7.812500e-03 -3.750000e-01 -2.197368e-01
     vertex -7.812500e-03 -1.875000e-01 -2.197368e-01
   endloop
 endfacet
 facet normal -1.000000e+00  0.000000e+00  0.000000e+00
   outer loop
     vertex -7.812500e-03 -1.875000e-01 -5.000000e-01
     vertex -7.812500e-03 -3.750000e-01 -5.000000e-01
     vertex -7.812500e-03 -3.750000e-01 -2.197368e-01
   endloop
 endfacet
 facet normal -5.286621e-17 -6.123234e-17 -1.000000e+00
   outer loop
     vertex -7.812500e-03 -1.875000e-01 -2.775558e-17
     vertex -7.500000e-01 -3.750000e-01  2.296213e-17
     vertex -7.500000e-01  0.000000e+00  0.000000e+00
   endloop
 endfacet
 facet normal -6.123234e-17 -2.811640e-17 -1.000000e+00
   outer loop
     vertex -7.812500e-03 -1.875000e-01 -2.775558e-17
     vertex  6.250000e-02 -3.750000e-01 -2.678915e-17
     vertex -7.500000e-01 -3.750000e-01  2.296213e-17
   endloop
 endfacet
 facet normal  4.687608e-15  1.752699e-15 -1.000000e+00
   outer loop
     vertex -1.891447e-03 -1.875000e-01  0.000000e+00
     vertex  6.250000e-02 -3.750000e-01 -2.678915e-17
     vertex -7.812500e-03 -1.875000e-01 -2.775558e-17
   endloop
 endfacet
 facet normal -5.866391e-17 -8.418157e-17 -1.000000e+00
   outer loop
     vertex -7.812500e-03  3.505875e-17 -4.353962e-17
     vertex -7.812500e-03 -1.875000e-01 -2.775558e-17
     vertex -7.500000e-01  0.000000e+00  0.000000e+00
   endloop
 endfacet
 facet normal  1.410930e-17 -2.701856e-16 -1.000000e+00
   outer loop
     vertex  6.250000e-02  4.975128e-17 -4.975128e-17
     vertex -1.891447e-03 -1.875000e-01  0.000000e+00
     vertex -1.891447e-03  3.524003e-17 -5.065979e-17
   endloop
 endfacet
 facet normal -5.943369e-16 -6.123234e-17 -1.000000e+00
   outer loop
     vertex  6.250000e-02  4.975128e-17 -4.975128e-17
     vertex  6.250000e-02 -3.750000e-01 -2.678915e-17
     vertex -1.891447e-03 -1.875000e-01  0.000000e+00
   endloop
 endfacet
 facet normal -0.000000e+00  0.000000e+00  1.000000e+00
   outer loop
     vertex -1.891447e-03 -1.875000e-01 -2.197368e-01
     vertex  2.376645e-02 -3.750000e-01 -2.197368e-01
     vertex  2.376645e-02 -1.875000e-01 -2.197368e-01
   endloop
 endfacet
 facet normal  0.000000e+00  0.000000e+00  1.000000e+00
   outer loop
     vertex -1.891447e-03 -1.875000e-01 -2.197368e-01
     vertex -7.812500e-03 -3.750000e-01 -2.197368e-01
     vertex  2.376645e-02 -3.750000e-01 -2.197368e-01
   endloop
 endfacet
 facet normal -0.000000e+00  0.000000e+00  1.000000e+00
   outer loop
     vertex -7.812500e-03 -1.875000e-01 -2.197368e-01
     vertex -7.812500e-03 -3.750000e-01 -2.197368e-01
     vertex -1.891447e-03 -1.875000e-01 -2.197368e-01
   endloop
 endfacet
 facet normal  1.000000e+00  0.000000e+00  0.000000e+00
   outer loop
     vertex  2.376645e-02 -1.875000e-01 -2.197368e-01
     vertex  2.376645e-02 -3.750000e-01 -4.684211e-01
     vertex  2.376645e-02 -1.875000e-01 -4.684211e-01
   endloop
 endfacet
 facet normal  1.000000e+00  0.000000e+00  0.000000e+00
   outer loop
     vertex  2.376645e-02 -1.875000e-01 -2.197368e-01
     vertex  2.376645e-02 -3.750000e-01 -2.197368e-01
     vertex  2.376645e-02 -3.750000e-01 -4.684211e-01
   endloop
 endfacet
 facet normal  4.432266e-01  0.000000e+00  8.964096e-01
   outer loop
     vertex  4.956605e-02 -1.875000e-01 -5.446862e-01
     vertex  8.692434e-02 -3.750000e-01 -5.631579e-01
     vertex  8.692434e-02 -1.875000e-01 -5.631579e-01
   endloop
 endfacet
 facet normal  4.432266e-01  0.000000e+00  8.964096e-01
   outer loop
     vertex  4.956605e-02 -1.875000e-01 -5.446862e-01
     vertex  4.956605e-02 -3.750000e-01 -5.446862e-01
     vertex  8.692434e-02 -3.750000e-01 -5.631579e-01
   endloop
 endfacet
 facet normal  8.320503e-01  0.000000e+00  5.547002e-01
   outer loop
     vertex  2.644865e-02 -1.875000e-01 -5.100101e-01
     vertex  2.644865e-02 -3.750000e-01 -5.100101e-01
     vertex  4.956605e-02 -3.750000e-01 -5.446862e-01
   endloop
 endfacet
 facet normal  8.320503e-01  0.000000e+00  5.547002e-01
   outer loop
     vertex  2.644865e-02 -1.875000e-01 -5.100101e-01
     vertex  4.956605e-02 -3.750000e-01 -5.446862e-01
     vertex  4.956605e-02 -1.875000e-01 -5.446862e-01
   endloop
 endfacet
 facet normal  9.979268e-01  0.000000e+00  6.435931e-02
   outer loop
     vertex  2.376645e-02 -1.875000e-01 -4.684211e-01
     vertex  2.376645e-02 -3.750000e-01 -4.684211e-01
     vertex  2.644865e-02 -3.750000e-01 -5.100101e-01
   endloop
 endfacet
 facet normal  9.979268e-01  0.000000e+00  6.435931e-02
   outer loop
     vertex  2.376645e-02 -1.875000e-01 -4.684211e-01
     vertex  2.644865e-02 -3.750000e-01 -5.100101e-01
     vertex  2.644865e-02 -1.875000e-01 -5.100101e-01
   endloop
 endfacet
 facet normal -0.000000e+00  0.000000e+00  1.000000e+00
   outer loop
     vertex  8.692434e-02 -1.875000e-01 -5.631579e-01
     vertex  3.671875e-01 -3.750000e-01 -5.631579e-01
     vertex  3.671875e-01 -1.875000e-01 -5.631579e-01
   endloop
 endfacet
 facet normal  0.000000e+00  0.000000e+00  1.000000e+00
   outer loop
     vertex  8.692434e-02 -1.875000e-01 -5.631579e-01
     vertex  8.692434e-02 -3.750000e-01 -5.631579e-01
     vertex  3.671875e-01 -3.750000e-01 -5.631579e-01
   endloop
 endfacet
 facet normal  1.000000e+00  0.000000e+00  0.000000e+00
   outer loop
     vertex  3.671875e-01 -1.875000e-01 -5.631579e-01
     vertex  3.671875e-01 -3.750000e-01 -5.947368e-01
     vertex  3.671875e-01 -1.875000e-01 -5.947368e-01
   endloop
 endfacet
 facet normal  1.000000e+00  0.000000e+00  0.000000e+00
   outer loop
     vertex  3.671875e-01 -1.875000e-01 -5.631579e-01
     vertex  3.671875e-01 -3.750000e-01 -5.631579e-01
     vertex  3.671875e-01 -3.750000e-01 -5.947368e-01
   endloop
 endfacet
 facet normal -0.000000e+00  0.000000e+00 -1.000000e+00
   outer loop
     vertex  3.671875e-01 -1.875000e-01 -5.947368e-01
     vertex  8.692434e-02 -3.750000e-01 -5.947368e-01
     vertex  8.692434e-02 -1.875000e-01 -5.947368e-01
   endloop
 endfacet
 facet normal  0.000000e+00 -0.000000e+00 -1.000000e+00
   outer loop
     vertex  3.671875e-01 -1.875000e-01 -5.947368e-01
     vertex  3.671875e-01 -3.750000e-01 -5.947368e-01
     vertex  8.692434e-02 -3.750000e-01 -5.947368e-01
   endloop
 endfacet
 facet normal -2.588190e-01  0.000000e+00 -9.659258e-01
   outer loop
     vertex  3.955592e-02 -1.875000e-01 -5.820445e-01
     vertex  8.692434e-02 -1.875000e-01 -5.947368e-01
     vertex  8.692434e-02 -3.750000e-01 -5.947368e-01
   endloop
 endfacet
 facet normal -2.588190e-01 -0.000000e+00 -9.659258e-01
   outer loop
     vertex  3.955592e-02 -1.875000e-01 -5.820445e-01
     vertex  8.692434e-02 -3.750000e-01 -5.947368e-01
     vertex  3.955592e-02 -3.750000e-01 -5.820445e-01
   endloop
 endfacet
 facet normal -7.071068e-01 -0.000000e+00 -7.071068e-01
   outer loop
     vertex  4.879830e-03 -1.875000e-01 -5.473684e-01
     vertex  3.955592e-02 -3.750000e-01 -5.820445e-01
     vertex  4.879830e-03 -3.750000e-01 -5.473684e-01
   endloop
 endfacet
 facet normal -7.071068e-01  0.000000e+00 -7.071068e-01
   outer loop
     vertex  4.879830e-03 -1.875000e-01 -5.473684e-01
     vertex  3.955592e-02 -1.875000e-01 -5.820445e-01
     vertex  3.955592e-02 -3.750000e-01 -5.820445e-01
   endloop
 endfacet
 facet normal -9.659258e-01 -0.000000e+00 -2.588190e-01
   outer loop
     vertex -7.812500e-03 -1.875000e-01 -5.000000e-01
     vertex  4.879830e-03 -3.750000e-01 -5.473684e-01
     vertex -7.812500e-03 -3.750000e-01 -5.000000e-01
   endloop
 endfacet
 facet normal -9.659258e-01  0.000000e+00 -2.588190e-01
   outer loop
     vertex -7.812500e-03 -1.875000e-01 -5.000000e-01
     vertex  4.879830e-03 -1.875000e-01 -5.473684e-01
     vertex  4.879830e-03 -3.750000e-01 -5.473684e-01
   endloop
 endfacet
 facet normal  0.000000e+00  1.000000e+00  1.168508e-16
   outer loop
     vertex -1.891447e-03  2.775558e-17  6.250000e-02
     vertex -7.812500e-03  3.505875e-17 -4.353962e-17
     vertex -7.812500e-03  2.775558e-17  6.250000e-02
   endloop
 endfacet
 facet normal -3.061617e-17  1.000000e+00  1.197513e-16
   outer loop
     vertex -1.891447e-03  2.775558e-17  6.250000e-02
     vertex -1.891447e-03  3.524003e-17 -5.065979e-17
     vertex -7.812500e-03  3.505875e-17 -4.353962e-17
   endloop
 endfacet
 facet normal  0.000000e+00 -1.000000e+00  0.000000e+00
   outer loop
     vertex  4.956605e-02 -3.750000e-01 -5.446862e-01
     vertex  4.879830e-03 -3.750000e-01 -5.473684e-01
     vertex  3.955592e-02 -3.750000e-01 -5.820445e-01
   endloop
 endfacet
 facet normal -0.000000e+00 -1.000000e+00  0.000000e+00
   outer loop
     vertex  2.644865e-02 -3.750000e-01 -5.100101e-01
     vertex -7.812500e-03 -3.750000e-01 -5.000000e-01
     vertex  4.879830e-03 -3.750000e-01 -5.473684e-01
   endloop
 endfacet
 facet normal  0.000000e+00 -1.000000e+00 -0.000000e+00
   outer loop
     vertex  2.644865e-02 -3.750000e-01 -5.100101e-01
     vertex  4.879830e-03 -3.750000e-01 -5.473684e-01
     vertex  4.956605e-02 -3.750000e-01 -5.446862e-01
   endloop
 endfacet
 facet normal  0.000000e+00 -1.000000e+00 -0.000000e+00
   outer loop
     vertex  8.692434e-02 -3.750000e-01 -5.631579e-01
     vertex  3.955592e-02 -3.750000e-01 -5.820445e-01
     vertex  8.692434e-02 -3.750000e-01 -5.947368e-01
   endloop
 endfacet
 facet normal -0.000000e+00 -1.000000e+00  0.000000e+00
   outer loop
     vertex  8.692434e-02 -3.750000e-01 -5.631579e-01
     vertex  4.956605e-02 -3.750000e-01 -5.446862e-01
     vertex  3.955592e-02 -3.750000e-01 -5.820445e-01
   endloop
 endfacet
 facet normal  0.000000e+00 -1.000000e+00 -0.000000e+00
   outer loop
     vertex  2.376645e-02 -3.750000e-01 -4.684211e-01
     vertex -7.812500e-03 -3.750000e-01 -5.000000e-01
     vertex  2.644865e-02 -3.750000e-01 -5.100101e-01
   endloop
 endfacet
 facet normal  0.000000e+00 -1.000000e+00  0.000000e+00
   outer loop
     vertex -7.812500e-03 -3.750000e-01 -2.197368e-01
     vertex -7.812500e-03 -3.750000e-01 -5.000000e-01
     vertex  2.376645e-02 -3.750000e-01 -4.684211e-01
   endloop
 endfacet
 facet normal  0.000000e+00 -1.000000e+00 -0.000000e+00
   outer loop
     vertex  3.671875e-01 -3.750000e-01 -5.631579e-01
     vertex  8.692434e-02 -3.750000e-01 -5.947368e-01
     vertex  3.671875e-01 -3.750000e-01 -5.947368e-01
   endloop
 endfacet
 facet normal -0.000000e+00 -1.000000e+00  0.000000e+00
   outer loop
     vertex  3.671875e-01 -3.750000e-01 -5.631579e-01
     vertex  8.692434e-02 -3.750000e-01 -5.631579e-01
     vertex  8.692434e-02 -3.750000e-01 -5.947368e-01
   endloop
 endfacet
 facet normal -0.000000e+00 -1.000000e+00 -0.000000e+00
   outer loop
     vertex  2.376645e-02 -3.750000e-01 -2.197368e-01
     vertex -7.812500e-03 -3.750000e-01 -2.197368e-01
     vertex  2.376645e-02 -3.750000e-01 -4.684211e-01
   endloop
 endfacet
 facet normal -3.224058e-17  1.000000e+00 -6.123234e-17
   outer loop
     vertex -7.812500e-03  2.775558e-17  6.250000e-02
     vertex -7.500000e-01  0.000000e+00  0.000000e+00
     vertex -7.500000e-01  8.379162e-18  1.368421e-01
   endloop
 endfacet
 facet normal -4.723705e-17  1.000000e+00  1.168508e-16
   outer loop
     vertex -7.812500e-03  2.775558e-17  6.250000e-02
     vertex -7.812500e-03  3.505875e-17 -4.353962e-17
     vertex -7.500000e-01  0.000000e+00  0.000000e+00
   endloop
 endfacet
 facet normal -2.253598e-16  1.000000e+00  1.197513e-16
   outer loop
     vertex  6.250000e-02  4.975128e-17 -4.975128e-17
     vertex -1.891447e-03  3.524003e-17 -5.065979e-17
     vertex -1.891447e-03  2.775558e-17  6.250000e-02
   endloop
 endfacet
 facet normal  0.000000e+00  1.000000e+00 -4.085822e-16
   outer loop
     vertex  6.250000e-02  5.813044e-17  1.368421e-01
     vertex -1.891447e-03  2.775558e-17  6.250000e-02
     vertex -7.812500e-03  2.775558e-17  6.250000e-02
   endloop
 endfacet
 facet normal -4.010272e-16  1.000000e+00 -6.123234e-17
   outer loop
     vertex  6.250000e-02  5.813044e-17  1.368421e-01
     vertex  6.250000e-02  4.975128e-17 -4.975128e-17
     vertex -1.891447e-03  2.775558e-17  6.250000e-02
   endloop
 endfacet
 facet normal -6.123234e-17  1.000000e+00 -3.506689e-16
   outer loop
     vertex  6.250000e-02  5.813044e-17  1.368421e-01
     vertex -7.812500e-03  2.775558e-17  6.250000e-02
     vertex -7.500000e-01  8.379162e-18  1.368421e-01
   endloop
 endfacet
 facet normal  1.000000e+00  0.000000e+00  0.000000e+00
   outer loop
     vertex  6.250000e-02  5.813044e-17  1.368421e-01
     vertex  6.250000e-02 -3.750000e-01 -2.678915e-17
     vertex  6.250000e-02  4.975128e-17 -4.975128e-17
   endloop
 endfacet
 facet normal  1.000000e+00  0.000000e+00  0.000000e+00
   outer loop
     vertex  6.250000e-02  5.813044e-17  1.368421e-01
     vertex  6.250000e-02 -3.750000e-01  1.368421e-01
     vertex  6.250000e-02 -3.750000e-01 -2.678915e-17
   endloop
 endfacet
 facet normal  0.000000e+00 -1.000000e+00 -0.000000e+00
   outer loop
     vertex  6.250000e-02 -3.750000e-01  1.368421e-01
     vertex -7.500000e-01 -3.750000e-01  2.296213e-17
     vertex  6.250000e-02 -3.750000e-01 -2.678915e-17
   endloop
 endfacet
 facet normal -0.000000e+00 -1.000000e+00  0.000000e+00
   outer loop
     vertex  6.250000e-02 -3.750000e-01  1.368421e-01
     vertex -7.500000e-01 -3.750000e-01  1.368421e-01
     vertex -7.500000e-01 -3.750000e-01  2.296213e-17
   endloop
 endfacet
 facet normal -1.000000e+00  0.000000e+00  0.000000e+00
   outer loop
     vertex -7.500000e-01  0.000000e+00  0.000000e+00
     vertex -7.500000e-01 -3.750000e-01  1.368421e-01
     vertex -7.500000e-01  8.379162e-18  1.368421e-01
   endloop
 endfacet
 facet normal -1.000000e+00  0.000000e+00  0.000000e+00
   outer loop
     vertex -7.500000e-01  0.000000e+00  0.000000e+00
     vertex -7.500000e-01 -3.750000e-01  2.296213e-17
     vertex -7.500000e-01 -3.750000e-01  1.368421e-01
   endloop
 endfacet
 facet normal -0.000000e+00  0.000000e+00  1.000000e+00
   outer loop
     vertex -7.500000e-01  8.379162e-18  1.368421e-01
     vertex  6.250000e-02 -3.750000e-01  1.368421e-01
     vertex  6.250000e-02  5.813044e-17  1.368421e-01
   endloop
 endfacet
 facet normal  0.000000e+00  0.000000e+00  1.000000e+00
   outer loop
     vertex -7.500000e-01  8.379162e-18  1.368421e-01
     vertex -7.500000e-01 -3.750000e-01  1.368421e-01
     vertex  6.250000e-02 -3.750000e-01  1.368421e-01
   endloop
 endfacet
endsolid
