solid 
 facet normal  0.000000e+00  0.000000e+00 -1.000000e+00
   outer loop
     vertex  3.437500e-01  1.411214e-17  1.093750e-01
     vertex -7.812500e-03 -4.843750e-01  1.093750e-01
     vertex -7.812500e-03  0.000000e+00  1.093750e-01
   endloop
 endfacet
 facet normal  0.000000e+00 -0.000000e+00 -1.000000e+00
   outer loop
     vertex  3.437500e-01  1.411214e-17  1.093750e-01
     vertex  3.437500e-01 -4.843750e-01  1.093750e-01
     vertex -7.812500e-03 -4.843750e-01  1.093750e-01
   endloop
 endfacet
 facet normal -4.014120e-17  1.000000e+00  4.037160e-15
   outer loop
     vertex  3.437500e-01  6.808069e-18  1.111842e-01
     vertex  3.437500e-01  1.411214e-17  1.093750e-01
     vertex -7.812500e-03  0.000000e+00  1.093750e-01
   endloop
 endfacet
 facet normal -1.905006e-17  1.000000e+00 -6.123234e-17
   outer loop
     vertex  3.437500e-01  1.440169e-17  2.351974e-01
     vertex -7.812500e-03  0.000000e+00  1.093750e-01
     vertex -7.812500e-03  9.265420e-18  2.606908e-01
   endloop
 endfacet
 facet normal -1.905006e-17  1.000000e+00 -6.123234e-17
   outer loop
     vertex  3.437500e-01  1.440169e-17  2.351974e-01
     vertex  3.437500e-01  6.808069e-18  1.111842e-01
     vertex -7.812500e-03  0.000000e+00  1.093750e-01
   endloop
 endfacet
 facet normal -1.010334e-15  1.000000e+00 -3.520860e-16
   outer loop
     vertex  3.515625e-01  3.127079e-17  2.606908e-01
     vertex  3.515625e-01  2.229492e-17  2.351974e-01
     vertex  3.437500e-01  1.440169e-17  2.351974e-01
   endloop
 endfacet
 facet normal -6.123234e-17  1.000000e+00 -6.429396e-16
   outer loop
     vertex  3.515625e-01  3.127079e-17  2.606908e-01
     vertex  3.437500e-01  1.440169e-17  2.351974e-01
     vertex -7.812500e-03  9.265420e-18  2.606908e-01
   endloop
 endfacet
 facet normal -1.000000e+00  0.000000e+00  0.000000e+00
   outer loop
     vertex  3.437500e-01  0.000000e+00  0.000000e+00
     vertex  3.437500e-01 -4.843750e-01  1.093750e-01
     vertex  3.437500e-01  1.411214e-17  1.093750e-01
   endloop
 endfacet
 facet normal -1.000000e+00  0.000000e+00  0.000000e+00
   outer loop
     vertex  3.437500e-01  0.000000e+00  0.000000e+00
     vertex  3.437500e-01 -4.843750e-01  2.965941e-17
     vertex  3.437500e-01 -4.843750e-01  1.093750e-01
   endloop
 endfacet
 facet normal  0.000000e+00 -1.000000e+00 -0.000000e+00
   outer loop
     vertex  3.437500e-01 -4.843750e-01  1.111842e-01
     vertex -7.812500e-03 -4.843750e-01  1.093750e-01
     vertex  3.437500e-01 -4.843750e-01  1.093750e-01
   endloop
 endfacet
 facet normal -0.000000e+00 -1.000000e+00  0.000000e+00
   outer loop
     vertex  3.437500e-01 -4.843750e-01  2.351974e-01
     vertex -7.812500e-03 -4.843750e-01  2.606908e-01
     vertex -7.812500e-03 -4.843750e-01  1.093750e-01
   endloop
 endfacet
 facet normal  0.000000e+00 -1.000000e+00 -0.000000e+00
   outer loop
     vertex  3.437500e-01 -4.843750e-01  2.351974e-01
     vertex -7.812500e-03 -4.843750e-01  1.093750e-01
     vertex  3.437500e-01 -4.843750e-01  1.111842e-01
   endloop
 endfacet
 facet normal  0.000000e+00 -1.000000e+00 -0.000000e+00
   outer loop
     vertex  3.515625e-01 -4.843750e-01  2.606908e-01
     vertex  3.437500e-01 -4.843750e-01  2.351974e-01
     vertex  3.515625e-01 -4.843750e-01  2.351974e-01
   endloop
 endfacet
 facet normal -0.000000e+00 -1.000000e+00  0.000000e+00
   outer loop
     vertex  3.515625e-01 -4.843750e-01  2.606908e-01
     vertex -7.812500e-03 -4.843750e-01  2.606908e-01
     vertex  3.437500e-01 -4.843750e-01  2.351974e-01
   endloop
 endfacet
 facet normal -1.000000e+00  0.000000e+00  0.000000e+00
   outer loop
     vertex -7.812500e-03  0.000000e+00  1.093750e-01
     vertex -7.812500e-03 -4.843750e-01  2.606908e-01
     vertex -7.812500e-03  9.265420e-18  2.606908e-01
   endloop
 endfacet
 facet normal -1.000000e+00  0.000000e+00  0.000000e+00
   outer loop
     vertex -7.812500e-03  0.000000e+00  1.093750e-01
     vertex -7.812500e-03 -4.843750e-01  1.093750e-01
     vertex -7.812500e-03 -4.843750e-01  2.606908e-01
   endloop
 endfacet
 facet normal -0.000000e+00  0.000000e+00  1.000000e+00
   outer loop
     vertex -7.812500e-03  9.265420e-18  2.606908e-01
     vertex  3.515625e-01 -4.843750e-01  2.606908e-01
     vertex  3.515625e-01  3.127079e-17  2.606908e-01
   endloop
 endfacet
 facet normal  0.000000e+00  0.000000e+00  1.000000e+00
   outer loop
     vertex -7.812500e-03  9.265420e-18  2.606908e-01
     vertex -7.812500e-03 -4.843750e-01  2.606908e-01
     vertex  3.515625e-01 -4.843750e-01  2.606908e-01
   endloop
 endfacet
 facet normal  1.000000e+00  0.000000e+00  0.000000e+00
   outer loop
     vertex  3.515625e-01  3.127079e-17  2.606908e-01
     vertex  3.515625e-01 -4.843750e-01  2.351974e-01
     vertex  3.515625e-01  2.229492e-17  2.351974e-01
   endloop
 endfacet
 facet normal  1.000000e+00  0.000000e+00  0.000000e+00
   outer loop
     vertex  3.515625e-01  3.127079e-17  2.606908e-01
     vertex  3.515625e-01 -4.843750e-01  2.606908e-01
     vertex  3.515625e-01 -4.843750e-01  2.351974e-01
   endloop
 endfacet
 facet normal -1.010334e-15  1.000000e+00  4.037160e-15
   outer loop
     vertex  3.515625e-01  2.200537e-17  1.093750e-01
     vertex  3.437500e-01  1.411214e-17  1.093750e-01
     vertex  3.437500e-01  6.808069e-18  1.111842e-01
   endloop
 endfacet
 facet normal -1.010334e-15  1.000000e+00 -6.123234e-17
   outer loop
     vertex  3.515625e-01  2.229492e-17  2.351974e-01
     vertex  3.437500e-01  6.808069e-18  1.111842e-01
     vertex  3.437500e-01  1.440169e-17  2.351974e-01
   endloop
 endfacet
 facet normal -1.945788e-15  1.000000e+00 -2.301215e-18
   outer loop
     vertex  3.515625e-01  2.229492e-17  2.351974e-01
     vertex  3.515625e-01  2.200537e-17  1.093750e-01
     vertex  3.437500e-01  6.808069e-18  1.111842e-01
   endloop
 endfacet
 facet normal -1.010334e-15  1.000000e+00 -1.290253e-16
   outer loop
     vertex  3.515625e-01  2.200537e-17  1.093750e-01
     vertex  3.437500e-01  0.000000e+00  0.000000e+00
     vertex  3.437500e-01  1.411214e-17  1.093750e-01
   endloop
 endfacet
 facet normal -6.123234e-17  1.000000e+00 -1.968182e-16
   outer loop
     vertex  7.500000e-01  2.487564e-17 -2.487564e-17
     vertex  3.437500e-01  0.000000e+00  0.000000e+00
     vertex  3.515625e-01  2.200537e-17  1.093750e-01
   endloop
 endfacet
 facet normal -4.262251e-17  1.000000e+00 -2.301215e-18
   outer loop
     vertex  7.500000e-01  3.927732e-17  2.351974e-01
     vertex  3.515625e-01  2.200537e-17  1.093750e-01
     vertex  3.515625e-01  2.229492e-17  2.351974e-01
   endloop
 endfacet
 facet normal -2.401268e-17  1.000000e+00 -6.123234e-17
   outer loop
     vertex  7.500000e-01  3.927732e-17  2.351974e-01
     vertex  7.500000e-01  2.487564e-17 -2.487564e-17
     vertex  3.515625e-01  2.200537e-17  1.093750e-01
   endloop
 endfacet
 facet normal -6.123234e-17 -6.123234e-17 -1.000000e+00
   outer loop
     vertex  7.500000e-01  2.487564e-17 -2.487564e-17
     vertex  3.437500e-01 -4.843750e-01  2.965941e-17
     vertex  3.437500e-01  0.000000e+00  0.000000e+00
   endloop
 endfacet
 facet normal -6.123234e-17 -6.123234e-17 -1.000000e+00
   outer loop
     vertex  7.500000e-01  2.487564e-17 -2.487564e-17
     vertex  7.500000e-01 -4.843750e-01  4.783777e-18
     vertex  3.437500e-01 -4.843750e-01  2.965941e-17
   endloop
 endfacet
 facet normal -0.000000e+00 -1.000000e+00  0.000000e+00
   outer loop
     vertex  3.515625e-01 -4.843750e-01  1.093750e-01
     vertex  3.437500e-01 -4.843750e-01  1.093750e-01
     vertex  3.437500e-01 -4.843750e-01  2.965941e-17
   endloop
 endfacet
 facet normal  0.000000e+00 -1.000000e+00  0.000000e+00
   outer loop
     vertex  7.500000e-01 -4.843750e-01  4.783777e-18
     vertex  3.515625e-01 -4.843750e-01  1.093750e-01
     vertex  3.437500e-01 -4.843750e-01  2.965941e-17
   endloop
 endfacet
 facet normal -0.000000e+00 -1.000000e+00  0.000000e+00
   outer loop
     vertex  7.500000e-01 -4.843750e-01  2.351974e-01
     vertex  3.515625e-01 -4.843750e-01  2.351974e-01
     vertex  3.515625e-01 -4.843750e-01  1.093750e-01
   endloop
 endfacet
 facet normal  0.000000e+00 -1.000000e+00 -0.000000e+00
   outer loop
     vertex  7.500000e-01 -4.843750e-01  2.351974e-01
     vertex  3.515625e-01 -4.843750e-01  1.093750e-01
     vertex  7.500000e-01 -4.843750e-01  4.783777e-18
   endloop
 endfacet
 facet normal  0.000000e+00 -1.000000e+00  0.000000e+00
   outer loop
     vertex  3.515625e-01 -4.843750e-01  1.093750e-01
     vertex  3.437500e-01 -4.843750e-01  1.111842e-01
     vertex  3.437500e-01 -4.843750e-01  1.093750e-01
   endloop
 endfacet
 facet normal -0.000000e+00 -1.000000e+00  0.000000e+00
   outer loop
     vertex  3.515625e-01 -4.843750e-01  2.351974e-01
     vertex  3.437500e-01 -4.843750e-01  2.351974e-01
     vertex  3.437500e-01 -4.843750e-01  1.111842e-01
   endloop
 endfacet
 facet normal  0.000000e+00 -1.000000e+00 -0.000000e+00
   outer loop
     vertex  3.515625e-01 -4.843750e-01  2.351974e-01
     vertex  3.437500e-01 -4.843750e-01  1.111842e-01
     vertex  3.515625e-01 -4.843750e-01  1.093750e-01
   endloop
 endfacet
 facet normal -0.000000e+00  0.000000e+00  1.000000e+00
   outer loop
     vertex  3.515625e-01  2.229492e-17  2.351974e-01
     vertex  7.500000e-01 -4.843750e-01  2.351974e-01
     vertex  7.500000e-01  3.927732e-17  2.351974e-01
   endloop
 endfacet
 facet normal  0.000000e+00  0.000000e+00  1.000000e+00
   outer loop
     vertex  3.515625e-01  2.229492e-17  2.351974e-01
     vertex  3.515625e-01 -4.843750e-01  2.351974e-01
     vertex  7.500000e-01 -4.843750e-01  2.351974e-01
   endloop
 endfacet
 facet normal  1.000000e+00  0.000000e+00  0.000000e+00
   outer loop
     vertex  7.500000e-01  3.927732e-17  2.351974e-01
     vertex  7.500000e-01 -4.843750e-01  4.783777e-18
     vertex  7.500000e-01  2.487564e-17 -2.487564e-17
   endloop
 endfacet
 facet normal  1.000000e+00  0.000000e+00  0.000000e+00
   outer loop
     vertex  7.500000e-01  3.927732e-17  2.351974e-01
     vertex  7.500000e-01 -4.843750e-01  2.351974e-01
     vertex  7.500000e-01 -4.843750e-01  4.783777e-18
   endloop
 endfacet
 facet normal -6.123234e-17 -6.123234e-17 -1.000000e+00
   outer loop
     vertex -1.562500e-02  2.439726e-17 -2.439726e-17
     vertex -4.140625e-01 -4.843750e-01  2.965941e-17
     vertex -4.140625e-01  0.000000e+00  0.000000e+00
   endloop
 endfacet
 facet normal -6.123234e-17 -6.123234e-17 -1.000000e+00
   outer loop
     vertex -1.562500e-02  2.439726e-17 -2.439726e-17
     vertex -1.562500e-02 -4.843750e-01  5.262154e-18
     vertex -4.140625e-01 -4.843750e-01  2.965941e-17
   endloop
 endfacet
 facet normal  1.000000e+00  0.000000e+00  0.000000e+00
   outer loop
     vertex -1.562500e-02  3.107441e-17  1.090461e-01
     vertex -1.562500e-02 -4.843750e-01  5.262154e-18
     vertex -1.562500e-02  2.439726e-17 -2.439726e-17
   endloop
 endfacet
 facet normal  1.000000e+00  0.000000e+00  0.000000e+00
   outer loop
     vertex -1.562500e-02  3.107441e-17  1.090461e-01
     vertex -1.562500e-02 -4.843750e-01  1.090461e-01
     vertex -1.562500e-02 -4.843750e-01  5.262154e-18
   endloop
 endfacet
 facet normal  1.000000e+00  0.000000e+00  0.000000e+00
   outer loop
     vertex -1.562500e-02  3.852199e-17  2.306743e-01
     vertex -1.562500e-02 -4.843750e-01  1.090461e-01
     vertex -1.562500e-02  3.107441e-17  1.090461e-01
   endloop
 endfacet
 facet normal  1.000000e+00  0.000000e+00  0.000000e+00
   outer loop
     vertex -1.562500e-02  3.852199e-17  2.306743e-01
     vertex -1.562500e-02 -4.843750e-01  2.306743e-01
     vertex -1.562500e-02 -4.843750e-01  1.090461e-01
   endloop
 endfacet
 facet normal -0.000000e+00  0.000000e+00  1.000000e+00
   outer loop
     vertex -4.140625e-01  1.412473e-17  2.306743e-01
     vertex -1.562500e-02 -4.843750e-01  2.306743e-01
     vertex -1.562500e-02  3.852199e-17  2.306743e-01
   endloop
 endfacet
 facet normal  0.000000e+00  0.000000e+00  1.000000e+00
   outer loop
     vertex -4.140625e-01  1.412473e-17  2.306743e-01
     vertex -4.140625e-01 -4.843750e-01  2.306743e-01
     vertex -1.562500e-02 -4.843750e-01  2.306743e-01
   endloop
 endfacet
 facet normal -1.000000e+00  0.000000e+00  0.000000e+00
   outer loop
     vertex -4.140625e-01  0.000000e+00  0.000000e+00
     vertex -4.140625e-01 -4.843750e-01  2.306743e-01
     vertex -4.140625e-01  1.412473e-17  2.306743e-01
   endloop
 endfacet
 facet normal -1.000000e+00  0.000000e+00  0.000000e+00
   outer loop
     vertex -4.140625e-01  0.000000e+00  0.000000e+00
     vertex -4.140625e-01 -4.843750e-01  2.965941e-17
     vertex -4.140625e-01 -4.843750e-01  2.306743e-01
   endloop
 endfacet
 facet normal -6.123234e-17  1.000000e+00 -6.123234e-17
   outer loop
     vertex -1.562500e-02  3.107441e-17  1.090461e-01
     vertex -1.562500e-02  2.439726e-17 -2.439726e-17
     vertex -4.140625e-01  0.000000e+00  0.000000e+00
   endloop
 endfacet
 facet normal -6.123234e-17  1.000000e+00 -6.123234e-17
   outer loop
     vertex -1.562500e-02  3.107441e-17  1.090461e-01
     vertex -4.140625e-01  0.000000e+00  0.000000e+00
     vertex -4.140625e-01  1.412473e-17  2.306743e-01
   endloop
 endfacet
 facet normal -6.123234e-17  1.000000e+00 -6.123234e-17
   outer loop
     vertex -1.562500e-02  3.852199e-17  2.306743e-01
     vertex -1.562500e-02  3.107441e-17  1.090461e-01
     vertex -4.140625e-01  1.412473e-17  2.306743e-01
   endloop
 endfacet
 facet normal  0.000000e+00 -1.000000e+00 -0.000000e+00
   outer loop
     vertex -1.562500e-02 -4.843750e-01  1.090461e-01
     vertex -4.140625e-01 -4.843750e-01  2.965941e-17
     vertex -1.562500e-02 -4.843750e-01  5.262154e-18
   endloop
 endfacet
 facet normal -0.000000e+00 -1.000000e+00  0.000000e+00
   outer loop
     vertex -1.562500e-02 -4.843750e-01  1.090461e-01
     vertex -4.140625e-01 -4.843750e-01  2.306743e-01
     vertex -4.140625e-01 -4.843750e-01  2.965941e-17
   endloop
 endfacet
 facet normal -0.000000e+00 -1.000000e+00 -0.000000e+00
   outer loop
     vertex -1.562500e-02 -4.843750e-01  2.306743e-01
     vertex -4.140625e-01 -4.843750e-01  2.306743e-01
     vertex -1.562500e-02 -4.843750e-01  1.090461e-01
   endloop
 endfacet
endsolid
