solid 
 facet normal  4.206799e-02  0.000000e+00 -9.991148e-01
   outer loop
     vertex  5.625000e-01  6.873498e-17  7.109375e-01
     vertex -5.546875e-01 -3.125000e-02  6.638980e-01
     vertex -5.546875e-01 -2.880337e-18  6.638980e-01
   endloop
 endfacet
 facet normal  4.206799e-02  0.000000e+00 -9.991148e-01
   outer loop
     vertex  5.625000e-01  6.873498e-17  7.109375e-01
     vertex  5.625000e-01 -3.125000e-02  7.109375e-01
     vertex -5.546875e-01 -3.125000e-02  6.638980e-01
   endloop
 endfacet
 facet normal -1.000000e+00  0.000000e+00  0.000000e+00
   outer loop
     vertex -5.546875e-01 -2.880337e-18  6.638980e-01
     vertex -5.546875e-01 -3.125000e-02  6.991776e-01
     vertex -5.546875e-01 -7.200843e-19  6.991776e-01
   endloop
 endfacet
 facet normal -1.000000e+00  0.000000e+00  0.000000e+00
   outer loop
     vertex -5.546875e-01 -2.880337e-18  6.638980e-01
     vertex -5.546875e-01 -3.125000e-02  6.638980e-01
     vertex -5.546875e-01 -3.125000e-02  6.991776e-01
   endloop
 endfacet
 facet normal  0.000000e+00  0.000000e+00  1.000000e+00
   outer loop
     vertex  5.625000e-01 -3.125000e-02  7.109375e-01
     vertex -2.753906e-01  1.722462e-17  7.109375e-01
     vertex -2.753906e-01 -3.125000e-02  7.109375e-01
   endloop
 endfacet
 facet normal  0.000000e+00 -0.000000e+00  1.000000e+00
   outer loop
     vertex  5.625000e-01 -3.125000e-02  7.109375e-01
     vertex  5.625000e-01  6.873498e-17  7.109375e-01
     vertex -2.753906e-01  1.722462e-17  7.109375e-01
   endloop
 endfacet
 facet normal -6.167136e-17  1.000000e+00 -6.123234e-17
   outer loop
     vertex -2.753906e-01  1.722462e-17  7.109375e-01
     vertex -5.546875e-01 -2.880337e-18  6.638980e-01
     vertex -5.546875e-01 -7.200843e-19  6.991776e-01
   endloop
 endfacet
 facet normal -6.147624e-17  1.000000e+00 -6.239086e-17
   outer loop
     vertex  5.625000e-01  6.873498e-17  7.109375e-01
     vertex -5.546875e-01 -2.880337e-18  6.638980e-01
     vertex -2.753906e-01  1.722462e-17  7.109375e-01
   endloop
 endfacet
 facet normal  0.000000e+00 -1.000000e+00  0.000000e+00
   outer loop
     vertex -2.753906e-01 -3.125000e-02  7.109375e-01
     vertex -5.546875e-01 -3.125000e-02  6.991776e-01
     vertex -5.546875e-01 -3.125000e-02  6.638980e-01
   endloop
 endfacet
 facet normal -0.000000e+00 -1.000000e+00  0.000000e+00
   outer loop
     vertex  5.625000e-01 -3.125000e-02  7.109375e-01
     vertex -2.753906e-01 -3.125000e-02  7.109375e-01
     vertex -5.546875e-01 -3.125000e-02  6.638980e-01
   endloop
 endfacet
 facet normal -4.206799e-02  0.000000e+00  9.991148e-01
   outer loop
     vertex -5.546875e-01 -7.200843e-19  6.991776e-01
     vertex -2.753906e-01 -3.125000e-02  7.109375e-01
     vertex -2.753906e-01  1.722462e-17  7.109375e-01
   endloop
 endfacet
 facet normal -4.206799e-02  0.000000e+00  9.991148e-01
   outer loop
     vertex -5.546875e-01 -7.200843e-19  6.991776e-01
     vertex -5.546875e-01 -3.125000e-02  6.991776e-01
     vertex -2.753906e-01 -3.125000e-02  7.109375e-01
   endloop
 endfacet
endsolid
