solid 
 facet normal -7.071068e-01  0.000000e+00  7.071068e-01
   outer loop
     vertex -2.393092e-02  4.140625e-01 -5.800959e-18
     vertex -2.467105e-04  4.140625e-01  2.368421e-02
     vertex -2.467105e-04  7.500000e-01  2.368421e-02
   endloop
 endfacet
 facet normal -7.071068e-01 -4.329780e-17  7.071068e-01
   outer loop
     vertex -2.393092e-02  4.140625e-01 -5.800959e-18
     vertex -2.467105e-04  7.500000e-01  2.368421e-02
     vertex -2.393092e-02  7.500000e-01  1.476928e-17
   endloop
 endfacet
 facet normal -7.071068e-01  4.381653e-17 -7.071068e-01
   outer loop
     vertex -2.467105e-04  4.140625e-01 -2.368421e-02
     vertex -2.393092e-02  7.500000e-01  1.476928e-17
     vertex -2.467105e-04  7.500000e-01 -2.368421e-02
   endloop
 endfacet
 facet normal -7.071068e-01  4.817790e-17 -7.071068e-01
   outer loop
     vertex -2.467105e-04  4.140625e-01 -2.368421e-02
     vertex -2.393092e-02  4.140625e-01 -5.800959e-18
     vertex -2.393092e-02  7.500000e-01  1.476928e-17
   endloop
 endfacet
 facet normal  7.071068e-01  4.329780e-17 -7.071068e-01
   outer loop
     vertex  2.343750e-02  4.140625e-01  4.916899e-31
     vertex -2.467105e-04  7.500000e-01 -2.368421e-02
     vertex  2.343750e-02  7.500000e-01  2.057024e-17
   endloop
 endfacet
 facet normal  7.071068e-01  3.854232e-17 -7.071068e-01
   outer loop
     vertex  2.343750e-02  4.140625e-01  4.916899e-31
     vertex -2.467105e-04  4.140625e-01 -2.368421e-02
     vertex -2.467105e-04  7.500000e-01 -2.368421e-02
   endloop
 endfacet
 facet normal  7.071068e-01 -0.000000e+00  7.071068e-01
   outer loop
     vertex -2.467105e-04  4.140625e-01  2.368421e-02
     vertex  2.343750e-02  7.500000e-01  2.057024e-17
     vertex -2.467105e-04  7.500000e-01  2.368421e-02
   endloop
 endfacet
 facet normal  7.071068e-01 -4.817790e-17  7.071068e-01
   outer loop
     vertex -2.467105e-04  4.140625e-01  2.368421e-02
     vertex  2.343750e-02  4.140625e-01  4.916899e-31
     vertex  2.343750e-02  7.500000e-01  2.057024e-17
   endloop
 endfacet
 facet normal  0.000000e+00 -1.000000e+00  0.000000e+00
   outer loop
     vertex -2.467105e-04  4.140625e-01  2.368421e-02
     vertex -2.467105e-04  4.140625e-01 -2.368421e-02
     vertex  2.343750e-02  4.140625e-01  4.916899e-31
   endloop
 endfacet
 facet normal  0.000000e+00 -1.000000e+00 -0.000000e+00
   outer loop
     vertex -2.467105e-04  4.140625e-01  2.368421e-02
     vertex -2.393092e-02  4.140625e-01 -5.800959e-18
     vertex -2.467105e-04  4.140625e-01 -2.368421e-02
   endloop
 endfacet
 facet normal  0.000000e+00  1.000000e+00  0.000000e+00
   outer loop
     vertex -2.467105e-04  7.500000e-01  2.368421e-02
     vertex  2.343750e-02  7.500000e-01  2.057024e-17
     vertex -2.467105e-04  7.500000e-01 -2.368421e-02
   endloop
 endfacet
 facet normal  0.000000e+00  1.000000e+00  0.000000e+00
   outer loop
     vertex -2.467105e-04  7.500000e-01  2.368421e-02
     vertex -2.467105e-04  7.500000e-01 -2.368421e-02
     vertex -2.393092e-02  7.500000e-01  1.476928e-17
   endloop
 endfacet
 facet normal -7.071068e-01  0.000000e+00 -7.071068e-01
   outer loop
     vertex -6.250000e-02  1.194077e-32  3.867306e-18
     vertex -3.092105e-02  0.000000e+00 -3.157895e-02
     vertex -3.092105e-02 -3.281250e-01 -3.157895e-02
   endloop
 endfacet
 facet normal -7.071068e-01 -4.329780e-17 -7.071068e-01
   outer loop
     vertex -6.250000e-02  1.194077e-32  3.867306e-18
     vertex -3.092105e-02 -3.281250e-01 -3.157895e-02
     vertex -6.250000e-02 -3.281250e-01  2.395917e-17
   endloop
 endfacet
 facet normal -7.071068e-01  4.485978e-17  7.071068e-01
   outer loop
     vertex -3.092105e-02  3.867306e-18  3.157895e-02
     vertex -6.250000e-02 -3.281250e-01  2.395917e-17
     vertex -3.092105e-02 -3.281250e-01  3.157895e-02
   endloop
 endfacet
 facet normal -7.071068e-01  2.959500e-17  7.071068e-01
   outer loop
     vertex -3.092105e-02  3.867306e-18  3.157895e-02
     vertex -6.250000e-02  1.194077e-32  3.867306e-18
     vertex -6.250000e-02 -3.281250e-01  2.395917e-17
   endloop
 endfacet
 facet normal  7.071068e-01  4.329780e-17  7.071068e-01
   outer loop
     vertex  6.578947e-04  3.867306e-18 -3.867306e-18
     vertex -3.092105e-02 -3.281250e-01  3.157895e-02
     vertex  6.578947e-04 -3.281250e-01  1.622456e-17
   endloop
 endfacet
 facet normal  7.071068e-01  4.439250e-17  7.071068e-01
   outer loop
     vertex  6.578947e-04  3.867306e-18 -3.867306e-18
     vertex -3.092105e-02  3.867306e-18  3.157895e-02
     vertex -3.092105e-02 -3.281250e-01  3.157895e-02
   endloop
 endfacet
 facet normal  7.071068e-01  0.000000e+00 -7.071068e-01
   outer loop
     vertex -3.092105e-02  0.000000e+00 -3.157895e-02
     vertex  6.578947e-04 -3.281250e-01  1.622456e-17
     vertex -3.092105e-02 -3.281250e-01 -3.157895e-02
   endloop
 endfacet
 facet normal  7.071068e-01 -4.439250e-17 -7.071068e-01
   outer loop
     vertex -3.092105e-02  0.000000e+00 -3.157895e-02
     vertex  6.578947e-04  3.867306e-18 -3.867306e-18
     vertex  6.578947e-04 -3.281250e-01  1.622456e-17
   endloop
 endfacet
 facet normal -6.123234e-17  1.000000e+00 -6.123234e-17
   outer loop
     vertex -3.092105e-02  3.867306e-18  3.157895e-02
     vertex  6.578947e-04  3.867306e-18 -3.867306e-18
     vertex -3.092105e-02  0.000000e+00 -3.157895e-02
   endloop
 endfacet
 facet normal -6.123234e-17  1.000000e+00 -6.123234e-17
   outer loop
     vertex -3.092105e-02  3.867306e-18  3.157895e-02
     vertex -3.092105e-02  0.000000e+00 -3.157895e-02
     vertex -6.250000e-02  1.194077e-32  3.867306e-18
   endloop
 endfacet
 facet normal  0.000000e+00 -1.000000e+00 -0.000000e+00
   outer loop
     vertex -3.092105e-02 -3.281250e-01  3.157895e-02
     vertex -3.092105e-02 -3.281250e-01 -3.157895e-02
     vertex  6.578947e-04 -3.281250e-01  1.622456e-17
   endloop
 endfacet
 facet normal  0.000000e+00 -1.000000e+00  0.000000e+00
   outer loop
     vertex -3.092105e-02 -3.281250e-01  3.157895e-02
     vertex -6.250000e-02 -3.281250e-01  2.395917e-17
     vertex -3.092105e-02 -3.281250e-01 -3.157895e-02
   endloop
 endfacet
 facet normal  3.826834e-01  0.000000e+00 -9.238795e-01
   outer loop
     vertex  7.364056e-02  6.284372e-18 -7.257149e-02
     vertex  1.069079e-03  0.000000e+00 -1.026316e-01
     vertex  1.069079e-03  4.140625e-01 -1.026316e-01
   endloop
 endfacet
 facet normal  3.826834e-01 -6.192980e-17 -9.238795e-01
   outer loop
     vertex  7.364056e-02  6.284372e-18 -7.257149e-02
     vertex  1.069079e-03  4.140625e-01 -1.026316e-01
     vertex  7.364056e-02  4.140625e-01 -7.257149e-02
   endloop
 endfacet
 facet normal  9.238795e-01 -2.343260e-17 -3.826834e-01
   outer loop
     vertex  1.037007e-01  1.256874e-17 -1.256874e-17
     vertex  7.364056e-02  4.140625e-01 -7.257149e-02
     vertex  1.037007e-01  4.140625e-01 -3.792276e-17
   endloop
 endfacet
 facet normal  9.238795e-01 -2.666759e-17 -3.826834e-01
   outer loop
     vertex  1.037007e-01  1.256874e-17 -1.256874e-17
     vertex  7.364056e-02  6.284372e-18 -7.257149e-02
     vertex  7.364056e-02  4.140625e-01 -7.257149e-02
   endloop
 endfacet
 facet normal  9.238795e-01  2.565216e-17  3.826834e-01
   outer loop
     vertex  7.364056e-02  1.517182e-17  7.257149e-02
     vertex  1.037007e-01  4.140625e-01 -3.792276e-17
     vertex  7.364056e-02  4.140625e-01  7.257149e-02
   endloop
 endfacet
 facet normal  9.238795e-01  2.666759e-17  3.826834e-01
   outer loop
     vertex  7.364056e-02  1.517182e-17  7.257149e-02
     vertex  1.037007e-01  1.256874e-17 -1.256874e-17
     vertex  1.037007e-01  4.140625e-01 -3.792276e-17
   endloop
 endfacet
 facet normal  3.826834e-01  6.192980e-17  9.238795e-01
   outer loop
     vertex  1.069079e-03  1.256874e-17  1.026316e-01
     vertex  7.364056e-02  4.140625e-01  7.257149e-02
     vertex  1.069079e-03  4.140625e-01  1.026316e-01
   endloop
 endfacet
 facet normal  3.826834e-01  5.333517e-17  9.238795e-01
   outer loop
     vertex  1.069079e-03  1.256874e-17  1.026316e-01
     vertex  7.364056e-02  1.517182e-17  7.257149e-02
     vertex  7.364056e-02  4.140625e-01  7.257149e-02
   endloop
 endfacet
 facet normal -3.826834e-01  6.192980e-17  9.238795e-01
   outer loop
     vertex -7.150241e-02  6.284372e-18  7.257149e-02
     vertex  1.069079e-03  4.140625e-01  1.026316e-01
     vertex -7.150241e-02  4.140625e-01  7.257149e-02
   endloop
 endfacet
 facet normal -3.826834e-01  6.666896e-17  9.238795e-01
   outer loop
     vertex -7.150241e-02  6.284372e-18  7.257149e-02
     vertex  1.069079e-03  1.256874e-17  1.026316e-01
     vertex  1.069079e-03  4.140625e-01  1.026316e-01
   endloop
 endfacet
 facet normal -9.238795e-01  2.343260e-17  3.826834e-01
   outer loop
     vertex -1.015625e-01  2.263892e-29  1.256874e-17
     vertex -7.150241e-02  4.140625e-01  7.257149e-02
     vertex -1.015625e-01  4.140625e-01 -1.278527e-17
   endloop
 endfacet
 facet normal -9.238795e-01  2.666759e-17  3.826834e-01
   outer loop
     vertex -1.015625e-01  2.263892e-29  1.256874e-17
     vertex -7.150241e-02  6.284372e-18  7.257149e-02
     vertex -7.150241e-02  4.140625e-01  7.257149e-02
   endloop
 endfacet
 facet normal -9.238795e-01 -2.565216e-17 -3.826834e-01
   outer loop
     vertex -7.150241e-02 -2.603072e-18 -7.257149e-02
     vertex -1.015625e-01  4.140625e-01 -1.278527e-17
     vertex -7.150241e-02  4.140625e-01 -7.257149e-02
   endloop
 endfacet
 facet normal -9.238795e-01 -2.666759e-17 -3.826834e-01
   outer loop
     vertex -7.150241e-02 -2.603072e-18 -7.257149e-02
     vertex -1.015625e-01  2.263892e-29  1.256874e-17
     vertex -1.015625e-01  4.140625e-01 -1.278527e-17
   endloop
 endfacet
 facet normal -3.826834e-01  0.000000e+00 -9.238795e-01
   outer loop
     vertex  1.069079e-03  0.000000e+00 -1.026316e-01
     vertex -7.150241e-02  4.140625e-01 -7.257149e-02
     vertex  1.069079e-03  4.140625e-01 -1.026316e-01
   endloop
 endfacet
 facet normal -3.826834e-01 -6.666896e-17 -9.238795e-01
   outer loop
     vertex  1.069079e-03  0.000000e+00 -1.026316e-01
     vertex -7.150241e-02 -2.603072e-18 -7.257149e-02
     vertex -7.150241e-02  4.140625e-01 -7.257149e-02
   endloop
 endfacet
 facet normal -5.000000e-01  0.000000e+00  8.660254e-01
   outer loop
     vertex  7.513704e-02  8.201238e-18 -4.276316e-02
     vertex  1.069079e-03  4.140625e-01 -8.552632e-02
     vertex  1.069079e-03  1.047395e-18 -8.552632e-02
   endloop
 endfacet
 facet normal -5.000000e-01  5.805170e-17  8.660254e-01
   outer loop
     vertex  7.513704e-02  8.201238e-18 -4.276316e-02
     vertex  7.513704e-02  4.140625e-01 -4.276316e-02
     vertex  1.069079e-03  4.140625e-01 -8.552632e-02
   endloop
 endfacet
 facet normal -1.000000e+00  0.000000e+00  0.000000e+00
   outer loop
     vertex  7.513704e-02  1.343821e-17  4.276316e-02
     vertex  7.513704e-02  4.140625e-01  4.276316e-02
     vertex  7.513704e-02  4.140625e-01 -4.276316e-02
   endloop
 endfacet
 facet normal -1.000000e+00  0.000000e+00 -0.000000e+00
   outer loop
     vertex  7.513704e-02  1.343821e-17  4.276316e-02
     vertex  7.513704e-02  4.140625e-01 -4.276316e-02
     vertex  7.513704e-02  8.201238e-18 -4.276316e-02
   endloop
 endfacet
 facet normal -5.000000e-01 -5.805170e-17 -8.660254e-01
   outer loop
     vertex  1.069079e-03  1.152135e-17  8.552632e-02
     vertex  1.069079e-03  4.140625e-01  8.552632e-02
     vertex  7.513704e-02  4.140625e-01  4.276316e-02
   endloop
 endfacet
 facet normal -5.000000e-01 -6.123146e-17 -8.660254e-01
   outer loop
     vertex  1.069079e-03  1.152135e-17  8.552632e-02
     vertex  7.513704e-02  4.140625e-01  4.276316e-02
     vertex  7.513704e-02  1.343821e-17  4.276316e-02
   endloop
 endfacet
 facet normal  5.000000e-01 -5.805170e-17 -8.660254e-01
   outer loop
     vertex -7.299888e-02  4.367505e-18  4.276316e-02
     vertex -7.299888e-02  4.140625e-01  4.276316e-02
     vertex  1.069079e-03  4.140625e-01  8.552632e-02
   endloop
 endfacet
 facet normal  1.000000e+00 -5.438446e-32 -8.113168e-16
   outer loop
     vertex -7.299888e-02  4.367505e-18  4.276316e-02
     vertex -7.299888e-02  4.140625e-01 -4.276316e-02
     vertex -7.299888e-02  4.140625e-01  4.276316e-02
   endloop
 endfacet
 facet normal  5.000000e-01 -6.123146e-17 -8.660254e-01
   outer loop
     vertex -7.299888e-02  4.367505e-18  4.276316e-02
     vertex  1.069079e-03  4.140625e-01  8.552632e-02
     vertex  1.069079e-03  1.152135e-17  8.552632e-02
   endloop
 endfacet
 facet normal  1.000000e+00 -5.438446e-32 -8.113168e-16
   outer loop
     vertex -7.299888e-02 -8.694711e-19 -4.276316e-02
     vertex -7.299888e-02  4.140625e-01 -4.276316e-02
     vertex -7.299888e-02  4.367505e-18  4.276316e-02
   endloop
 endfacet
 facet normal  5.000000e-01 -0.000000e+00  8.660254e-01
   outer loop
     vertex  1.069079e-03  1.047395e-18 -8.552632e-02
     vertex  1.069079e-03  4.140625e-01 -8.552632e-02
     vertex -7.299888e-02  4.140625e-01 -4.276316e-02
   endloop
 endfacet
 facet normal  5.000000e-01  4.898517e-17  8.660254e-01
   outer loop
     vertex  1.069079e-03  1.047395e-18 -8.552632e-02
     vertex -7.299888e-02  4.140625e-01 -4.276316e-02
     vertex -7.299888e-02 -8.694711e-19 -4.276316e-02
   endloop
 endfacet
 facet normal  6.123234e-17 -1.000000e+00  6.123234e-17
   outer loop
     vertex -1.015625e-01  2.263892e-29  1.256874e-17
     vertex -7.150241e-02 -2.603072e-18 -7.257149e-02
     vertex -7.299888e-02 -8.694711e-19 -4.276316e-02
   endloop
 endfacet
 facet normal  6.123234e-17 -1.000000e+00  6.123234e-17
   outer loop
     vertex  1.069079e-03  1.047395e-18 -8.552632e-02
     vertex -7.150241e-02 -2.603072e-18 -7.257149e-02
     vertex  1.069079e-03  0.000000e+00 -1.026316e-01
   endloop
 endfacet
 facet normal  6.123234e-17 -1.000000e+00  6.123234e-17
   outer loop
     vertex  1.069079e-03  1.047395e-18 -8.552632e-02
     vertex -7.299888e-02 -8.694711e-19 -4.276316e-02
     vertex -7.150241e-02 -2.603072e-18 -7.257149e-02
   endloop
 endfacet
 facet normal  6.123234e-17 -1.000000e+00  6.123234e-17
   outer loop
     vertex -7.299888e-02  4.367505e-18  4.276316e-02
     vertex -1.015625e-01  2.263892e-29  1.256874e-17
     vertex -7.299888e-02 -8.694711e-19 -4.276316e-02
   endloop
 endfacet
 facet normal  6.123234e-17 -1.000000e+00  6.123234e-17
   outer loop
     vertex  7.364056e-02  6.284372e-18 -7.257149e-02
     vertex  1.069079e-03  1.047395e-18 -8.552632e-02
     vertex  1.069079e-03  0.000000e+00 -1.026316e-01
   endloop
 endfacet
 facet normal  6.123234e-17 -1.000000e+00  6.123234e-17
   outer loop
     vertex -7.150241e-02  6.284372e-18  7.257149e-02
     vertex -1.015625e-01  2.263892e-29  1.256874e-17
     vertex -7.299888e-02  4.367505e-18  4.276316e-02
   endloop
 endfacet
 facet normal  6.123234e-17 -1.000000e+00  6.123234e-17
   outer loop
     vertex  7.513704e-02  8.201238e-18 -4.276316e-02
     vertex  1.069079e-03  1.047395e-18 -8.552632e-02
     vertex  7.364056e-02  6.284372e-18 -7.257149e-02
   endloop
 endfacet
 facet normal  6.123234e-17 -1.000000e+00  6.123234e-17
   outer loop
     vertex  1.069079e-03  1.152135e-17  8.552632e-02
     vertex -7.150241e-02  6.284372e-18  7.257149e-02
     vertex -7.299888e-02  4.367505e-18  4.276316e-02
   endloop
 endfacet
 facet normal  6.123234e-17 -1.000000e+00  6.123234e-17
   outer loop
     vertex  1.069079e-03  1.256874e-17  1.026316e-01
     vertex -7.150241e-02  6.284372e-18  7.257149e-02
     vertex  1.069079e-03  1.152135e-17  8.552632e-02
   endloop
 endfacet
 facet normal  6.123234e-17 -1.000000e+00  6.123234e-17
   outer loop
     vertex  1.037007e-01  1.256874e-17 -1.256874e-17
     vertex  7.513704e-02  8.201238e-18 -4.276316e-02
     vertex  7.364056e-02  6.284372e-18 -7.257149e-02
   endloop
 endfacet
 facet normal  6.123234e-17 -1.000000e+00  6.123234e-17
   outer loop
     vertex  7.513704e-02  1.343821e-17  4.276316e-02
     vertex  7.513704e-02  8.201238e-18 -4.276316e-02
     vertex  1.037007e-01  1.256874e-17 -1.256874e-17
   endloop
 endfacet
 facet normal  6.123234e-17 -1.000000e+00  6.123234e-17
   outer loop
     vertex  7.364056e-02  1.517182e-17  7.257149e-02
     vertex  1.069079e-03  1.152135e-17  8.552632e-02
     vertex  7.513704e-02  1.343821e-17  4.276316e-02
   endloop
 endfacet
 facet normal  6.123234e-17 -1.000000e+00  6.123234e-17
   outer loop
     vertex  7.364056e-02  1.517182e-17  7.257149e-02
     vertex  7.513704e-02  1.343821e-17  4.276316e-02
     vertex  1.037007e-01  1.256874e-17 -1.256874e-17
   endloop
 endfacet
 facet normal  6.123234e-17 -1.000000e+00  6.123234e-17
   outer loop
     vertex  7.364056e-02  1.517182e-17  7.257149e-02
     vertex  1.069079e-03  1.256874e-17  1.026316e-01
     vertex  1.069079e-03  1.152135e-17  8.552632e-02
   endloop
 endfacet
 facet normal  0.000000e+00  1.000000e+00  0.000000e+00
   outer loop
     vertex -1.015625e-01  4.140625e-01 -1.278527e-17
     vertex -7.299888e-02  4.140625e-01 -4.276316e-02
     vertex -7.150241e-02  4.140625e-01 -7.257149e-02
   endloop
 endfacet
 facet normal  0.000000e+00  1.000000e+00  0.000000e+00
   outer loop
     vertex  1.069079e-03  4.140625e-01 -8.552632e-02
     vertex  1.069079e-03  4.140625e-01 -1.026316e-01
     vertex -7.150241e-02  4.140625e-01 -7.257149e-02
   endloop
 endfacet
 facet normal  0.000000e+00  1.000000e+00  0.000000e+00
   outer loop
     vertex  1.069079e-03  4.140625e-01 -8.552632e-02
     vertex -7.150241e-02  4.140625e-01 -7.257149e-02
     vertex -7.299888e-02  4.140625e-01 -4.276316e-02
   endloop
 endfacet
 facet normal  0.000000e+00  1.000000e+00  0.000000e+00
   outer loop
     vertex -7.299888e-02  4.140625e-01  4.276316e-02
     vertex -7.299888e-02  4.140625e-01 -4.276316e-02
     vertex -1.015625e-01  4.140625e-01 -1.278527e-17
   endloop
 endfacet
 facet normal  0.000000e+00  1.000000e+00  0.000000e+00
   outer loop
     vertex  7.364056e-02  4.140625e-01 -7.257149e-02
     vertex  1.069079e-03  4.140625e-01 -1.026316e-01
     vertex  1.069079e-03  4.140625e-01 -8.552632e-02
   endloop
 endfacet
 facet normal  0.000000e+00  1.000000e+00  0.000000e+00
   outer loop
     vertex -7.150241e-02  4.140625e-01  7.257149e-02
     vertex -7.299888e-02  4.140625e-01  4.276316e-02
     vertex -1.015625e-01  4.140625e-01 -1.278527e-17
   endloop
 endfacet
 facet normal  0.000000e+00  1.000000e+00  0.000000e+00
   outer loop
     vertex  7.513704e-02  4.140625e-01 -4.276316e-02
     vertex  7.364056e-02  4.140625e-01 -7.257149e-02
     vertex  1.069079e-03  4.140625e-01 -8.552632e-02
   endloop
 endfacet
 facet normal  0.000000e+00  1.000000e+00  0.000000e+00
   outer loop
     vertex  1.069079e-03  4.140625e-01  8.552632e-02
     vertex -7.299888e-02  4.140625e-01  4.276316e-02
     vertex -7.150241e-02  4.140625e-01  7.257149e-02
   endloop
 endfacet
 facet normal  0.000000e+00  1.000000e+00  0.000000e+00
   outer loop
     vertex  1.069079e-03  4.140625e-01  1.026316e-01
     vertex  1.069079e-03  4.140625e-01  8.552632e-02
     vertex -7.150241e-02  4.140625e-01  7.257149e-02
   endloop
 endfacet
 facet normal  0.000000e+00  1.000000e+00  0.000000e+00
   outer loop
     vertex  1.037007e-01  4.140625e-01 -3.792276e-17
     vertex  7.364056e-02  4.140625e-01 -7.257149e-02
     vertex  7.513704e-02  4.140625e-01 -4.276316e-02
   endloop
 endfacet
 facet normal  0.000000e+00  1.000000e+00  0.000000e+00
   outer loop
     vertex  7.513704e-02  4.140625e-01  4.276316e-02
     vertex  1.037007e-01  4.140625e-01 -3.792276e-17
     vertex  7.513704e-02  4.140625e-01 -4.276316e-02
   endloop
 endfacet
 facet normal  0.000000e+00  1.000000e+00  0.000000e+00
   outer loop
     vertex  7.364056e-02  4.140625e-01  7.257149e-02
     vertex  7.513704e-02  4.140625e-01  4.276316e-02
     vertex  1.069079e-03  4.140625e-01  8.552632e-02
   endloop
 endfacet
 facet normal  0.000000e+00  1.000000e+00  0.000000e+00
   outer loop
     vertex  7.364056e-02  4.140625e-01  7.257149e-02
     vertex  1.037007e-01  4.140625e-01 -3.792276e-17
     vertex  7.513704e-02  4.140625e-01  4.276316e-02
   endloop
 endfacet
 facet normal  0.000000e+00  1.000000e+00  0.000000e+00
   outer loop
     vertex  7.364056e-02  4.140625e-01  7.257149e-02
     vertex  1.069079e-03  4.140625e-01  8.552632e-02
     vertex  1.069079e-03  4.140625e-01  1.026316e-01
   endloop
 endfacet
endsolid
