solid 
 facet normal -2.588190e-01  0.000000e+00 -9.659258e-01
   outer loop
     vertex -1.339638e-01 -1.349179e-18 -7.318200e-01
     vertex -1.038651e-01  7.703720e-34 -7.398849e-01
     vertex -1.038651e-01 -9.375000e-02 -7.398849e-01
   endloop
 endfacet
 facet normal -2.588190e-01 -0.000000e+00 -9.659258e-01
   outer loop
     vertex -1.339638e-01 -1.349179e-18 -7.318200e-01
     vertex -1.038651e-01 -9.375000e-02 -7.398849e-01
     vertex -1.339638e-01 -9.375000e-02 -7.318200e-01
   endloop
 endfacet
 facet normal -7.071068e-01 -0.000000e+00 -7.071068e-01
   outer loop
     vertex -1.559976e-01 -1.349179e-18 -7.097862e-01
     vertex -1.339638e-01 -9.375000e-02 -7.318200e-01
     vertex -1.559976e-01 -9.375000e-02 -7.097862e-01
   endloop
 endfacet
 facet normal -7.071068e-01  0.000000e+00 -7.071068e-01
   outer loop
     vertex -1.559976e-01 -1.349179e-18 -7.097862e-01
     vertex -1.339638e-01 -1.349179e-18 -7.318200e-01
     vertex -1.339638e-01 -9.375000e-02 -7.318200e-01
   endloop
 endfacet
 facet normal -9.659258e-01 -0.000000e+00 -2.588190e-01
   outer loop
     vertex -1.640625e-01  1.155558e-33 -6.796875e-01
     vertex -1.559976e-01 -9.375000e-02 -7.097862e-01
     vertex -1.640625e-01 -9.375000e-02 -6.796875e-01
   endloop
 endfacet
 facet normal -9.659258e-01  0.000000e+00 -2.588190e-01
   outer loop
     vertex -1.640625e-01  1.155558e-33 -6.796875e-01
     vertex -1.559976e-01 -1.349179e-18 -7.097862e-01
     vertex -1.559976e-01 -9.375000e-02 -7.097862e-01
   endloop
 endfacet
 facet normal  0.000000e+00  0.000000e+00 -1.000000e+00
   outer loop
     vertex  9.177632e-02  1.197958e-17 -7.398849e-01
     vertex -1.038651e-01 -9.375000e-02 -7.398849e-01
     vertex -1.038651e-01  7.703720e-34 -7.398849e-01
   endloop
 endfacet
 facet normal  0.000000e+00 -0.000000e+00 -1.000000e+00
   outer loop
     vertex  9.177632e-02  1.197958e-17 -7.398849e-01
     vertex  9.177632e-02 -9.375000e-02 -7.398849e-01
     vertex -1.038651e-01 -9.375000e-02 -7.398849e-01
   endloop
 endfacet
 facet normal  9.659258e-01  0.000000e+00 -2.588190e-01
   outer loop
     vertex  1.439088e-01  1.701479e-17 -7.097862e-01
     vertex  1.519737e-01  1.935164e-17 -6.796875e-01
     vertex  1.519737e-01 -9.375000e-02 -6.796875e-01
   endloop
 endfacet
 facet normal  9.659258e-01  0.000000e+00 -2.588190e-01
   outer loop
     vertex  1.439088e-01  1.701479e-17 -7.097862e-01
     vertex  1.519737e-01 -9.375000e-02 -6.796875e-01
     vertex  1.439088e-01 -9.375000e-02 -7.097862e-01
   endloop
 endfacet
 facet normal  7.071068e-01  0.000000e+00 -7.071068e-01
   outer loop
     vertex  1.218750e-01  1.431643e-17 -7.318200e-01
     vertex  1.439088e-01 -9.375000e-02 -7.097862e-01
     vertex  1.218750e-01 -9.375000e-02 -7.318200e-01
   endloop
 endfacet
 facet normal  7.071068e-01  0.000000e+00 -7.071068e-01
   outer loop
     vertex  1.218750e-01  1.431643e-17 -7.318200e-01
     vertex  1.439088e-01  1.701479e-17 -7.097862e-01
     vertex  1.439088e-01 -9.375000e-02 -7.097862e-01
   endloop
 endfacet
 facet normal  2.588190e-01  0.000000e+00 -9.659258e-01
   outer loop
     vertex  9.177632e-02  1.197958e-17 -7.398849e-01
     vertex  1.218750e-01 -9.375000e-02 -7.318200e-01
     vertex  9.177632e-02 -9.375000e-02 -7.398849e-01
   endloop
 endfacet
 facet normal  2.588190e-01  0.000000e+00 -9.659258e-01
   outer loop
     vertex  9.177632e-02  1.197958e-17 -7.398849e-01
     vertex  1.218750e-01  1.431643e-17 -7.318200e-01
     vertex  1.218750e-01 -9.375000e-02 -7.318200e-01
   endloop
 endfacet
 facet normal  1.000000e+00  0.000000e+00  0.000000e+00
   outer loop
     vertex  1.519737e-01  1.032087e-16  6.898026e-01
     vertex  1.519737e-01 -9.375000e-02 -6.796875e-01
     vertex  1.519737e-01  1.935164e-17 -6.796875e-01
   endloop
 endfacet
 facet normal  1.000000e+00  0.000000e+00  0.000000e+00
   outer loop
     vertex  1.519737e-01  1.032087e-16  6.898026e-01
     vertex  1.519737e-01 -9.375000e-02  6.898026e-01
     vertex  1.519737e-01 -9.375000e-02 -6.796875e-01
   endloop
 endfacet
 facet normal  2.588190e-01  0.000000e+00  9.659258e-01
   outer loop
     vertex  1.218750e-01  1.045579e-16  7.419351e-01
     vertex  9.177632e-02  1.032087e-16  7.500000e-01
     vertex  9.177632e-02 -9.375000e-02  7.500000e-01
   endloop
 endfacet
 facet normal  2.588190e-01  0.000000e+00  9.659258e-01
   outer loop
     vertex  1.218750e-01  1.045579e-16  7.419351e-01
     vertex  9.177632e-02 -9.375000e-02  7.500000e-01
     vertex  1.218750e-01 -9.375000e-02  7.419351e-01
   endloop
 endfacet
 facet normal  7.071068e-01  0.000000e+00  7.071068e-01
   outer loop
     vertex  1.439088e-01  1.045579e-16  7.199013e-01
     vertex  1.218750e-01 -9.375000e-02  7.419351e-01
     vertex  1.439088e-01 -9.375000e-02  7.199013e-01
   endloop
 endfacet
 facet normal  7.071068e-01  0.000000e+00  7.071068e-01
   outer loop
     vertex  1.439088e-01  1.045579e-16  7.199013e-01
     vertex  1.218750e-01  1.045579e-16  7.419351e-01
     vertex  1.218750e-01 -9.375000e-02  7.419351e-01
   endloop
 endfacet
 facet normal  9.659258e-01  0.000000e+00  2.588190e-01
   outer loop
     vertex  1.519737e-01  1.032087e-16  6.898026e-01
     vertex  1.439088e-01 -9.375000e-02  7.199013e-01
     vertex  1.519737e-01 -9.375000e-02  6.898026e-01
   endloop
 endfacet
 facet normal  9.659258e-01  0.000000e+00  2.588190e-01
   outer loop
     vertex  1.519737e-01  1.032087e-16  6.898026e-01
     vertex  1.439088e-01  1.045579e-16  7.199013e-01
     vertex  1.439088e-01 -9.375000e-02  7.199013e-01
   endloop
 endfacet
 facet normal -0.000000e+00  0.000000e+00  1.000000e+00
   outer loop
     vertex -1.038651e-01  9.122914e-17  7.500000e-01
     vertex  9.177632e-02 -9.375000e-02  7.500000e-01
     vertex  9.177632e-02  1.032087e-16  7.500000e-01
   endloop
 endfacet
 facet normal  0.000000e+00  0.000000e+00  1.000000e+00
   outer loop
     vertex -1.038651e-01  9.122914e-17  7.500000e-01
     vertex -1.038651e-01 -9.375000e-02  7.500000e-01
     vertex  9.177632e-02 -9.375000e-02  7.500000e-01
   endloop
 endfacet
 facet normal -9.659258e-01  0.000000e+00  2.588190e-01
   outer loop
     vertex -1.559976e-01  8.619393e-17  7.199013e-01
     vertex -1.640625e-01  8.385709e-17  6.898026e-01
     vertex -1.640625e-01 -9.375000e-02  6.898026e-01
   endloop
 endfacet
 facet normal -9.659258e-01  0.000000e+00  2.588190e-01
   outer loop
     vertex -1.559976e-01  8.619393e-17  7.199013e-01
     vertex -1.640625e-01 -9.375000e-02  6.898026e-01
     vertex -1.559976e-01 -9.375000e-02  7.199013e-01
   endloop
 endfacet
 facet normal -7.071068e-01  0.000000e+00  7.071068e-01
   outer loop
     vertex -1.339638e-01  8.889229e-17  7.419351e-01
     vertex -1.559976e-01 -9.375000e-02  7.199013e-01
     vertex -1.339638e-01 -9.375000e-02  7.419351e-01
   endloop
 endfacet
 facet normal -7.071068e-01  0.000000e+00  7.071068e-01
   outer loop
     vertex -1.339638e-01  8.889229e-17  7.419351e-01
     vertex -1.559976e-01  8.619393e-17  7.199013e-01
     vertex -1.559976e-01 -9.375000e-02  7.199013e-01
   endloop
 endfacet
 facet normal -2.588190e-01  0.000000e+00  9.659258e-01
   outer loop
     vertex -1.038651e-01  9.122914e-17  7.500000e-01
     vertex -1.339638e-01 -9.375000e-02  7.419351e-01
     vertex -1.038651e-01 -9.375000e-02  7.500000e-01
   endloop
 endfacet
 facet normal -2.588190e-01  0.000000e+00  9.659258e-01
   outer loop
     vertex -1.038651e-01  9.122914e-17  7.500000e-01
     vertex -1.339638e-01  8.889229e-17  7.419351e-01
     vertex -1.339638e-01 -9.375000e-02  7.419351e-01
   endloop
 endfacet
 facet normal -1.000000e+00  0.000000e+00  0.000000e+00
   outer loop
     vertex -1.640625e-01  1.155558e-33 -6.796875e-01
     vertex -1.640625e-01 -9.375000e-02  6.898026e-01
     vertex -1.640625e-01  8.385709e-17  6.898026e-01
   endloop
 endfacet
 facet normal -1.000000e+00  0.000000e+00  0.000000e+00
   outer loop
     vertex -1.640625e-01  1.155558e-33 -6.796875e-01
     vertex -1.640625e-01 -9.375000e-02 -6.796875e-01
     vertex -1.640625e-01 -9.375000e-02  6.898026e-01
   endloop
 endfacet
 facet normal  4.338837e-01  0.000000e+00  9.009689e-01
   outer loop
     vertex -6.911603e-02  4.475579e-17 -4.371643e-02
     vertex  1.480263e-03 -9.375000e-02 -7.771382e-02
     vertex  1.480263e-03  4.699683e-17 -7.771382e-02
   endloop
 endfacet
 facet normal  4.338837e-01  0.000000e+00  9.009689e-01
   outer loop
     vertex -6.911603e-02  4.475579e-17 -4.371643e-02
     vertex -6.911603e-02 -9.375000e-02 -4.371643e-02
     vertex  1.480263e-03 -9.375000e-02 -7.771382e-02
   endloop
 endfacet
 facet normal  9.749279e-01  0.000000e+00  2.225209e-01
   outer loop
     vertex -8.655188e-02  4.836578e-17  3.267500e-02
     vertex -8.655188e-02 -9.375000e-02  3.267500e-02
     vertex -6.911603e-02 -9.375000e-02 -4.371643e-02
   endloop
 endfacet
 facet normal  9.749279e-01  0.000000e+00  2.225209e-01
   outer loop
     vertex -8.655188e-02  4.836578e-17  3.267500e-02
     vertex -6.911603e-02 -9.375000e-02 -4.371643e-02
     vertex -6.911603e-02  4.475579e-17 -4.371643e-02
   endloop
 endfacet
 facet normal  7.818315e-01  0.000000e+00 -6.234898e-01
   outer loop
     vertex -3.769773e-02  5.510840e-17  9.393617e-02
     vertex -3.769773e-02 -9.375000e-02  9.393617e-02
     vertex -8.655188e-02 -9.375000e-02  3.267500e-02
   endloop
 endfacet
 facet normal  7.818315e-01  0.000000e+00 -6.234898e-01
   outer loop
     vertex -3.769773e-02  5.510840e-17  9.393617e-02
     vertex -8.655188e-02 -9.375000e-02  3.267500e-02
     vertex -8.655188e-02  4.836578e-17  3.267500e-02
   endloop
 endfacet
 facet normal  0.000000e+00 -0.000000e+00 -1.000000e+00
   outer loop
     vertex  4.065825e-02  5.990632e-17  9.393617e-02
     vertex  4.065825e-02 -9.375000e-02  9.393617e-02
     vertex -3.769773e-02 -9.375000e-02  9.393617e-02
   endloop
 endfacet
 facet normal  0.000000e+00  0.000000e+00 -1.000000e+00
   outer loop
     vertex  4.065825e-02  5.990632e-17  9.393617e-02
     vertex -3.769773e-02 -9.375000e-02  9.393617e-02
     vertex -3.769773e-02  5.510840e-17  9.393617e-02
   endloop
 endfacet
 facet normal -7.818315e-01 -0.000000e+00 -6.234898e-01
   outer loop
     vertex  8.951241e-02  5.914661e-17  3.267500e-02
     vertex  8.951241e-02 -9.375000e-02  3.267500e-02
     vertex  4.065825e-02 -9.375000e-02  9.393617e-02
   endloop
 endfacet
 facet normal -7.818315e-01  0.000000e+00 -6.234898e-01
   outer loop
     vertex  8.951241e-02  5.914661e-17  3.267500e-02
     vertex  4.065825e-02 -9.375000e-02  9.393617e-02
     vertex  4.065825e-02  5.990632e-17  9.393617e-02
   endloop
 endfacet
 facet normal -9.749279e-01  0.000000e+00  2.225209e-01
   outer loop
     vertex  7.207656e-02  5.340134e-17 -4.371643e-02
     vertex  7.207656e-02 -9.375000e-02 -4.371643e-02
     vertex  8.951241e-02 -9.375000e-02  3.267500e-02
   endloop
 endfacet
 facet normal -9.749279e-01  0.000000e+00  2.225209e-01
   outer loop
     vertex  7.207656e-02  5.340134e-17 -4.371643e-02
     vertex  8.951241e-02 -9.375000e-02  3.267500e-02
     vertex  8.951241e-02  5.914661e-17  3.267500e-02
   endloop
 endfacet
 facet normal -4.338837e-01  0.000000e+00  9.009689e-01
   outer loop
     vertex  1.480263e-03  4.699683e-17 -7.771382e-02
     vertex  1.480263e-03 -9.375000e-02 -7.771382e-02
     vertex  7.207656e-02 -9.375000e-02 -4.371643e-02
   endloop
 endfacet
 facet normal -4.338837e-01  0.000000e+00  9.009689e-01
   outer loop
     vertex  1.480263e-03  4.699683e-17 -7.771382e-02
     vertex  7.207656e-02 -9.375000e-02 -4.371643e-02
     vertex  7.207656e-02  5.340134e-17 -4.371643e-02
   endloop
 endfacet
 facet normal  7.071068e-01  0.000000e+00  7.071068e-01
   outer loop
     vertex -4.366776e-02  1.382260e-17 -5.743421e-01
     vertex  1.480263e-03 -9.375000e-02 -6.194901e-01
     vertex  1.480263e-03  1.382260e-17 -6.194901e-01
   endloop
 endfacet
 facet normal  7.071068e-01  0.000000e+00  7.071068e-01
   outer loop
     vertex -4.366776e-02  1.382260e-17 -5.743421e-01
     vertex -4.366776e-02 -9.375000e-02 -5.743421e-01
     vertex  1.480263e-03 -9.375000e-02 -6.194901e-01
   endloop
 endfacet
 facet normal  7.071068e-01  0.000000e+00 -7.071068e-01
   outer loop
     vertex  1.480263e-03  1.935164e-17 -5.291941e-01
     vertex  1.480263e-03 -9.375000e-02 -5.291941e-01
     vertex -4.366776e-02 -9.375000e-02 -5.743421e-01
   endloop
 endfacet
 facet normal  7.071068e-01  0.000000e+00 -7.071068e-01
   outer loop
     vertex  1.480263e-03  1.935164e-17 -5.291941e-01
     vertex -4.366776e-02 -9.375000e-02 -5.743421e-01
     vertex -4.366776e-02  1.382260e-17 -5.743421e-01
   endloop
 endfacet
 facet normal -7.071068e-01 -0.000000e+00 -7.071068e-01
   outer loop
     vertex  4.662829e-02  1.935164e-17 -5.743421e-01
     vertex  4.662829e-02 -9.375000e-02 -5.743421e-01
     vertex  1.480263e-03 -9.375000e-02 -5.291941e-01
   endloop
 endfacet
 facet normal -7.071068e-01  0.000000e+00 -7.071068e-01
   outer loop
     vertex  4.662829e-02  1.935164e-17 -5.743421e-01
     vertex  1.480263e-03 -9.375000e-02 -5.291941e-01
     vertex  1.480263e-03  1.935164e-17 -5.291941e-01
   endloop
 endfacet
 facet normal -7.071068e-01  0.000000e+00  7.071068e-01
   outer loop
     vertex  1.480263e-03  1.382260e-17 -6.194901e-01
     vertex  1.480263e-03 -9.375000e-02 -6.194901e-01
     vertex  4.662829e-02 -9.375000e-02 -5.743421e-01
   endloop
 endfacet
 facet normal -7.071068e-01  0.000000e+00  7.071068e-01
   outer loop
     vertex  1.480263e-03  1.382260e-17 -6.194901e-01
     vertex  4.662829e-02 -9.375000e-02 -5.743421e-01
     vertex  4.662829e-02  1.935164e-17 -5.743421e-01
   endloop
 endfacet
 facet normal  7.071068e-01  0.000000e+00  7.071068e-01
   outer loop
     vertex -4.366776e-02  8.754311e-17  6.296053e-01
     vertex  1.480263e-03 -9.375000e-02  5.844572e-01
     vertex  1.480263e-03  8.754311e-17  5.844572e-01
   endloop
 endfacet
 facet normal  7.071068e-01  0.000000e+00  7.071068e-01
   outer loop
     vertex -4.366776e-02  8.754311e-17  6.296053e-01
     vertex -4.366776e-02 -9.375000e-02  6.296053e-01
     vertex  1.480263e-03 -9.375000e-02  5.844572e-01
   endloop
 endfacet
 facet normal  7.071068e-01  0.000000e+00 -7.071068e-01
   outer loop
     vertex  1.480263e-03  9.307215e-17  6.747533e-01
     vertex  1.480263e-03 -9.375000e-02  6.747533e-01
     vertex -4.366776e-02 -9.375000e-02  6.296053e-01
   endloop
 endfacet
 facet normal  7.071068e-01  0.000000e+00 -7.071068e-01
   outer loop
     vertex  1.480263e-03  9.307215e-17  6.747533e-01
     vertex -4.366776e-02 -9.375000e-02  6.296053e-01
     vertex -4.366776e-02  8.754311e-17  6.296053e-01
   endloop
 endfacet
 facet normal -7.071068e-01 -0.000000e+00 -7.071068e-01
   outer loop
     vertex  4.662829e-02  9.307215e-17  6.296053e-01
     vertex  4.662829e-02 -9.375000e-02  6.296053e-01
     vertex  1.480263e-03 -9.375000e-02  6.747533e-01
   endloop
 endfacet
 facet normal -7.071068e-01  0.000000e+00 -7.071068e-01
   outer loop
     vertex  4.662829e-02  9.307215e-17  6.296053e-01
     vertex  1.480263e-03 -9.375000e-02  6.747533e-01
     vertex  1.480263e-03  9.307215e-17  6.747533e-01
   endloop
 endfacet
 facet normal -7.071068e-01  0.000000e+00  7.071068e-01
   outer loop
     vertex  1.480263e-03  8.754311e-17  5.844572e-01
     vertex  1.480263e-03 -9.375000e-02  5.844572e-01
     vertex  4.662829e-02 -9.375000e-02  6.296053e-01
   endloop
 endfacet
 facet normal -7.071068e-01  0.000000e+00  7.071068e-01
   outer loop
     vertex  1.480263e-03  8.754311e-17  5.844572e-01
     vertex  4.662829e-02 -9.375000e-02  6.296053e-01
     vertex  4.662829e-02  9.307215e-17  6.296053e-01
   endloop
 endfacet
 facet normal -6.123234e-17  1.000000e+00 -6.123234e-17
   outer loop
     vertex -1.038651e-01  7.703720e-34 -7.398849e-01
     vertex -1.559976e-01 -1.349179e-18 -7.097862e-01
     vertex -1.640625e-01  1.155558e-33 -6.796875e-01
   endloop
 endfacet
 facet normal -6.123234e-17  1.000000e+00 -6.123234e-17
   outer loop
     vertex -1.038651e-01  7.703720e-34 -7.398849e-01
     vertex -1.339638e-01 -1.349179e-18 -7.318200e-01
     vertex -1.559976e-01 -1.349179e-18 -7.097862e-01
   endloop
 endfacet
 facet normal -6.123234e-17  1.000000e+00 -6.123234e-17
   outer loop
     vertex  1.480263e-03  1.382260e-17 -6.194901e-01
     vertex  9.177632e-02  1.197958e-17 -7.398849e-01
     vertex -1.038651e-01  7.703720e-34 -7.398849e-01
   endloop
 endfacet
 facet normal -6.123234e-17  1.000000e+00 -6.123234e-17
   outer loop
     vertex  1.480263e-03  1.382260e-17 -6.194901e-01
     vertex -1.038651e-01  7.703720e-34 -7.398849e-01
     vertex -1.640625e-01  1.155558e-33 -6.796875e-01
   endloop
 endfacet
 facet normal -6.123234e-17  1.000000e+00 -6.123234e-17
   outer loop
     vertex  1.480263e-03  1.382260e-17 -6.194901e-01
     vertex -1.640625e-01  1.155558e-33 -6.796875e-01
     vertex -4.366776e-02  1.382260e-17 -5.743421e-01
   endloop
 endfacet
 facet normal -6.123234e-17  1.000000e+00 -6.123234e-17
   outer loop
     vertex  1.439088e-01  1.701479e-17 -7.097862e-01
     vertex  1.218750e-01  1.431643e-17 -7.318200e-01
     vertex  9.177632e-02  1.197958e-17 -7.398849e-01
   endloop
 endfacet
 facet normal -6.123234e-17  1.000000e+00 -6.123234e-17
   outer loop
     vertex  1.519737e-01  1.935164e-17 -6.796875e-01
     vertex  1.480263e-03  1.382260e-17 -6.194901e-01
     vertex  4.662829e-02  1.935164e-17 -5.743421e-01
   endloop
 endfacet
 facet normal -6.123234e-17  1.000000e+00 -6.123234e-17
   outer loop
     vertex  1.519737e-01  1.935164e-17 -6.796875e-01
     vertex  9.177632e-02  1.197958e-17 -7.398849e-01
     vertex  1.480263e-03  1.382260e-17 -6.194901e-01
   endloop
 endfacet
 facet normal -6.123234e-17  1.000000e+00 -6.123234e-17
   outer loop
     vertex  1.519737e-01  1.935164e-17 -6.796875e-01
     vertex  1.439088e-01  1.701479e-17 -7.097862e-01
     vertex  9.177632e-02  1.197958e-17 -7.398849e-01
   endloop
 endfacet
 facet normal -6.123234e-17  1.000000e+00 -6.123234e-17
   outer loop
     vertex -6.911603e-02  4.475579e-17 -4.371643e-02
     vertex  1.480263e-03  1.935164e-17 -5.291941e-01
     vertex -4.366776e-02  1.382260e-17 -5.743421e-01
   endloop
 endfacet
 facet normal -6.123234e-17  1.000000e+00 -6.123234e-17
   outer loop
     vertex -6.911603e-02  4.475579e-17 -4.371643e-02
     vertex -4.366776e-02  1.382260e-17 -5.743421e-01
     vertex -1.640625e-01  1.155558e-33 -6.796875e-01
   endloop
 endfacet
 facet normal -6.123234e-17  1.000000e+00 -6.123234e-17
   outer loop
     vertex  1.480263e-03  4.699683e-17 -7.771382e-02
     vertex  1.480263e-03  1.935164e-17 -5.291941e-01
     vertex -6.911603e-02  4.475579e-17 -4.371643e-02
   endloop
 endfacet
 facet normal -6.123234e-17  1.000000e+00 -6.123234e-17
   outer loop
     vertex -8.655188e-02  4.836578e-17  3.267500e-02
     vertex -6.911603e-02  4.475579e-17 -4.371643e-02
     vertex -1.640625e-01  1.155558e-33 -6.796875e-01
   endloop
 endfacet
 facet normal -6.123234e-17  1.000000e+00 -6.123234e-17
   outer loop
     vertex  7.207656e-02  5.340134e-17 -4.371643e-02
     vertex  4.662829e-02  1.935164e-17 -5.743421e-01
     vertex  1.480263e-03  1.935164e-17 -5.291941e-01
   endloop
 endfacet
 facet normal -6.123234e-17  1.000000e+00 -6.123234e-17
   outer loop
     vertex  7.207656e-02  5.340134e-17 -4.371643e-02
     vertex  1.519737e-01  1.935164e-17 -6.796875e-01
     vertex  4.662829e-02  1.935164e-17 -5.743421e-01
   endloop
 endfacet
 facet normal -6.123234e-17  1.000000e+00 -6.123234e-17
   outer loop
     vertex  7.207656e-02  5.340134e-17 -4.371643e-02
     vertex  1.480263e-03  1.935164e-17 -5.291941e-01
     vertex  1.480263e-03  4.699683e-17 -7.771382e-02
   endloop
 endfacet
 facet normal -6.123234e-17  1.000000e+00 -6.123234e-17
   outer loop
     vertex  8.951241e-02  5.914661e-17  3.267500e-02
     vertex  1.519737e-01  1.935164e-17 -6.796875e-01
     vertex  7.207656e-02  5.340134e-17 -4.371643e-02
   endloop
 endfacet
 facet normal -6.123234e-17  1.000000e+00 -6.123234e-17
   outer loop
     vertex -1.640625e-01  8.385709e-17  6.898026e-01
     vertex -3.769773e-02  5.510840e-17  9.393617e-02
     vertex -8.655188e-02  4.836578e-17  3.267500e-02
   endloop
 endfacet
 facet normal -6.123234e-17  1.000000e+00 -6.123234e-17
   outer loop
     vertex  1.480263e-03  8.754311e-17  5.844572e-01
     vertex  4.065825e-02  5.990632e-17  9.393617e-02
     vertex -3.769773e-02  5.510840e-17  9.393617e-02
   endloop
 endfacet
 facet normal -6.123234e-17  1.000000e+00 -6.123234e-17
   outer loop
     vertex  1.480263e-03  8.754311e-17  5.844572e-01
     vertex -3.769773e-02  5.510840e-17  9.393617e-02
     vertex -1.640625e-01  8.385709e-17  6.898026e-01
   endloop
 endfacet
 facet normal -6.123234e-17  1.000000e+00 -6.123234e-17
   outer loop
     vertex -4.366776e-02  8.754311e-17  6.296053e-01
     vertex  1.480263e-03  8.754311e-17  5.844572e-01
     vertex -1.640625e-01  8.385709e-17  6.898026e-01
   endloop
 endfacet
 facet normal -6.123234e-17  1.000000e+00 -6.123234e-17
   outer loop
     vertex -1.339638e-01  8.889229e-17  7.419351e-01
     vertex -1.640625e-01  8.385709e-17  6.898026e-01
     vertex -1.559976e-01  8.619393e-17  7.199013e-01
   endloop
 endfacet
 facet normal -6.123234e-17  1.000000e+00 -6.123234e-17
   outer loop
     vertex -1.038651e-01  9.122914e-17  7.500000e-01
     vertex -4.366776e-02  8.754311e-17  6.296053e-01
     vertex -1.640625e-01  8.385709e-17  6.898026e-01
   endloop
 endfacet
 facet normal -6.123234e-17  1.000000e+00 -6.123234e-17
   outer loop
     vertex -1.038651e-01  9.122914e-17  7.500000e-01
     vertex -1.640625e-01  8.385709e-17  6.898026e-01
     vertex -1.339638e-01  8.889229e-17  7.419351e-01
   endloop
 endfacet
 facet normal -6.123234e-17  1.000000e+00 -6.123234e-17
   outer loop
     vertex  1.480263e-03  9.307215e-17  6.747533e-01
     vertex -4.366776e-02  8.754311e-17  6.296053e-01
     vertex -1.038651e-01  9.122914e-17  7.500000e-01
   endloop
 endfacet
 facet normal -6.123234e-17  1.000000e+00 -6.123234e-17
   outer loop
     vertex  9.177632e-02  1.032087e-16  7.500000e-01
     vertex  4.662829e-02  9.307215e-17  6.296053e-01
     vertex  1.480263e-03  9.307215e-17  6.747533e-01
   endloop
 endfacet
 facet normal -6.123234e-17  1.000000e+00 -6.123234e-17
   outer loop
     vertex  9.177632e-02  1.032087e-16  7.500000e-01
     vertex  1.480263e-03  9.307215e-17  6.747533e-01
     vertex -1.038651e-01  9.122914e-17  7.500000e-01
   endloop
 endfacet
 facet normal -6.123234e-17  1.000000e+00 -6.123234e-17
   outer loop
     vertex  1.519737e-01  1.032087e-16  6.898026e-01
     vertex  8.951241e-02  5.914661e-17  3.267500e-02
     vertex  4.065825e-02  5.990632e-17  9.393617e-02
   endloop
 endfacet
 facet normal -6.123234e-17  1.000000e+00 -6.123234e-17
   outer loop
     vertex  1.519737e-01  1.032087e-16  6.898026e-01
     vertex  1.480263e-03  8.754311e-17  5.844572e-01
     vertex  4.662829e-02  9.307215e-17  6.296053e-01
   endloop
 endfacet
 facet normal -6.123234e-17  1.000000e+00 -6.123234e-17
   outer loop
     vertex  1.519737e-01  1.032087e-16  6.898026e-01
     vertex  4.065825e-02  5.990632e-17  9.393617e-02
     vertex  1.480263e-03  8.754311e-17  5.844572e-01
   endloop
 endfacet
 facet normal -6.123234e-17  1.000000e+00 -6.123234e-17
   outer loop
     vertex  1.519737e-01  1.032087e-16  6.898026e-01
     vertex  4.662829e-02  9.307215e-17  6.296053e-01
     vertex  9.177632e-02  1.032087e-16  7.500000e-01
   endloop
 endfacet
 facet normal -6.123234e-17  1.000000e+00 -6.123234e-17
   outer loop
     vertex  1.439088e-01  1.045579e-16  7.199013e-01
     vertex  1.519737e-01  1.032087e-16  6.898026e-01
     vertex  9.177632e-02  1.032087e-16  7.500000e-01
   endloop
 endfacet
 facet normal -6.123234e-17  1.000000e+00 -6.123234e-17
   outer loop
     vertex  1.218750e-01  1.045579e-16  7.419351e-01
     vertex  1.439088e-01  1.045579e-16  7.199013e-01
     vertex  9.177632e-02  1.032087e-16  7.500000e-01
   endloop
 endfacet
 facet normal -6.123234e-17  1.000000e+00 -6.123234e-17
   outer loop
     vertex  1.519737e-01  1.935164e-17 -6.796875e-01
     vertex  8.951241e-02  5.914661e-17  3.267500e-02
     vertex  1.519737e-01  1.032087e-16  6.898026e-01
   endloop
 endfacet
 facet normal -6.123234e-17  1.000000e+00 -6.123234e-17
   outer loop
     vertex -1.640625e-01  8.385709e-17  6.898026e-01
     vertex -8.655188e-02  4.836578e-17  3.267500e-02
     vertex -1.640625e-01  1.155558e-33 -6.796875e-01
   endloop
 endfacet
 facet normal  0.000000e+00 -1.000000e+00  0.000000e+00
   outer loop
     vertex -1.038651e-01 -9.375000e-02 -7.398849e-01
     vertex -1.640625e-01 -9.375000e-02 -6.796875e-01
     vertex -1.559976e-01 -9.375000e-02 -7.097862e-01
   endloop
 endfacet
 facet normal  0.000000e+00 -1.000000e+00  0.000000e+00
   outer loop
     vertex -1.038651e-01 -9.375000e-02 -7.398849e-01
     vertex -1.559976e-01 -9.375000e-02 -7.097862e-01
     vertex -1.339638e-01 -9.375000e-02 -7.318200e-01
   endloop
 endfacet
 facet normal  0.000000e+00 -1.000000e+00 -0.000000e+00
   outer loop
     vertex  1.480263e-03 -9.375000e-02 -6.194901e-01
     vertex -1.038651e-01 -9.375000e-02 -7.398849e-01
     vertex  9.177632e-02 -9.375000e-02 -7.398849e-01
   endloop
 endfacet
 facet normal  0.000000e+00 -1.000000e+00  0.000000e+00
   outer loop
     vertex  1.480263e-03 -9.375000e-02 -6.194901e-01
     vertex -1.640625e-01 -9.375000e-02 -6.796875e-01
     vertex -1.038651e-01 -9.375000e-02 -7.398849e-01
   endloop
 endfacet
 facet normal -0.000000e+00 -1.000000e+00  0.000000e+00
   outer loop
     vertex  1.480263e-03 -9.375000e-02 -6.194901e-01
     vertex -4.366776e-02 -9.375000e-02 -5.743421e-01
     vertex -1.640625e-01 -9.375000e-02 -6.796875e-01
   endloop
 endfacet
 facet normal  0.000000e+00 -1.000000e+00  0.000000e+00
   outer loop
     vertex  1.439088e-01 -9.375000e-02 -7.097862e-01
     vertex  9.177632e-02 -9.375000e-02 -7.398849e-01
     vertex  1.218750e-01 -9.375000e-02 -7.318200e-01
   endloop
 endfacet
 facet normal  0.000000e+00 -1.000000e+00  0.000000e+00
   outer loop
     vertex  1.519737e-01 -9.375000e-02 -6.796875e-01
     vertex  4.662829e-02 -9.375000e-02 -5.743421e-01
     vertex  1.480263e-03 -9.375000e-02 -6.194901e-01
   endloop
 endfacet
 facet normal -0.000000e+00 -1.000000e+00  0.000000e+00
   outer loop
     vertex  1.519737e-01 -9.375000e-02 -6.796875e-01
     vertex  1.480263e-03 -9.375000e-02 -6.194901e-01
     vertex  9.177632e-02 -9.375000e-02 -7.398849e-01
   endloop
 endfacet
 facet normal  0.000000e+00 -1.000000e+00  0.000000e+00
   outer loop
     vertex  1.519737e-01 -9.375000e-02 -6.796875e-01
     vertex  9.177632e-02 -9.375000e-02 -7.398849e-01
     vertex  1.439088e-01 -9.375000e-02 -7.097862e-01
   endloop
 endfacet
 facet normal  2.495673e-17 -1.000000e+00 -2.495673e-17
   outer loop
     vertex -6.911603e-02 -9.375000e-02 -4.371643e-02
     vertex -4.366776e-02 -9.375000e-02 -5.743421e-01
     vertex  1.480263e-03 -9.375000e-02 -5.291941e-01
   endloop
 endfacet
 facet normal  2.196278e-17 -1.000000e+00 -2.510032e-17
   outer loop
     vertex -6.911603e-02 -9.375000e-02 -4.371643e-02
     vertex -1.640625e-01 -9.375000e-02 -6.796875e-01
     vertex -4.366776e-02 -9.375000e-02 -5.743421e-01
   endloop
 endfacet
 facet normal  1.965795e-16 -1.000000e+00  2.360369e-33
   outer loop
     vertex  1.480263e-03 -9.375000e-02 -7.771382e-02
     vertex -6.911603e-02 -9.375000e-02 -4.371643e-02
     vertex  1.480263e-03 -9.375000e-02 -5.291941e-01
   endloop
 endfacet
 facet normal -5.389886e-16 -1.000000e+00  5.864618e-17
   outer loop
     vertex -8.655188e-02 -9.375000e-02  3.267500e-02
     vertex -1.640625e-01 -9.375000e-02 -6.796875e-01
     vertex -6.911603e-02 -9.375000e-02 -4.371643e-02
   endloop
 endfacet
 facet normal  0.000000e+00 -1.000000e+00  0.000000e+00
   outer loop
     vertex  7.207656e-02 -9.375000e-02 -4.371643e-02
     vertex  1.480263e-03 -9.375000e-02 -5.291941e-01
     vertex  4.662829e-02 -9.375000e-02 -5.743421e-01
   endloop
 endfacet
 facet normal  0.000000e+00 -1.000000e+00 -0.000000e+00
   outer loop
     vertex  7.207656e-02 -9.375000e-02 -4.371643e-02
     vertex  4.662829e-02 -9.375000e-02 -5.743421e-01
     vertex  1.519737e-01 -9.375000e-02 -6.796875e-01
   endloop
 endfacet
 facet normal  0.000000e+00 -1.000000e+00  0.000000e+00
   outer loop
     vertex  7.207656e-02 -9.375000e-02 -4.371643e-02
     vertex  1.480263e-03 -9.375000e-02 -7.771382e-02
     vertex  1.480263e-03 -9.375000e-02 -5.291941e-01
   endloop
 endfacet
 facet normal  0.000000e+00 -1.000000e+00 -0.000000e+00
   outer loop
     vertex  8.951241e-02 -9.375000e-02  3.267500e-02
     vertex  7.207656e-02 -9.375000e-02 -4.371643e-02
     vertex  1.519737e-01 -9.375000e-02 -6.796875e-01
   endloop
 endfacet
 facet normal  0.000000e+00 -1.000000e+00  0.000000e+00
   outer loop
     vertex -1.640625e-01 -9.375000e-02  6.898026e-01
     vertex -8.655188e-02 -9.375000e-02  3.267500e-02
     vertex -3.769773e-02 -9.375000e-02  9.393617e-02
   endloop
 endfacet
 facet normal  1.771120e-16 -1.000000e+00 -1.414597e-17
   outer loop
     vertex  1.480263e-03 -9.375000e-02  5.844572e-01
     vertex -3.769773e-02 -9.375000e-02  9.393617e-02
     vertex  4.065825e-02 -9.375000e-02  9.393617e-02
   endloop
 endfacet
 facet normal -0.000000e+00 -1.000000e+00  0.000000e+00
   outer loop
     vertex  1.480263e-03 -9.375000e-02  5.844572e-01
     vertex -1.640625e-01 -9.375000e-02  6.898026e-01
     vertex -3.769773e-02 -9.375000e-02  9.393617e-02
   endloop
 endfacet
 facet normal -0.000000e+00 -1.000000e+00 -0.000000e+00
   outer loop
     vertex -4.366776e-02 -9.375000e-02  6.296053e-01
     vertex -1.640625e-01 -9.375000e-02  6.898026e-01
     vertex  1.480263e-03 -9.375000e-02  5.844572e-01
   endloop
 endfacet
 facet normal  0.000000e+00 -1.000000e+00  0.000000e+00
   outer loop
     vertex -1.339638e-01 -9.375000e-02  7.419351e-01
     vertex -1.559976e-01 -9.375000e-02  7.199013e-01
     vertex -1.640625e-01 -9.375000e-02  6.898026e-01
   endloop
 endfacet
 facet normal  0.000000e+00 -1.000000e+00 -0.000000e+00
   outer loop
     vertex -1.038651e-01 -9.375000e-02  7.500000e-01
     vertex -1.640625e-01 -9.375000e-02  6.898026e-01
     vertex -4.366776e-02 -9.375000e-02  6.296053e-01
   endloop
 endfacet
 facet normal  0.000000e+00 -1.000000e+00  0.000000e+00
   outer loop
     vertex -1.038651e-01 -9.375000e-02  7.500000e-01
     vertex -1.339638e-01 -9.375000e-02  7.419351e-01
     vertex -1.640625e-01 -9.375000e-02  6.898026e-01
   endloop
 endfacet
 facet normal -0.000000e+00 -1.000000e+00  0.000000e+00
   outer loop
     vertex  1.480263e-03 -9.375000e-02  6.747533e-01
     vertex -1.038651e-01 -9.375000e-02  7.500000e-01
     vertex -4.366776e-02 -9.375000e-02  6.296053e-01
   endloop
 endfacet
 facet normal  0.000000e+00 -1.000000e+00  0.000000e+00
   outer loop
     vertex  9.177632e-02 -9.375000e-02  7.500000e-01
     vertex  1.480263e-03 -9.375000e-02  6.747533e-01
     vertex  4.662829e-02 -9.375000e-02  6.296053e-01
   endloop
 endfacet
 facet normal -0.000000e+00 -1.000000e+00  0.000000e+00
   outer loop
     vertex  9.177632e-02 -9.375000e-02  7.500000e-01
     vertex -1.038651e-01 -9.375000e-02  7.500000e-01
     vertex  1.480263e-03 -9.375000e-02  6.747533e-01
   endloop
 endfacet
 facet normal -2.538133e-16 -1.000000e+00  2.412546e-17
   outer loop
     vertex  1.519737e-01 -9.375000e-02  6.898026e-01
     vertex  4.065825e-02 -9.375000e-02  9.393617e-02
     vertex  8.951241e-02 -9.375000e-02  3.267500e-02
   endloop
 endfacet
 facet normal  0.000000e+00 -1.000000e+00  0.000000e+00
   outer loop
     vertex  1.519737e-01 -9.375000e-02  6.898026e-01
     vertex  4.662829e-02 -9.375000e-02  6.296053e-01
     vertex  1.480263e-03 -9.375000e-02  5.844572e-01
   endloop
 endfacet
 facet normal  1.875573e-17 -1.000000e+00 -2.679391e-17
   outer loop
     vertex  1.519737e-01 -9.375000e-02  6.898026e-01
     vertex  1.480263e-03 -9.375000e-02  5.844572e-01
     vertex  4.065825e-02 -9.375000e-02  9.393617e-02
   endloop
 endfacet
 facet normal -0.000000e+00 -1.000000e+00  0.000000e+00
   outer loop
     vertex  1.519737e-01 -9.375000e-02  6.898026e-01
     vertex  9.177632e-02 -9.375000e-02  7.500000e-01
     vertex  4.662829e-02 -9.375000e-02  6.296053e-01
   endloop
 endfacet
 facet normal -0.000000e+00 -1.000000e+00 -0.000000e+00
   outer loop
     vertex  1.439088e-01 -9.375000e-02  7.199013e-01
     vertex  9.177632e-02 -9.375000e-02  7.500000e-01
     vertex  1.519737e-01 -9.375000e-02  6.898026e-01
   endloop
 endfacet
 facet normal -0.000000e+00 -1.000000e+00 -0.000000e+00
   outer loop
     vertex  1.218750e-01 -9.375000e-02  7.419351e-01
     vertex  9.177632e-02 -9.375000e-02  7.500000e-01
     vertex  1.439088e-01 -9.375000e-02  7.199013e-01
   endloop
 endfacet
 facet normal  0.000000e+00 -1.000000e+00  0.000000e+00
   outer loop
     vertex  1.519737e-01 -9.375000e-02 -6.796875e-01
     vertex  1.519737e-01 -9.375000e-02  6.898026e-01
     vertex  8.951241e-02 -9.375000e-02  3.267500e-02
   endloop
 endfacet
 facet normal  0.000000e+00 -1.000000e+00  0.000000e+00
   outer loop
     vertex -1.640625e-01 -9.375000e-02  6.898026e-01
     vertex -1.640625e-01 -9.375000e-02 -6.796875e-01
     vertex -8.655188e-02 -9.375000e-02  3.267500e-02
   endloop
 endfacet
endsolid
