solid 
 facet normal  0.000000e+00 -0.000000e+00 -1.000000e+00
   outer loop
     vertex -2.890625e-01 -6.640625e-01  2.890625e-01
     vertex -2.890625e-01 -7.500000e-01  2.890625e-01
     vertex -2.937500e-01 -7.500000e-01  2.890625e-01
   endloop
 endfacet
 facet normal -0.000000e+00  0.000000e+00 -1.000000e+00
   outer loop
     vertex -2.890625e-01 -6.640625e-01  2.890625e-01
     vertex -2.937500e-01 -7.500000e-01  2.890625e-01
     vertex -2.937500e-01 -6.640625e-01  2.890625e-01
   endloop
 endfacet
 facet normal  1.000000e+00  0.000000e+00  0.000000e+00
   outer loop
     vertex -2.890625e-01 -7.322053e-01  3.670260e-01
     vertex -2.890625e-01 -7.500000e-01  2.890625e-01
     vertex -2.890625e-01 -6.640625e-01  2.890625e-01
   endloop
 endfacet
 facet normal  1.000000e+00  0.000000e+00  0.000000e+00
   outer loop
     vertex -2.890625e-01 -6.525491e-01  3.320313e-01
     vertex -2.890625e-01 -7.322053e-01  3.670260e-01
     vertex -2.890625e-01 -6.640625e-01  2.890625e-01
   endloop
 endfacet
 facet normal  1.000000e+00  0.000000e+00  0.000000e+00
   outer loop
     vertex -2.890625e-01 -6.823458e-01  4.295478e-01
     vertex -2.890625e-01 -6.525491e-01  3.320313e-01
     vertex -2.890625e-01 -6.210937e-01  3.634866e-01
   endloop
 endfacet
 facet normal  1.000000e+00  0.000000e+00  0.000000e+00
   outer loop
     vertex -2.890625e-01 -6.823458e-01  4.295478e-01
     vertex -2.890625e-01 -7.322053e-01  3.670260e-01
     vertex -2.890625e-01 -6.525491e-01  3.320313e-01
   endloop
 endfacet
 facet normal  1.000000e+00  0.000000e+00  0.000000e+00
   outer loop
     vertex -2.890625e-01 -5.703125e-01  3.750000e-01
     vertex -2.890625e-01 -5.781250e-01  3.750000e-01
     vertex -2.890625e-01 -5.781250e-01  2.890625e-01
   endloop
 endfacet
 facet normal  1.000000e+00  0.000000e+00  0.000000e+00
   outer loop
     vertex -2.890625e-01 -5.703125e-01  3.750000e-01
     vertex -2.890625e-01 -5.781250e-01  2.890625e-01
     vertex -2.890625e-01 -5.703125e-01  2.890625e-01
   endloop
 endfacet
 facet normal  1.000000e+00  0.000000e+00  0.000000e+00
   outer loop
     vertex -2.890625e-01 -6.102967e-01  4.642449e-01
     vertex -2.890625e-01 -6.210937e-01  3.634866e-01
     vertex -2.890625e-01 -5.781250e-01  3.750000e-01
   endloop
 endfacet
 facet normal  1.000000e+00  0.000000e+00  0.000000e+00
   outer loop
     vertex -2.890625e-01 -6.102967e-01  4.642449e-01
     vertex -2.890625e-01 -6.823458e-01  4.295478e-01
     vertex -2.890625e-01 -6.210937e-01  3.634866e-01
   endloop
 endfacet
 facet normal  1.000000e+00  0.000000e+00  0.000000e+00
   outer loop
     vertex -2.890625e-01 -6.102967e-01  4.642449e-01
     vertex -2.890625e-01 -5.781250e-01  3.750000e-01
     vertex -2.890625e-01 -5.703125e-01  3.750000e-01
   endloop
 endfacet
 facet normal  1.000000e+00  0.000000e+00  0.000000e+00
   outer loop
     vertex -2.890625e-01 -5.303283e-01  4.642449e-01
     vertex -2.890625e-01 -5.703125e-01  3.750000e-01
     vertex -2.890625e-01 -5.273438e-01  3.634866e-01
   endloop
 endfacet
 facet normal  1.000000e+00  0.000000e+00  0.000000e+00
   outer loop
     vertex -2.890625e-01 -5.303283e-01  4.642449e-01
     vertex -2.890625e-01 -6.102967e-01  4.642449e-01
     vertex -2.890625e-01 -5.703125e-01  3.750000e-01
   endloop
 endfacet
 facet normal  1.000000e+00  0.000000e+00  0.000000e+00
   outer loop
     vertex -2.890625e-01 -4.084197e-01  3.670260e-01
     vertex -2.890625e-01 -4.843750e-01  2.890625e-01
     vertex -2.890625e-01 -3.906250e-01  2.890625e-01
   endloop
 endfacet
 facet normal  1.000000e+00  0.000000e+00  0.000000e+00
   outer loop
     vertex -2.890625e-01 -4.084197e-01  3.670260e-01
     vertex -2.890625e-01 -4.958884e-01  3.320312e-01
     vertex -2.890625e-01 -4.843750e-01  2.890625e-01
   endloop
 endfacet
 facet normal  1.000000e+00  0.000000e+00  0.000000e+00
   outer loop
     vertex -2.890625e-01 -4.582792e-01  4.295478e-01
     vertex -2.890625e-01 -5.273438e-01  3.634866e-01
     vertex -2.890625e-01 -4.958884e-01  3.320312e-01
   endloop
 endfacet
 facet normal  1.000000e+00  0.000000e+00  0.000000e+00
   outer loop
     vertex -2.890625e-01 -4.582792e-01  4.295478e-01
     vertex -2.890625e-01 -5.303283e-01  4.642449e-01
     vertex -2.890625e-01 -5.273438e-01  3.634866e-01
   endloop
 endfacet
 facet normal  1.000000e+00  0.000000e+00  0.000000e+00
   outer loop
     vertex -2.890625e-01 -4.582792e-01  4.295478e-01
     vertex -2.890625e-01 -4.958884e-01  3.320312e-01
     vertex -2.890625e-01 -4.084197e-01  3.670260e-01
   endloop
 endfacet
 facet normal  0.000000e+00  2.588190e-01 -9.659258e-01
   outer loop
     vertex -2.890625e-01 -6.210937e-01  3.634866e-01
     vertex -4.296875e-01 -5.781250e-01  3.750000e-01
     vertex -2.890625e-01 -5.781250e-01  3.750000e-01
   endloop
 endfacet
 facet normal  0.000000e+00  2.588190e-01 -9.659258e-01
   outer loop
     vertex -2.890625e-01 -6.210937e-01  3.634866e-01
     vertex -4.296875e-01 -6.210937e-01  3.634866e-01
     vertex -4.296875e-01 -5.781250e-01  3.750000e-01
   endloop
 endfacet
 facet normal  0.000000e+00  7.071068e-01 -7.071068e-01
   outer loop
     vertex -2.890625e-01 -6.525491e-01  3.320313e-01
     vertex -4.296875e-01 -6.525491e-01  3.320313e-01
     vertex -4.296875e-01 -6.210937e-01  3.634866e-01
   endloop
 endfacet
 facet normal  0.000000e+00  7.071068e-01 -7.071068e-01
   outer loop
     vertex -2.890625e-01 -6.525491e-01  3.320313e-01
     vertex -4.296875e-01 -6.210937e-01  3.634866e-01
     vertex -2.890625e-01 -6.210937e-01  3.634866e-01
   endloop
 endfacet
 facet normal  0.000000e+00  9.659258e-01 -2.588190e-01
   outer loop
     vertex -2.937500e-01 -6.640625e-01  2.890625e-01
     vertex -4.296875e-01 -6.640625e-01  2.890625e-01
     vertex -4.296875e-01 -6.525491e-01  3.320313e-01
   endloop
 endfacet
 facet normal  0.000000e+00  9.659258e-01 -2.588190e-01
   outer loop
     vertex -2.937500e-01 -6.640625e-01  2.890625e-01
     vertex -4.296875e-01 -6.525491e-01  3.320313e-01
     vertex -2.890625e-01 -6.525491e-01  3.320313e-01
   endloop
 endfacet
 facet normal  0.000000e+00  9.659258e-01 -2.588190e-01
   outer loop
     vertex -2.890625e-01 -6.640625e-01  2.890625e-01
     vertex -2.937500e-01 -6.640625e-01  2.890625e-01
     vertex -2.890625e-01 -6.525491e-01  3.320313e-01
   endloop
 endfacet
 facet normal  1.000000e+00  0.000000e+00  0.000000e+00
   outer loop
     vertex -2.937500e-01 -6.525491e-01  2.460938e-01
     vertex -2.937500e-01 -6.640625e-01  2.890625e-01
     vertex -2.937500e-01 -7.500000e-01  2.890625e-01
   endloop
 endfacet
 facet normal  1.000000e+00  0.000000e+00  0.000000e+00
   outer loop
     vertex -2.937500e-01 -7.500000e-01  1.250000e-01
     vertex -2.937500e-01 -6.525491e-01  2.460938e-01
     vertex -2.937500e-01 -7.500000e-01  2.890625e-01
   endloop
 endfacet
 facet normal  1.000000e+00  0.000000e+00 -0.000000e+00
   outer loop
     vertex -2.937500e-01 -5.703125e-01  2.812500e-01
     vertex -2.937500e-01 -5.703125e-01  2.890625e-01
     vertex -2.937500e-01 -5.781250e-01  2.890625e-01
   endloop
 endfacet
 facet normal  1.000000e+00  0.000000e+00 -0.000000e+00
   outer loop
     vertex -2.937500e-01 -4.843750e-01  2.812500e-01
     vertex -2.937500e-01 -4.843750e-01  2.890625e-01
     vertex -2.937500e-01 -5.703125e-01  2.890625e-01
   endloop
 endfacet
 facet normal  1.000000e+00  0.000000e+00  0.000000e+00
   outer loop
     vertex -2.937500e-01 -4.843750e-01  2.812500e-01
     vertex -2.937500e-01 -5.703125e-01  2.890625e-01
     vertex -2.937500e-01 -5.703125e-01  2.812500e-01
   endloop
 endfacet
 facet normal  1.000000e+00  0.000000e+00 -0.000000e+00
   outer loop
     vertex -2.937500e-01 -6.406250e-01  1.250000e-01
     vertex -2.937500e-01 -6.210938e-01  2.146384e-01
     vertex -2.937500e-01 -6.525491e-01  2.460938e-01
   endloop
 endfacet
 facet normal  1.000000e+00  0.000000e+00  0.000000e+00
   outer loop
     vertex -2.937500e-01 -6.406250e-01  1.250000e-01
     vertex -2.937500e-01 -5.781250e-01  2.031250e-01
     vertex -2.937500e-01 -6.210938e-01  2.146384e-01
   endloop
 endfacet
 facet normal  1.000000e+00  0.000000e+00  0.000000e+00
   outer loop
     vertex -2.937500e-01 -6.406250e-01  1.250000e-01
     vertex -2.937500e-01 -6.525491e-01  2.460938e-01
     vertex -2.937500e-01 -7.500000e-01  1.250000e-01
   endloop
 endfacet
 facet normal  1.000000e+00  0.000000e+00  0.000000e+00
   outer loop
     vertex -2.937500e-01 -6.406250e-01  1.250000e-01
     vertex -2.937500e-01 -5.703125e-01  1.953125e-01
     vertex -2.937500e-01 -5.781250e-01  2.031250e-01
   endloop
 endfacet
 facet normal  1.000000e+00  0.000000e+00  0.000000e+00
   outer loop
     vertex -2.937500e-01 -3.906250e-01  2.890625e-01
     vertex -2.937500e-01 -4.843750e-01  2.812500e-01
     vertex -2.937500e-01 -4.958884e-01  2.382812e-01
   endloop
 endfacet
 facet normal  1.000000e+00  0.000000e+00  0.000000e+00
   outer loop
     vertex -2.937500e-01 -3.906250e-01  2.890625e-01
     vertex -2.937500e-01 -4.843750e-01  2.890625e-01
     vertex -2.937500e-01 -4.843750e-01  2.812500e-01
   endloop
 endfacet
 facet normal  1.000000e+00  0.000000e+00  0.000000e+00
   outer loop
     vertex -2.937500e-01 -5.000000e-01  1.250000e-01
     vertex -2.937500e-01 -5.273438e-01  2.068259e-01
     vertex -2.937500e-01 -5.703125e-01  1.953125e-01
   endloop
 endfacet
 facet normal  1.000000e+00  0.000000e+00 -0.000000e+00
   outer loop
     vertex -2.937500e-01 -5.000000e-01  1.250000e-01
     vertex -2.937500e-01 -4.958884e-01  2.382812e-01
     vertex -2.937500e-01 -5.273438e-01  2.068259e-01
   endloop
 endfacet
 facet normal  1.000000e+00  0.000000e+00  0.000000e+00
   outer loop
     vertex -2.937500e-01 -5.000000e-01  1.250000e-01
     vertex -2.937500e-01 -5.703125e-01  1.953125e-01
     vertex -2.937500e-01 -6.406250e-01  1.250000e-01
   endloop
 endfacet
 facet normal  1.000000e+00  0.000000e+00  0.000000e+00
   outer loop
     vertex -2.937500e-01 -3.906250e-01  1.250000e-01
     vertex -2.937500e-01 -4.958884e-01  2.382812e-01
     vertex -2.937500e-01 -5.000000e-01  1.250000e-01
   endloop
 endfacet
 facet normal  1.000000e+00  0.000000e+00 -0.000000e+00
   outer loop
     vertex -2.937500e-01 -3.906250e-01  1.250000e-01
     vertex -2.937500e-01 -3.906250e-01  2.890625e-01
     vertex -2.937500e-01 -4.958884e-01  2.382812e-01
   endloop
 endfacet
 facet normal  1.000000e+00  0.000000e+00  0.000000e+00
   outer loop
     vertex -2.937500e-01 -5.781250e-01  2.031250e-01
     vertex -2.937500e-01 -5.703125e-01  2.812500e-01
     vertex -2.937500e-01 -5.781250e-01  2.890625e-01
   endloop
 endfacet
 facet normal  1.000000e+00  0.000000e+00  0.000000e+00
   outer loop
     vertex -2.937500e-01 -5.703125e-01  2.812500e-01
     vertex -2.937500e-01 -5.781250e-01  2.031250e-01
     vertex -2.937500e-01 -5.703125e-01  1.953125e-01
   endloop
 endfacet
 facet normal  0.000000e+00  9.749279e-01  2.225209e-01
   outer loop
     vertex -2.937500e-01 -3.906250e-01  2.890625e-01
     vertex -4.296875e-01 -3.906250e-01  2.890625e-01
     vertex -4.296875e-01 -4.084197e-01  3.670260e-01
   endloop
 endfacet
 facet normal  0.000000e+00  9.749279e-01  2.225209e-01
   outer loop
     vertex -2.890625e-01 -4.084197e-01  3.670260e-01
     vertex -2.890625e-01 -3.906250e-01  2.890625e-01
     vertex -2.937500e-01 -3.906250e-01  2.890625e-01
   endloop
 endfacet
 facet normal  0.000000e+00  9.749279e-01  2.225209e-01
   outer loop
     vertex -2.890625e-01 -4.084197e-01  3.670260e-01
     vertex -2.937500e-01 -3.906250e-01  2.890625e-01
     vertex -4.296875e-01 -4.084197e-01  3.670260e-01
   endloop
 endfacet
 facet normal  0.000000e+00  7.818315e-01  6.234898e-01
   outer loop
     vertex -2.890625e-01 -4.582792e-01  4.295478e-01
     vertex -4.296875e-01 -4.084197e-01  3.670260e-01
     vertex -4.296875e-01 -4.582792e-01  4.295478e-01
   endloop
 endfacet
 facet normal  0.000000e+00  7.818315e-01  6.234898e-01
   outer loop
     vertex -2.890625e-01 -4.582792e-01  4.295478e-01
     vertex -2.890625e-01 -4.084197e-01  3.670260e-01
     vertex -4.296875e-01 -4.084197e-01  3.670260e-01
   endloop
 endfacet
 facet normal  0.000000e+00  4.338837e-01  9.009689e-01
   outer loop
     vertex -2.890625e-01 -5.303283e-01  4.642449e-01
     vertex -4.296875e-01 -4.582792e-01  4.295478e-01
     vertex -4.296875e-01 -5.303283e-01  4.642449e-01
   endloop
 endfacet
 facet normal  0.000000e+00  4.338837e-01  9.009689e-01
   outer loop
     vertex -2.890625e-01 -5.303283e-01  4.642449e-01
     vertex -2.890625e-01 -4.582792e-01  4.295478e-01
     vertex -4.296875e-01 -4.582792e-01  4.295478e-01
   endloop
 endfacet
 facet normal  0.000000e+00  0.000000e+00  1.000000e+00
   outer loop
     vertex -2.890625e-01 -6.102967e-01  4.642449e-01
     vertex -4.296875e-01 -5.303283e-01  4.642449e-01
     vertex -4.296875e-01 -6.102967e-01  4.642449e-01
   endloop
 endfacet
 facet normal  0.000000e+00 -0.000000e+00  1.000000e+00
   outer loop
     vertex -2.890625e-01 -6.102967e-01  4.642449e-01
     vertex -2.890625e-01 -5.303283e-01  4.642449e-01
     vertex -4.296875e-01 -5.303283e-01  4.642449e-01
   endloop
 endfacet
 facet normal  0.000000e+00 -4.338837e-01  9.009689e-01
   outer loop
     vertex -2.890625e-01 -6.823458e-01  4.295478e-01
     vertex -4.296875e-01 -6.102967e-01  4.642449e-01
     vertex -4.296875e-01 -6.823458e-01  4.295478e-01
   endloop
 endfacet
 facet normal  0.000000e+00 -4.338837e-01  9.009689e-01
   outer loop
     vertex -2.890625e-01 -6.823458e-01  4.295478e-01
     vertex -2.890625e-01 -6.102967e-01  4.642449e-01
     vertex -4.296875e-01 -6.102967e-01  4.642449e-01
   endloop
 endfacet
 facet normal  0.000000e+00 -7.818315e-01  6.234898e-01
   outer loop
     vertex -2.890625e-01 -7.322053e-01  3.670260e-01
     vertex -4.296875e-01 -6.823458e-01  4.295478e-01
     vertex -4.296875e-01 -7.322053e-01  3.670260e-01
   endloop
 endfacet
 facet normal  0.000000e+00 -7.818315e-01  6.234898e-01
   outer loop
     vertex -2.890625e-01 -7.322053e-01  3.670260e-01
     vertex -2.890625e-01 -6.823458e-01  4.295478e-01
     vertex -4.296875e-01 -6.823458e-01  4.295478e-01
   endloop
 endfacet
 facet normal  0.000000e+00 -9.749279e-01  2.225209e-01
   outer loop
     vertex -2.937500e-01 -7.500000e-01  2.890625e-01
     vertex -4.296875e-01 -7.322053e-01  3.670260e-01
     vertex -4.296875e-01 -7.500000e-01  2.890625e-01
   endloop
 endfacet
 facet normal  0.000000e+00 -9.749279e-01  2.225209e-01
   outer loop
     vertex -2.937500e-01 -7.500000e-01  2.890625e-01
     vertex -2.890625e-01 -7.322053e-01  3.670260e-01
     vertex -4.296875e-01 -7.322053e-01  3.670260e-01
   endloop
 endfacet
 facet normal  0.000000e+00 -9.749279e-01  2.225209e-01
   outer loop
     vertex -2.890625e-01 -7.500000e-01  2.890625e-01
     vertex -2.890625e-01 -7.322053e-01  3.670260e-01
     vertex -2.937500e-01 -7.500000e-01  2.890625e-01
   endloop
 endfacet
 facet normal  0.000000e+00 -0.000000e+00 -1.000000e+00
   outer loop
     vertex -2.890625e-01 -3.906250e-01  2.890625e-01
     vertex -2.890625e-01 -4.843750e-01  2.890625e-01
     vertex -2.937500e-01 -4.843750e-01  2.890625e-01
   endloop
 endfacet
 facet normal -0.000000e+00  0.000000e+00 -1.000000e+00
   outer loop
     vertex -2.890625e-01 -3.906250e-01  2.890625e-01
     vertex -2.937500e-01 -4.843750e-01  2.890625e-01
     vertex -2.937500e-01 -3.906250e-01  2.890625e-01
   endloop
 endfacet
 facet normal -0.000000e+00 -9.659258e-01 -2.588190e-01
   outer loop
     vertex -2.937500e-01 -4.843750e-01  2.890625e-01
     vertex -4.296875e-01 -4.958884e-01  3.320312e-01
     vertex -4.296875e-01 -4.843750e-01  2.890625e-01
   endloop
 endfacet
 facet normal  0.000000e+00 -9.659258e-01 -2.588190e-01
   outer loop
     vertex -2.890625e-01 -4.958884e-01  3.320312e-01
     vertex -2.937500e-01 -4.843750e-01  2.890625e-01
     vertex -2.890625e-01 -4.843750e-01  2.890625e-01
   endloop
 endfacet
 facet normal -0.000000e+00 -9.659258e-01 -2.588190e-01
   outer loop
     vertex -2.890625e-01 -4.958884e-01  3.320312e-01
     vertex -4.296875e-01 -4.958884e-01  3.320312e-01
     vertex -2.937500e-01 -4.843750e-01  2.890625e-01
   endloop
 endfacet
 facet normal -0.000000e+00 -7.071068e-01 -7.071068e-01
   outer loop
     vertex -2.890625e-01 -5.273438e-01  3.634866e-01
     vertex -4.296875e-01 -5.273438e-01  3.634866e-01
     vertex -4.296875e-01 -4.958884e-01  3.320312e-01
   endloop
 endfacet
 facet normal  0.000000e+00 -7.071068e-01 -7.071068e-01
   outer loop
     vertex -2.890625e-01 -5.273438e-01  3.634866e-01
     vertex -4.296875e-01 -4.958884e-01  3.320312e-01
     vertex -2.890625e-01 -4.958884e-01  3.320312e-01
   endloop
 endfacet
 facet normal -0.000000e+00 -2.588190e-01 -9.659258e-01
   outer loop
     vertex -2.890625e-01 -5.703125e-01  3.750000e-01
     vertex -4.296875e-01 -5.703125e-01  3.750000e-01
     vertex -4.296875e-01 -5.273438e-01  3.634866e-01
   endloop
 endfacet
 facet normal  0.000000e+00 -2.588190e-01 -9.659258e-01
   outer loop
     vertex -2.890625e-01 -5.703125e-01  3.750000e-01
     vertex -4.296875e-01 -5.273438e-01  3.634866e-01
     vertex -2.890625e-01 -5.273438e-01  3.634866e-01
   endloop
 endfacet
 facet normal  0.000000e+00  1.000000e+00 -0.000000e+00
   outer loop
     vertex -2.937500e-01 -5.703125e-01  2.890625e-01
     vertex -4.296875e-01 -5.703125e-01  3.750000e-01
     vertex -2.890625e-01 -5.703125e-01  3.750000e-01
   endloop
 endfacet
 facet normal  0.000000e+00  1.000000e+00  0.000000e+00
   outer loop
     vertex -2.937500e-01 -5.703125e-01  2.890625e-01
     vertex -4.296875e-01 -5.703125e-01  2.890625e-01
     vertex -4.296875e-01 -5.703125e-01  3.750000e-01
   endloop
 endfacet
 facet normal  0.000000e+00  1.000000e+00 -0.000000e+00
   outer loop
     vertex -2.890625e-01 -5.703125e-01  2.890625e-01
     vertex -2.937500e-01 -5.703125e-01  2.890625e-01
     vertex -2.890625e-01 -5.703125e-01  3.750000e-01
   endloop
 endfacet
 facet normal  0.000000e+00 -0.000000e+00 -1.000000e+00
   outer loop
     vertex -2.890625e-01 -5.703125e-01  2.890625e-01
     vertex -2.890625e-01 -5.781250e-01  2.890625e-01
     vertex -2.937500e-01 -5.781250e-01  2.890625e-01
   endloop
 endfacet
 facet normal -0.000000e+00  0.000000e+00 -1.000000e+00
   outer loop
     vertex -2.890625e-01 -5.703125e-01  2.890625e-01
     vertex -2.937500e-01 -5.781250e-01  2.890625e-01
     vertex -2.937500e-01 -5.703125e-01  2.890625e-01
   endloop
 endfacet
 facet normal  0.000000e+00 -1.000000e+00  0.000000e+00
   outer loop
     vertex -2.937500e-01 -5.781250e-01  2.890625e-01
     vertex -4.296875e-01 -5.781250e-01  3.750000e-01
     vertex -4.296875e-01 -5.781250e-01  2.890625e-01
   endloop
 endfacet
 facet normal  0.000000e+00 -1.000000e+00 -0.000000e+00
   outer loop
     vertex -2.890625e-01 -5.781250e-01  3.750000e-01
     vertex -2.937500e-01 -5.781250e-01  2.890625e-01
     vertex -2.890625e-01 -5.781250e-01  2.890625e-01
   endloop
 endfacet
 facet normal -0.000000e+00 -1.000000e+00  0.000000e+00
   outer loop
     vertex -2.890625e-01 -5.781250e-01  3.750000e-01
     vertex -4.296875e-01 -5.781250e-01  3.750000e-01
     vertex -2.937500e-01 -5.781250e-01  2.890625e-01
   endloop
 endfacet
 facet normal  0.000000e+00  9.659258e-01  2.588190e-01
   outer loop
     vertex -4.375000e-01 -6.525491e-01  2.460938e-01
     vertex -4.375000e-01 -6.640625e-01  2.890625e-01
     vertex -4.296875e-01 -6.640625e-01  2.890625e-01
   endloop
 endfacet
 facet normal  0.000000e+00  9.659258e-01  2.588190e-01
   outer loop
     vertex -2.937500e-01 -6.525491e-01  2.460938e-01
     vertex -4.296875e-01 -6.640625e-01  2.890625e-01
     vertex -2.937500e-01 -6.640625e-01  2.890625e-01
   endloop
 endfacet
 facet normal  0.000000e+00  9.659258e-01  2.588190e-01
   outer loop
     vertex -2.937500e-01 -6.525491e-01  2.460938e-01
     vertex -4.375000e-01 -6.525491e-01  2.460938e-01
     vertex -4.296875e-01 -6.640625e-01  2.890625e-01
   endloop
 endfacet
 facet normal  0.000000e+00  7.071068e-01  7.071068e-01
   outer loop
     vertex -2.937500e-01 -6.210938e-01  2.146384e-01
     vertex -4.375000e-01 -6.210938e-01  2.146384e-01
     vertex -4.375000e-01 -6.525491e-01  2.460938e-01
   endloop
 endfacet
 facet normal  0.000000e+00  7.071068e-01  7.071068e-01
   outer loop
     vertex -2.937500e-01 -6.210938e-01  2.146384e-01
     vertex -4.375000e-01 -6.525491e-01  2.460938e-01
     vertex -2.937500e-01 -6.525491e-01  2.460938e-01
   endloop
 endfacet
 facet normal  0.000000e+00  2.588190e-01  9.659258e-01
   outer loop
     vertex -2.937500e-01 -5.781250e-01  2.031250e-01
     vertex -4.375000e-01 -5.781250e-01  2.031250e-01
     vertex -4.375000e-01 -6.210938e-01  2.146384e-01
   endloop
 endfacet
 facet normal  0.000000e+00  2.588190e-01  9.659258e-01
   outer loop
     vertex -2.937500e-01 -5.781250e-01  2.031250e-01
     vertex -4.375000e-01 -6.210938e-01  2.146384e-01
     vertex -2.937500e-01 -6.210938e-01  2.146384e-01
   endloop
 endfacet
 facet normal -1.000000e+00  0.000000e+00 -0.000000e+00
   outer loop
     vertex -4.296875e-01 -7.322053e-01  3.670260e-01
     vertex -4.296875e-01 -6.640625e-01  2.890625e-01
     vertex -4.296875e-01 -7.500000e-01  2.890625e-01
   endloop
 endfacet
 facet normal -1.000000e+00 -0.000000e+00  0.000000e+00
   outer loop
     vertex -4.296875e-01 -6.525491e-01  3.320313e-01
     vertex -4.296875e-01 -6.640625e-01  2.890625e-01
     vertex -4.296875e-01 -7.322053e-01  3.670260e-01
   endloop
 endfacet
 facet normal -1.000000e+00  0.000000e+00  0.000000e+00
   outer loop
     vertex -4.296875e-01 -6.823458e-01  4.295478e-01
     vertex -4.296875e-01 -6.210937e-01  3.634866e-01
     vertex -4.296875e-01 -6.525491e-01  3.320313e-01
   endloop
 endfacet
 facet normal -1.000000e+00  0.000000e+00 -0.000000e+00
   outer loop
     vertex -4.296875e-01 -6.823458e-01  4.295478e-01
     vertex -4.296875e-01 -6.525491e-01  3.320313e-01
     vertex -4.296875e-01 -7.322053e-01  3.670260e-01
   endloop
 endfacet
 facet normal -1.000000e+00 -0.000000e+00  0.000000e+00
   outer loop
     vertex -4.296875e-01 -5.703125e-01  3.750000e-01
     vertex -4.296875e-01 -5.781250e-01  2.890625e-01
     vertex -4.296875e-01 -5.781250e-01  3.750000e-01
   endloop
 endfacet
 facet normal -1.000000e+00  0.000000e+00 -0.000000e+00
   outer loop
     vertex -4.296875e-01 -5.703125e-01  3.750000e-01
     vertex -4.296875e-01 -5.703125e-01  2.890625e-01
     vertex -4.296875e-01 -5.781250e-01  2.890625e-01
   endloop
 endfacet
 facet normal -1.000000e+00  0.000000e+00 -0.000000e+00
   outer loop
     vertex -4.296875e-01 -6.102967e-01  4.642449e-01
     vertex -4.296875e-01 -5.781250e-01  3.750000e-01
     vertex -4.296875e-01 -6.210937e-01  3.634866e-01
   endloop
 endfacet
 facet normal -1.000000e+00  0.000000e+00  0.000000e+00
   outer loop
     vertex -4.296875e-01 -6.102967e-01  4.642449e-01
     vertex -4.296875e-01 -6.210937e-01  3.634866e-01
     vertex -4.296875e-01 -6.823458e-01  4.295478e-01
   endloop
 endfacet
 facet normal -1.000000e+00  0.000000e+00  0.000000e+00
   outer loop
     vertex -4.296875e-01 -6.102967e-01  4.642449e-01
     vertex -4.296875e-01 -5.703125e-01  3.750000e-01
     vertex -4.296875e-01 -5.781250e-01  3.750000e-01
   endloop
 endfacet
 facet normal -1.000000e+00  0.000000e+00 -0.000000e+00
   outer loop
     vertex -4.296875e-01 -5.303283e-01  4.642449e-01
     vertex -4.296875e-01 -5.273438e-01  3.634866e-01
     vertex -4.296875e-01 -5.703125e-01  3.750000e-01
   endloop
 endfacet
 facet normal -1.000000e+00 -0.000000e+00  0.000000e+00
   outer loop
     vertex -4.296875e-01 -5.303283e-01  4.642449e-01
     vertex -4.296875e-01 -5.703125e-01  3.750000e-01
     vertex -4.296875e-01 -6.102967e-01  4.642449e-01
   endloop
 endfacet
 facet normal -1.000000e+00  0.000000e+00 -0.000000e+00
   outer loop
     vertex -4.296875e-01 -4.084197e-01  3.670260e-01
     vertex -4.296875e-01 -3.906250e-01  2.890625e-01
     vertex -4.296875e-01 -4.843750e-01  2.890625e-01
   endloop
 endfacet
 facet normal -1.000000e+00  0.000000e+00  0.000000e+00
   outer loop
     vertex -4.296875e-01 -4.084197e-01  3.670260e-01
     vertex -4.296875e-01 -4.843750e-01  2.890625e-01
     vertex -4.296875e-01 -4.958884e-01  3.320312e-01
   endloop
 endfacet
 facet normal -1.000000e+00  0.000000e+00  0.000000e+00
   outer loop
     vertex -4.296875e-01 -4.582792e-01  4.295478e-01
     vertex -4.296875e-01 -4.958884e-01  3.320312e-01
     vertex -4.296875e-01 -5.273438e-01  3.634866e-01
   endloop
 endfacet
 facet normal -1.000000e+00 -0.000000e+00  0.000000e+00
   outer loop
     vertex -4.296875e-01 -4.582792e-01  4.295478e-01
     vertex -4.296875e-01 -5.273438e-01  3.634866e-01
     vertex -4.296875e-01 -5.303283e-01  4.642449e-01
   endloop
 endfacet
 facet normal -1.000000e+00  0.000000e+00 -0.000000e+00
   outer loop
     vertex -4.296875e-01 -4.582792e-01  4.295478e-01
     vertex -4.296875e-01 -4.084197e-01  3.670260e-01
     vertex -4.296875e-01 -4.958884e-01  3.320312e-01
   endloop
 endfacet
 facet normal  0.000000e+00  0.000000e+00 -1.000000e+00
   outer loop
     vertex -2.937500e-01 -7.500000e-01  1.250000e-01
     vertex -4.375000e-01 -7.500000e-01  1.250000e-01
     vertex -4.296875e-01 -6.406250e-01  1.250000e-01
   endloop
 endfacet
 facet normal -0.000000e+00 -0.000000e+00 -1.000000e+00
   outer loop
     vertex -2.937500e-01 -6.406250e-01  1.250000e-01
     vertex -2.937500e-01 -7.500000e-01  1.250000e-01
     vertex -4.296875e-01 -6.406250e-01  1.250000e-01
   endloop
 endfacet
 facet normal  0.000000e+00 -0.000000e+00 -1.000000e+00
   outer loop
     vertex -2.937500e-01 -3.906250e-01  1.250000e-01
     vertex -2.937500e-01 -5.000000e-01  1.250000e-01
     vertex -4.296875e-01 -5.000000e-01  1.250000e-01
   endloop
 endfacet
 facet normal -0.000000e+00  0.000000e+00 -1.000000e+00
   outer loop
     vertex -2.937500e-01 -3.906250e-01  1.250000e-01
     vertex -4.296875e-01 -5.000000e-01  1.250000e-01
     vertex -4.375000e-01 -3.906250e-01  1.250000e-01
   endloop
 endfacet
 facet normal  0.000000e+00  0.000000e+00 -1.000000e+00
   outer loop
     vertex -4.375000e-01 -3.906250e-01  1.250000e-01
     vertex -4.296875e-01 -6.406250e-01  1.250000e-01
     vertex -4.375000e-01 -7.500000e-01  1.250000e-01
   endloop
 endfacet
 facet normal  0.000000e+00  0.000000e+00 -1.000000e+00
   outer loop
     vertex -4.375000e-01 -3.906250e-01  1.250000e-01
     vertex -4.296875e-01 -5.000000e-01  1.250000e-01
     vertex -4.296875e-01 -6.406250e-01  1.250000e-01
   endloop
 endfacet
 facet normal  0.000000e+00 -1.000000e+00  0.000000e+00
   outer loop
     vertex -4.375000e-01 -7.500000e-01  1.250000e-01
     vertex -4.296875e-01 -7.500000e-01  2.890625e-01
     vertex -4.375000e-01 -7.500000e-01  2.890625e-01
   endloop
 endfacet
 facet normal  0.000000e+00 -1.000000e+00  0.000000e+00
   outer loop
     vertex -2.937500e-01 -7.500000e-01  1.250000e-01
     vertex -2.937500e-01 -7.500000e-01  2.890625e-01
     vertex -4.296875e-01 -7.500000e-01  2.890625e-01
   endloop
 endfacet
 facet normal  0.000000e+00 -1.000000e+00  0.000000e+00
   outer loop
     vertex -2.937500e-01 -7.500000e-01  1.250000e-01
     vertex -4.296875e-01 -7.500000e-01  2.890625e-01
     vertex -4.375000e-01 -7.500000e-01  1.250000e-01
   endloop
 endfacet
 facet normal  0.000000e+00 -0.000000e+00  1.000000e+00
   outer loop
     vertex -2.890625e-01 -6.406250e-01  1.250000e-01
     vertex -2.890625e-01 -5.000000e-01  1.250000e-01
     vertex -2.937500e-01 -5.000000e-01  1.250000e-01
   endloop
 endfacet
 facet normal  0.000000e+00  0.000000e+00  1.000000e+00
   outer loop
     vertex -2.890625e-01 -6.406250e-01  1.250000e-01
     vertex -2.937500e-01 -5.000000e-01  1.250000e-01
     vertex -2.937500e-01 -6.406250e-01  1.250000e-01
   endloop
 endfacet
 facet normal  0.000000e+00  1.000000e+00 -0.000000e+00
   outer loop
     vertex -2.937500e-01 -3.906250e-01  1.250000e-01
     vertex -4.296875e-01 -3.906250e-01  2.890625e-01
     vertex -2.937500e-01 -3.906250e-01  2.890625e-01
   endloop
 endfacet
 facet normal  0.000000e+00  1.000000e+00  0.000000e+00
   outer loop
     vertex -4.375000e-01 -3.906250e-01  1.250000e-01
     vertex -4.375000e-01 -3.906250e-01  2.890625e-01
     vertex -4.296875e-01 -3.906250e-01  2.890625e-01
   endloop
 endfacet
 facet normal  0.000000e+00  1.000000e+00  0.000000e+00
   outer loop
     vertex -4.375000e-01 -3.906250e-01  1.250000e-01
     vertex -4.296875e-01 -3.906250e-01  2.890625e-01
     vertex -2.937500e-01 -3.906250e-01  1.250000e-01
   endloop
 endfacet
 facet normal -0.000000e+00 -1.000000e+00  0.000000e+00
   outer loop
     vertex -4.296875e-01 -5.781250e-01  2.890625e-01
     vertex -4.375000e-01 -5.781250e-01  2.890625e-01
     vertex -4.375000e-01 -5.781250e-01  2.031250e-01
   endloop
 endfacet
 facet normal  0.000000e+00 -1.000000e+00  0.000000e+00
   outer loop
     vertex -2.937500e-01 -5.781250e-01  2.031250e-01
     vertex -4.296875e-01 -5.781250e-01  2.890625e-01
     vertex -4.375000e-01 -5.781250e-01  2.031250e-01
   endloop
 endfacet
 facet normal -0.000000e+00 -1.000000e+00 -0.000000e+00
   outer loop
     vertex -2.937500e-01 -5.781250e-01  2.890625e-01
     vertex -4.296875e-01 -5.781250e-01  2.890625e-01
     vertex -2.937500e-01 -5.781250e-01  2.031250e-01
   endloop
 endfacet
 facet normal  0.000000e+00  0.000000e+00  1.000000e+00
   outer loop
     vertex -2.937500e-01 -4.843750e-01  2.890625e-01
     vertex -4.296875e-01 -5.703125e-01  2.890625e-01
     vertex -2.937500e-01 -5.703125e-01  2.890625e-01
   endloop
 endfacet
 facet normal  0.000000e+00  0.000000e+00  1.000000e+00
   outer loop
     vertex -2.937500e-01 -4.843750e-01  2.890625e-01
     vertex -4.296875e-01 -4.843750e-01  2.890625e-01
     vertex -4.296875e-01 -5.703125e-01  2.890625e-01
   endloop
 endfacet
 facet normal  0.000000e+00  1.000000e+00 -0.000000e+00
   outer loop
     vertex -2.937500e-01 -5.703125e-01  1.953125e-01
     vertex -4.375000e-01 -5.703125e-01  2.812500e-01
     vertex -2.937500e-01 -5.703125e-01  2.812500e-01
   endloop
 endfacet
 facet normal  0.000000e+00  1.000000e+00  0.000000e+00
   outer loop
     vertex -2.937500e-01 -5.703125e-01  1.953125e-01
     vertex -4.375000e-01 -5.703125e-01  1.953125e-01
     vertex -4.375000e-01 -5.703125e-01  2.812500e-01
   endloop
 endfacet
 facet normal  0.000000e+00  0.000000e+00 -1.000000e+00
   outer loop
     vertex -2.937500e-01 -5.703125e-01  2.812500e-01
     vertex -4.375000e-01 -4.843750e-01  2.812500e-01
     vertex -2.937500e-01 -4.843750e-01  2.812500e-01
   endloop
 endfacet
 facet normal  0.000000e+00  0.000000e+00 -1.000000e+00
   outer loop
     vertex -2.937500e-01 -5.703125e-01  2.812500e-01
     vertex -4.375000e-01 -5.703125e-01  2.812500e-01
     vertex -4.375000e-01 -4.843750e-01  2.812500e-01
   endloop
 endfacet
 facet normal  0.000000e+00 -2.588190e-01  9.659258e-01
   outer loop
     vertex -2.937500e-01 -5.273438e-01  2.068259e-01
     vertex -4.375000e-01 -5.703125e-01  1.953125e-01
     vertex -2.937500e-01 -5.703125e-01  1.953125e-01
   endloop
 endfacet
 facet normal  0.000000e+00 -2.588190e-01  9.659258e-01
   outer loop
     vertex -2.937500e-01 -5.273438e-01  2.068259e-01
     vertex -4.375000e-01 -5.273438e-01  2.068259e-01
     vertex -4.375000e-01 -5.703125e-01  1.953125e-01
   endloop
 endfacet
 facet normal  0.000000e+00 -7.071068e-01  7.071068e-01
   outer loop
     vertex -2.937500e-01 -4.958884e-01  2.382812e-01
     vertex -4.375000e-01 -4.958884e-01  2.382812e-01
     vertex -4.375000e-01 -5.273438e-01  2.068259e-01
   endloop
 endfacet
 facet normal  0.000000e+00 -7.071068e-01  7.071068e-01
   outer loop
     vertex -2.937500e-01 -4.958884e-01  2.382812e-01
     vertex -4.375000e-01 -5.273438e-01  2.068259e-01
     vertex -2.937500e-01 -5.273438e-01  2.068259e-01
   endloop
 endfacet
 facet normal  0.000000e+00 -9.659258e-01  2.588190e-01
   outer loop
     vertex -2.937500e-01 -4.843750e-01  2.812500e-01
     vertex -4.375000e-01 -4.843750e-01  2.812500e-01
     vertex -4.375000e-01 -4.958884e-01  2.382812e-01
   endloop
 endfacet
 facet normal  0.000000e+00 -9.659258e-01  2.588190e-01
   outer loop
     vertex -2.937500e-01 -4.843750e-01  2.812500e-01
     vertex -4.375000e-01 -4.958884e-01  2.382812e-01
     vertex -2.937500e-01 -4.958884e-01  2.382812e-01
   endloop
 endfacet
 facet normal -1.000000e+00  0.000000e+00  0.000000e+00
   outer loop
     vertex -4.375000e-01 -4.843750e-01  2.812500e-01
     vertex -4.375000e-01 -4.843750e-01  2.890625e-01
     vertex -4.375000e-01 -3.906250e-01  2.890625e-01
   endloop
 endfacet
 facet normal -1.000000e+00  0.000000e+00  0.000000e+00
   outer loop
     vertex -4.375000e-01 -4.958884e-01  2.382812e-01
     vertex -4.375000e-01 -4.843750e-01  2.812500e-01
     vertex -4.375000e-01 -3.906250e-01  2.890625e-01
   endloop
 endfacet
 facet normal -1.000000e+00  0.000000e+00  0.000000e+00
   outer loop
     vertex -4.375000e-01 -3.906250e-01  1.250000e-01
     vertex -4.375000e-01 -4.958884e-01  2.382812e-01
     vertex -4.375000e-01 -3.906250e-01  2.890625e-01
   endloop
 endfacet
 facet normal -1.000000e+00  0.000000e+00  0.000000e+00
   outer loop
     vertex -4.375000e-01 -5.703125e-01  2.812500e-01
     vertex -4.375000e-01 -5.703125e-01  2.890625e-01
     vertex -4.375000e-01 -4.843750e-01  2.890625e-01
   endloop
 endfacet
 facet normal -1.000000e+00  0.000000e+00  0.000000e+00
   outer loop
     vertex -4.375000e-01 -5.703125e-01  2.812500e-01
     vertex -4.375000e-01 -4.843750e-01  2.890625e-01
     vertex -4.375000e-01 -4.843750e-01  2.812500e-01
   endloop
 endfacet
 facet normal -1.000000e+00  0.000000e+00  0.000000e+00
   outer loop
     vertex -4.375000e-01 -5.781250e-01  2.890625e-01
     vertex -4.375000e-01 -5.703125e-01  2.890625e-01
     vertex -4.375000e-01 -5.703125e-01  2.812500e-01
   endloop
 endfacet
 facet normal -1.000000e+00  0.000000e+00  0.000000e+00
   outer loop
     vertex -4.375000e-01 -5.273438e-01  2.068259e-01
     vertex -4.375000e-01 -4.958884e-01  2.382812e-01
     vertex -4.375000e-01 -3.906250e-01  1.250000e-01
   endloop
 endfacet
 facet normal -1.000000e+00  0.000000e+00  0.000000e+00
   outer loop
     vertex -4.375000e-01 -5.703125e-01  1.953125e-01
     vertex -4.375000e-01 -5.273438e-01  2.068259e-01
     vertex -4.375000e-01 -3.906250e-01  1.250000e-01
   endloop
 endfacet
 facet normal -1.000000e+00  0.000000e+00  0.000000e+00
   outer loop
     vertex -4.375000e-01 -6.210938e-01  2.146384e-01
     vertex -4.375000e-01 -5.781250e-01  2.031250e-01
     vertex -4.375000e-01 -5.703125e-01  1.953125e-01
   endloop
 endfacet
 facet normal -1.000000e+00  0.000000e+00  0.000000e+00
   outer loop
     vertex -4.375000e-01 -7.500000e-01  2.890625e-01
     vertex -4.375000e-01 -6.640625e-01  2.890625e-01
     vertex -4.375000e-01 -6.525491e-01  2.460938e-01
   endloop
 endfacet
 facet normal -1.000000e+00  0.000000e+00  0.000000e+00
   outer loop
     vertex -4.375000e-01 -7.500000e-01  1.250000e-01
     vertex -4.375000e-01 -6.525491e-01  2.460938e-01
     vertex -4.375000e-01 -6.210938e-01  2.146384e-01
   endloop
 endfacet
 facet normal -1.000000e+00  0.000000e+00  0.000000e+00
   outer loop
     vertex -4.375000e-01 -7.500000e-01  1.250000e-01
     vertex -4.375000e-01 -7.500000e-01  2.890625e-01
     vertex -4.375000e-01 -6.525491e-01  2.460938e-01
   endloop
 endfacet
 facet normal -1.000000e+00  0.000000e+00  0.000000e+00
   outer loop
     vertex -4.375000e-01 -7.500000e-01  1.250000e-01
     vertex -4.375000e-01 -6.210938e-01  2.146384e-01
     vertex -4.375000e-01 -5.703125e-01  1.953125e-01
   endloop
 endfacet
 facet normal -1.000000e+00  0.000000e+00  0.000000e+00
   outer loop
     vertex -4.375000e-01 -7.500000e-01  1.250000e-01
     vertex -4.375000e-01 -5.703125e-01  1.953125e-01
     vertex -4.375000e-01 -3.906250e-01  1.250000e-01
   endloop
 endfacet
 facet normal -1.000000e+00  0.000000e+00  0.000000e+00
   outer loop
     vertex -4.375000e-01 -5.781250e-01  2.890625e-01
     vertex -4.375000e-01 -5.703125e-01  2.812500e-01
     vertex -4.375000e-01 -5.781250e-01  2.031250e-01
   endloop
 endfacet
 facet normal -1.000000e+00  0.000000e+00  0.000000e+00
   outer loop
     vertex -4.375000e-01 -5.703125e-01  1.953125e-01
     vertex -4.375000e-01 -5.781250e-01  2.031250e-01
     vertex -4.375000e-01 -5.703125e-01  2.812500e-01
   endloop
 endfacet
 facet normal  0.000000e+00  0.000000e+00  1.000000e+00
   outer loop
     vertex -4.296875e-01 -6.640625e-01  2.890625e-01
     vertex -4.375000e-01 -6.640625e-01  2.890625e-01
     vertex -4.375000e-01 -7.500000e-01  2.890625e-01
   endloop
 endfacet
 facet normal  0.000000e+00  0.000000e+00  1.000000e+00
   outer loop
     vertex -4.296875e-01 -6.640625e-01  2.890625e-01
     vertex -4.375000e-01 -7.500000e-01  2.890625e-01
     vertex -4.296875e-01 -7.500000e-01  2.890625e-01
   endloop
 endfacet
 facet normal  0.000000e+00  0.000000e+00  1.000000e+00
   outer loop
     vertex -4.296875e-01 -3.906250e-01  2.890625e-01
     vertex -4.375000e-01 -3.906250e-01  2.890625e-01
     vertex -4.375000e-01 -4.843750e-01  2.890625e-01
   endloop
 endfacet
 facet normal  0.000000e+00  0.000000e+00  1.000000e+00
   outer loop
     vertex -4.296875e-01 -3.906250e-01  2.890625e-01
     vertex -4.375000e-01 -4.843750e-01  2.890625e-01
     vertex -4.296875e-01 -4.843750e-01  2.890625e-01
   endloop
 endfacet
 facet normal  0.000000e+00  0.000000e+00  1.000000e+00
   outer loop
     vertex -4.296875e-01 -5.703125e-01  2.890625e-01
     vertex -4.375000e-01 -5.703125e-01  2.890625e-01
     vertex -4.375000e-01 -5.781250e-01  2.890625e-01
   endloop
 endfacet
 facet normal  0.000000e+00  0.000000e+00  1.000000e+00
   outer loop
     vertex -4.296875e-01 -5.703125e-01  2.890625e-01
     vertex -4.375000e-01 -5.781250e-01  2.890625e-01
     vertex -4.296875e-01 -5.781250e-01  2.890625e-01
   endloop
 endfacet
 facet normal  3.917253e-05  3.867332e-01 -9.221916e-01
   outer loop
     vertex -2.937500e-01 -5.000000e-01  1.250000e-01
     vertex -4.296875e-01 -5.015550e-01  1.243421e-01
     vertex -4.296875e-01 -5.010360e-01  1.245598e-01
   endloop
 endfacet
 facet normal  1.305755e-05  3.896397e-01 -9.209674e-01
   outer loop
     vertex -2.937500e-01 -5.000000e-01  1.250000e-01
     vertex -4.296875e-01 -5.010360e-01  1.245598e-01
     vertex -4.296875e-01 -5.005176e-01  1.247791e-01
   endloop
 endfacet
 facet normal  0.000000e+00  3.925422e-01 -9.197340e-01
   outer loop
     vertex -2.937500e-01 -5.000000e-01  1.250000e-01
     vertex -4.296875e-01 -5.005176e-01  1.247791e-01
     vertex -4.296875e-01 -5.000000e-01  1.250000e-01
   endloop
 endfacet
 facet normal -1.136003e-03  3.867330e-01 -9.221910e-01
   outer loop
     vertex -2.890625e-01 -5.010360e-01  1.245598e-01
     vertex -2.890625e-01 -5.015550e-01  1.243421e-01
     vertex -2.937500e-01 -5.000000e-01  1.250000e-01
   endloop
 endfacet
 facet normal -3.786691e-04  3.896396e-01 -9.209673e-01
   outer loop
     vertex -2.890625e-01 -5.005176e-01  1.247791e-01
     vertex -2.890625e-01 -5.010360e-01  1.245598e-01
     vertex -2.937500e-01 -5.000000e-01  1.250000e-01
   endloop
 endfacet
 facet normal  0.000000e+00  3.925422e-01 -9.197340e-01
   outer loop
     vertex -2.890625e-01 -5.000000e-01  1.250000e-01
     vertex -2.890625e-01 -5.005176e-01  1.247791e-01
     vertex -2.937500e-01 -5.000000e-01  1.250000e-01
   endloop
 endfacet
 facet normal  0.000000e+00  3.896397e-01 -9.209674e-01
   outer loop
     vertex -2.890625e-01 -5.015550e-01  1.243421e-01
     vertex -4.296875e-01 -5.015550e-01  1.243421e-01
     vertex -2.937500e-01 -5.000000e-01  1.250000e-01
   endloop
 endfacet
 facet normal -1.000000e+00 -0.000000e+00  0.000000e+00
   outer loop
     vertex -4.296875e-01 -5.000000e-01  1.250000e-01
     vertex -4.296875e-01 -5.005176e-01  1.247791e-01
     vertex -4.296875e-01 -6.406250e-01  1.250000e-01
   endloop
 endfacet
 facet normal -1.000000e+00 -0.000000e+00  0.000000e+00
   outer loop
     vertex -4.296875e-01 -5.005176e-01  1.247791e-01
     vertex -4.296875e-01 -5.010360e-01  1.245598e-01
     vertex -4.296875e-01 -6.406250e-01  1.250000e-01
   endloop
 endfacet
 facet normal -1.000000e+00 -0.000000e+00  0.000000e+00
   outer loop
     vertex -4.296875e-01 -5.010360e-01  1.245598e-01
     vertex -4.296875e-01 -5.015550e-01  1.243421e-01
     vertex -4.296875e-01 -6.406250e-01  1.250000e-01
   endloop
 endfacet
 facet normal -1.000000e+00  0.000000e+00  0.000000e+00
   outer loop
     vertex -4.296875e-01 -5.015550e-01  1.243421e-01
     vertex -4.296875e-01 -6.401074e-01  1.247791e-01
     vertex -4.296875e-01 -6.406250e-01  1.250000e-01
   endloop
 endfacet
 facet normal -1.000000e+00  0.000000e+00  0.000000e+00
   outer loop
     vertex -4.296875e-01 -5.015550e-01  1.243421e-01
     vertex -4.296875e-01 -6.395890e-01  1.245598e-01
     vertex -4.296875e-01 -6.401074e-01  1.247791e-01
   endloop
 endfacet
 facet normal -1.000000e+00  0.000000e+00  0.000000e+00
   outer loop
     vertex -4.296875e-01 -5.015550e-01  1.243421e-01
     vertex -4.296875e-01 -6.390700e-01  1.243421e-01
     vertex -4.296875e-01 -6.395890e-01  1.245598e-01
   endloop
 endfacet
 facet normal -0.000000e+00 -3.925422e-01 -9.197340e-01
   outer loop
     vertex -2.937500e-01 -6.406250e-01  1.250000e-01
     vertex -4.296875e-01 -6.406250e-01  1.250000e-01
     vertex -4.296875e-01 -6.401074e-01  1.247791e-01
   endloop
 endfacet
 facet normal  1.305755e-05 -3.896397e-01 -9.209674e-01
   outer loop
     vertex -2.937500e-01 -6.406250e-01  1.250000e-01
     vertex -4.296875e-01 -6.401074e-01  1.247791e-01
     vertex -4.296875e-01 -6.395890e-01  1.245598e-01
   endloop
 endfacet
 facet normal  3.917253e-05 -3.867332e-01 -9.221916e-01
   outer loop
     vertex -2.937500e-01 -6.406250e-01  1.250000e-01
     vertex -4.296875e-01 -6.395890e-01  1.245598e-01
     vertex -4.296875e-01 -6.390700e-01  1.243421e-01
   endloop
 endfacet
 facet normal  0.000000e+00 -3.925422e-01 -9.197340e-01
   outer loop
     vertex -2.890625e-01 -6.401074e-01  1.247791e-01
     vertex -2.890625e-01 -6.406250e-01  1.250000e-01
     vertex -2.937500e-01 -6.406250e-01  1.250000e-01
   endloop
 endfacet
 facet normal -3.786691e-04 -3.896396e-01 -9.209673e-01
   outer loop
     vertex -2.890625e-01 -6.395890e-01  1.245598e-01
     vertex -2.890625e-01 -6.401074e-01  1.247791e-01
     vertex -2.937500e-01 -6.406250e-01  1.250000e-01
   endloop
 endfacet
 facet normal -1.136003e-03 -3.867330e-01 -9.221910e-01
   outer loop
     vertex -2.890625e-01 -6.390700e-01  1.243421e-01
     vertex -2.890625e-01 -6.395890e-01  1.245598e-01
     vertex -2.937500e-01 -6.406250e-01  1.250000e-01
   endloop
 endfacet
 facet normal  0.000000e+00 -3.896397e-01 -9.209674e-01
   outer loop
     vertex -4.296875e-01 -6.390700e-01  1.243421e-01
     vertex -2.890625e-01 -6.390700e-01  1.243421e-01
     vertex -2.937500e-01 -6.406250e-01  1.250000e-01
   endloop
 endfacet
 facet normal  1.000000e+00  0.000000e+00  0.000000e+00
   outer loop
     vertex -2.890625e-01 -5.000000e-01  1.250000e-01
     vertex -2.890625e-01 -6.406250e-01  1.250000e-01
     vertex -2.890625e-01 -5.005176e-01  1.247791e-01
   endloop
 endfacet
 facet normal  1.000000e+00  0.000000e+00  0.000000e+00
   outer loop
     vertex -2.890625e-01 -5.005176e-01  1.247791e-01
     vertex -2.890625e-01 -6.406250e-01  1.250000e-01
     vertex -2.890625e-01 -5.010360e-01  1.245598e-01
   endloop
 endfacet
 facet normal  1.000000e+00  0.000000e+00  0.000000e+00
   outer loop
     vertex -2.890625e-01 -5.010360e-01  1.245598e-01
     vertex -2.890625e-01 -6.406250e-01  1.250000e-01
     vertex -2.890625e-01 -5.015550e-01  1.243421e-01
   endloop
 endfacet
 facet normal  1.000000e+00  0.000000e+00  0.000000e+00
   outer loop
     vertex -2.890625e-01 -5.015550e-01  1.243421e-01
     vertex -2.890625e-01 -6.406250e-01  1.250000e-01
     vertex -2.890625e-01 -6.401074e-01  1.247791e-01
   endloop
 endfacet
 facet normal  1.000000e+00  0.000000e+00  0.000000e+00
   outer loop
     vertex -2.890625e-01 -5.015550e-01  1.243421e-01
     vertex -2.890625e-01 -6.401074e-01  1.247791e-01
     vertex -2.890625e-01 -6.395890e-01  1.245598e-01
   endloop
 endfacet
 facet normal  1.000000e+00  0.000000e+00  0.000000e+00
   outer loop
     vertex -2.890625e-01 -5.015550e-01  1.243421e-01
     vertex -2.890625e-01 -6.395890e-01  1.245598e-01
     vertex -2.890625e-01 -6.390700e-01  1.243421e-01
   endloop
 endfacet
 facet normal  0.000000e+00  0.000000e+00  1.000000e+00
   outer loop
     vertex -4.296875e-01 -4.843750e-01  2.890625e-01
     vertex -4.375000e-01 -4.843750e-01  2.890625e-01
     vertex -4.375000e-01 -5.703125e-01  2.890625e-01
   endloop
 endfacet
 facet normal  0.000000e+00  0.000000e+00  1.000000e+00
   outer loop
     vertex -4.296875e-01 -4.843750e-01  2.890625e-01
     vertex -4.375000e-01 -5.703125e-01  2.890625e-01
     vertex -4.296875e-01 -5.703125e-01  2.890625e-01
   endloop
 endfacet
 facet normal  0.000000e+00  0.000000e+00  1.000000e+00
   outer loop
     vertex -4.375000e-01 -7.500000e-01  1.243421e-01
     vertex -1.484905e-17 -7.500000e-01  1.243421e-01
     vertex -2.890625e-01 -6.390700e-01  1.243421e-01
   endloop
 endfacet
 facet normal  0.000000e+00  0.000000e+00  1.000000e+00
   outer loop
     vertex -2.890625e-01 -5.015550e-01  1.243421e-01
     vertex -2.890625e-01 -6.390700e-01  1.243421e-01
     vertex -1.484905e-17 -7.500000e-01  1.243421e-01
   endloop
 endfacet
 facet normal -0.000000e+00  0.000000e+00  1.000000e+00
   outer loop
     vertex -4.296875e-01 -6.390700e-01  1.243421e-01
     vertex -4.375000e-01 -7.500000e-01  1.243421e-01
     vertex -2.890625e-01 -6.390700e-01  1.243421e-01
   endloop
 endfacet
 facet normal  0.000000e+00  0.000000e+00  1.000000e+00
   outer loop
     vertex -5.551115e-17 -8.593750e-02  1.243421e-01
     vertex -2.890625e-01 -5.015550e-01  1.243421e-01
     vertex -1.484905e-17 -7.500000e-01  1.243421e-01
   endloop
 endfacet
 facet normal  0.000000e+00  0.000000e+00  1.000000e+00
   outer loop
     vertex -4.375000e-01 -8.593750e-02  1.243421e-01
     vertex -4.296875e-01 -5.015550e-01  1.243421e-01
     vertex -2.890625e-01 -5.015550e-01  1.243421e-01
   endloop
 endfacet
 facet normal -0.000000e+00  0.000000e+00  1.000000e+00
   outer loop
     vertex -4.375000e-01 -8.593750e-02  1.243421e-01
     vertex -2.890625e-01 -5.015550e-01  1.243421e-01
     vertex -5.551115e-17 -8.593750e-02  1.243421e-01
   endloop
 endfacet
 facet normal  0.000000e+00  0.000000e+00  1.000000e+00
   outer loop
     vertex -4.375000e-01 -7.500000e-01  1.243421e-01
     vertex -4.296875e-01 -5.015550e-01  1.243421e-01
     vertex -4.375000e-01 -8.593750e-02  1.243421e-01
   endloop
 endfacet
 facet normal  0.000000e+00  0.000000e+00  1.000000e+00
   outer loop
     vertex -4.375000e-01 -7.500000e-01  1.243421e-01
     vertex -4.296875e-01 -6.390700e-01  1.243421e-01
     vertex -4.296875e-01 -5.015550e-01  1.243421e-01
   endloop
 endfacet
 facet normal  1.000000e+00  5.594955e-17  2.821331e-17
   outer loop
     vertex -5.551115e-17 -8.593750e-02  1.243421e-01
     vertex -1.484905e-17 -7.500000e-01  1.387295e-17
     vertex -5.200305e-17 -8.593750e-02 -2.328105e-17
   endloop
 endfacet
 facet normal  1.000000e+00  6.123234e-17  0.000000e+00
   outer loop
     vertex -5.551115e-17 -8.593750e-02  1.243421e-01
     vertex -1.484905e-17 -7.500000e-01  1.243421e-01
     vertex -1.484905e-17 -7.500000e-01  1.387295e-17
   endloop
 endfacet
 facet normal -0.000000e+00 -1.000000e+00  0.000000e+00
   outer loop
     vertex -5.024900e-17 -8.593750e-02  4.375000e-01
     vertex -4.375000e-01 -8.593750e-02  4.375000e-01
     vertex -4.375000e-01 -8.593750e-02  1.243421e-01
   endloop
 endfacet
 facet normal  0.000000e+00 -1.000000e+00  0.000000e+00
   outer loop
     vertex -5.024900e-17 -8.593750e-02  4.375000e-01
     vertex -4.375000e-01 -8.593750e-02  1.243421e-01
     vertex -5.551115e-17 -8.593750e-02  1.243421e-01
   endloop
 endfacet
 facet normal  0.000000e+00 -1.000000e+00 -0.000000e+00
   outer loop
     vertex -1.484905e-17 -7.500000e-01  1.243421e-01
     vertex -4.375000e-01 -7.500000e-01  4.066210e-17
     vertex -1.484905e-17 -7.500000e-01  1.387295e-17
   endloop
 endfacet
 facet normal -0.000000e+00 -1.000000e+00  0.000000e+00
   outer loop
     vertex -1.484905e-17 -7.500000e-01  1.243421e-01
     vertex -4.375000e-01 -7.500000e-01  1.243421e-01
     vertex -4.375000e-01 -7.500000e-01  4.066210e-17
   endloop
 endfacet
 facet normal -1.000000e+00  0.000000e+00  0.000000e+00
   outer loop
     vertex -4.375000e-01 -8.593750e-02  3.508103e-18
     vertex -4.375000e-01 -7.500000e-01  1.243421e-01
     vertex -4.375000e-01 -8.593750e-02  1.243421e-01
   endloop
 endfacet
 facet normal -1.000000e+00  0.000000e+00  0.000000e+00
   outer loop
     vertex -4.375000e-01 -8.593750e-02  3.508103e-18
     vertex -4.375000e-01 -7.500000e-01  4.066210e-17
     vertex -4.375000e-01 -7.500000e-01  1.243421e-01
   endloop
 endfacet
 facet normal -6.123234e-17 -5.594955e-17 -1.000000e+00
   outer loop
     vertex -5.200305e-17 -8.593750e-02 -2.328105e-17
     vertex -4.375000e-01 -7.500000e-01  4.066210e-17
     vertex -4.375000e-01 -8.593750e-02  3.508103e-18
   endloop
 endfacet
 facet normal -6.123234e-17 -5.594955e-17 -1.000000e+00
   outer loop
     vertex -5.200305e-17 -8.593750e-02 -2.328105e-17
     vertex -1.484905e-17 -7.500000e-01  1.387295e-17
     vertex -4.375000e-01 -7.500000e-01  4.066210e-17
   endloop
 endfacet
 facet normal  1.000000e+00  4.082156e-17  2.821331e-17
   outer loop
     vertex -5.551115e-17 -8.593750e-02  1.243421e-01
     vertex -5.200305e-17 -8.593750e-02 -2.328105e-17
     vertex -5.551115e-17  2.678915e-17 -2.678915e-17
   endloop
 endfacet
 facet normal  1.000000e+00  6.123234e-17 -1.680352e-17
   outer loop
     vertex -5.551115e-17  5.357830e-17  4.375000e-01
     vertex -5.024900e-17 -8.593750e-02  4.375000e-01
     vertex -5.551115e-17 -8.593750e-02  1.243421e-01
   endloop
 endfacet
 facet normal  1.000000e+00  0.000000e+00  0.000000e+00
   outer loop
     vertex -5.551115e-17  5.357830e-17  4.375000e-01
     vertex -5.551115e-17 -8.593750e-02  1.243421e-01
     vertex -5.551115e-17  2.678915e-17 -2.678915e-17
   endloop
 endfacet
 facet normal -1.000000e+00  0.000000e+00  0.000000e+00
   outer loop
     vertex -4.375000e-01 -8.593750e-02  1.243421e-01
     vertex -4.375000e-01 -8.593750e-02  4.375000e-01
     vertex -4.375000e-01  2.678915e-17  4.375000e-01
   endloop
 endfacet
 facet normal -1.000000e+00  0.000000e+00  0.000000e+00
   outer loop
     vertex -4.375000e-01  0.000000e+00  0.000000e+00
     vertex -4.375000e-01 -8.593750e-02  3.508103e-18
     vertex -4.375000e-01 -8.593750e-02  1.243421e-01
   endloop
 endfacet
 facet normal -1.000000e+00  0.000000e+00  0.000000e+00
   outer loop
     vertex -4.375000e-01  0.000000e+00  0.000000e+00
     vertex -4.375000e-01 -8.593750e-02  1.243421e-01
     vertex -4.375000e-01  2.678915e-17  4.375000e-01
   endloop
 endfacet
 facet normal -0.000000e+00  0.000000e+00  1.000000e+00
   outer loop
     vertex -4.375000e-01  2.678915e-17  4.375000e-01
     vertex -5.024900e-17 -8.593750e-02  4.375000e-01
     vertex -5.551115e-17  5.357830e-17  4.375000e-01
   endloop
 endfacet
 facet normal  0.000000e+00  0.000000e+00  1.000000e+00
   outer loop
     vertex -4.375000e-01  2.678915e-17  4.375000e-01
     vertex -4.375000e-01 -8.593750e-02  4.375000e-01
     vertex -5.024900e-17 -8.593750e-02  4.375000e-01
   endloop
 endfacet
 facet normal -6.123234e-17 -4.082156e-17 -1.000000e+00
   outer loop
     vertex -5.551115e-17  2.678915e-17 -2.678915e-17
     vertex -4.375000e-01 -8.593750e-02  3.508103e-18
     vertex -4.375000e-01  0.000000e+00  0.000000e+00
   endloop
 endfacet
 facet normal -6.123234e-17 -4.082156e-17 -1.000000e+00
   outer loop
     vertex -5.551115e-17  2.678915e-17 -2.678915e-17
     vertex -5.200305e-17 -8.593750e-02 -2.328105e-17
     vertex -4.375000e-01 -8.593750e-02  3.508103e-18
   endloop
 endfacet
 facet normal -6.123234e-17  1.000000e+00 -6.123234e-17
   outer loop
     vertex -5.551115e-17  5.357830e-17  4.375000e-01
     vertex -5.551115e-17  2.678915e-17 -2.678915e-17
     vertex -4.375000e-01  0.000000e+00  0.000000e+00
   endloop
 endfacet
 facet normal -6.123234e-17  1.000000e+00 -6.123234e-17
   outer loop
     vertex -5.551115e-17  5.357830e-17  4.375000e-01
     vertex -4.375000e-01  0.000000e+00  0.000000e+00
     vertex -4.375000e-01  2.678915e-17  4.375000e-01
   endloop
 endfacet
endsolid
