solid 
 facet normal  0.000000e+00 -1.000000e+00  0.000000e+00
   outer loop
     vertex  4.843750e-01 -3.906250e-02  0.000000e+00
     vertex  0.000000e+00 -3.906250e-02  7.500000e-01
     vertex  0.000000e+00 -3.906250e-02  0.000000e+00
   endloop
 endfacet
 facet normal  0.000000e+00 -1.000000e+00  0.000000e+00
   outer loop
     vertex  4.843750e-01 -3.906250e-02  0.000000e+00
     vertex  4.843750e-01 -3.906250e-02  7.500000e-01
     vertex  0.000000e+00 -3.906250e-02  7.500000e-01
   endloop
 endfacet
 facet normal  1.000000e+00  0.000000e+00  0.000000e+00
   outer loop
     vertex  4.843750e-01  1.726974e-03  0.000000e+00
     vertex  4.843750e-01 -3.906250e-02  7.500000e-01
     vertex  4.843750e-01 -3.906250e-02  0.000000e+00
   endloop
 endfacet
 facet normal  1.000000e+00  0.000000e+00 -0.000000e+00
   outer loop
     vertex  4.843750e-01  1.726974e-03  0.000000e+00
     vertex  4.843750e-01  1.726974e-03  7.500000e-01
     vertex  4.843750e-01 -3.906250e-02  7.500000e-01
   endloop
 endfacet
 facet normal  0.000000e+00  1.000000e+00  0.000000e+00
   outer loop
     vertex  0.000000e+00  1.726974e-03  0.000000e+00
     vertex  4.843750e-01  1.726974e-03  7.500000e-01
     vertex  4.843750e-01  1.726974e-03  0.000000e+00
   endloop
 endfacet
 facet normal  0.000000e+00  1.000000e+00  0.000000e+00
   outer loop
     vertex  0.000000e+00  1.726974e-03  0.000000e+00
     vertex  0.000000e+00  1.726974e-03  7.500000e-01
     vertex  4.843750e-01  1.726974e-03  7.500000e-01
   endloop
 endfacet
 facet normal -1.000000e+00  0.000000e+00  0.000000e+00
   outer loop
     vertex  0.000000e+00 -3.906250e-02  0.000000e+00
     vertex  0.000000e+00  1.726974e-03  7.500000e-01
     vertex  0.000000e+00  1.726974e-03  0.000000e+00
   endloop
 endfacet
 facet normal -1.000000e+00  0.000000e+00  0.000000e+00
   outer loop
     vertex  0.000000e+00 -3.906250e-02  0.000000e+00
     vertex  0.000000e+00 -3.906250e-02  7.500000e-01
     vertex  0.000000e+00  1.726974e-03  7.500000e-01
   endloop
 endfacet
 facet normal  0.000000e+00 -0.000000e+00 -1.000000e+00
   outer loop
     vertex  4.843750e-01  1.726974e-03  0.000000e+00
     vertex  4.843750e-01 -3.906250e-02  0.000000e+00
     vertex  0.000000e+00 -3.906250e-02  0.000000e+00
   endloop
 endfacet
 facet normal -0.000000e+00  0.000000e+00 -1.000000e+00
   outer loop
     vertex  4.843750e-01  1.726974e-03  0.000000e+00
     vertex  0.000000e+00 -3.906250e-02  0.000000e+00
     vertex  0.000000e+00  1.726974e-03  0.000000e+00
   endloop
 endfacet
 facet normal  0.000000e+00  0.000000e+00  1.000000e+00
   outer loop
     vertex  4.843750e-01  1.726974e-03  7.500000e-01
     vertex  0.000000e+00 -3.906250e-02  7.500000e-01
     vertex  4.843750e-01 -3.906250e-02  7.500000e-01
   endloop
 endfacet
 facet normal  0.000000e+00  0.000000e+00  1.000000e+00
   outer loop
     vertex  4.843750e-01  1.726974e-03  7.500000e-01
     vertex  0.000000e+00  1.726974e-03  7.500000e-01
     vertex  0.000000e+00 -3.906250e-02  7.500000e-01
   endloop
 endfacet
endsolid
