solid 
 facet normal  0.000000e+00 -0.000000e+00 -1.000000e+00
   outer loop
     vertex -4.375000e-01  5.674342e-01 -7.500000e-01
     vertex -4.375000e-01  4.843750e-01 -7.500000e-01
     vertex -1.093750e+00  4.843750e-01 -7.500000e-01
   endloop
 endfacet
 facet normal -0.000000e+00  0.000000e+00 -1.000000e+00
   outer loop
     vertex -4.375000e-01  5.674342e-01 -7.500000e-01
     vertex -1.093750e+00  4.843750e-01 -7.500000e-01
     vertex -1.093750e+00  5.674342e-01 -7.500000e-01
   endloop
 endfacet
 facet normal  0.000000e+00 -1.000000e+00  0.000000e+00
   outer loop
     vertex -4.375000e-01  4.843750e-01 -7.500000e-01
     vertex -4.375000e-01  4.843750e-01 -8.593750e-02
     vertex -1.093750e+00  4.843750e-01 -8.593750e-02
   endloop
 endfacet
 facet normal  0.000000e+00 -1.000000e+00  0.000000e+00
   outer loop
     vertex -4.375000e-01  4.843750e-01 -7.500000e-01
     vertex -1.093750e+00  4.843750e-01 -8.593750e-02
     vertex -1.093750e+00  4.843750e-01 -7.500000e-01
   endloop
 endfacet
 facet normal  0.000000e+00  1.000000e+00  0.000000e+00
   outer loop
     vertex -4.375000e-01  5.674342e-01  3.906250e-02
     vertex -4.375000e-01  5.674342e-01 -7.500000e-01
     vertex -1.093750e+00  5.674342e-01 -7.500000e-01
   endloop
 endfacet
 facet normal  0.000000e+00  1.000000e+00  0.000000e+00
   outer loop
     vertex -4.375000e-01  5.674342e-01  3.906250e-02
     vertex -1.093750e+00  5.674342e-01 -7.500000e-01
     vertex -1.093750e+00  5.674342e-01  3.906250e-02
   endloop
 endfacet
 facet normal  1.000000e+00  0.000000e+00  0.000000e+00
   outer loop
     vertex -4.375000e-01  5.312500e-01 -8.593750e-02
     vertex -4.375000e-01  4.843750e-01 -8.593750e-02
     vertex -4.375000e-01  4.843750e-01 -7.500000e-01
   endloop
 endfacet
 facet normal  1.000000e+00  0.000000e+00  0.000000e+00
   outer loop
     vertex -4.375000e-01  5.312500e-01 -8.593750e-02
     vertex -4.375000e-01  4.843750e-01 -7.500000e-01
     vertex -4.375000e-01  5.674342e-01 -7.500000e-01
   endloop
 endfacet
 facet normal  1.000000e+00  0.000000e+00  0.000000e+00
   outer loop
     vertex -4.375000e-01  5.468750e-01  0.000000e+00
     vertex -4.375000e-01  5.312500e-01  0.000000e+00
     vertex -4.375000e-01  5.312500e-01 -8.593750e-02
   endloop
 endfacet
 facet normal  1.000000e+00  0.000000e+00  0.000000e+00
   outer loop
     vertex -4.375000e-01  5.312500e-01  3.906250e-02
     vertex -4.375000e-01  5.312500e-01  1.562500e-02
     vertex -4.375000e-01  5.468750e-01  1.562500e-02
   endloop
 endfacet
 facet normal  1.000000e+00  0.000000e+00  0.000000e+00
   outer loop
     vertex -4.375000e-01  5.674342e-01  3.906250e-02
     vertex -4.375000e-01  5.468750e-01  1.562500e-02
     vertex -4.375000e-01  5.468750e-01  0.000000e+00
   endloop
 endfacet
 facet normal  1.000000e+00  0.000000e+00  0.000000e+00
   outer loop
     vertex -4.375000e-01  5.674342e-01  3.906250e-02
     vertex -4.375000e-01  5.468750e-01  0.000000e+00
     vertex -4.375000e-01  5.312500e-01 -8.593750e-02
   endloop
 endfacet
 facet normal  1.000000e+00  0.000000e+00  0.000000e+00
   outer loop
     vertex -4.375000e-01  5.674342e-01  3.906250e-02
     vertex -4.375000e-01  5.312500e-01  3.906250e-02
     vertex -4.375000e-01  5.468750e-01  1.562500e-02
   endloop
 endfacet
 facet normal  1.000000e+00  0.000000e+00 -0.000000e+00
   outer loop
     vertex -4.375000e-01  5.674342e-01 -7.500000e-01
     vertex -4.375000e-01  5.674342e-01  3.906250e-02
     vertex -4.375000e-01  5.312500e-01 -8.593750e-02
   endloop
 endfacet
 facet normal -1.000000e+00 -0.000000e+00  0.000000e+00
   outer loop
     vertex -1.093750e+00  5.312500e-01 -8.593750e-02
     vertex -1.093750e+00  4.843750e-01 -7.500000e-01
     vertex -1.093750e+00  4.843750e-01 -8.593750e-02
   endloop
 endfacet
 facet normal -1.000000e+00  0.000000e+00 -0.000000e+00
   outer loop
     vertex -1.093750e+00  5.312500e-01 -8.593750e-02
     vertex -1.093750e+00  5.674342e-01 -7.500000e-01
     vertex -1.093750e+00  4.843750e-01 -7.500000e-01
   endloop
 endfacet
 facet normal -1.000000e+00 -0.000000e+00  0.000000e+00
   outer loop
     vertex -1.093750e+00  5.674342e-01  3.906250e-02
     vertex -1.093750e+00  5.312500e-01 -8.593750e-02
     vertex -1.093750e+00  5.312500e-01  3.906250e-02
   endloop
 endfacet
 facet normal -1.000000e+00  0.000000e+00  0.000000e+00
   outer loop
     vertex -1.093750e+00  5.674342e-01 -7.500000e-01
     vertex -1.093750e+00  5.312500e-01 -8.593750e-02
     vertex -1.093750e+00  5.674342e-01  3.906250e-02
   endloop
 endfacet
 facet normal  0.000000e+00 -0.000000e+00 -1.000000e+00
   outer loop
     vertex -4.375000e-01  4.843750e-01 -8.593750e-02
     vertex -4.375000e-01 -6.562500e-01 -8.593750e-02
     vertex -1.093750e+00 -6.562500e-01 -8.593750e-02
   endloop
 endfacet
 facet normal -0.000000e+00  0.000000e+00 -1.000000e+00
   outer loop
     vertex -4.375000e-01  4.843750e-01 -8.593750e-02
     vertex -1.093750e+00 -6.562500e-01 -8.593750e-02
     vertex -1.093750e+00  4.843750e-01 -8.593750e-02
   endloop
 endfacet
 facet normal  0.000000e+00 -0.000000e+00  1.000000e+00
   outer loop
     vertex -4.375000e-01  5.312500e-01  3.906250e-02
     vertex -4.375000e-01  5.674342e-01  3.906250e-02
     vertex -1.093750e+00  5.674342e-01  3.906250e-02
   endloop
 endfacet
 facet normal  0.000000e+00  0.000000e+00  1.000000e+00
   outer loop
     vertex -4.375000e-01  5.312500e-01  3.906250e-02
     vertex -1.093750e+00  5.674342e-01  3.906250e-02
     vertex -1.093750e+00  5.312500e-01  3.906250e-02
   endloop
 endfacet
 facet normal  1.000000e+00  0.000000e+00  0.000000e+00
   outer loop
     vertex -4.375000e-01  5.312500e-01  0.000000e+00
     vertex -4.375000e-01  4.843750e-01  0.000000e+00
     vertex -4.375000e-01  4.843750e-01 -8.593750e-02
   endloop
 endfacet
 facet normal  1.000000e+00  0.000000e+00  0.000000e+00
   outer loop
     vertex -4.375000e-01  5.312500e-01  0.000000e+00
     vertex -4.375000e-01  4.843750e-01 -8.593750e-02
     vertex -4.375000e-01  5.312500e-01 -8.593750e-02
   endloop
 endfacet
 facet normal -0.000000e+00  0.000000e+00 -1.000000e+00
   outer loop
     vertex -3.215461e-01 -4.851151e-01  0.000000e+00
     vertex -4.375000e-01 -5.546875e-01  0.000000e+00
     vertex -3.679276e-01 -4.387336e-01  0.000000e+00
   endloop
 endfacet
 facet normal  0.000000e+00  0.000000e+00 -1.000000e+00
   outer loop
     vertex -2.880903e-01 -1.662418e-01  0.000000e+00
     vertex -3.215461e-01 -3.923520e-01  0.000000e+00
     vertex -3.679276e-01 -4.387336e-01  0.000000e+00
   endloop
 endfacet
 facet normal  0.000000e+00 -0.000000e+00 -1.000000e+00
   outer loop
     vertex -2.880903e-01 -1.662418e-01  0.000000e+00
     vertex -2.346513e-01 -2.358848e-01  0.000000e+00
     vertex -3.215461e-01 -3.923520e-01  0.000000e+00
   endloop
 endfacet
 facet normal  0.000000e+00  0.000000e+00 -1.000000e+00
   outer loop
     vertex -1.650082e-01 -2.893238e-01  0.000000e+00
     vertex -2.751645e-01 -4.387336e-01  0.000000e+00
     vertex -3.215461e-01 -3.923520e-01  0.000000e+00
   endloop
 endfacet
 facet normal -0.000000e+00  0.000000e+00 -1.000000e+00
   outer loop
     vertex -1.650082e-01 -2.893238e-01  0.000000e+00
     vertex -3.215461e-01 -3.923520e-01  0.000000e+00
     vertex -2.346513e-01 -2.358848e-01  0.000000e+00
   endloop
 endfacet
 facet normal  0.000000e+00  0.000000e+00 -1.000000e+00
   outer loop
     vertex -3.216834e-01 -8.514071e-02  0.000000e+00
     vertex -3.679276e-01 -4.387336e-01  0.000000e+00
     vertex -4.375000e-01 -5.546875e-01  0.000000e+00
   endloop
 endfacet
 facet normal  0.000000e+00 -0.000000e+00 -1.000000e+00
   outer loop
     vertex -3.216834e-01 -8.514071e-02  0.000000e+00
     vertex -2.880903e-01 -1.662418e-01  0.000000e+00
     vertex -3.679276e-01 -4.387336e-01  0.000000e+00
   endloop
 endfacet
 facet normal -0.000000e+00  0.000000e+00 -1.000000e+00
   outer loop
     vertex -8.390716e-02 -3.229170e-01  0.000000e+00
     vertex -2.751645e-01 -4.387336e-01  0.000000e+00
     vertex -1.650082e-01 -2.893238e-01  0.000000e+00
   endloop
 endfacet
 facet normal  0.000000e+00 -0.000000e+00 -1.000000e+00
   outer loop
     vertex -3.331414e-01  1.891447e-03  0.000000e+00
     vertex -3.216834e-01 -8.514071e-02  0.000000e+00
     vertex -4.375000e-01 -5.546875e-01  0.000000e+00
   endloop
 endfacet
 facet normal -0.000000e+00  0.000000e+00 -1.000000e+00
   outer loop
     vertex  3.125000e-03 -3.343750e-01  0.000000e+00
     vertex -2.751645e-01 -4.387336e-01  0.000000e+00
     vertex -8.390716e-02 -3.229170e-01  0.000000e+00
   endloop
 endfacet
 facet normal  0.000000e+00  0.000000e+00 -1.000000e+00
   outer loop
     vertex  2.814145e-01 -4.387336e-01  0.000000e+00
     vertex  3.125000e-03 -3.343750e-01  0.000000e+00
     vertex  9.015716e-02 -3.229170e-01  0.000000e+00
   endloop
 endfacet
 facet normal  0.000000e+00  0.000000e+00 -1.000000e+00
   outer loop
     vertex  2.814145e-01 -4.387336e-01  0.000000e+00
     vertex -2.751645e-01 -4.387336e-01  0.000000e+00
     vertex  3.125000e-03 -3.343750e-01  0.000000e+00
   endloop
 endfacet
 facet normal  0.000000e+00  0.000000e+00 -1.000000e+00
   outer loop
     vertex  3.277961e-01 -4.851151e-01  0.000000e+00
     vertex -3.215461e-01 -4.851151e-01  0.000000e+00
     vertex -2.751645e-01 -4.387336e-01  0.000000e+00
   endloop
 endfacet
 facet normal  0.000000e+00  0.000000e+00 -1.000000e+00
   outer loop
     vertex  3.277961e-01 -4.851151e-01  0.000000e+00
     vertex -2.751645e-01 -4.387336e-01  0.000000e+00
     vertex  2.814145e-01 -4.387336e-01  0.000000e+00
   endloop
 endfacet
 facet normal  0.000000e+00 -0.000000e+00 -1.000000e+00
   outer loop
     vertex  1.712582e-01 -2.893238e-01  0.000000e+00
     vertex  2.814145e-01 -4.387336e-01  0.000000e+00
     vertex  9.015716e-02 -3.229170e-01  0.000000e+00
   endloop
 endfacet
 facet normal  0.000000e+00  0.000000e+00 -1.000000e+00
   outer loop
     vertex  4.437500e-01 -5.546875e-01  0.000000e+00
     vertex -4.375000e-01 -5.546875e-01  0.000000e+00
     vertex -3.215461e-01 -4.851151e-01  0.000000e+00
   endloop
 endfacet
 facet normal  0.000000e+00  0.000000e+00 -1.000000e+00
   outer loop
     vertex  4.437500e-01 -5.546875e-01  0.000000e+00
     vertex -3.215461e-01 -4.851151e-01  0.000000e+00
     vertex  3.277961e-01 -4.851151e-01  0.000000e+00
   endloop
 endfacet
 facet normal -0.000000e+00  0.000000e+00 -1.000000e+00
   outer loop
     vertex  3.277961e-01 -3.923520e-01  0.000000e+00
     vertex  2.814145e-01 -4.387336e-01  0.000000e+00
     vertex  1.712582e-01 -2.893238e-01  0.000000e+00
   endloop
 endfacet
 facet normal  0.000000e+00 -0.000000e+00 -1.000000e+00
   outer loop
     vertex  3.741776e-01 -4.387336e-01  0.000000e+00
     vertex  4.437500e-01 -5.546875e-01  0.000000e+00
     vertex  3.277961e-01 -4.851151e-01  0.000000e+00
   endloop
 endfacet
 facet normal  0.000000e+00 -0.000000e+00 -1.000000e+00
   outer loop
     vertex  2.409013e-01 -2.358848e-01  0.000000e+00
     vertex  3.277961e-01 -3.923520e-01  0.000000e+00
     vertex  1.712582e-01 -2.893238e-01  0.000000e+00
   endloop
 endfacet
 facet normal  0.000000e+00  0.000000e+00 -1.000000e+00
   outer loop
     vertex -4.375000e-01  4.843750e-01  0.000000e+00
     vertex -2.880903e-01  1.700247e-01  0.000000e+00
     vertex -3.216834e-01  8.892361e-02  0.000000e+00
   endloop
 endfacet
 facet normal  0.000000e+00  0.000000e+00 -1.000000e+00
   outer loop
     vertex -4.375000e-01  4.843750e-01  0.000000e+00
     vertex -3.216834e-01  8.892361e-02  0.000000e+00
     vertex -3.331414e-01  1.891447e-03  0.000000e+00
   endloop
 endfacet
 facet normal  0.000000e+00  0.000000e+00 -1.000000e+00
   outer loop
     vertex -4.375000e-01  4.843750e-01  0.000000e+00
     vertex -3.331414e-01  1.891447e-03  0.000000e+00
     vertex -4.375000e-01 -5.546875e-01  0.000000e+00
   endloop
 endfacet
 facet normal -0.000000e+00 -0.000000e+00 -1.000000e+00
   outer loop
     vertex -3.679276e-01  4.425164e-01  0.000000e+00
     vertex -2.880903e-01  1.700247e-01  0.000000e+00
     vertex -4.375000e-01  4.843750e-01  0.000000e+00
   endloop
 endfacet
 facet normal  0.000000e+00  0.000000e+00 -1.000000e+00
   outer loop
     vertex -3.215461e-01  3.961349e-01  0.000000e+00
     vertex -2.346513e-01  2.396677e-01  0.000000e+00
     vertex -2.880903e-01  1.700247e-01  0.000000e+00
   endloop
 endfacet
 facet normal -0.000000e+00 -0.000000e+00 -1.000000e+00
   outer loop
     vertex -3.215461e-01  3.961349e-01  0.000000e+00
     vertex -2.880903e-01  1.700247e-01  0.000000e+00
     vertex -3.679276e-01  4.425164e-01  0.000000e+00
   endloop
 endfacet
 facet normal  0.000000e+00  0.000000e+00 -1.000000e+00
   outer loop
     vertex  2.943403e-01 -1.662418e-01  0.000000e+00
     vertex  3.741776e-01 -4.387336e-01  0.000000e+00
     vertex  3.277961e-01 -3.923520e-01  0.000000e+00
   endloop
 endfacet
 facet normal  0.000000e+00 -0.000000e+00 -1.000000e+00
   outer loop
     vertex  2.943403e-01 -1.662418e-01  0.000000e+00
     vertex  3.277961e-01 -3.923520e-01  0.000000e+00
     vertex  2.409013e-01 -2.358848e-01  0.000000e+00
   endloop
 endfacet
 facet normal -0.000000e+00  0.000000e+00 -1.000000e+00
   outer loop
     vertex -1.650082e-01  2.931067e-01  0.000000e+00
     vertex -2.346513e-01  2.396677e-01  0.000000e+00
     vertex -3.215461e-01  3.961349e-01  0.000000e+00
   endloop
 endfacet
 facet normal  0.000000e+00  0.000000e+00 -1.000000e+00
   outer loop
     vertex -3.215461e-01  4.888980e-01  0.000000e+00
     vertex -3.679276e-01  4.425164e-01  0.000000e+00
     vertex -4.375000e-01  4.843750e-01  0.000000e+00
   endloop
 endfacet
 facet normal  0.000000e+00  0.000000e+00 -1.000000e+00
   outer loop
     vertex -3.215461e-01  4.888980e-01  0.000000e+00
     vertex -4.375000e-01  5.312500e-01  0.000000e+00
     vertex -4.375000e-01  5.468750e-01  0.000000e+00
   endloop
 endfacet
 facet normal -0.000000e+00  0.000000e+00 -1.000000e+00
   outer loop
     vertex -3.215461e-01  4.888980e-01  0.000000e+00
     vertex -4.375000e-01  4.843750e-01  0.000000e+00
     vertex -4.375000e-01  5.312500e-01  0.000000e+00
   endloop
 endfacet
 facet normal  0.000000e+00 -0.000000e+00 -1.000000e+00
   outer loop
     vertex -2.751645e-01  4.425164e-01  0.000000e+00
     vertex -1.650082e-01  2.931067e-01  0.000000e+00
     vertex -3.215461e-01  3.961349e-01  0.000000e+00
   endloop
 endfacet
 facet normal  0.000000e+00 -0.000000e+00 -1.000000e+00
   outer loop
     vertex  3.279334e-01 -8.514071e-02  0.000000e+00
     vertex  3.741776e-01 -4.387336e-01  0.000000e+00
     vertex  2.943403e-01 -1.662418e-01  0.000000e+00
   endloop
 endfacet
 facet normal  0.000000e+00  0.000000e+00 -1.000000e+00
   outer loop
     vertex  3.279334e-01 -8.514071e-02  0.000000e+00
     vertex  4.437500e-01 -5.546875e-01  0.000000e+00
     vertex  3.741776e-01 -4.387336e-01  0.000000e+00
   endloop
 endfacet
 facet normal -0.000000e+00  0.000000e+00 -1.000000e+00
   outer loop
     vertex -8.390716e-02  3.266999e-01  0.000000e+00
     vertex -1.650082e-01  2.931067e-01  0.000000e+00
     vertex -2.751645e-01  4.425164e-01  0.000000e+00
   endloop
 endfacet
 facet normal -0.000000e+00  0.000000e+00 -1.000000e+00
   outer loop
     vertex  3.125000e-03  3.381579e-01  0.000000e+00
     vertex -8.390716e-02  3.266999e-01  0.000000e+00
     vertex -2.751645e-01  4.425164e-01  0.000000e+00
   endloop
 endfacet
 facet normal  0.000000e+00 -0.000000e+00 -1.000000e+00
   outer loop
     vertex  3.393914e-01  1.891447e-03  0.000000e+00
     vertex  4.437500e-01 -5.546875e-01  0.000000e+00
     vertex  3.279334e-01 -8.514071e-02  0.000000e+00
   endloop
 endfacet
 facet normal -0.000000e+00  0.000000e+00 -1.000000e+00
   outer loop
     vertex  2.814145e-01  4.425164e-01  0.000000e+00
     vertex  3.125000e-03  3.381579e-01  0.000000e+00
     vertex -2.751645e-01  4.425164e-01  0.000000e+00
   endloop
 endfacet
 facet normal  0.000000e+00  0.000000e+00 -1.000000e+00
   outer loop
     vertex  2.814145e-01  4.425164e-01  0.000000e+00
     vertex  1.712582e-01  2.931067e-01  0.000000e+00
     vertex  9.015716e-02  3.266999e-01  0.000000e+00
   endloop
 endfacet
 facet normal  0.000000e+00  0.000000e+00 -1.000000e+00
   outer loop
     vertex  2.814145e-01  4.425164e-01  0.000000e+00
     vertex  9.015716e-02  3.266999e-01  0.000000e+00
     vertex  3.125000e-03  3.381579e-01  0.000000e+00
   endloop
 endfacet
 facet normal  0.000000e+00  0.000000e+00 -1.000000e+00
   outer loop
     vertex  3.277961e-01  3.961349e-01  0.000000e+00
     vertex  2.943403e-01  1.700247e-01  0.000000e+00
     vertex  2.409013e-01  2.396677e-01  0.000000e+00
   endloop
 endfacet
 facet normal  0.000000e+00  0.000000e+00 -1.000000e+00
   outer loop
     vertex  3.277961e-01  3.961349e-01  0.000000e+00
     vertex  2.409013e-01  2.396677e-01  0.000000e+00
     vertex  1.712582e-01  2.931067e-01  0.000000e+00
   endloop
 endfacet
 facet normal -0.000000e+00  0.000000e+00 -1.000000e+00
   outer loop
     vertex  3.277961e-01  3.961349e-01  0.000000e+00
     vertex  1.712582e-01  2.931067e-01  0.000000e+00
     vertex  2.814145e-01  4.425164e-01  0.000000e+00
   endloop
 endfacet
 facet normal  0.000000e+00  0.000000e+00 -1.000000e+00
   outer loop
     vertex  3.741776e-01  4.425164e-01  0.000000e+00
     vertex  3.279334e-01  8.892361e-02  0.000000e+00
     vertex  2.943403e-01  1.700247e-01  0.000000e+00
   endloop
 endfacet
 facet normal  0.000000e+00  0.000000e+00 -1.000000e+00
   outer loop
     vertex  3.741776e-01  4.425164e-01  0.000000e+00
     vertex  2.943403e-01  1.700247e-01  0.000000e+00
     vertex  3.277961e-01  3.961349e-01  0.000000e+00
   endloop
 endfacet
 facet normal -0.000000e+00  0.000000e+00 -1.000000e+00
   outer loop
     vertex  3.277961e-01  4.888980e-01  0.000000e+00
     vertex -2.751645e-01  4.425164e-01  0.000000e+00
     vertex -3.215461e-01  4.888980e-01  0.000000e+00
   endloop
 endfacet
 facet normal  0.000000e+00  0.000000e+00 -1.000000e+00
   outer loop
     vertex  3.277961e-01  4.888980e-01  0.000000e+00
     vertex  2.814145e-01  4.425164e-01  0.000000e+00
     vertex -2.751645e-01  4.425164e-01  0.000000e+00
   endloop
 endfacet
 facet normal  0.000000e+00  0.000000e+00 -1.000000e+00
   outer loop
     vertex  4.437500e-01  5.468750e-01  0.000000e+00
     vertex  3.393914e-01  1.891447e-03  0.000000e+00
     vertex  3.279334e-01  8.892361e-02  0.000000e+00
   endloop
 endfacet
 facet normal  0.000000e+00  0.000000e+00 -1.000000e+00
   outer loop
     vertex  4.437500e-01  5.468750e-01  0.000000e+00
     vertex  3.279334e-01  8.892361e-02  0.000000e+00
     vertex  3.741776e-01  4.425164e-01  0.000000e+00
   endloop
 endfacet
 facet normal  0.000000e+00  0.000000e+00 -1.000000e+00
   outer loop
     vertex  4.437500e-01  5.468750e-01  0.000000e+00
     vertex  3.741776e-01  4.425164e-01  0.000000e+00
     vertex  3.277961e-01  4.888980e-01  0.000000e+00
   endloop
 endfacet
 facet normal  0.000000e+00 -0.000000e+00 -1.000000e+00
   outer loop
     vertex  4.437500e-01  5.468750e-01  0.000000e+00
     vertex  4.437500e-01 -5.546875e-01  0.000000e+00
     vertex  3.393914e-01  1.891447e-03  0.000000e+00
   endloop
 endfacet
 facet normal -0.000000e+00  0.000000e+00 -1.000000e+00
   outer loop
     vertex  4.437500e-01  5.468750e-01  0.000000e+00
     vertex -3.215461e-01  4.888980e-01  0.000000e+00
     vertex -4.375000e-01  5.468750e-01  0.000000e+00
   endloop
 endfacet
 facet normal  0.000000e+00  0.000000e+00 -1.000000e+00
   outer loop
     vertex  4.437500e-01  5.468750e-01  0.000000e+00
     vertex  3.277961e-01  4.888980e-01  0.000000e+00
     vertex -3.215461e-01  4.888980e-01  0.000000e+00
   endloop
 endfacet
 facet normal  0.000000e+00  1.000000e+00  0.000000e+00
   outer loop
     vertex -4.375000e-01  5.468750e-01  0.000000e+00
     vertex  4.437500e-01  5.468750e-01  1.562500e-02
     vertex  4.437500e-01  5.468750e-01  0.000000e+00
   endloop
 endfacet
 facet normal  0.000000e+00  1.000000e+00  0.000000e+00
   outer loop
     vertex -4.375000e-01  5.468750e-01  0.000000e+00
     vertex -4.375000e-01  5.468750e-01  1.562500e-02
     vertex  4.437500e-01  5.468750e-01  1.562500e-02
   endloop
 endfacet
 facet normal  0.000000e+00  0.000000e+00  1.000000e+00
   outer loop
     vertex -3.215461e-01 -4.851151e-01  1.562500e-02
     vertex -3.679276e-01 -4.387336e-01  1.562500e-02
     vertex -4.375000e-01 -5.546875e-01  1.562500e-02
   endloop
 endfacet
 facet normal  0.000000e+00  0.000000e+00  1.000000e+00
   outer loop
     vertex -2.880903e-01 -1.662418e-01  1.562500e-02
     vertex -3.679276e-01 -4.387336e-01  1.562500e-02
     vertex -3.215461e-01 -3.923520e-01  1.562500e-02
   endloop
 endfacet
 facet normal  0.000000e+00  0.000000e+00  1.000000e+00
   outer loop
     vertex -2.880903e-01 -1.662418e-01  1.562500e-02
     vertex -3.215461e-01 -3.923520e-01  1.562500e-02
     vertex -2.346513e-01 -2.358848e-01  1.562500e-02
   endloop
 endfacet
 facet normal  0.000000e+00  0.000000e+00  1.000000e+00
   outer loop
     vertex -1.650082e-01 -2.893238e-01  1.562500e-02
     vertex -3.215461e-01 -3.923520e-01  1.562500e-02
     vertex -2.751645e-01 -4.387336e-01  1.562500e-02
   endloop
 endfacet
 facet normal  0.000000e+00  0.000000e+00  1.000000e+00
   outer loop
     vertex -1.650082e-01 -2.893238e-01  1.562500e-02
     vertex -2.346513e-01 -2.358848e-01  1.562500e-02
     vertex -3.215461e-01 -3.923520e-01  1.562500e-02
   endloop
 endfacet
 facet normal  0.000000e+00  0.000000e+00  1.000000e+00
   outer loop
     vertex -3.216834e-01 -8.514071e-02  1.562500e-02
     vertex -4.375000e-01 -5.546875e-01  1.562500e-02
     vertex -3.679276e-01 -4.387336e-01  1.562500e-02
   endloop
 endfacet
 facet normal  0.000000e+00  0.000000e+00  1.000000e+00
   outer loop
     vertex -3.216834e-01 -8.514071e-02  1.562500e-02
     vertex -3.679276e-01 -4.387336e-01  1.562500e-02
     vertex -2.880903e-01 -1.662418e-01  1.562500e-02
   endloop
 endfacet
 facet normal  0.000000e+00  0.000000e+00  1.000000e+00
   outer loop
     vertex -8.390716e-02 -3.229170e-01  1.562500e-02
     vertex -1.650082e-01 -2.893238e-01  1.562500e-02
     vertex -2.751645e-01 -4.387336e-01  1.562500e-02
   endloop
 endfacet
 facet normal  0.000000e+00  0.000000e+00  1.000000e+00
   outer loop
     vertex -3.331414e-01  1.891447e-03  1.562500e-02
     vertex -4.375000e-01 -5.546875e-01  1.562500e-02
     vertex -3.216834e-01 -8.514071e-02  1.562500e-02
   endloop
 endfacet
 facet normal  0.000000e+00  0.000000e+00  1.000000e+00
   outer loop
     vertex  3.125000e-03 -3.343750e-01  1.562500e-02
     vertex -8.390716e-02 -3.229170e-01  1.562500e-02
     vertex -2.751645e-01 -4.387336e-01  1.562500e-02
   endloop
 endfacet
 facet normal  0.000000e+00  0.000000e+00  1.000000e+00
   outer loop
     vertex  2.814145e-01 -4.387336e-01  1.562500e-02
     vertex  9.015716e-02 -3.229170e-01  1.562500e-02
     vertex  3.125000e-03 -3.343750e-01  1.562500e-02
   endloop
 endfacet
 facet normal  0.000000e+00  0.000000e+00  1.000000e+00
   outer loop
     vertex  2.814145e-01 -4.387336e-01  1.562500e-02
     vertex  3.125000e-03 -3.343750e-01  1.562500e-02
     vertex -2.751645e-01 -4.387336e-01  1.562500e-02
   endloop
 endfacet
 facet normal  0.000000e+00  0.000000e+00  1.000000e+00
   outer loop
     vertex  3.277961e-01 -4.851151e-01  1.562500e-02
     vertex -2.751645e-01 -4.387336e-01  1.562500e-02
     vertex -3.215461e-01 -4.851151e-01  1.562500e-02
   endloop
 endfacet
 facet normal  0.000000e+00  0.000000e+00  1.000000e+00
   outer loop
     vertex  3.277961e-01 -4.851151e-01  1.562500e-02
     vertex  2.814145e-01 -4.387336e-01  1.562500e-02
     vertex -2.751645e-01 -4.387336e-01  1.562500e-02
   endloop
 endfacet
 facet normal  0.000000e+00  0.000000e+00  1.000000e+00
   outer loop
     vertex  1.712582e-01 -2.893238e-01  1.562500e-02
     vertex  9.015716e-02 -3.229170e-01  1.562500e-02
     vertex  2.814145e-01 -4.387336e-01  1.562500e-02
   endloop
 endfacet
 facet normal  0.000000e+00  0.000000e+00  1.000000e+00
   outer loop
     vertex  4.437500e-01 -5.546875e-01  1.562500e-02
     vertex -3.215461e-01 -4.851151e-01  1.562500e-02
     vertex -4.375000e-01 -5.546875e-01  1.562500e-02
   endloop
 endfacet
 facet normal  0.000000e+00  0.000000e+00  1.000000e+00
   outer loop
     vertex  4.437500e-01 -5.546875e-01  1.562500e-02
     vertex  3.277961e-01 -4.851151e-01  1.562500e-02
     vertex -3.215461e-01 -4.851151e-01  1.562500e-02
   endloop
 endfacet
 facet normal  0.000000e+00  0.000000e+00  1.000000e+00
   outer loop
     vertex  3.277961e-01 -3.923520e-01  1.562500e-02
     vertex  1.712582e-01 -2.893238e-01  1.562500e-02
     vertex  2.814145e-01 -4.387336e-01  1.562500e-02
   endloop
 endfacet
 facet normal  0.000000e+00  0.000000e+00  1.000000e+00
   outer loop
     vertex  3.741776e-01 -4.387336e-01  1.562500e-02
     vertex  3.277961e-01 -4.851151e-01  1.562500e-02
     vertex  4.437500e-01 -5.546875e-01  1.562500e-02
   endloop
 endfacet
 facet normal  0.000000e+00  0.000000e+00  1.000000e+00
   outer loop
     vertex  2.409013e-01 -2.358848e-01  1.562500e-02
     vertex  1.712582e-01 -2.893238e-01  1.562500e-02
     vertex  3.277961e-01 -3.923520e-01  1.562500e-02
   endloop
 endfacet
 facet normal  0.000000e+00  0.000000e+00  1.000000e+00
   outer loop
     vertex -4.375000e-01  4.843750e-01  1.562500e-02
     vertex -3.216834e-01  8.892361e-02  1.562500e-02
     vertex -2.880903e-01  1.700247e-01  1.562500e-02
   endloop
 endfacet
 facet normal  0.000000e+00  0.000000e+00  1.000000e+00
   outer loop
     vertex -4.375000e-01  4.843750e-01  1.562500e-02
     vertex -3.331414e-01  1.891447e-03  1.562500e-02
     vertex -3.216834e-01  8.892361e-02  1.562500e-02
   endloop
 endfacet
 facet normal  0.000000e+00  0.000000e+00  1.000000e+00
   outer loop
     vertex -4.375000e-01  4.843750e-01  1.562500e-02
     vertex -4.375000e-01 -5.546875e-01  1.562500e-02
     vertex -3.331414e-01  1.891447e-03  1.562500e-02
   endloop
 endfacet
 facet normal  0.000000e+00  0.000000e+00  1.000000e+00
   outer loop
     vertex -3.679276e-01  4.425164e-01  1.562500e-02
     vertex -4.375000e-01  4.843750e-01  1.562500e-02
     vertex -2.880903e-01  1.700247e-01  1.562500e-02
   endloop
 endfacet
 facet normal  0.000000e+00  0.000000e+00  1.000000e+00
   outer loop
     vertex -3.215461e-01  3.961349e-01  1.562500e-02
     vertex -2.880903e-01  1.700247e-01  1.562500e-02
     vertex -2.346513e-01  2.396677e-01  1.562500e-02
   endloop
 endfacet
 facet normal  0.000000e+00  0.000000e+00  1.000000e+00
   outer loop
     vertex -3.215461e-01  3.961349e-01  1.562500e-02
     vertex -3.679276e-01  4.425164e-01  1.562500e-02
     vertex -2.880903e-01  1.700247e-01  1.562500e-02
   endloop
 endfacet
 facet normal  0.000000e+00  0.000000e+00  1.000000e+00
   outer loop
     vertex  2.943403e-01 -1.662418e-01  1.562500e-02
     vertex  3.277961e-01 -3.923520e-01  1.562500e-02
     vertex  3.741776e-01 -4.387336e-01  1.562500e-02
   endloop
 endfacet
 facet normal  0.000000e+00  0.000000e+00  1.000000e+00
   outer loop
     vertex  2.943403e-01 -1.662418e-01  1.562500e-02
     vertex  2.409013e-01 -2.358848e-01  1.562500e-02
     vertex  3.277961e-01 -3.923520e-01  1.562500e-02
   endloop
 endfacet
 facet normal  0.000000e+00  0.000000e+00  1.000000e+00
   outer loop
     vertex -1.650082e-01  2.931067e-01  1.562500e-02
     vertex -3.215461e-01  3.961349e-01  1.562500e-02
     vertex -2.346513e-01  2.396677e-01  1.562500e-02
   endloop
 endfacet
 facet normal  0.000000e+00  0.000000e+00  1.000000e+00
   outer loop
     vertex -3.215461e-01  4.888980e-01  1.562500e-02
     vertex -4.375000e-01  4.843750e-01  1.562500e-02
     vertex -3.679276e-01  4.425164e-01  1.562500e-02
   endloop
 endfacet
 facet normal  0.000000e+00  0.000000e+00  1.000000e+00
   outer loop
     vertex -3.215461e-01  4.888980e-01  1.562500e-02
     vertex -4.375000e-01  5.468750e-01  1.562500e-02
     vertex -4.375000e-01  5.312500e-01  1.562500e-02
   endloop
 endfacet
 facet normal  0.000000e+00  0.000000e+00  1.000000e+00
   outer loop
     vertex -3.215461e-01  4.888980e-01  1.562500e-02
     vertex -4.375000e-01  5.312500e-01  1.562500e-02
     vertex -4.375000e-01  4.843750e-01  1.562500e-02
   endloop
 endfacet
 facet normal  0.000000e+00  0.000000e+00  1.000000e+00
   outer loop
     vertex -2.751645e-01  4.425164e-01  1.562500e-02
     vertex -3.215461e-01  3.961349e-01  1.562500e-02
     vertex -1.650082e-01  2.931067e-01  1.562500e-02
   endloop
 endfacet
 facet normal  0.000000e+00  0.000000e+00  1.000000e+00
   outer loop
     vertex  3.279334e-01 -8.514071e-02  1.562500e-02
     vertex  2.943403e-01 -1.662418e-01  1.562500e-02
     vertex  3.741776e-01 -4.387336e-01  1.562500e-02
   endloop
 endfacet
 facet normal  0.000000e+00  0.000000e+00  1.000000e+00
   outer loop
     vertex  3.279334e-01 -8.514071e-02  1.562500e-02
     vertex  3.741776e-01 -4.387336e-01  1.562500e-02
     vertex  4.437500e-01 -5.546875e-01  1.562500e-02
   endloop
 endfacet
 facet normal  0.000000e+00  0.000000e+00  1.000000e+00
   outer loop
     vertex -8.390716e-02  3.266999e-01  1.562500e-02
     vertex -2.751645e-01  4.425164e-01  1.562500e-02
     vertex -1.650082e-01  2.931067e-01  1.562500e-02
   endloop
 endfacet
 facet normal  0.000000e+00  0.000000e+00  1.000000e+00
   outer loop
     vertex  3.125000e-03  3.381579e-01  1.562500e-02
     vertex -2.751645e-01  4.425164e-01  1.562500e-02
     vertex -8.390716e-02  3.266999e-01  1.562500e-02
   endloop
 endfacet
 facet normal  0.000000e+00  0.000000e+00  1.000000e+00
   outer loop
     vertex  3.393914e-01  1.891447e-03  1.562500e-02
     vertex  3.279334e-01 -8.514071e-02  1.562500e-02
     vertex  4.437500e-01 -5.546875e-01  1.562500e-02
   endloop
 endfacet
 facet normal  0.000000e+00  0.000000e+00  1.000000e+00
   outer loop
     vertex  2.814145e-01  4.425164e-01  1.562500e-02
     vertex -2.751645e-01  4.425164e-01  1.562500e-02
     vertex  3.125000e-03  3.381579e-01  1.562500e-02
   endloop
 endfacet
 facet normal  0.000000e+00  0.000000e+00  1.000000e+00
   outer loop
     vertex  2.814145e-01  4.425164e-01  1.562500e-02
     vertex  9.015716e-02  3.266999e-01  1.562500e-02
     vertex  1.712582e-01  2.931067e-01  1.562500e-02
   endloop
 endfacet
 facet normal  0.000000e+00  0.000000e+00  1.000000e+00
   outer loop
     vertex  2.814145e-01  4.425164e-01  1.562500e-02
     vertex  3.125000e-03  3.381579e-01  1.562500e-02
     vertex  9.015716e-02  3.266999e-01  1.562500e-02
   endloop
 endfacet
 facet normal  0.000000e+00  0.000000e+00  1.000000e+00
   outer loop
     vertex  3.277961e-01  3.961349e-01  1.562500e-02
     vertex  2.409013e-01  2.396677e-01  1.562500e-02
     vertex  2.943403e-01  1.700247e-01  1.562500e-02
   endloop
 endfacet
 facet normal  0.000000e+00  0.000000e+00  1.000000e+00
   outer loop
     vertex  3.277961e-01  3.961349e-01  1.562500e-02
     vertex  1.712582e-01  2.931067e-01  1.562500e-02
     vertex  2.409013e-01  2.396677e-01  1.562500e-02
   endloop
 endfacet
 facet normal  0.000000e+00  0.000000e+00  1.000000e+00
   outer loop
     vertex  3.277961e-01  3.961349e-01  1.562500e-02
     vertex  2.814145e-01  4.425164e-01  1.562500e-02
     vertex  1.712582e-01  2.931067e-01  1.562500e-02
   endloop
 endfacet
 facet normal  0.000000e+00  0.000000e+00  1.000000e+00
   outer loop
     vertex  3.741776e-01  4.425164e-01  1.562500e-02
     vertex  2.943403e-01  1.700247e-01  1.562500e-02
     vertex  3.279334e-01  8.892361e-02  1.562500e-02
   endloop
 endfacet
 facet normal  0.000000e+00  0.000000e+00  1.000000e+00
   outer loop
     vertex  3.741776e-01  4.425164e-01  1.562500e-02
     vertex  3.277961e-01  3.961349e-01  1.562500e-02
     vertex  2.943403e-01  1.700247e-01  1.562500e-02
   endloop
 endfacet
 facet normal  0.000000e+00  0.000000e+00  1.000000e+00
   outer loop
     vertex  3.277961e-01  4.888980e-01  1.562500e-02
     vertex -3.215461e-01  4.888980e-01  1.562500e-02
     vertex -2.751645e-01  4.425164e-01  1.562500e-02
   endloop
 endfacet
 facet normal  0.000000e+00  0.000000e+00  1.000000e+00
   outer loop
     vertex  3.277961e-01  4.888980e-01  1.562500e-02
     vertex -2.751645e-01  4.425164e-01  1.562500e-02
     vertex  2.814145e-01  4.425164e-01  1.562500e-02
   endloop
 endfacet
 facet normal  0.000000e+00  0.000000e+00  1.000000e+00
   outer loop
     vertex  4.437500e-01  5.468750e-01  1.562500e-02
     vertex  3.279334e-01  8.892361e-02  1.562500e-02
     vertex  3.393914e-01  1.891447e-03  1.562500e-02
   endloop
 endfacet
 facet normal  0.000000e+00  0.000000e+00  1.000000e+00
   outer loop
     vertex  4.437500e-01  5.468750e-01  1.562500e-02
     vertex  3.741776e-01  4.425164e-01  1.562500e-02
     vertex  3.279334e-01  8.892361e-02  1.562500e-02
   endloop
 endfacet
 facet normal  0.000000e+00  0.000000e+00  1.000000e+00
   outer loop
     vertex  4.437500e-01  5.468750e-01  1.562500e-02
     vertex  3.277961e-01  4.888980e-01  1.562500e-02
     vertex  3.741776e-01  4.425164e-01  1.562500e-02
   endloop
 endfacet
 facet normal  0.000000e+00  0.000000e+00  1.000000e+00
   outer loop
     vertex  4.437500e-01  5.468750e-01  1.562500e-02
     vertex  3.393914e-01  1.891447e-03  1.562500e-02
     vertex  4.437500e-01 -5.546875e-01  1.562500e-02
   endloop
 endfacet
 facet normal  0.000000e+00  0.000000e+00  1.000000e+00
   outer loop
     vertex  4.437500e-01  5.468750e-01  1.562500e-02
     vertex -4.375000e-01  5.468750e-01  1.562500e-02
     vertex -3.215461e-01  4.888980e-01  1.562500e-02
   endloop
 endfacet
 facet normal  0.000000e+00  0.000000e+00  1.000000e+00
   outer loop
     vertex  4.437500e-01  5.468750e-01  1.562500e-02
     vertex -3.215461e-01  4.888980e-01  1.562500e-02
     vertex  3.277961e-01  4.888980e-01  1.562500e-02
   endloop
 endfacet
 facet normal  1.000000e+00  0.000000e+00  0.000000e+00
   outer loop
     vertex -4.375000e-01  5.312500e-01  3.906250e-02
     vertex -4.375000e-01  4.843750e-01  3.906250e-02
     vertex -4.375000e-01  4.843750e-01  1.562500e-02
   endloop
 endfacet
 facet normal  1.000000e+00  0.000000e+00  0.000000e+00
   outer loop
     vertex -4.375000e-01  5.312500e-01  3.906250e-02
     vertex -4.375000e-01  4.843750e-01  1.562500e-02
     vertex -4.375000e-01  5.312500e-01  1.562500e-02
   endloop
 endfacet
 facet normal -1.000000e+00 -0.000000e+00  0.000000e+00
   outer loop
     vertex -1.093750e+00  5.312500e-01  3.906250e-02
     vertex -1.093750e+00  4.843750e-01 -8.593750e-02
     vertex -1.093750e+00  4.843750e-01  3.906250e-02
   endloop
 endfacet
 facet normal -1.000000e+00  0.000000e+00 -0.000000e+00
   outer loop
     vertex -1.093750e+00  5.312500e-01  3.906250e-02
     vertex -1.093750e+00  5.312500e-01 -8.593750e-02
     vertex -1.093750e+00  4.843750e-01 -8.593750e-02
   endloop
 endfacet
 facet normal  1.000000e+00  0.000000e+00  0.000000e+00
   outer loop
     vertex -4.375000e-01 -5.546875e-01  0.000000e+00
     vertex -4.375000e-01 -6.562500e-01  3.906250e-02
     vertex -4.375000e-01 -6.562500e-01 -8.593750e-02
   endloop
 endfacet
 facet normal  1.000000e+00  0.000000e+00  0.000000e+00
   outer loop
     vertex -4.375000e-01 -5.546875e-01  1.562500e-02
     vertex -4.375000e-01 -6.562500e-01  3.906250e-02
     vertex -4.375000e-01 -5.546875e-01  0.000000e+00
   endloop
 endfacet
 facet normal  1.000000e+00  0.000000e+00  0.000000e+00
   outer loop
     vertex -4.375000e-01  4.843750e-01 -8.593750e-02
     vertex -4.375000e-01 -5.546875e-01  0.000000e+00
     vertex -4.375000e-01 -6.562500e-01 -8.593750e-02
   endloop
 endfacet
 facet normal  1.000000e+00  0.000000e+00  0.000000e+00
   outer loop
     vertex -4.375000e-01  4.843750e-01  0.000000e+00
     vertex -4.375000e-01 -5.546875e-01  0.000000e+00
     vertex -4.375000e-01  4.843750e-01 -8.593750e-02
   endloop
 endfacet
 facet normal  1.000000e+00  0.000000e+00  0.000000e+00
   outer loop
     vertex -4.375000e-01  4.843750e-01  3.906250e-02
     vertex -4.375000e-01 -5.546875e-01  1.562500e-02
     vertex -4.375000e-01  4.843750e-01  1.562500e-02
   endloop
 endfacet
 facet normal  1.000000e+00  0.000000e+00  0.000000e+00
   outer loop
     vertex -4.375000e-01  4.843750e-01  3.906250e-02
     vertex -4.375000e-01 -6.562500e-01  3.906250e-02
     vertex -4.375000e-01 -5.546875e-01  1.562500e-02
   endloop
 endfacet
 facet normal -1.000000e+00 -0.000000e+00  0.000000e+00
   outer loop
     vertex -1.093750e+00  4.843750e-01  3.906250e-02
     vertex -1.093750e+00 -6.562500e-01 -8.593750e-02
     vertex -1.093750e+00 -6.562500e-01  3.906250e-02
   endloop
 endfacet
 facet normal -1.000000e+00  0.000000e+00 -0.000000e+00
   outer loop
     vertex -1.093750e+00  4.843750e-01  3.906250e-02
     vertex -1.093750e+00  4.843750e-01 -8.593750e-02
     vertex -1.093750e+00 -6.562500e-01 -8.593750e-02
   endloop
 endfacet
 facet normal  0.000000e+00 -1.000000e+00  0.000000e+00
   outer loop
     vertex -4.375000e-01 -6.562500e-01 -8.593750e-02
     vertex -4.375000e-01 -6.562500e-01  3.906250e-02
     vertex -1.093750e+00 -6.562500e-01  3.906250e-02
   endloop
 endfacet
 facet normal  0.000000e+00 -1.000000e+00  0.000000e+00
   outer loop
     vertex -4.375000e-01 -6.562500e-01 -8.593750e-02
     vertex -1.093750e+00 -6.562500e-01  3.906250e-02
     vertex -1.093750e+00 -6.562500e-01 -8.593750e-02
   endloop
 endfacet
 facet normal  0.000000e+00 -0.000000e+00  1.000000e+00
   outer loop
     vertex -4.375000e-01  4.843750e-01  3.906250e-02
     vertex -4.375000e-01  5.312500e-01  3.906250e-02
     vertex -1.093750e+00  5.312500e-01  3.906250e-02
   endloop
 endfacet
 facet normal  0.000000e+00  0.000000e+00  1.000000e+00
   outer loop
     vertex -4.375000e-01  4.843750e-01  3.906250e-02
     vertex -1.093750e+00  5.312500e-01  3.906250e-02
     vertex -1.093750e+00  4.843750e-01  3.906250e-02
   endloop
 endfacet
 facet normal  0.000000e+00 -1.000000e+00  0.000000e+00
   outer loop
     vertex  4.437500e-01 -5.546875e-01  0.000000e+00
     vertex -4.375000e-01 -5.546875e-01  1.562500e-02
     vertex -4.375000e-01 -5.546875e-01  0.000000e+00
   endloop
 endfacet
 facet normal  0.000000e+00 -1.000000e+00  0.000000e+00
   outer loop
     vertex  4.437500e-01 -5.546875e-01  0.000000e+00
     vertex  4.437500e-01 -5.546875e-01  1.562500e-02
     vertex -4.375000e-01 -5.546875e-01  1.562500e-02
   endloop
 endfacet
 facet normal  1.000000e+00  0.000000e+00  0.000000e+00
   outer loop
     vertex  4.437500e-01  5.468750e-01  0.000000e+00
     vertex  4.437500e-01 -5.546875e-01  1.562500e-02
     vertex  4.437500e-01 -5.546875e-01  0.000000e+00
   endloop
 endfacet
 facet normal  1.000000e+00  0.000000e+00 -0.000000e+00
   outer loop
     vertex  4.437500e-01  5.468750e-01  0.000000e+00
     vertex  4.437500e-01  5.468750e-01  1.562500e-02
     vertex  4.437500e-01 -5.546875e-01  1.562500e-02
   endloop
 endfacet
 facet normal -7.071068e-01  7.071068e-01  0.000000e+00
   outer loop
     vertex -3.215461e-01 -4.851151e-01  0.000000e+00
     vertex -2.751645e-01 -4.387336e-01  1.562500e-02
     vertex -2.751645e-01 -4.387336e-01  0.000000e+00
   endloop
 endfacet
 facet normal -7.071068e-01  7.071068e-01  0.000000e+00
   outer loop
     vertex -3.215461e-01 -4.851151e-01  0.000000e+00
     vertex -3.215461e-01 -4.851151e-01  1.562500e-02
     vertex -2.751645e-01 -4.387336e-01  1.562500e-02
   endloop
 endfacet
 facet normal  7.071068e-01  7.071068e-01 -0.000000e+00
   outer loop
     vertex -3.679276e-01 -4.387336e-01  0.000000e+00
     vertex -3.679276e-01 -4.387336e-01  1.562500e-02
     vertex -3.215461e-01 -4.851151e-01  1.562500e-02
   endloop
 endfacet
 facet normal  7.071068e-01  7.071068e-01  0.000000e+00
   outer loop
     vertex -3.679276e-01 -4.387336e-01  0.000000e+00
     vertex -3.215461e-01 -4.851151e-01  1.562500e-02
     vertex -3.215461e-01 -4.851151e-01  0.000000e+00
   endloop
 endfacet
 facet normal  7.071068e-01 -7.071068e-01  0.000000e+00
   outer loop
     vertex -3.215461e-01 -3.923520e-01  0.000000e+00
     vertex -3.215461e-01 -3.923520e-01  1.562500e-02
     vertex -3.679276e-01 -4.387336e-01  1.562500e-02
   endloop
 endfacet
 facet normal  7.071068e-01 -7.071068e-01  0.000000e+00
   outer loop
     vertex -3.215461e-01 -3.923520e-01  0.000000e+00
     vertex -3.679276e-01 -4.387336e-01  1.562500e-02
     vertex -3.679276e-01 -4.387336e-01  0.000000e+00
   endloop
 endfacet
 facet normal -7.071068e-01 -7.071068e-01  0.000000e+00
   outer loop
     vertex -2.751645e-01 -4.387336e-01  0.000000e+00
     vertex -2.751645e-01 -4.387336e-01  1.562500e-02
     vertex -3.215461e-01 -3.923520e-01  1.562500e-02
   endloop
 endfacet
 facet normal -7.071068e-01 -7.071068e-01  0.000000e+00
   outer loop
     vertex -2.751645e-01 -4.387336e-01  0.000000e+00
     vertex -3.215461e-01 -3.923520e-01  1.562500e-02
     vertex -3.215461e-01 -3.923520e-01  0.000000e+00
   endloop
 endfacet
 facet normal -7.071068e-01  7.071068e-01  0.000000e+00
   outer loop
     vertex -3.215461e-01  3.961349e-01  0.000000e+00
     vertex -2.751645e-01  4.425164e-01  1.562500e-02
     vertex -2.751645e-01  4.425164e-01  0.000000e+00
   endloop
 endfacet
 facet normal -7.071068e-01  7.071068e-01  0.000000e+00
   outer loop
     vertex -3.215461e-01  3.961349e-01  0.000000e+00
     vertex -3.215461e-01  3.961349e-01  1.562500e-02
     vertex -2.751645e-01  4.425164e-01  1.562500e-02
   endloop
 endfacet
 facet normal  7.071068e-01  7.071068e-01 -0.000000e+00
   outer loop
     vertex -3.679276e-01  4.425164e-01  0.000000e+00
     vertex -3.679276e-01  4.425164e-01  1.562500e-02
     vertex -3.215461e-01  3.961349e-01  1.562500e-02
   endloop
 endfacet
 facet normal  7.071068e-01  7.071068e-01  0.000000e+00
   outer loop
     vertex -3.679276e-01  4.425164e-01  0.000000e+00
     vertex -3.215461e-01  3.961349e-01  1.562500e-02
     vertex -3.215461e-01  3.961349e-01  0.000000e+00
   endloop
 endfacet
 facet normal  7.071068e-01 -7.071068e-01  0.000000e+00
   outer loop
     vertex -3.215461e-01  4.888980e-01  0.000000e+00
     vertex -3.215461e-01  4.888980e-01  1.562500e-02
     vertex -3.679276e-01  4.425164e-01  1.562500e-02
   endloop
 endfacet
 facet normal  7.071068e-01 -7.071068e-01  0.000000e+00
   outer loop
     vertex -3.215461e-01  4.888980e-01  0.000000e+00
     vertex -3.679276e-01  4.425164e-01  1.562500e-02
     vertex -3.679276e-01  4.425164e-01  0.000000e+00
   endloop
 endfacet
 facet normal -7.071068e-01 -7.071068e-01  0.000000e+00
   outer loop
     vertex -2.751645e-01  4.425164e-01  0.000000e+00
     vertex -2.751645e-01  4.425164e-01  1.562500e-02
     vertex -3.215461e-01  4.888980e-01  1.562500e-02
   endloop
 endfacet
 facet normal -7.071068e-01 -7.071068e-01  0.000000e+00
   outer loop
     vertex -2.751645e-01  4.425164e-01  0.000000e+00
     vertex -3.215461e-01  4.888980e-01  1.562500e-02
     vertex -3.215461e-01  4.888980e-01  0.000000e+00
   endloop
 endfacet
 facet normal -9.914449e-01  1.305262e-01  0.000000e+00
   outer loop
     vertex  3.279334e-01 -8.514071e-02  0.000000e+00
     vertex  3.393914e-01  1.891447e-03  1.562500e-02
     vertex  3.393914e-01  1.891447e-03  0.000000e+00
   endloop
 endfacet
 facet normal -9.914449e-01  1.305262e-01  0.000000e+00
   outer loop
     vertex  3.279334e-01 -8.514071e-02  0.000000e+00
     vertex  3.279334e-01 -8.514071e-02  1.562500e-02
     vertex  3.393914e-01  1.891447e-03  1.562500e-02
   endloop
 endfacet
 facet normal -9.238795e-01  3.826834e-01  0.000000e+00
   outer loop
     vertex  2.943403e-01 -1.662418e-01  0.000000e+00
     vertex  2.943403e-01 -1.662418e-01  1.562500e-02
     vertex  3.279334e-01 -8.514071e-02  1.562500e-02
   endloop
 endfacet
 facet normal -9.238795e-01  3.826834e-01  0.000000e+00
   outer loop
     vertex  2.943403e-01 -1.662418e-01  0.000000e+00
     vertex  3.279334e-01 -8.514071e-02  1.562500e-02
     vertex  3.279334e-01 -8.514071e-02  0.000000e+00
   endloop
 endfacet
 facet normal -7.933533e-01  6.087614e-01  0.000000e+00
   outer loop
     vertex  2.409013e-01 -2.358848e-01  0.000000e+00
     vertex  2.409013e-01 -2.358848e-01  1.562500e-02
     vertex  2.943403e-01 -1.662418e-01  1.562500e-02
   endloop
 endfacet
 facet normal -7.933533e-01  6.087614e-01  0.000000e+00
   outer loop
     vertex  2.409013e-01 -2.358848e-01  0.000000e+00
     vertex  2.943403e-01 -1.662418e-01  1.562500e-02
     vertex  2.943403e-01 -1.662418e-01  0.000000e+00
   endloop
 endfacet
 facet normal -6.087614e-01  7.933533e-01  0.000000e+00
   outer loop
     vertex  1.712582e-01 -2.893238e-01  0.000000e+00
     vertex  1.712582e-01 -2.893238e-01  1.562500e-02
     vertex  2.409013e-01 -2.358848e-01  1.562500e-02
   endloop
 endfacet
 facet normal -6.087614e-01  7.933533e-01  0.000000e+00
   outer loop
     vertex  1.712582e-01 -2.893238e-01  0.000000e+00
     vertex  2.409013e-01 -2.358848e-01  1.562500e-02
     vertex  2.409013e-01 -2.358848e-01  0.000000e+00
   endloop
 endfacet
 facet normal -3.826834e-01  9.238795e-01  0.000000e+00
   outer loop
     vertex  9.015716e-02 -3.229170e-01  0.000000e+00
     vertex  9.015716e-02 -3.229170e-01  1.562500e-02
     vertex  1.712582e-01 -2.893238e-01  1.562500e-02
   endloop
 endfacet
 facet normal -3.826834e-01  9.238795e-01  0.000000e+00
   outer loop
     vertex  9.015716e-02 -3.229170e-01  0.000000e+00
     vertex  1.712582e-01 -2.893238e-01  1.562500e-02
     vertex  1.712582e-01 -2.893238e-01  0.000000e+00
   endloop
 endfacet
 facet normal -1.305262e-01  9.914449e-01  0.000000e+00
   outer loop
     vertex  3.125000e-03 -3.343750e-01  0.000000e+00
     vertex  3.125000e-03 -3.343750e-01  1.562500e-02
     vertex  9.015716e-02 -3.229170e-01  1.562500e-02
   endloop
 endfacet
 facet normal -1.305262e-01  9.914449e-01  0.000000e+00
   outer loop
     vertex  3.125000e-03 -3.343750e-01  0.000000e+00
     vertex  9.015716e-02 -3.229170e-01  1.562500e-02
     vertex  9.015716e-02 -3.229170e-01  0.000000e+00
   endloop
 endfacet
 facet normal  1.305262e-01  9.914449e-01 -0.000000e+00
   outer loop
     vertex -8.390716e-02 -3.229170e-01  0.000000e+00
     vertex -8.390716e-02 -3.229170e-01  1.562500e-02
     vertex  3.125000e-03 -3.343750e-01  1.562500e-02
   endloop
 endfacet
 facet normal  1.305262e-01  9.914449e-01  0.000000e+00
   outer loop
     vertex -8.390716e-02 -3.229170e-01  0.000000e+00
     vertex  3.125000e-03 -3.343750e-01  1.562500e-02
     vertex  3.125000e-03 -3.343750e-01  0.000000e+00
   endloop
 endfacet
 facet normal  3.826834e-01  9.238795e-01 -0.000000e+00
   outer loop
     vertex -1.650082e-01 -2.893238e-01  0.000000e+00
     vertex -1.650082e-01 -2.893238e-01  1.562500e-02
     vertex -8.390716e-02 -3.229170e-01  1.562500e-02
   endloop
 endfacet
 facet normal  3.826834e-01  9.238795e-01  0.000000e+00
   outer loop
     vertex -1.650082e-01 -2.893238e-01  0.000000e+00
     vertex -8.390716e-02 -3.229170e-01  1.562500e-02
     vertex -8.390716e-02 -3.229170e-01  0.000000e+00
   endloop
 endfacet
 facet normal  6.087614e-01  7.933533e-01 -0.000000e+00
   outer loop
     vertex -2.346513e-01 -2.358848e-01  0.000000e+00
     vertex -2.346513e-01 -2.358848e-01  1.562500e-02
     vertex -1.650082e-01 -2.893238e-01  1.562500e-02
   endloop
 endfacet
 facet normal  6.087614e-01  7.933533e-01  0.000000e+00
   outer loop
     vertex -2.346513e-01 -2.358848e-01  0.000000e+00
     vertex -1.650082e-01 -2.893238e-01  1.562500e-02
     vertex -1.650082e-01 -2.893238e-01  0.000000e+00
   endloop
 endfacet
 facet normal  7.933533e-01  6.087614e-01 -0.000000e+00
   outer loop
     vertex -2.880903e-01 -1.662418e-01  0.000000e+00
     vertex -2.880903e-01 -1.662418e-01  1.562500e-02
     vertex -2.346513e-01 -2.358848e-01  1.562500e-02
   endloop
 endfacet
 facet normal  7.933533e-01  6.087614e-01  0.000000e+00
   outer loop
     vertex -2.880903e-01 -1.662418e-01  0.000000e+00
     vertex -2.346513e-01 -2.358848e-01  1.562500e-02
     vertex -2.346513e-01 -2.358848e-01  0.000000e+00
   endloop
 endfacet
 facet normal  9.238795e-01  3.826834e-01 -0.000000e+00
   outer loop
     vertex -3.216834e-01 -8.514071e-02  0.000000e+00
     vertex -3.216834e-01 -8.514071e-02  1.562500e-02
     vertex -2.880903e-01 -1.662418e-01  1.562500e-02
   endloop
 endfacet
 facet normal  9.238795e-01  3.826834e-01  0.000000e+00
   outer loop
     vertex -3.216834e-01 -8.514071e-02  0.000000e+00
     vertex -2.880903e-01 -1.662418e-01  1.562500e-02
     vertex -2.880903e-01 -1.662418e-01  0.000000e+00
   endloop
 endfacet
 facet normal  9.914449e-01  1.305262e-01  0.000000e+00
   outer loop
     vertex -3.331414e-01  1.891447e-03  0.000000e+00
     vertex -3.216834e-01 -8.514071e-02  1.562500e-02
     vertex -3.216834e-01 -8.514071e-02  0.000000e+00
   endloop
 endfacet
 facet normal  9.914449e-01  1.305262e-01 -0.000000e+00
   outer loop
     vertex -3.331414e-01  1.891447e-03  0.000000e+00
     vertex -3.331414e-01  1.891447e-03  1.562500e-02
     vertex -3.216834e-01 -8.514071e-02  1.562500e-02
   endloop
 endfacet
 facet normal  9.914449e-01 -1.305262e-01  0.000000e+00
   outer loop
     vertex -3.216834e-01  8.892361e-02  0.000000e+00
     vertex -3.331414e-01  1.891447e-03  1.562500e-02
     vertex -3.331414e-01  1.891447e-03  0.000000e+00
   endloop
 endfacet
 facet normal  9.914449e-01 -1.305262e-01  0.000000e+00
   outer loop
     vertex -3.216834e-01  8.892361e-02  0.000000e+00
     vertex -3.216834e-01  8.892361e-02  1.562500e-02
     vertex -3.331414e-01  1.891447e-03  1.562500e-02
   endloop
 endfacet
 facet normal  9.238795e-01 -3.826834e-01  0.000000e+00
   outer loop
     vertex -2.880903e-01  1.700247e-01  0.000000e+00
     vertex -3.216834e-01  8.892361e-02  1.562500e-02
     vertex -3.216834e-01  8.892361e-02  0.000000e+00
   endloop
 endfacet
 facet normal  9.238795e-01 -3.826834e-01  0.000000e+00
   outer loop
     vertex -2.880903e-01  1.700247e-01  0.000000e+00
     vertex -2.880903e-01  1.700247e-01  1.562500e-02
     vertex -3.216834e-01  8.892361e-02  1.562500e-02
   endloop
 endfacet
 facet normal  7.933533e-01 -6.087614e-01  0.000000e+00
   outer loop
     vertex -2.346513e-01  2.396677e-01  0.000000e+00
     vertex -2.880903e-01  1.700247e-01  1.562500e-02
     vertex -2.880903e-01  1.700247e-01  0.000000e+00
   endloop
 endfacet
 facet normal  7.933533e-01 -6.087614e-01  0.000000e+00
   outer loop
     vertex -2.346513e-01  2.396677e-01  0.000000e+00
     vertex -2.346513e-01  2.396677e-01  1.562500e-02
     vertex -2.880903e-01  1.700247e-01  1.562500e-02
   endloop
 endfacet
 facet normal  6.087614e-01 -7.933533e-01  0.000000e+00
   outer loop
     vertex -1.650082e-01  2.931067e-01  0.000000e+00
     vertex -2.346513e-01  2.396677e-01  1.562500e-02
     vertex -2.346513e-01  2.396677e-01  0.000000e+00
   endloop
 endfacet
 facet normal  6.087614e-01 -7.933533e-01  0.000000e+00
   outer loop
     vertex -1.650082e-01  2.931067e-01  0.000000e+00
     vertex -1.650082e-01  2.931067e-01  1.562500e-02
     vertex -2.346513e-01  2.396677e-01  1.562500e-02
   endloop
 endfacet
 facet normal  3.826834e-01 -9.238795e-01  0.000000e+00
   outer loop
     vertex -8.390716e-02  3.266999e-01  0.000000e+00
     vertex -1.650082e-01  2.931067e-01  1.562500e-02
     vertex -1.650082e-01  2.931067e-01  0.000000e+00
   endloop
 endfacet
 facet normal  3.826834e-01 -9.238795e-01  0.000000e+00
   outer loop
     vertex -8.390716e-02  3.266999e-01  0.000000e+00
     vertex -8.390716e-02  3.266999e-01  1.562500e-02
     vertex -1.650082e-01  2.931067e-01  1.562500e-02
   endloop
 endfacet
 facet normal  1.305262e-01 -9.914449e-01  0.000000e+00
   outer loop
     vertex  3.125000e-03  3.381579e-01  0.000000e+00
     vertex -8.390716e-02  3.266999e-01  1.562500e-02
     vertex -8.390716e-02  3.266999e-01  0.000000e+00
   endloop
 endfacet
 facet normal  1.305262e-01 -9.914449e-01  0.000000e+00
   outer loop
     vertex  3.125000e-03  3.381579e-01  0.000000e+00
     vertex  3.125000e-03  3.381579e-01  1.562500e-02
     vertex -8.390716e-02  3.266999e-01  1.562500e-02
   endloop
 endfacet
 facet normal -1.305262e-01 -9.914449e-01  0.000000e+00
   outer loop
     vertex  9.015716e-02  3.266999e-01  0.000000e+00
     vertex  9.015716e-02  3.266999e-01  1.562500e-02
     vertex  3.125000e-03  3.381579e-01  1.562500e-02
   endloop
 endfacet
 facet normal -1.305262e-01 -9.914449e-01  0.000000e+00
   outer loop
     vertex  9.015716e-02  3.266999e-01  0.000000e+00
     vertex  3.125000e-03  3.381579e-01  1.562500e-02
     vertex  3.125000e-03  3.381579e-01  0.000000e+00
   endloop
 endfacet
 facet normal -3.826834e-01 -9.238795e-01  0.000000e+00
   outer loop
     vertex  1.712582e-01  2.931067e-01  0.000000e+00
     vertex  1.712582e-01  2.931067e-01  1.562500e-02
     vertex  9.015716e-02  3.266999e-01  1.562500e-02
   endloop
 endfacet
 facet normal -3.826834e-01 -9.238795e-01  0.000000e+00
   outer loop
     vertex  1.712582e-01  2.931067e-01  0.000000e+00
     vertex  9.015716e-02  3.266999e-01  1.562500e-02
     vertex  9.015716e-02  3.266999e-01  0.000000e+00
   endloop
 endfacet
 facet normal -6.087614e-01 -7.933533e-01  0.000000e+00
   outer loop
     vertex  2.409013e-01  2.396677e-01  0.000000e+00
     vertex  2.409013e-01  2.396677e-01  1.562500e-02
     vertex  1.712582e-01  2.931067e-01  1.562500e-02
   endloop
 endfacet
 facet normal -6.087614e-01 -7.933533e-01  0.000000e+00
   outer loop
     vertex  2.409013e-01  2.396677e-01  0.000000e+00
     vertex  1.712582e-01  2.931067e-01  1.562500e-02
     vertex  1.712582e-01  2.931067e-01  0.000000e+00
   endloop
 endfacet
 facet normal -7.933533e-01 -6.087614e-01  0.000000e+00
   outer loop
     vertex  2.943403e-01  1.700247e-01  0.000000e+00
     vertex  2.943403e-01  1.700247e-01  1.562500e-02
     vertex  2.409013e-01  2.396677e-01  1.562500e-02
   endloop
 endfacet
 facet normal -7.933533e-01 -6.087614e-01  0.000000e+00
   outer loop
     vertex  2.943403e-01  1.700247e-01  0.000000e+00
     vertex  2.409013e-01  2.396677e-01  1.562500e-02
     vertex  2.409013e-01  2.396677e-01  0.000000e+00
   endloop
 endfacet
 facet normal -9.238795e-01 -3.826834e-01  0.000000e+00
   outer loop
     vertex  3.279334e-01  8.892361e-02  0.000000e+00
     vertex  3.279334e-01  8.892361e-02  1.562500e-02
     vertex  2.943403e-01  1.700247e-01  1.562500e-02
   endloop
 endfacet
 facet normal -9.238795e-01 -3.826834e-01  0.000000e+00
   outer loop
     vertex  3.279334e-01  8.892361e-02  0.000000e+00
     vertex  2.943403e-01  1.700247e-01  1.562500e-02
     vertex  2.943403e-01  1.700247e-01  0.000000e+00
   endloop
 endfacet
 facet normal -9.914449e-01 -1.305262e-01  0.000000e+00
   outer loop
     vertex  3.393914e-01  1.891447e-03  0.000000e+00
     vertex  3.393914e-01  1.891447e-03  1.562500e-02
     vertex  3.279334e-01  8.892361e-02  1.562500e-02
   endloop
 endfacet
 facet normal -9.914449e-01 -1.305262e-01  0.000000e+00
   outer loop
     vertex  3.393914e-01  1.891447e-03  0.000000e+00
     vertex  3.279334e-01  8.892361e-02  1.562500e-02
     vertex  3.279334e-01  8.892361e-02  0.000000e+00
   endloop
 endfacet
 facet normal -7.071068e-01  7.071068e-01  0.000000e+00
   outer loop
     vertex  3.277961e-01 -4.851151e-01  0.000000e+00
     vertex  3.741776e-01 -4.387336e-01  1.562500e-02
     vertex  3.741776e-01 -4.387336e-01  0.000000e+00
   endloop
 endfacet
 facet normal -7.071068e-01  7.071068e-01  0.000000e+00
   outer loop
     vertex  3.277961e-01 -4.851151e-01  0.000000e+00
     vertex  3.277961e-01 -4.851151e-01  1.562500e-02
     vertex  3.741776e-01 -4.387336e-01  1.562500e-02
   endloop
 endfacet
 facet normal  7.071068e-01  7.071068e-01 -0.000000e+00
   outer loop
     vertex  2.814145e-01 -4.387336e-01  0.000000e+00
     vertex  2.814145e-01 -4.387336e-01  1.562500e-02
     vertex  3.277961e-01 -4.851151e-01  1.562500e-02
   endloop
 endfacet
 facet normal  7.071068e-01  7.071068e-01  0.000000e+00
   outer loop
     vertex  2.814145e-01 -4.387336e-01  0.000000e+00
     vertex  3.277961e-01 -4.851151e-01  1.562500e-02
     vertex  3.277961e-01 -4.851151e-01  0.000000e+00
   endloop
 endfacet
 facet normal  7.071068e-01 -7.071068e-01  0.000000e+00
   outer loop
     vertex  3.277961e-01 -3.923520e-01  0.000000e+00
     vertex  3.277961e-01 -3.923520e-01  1.562500e-02
     vertex  2.814145e-01 -4.387336e-01  1.562500e-02
   endloop
 endfacet
 facet normal  7.071068e-01 -7.071068e-01  0.000000e+00
   outer loop
     vertex  3.277961e-01 -3.923520e-01  0.000000e+00
     vertex  2.814145e-01 -4.387336e-01  1.562500e-02
     vertex  2.814145e-01 -4.387336e-01  0.000000e+00
   endloop
 endfacet
 facet normal -7.071068e-01 -7.071068e-01  0.000000e+00
   outer loop
     vertex  3.741776e-01 -4.387336e-01  0.000000e+00
     vertex  3.741776e-01 -4.387336e-01  1.562500e-02
     vertex  3.277961e-01 -3.923520e-01  1.562500e-02
   endloop
 endfacet
 facet normal -7.071068e-01 -7.071068e-01  0.000000e+00
   outer loop
     vertex  3.741776e-01 -4.387336e-01  0.000000e+00
     vertex  3.277961e-01 -3.923520e-01  1.562500e-02
     vertex  3.277961e-01 -3.923520e-01  0.000000e+00
   endloop
 endfacet
 facet normal -7.071068e-01  7.071068e-01  0.000000e+00
   outer loop
     vertex  3.277961e-01  3.961349e-01  0.000000e+00
     vertex  3.741776e-01  4.425164e-01  1.562500e-02
     vertex  3.741776e-01  4.425164e-01  0.000000e+00
   endloop
 endfacet
 facet normal -7.071068e-01  7.071068e-01  0.000000e+00
   outer loop
     vertex  3.277961e-01  3.961349e-01  0.000000e+00
     vertex  3.277961e-01  3.961349e-01  1.562500e-02
     vertex  3.741776e-01  4.425164e-01  1.562500e-02
   endloop
 endfacet
 facet normal  7.071068e-01  7.071068e-01 -0.000000e+00
   outer loop
     vertex  2.814145e-01  4.425164e-01  0.000000e+00
     vertex  2.814145e-01  4.425164e-01  1.562500e-02
     vertex  3.277961e-01  3.961349e-01  1.562500e-02
   endloop
 endfacet
 facet normal  7.071068e-01  7.071068e-01  0.000000e+00
   outer loop
     vertex  2.814145e-01  4.425164e-01  0.000000e+00
     vertex  3.277961e-01  3.961349e-01  1.562500e-02
     vertex  3.277961e-01  3.961349e-01  0.000000e+00
   endloop
 endfacet
 facet normal  7.071068e-01 -7.071068e-01  0.000000e+00
   outer loop
     vertex  3.277961e-01  4.888980e-01  0.000000e+00
     vertex  3.277961e-01  4.888980e-01  1.562500e-02
     vertex  2.814145e-01  4.425164e-01  1.562500e-02
   endloop
 endfacet
 facet normal  7.071068e-01 -7.071068e-01  0.000000e+00
   outer loop
     vertex  3.277961e-01  4.888980e-01  0.000000e+00
     vertex  2.814145e-01  4.425164e-01  1.562500e-02
     vertex  2.814145e-01  4.425164e-01  0.000000e+00
   endloop
 endfacet
 facet normal -7.071068e-01 -7.071068e-01  0.000000e+00
   outer loop
     vertex  3.741776e-01  4.425164e-01  0.000000e+00
     vertex  3.741776e-01  4.425164e-01  1.562500e-02
     vertex  3.277961e-01  4.888980e-01  1.562500e-02
   endloop
 endfacet
 facet normal -7.071068e-01 -7.071068e-01  0.000000e+00
   outer loop
     vertex  3.741776e-01  4.425164e-01  0.000000e+00
     vertex  3.277961e-01  4.888980e-01  1.562500e-02
     vertex  3.277961e-01  4.888980e-01  0.000000e+00
   endloop
 endfacet
 facet normal  0.000000e+00 -0.000000e+00  1.000000e+00
   outer loop
     vertex -4.375000e-01 -6.562500e-01  3.906250e-02
     vertex -4.375000e-01  4.843750e-01  3.906250e-02
     vertex -1.093750e+00  4.843750e-01  3.906250e-02
   endloop
 endfacet
 facet normal  0.000000e+00  0.000000e+00  1.000000e+00
   outer loop
     vertex -4.375000e-01 -6.562500e-01  3.906250e-02
     vertex -1.093750e+00  4.843750e-01  3.906250e-02
     vertex -1.093750e+00 -6.562500e-01  3.906250e-02
   endloop
 endfacet
endsolid
