solid 
 facet normal  0.000000e+00  7.071068e-01  7.071068e-01
   outer loop
     vertex  5.920104e-35 -7.730263e-03  7.812500e-03
     vertex -2.417066e-19 -1.167763e-02  1.175987e-02
     vertex  7.500000e-01 -1.167763e-02  1.175987e-02
   endloop
 endfacet
 facet normal -0.000000e+00  7.071068e-01  7.071068e-01
   outer loop
     vertex  5.920104e-35 -7.730263e-03  7.812500e-03
     vertex  7.500000e-01 -1.167763e-02  1.175987e-02
     vertex  7.500000e-01 -7.730263e-03  7.812500e-03
   endloop
 endfacet
 facet normal  0.000000e+00  7.071068e-01 -7.071068e-01
   outer loop
     vertex  2.417066e-19 -1.167763e-02  3.865132e-03
     vertex  7.500000e-01 -7.730263e-03  7.812500e-03
     vertex  7.500000e-01 -1.167763e-02  3.865132e-03
   endloop
 endfacet
 facet normal  0.000000e+00  7.071068e-01 -7.071068e-01
   outer loop
     vertex  2.417066e-19 -1.167763e-02  3.865132e-03
     vertex  5.920104e-35 -7.730263e-03  7.812500e-03
     vertex  7.500000e-01 -7.730263e-03  7.812500e-03
   endloop
 endfacet
 facet normal  0.000000e+00 -7.071068e-01 -7.071068e-01
   outer loop
     vertex -2.386779e-48 -1.562500e-02  7.812500e-03
     vertex  7.500000e-01 -1.167763e-02  3.865132e-03
     vertex  7.500000e-01 -1.562500e-02  7.812500e-03
   endloop
 endfacet
 facet normal  0.000000e+00 -7.071068e-01 -7.071068e-01
   outer loop
     vertex -2.386779e-48 -1.562500e-02  7.812500e-03
     vertex  2.417066e-19 -1.167763e-02  3.865132e-03
     vertex  7.500000e-01 -1.167763e-02  3.865132e-03
   endloop
 endfacet
 facet normal  0.000000e+00 -7.071068e-01  7.071068e-01
   outer loop
     vertex -2.417066e-19 -1.167763e-02  1.175987e-02
     vertex  7.500000e-01 -1.562500e-02  7.812500e-03
     vertex  7.500000e-01 -1.167763e-02  1.175987e-02
   endloop
 endfacet
 facet normal  0.000000e+00 -7.071068e-01  7.071068e-01
   outer loop
     vertex -2.417066e-19 -1.167763e-02  1.175987e-02
     vertex -2.386779e-48 -1.562500e-02  7.812500e-03
     vertex  7.500000e-01 -1.562500e-02  7.812500e-03
   endloop
 endfacet
 facet normal  0.000000e+00 -7.071068e-01  7.071068e-01
   outer loop
     vertex -2.386779e-48 -1.562500e-02  7.812500e-03
     vertex -2.417066e-19 -1.167763e-02  1.175987e-02
     vertex -4.765625e-01 -1.167763e-02  1.175987e-02
   endloop
 endfacet
 facet normal  0.000000e+00 -7.071068e-01  7.071068e-01
   outer loop
     vertex -2.386779e-48 -1.562500e-02  7.812500e-03
     vertex -4.765625e-01 -1.167763e-02  1.175987e-02
     vertex -4.765625e-01 -1.562500e-02  7.812500e-03
   endloop
 endfacet
 facet normal -0.000000e+00 -7.071068e-01 -7.071068e-01
   outer loop
     vertex  2.417066e-19 -1.167763e-02  3.865132e-03
     vertex -4.765625e-01 -1.562500e-02  7.812500e-03
     vertex -4.765625e-01 -1.167763e-02  3.865132e-03
   endloop
 endfacet
 facet normal  0.000000e+00 -7.071068e-01 -7.071068e-01
   outer loop
     vertex  2.417066e-19 -1.167763e-02  3.865132e-03
     vertex -2.386779e-48 -1.562500e-02  7.812500e-03
     vertex -4.765625e-01 -1.562500e-02  7.812500e-03
   endloop
 endfacet
 facet normal  0.000000e+00  7.071068e-01 -7.071068e-01
   outer loop
     vertex  5.920104e-35 -7.730263e-03  7.812500e-03
     vertex -4.765625e-01 -1.167763e-02  3.865132e-03
     vertex -4.765625e-01 -7.730263e-03  7.812500e-03
   endloop
 endfacet
 facet normal  0.000000e+00  7.071068e-01 -7.071068e-01
   outer loop
     vertex  5.920104e-35 -7.730263e-03  7.812500e-03
     vertex  2.417066e-19 -1.167763e-02  3.865132e-03
     vertex -4.765625e-01 -1.167763e-02  3.865132e-03
   endloop
 endfacet
 facet normal  0.000000e+00  7.071068e-01  7.071068e-01
   outer loop
     vertex -2.417066e-19 -1.167763e-02  1.175987e-02
     vertex -4.765625e-01 -7.730263e-03  7.812500e-03
     vertex -4.765625e-01 -1.167763e-02  1.175987e-02
   endloop
 endfacet
 facet normal  0.000000e+00  7.071068e-01  7.071068e-01
   outer loop
     vertex -2.417066e-19 -1.167763e-02  1.175987e-02
     vertex  5.920104e-35 -7.730263e-03  7.812500e-03
     vertex -4.765625e-01 -7.730263e-03  7.812500e-03
   endloop
 endfacet
 facet normal  1.000000e+00  0.000000e+00  0.000000e+00
   outer loop
     vertex  7.500000e-01 -1.167763e-02  1.175987e-02
     vertex  7.500000e-01 -1.562500e-02  7.812500e-03
     vertex  7.500000e-01 -1.167763e-02  3.865132e-03
   endloop
 endfacet
 facet normal  1.000000e+00  0.000000e+00  0.000000e+00
   outer loop
     vertex  7.500000e-01 -1.167763e-02  1.175987e-02
     vertex  7.500000e-01 -1.167763e-02  3.865132e-03
     vertex  7.500000e-01 -7.730263e-03  7.812500e-03
   endloop
 endfacet
 facet normal -1.000000e+00  0.000000e+00 -0.000000e+00
   outer loop
     vertex -4.765625e-01 -1.167763e-02  1.175987e-02
     vertex -4.765625e-01 -1.167763e-02  3.865132e-03
     vertex -4.765625e-01 -1.562500e-02  7.812500e-03
   endloop
 endfacet
 facet normal -1.000000e+00  0.000000e+00  0.000000e+00
   outer loop
     vertex -4.765625e-01 -1.167763e-02  1.175987e-02
     vertex -4.765625e-01 -7.730263e-03  7.812500e-03
     vertex -4.765625e-01 -1.167763e-02  3.865132e-03
   endloop
 endfacet
endsolid
