solid 
 facet normal -6.123234e-17 -6.123234e-17 -1.000000e+00
   outer loop
     vertex  7.500000e-01  4.592425e-17 -4.592425e-17
     vertex  2.870266e-17 -4.687500e-01  2.870266e-17
     vertex  0.000000e+00  0.000000e+00  0.000000e+00
   endloop
 endfacet
 facet normal -6.123234e-17 -6.123234e-17 -1.000000e+00
   outer loop
     vertex  7.500000e-01  4.592425e-17 -4.592425e-17
     vertex  7.500000e-01 -4.687500e-01 -1.722160e-17
     vertex  2.870266e-17 -4.687500e-01  2.870266e-17
   endloop
 endfacet
 facet normal -1.000000e+00 -6.123234e-17  6.123234e-17
   outer loop
     vertex  0.000000e+00  0.000000e+00  0.000000e+00
     vertex  5.190649e-17 -4.687500e-01  3.789474e-01
     vertex  2.320383e-17  2.320383e-17  3.789474e-01
   endloop
 endfacet
 facet normal -1.000000e+00 -6.123234e-17  6.123234e-17
   outer loop
     vertex  0.000000e+00  0.000000e+00  0.000000e+00
     vertex  2.870266e-17 -4.687500e-01  2.870266e-17
     vertex  5.190649e-17 -4.687500e-01  3.789474e-01
   endloop
 endfacet
 facet normal  1.000000e+00  0.000000e+00  0.000000e+00
   outer loop
     vertex  7.500000e-01 -2.812500e-01  3.906250e-02
     vertex  7.500000e-01 -4.687500e-01  3.906250e-02
     vertex  7.500000e-01 -4.687500e-01 -1.722160e-17
   endloop
 endfacet
 facet normal  1.000000e+00  0.000000e+00  0.000000e+00
   outer loop
     vertex  7.500000e-01 -2.812500e-01  3.203125e-01
     vertex  7.500000e-01 -4.687500e-01  3.789474e-01
     vertex  7.500000e-01 -4.687500e-01  3.203125e-01
   endloop
 endfacet
 facet normal  1.000000e+00  0.000000e+00  0.000000e+00
   outer loop
     vertex  7.500000e-01 -2.812500e-01  3.203125e-01
     vertex  7.500000e-01 -2.812500e-01  3.906250e-02
     vertex  7.500000e-01  4.592425e-17 -4.592425e-17
   endloop
 endfacet
 facet normal  1.000000e+00  0.000000e+00  0.000000e+00
   outer loop
     vertex  7.500000e-01  6.912809e-17  3.789474e-01
     vertex  7.500000e-01 -4.687500e-01  3.789474e-01
     vertex  7.500000e-01 -2.812500e-01  3.203125e-01
   endloop
 endfacet
 facet normal  1.000000e+00  0.000000e+00  0.000000e+00
   outer loop
     vertex  7.500000e-01  6.912809e-17  3.789474e-01
     vertex  7.500000e-01 -2.812500e-01  3.203125e-01
     vertex  7.500000e-01  4.592425e-17 -4.592425e-17
   endloop
 endfacet
 facet normal  1.000000e+00  0.000000e+00  0.000000e+00
   outer loop
     vertex  7.500000e-01  4.592425e-17 -4.592425e-17
     vertex  7.500000e-01 -2.812500e-01  3.906250e-02
     vertex  7.500000e-01 -4.687500e-01 -1.722160e-17
   endloop
 endfacet
 facet normal -6.123234e-17  1.000000e+00 -6.123234e-17
   outer loop
     vertex  7.500000e-01  6.912809e-17  3.789474e-01
     vertex  7.500000e-01  4.592425e-17 -4.592425e-17
     vertex  0.000000e+00  0.000000e+00  0.000000e+00
   endloop
 endfacet
 facet normal -6.123234e-17  1.000000e+00 -6.123234e-17
   outer loop
     vertex  7.500000e-01  6.912809e-17  3.789474e-01
     vertex  0.000000e+00  0.000000e+00  0.000000e+00
     vertex  2.320383e-17  2.320383e-17  3.789474e-01
   endloop
 endfacet
 facet normal  0.000000e+00 -1.000000e+00 -0.000000e+00
   outer loop
     vertex  5.190649e-17 -4.687500e-01  3.789474e-01
     vertex  2.870266e-17 -4.687500e-01  2.870266e-17
     vertex  3.125000e-02 -4.687500e-01  3.906250e-02
   endloop
 endfacet
 facet normal -0.000000e+00 -1.000000e+00 -0.000000e+00
   outer loop
     vertex  3.125000e-02 -4.687500e-01  3.789474e-01
     vertex  5.190649e-17 -4.687500e-01  3.789474e-01
     vertex  3.125000e-02 -4.687500e-01  3.906250e-02
   endloop
 endfacet
 facet normal -0.000000e+00 -1.000000e+00  0.000000e+00
   outer loop
     vertex  4.687500e-01 -4.687500e-01  3.906250e-02
     vertex  3.125000e-02 -4.687500e-01  3.906250e-02
     vertex  2.870266e-17 -4.687500e-01  2.870266e-17
   endloop
 endfacet
 facet normal  0.000000e+00 -1.000000e+00  0.000000e+00
   outer loop
     vertex  7.500000e-01 -4.687500e-01 -1.722160e-17
     vertex  4.687500e-01 -4.687500e-01  3.906250e-02
     vertex  2.870266e-17 -4.687500e-01  2.870266e-17
   endloop
 endfacet
 facet normal -0.000000e+00 -1.000000e+00 -0.000000e+00
   outer loop
     vertex  7.109375e-01 -4.687500e-01  3.906250e-02
     vertex  4.687500e-01 -4.687500e-01  3.906250e-02
     vertex  7.500000e-01 -4.687500e-01 -1.722160e-17
   endloop
 endfacet
 facet normal -0.000000e+00 -1.000000e+00 -0.000000e+00
   outer loop
     vertex  7.500000e-01 -4.687500e-01  3.906250e-02
     vertex  7.109375e-01 -4.687500e-01  3.906250e-02
     vertex  7.500000e-01 -4.687500e-01 -1.722160e-17
   endloop
 endfacet
 facet normal  0.000000e+00  0.000000e+00  1.000000e+00
   outer loop
     vertex  7.500000e-01  6.912809e-17  3.789474e-01
     vertex  7.109375e-01 -4.687500e-01  3.789474e-01
     vertex  7.500000e-01 -4.687500e-01  3.789474e-01
   endloop
 endfacet
 facet normal  0.000000e+00  0.000000e+00  1.000000e+00
   outer loop
     vertex  2.320383e-17  2.320383e-17  3.789474e-01
     vertex  3.125000e-02 -4.687500e-01  3.789474e-01
     vertex  7.109375e-01 -4.687500e-01  3.789474e-01
   endloop
 endfacet
 facet normal  0.000000e+00  0.000000e+00  1.000000e+00
   outer loop
     vertex  2.320383e-17  2.320383e-17  3.789474e-01
     vertex  5.190649e-17 -4.687500e-01  3.789474e-01
     vertex  3.125000e-02 -4.687500e-01  3.789474e-01
   endloop
 endfacet
 facet normal -0.000000e+00  0.000000e+00  1.000000e+00
   outer loop
     vertex  2.320383e-17  2.320383e-17  3.789474e-01
     vertex  7.109375e-01 -4.687500e-01  3.789474e-01
     vertex  7.500000e-01  6.912809e-17  3.789474e-01
   endloop
 endfacet
 facet normal  0.000000e+00 -1.000000e+00 -0.000000e+00
   outer loop
     vertex  7.500000e-01 -4.687500e-01  3.789474e-01
     vertex  7.109375e-01 -4.687500e-01  3.203125e-01
     vertex  7.500000e-01 -4.687500e-01  3.203125e-01
   endloop
 endfacet
 facet normal -0.000000e+00 -1.000000e+00  0.000000e+00
   outer loop
     vertex  7.500000e-01 -4.687500e-01  3.789474e-01
     vertex  7.109375e-01 -4.687500e-01  3.789474e-01
     vertex  7.109375e-01 -4.687500e-01  3.203125e-01
   endloop
 endfacet
 facet normal  0.000000e+00  0.000000e+00 -1.000000e+00
   outer loop
     vertex  7.109375e-01 -4.687500e-01  3.203125e-01
     vertex  7.500000e-01 -2.812500e-01  3.203125e-01
     vertex  7.500000e-01 -4.687500e-01  3.203125e-01
   endloop
 endfacet
 facet normal  0.000000e+00  0.000000e+00 -1.000000e+00
   outer loop
     vertex  4.687500e-01 -2.812500e-01  3.203125e-01
     vertex  7.500000e-01 -2.812500e-01  3.203125e-01
     vertex  7.109375e-01 -4.687500e-01  3.203125e-01
   endloop
 endfacet
 facet normal  0.000000e+00  0.000000e+00 -1.000000e+00
   outer loop
     vertex  4.687500e-01 -4.687500e-01  3.203125e-01
     vertex  4.687500e-01 -2.812500e-01  3.203125e-01
     vertex  7.109375e-01 -4.687500e-01  3.203125e-01
   endloop
 endfacet
 facet normal  0.000000e+00 -1.000000e+00 -0.000000e+00
   outer loop
     vertex  7.500000e-01 -2.812500e-01  3.203125e-01
     vertex  4.687500e-01 -2.812500e-01  3.906250e-02
     vertex  7.500000e-01 -2.812500e-01  3.906250e-02
   endloop
 endfacet
 facet normal -0.000000e+00 -1.000000e+00  0.000000e+00
   outer loop
     vertex  7.500000e-01 -2.812500e-01  3.203125e-01
     vertex  4.687500e-01 -2.812500e-01  3.203125e-01
     vertex  4.687500e-01 -2.812500e-01  3.906250e-02
   endloop
 endfacet
 facet normal  0.000000e+00  0.000000e+00  1.000000e+00
   outer loop
     vertex  7.109375e-01 -4.687500e-01  3.906250e-02
     vertex  4.687500e-01 -2.812500e-01  3.906250e-02
     vertex  4.687500e-01 -4.687500e-01  3.906250e-02
   endloop
 endfacet
 facet normal  0.000000e+00 -0.000000e+00  1.000000e+00
   outer loop
     vertex  7.109375e-01 -4.687500e-01  3.906250e-02
     vertex  7.500000e-01 -2.812500e-01  3.906250e-02
     vertex  4.687500e-01 -2.812500e-01  3.906250e-02
   endloop
 endfacet
 facet normal  0.000000e+00 -0.000000e+00  1.000000e+00
   outer loop
     vertex  7.500000e-01 -4.687500e-01  3.906250e-02
     vertex  7.500000e-01 -2.812500e-01  3.906250e-02
     vertex  7.109375e-01 -4.687500e-01  3.906250e-02
   endloop
 endfacet
 facet normal -1.000000e+00  0.000000e+00  0.000000e+00
   outer loop
     vertex  3.125000e-02 -4.687500e-01  3.789474e-01
     vertex  3.125000e-02 -6.562500e-01  3.824836e-01
     vertex  3.125000e-02 -4.687500e-01  3.824836e-01
   endloop
 endfacet
 facet normal -1.000000e+00  0.000000e+00  0.000000e+00
   outer loop
     vertex  3.125000e-02 -6.562500e-01  3.906250e-02
     vertex  3.125000e-02 -6.562500e-01  3.824836e-01
     vertex  3.125000e-02 -4.687500e-01  3.789474e-01
   endloop
 endfacet
 facet normal -1.000000e+00  0.000000e+00  0.000000e+00
   outer loop
     vertex  3.125000e-02 -4.687500e-01  3.906250e-02
     vertex  3.125000e-02 -6.562500e-01  3.906250e-02
     vertex  3.125000e-02 -4.687500e-01  3.789474e-01
   endloop
 endfacet
 facet normal -0.000000e+00  0.000000e+00 -1.000000e+00
   outer loop
     vertex  4.687500e-01 -4.687500e-01  3.906250e-02
     vertex  3.125000e-02 -6.562500e-01  3.906250e-02
     vertex  3.125000e-02 -4.687500e-01  3.906250e-02
   endloop
 endfacet
 facet normal  0.000000e+00  0.000000e+00 -1.000000e+00
   outer loop
     vertex  7.109375e-01 -6.562500e-01  3.906250e-02
     vertex  3.125000e-02 -6.562500e-01  3.906250e-02
     vertex  4.687500e-01 -4.687500e-01  3.906250e-02
   endloop
 endfacet
 facet normal -0.000000e+00 -0.000000e+00 -1.000000e+00
   outer loop
     vertex  7.109375e-01 -4.687500e-01  3.906250e-02
     vertex  7.109375e-01 -6.562500e-01  3.906250e-02
     vertex  4.687500e-01 -4.687500e-01  3.906250e-02
   endloop
 endfacet
 facet normal  0.000000e+00  1.000000e+00  0.000000e+00
   outer loop
     vertex  7.109375e-01 -4.687500e-01  3.824836e-01
     vertex  3.125000e-02 -4.687500e-01  3.789474e-01
     vertex  3.125000e-02 -4.687500e-01  3.824836e-01
   endloop
 endfacet
 facet normal  0.000000e+00  1.000000e+00  0.000000e+00
   outer loop
     vertex  7.109375e-01 -4.687500e-01  3.824836e-01
     vertex  7.109375e-01 -4.687500e-01  3.789474e-01
     vertex  3.125000e-02 -4.687500e-01  3.789474e-01
   endloop
 endfacet
 facet normal  1.000000e+00  0.000000e+00  0.000000e+00
   outer loop
     vertex  7.109375e-01 -4.687500e-01  3.203125e-01
     vertex  7.109375e-01 -6.562500e-01  3.906250e-02
     vertex  7.109375e-01 -4.687500e-01  3.906250e-02
   endloop
 endfacet
 facet normal  1.000000e+00  0.000000e+00  0.000000e+00
   outer loop
     vertex  7.109375e-01 -4.687500e-01  3.203125e-01
     vertex  7.109375e-01 -6.562500e-01  3.824836e-01
     vertex  7.109375e-01 -6.562500e-01  3.906250e-02
   endloop
 endfacet
 facet normal  1.000000e+00  0.000000e+00  0.000000e+00
   outer loop
     vertex  7.109375e-01 -4.687500e-01  3.789474e-01
     vertex  7.109375e-01 -6.562500e-01  3.824836e-01
     vertex  7.109375e-01 -4.687500e-01  3.203125e-01
   endloop
 endfacet
 facet normal  1.000000e+00  0.000000e+00  0.000000e+00
   outer loop
     vertex  7.109375e-01 -4.687500e-01  3.824836e-01
     vertex  7.109375e-01 -6.562500e-01  3.824836e-01
     vertex  7.109375e-01 -4.687500e-01  3.789474e-01
   endloop
 endfacet
 facet normal  1.000000e+00  0.000000e+00  0.000000e+00
   outer loop
     vertex  4.687500e-01 -4.687500e-01  3.906250e-02
     vertex  4.687500e-01 -2.812500e-01  3.203125e-01
     vertex  4.687500e-01 -4.687500e-01  3.203125e-01
   endloop
 endfacet
 facet normal  1.000000e+00  0.000000e+00  0.000000e+00
   outer loop
     vertex  4.687500e-01 -4.687500e-01  3.906250e-02
     vertex  4.687500e-01 -2.812500e-01  3.906250e-02
     vertex  4.687500e-01 -2.812500e-01  3.203125e-01
   endloop
 endfacet
 facet normal  0.000000e+00  1.000000e+00  0.000000e+00
   outer loop
     vertex  7.109375e-01 -4.687500e-01  3.203125e-01
     vertex  4.687500e-01 -4.687500e-01  3.906250e-02
     vertex  4.687500e-01 -4.687500e-01  3.203125e-01
   endloop
 endfacet
 facet normal  0.000000e+00  1.000000e+00  0.000000e+00
   outer loop
     vertex  7.109375e-01 -4.687500e-01  3.203125e-01
     vertex  7.109375e-01 -4.687500e-01  3.906250e-02
     vertex  4.687500e-01 -4.687500e-01  3.906250e-02
   endloop
 endfacet
 facet normal -0.000000e+00  0.000000e+00  1.000000e+00
   outer loop
     vertex  3.125000e-02 -4.687500e-01  3.824836e-01
     vertex  7.109375e-01 -6.562500e-01  3.824836e-01
     vertex  7.109375e-01 -4.687500e-01  3.824836e-01
   endloop
 endfacet
 facet normal  0.000000e+00  0.000000e+00  1.000000e+00
   outer loop
     vertex  3.125000e-02 -4.687500e-01  3.824836e-01
     vertex  3.125000e-02 -6.562500e-01  3.824836e-01
     vertex  7.109375e-01 -6.562500e-01  3.824836e-01
   endloop
 endfacet
 facet normal  0.000000e+00 -1.000000e+00 -0.000000e+00
   outer loop
     vertex  7.109375e-01 -6.562500e-01  3.824836e-01
     vertex  3.125000e-02 -6.562500e-01  3.906250e-02
     vertex  7.109375e-01 -6.562500e-01  3.906250e-02
   endloop
 endfacet
 facet normal -0.000000e+00 -1.000000e+00  0.000000e+00
   outer loop
     vertex  7.109375e-01 -6.562500e-01  3.824836e-01
     vertex  3.125000e-02 -6.562500e-01  3.824836e-01
     vertex  3.125000e-02 -6.562500e-01  3.906250e-02
   endloop
 endfacet
endsolid
