solid 
 facet normal  1.000000e+00 -3.184082e-15  6.123234e-17
   outer loop
     vertex  0.000000e+00  2.421875e-01  4.218750e-01
     vertex -2.487564e-17  2.343750e-01  4.218750e-01
     vertex  0.000000e+00  2.343750e-01  1.562500e-02
   endloop
 endfacet
 facet normal  1.000000e+00  0.000000e+00  0.000000e+00
   outer loop
     vertex  0.000000e+00  2.421875e-01  4.218750e-01
     vertex  0.000000e+00  2.343750e-01  1.562500e-02
     vertex  0.000000e+00  2.421875e-01  1.562500e-02
   endloop
 endfacet
 facet normal  0.000000e+00 -1.000000e+00  0.000000e+00
   outer loop
     vertex  0.000000e+00  2.343750e-01  1.562500e-02
     vertex -2.487564e-17  2.343750e-01  4.218750e-01
     vertex -7.500000e-01  2.343750e-01  4.218750e-01
   endloop
 endfacet
 facet normal  0.000000e+00 -1.000000e+00  0.000000e+00
   outer loop
     vertex  0.000000e+00  2.343750e-01  1.562500e-02
     vertex -7.500000e-01  2.343750e-01  4.218750e-01
     vertex -7.500000e-01  2.343750e-01  1.562500e-02
   endloop
 endfacet
 facet normal  0.000000e+00 -0.000000e+00  1.000000e+00
   outer loop
     vertex -2.487564e-17  2.343750e-01  4.218750e-01
     vertex  0.000000e+00  2.421875e-01  4.218750e-01
     vertex -7.500000e-01  2.421875e-01  4.218750e-01
   endloop
 endfacet
 facet normal  0.000000e+00  0.000000e+00  1.000000e+00
   outer loop
     vertex -2.487564e-17  2.343750e-01  4.218750e-01
     vertex -7.500000e-01  2.421875e-01  4.218750e-01
     vertex -7.500000e-01  2.343750e-01  4.218750e-01
   endloop
 endfacet
 facet normal  1.000000e+00 -9.588628e-33  0.000000e+00
   outer loop
     vertex  4.810085e-35  2.472039e-01  1.562500e-02
     vertex  0.000000e+00  2.421875e-01  4.218750e-01
     vertex  0.000000e+00  2.421875e-01  1.562500e-02
   endloop
 endfacet
 facet normal  1.000000e+00  4.958816e-15  6.123234e-17
   outer loop
     vertex  4.810085e-35  2.472039e-01  1.562500e-02
     vertex -2.487564e-17  2.472039e-01  4.218750e-01
     vertex  0.000000e+00  2.421875e-01  4.218750e-01
   endloop
 endfacet
 facet normal  1.000000e+00  0.000000e+00  0.000000e+00
   outer loop
     vertex  0.000000e+00  1.578947e-02  1.562500e-02
     vertex  0.000000e+00  0.000000e+00  1.562500e-02
     vertex  0.000000e+00  0.000000e+00  0.000000e+00
   endloop
 endfacet
 facet normal  1.000000e+00  0.000000e+00  0.000000e+00
   outer loop
     vertex  0.000000e+00  2.343750e-01  1.562500e-02
     vertex  0.000000e+00  1.578947e-02  1.562500e-02
     vertex  0.000000e+00  0.000000e+00  0.000000e+00
   endloop
 endfacet
 facet normal  1.000000e+00  0.000000e+00 -0.000000e+00
   outer loop
     vertex  0.000000e+00  4.105263e-01  0.000000e+00
     vertex  0.000000e+00  4.105263e-01  1.562500e-02
     vertex  0.000000e+00  2.579770e-01  1.562500e-02
   endloop
 endfacet
 facet normal  1.000000e+00  0.000000e+00  0.000000e+00
   outer loop
     vertex  0.000000e+00  4.105263e-01  0.000000e+00
     vertex  0.000000e+00  2.343750e-01  1.562500e-02
     vertex  0.000000e+00  0.000000e+00  0.000000e+00
   endloop
 endfacet
 facet normal  1.000000e+00  0.000000e+00  0.000000e+00
   outer loop
     vertex  0.000000e+00  4.105263e-01  0.000000e+00
     vertex  0.000000e+00  2.421875e-01  1.562500e-02
     vertex  0.000000e+00  2.343750e-01  1.562500e-02
   endloop
 endfacet
 facet normal  1.000000e+00 -9.588628e-33 -1.033049e-31
   outer loop
     vertex  0.000000e+00  4.105263e-01  0.000000e+00
     vertex  4.810085e-35  2.472039e-01  1.562500e-02
     vertex  0.000000e+00  2.421875e-01  1.562500e-02
   endloop
 endfacet
 facet normal  1.000000e+00  4.464934e-33  4.359185e-32
   outer loop
     vertex  0.000000e+00  4.105263e-01  0.000000e+00
     vertex  0.000000e+00  2.579770e-01  1.562500e-02
     vertex  4.810085e-35  2.472039e-01  1.562500e-02
   endloop
 endfacet
 facet normal  0.000000e+00  0.000000e+00  1.000000e+00
   outer loop
     vertex  0.000000e+00  2.343750e-01  1.562500e-02
     vertex -7.500000e-01  2.343750e-01  1.562500e-02
     vertex -7.500000e-01  1.578947e-02  1.562500e-02
   endloop
 endfacet
 facet normal  0.000000e+00  0.000000e+00  1.000000e+00
   outer loop
     vertex  0.000000e+00  2.343750e-01  1.562500e-02
     vertex -7.500000e-01  1.578947e-02  1.562500e-02
     vertex  0.000000e+00  1.578947e-02  1.562500e-02
   endloop
 endfacet
 facet normal -1.000000e+00  0.000000e+00 -0.000000e+00
   outer loop
     vertex -7.500000e-01  2.421875e-01  4.218750e-01
     vertex -7.500000e-01  2.421875e-01  1.562500e-02
     vertex -7.500000e-01  2.343750e-01  1.562500e-02
   endloop
 endfacet
 facet normal -1.000000e+00 -0.000000e+00  0.000000e+00
   outer loop
     vertex -7.500000e-01  2.421875e-01  4.218750e-01
     vertex -7.500000e-01  2.343750e-01  1.562500e-02
     vertex -7.500000e-01  2.343750e-01  4.218750e-01
   endloop
 endfacet
 facet normal  0.000000e+00  0.000000e+00  1.000000e+00
   outer loop
     vertex -2.487564e-17  2.472039e-01  4.218750e-01
     vertex -7.500000e-01  2.472039e-01  4.218750e-01
     vertex -7.500000e-01  2.421875e-01  4.218750e-01
   endloop
 endfacet
 facet normal  0.000000e+00  0.000000e+00  1.000000e+00
   outer loop
     vertex -2.487564e-17  2.472039e-01  4.218750e-01
     vertex -7.500000e-01  2.421875e-01  4.218750e-01
     vertex  0.000000e+00  2.421875e-01  4.218750e-01
   endloop
 endfacet
 facet normal  1.000000e+00  4.464934e-33  6.123234e-17
   outer loop
     vertex  0.000000e+00  2.579770e-01  1.562500e-02
     vertex -2.487564e-17  2.472039e-01  4.218750e-01
     vertex  4.810085e-35  2.472039e-01  1.562500e-02
   endloop
 endfacet
 facet normal  1.000000e+00 -2.309067e-15  0.000000e+00
   outer loop
     vertex  0.000000e+00  2.579770e-01  1.562500e-02
     vertex  0.000000e+00  2.579770e-01  4.218750e-01
     vertex -2.487564e-17  2.472039e-01  4.218750e-01
   endloop
 endfacet
 facet normal  0.000000e+00 -1.000000e+00  0.000000e+00
   outer loop
     vertex  0.000000e+00  0.000000e+00  0.000000e+00
     vertex -7.500000e-01  0.000000e+00  1.562500e-02
     vertex -7.500000e-01  0.000000e+00  0.000000e+00
   endloop
 endfacet
 facet normal  0.000000e+00 -1.000000e+00  0.000000e+00
   outer loop
     vertex  0.000000e+00  0.000000e+00  0.000000e+00
     vertex  0.000000e+00  0.000000e+00  1.562500e-02
     vertex -7.500000e-01  0.000000e+00  1.562500e-02
   endloop
 endfacet
 facet normal  0.000000e+00  1.000000e+00  0.000000e+00
   outer loop
     vertex -7.500000e-01  4.105263e-01  0.000000e+00
     vertex  0.000000e+00  4.105263e-01  1.562500e-02
     vertex  0.000000e+00  4.105263e-01  0.000000e+00
   endloop
 endfacet
 facet normal  0.000000e+00  1.000000e+00  0.000000e+00
   outer loop
     vertex -7.500000e-01  4.105263e-01  0.000000e+00
     vertex -7.500000e-01  4.105263e-01  1.562500e-02
     vertex  0.000000e+00  4.105263e-01  1.562500e-02
   endloop
 endfacet
 facet normal  0.000000e+00 -0.000000e+00 -1.000000e+00
   outer loop
     vertex  0.000000e+00  4.105263e-01  0.000000e+00
     vertex  0.000000e+00  0.000000e+00  0.000000e+00
     vertex -7.500000e-01  0.000000e+00  0.000000e+00
   endloop
 endfacet
 facet normal -0.000000e+00  0.000000e+00 -1.000000e+00
   outer loop
     vertex  0.000000e+00  4.105263e-01  0.000000e+00
     vertex -7.500000e-01  0.000000e+00  0.000000e+00
     vertex -7.500000e-01  4.105263e-01  0.000000e+00
   endloop
 endfacet
 facet normal  1.000000e+00  0.000000e+00  0.000000e+00
   outer loop
     vertex  0.000000e+00  1.578947e-02  1.562500e-02
     vertex  0.000000e+00  0.000000e+00  4.218750e-01
     vertex  0.000000e+00  0.000000e+00  1.562500e-02
   endloop
 endfacet
 facet normal  1.000000e+00  0.000000e+00 -0.000000e+00
   outer loop
     vertex  0.000000e+00  1.578947e-02  1.562500e-02
     vertex  0.000000e+00  1.578947e-02  4.218750e-01
     vertex  0.000000e+00  0.000000e+00  4.218750e-01
   endloop
 endfacet
 facet normal  0.000000e+00  0.000000e+00  1.000000e+00
   outer loop
     vertex  0.000000e+00  4.105263e-01  1.562500e-02
     vertex -7.500000e-01  4.105263e-01  1.562500e-02
     vertex -7.500000e-01  2.579770e-01  1.562500e-02
   endloop
 endfacet
 facet normal  0.000000e+00  0.000000e+00  1.000000e+00
   outer loop
     vertex  0.000000e+00  4.105263e-01  1.562500e-02
     vertex -7.500000e-01  2.579770e-01  1.562500e-02
     vertex  0.000000e+00  2.579770e-01  1.562500e-02
   endloop
 endfacet
 facet normal  0.000000e+00  1.000000e+00  0.000000e+00
   outer loop
     vertex -7.500000e-01  1.578947e-02  1.562500e-02
     vertex  0.000000e+00  1.578947e-02  4.218750e-01
     vertex  0.000000e+00  1.578947e-02  1.562500e-02
   endloop
 endfacet
 facet normal  0.000000e+00  1.000000e+00  0.000000e+00
   outer loop
     vertex -7.500000e-01  1.578947e-02  1.562500e-02
     vertex -7.500000e-01  1.578947e-02  4.218750e-01
     vertex  0.000000e+00  1.578947e-02  4.218750e-01
   endloop
 endfacet
 facet normal -1.000000e+00  0.000000e+00  0.000000e+00
   outer loop
     vertex -7.500000e-01  2.579770e-01  1.562500e-02
     vertex -7.500000e-01  4.105263e-01  1.562500e-02
     vertex -7.500000e-01  4.105263e-01  0.000000e+00
   endloop
 endfacet
 facet normal -1.000000e+00  0.000000e+00  0.000000e+00
   outer loop
     vertex -7.500000e-01  0.000000e+00  0.000000e+00
     vertex -7.500000e-01  1.578947e-02  1.562500e-02
     vertex -7.500000e-01  2.343750e-01  1.562500e-02
   endloop
 endfacet
 facet normal -1.000000e+00  0.000000e+00  0.000000e+00
   outer loop
     vertex -7.500000e-01  0.000000e+00  0.000000e+00
     vertex -7.500000e-01  0.000000e+00  1.562500e-02
     vertex -7.500000e-01  1.578947e-02  1.562500e-02
   endloop
 endfacet
 facet normal -1.000000e+00  0.000000e+00  0.000000e+00
   outer loop
     vertex -7.500000e-01  0.000000e+00  0.000000e+00
     vertex -7.500000e-01  2.579770e-01  1.562500e-02
     vertex -7.500000e-01  4.105263e-01  0.000000e+00
   endloop
 endfacet
 facet normal -1.000000e+00  0.000000e+00  0.000000e+00
   outer loop
     vertex -7.500000e-01  0.000000e+00  0.000000e+00
     vertex -7.500000e-01  2.472039e-01  1.562500e-02
     vertex -7.500000e-01  2.579770e-01  1.562500e-02
   endloop
 endfacet
 facet normal -1.000000e+00  0.000000e+00  0.000000e+00
   outer loop
     vertex -7.500000e-01  0.000000e+00  0.000000e+00
     vertex -7.500000e-01  2.421875e-01  1.562500e-02
     vertex -7.500000e-01  2.472039e-01  1.562500e-02
   endloop
 endfacet
 facet normal -1.000000e+00  0.000000e+00  0.000000e+00
   outer loop
     vertex -7.500000e-01  0.000000e+00  0.000000e+00
     vertex -7.500000e-01  2.343750e-01  1.562500e-02
     vertex -7.500000e-01  2.421875e-01  1.562500e-02
   endloop
 endfacet
 facet normal -1.000000e+00  0.000000e+00  0.000000e+00
   outer loop
     vertex -7.500000e-01  2.421875e-01  1.562500e-02
     vertex -7.500000e-01  2.472039e-01  4.218750e-01
     vertex -7.500000e-01  2.472039e-01  1.562500e-02
   endloop
 endfacet
 facet normal -1.000000e+00  0.000000e+00  0.000000e+00
   outer loop
     vertex -7.500000e-01  2.421875e-01  1.562500e-02
     vertex -7.500000e-01  2.421875e-01  4.218750e-01
     vertex -7.500000e-01  2.472039e-01  4.218750e-01
   endloop
 endfacet
 facet normal  0.000000e+00  0.000000e+00  1.000000e+00
   outer loop
     vertex  0.000000e+00  2.579770e-01  4.218750e-01
     vertex -7.500000e-01  2.579770e-01  4.218750e-01
     vertex -7.500000e-01  2.472039e-01  4.218750e-01
   endloop
 endfacet
 facet normal  0.000000e+00  0.000000e+00  1.000000e+00
   outer loop
     vertex  0.000000e+00  2.579770e-01  4.218750e-01
     vertex -7.500000e-01  2.472039e-01  4.218750e-01
     vertex -2.487564e-17  2.472039e-01  4.218750e-01
   endloop
 endfacet
 facet normal  0.000000e+00  1.000000e+00  0.000000e+00
   outer loop
     vertex -7.500000e-01  2.579770e-01  1.562500e-02
     vertex  0.000000e+00  2.579770e-01  4.218750e-01
     vertex  0.000000e+00  2.579770e-01  1.562500e-02
   endloop
 endfacet
 facet normal  0.000000e+00  1.000000e+00  0.000000e+00
   outer loop
     vertex -7.500000e-01  2.579770e-01  1.562500e-02
     vertex -7.500000e-01  2.579770e-01  4.218750e-01
     vertex  0.000000e+00  2.579770e-01  4.218750e-01
   endloop
 endfacet
 facet normal  0.000000e+00 -1.000000e+00  0.000000e+00
   outer loop
     vertex  0.000000e+00  0.000000e+00  1.562500e-02
     vertex -7.500000e-01  0.000000e+00  4.218750e-01
     vertex -7.500000e-01  0.000000e+00  1.562500e-02
   endloop
 endfacet
 facet normal  0.000000e+00 -1.000000e+00  0.000000e+00
   outer loop
     vertex  0.000000e+00  0.000000e+00  1.562500e-02
     vertex  0.000000e+00  0.000000e+00  4.218750e-01
     vertex -7.500000e-01  0.000000e+00  4.218750e-01
   endloop
 endfacet
 facet normal  0.000000e+00  0.000000e+00  1.000000e+00
   outer loop
     vertex  0.000000e+00  1.578947e-02  4.218750e-01
     vertex -7.500000e-01  0.000000e+00  4.218750e-01
     vertex  0.000000e+00  0.000000e+00  4.218750e-01
   endloop
 endfacet
 facet normal  0.000000e+00  0.000000e+00  1.000000e+00
   outer loop
     vertex  0.000000e+00  1.578947e-02  4.218750e-01
     vertex -7.500000e-01  1.578947e-02  4.218750e-01
     vertex -7.500000e-01  0.000000e+00  4.218750e-01
   endloop
 endfacet
 facet normal -1.000000e+00  0.000000e+00  0.000000e+00
   outer loop
     vertex -7.500000e-01  0.000000e+00  1.562500e-02
     vertex -7.500000e-01  1.578947e-02  4.218750e-01
     vertex -7.500000e-01  1.578947e-02  1.562500e-02
   endloop
 endfacet
 facet normal -1.000000e+00  0.000000e+00  0.000000e+00
   outer loop
     vertex -7.500000e-01  0.000000e+00  1.562500e-02
     vertex -7.500000e-01  0.000000e+00  4.218750e-01
     vertex -7.500000e-01  1.578947e-02  4.218750e-01
   endloop
 endfacet
 facet normal -1.000000e+00  0.000000e+00  0.000000e+00
   outer loop
     vertex -7.500000e-01  2.472039e-01  1.562500e-02
     vertex -7.500000e-01  2.579770e-01  4.218750e-01
     vertex -7.500000e-01  2.579770e-01  1.562500e-02
   endloop
 endfacet
 facet normal -1.000000e+00  0.000000e+00  0.000000e+00
   outer loop
     vertex -7.500000e-01  2.472039e-01  1.562500e-02
     vertex -7.500000e-01  2.472039e-01  4.218750e-01
     vertex -7.500000e-01  2.579770e-01  4.218750e-01
   endloop
 endfacet
endsolid
