solid 
 facet normal -0.000000e+00 -1.000000e+00  0.000000e+00
   outer loop
     vertex  3.906250e-01 -2.265625e-01 -2.343750e-02
     vertex  3.046875e-01 -2.265625e-01 -2.343750e-02
     vertex  3.046875e-01 -2.265625e-01 -1.328125e-01
   endloop
 endfacet
 facet normal  0.000000e+00 -1.000000e+00 -0.000000e+00
   outer loop
     vertex  3.906250e-01 -2.265625e-01 -2.343750e-02
     vertex  3.046875e-01 -2.265625e-01 -1.328125e-01
     vertex  3.906250e-01 -2.265625e-01 -1.328125e-01
   endloop
 endfacet
 facet normal  1.000000e+00  0.000000e+00  0.000000e+00
   outer loop
     vertex  3.906250e-01 -1.406250e-01 -2.343750e-02
     vertex  3.906250e-01 -2.265625e-01 -2.343750e-02
     vertex  3.906250e-01 -2.265625e-01 -1.328125e-01
   endloop
 endfacet
 facet normal  1.000000e+00  0.000000e+00  0.000000e+00
   outer loop
     vertex  3.906250e-01 -1.406250e-01 -2.343750e-02
     vertex  3.906250e-01 -2.265625e-01 -1.328125e-01
     vertex  3.906250e-01 -1.406250e-01 -1.328125e-01
   endloop
 endfacet
 facet normal -0.000000e+00  1.000000e+00  0.000000e+00
   outer loop
     vertex  3.046875e-01 -1.406250e-01 -2.343750e-02
     vertex  3.906250e-01 -1.406250e-01 -2.343750e-02
     vertex  3.906250e-01 -1.406250e-01 -1.328125e-01
   endloop
 endfacet
 facet normal  0.000000e+00  1.000000e+00  0.000000e+00
   outer loop
     vertex  3.046875e-01 -1.406250e-01 -2.343750e-02
     vertex  3.906250e-01 -1.406250e-01 -1.328125e-01
     vertex  3.046875e-01 -1.406250e-01 -1.328125e-01
   endloop
 endfacet
 facet normal -1.000000e+00  0.000000e+00  0.000000e+00
   outer loop
     vertex  3.046875e-01 -2.265625e-01 -2.343750e-02
     vertex  3.046875e-01 -1.406250e-01 -2.343750e-02
     vertex  3.046875e-01 -1.406250e-01 -1.328125e-01
   endloop
 endfacet
 facet normal -1.000000e+00  0.000000e+00  0.000000e+00
   outer loop
     vertex  3.046875e-01 -2.265625e-01 -2.343750e-02
     vertex  3.046875e-01 -1.406250e-01 -1.328125e-01
     vertex  3.046875e-01 -2.265625e-01 -1.328125e-01
   endloop
 endfacet
 facet normal  0.000000e+00  0.000000e+00  1.000000e+00
   outer loop
     vertex  3.906250e-01 -1.406250e-01 -2.343750e-02
     vertex  3.046875e-01 -2.265625e-01 -2.343750e-02
     vertex  3.906250e-01 -2.265625e-01 -2.343750e-02
   endloop
 endfacet
 facet normal  0.000000e+00  0.000000e+00  1.000000e+00
   outer loop
     vertex  3.906250e-01 -1.406250e-01 -2.343750e-02
     vertex  3.046875e-01 -1.406250e-01 -2.343750e-02
     vertex  3.046875e-01 -2.265625e-01 -2.343750e-02
   endloop
 endfacet
 facet normal  0.000000e+00 -0.000000e+00 -1.000000e+00
   outer loop
     vertex  3.906250e-01 -1.406250e-01 -1.328125e-01
     vertex  3.906250e-01 -2.265625e-01 -1.328125e-01
     vertex  3.046875e-01 -2.265625e-01 -1.328125e-01
   endloop
 endfacet
 facet normal -0.000000e+00  0.000000e+00 -1.000000e+00
   outer loop
     vertex  3.906250e-01 -1.406250e-01 -1.328125e-01
     vertex  3.046875e-01 -2.265625e-01 -1.328125e-01
     vertex  3.046875e-01 -1.406250e-01 -1.328125e-01
   endloop
 endfacet
 facet normal -0.000000e+00 -1.000000e+00  0.000000e+00
   outer loop
     vertex  2.812500e-01 -2.421875e-01  0.000000e+00
     vertex -3.046875e-01 -2.421875e-01  0.000000e+00
     vertex -3.046875e-01 -2.421875e-01 -2.265625e-01
   endloop
 endfacet
 facet normal  0.000000e+00 -1.000000e+00 -0.000000e+00
   outer loop
     vertex  2.812500e-01 -2.421875e-01  0.000000e+00
     vertex -3.046875e-01 -2.421875e-01 -2.265625e-01
     vertex  2.812500e-01 -2.421875e-01 -2.265625e-01
   endloop
 endfacet
 facet normal  1.000000e+00  0.000000e+00  0.000000e+00
   outer loop
     vertex  2.812500e-01  7.236842e-02  0.000000e+00
     vertex  2.812500e-01 -2.421875e-01  0.000000e+00
     vertex  2.812500e-01 -2.421875e-01 -2.265625e-01
   endloop
 endfacet
 facet normal  1.000000e+00  0.000000e+00  0.000000e+00
   outer loop
     vertex  2.812500e-01  7.236842e-02  0.000000e+00
     vertex  2.812500e-01 -2.421875e-01 -2.265625e-01
     vertex  2.812500e-01  7.236842e-02 -2.265625e-01
   endloop
 endfacet
 facet normal -1.052573e-02  9.999446e-01  0.000000e+00
   outer loop
     vertex -3.046875e-01  6.620066e-02  0.000000e+00
     vertex  2.812500e-01  7.236842e-02  0.000000e+00
     vertex  2.812500e-01  7.236842e-02 -2.265625e-01
   endloop
 endfacet
 facet normal -1.052573e-02  9.999446e-01  0.000000e+00
   outer loop
     vertex -3.046875e-01  6.620066e-02  0.000000e+00
     vertex  2.812500e-01  7.236842e-02 -2.265625e-01
     vertex -3.046875e-01  6.620066e-02 -2.265625e-01
   endloop
 endfacet
 facet normal -1.000000e+00  0.000000e+00  0.000000e+00
   outer loop
     vertex -3.046875e-01 -2.421875e-01  0.000000e+00
     vertex -3.046875e-01  6.620066e-02  0.000000e+00
     vertex -3.046875e-01  6.620066e-02 -2.265625e-01
   endloop
 endfacet
 facet normal -1.000000e+00  0.000000e+00  0.000000e+00
   outer loop
     vertex -3.046875e-01 -2.421875e-01  0.000000e+00
     vertex -3.046875e-01  6.620066e-02 -2.265625e-01
     vertex -3.046875e-01 -2.421875e-01 -2.265625e-01
   endloop
 endfacet
 facet normal  0.000000e+00  0.000000e+00  1.000000e+00
   outer loop
     vertex  2.812500e-01 -2.421875e-01  0.000000e+00
     vertex -3.046875e-01  6.620066e-02  0.000000e+00
     vertex -3.046875e-01 -2.421875e-01  0.000000e+00
   endloop
 endfacet
 facet normal  0.000000e+00  0.000000e+00  1.000000e+00
   outer loop
     vertex  2.812500e-01  7.236842e-02  0.000000e+00
     vertex -3.046875e-01  6.620066e-02  0.000000e+00
     vertex  2.812500e-01 -2.421875e-01  0.000000e+00
   endloop
 endfacet
 facet normal  0.000000e+00  0.000000e+00 -1.000000e+00
   outer loop
     vertex  2.812500e-01 -2.421875e-01 -2.265625e-01
     vertex -3.046875e-01 -2.421875e-01 -2.265625e-01
     vertex -3.046875e-01  6.620066e-02 -2.265625e-01
   endloop
 endfacet
 facet normal  0.000000e+00 -0.000000e+00 -1.000000e+00
   outer loop
     vertex  2.812500e-01  7.236842e-02 -2.265625e-01
     vertex  2.812500e-01 -2.421875e-01 -2.265625e-01
     vertex -3.046875e-01  6.620066e-02 -2.265625e-01
   endloop
 endfacet
 facet normal  0.000000e+00 -1.000000e+00  0.000000e+00
   outer loop
     vertex  6.953125e-01 -1.953125e-01  1.562500e-02
     vertex  1.562500e-02 -1.953125e-01  9.375000e-02
     vertex  1.562500e-02 -1.953125e-01  1.562500e-02
   endloop
 endfacet
 facet normal  0.000000e+00 -1.000000e+00  0.000000e+00
   outer loop
     vertex  6.953125e-01 -1.953125e-01  1.562500e-02
     vertex  6.953125e-01 -1.953125e-01  9.375000e-02
     vertex  1.562500e-02 -1.953125e-01  9.375000e-02
   endloop
 endfacet
 facet normal  1.000000e+00  0.000000e+00  0.000000e+00
   outer loop
     vertex  6.953125e-01  1.481086e-01  1.562500e-02
     vertex  6.953125e-01 -1.953125e-01  9.375000e-02
     vertex  6.953125e-01 -1.953125e-01  1.562500e-02
   endloop
 endfacet
 facet normal  1.000000e+00  0.000000e+00 -0.000000e+00
   outer loop
     vertex  6.953125e-01  1.481086e-01  1.562500e-02
     vertex  6.953125e-01  1.481086e-01  9.375000e-02
     vertex  6.953125e-01 -1.953125e-01  9.375000e-02
   endloop
 endfacet
 facet normal  0.000000e+00  1.000000e+00  0.000000e+00
   outer loop
     vertex  1.562500e-02  1.481086e-01  1.562500e-02
     vertex  6.953125e-01  1.481086e-01  9.375000e-02
     vertex  6.953125e-01  1.481086e-01  1.562500e-02
   endloop
 endfacet
 facet normal  0.000000e+00  1.000000e+00  0.000000e+00
   outer loop
     vertex  1.562500e-02  1.481086e-01  1.562500e-02
     vertex  1.562500e-02  1.481086e-01  9.375000e-02
     vertex  6.953125e-01  1.481086e-01  9.375000e-02
   endloop
 endfacet
 facet normal -1.000000e+00  0.000000e+00  0.000000e+00
   outer loop
     vertex  1.562500e-02 -1.953125e-01  1.562500e-02
     vertex  1.562500e-02  1.481086e-01  9.375000e-02
     vertex  1.562500e-02  1.481086e-01  1.562500e-02
   endloop
 endfacet
 facet normal -1.000000e+00  0.000000e+00  0.000000e+00
   outer loop
     vertex  1.562500e-02 -1.953125e-01  1.562500e-02
     vertex  1.562500e-02 -1.953125e-01  9.375000e-02
     vertex  1.562500e-02  1.481086e-01  9.375000e-02
   endloop
 endfacet
 facet normal  0.000000e+00 -0.000000e+00 -1.000000e+00
   outer loop
     vertex  6.953125e-01  1.481086e-01  1.562500e-02
     vertex  6.953125e-01 -1.953125e-01  1.562500e-02
     vertex  1.562500e-02 -1.953125e-01  1.562500e-02
   endloop
 endfacet
 facet normal -0.000000e+00  0.000000e+00 -1.000000e+00
   outer loop
     vertex  6.953125e-01  1.481086e-01  1.562500e-02
     vertex  1.562500e-02 -1.953125e-01  1.562500e-02
     vertex  1.562500e-02  1.481086e-01  1.562500e-02
   endloop
 endfacet
 facet normal  0.000000e+00  0.000000e+00  1.000000e+00
   outer loop
     vertex  6.953125e-01  1.481086e-01  9.375000e-02
     vertex  1.562500e-02 -1.953125e-01  9.375000e-02
     vertex  6.953125e-01 -1.953125e-01  9.375000e-02
   endloop
 endfacet
 facet normal  0.000000e+00  0.000000e+00  1.000000e+00
   outer loop
     vertex  6.953125e-01  1.481086e-01  9.375000e-02
     vertex  1.562500e-02  1.481086e-01  9.375000e-02
     vertex  1.562500e-02 -1.953125e-01  9.375000e-02
   endloop
 endfacet
endsolid
