solid 
 facet normal  0.000000e+00  0.000000e+00 -1.000000e+00
   outer loop
     vertex -1.562500e-02 -5.460526e-01 -1.484375e-01
     vertex -7.812500e-03 -5.625000e-01 -1.484375e-01
     vertex -1.562500e-02 -5.625000e-01 -1.484375e-01
   endloop
 endfacet
 facet normal  0.000000e+00  0.000000e+00 -1.000000e+00
   outer loop
     vertex -1.562500e-02 -5.460526e-01 -1.484375e-01
     vertex -7.812500e-03 -5.460526e-01 -1.484375e-01
     vertex -7.812500e-03 -5.625000e-01 -1.484375e-01
   endloop
 endfacet
 facet normal  0.000000e+00  8.808929e-01 -4.733156e-01
   outer loop
     vertex -1.562500e-02 -5.312500e-01 -1.208882e-01
     vertex -7.812500e-03 -5.460526e-01 -1.484375e-01
     vertex -1.562500e-02 -5.460526e-01 -1.484375e-01
   endloop
 endfacet
 facet normal  0.000000e+00  8.808929e-01 -4.733156e-01
   outer loop
     vertex -1.562500e-02 -5.312500e-01 -1.208882e-01
     vertex -7.812500e-03 -5.312500e-01 -1.208882e-01
     vertex -7.812500e-03 -5.460526e-01 -1.484375e-01
   endloop
 endfacet
 facet normal  0.000000e+00  2.630668e-02  9.996539e-01
   outer loop
     vertex -1.562500e-02 -5.625000e-01 -1.200658e-01
     vertex -7.812500e-03 -5.312500e-01 -1.208882e-01
     vertex -1.562500e-02 -5.312500e-01 -1.208882e-01
   endloop
 endfacet
 facet normal -0.000000e+00  2.630668e-02  9.996539e-01
   outer loop
     vertex -1.562500e-02 -5.625000e-01 -1.200658e-01
     vertex -7.812500e-03 -5.625000e-01 -1.200658e-01
     vertex -7.812500e-03 -5.312500e-01 -1.208882e-01
   endloop
 endfacet
 facet normal  0.000000e+00 -1.000000e+00  0.000000e+00
   outer loop
     vertex -1.562500e-02 -5.625000e-01 -1.484375e-01
     vertex -7.812500e-03 -5.625000e-01 -1.200658e-01
     vertex -1.562500e-02 -5.625000e-01 -1.200658e-01
   endloop
 endfacet
 facet normal  0.000000e+00 -1.000000e+00  0.000000e+00
   outer loop
     vertex -1.562500e-02 -5.625000e-01 -1.484375e-01
     vertex -7.812500e-03 -5.625000e-01 -1.484375e-01
     vertex -7.812500e-03 -5.625000e-01 -1.200658e-01
   endloop
 endfacet
 facet normal -1.000000e+00  0.000000e+00  0.000000e+00
   outer loop
     vertex -1.562500e-02 -5.625000e-01 -1.200658e-01
     vertex -1.562500e-02 -5.460526e-01 -1.484375e-01
     vertex -1.562500e-02 -5.625000e-01 -1.484375e-01
   endloop
 endfacet
 facet normal -1.000000e+00 -0.000000e+00  0.000000e+00
   outer loop
     vertex -1.562500e-02 -5.312500e-01 -1.208882e-01
     vertex -1.562500e-02 -5.460526e-01 -1.484375e-01
     vertex -1.562500e-02 -5.625000e-01 -1.200658e-01
   endloop
 endfacet
 facet normal  1.000000e+00  0.000000e+00  0.000000e+00
   outer loop
     vertex -7.812500e-03 -5.625000e-01 -1.200658e-01
     vertex -7.812500e-03 -5.625000e-01 -1.484375e-01
     vertex -7.812500e-03 -5.460526e-01 -1.484375e-01
   endloop
 endfacet
 facet normal  1.000000e+00  0.000000e+00  0.000000e+00
   outer loop
     vertex -7.812500e-03 -5.312500e-01 -1.208882e-01
     vertex -7.812500e-03 -5.625000e-01 -1.200658e-01
     vertex -7.812500e-03 -5.460526e-01 -1.484375e-01
   endloop
 endfacet
 facet normal  0.000000e+00 -5.449884e-01 -8.384436e-01
   outer loop
     vertex  4.451430e-18 -2.397204e-01 -3.070724e-01
     vertex  3.125000e-02 -3.515625e-01 -2.343750e-01
     vertex  0.000000e+00 -3.515625e-01 -2.343750e-01
   endloop
 endfacet
 facet normal  0.000000e+00 -5.449884e-01 -8.384436e-01
   outer loop
     vertex  4.451430e-18 -2.397204e-01 -3.070724e-01
     vertex  3.125000e-02 -2.397204e-01 -3.070724e-01
     vertex  3.125000e-02 -3.515625e-01 -2.343750e-01
   endloop
 endfacet
 facet normal  0.000000e+00  0.000000e+00  1.000000e+00
   outer loop
     vertex  0.000000e+00 -3.515625e-01 -2.343750e-01
     vertex  3.125000e-02 -2.509046e-01 -2.343750e-01
     vertex  3.774067e-34 -2.509046e-01 -2.343750e-01
   endloop
 endfacet
 facet normal  0.000000e+00  0.000000e+00  1.000000e+00
   outer loop
     vertex  0.000000e+00 -3.515625e-01 -2.343750e-01
     vertex  3.125000e-02 -3.515625e-01 -2.343750e-01
     vertex  3.125000e-02 -2.509046e-01 -2.343750e-01
   endloop
 endfacet
 facet normal  0.000000e+00 -1.000000e+00  0.000000e+00
   outer loop
     vertex  8.560442e-18 -2.397204e-01 -3.741776e-01
     vertex  3.125000e-02 -2.397204e-01 -3.070724e-01
     vertex  4.451430e-18 -2.397204e-01 -3.070724e-01
   endloop
 endfacet
 facet normal  0.000000e+00 -1.000000e+00  0.000000e+00
   outer loop
     vertex  8.560442e-18 -2.397204e-01 -3.741776e-01
     vertex  3.125000e-02 -2.397204e-01 -3.741776e-01
     vertex  3.125000e-02 -2.397204e-01 -3.070724e-01
   endloop
 endfacet
 facet normal -1.000000e+00  3.749399e-33 -6.123234e-17
   outer loop
     vertex  3.774067e-34 -2.509046e-01 -2.343750e-01
     vertex  4.451430e-18 -2.397204e-01 -3.070724e-01
     vertex  0.000000e+00 -3.515625e-01 -2.343750e-01
   endloop
 endfacet
 facet normal -1.000000e+00  7.869771e-18 -6.123234e-17
   outer loop
     vertex  0.000000e+00  1.250000e-01 -1.875000e-01
     vertex  8.560442e-18 -2.397204e-01 -3.741776e-01
     vertex  4.451430e-18 -2.397204e-01 -3.070724e-01
   endloop
 endfacet
 facet normal -1.000000e+00  7.491895e-18 -6.007974e-17
   outer loop
     vertex  0.000000e+00  1.250000e-01 -1.875000e-01
     vertex  4.451430e-18 -2.397204e-01 -3.070724e-01
     vertex  3.774067e-34 -2.509046e-01 -2.343750e-01
   endloop
 endfacet
 facet normal -1.000000e+00  9.970362e-17 -7.995531e-16
   outer loop
     vertex -1.554155e-18  1.250000e-01 -1.855562e-01
     vertex  0.000000e+00  1.250000e-01 -1.875000e-01
     vertex  3.774067e-34 -2.509046e-01 -2.343750e-01
   endloop
 endfacet
 facet normal -1.000000e+00 -3.111561e-16 -3.630154e-16
   outer loop
     vertex  1.991868e-33  1.796875e-01 -2.343750e-01
     vertex  0.000000e+00  1.250000e-01 -1.875000e-01
     vertex -1.573415e-18  1.274220e-01 -1.852417e-01
   endloop
 endfacet
 facet normal -1.000000e+00 -1.469576e-17 -1.714506e-17
   outer loop
     vertex  1.991868e-33  1.796875e-01 -2.343750e-01
     vertex  8.560442e-18 -2.397204e-01 -3.741776e-01
     vertex  0.000000e+00  1.250000e-01 -1.875000e-01
   endloop
 endfacet
 facet normal -1.000000e+00 -2.745850e-17 -6.123234e-17
   outer loop
     vertex -3.424177e-18  1.796875e-01 -1.784539e-01
     vertex  1.991868e-33  1.796875e-01 -2.343750e-01
     vertex -1.573415e-18  1.274220e-01 -1.852417e-01
   endloop
 endfacet
 facet normal  1.000000e+00  0.000000e+00  0.000000e+00
   outer loop
     vertex  3.125000e-02 -2.509046e-01 -2.343750e-01
     vertex  3.125000e-02 -3.515625e-01 -2.343750e-01
     vertex  3.125000e-02 -2.397204e-01 -3.070724e-01
   endloop
 endfacet
 facet normal  1.000000e+00  0.000000e+00  0.000000e+00
   outer loop
     vertex  3.125000e-02  1.250000e-01 -1.875000e-01
     vertex  3.125000e-02 -2.397204e-01 -3.070724e-01
     vertex  3.125000e-02 -2.397204e-01 -3.741776e-01
   endloop
 endfacet
 facet normal  1.000000e+00  0.000000e+00  0.000000e+00
   outer loop
     vertex  3.125000e-02  1.250000e-01 -1.875000e-01
     vertex  3.125000e-02 -2.509046e-01 -2.343750e-01
     vertex  3.125000e-02 -2.397204e-01 -3.070724e-01
   endloop
 endfacet
 facet normal  1.000000e+00  0.000000e+00  0.000000e+00
   outer loop
     vertex  3.125000e-02  1.250000e-01 -1.855562e-01
     vertex  3.125000e-02 -2.509046e-01 -2.343750e-01
     vertex  3.125000e-02  1.250000e-01 -1.875000e-01
   endloop
 endfacet
 facet normal  1.000000e+00  0.000000e+00  0.000000e+00
   outer loop
     vertex  3.125000e-02  1.796875e-01 -2.343750e-01
     vertex  3.125000e-02  1.274220e-01 -1.852417e-01
     vertex  3.125000e-02  1.250000e-01 -1.875000e-01
   endloop
 endfacet
 facet normal  1.000000e+00  0.000000e+00  0.000000e+00
   outer loop
     vertex  3.125000e-02  1.796875e-01 -2.343750e-01
     vertex  3.125000e-02  1.250000e-01 -1.875000e-01
     vertex  3.125000e-02 -2.397204e-01 -3.741776e-01
   endloop
 endfacet
 facet normal  1.000000e+00  0.000000e+00  0.000000e+00
   outer loop
     vertex  3.125000e-02  1.796875e-01 -1.784539e-01
     vertex  3.125000e-02  1.274220e-01 -1.852417e-01
     vertex  3.125000e-02  1.796875e-01 -2.343750e-01
   endloop
 endfacet
 facet normal  0.000000e+00 -1.287886e-01  9.916721e-01
   outer loop
     vertex  3.774067e-34 -2.509046e-01 -2.343750e-01
     vertex  3.125000e-02  1.250000e-01 -1.855562e-01
     vertex -1.554155e-18  1.250000e-01 -1.855562e-01
   endloop
 endfacet
 facet normal  0.000000e+00 -1.287886e-01  9.916721e-01
   outer loop
     vertex  3.774067e-34 -2.509046e-01 -2.343750e-01
     vertex  3.125000e-02 -2.509046e-01 -2.343750e-01
     vertex  3.125000e-02  1.250000e-01 -1.855562e-01
   endloop
 endfacet
 facet normal  0.000000e+00  3.162278e-01 -9.486833e-01
   outer loop
     vertex  1.991868e-33  1.796875e-01 -2.343750e-01
     vertex  3.125000e-02 -2.397204e-01 -3.741776e-01
     vertex  8.560442e-18 -2.397204e-01 -3.741776e-01
   endloop
 endfacet
 facet normal  0.000000e+00  3.162278e-01 -9.486833e-01
   outer loop
     vertex  1.991868e-33  1.796875e-01 -2.343750e-01
     vertex  3.125000e-02  1.796875e-01 -2.343750e-01
     vertex  3.125000e-02 -2.397204e-01 -3.741776e-01
   endloop
 endfacet
 facet normal -1.000000e+00  9.588581e-17 -7.995531e-16
   outer loop
     vertex -1.573415e-18  1.274220e-01 -1.852417e-01
     vertex  0.000000e+00  1.250000e-01 -1.875000e-01
     vertex -1.554155e-18  1.250000e-01 -1.855562e-01
   endloop
 endfacet
 facet normal  0.000000e+00 -1.287886e-01  9.916721e-01
   outer loop
     vertex -1.573415e-18  1.274220e-01 -1.852417e-01
     vertex  3.125000e-02  1.796875e-01 -1.784539e-01
     vertex -3.424177e-18  1.796875e-01 -1.784539e-01
   endloop
 endfacet
 facet normal  0.000000e+00 -1.287886e-01  9.916721e-01
   outer loop
     vertex -1.573415e-18  1.274220e-01 -1.852417e-01
     vertex  3.125000e-02  1.274220e-01 -1.852417e-01
     vertex  3.125000e-02  1.796875e-01 -1.784539e-01
   endloop
 endfacet
 facet normal  0.000000e+00  1.000000e+00  0.000000e+00
   outer loop
     vertex -3.424177e-18  1.796875e-01 -1.784539e-01
     vertex  3.125000e-02  1.796875e-01 -2.343750e-01
     vertex  1.991868e-33  1.796875e-01 -2.343750e-01
   endloop
 endfacet
 facet normal -0.000000e+00  1.000000e+00  0.000000e+00
   outer loop
     vertex -3.424177e-18  1.796875e-01 -1.784539e-01
     vertex  3.125000e-02  1.796875e-01 -1.784539e-01
     vertex  3.125000e-02  1.796875e-01 -2.343750e-01
   endloop
 endfacet
 facet normal  1.000000e+00  0.000000e+00  0.000000e+00
   outer loop
     vertex  3.125000e-02  1.274220e-01 -1.852417e-01
     vertex  3.125000e-02  1.250000e-01 -1.855562e-01
     vertex  3.125000e-02  1.250000e-01 -1.875000e-01
   endloop
 endfacet
 facet normal  0.000000e+00 -1.000000e+00  0.000000e+00
   outer loop
     vertex -1.554155e-18  1.250000e-01 -1.855562e-01
     vertex  3.125000e-02  1.250000e-01 -1.174342e-01
     vertex -4.290292e-18  1.250000e-01 -1.174342e-01
   endloop
 endfacet
 facet normal  0.000000e+00 -1.000000e+00  0.000000e+00
   outer loop
     vertex -1.554155e-18  1.250000e-01 -1.855562e-01
     vertex  3.125000e-02  1.250000e-01 -1.855562e-01
     vertex  3.125000e-02  1.250000e-01 -1.174342e-01
   endloop
 endfacet
 facet normal -1.000000e+00 -2.735987e-18 -4.016524e-17
   outer loop
     vertex -4.290292e-18  1.250000e-01 -1.174342e-01
     vertex -1.573415e-18  1.274220e-01 -1.852417e-01
     vertex -1.554155e-18  1.250000e-01 -1.855562e-01
   endloop
 endfacet
 facet normal -1.000000e+00  5.725749e-19 -4.004707e-17
   outer loop
     vertex -4.169439e-18  1.980263e-01 -1.194079e-01
     vertex -1.573415e-18  1.274220e-01 -1.852417e-01
     vertex -4.290292e-18  1.250000e-01 -1.174342e-01
   endloop
 endfacet
 facet normal  0.000000e+00  6.819660e-01 -7.313839e-01
   outer loop
     vertex -4.169439e-18  1.980263e-01 -1.194079e-01
     vertex  3.125000e-02  1.274220e-01 -1.852417e-01
     vertex -1.573415e-18  1.274220e-01 -1.852417e-01
   endloop
 endfacet
 facet normal  0.000000e+00  6.819660e-01 -7.313839e-01
   outer loop
     vertex -4.169439e-18  1.980263e-01 -1.194079e-01
     vertex  3.125000e-02  1.980263e-01 -1.194079e-01
     vertex  3.125000e-02  1.274220e-01 -1.852417e-01
   endloop
 endfacet
 facet normal  1.000000e+00  0.000000e+00  0.000000e+00
   outer loop
     vertex  3.125000e-02  1.250000e-01 -1.174342e-01
     vertex  3.125000e-02  1.250000e-01 -1.855562e-01
     vertex  3.125000e-02  1.274220e-01 -1.852417e-01
   endloop
 endfacet
 facet normal  1.000000e+00  0.000000e+00  0.000000e+00
   outer loop
     vertex  3.125000e-02  1.980263e-01 -1.194079e-01
     vertex  3.125000e-02  1.250000e-01 -1.174342e-01
     vertex  3.125000e-02  1.274220e-01 -1.852417e-01
   endloop
 endfacet
 facet normal  0.000000e+00  2.701716e-02  9.996350e-01
   outer loop
     vertex -4.290292e-18  1.250000e-01 -1.174342e-01
     vertex  3.125000e-02  1.980263e-01 -1.194079e-01
     vertex -4.169439e-18  1.980263e-01 -1.194079e-01
   endloop
 endfacet
 facet normal -0.000000e+00  2.701716e-02  9.996350e-01
   outer loop
     vertex -4.290292e-18  1.250000e-01 -1.174342e-01
     vertex  3.125000e-02  1.250000e-01 -1.174342e-01
     vertex  3.125000e-02  1.980263e-01 -1.194079e-01
   endloop
 endfacet
 facet normal  0.000000e+00  5.474787e-01 -8.368196e-01
   outer loop
     vertex  4.272659e-18 -6.730987e-01 -2.182153e-01
     vertex  2.658773e-18 -6.328125e-01 -1.918586e-01
     vertex  5.468750e-02 -6.328125e-01 -1.918586e-01
   endloop
 endfacet
 facet normal  0.000000e+00  5.474787e-01 -8.368196e-01
   outer loop
     vertex  4.272659e-18 -6.730987e-01 -2.182153e-01
     vertex  5.468750e-02 -6.328125e-01 -1.918586e-01
     vertex  5.468750e-02 -6.730987e-01 -2.182153e-01
   endloop
 endfacet
 facet normal  0.000000e+00 -4.509677e-01 -8.925403e-01
   outer loop
     vertex  2.943273e-18 -7.160675e-01 -1.965048e-01
     vertex  5.468750e-02 -6.730987e-01 -2.182153e-01
     vertex  5.468750e-02 -7.160675e-01 -1.965048e-01
   endloop
 endfacet
 facet normal  0.000000e+00 -4.509677e-01 -8.925403e-01
   outer loop
     vertex  2.943273e-18 -7.160675e-01 -1.965048e-01
     vertex  4.272659e-18 -6.730987e-01 -2.182153e-01
     vertex  5.468750e-02 -6.730987e-01 -2.182153e-01
   endloop
 endfacet
 facet normal  0.000000e+00 -9.984464e-01 -5.572064e-02
   outer loop
     vertex -1.925930e-34 -7.187500e-01 -1.484375e-01
     vertex  5.468750e-02 -7.160675e-01 -1.965048e-01
     vertex  5.468750e-02 -7.187500e-01 -1.484375e-01
   endloop
 endfacet
 facet normal  0.000000e+00 -9.984464e-01 -5.572064e-02
   outer loop
     vertex -1.925930e-34 -7.187500e-01 -1.484375e-01
     vertex  2.943273e-18 -7.160675e-01 -1.965048e-01
     vertex  5.468750e-02 -7.160675e-01 -1.965048e-01
   endloop
 endfacet
 facet normal  0.000000e+00  1.000000e+00  0.000000e+00
   outer loop
     vertex  1.440169e-18 -6.328125e-01 -1.719572e-01
     vertex  5.468750e-02 -6.328125e-01 -1.918586e-01
     vertex  2.658773e-18 -6.328125e-01 -1.918586e-01
   endloop
 endfacet
 facet normal -0.000000e+00  1.000000e+00  0.000000e+00
   outer loop
     vertex  1.440169e-18 -6.328125e-01 -1.719572e-01
     vertex  5.468750e-02 -6.328125e-01 -1.719572e-01
     vertex  5.468750e-02 -6.328125e-01 -1.918586e-01
   endloop
 endfacet
 facet normal  0.000000e+00  3.056286e-01  9.521508e-01
   outer loop
     vertex  4.748417e-35 -7.060855e-01 -1.484375e-01
     vertex  5.468750e-02 -6.328125e-01 -1.719572e-01
     vertex  1.440169e-18 -6.328125e-01 -1.719572e-01
   endloop
 endfacet
 facet normal -0.000000e+00  3.056286e-01  9.521508e-01
   outer loop
     vertex  4.748417e-35 -7.060855e-01 -1.484375e-01
     vertex  5.468750e-02 -7.060855e-01 -1.484375e-01
     vertex  5.468750e-02 -6.328125e-01 -1.719572e-01
   endloop
 endfacet
 facet normal  0.000000e+00  0.000000e+00  1.000000e+00
   outer loop
     vertex -1.925930e-34 -7.187500e-01 -1.484375e-01
     vertex  5.468750e-02 -7.060855e-01 -1.484375e-01
     vertex  4.748417e-35 -7.060855e-01 -1.484375e-01
   endloop
 endfacet
 facet normal  0.000000e+00  0.000000e+00  1.000000e+00
   outer loop
     vertex -1.925930e-34 -7.187500e-01 -1.484375e-01
     vertex  5.468750e-02 -7.187500e-01 -1.484375e-01
     vertex  5.468750e-02 -7.060855e-01 -1.484375e-01
   endloop
 endfacet
 facet normal -1.000000e+00  1.895674e-32 -6.123234e-17
   outer loop
     vertex  4.748417e-35 -7.060855e-01 -1.484375e-01
     vertex  2.943273e-18 -7.160675e-01 -1.965048e-01
     vertex -1.925930e-34 -7.187500e-01 -1.484375e-01
   endloop
 endfacet
 facet normal -1.000000e+00  1.211879e-28 -6.123234e-17
   outer loop
     vertex  4.748417e-35 -7.060855e-01 -1.484375e-01
     vertex  4.272659e-18 -6.730987e-01 -2.182153e-01
     vertex  2.943273e-18 -7.160675e-01 -1.965048e-01
   endloop
 endfacet
 facet normal -1.000000e+00 -1.376543e-27 -6.123234e-17
   outer loop
     vertex  1.440169e-18 -6.328125e-01 -1.719572e-01
     vertex  2.658773e-18 -6.328125e-01 -1.918586e-01
     vertex  4.272659e-18 -6.730987e-01 -2.182153e-01
   endloop
 endfacet
 facet normal -1.000000e+00  1.781056e-28 -6.123234e-17
   outer loop
     vertex  1.440169e-18 -6.328125e-01 -1.719572e-01
     vertex  4.272659e-18 -6.730987e-01 -2.182153e-01
     vertex  4.748417e-35 -7.060855e-01 -1.484375e-01
   endloop
 endfacet
 facet normal  1.000000e+00  0.000000e+00  0.000000e+00
   outer loop
     vertex  5.468750e-02 -7.060855e-01 -1.484375e-01
     vertex  5.468750e-02 -7.187500e-01 -1.484375e-01
     vertex  5.468750e-02 -7.160675e-01 -1.965048e-01
   endloop
 endfacet
 facet normal  1.000000e+00  0.000000e+00  0.000000e+00
   outer loop
     vertex  5.468750e-02 -7.060855e-01 -1.484375e-01
     vertex  5.468750e-02 -7.160675e-01 -1.965048e-01
     vertex  5.468750e-02 -6.730987e-01 -2.182153e-01
   endloop
 endfacet
 facet normal  1.000000e+00  0.000000e+00  0.000000e+00
   outer loop
     vertex  5.468750e-02 -6.328125e-01 -1.719572e-01
     vertex  5.468750e-02 -6.730987e-01 -2.182153e-01
     vertex  5.468750e-02 -6.328125e-01 -1.918586e-01
   endloop
 endfacet
 facet normal  1.000000e+00  0.000000e+00  0.000000e+00
   outer loop
     vertex  5.468750e-02 -6.328125e-01 -1.719572e-01
     vertex  5.468750e-02 -7.060855e-01 -1.484375e-01
     vertex  5.468750e-02 -6.730987e-01 -2.182153e-01
   endloop
 endfacet
endsolid
