solid 
 facet normal  0.000000e+00 -1.000000e+00  0.000000e+00
   outer loop
     vertex  1.406250e-01  1.171875e-01  0.000000e+00
     vertex -1.093750e-01  1.171875e-01  3.046875e-01
     vertex -1.093750e-01  1.171875e-01  0.000000e+00
   endloop
 endfacet
 facet normal  0.000000e+00 -1.000000e+00  0.000000e+00
   outer loop
     vertex  1.406250e-01  1.171875e-01  0.000000e+00
     vertex  1.406250e-01  1.171875e-01  3.046875e-01
     vertex -1.093750e-01  1.171875e-01  3.046875e-01
   endloop
 endfacet
 facet normal  1.000000e+00  0.000000e+00  0.000000e+00
   outer loop
     vertex  1.406250e-01  1.277138e-01  0.000000e+00
     vertex  1.406250e-01  1.171875e-01  3.046875e-01
     vertex  1.406250e-01  1.171875e-01  0.000000e+00
   endloop
 endfacet
 facet normal  1.000000e+00  0.000000e+00 -0.000000e+00
   outer loop
     vertex  1.406250e-01  1.277138e-01  0.000000e+00
     vertex  1.406250e-01  1.277138e-01  3.046875e-01
     vertex  1.406250e-01  1.171875e-01  3.046875e-01
   endloop
 endfacet
 facet normal  0.000000e+00  1.000000e+00  0.000000e+00
   outer loop
     vertex -1.093750e-01  1.277138e-01  0.000000e+00
     vertex  1.406250e-01  1.277138e-01  3.046875e-01
     vertex  1.406250e-01  1.277138e-01  0.000000e+00
   endloop
 endfacet
 facet normal  0.000000e+00  1.000000e+00  0.000000e+00
   outer loop
     vertex -1.093750e-01  1.277138e-01  0.000000e+00
     vertex -1.093750e-01  1.277138e-01  3.046875e-01
     vertex  1.406250e-01  1.277138e-01  3.046875e-01
   endloop
 endfacet
 facet normal -1.000000e+00  0.000000e+00  0.000000e+00
   outer loop
     vertex -1.093750e-01  1.198191e-01  0.000000e+00
     vertex -1.093750e-01  1.277138e-01  3.046875e-01
     vertex -1.093750e-01  1.277138e-01  0.000000e+00
   endloop
 endfacet
 facet normal -1.000000e+00  0.000000e+00  0.000000e+00
   outer loop
     vertex -1.093750e-01  1.198191e-01  0.000000e+00
     vertex -1.093750e-01  1.198191e-01  3.046875e-01
     vertex -1.093750e-01  1.277138e-01  3.046875e-01
   endloop
 endfacet
 facet normal -1.000000e+00  0.000000e+00  0.000000e+00
   outer loop
     vertex -1.093750e-01  1.171875e-01  0.000000e+00
     vertex -1.093750e-01  1.198191e-01  3.046875e-01
     vertex -1.093750e-01  1.198191e-01  0.000000e+00
   endloop
 endfacet
 facet normal -1.000000e+00  0.000000e+00  0.000000e+00
   outer loop
     vertex -1.093750e-01  1.171875e-01  0.000000e+00
     vertex -1.093750e-01  1.171875e-01  3.046875e-01
     vertex -1.093750e-01  1.198191e-01  3.046875e-01
   endloop
 endfacet
 facet normal  0.000000e+00  0.000000e+00 -1.000000e+00
   outer loop
     vertex  1.406250e-01  1.171875e-01  0.000000e+00
     vertex -1.093750e-01  1.171875e-01  0.000000e+00
     vertex -1.093750e-01  1.198191e-01  0.000000e+00
   endloop
 endfacet
 facet normal -0.000000e+00  0.000000e+00 -1.000000e+00
   outer loop
     vertex  1.406250e-01  1.277138e-01  0.000000e+00
     vertex -1.093750e-01  1.198191e-01  0.000000e+00
     vertex -1.093750e-01  1.277138e-01  0.000000e+00
   endloop
 endfacet
 facet normal  0.000000e+00 -0.000000e+00 -1.000000e+00
   outer loop
     vertex  1.406250e-01  1.277138e-01  0.000000e+00
     vertex  1.406250e-01  1.171875e-01  0.000000e+00
     vertex -1.093750e-01  1.198191e-01  0.000000e+00
   endloop
 endfacet
 facet normal  0.000000e+00  0.000000e+00  1.000000e+00
   outer loop
     vertex  1.406250e-01  1.171875e-01  3.046875e-01
     vertex -1.093750e-01  1.198191e-01  3.046875e-01
     vertex -1.093750e-01  1.171875e-01  3.046875e-01
   endloop
 endfacet
 facet normal  0.000000e+00  0.000000e+00  1.000000e+00
   outer loop
     vertex  1.406250e-01  1.277138e-01  3.046875e-01
     vertex -1.093750e-01  1.277138e-01  3.046875e-01
     vertex -1.093750e-01  1.198191e-01  3.046875e-01
   endloop
 endfacet
 facet normal  0.000000e+00  0.000000e+00  1.000000e+00
   outer loop
     vertex  1.406250e-01  1.277138e-01  3.046875e-01
     vertex -1.093750e-01  1.198191e-01  3.046875e-01
     vertex  1.406250e-01  1.171875e-01  3.046875e-01
   endloop
 endfacet
 facet normal  0.000000e+00 -1.000000e+00  0.000000e+00
   outer loop
     vertex -3.171053e-01 -8.593750e-02  0.000000e+00
     vertex -3.671875e-01 -8.593750e-02  7.812500e-03
     vertex -3.671875e-01 -8.593750e-02  0.000000e+00
   endloop
 endfacet
 facet normal  0.000000e+00 -1.000000e+00  0.000000e+00
   outer loop
     vertex -3.171053e-01 -8.593750e-02  0.000000e+00
     vertex -3.171053e-01 -8.593750e-02  7.812500e-03
     vertex -3.671875e-01 -8.593750e-02  7.812500e-03
   endloop
 endfacet
 facet normal  9.991148e-01  4.206799e-02  0.000000e+00
   outer loop
     vertex -3.457237e-01  5.937500e-01  0.000000e+00
     vertex -3.171053e-01 -8.593750e-02  7.812500e-03
     vertex -3.171053e-01 -8.593750e-02  0.000000e+00
   endloop
 endfacet
 facet normal  9.991148e-01  4.206799e-02 -0.000000e+00
   outer loop
     vertex -3.457237e-01  5.937500e-01  0.000000e+00
     vertex -3.457237e-01  5.937500e-01  7.812500e-03
     vertex -3.171053e-01 -8.593750e-02  7.812500e-03
   endloop
 endfacet
 facet normal  0.000000e+00  1.000000e+00  0.000000e+00
   outer loop
     vertex -3.600329e-01  5.937500e-01  0.000000e+00
     vertex -3.457237e-01  5.937500e-01  7.812500e-03
     vertex -3.457237e-01  5.937500e-01  0.000000e+00
   endloop
 endfacet
 facet normal  0.000000e+00  1.000000e+00  0.000000e+00
   outer loop
     vertex -3.600329e-01  5.937500e-01  0.000000e+00
     vertex -3.600329e-01  5.937500e-01  7.812500e-03
     vertex -3.457237e-01  5.937500e-01  7.812500e-03
   endloop
 endfacet
 facet normal  0.000000e+00  1.000000e+00  0.000000e+00
   outer loop
     vertex -3.671875e-01  5.937500e-01  0.000000e+00
     vertex -3.600329e-01  5.937500e-01  7.812500e-03
     vertex -3.600329e-01  5.937500e-01  0.000000e+00
   endloop
 endfacet
 facet normal  0.000000e+00  1.000000e+00  0.000000e+00
   outer loop
     vertex -3.671875e-01  5.937500e-01  0.000000e+00
     vertex -3.671875e-01  5.937500e-01  7.812500e-03
     vertex -3.600329e-01  5.937500e-01  7.812500e-03
   endloop
 endfacet
 facet normal -1.000000e+00  0.000000e+00  0.000000e+00
   outer loop
     vertex -3.671875e-01 -8.593750e-02  0.000000e+00
     vertex -3.671875e-01  5.937500e-01  7.812500e-03
     vertex -3.671875e-01  5.937500e-01  0.000000e+00
   endloop
 endfacet
 facet normal -1.000000e+00  0.000000e+00  0.000000e+00
   outer loop
     vertex -3.671875e-01 -8.593750e-02  0.000000e+00
     vertex -3.671875e-01 -8.593750e-02  7.812500e-03
     vertex -3.671875e-01  5.937500e-01  7.812500e-03
   endloop
 endfacet
 facet normal -0.000000e+00  0.000000e+00 -1.000000e+00
   outer loop
     vertex -3.600329e-01  5.937500e-01  0.000000e+00
     vertex -3.671875e-01 -8.593750e-02  0.000000e+00
     vertex -3.671875e-01  5.937500e-01  0.000000e+00
   endloop
 endfacet
 facet normal  0.000000e+00 -0.000000e+00 -1.000000e+00
   outer loop
     vertex -3.457237e-01  5.937500e-01  0.000000e+00
     vertex -3.171053e-01 -8.593750e-02  0.000000e+00
     vertex -3.671875e-01 -8.593750e-02  0.000000e+00
   endloop
 endfacet
 facet normal -0.000000e+00  0.000000e+00 -1.000000e+00
   outer loop
     vertex -3.457237e-01  5.937500e-01  0.000000e+00
     vertex -3.671875e-01 -8.593750e-02  0.000000e+00
     vertex -3.600329e-01  5.937500e-01  0.000000e+00
   endloop
 endfacet
 facet normal  0.000000e+00  0.000000e+00  1.000000e+00
   outer loop
     vertex -3.600329e-01  5.937500e-01  7.812500e-03
     vertex -3.671875e-01  5.937500e-01  7.812500e-03
     vertex -3.671875e-01 -8.593750e-02  7.812500e-03
   endloop
 endfacet
 facet normal  0.000000e+00  0.000000e+00  1.000000e+00
   outer loop
     vertex -3.457237e-01  5.937500e-01  7.812500e-03
     vertex -3.671875e-01 -8.593750e-02  7.812500e-03
     vertex -3.171053e-01 -8.593750e-02  7.812500e-03
   endloop
 endfacet
 facet normal  0.000000e+00  0.000000e+00  1.000000e+00
   outer loop
     vertex -3.457237e-01  5.937500e-01  7.812500e-03
     vertex -3.600329e-01  5.937500e-01  7.812500e-03
     vertex -3.671875e-01 -8.593750e-02  7.812500e-03
   endloop
 endfacet
 facet normal  0.000000e+00 -1.000000e+00  0.000000e+00
   outer loop
     vertex  1.122368e+00  6.093750e-01  0.000000e+00
     vertex  2.734375e-01  6.093750e-01  7.812500e-03
     vertex  2.734375e-01  6.093750e-01  0.000000e+00
   endloop
 endfacet
 facet normal  0.000000e+00 -1.000000e+00  0.000000e+00
   outer loop
     vertex  1.122368e+00  6.093750e-01  0.000000e+00
     vertex  1.122368e+00  6.093750e-01  7.812500e-03
     vertex  2.734375e-01  6.093750e-01  7.812500e-03
   endloop
 endfacet
 facet normal  9.997785e-01 -2.104797e-02  0.000000e+00
   outer loop
     vertex  1.140625e+00  1.476562e+00  0.000000e+00
     vertex  1.122368e+00  6.093750e-01  7.812500e-03
     vertex  1.122368e+00  6.093750e-01  0.000000e+00
   endloop
 endfacet
 facet normal  9.997785e-01 -2.104797e-02  0.000000e+00
   outer loop
     vertex  1.140625e+00  1.476562e+00  0.000000e+00
     vertex  1.140625e+00  1.476562e+00  7.812500e-03
     vertex  1.122368e+00  6.093750e-01  7.812500e-03
   endloop
 endfacet
 facet normal  0.000000e+00  1.000000e+00  0.000000e+00
   outer loop
     vertex  2.734375e-01  1.476562e+00  0.000000e+00
     vertex  1.140625e+00  1.476562e+00  7.812500e-03
     vertex  1.140625e+00  1.476562e+00  0.000000e+00
   endloop
 endfacet
 facet normal  0.000000e+00  1.000000e+00  0.000000e+00
   outer loop
     vertex  2.734375e-01  1.476562e+00  0.000000e+00
     vertex  2.734375e-01  1.476562e+00  7.812500e-03
     vertex  1.140625e+00  1.476562e+00  7.812500e-03
   endloop
 endfacet
 facet normal -1.000000e+00  0.000000e+00  0.000000e+00
   outer loop
     vertex  2.734375e-01  6.093750e-01  0.000000e+00
     vertex  2.734375e-01  1.476562e+00  7.812500e-03
     vertex  2.734375e-01  1.476562e+00  0.000000e+00
   endloop
 endfacet
 facet normal -1.000000e+00  0.000000e+00  0.000000e+00
   outer loop
     vertex  2.734375e-01  6.093750e-01  0.000000e+00
     vertex  2.734375e-01  6.093750e-01  7.812500e-03
     vertex  2.734375e-01  1.476562e+00  7.812500e-03
   endloop
 endfacet
 facet normal  0.000000e+00  0.000000e+00 -1.000000e+00
   outer loop
     vertex  2.734375e-01  1.476562e+00  0.000000e+00
     vertex  1.122368e+00  6.093750e-01  0.000000e+00
     vertex  2.734375e-01  6.093750e-01  0.000000e+00
   endloop
 endfacet
 facet normal -0.000000e+00  0.000000e+00 -1.000000e+00
   outer loop
     vertex  1.140625e+00  1.476562e+00  0.000000e+00
     vertex  1.122368e+00  6.093750e-01  0.000000e+00
     vertex  2.734375e-01  1.476562e+00  0.000000e+00
   endloop
 endfacet
 facet normal  0.000000e+00  0.000000e+00  1.000000e+00
   outer loop
     vertex  2.734375e-01  1.476562e+00  7.812500e-03
     vertex  2.734375e-01  6.093750e-01  7.812500e-03
     vertex  1.122368e+00  6.093750e-01  7.812500e-03
   endloop
 endfacet
 facet normal  0.000000e+00  0.000000e+00  1.000000e+00
   outer loop
     vertex  1.140625e+00  1.476562e+00  7.812500e-03
     vertex  2.734375e-01  1.476562e+00  7.812500e-03
     vertex  1.122368e+00  6.093750e-01  7.812500e-03
   endloop
 endfacet
endsolid
