solid 
 facet normal -0.000000e+00 -1.000000e+00  0.000000e+00
   outer loop
     vertex  1.434211e-01 -7.500000e-01  0.000000e+00
     vertex -1.250000e-01 -7.500000e-01  0.000000e+00
     vertex -1.250000e-01 -7.500000e-01 -2.500000e-01
   endloop
 endfacet
 facet normal  0.000000e+00 -1.000000e+00 -0.000000e+00
   outer loop
     vertex  1.434211e-01 -7.500000e-01  0.000000e+00
     vertex -1.250000e-01 -7.500000e-01 -2.500000e-01
     vertex  1.434211e-01 -7.500000e-01 -2.500000e-01
   endloop
 endfacet
 facet normal  1.000000e+00  0.000000e+00  0.000000e+00
   outer loop
     vertex  1.434211e-01  7.500000e-01  0.000000e+00
     vertex  1.434211e-01 -7.500000e-01  0.000000e+00
     vertex  1.434211e-01 -7.500000e-01 -2.500000e-01
   endloop
 endfacet
 facet normal  1.000000e+00  0.000000e+00  0.000000e+00
   outer loop
     vertex  1.434211e-01  7.500000e-01  0.000000e+00
     vertex  1.434211e-01 -7.500000e-01 -2.500000e-01
     vertex  1.434211e-01  7.500000e-01 -2.500000e-01
   endloop
 endfacet
 facet normal -0.000000e+00  1.000000e+00  0.000000e+00
   outer loop
     vertex -1.250000e-01  7.500000e-01  0.000000e+00
     vertex  1.434211e-01  7.500000e-01  0.000000e+00
     vertex  1.434211e-01  7.500000e-01 -2.500000e-01
   endloop
 endfacet
 facet normal  0.000000e+00  1.000000e+00  0.000000e+00
   outer loop
     vertex -1.250000e-01  7.500000e-01  0.000000e+00
     vertex  1.434211e-01  7.500000e-01 -2.500000e-01
     vertex -1.250000e-01  7.500000e-01 -2.500000e-01
   endloop
 endfacet
 facet normal -1.000000e+00  0.000000e+00  0.000000e+00
   outer loop
     vertex -1.250000e-01 -7.500000e-01  0.000000e+00
     vertex -1.250000e-01  7.500000e-01  0.000000e+00
     vertex -1.250000e-01  7.500000e-01 -2.500000e-01
   endloop
 endfacet
 facet normal -1.000000e+00  0.000000e+00  0.000000e+00
   outer loop
     vertex -1.250000e-01 -7.500000e-01  0.000000e+00
     vertex -1.250000e-01  7.500000e-01 -2.500000e-01
     vertex -1.250000e-01 -7.500000e-01 -2.500000e-01
   endloop
 endfacet
 facet normal -7.071068e-01 -7.071068e-01  0.000000e+00
   outer loop
     vertex  1.315789e-03 -6.236842e-01  0.000000e+00
     vertex  3.289474e-02 -6.552632e-01 -2.500000e-01
     vertex  3.289474e-02 -6.552632e-01  0.000000e+00
   endloop
 endfacet
 facet normal -7.071068e-01 -7.071068e-01 -0.000000e+00
   outer loop
     vertex  1.315789e-03 -6.236842e-01  0.000000e+00
     vertex  1.315789e-03 -6.236842e-01 -2.500000e-01
     vertex  3.289474e-02 -6.552632e-01 -2.500000e-01
   endloop
 endfacet
 facet normal  7.071068e-01 -7.071068e-01  0.000000e+00
   outer loop
     vertex -3.026316e-02 -6.552632e-01  0.000000e+00
     vertex -3.026316e-02 -6.552632e-01 -2.500000e-01
     vertex  1.315789e-03 -6.236842e-01 -2.500000e-01
   endloop
 endfacet
 facet normal  7.071068e-01 -7.071068e-01  0.000000e+00
   outer loop
     vertex -3.026316e-02 -6.552632e-01  0.000000e+00
     vertex  1.315789e-03 -6.236842e-01 -2.500000e-01
     vertex  1.315789e-03 -6.236842e-01  0.000000e+00
   endloop
 endfacet
 facet normal  7.071068e-01  7.071068e-01  0.000000e+00
   outer loop
     vertex  1.315789e-03 -6.868421e-01  0.000000e+00
     vertex  1.315789e-03 -6.868421e-01 -2.500000e-01
     vertex -3.026316e-02 -6.552632e-01 -2.500000e-01
   endloop
 endfacet
 facet normal  7.071068e-01  7.071068e-01  0.000000e+00
   outer loop
     vertex  1.315789e-03 -6.868421e-01  0.000000e+00
     vertex -3.026316e-02 -6.552632e-01 -2.500000e-01
     vertex -3.026316e-02 -6.552632e-01  0.000000e+00
   endloop
 endfacet
 facet normal -7.071068e-01  7.071068e-01  0.000000e+00
   outer loop
     vertex  3.289474e-02 -6.552632e-01  0.000000e+00
     vertex  3.289474e-02 -6.552632e-01 -2.500000e-01
     vertex  1.315789e-03 -6.868421e-01 -2.500000e-01
   endloop
 endfacet
 facet normal -7.071068e-01  7.071068e-01  0.000000e+00
   outer loop
     vertex  3.289474e-02 -6.552632e-01  0.000000e+00
     vertex  1.315789e-03 -6.868421e-01 -2.500000e-01
     vertex  1.315789e-03 -6.868421e-01  0.000000e+00
   endloop
 endfacet
 facet normal -7.071068e-01 -7.071068e-01  0.000000e+00
   outer loop
     vertex  1.315789e-03  6.394737e-01  0.000000e+00
     vertex  3.289474e-02  6.078947e-01 -2.500000e-01
     vertex  3.289474e-02  6.078947e-01  0.000000e+00
   endloop
 endfacet
 facet normal -7.071068e-01 -7.071068e-01 -0.000000e+00
   outer loop
     vertex  1.315789e-03  6.394737e-01  0.000000e+00
     vertex  1.315789e-03  6.394737e-01 -2.500000e-01
     vertex  3.289474e-02  6.078947e-01 -2.500000e-01
   endloop
 endfacet
 facet normal  7.071068e-01 -7.071068e-01  0.000000e+00
   outer loop
     vertex -3.026316e-02  6.078947e-01  0.000000e+00
     vertex -3.026316e-02  6.078947e-01 -2.500000e-01
     vertex  1.315789e-03  6.394737e-01 -2.500000e-01
   endloop
 endfacet
 facet normal  7.071068e-01 -7.071068e-01  0.000000e+00
   outer loop
     vertex -3.026316e-02  6.078947e-01  0.000000e+00
     vertex  1.315789e-03  6.394737e-01 -2.500000e-01
     vertex  1.315789e-03  6.394737e-01  0.000000e+00
   endloop
 endfacet
 facet normal  7.071068e-01  7.071068e-01  0.000000e+00
   outer loop
     vertex  1.315789e-03  5.763158e-01  0.000000e+00
     vertex  1.315789e-03  5.763158e-01 -2.500000e-01
     vertex -3.026316e-02  6.078947e-01 -2.500000e-01
   endloop
 endfacet
 facet normal  7.071068e-01  7.071068e-01  0.000000e+00
   outer loop
     vertex  1.315789e-03  5.763158e-01  0.000000e+00
     vertex -3.026316e-02  6.078947e-01 -2.500000e-01
     vertex -3.026316e-02  6.078947e-01  0.000000e+00
   endloop
 endfacet
 facet normal -7.071068e-01  7.071068e-01  0.000000e+00
   outer loop
     vertex  3.289474e-02  6.078947e-01  0.000000e+00
     vertex  3.289474e-02  6.078947e-01 -2.500000e-01
     vertex  1.315789e-03  5.763158e-01 -2.500000e-01
   endloop
 endfacet
 facet normal -7.071068e-01  7.071068e-01  0.000000e+00
   outer loop
     vertex  3.289474e-02  6.078947e-01  0.000000e+00
     vertex  1.315789e-03  5.763158e-01 -2.500000e-01
     vertex  1.315789e-03  5.763158e-01  0.000000e+00
   endloop
 endfacet
 facet normal  0.000000e+00  0.000000e+00  1.000000e+00
   outer loop
     vertex  1.315789e-03 -6.868421e-01  0.000000e+00
     vertex -3.026316e-02 -6.552632e-01  0.000000e+00
     vertex -1.250000e-01 -7.500000e-01  0.000000e+00
   endloop
 endfacet
 facet normal  0.000000e+00  0.000000e+00  1.000000e+00
   outer loop
     vertex  1.434211e-01 -7.500000e-01  0.000000e+00
     vertex  3.289474e-02 -6.552632e-01  0.000000e+00
     vertex  1.315789e-03 -6.868421e-01  0.000000e+00
   endloop
 endfacet
 facet normal  0.000000e+00  0.000000e+00  1.000000e+00
   outer loop
     vertex  1.434211e-01 -7.500000e-01  0.000000e+00
     vertex  1.315789e-03 -6.868421e-01  0.000000e+00
     vertex -1.250000e-01 -7.500000e-01  0.000000e+00
   endloop
 endfacet
 facet normal  0.000000e+00  0.000000e+00  1.000000e+00
   outer loop
     vertex -3.026316e-02  6.078947e-01  0.000000e+00
     vertex -1.250000e-01 -7.500000e-01  0.000000e+00
     vertex -3.026316e-02 -6.552632e-01  0.000000e+00
   endloop
 endfacet
 facet normal  0.000000e+00  0.000000e+00  1.000000e+00
   outer loop
     vertex  1.315789e-03  5.763158e-01  0.000000e+00
     vertex -3.026316e-02 -6.552632e-01  0.000000e+00
     vertex  1.315789e-03 -6.236842e-01  0.000000e+00
   endloop
 endfacet
 facet normal  0.000000e+00  0.000000e+00  1.000000e+00
   outer loop
     vertex  1.315789e-03  5.763158e-01  0.000000e+00
     vertex -3.026316e-02  6.078947e-01  0.000000e+00
     vertex -3.026316e-02 -6.552632e-01  0.000000e+00
   endloop
 endfacet
 facet normal  0.000000e+00  0.000000e+00  1.000000e+00
   outer loop
     vertex -1.250000e-01  7.500000e-01  0.000000e+00
     vertex -1.250000e-01 -7.500000e-01  0.000000e+00
     vertex -3.026316e-02  6.078947e-01  0.000000e+00
   endloop
 endfacet
 facet normal  0.000000e+00  0.000000e+00  1.000000e+00
   outer loop
     vertex  3.289474e-02  6.078947e-01  0.000000e+00
     vertex  1.315789e-03 -6.236842e-01  0.000000e+00
     vertex  3.289474e-02 -6.552632e-01  0.000000e+00
   endloop
 endfacet
 facet normal  0.000000e+00  0.000000e+00  1.000000e+00
   outer loop
     vertex  3.289474e-02  6.078947e-01  0.000000e+00
     vertex  3.289474e-02 -6.552632e-01  0.000000e+00
     vertex  1.434211e-01 -7.500000e-01  0.000000e+00
   endloop
 endfacet
 facet normal  0.000000e+00  0.000000e+00  1.000000e+00
   outer loop
     vertex  3.289474e-02  6.078947e-01  0.000000e+00
     vertex  1.315789e-03  5.763158e-01  0.000000e+00
     vertex  1.315789e-03 -6.236842e-01  0.000000e+00
   endloop
 endfacet
 facet normal  0.000000e+00  0.000000e+00  1.000000e+00
   outer loop
     vertex  1.315789e-03  6.394737e-01  0.000000e+00
     vertex -1.250000e-01  7.500000e-01  0.000000e+00
     vertex -3.026316e-02  6.078947e-01  0.000000e+00
   endloop
 endfacet
 facet normal  0.000000e+00  0.000000e+00  1.000000e+00
   outer loop
     vertex  1.434211e-01  7.500000e-01  0.000000e+00
     vertex  1.315789e-03  6.394737e-01  0.000000e+00
     vertex  3.289474e-02  6.078947e-01  0.000000e+00
   endloop
 endfacet
 facet normal  0.000000e+00  0.000000e+00  1.000000e+00
   outer loop
     vertex  1.434211e-01  7.500000e-01  0.000000e+00
     vertex -1.250000e-01  7.500000e-01  0.000000e+00
     vertex  1.315789e-03  6.394737e-01  0.000000e+00
   endloop
 endfacet
 facet normal  0.000000e+00  0.000000e+00  1.000000e+00
   outer loop
     vertex  1.434211e-01  7.500000e-01  0.000000e+00
     vertex  3.289474e-02  6.078947e-01  0.000000e+00
     vertex  1.434211e-01 -7.500000e-01  0.000000e+00
   endloop
 endfacet
 facet normal -0.000000e+00  0.000000e+00 -1.000000e+00
   outer loop
     vertex  1.315789e-03 -6.868421e-01 -2.500000e-01
     vertex -1.250000e-01 -7.500000e-01 -2.500000e-01
     vertex -3.026316e-02 -6.552632e-01 -2.500000e-01
   endloop
 endfacet
 facet normal  0.000000e+00  0.000000e+00 -1.000000e+00
   outer loop
     vertex  1.434211e-01 -7.500000e-01 -2.500000e-01
     vertex  1.315789e-03 -6.868421e-01 -2.500000e-01
     vertex  3.289474e-02 -6.552632e-01 -2.500000e-01
   endloop
 endfacet
 facet normal  0.000000e+00  0.000000e+00 -1.000000e+00
   outer loop
     vertex  1.434211e-01 -7.500000e-01 -2.500000e-01
     vertex -1.250000e-01 -7.500000e-01 -2.500000e-01
     vertex  1.315789e-03 -6.868421e-01 -2.500000e-01
   endloop
 endfacet
 facet normal  0.000000e+00 -0.000000e+00 -1.000000e+00
   outer loop
     vertex -3.026316e-02  6.078947e-01 -2.500000e-01
     vertex -3.026316e-02 -6.552632e-01 -2.500000e-01
     vertex -1.250000e-01 -7.500000e-01 -2.500000e-01
   endloop
 endfacet
 facet normal  0.000000e+00 -0.000000e+00 -1.000000e+00
   outer loop
     vertex  1.315789e-03  5.763158e-01 -2.500000e-01
     vertex  1.315789e-03 -6.236842e-01 -2.500000e-01
     vertex -3.026316e-02 -6.552632e-01 -2.500000e-01
   endloop
 endfacet
 facet normal -0.000000e+00  0.000000e+00 -1.000000e+00
   outer loop
     vertex  1.315789e-03  5.763158e-01 -2.500000e-01
     vertex -3.026316e-02 -6.552632e-01 -2.500000e-01
     vertex -3.026316e-02  6.078947e-01 -2.500000e-01
   endloop
 endfacet
 facet normal  0.000000e+00  0.000000e+00 -1.000000e+00
   outer loop
     vertex -1.250000e-01  7.500000e-01 -2.500000e-01
     vertex -3.026316e-02  6.078947e-01 -2.500000e-01
     vertex -1.250000e-01 -7.500000e-01 -2.500000e-01
   endloop
 endfacet
 facet normal  0.000000e+00 -0.000000e+00 -1.000000e+00
   outer loop
     vertex  3.289474e-02  6.078947e-01 -2.500000e-01
     vertex  3.289474e-02 -6.552632e-01 -2.500000e-01
     vertex  1.315789e-03 -6.236842e-01 -2.500000e-01
   endloop
 endfacet
 facet normal  0.000000e+00  0.000000e+00 -1.000000e+00
   outer loop
     vertex  3.289474e-02  6.078947e-01 -2.500000e-01
     vertex  1.434211e-01 -7.500000e-01 -2.500000e-01
     vertex  3.289474e-02 -6.552632e-01 -2.500000e-01
   endloop
 endfacet
 facet normal  0.000000e+00  0.000000e+00 -1.000000e+00
   outer loop
     vertex  3.289474e-02  6.078947e-01 -2.500000e-01
     vertex  1.315789e-03 -6.236842e-01 -2.500000e-01
     vertex  1.315789e-03  5.763158e-01 -2.500000e-01
   endloop
 endfacet
 facet normal -0.000000e+00  0.000000e+00 -1.000000e+00
   outer loop
     vertex  1.315789e-03  6.394737e-01 -2.500000e-01
     vertex -3.026316e-02  6.078947e-01 -2.500000e-01
     vertex -1.250000e-01  7.500000e-01 -2.500000e-01
   endloop
 endfacet
 facet normal  0.000000e+00  0.000000e+00 -1.000000e+00
   outer loop
     vertex  1.434211e-01  7.500000e-01 -2.500000e-01
     vertex  3.289474e-02  6.078947e-01 -2.500000e-01
     vertex  1.315789e-03  6.394737e-01 -2.500000e-01
   endloop
 endfacet
 facet normal -0.000000e+00  0.000000e+00 -1.000000e+00
   outer loop
     vertex  1.434211e-01  7.500000e-01 -2.500000e-01
     vertex  1.315789e-03  6.394737e-01 -2.500000e-01
     vertex -1.250000e-01  7.500000e-01 -2.500000e-01
   endloop
 endfacet
 facet normal  0.000000e+00 -0.000000e+00 -1.000000e+00
   outer loop
     vertex  1.434211e-01  7.500000e-01 -2.500000e-01
     vertex  1.434211e-01 -7.500000e-01 -2.500000e-01
     vertex  3.289474e-02  6.078947e-01 -2.500000e-01
   endloop
 endfacet
endsolid
