solid 
 facet normal -6.123234e-17 -6.123234e-17 -1.000000e+00
   outer loop
     vertex  7.500000e-01  4.592425e-17 -4.592425e-17
     vertex  1.913511e-18 -3.125000e-02  1.913511e-18
     vertex  0.000000e+00  0.000000e+00  0.000000e+00
   endloop
 endfacet
 facet normal -6.123234e-17 -6.123234e-17 -1.000000e+00
   outer loop
     vertex  7.500000e-01  4.592425e-17 -4.592425e-17
     vertex  7.500000e-01 -3.125000e-02 -4.401074e-17
     vertex  1.913511e-18 -3.125000e-02  1.913511e-18
   endloop
 endfacet
 facet normal  1.000000e+00  0.000000e+00  0.000000e+00
   outer loop
     vertex  7.500000e-01  5.752617e-17  1.894737e-01
     vertex  7.500000e-01 -3.125000e-02 -4.401074e-17
     vertex  7.500000e-01  4.592425e-17 -4.592425e-17
   endloop
 endfacet
 facet normal  1.000000e+00  0.000000e+00  0.000000e+00
   outer loop
     vertex  7.500000e-01  5.752617e-17  1.894737e-01
     vertex  7.500000e-01 -3.125000e-02  1.894737e-01
     vertex  7.500000e-01 -3.125000e-02 -4.401074e-17
   endloop
 endfacet
 facet normal -0.000000e+00  0.000000e+00  1.000000e+00
   outer loop
     vertex  1.160192e-17  1.160192e-17  1.894737e-01
     vertex  7.500000e-01 -3.125000e-02  1.894737e-01
     vertex  7.500000e-01  5.752617e-17  1.894737e-01
   endloop
 endfacet
 facet normal  0.000000e+00  0.000000e+00  1.000000e+00
   outer loop
     vertex  1.160192e-17  1.160192e-17  1.894737e-01
     vertex  1.351543e-17 -3.125000e-02  1.894737e-01
     vertex  7.500000e-01 -3.125000e-02  1.894737e-01
   endloop
 endfacet
 facet normal -1.000000e+00 -6.123234e-17  6.123234e-17
   outer loop
     vertex  0.000000e+00  0.000000e+00  0.000000e+00
     vertex  1.351543e-17 -3.125000e-02  1.894737e-01
     vertex  1.160192e-17  1.160192e-17  1.894737e-01
   endloop
 endfacet
 facet normal -1.000000e+00 -6.123234e-17  6.123234e-17
   outer loop
     vertex  0.000000e+00  0.000000e+00  0.000000e+00
     vertex  1.913511e-18 -3.125000e-02  1.913511e-18
     vertex  1.351543e-17 -3.125000e-02  1.894737e-01
   endloop
 endfacet
 facet normal -6.123234e-17  1.000000e+00 -6.123234e-17
   outer loop
     vertex  7.500000e-01  5.752617e-17  1.894737e-01
     vertex  7.500000e-01  4.592425e-17 -4.592425e-17
     vertex  0.000000e+00  0.000000e+00  0.000000e+00
   endloop
 endfacet
 facet normal -6.123234e-17  1.000000e+00 -6.123234e-17
   outer loop
     vertex  7.500000e-01  5.752617e-17  1.894737e-01
     vertex  0.000000e+00  0.000000e+00  0.000000e+00
     vertex  1.160192e-17  1.160192e-17  1.894737e-01
   endloop
 endfacet
 facet normal  0.000000e+00 -1.000000e+00 -0.000000e+00
   outer loop
     vertex  7.500000e-01 -3.125000e-02  1.894737e-01
     vertex  1.913511e-18 -3.125000e-02  1.913511e-18
     vertex  7.500000e-01 -3.125000e-02 -4.401074e-17
   endloop
 endfacet
 facet normal -0.000000e+00 -1.000000e+00  0.000000e+00
   outer loop
     vertex  7.500000e-01 -3.125000e-02  1.894737e-01
     vertex  1.351543e-17 -3.125000e-02  1.894737e-01
     vertex  1.913511e-18 -3.125000e-02  1.913511e-18
   endloop
 endfacet
endsolid
