solid 
 facet normal -0.000000e+00  0.000000e+00 -1.000000e+00
   outer loop
     vertex -2.011093e-01 -2.500000e-01 -3.281250e-01
     vertex -7.500000e-01 -9.921875e-01 -3.281250e-01
     vertex -7.500000e-01  0.000000e+00 -3.281250e-01
   endloop
 endfacet
 facet normal  0.000000e+00  0.000000e+00 -1.000000e+00
   outer loop
     vertex  7.500000e-01 -9.921875e-01 -3.281250e-01
     vertex -7.500000e-01 -9.921875e-01 -3.281250e-01
     vertex -2.011093e-01 -2.500000e-01 -3.281250e-01
   endloop
 endfacet
 facet normal  0.000000e+00 -0.000000e+00 -1.000000e+00
   outer loop
     vertex -2.011093e-01  3.360986e-17 -3.281250e-01
     vertex -2.011093e-01 -2.500000e-01 -3.281250e-01
     vertex -7.500000e-01  0.000000e+00 -3.281250e-01
   endloop
 endfacet
 facet normal -0.000000e+00 -0.000000e+00 -1.000000e+00
   outer loop
     vertex  2.086751e-01 -2.500000e-01 -3.281250e-01
     vertex  7.500000e-01 -9.921875e-01 -3.281250e-01
     vertex -2.011093e-01 -2.500000e-01 -3.281250e-01
   endloop
 endfacet
 facet normal  0.000000e+00  0.000000e+00 -1.000000e+00
   outer loop
     vertex  7.500000e-01  9.184851e-17 -3.281250e-01
     vertex  2.086751e-01 -2.500000e-01 -3.281250e-01
     vertex  2.086751e-01  5.870192e-17 -3.281250e-01
   endloop
 endfacet
 facet normal  0.000000e+00 -0.000000e+00 -1.000000e+00
   outer loop
     vertex  7.500000e-01  9.184851e-17 -3.281250e-01
     vertex  7.500000e-01 -9.921875e-01 -3.281250e-01
     vertex  2.086751e-01 -2.500000e-01 -3.281250e-01
   endloop
 endfacet
 facet normal -6.123234e-17  1.000000e+00 -2.014413e-15
   outer loop
     vertex -2.011093e-01  3.360986e-17 -3.281250e-01
     vertex -7.500000e-01  0.000000e+00 -3.281250e-01
     vertex -2.723684e-01  1.445196e-16 -2.709008e-01
   endloop
 endfacet
 facet normal -2.784920e-16  1.000000e+00 -2.010163e-16
   outer loop
     vertex -3.282143e-01  1.435093e-16 -1.985565e-01
     vertex -2.723684e-01  1.445196e-16 -2.709008e-01
     vertex -7.500000e-01  0.000000e+00 -3.281250e-01
   endloop
 endfacet
 facet normal -3.082805e-16  1.000000e+00 -1.040457e-16
   outer loop
     vertex -3.655299e-01  1.406859e-16 -1.151298e-01
     vertex -3.282143e-01  1.435093e-16 -1.985565e-01
     vertex -7.500000e-01  0.000000e+00 -3.281250e-01
   endloop
 endfacet
 facet normal -3.199375e-16  1.000000e+00 -6.123234e-17
   outer loop
     vertex -3.822325e-01  1.362067e-16 -2.527718e-02
     vertex -7.500000e-01  0.000000e+00 -3.281250e-01
     vertex -7.500000e-01  3.673940e-17  2.718750e-01
   endloop
 endfacet
 facet normal -3.567948e-16  1.000000e+00 -1.647418e-17
   outer loop
     vertex -3.822325e-01  1.362067e-16 -2.527718e-02
     vertex -3.655299e-01  1.406859e-16 -1.151298e-01
     vertex -7.500000e-01  0.000000e+00 -3.281250e-01
   endloop
 endfacet
 facet normal -2.093849e-16  1.000000e+00  7.559203e-17
   outer loop
     vertex -3.773898e-01  1.303219e-16  6.598627e-02
     vertex -3.822325e-01  1.362067e-16 -2.527718e-02
     vertex -7.500000e-01  3.673940e-17  2.718750e-01
   endloop
 endfacet
 facet normal -1.779130e-16  1.000000e+00  1.325487e-16
   outer loop
     vertex -3.512721e-01  1.233599e-16  1.535667e-01
     vertex -3.773898e-01  1.303219e-16  6.598627e-02
     vertex -7.500000e-01  3.673940e-17  2.718750e-01
   endloop
 endfacet
 facet normal -1.607759e-16  1.000000e+00  1.903050e-16
   outer loop
     vertex -3.053372e-01  1.157093e-16  2.325759e-01
     vertex -3.512721e-01  1.233599e-16  1.535667e-01
     vertex -7.500000e-01  3.673940e-17  2.718750e-01
   endloop
 endfacet
 facet normal -1.066839e-16  1.000000e+00  8.023475e-16
   outer loop
     vertex -2.421489e-01  6.947299e-17  2.986040e-01
     vertex -3.053372e-01  1.157093e-16  2.325759e-01
     vertex -7.500000e-01  3.673940e-17  2.718750e-01
   endloop
 endfacet
 facet normal  6.261407e-01 -1.731304e-16  7.797101e-01
   outer loop
     vertex -2.723684e-01  1.445196e-16 -2.709008e-01
     vertex -2.723684e-01 -2.500000e-01 -2.709008e-01
     vertex -2.011093e-01 -2.500000e-01 -3.281250e-01
   endloop
 endfacet
 facet normal  6.261407e-01  0.000000e+00  7.797101e-01
   outer loop
     vertex -2.723684e-01  1.445196e-16 -2.709008e-01
     vertex -2.011093e-01 -2.500000e-01 -3.281250e-01
     vertex -2.011093e-01  3.360986e-17 -3.281250e-01
   endloop
 endfacet
 facet normal  7.915844e-01  0.000000e+00  6.110598e-01
   outer loop
     vertex -3.282143e-01  1.435093e-16 -1.985565e-01
     vertex -3.282143e-01 -2.500000e-01 -1.985565e-01
     vertex -2.723684e-01 -2.500000e-01 -2.709008e-01
   endloop
 endfacet
 facet normal  7.915844e-01 -1.518493e-16  6.110598e-01
   outer loop
     vertex -3.282143e-01  1.435093e-16 -1.985565e-01
     vertex -2.723684e-01 -2.500000e-01 -2.709008e-01
     vertex -2.723684e-01  1.445196e-16 -2.709008e-01
   endloop
 endfacet
 facet normal  9.128462e-01 -2.266540e-17  4.083035e-01
   outer loop
     vertex -3.655299e-01  1.406859e-16 -1.151298e-01
     vertex -3.655299e-01 -2.500000e-01 -1.151298e-01
     vertex -3.282143e-01 -2.500000e-01 -1.985565e-01
   endloop
 endfacet
 facet normal  9.128462e-01  0.000000e+00  4.083035e-01
   outer loop
     vertex -3.655299e-01  1.406859e-16 -1.151298e-01
     vertex -3.282143e-01 -2.500000e-01 -1.985565e-01
     vertex -3.282143e-01  1.435093e-16 -1.985565e-01
   endloop
 endfacet
 facet normal  9.831579e-01 -1.014510e-17  1.827579e-01
   outer loop
     vertex -3.822325e-01  1.362067e-16 -2.527718e-02
     vertex -3.822325e-01 -2.500000e-01 -2.527718e-02
     vertex -3.655299e-01 -2.500000e-01 -1.151298e-01
   endloop
 endfacet
 facet normal  9.831579e-01 -9.490582e-18  1.827579e-01
   outer loop
     vertex -3.822325e-01  1.362067e-16 -2.527718e-02
     vertex -3.655299e-01 -2.500000e-01 -1.151298e-01
     vertex -3.655299e-01  1.406859e-16 -1.151298e-01
   endloop
 endfacet
 facet normal  9.985951e-01  2.941435e-18 -5.298818e-02
   outer loop
     vertex -3.773898e-01  1.303219e-16  6.598627e-02
     vertex -3.773898e-01 -2.500000e-01  6.598627e-02
     vertex -3.822325e-01 -2.500000e-01 -2.527718e-02
   endloop
 endfacet
 facet normal  9.985951e-01  2.372645e-18 -5.298818e-02
   outer loop
     vertex -3.773898e-01  1.303219e-16  6.598627e-02
     vertex -3.822325e-01 -2.500000e-01 -2.527718e-02
     vertex -3.822325e-01  1.362067e-16 -2.527718e-02
   endloop
 endfacet
 facet normal  9.582962e-01  0.000000e+00 -2.857768e-01
   outer loop
     vertex -3.512721e-01  1.233599e-16  1.535667e-01
     vertex -3.512721e-01 -2.500000e-01  1.535667e-01
     vertex -3.773898e-01 -2.500000e-01  6.598627e-02
   endloop
 endfacet
 facet normal  9.582962e-01  1.898116e-17 -2.857768e-01
   outer loop
     vertex -3.512721e-01  1.233599e-16  1.535667e-01
     vertex -3.773898e-01 -2.500000e-01  6.598627e-02
     vertex -3.773898e-01  1.303219e-16  6.598627e-02
   endloop
 endfacet
 facet normal  8.645104e-01  0.000000e+00 -5.026149e-01
   outer loop
     vertex -3.053372e-01  1.157093e-16  2.325759e-01
     vertex -3.053372e-01 -2.500000e-01  2.325759e-01
     vertex -3.512721e-01 -2.500000e-01  1.535667e-01
   endloop
 endfacet
 facet normal  8.645104e-01  0.000000e+00 -5.026149e-01
   outer loop
     vertex -3.053372e-01  1.157093e-16  2.325759e-01
     vertex -3.512721e-01 -2.500000e-01  1.535667e-01
     vertex -3.512721e-01  1.233599e-16  1.535667e-01
   endloop
 endfacet
 facet normal  7.224724e-01  0.000000e+00 -6.913998e-01
   outer loop
     vertex -2.421489e-01  6.947299e-17  2.986040e-01
     vertex -2.421489e-01 -2.500000e-01  2.986040e-01
     vertex -3.053372e-01 -2.500000e-01  2.325759e-01
   endloop
 endfacet
 facet normal  7.224724e-01  0.000000e+00 -6.913998e-01
   outer loop
     vertex -2.421489e-01  6.947299e-17  2.986040e-01
     vertex -3.053372e-01 -2.500000e-01  2.325759e-01
     vertex -3.053372e-01  1.157093e-16  2.325759e-01
   endloop
 endfacet
 facet normal  0.000000e+00  1.000000e+00  0.000000e+00
   outer loop
     vertex  1.165627e-01 -2.500000e-01 -1.817966e-01
     vertex  2.834714e-01 -2.500000e-01 -2.672473e-01
     vertex  2.086751e-01 -2.500000e-01 -3.281250e-01
   endloop
 endfacet
 facet normal -0.000000e+00  1.000000e+00  0.000000e+00
   outer loop
     vertex  4.683325e-02 -2.500000e-01 -2.360693e-01
     vertex  1.165627e-01 -2.500000e-01 -1.817966e-01
     vertex  2.086751e-01 -2.500000e-01 -3.281250e-01
   endloop
 endfacet
 facet normal -0.000000e+00  1.000000e+00  0.000000e+00
   outer loop
     vertex  1.648918e-01 -2.500000e-01 -1.078235e-01
     vertex  3.773478e-01 -2.500000e-01 -1.004794e-01
     vertex  3.408851e-01 -2.500000e-01 -1.897602e-01
   endloop
 endfacet
 facet normal  0.000000e+00  1.000000e+00  0.000000e+00
   outer loop
     vertex  1.648918e-01 -2.500000e-01 -1.078235e-01
     vertex  3.408851e-01 -2.500000e-01 -1.897602e-01
     vertex  2.834714e-01 -2.500000e-01 -2.672473e-01
   endloop
 endfacet
 facet normal  0.000000e+00  1.000000e+00  0.000000e+00
   outer loop
     vertex  1.648918e-01 -2.500000e-01 -1.078235e-01
     vertex  2.834714e-01 -2.500000e-01 -2.672473e-01
     vertex  1.165627e-01 -2.500000e-01 -1.817966e-01
   endloop
 endfacet
 facet normal -0.000000e+00  1.000000e+00  0.000000e+00
   outer loop
     vertex -3.674040e-02 -2.500000e-01 -2.647601e-01
     vertex  4.683325e-02 -2.500000e-01 -2.360693e-01
     vertex  2.086751e-01 -2.500000e-01 -3.281250e-01
   endloop
 endfacet
 facet normal -0.000000e+00  1.000000e+00  0.000000e+00
   outer loop
     vertex  1.865832e-01 -2.500000e-01 -2.216603e-02
     vertex  3.905933e-01 -2.500000e-01 -4.953724e-03
     vertex  3.773478e-01 -2.500000e-01 -1.004794e-01
   endloop
 endfacet
 facet normal  0.000000e+00  1.000000e+00  0.000000e+00
   outer loop
     vertex  1.865832e-01 -2.500000e-01 -2.216603e-02
     vertex  3.773478e-01 -2.500000e-01 -1.004794e-01
     vertex  1.648918e-01 -2.500000e-01 -1.078235e-01
   endloop
 endfacet
 facet normal  3.141146e-16  1.000000e+00 -8.148153e-16
   outer loop
     vertex -2.011093e-01 -2.500000e-01 -3.281250e-01
     vertex -1.251017e-01 -2.500000e-01 -2.647601e-01
     vertex -3.674040e-02 -2.500000e-01 -2.647601e-01
   endloop
 endfacet
 facet normal  0.000000e+00  1.000000e+00  0.000000e+00
   outer loop
     vertex -2.011093e-01 -2.500000e-01 -3.281250e-01
     vertex -3.674040e-02 -2.500000e-01 -2.647601e-01
     vertex  2.086751e-01 -2.500000e-01 -3.281250e-01
   endloop
 endfacet
 facet normal  2.643672e-16  1.000000e+00  1.001485e-16
   outer loop
     vertex  1.792864e-01 -2.500000e-01  6.589347e-02
     vertex  3.456341e-01 -2.500000e-01  1.810651e-01
     vertex  3.797984e-01 -2.500000e-01  9.087978e-02
   endloop
 endfacet
 facet normal  2.018327e-16  1.000000e+00  6.019806e-16
   outer loop
     vertex  1.792864e-01 -2.500000e-01  6.589347e-02
     vertex  3.797984e-01 -2.500000e-01  9.087978e-02
     vertex  3.905933e-01 -2.500000e-01 -4.953724e-03
   endloop
 endfacet
 facet normal  0.000000e+00  1.000000e+00  0.000000e+00
   outer loop
     vertex  1.792864e-01 -2.500000e-01  6.589347e-02
     vertex  3.905933e-01 -2.500000e-01 -4.953724e-03
     vertex  1.865832e-01 -2.500000e-01 -2.216603e-02
   endloop
 endfacet
 facet normal -1.065133e-16  1.000000e+00 -3.102628e-16
   outer loop
     vertex -2.086754e-01 -2.500000e-01 -2.360693e-01
     vertex -1.251017e-01 -2.500000e-01 -2.647601e-01
     vertex -2.011093e-01 -2.500000e-01 -3.281250e-01
   endloop
 endfacet
 facet normal  1.577924e-16  1.000000e+00 -2.885394e-16
   outer loop
     vertex -2.723684e-01 -2.500000e-01 -2.709008e-01
     vertex -2.086754e-01 -2.500000e-01 -2.360693e-01
     vertex -2.011093e-01 -2.500000e-01 -3.281250e-01
   endloop
 endfacet
 facet normal  2.457469e-16  1.000000e+00  1.725148e-16
   outer loop
     vertex  1.437921e-01 -2.500000e-01  1.468124e-01
     vertex  2.902236e-01 -2.500000e-01  2.599971e-01
     vertex  3.456341e-01 -2.500000e-01  1.810651e-01
   endloop
 endfacet
 facet normal  2.559690e-16  1.000000e+00  1.122784e-16
   outer loop
     vertex  1.437921e-01 -2.500000e-01  1.468124e-01
     vertex  3.456341e-01 -2.500000e-01  1.810651e-01
     vertex  1.792864e-01 -2.500000e-01  6.589347e-02
   endloop
 endfacet
 facet normal  0.000000e+00  1.000000e+00  0.000000e+00
   outer loop
     vertex -2.784048e-01 -2.500000e-01 -1.817966e-01
     vertex -2.086754e-01 -2.500000e-01 -2.360693e-01
     vertex -2.723684e-01 -2.500000e-01 -2.709008e-01
   endloop
 endfacet
 facet normal  5.588350e-16  1.000000e+00 -2.325397e-16
   outer loop
     vertex  2.170108e-01 -2.500000e-01  3.227703e-01
     vertex  2.902236e-01 -2.500000e-01  2.599971e-01
     vertex  1.437921e-01 -2.500000e-01  1.468124e-01
   endloop
 endfacet
 facet normal -0.000000e+00  1.000000e+00  0.000000e+00
   outer loop
     vertex  8.394657e-02 -2.500000e-01  2.118219e-01
     vertex  2.170108e-01 -2.500000e-01  3.227703e-01
     vertex  1.437921e-01 -2.500000e-01  1.468124e-01
   endloop
 endfacet
 facet normal -0.000000e+00  1.000000e+00  0.000000e+00
   outer loop
     vertex -3.282143e-01 -2.500000e-01 -1.985565e-01
     vertex -2.784048e-01 -2.500000e-01 -1.817966e-01
     vertex -2.723684e-01 -2.500000e-01 -2.709008e-01
   endloop
 endfacet
 facet normal  0.000000e+00  1.000000e+00  0.000000e+00
   outer loop
     vertex -3.267339e-01 -2.500000e-01 -1.078235e-01
     vertex -2.784048e-01 -2.500000e-01 -1.817966e-01
     vertex -3.282143e-01 -2.500000e-01 -1.985565e-01
   endloop
 endfacet
 facet normal -0.000000e+00  1.000000e+00  0.000000e+00
   outer loop
     vertex  6.235121e-03 -2.500000e-01  2.538773e-01
     vertex  2.170108e-01 -2.500000e-01  3.227703e-01
     vertex  8.394657e-02 -2.500000e-01  2.118219e-01
   endloop
 endfacet
 facet normal -0.000000e+00  1.000000e+00  0.000000e+00
   outer loop
     vertex -3.655299e-01 -2.500000e-01 -1.151298e-01
     vertex -3.267339e-01 -2.500000e-01 -1.078235e-01
     vertex -3.282143e-01 -2.500000e-01 -1.985565e-01
   endloop
 endfacet
 facet normal  0.000000e+00  1.000000e+00  0.000000e+00
   outer loop
     vertex -3.484253e-01 -2.500000e-01 -2.216603e-02
     vertex -3.267339e-01 -2.500000e-01 -1.078235e-01
     vertex -3.655299e-01 -2.500000e-01 -1.151298e-01
   endloop
 endfacet
 facet normal -0.000000e+00  1.000000e+00  0.000000e+00
   outer loop
     vertex -8.092105e-02 -2.500000e-01  2.684211e-01
     vertex  2.170108e-01 -2.500000e-01  3.227703e-01
     vertex  6.235121e-03 -2.500000e-01  2.538773e-01
   endloop
 endfacet
 facet normal -0.000000e+00  1.000000e+00  0.000000e+00
   outer loop
     vertex -3.822325e-01 -2.500000e-01 -2.527718e-02
     vertex -3.484253e-01 -2.500000e-01 -2.216603e-02
     vertex -3.655299e-01 -2.500000e-01 -1.151298e-01
   endloop
 endfacet
 facet normal  7.660764e-16  1.000000e+00  2.517122e-16
   outer loop
     vertex -3.773898e-01 -2.500000e-01  6.598627e-02
     vertex -3.411285e-01 -2.500000e-01  6.589347e-02
     vertex -3.484253e-01 -2.500000e-01 -2.216603e-02
   endloop
 endfacet
 facet normal  0.000000e+00  1.000000e+00  0.000000e+00
   outer loop
     vertex -3.773898e-01 -2.500000e-01  6.598627e-02
     vertex -3.484253e-01 -2.500000e-01 -2.216603e-02
     vertex -3.822325e-01 -2.500000e-01 -2.527718e-02
   endloop
 endfacet
 facet normal  7.656589e-16  1.000000e+00  8.858541e-17
   outer loop
     vertex -3.512721e-01 -2.500000e-01  1.535667e-01
     vertex -3.411285e-01 -2.500000e-01  6.589347e-02
     vertex -3.773898e-01 -2.500000e-01  6.598627e-02
   endloop
 endfacet
 facet normal  0.000000e+00  1.000000e+00  0.000000e+00
   outer loop
     vertex -3.512721e-01 -2.500000e-01  1.535667e-01
     vertex -3.056342e-01 -2.500000e-01  1.468124e-01
     vertex -3.411285e-01 -2.500000e-01  6.589347e-02
   endloop
 endfacet
 facet normal  0.000000e+00  1.000000e+00  0.000000e+00
   outer loop
     vertex -3.053372e-01 -2.500000e-01  2.325759e-01
     vertex -3.056342e-01 -2.500000e-01  1.468124e-01
     vertex -3.512721e-01 -2.500000e-01  1.535667e-01
   endloop
 endfacet
 facet normal  0.000000e+00  1.000000e+00  0.000000e+00
   outer loop
     vertex -3.053372e-01 -2.500000e-01  2.325759e-01
     vertex -2.457887e-01 -2.500000e-01  2.118219e-01
     vertex -3.056342e-01 -2.500000e-01  1.468124e-01
   endloop
 endfacet
 facet normal  0.000000e+00  1.000000e+00  0.000000e+00
   outer loop
     vertex -2.421489e-01 -2.500000e-01  2.986040e-01
     vertex -2.457887e-01 -2.500000e-01  2.118219e-01
     vertex -3.053372e-01 -2.500000e-01  2.325759e-01
   endloop
 endfacet
 facet normal  0.000000e+00  1.000000e+00  0.000000e+00
   outer loop
     vertex -2.421489e-01 -2.500000e-01  2.986040e-01
     vertex -1.680772e-01 -2.500000e-01  2.538773e-01
     vertex -2.457887e-01 -2.500000e-01  2.118219e-01
   endloop
 endfacet
 facet normal  0.000000e+00  1.000000e+00  0.000000e+00
   outer loop
     vertex -2.421489e-01 -2.500000e-01  2.986040e-01
     vertex -8.092105e-02 -2.500000e-01  2.684211e-01
     vertex -1.680772e-01 -2.500000e-01  2.538773e-01
   endloop
 endfacet
 facet normal -0.000000e+00  1.000000e+00  0.000000e+00
   outer loop
     vertex -2.421489e-01 -2.500000e-01  2.986040e-01
     vertex  2.170108e-01 -2.500000e-01  3.227703e-01
     vertex -8.092105e-02 -2.500000e-01  2.684211e-01
   endloop
 endfacet
 facet normal -6.509068e-01  0.000000e+00 -7.591577e-01
   outer loop
     vertex  2.902236e-01  7.756263e-17  2.599971e-01
     vertex  2.170108e-01 -2.500000e-01  3.227703e-01
     vertex  2.170108e-01  9.906818e-17  3.227703e-01
   endloop
 endfacet
 facet normal -6.509068e-01  1.685669e-16 -7.591577e-01
   outer loop
     vertex  2.902236e-01  7.756263e-17  2.599971e-01
     vertex  2.902236e-01 -2.500000e-01  2.599971e-01
     vertex  2.170108e-01 -2.500000e-01  3.227703e-01
   endloop
 endfacet
 facet normal -8.184614e-01 -0.000000e+00 -5.745615e-01
   outer loop
     vertex  3.456341e-01  7.900291e-17  1.810651e-01
     vertex  3.456341e-01 -2.500000e-01  1.810651e-01
     vertex  2.902236e-01 -2.500000e-01  2.599971e-01
   endloop
 endfacet
 facet normal -8.184614e-01  1.079260e-16 -5.745615e-01
   outer loop
     vertex  3.456341e-01  7.900291e-17  1.810651e-01
     vertex  2.902236e-01 -2.500000e-01  2.599971e-01
     vertex  2.902236e-01  7.756263e-17  2.599971e-01
   endloop
 endfacet
 facet normal -9.351484e-01  1.966517e-17 -3.542563e-01
   outer loop
     vertex  3.797984e-01  8.243321e-17  9.087978e-02
     vertex  3.797984e-01 -2.500000e-01  9.087978e-02
     vertex  3.456341e-01 -2.500000e-01  1.810651e-01
   endloop
 endfacet
 facet normal -9.351484e-01  0.000000e+00 -3.542563e-01
   outer loop
     vertex  3.797984e-01  8.243321e-17  9.087978e-02
     vertex  3.456341e-01 -2.500000e-01  1.810651e-01
     vertex  3.456341e-01  7.900291e-17  1.810651e-01
   endloop
 endfacet
 facet normal -9.937157e-01  6.990276e-18 -1.119339e-01
   outer loop
     vertex  3.905933e-01  8.764033e-17 -4.953724e-03
     vertex  3.905933e-01 -2.500000e-01 -4.953724e-03
     vertex  3.797984e-01 -2.500000e-01  9.087978e-02
   endloop
 endfacet
 facet normal -9.937157e-01  0.000000e+00 -1.119339e-01
   outer loop
     vertex  3.905933e-01  8.764033e-17 -4.953724e-03
     vertex  3.797984e-01 -2.500000e-01  9.087978e-02
     vertex  3.797984e-01  8.243321e-17  9.087978e-02
   endloop
 endfacet
 facet normal -9.905232e-01 -7.624192e-18  1.373452e-01
   outer loop
     vertex  3.773478e-01  9.430064e-17 -1.004794e-01
     vertex  3.773478e-01 -2.500000e-01 -1.004794e-01
     vertex  3.905933e-01 -2.500000e-01 -4.953724e-03
   endloop
 endfacet
 facet normal -9.905232e-01 -8.993837e-18  1.373452e-01
   outer loop
     vertex  3.773478e-01  9.430064e-17 -1.004794e-01
     vertex  3.905933e-01 -2.500000e-01 -4.953724e-03
     vertex  3.905933e-01  8.764033e-17 -4.953724e-03
   endloop
 endfacet
 facet normal -9.257695e-01  0.000000e+00  3.780883e-01
   outer loop
     vertex  3.408851e-01  1.020002e-16 -1.897602e-01
     vertex  3.408851e-01 -2.500000e-01 -1.897602e-01
     vertex  3.773478e-01 -2.500000e-01 -1.004794e-01
   endloop
 endfacet
 facet normal -9.257695e-01 -1.798767e-17  3.780883e-01
   outer loop
     vertex  3.408851e-01  1.020002e-16 -1.897602e-01
     vertex  3.773478e-01 -2.500000e-01 -1.004794e-01
     vertex  3.773478e-01  9.430064e-17 -1.004794e-01
   endloop
 endfacet
 facet normal -8.034790e-01 -1.321905e-16  5.953331e-01
   outer loop
     vertex  2.834714e-01  1.102605e-16 -2.672473e-01
     vertex  2.834714e-01 -2.500000e-01 -2.672473e-01
     vertex  3.408851e-01 -2.500000e-01 -1.897602e-01
   endloop
 endfacet
 facet normal -6.312521e-01 -1.722129e-16  7.755777e-01
   outer loop
     vertex  2.834714e-01  1.102605e-16 -2.672473e-01
     vertex  2.086751e-01 -2.500000e-01 -3.281250e-01
     vertex  2.834714e-01 -2.500000e-01 -2.672473e-01
   endloop
 endfacet
 facet normal -8.034790e-01  0.000000e+00  5.953331e-01
   outer loop
     vertex  2.834714e-01  1.102605e-16 -2.672473e-01
     vertex  3.408851e-01 -2.500000e-01 -1.897602e-01
     vertex  3.408851e-01  1.020002e-16 -1.897602e-01
   endloop
 endfacet
 facet normal -6.312521e-01  0.000000e+00  7.755777e-01
   outer loop
     vertex  2.086751e-01  5.870192e-17 -3.281250e-01
     vertex  2.086751e-01 -2.500000e-01 -3.281250e-01
     vertex  2.834714e-01  1.102605e-16 -2.672473e-01
   endloop
 endfacet
 facet normal  4.533257e-17  1.000000e+00  6.343699e-17
   outer loop
     vertex  7.500000e-01  9.184851e-17 -3.281250e-01
     vertex  3.773478e-01  9.430064e-17 -1.004794e-01
     vertex  3.905933e-01  8.764033e-17 -4.953724e-03
   endloop
 endfacet
 facet normal  4.742942e-17  1.000000e+00  6.686951e-17
   outer loop
     vertex  7.500000e-01  9.184851e-17 -3.281250e-01
     vertex  3.408851e-01  1.020002e-16 -1.897602e-01
     vertex  3.773478e-01  9.430064e-17 -1.004794e-01
   endloop
 endfacet
 facet normal  4.867073e-17  1.000000e+00  7.053979e-17
   outer loop
     vertex  7.500000e-01  9.184851e-17 -3.281250e-01
     vertex  2.834714e-01  1.102605e-16 -2.672473e-01
     vertex  3.408851e-01  1.020002e-16 -1.897602e-01
   endloop
 endfacet
 facet normal -6.123234e-17  1.000000e+00 -7.716889e-16
   outer loop
     vertex  7.500000e-01  9.184851e-17 -3.281250e-01
     vertex  2.086751e-01  5.870192e-17 -3.281250e-01
     vertex  2.834714e-01  1.102605e-16 -2.672473e-01
   endloop
 endfacet
 facet normal -4.373906e-17  1.000000e+00 -3.936046e-16
   outer loop
     vertex  7.500000e-01  1.334220e-16  3.508224e-01
     vertex  2.902236e-01  7.756263e-17  2.599971e-01
     vertex  2.170108e-01  9.906818e-17  3.227703e-01
   endloop
 endfacet
 facet normal -1.098620e-16  1.000000e+00 -5.887625e-17
   outer loop
     vertex  7.500000e-01  1.334220e-16  3.508224e-01
     vertex  3.456341e-01  7.900291e-17  1.810651e-01
     vertex  2.902236e-01  7.756263e-17  2.599971e-01
   endloop
 endfacet
 facet normal -1.298899e-16  1.000000e+00 -1.116929e-17
   outer loop
     vertex  7.500000e-01  1.334220e-16  3.508224e-01
     vertex  3.797984e-01  8.243321e-17  9.087978e-02
     vertex  3.456341e-01  7.900291e-17  1.810651e-01
   endloop
 endfacet
 facet normal -1.629931e-16  1.000000e+00  3.597519e-17
   outer loop
     vertex  7.500000e-01  1.334220e-16  3.508224e-01
     vertex  3.905933e-01  8.764033e-17 -4.953724e-03
     vertex  3.797984e-01  8.243321e-17  9.087978e-02
   endloop
 endfacet
 facet normal -6.676758e-17  1.000000e+00 -6.123234e-17
   outer loop
     vertex  7.500000e-01  1.334220e-16  3.508224e-01
     vertex  7.500000e-01  9.184851e-17 -3.281250e-01
     vertex  3.905933e-01  8.764033e-17 -4.953724e-03
   endloop
 endfacet
 facet normal  1.000000e+00  0.000000e+00  0.000000e+00
   outer loop
     vertex  7.500000e-01  1.334220e-16  3.508224e-01
     vertex  7.500000e-01 -9.921875e-01 -3.281250e-01
     vertex  7.500000e-01  9.184851e-17 -3.281250e-01
   endloop
 endfacet
 facet normal  1.000000e+00  0.000000e+00  0.000000e+00
   outer loop
     vertex  7.500000e-01  1.334220e-16  3.508224e-01
     vertex  7.500000e-01 -9.921875e-01  3.508224e-01
     vertex  7.500000e-01 -9.921875e-01 -3.281250e-01
   endloop
 endfacet
 facet normal -0.000000e+00 -1.000000e+00  0.000000e+00
   outer loop
     vertex -2.086754e-01 -9.921875e-01 -2.360693e-01
     vertex -2.784048e-01 -9.921875e-01 -1.817966e-01
     vertex -7.500000e-01 -9.921875e-01 -3.281250e-01
   endloop
 endfacet
 facet normal  0.000000e+00 -1.000000e+00 -0.000000e+00
   outer loop
     vertex -3.267339e-01 -9.921875e-01 -1.078235e-01
     vertex -7.500000e-01 -9.921875e-01 -3.281250e-01
     vertex -2.784048e-01 -9.921875e-01 -1.817966e-01
   endloop
 endfacet
 facet normal -0.000000e+00 -1.000000e+00  0.000000e+00
   outer loop
     vertex -1.251017e-01 -9.921875e-01 -2.647601e-01
     vertex -2.086754e-01 -9.921875e-01 -2.360693e-01
     vertex -7.500000e-01 -9.921875e-01 -3.281250e-01
   endloop
 endfacet
 facet normal -0.000000e+00 -1.000000e+00  0.000000e+00
   outer loop
     vertex -3.484253e-01 -9.921875e-01 -2.216603e-02
     vertex -7.500000e-01 -9.921875e-01  2.718750e-01
     vertex -7.500000e-01 -9.921875e-01 -3.281250e-01
   endloop
 endfacet
 facet normal  0.000000e+00 -1.000000e+00 -0.000000e+00
   outer loop
     vertex -3.484253e-01 -9.921875e-01 -2.216603e-02
     vertex -7.500000e-01 -9.921875e-01 -3.281250e-01
     vertex -3.267339e-01 -9.921875e-01 -1.078235e-01
   endloop
 endfacet
 facet normal  0.000000e+00 -1.000000e+00  0.000000e+00
   outer loop
     vertex -3.674040e-02 -9.921875e-01 -2.647601e-01
     vertex -1.251017e-01 -9.921875e-01 -2.647601e-01
     vertex -7.500000e-01 -9.921875e-01 -3.281250e-01
   endloop
 endfacet
 facet normal -0.000000e+00 -1.000000e+00  0.000000e+00
   outer loop
     vertex -3.411285e-01 -9.921875e-01  6.589347e-02
     vertex -7.500000e-01 -9.921875e-01  2.718750e-01
     vertex -3.484253e-01 -9.921875e-01 -2.216603e-02
   endloop
 endfacet
 facet normal -0.000000e+00 -1.000000e+00  0.000000e+00
   outer loop
     vertex -3.056342e-01 -9.921875e-01  1.468124e-01
     vertex -7.500000e-01 -9.921875e-01  2.718750e-01
     vertex -3.411285e-01 -9.921875e-01  6.589347e-02
   endloop
 endfacet
 facet normal -0.000000e+00 -1.000000e+00  0.000000e+00
   outer loop
     vertex -2.457887e-01 -9.921875e-01  2.118219e-01
     vertex -7.500000e-01 -9.921875e-01  2.718750e-01
     vertex -3.056342e-01 -9.921875e-01  1.468124e-01
   endloop
 endfacet
 facet normal -0.000000e+00 -1.000000e+00  0.000000e+00
   outer loop
     vertex -1.680772e-01 -9.921875e-01  2.538773e-01
     vertex -7.500000e-01 -9.921875e-01  2.718750e-01
     vertex -2.457887e-01 -9.921875e-01  2.118219e-01
   endloop
 endfacet
 facet normal  0.000000e+00 -1.000000e+00  0.000000e+00
   outer loop
     vertex  7.500000e-01 -9.921875e-01 -3.281250e-01
     vertex  1.865832e-01 -9.921875e-01 -2.216603e-02
     vertex  1.648918e-01 -9.921875e-01 -1.078235e-01
   endloop
 endfacet
 facet normal  0.000000e+00 -1.000000e+00  0.000000e+00
   outer loop
     vertex  7.500000e-01 -9.921875e-01 -3.281250e-01
     vertex  1.648918e-01 -9.921875e-01 -1.078235e-01
     vertex  1.165627e-01 -9.921875e-01 -1.817966e-01
   endloop
 endfacet
 facet normal  0.000000e+00 -1.000000e+00  0.000000e+00
   outer loop
     vertex  7.500000e-01 -9.921875e-01 -3.281250e-01
     vertex  1.165627e-01 -9.921875e-01 -1.817966e-01
     vertex  4.683325e-02 -9.921875e-01 -2.360693e-01
   endloop
 endfacet
 facet normal  0.000000e+00 -1.000000e+00  0.000000e+00
   outer loop
     vertex  7.500000e-01 -9.921875e-01 -3.281250e-01
     vertex  4.683325e-02 -9.921875e-01 -2.360693e-01
     vertex -3.674040e-02 -9.921875e-01 -2.647601e-01
   endloop
 endfacet
 facet normal  0.000000e+00 -1.000000e+00  0.000000e+00
   outer loop
     vertex  7.500000e-01 -9.921875e-01 -3.281250e-01
     vertex -3.674040e-02 -9.921875e-01 -2.647601e-01
     vertex -7.500000e-01 -9.921875e-01 -3.281250e-01
   endloop
 endfacet
 facet normal  0.000000e+00 -1.000000e+00  0.000000e+00
   outer loop
     vertex  7.500000e-01 -9.921875e-01  3.508224e-01
     vertex  6.235121e-03 -9.921875e-01  2.538773e-01
     vertex  8.394657e-02 -9.921875e-01  2.118219e-01
   endloop
 endfacet
 facet normal  0.000000e+00 -1.000000e+00  0.000000e+00
   outer loop
     vertex  7.500000e-01 -9.921875e-01  3.508224e-01
     vertex  8.394657e-02 -9.921875e-01  2.118219e-01
     vertex  1.437921e-01 -9.921875e-01  1.468124e-01
   endloop
 endfacet
 facet normal  0.000000e+00 -1.000000e+00  0.000000e+00
   outer loop
     vertex  7.500000e-01 -9.921875e-01  3.508224e-01
     vertex  1.437921e-01 -9.921875e-01  1.468124e-01
     vertex  1.792864e-01 -9.921875e-01  6.589347e-02
   endloop
 endfacet
 facet normal  0.000000e+00 -1.000000e+00  0.000000e+00
   outer loop
     vertex  7.500000e-01 -9.921875e-01  3.508224e-01
     vertex  1.792864e-01 -9.921875e-01  6.589347e-02
     vertex  1.865832e-01 -9.921875e-01 -2.216603e-02
   endloop
 endfacet
 facet normal  0.000000e+00 -1.000000e+00 -0.000000e+00
   outer loop
     vertex  7.500000e-01 -9.921875e-01  3.508224e-01
     vertex  1.865832e-01 -9.921875e-01 -2.216603e-02
     vertex  7.500000e-01 -9.921875e-01 -3.281250e-01
   endloop
 endfacet
 facet normal  0.000000e+00 -1.000000e+00  0.000000e+00
   outer loop
     vertex  7.500000e-01 -9.921875e-01  3.508224e-01
     vertex -7.500000e-01 -9.921875e-01  2.718750e-01
     vertex -8.092105e-02 -9.921875e-01  2.684211e-01
   endloop
 endfacet
 facet normal -0.000000e+00 -1.000000e+00  0.000000e+00
   outer loop
     vertex -8.092105e-02 -9.921875e-01  2.684211e-01
     vertex -7.500000e-01 -9.921875e-01  2.718750e-01
     vertex -1.680772e-01 -9.921875e-01  2.538773e-01
   endloop
 endfacet
 facet normal  0.000000e+00 -1.000000e+00  0.000000e+00
   outer loop
     vertex  7.500000e-01 -9.921875e-01  3.508224e-01
     vertex -8.092105e-02 -9.921875e-01  2.684211e-01
     vertex  6.235121e-03 -9.921875e-01  2.538773e-01
   endloop
 endfacet
 facet normal -1.000000e+00  0.000000e+00  0.000000e+00
   outer loop
     vertex -7.500000e-01  0.000000e+00 -3.281250e-01
     vertex -7.500000e-01 -9.921875e-01  2.718750e-01
     vertex -7.500000e-01  3.673940e-17  2.718750e-01
   endloop
 endfacet
 facet normal -1.000000e+00  0.000000e+00  0.000000e+00
   outer loop
     vertex -7.500000e-01  0.000000e+00 -3.281250e-01
     vertex -7.500000e-01 -9.921875e-01 -3.281250e-01
     vertex -7.500000e-01 -9.921875e-01  2.718750e-01
   endloop
 endfacet
 facet normal -5.255883e-02  0.000000e+00  9.986178e-01
   outer loop
     vertex  2.170108e-01 -2.500000e-01  3.227703e-01
     vertex  7.500000e-01 -9.921875e-01  3.508224e-01
     vertex  7.500000e-01  1.334220e-16  3.508224e-01
   endloop
 endfacet
 facet normal -5.255883e-02 -1.872991e-13  9.986178e-01
   outer loop
     vertex -7.500000e-01 -9.921875e-01  2.718750e-01
     vertex  7.500000e-01 -9.921875e-01  3.508224e-01
     vertex  2.170108e-01 -2.500000e-01  3.227703e-01
   endloop
 endfacet
 facet normal -5.255883e-02  0.000000e+00  9.986178e-01
   outer loop
     vertex  2.170108e-01  9.906818e-17  3.227703e-01
     vertex  2.170108e-01 -2.500000e-01  3.227703e-01
     vertex  7.500000e-01  1.334220e-16  3.508224e-01
   endloop
 endfacet
 facet normal -5.255883e-02  1.200673e-12  9.986178e-01
   outer loop
     vertex -2.421489e-01 -2.500000e-01  2.986040e-01
     vertex -7.500000e-01 -9.921875e-01  2.718750e-01
     vertex  2.170108e-01 -2.500000e-01  3.227703e-01
   endloop
 endfacet
 facet normal -5.255883e-02  0.000000e+00  9.986178e-01
   outer loop
     vertex -7.500000e-01  3.673940e-17  2.718750e-01
     vertex -2.421489e-01 -2.500000e-01  2.986040e-01
     vertex -2.421489e-01  6.947299e-17  2.986040e-01
   endloop
 endfacet
 facet normal -5.255883e-02  0.000000e+00  9.986178e-01
   outer loop
     vertex -7.500000e-01  3.673940e-17  2.718750e-01
     vertex -7.500000e-01 -9.921875e-01  2.718750e-01
     vertex -2.421489e-01 -2.500000e-01  2.986040e-01
   endloop
 endfacet
 facet normal -1.645946e-01 -0.000000e+00 -9.863613e-01
   outer loop
     vertex -8.092105e-02 -2.500000e-01  2.684211e-01
     vertex  6.235121e-03 -9.921875e-01  2.538773e-01
     vertex -8.092105e-02 -9.921875e-01  2.684211e-01
   endloop
 endfacet
 facet normal -1.645946e-01 -0.000000e+00 -9.863613e-01
   outer loop
     vertex  6.235121e-03 -2.500000e-01  2.538773e-01
     vertex  6.235121e-03 -9.921875e-01  2.538773e-01
     vertex -8.092105e-02 -2.500000e-01  2.684211e-01
   endloop
 endfacet
 facet normal -4.759474e-01  6.577934e-17 -8.794738e-01
   outer loop
     vertex  8.394657e-02 -2.500000e-01  2.118219e-01
     vertex  8.394657e-02 -9.921875e-01  2.118219e-01
     vertex  6.235121e-03 -9.921875e-01  2.538773e-01
   endloop
 endfacet
 facet normal -4.759474e-01  0.000000e+00 -8.794738e-01
   outer loop
     vertex  8.394657e-02 -2.500000e-01  2.118219e-01
     vertex  6.235121e-03 -9.921875e-01  2.538773e-01
     vertex  6.235121e-03 -2.500000e-01  2.538773e-01
   endloop
 endfacet
 facet normal -7.357239e-01  5.065658e-17 -6.772816e-01
   outer loop
     vertex  1.437921e-01 -2.500000e-01  1.468124e-01
     vertex  1.437921e-01 -9.921875e-01  1.468124e-01
     vertex  8.394657e-02 -9.921875e-01  2.118219e-01
   endloop
 endfacet
 facet normal -7.357239e-01  5.290351e-17 -6.772816e-01
   outer loop
     vertex  1.437921e-01 -2.500000e-01  1.468124e-01
     vertex  8.394657e-02 -9.921875e-01  2.118219e-01
     vertex  8.394657e-02 -2.500000e-01  2.118219e-01
   endloop
 endfacet
 facet normal -9.157733e-01  3.004440e-17 -4.016954e-01
   outer loop
     vertex  1.792864e-01 -2.500000e-01  6.589347e-02
     vertex  1.792864e-01 -9.921875e-01  6.589347e-02
     vertex  1.437921e-01 -9.921875e-01  1.468124e-01
   endloop
 endfacet
 facet normal -9.157733e-01  3.306469e-17 -4.016954e-01
   outer loop
     vertex  1.792864e-01 -2.500000e-01  6.589347e-02
     vertex  1.437921e-01 -9.921875e-01  1.468124e-01
     vertex  1.437921e-01 -2.500000e-01  1.468124e-01
   endloop
 endfacet
 facet normal -9.965845e-01  5.018355e-18 -8.257935e-02
   outer loop
     vertex  1.865832e-01 -2.500000e-01 -2.216603e-02
     vertex  1.865832e-01 -9.921875e-01 -2.216603e-02
     vertex  1.792864e-01 -9.921875e-01  6.589347e-02
   endloop
 endfacet
 facet normal -9.965845e-01  4.959704e-18 -8.257935e-02
   outer loop
     vertex  1.865832e-01 -2.500000e-01 -2.216603e-02
     vertex  1.792864e-01 -9.921875e-01  6.589347e-02
     vertex  1.792864e-01 -2.500000e-01  6.589347e-02
   endloop
 endfacet
 facet normal -9.694003e-01 -1.836083e-17  2.454855e-01
   outer loop
     vertex  1.648918e-01 -2.500000e-01 -1.078235e-01
     vertex  1.648918e-01 -9.921875e-01 -1.078235e-01
     vertex  1.865832e-01 -9.921875e-01 -2.216603e-02
   endloop
 endfacet
 facet normal -9.694003e-01 -1.322588e-17  2.454855e-01
   outer loop
     vertex  1.648918e-01 -2.500000e-01 -1.078235e-01
     vertex  1.865832e-01 -9.921875e-01 -2.216603e-02
     vertex  1.865832e-01 -2.500000e-01 -2.216603e-02
   endloop
 endfacet
 facet normal -8.371665e-01 -4.090843e-17  5.469482e-01
   outer loop
     vertex  1.165627e-01 -2.500000e-01 -1.817966e-01
     vertex  1.165627e-01 -9.921875e-01 -1.817966e-01
     vertex  1.648918e-01 -9.921875e-01 -1.078235e-01
   endloop
 endfacet
 facet normal -8.371665e-01 -3.967763e-17  5.469482e-01
   outer loop
     vertex  1.165627e-01 -2.500000e-01 -1.817966e-01
     vertex  1.648918e-01 -9.921875e-01 -1.078235e-01
     vertex  1.648918e-01 -2.500000e-01 -1.078235e-01
   endloop
 endfacet
 facet normal -6.142127e-01 -5.902295e-17  7.891405e-01
   outer loop
     vertex  4.683325e-02 -2.500000e-01 -2.360693e-01
     vertex  4.683325e-02 -9.921875e-01 -2.360693e-01
     vertex  1.165627e-01 -9.921875e-01 -1.817966e-01
   endloop
 endfacet
 facet normal -6.142127e-01 -5.951645e-17  7.891405e-01
   outer loop
     vertex  4.683325e-02 -2.500000e-01 -2.360693e-01
     vertex  1.165627e-01 -9.921875e-01 -1.817966e-01
     vertex  1.165627e-01 -2.500000e-01 -1.817966e-01
   endloop
 endfacet
 facet normal -3.246995e-01  0.000000e+00  9.458172e-01
   outer loop
     vertex -3.674040e-02 -2.500000e-01 -2.647601e-01
     vertex -3.674040e-02 -9.921875e-01 -2.647601e-01
     vertex  4.683325e-02 -9.921875e-01 -2.360693e-01
   endloop
 endfacet
 facet normal -3.246995e-01 -7.274233e-17  9.458172e-01
   outer loop
     vertex -3.674040e-02 -2.500000e-01 -2.647601e-01
     vertex  4.683325e-02 -9.921875e-01 -2.360693e-01
     vertex  4.683325e-02 -2.500000e-01 -2.360693e-01
   endloop
 endfacet
 facet normal -6.282292e-16  0.000000e+00  1.000000e+00
   outer loop
     vertex -1.251017e-01 -2.500000e-01 -2.647601e-01
     vertex -1.251017e-01 -9.921875e-01 -2.647601e-01
     vertex -3.674040e-02 -9.921875e-01 -2.647601e-01
   endloop
 endfacet
 facet normal -6.282292e-16  0.000000e+00  1.000000e+00
   outer loop
     vertex -1.251017e-01 -2.500000e-01 -2.647601e-01
     vertex -3.674040e-02 -9.921875e-01 -2.647601e-01
     vertex -3.674040e-02 -2.500000e-01 -2.647601e-01
   endloop
 endfacet
 facet normal  3.246995e-01 -7.074143e-17  9.458172e-01
   outer loop
     vertex -2.086754e-01 -2.500000e-01 -2.360693e-01
     vertex -2.086754e-01 -9.921875e-01 -2.360693e-01
     vertex -1.251017e-01 -9.921875e-01 -2.647601e-01
   endloop
 endfacet
 facet normal  6.142127e-01 -5.902295e-17  7.891405e-01
   outer loop
     vertex -2.086754e-01 -2.500000e-01 -2.360693e-01
     vertex -2.784048e-01 -9.921875e-01 -1.817966e-01
     vertex -2.086754e-01 -9.921875e-01 -2.360693e-01
   endloop
 endfacet
 facet normal  3.246995e-01  0.000000e+00  9.458172e-01
   outer loop
     vertex -2.086754e-01 -2.500000e-01 -2.360693e-01
     vertex -1.251017e-01 -9.921875e-01 -2.647601e-01
     vertex -1.251017e-01 -2.500000e-01 -2.647601e-01
   endloop
 endfacet
 facet normal  6.142127e-01 -5.902295e-17  7.891405e-01
   outer loop
     vertex -2.784048e-01 -2.500000e-01 -1.817966e-01
     vertex -2.784048e-01 -9.921875e-01 -1.817966e-01
     vertex -2.086754e-01 -2.500000e-01 -2.360693e-01
   endloop
 endfacet
 facet normal  8.371665e-01 -4.090843e-17  5.469482e-01
   outer loop
     vertex -3.267339e-01 -2.500000e-01 -1.078235e-01
     vertex -3.267339e-01 -9.921875e-01 -1.078235e-01
     vertex -2.784048e-01 -9.921875e-01 -1.817966e-01
   endloop
 endfacet
 facet normal  9.694003e-01 -1.836083e-17  2.454855e-01
   outer loop
     vertex -3.267339e-01 -2.500000e-01 -1.078235e-01
     vertex -3.484253e-01 -9.921875e-01 -2.216603e-02
     vertex -3.267339e-01 -9.921875e-01 -1.078235e-01
   endloop
 endfacet
 facet normal  8.371665e-01 -3.967763e-17  5.469482e-01
   outer loop
     vertex -3.267339e-01 -2.500000e-01 -1.078235e-01
     vertex -2.784048e-01 -9.921875e-01 -1.817966e-01
     vertex -2.784048e-01 -2.500000e-01 -1.817966e-01
   endloop
 endfacet
 facet normal  9.694003e-01 -1.491818e-17  2.454855e-01
   outer loop
     vertex -3.484253e-01 -2.500000e-01 -2.216603e-02
     vertex -3.484253e-01 -9.921875e-01 -2.216603e-02
     vertex -3.267339e-01 -2.500000e-01 -1.078235e-01
   endloop
 endfacet
 facet normal  9.965845e-01  6.612939e-18 -8.257935e-02
   outer loop
     vertex -3.411285e-01 -2.500000e-01  6.589347e-02
     vertex -3.484253e-01 -9.921875e-01 -2.216603e-02
     vertex -3.484253e-01 -2.500000e-01 -2.216603e-02
   endloop
 endfacet
 facet normal  9.965845e-01  6.176437e-18 -8.257935e-02
   outer loop
     vertex -3.411285e-01 -2.500000e-01  6.589347e-02
     vertex -3.411285e-01 -9.921875e-01  6.589347e-02
     vertex -3.484253e-01 -9.921875e-01 -2.216603e-02
   endloop
 endfacet
 facet normal  9.157733e-01  3.004440e-17 -4.016954e-01
   outer loop
     vertex -3.411285e-01 -2.500000e-01  6.589347e-02
     vertex -3.056342e-01 -9.921875e-01  1.468124e-01
     vertex -3.411285e-01 -9.921875e-01  6.589347e-02
   endloop
 endfacet
 facet normal  9.157733e-01  3.004440e-17 -4.016954e-01
   outer loop
     vertex -3.056342e-01 -2.500000e-01  1.468124e-01
     vertex -3.056342e-01 -9.921875e-01  1.468124e-01
     vertex -3.411285e-01 -2.500000e-01  6.589347e-02
   endloop
 endfacet
 facet normal  7.357239e-01  5.290351e-17 -6.772816e-01
   outer loop
     vertex -2.457887e-01 -2.500000e-01  2.118219e-01
     vertex -3.056342e-01 -9.921875e-01  1.468124e-01
     vertex -3.056342e-01 -2.500000e-01  1.468124e-01
   endloop
 endfacet
 facet normal  7.357239e-01  5.065658e-17 -6.772816e-01
   outer loop
     vertex -2.457887e-01 -2.500000e-01  2.118219e-01
     vertex -2.457887e-01 -9.921875e-01  2.118219e-01
     vertex -3.056342e-01 -9.921875e-01  1.468124e-01
   endloop
 endfacet
 facet normal  4.759474e-01  6.612939e-17 -8.794738e-01
   outer loop
     vertex -1.680772e-01 -2.500000e-01  2.538773e-01
     vertex -2.457887e-01 -9.921875e-01  2.118219e-01
     vertex -2.457887e-01 -2.500000e-01  2.118219e-01
   endloop
 endfacet
 facet normal  4.759474e-01  0.000000e+00 -8.794738e-01
   outer loop
     vertex -1.680772e-01 -2.500000e-01  2.538773e-01
     vertex -1.680772e-01 -9.921875e-01  2.538773e-01
     vertex -2.457887e-01 -9.921875e-01  2.118219e-01
   endloop
 endfacet
 facet normal  1.645946e-01  0.000000e+00 -9.863613e-01
   outer loop
     vertex -8.092105e-02 -2.500000e-01  2.684211e-01
     vertex -1.680772e-01 -9.921875e-01  2.538773e-01
     vertex -1.680772e-01 -2.500000e-01  2.538773e-01
   endloop
 endfacet
 facet normal  1.645946e-01  0.000000e+00 -9.863613e-01
   outer loop
     vertex -8.092105e-02 -2.500000e-01  2.684211e-01
     vertex -8.092105e-02 -9.921875e-01  2.684211e-01
     vertex -1.680772e-01 -9.921875e-01  2.538773e-01
   endloop
 endfacet
endsolid
