solid 
 facet normal -7.071068e-01 -8.804512e-17 -7.071068e-01
   outer loop
     vertex -3.906250e-02 -4.121490e-32  4.834132e-18
     vertex  4.111842e-04  0.000000e+00 -3.947368e-02
     vertex  4.111842e-04 -7.500000e-01 -3.947368e-02
   endloop
 endfacet
 facet normal -7.071068e-01 -1.348865e-16 -7.071068e-01
   outer loop
     vertex -3.906250e-02 -4.121490e-32  4.834132e-18
     vertex  4.111842e-04 -7.500000e-01 -3.947368e-02
     vertex -3.906250e-02 -7.500000e-01  5.075839e-17
   endloop
 endfacet
 facet normal -7.071068e-01 -5.504523e-17  7.071068e-01
   outer loop
     vertex  4.111842e-04  4.834132e-18  3.947368e-02
     vertex -3.906250e-02 -7.500000e-01  5.075839e-17
     vertex  4.111842e-04 -7.500000e-01  3.947368e-02
   endloop
 endfacet
 facet normal -7.071068e-01 -5.179124e-17  7.071068e-01
   outer loop
     vertex  4.111842e-04  4.834132e-18  3.947368e-02
     vertex -3.906250e-02 -4.121490e-32  4.834132e-18
     vertex -3.906250e-02 -7.500000e-01  5.075839e-17
   endloop
 endfacet
 facet normal  7.071068e-01  1.348865e-16  7.071068e-01
   outer loop
     vertex  3.988487e-02  4.834132e-18 -4.834132e-18
     vertex  4.111842e-04 -7.500000e-01  3.947368e-02
     vertex  3.988487e-02 -7.500000e-01  4.109012e-17
   endloop
 endfacet
 facet normal  7.071068e-01  1.294781e-16  7.071068e-01
   outer loop
     vertex  3.988487e-02  4.834132e-18 -4.834132e-18
     vertex  4.111842e-04  4.834132e-18  3.947368e-02
     vertex  4.111842e-04 -7.500000e-01  3.947368e-02
   endloop
 endfacet
 facet normal  7.071068e-01  9.429755e-17 -7.071068e-01
   outer loop
     vertex  4.111842e-04  0.000000e+00 -3.947368e-02
     vertex  3.988487e-02 -7.500000e-01  4.109012e-17
     vertex  4.111842e-04 -7.500000e-01 -3.947368e-02
   endloop
 endfacet
 facet normal  7.071068e-01  4.661212e-17 -7.071068e-01
   outer loop
     vertex  4.111842e-04  0.000000e+00 -3.947368e-02
     vertex  3.988487e-02  4.834132e-18 -4.834132e-18
     vertex  3.988487e-02 -7.500000e-01  4.109012e-17
   endloop
 endfacet
 facet normal  7.071068e-01  0.000000e+00 -7.071068e-01
   outer loop
     vertex  3.988487e-02  4.834132e-18 -4.834132e-18
     vertex  4.111842e-04  0.000000e+00 -3.947368e-02
     vertex  4.111842e-04  7.500000e-01 -3.947368e-02
   endloop
 endfacet
 facet normal  7.071068e-01 -4.329780e-17 -7.071068e-01
   outer loop
     vertex  3.988487e-02  4.834132e-18 -4.834132e-18
     vertex  4.111842e-04  7.500000e-01 -3.947368e-02
     vertex  3.988487e-02  7.500000e-01 -5.075839e-17
   endloop
 endfacet
 facet normal  7.071068e-01  4.579436e-17  7.071068e-01
   outer loop
     vertex  4.111842e-04  4.834132e-18  3.947368e-02
     vertex  3.988487e-02  7.500000e-01 -5.075839e-17
     vertex  4.111842e-04  7.500000e-01  3.947368e-02
   endloop
 endfacet
 facet normal  7.071068e-01  4.143300e-17  7.071068e-01
   outer loop
     vertex  4.111842e-04  4.834132e-18  3.947368e-02
     vertex  3.988487e-02  4.834132e-18 -4.834132e-18
     vertex  3.988487e-02  7.500000e-01 -5.075839e-17
   endloop
 endfacet
 facet normal -7.071068e-01  4.329780e-17  7.071068e-01
   outer loop
     vertex -3.906250e-02 -4.121490e-32  4.834132e-18
     vertex  4.111842e-04  7.500000e-01  3.947368e-02
     vertex -3.906250e-02  7.500000e-01 -4.109012e-17
   endloop
 endfacet
 facet normal -7.071068e-01  4.661212e-17  7.071068e-01
   outer loop
     vertex -3.906250e-02 -4.121490e-32  4.834132e-18
     vertex  4.111842e-04  4.834132e-18  3.947368e-02
     vertex  4.111842e-04  7.500000e-01  3.947368e-02
   endloop
 endfacet
 facet normal -7.071068e-01  0.000000e+00 -7.071068e-01
   outer loop
     vertex  4.111842e-04  0.000000e+00 -3.947368e-02
     vertex -3.906250e-02  7.500000e-01 -4.109012e-17
     vertex  4.111842e-04  7.500000e-01 -3.947368e-02
   endloop
 endfacet
 facet normal -7.071068e-01 -4.661212e-17 -7.071068e-01
   outer loop
     vertex  4.111842e-04  0.000000e+00 -3.947368e-02
     vertex -3.906250e-02 -4.121490e-32  4.834132e-18
     vertex -3.906250e-02  7.500000e-01 -4.109012e-17
   endloop
 endfacet
 facet normal -0.000000e+00 -1.000000e+00 -0.000000e+00
   outer loop
     vertex -3.083882e-02 -7.500000e-01  4.924772e-17
     vertex -3.906250e-02 -7.500000e-01  5.075839e-17
     vertex  4.111842e-04 -7.500000e-01 -3.947368e-02
   endloop
 endfacet
 facet normal  0.000000e+00 -1.000000e+00  0.000000e+00
   outer loop
     vertex -3.083882e-02 -7.500000e-01  4.924772e-17
     vertex  4.111842e-04 -7.500000e-01 -3.947368e-02
     vertex  4.111842e-04 -7.500000e-01 -3.125000e-02
   endloop
 endfacet
 facet normal -0.000000e+00 -1.000000e+00  0.000000e+00
   outer loop
     vertex  3.988487e-02 -7.500000e-01  4.109012e-17
     vertex  3.166118e-02 -7.500000e-01  4.159368e-17
     vertex  4.111842e-04 -7.500000e-01 -3.125000e-02
   endloop
 endfacet
 facet normal  0.000000e+00 -1.000000e+00  0.000000e+00
   outer loop
     vertex  3.988487e-02 -7.500000e-01  4.109012e-17
     vertex  4.111842e-04 -7.500000e-01 -3.125000e-02
     vertex  4.111842e-04 -7.500000e-01 -3.947368e-02
   endloop
 endfacet
 facet normal  0.000000e+00 -1.000000e+00 -0.000000e+00
   outer loop
     vertex  4.111842e-04 -7.500000e-01  3.947368e-02
     vertex  4.111842e-04 -7.500000e-01  3.125000e-02
     vertex  3.166118e-02 -7.500000e-01  4.159368e-17
   endloop
 endfacet
 facet normal  0.000000e+00 -1.000000e+00  0.000000e+00
   outer loop
     vertex  4.111842e-04 -7.500000e-01  3.947368e-02
     vertex -3.083882e-02 -7.500000e-01  4.924772e-17
     vertex  4.111842e-04 -7.500000e-01  3.125000e-02
   endloop
 endfacet
 facet normal  0.000000e+00 -1.000000e+00  0.000000e+00
   outer loop
     vertex  4.111842e-04 -7.500000e-01  3.947368e-02
     vertex -3.906250e-02 -7.500000e-01  5.075839e-17
     vertex -3.083882e-02 -7.500000e-01  4.924772e-17
   endloop
 endfacet
 facet normal  0.000000e+00 -1.000000e+00  0.000000e+00
   outer loop
     vertex  4.111842e-04 -7.500000e-01  3.947368e-02
     vertex  3.166118e-02 -7.500000e-01  4.159368e-17
     vertex  3.988487e-02 -7.500000e-01  4.109012e-17
   endloop
 endfacet
 facet normal  0.000000e+00  1.000000e+00  0.000000e+00
   outer loop
     vertex -3.083882e-02  7.500000e-01 -4.260079e-17
     vertex  4.111842e-04  7.500000e-01 -3.947368e-02
     vertex -3.906250e-02  7.500000e-01 -4.109012e-17
   endloop
 endfacet
 facet normal  0.000000e+00  1.000000e+00  0.000000e+00
   outer loop
     vertex -3.083882e-02  7.500000e-01 -4.260079e-17
     vertex  4.111842e-04  7.500000e-01 -3.125000e-02
     vertex  4.111842e-04  7.500000e-01 -3.947368e-02
   endloop
 endfacet
 facet normal  0.000000e+00  1.000000e+00  0.000000e+00
   outer loop
     vertex  3.988487e-02  7.500000e-01 -5.075839e-17
     vertex  4.111842e-04  7.500000e-01 -3.125000e-02
     vertex  3.166118e-02  7.500000e-01 -5.025483e-17
   endloop
 endfacet
 facet normal  0.000000e+00  1.000000e+00  0.000000e+00
   outer loop
     vertex  3.988487e-02  7.500000e-01 -5.075839e-17
     vertex  4.111842e-04  7.500000e-01 -3.947368e-02
     vertex  4.111842e-04  7.500000e-01 -3.125000e-02
   endloop
 endfacet
 facet normal  0.000000e+00  1.000000e+00  0.000000e+00
   outer loop
     vertex  4.111842e-04  7.500000e-01  3.947368e-02
     vertex  3.166118e-02  7.500000e-01 -5.025483e-17
     vertex  4.111842e-04  7.500000e-01  3.125000e-02
   endloop
 endfacet
 facet normal  0.000000e+00  1.000000e+00  0.000000e+00
   outer loop
     vertex  4.111842e-04  7.500000e-01  3.947368e-02
     vertex  4.111842e-04  7.500000e-01  3.125000e-02
     vertex -3.083882e-02  7.500000e-01 -4.260079e-17
   endloop
 endfacet
 facet normal  0.000000e+00  1.000000e+00  0.000000e+00
   outer loop
     vertex  4.111842e-04  7.500000e-01  3.947368e-02
     vertex -3.083882e-02  7.500000e-01 -4.260079e-17
     vertex -3.906250e-02  7.500000e-01 -4.109012e-17
   endloop
 endfacet
 facet normal  0.000000e+00  1.000000e+00  0.000000e+00
   outer loop
     vertex  4.111842e-04  7.500000e-01  3.947368e-02
     vertex  3.988487e-02  7.500000e-01 -5.075839e-17
     vertex  3.166118e-02  7.500000e-01 -5.025483e-17
   endloop
 endfacet
 facet normal  7.071068e-01  9.158873e-17  7.071068e-01
   outer loop
     vertex -3.083882e-02  5.035554e-19  3.323466e-18
     vertex  4.111842e-04 -7.500000e-01 -3.125000e-02
     vertex  4.111842e-04  5.035554e-19 -3.125000e-02
   endloop
 endfacet
 facet normal  7.071068e-01  1.381576e-16  7.071068e-01
   outer loop
     vertex -3.083882e-02  5.035554e-19  3.323466e-18
     vertex -3.083882e-02 -7.500000e-01  4.924772e-17
     vertex  4.111842e-04 -7.500000e-01 -3.125000e-02
   endloop
 endfacet
 facet normal  7.071068e-01  5.177421e-17 -7.071068e-01
   outer loop
     vertex  4.111842e-04  4.330577e-18  3.125000e-02
     vertex  4.111842e-04 -7.500000e-01  3.125000e-02
     vertex -3.083882e-02 -7.500000e-01  4.924772e-17
   endloop
 endfacet
 facet normal  7.071068e-01  5.560744e-17 -7.071068e-01
   outer loop
     vertex  4.111842e-04  4.330577e-18  3.125000e-02
     vertex -3.083882e-02 -7.500000e-01  4.924772e-17
     vertex -3.083882e-02  5.035554e-19  3.323466e-18
   endloop
 endfacet
 facet normal -7.071068e-01 -1.348865e-16 -7.071068e-01
   outer loop
     vertex  3.166118e-02  4.330577e-18 -4.330577e-18
     vertex  3.166118e-02 -7.500000e-01  4.159368e-17
     vertex  4.111842e-04 -7.500000e-01  3.125000e-02
   endloop
 endfacet
 facet normal -7.071068e-01 -1.373831e-16 -7.071068e-01
   outer loop
     vertex  3.166118e-02  4.330577e-18 -4.330577e-18
     vertex  4.111842e-04 -7.500000e-01  3.125000e-02
     vertex  4.111842e-04  4.330577e-18  3.125000e-02
   endloop
 endfacet
 facet normal -7.071068e-01 -9.429755e-17  7.071068e-01
   outer loop
     vertex  4.111842e-04  5.035554e-19 -3.125000e-02
     vertex  4.111842e-04 -7.500000e-01 -3.125000e-02
     vertex  3.166118e-02 -7.500000e-01  4.159368e-17
   endloop
 endfacet
 facet normal -7.071068e-01 -4.579436e-17  7.071068e-01
   outer loop
     vertex  4.111842e-04  5.035554e-19 -3.125000e-02
     vertex  3.166118e-02 -7.500000e-01  4.159368e-17
     vertex  3.166118e-02  4.330577e-18 -4.330577e-18
   endloop
 endfacet
 facet normal -7.071068e-01  0.000000e+00  7.071068e-01
   outer loop
     vertex  3.166118e-02  4.330577e-18 -4.330577e-18
     vertex  4.111842e-04  7.500000e-01 -3.125000e-02
     vertex  4.111842e-04  5.035554e-19 -3.125000e-02
   endloop
 endfacet
 facet normal -7.071068e-01  4.329780e-17  7.071068e-01
   outer loop
     vertex  3.166118e-02  4.330577e-18 -4.330577e-18
     vertex  3.166118e-02  7.500000e-01 -5.025483e-17
     vertex  4.111842e-04  7.500000e-01 -3.125000e-02
   endloop
 endfacet
 facet normal -7.071068e-01 -4.252334e-17 -7.071068e-01
   outer loop
     vertex  4.111842e-04  4.330577e-18  3.125000e-02
     vertex  4.111842e-04  7.500000e-01  3.125000e-02
     vertex  3.166118e-02  7.500000e-01 -5.025483e-17
   endloop
 endfacet
 facet normal -7.071068e-01 -4.252334e-17 -7.071068e-01
   outer loop
     vertex  4.111842e-04  4.330577e-18  3.125000e-02
     vertex  3.166118e-02  7.500000e-01 -5.025483e-17
     vertex  3.166118e-02  4.330577e-18 -4.330577e-18
   endloop
 endfacet
 facet normal  7.071068e-01 -4.329780e-17 -7.071068e-01
   outer loop
     vertex -3.083882e-02  5.035554e-19  3.323466e-18
     vertex -3.083882e-02  7.500000e-01 -4.260079e-17
     vertex  4.111842e-04  7.500000e-01  3.125000e-02
   endloop
 endfacet
 facet normal  7.071068e-01 -4.252334e-17 -7.071068e-01
   outer loop
     vertex -3.083882e-02  5.035554e-19  3.323466e-18
     vertex  4.111842e-04  7.500000e-01  3.125000e-02
     vertex  4.111842e-04  4.330577e-18  3.125000e-02
   endloop
 endfacet
 facet normal  7.071068e-01 -0.000000e+00  7.071068e-01
   outer loop
     vertex  4.111842e-04  5.035554e-19 -3.125000e-02
     vertex  4.111842e-04  7.500000e-01 -3.125000e-02
     vertex -3.083882e-02  7.500000e-01 -4.260079e-17
   endloop
 endfacet
 facet normal  7.071068e-01  3.925231e-17  7.071068e-01
   outer loop
     vertex  4.111842e-04  5.035554e-19 -3.125000e-02
     vertex -3.083882e-02  7.500000e-01 -4.260079e-17
     vertex -3.083882e-02  5.035554e-19  3.323466e-18
   endloop
 endfacet
endsolid
