solid 
 facet normal -2.079117e-01  0.000000e+00 -9.781476e-01
   outer loop
     vertex -8.134989e-02 -4.025544e-18 -1.875172e-01
     vertex  2.138158e-03  0.000000e+00 -2.052632e-01
     vertex  2.138158e-03 -7.500000e-01 -2.052632e-01
   endloop
 endfacet
 facet normal -2.079117e-01 -3.619873e-17 -9.781476e-01
   outer loop
     vertex -8.134989e-02 -4.025544e-18 -1.875172e-01
     vertex  2.138158e-03 -7.500000e-01 -2.052632e-01
     vertex -8.134989e-02 -7.500000e-01 -1.875172e-01
   endloop
 endfacet
 facet normal -5.877853e-01 -2.993964e-17 -8.090170e-01
   outer loop
     vertex -1.504021e-01 -5.181784e-18 -1.373479e-01
     vertex -8.134989e-02 -7.500000e-01 -1.875172e-01
     vertex -1.504021e-01 -7.500000e-01 -1.373479e-01
   endloop
 endfacet
 facet normal -5.877853e-01 -2.709874e-17 -8.090170e-01
   outer loop
     vertex -1.504021e-01 -5.181784e-18 -1.373479e-01
     vertex -8.134989e-02 -4.025544e-18 -1.875172e-01
     vertex -8.134989e-02 -7.500000e-01 -1.875172e-01
   endloop
 endfacet
 facet normal -8.660254e-01 -2.775558e-17 -5.000000e-01
   outer loop
     vertex -1.930787e-01 -3.268797e-18 -6.342980e-02
     vertex -1.504021e-01 -7.500000e-01 -1.373479e-01
     vertex -1.930787e-01 -7.500000e-01 -6.342980e-02
   endloop
 endfacet
 facet normal -8.660254e-01 -2.032405e-17 -5.000000e-01
   outer loop
     vertex -1.930787e-01 -3.268797e-18 -6.342980e-02
     vertex -1.504021e-01 -5.181784e-18 -1.373479e-01
     vertex -1.504021e-01 -7.500000e-01 -1.373479e-01
   endloop
 endfacet
 facet normal -9.945219e-01 -6.769578e-18 -1.045285e-01
   outer loop
     vertex -2.020005e-01  1.382644e-18  2.145584e-02
     vertex -1.930787e-01 -7.500000e-01 -6.342980e-02
     vertex -2.020005e-01 -7.500000e-01  2.145584e-02
   endloop
 endfacet
 facet normal -9.945219e-01 -6.774685e-18 -1.045285e-01
   outer loop
     vertex -2.020005e-01  1.382644e-18  2.145584e-02
     vertex -1.930787e-01 -3.268797e-18 -6.342980e-02
     vertex -1.930787e-01 -7.500000e-01 -6.342980e-02
   endloop
 endfacet
 facet normal -9.510565e-01  1.715389e-17  3.090170e-01
   outer loop
     vertex -1.756250e-01  7.968264e-18  1.026316e-01
     vertex -2.020005e-01 -7.500000e-01  2.145584e-02
     vertex -1.756250e-01 -7.500000e-01  1.026316e-01
   endloop
 endfacet
 facet normal -9.510565e-01  2.032405e-17  3.090170e-01
   outer loop
     vertex -1.756250e-01  7.968264e-18  1.026316e-01
     vertex -2.020005e-01  1.382644e-18  2.145584e-02
     vertex -2.020005e-01 -7.500000e-01  2.145584e-02
   endloop
 endfacet
 facet normal -7.431448e-01  2.476281e-17  6.691306e-01
   outer loop
     vertex -1.185125e-01  1.534935e-17  1.660614e-01
     vertex -1.756250e-01 -7.500000e-01  1.026316e-01
     vertex -1.185125e-01 -7.500000e-01  1.660614e-01
   endloop
 endfacet
 facet normal -7.431448e-01  4.064811e-17  6.691306e-01
   outer loop
     vertex -1.185125e-01  1.534935e-17  1.660614e-01
     vertex -1.756250e-01  7.968264e-18  1.026316e-01
     vertex -1.756250e-01 -7.500000e-01  1.026316e-01
   endloop
 endfacet
 facet normal -4.067366e-01  3.380797e-17  9.135455e-01
   outer loop
     vertex -4.053845e-02  2.224964e-17  2.007777e-01
     vertex -1.185125e-01 -7.500000e-01  1.660614e-01
     vertex -4.053845e-02 -7.500000e-01  2.007777e-01
   endloop
 endfacet
 facet normal -4.067366e-01  3.387342e-17  9.135455e-01
   outer loop
     vertex -4.053845e-02  2.224964e-17  2.007777e-01
     vertex -1.185125e-01  1.534935e-17  1.660614e-01
     vertex -1.185125e-01 -7.500000e-01  1.660614e-01
   endloop
 endfacet
 facet normal -3.251849e-16  3.700743e-17  1.000000e+00
   outer loop
     vertex  4.481477e-02  2.747602e-17  2.007777e-01
     vertex -4.053845e-02 -7.500000e-01  2.007777e-01
     vertex  4.481477e-02 -7.500000e-01  2.007777e-01
   endloop
 endfacet
 facet normal -3.251849e-16  3.700743e-17  1.000000e+00
   outer loop
     vertex  4.481477e-02  2.747602e-17  2.007777e-01
     vertex -4.053845e-02  2.224964e-17  2.007777e-01
     vertex -4.053845e-02 -7.500000e-01  2.007777e-01
   endloop
 endfacet
 facet normal  7.431448e-01  2.476281e-17  6.691306e-01
   outer loop
     vertex  1.227888e-01  3.012479e-17  1.660614e-01
     vertex  1.227888e-01 -7.500000e-01  1.660614e-01
     vertex  1.799013e-01 -7.500000e-01  1.026316e-01
   endloop
 endfacet
 facet normal  4.067366e-01  3.380797e-17  9.135455e-01
   outer loop
     vertex  1.227888e-01  3.012479e-17  1.660614e-01
     vertex  4.481477e-02 -7.500000e-01  2.007777e-01
     vertex  1.227888e-01 -7.500000e-01  1.660614e-01
   endloop
 endfacet
 facet normal  4.067366e-01  3.387342e-17  9.135455e-01
   outer loop
     vertex  1.227888e-01  3.012479e-17  1.660614e-01
     vertex  4.481477e-02  2.747602e-17  2.007777e-01
     vertex  4.481477e-02 -7.500000e-01  2.007777e-01
   endloop
 endfacet
 facet normal  7.431448e-01  3.714421e-17  6.691306e-01
   outer loop
     vertex  1.799013e-01  2.973797e-17  1.026316e-01
     vertex  1.227888e-01  3.012479e-17  1.660614e-01
     vertex  1.799013e-01 -7.500000e-01  1.026316e-01
   endloop
 endfacet
 facet normal  9.510565e-01  2.001287e-17  3.090170e-01
   outer loop
     vertex  2.062769e-01  2.638243e-17  2.145584e-02
     vertex  1.799013e-01 -7.500000e-01  1.026316e-01
     vertex  2.062769e-01 -7.500000e-01  2.145584e-02
   endloop
 endfacet
 facet normal  9.510565e-01  2.032405e-17  3.090170e-01
   outer loop
     vertex  2.062769e-01  2.638243e-17  2.145584e-02
     vertex  1.799013e-01  2.973797e-17  1.026316e-01
     vertex  1.799013e-01 -7.500000e-01  1.026316e-01
   endloop
 endfacet
 facet normal  8.660254e-01 -2.775558e-17 -5.000000e-01
   outer loop
     vertex  1.973550e-01  2.063837e-17 -6.342980e-02
     vertex  1.973550e-01 -7.500000e-01 -6.342980e-02
     vertex  1.546784e-01 -7.500000e-01 -1.373479e-01
   endloop
 endfacet
 facet normal  9.945219e-01 -5.802495e-18 -1.045285e-01
   outer loop
     vertex  1.973550e-01  2.063837e-17 -6.342980e-02
     vertex  2.062769e-01 -7.500000e-01  2.145584e-02
     vertex  1.973550e-01 -7.500000e-01 -6.342980e-02
   endloop
 endfacet
 facet normal  9.945219e-01 -5.081014e-18 -1.045285e-01
   outer loop
     vertex  1.973550e-01  2.063837e-17 -6.342980e-02
     vertex  2.062769e-01  2.638243e-17  2.145584e-02
     vertex  2.062769e-01 -7.500000e-01  2.145584e-02
   endloop
 endfacet
 facet normal  8.660254e-01 -1.850372e-17 -5.000000e-01
   outer loop
     vertex  1.546784e-01  1.349901e-17 -1.373479e-01
     vertex  1.973550e-01  2.063837e-17 -6.342980e-02
     vertex  1.546784e-01 -7.500000e-01 -1.373479e-01
   endloop
 endfacet
 facet normal  5.877853e-01 -2.993964e-17 -8.090170e-01
   outer loop
     vertex  8.562621e-02  6.198793e-18 -1.875172e-01
     vertex  1.546784e-01 -7.500000e-01 -1.373479e-01
     vertex  8.562621e-02 -7.500000e-01 -1.875172e-01
   endloop
 endfacet
 facet normal  5.877853e-01 -3.387342e-17 -8.090170e-01
   outer loop
     vertex  8.562621e-02  6.198793e-18 -1.875172e-01
     vertex  1.546784e-01  1.349901e-17 -1.373479e-01
     vertex  1.546784e-01 -7.500000e-01 -1.373479e-01
   endloop
 endfacet
 facet normal  2.079117e-01  0.000000e+00 -9.781476e-01
   outer loop
     vertex  2.138158e-03  0.000000e+00 -2.052632e-01
     vertex  8.562621e-02 -7.500000e-01 -1.875172e-01
     vertex  2.138158e-03 -7.500000e-01 -2.052632e-01
   endloop
 endfacet
 facet normal  2.079117e-01 -3.726077e-17 -9.781476e-01
   outer loop
     vertex  2.138158e-03  0.000000e+00 -2.052632e-01
     vertex  8.562621e-02  6.198793e-18 -1.875172e-01
     vertex  8.562621e-02 -7.500000e-01 -1.875172e-01
   endloop
 endfacet
 facet normal  2.225209e-01  0.000000e+00  9.749279e-01
   outer loop
     vertex -8.135592e-02 -3.160088e-18 -1.733772e-01
     vertex  2.138158e-03 -7.500000e-01 -1.924342e-01
     vertex  2.138158e-03  7.855465e-19 -1.924342e-01
   endloop
 endfacet
 facet normal  2.225209e-01  3.607958e-17  9.749279e-01
   outer loop
     vertex -8.135592e-02 -3.160088e-18 -1.733772e-01
     vertex -8.135592e-02 -7.500000e-01 -1.733772e-01
     vertex  2.138158e-03 -7.500000e-01 -1.924342e-01
   endloop
 endfacet
 facet normal  6.234898e-01  4.340037e-17  7.818315e-01
   outer loop
     vertex -1.483130e-01 -3.990434e-18 -1.199808e-01
     vertex -1.483130e-01 -7.500000e-01 -1.199808e-01
     vertex -8.135592e-02 -7.500000e-01 -1.733772e-01
   endloop
 endfacet
 facet normal  6.234898e-01  2.700759e-17  7.818315e-01
   outer loop
     vertex -1.483130e-01 -3.990434e-18 -1.199808e-01
     vertex -8.135592e-02 -7.500000e-01 -1.733772e-01
     vertex -8.135592e-02 -3.160088e-18 -1.733772e-01
   endloop
 endfacet
 facet normal  9.009689e-01  2.809962e-17  4.338837e-01
   outer loop
     vertex -1.854713e-01 -1.541032e-18 -4.282064e-02
     vertex -1.854713e-01 -7.500000e-01 -4.282064e-02
     vertex -1.483130e-01 -7.500000e-01 -1.199808e-01
   endloop
 endfacet
 facet normal  9.009689e-01  2.700759e-17  4.338837e-01
   outer loop
     vertex -1.854713e-01 -1.541032e-18 -4.282064e-02
     vertex -1.483130e-01 -7.500000e-01 -1.199808e-01
     vertex -1.483130e-01 -3.990434e-18 -1.199808e-01
   endloop
 endfacet
 facet normal  1.000000e+00  0.000000e+00  0.000000e+00
   outer loop
     vertex -1.854713e-01  3.702984e-18  4.282064e-02
     vertex -1.854713e-01 -7.500000e-01  4.282064e-02
     vertex -1.854713e-01 -7.500000e-01 -4.282064e-02
   endloop
 endfacet
 facet normal  1.000000e+00  0.000000e+00  0.000000e+00
   outer loop
     vertex -1.854713e-01  3.702984e-18  4.282064e-02
     vertex -1.854713e-01 -7.500000e-01 -4.282064e-02
     vertex -1.854713e-01 -1.541032e-18 -4.282064e-02
   endloop
 endfacet
 facet normal  9.009689e-01 -2.408539e-17 -4.338837e-01
   outer loop
     vertex -1.483130e-01  1.070297e-17  1.199808e-01
     vertex -1.483130e-01 -7.500000e-01  1.199808e-01
     vertex -1.854713e-01 -7.500000e-01  4.282064e-02
   endloop
 endfacet
 facet normal  9.009689e-01 -2.025569e-17 -4.338837e-01
   outer loop
     vertex -1.483130e-01  1.070297e-17  1.199808e-01
     vertex -1.854713e-01 -7.500000e-01  4.282064e-02
     vertex -1.854713e-01  3.702984e-18  4.282064e-02
   endloop
 endfacet
 facet normal  2.225209e-01 -3.607958e-17 -9.749279e-01
   outer loop
     vertex -8.135592e-02  1.807250e-17  1.733772e-01
     vertex  2.138158e-03 -7.500000e-01  1.924342e-01
     vertex -8.135592e-02 -7.500000e-01  1.733772e-01
   endloop
 endfacet
 facet normal  6.234898e-01 -2.893358e-17 -7.818315e-01
   outer loop
     vertex -8.135592e-02  1.807250e-17  1.733772e-01
     vertex -8.135592e-02 -7.500000e-01  1.733772e-01
     vertex -1.483130e-01 -7.500000e-01  1.199808e-01
   endloop
 endfacet
 facet normal  6.234898e-01 -4.051139e-17 -7.818315e-01
   outer loop
     vertex -8.135592e-02  1.807250e-17  1.733772e-01
     vertex -1.483130e-01 -7.500000e-01  1.199808e-01
     vertex -1.483130e-01  1.070297e-17  1.199808e-01
   endloop
 endfacet
 facet normal  2.225209e-01 -3.607958e-17 -9.749279e-01
   outer loop
     vertex  2.138158e-03  2.435194e-17  1.924342e-01
     vertex  2.138158e-03 -7.500000e-01  1.924342e-01
     vertex -8.135592e-02  1.807250e-17  1.733772e-01
   endloop
 endfacet
 facet normal -6.234898e-01 -2.893358e-17 -7.818315e-01
   outer loop
     vertex  8.563223e-02  2.829757e-17  1.733772e-01
     vertex  1.525893e-01 -7.500000e-01  1.199808e-01
     vertex  8.563223e-02 -7.500000e-01  1.733772e-01
   endloop
 endfacet
 facet normal -2.225209e-01 -3.607958e-17 -9.749279e-01
   outer loop
     vertex  8.563223e-02  2.829757e-17  1.733772e-01
     vertex  8.563223e-02 -7.500000e-01  1.733772e-01
     vertex  2.138158e-03 -7.500000e-01  1.924342e-01
   endloop
 endfacet
 facet normal -2.225209e-01 -3.713544e-17 -9.749279e-01
   outer loop
     vertex  8.563223e-02  2.829757e-17  1.733772e-01
     vertex  2.138158e-03 -7.500000e-01  1.924342e-01
     vertex  2.138158e-03  2.435194e-17  1.924342e-01
   endloop
 endfacet
 facet normal -6.234898e-01 -4.340037e-17 -7.818315e-01
   outer loop
     vertex  1.525893e-01  2.912792e-17  1.199808e-01
     vertex  1.525893e-01 -7.500000e-01  1.199808e-01
     vertex  8.563223e-02  2.829757e-17  1.733772e-01
   endloop
 endfacet
 facet normal -9.009689e-01 -2.809962e-17 -4.338837e-01
   outer loop
     vertex  1.897476e-01  2.667852e-17  4.282064e-02
     vertex  1.897476e-01 -7.500000e-01  4.282064e-02
     vertex  1.525893e-01 -7.500000e-01  1.199808e-01
   endloop
 endfacet
 facet normal -9.009689e-01 -1.350380e-17 -4.338837e-01
   outer loop
     vertex  1.897476e-01  2.667852e-17  4.282064e-02
     vertex  1.525893e-01 -7.500000e-01  1.199808e-01
     vertex  1.525893e-01  2.912792e-17  1.199808e-01
   endloop
 endfacet
 facet normal -1.000000e+00  0.000000e+00  0.000000e+00
   outer loop
     vertex  1.897476e-01  2.143450e-17 -4.282064e-02
     vertex  1.897476e-01 -7.500000e-01 -4.282064e-02
     vertex  1.897476e-01 -7.500000e-01  4.282064e-02
   endloop
 endfacet
 facet normal -1.000000e+00  0.000000e+00  0.000000e+00
   outer loop
     vertex  1.897476e-01  2.143450e-17 -4.282064e-02
     vertex  1.897476e-01 -7.500000e-01  4.282064e-02
     vertex  1.897476e-01  2.667852e-17  4.282064e-02
   endloop
 endfacet
 facet normal -9.009689e-01  2.408539e-17  4.338837e-01
   outer loop
     vertex  1.525893e-01  1.443451e-17 -1.199808e-01
     vertex  1.525893e-01 -7.500000e-01 -1.199808e-01
     vertex  1.897476e-01 -7.500000e-01 -4.282064e-02
   endloop
 endfacet
 facet normal -9.009689e-01  2.700759e-17  4.338837e-01
   outer loop
     vertex  1.525893e-01  1.443451e-17 -1.199808e-01
     vertex  1.897476e-01 -7.500000e-01 -4.282064e-02
     vertex  1.897476e-01  2.143450e-17 -4.282064e-02
   endloop
 endfacet
 facet normal -6.234898e-01  2.893358e-17  7.818315e-01
   outer loop
     vertex  8.563223e-02  7.064987e-18 -1.733772e-01
     vertex  8.563223e-02 -7.500000e-01 -1.733772e-01
     vertex  1.525893e-01 -7.500000e-01 -1.199808e-01
   endloop
 endfacet
 facet normal -6.234898e-01  4.726328e-17  7.818315e-01
   outer loop
     vertex  8.563223e-02  7.064987e-18 -1.733772e-01
     vertex  1.525893e-01 -7.500000e-01 -1.199808e-01
     vertex  1.525893e-01  1.443451e-17 -1.199808e-01
   endloop
 endfacet
 facet normal -2.225209e-01  0.000000e+00  9.749279e-01
   outer loop
     vertex  2.138158e-03  7.855465e-19 -1.924342e-01
     vertex  2.138158e-03 -7.500000e-01 -1.924342e-01
     vertex  8.563223e-02 -7.500000e-01 -1.733772e-01
   endloop
 endfacet
 facet normal -2.225209e-01  3.375949e-17  9.749279e-01
   outer loop
     vertex  2.138158e-03  7.855465e-19 -1.924342e-01
     vertex  8.563223e-02 -7.500000e-01 -1.733772e-01
     vertex  8.563223e-02  7.064987e-18 -1.733772e-01
   endloop
 endfacet
 facet normal -6.123234e-17  1.000000e+00 -6.123234e-17
   outer loop
     vertex -1.930787e-01 -3.268797e-18 -6.342980e-02
     vertex -1.483130e-01 -3.990434e-18 -1.199808e-01
     vertex -1.504021e-01 -5.181784e-18 -1.373479e-01
   endloop
 endfacet
 facet normal -6.123234e-17  1.000000e+00 -6.123234e-17
   outer loop
     vertex -8.135592e-02 -3.160088e-18 -1.733772e-01
     vertex -8.134989e-02 -4.025544e-18 -1.875172e-01
     vertex -1.504021e-01 -5.181784e-18 -1.373479e-01
   endloop
 endfacet
 facet normal -6.123234e-17  1.000000e+00 -6.123234e-17
   outer loop
     vertex -8.135592e-02 -3.160088e-18 -1.733772e-01
     vertex -1.504021e-01 -5.181784e-18 -1.373479e-01
     vertex -1.483130e-01 -3.990434e-18 -1.199808e-01
   endloop
 endfacet
 facet normal -6.123234e-17  1.000000e+00 -6.123234e-17
   outer loop
     vertex -1.854713e-01 -1.541032e-18 -4.282064e-02
     vertex -1.483130e-01 -3.990434e-18 -1.199808e-01
     vertex -1.930787e-01 -3.268797e-18 -6.342980e-02
   endloop
 endfacet
 facet normal -6.123234e-17  1.000000e+00 -6.123234e-17
   outer loop
     vertex  2.138158e-03  7.855465e-19 -1.924342e-01
     vertex  2.138158e-03  0.000000e+00 -2.052632e-01
     vertex -8.134989e-02 -4.025544e-18 -1.875172e-01
   endloop
 endfacet
 facet normal -6.123234e-17  1.000000e+00 -6.123234e-17
   outer loop
     vertex  2.138158e-03  7.855465e-19 -1.924342e-01
     vertex -8.134989e-02 -4.025544e-18 -1.875172e-01
     vertex -8.135592e-02 -3.160088e-18 -1.733772e-01
   endloop
 endfacet
 facet normal -6.123234e-17  1.000000e+00 -6.123234e-17
   outer loop
     vertex -2.020005e-01  1.382644e-18  2.145584e-02
     vertex -1.854713e-01 -1.541032e-18 -4.282064e-02
     vertex -1.930787e-01 -3.268797e-18 -6.342980e-02
   endloop
 endfacet
 facet normal -6.123234e-17  1.000000e+00 -6.123234e-17
   outer loop
     vertex -1.854713e-01  3.702984e-18  4.282064e-02
     vertex -1.854713e-01 -1.541032e-18 -4.282064e-02
     vertex -2.020005e-01  1.382644e-18  2.145584e-02
   endloop
 endfacet
 facet normal -6.123234e-17  1.000000e+00 -6.123234e-17
   outer loop
     vertex  8.562621e-02  6.198793e-18 -1.875172e-01
     vertex  2.138158e-03  0.000000e+00 -2.052632e-01
     vertex  2.138158e-03  7.855465e-19 -1.924342e-01
   endloop
 endfacet
 facet normal -6.123234e-17  1.000000e+00 -6.123234e-17
   outer loop
     vertex  8.563223e-02  7.064987e-18 -1.733772e-01
     vertex  8.562621e-02  6.198793e-18 -1.875172e-01
     vertex  2.138158e-03  7.855465e-19 -1.924342e-01
   endloop
 endfacet
 facet normal -6.123234e-17  1.000000e+00 -6.123234e-17
   outer loop
     vertex -1.756250e-01  7.968264e-18  1.026316e-01
     vertex -1.854713e-01  3.702984e-18  4.282064e-02
     vertex -2.020005e-01  1.382644e-18  2.145584e-02
   endloop
 endfacet
 facet normal -6.123234e-17  1.000000e+00 -6.123234e-17
   outer loop
     vertex -1.483130e-01  1.070297e-17  1.199808e-01
     vertex -1.854713e-01  3.702984e-18  4.282064e-02
     vertex -1.756250e-01  7.968264e-18  1.026316e-01
   endloop
 endfacet
 facet normal -6.123234e-17  1.000000e+00 -6.123234e-17
   outer loop
     vertex  1.546784e-01  1.349901e-17 -1.373479e-01
     vertex  8.562621e-02  6.198793e-18 -1.875172e-01
     vertex  8.563223e-02  7.064987e-18 -1.733772e-01
   endloop
 endfacet
 facet normal -6.123234e-17  1.000000e+00 -6.123234e-17
   outer loop
     vertex  1.525893e-01  1.443451e-17 -1.199808e-01
     vertex  1.546784e-01  1.349901e-17 -1.373479e-01
     vertex  8.563223e-02  7.064987e-18 -1.733772e-01
   endloop
 endfacet
 facet normal -6.123234e-17  1.000000e+00 -6.123234e-17
   outer loop
     vertex -1.185125e-01  1.534935e-17  1.660614e-01
     vertex -1.483130e-01  1.070297e-17  1.199808e-01
     vertex -1.756250e-01  7.968264e-18  1.026316e-01
   endloop
 endfacet
 facet normal -6.123234e-17  1.000000e+00 -6.123234e-17
   outer loop
     vertex -8.135592e-02  1.807250e-17  1.733772e-01
     vertex -1.483130e-01  1.070297e-17  1.199808e-01
     vertex -1.185125e-01  1.534935e-17  1.660614e-01
   endloop
 endfacet
 facet normal -6.123234e-17  1.000000e+00 -6.123234e-17
   outer loop
     vertex  1.973550e-01  2.063837e-17 -6.342980e-02
     vertex  1.546784e-01  1.349901e-17 -1.373479e-01
     vertex  1.525893e-01  1.443451e-17 -1.199808e-01
   endloop
 endfacet
 facet normal -6.123234e-17  1.000000e+00 -6.123234e-17
   outer loop
     vertex  1.897476e-01  2.143450e-17 -4.282064e-02
     vertex  1.973550e-01  2.063837e-17 -6.342980e-02
     vertex  1.525893e-01  1.443451e-17 -1.199808e-01
   endloop
 endfacet
 facet normal -6.123234e-17  1.000000e+00 -6.123234e-17
   outer loop
     vertex -4.053845e-02  2.224964e-17  2.007777e-01
     vertex -8.135592e-02  1.807250e-17  1.733772e-01
     vertex -1.185125e-01  1.534935e-17  1.660614e-01
   endloop
 endfacet
 facet normal -6.123234e-17  1.000000e+00 -6.123234e-17
   outer loop
     vertex  2.138158e-03  2.435194e-17  1.924342e-01
     vertex -8.135592e-02  1.807250e-17  1.733772e-01
     vertex -4.053845e-02  2.224964e-17  2.007777e-01
   endloop
 endfacet
 facet normal -6.123234e-17  1.000000e+00 -6.123234e-17
   outer loop
     vertex  2.062769e-01  2.638243e-17  2.145584e-02
     vertex  1.973550e-01  2.063837e-17 -6.342980e-02
     vertex  1.897476e-01  2.143450e-17 -4.282064e-02
   endloop
 endfacet
 facet normal -6.123234e-17  1.000000e+00 -6.123234e-17
   outer loop
     vertex  1.897476e-01  2.667852e-17  4.282064e-02
     vertex  2.062769e-01  2.638243e-17  2.145584e-02
     vertex  1.897476e-01  2.143450e-17 -4.282064e-02
   endloop
 endfacet
 facet normal -6.123234e-17  1.000000e+00 -6.123234e-17
   outer loop
     vertex  4.481477e-02  2.747602e-17  2.007777e-01
     vertex  2.138158e-03  2.435194e-17  1.924342e-01
     vertex -4.053845e-02  2.224964e-17  2.007777e-01
   endloop
 endfacet
 facet normal -6.123234e-17  1.000000e+00 -6.123234e-17
   outer loop
     vertex  8.563223e-02  2.829757e-17  1.733772e-01
     vertex  2.138158e-03  2.435194e-17  1.924342e-01
     vertex  4.481477e-02  2.747602e-17  2.007777e-01
   endloop
 endfacet
 facet normal -6.123234e-17  1.000000e+00 -6.123234e-17
   outer loop
     vertex  1.799013e-01  2.973797e-17  1.026316e-01
     vertex  1.897476e-01  2.667852e-17  4.282064e-02
     vertex  1.525893e-01  2.912792e-17  1.199808e-01
   endloop
 endfacet
 facet normal -6.123234e-17  1.000000e+00 -6.123234e-17
   outer loop
     vertex  1.799013e-01  2.973797e-17  1.026316e-01
     vertex  2.062769e-01  2.638243e-17  2.145584e-02
     vertex  1.897476e-01  2.667852e-17  4.282064e-02
   endloop
 endfacet
 facet normal -6.123234e-17  1.000000e+00 -6.123234e-17
   outer loop
     vertex  1.227888e-01  3.012479e-17  1.660614e-01
     vertex  1.525893e-01  2.912792e-17  1.199808e-01
     vertex  8.563223e-02  2.829757e-17  1.733772e-01
   endloop
 endfacet
 facet normal -6.123234e-17  1.000000e+00 -6.123234e-17
   outer loop
     vertex  1.227888e-01  3.012479e-17  1.660614e-01
     vertex  1.799013e-01  2.973797e-17  1.026316e-01
     vertex  1.525893e-01  2.912792e-17  1.199808e-01
   endloop
 endfacet
 facet normal -6.123234e-17  1.000000e+00 -6.123234e-17
   outer loop
     vertex  1.227888e-01  3.012479e-17  1.660614e-01
     vertex  8.563223e-02  2.829757e-17  1.733772e-01
     vertex  4.481477e-02  2.747602e-17  2.007777e-01
   endloop
 endfacet
 facet normal  0.000000e+00 -1.000000e+00  0.000000e+00
   outer loop
     vertex -1.930787e-01 -7.500000e-01 -6.342980e-02
     vertex -1.504021e-01 -7.500000e-01 -1.373479e-01
     vertex -1.483130e-01 -7.500000e-01 -1.199808e-01
   endloop
 endfacet
 facet normal -0.000000e+00 -1.000000e+00 -0.000000e+00
   outer loop
     vertex -8.135592e-02 -7.500000e-01 -1.733772e-01
     vertex -1.504021e-01 -7.500000e-01 -1.373479e-01
     vertex -8.134989e-02 -7.500000e-01 -1.875172e-01
   endloop
 endfacet
 facet normal  0.000000e+00 -1.000000e+00  0.000000e+00
   outer loop
     vertex -8.135592e-02 -7.500000e-01 -1.733772e-01
     vertex -1.483130e-01 -7.500000e-01 -1.199808e-01
     vertex -1.504021e-01 -7.500000e-01 -1.373479e-01
   endloop
 endfacet
 facet normal  0.000000e+00 -1.000000e+00 -0.000000e+00
   outer loop
     vertex -1.854713e-01 -7.500000e-01 -4.282064e-02
     vertex -1.930787e-01 -7.500000e-01 -6.342980e-02
     vertex -1.483130e-01 -7.500000e-01 -1.199808e-01
   endloop
 endfacet
 facet normal -0.000000e+00 -1.000000e+00 -0.000000e+00
   outer loop
     vertex  2.138158e-03 -7.500000e-01 -1.924342e-01
     vertex -8.134989e-02 -7.500000e-01 -1.875172e-01
     vertex  2.138158e-03 -7.500000e-01 -2.052632e-01
   endloop
 endfacet
 facet normal  0.000000e+00 -1.000000e+00  0.000000e+00
   outer loop
     vertex  2.138158e-03 -7.500000e-01 -1.924342e-01
     vertex -8.135592e-02 -7.500000e-01 -1.733772e-01
     vertex -8.134989e-02 -7.500000e-01 -1.875172e-01
   endloop
 endfacet
 facet normal  0.000000e+00 -1.000000e+00  0.000000e+00
   outer loop
     vertex -2.020005e-01 -7.500000e-01  2.145584e-02
     vertex -1.930787e-01 -7.500000e-01 -6.342980e-02
     vertex -1.854713e-01 -7.500000e-01 -4.282064e-02
   endloop
 endfacet
 facet normal  0.000000e+00 -1.000000e+00 -0.000000e+00
   outer loop
     vertex -1.854713e-01 -7.500000e-01  4.282064e-02
     vertex -2.020005e-01 -7.500000e-01  2.145584e-02
     vertex -1.854713e-01 -7.500000e-01 -4.282064e-02
   endloop
 endfacet
 facet normal  0.000000e+00 -1.000000e+00  0.000000e+00
   outer loop
     vertex  8.562621e-02 -7.500000e-01 -1.875172e-01
     vertex  2.138158e-03 -7.500000e-01 -1.924342e-01
     vertex  2.138158e-03 -7.500000e-01 -2.052632e-01
   endloop
 endfacet
 facet normal  0.000000e+00 -1.000000e+00  0.000000e+00
   outer loop
     vertex  8.563223e-02 -7.500000e-01 -1.733772e-01
     vertex  2.138158e-03 -7.500000e-01 -1.924342e-01
     vertex  8.562621e-02 -7.500000e-01 -1.875172e-01
   endloop
 endfacet
 facet normal  0.000000e+00 -1.000000e+00  0.000000e+00
   outer loop
     vertex -1.756250e-01 -7.500000e-01  1.026316e-01
     vertex -2.020005e-01 -7.500000e-01  2.145584e-02
     vertex -1.854713e-01 -7.500000e-01  4.282064e-02
   endloop
 endfacet
 facet normal  0.000000e+00 -1.000000e+00  0.000000e+00
   outer loop
     vertex -1.483130e-01 -7.500000e-01  1.199808e-01
     vertex -1.756250e-01 -7.500000e-01  1.026316e-01
     vertex -1.854713e-01 -7.500000e-01  4.282064e-02
   endloop
 endfacet
 facet normal  0.000000e+00 -1.000000e+00  0.000000e+00
   outer loop
     vertex  1.546784e-01 -7.500000e-01 -1.373479e-01
     vertex  8.563223e-02 -7.500000e-01 -1.733772e-01
     vertex  8.562621e-02 -7.500000e-01 -1.875172e-01
   endloop
 endfacet
 facet normal  0.000000e+00 -1.000000e+00 -0.000000e+00
   outer loop
     vertex  1.525893e-01 -7.500000e-01 -1.199808e-01
     vertex  8.563223e-02 -7.500000e-01 -1.733772e-01
     vertex  1.546784e-01 -7.500000e-01 -1.373479e-01
   endloop
 endfacet
 facet normal  0.000000e+00 -1.000000e+00  0.000000e+00
   outer loop
     vertex -1.185125e-01 -7.500000e-01  1.660614e-01
     vertex -1.756250e-01 -7.500000e-01  1.026316e-01
     vertex -1.483130e-01 -7.500000e-01  1.199808e-01
   endloop
 endfacet
 facet normal  0.000000e+00 -1.000000e+00  0.000000e+00
   outer loop
     vertex -8.135592e-02 -7.500000e-01  1.733772e-01
     vertex -1.185125e-01 -7.500000e-01  1.660614e-01
     vertex -1.483130e-01 -7.500000e-01  1.199808e-01
   endloop
 endfacet
 facet normal  0.000000e+00 -1.000000e+00  0.000000e+00
   outer loop
     vertex  1.973550e-01 -7.500000e-01 -6.342980e-02
     vertex  1.525893e-01 -7.500000e-01 -1.199808e-01
     vertex  1.546784e-01 -7.500000e-01 -1.373479e-01
   endloop
 endfacet
 facet normal  0.000000e+00 -1.000000e+00 -0.000000e+00
   outer loop
     vertex  1.897476e-01 -7.500000e-01 -4.282064e-02
     vertex  1.525893e-01 -7.500000e-01 -1.199808e-01
     vertex  1.973550e-01 -7.500000e-01 -6.342980e-02
   endloop
 endfacet
 facet normal  0.000000e+00 -1.000000e+00  0.000000e+00
   outer loop
     vertex -4.053845e-02 -7.500000e-01  2.007777e-01
     vertex -1.185125e-01 -7.500000e-01  1.660614e-01
     vertex -8.135592e-02 -7.500000e-01  1.733772e-01
   endloop
 endfacet
 facet normal -0.000000e+00 -1.000000e+00  0.000000e+00
   outer loop
     vertex  2.138158e-03 -7.500000e-01  1.924342e-01
     vertex -4.053845e-02 -7.500000e-01  2.007777e-01
     vertex -8.135592e-02 -7.500000e-01  1.733772e-01
   endloop
 endfacet
 facet normal  0.000000e+00 -1.000000e+00  0.000000e+00
   outer loop
     vertex  2.062769e-01 -7.500000e-01  2.145584e-02
     vertex  1.897476e-01 -7.500000e-01 -4.282064e-02
     vertex  1.973550e-01 -7.500000e-01 -6.342980e-02
   endloop
 endfacet
 facet normal  0.000000e+00 -1.000000e+00  0.000000e+00
   outer loop
     vertex  1.897476e-01 -7.500000e-01  4.282064e-02
     vertex  1.897476e-01 -7.500000e-01 -4.282064e-02
     vertex  2.062769e-01 -7.500000e-01  2.145584e-02
   endloop
 endfacet
 facet normal  0.000000e+00 -1.000000e+00  0.000000e+00
   outer loop
     vertex  4.481477e-02 -7.500000e-01  2.007777e-01
     vertex -4.053845e-02 -7.500000e-01  2.007777e-01
     vertex  2.138158e-03 -7.500000e-01  1.924342e-01
   endloop
 endfacet
 facet normal  0.000000e+00 -1.000000e+00  0.000000e+00
   outer loop
     vertex  8.563223e-02 -7.500000e-01  1.733772e-01
     vertex  4.481477e-02 -7.500000e-01  2.007777e-01
     vertex  2.138158e-03 -7.500000e-01  1.924342e-01
   endloop
 endfacet
 facet normal -0.000000e+00 -1.000000e+00 -0.000000e+00
   outer loop
     vertex  1.799013e-01 -7.500000e-01  1.026316e-01
     vertex  1.525893e-01 -7.500000e-01  1.199808e-01
     vertex  1.897476e-01 -7.500000e-01  4.282064e-02
   endloop
 endfacet
 facet normal  0.000000e+00 -1.000000e+00  0.000000e+00
   outer loop
     vertex  1.799013e-01 -7.500000e-01  1.026316e-01
     vertex  1.897476e-01 -7.500000e-01  4.282064e-02
     vertex  2.062769e-01 -7.500000e-01  2.145584e-02
   endloop
 endfacet
 facet normal -0.000000e+00 -1.000000e+00 -0.000000e+00
   outer loop
     vertex  1.227888e-01 -7.500000e-01  1.660614e-01
     vertex  8.563223e-02 -7.500000e-01  1.733772e-01
     vertex  1.525893e-01 -7.500000e-01  1.199808e-01
   endloop
 endfacet
 facet normal  0.000000e+00 -1.000000e+00  0.000000e+00
   outer loop
     vertex  1.227888e-01 -7.500000e-01  1.660614e-01
     vertex  1.525893e-01 -7.500000e-01  1.199808e-01
     vertex  1.799013e-01 -7.500000e-01  1.026316e-01
   endloop
 endfacet
 facet normal  0.000000e+00 -1.000000e+00  0.000000e+00
   outer loop
     vertex  1.227888e-01 -7.500000e-01  1.660614e-01
     vertex  4.481477e-02 -7.500000e-01  2.007777e-01
     vertex  8.563223e-02 -7.500000e-01  1.733772e-01
   endloop
 endfacet
endsolid
