solid 
 facet normal  9.927089e-01 -1.205367e-01  0.000000e+00
   outer loop
     vertex  3.487704e-01 -8.124137e-02  0.000000e+00
     vertex  3.586349e-01  0.000000e+00  0.000000e+00
     vertex  3.586349e-01  0.000000e+00  7.500000e-01
   endloop
 endfacet
 facet normal  9.914443e-01 -1.305261e-01  1.098707e-03
   outer loop
     vertex  3.487704e-01 -8.124137e-02  0.000000e+00
     vertex  3.586349e-01  0.000000e+00  7.500000e-01
     vertex  3.470676e-01 -8.786225e-02  7.500000e-01
   endloop
 endfacet
 facet normal  9.238777e-01 -3.826827e-01  2.014974e-03
   outer loop
     vertex  3.197502e-01 -1.577613e-01  0.000000e+00
     vertex  3.470676e-01 -8.786225e-02  7.500000e-01
     vertex  3.131540e-01 -1.697368e-01  7.500000e-01
   endloop
 endfacet
 facet normal  9.350158e-01 -3.546047e-01 -1.007540e-03
   outer loop
     vertex  3.197502e-01 -1.577613e-01  0.000000e+00
     vertex  3.487704e-01 -8.124137e-02  0.000000e+00
     vertex  3.470676e-01 -8.786225e-02  7.500000e-01
   endloop
 endfacet
 facet normal  7.933503e-01 -6.087591e-01  2.748431e-03
   outer loop
     vertex  2.732609e-01 -2.251127e-01  0.000000e+00
     vertex  3.131540e-01 -1.697368e-01  7.500000e-01
     vertex  2.592053e-01 -2.400441e-01  7.500000e-01
   endloop
 endfacet
 facet normal  8.229825e-01 -5.680638e-01 -1.832446e-03
   outer loop
     vertex  2.732609e-01 -2.251127e-01  0.000000e+00
     vertex  3.197502e-01 -1.577613e-01  0.000000e+00
     vertex  3.131540e-01 -1.697368e-01  7.500000e-01
   endloop
 endfacet
 facet normal  6.087581e-01 -7.933490e-01  3.298781e-03
   outer loop
     vertex  2.120042e-01 -2.793814e-01  0.000000e+00
     vertex  2.592053e-01 -2.400441e-01  7.500000e-01
     vertex  1.888980e-01 -2.939928e-01  7.500000e-01
   endloop
 endfacet
 facet normal  6.631206e-01 -7.485085e-01 -2.474384e-03
   outer loop
     vertex  2.120042e-01 -2.793814e-01  0.000000e+00
     vertex  2.732609e-01 -2.251127e-01  0.000000e+00
     vertex  2.592053e-01 -2.400441e-01  7.500000e-01
   endloop
 endfacet
 facet normal  3.826809e-01 -9.238733e-01  3.665804e-03
   outer loop
     vertex  1.395402e-01 -3.174134e-01  0.000000e+00
     vertex  1.888980e-01 -2.939928e-01  7.500000e-01
     vertex  1.070234e-01 -3.279064e-01  7.500000e-01
   endloop
 endfacet
 facet normal  4.647212e-01 -8.854522e-01 -2.933096e-03
   outer loop
     vertex  1.395402e-01 -3.174134e-01  0.000000e+00
     vertex  2.120042e-01 -2.793814e-01  0.000000e+00
     vertex  1.888980e-01 -2.939928e-01  7.500000e-01
   endloop
 endfacet
 facet normal  1.305252e-01 -9.914375e-01  3.849352e-03
   outer loop
     vertex  6.008022e-02 -3.369985e-01  0.000000e+00
     vertex  1.070234e-01 -3.279064e-01  7.500000e-01
     vertex  1.916118e-02 -3.394737e-01  7.500000e-01
   endloop
 endfacet
 facet normal  2.393144e-01 -9.709368e-01 -3.208397e-03
   outer loop
     vertex  6.008022e-02 -3.369985e-01  0.000000e+00
     vertex  1.395402e-01 -3.174134e-01  0.000000e+00
     vertex  1.070234e-01 -3.279064e-01  7.500000e-01
   endloop
 endfacet
 facet normal -1.305252e-01 -9.914375e-01  3.849352e-03
   outer loop
     vertex -2.175785e-02 -3.369985e-01  0.000000e+00
     vertex  1.916118e-02 -3.394737e-01  7.500000e-01
     vertex -6.870107e-02 -3.279064e-01  7.500000e-01
   endloop
 endfacet
 facet normal -2.713204e-15 -9.999946e-01 -3.300176e-03
   outer loop
     vertex -2.175785e-02 -3.369985e-01  0.000000e+00
     vertex  6.008022e-02 -3.369985e-01  0.000000e+00
     vertex  1.916118e-02 -3.394737e-01  7.500000e-01
   endloop
 endfacet
 facet normal -3.826809e-01 -9.238733e-01  3.665804e-03
   outer loop
     vertex -1.012178e-01 -3.174134e-01  0.000000e+00
     vertex -6.870107e-02 -3.279064e-01  7.500000e-01
     vertex -1.505757e-01 -2.939928e-01  7.500000e-01
   endloop
 endfacet
 facet normal -2.393144e-01 -9.709368e-01 -3.208397e-03
   outer loop
     vertex -1.012178e-01 -3.174134e-01  0.000000e+00
     vertex -2.175785e-02 -3.369985e-01  0.000000e+00
     vertex -6.870107e-02 -3.279064e-01  7.500000e-01
   endloop
 endfacet
 facet normal -6.087581e-01 -7.933490e-01  3.298781e-03
   outer loop
     vertex -1.736818e-01 -2.793814e-01  0.000000e+00
     vertex -1.505757e-01 -2.939928e-01  7.500000e-01
     vertex -2.208830e-01 -2.400441e-01  7.500000e-01
   endloop
 endfacet
 facet normal -4.647212e-01 -8.854522e-01 -2.933096e-03
   outer loop
     vertex -1.736818e-01 -2.793814e-01  0.000000e+00
     vertex -1.012178e-01 -3.174134e-01  0.000000e+00
     vertex -1.505757e-01 -2.939928e-01  7.500000e-01
   endloop
 endfacet
 facet normal -7.933503e-01 -6.087591e-01  2.748431e-03
   outer loop
     vertex -2.349385e-01 -2.251127e-01  0.000000e+00
     vertex -2.208830e-01 -2.400441e-01  7.500000e-01
     vertex -2.748317e-01 -1.697368e-01  7.500000e-01
   endloop
 endfacet
 facet normal -6.631206e-01 -7.485085e-01 -2.474384e-03
   outer loop
     vertex -2.349385e-01 -2.251127e-01  0.000000e+00
     vertex -1.736818e-01 -2.793814e-01  0.000000e+00
     vertex -2.208830e-01 -2.400441e-01  7.500000e-01
   endloop
 endfacet
 facet normal -9.238777e-01 -3.826827e-01  2.014974e-03
   outer loop
     vertex -2.814278e-01 -1.577613e-01  0.000000e+00
     vertex -2.748317e-01 -1.697368e-01  7.500000e-01
     vertex -3.087452e-01 -8.786225e-02  7.500000e-01
   endloop
 endfacet
 facet normal -8.229825e-01 -5.680638e-01 -1.832446e-03
   outer loop
     vertex -2.814278e-01 -1.577613e-01  0.000000e+00
     vertex -2.349385e-01 -2.251127e-01  0.000000e+00
     vertex -2.748317e-01 -1.697368e-01  7.500000e-01
   endloop
 endfacet
 facet normal -9.914443e-01 -1.305261e-01  1.098707e-03
   outer loop
     vertex -3.104480e-01 -8.124137e-02  0.000000e+00
     vertex -3.087452e-01 -8.786225e-02  7.500000e-01
     vertex -3.203125e-01 -1.091831e-16  7.500000e-01
   endloop
 endfacet
 facet normal -9.350158e-01 -3.546047e-01 -1.007540e-03
   outer loop
     vertex -3.104480e-01 -8.124137e-02  0.000000e+00
     vertex -2.814278e-01 -1.577613e-01  0.000000e+00
     vertex -3.087452e-01 -8.786225e-02  7.500000e-01
   endloop
 endfacet
 facet normal -9.927089e-01 -1.205367e-01 -7.268680e-17
   outer loop
     vertex -3.203125e-01  3.430867e-16  0.000000e+00
     vertex -3.104480e-01 -8.124137e-02  0.000000e+00
     vertex -3.203125e-01 -1.091831e-16  7.500000e-01
   endloop
 endfacet
 facet normal -9.927089e-01  1.205367e-01  7.242317e-17
   outer loop
     vertex -3.104480e-01  8.124137e-02  0.000000e+00
     vertex -3.203125e-01  3.430867e-16  0.000000e+00
     vertex -3.203125e-01 -1.091831e-16  7.500000e-01
   endloop
 endfacet
 facet normal -9.914443e-01  1.305261e-01  1.098707e-03
   outer loop
     vertex -3.104480e-01  8.124137e-02  0.000000e+00
     vertex -3.203125e-01 -1.091831e-16  7.500000e-01
     vertex -3.087452e-01  8.786225e-02  7.500000e-01
   endloop
 endfacet
 facet normal -9.350158e-01  3.546047e-01 -1.007540e-03
   outer loop
     vertex -2.814278e-01  1.577613e-01  0.000000e+00
     vertex -3.104480e-01  8.124137e-02  0.000000e+00
     vertex -3.087452e-01  8.786225e-02  7.500000e-01
   endloop
 endfacet
 facet normal -9.238777e-01  3.826827e-01  2.014974e-03
   outer loop
     vertex -2.814278e-01  1.577613e-01  0.000000e+00
     vertex -3.087452e-01  8.786225e-02  7.500000e-01
     vertex -2.748317e-01  1.697368e-01  7.500000e-01
   endloop
 endfacet
 facet normal -8.229825e-01  5.680638e-01 -1.832446e-03
   outer loop
     vertex -2.349385e-01  2.251127e-01  0.000000e+00
     vertex -2.814278e-01  1.577613e-01  0.000000e+00
     vertex -2.748317e-01  1.697368e-01  7.500000e-01
   endloop
 endfacet
 facet normal -7.933503e-01  6.087591e-01  2.748431e-03
   outer loop
     vertex -2.349385e-01  2.251127e-01  0.000000e+00
     vertex -2.748317e-01  1.697368e-01  7.500000e-01
     vertex -2.208830e-01  2.400441e-01  7.500000e-01
   endloop
 endfacet
 facet normal -6.631206e-01  7.485085e-01 -2.474384e-03
   outer loop
     vertex -1.736818e-01  2.793814e-01  0.000000e+00
     vertex -2.349385e-01  2.251127e-01  0.000000e+00
     vertex -2.208830e-01  2.400441e-01  7.500000e-01
   endloop
 endfacet
 facet normal -6.087581e-01  7.933490e-01  3.298781e-03
   outer loop
     vertex -1.736818e-01  2.793814e-01  0.000000e+00
     vertex -2.208830e-01  2.400441e-01  7.500000e-01
     vertex -1.505757e-01  2.939928e-01  7.500000e-01
   endloop
 endfacet
 facet normal -4.647212e-01  8.854522e-01 -2.933096e-03
   outer loop
     vertex -1.012178e-01  3.174134e-01  0.000000e+00
     vertex -1.736818e-01  2.793814e-01  0.000000e+00
     vertex -1.505757e-01  2.939928e-01  7.500000e-01
   endloop
 endfacet
 facet normal -3.826809e-01  9.238733e-01  3.665804e-03
   outer loop
     vertex -1.012178e-01  3.174134e-01  0.000000e+00
     vertex -1.505757e-01  2.939928e-01  7.500000e-01
     vertex -6.870107e-02  3.279064e-01  7.500000e-01
   endloop
 endfacet
 facet normal -2.393144e-01  9.709368e-01 -3.208397e-03
   outer loop
     vertex -2.175785e-02  3.369985e-01  0.000000e+00
     vertex -1.012178e-01  3.174134e-01  0.000000e+00
     vertex -6.870107e-02  3.279064e-01  7.500000e-01
   endloop
 endfacet
 facet normal -1.305252e-01  9.914375e-01  3.849352e-03
   outer loop
     vertex -2.175785e-02  3.369985e-01  0.000000e+00
     vertex -6.870107e-02  3.279064e-01  7.500000e-01
     vertex  1.916118e-02  3.394737e-01  7.500000e-01
   endloop
 endfacet
 facet normal  0.000000e+00  9.999946e-01 -3.300176e-03
   outer loop
     vertex  6.008022e-02  3.369985e-01  0.000000e+00
     vertex -2.175785e-02  3.369985e-01  0.000000e+00
     vertex  1.916118e-02  3.394737e-01  7.500000e-01
   endloop
 endfacet
 facet normal  1.305252e-01  9.914375e-01  3.849352e-03
   outer loop
     vertex  6.008022e-02  3.369985e-01  0.000000e+00
     vertex  1.916118e-02  3.394737e-01  7.500000e-01
     vertex  1.070234e-01  3.279064e-01  7.500000e-01
   endloop
 endfacet
 facet normal  3.826809e-01  9.238733e-01  3.665804e-03
   outer loop
     vertex  1.395402e-01  3.174134e-01  0.000000e+00
     vertex  1.070234e-01  3.279064e-01  7.500000e-01
     vertex  1.888980e-01  2.939928e-01  7.500000e-01
   endloop
 endfacet
 facet normal  2.393144e-01  9.709368e-01 -3.208397e-03
   outer loop
     vertex  1.395402e-01  3.174134e-01  0.000000e+00
     vertex  6.008022e-02  3.369985e-01  0.000000e+00
     vertex  1.070234e-01  3.279064e-01  7.500000e-01
   endloop
 endfacet
 facet normal  6.087581e-01  7.933490e-01  3.298781e-03
   outer loop
     vertex  2.120042e-01  2.793814e-01  0.000000e+00
     vertex  1.888980e-01  2.939928e-01  7.500000e-01
     vertex  2.592053e-01  2.400441e-01  7.500000e-01
   endloop
 endfacet
 facet normal  4.647212e-01  8.854522e-01 -2.933096e-03
   outer loop
     vertex  2.120042e-01  2.793814e-01  0.000000e+00
     vertex  1.395402e-01  3.174134e-01  0.000000e+00
     vertex  1.888980e-01  2.939928e-01  7.500000e-01
   endloop
 endfacet
 facet normal  7.933503e-01  6.087591e-01  2.748431e-03
   outer loop
     vertex  2.732609e-01  2.251127e-01  0.000000e+00
     vertex  2.592053e-01  2.400441e-01  7.500000e-01
     vertex  3.131540e-01  1.697368e-01  7.500000e-01
   endloop
 endfacet
 facet normal  6.631206e-01  7.485085e-01 -2.474384e-03
   outer loop
     vertex  2.732609e-01  2.251127e-01  0.000000e+00
     vertex  2.120042e-01  2.793814e-01  0.000000e+00
     vertex  2.592053e-01  2.400441e-01  7.500000e-01
   endloop
 endfacet
 facet normal  9.238777e-01  3.826827e-01  2.014974e-03
   outer loop
     vertex  3.197502e-01  1.577613e-01  0.000000e+00
     vertex  3.131540e-01  1.697368e-01  7.500000e-01
     vertex  3.470676e-01  8.786225e-02  7.500000e-01
   endloop
 endfacet
 facet normal  8.229825e-01  5.680638e-01 -1.832446e-03
   outer loop
     vertex  3.197502e-01  1.577613e-01  0.000000e+00
     vertex  2.732609e-01  2.251127e-01  0.000000e+00
     vertex  3.131540e-01  1.697368e-01  7.500000e-01
   endloop
 endfacet
 facet normal  9.914443e-01  1.305261e-01  1.098707e-03
   outer loop
     vertex  3.487704e-01  8.124137e-02  0.000000e+00
     vertex  3.470676e-01  8.786225e-02  7.500000e-01
     vertex  3.586349e-01  0.000000e+00  7.500000e-01
   endloop
 endfacet
 facet normal  9.350158e-01  3.546047e-01 -1.007540e-03
   outer loop
     vertex  3.487704e-01  8.124137e-02  0.000000e+00
     vertex  3.197502e-01  1.577613e-01  0.000000e+00
     vertex  3.470676e-01  8.786225e-02  7.500000e-01
   endloop
 endfacet
 facet normal  9.927089e-01  1.205367e-01 -0.000000e+00
   outer loop
     vertex  3.586349e-01  0.000000e+00  0.000000e+00
     vertex  3.487704e-01  8.124137e-02  0.000000e+00
     vertex  3.586349e-01  0.000000e+00  7.500000e-01
   endloop
 endfacet
 facet normal  0.000000e+00  0.000000e+00 -1.000000e+00
   outer loop
     vertex -1.223053e-01 -2.031250e-01  0.000000e+00
     vertex -1.736818e-01 -2.793814e-01  0.000000e+00
     vertex -2.349385e-01 -2.251127e-01  0.000000e+00
   endloop
 endfacet
 facet normal  0.000000e+00 -0.000000e+00 -1.000000e+00
   outer loop
     vertex -1.223053e-01 -2.031250e-01  0.000000e+00
     vertex -1.012178e-01 -3.174134e-01  0.000000e+00
     vertex -1.736818e-01 -2.793814e-01  0.000000e+00
   endloop
 endfacet
 facet normal -0.000000e+00  0.000000e+00 -1.000000e+00
   outer loop
     vertex -1.223053e-01 -2.031250e-01  0.000000e+00
     vertex -2.349385e-01 -2.251127e-01  0.000000e+00
     vertex -2.500000e-01 -2.031250e-01  0.000000e+00
   endloop
 endfacet
 facet normal  0.000000e+00 -0.000000e+00 -1.000000e+00
   outer loop
     vertex -5.497523e-02 -2.361701e-01  0.000000e+00
     vertex -2.175785e-02 -3.369985e-01  0.000000e+00
     vertex -1.012178e-01 -3.174134e-01  0.000000e+00
   endloop
 endfacet
 facet normal -0.000000e+00  0.000000e+00 -1.000000e+00
   outer loop
     vertex -5.497523e-02 -2.361701e-01  0.000000e+00
     vertex -1.012178e-01 -3.174134e-01  0.000000e+00
     vertex -1.223053e-01 -2.031250e-01  0.000000e+00
   endloop
 endfacet
 facet normal  0.000000e+00 -0.000000e+00 -1.000000e+00
   outer loop
     vertex  1.916118e-02 -2.475329e-01  0.000000e+00
     vertex  6.008022e-02 -3.369985e-01  0.000000e+00
     vertex -2.175785e-02 -3.369985e-01  0.000000e+00
   endloop
 endfacet
 facet normal -0.000000e+00  0.000000e+00 -1.000000e+00
   outer loop
     vertex  1.916118e-02 -2.475329e-01  0.000000e+00
     vertex -2.175785e-02 -3.369985e-01  0.000000e+00
     vertex -5.497523e-02 -2.361701e-01  0.000000e+00
   endloop
 endfacet
 facet normal  0.000000e+00 -0.000000e+00 -1.000000e+00
   outer loop
     vertex  9.329759e-02 -2.361701e-01  0.000000e+00
     vertex  1.395402e-01 -3.174134e-01  0.000000e+00
     vertex  6.008022e-02 -3.369985e-01  0.000000e+00
   endloop
 endfacet
 facet normal  0.000000e+00  0.000000e+00 -1.000000e+00
   outer loop
     vertex  9.329759e-02 -2.361701e-01  0.000000e+00
     vertex  6.008022e-02 -3.369985e-01  0.000000e+00
     vertex  1.916118e-02 -2.475329e-01  0.000000e+00
   endloop
 endfacet
 facet normal  0.000000e+00  0.000000e+00 -1.000000e+00
   outer loop
     vertex -2.500000e-01  1.745066e-01  0.000000e+00
     vertex -3.104480e-01  8.124137e-02  0.000000e+00
     vertex -2.814278e-01  1.577613e-01  0.000000e+00
   endloop
 endfacet
 facet normal  0.000000e+00 -0.000000e+00 -1.000000e+00
   outer loop
     vertex  1.606277e-01 -2.031250e-01  0.000000e+00
     vertex  2.120042e-01 -2.793814e-01  0.000000e+00
     vertex  1.395402e-01 -3.174134e-01  0.000000e+00
   endloop
 endfacet
 facet normal  0.000000e+00  0.000000e+00 -1.000000e+00
   outer loop
     vertex  1.606277e-01 -2.031250e-01  0.000000e+00
     vertex  1.395402e-01 -3.174134e-01  0.000000e+00
     vertex  9.329759e-02 -2.361701e-01  0.000000e+00
   endloop
 endfacet
 facet normal -0.000000e+00 -0.000000e+00 -1.000000e+00
   outer loop
     vertex  1.875000e-01 -2.031250e-01  0.000000e+00
     vertex  2.120042e-01 -2.793814e-01  0.000000e+00
     vertex  1.606277e-01 -2.031250e-01  0.000000e+00
   endloop
 endfacet
 facet normal  0.000000e+00  0.000000e+00 -1.000000e+00
   outer loop
     vertex -2.349385e-01  2.251127e-01  0.000000e+00
     vertex -2.500000e-01  1.745066e-01  0.000000e+00
     vertex -2.814278e-01  1.577613e-01  0.000000e+00
   endloop
 endfacet
 facet normal  0.000000e+00  0.000000e+00 -1.000000e+00
   outer loop
     vertex -1.563950e-01  1.745066e-01  0.000000e+00
     vertex -2.500000e-01  1.745066e-01  0.000000e+00
     vertex -2.349385e-01  2.251127e-01  0.000000e+00
   endloop
 endfacet
 facet normal  0.000000e+00  0.000000e+00 -1.000000e+00
   outer loop
     vertex  2.732609e-01 -2.251127e-01  0.000000e+00
     vertex  1.875000e-01 -2.031250e-01  0.000000e+00
     vertex  1.875000e-01 -1.814789e-01  0.000000e+00
   endloop
 endfacet
 facet normal -0.000000e+00  0.000000e+00 -1.000000e+00
   outer loop
     vertex  2.732609e-01 -2.251127e-01  0.000000e+00
     vertex  2.120042e-01 -2.793814e-01  0.000000e+00
     vertex  1.875000e-01 -2.031250e-01  0.000000e+00
   endloop
 endfacet
 facet normal  0.000000e+00 -0.000000e+00 -1.000000e+00
   outer loop
     vertex  2.303663e-01 -1.290928e-01  0.000000e+00
     vertex  2.732609e-01 -2.251127e-01  0.000000e+00
     vertex  1.875000e-01 -1.814789e-01  0.000000e+00
   endloop
 endfacet
 facet normal  0.000000e+00 -0.000000e+00 -1.000000e+00
   outer loop
     vertex -1.736818e-01  2.793814e-01  0.000000e+00
     vertex -1.563950e-01  1.745066e-01  0.000000e+00
     vertex -2.349385e-01  2.251127e-01  0.000000e+00
   endloop
 endfacet
 facet normal -0.000000e+00  0.000000e+00 -1.000000e+00
   outer loop
     vertex -8.881214e-02  2.227427e-01  0.000000e+00
     vertex -1.563950e-01  1.745066e-01  0.000000e+00
     vertex -1.736818e-01  2.793814e-01  0.000000e+00
   endloop
 endfacet
 facet normal -0.000000e+00  0.000000e+00 -1.000000e+00
   outer loop
     vertex  3.197502e-01 -1.577613e-01  0.000000e+00
     vertex  2.732609e-01 -2.251127e-01  0.000000e+00
     vertex  2.303663e-01 -1.290928e-01  0.000000e+00
   endloop
 endfacet
 facet normal  0.000000e+00 -0.000000e+00 -1.000000e+00
   outer loop
     vertex  2.574391e-01 -6.705344e-02  0.000000e+00
     vertex  3.197502e-01 -1.577613e-01  0.000000e+00
     vertex  2.303663e-01 -1.290928e-01  0.000000e+00
   endloop
 endfacet
 facet normal  0.000000e+00 -0.000000e+00 -1.000000e+00
   outer loop
     vertex -1.012178e-01  3.174134e-01  0.000000e+00
     vertex -8.881214e-02  2.227427e-01  0.000000e+00
     vertex -1.736818e-01  2.793814e-01  0.000000e+00
   endloop
 endfacet
 facet normal -0.000000e+00  0.000000e+00 -1.000000e+00
   outer loop
     vertex -9.080461e-03  2.459165e-01  0.000000e+00
     vertex -8.881214e-02  2.227427e-01  0.000000e+00
     vertex -1.012178e-01  3.174134e-01  0.000000e+00
   endloop
 endfacet
 facet normal -0.000000e+00  0.000000e+00 -1.000000e+00
   outer loop
     vertex  3.487704e-01 -8.124137e-02  0.000000e+00
     vertex  3.197502e-01 -1.577613e-01  0.000000e+00
     vertex  2.574391e-01 -6.705344e-02  0.000000e+00
   endloop
 endfacet
 facet normal  0.000000e+00  0.000000e+00 -1.000000e+00
   outer loop
     vertex  3.487704e-01 -8.124137e-02  0.000000e+00
     vertex  2.574391e-01 -6.705344e-02  0.000000e+00
     vertex  2.666941e-01  0.000000e+00  0.000000e+00
   endloop
 endfacet
 facet normal  0.000000e+00 -0.000000e+00 -1.000000e+00
   outer loop
     vertex -2.175785e-02  3.369985e-01  0.000000e+00
     vertex -9.080461e-03  2.459165e-01  0.000000e+00
     vertex -1.012178e-01  3.174134e-01  0.000000e+00
   endloop
 endfacet
 facet normal -0.000000e+00  0.000000e+00 -1.000000e+00
   outer loop
     vertex  3.586349e-01  0.000000e+00  0.000000e+00
     vertex  3.487704e-01 -8.124137e-02  0.000000e+00
     vertex  2.666941e-01  0.000000e+00  0.000000e+00
   endloop
 endfacet
 facet normal -0.000000e+00  0.000000e+00 -1.000000e+00
   outer loop
     vertex  6.008022e-02  3.369985e-01  0.000000e+00
     vertex -9.080461e-03  2.459165e-01  0.000000e+00
     vertex -2.175785e-02  3.369985e-01  0.000000e+00
   endloop
 endfacet
 facet normal  0.000000e+00 -0.000000e+00 -1.000000e+00
   outer loop
     vertex  6.008022e-02  3.369985e-01  0.000000e+00
     vertex  7.382887e-02  2.414207e-01  0.000000e+00
     vertex -9.080461e-03  2.459165e-01  0.000000e+00
   endloop
 endfacet
 facet normal  0.000000e+00 -0.000000e+00 -1.000000e+00
   outer loop
     vertex  3.487704e-01  8.124137e-02  0.000000e+00
     vertex  3.586349e-01  0.000000e+00  0.000000e+00
     vertex  2.666941e-01  0.000000e+00  0.000000e+00
   endloop
 endfacet
 facet normal -0.000000e+00  0.000000e+00 -1.000000e+00
   outer loop
     vertex  3.487704e-01  8.124137e-02  0.000000e+00
     vertex  2.666941e-01  0.000000e+00  0.000000e+00
     vertex  2.527683e-01  8.185501e-02  0.000000e+00
   endloop
 endfacet
 facet normal  0.000000e+00 -0.000000e+00 -1.000000e+00
   outer loop
     vertex  1.395402e-01  3.174134e-01  0.000000e+00
     vertex  1.505872e-01  2.097612e-01  0.000000e+00
     vertex  7.382887e-02  2.414207e-01  0.000000e+00
   endloop
 endfacet
 facet normal -0.000000e+00  0.000000e+00 -1.000000e+00
   outer loop
     vertex  1.395402e-01  3.174134e-01  0.000000e+00
     vertex  7.382887e-02  2.414207e-01  0.000000e+00
     vertex  6.008022e-02  3.369985e-01  0.000000e+00
   endloop
 endfacet
 facet normal  0.000000e+00 -0.000000e+00 -1.000000e+00
   outer loop
     vertex  3.197502e-01  1.577613e-01  0.000000e+00
     vertex  3.487704e-01  8.124137e-02  0.000000e+00
     vertex  2.527683e-01  8.185501e-02  0.000000e+00
   endloop
 endfacet
 facet normal  0.000000e+00  0.000000e+00 -1.000000e+00
   outer loop
     vertex  3.197502e-01  1.577613e-01  0.000000e+00
     vertex  2.527683e-01  8.185501e-02  0.000000e+00
     vertex  2.125579e-01  1.545000e-01  0.000000e+00
   endloop
 endfacet
 facet normal -0.000000e+00  0.000000e+00 -1.000000e+00
   outer loop
     vertex  2.120042e-01  2.793814e-01  0.000000e+00
     vertex  1.505872e-01  2.097612e-01  0.000000e+00
     vertex  1.395402e-01  3.174134e-01  0.000000e+00
   endloop
 endfacet
 facet normal  0.000000e+00 -0.000000e+00 -1.000000e+00
   outer loop
     vertex  2.732609e-01  2.251127e-01  0.000000e+00
     vertex  3.197502e-01  1.577613e-01  0.000000e+00
     vertex  2.125579e-01  1.545000e-01  0.000000e+00
   endloop
 endfacet
 facet normal  0.000000e+00  0.000000e+00 -1.000000e+00
   outer loop
     vertex  2.732609e-01  2.251127e-01  0.000000e+00
     vertex  2.125579e-01  1.545000e-01  0.000000e+00
     vertex  1.505872e-01  2.097612e-01  0.000000e+00
   endloop
 endfacet
 facet normal -0.000000e+00  0.000000e+00 -1.000000e+00
   outer loop
     vertex  2.732609e-01  2.251127e-01  0.000000e+00
     vertex  1.505872e-01  2.097612e-01  0.000000e+00
     vertex  2.120042e-01  2.793814e-01  0.000000e+00
   endloop
 endfacet
 facet normal  0.000000e+00  0.000000e+00 -1.000000e+00
   outer loop
     vertex -2.814278e-01 -1.577613e-01  0.000000e+00
     vertex -2.500000e-01 -2.031250e-01  0.000000e+00
     vertex -2.349385e-01 -2.251127e-01  0.000000e+00
   endloop
 endfacet
 facet normal  0.000000e+00  0.000000e+00 -1.000000e+00
   outer loop
     vertex -2.500000e-01 -2.031250e-01  0.000000e+00
     vertex -2.814278e-01 -1.577613e-01  0.000000e+00
     vertex -2.500000e-01  1.745066e-01  0.000000e+00
   endloop
 endfacet
 facet normal  0.000000e+00  0.000000e+00 -1.000000e+00
   outer loop
     vertex -2.814278e-01 -1.577613e-01  0.000000e+00
     vertex -3.104480e-01 -8.124137e-02  0.000000e+00
     vertex -2.500000e-01  1.745066e-01  0.000000e+00
   endloop
 endfacet
 facet normal  0.000000e+00  0.000000e+00 -1.000000e+00
   outer loop
     vertex -3.104480e-01 -8.124137e-02  0.000000e+00
     vertex -3.203125e-01  3.430867e-16  0.000000e+00
     vertex -2.500000e-01  1.745066e-01  0.000000e+00
   endloop
 endfacet
 facet normal  0.000000e+00  0.000000e+00 -1.000000e+00
   outer loop
     vertex -3.203125e-01  3.430867e-16  0.000000e+00
     vertex -3.104480e-01  8.124137e-02  0.000000e+00
     vertex -2.500000e-01  1.745066e-01  0.000000e+00
   endloop
 endfacet
 facet normal  0.000000e+00  0.000000e+00  1.000000e+00
   outer loop
     vertex -1.704600e-01 -1.591111e-01  7.500000e-01
     vertex -2.748317e-01 -1.697368e-01  7.500000e-01
     vertex -2.208830e-01 -2.400441e-01  7.500000e-01
   endloop
 endfacet
 facet normal  0.000000e+00  0.000000e+00  1.000000e+00
   outer loop
     vertex -1.046053e-01 -2.143698e-01  7.500000e-01
     vertex -2.208830e-01 -2.400441e-01  7.500000e-01
     vertex -1.505757e-01 -2.939928e-01  7.500000e-01
   endloop
 endfacet
 facet normal  0.000000e+00  0.000000e+00  1.000000e+00
   outer loop
     vertex -1.046053e-01 -2.143698e-01  7.500000e-01
     vertex -1.505757e-01 -2.939928e-01  7.500000e-01
     vertex -6.870107e-02 -3.279064e-01  7.500000e-01
   endloop
 endfacet
 facet normal  0.000000e+00  0.000000e+00  1.000000e+00
   outer loop
     vertex -1.046053e-01 -2.143698e-01  7.500000e-01
     vertex -1.704600e-01 -1.591111e-01  7.500000e-01
     vertex -2.208830e-01 -2.400441e-01  7.500000e-01
   endloop
 endfacet
 facet normal  0.000000e+00  0.000000e+00  1.000000e+00
   outer loop
     vertex -2.134437e-01 -8.466124e-02  7.500000e-01
     vertex -3.087452e-01 -8.786225e-02  7.500000e-01
     vertex -2.748317e-01 -1.697368e-01  7.500000e-01
   endloop
 endfacet
 facet normal  0.000000e+00  0.000000e+00  1.000000e+00
   outer loop
     vertex -2.134437e-01 -8.466124e-02  7.500000e-01
     vertex -2.748317e-01 -1.697368e-01  7.500000e-01
     vertex -1.704600e-01 -1.591111e-01  7.500000e-01
   endloop
 endfacet
 facet normal  0.000000e+00  0.000000e+00  1.000000e+00
   outer loop
     vertex -2.382245e-02 -2.437723e-01  7.500000e-01
     vertex -6.870107e-02 -3.279064e-01  7.500000e-01
     vertex  1.916118e-02 -3.394737e-01  7.500000e-01
   endloop
 endfacet
 facet normal  0.000000e+00  0.000000e+00  1.000000e+00
   outer loop
     vertex -2.382245e-02 -2.437723e-01  7.500000e-01
     vertex -1.046053e-01 -2.143698e-01  7.500000e-01
     vertex -6.870107e-02 -3.279064e-01  7.500000e-01
   endloop
 endfacet
 facet normal  0.000000e+00  0.000000e+00  1.000000e+00
   outer loop
     vertex -2.283717e-01  3.031404e-17  7.500000e-01
     vertex -3.203125e-01 -1.091831e-16  7.500000e-01
     vertex -3.087452e-01 -8.786225e-02  7.500000e-01
   endloop
 endfacet
 facet normal  0.000000e+00  0.000000e+00  1.000000e+00
   outer loop
     vertex -2.283717e-01  3.031404e-17  7.500000e-01
     vertex -3.087452e-01 -8.786225e-02  7.500000e-01
     vertex -2.134437e-01 -8.466124e-02  7.500000e-01
   endloop
 endfacet
 facet normal  0.000000e+00  0.000000e+00  1.000000e+00
   outer loop
     vertex -3.087452e-01  8.786225e-02  7.500000e-01
     vertex -3.203125e-01 -1.091831e-16  7.500000e-01
     vertex -2.283717e-01  3.031404e-17  7.500000e-01
   endloop
 endfacet
 facet normal  0.000000e+00  0.000000e+00  1.000000e+00
   outer loop
     vertex  6.214482e-02 -2.437723e-01  7.500000e-01
     vertex  1.916118e-02 -3.394737e-01  7.500000e-01
     vertex  1.070234e-01 -3.279064e-01  7.500000e-01
   endloop
 endfacet
 facet normal  0.000000e+00  0.000000e+00  1.000000e+00
   outer loop
     vertex  6.214482e-02 -2.437723e-01  7.500000e-01
     vertex -2.382245e-02 -2.437723e-01  7.500000e-01
     vertex  1.916118e-02 -3.394737e-01  7.500000e-01
   endloop
 endfacet
 facet normal  0.000000e+00  0.000000e+00  1.000000e+00
   outer loop
     vertex -2.134437e-01  8.466124e-02  7.500000e-01
     vertex -3.087452e-01  8.786225e-02  7.500000e-01
     vertex -2.283717e-01  3.031404e-17  7.500000e-01
   endloop
 endfacet
 facet normal  0.000000e+00  0.000000e+00  1.000000e+00
   outer loop
     vertex -2.748317e-01  1.697368e-01  7.500000e-01
     vertex -3.087452e-01  8.786225e-02  7.500000e-01
     vertex -2.134437e-01  8.466124e-02  7.500000e-01
   endloop
 endfacet
 facet normal  0.000000e+00  0.000000e+00  1.000000e+00
   outer loop
     vertex  1.429276e-01 -2.143698e-01  7.500000e-01
     vertex  1.070234e-01 -3.279064e-01  7.500000e-01
     vertex  1.888980e-01 -2.939928e-01  7.500000e-01
   endloop
 endfacet
 facet normal  0.000000e+00  0.000000e+00  1.000000e+00
   outer loop
     vertex  1.429276e-01 -2.143698e-01  7.500000e-01
     vertex  6.214482e-02 -2.437723e-01  7.500000e-01
     vertex  1.070234e-01 -3.279064e-01  7.500000e-01
   endloop
 endfacet
 facet normal  0.000000e+00  0.000000e+00  1.000000e+00
   outer loop
     vertex -1.704600e-01  1.591111e-01  7.500000e-01
     vertex -2.748317e-01  1.697368e-01  7.500000e-01
     vertex -2.134437e-01  8.466124e-02  7.500000e-01
   endloop
 endfacet
 facet normal  0.000000e+00  0.000000e+00  1.000000e+00
   outer loop
     vertex  2.592053e-01 -2.400441e-01  7.500000e-01
     vertex  1.429276e-01 -2.143698e-01  7.500000e-01
     vertex  1.888980e-01 -2.939928e-01  7.500000e-01
   endloop
 endfacet
 facet normal  0.000000e+00  0.000000e+00  1.000000e+00
   outer loop
     vertex -2.208830e-01  2.400441e-01  7.500000e-01
     vertex -2.748317e-01  1.697368e-01  7.500000e-01
     vertex -1.704600e-01  1.591111e-01  7.500000e-01
   endloop
 endfacet
 facet normal  0.000000e+00  0.000000e+00  1.000000e+00
   outer loop
     vertex  2.087824e-01 -1.591111e-01  7.500000e-01
     vertex  1.429276e-01 -2.143698e-01  7.500000e-01
     vertex  2.592053e-01 -2.400441e-01  7.500000e-01
   endloop
 endfacet
 facet normal  0.000000e+00  0.000000e+00  1.000000e+00
   outer loop
     vertex -1.046053e-01  2.143698e-01  7.500000e-01
     vertex -2.208830e-01  2.400441e-01  7.500000e-01
     vertex -1.704600e-01  1.591111e-01  7.500000e-01
   endloop
 endfacet
 facet normal  0.000000e+00  0.000000e+00  1.000000e+00
   outer loop
     vertex  3.131540e-01 -1.697368e-01  7.500000e-01
     vertex  2.087824e-01 -1.591111e-01  7.500000e-01
     vertex  2.592053e-01 -2.400441e-01  7.500000e-01
   endloop
 endfacet
 facet normal  0.000000e+00  0.000000e+00  1.000000e+00
   outer loop
     vertex -1.505757e-01  2.939928e-01  7.500000e-01
     vertex -2.208830e-01  2.400441e-01  7.500000e-01
     vertex -1.046053e-01  2.143698e-01  7.500000e-01
   endloop
 endfacet
 facet normal  0.000000e+00  0.000000e+00  1.000000e+00
   outer loop
     vertex  2.517660e-01 -8.466124e-02  7.500000e-01
     vertex  2.087824e-01 -1.591111e-01  7.500000e-01
     vertex  3.131540e-01 -1.697368e-01  7.500000e-01
   endloop
 endfacet
 facet normal  0.000000e+00  0.000000e+00  1.000000e+00
   outer loop
     vertex  3.470676e-01 -8.786225e-02  7.500000e-01
     vertex  2.517660e-01 -8.466124e-02  7.500000e-01
     vertex  3.131540e-01 -1.697368e-01  7.500000e-01
   endloop
 endfacet
 facet normal  0.000000e+00  0.000000e+00  1.000000e+00
   outer loop
     vertex -6.870107e-02  3.279064e-01  7.500000e-01
     vertex -1.046053e-01  2.143698e-01  7.500000e-01
     vertex -2.382245e-02  2.437723e-01  7.500000e-01
   endloop
 endfacet
 facet normal  0.000000e+00  0.000000e+00  1.000000e+00
   outer loop
     vertex -6.870107e-02  3.279064e-01  7.500000e-01
     vertex -1.505757e-01  2.939928e-01  7.500000e-01
     vertex -1.046053e-01  2.143698e-01  7.500000e-01
   endloop
 endfacet
 facet normal  0.000000e+00  0.000000e+00  1.000000e+00
   outer loop
     vertex  2.666941e-01  0.000000e+00  7.500000e-01
     vertex  2.517660e-01 -8.466124e-02  7.500000e-01
     vertex  3.470676e-01 -8.786225e-02  7.500000e-01
   endloop
 endfacet
 facet normal  0.000000e+00  0.000000e+00  1.000000e+00
   outer loop
     vertex  3.586349e-01  0.000000e+00  7.500000e-01
     vertex  2.666941e-01  0.000000e+00  7.500000e-01
     vertex  3.470676e-01 -8.786225e-02  7.500000e-01
   endloop
 endfacet
 facet normal  0.000000e+00  0.000000e+00  1.000000e+00
   outer loop
     vertex  1.916118e-02  3.394737e-01  7.500000e-01
     vertex -6.870107e-02  3.279064e-01  7.500000e-01
     vertex -2.382245e-02  2.437723e-01  7.500000e-01
   endloop
 endfacet
 facet normal  0.000000e+00  0.000000e+00  1.000000e+00
   outer loop
     vertex  1.916118e-02  3.394737e-01  7.500000e-01
     vertex -2.382245e-02  2.437723e-01  7.500000e-01
     vertex  6.214482e-02  2.437723e-01  7.500000e-01
   endloop
 endfacet
 facet normal  0.000000e+00  0.000000e+00  1.000000e+00
   outer loop
     vertex  1.070234e-01  3.279064e-01  7.500000e-01
     vertex  1.916118e-02  3.394737e-01  7.500000e-01
     vertex  6.214482e-02  2.437723e-01  7.500000e-01
   endloop
 endfacet
 facet normal  0.000000e+00  0.000000e+00  1.000000e+00
   outer loop
     vertex  1.070234e-01  3.279064e-01  7.500000e-01
     vertex  6.214482e-02  2.437723e-01  7.500000e-01
     vertex  1.429276e-01  2.143698e-01  7.500000e-01
   endloop
 endfacet
 facet normal  0.000000e+00  0.000000e+00  1.000000e+00
   outer loop
     vertex  3.470676e-01  8.786225e-02  7.500000e-01
     vertex  2.666941e-01  0.000000e+00  7.500000e-01
     vertex  3.586349e-01  0.000000e+00  7.500000e-01
   endloop
 endfacet
 facet normal  0.000000e+00  0.000000e+00  1.000000e+00
   outer loop
     vertex  3.470676e-01  8.786225e-02  7.500000e-01
     vertex  2.517660e-01  8.466124e-02  7.500000e-01
     vertex  2.666941e-01  0.000000e+00  7.500000e-01
   endloop
 endfacet
 facet normal  0.000000e+00  0.000000e+00  1.000000e+00
   outer loop
     vertex  1.888980e-01  2.939928e-01  7.500000e-01
     vertex  1.070234e-01  3.279064e-01  7.500000e-01
     vertex  1.429276e-01  2.143698e-01  7.500000e-01
   endloop
 endfacet
 facet normal  0.000000e+00  0.000000e+00  1.000000e+00
   outer loop
     vertex  3.131540e-01  1.697368e-01  7.500000e-01
     vertex  2.517660e-01  8.466124e-02  7.500000e-01
     vertex  3.470676e-01  8.786225e-02  7.500000e-01
   endloop
 endfacet
 facet normal  0.000000e+00  0.000000e+00  1.000000e+00
   outer loop
     vertex  3.131540e-01  1.697368e-01  7.500000e-01
     vertex  2.087824e-01  1.591111e-01  7.500000e-01
     vertex  2.517660e-01  8.466124e-02  7.500000e-01
   endloop
 endfacet
 facet normal  0.000000e+00  0.000000e+00  1.000000e+00
   outer loop
     vertex  2.592053e-01  2.400441e-01  7.500000e-01
     vertex  1.888980e-01  2.939928e-01  7.500000e-01
     vertex  1.429276e-01  2.143698e-01  7.500000e-01
   endloop
 endfacet
 facet normal  0.000000e+00  0.000000e+00  1.000000e+00
   outer loop
     vertex  2.592053e-01  2.400441e-01  7.500000e-01
     vertex  2.087824e-01  1.591111e-01  7.500000e-01
     vertex  3.131540e-01  1.697368e-01  7.500000e-01
   endloop
 endfacet
 facet normal  0.000000e+00  0.000000e+00  1.000000e+00
   outer loop
     vertex  2.592053e-01  2.400441e-01  7.500000e-01
     vertex  1.429276e-01  2.143698e-01  7.500000e-01
     vertex  2.087824e-01  1.591111e-01  7.500000e-01
   endloop
 endfacet
 facet normal -9.906087e-01  1.367275e-01  0.000000e+00
   outer loop
     vertex  2.574391e-01 -6.705344e-02  0.000000e+00
     vertex  2.666941e-01  0.000000e+00  7.500000e-01
     vertex  2.666941e-01  0.000000e+00  0.000000e+00
   endloop
 endfacet
 facet normal -9.848022e-01  1.736472e-01 -3.372438e-03
   outer loop
     vertex  2.574391e-01 -6.705344e-02  0.000000e+00
     vertex  2.517660e-01 -8.466124e-02  7.500000e-01
     vertex  2.666941e-01  0.000000e+00  7.500000e-01
   endloop
 endfacet
 facet normal -8.660150e-01  4.999940e-01 -4.910668e-03
   outer loop
     vertex  2.303663e-01 -1.290928e-01  0.000000e+00
     vertex  2.087824e-01 -1.591111e-01  7.500000e-01
     vertex  2.517660e-01 -8.466124e-02  7.500000e-01
   endloop
 endfacet
 facet normal -9.165305e-01  3.999573e-01  2.457072e-03
   outer loop
     vertex  2.303663e-01 -1.290928e-01  0.000000e+00
     vertex  2.517660e-01 -8.466124e-02  7.500000e-01
     vertex  2.574391e-01 -6.705344e-02  0.000000e+00
   endloop
 endfacet
 facet normal -7.682368e-01  6.401561e-01  3.513146e-03
   outer loop
     vertex  1.875000e-01 -1.814789e-01  1.718750e-01
     vertex  2.087824e-01 -1.591111e-01  7.500000e-01
     vertex  2.303663e-01 -1.290928e-01  0.000000e+00
   endloop
 endfacet
 facet normal -6.427740e-01  7.660282e-01 -6.502435e-03
   outer loop
     vertex  1.788815e-01 -1.891084e-01  1.718750e-01
     vertex  1.429276e-01 -2.143698e-01  7.500000e-01
     vertex  2.087824e-01 -1.591111e-01  7.500000e-01
   endloop
 endfacet
 facet normal -6.628298e-01  7.487561e-01 -4.568938e-03
   outer loop
     vertex  1.788815e-01 -1.891084e-01  1.718750e-01
     vertex  2.087824e-01 -1.591111e-01  7.500000e-01
     vertex  1.875000e-01 -1.814789e-01  1.718750e-01
   endloop
 endfacet
 facet normal -6.273040e-01  7.787585e-01 -4.984091e-03
   outer loop
     vertex  1.699176e-01 -1.963289e-01  1.718750e-01
     vertex  1.429276e-01 -2.143698e-01  7.500000e-01
     vertex  1.788815e-01 -1.891084e-01  1.718750e-01
   endloop
 endfacet
 facet normal -7.739216e-01  6.332814e-01  0.000000e+00
   outer loop
     vertex  1.875000e-01 -1.814789e-01  0.000000e+00
     vertex  1.875000e-01 -1.814789e-01  1.718750e-01
     vertex  2.303663e-01 -1.290928e-01  0.000000e+00
   endloop
 endfacet
 facet normal -5.904287e-01  8.070863e-01 -2.378570e-03
   outer loop
     vertex  1.606277e-01 -2.031250e-01  1.718750e-01
     vertex  1.429276e-01 -2.143698e-01  7.500000e-01
     vertex  1.699176e-01 -1.963289e-01  1.718750e-01
   endloop
 endfacet
 facet normal -4.405891e-01  8.977089e-01  0.000000e+00
   outer loop
     vertex  9.329759e-02 -2.361701e-01  0.000000e+00
     vertex  1.606277e-01 -2.031250e-01  1.718750e-01
     vertex  1.606277e-01 -2.031250e-01  0.000000e+00
   endloop
 endfacet
 facet normal -3.420164e-01  9.396823e-01 -4.681486e-03
   outer loop
     vertex  9.329759e-02 -2.361701e-01  0.000000e+00
     vertex  6.214482e-02 -2.437723e-01  7.500000e-01
     vertex  1.429276e-01 -2.143698e-01  7.500000e-01
   endloop
 endfacet
 facet normal -4.481171e-01  8.939674e-01  3.668358e-03
   outer loop
     vertex  9.329759e-02 -2.361701e-01  0.000000e+00
     vertex  1.429276e-01 -2.143698e-01  7.500000e-01
     vertex  1.606277e-01 -2.031250e-01  1.718750e-01
   endloop
 endfacet
 facet normal  9.685742e-16  9.999874e-01 -5.014045e-03
   outer loop
     vertex  1.916118e-02 -2.475329e-01  0.000000e+00
     vertex -2.382245e-02 -2.437723e-01  7.500000e-01
     vertex  6.214482e-02 -2.437723e-01  7.500000e-01
   endloop
 endfacet
 facet normal -1.514983e-01  9.884505e-01  3.726398e-03
   outer loop
     vertex  1.916118e-02 -2.475329e-01  0.000000e+00
     vertex  6.214482e-02 -2.437723e-01  7.500000e-01
     vertex  9.329759e-02 -2.361701e-01  0.000000e+00
   endloop
 endfacet
 facet normal  3.420164e-01  9.396823e-01 -4.681486e-03
   outer loop
     vertex -5.497523e-02 -2.361701e-01  0.000000e+00
     vertex -1.046053e-01 -2.143698e-01  7.500000e-01
     vertex -2.382245e-02 -2.437723e-01  7.500000e-01
   endloop
 endfacet
 facet normal  1.514983e-01  9.884505e-01  3.726398e-03
   outer loop
     vertex -5.497523e-02 -2.361701e-01  0.000000e+00
     vertex -2.382245e-02 -2.437723e-01  7.500000e-01
     vertex  1.916118e-02 -2.475329e-01  0.000000e+00
   endloop
 endfacet
 facet normal  6.427803e-01  7.660357e-01 -4.779832e-03
   outer loop
     vertex -1.223053e-01 -2.031250e-01  1.718750e-01
     vertex -1.704600e-01 -1.591111e-01  7.500000e-01
     vertex -1.046053e-01 -2.143698e-01  7.500000e-01
   endloop
 endfacet
 facet normal  4.481171e-01  8.939674e-01  3.668358e-03
   outer loop
     vertex -1.223053e-01 -2.031250e-01  1.718750e-01
     vertex -1.046053e-01 -2.143698e-01  7.500000e-01
     vertex -5.497523e-02 -2.361701e-01  0.000000e+00
   endloop
 endfacet
 facet normal  4.405891e-01  8.977089e-01  2.563406e-12
   outer loop
     vertex -1.223053e-01 -2.031250e-01  0.000000e+00
     vertex -1.223053e-01 -2.031250e-01  1.718750e-01
     vertex -5.497523e-02 -2.361701e-01  0.000000e+00
   endloop
 endfacet
 facet normal  8.660155e-01  4.999943e-01 -4.776199e-03
   outer loop
     vertex -1.832332e-01 -1.425098e-01  1.718750e-01
     vertex -2.134437e-01 -8.466124e-02  7.500000e-01
     vertex -1.704600e-01 -1.591111e-01  7.500000e-01
   endloop
 endfacet
 facet normal  7.052772e-01  7.089156e-01  4.774500e-03
   outer loop
     vertex -1.832332e-01 -1.425098e-01  1.718750e-01
     vertex -1.704600e-01 -1.591111e-01  7.500000e-01
     vertex -1.223053e-01 -2.031250e-01  1.718750e-01
   endloop
 endfacet
 facet normal  9.847965e-01  1.736462e-01 -4.772561e-03
   outer loop
     vertex -2.197624e-01 -6.471507e-02  1.718750e-01
     vertex -2.283717e-01  3.031404e-17  7.500000e-01
     vertex -2.134437e-01 -8.466124e-02  7.500000e-01
   endloop
 endfacet
 facet normal  9.051670e-01  4.250294e-01  4.770865e-03
   outer loop
     vertex -2.197624e-01 -6.471507e-02  1.718750e-01
     vertex -2.134437e-01 -8.466124e-02  7.500000e-01
     vertex -1.832332e-01 -1.425098e-01  1.718750e-01
   endloop
 endfacet
 facet normal  9.847966e-01 -1.736462e-01 -4.768921e-03
   outer loop
     vertex -2.274894e-01  2.088109e-02  1.718750e-01
     vertex -2.134437e-01  8.466124e-02  7.500000e-01
     vertex -2.283717e-01  3.031404e-17  7.500000e-01
   endloop
 endfacet
 facet normal  9.959389e-01  8.990585e-02  4.767226e-03
   outer loop
     vertex -2.274894e-01  2.088109e-02  1.718750e-01
     vertex -2.283717e-01  3.031404e-17  7.500000e-01
     vertex -2.197624e-01 -6.471507e-02  1.718750e-01
   endloop
 endfacet
 facet normal  9.666502e-01 -2.560559e-01  4.763583e-03
   outer loop
     vertex -2.054826e-01  1.039600e-01  1.718750e-01
     vertex -2.134437e-01  8.466124e-02  7.500000e-01
     vertex -2.274894e-01  2.088109e-02  1.718750e-01
   endloop
 endfacet
 facet normal  8.660156e-01 -4.999943e-01 -4.765276e-03
   outer loop
     vertex -2.054826e-01  1.039600e-01  1.718750e-01
     vertex -1.704600e-01  1.591111e-01  7.500000e-01
     vertex -2.134437e-01  8.466124e-02  7.500000e-01
   endloop
 endfacet
 facet normal  8.208319e-01 -5.711500e-01  4.759936e-03
   outer loop
     vertex -1.563950e-01  1.745066e-01  1.718750e-01
     vertex -1.704600e-01  1.591111e-01  7.500000e-01
     vertex -2.054826e-01  1.039600e-01  1.718750e-01
   endloop
 endfacet
 facet normal  6.427803e-01 -7.660358e-01 -4.761627e-03
   outer loop
     vertex -1.563950e-01  1.745066e-01  1.718750e-01
     vertex -1.046053e-01  2.143698e-01  7.500000e-01
     vertex -1.704600e-01  1.591111e-01  7.500000e-01
   endloop
 endfacet
 facet normal  5.809398e-01 -8.139465e-01  0.000000e+00
   outer loop
     vertex -8.881214e-02  2.227427e-01  0.000000e+00
     vertex -1.563950e-01  1.745066e-01  1.718750e-01
     vertex -1.563950e-01  1.745066e-01  0.000000e+00
   endloop
 endfacet
 facet normal  5.864966e-01 -8.099449e-01  3.308045e-03
   outer loop
     vertex -8.881214e-02  2.227427e-01  0.000000e+00
     vertex -1.046053e-01  2.143698e-01  7.500000e-01
     vertex -1.563950e-01  1.745066e-01  1.718750e-01
   endloop
 endfacet
 facet normal  3.420183e-01 -9.396875e-01 -3.288486e-03
   outer loop
     vertex -8.881214e-02  2.227427e-01  0.000000e+00
     vertex -2.382245e-02  2.437723e-01  7.500000e-01
     vertex -1.046053e-01  2.143698e-01  7.500000e-01
   endloop
 endfacet
 facet normal  2.790975e-01 -9.602588e-01  2.740591e-03
   outer loop
     vertex -9.080461e-03  2.459165e-01  0.000000e+00
     vertex -2.382245e-02  2.437723e-01  7.500000e-01
     vertex -8.881214e-02  2.227427e-01  0.000000e+00
   endloop
 endfacet
 facet normal  0.000000e+00 -9.999959e-01 -2.858953e-03
   outer loop
     vertex -9.080461e-03  2.459165e-01  0.000000e+00
     vertex  6.214482e-02  2.437723e-01  7.500000e-01
     vertex -2.382245e-02  2.437723e-01  7.500000e-01
   endloop
 endfacet
 facet normal -5.414567e-02 -9.985304e-01  2.287290e-03
   outer loop
     vertex  7.382887e-02  2.414207e-01  0.000000e+00
     vertex  6.214482e-02  2.437723e-01  7.500000e-01
     vertex -9.080461e-03  2.459165e-01  0.000000e+00
   endloop
 endfacet
 facet normal -3.420192e-01 -9.396900e-01 -2.381902e-03
   outer loop
     vertex  7.382887e-02  2.414207e-01  0.000000e+00
     vertex  1.429276e-01  2.143698e-01  7.500000e-01
     vertex  6.214482e-02  2.437723e-01  7.500000e-01
   endloop
 endfacet
 facet normal -6.427865e-01 -7.660431e-01 -1.857402e-03
   outer loop
     vertex  1.505872e-01  2.097612e-01  0.000000e+00
     vertex  2.087824e-01  1.591111e-01  7.500000e-01
     vertex  1.429276e-01  2.143698e-01  7.500000e-01
   endloop
 endfacet
 facet normal -3.812973e-01 -9.244507e-01  1.786505e-03
   outer loop
     vertex  1.505872e-01  2.097612e-01  0.000000e+00
     vertex  1.429276e-01  2.143698e-01  7.500000e-01
     vertex  7.382887e-02  2.414207e-01  0.000000e+00
   endloop
 endfacet
 facet normal -8.660247e-01 -4.999996e-01 -1.285528e-03
   outer loop
     vertex  2.125579e-01  1.545000e-01  0.000000e+00
     vertex  2.517660e-01  8.466124e-02  7.500000e-01
     vertex  2.087824e-01  1.591111e-01  7.500000e-01
   endloop
 endfacet
 facet normal -6.655472e-01 -7.463547e-01  1.238307e-03
   outer loop
     vertex  2.125579e-01  1.545000e-01  0.000000e+00
     vertex  2.087824e-01  1.591111e-01  7.500000e-01
     vertex  1.505872e-01  2.097612e-01  0.000000e+00
   endloop
 endfacet
 facet normal -9.848075e-01 -1.736481e-01 -6.663643e-04
   outer loop
     vertex  2.527683e-01  8.185501e-02  0.000000e+00
     vertex  2.666941e-01  0.000000e+00  7.500000e-01
     vertex  2.517660e-01  8.466124e-02  7.500000e-01
   endloop
 endfacet
 facet normal -8.749123e-01 -4.842810e-01  6.427763e-04
   outer loop
     vertex  2.527683e-01  8.185501e-02  0.000000e+00
     vertex  2.517660e-01  8.466124e-02  7.500000e-01
     vertex  2.125579e-01  1.545000e-01  0.000000e+00
   endloop
 endfacet
 facet normal -9.858351e-01 -1.677174e-01  0.000000e+00
   outer loop
     vertex  2.666941e-01  0.000000e+00  0.000000e+00
     vertex  2.666941e-01  0.000000e+00  7.500000e-01
     vertex  2.527683e-01  8.185501e-02  0.000000e+00
   endloop
 endfacet
 facet normal  0.000000e+00  0.000000e+00 -1.000000e+00
   outer loop
     vertex -1.223053e-01 -2.031250e-01  0.000000e+00
     vertex -2.500000e-01 -2.031250e-01  0.000000e+00
     vertex -1.832332e-01 -1.425098e-01  0.000000e+00
   endloop
 endfacet
 facet normal  0.000000e+00 -0.000000e+00 -1.000000e+00
   outer loop
     vertex -2.197624e-01 -6.471507e-02  0.000000e+00
     vertex -1.832332e-01 -1.425098e-01  0.000000e+00
     vertex -2.500000e-01 -2.031250e-01  0.000000e+00
   endloop
 endfacet
 facet normal  0.000000e+00  0.000000e+00 -1.000000e+00
   outer loop
     vertex -2.500000e-01  1.745066e-01  0.000000e+00
     vertex -2.054826e-01  1.039600e-01  0.000000e+00
     vertex -2.274894e-01  2.088109e-02  0.000000e+00
   endloop
 endfacet
 facet normal -0.000000e+00  0.000000e+00 -1.000000e+00
   outer loop
     vertex -1.563950e-01  1.745066e-01  0.000000e+00
     vertex -2.054826e-01  1.039600e-01  0.000000e+00
     vertex -2.500000e-01  1.745066e-01  0.000000e+00
   endloop
 endfacet
 facet normal  0.000000e+00  0.000000e+00 -1.000000e+00
   outer loop
     vertex -2.500000e-01  1.745066e-01  0.000000e+00
     vertex -2.274894e-01  2.088109e-02  0.000000e+00
     vertex -2.500000e-01 -2.031250e-01  0.000000e+00
   endloop
 endfacet
 facet normal  0.000000e+00 -0.000000e+00 -1.000000e+00
   outer loop
     vertex -2.274894e-01  2.088109e-02  0.000000e+00
     vertex -2.197624e-01 -6.471507e-02  0.000000e+00
     vertex -2.500000e-01 -2.031250e-01  0.000000e+00
   endloop
 endfacet
 facet normal  0.000000e+00  0.000000e+00 -1.000000e+00
   outer loop
     vertex  1.875000e-01 -2.031250e-01  0.000000e+00
     vertex  1.606277e-01 -2.031250e-01  0.000000e+00
     vertex  1.699176e-01 -1.963289e-01  0.000000e+00
   endloop
 endfacet
 facet normal  0.000000e+00 -0.000000e+00 -1.000000e+00
   outer loop
     vertex  1.788815e-01 -1.891084e-01  0.000000e+00
     vertex  1.875000e-01 -2.031250e-01  0.000000e+00
     vertex  1.699176e-01 -1.963289e-01  0.000000e+00
   endloop
 endfacet
 facet normal  0.000000e+00 -0.000000e+00 -1.000000e+00
   outer loop
     vertex  1.875000e-01 -1.814789e-01  0.000000e+00
     vertex  1.875000e-01 -2.031250e-01  0.000000e+00
     vertex  1.788815e-01 -1.891084e-01  0.000000e+00
   endloop
 endfacet
 facet normal  0.000000e+00  1.000000e+00  0.000000e+00
   outer loop
     vertex -1.563950e-01  1.745066e-01  0.000000e+00
     vertex  1.875000e-01  1.745066e-01  1.718750e-01
     vertex  1.875000e-01  1.745066e-01  0.000000e+00
   endloop
 endfacet
 facet normal  0.000000e+00  1.000000e+00  0.000000e+00
   outer loop
     vertex -1.563950e-01  1.745066e-01  0.000000e+00
     vertex -1.563950e-01  1.745066e-01  1.718750e-01
     vertex  1.875000e-01  1.745066e-01  1.718750e-01
   endloop
 endfacet
 facet normal  0.000000e+00  0.000000e+00  1.000000e+00
   outer loop
     vertex  1.875000e-01  1.745066e-01  1.718750e-01
     vertex -1.832332e-01 -1.425098e-01  1.718750e-01
     vertex -1.223053e-01 -2.031250e-01  1.718750e-01
   endloop
 endfacet
 facet normal  0.000000e+00  0.000000e+00  1.000000e+00
   outer loop
     vertex  1.875000e-01  1.745066e-01  1.718750e-01
     vertex -2.197624e-01 -6.471507e-02  1.718750e-01
     vertex -1.832332e-01 -1.425098e-01  1.718750e-01
   endloop
 endfacet
 facet normal  0.000000e+00  0.000000e+00  1.000000e+00
   outer loop
     vertex  1.875000e-01  1.745066e-01  1.718750e-01
     vertex -2.274894e-01  2.088109e-02  1.718750e-01
     vertex -2.197624e-01 -6.471507e-02  1.718750e-01
   endloop
 endfacet
 facet normal  0.000000e+00  0.000000e+00  1.000000e+00
   outer loop
     vertex  1.875000e-01  1.745066e-01  1.718750e-01
     vertex -2.054826e-01  1.039600e-01  1.718750e-01
     vertex -2.274894e-01  2.088109e-02  1.718750e-01
   endloop
 endfacet
 facet normal  0.000000e+00  0.000000e+00  1.000000e+00
   outer loop
     vertex  1.875000e-01  1.745066e-01  1.718750e-01
     vertex -1.563950e-01  1.745066e-01  1.718750e-01
     vertex -2.054826e-01  1.039600e-01  1.718750e-01
   endloop
 endfacet
 facet normal  0.000000e+00  0.000000e+00  1.000000e+00
   outer loop
     vertex  1.875000e-01  1.745066e-01  1.718750e-01
     vertex -1.223053e-01 -2.031250e-01  1.718750e-01
     vertex  1.606277e-01 -2.031250e-01  1.718750e-01
   endloop
 endfacet
 facet normal  0.000000e+00  0.000000e+00  1.000000e+00
   outer loop
     vertex  1.875000e-01  1.745066e-01  1.718750e-01
     vertex  1.788815e-01 -1.891084e-01  1.718750e-01
     vertex  1.875000e-01 -1.814789e-01  1.718750e-01
   endloop
 endfacet
 facet normal  0.000000e+00  0.000000e+00  1.000000e+00
   outer loop
     vertex  1.875000e-01  1.745066e-01  1.718750e-01
     vertex  1.699176e-01 -1.963289e-01  1.718750e-01
     vertex  1.788815e-01 -1.891084e-01  1.718750e-01
   endloop
 endfacet
 facet normal  0.000000e+00  0.000000e+00  1.000000e+00
   outer loop
     vertex  1.875000e-01  1.745066e-01  1.718750e-01
     vertex  1.606277e-01 -2.031250e-01  1.718750e-01
     vertex  1.699176e-01 -1.963289e-01  1.718750e-01
   endloop
 endfacet
 facet normal  0.000000e+00 -1.000000e+00  0.000000e+00
   outer loop
     vertex  1.606277e-01 -2.031250e-01  0.000000e+00
     vertex -1.223053e-01 -2.031250e-01  1.718750e-01
     vertex -1.223053e-01 -2.031250e-01  0.000000e+00
   endloop
 endfacet
 facet normal  0.000000e+00 -1.000000e+00  0.000000e+00
   outer loop
     vertex  1.606277e-01 -2.031250e-01  0.000000e+00
     vertex  1.606277e-01 -2.031250e-01  1.718750e-01
     vertex -1.223053e-01 -2.031250e-01  1.718750e-01
   endloop
 endfacet
 facet normal  1.000000e+00  0.000000e+00  0.000000e+00
   outer loop
     vertex  1.875000e-01  1.745066e-01  0.000000e+00
     vertex  1.875000e-01 -1.814789e-01  1.718750e-01
     vertex  1.875000e-01 -1.814789e-01  0.000000e+00
   endloop
 endfacet
 facet normal  1.000000e+00  0.000000e+00 -0.000000e+00
   outer loop
     vertex  1.875000e-01  1.745066e-01  0.000000e+00
     vertex  1.875000e-01  1.745066e-01  1.718750e-01
     vertex  1.875000e-01 -1.814789e-01  1.718750e-01
   endloop
 endfacet
 facet normal -0.000000e+00  0.000000e+00 -1.000000e+00
   outer loop
     vertex  1.875000e-01  1.745066e-01  0.000000e+00
     vertex -2.054826e-01  1.039600e-01  0.000000e+00
     vertex -1.563950e-01  1.745066e-01  0.000000e+00
   endloop
 endfacet
 facet normal  0.000000e+00  0.000000e+00 -1.000000e+00
   outer loop
     vertex  1.875000e-01  1.745066e-01  0.000000e+00
     vertex -2.274894e-01  2.088109e-02  0.000000e+00
     vertex -2.054826e-01  1.039600e-01  0.000000e+00
   endloop
 endfacet
 facet normal  0.000000e+00  0.000000e+00 -1.000000e+00
   outer loop
     vertex  1.875000e-01  1.745066e-01  0.000000e+00
     vertex -2.197624e-01 -6.471507e-02  0.000000e+00
     vertex -2.274894e-01  2.088109e-02  0.000000e+00
   endloop
 endfacet
 facet normal  0.000000e+00  0.000000e+00 -1.000000e+00
   outer loop
     vertex  1.875000e-01  1.745066e-01  0.000000e+00
     vertex -1.832332e-01 -1.425098e-01  0.000000e+00
     vertex -2.197624e-01 -6.471507e-02  0.000000e+00
   endloop
 endfacet
 facet normal  0.000000e+00  0.000000e+00 -1.000000e+00
   outer loop
     vertex  1.875000e-01  1.745066e-01  0.000000e+00
     vertex -1.223053e-01 -2.031250e-01  0.000000e+00
     vertex -1.832332e-01 -1.425098e-01  0.000000e+00
   endloop
 endfacet
 facet normal  0.000000e+00  0.000000e+00 -1.000000e+00
   outer loop
     vertex  1.875000e-01  1.745066e-01  0.000000e+00
     vertex  1.606277e-01 -2.031250e-01  0.000000e+00
     vertex -1.223053e-01 -2.031250e-01  0.000000e+00
   endloop
 endfacet
 facet normal  0.000000e+00  0.000000e+00 -1.000000e+00
   outer loop
     vertex  1.875000e-01  1.745066e-01  0.000000e+00
     vertex  1.699176e-01 -1.963289e-01  0.000000e+00
     vertex  1.606277e-01 -2.031250e-01  0.000000e+00
   endloop
 endfacet
 facet normal  0.000000e+00  0.000000e+00 -1.000000e+00
   outer loop
     vertex  1.875000e-01  1.745066e-01  0.000000e+00
     vertex  1.788815e-01 -1.891084e-01  0.000000e+00
     vertex  1.699176e-01 -1.963289e-01  0.000000e+00
   endloop
 endfacet
 facet normal  0.000000e+00 -0.000000e+00 -1.000000e+00
   outer loop
     vertex  1.875000e-01  1.745066e-01  0.000000e+00
     vertex  1.875000e-01 -1.814789e-01  0.000000e+00
     vertex  1.788815e-01 -1.891084e-01  0.000000e+00
   endloop
 endfacet
endsolid
