solid 
 facet normal  0.000000e+00  0.000000e+00 -1.000000e+00
   outer loop
     vertex  1.171687e-34 -7.812500e-03 -2.109375e-01
     vertex  0.000000e+00 -3.906250e-02 -2.109375e-01
     vertex -3.906250e-02 -3.906250e-02 -2.109375e-01
   endloop
 endfacet
 facet normal -0.000000e+00  0.000000e+00 -1.000000e+00
   outer loop
     vertex  1.171687e-34 -7.812500e-03 -2.109375e-01
     vertex -3.906250e-02 -3.906250e-02 -2.109375e-01
     vertex -3.906250e-02 -7.812500e-03 -2.109375e-01
   endloop
 endfacet
 facet normal  0.000000e+00  1.000000e+00  0.000000e+00
   outer loop
     vertex -9.668264e-19 -7.812500e-03 -1.951480e-01
     vertex  1.171687e-34 -7.812500e-03 -2.109375e-01
     vertex -3.906250e-02 -7.812500e-03 -2.109375e-01
   endloop
 endfacet
 facet normal  0.000000e+00  1.000000e+00  0.000000e+00
   outer loop
     vertex -9.668264e-19 -7.812500e-03 -1.951480e-01
     vertex -3.906250e-02 -7.812500e-03 -2.109375e-01
     vertex -3.906250e-02 -7.812500e-03 -1.951480e-01
   endloop
 endfacet
 facet normal  0.000000e+00  4.434357e-01  8.963062e-01
   outer loop
     vertex -1.913511e-18 -3.906250e-02 -1.796875e-01
     vertex -9.668264e-19 -7.812500e-03 -1.951480e-01
     vertex -3.906250e-02 -7.812500e-03 -1.951480e-01
   endloop
 endfacet
 facet normal  0.000000e+00  4.434357e-01  8.963062e-01
   outer loop
     vertex -1.913511e-18 -3.906250e-02 -1.796875e-01
     vertex -3.906250e-02 -7.812500e-03 -1.951480e-01
     vertex -3.906250e-02 -3.906250e-02 -1.796875e-01
   endloop
 endfacet
 facet normal  0.000000e+00 -1.000000e+00  0.000000e+00
   outer loop
     vertex  0.000000e+00 -3.906250e-02 -2.109375e-01
     vertex -1.913511e-18 -3.906250e-02 -1.796875e-01
     vertex -3.906250e-02 -3.906250e-02 -1.796875e-01
   endloop
 endfacet
 facet normal  0.000000e+00 -1.000000e+00  0.000000e+00
   outer loop
     vertex  0.000000e+00 -3.906250e-02 -2.109375e-01
     vertex -3.906250e-02 -3.906250e-02 -1.796875e-01
     vertex -3.906250e-02 -3.906250e-02 -2.109375e-01
   endloop
 endfacet
 facet normal  1.000000e+00 -6.098778e-33  6.123234e-17
   outer loop
     vertex -9.668264e-19 -7.812500e-03 -1.951480e-01
     vertex  0.000000e+00 -3.906250e-02 -2.109375e-01
     vertex  1.171687e-34 -7.812500e-03 -2.109375e-01
   endloop
 endfacet
 facet normal  1.000000e+00  4.086454e-28  6.123234e-17
   outer loop
     vertex -9.668264e-19 -7.812500e-03 -1.951480e-01
     vertex -1.913511e-18 -3.906250e-02 -1.796875e-01
     vertex  0.000000e+00 -3.906250e-02 -2.109375e-01
   endloop
 endfacet
 facet normal -1.000000e+00  0.000000e+00 -0.000000e+00
   outer loop
     vertex -3.906250e-02 -7.812500e-03 -1.951480e-01
     vertex -3.906250e-02 -7.812500e-03 -2.109375e-01
     vertex -3.906250e-02 -3.906250e-02 -2.109375e-01
   endloop
 endfacet
 facet normal -1.000000e+00 -0.000000e+00  0.000000e+00
   outer loop
     vertex -3.906250e-02 -7.812500e-03 -1.951480e-01
     vertex -3.906250e-02 -3.906250e-02 -2.109375e-01
     vertex -3.906250e-02 -3.906250e-02 -1.796875e-01
   endloop
 endfacet
endsolid
