solid 
 facet normal  0.000000e+00  0.000000e+00 -1.000000e+00
   outer loop
     vertex  6.250000e-01  7.701880e-17 -1.718750e-01
     vertex -6.328125e-01 -7.500000e-01 -1.718750e-01
     vertex -6.328125e-01  0.000000e+00 -1.718750e-01
   endloop
 endfacet
 facet normal  0.000000e+00 -0.000000e+00 -1.000000e+00
   outer loop
     vertex  6.250000e-01  7.701880e-17 -1.718750e-01
     vertex  6.250000e-01 -7.500000e-01 -1.718750e-01
     vertex -6.328125e-01 -7.500000e-01 -1.718750e-01
   endloop
 endfacet
 facet normal  1.000000e+00  0.000000e+00  0.000000e+00
   outer loop
     vertex  6.250000e-01  8.674749e-17 -1.299342e-02
     vertex  6.250000e-01 -7.500000e-01 -1.718750e-01
     vertex  6.250000e-01  7.701880e-17 -1.718750e-01
   endloop
 endfacet
 facet normal  1.000000e+00  0.000000e+00  0.000000e+00
   outer loop
     vertex  6.250000e-01  8.674749e-17 -1.299342e-02
     vertex  6.250000e-01 -7.500000e-01 -1.299342e-02
     vertex  6.250000e-01 -7.500000e-01 -1.718750e-01
   endloop
 endfacet
 facet normal -0.000000e+00  0.000000e+00  1.000000e+00
   outer loop
     vertex  3.469572e-01  6.972228e-17 -1.299342e-02
     vertex  6.250000e-01 -7.500000e-01 -1.299342e-02
     vertex  6.250000e-01  8.674749e-17 -1.299342e-02
   endloop
 endfacet
 facet normal  0.000000e+00  0.000000e+00  1.000000e+00
   outer loop
     vertex  3.469572e-01  6.972228e-17 -1.299342e-02
     vertex  3.469572e-01 -7.500000e-01 -1.299342e-02
     vertex  6.250000e-01 -7.500000e-01 -1.299342e-02
   endloop
 endfacet
 facet normal  1.000000e+00  0.000000e+00  0.000000e+00
   outer loop
     vertex  3.469572e-01  8.755822e-17  2.782895e-01
     vertex  3.469572e-01 -7.500000e-01 -1.299342e-02
     vertex  3.469572e-01  6.972228e-17 -1.299342e-02
   endloop
 endfacet
 facet normal  1.000000e+00  0.000000e+00  0.000000e+00
   outer loop
     vertex  3.469572e-01  8.755822e-17  2.782895e-01
     vertex  3.469572e-01 -7.500000e-01  2.782895e-01
     vertex  3.469572e-01 -7.500000e-01 -1.299342e-02
   endloop
 endfacet
 facet normal -0.000000e+00  0.000000e+00  1.000000e+00
   outer loop
     vertex  3.337171e-01  8.674749e-17  2.782895e-01
     vertex  3.469572e-01 -7.500000e-01  2.782895e-01
     vertex  3.469572e-01  8.755822e-17  2.782895e-01
   endloop
 endfacet
 facet normal  0.000000e+00  0.000000e+00  1.000000e+00
   outer loop
     vertex  3.337171e-01  8.674749e-17  2.782895e-01
     vertex  3.337171e-01 -7.500000e-01  2.782895e-01
     vertex  3.469572e-01 -7.500000e-01  2.782895e-01
   endloop
 endfacet
 facet normal -0.000000e+00  0.000000e+00  1.000000e+00
   outer loop
     vertex  1.880757e-01  7.782953e-17  2.782895e-01
     vertex  3.337171e-01 -7.500000e-01  2.782895e-01
     vertex  3.337171e-01  8.674749e-17  2.782895e-01
   endloop
 endfacet
 facet normal  0.000000e+00  0.000000e+00  1.000000e+00
   outer loop
     vertex  1.880757e-01  7.782953e-17  2.782895e-01
     vertex  1.880757e-01 -7.500000e-01  2.782895e-01
     vertex  3.337171e-01 -7.500000e-01  2.782895e-01
   endloop
 endfacet
 facet normal -6.043865e-01  0.000000e+00  7.966913e-01
   outer loop
     vertex -1.958882e-01  3.648259e-17 -1.299342e-02
     vertex  1.880757e-01 -7.500000e-01  2.782895e-01
     vertex  1.880757e-01  7.782953e-17  2.782895e-01
   endloop
 endfacet
 facet normal -6.043865e-01  0.000000e+00  7.966913e-01
   outer loop
     vertex -1.958882e-01  3.648259e-17 -1.299342e-02
     vertex -1.958882e-01 -7.500000e-01 -1.299342e-02
     vertex  1.880757e-01 -7.500000e-01  2.782895e-01
   endloop
 endfacet
 facet normal  9.989685e-01  0.000000e+00 -4.540766e-02
   outer loop
     vertex -1.826480e-01  5.512925e-17  2.782895e-01
     vertex -1.958882e-01 -7.500000e-01 -1.299342e-02
     vertex -1.958882e-01  3.648259e-17 -1.299342e-02
   endloop
 endfacet
 facet normal  9.989685e-01  0.000000e+00 -4.540766e-02
   outer loop
     vertex -1.826480e-01  5.512925e-17  2.782895e-01
     vertex -1.826480e-01 -7.500000e-01  2.782895e-01
     vertex -1.958882e-01 -7.500000e-01 -1.299342e-02
   endloop
 endfacet
 facet normal -0.000000e+00  0.000000e+00  1.000000e+00
   outer loop
     vertex -3.547697e-01  4.458983e-17  2.782895e-01
     vertex -1.826480e-01 -7.500000e-01  2.782895e-01
     vertex -1.826480e-01  5.512925e-17  2.782895e-01
   endloop
 endfacet
 facet normal  0.000000e+00  0.000000e+00  1.000000e+00
   outer loop
     vertex -3.547697e-01  4.458983e-17  2.782895e-01
     vertex -3.547697e-01 -7.500000e-01  2.782895e-01
     vertex -1.826480e-01 -7.500000e-01  2.782895e-01
   endloop
 endfacet
 facet normal -1.000000e+00  0.000000e+00  0.000000e+00
   outer loop
     vertex -3.547697e-01  2.675390e-17 -1.299342e-02
     vertex -3.547697e-01 -7.500000e-01  2.782895e-01
     vertex -3.547697e-01  4.458983e-17  2.782895e-01
   endloop
 endfacet
 facet normal -1.000000e+00  0.000000e+00  0.000000e+00
   outer loop
     vertex -3.547697e-01  2.675390e-17 -1.299342e-02
     vertex -3.547697e-01 -7.500000e-01 -1.299342e-02
     vertex -3.547697e-01 -7.500000e-01  2.782895e-01
   endloop
 endfacet
 facet normal -0.000000e+00  0.000000e+00  1.000000e+00
   outer loop
     vertex -6.328125e-01  9.728691e-18 -1.299342e-02
     vertex -3.547697e-01 -7.500000e-01 -1.299342e-02
     vertex -3.547697e-01  2.675390e-17 -1.299342e-02
   endloop
 endfacet
 facet normal  0.000000e+00  0.000000e+00  1.000000e+00
   outer loop
     vertex -6.328125e-01  9.728691e-18 -1.299342e-02
     vertex -6.328125e-01 -7.500000e-01 -1.299342e-02
     vertex -3.547697e-01 -7.500000e-01 -1.299342e-02
   endloop
 endfacet
 facet normal -1.000000e+00  0.000000e+00  0.000000e+00
   outer loop
     vertex -6.328125e-01  0.000000e+00 -1.718750e-01
     vertex -6.328125e-01 -7.500000e-01 -1.299342e-02
     vertex -6.328125e-01  9.728691e-18 -1.299342e-02
   endloop
 endfacet
 facet normal -1.000000e+00  0.000000e+00  0.000000e+00
   outer loop
     vertex -6.328125e-01  0.000000e+00 -1.718750e-01
     vertex -6.328125e-01 -7.500000e-01 -1.718750e-01
     vertex -6.328125e-01 -7.500000e-01 -1.299342e-02
   endloop
 endfacet
 facet normal -6.123234e-17  1.000000e+00 -6.123234e-17
   outer loop
     vertex -3.547697e-01  2.675390e-17 -1.299342e-02
     vertex -6.328125e-01  0.000000e+00 -1.718750e-01
     vertex -6.328125e-01  9.728691e-18 -1.299342e-02
   endloop
 endfacet
 facet normal -6.123234e-17  1.000000e+00 -6.123234e-17
   outer loop
     vertex -1.958882e-01  3.648259e-17 -1.299342e-02
     vertex -6.328125e-01  0.000000e+00 -1.718750e-01
     vertex -3.547697e-01  2.675390e-17 -1.299342e-02
   endloop
 endfacet
 facet normal -6.123234e-17  1.000000e+00 -6.123234e-17
   outer loop
     vertex -3.547697e-01  4.458983e-17  2.782895e-01
     vertex -1.958882e-01  3.648259e-17 -1.299342e-02
     vertex -3.547697e-01  2.675390e-17 -1.299342e-02
   endloop
 endfacet
 facet normal -6.123234e-17  1.000000e+00 -6.123234e-17
   outer loop
     vertex -1.826480e-01  5.512925e-17  2.782895e-01
     vertex -1.958882e-01  3.648259e-17 -1.299342e-02
     vertex -3.547697e-01  4.458983e-17  2.782895e-01
   endloop
 endfacet
 facet normal -6.123234e-17  1.000000e+00 -6.123234e-17
   outer loop
     vertex  6.250000e-01  7.701880e-17 -1.718750e-01
     vertex -1.958882e-01  3.648259e-17 -1.299342e-02
     vertex  3.469572e-01  6.972228e-17 -1.299342e-02
   endloop
 endfacet
 facet normal -6.123234e-17  1.000000e+00 -6.123234e-17
   outer loop
     vertex  6.250000e-01  7.701880e-17 -1.718750e-01
     vertex -6.328125e-01  0.000000e+00 -1.718750e-01
     vertex -1.958882e-01  3.648259e-17 -1.299342e-02
   endloop
 endfacet
 facet normal -6.123234e-17  1.000000e+00 -6.123234e-17
   outer loop
     vertex  1.880757e-01  7.782953e-17  2.782895e-01
     vertex  3.469572e-01  6.972228e-17 -1.299342e-02
     vertex -1.958882e-01  3.648259e-17 -1.299342e-02
   endloop
 endfacet
 facet normal -6.123234e-17  1.000000e+00 -6.123234e-17
   outer loop
     vertex  3.337171e-01  8.674749e-17  2.782895e-01
     vertex  3.469572e-01  6.972228e-17 -1.299342e-02
     vertex  1.880757e-01  7.782953e-17  2.782895e-01
   endloop
 endfacet
 facet normal -6.123234e-17  1.000000e+00 -6.123234e-17
   outer loop
     vertex  6.250000e-01  8.674749e-17 -1.299342e-02
     vertex  6.250000e-01  7.701880e-17 -1.718750e-01
     vertex  3.469572e-01  6.972228e-17 -1.299342e-02
   endloop
 endfacet
 facet normal -6.123234e-17  1.000000e+00 -6.123234e-17
   outer loop
     vertex  3.469572e-01  8.755822e-17  2.782895e-01
     vertex  3.469572e-01  6.972228e-17 -1.299342e-02
     vertex  3.337171e-01  8.674749e-17  2.782895e-01
   endloop
 endfacet
 facet normal -0.000000e+00 -1.000000e+00  0.000000e+00
   outer loop
     vertex -3.547697e-01 -7.500000e-01 -1.299342e-02
     vertex -6.328125e-01 -7.500000e-01 -1.299342e-02
     vertex -6.328125e-01 -7.500000e-01 -1.718750e-01
   endloop
 endfacet
 facet normal -0.000000e+00 -1.000000e+00  0.000000e+00
   outer loop
     vertex -1.958882e-01 -7.500000e-01 -1.299342e-02
     vertex -3.547697e-01 -7.500000e-01 -1.299342e-02
     vertex -6.328125e-01 -7.500000e-01 -1.718750e-01
   endloop
 endfacet
 facet normal  0.000000e+00 -1.000000e+00  0.000000e+00
   outer loop
     vertex -3.547697e-01 -7.500000e-01  2.782895e-01
     vertex -3.547697e-01 -7.500000e-01 -1.299342e-02
     vertex -1.958882e-01 -7.500000e-01 -1.299342e-02
   endloop
 endfacet
 facet normal -0.000000e+00 -1.000000e+00  0.000000e+00
   outer loop
     vertex -1.826480e-01 -7.500000e-01  2.782895e-01
     vertex -3.547697e-01 -7.500000e-01  2.782895e-01
     vertex -1.958882e-01 -7.500000e-01 -1.299342e-02
   endloop
 endfacet
 facet normal  0.000000e+00 -1.000000e+00  0.000000e+00
   outer loop
     vertex  6.250000e-01 -7.500000e-01 -1.718750e-01
     vertex  3.469572e-01 -7.500000e-01 -1.299342e-02
     vertex -1.958882e-01 -7.500000e-01 -1.299342e-02
   endloop
 endfacet
 facet normal  0.000000e+00 -1.000000e+00  0.000000e+00
   outer loop
     vertex  6.250000e-01 -7.500000e-01 -1.718750e-01
     vertex -1.958882e-01 -7.500000e-01 -1.299342e-02
     vertex -6.328125e-01 -7.500000e-01 -1.718750e-01
   endloop
 endfacet
 facet normal  0.000000e+00 -1.000000e+00 -0.000000e+00
   outer loop
     vertex  1.880757e-01 -7.500000e-01  2.782895e-01
     vertex -1.958882e-01 -7.500000e-01 -1.299342e-02
     vertex  3.469572e-01 -7.500000e-01 -1.299342e-02
   endloop
 endfacet
 facet normal -0.000000e+00 -1.000000e+00 -0.000000e+00
   outer loop
     vertex  3.337171e-01 -7.500000e-01  2.782895e-01
     vertex  1.880757e-01 -7.500000e-01  2.782895e-01
     vertex  3.469572e-01 -7.500000e-01 -1.299342e-02
   endloop
 endfacet
 facet normal -0.000000e+00 -1.000000e+00 -0.000000e+00
   outer loop
     vertex  6.250000e-01 -7.500000e-01 -1.299342e-02
     vertex  3.469572e-01 -7.500000e-01 -1.299342e-02
     vertex  6.250000e-01 -7.500000e-01 -1.718750e-01
   endloop
 endfacet
 facet normal -0.000000e+00 -1.000000e+00 -0.000000e+00
   outer loop
     vertex  3.469572e-01 -7.500000e-01  2.782895e-01
     vertex  3.337171e-01 -7.500000e-01  2.782895e-01
     vertex  3.469572e-01 -7.500000e-01 -1.299342e-02
   endloop
 endfacet
endsolid
