solid 
 facet normal -4.338837e-01  0.000000e+00 -9.009689e-01
   outer loop
     vertex  2.845712e-01 -2.155314e-18 -5.414517e-02
     vertex  3.524671e-01  0.000000e+00 -8.684211e-02
     vertex  3.524671e-01 -1.406250e-01 -8.684211e-02
   endloop
 endfacet
 facet normal -4.338837e-01 -4.445673e-17 -9.009689e-01
   outer loop
     vertex  2.845712e-01 -2.155314e-18 -5.414517e-02
     vertex  3.524671e-01 -1.406250e-01 -8.684211e-02
     vertex  2.845712e-01 -1.406250e-01 -5.414517e-02
   endloop
 endfacet
 facet normal -9.749279e-01 -1.646986e-17 -2.225209e-01
   outer loop
     vertex  2.678023e-01  1.316587e-18  1.932419e-02
     vertex  2.845712e-01 -1.406250e-01 -5.414517e-02
     vertex  2.678023e-01 -1.406250e-01  1.932419e-02
   endloop
 endfacet
 facet normal -9.749279e-01 -2.046181e-17 -2.225209e-01
   outer loop
     vertex  2.678023e-01  1.316587e-18  1.932419e-02
     vertex  2.845712e-01 -2.155314e-18 -5.414517e-02
     vertex  2.845712e-01 -1.406250e-01 -5.414517e-02
   endloop
 endfacet
 facet normal -7.818315e-01  0.000000e+00  6.234898e-01
   outer loop
     vertex  3.147877e-01  7.801292e-18  7.824203e-02
     vertex  2.678023e-01 -1.406250e-01  1.932419e-02
     vertex  3.147877e-01 -1.406250e-01  7.824203e-02
   endloop
 endfacet
 facet normal -7.818315e-01  4.092362e-17  6.234898e-01
   outer loop
     vertex  3.147877e-01  7.801292e-18  7.824203e-02
     vertex  2.678023e-01  1.316587e-18  1.932419e-02
     vertex  2.678023e-01 -1.406250e-01  1.932419e-02
   endloop
 endfacet
 facet normal  1.841563e-16  0.000000e+00  1.000000e+00
   outer loop
     vertex  3.901465e-01  1.241568e-17  7.824203e-02
     vertex  3.147877e-01 -1.406250e-01  7.824203e-02
     vertex  3.901465e-01 -1.406250e-01  7.824203e-02
   endloop
 endfacet
 facet normal  1.841563e-16  0.000000e+00  1.000000e+00
   outer loop
     vertex  3.901465e-01  1.241568e-17  7.824203e-02
     vertex  3.147877e-01  7.801292e-18  7.824203e-02
     vertex  3.147877e-01 -1.406250e-01  7.824203e-02
   endloop
 endfacet
 facet normal  7.818315e-01  4.614752e-17  6.234898e-01
   outer loop
     vertex  4.371319e-01  1.168503e-17  1.932419e-02
     vertex  3.901465e-01 -1.406250e-01  7.824203e-02
     vertex  4.371319e-01 -1.406250e-01  1.932419e-02
   endloop
 endfacet
 facet normal  7.818315e-01  0.000000e+00  6.234898e-01
   outer loop
     vertex  4.371319e-01  1.168503e-17  1.932419e-02
     vertex  3.901465e-01  1.241568e-17  7.824203e-02
     vertex  3.901465e-01 -1.406250e-01  7.824203e-02
   endloop
 endfacet
 facet normal  9.749279e-01 -1.097991e-17 -2.225209e-01
   outer loop
     vertex  4.203630e-01  6.159534e-18 -5.414517e-02
     vertex  4.371319e-01 -1.406250e-01  1.932419e-02
     vertex  4.203630e-01 -1.406250e-01 -5.414517e-02
   endloop
 endfacet
 facet normal  9.749279e-01  0.000000e+00 -2.225209e-01
   outer loop
     vertex  4.203630e-01  6.159534e-18 -5.414517e-02
     vertex  4.371319e-01  1.168503e-17  1.932419e-02
     vertex  4.371319e-01 -1.406250e-01  1.932419e-02
   endloop
 endfacet
 facet normal  4.338837e-01  0.000000e+00 -9.009689e-01
   outer loop
     vertex  3.524671e-01  0.000000e+00 -8.684211e-02
     vertex  4.203630e-01 -1.406250e-01 -5.414517e-02
     vertex  3.524671e-01 -1.406250e-01 -8.684211e-02
   endloop
 endfacet
 facet normal  4.338837e-01 -4.092362e-17 -9.009689e-01
   outer loop
     vertex  3.524671e-01  0.000000e+00 -8.684211e-02
     vertex  4.203630e-01  6.159534e-18 -5.414517e-02
     vertex  4.203630e-01 -1.406250e-01 -5.414517e-02
   endloop
 endfacet
 facet normal -6.123234e-17  1.000000e+00 -6.123234e-17
   outer loop
     vertex  3.901465e-01  1.241568e-17  7.824203e-02
     vertex  4.203630e-01  6.159534e-18 -5.414517e-02
     vertex  3.524671e-01  0.000000e+00 -8.684211e-02
   endloop
 endfacet
 facet normal -6.123234e-17  1.000000e+00 -6.123234e-17
   outer loop
     vertex  3.901465e-01  1.241568e-17  7.824203e-02
     vertex  4.371319e-01  1.168503e-17  1.932419e-02
     vertex  4.203630e-01  6.159534e-18 -5.414517e-02
   endloop
 endfacet
 facet normal -6.123234e-17  1.000000e+00 -6.123234e-17
   outer loop
     vertex  3.901465e-01  1.241568e-17  7.824203e-02
     vertex  2.678023e-01  1.316587e-18  1.932419e-02
     vertex  3.147877e-01  7.801292e-18  7.824203e-02
   endloop
 endfacet
 facet normal -6.123234e-17  1.000000e+00 -6.123234e-17
   outer loop
     vertex  3.901465e-01  1.241568e-17  7.824203e-02
     vertex  2.845712e-01 -2.155314e-18 -5.414517e-02
     vertex  2.678023e-01  1.316587e-18  1.932419e-02
   endloop
 endfacet
 facet normal -6.123234e-17  1.000000e+00 -6.123234e-17
   outer loop
     vertex  3.901465e-01  1.241568e-17  7.824203e-02
     vertex  3.524671e-01  0.000000e+00 -8.684211e-02
     vertex  2.845712e-01 -2.155314e-18 -5.414517e-02
   endloop
 endfacet
 facet normal  0.000000e+00 -1.000000e+00 -0.000000e+00
   outer loop
     vertex  3.901465e-01 -1.406250e-01  7.824203e-02
     vertex  3.524671e-01 -1.406250e-01 -8.684211e-02
     vertex  4.203630e-01 -1.406250e-01 -5.414517e-02
   endloop
 endfacet
 facet normal  0.000000e+00 -1.000000e+00  0.000000e+00
   outer loop
     vertex  3.901465e-01 -1.406250e-01  7.824203e-02
     vertex  4.203630e-01 -1.406250e-01 -5.414517e-02
     vertex  4.371319e-01 -1.406250e-01  1.932419e-02
   endloop
 endfacet
 facet normal -0.000000e+00 -1.000000e+00  0.000000e+00
   outer loop
     vertex  3.901465e-01 -1.406250e-01  7.824203e-02
     vertex  3.147877e-01 -1.406250e-01  7.824203e-02
     vertex  2.678023e-01 -1.406250e-01  1.932419e-02
   endloop
 endfacet
 facet normal  0.000000e+00 -1.000000e+00  0.000000e+00
   outer loop
     vertex  3.901465e-01 -1.406250e-01  7.824203e-02
     vertex  2.678023e-01 -1.406250e-01  1.932419e-02
     vertex  2.845712e-01 -1.406250e-01 -5.414517e-02
   endloop
 endfacet
 facet normal  0.000000e+00 -1.000000e+00  0.000000e+00
   outer loop
     vertex  3.901465e-01 -1.406250e-01  7.824203e-02
     vertex  2.845712e-01 -1.406250e-01 -5.414517e-02
     vertex  3.524671e-01 -1.406250e-01 -8.684211e-02
   endloop
 endfacet
endsolid
