solid 
 facet normal  9.927736e-01 -1.200026e-01  0.000000e+00
   outer loop
     vertex  7.657895e-01  0.000000e+00  0.000000e+00
     vertex  7.657895e-01  0.000000e+00  3.906250e-02
     vertex  7.439612e-01 -1.805842e-01  3.906250e-02
   endloop
 endfacet
 facet normal  9.355844e-01 -3.530943e-01  2.493946e-03
   outer loop
     vertex  7.437664e-01 -1.813761e-01  0.000000e+00
     vertex  7.439612e-01 -1.805842e-01  3.906250e-02
     vertex  6.797336e-01 -3.507663e-01  3.906250e-02
   endloop
 endfacet
 facet normal  9.927058e-01 -1.205363e-01 -2.505096e-03
   outer loop
     vertex  7.437664e-01 -1.813761e-01  0.000000e+00
     vertex  7.657895e-01  0.000000e+00  0.000000e+00
     vertex  7.439612e-01 -1.805842e-01  3.906250e-02
   endloop
 endfacet
 facet normal  8.244987e-01 -5.658420e-01  4.965546e-03
   outer loop
     vertex  6.789772e-01 -3.522112e-01  0.000000e+00
     vertex  6.797336e-01 -3.507663e-01  3.906250e-02
     vertex  5.768064e-01 -5.007434e-01  3.906250e-02
   endloop
 endfacet
 facet normal  9.350046e-01 -3.546005e-01 -4.987845e-03
   outer loop
     vertex  6.789772e-01 -3.522112e-01  0.000000e+00
     vertex  7.437664e-01 -1.813761e-01  0.000000e+00
     vertex  6.797336e-01 -3.507663e-01  3.906250e-02
   endloop
 endfacet
 facet normal  6.659184e-01 -7.459878e-01  7.414752e-03
   outer loop
     vertex  5.751871e-01 -5.025772e-01  0.000000e+00
     vertex  5.768064e-01 -5.007434e-01  3.906250e-02
     vertex  4.411084e-01 -6.218765e-01  3.906250e-02
   endloop
 endfacet
 facet normal  8.229610e-01 -5.680490e-01 -7.448202e-03
   outer loop
     vertex  5.751871e-01 -5.025772e-01  0.000000e+00
     vertex  6.789772e-01 -3.522112e-01  0.000000e+00
     vertex  5.768064e-01 -5.007434e-01  3.906250e-02
   endloop
 endfacet
 facet normal  4.689821e-01 -8.831528e-01  9.841521e-03
   outer loop
     vertex  4.384280e-01 -6.237351e-01  0.000000e+00
     vertex  4.411084e-01 -6.218765e-01  3.906250e-02
     vertex  2.804563e-01 -7.071878e-01  3.906250e-02
   endloop
 endfacet
 facet normal  6.630903e-01 -7.484742e-01 -9.886121e-03
   outer loop
     vertex  4.384280e-01 -6.237351e-01  0.000000e+00
     vertex  5.751871e-01 -5.025772e-01  0.000000e+00
     vertex  4.411084e-01 -6.218765e-01  3.906250e-02
   endloop
 endfacet
 facet normal  2.450388e-01 -9.694359e-01  1.224581e-02
   outer loop
     vertex  2.766479e-01 -7.086439e-01  0.000000e+00
     vertex  2.804563e-01 -7.071878e-01  3.906250e-02
     vertex  1.041039e-01 -7.517634e-01  3.906250e-02
   endloop
 endfacet
 facet normal  4.646880e-01 -8.853890e-01 -1.230156e-02
   outer loop
     vertex  2.766479e-01 -7.086439e-01  0.000000e+00
     vertex  4.384280e-01 -6.237351e-01  0.000000e+00
     vertex  2.804563e-01 -7.071878e-01  3.906250e-02
   endloop
 endfacet
 facet normal  5.993808e-03 -9.998732e-01  1.475182e-02
   outer loop
     vertex  9.924885e-02 -7.523688e-01  0.000000e+00
     vertex  1.041039e-01 -7.517634e-01  3.906250e-02
     vertex -7.929486e-02 -7.528628e-01  3.906250e-02
   endloop
 endfacet
 facet normal  2.392898e-01 -9.708370e-01 -1.469448e-02
   outer loop
     vertex  9.924885e-02 -7.523688e-01  0.000000e+00
     vertex  2.766479e-01 -7.086439e-01  0.000000e+00
     vertex  1.041039e-01 -7.517634e-01  3.906250e-02
   endloop
 endfacet
 facet normal -2.343688e-01 -9.720649e-01  1.269393e-02
   outer loop
     vertex -8.345938e-02 -7.523688e-01  0.000000e+00
     vertex -7.929486e-02 -7.528628e-01  3.906250e-02
     vertex -2.575879e-01 -7.098756e-01  3.906250e-02
   endloop
 endfacet
 facet normal -1.822798e-15 -9.999201e-01 -1.264479e-02
   outer loop
     vertex -8.345938e-02 -7.523688e-01  0.000000e+00
     vertex  9.924885e-02 -7.523688e-01  0.000000e+00
     vertex -7.929486e-02 -7.528628e-01  3.906250e-02
   endloop
 endfacet
 facet normal -4.610185e-01 -8.873270e-01  1.061950e-02
   outer loop
     vertex -2.608584e-01 -7.086439e-01  0.000000e+00
     vertex -2.575879e-01 -7.098756e-01  3.906250e-02
     vertex -4.203347e-01 -6.253191e-01  3.906250e-02
   endloop
 endfacet
 facet normal -2.393023e-01 -9.708875e-01 -1.057854e-02
   outer loop
     vertex -2.608584e-01 -7.086439e-01  0.000000e+00
     vertex -8.345938e-02 -7.523688e-01  0.000000e+00
     vertex -2.575879e-01 -7.098756e-01  3.906250e-02
   endloop
 endfacet
 facet normal -6.606791e-01 -7.506200e-01  8.528540e-03
   outer loop
     vertex -4.226385e-01 -6.237351e-01  0.000000e+00
     vertex -4.203347e-01 -6.253191e-01  3.906250e-02
     vertex -5.580050e-01 -5.041448e-01  3.906250e-02
   endloop
 endfacet
 facet normal -4.647064e-01 -8.854241e-01 -8.495774e-03
   outer loop
     vertex -4.226385e-01 -6.237351e-01  0.000000e+00
     vertex -2.608584e-01 -7.086439e-01  0.000000e+00
     vertex -4.203347e-01 -6.253191e-01  3.906250e-02
   endloop
 endfacet
 facet normal -8.216550e-01 -5.699489e-01  6.421082e-03
   outer loop
     vertex -5.593976e-01 -5.025772e-01  0.000000e+00
     vertex -5.580050e-01 -5.041448e-01  3.906250e-02
     vertex -6.625369e-01 -3.534484e-01  3.906250e-02
   endloop
 endfacet
 facet normal -6.631091e-01 -7.484954e-01 -6.396508e-03
   outer loop
     vertex -5.593976e-01 -5.025772e-01  0.000000e+00
     vertex -4.226385e-01 -6.237351e-01  0.000000e+00
     vertex -5.580050e-01 -5.041448e-01  3.906250e-02
   endloop
 endfacet
 facet normal -9.345162e-01 -3.558947e-01  4.297153e-03
   outer loop
     vertex -6.631877e-01 -3.522112e-01  0.000000e+00
     vertex -6.625369e-01 -3.534484e-01  3.906250e-02
     vertex -7.278094e-01 -1.820546e-01  3.906250e-02
   endloop
 endfacet
 facet normal -8.229763e-01 -5.680595e-01 -4.280771e-03
   outer loop
     vertex -6.631877e-01 -3.522112e-01  0.000000e+00
     vertex -5.593976e-01 -5.025772e-01  0.000000e+00
     vertex -6.625369e-01 -3.534484e-01  3.906250e-02
   endloop
 endfacet
 facet normal -9.350141e-01 -3.546041e-01 -2.148592e-03
   outer loop
     vertex -7.279770e-01 -1.813761e-01  0.000000e+00
     vertex -6.631877e-01 -3.522112e-01  0.000000e+00
     vertex -7.278094e-01 -1.820546e-01  3.906250e-02
   endloop
 endfacet
 facet normal -9.926509e-01 -1.209941e-01  2.156783e-03
   outer loop
     vertex -7.279770e-01 -1.813761e-01  0.000000e+00
     vertex -7.278094e-01 -1.820546e-01  3.906250e-02
     vertex -7.500000e-01 -2.437575e-16  3.906250e-02
   endloop
 endfacet
 facet normal -9.927089e-01 -1.205367e-01 -3.115728e-15
   outer loop
     vertex -7.500000e-01  7.659611e-16  0.000000e+00
     vertex -7.279770e-01 -1.813761e-01  0.000000e+00
     vertex -7.500000e-01 -2.437575e-16  3.906250e-02
   endloop
 endfacet
 facet normal -9.926509e-01  1.209941e-01  2.156783e-03
   outer loop
     vertex -7.279770e-01  1.813761e-01  0.000000e+00
     vertex -7.500000e-01 -2.437575e-16  3.906250e-02
     vertex -7.278094e-01  1.820546e-01  3.906250e-02
   endloop
 endfacet
 facet normal -9.927089e-01  1.205367e-01  3.159770e-15
   outer loop
     vertex -7.279770e-01  1.813761e-01  0.000000e+00
     vertex -7.500000e-01  7.659611e-16  0.000000e+00
     vertex -7.500000e-01 -2.437575e-16  3.906250e-02
   endloop
 endfacet
 facet normal -9.345162e-01  3.558947e-01  4.297153e-03
   outer loop
     vertex -6.631877e-01  3.522112e-01  0.000000e+00
     vertex -7.278094e-01  1.820546e-01  3.906250e-02
     vertex -6.625369e-01  3.534484e-01  3.906250e-02
   endloop
 endfacet
 facet normal -9.350141e-01  3.546041e-01 -2.148592e-03
   outer loop
     vertex -6.631877e-01  3.522112e-01  0.000000e+00
     vertex -7.279770e-01  1.813761e-01  0.000000e+00
     vertex -7.278094e-01  1.820546e-01  3.906250e-02
   endloop
 endfacet
 facet normal -8.229763e-01  5.680595e-01 -4.280771e-03
   outer loop
     vertex -5.593976e-01  5.025772e-01  0.000000e+00
     vertex -6.631877e-01  3.522112e-01  0.000000e+00
     vertex -6.625369e-01  3.534484e-01  3.906250e-02
   endloop
 endfacet
 facet normal -8.216550e-01  5.699489e-01  6.421082e-03
   outer loop
     vertex -5.593976e-01  5.025772e-01  0.000000e+00
     vertex -6.625369e-01  3.534484e-01  3.906250e-02
     vertex -5.580050e-01  5.041448e-01  3.906250e-02
   endloop
 endfacet
 facet normal -6.606791e-01  7.506200e-01  8.528540e-03
   outer loop
     vertex -4.226385e-01  6.237351e-01  0.000000e+00
     vertex -5.580050e-01  5.041448e-01  3.906250e-02
     vertex -4.203347e-01  6.253191e-01  3.906250e-02
   endloop
 endfacet
 facet normal -6.631091e-01  7.484954e-01 -6.396508e-03
   outer loop
     vertex -4.226385e-01  6.237351e-01  0.000000e+00
     vertex -5.593976e-01  5.025772e-01  0.000000e+00
     vertex -5.580050e-01  5.041448e-01  3.906250e-02
   endloop
 endfacet
 facet normal -4.610185e-01  8.873270e-01  1.061950e-02
   outer loop
     vertex -2.608584e-01  7.086439e-01  0.000000e+00
     vertex -4.203347e-01  6.253191e-01  3.906250e-02
     vertex -2.575879e-01  7.098756e-01  3.906250e-02
   endloop
 endfacet
 facet normal -4.647064e-01  8.854241e-01 -8.495774e-03
   outer loop
     vertex -2.608584e-01  7.086439e-01  0.000000e+00
     vertex -4.226385e-01  6.237351e-01  0.000000e+00
     vertex -4.203347e-01  6.253191e-01  3.906250e-02
   endloop
 endfacet
 facet normal -2.343688e-01  9.720649e-01  1.269393e-02
   outer loop
     vertex -8.345938e-02  7.523688e-01  0.000000e+00
     vertex -2.575879e-01  7.098756e-01  3.906250e-02
     vertex -7.929486e-02  7.528628e-01  3.906250e-02
   endloop
 endfacet
 facet normal -2.393023e-01  9.708875e-01 -1.057854e-02
   outer loop
     vertex -8.345938e-02  7.523688e-01  0.000000e+00
     vertex -2.608584e-01  7.086439e-01  0.000000e+00
     vertex -2.575879e-01  7.098756e-01  3.906250e-02
   endloop
 endfacet
 facet normal  5.993808e-03  9.998732e-01  1.475182e-02
   outer loop
     vertex  9.924885e-02  7.523688e-01  0.000000e+00
     vertex -7.929486e-02  7.528628e-01  3.906250e-02
     vertex  1.041039e-01  7.517634e-01  3.906250e-02
   endloop
 endfacet
 facet normal  0.000000e+00  9.999201e-01 -1.264479e-02
   outer loop
     vertex  9.924885e-02  7.523688e-01  0.000000e+00
     vertex -8.345938e-02  7.523688e-01  0.000000e+00
     vertex -7.929486e-02  7.528628e-01  3.906250e-02
   endloop
 endfacet
 facet normal  2.450388e-01  9.694359e-01  1.224581e-02
   outer loop
     vertex  2.766479e-01  7.086439e-01  0.000000e+00
     vertex  1.041039e-01  7.517634e-01  3.906250e-02
     vertex  2.804563e-01  7.071878e-01  3.906250e-02
   endloop
 endfacet
 facet normal  2.392898e-01  9.708370e-01 -1.469448e-02
   outer loop
     vertex  2.766479e-01  7.086439e-01  0.000000e+00
     vertex  9.924885e-02  7.523688e-01  0.000000e+00
     vertex  1.041039e-01  7.517634e-01  3.906250e-02
   endloop
 endfacet
 facet normal  4.689821e-01  8.831528e-01  9.841521e-03
   outer loop
     vertex  4.384280e-01  6.237351e-01  0.000000e+00
     vertex  2.804563e-01  7.071878e-01  3.906250e-02
     vertex  4.411084e-01  6.218765e-01  3.906250e-02
   endloop
 endfacet
 facet normal  4.646880e-01  8.853890e-01 -1.230156e-02
   outer loop
     vertex  4.384280e-01  6.237351e-01  0.000000e+00
     vertex  2.766479e-01  7.086439e-01  0.000000e+00
     vertex  2.804563e-01  7.071878e-01  3.906250e-02
   endloop
 endfacet
 facet normal  6.659184e-01  7.459878e-01  7.414752e-03
   outer loop
     vertex  5.751871e-01  5.025772e-01  0.000000e+00
     vertex  4.411084e-01  6.218765e-01  3.906250e-02
     vertex  5.768064e-01  5.007434e-01  3.906250e-02
   endloop
 endfacet
 facet normal  6.630903e-01  7.484742e-01 -9.886121e-03
   outer loop
     vertex  5.751871e-01  5.025772e-01  0.000000e+00
     vertex  4.384280e-01  6.237351e-01  0.000000e+00
     vertex  4.411084e-01  6.218765e-01  3.906250e-02
   endloop
 endfacet
 facet normal  8.244987e-01  5.658420e-01  4.965546e-03
   outer loop
     vertex  6.789772e-01  3.522112e-01  0.000000e+00
     vertex  5.768064e-01  5.007434e-01  3.906250e-02
     vertex  6.797336e-01  3.507663e-01  3.906250e-02
   endloop
 endfacet
 facet normal  8.229610e-01  5.680490e-01 -7.448202e-03
   outer loop
     vertex  6.789772e-01  3.522112e-01  0.000000e+00
     vertex  5.751871e-01  5.025772e-01  0.000000e+00
     vertex  5.768064e-01  5.007434e-01  3.906250e-02
   endloop
 endfacet
 facet normal  9.355844e-01  3.530943e-01  2.493946e-03
   outer loop
     vertex  7.437664e-01  1.813761e-01  0.000000e+00
     vertex  6.797336e-01  3.507663e-01  3.906250e-02
     vertex  7.439612e-01  1.805842e-01  3.906250e-02
   endloop
 endfacet
 facet normal  9.350046e-01  3.546005e-01 -4.987845e-03
   outer loop
     vertex  7.437664e-01  1.813761e-01  0.000000e+00
     vertex  6.789772e-01  3.522112e-01  0.000000e+00
     vertex  6.797336e-01  3.507663e-01  3.906250e-02
   endloop
 endfacet
 facet normal  9.927736e-01  1.200026e-01 -0.000000e+00
   outer loop
     vertex  7.657895e-01  0.000000e+00  0.000000e+00
     vertex  7.439612e-01  1.805842e-01  3.906250e-02
     vertex  7.657895e-01  0.000000e+00  3.906250e-02
   endloop
 endfacet
 facet normal  9.927058e-01  1.205363e-01 -2.505096e-03
   outer loop
     vertex  7.657895e-01  0.000000e+00  0.000000e+00
     vertex  7.437664e-01  1.813761e-01  0.000000e+00
     vertex  7.439612e-01  1.805842e-01  3.906250e-02
   endloop
 endfacet
 facet normal  0.000000e+00  0.000000e+00 -1.000000e+00
   outer loop
     vertex  6.789772e-01 -3.522112e-01  0.000000e+00
     vertex  4.384280e-01 -6.237351e-01  0.000000e+00
     vertex  2.766479e-01 -7.086439e-01  0.000000e+00
   endloop
 endfacet
 facet normal  0.000000e+00  0.000000e+00 -1.000000e+00
   outer loop
     vertex  6.789772e-01 -3.522112e-01  0.000000e+00
     vertex  5.751871e-01 -5.025772e-01  0.000000e+00
     vertex  4.384280e-01 -6.237351e-01  0.000000e+00
   endloop
 endfacet
 facet normal  0.000000e+00  0.000000e+00 -1.000000e+00
   outer loop
     vertex -8.345938e-02  7.523688e-01  0.000000e+00
     vertex -4.226385e-01  6.237351e-01  0.000000e+00
     vertex -2.608584e-01  7.086439e-01  0.000000e+00
   endloop
 endfacet
 facet normal  0.000000e+00  0.000000e+00 -1.000000e+00
   outer loop
     vertex  7.657895e-01  0.000000e+00  0.000000e+00
     vertex  7.437664e-01 -1.813761e-01  0.000000e+00
     vertex  6.789772e-01 -3.522112e-01  0.000000e+00
   endloop
 endfacet
 facet normal  0.000000e+00  0.000000e+00 -1.000000e+00
   outer loop
     vertex  5.751871e-01  5.025772e-01  0.000000e+00
     vertex  7.437664e-01  1.813761e-01  0.000000e+00
     vertex  7.657895e-01  0.000000e+00  0.000000e+00
   endloop
 endfacet
 facet normal  0.000000e+00  0.000000e+00 -1.000000e+00
   outer loop
     vertex  5.751871e-01  5.025772e-01  0.000000e+00
     vertex  6.789772e-01  3.522112e-01  0.000000e+00
     vertex  7.437664e-01  1.813761e-01  0.000000e+00
   endloop
 endfacet
 facet normal  0.000000e+00  0.000000e+00 -1.000000e+00
   outer loop
     vertex  5.751871e-01  5.025772e-01  0.000000e+00
     vertex  2.766479e-01  7.086439e-01  0.000000e+00
     vertex  4.384280e-01  6.237351e-01  0.000000e+00
   endloop
 endfacet
 facet normal  0.000000e+00  0.000000e+00 -1.000000e+00
   outer loop
     vertex  5.751871e-01  5.025772e-01  0.000000e+00
     vertex  9.924885e-02  7.523688e-01  0.000000e+00
     vertex  2.766479e-01  7.086439e-01  0.000000e+00
   endloop
 endfacet
 facet normal  0.000000e+00  0.000000e+00 -1.000000e+00
   outer loop
     vertex  5.751871e-01  5.025772e-01  0.000000e+00
     vertex -8.345938e-02  7.523688e-01  0.000000e+00
     vertex  9.924885e-02  7.523688e-01  0.000000e+00
   endloop
 endfacet
 facet normal  0.000000e+00  0.000000e+00 -1.000000e+00
   outer loop
     vertex  5.751871e-01  5.025772e-01  0.000000e+00
     vertex -5.593976e-01  5.025772e-01  0.000000e+00
     vertex -4.226385e-01  6.237351e-01  0.000000e+00
   endloop
 endfacet
 facet normal -0.000000e+00  0.000000e+00 -1.000000e+00
   outer loop
     vertex  5.751871e-01  5.025772e-01  0.000000e+00
     vertex -6.631877e-01  3.522112e-01  0.000000e+00
     vertex -5.593976e-01  5.025772e-01  0.000000e+00
   endloop
 endfacet
 facet normal  0.000000e+00  0.000000e+00 -1.000000e+00
   outer loop
     vertex  5.751871e-01  5.025772e-01  0.000000e+00
     vertex -7.279770e-01  1.813761e-01  0.000000e+00
     vertex -6.631877e-01  3.522112e-01  0.000000e+00
   endloop
 endfacet
 facet normal  0.000000e+00  0.000000e+00 -1.000000e+00
   outer loop
     vertex  5.751871e-01  5.025772e-01  0.000000e+00
     vertex -7.500000e-01  7.659611e-16  0.000000e+00
     vertex -7.279770e-01  1.813761e-01  0.000000e+00
   endloop
 endfacet
 facet normal  0.000000e+00  0.000000e+00 -1.000000e+00
   outer loop
     vertex  5.751871e-01  5.025772e-01  0.000000e+00
     vertex -7.279770e-01 -1.813761e-01  0.000000e+00
     vertex -7.500000e-01  7.659611e-16  0.000000e+00
   endloop
 endfacet
 facet normal  0.000000e+00  0.000000e+00 -1.000000e+00
   outer loop
     vertex  5.751871e-01  5.025772e-01  0.000000e+00
     vertex -6.631877e-01 -3.522112e-01  0.000000e+00
     vertex -7.279770e-01 -1.813761e-01  0.000000e+00
   endloop
 endfacet
 facet normal  0.000000e+00  0.000000e+00 -1.000000e+00
   outer loop
     vertex  5.751871e-01  5.025772e-01  0.000000e+00
     vertex -5.593976e-01 -5.025772e-01  0.000000e+00
     vertex -6.631877e-01 -3.522112e-01  0.000000e+00
   endloop
 endfacet
 facet normal  0.000000e+00  0.000000e+00 -1.000000e+00
   outer loop
     vertex  5.751871e-01  5.025772e-01  0.000000e+00
     vertex -4.226385e-01 -6.237351e-01  0.000000e+00
     vertex -5.593976e-01 -5.025772e-01  0.000000e+00
   endloop
 endfacet
 facet normal  0.000000e+00  0.000000e+00 -1.000000e+00
   outer loop
     vertex  5.751871e-01  5.025772e-01  0.000000e+00
     vertex -2.608584e-01 -7.086439e-01  0.000000e+00
     vertex -4.226385e-01 -6.237351e-01  0.000000e+00
   endloop
 endfacet
 facet normal  0.000000e+00  0.000000e+00 -1.000000e+00
   outer loop
     vertex  5.751871e-01  5.025772e-01  0.000000e+00
     vertex -8.345938e-02 -7.523688e-01  0.000000e+00
     vertex -2.608584e-01 -7.086439e-01  0.000000e+00
   endloop
 endfacet
 facet normal  0.000000e+00  0.000000e+00 -1.000000e+00
   outer loop
     vertex  5.751871e-01  5.025772e-01  0.000000e+00
     vertex  9.924885e-02 -7.523688e-01  0.000000e+00
     vertex -8.345938e-02 -7.523688e-01  0.000000e+00
   endloop
 endfacet
 facet normal  0.000000e+00  0.000000e+00 -1.000000e+00
   outer loop
     vertex  5.751871e-01  5.025772e-01  0.000000e+00
     vertex  2.766479e-01 -7.086439e-01  0.000000e+00
     vertex  9.924885e-02 -7.523688e-01  0.000000e+00
   endloop
 endfacet
 facet normal  0.000000e+00 -0.000000e+00 -1.000000e+00
   outer loop
     vertex  5.751871e-01  5.025772e-01  0.000000e+00
     vertex  6.789772e-01 -3.522112e-01  0.000000e+00
     vertex  2.766479e-01 -7.086439e-01  0.000000e+00
   endloop
 endfacet
 facet normal  0.000000e+00  0.000000e+00 -1.000000e+00
   outer loop
     vertex  5.751871e-01  5.025772e-01  0.000000e+00
     vertex  7.657895e-01  0.000000e+00  0.000000e+00
     vertex  6.789772e-01 -3.522112e-01  0.000000e+00
   endloop
 endfacet
 facet normal  0.000000e+00  0.000000e+00 -1.000000e+00
   outer loop
     vertex  5.751871e-01  5.025772e-01  0.000000e+00
     vertex -4.226385e-01  6.237351e-01  0.000000e+00
     vertex -8.345938e-02  7.523688e-01  0.000000e+00
   endloop
 endfacet
 facet normal  0.000000e+00  0.000000e+00  1.000000e+00
   outer loop
     vertex  2.804563e-01 -7.071878e-01  3.906250e-02
     vertex  2.755126e-01 -7.024424e-01  3.906250e-02
     vertex  1.041039e-01 -7.517634e-01  3.906250e-02
   endloop
 endfacet
 facet normal  0.000000e+00  0.000000e+00  1.000000e+00
   outer loop
     vertex  4.307558e-01 -6.146186e-01  3.906250e-02
     vertex  2.755126e-01 -7.024424e-01  3.906250e-02
     vertex  2.804563e-01 -7.071878e-01  3.906250e-02
   endloop
 endfacet
 facet normal  0.000000e+00  0.000000e+00  1.000000e+00
   outer loop
     vertex  4.411084e-01 -6.218765e-01  3.906250e-02
     vertex  4.307558e-01 -6.146186e-01  3.906250e-02
     vertex  2.804563e-01 -7.071878e-01  3.906250e-02
   endloop
 endfacet
 facet normal  0.000000e+00  0.000000e+00  1.000000e+00
   outer loop
     vertex  5.613244e-01 -4.931059e-01  3.906250e-02
     vertex  4.307558e-01 -6.146186e-01  3.906250e-02
     vertex  4.411084e-01 -6.218765e-01  3.906250e-02
   endloop
 endfacet
 facet normal  0.000000e+00  0.000000e+00  1.000000e+00
   outer loop
     vertex  5.768064e-01 -5.007434e-01  3.906250e-02
     vertex  5.613244e-01 -4.931059e-01  3.906250e-02
     vertex  4.411084e-01 -6.218765e-01  3.906250e-02
   endloop
 endfacet
 facet normal  0.000000e+00  0.000000e+00  1.000000e+00
   outer loop
     vertex  6.600614e-01 -3.445648e-01  3.906250e-02
     vertex  5.613244e-01 -4.931059e-01  3.906250e-02
     vertex  5.768064e-01 -5.007434e-01  3.906250e-02
   endloop
 endfacet
 facet normal  0.000000e+00  0.000000e+00  1.000000e+00
   outer loop
     vertex  6.797336e-01 -3.507663e-01  3.906250e-02
     vertex  6.600614e-01 -3.445648e-01  3.906250e-02
     vertex  5.768064e-01 -5.007434e-01  3.906250e-02
   endloop
 endfacet
 facet normal  0.000000e+00  0.000000e+00  1.000000e+00
   outer loop
     vertex  7.215549e-01 -1.771371e-01  3.906250e-02
     vertex  6.600614e-01 -3.445648e-01  3.906250e-02
     vertex  6.797336e-01 -3.507663e-01  3.906250e-02
   endloop
 endfacet
 facet normal  0.000000e+00  0.000000e+00  1.000000e+00
   outer loop
     vertex  7.439612e-01 -1.805842e-01  3.906250e-02
     vertex  7.215549e-01 -1.771371e-01  3.906250e-02
     vertex  6.797336e-01 -3.507663e-01  3.906250e-02
   endloop
 endfacet
 facet normal  0.000000e+00  0.000000e+00  1.000000e+00
   outer loop
     vertex  7.424342e-01  0.000000e+00  3.906250e-02
     vertex  7.215549e-01 -1.771371e-01  3.906250e-02
     vertex  7.439612e-01 -1.805842e-01  3.906250e-02
   endloop
 endfacet
 facet normal  0.000000e+00  0.000000e+00  1.000000e+00
   outer loop
     vertex  7.657895e-01  0.000000e+00  3.906250e-02
     vertex  7.424342e-01  0.000000e+00  3.906250e-02
     vertex  7.439612e-01 -1.805842e-01  3.906250e-02
   endloop
 endfacet
 facet normal  0.000000e+00  0.000000e+00  1.000000e+00
   outer loop
     vertex  7.439612e-01  1.805842e-01  3.906250e-02
     vertex  7.215549e-01  1.771371e-01  3.906250e-02
     vertex  7.424342e-01  0.000000e+00  3.906250e-02
   endloop
 endfacet
 facet normal  0.000000e+00  0.000000e+00  1.000000e+00
   outer loop
     vertex  7.439612e-01  1.805842e-01  3.906250e-02
     vertex  7.424342e-01  0.000000e+00  3.906250e-02
     vertex  7.657895e-01  0.000000e+00  3.906250e-02
   endloop
 endfacet
 facet normal  0.000000e+00  0.000000e+00  1.000000e+00
   outer loop
     vertex  2.804563e-01  7.071878e-01  3.906250e-02
     vertex  1.041039e-01  7.517634e-01  3.906250e-02
     vertex  2.755126e-01  7.024424e-01  3.906250e-02
   endloop
 endfacet
 facet normal  0.000000e+00  0.000000e+00  1.000000e+00
   outer loop
     vertex  6.797336e-01  3.507663e-01  3.906250e-02
     vertex  6.600614e-01  3.445648e-01  3.906250e-02
     vertex  7.215549e-01  1.771371e-01  3.906250e-02
   endloop
 endfacet
 facet normal  0.000000e+00  0.000000e+00  1.000000e+00
   outer loop
     vertex  6.797336e-01  3.507663e-01  3.906250e-02
     vertex  7.215549e-01  1.771371e-01  3.906250e-02
     vertex  7.439612e-01  1.805842e-01  3.906250e-02
   endloop
 endfacet
 facet normal  0.000000e+00  0.000000e+00  1.000000e+00
   outer loop
     vertex  4.307558e-01  6.146186e-01  3.906250e-02
     vertex  2.804563e-01  7.071878e-01  3.906250e-02
     vertex  2.755126e-01  7.024424e-01  3.906250e-02
   endloop
 endfacet
 facet normal  0.000000e+00  0.000000e+00  1.000000e+00
   outer loop
     vertex  4.411084e-01  6.218765e-01  3.906250e-02
     vertex  4.307558e-01  6.146186e-01  3.906250e-02
     vertex  5.613244e-01  4.931059e-01  3.906250e-02
   endloop
 endfacet
 facet normal  0.000000e+00  0.000000e+00  1.000000e+00
   outer loop
     vertex  4.411084e-01  6.218765e-01  3.906250e-02
     vertex  2.804563e-01  7.071878e-01  3.906250e-02
     vertex  4.307558e-01  6.146186e-01  3.906250e-02
   endloop
 endfacet
 facet normal  0.000000e+00  0.000000e+00  1.000000e+00
   outer loop
     vertex  5.768064e-01  5.007434e-01  3.906250e-02
     vertex  5.613244e-01  4.931059e-01  3.906250e-02
     vertex  6.600614e-01  3.445648e-01  3.906250e-02
   endloop
 endfacet
 facet normal  0.000000e+00  0.000000e+00  1.000000e+00
   outer loop
     vertex  5.768064e-01  5.007434e-01  3.906250e-02
     vertex  6.600614e-01  3.445648e-01  3.906250e-02
     vertex  6.797336e-01  3.507663e-01  3.906250e-02
   endloop
 endfacet
 facet normal  0.000000e+00  0.000000e+00  1.000000e+00
   outer loop
     vertex  5.768064e-01  5.007434e-01  3.906250e-02
     vertex  4.411084e-01  6.218765e-01  3.906250e-02
     vertex  5.613244e-01  4.931059e-01  3.906250e-02
   endloop
 endfacet
 facet normal  0.000000e+00 -0.000000e+00 -1.000000e+00
   outer loop
     vertex -5.580050e-01 -5.041448e-01  3.906250e-02
     vertex -4.370088e-01 -6.371914e-01  3.906250e-02
     vertex -5.804671e-01 -5.153794e-01  3.906250e-02
   endloop
 endfacet
 facet normal -0.000000e+00  0.000000e+00 -1.000000e+00
   outer loop
     vertex -4.203347e-01 -6.253191e-01  3.906250e-02
     vertex -4.370088e-01 -6.371914e-01  3.906250e-02
     vertex -5.580050e-01 -5.041448e-01  3.906250e-02
   endloop
 endfacet
 facet normal  0.000000e+00 -0.000000e+00 -1.000000e+00
   outer loop
     vertex -6.625369e-01 -3.534484e-01  3.906250e-02
     vertex -5.804671e-01 -5.153794e-01  3.906250e-02
     vertex -6.896874e-01 -3.621170e-01  3.906250e-02
   endloop
 endfacet
 facet normal  0.000000e+00  0.000000e+00 -1.000000e+00
   outer loop
     vertex -6.625369e-01 -3.534484e-01  3.906250e-02
     vertex -5.580050e-01 -5.041448e-01  3.906250e-02
     vertex -5.804671e-01 -5.153794e-01  3.906250e-02
   endloop
 endfacet
 facet normal  0.000000e+00  0.000000e+00 -1.000000e+00
   outer loop
     vertex -2.680669e-01 -7.201195e-01  3.906250e-02
     vertex -4.370088e-01 -6.371914e-01  3.906250e-02
     vertex -4.203347e-01 -6.253191e-01  3.906250e-02
   endloop
 endfacet
 facet normal -0.000000e+00  0.000000e+00 -1.000000e+00
   outer loop
     vertex -2.575879e-01 -7.098756e-01  3.906250e-02
     vertex -2.680669e-01 -7.201195e-01  3.906250e-02
     vertex -4.203347e-01 -6.253191e-01  3.906250e-02
   endloop
 endfacet
 facet normal  0.000000e+00 -0.000000e+00 -1.000000e+00
   outer loop
     vertex -7.278094e-01 -1.820546e-01  3.906250e-02
     vertex -6.896874e-01 -3.621170e-01  3.906250e-02
     vertex -7.580047e-01 -1.867568e-01  3.906250e-02
   endloop
 endfacet
 facet normal  0.000000e+00  0.000000e+00 -1.000000e+00
   outer loop
     vertex -7.278094e-01 -1.820546e-01  3.906250e-02
     vertex -6.625369e-01 -3.534484e-01  3.906250e-02
     vertex -6.896874e-01 -3.621170e-01  3.906250e-02
   endloop
 endfacet
 facet normal  0.000000e+00  0.000000e+00 -1.000000e+00
   outer loop
     vertex -8.395080e-02 -7.591032e-01  3.906250e-02
     vertex -2.680669e-01 -7.201195e-01  3.906250e-02
     vertex -2.575879e-01 -7.098756e-01  3.906250e-02
   endloop
 endfacet
 facet normal -0.000000e+00  0.000000e+00 -1.000000e+00
   outer loop
     vertex -7.929486e-02 -7.528628e-01  3.906250e-02
     vertex -8.395080e-02 -7.591032e-01  3.906250e-02
     vertex -2.575879e-01 -7.098756e-01  3.906250e-02
   endloop
 endfacet
 facet normal  0.000000e+00  0.000000e+00 -1.000000e+00
   outer loop
     vertex -7.500000e-01 -2.437575e-16  3.906250e-02
     vertex -7.580047e-01 -1.867568e-01  3.906250e-02
     vertex -7.812500e-01 -2.450271e-16  3.906250e-02
   endloop
 endfacet
 facet normal  0.000000e+00 -0.000000e+00 -1.000000e+00
   outer loop
     vertex -7.500000e-01 -2.437575e-16  3.906250e-02
     vertex -7.278094e-01 -1.820546e-01  3.906250e-02
     vertex -7.580047e-01 -1.867568e-01  3.906250e-02
   endloop
 endfacet
 facet normal  0.000000e+00  0.000000e+00 -1.000000e+00
   outer loop
     vertex  1.041039e-01 -7.517634e-01  3.906250e-02
     vertex -8.395080e-02 -7.591032e-01  3.906250e-02
     vertex -7.929486e-02 -7.528628e-01  3.906250e-02
   endloop
 endfacet
 facet normal  0.000000e+00 -0.000000e+00 -1.000000e+00
   outer loop
     vertex -7.580047e-01  1.867568e-01  3.906250e-02
     vertex -7.500000e-01 -2.437575e-16  3.906250e-02
     vertex -7.812500e-01 -2.450271e-16  3.906250e-02
   endloop
 endfacet
 facet normal -0.000000e+00  0.000000e+00 -1.000000e+00
   outer loop
     vertex -7.278094e-01  1.820546e-01  3.906250e-02
     vertex -7.500000e-01 -2.437575e-16  3.906250e-02
     vertex -7.580047e-01  1.867568e-01  3.906250e-02
   endloop
 endfacet
 facet normal  0.000000e+00  0.000000e+00 -1.000000e+00
   outer loop
     vertex -6.896874e-01  3.621170e-01  3.906250e-02
     vertex -7.278094e-01  1.820546e-01  3.906250e-02
     vertex -7.580047e-01  1.867568e-01  3.906250e-02
   endloop
 endfacet
 facet normal -0.000000e+00  0.000000e+00 -1.000000e+00
   outer loop
     vertex -6.625369e-01  3.534484e-01  3.906250e-02
     vertex -7.278094e-01  1.820546e-01  3.906250e-02
     vertex -6.896874e-01  3.621170e-01  3.906250e-02
   endloop
 endfacet
 facet normal  0.000000e+00  0.000000e+00 -1.000000e+00
   outer loop
     vertex -5.804671e-01  5.153794e-01  3.906250e-02
     vertex -6.625369e-01  3.534484e-01  3.906250e-02
     vertex -6.896874e-01  3.621170e-01  3.906250e-02
   endloop
 endfacet
 facet normal -0.000000e+00  0.000000e+00 -1.000000e+00
   outer loop
     vertex -5.580050e-01  5.041448e-01  3.906250e-02
     vertex -6.625369e-01  3.534484e-01  3.906250e-02
     vertex -5.804671e-01  5.153794e-01  3.906250e-02
   endloop
 endfacet
 facet normal  0.000000e+00  0.000000e+00 -1.000000e+00
   outer loop
     vertex -4.370088e-01  6.371914e-01  3.906250e-02
     vertex -5.580050e-01  5.041448e-01  3.906250e-02
     vertex -5.804671e-01  5.153794e-01  3.906250e-02
   endloop
 endfacet
 facet normal -0.000000e+00  0.000000e+00 -1.000000e+00
   outer loop
     vertex -4.203347e-01  6.253191e-01  3.906250e-02
     vertex -5.580050e-01  5.041448e-01  3.906250e-02
     vertex -4.370088e-01  6.371914e-01  3.906250e-02
   endloop
 endfacet
 facet normal  0.000000e+00  0.000000e+00 -1.000000e+00
   outer loop
     vertex -2.680669e-01  7.201195e-01  3.906250e-02
     vertex -4.203347e-01  6.253191e-01  3.906250e-02
     vertex -4.370088e-01  6.371914e-01  3.906250e-02
   endloop
 endfacet
 facet normal -0.000000e+00  0.000000e+00 -1.000000e+00
   outer loop
     vertex -2.575879e-01  7.098756e-01  3.906250e-02
     vertex -4.203347e-01  6.253191e-01  3.906250e-02
     vertex -2.680669e-01  7.201195e-01  3.906250e-02
   endloop
 endfacet
 facet normal  0.000000e+00 -0.000000e+00 -1.000000e+00
   outer loop
     vertex -8.395080e-02  7.591032e-01  3.906250e-02
     vertex -7.929486e-02  7.528628e-01  3.906250e-02
     vertex -2.575879e-01  7.098756e-01  3.906250e-02
   endloop
 endfacet
 facet normal  0.000000e+00  0.000000e+00 -1.000000e+00
   outer loop
     vertex -8.395080e-02  7.591032e-01  3.906250e-02
     vertex -2.575879e-01  7.098756e-01  3.906250e-02
     vertex -2.680669e-01  7.201195e-01  3.906250e-02
   endloop
 endfacet
 facet normal  0.000000e+00  0.000000e+00 -1.000000e+00
   outer loop
     vertex  1.041039e-01  7.517634e-01  3.906250e-02
     vertex -7.929486e-02  7.528628e-01  3.906250e-02
     vertex -8.395080e-02  7.591032e-01  3.906250e-02
   endloop
 endfacet
 facet normal  9.931248e-01 -1.170606e-01  0.000000e+00
   outer loop
     vertex  7.215549e-01 -1.771371e-01  3.906250e-02
     vertex  7.424342e-01  0.000000e+00  3.906250e-02
     vertex  7.424342e-01  0.000000e+00  1.328125e-01
   endloop
 endfacet
 facet normal  9.926869e-01 -1.205340e-01  6.660454e-03
   outer loop
     vertex  7.215549e-01 -1.771371e-01  3.906250e-02
     vertex  7.424342e-01  0.000000e+00  1.328125e-01
     vertex  7.202965e-01 -1.823207e-01  1.328125e-01
   endloop
 endfacet
 facet normal  9.349381e-01 -3.545753e-01  1.292431e-02
   outer loop
     vertex  6.600614e-01 -3.445648e-01  3.906250e-02
     vertex  7.202965e-01 -1.823207e-01  1.328125e-01
     vertex  6.551698e-01 -3.540457e-01  1.328125e-01
   endloop
 endfacet
 facet normal  9.386693e-01 -3.447581e-01 -6.462599e-03
   outer loop
     vertex  6.600614e-01 -3.445648e-01  3.906250e-02
     vertex  7.215549e-01 -1.771371e-01  3.906250e-02
     vertex  7.202965e-01 -1.823207e-01  1.328125e-01
   endloop
 endfacet
 facet normal  8.228386e-01 -5.679644e-01  1.879073e-02
   outer loop
     vertex  5.613244e-01 -4.931059e-01  3.906250e-02
     vertex  6.551698e-01 -3.540457e-01  1.328125e-01
     vertex  5.508391e-01 -5.051948e-01  1.328125e-01
   endloop
 endfacet
 facet normal  8.327356e-01 -5.535291e-01 -1.252851e-02
   outer loop
     vertex  5.613244e-01 -4.931059e-01  3.906250e-02
     vertex  6.600614e-01 -3.445648e-01  3.906250e-02
     vertex  6.551698e-01 -3.540457e-01  1.328125e-01
   endloop
 endfacet
 facet normal  6.629275e-01 -7.482905e-01  2.425917e-02
   outer loop
     vertex  4.307558e-01 -6.146186e-01  3.906250e-02
     vertex  5.508391e-01 -5.051948e-01  1.328125e-01
     vertex  4.133677e-01 -6.269838e-01  1.328125e-01
   endloop
 endfacet
 facet normal  6.811521e-01 -7.319157e-01 -1.819698e-02
   outer loop
     vertex  4.307558e-01 -6.146186e-01  3.906250e-02
     vertex  5.613244e-01 -4.931059e-01  3.906250e-02
     vertex  5.508391e-01 -5.051948e-01  1.328125e-01
   endloop
 endfacet
 facet normal  4.645233e-01 -8.850751e-01  2.932926e-02
   outer loop
     vertex  2.755126e-01 -7.024424e-01  3.906250e-02
     vertex  4.133677e-01 -6.269838e-01  1.328125e-01
     vertex  2.507450e-01 -7.123347e-01  1.328125e-01
   endloop
 endfacet
 facet normal  4.922513e-01 -8.701367e-01 -2.346747e-02
   outer loop
     vertex  2.755126e-01 -7.024424e-01  3.906250e-02
     vertex  4.307558e-01 -6.146186e-01  3.906250e-02
     vertex  4.133677e-01 -6.269838e-01  1.328125e-01
   endloop
 endfacet
 facet normal  2.391773e-01 -9.703804e-01  3.400086e-02
   outer loop
     vertex  1.041039e-01 -7.517634e-01  3.906250e-02
     vertex  2.507450e-01 -7.123347e-01  1.328125e-01
     vertex  7.242202e-02 -7.562874e-01  1.328125e-01
   endloop
 endfacet
 facet normal  2.764088e-01 -9.606222e-01 -2.833969e-02
   outer loop
     vertex  1.041039e-01 -7.517634e-01  3.906250e-02
     vertex  2.755126e-01 -7.024424e-01  3.906250e-02
     vertex  2.507450e-01 -7.123347e-01  1.328125e-01
   endloop
 endfacet
 facet normal -2.416909e-15 -9.995493e-01  3.002103e-02
   outer loop
     vertex -8.395080e-02 -7.591032e-01  3.906250e-02
     vertex  7.242202e-02 -7.562874e-01  1.328125e-01
     vertex -1.112378e-01 -7.562874e-01  1.328125e-01
   endloop
 endfacet
 facet normal  3.897624e-02 -9.986263e-01 -3.501816e-02
   outer loop
     vertex -8.395080e-02 -7.591032e-01  3.906250e-02
     vertex  1.041039e-01 -7.517634e-01  3.906250e-02
     vertex  7.242202e-02 -7.562874e-01  1.328125e-01
   endloop
 endfacet
 facet normal -2.392363e-01 -9.706199e-01  2.574842e-02
   outer loop
     vertex -2.680669e-01 -7.201195e-01  3.906250e-02
     vertex -1.112378e-01 -7.562874e-01  1.328125e-01
     vertex -2.895608e-01 -7.123347e-01  1.328125e-01
   endloop
 endfacet
 facet normal -2.070429e-01 -9.778440e-01 -3.089309e-02
   outer loop
     vertex -2.680669e-01 -7.201195e-01  3.906250e-02
     vertex -8.395080e-02 -7.591032e-01  3.906250e-02
     vertex -1.112378e-01 -7.562874e-01  1.328125e-01
   endloop
 endfacet
 facet normal -4.646189e-01 -8.852573e-01  2.118311e-02
   outer loop
     vertex -4.370088e-01 -6.371914e-01  3.906250e-02
     vertex -2.895608e-01 -7.123347e-01  1.328125e-01
     vertex -4.521835e-01 -6.269838e-01  1.328125e-01
   endloop
 endfacet
 facet normal -4.404887e-01 -8.973677e-01 -2.647518e-02
   outer loop
     vertex -4.370088e-01 -6.371914e-01  3.906250e-02
     vertex -2.680669e-01 -7.201195e-01  3.906250e-02
     vertex -2.895608e-01 -7.123347e-01  1.328125e-01
   endloop
 endfacet
 facet normal -6.630343e-01 -7.484110e-01  1.632526e-02
   outer loop
     vertex -5.804671e-01 -5.153794e-01  3.906250e-02
     vertex -4.521835e-01 -6.269838e-01  1.328125e-01
     vertex -5.896549e-01 -5.051948e-01  1.328125e-01
   endloop
 endfacet
 facet normal -6.471014e-01 -7.620932e-01 -2.176453e-02
   outer loop
     vertex -5.804671e-01 -5.153794e-01  3.906250e-02
     vertex -4.370088e-01 -6.371914e-01  3.906250e-02
     vertex -4.521835e-01 -6.269838e-01  1.328125e-01
   endloop
 endfacet
 facet normal -8.142540e-01 -5.802668e-01 -1.676130e-02
   outer loop
     vertex -6.896874e-01 -3.621170e-01  3.906250e-02
     vertex -5.804671e-01 -5.153794e-01  3.906250e-02
     vertex -5.896549e-01 -5.051948e-01  1.328125e-01
   endloop
 endfacet
 facet normal -8.229325e-01 -5.680293e-01  1.117516e-02
   outer loop
     vertex -6.896874e-01 -3.621170e-01  3.906250e-02
     vertex -5.896549e-01 -5.051948e-01  1.328125e-01
     vertex -6.939856e-01 -3.540457e-01  1.328125e-01
   endloop
 endfacet
 facet normal -9.317249e-01 -3.629839e-01 -1.146582e-02
   outer loop
     vertex -7.580047e-01 -1.867568e-01  3.906250e-02
     vertex -6.896874e-01 -3.621170e-01  3.906250e-02
     vertex -6.939856e-01 -3.540457e-01  1.328125e-01
   endloop
 endfacet
 facet normal -9.350009e-01 -3.545991e-01  5.733219e-03
   outer loop
     vertex -7.580047e-01 -1.867568e-01  3.906250e-02
     vertex -6.939856e-01 -3.540457e-01  1.328125e-01
     vertex -7.591123e-01 -1.823207e-01  1.328125e-01
   endloop
 endfacet
 facet normal -9.923256e-01 -1.235129e-01 -5.878520e-03
   outer loop
     vertex -7.812500e-01 -2.450271e-16  3.906250e-02
     vertex -7.580047e-01 -1.867568e-01  3.906250e-02
     vertex -7.591123e-01 -1.823207e-01  1.328125e-01
   endloop
 endfacet
 facet normal -9.927089e-01  1.205367e-01 -1.304982e-15
   outer loop
     vertex -7.812500e-01 -2.450271e-16  3.906250e-02
     vertex -7.812500e-01  7.699505e-16  1.328125e-01
     vertex -7.591123e-01  1.823207e-01  1.328125e-01
   endloop
 endfacet
 facet normal -9.927089e-01 -1.205367e-01  1.304982e-15
   outer loop
     vertex -7.812500e-01 -2.450271e-16  3.906250e-02
     vertex -7.591123e-01 -1.823207e-01  1.328125e-01
     vertex -7.812500e-01  7.699505e-16  1.328125e-01
   endloop
 endfacet
 facet normal -9.923256e-01  1.235129e-01 -5.878520e-03
   outer loop
     vertex -7.580047e-01  1.867568e-01  3.906250e-02
     vertex -7.812500e-01 -2.450271e-16  3.906250e-02
     vertex -7.591123e-01  1.823207e-01  1.328125e-01
   endloop
 endfacet
 facet normal -9.350009e-01  3.545991e-01  5.733219e-03
   outer loop
     vertex -7.580047e-01  1.867568e-01  3.906250e-02
     vertex -7.591123e-01  1.823207e-01  1.328125e-01
     vertex -6.939856e-01  3.540457e-01  1.328125e-01
   endloop
 endfacet
 facet normal -9.317249e-01  3.629839e-01 -1.146582e-02
   outer loop
     vertex -6.896874e-01  3.621170e-01  3.906250e-02
     vertex -7.580047e-01  1.867568e-01  3.906250e-02
     vertex -6.939856e-01  3.540457e-01  1.328125e-01
   endloop
 endfacet
 facet normal -8.229325e-01  5.680293e-01  1.117516e-02
   outer loop
     vertex -6.896874e-01  3.621170e-01  3.906250e-02
     vertex -6.939856e-01  3.540457e-01  1.328125e-01
     vertex -5.896549e-01  5.051948e-01  1.328125e-01
   endloop
 endfacet
 facet normal -8.142540e-01  5.802668e-01 -1.676130e-02
   outer loop
     vertex -5.804671e-01  5.153794e-01  3.906250e-02
     vertex -6.896874e-01  3.621170e-01  3.906250e-02
     vertex -5.896549e-01  5.051948e-01  1.328125e-01
   endloop
 endfacet
 facet normal -6.630343e-01  7.484110e-01  1.632526e-02
   outer loop
     vertex -5.804671e-01  5.153794e-01  3.906250e-02
     vertex -5.896549e-01  5.051948e-01  1.328125e-01
     vertex -4.521835e-01  6.269838e-01  1.328125e-01
   endloop
 endfacet
 facet normal -6.471014e-01  7.620932e-01 -2.176453e-02
   outer loop
     vertex -4.370088e-01  6.371914e-01  3.906250e-02
     vertex -5.804671e-01  5.153794e-01  3.906250e-02
     vertex -4.521835e-01  6.269838e-01  1.328125e-01
   endloop
 endfacet
 facet normal -4.646189e-01  8.852573e-01  2.118311e-02
   outer loop
     vertex -4.370088e-01  6.371914e-01  3.906250e-02
     vertex -4.521835e-01  6.269838e-01  1.328125e-01
     vertex -2.895608e-01  7.123347e-01  1.328125e-01
   endloop
 endfacet
 facet normal -2.392363e-01  9.706199e-01  2.574842e-02
   outer loop
     vertex -2.680669e-01  7.201195e-01  3.906250e-02
     vertex -2.895608e-01  7.123347e-01  1.328125e-01
     vertex -1.112378e-01  7.562874e-01  1.328125e-01
   endloop
 endfacet
 facet normal -4.404887e-01  8.973677e-01 -2.647518e-02
   outer loop
     vertex -2.680669e-01  7.201195e-01  3.906250e-02
     vertex -4.370088e-01  6.371914e-01  3.906250e-02
     vertex -2.895608e-01  7.123347e-01  1.328125e-01
   endloop
 endfacet
 facet normal  0.000000e+00  9.995493e-01  3.002103e-02
   outer loop
     vertex -8.395080e-02  7.591032e-01  3.906250e-02
     vertex -1.112378e-01  7.562874e-01  1.328125e-01
     vertex  7.242202e-02  7.562874e-01  1.328125e-01
   endloop
 endfacet
 facet normal -2.070429e-01  9.778440e-01 -3.089309e-02
   outer loop
     vertex -8.395080e-02  7.591032e-01  3.906250e-02
     vertex -2.680669e-01  7.201195e-01  3.906250e-02
     vertex -1.112378e-01  7.562874e-01  1.328125e-01
   endloop
 endfacet
 facet normal  2.391773e-01  9.703804e-01  3.400086e-02
   outer loop
     vertex  1.041039e-01  7.517634e-01  3.906250e-02
     vertex  7.242202e-02  7.562874e-01  1.328125e-01
     vertex  2.507450e-01  7.123347e-01  1.328125e-01
   endloop
 endfacet
 facet normal  3.897624e-02  9.986263e-01 -3.501816e-02
   outer loop
     vertex  1.041039e-01  7.517634e-01  3.906250e-02
     vertex -8.395080e-02  7.591032e-01  3.906250e-02
     vertex  7.242202e-02  7.562874e-01  1.328125e-01
   endloop
 endfacet
 facet normal  4.645233e-01  8.850751e-01  2.932926e-02
   outer loop
     vertex  2.755126e-01  7.024424e-01  3.906250e-02
     vertex  2.507450e-01  7.123347e-01  1.328125e-01
     vertex  4.133677e-01  6.269838e-01  1.328125e-01
   endloop
 endfacet
 facet normal  2.764088e-01  9.606222e-01 -2.833969e-02
   outer loop
     vertex  2.755126e-01  7.024424e-01  3.906250e-02
     vertex  1.041039e-01  7.517634e-01  3.906250e-02
     vertex  2.507450e-01  7.123347e-01  1.328125e-01
   endloop
 endfacet
 facet normal  6.629275e-01  7.482905e-01  2.425917e-02
   outer loop
     vertex  4.307558e-01  6.146186e-01  3.906250e-02
     vertex  4.133677e-01  6.269838e-01  1.328125e-01
     vertex  5.508391e-01  5.051948e-01  1.328125e-01
   endloop
 endfacet
 facet normal  4.922513e-01  8.701367e-01 -2.346747e-02
   outer loop
     vertex  4.307558e-01  6.146186e-01  3.906250e-02
     vertex  2.755126e-01  7.024424e-01  3.906250e-02
     vertex  4.133677e-01  6.269838e-01  1.328125e-01
   endloop
 endfacet
 facet normal  8.228386e-01  5.679644e-01  1.879073e-02
   outer loop
     vertex  5.613244e-01  4.931059e-01  3.906250e-02
     vertex  5.508391e-01  5.051948e-01  1.328125e-01
     vertex  6.551698e-01  3.540457e-01  1.328125e-01
   endloop
 endfacet
 facet normal  6.811521e-01  7.319157e-01 -1.819698e-02
   outer loop
     vertex  5.613244e-01  4.931059e-01  3.906250e-02
     vertex  4.307558e-01  6.146186e-01  3.906250e-02
     vertex  5.508391e-01  5.051948e-01  1.328125e-01
   endloop
 endfacet
 facet normal  9.349381e-01  3.545753e-01  1.292431e-02
   outer loop
     vertex  6.600614e-01  3.445648e-01  3.906250e-02
     vertex  6.551698e-01  3.540457e-01  1.328125e-01
     vertex  7.202965e-01  1.823207e-01  1.328125e-01
   endloop
 endfacet
 facet normal  8.327356e-01  5.535291e-01 -1.252851e-02
   outer loop
     vertex  6.600614e-01  3.445648e-01  3.906250e-02
     vertex  5.613244e-01  4.931059e-01  3.906250e-02
     vertex  6.551698e-01  3.540457e-01  1.328125e-01
   endloop
 endfacet
 facet normal  9.926869e-01  1.205340e-01  6.660454e-03
   outer loop
     vertex  7.215549e-01  1.771371e-01  3.906250e-02
     vertex  7.202965e-01  1.823207e-01  1.328125e-01
     vertex  7.424342e-01  0.000000e+00  1.328125e-01
   endloop
 endfacet
 facet normal  9.386693e-01  3.447581e-01 -6.462599e-03
   outer loop
     vertex  7.215549e-01  1.771371e-01  3.906250e-02
     vertex  6.600614e-01  3.445648e-01  3.906250e-02
     vertex  7.202965e-01  1.823207e-01  1.328125e-01
   endloop
 endfacet
 facet normal  9.931248e-01  1.170606e-01 -0.000000e+00
   outer loop
     vertex  7.424342e-01  0.000000e+00  3.906250e-02
     vertex  7.215549e-01  1.771371e-01  3.906250e-02
     vertex  7.424342e-01  0.000000e+00  1.328125e-01
   endloop
 endfacet
 facet normal  0.000000e+00  0.000000e+00  1.000000e+00
   outer loop
     vertex -2.718604e-01 -3.657405e-01  1.328125e-01
     vertex -5.896549e-01 -5.051948e-01  1.328125e-01
     vertex -4.521835e-01 -6.269838e-01  1.328125e-01
   endloop
 endfacet
 facet normal  0.000000e+00  0.000000e+00  1.000000e+00
   outer loop
     vertex -2.718604e-01 -3.657405e-01  1.328125e-01
     vertex -3.520520e-01 -2.946969e-01  1.328125e-01
     vertex -5.896549e-01 -5.051948e-01  1.328125e-01
   endloop
 endfacet
 facet normal  0.000000e+00  0.000000e+00  1.000000e+00
   outer loop
     vertex -4.129115e-01 -2.065266e-01  1.328125e-01
     vertex -6.939856e-01 -3.540457e-01  1.328125e-01
     vertex -5.896549e-01 -5.051948e-01  1.328125e-01
   endloop
 endfacet
 facet normal  0.000000e+00  0.000000e+00  1.000000e+00
   outer loop
     vertex -4.129115e-01 -2.065266e-01  1.328125e-01
     vertex -5.896549e-01 -5.051948e-01  1.328125e-01
     vertex -3.520520e-01 -2.946969e-01  1.328125e-01
   endloop
 endfacet
 facet normal  0.000000e+00  0.000000e+00  1.000000e+00
   outer loop
     vertex -1.769971e-01 -4.155286e-01  1.328125e-01
     vertex -4.521835e-01 -6.269838e-01  1.328125e-01
     vertex -2.895608e-01 -7.123347e-01  1.328125e-01
   endloop
 endfacet
 facet normal  0.000000e+00  0.000000e+00  1.000000e+00
   outer loop
     vertex -1.769971e-01 -4.155286e-01  1.328125e-01
     vertex -2.718604e-01 -3.657405e-01  1.328125e-01
     vertex -4.521835e-01 -6.269838e-01  1.328125e-01
   endloop
 endfacet
 facet normal  0.000000e+00  0.000000e+00  1.000000e+00
   outer loop
     vertex -4.509021e-01 -1.063538e-01  1.328125e-01
     vertex -7.591123e-01 -1.823207e-01  1.328125e-01
     vertex -6.939856e-01 -3.540457e-01  1.328125e-01
   endloop
 endfacet
 facet normal  0.000000e+00  0.000000e+00  1.000000e+00
   outer loop
     vertex -4.509021e-01 -1.063538e-01  1.328125e-01
     vertex -6.939856e-01 -3.540457e-01  1.328125e-01
     vertex -4.129115e-01 -2.065266e-01  1.328125e-01
   endloop
 endfacet
 facet normal  0.000000e+00  0.000000e+00  1.000000e+00
   outer loop
     vertex -7.297535e-02 -4.411677e-01  1.328125e-01
     vertex -2.895608e-01 -7.123347e-01  1.328125e-01
     vertex -1.112378e-01 -7.562874e-01  1.328125e-01
   endloop
 endfacet
 facet normal  0.000000e+00  0.000000e+00  1.000000e+00
   outer loop
     vertex -7.297535e-02 -4.411677e-01  1.328125e-01
     vertex -1.769971e-01 -4.155286e-01  1.328125e-01
     vertex -2.895608e-01 -7.123347e-01  1.328125e-01
   endloop
 endfacet
 facet normal  0.000000e+00  0.000000e+00  1.000000e+00
   outer loop
     vertex -4.638158e-01  4.491378e-16  1.328125e-01
     vertex -7.812500e-01  7.699505e-16  1.328125e-01
     vertex -7.591123e-01 -1.823207e-01  1.328125e-01
   endloop
 endfacet
 facet normal  0.000000e+00  0.000000e+00  1.000000e+00
   outer loop
     vertex -4.638158e-01  4.491378e-16  1.328125e-01
     vertex -7.591123e-01 -1.823207e-01  1.328125e-01
     vertex -4.509021e-01 -1.063538e-01  1.328125e-01
   endloop
 endfacet
 facet normal  0.000000e+00  0.000000e+00  1.000000e+00
   outer loop
     vertex  3.415956e-02 -4.411677e-01  1.328125e-01
     vertex -1.112378e-01 -7.562874e-01  1.328125e-01
     vertex  7.242202e-02 -7.562874e-01  1.328125e-01
   endloop
 endfacet
 facet normal  0.000000e+00  0.000000e+00  1.000000e+00
   outer loop
     vertex  3.415956e-02 -4.411677e-01  1.328125e-01
     vertex -7.297535e-02 -4.411677e-01  1.328125e-01
     vertex -1.112378e-01 -7.562874e-01  1.328125e-01
   endloop
 endfacet
 facet normal  0.000000e+00  0.000000e+00  1.000000e+00
   outer loop
     vertex -4.509021e-01  1.063538e-01  1.328125e-01
     vertex -7.591123e-01  1.823207e-01  1.328125e-01
     vertex -7.812500e-01  7.699505e-16  1.328125e-01
   endloop
 endfacet
 facet normal  0.000000e+00  0.000000e+00  1.000000e+00
   outer loop
     vertex -4.509021e-01  1.063538e-01  1.328125e-01
     vertex -7.812500e-01  7.699505e-16  1.328125e-01
     vertex -4.638158e-01  4.491378e-16  1.328125e-01
   endloop
 endfacet
 facet normal  0.000000e+00  0.000000e+00  1.000000e+00
   outer loop
     vertex  1.381813e-01 -4.155286e-01  1.328125e-01
     vertex  7.242202e-02 -7.562874e-01  1.328125e-01
     vertex  2.507450e-01 -7.123347e-01  1.328125e-01
   endloop
 endfacet
 facet normal  0.000000e+00  0.000000e+00  1.000000e+00
   outer loop
     vertex  1.381813e-01 -4.155286e-01  1.328125e-01
     vertex  3.415956e-02 -4.411677e-01  1.328125e-01
     vertex  7.242202e-02 -7.562874e-01  1.328125e-01
   endloop
 endfacet
 facet normal  0.000000e+00  0.000000e+00  1.000000e+00
   outer loop
     vertex -4.129115e-01  2.065266e-01  1.328125e-01
     vertex -6.939856e-01  3.540457e-01  1.328125e-01
     vertex -7.591123e-01  1.823207e-01  1.328125e-01
   endloop
 endfacet
 facet normal  0.000000e+00  0.000000e+00  1.000000e+00
   outer loop
     vertex -4.129115e-01  2.065266e-01  1.328125e-01
     vertex -7.591123e-01  1.823207e-01  1.328125e-01
     vertex -4.509021e-01  1.063538e-01  1.328125e-01
   endloop
 endfacet
 facet normal  0.000000e+00  0.000000e+00  1.000000e+00
   outer loop
     vertex  2.330446e-01 -3.657405e-01  1.328125e-01
     vertex  2.507450e-01 -7.123347e-01  1.328125e-01
     vertex  4.133677e-01 -6.269838e-01  1.328125e-01
   endloop
 endfacet
 facet normal  0.000000e+00  0.000000e+00  1.000000e+00
   outer loop
     vertex  2.330446e-01 -3.657405e-01  1.328125e-01
     vertex  1.381813e-01 -4.155286e-01  1.328125e-01
     vertex  2.507450e-01 -7.123347e-01  1.328125e-01
   endloop
 endfacet
 facet normal  0.000000e+00  0.000000e+00  1.000000e+00
   outer loop
     vertex -3.520520e-01  2.946969e-01  1.328125e-01
     vertex -5.896549e-01  5.051948e-01  1.328125e-01
     vertex -6.939856e-01  3.540457e-01  1.328125e-01
   endloop
 endfacet
 facet normal  0.000000e+00  0.000000e+00  1.000000e+00
   outer loop
     vertex -3.520520e-01  2.946969e-01  1.328125e-01
     vertex -6.939856e-01  3.540457e-01  1.328125e-01
     vertex -4.129115e-01  2.065266e-01  1.328125e-01
   endloop
 endfacet
 facet normal  0.000000e+00  0.000000e+00  1.000000e+00
   outer loop
     vertex  3.132362e-01 -2.946969e-01  1.328125e-01
     vertex  2.330446e-01 -3.657405e-01  1.328125e-01
     vertex  4.133677e-01 -6.269838e-01  1.328125e-01
   endloop
 endfacet
 facet normal  0.000000e+00  0.000000e+00  1.000000e+00
   outer loop
     vertex  5.508391e-01 -5.051948e-01  1.328125e-01
     vertex  3.132362e-01 -2.946969e-01  1.328125e-01
     vertex  4.133677e-01 -6.269838e-01  1.328125e-01
   endloop
 endfacet
 facet normal  0.000000e+00  0.000000e+00  1.000000e+00
   outer loop
     vertex -4.521835e-01  6.269838e-01  1.328125e-01
     vertex -5.896549e-01  5.051948e-01  1.328125e-01
     vertex -3.520520e-01  2.946969e-01  1.328125e-01
   endloop
 endfacet
 facet normal  0.000000e+00  0.000000e+00  1.000000e+00
   outer loop
     vertex -4.521835e-01  6.269838e-01  1.328125e-01
     vertex -3.520520e-01  2.946969e-01  1.328125e-01
     vertex -2.718604e-01  3.657405e-01  1.328125e-01
   endloop
 endfacet
 facet normal  0.000000e+00  0.000000e+00  1.000000e+00
   outer loop
     vertex  6.551698e-01 -3.540457e-01  1.328125e-01
     vertex  3.740958e-01 -2.065266e-01  1.328125e-01
     vertex  3.132362e-01 -2.946969e-01  1.328125e-01
   endloop
 endfacet
 facet normal  0.000000e+00  0.000000e+00  1.000000e+00
   outer loop
     vertex  6.551698e-01 -3.540457e-01  1.328125e-01
     vertex  3.132362e-01 -2.946969e-01  1.328125e-01
     vertex  5.508391e-01 -5.051948e-01  1.328125e-01
   endloop
 endfacet
 facet normal  0.000000e+00  0.000000e+00  1.000000e+00
   outer loop
     vertex -2.895608e-01  7.123347e-01  1.328125e-01
     vertex -4.521835e-01  6.269838e-01  1.328125e-01
     vertex -2.718604e-01  3.657405e-01  1.328125e-01
   endloop
 endfacet
 facet normal  0.000000e+00  0.000000e+00  1.000000e+00
   outer loop
     vertex -2.895608e-01  7.123347e-01  1.328125e-01
     vertex -2.718604e-01  3.657405e-01  1.328125e-01
     vertex -1.769971e-01  4.155286e-01  1.328125e-01
   endloop
 endfacet
 facet normal  0.000000e+00  0.000000e+00  1.000000e+00
   outer loop
     vertex  7.202965e-01 -1.823207e-01  1.328125e-01
     vertex  3.740958e-01 -2.065266e-01  1.328125e-01
     vertex  6.551698e-01 -3.540457e-01  1.328125e-01
   endloop
 endfacet
 facet normal  0.000000e+00  0.000000e+00  1.000000e+00
   outer loop
     vertex  7.202965e-01 -1.823207e-01  1.328125e-01
     vertex  4.120863e-01 -1.063538e-01  1.328125e-01
     vertex  3.740958e-01 -2.065266e-01  1.328125e-01
   endloop
 endfacet
 facet normal  0.000000e+00  0.000000e+00  1.000000e+00
   outer loop
     vertex  7.202965e-01 -1.823207e-01  1.328125e-01
     vertex  4.250000e-01  0.000000e+00  1.328125e-01
     vertex  4.120863e-01 -1.063538e-01  1.328125e-01
   endloop
 endfacet
 facet normal  0.000000e+00  0.000000e+00  1.000000e+00
   outer loop
     vertex -1.112378e-01  7.562874e-01  1.328125e-01
     vertex -2.895608e-01  7.123347e-01  1.328125e-01
     vertex -1.769971e-01  4.155286e-01  1.328125e-01
   endloop
 endfacet
 facet normal  0.000000e+00  0.000000e+00  1.000000e+00
   outer loop
     vertex -1.112378e-01  7.562874e-01  1.328125e-01
     vertex -7.297535e-02  4.411677e-01  1.328125e-01
     vertex  3.415956e-02  4.411677e-01  1.328125e-01
   endloop
 endfacet
 facet normal  0.000000e+00  0.000000e+00  1.000000e+00
   outer loop
     vertex -1.112378e-01  7.562874e-01  1.328125e-01
     vertex -1.769971e-01  4.155286e-01  1.328125e-01
     vertex -7.297535e-02  4.411677e-01  1.328125e-01
   endloop
 endfacet
 facet normal  0.000000e+00  0.000000e+00  1.000000e+00
   outer loop
     vertex  7.424342e-01  0.000000e+00  1.328125e-01
     vertex  4.250000e-01  0.000000e+00  1.328125e-01
     vertex  7.202965e-01 -1.823207e-01  1.328125e-01
   endloop
 endfacet
 facet normal  0.000000e+00  0.000000e+00  1.000000e+00
   outer loop
     vertex  7.424342e-01  0.000000e+00  1.328125e-01
     vertex  4.120863e-01  1.063538e-01  1.328125e-01
     vertex  4.250000e-01  0.000000e+00  1.328125e-01
   endloop
 endfacet
 facet normal  0.000000e+00  0.000000e+00  1.000000e+00
   outer loop
     vertex  7.242202e-02  7.562874e-01  1.328125e-01
     vertex -1.112378e-01  7.562874e-01  1.328125e-01
     vertex  3.415956e-02  4.411677e-01  1.328125e-01
   endloop
 endfacet
 facet normal  0.000000e+00  0.000000e+00  1.000000e+00
   outer loop
     vertex  7.202965e-01  1.823207e-01  1.328125e-01
     vertex  4.120863e-01  1.063538e-01  1.328125e-01
     vertex  7.424342e-01  0.000000e+00  1.328125e-01
   endloop
 endfacet
 facet normal  0.000000e+00  0.000000e+00  1.000000e+00
   outer loop
     vertex  2.507450e-01  7.123347e-01  1.328125e-01
     vertex  3.415956e-02  4.411677e-01  1.328125e-01
     vertex  1.381813e-01  4.155286e-01  1.328125e-01
   endloop
 endfacet
 facet normal  0.000000e+00  0.000000e+00  1.000000e+00
   outer loop
     vertex  2.507450e-01  7.123347e-01  1.328125e-01
     vertex  7.242202e-02  7.562874e-01  1.328125e-01
     vertex  3.415956e-02  4.411677e-01  1.328125e-01
   endloop
 endfacet
 facet normal  0.000000e+00  0.000000e+00  1.000000e+00
   outer loop
     vertex  6.551698e-01  3.540457e-01  1.328125e-01
     vertex  3.740958e-01  2.065266e-01  1.328125e-01
     vertex  4.120863e-01  1.063538e-01  1.328125e-01
   endloop
 endfacet
 facet normal  0.000000e+00  0.000000e+00  1.000000e+00
   outer loop
     vertex  6.551698e-01  3.540457e-01  1.328125e-01
     vertex  3.132362e-01  2.946969e-01  1.328125e-01
     vertex  3.740958e-01  2.065266e-01  1.328125e-01
   endloop
 endfacet
 facet normal  0.000000e+00  0.000000e+00  1.000000e+00
   outer loop
     vertex  6.551698e-01  3.540457e-01  1.328125e-01
     vertex  4.120863e-01  1.063538e-01  1.328125e-01
     vertex  7.202965e-01  1.823207e-01  1.328125e-01
   endloop
 endfacet
 facet normal  0.000000e+00  0.000000e+00  1.000000e+00
   outer loop
     vertex  4.133677e-01  6.269838e-01  1.328125e-01
     vertex  2.330446e-01  3.657405e-01  1.328125e-01
     vertex  3.132362e-01  2.946969e-01  1.328125e-01
   endloop
 endfacet
 facet normal  0.000000e+00  0.000000e+00  1.000000e+00
   outer loop
     vertex  4.133677e-01  6.269838e-01  1.328125e-01
     vertex  1.381813e-01  4.155286e-01  1.328125e-01
     vertex  2.330446e-01  3.657405e-01  1.328125e-01
   endloop
 endfacet
 facet normal  0.000000e+00  0.000000e+00  1.000000e+00
   outer loop
     vertex  4.133677e-01  6.269838e-01  1.328125e-01
     vertex  2.507450e-01  7.123347e-01  1.328125e-01
     vertex  1.381813e-01  4.155286e-01  1.328125e-01
   endloop
 endfacet
 facet normal  0.000000e+00  0.000000e+00  1.000000e+00
   outer loop
     vertex  5.508391e-01  5.051948e-01  1.328125e-01
     vertex  4.133677e-01  6.269838e-01  1.328125e-01
     vertex  3.132362e-01  2.946969e-01  1.328125e-01
   endloop
 endfacet
 facet normal  0.000000e+00  0.000000e+00  1.000000e+00
   outer loop
     vertex  5.508391e-01  5.051948e-01  1.328125e-01
     vertex  3.132362e-01  2.946969e-01  1.328125e-01
     vertex  6.551698e-01  3.540457e-01  1.328125e-01
   endloop
 endfacet
 facet normal -9.927089e-01  1.205367e-01  0.000000e+00
   outer loop
     vertex  4.120863e-01 -1.063538e-01  3.906250e-02
     vertex  4.250000e-01  0.000000e+00  1.328125e-01
     vertex  4.250000e-01  0.000000e+00  3.906250e-02
   endloop
 endfacet
 facet normal -9.927089e-01  1.205367e-01  0.000000e+00
   outer loop
     vertex  4.120863e-01 -1.063538e-01  3.906250e-02
     vertex  4.120863e-01 -1.063538e-01  1.328125e-01
     vertex  4.250000e-01  0.000000e+00  1.328125e-01
   endloop
 endfacet
 facet normal -9.350162e-01  3.546049e-01  0.000000e+00
   outer loop
     vertex  3.740958e-01 -2.065266e-01  3.906250e-02
     vertex  3.740958e-01 -2.065266e-01  1.328125e-01
     vertex  4.120863e-01 -1.063538e-01  1.328125e-01
   endloop
 endfacet
 facet normal -9.350162e-01  3.546049e-01  0.000000e+00
   outer loop
     vertex  3.740958e-01 -2.065266e-01  3.906250e-02
     vertex  4.120863e-01 -1.063538e-01  1.328125e-01
     vertex  4.120863e-01 -1.063538e-01  3.906250e-02
   endloop
 endfacet
 facet normal -8.229839e-01  5.680647e-01  0.000000e+00
   outer loop
     vertex  3.132362e-01 -2.946969e-01  3.906250e-02
     vertex  3.132362e-01 -2.946969e-01  1.328125e-01
     vertex  3.740958e-01 -2.065266e-01  1.328125e-01
   endloop
 endfacet
 facet normal -8.229839e-01  5.680647e-01  0.000000e+00
   outer loop
     vertex  3.132362e-01 -2.946969e-01  3.906250e-02
     vertex  3.740958e-01 -2.065266e-01  1.328125e-01
     vertex  3.740958e-01 -2.065266e-01  3.906250e-02
   endloop
 endfacet
 facet normal -6.631227e-01  7.485107e-01  0.000000e+00
   outer loop
     vertex  2.330446e-01 -3.657405e-01  3.906250e-02
     vertex  2.330446e-01 -3.657405e-01  1.328125e-01
     vertex  3.132362e-01 -2.946969e-01  1.328125e-01
   endloop
 endfacet
 facet normal -6.631227e-01  7.485107e-01  0.000000e+00
   outer loop
     vertex  2.330446e-01 -3.657405e-01  3.906250e-02
     vertex  3.132362e-01 -2.946969e-01  1.328125e-01
     vertex  3.132362e-01 -2.946969e-01  3.906250e-02
   endloop
 endfacet
 facet normal -4.647232e-01  8.854560e-01  0.000000e+00
   outer loop
     vertex  1.381813e-01 -4.155286e-01  3.906250e-02
     vertex  1.381813e-01 -4.155286e-01  1.328125e-01
     vertex  2.330446e-01 -3.657405e-01  1.328125e-01
   endloop
 endfacet
 facet normal -4.647232e-01  8.854560e-01  0.000000e+00
   outer loop
     vertex  1.381813e-01 -4.155286e-01  3.906250e-02
     vertex  2.330446e-01 -3.657405e-01  1.328125e-01
     vertex  2.330446e-01 -3.657405e-01  3.906250e-02
   endloop
 endfacet
 facet normal -2.393157e-01  9.709418e-01  0.000000e+00
   outer loop
     vertex  3.415956e-02 -4.411677e-01  3.906250e-02
     vertex  3.415956e-02 -4.411677e-01  1.328125e-01
     vertex  1.381813e-01 -4.155286e-01  1.328125e-01
   endloop
 endfacet
 facet normal -2.393157e-01  9.709418e-01  0.000000e+00
   outer loop
     vertex  3.415956e-02 -4.411677e-01  3.906250e-02
     vertex  1.381813e-01 -4.155286e-01  1.328125e-01
     vertex  1.381813e-01 -4.155286e-01  3.906250e-02
   endloop
 endfacet
 facet normal  2.590713e-15  1.000000e+00 -0.000000e+00
   outer loop
     vertex -7.297535e-02 -4.411677e-01  3.906250e-02
     vertex -7.297535e-02 -4.411677e-01  1.328125e-01
     vertex  3.415956e-02 -4.411677e-01  1.328125e-01
   endloop
 endfacet
 facet normal  2.590713e-15  1.000000e+00  0.000000e+00
   outer loop
     vertex -7.297535e-02 -4.411677e-01  3.906250e-02
     vertex  3.415956e-02 -4.411677e-01  1.328125e-01
     vertex  3.415956e-02 -4.411677e-01  3.906250e-02
   endloop
 endfacet
 facet normal  2.393157e-01  9.709418e-01 -0.000000e+00
   outer loop
     vertex -1.769971e-01 -4.155286e-01  3.906250e-02
     vertex -1.769971e-01 -4.155286e-01  1.328125e-01
     vertex -7.297535e-02 -4.411677e-01  1.328125e-01
   endloop
 endfacet
 facet normal  2.393157e-01  9.709418e-01  0.000000e+00
   outer loop
     vertex -1.769971e-01 -4.155286e-01  3.906250e-02
     vertex -7.297535e-02 -4.411677e-01  1.328125e-01
     vertex -7.297535e-02 -4.411677e-01  3.906250e-02
   endloop
 endfacet
 facet normal  4.647232e-01  8.854560e-01 -0.000000e+00
   outer loop
     vertex -2.718604e-01 -3.657405e-01  3.906250e-02
     vertex -2.718604e-01 -3.657405e-01  1.328125e-01
     vertex -1.769971e-01 -4.155286e-01  1.328125e-01
   endloop
 endfacet
 facet normal  4.647232e-01  8.854560e-01  0.000000e+00
   outer loop
     vertex -2.718604e-01 -3.657405e-01  3.906250e-02
     vertex -1.769971e-01 -4.155286e-01  1.328125e-01
     vertex -1.769971e-01 -4.155286e-01  3.906250e-02
   endloop
 endfacet
 facet normal  6.631227e-01  7.485107e-01 -0.000000e+00
   outer loop
     vertex -3.520520e-01 -2.946969e-01  3.906250e-02
     vertex -3.520520e-01 -2.946969e-01  1.328125e-01
     vertex -2.718604e-01 -3.657405e-01  1.328125e-01
   endloop
 endfacet
 facet normal  6.631227e-01  7.485107e-01  0.000000e+00
   outer loop
     vertex -3.520520e-01 -2.946969e-01  3.906250e-02
     vertex -2.718604e-01 -3.657405e-01  1.328125e-01
     vertex -2.718604e-01 -3.657405e-01  3.906250e-02
   endloop
 endfacet
 facet normal  8.229839e-01  5.680647e-01  0.000000e+00
   outer loop
     vertex -4.129115e-01 -2.065266e-01  3.906250e-02
     vertex -3.520520e-01 -2.946969e-01  1.328125e-01
     vertex -3.520520e-01 -2.946969e-01  3.906250e-02
   endloop
 endfacet
 facet normal  8.229839e-01  5.680647e-01 -0.000000e+00
   outer loop
     vertex -4.129115e-01 -2.065266e-01  3.906250e-02
     vertex -4.129115e-01 -2.065266e-01  1.328125e-01
     vertex -3.520520e-01 -2.946969e-01  1.328125e-01
   endloop
 endfacet
 facet normal  9.350162e-01  3.546049e-01  0.000000e+00
   outer loop
     vertex -4.509021e-01 -1.063538e-01  3.906250e-02
     vertex -4.129115e-01 -2.065266e-01  1.328125e-01
     vertex -4.129115e-01 -2.065266e-01  3.906250e-02
   endloop
 endfacet
 facet normal  9.350162e-01  3.546049e-01 -0.000000e+00
   outer loop
     vertex -4.509021e-01 -1.063538e-01  3.906250e-02
     vertex -4.509021e-01 -1.063538e-01  1.328125e-01
     vertex -4.129115e-01 -2.065266e-01  1.328125e-01
   endloop
 endfacet
 facet normal  9.927089e-01  1.205367e-01  0.000000e+00
   outer loop
     vertex -4.638158e-01  4.491378e-16  3.906250e-02
     vertex -4.509021e-01 -1.063538e-01  1.328125e-01
     vertex -4.509021e-01 -1.063538e-01  3.906250e-02
   endloop
 endfacet
 facet normal  9.927089e-01 -1.205367e-01  0.000000e+00
   outer loop
     vertex -4.638158e-01  4.491378e-16  3.906250e-02
     vertex -4.509021e-01  1.063538e-01  1.328125e-01
     vertex -4.638158e-01  4.491378e-16  1.328125e-01
   endloop
 endfacet
 facet normal  9.927089e-01  1.205367e-01 -0.000000e+00
   outer loop
     vertex -4.638158e-01  4.491378e-16  3.906250e-02
     vertex -4.638158e-01  4.491378e-16  1.328125e-01
     vertex -4.509021e-01 -1.063538e-01  1.328125e-01
   endloop
 endfacet
 facet normal  9.927089e-01 -1.205367e-01  0.000000e+00
   outer loop
     vertex -4.509021e-01  1.063538e-01  3.906250e-02
     vertex -4.509021e-01  1.063538e-01  1.328125e-01
     vertex -4.638158e-01  4.491378e-16  3.906250e-02
   endloop
 endfacet
 facet normal  9.350162e-01 -3.546049e-01  0.000000e+00
   outer loop
     vertex -4.129115e-01  2.065266e-01  3.906250e-02
     vertex -4.509021e-01  1.063538e-01  1.328125e-01
     vertex -4.509021e-01  1.063538e-01  3.906250e-02
   endloop
 endfacet
 facet normal  9.350162e-01 -3.546049e-01  0.000000e+00
   outer loop
     vertex -4.129115e-01  2.065266e-01  3.906250e-02
     vertex -4.129115e-01  2.065266e-01  1.328125e-01
     vertex -4.509021e-01  1.063538e-01  1.328125e-01
   endloop
 endfacet
 facet normal  8.229839e-01 -5.680647e-01  0.000000e+00
   outer loop
     vertex -3.520520e-01  2.946969e-01  3.906250e-02
     vertex -4.129115e-01  2.065266e-01  1.328125e-01
     vertex -4.129115e-01  2.065266e-01  3.906250e-02
   endloop
 endfacet
 facet normal  8.229839e-01 -5.680647e-01  0.000000e+00
   outer loop
     vertex -3.520520e-01  2.946969e-01  3.906250e-02
     vertex -3.520520e-01  2.946969e-01  1.328125e-01
     vertex -4.129115e-01  2.065266e-01  1.328125e-01
   endloop
 endfacet
 facet normal  6.631227e-01 -7.485107e-01  0.000000e+00
   outer loop
     vertex -2.718604e-01  3.657405e-01  3.906250e-02
     vertex -3.520520e-01  2.946969e-01  1.328125e-01
     vertex -3.520520e-01  2.946969e-01  3.906250e-02
   endloop
 endfacet
 facet normal  6.631227e-01 -7.485107e-01  0.000000e+00
   outer loop
     vertex -2.718604e-01  3.657405e-01  3.906250e-02
     vertex -2.718604e-01  3.657405e-01  1.328125e-01
     vertex -3.520520e-01  2.946969e-01  1.328125e-01
   endloop
 endfacet
 facet normal  4.647232e-01 -8.854560e-01  0.000000e+00
   outer loop
     vertex -1.769971e-01  4.155286e-01  3.906250e-02
     vertex -2.718604e-01  3.657405e-01  1.328125e-01
     vertex -2.718604e-01  3.657405e-01  3.906250e-02
   endloop
 endfacet
 facet normal  4.647232e-01 -8.854560e-01  0.000000e+00
   outer loop
     vertex -1.769971e-01  4.155286e-01  3.906250e-02
     vertex -1.769971e-01  4.155286e-01  1.328125e-01
     vertex -2.718604e-01  3.657405e-01  1.328125e-01
   endloop
 endfacet
 facet normal  2.393157e-01 -9.709418e-01  0.000000e+00
   outer loop
     vertex -7.297535e-02  4.411677e-01  3.906250e-02
     vertex -7.297535e-02  4.411677e-01  1.328125e-01
     vertex -1.769971e-01  4.155286e-01  1.328125e-01
   endloop
 endfacet
 facet normal  2.393157e-01 -9.709418e-01  0.000000e+00
   outer loop
     vertex -7.297535e-02  4.411677e-01  3.906250e-02
     vertex -1.769971e-01  4.155286e-01  1.328125e-01
     vertex -1.769971e-01  4.155286e-01  3.906250e-02
   endloop
 endfacet
 facet normal  0.000000e+00 -1.000000e+00  0.000000e+00
   outer loop
     vertex  3.415956e-02  4.411677e-01  3.906250e-02
     vertex  3.415956e-02  4.411677e-01  1.328125e-01
     vertex -7.297535e-02  4.411677e-01  1.328125e-01
   endloop
 endfacet
 facet normal  0.000000e+00 -1.000000e+00  0.000000e+00
   outer loop
     vertex  3.415956e-02  4.411677e-01  3.906250e-02
     vertex -7.297535e-02  4.411677e-01  1.328125e-01
     vertex -7.297535e-02  4.411677e-01  3.906250e-02
   endloop
 endfacet
 facet normal -2.393157e-01 -9.709418e-01  0.000000e+00
   outer loop
     vertex  1.381813e-01  4.155286e-01  3.906250e-02
     vertex  1.381813e-01  4.155286e-01  1.328125e-01
     vertex  3.415956e-02  4.411677e-01  1.328125e-01
   endloop
 endfacet
 facet normal -2.393157e-01 -9.709418e-01  0.000000e+00
   outer loop
     vertex  1.381813e-01  4.155286e-01  3.906250e-02
     vertex  3.415956e-02  4.411677e-01  1.328125e-01
     vertex  3.415956e-02  4.411677e-01  3.906250e-02
   endloop
 endfacet
 facet normal -4.647232e-01 -8.854560e-01  0.000000e+00
   outer loop
     vertex  2.330446e-01  3.657405e-01  3.906250e-02
     vertex  2.330446e-01  3.657405e-01  1.328125e-01
     vertex  1.381813e-01  4.155286e-01  1.328125e-01
   endloop
 endfacet
 facet normal -4.647232e-01 -8.854560e-01  0.000000e+00
   outer loop
     vertex  2.330446e-01  3.657405e-01  3.906250e-02
     vertex  1.381813e-01  4.155286e-01  1.328125e-01
     vertex  1.381813e-01  4.155286e-01  3.906250e-02
   endloop
 endfacet
 facet normal -6.631227e-01 -7.485107e-01  0.000000e+00
   outer loop
     vertex  3.132362e-01  2.946969e-01  3.906250e-02
     vertex  3.132362e-01  2.946969e-01  1.328125e-01
     vertex  2.330446e-01  3.657405e-01  1.328125e-01
   endloop
 endfacet
 facet normal -6.631227e-01 -7.485107e-01  0.000000e+00
   outer loop
     vertex  3.132362e-01  2.946969e-01  3.906250e-02
     vertex  2.330446e-01  3.657405e-01  1.328125e-01
     vertex  2.330446e-01  3.657405e-01  3.906250e-02
   endloop
 endfacet
 facet normal -8.229839e-01 -5.680647e-01  0.000000e+00
   outer loop
     vertex  3.740958e-01  2.065266e-01  3.906250e-02
     vertex  3.740958e-01  2.065266e-01  1.328125e-01
     vertex  3.132362e-01  2.946969e-01  1.328125e-01
   endloop
 endfacet
 facet normal -8.229839e-01 -5.680647e-01  0.000000e+00
   outer loop
     vertex  3.740958e-01  2.065266e-01  3.906250e-02
     vertex  3.132362e-01  2.946969e-01  1.328125e-01
     vertex  3.132362e-01  2.946969e-01  3.906250e-02
   endloop
 endfacet
 facet normal -9.350162e-01 -3.546049e-01  0.000000e+00
   outer loop
     vertex  4.120863e-01  1.063538e-01  3.906250e-02
     vertex  4.120863e-01  1.063538e-01  1.328125e-01
     vertex  3.740958e-01  2.065266e-01  1.328125e-01
   endloop
 endfacet
 facet normal -9.350162e-01 -3.546049e-01  0.000000e+00
   outer loop
     vertex  4.120863e-01  1.063538e-01  3.906250e-02
     vertex  3.740958e-01  2.065266e-01  1.328125e-01
     vertex  3.740958e-01  2.065266e-01  3.906250e-02
   endloop
 endfacet
 facet normal -9.927089e-01 -1.205367e-01  0.000000e+00
   outer loop
     vertex  4.250000e-01  0.000000e+00  3.906250e-02
     vertex  4.250000e-01  0.000000e+00  1.328125e-01
     vertex  4.120863e-01  1.063538e-01  1.328125e-01
   endloop
 endfacet
 facet normal -9.927089e-01 -1.205367e-01  0.000000e+00
   outer loop
     vertex  4.250000e-01  0.000000e+00  3.906250e-02
     vertex  4.120863e-01  1.063538e-01  1.328125e-01
     vertex  4.120863e-01  1.063538e-01  3.906250e-02
   endloop
 endfacet
 facet normal  0.000000e+00  0.000000e+00  1.000000e+00
   outer loop
     vertex  3.740958e-01 -2.065266e-01  3.906250e-02
     vertex  2.330446e-01 -3.657405e-01  3.906250e-02
     vertex  3.132362e-01 -2.946969e-01  3.906250e-02
   endloop
 endfacet
 facet normal  0.000000e+00  0.000000e+00  1.000000e+00
   outer loop
     vertex  3.132362e-01  2.946969e-01  3.906250e-02
     vertex  4.250000e-01  0.000000e+00  3.906250e-02
     vertex  4.120863e-01  1.063538e-01  3.906250e-02
   endloop
 endfacet
 facet normal  0.000000e+00  0.000000e+00  1.000000e+00
   outer loop
     vertex  3.132362e-01  2.946969e-01  3.906250e-02
     vertex  4.120863e-01  1.063538e-01  3.906250e-02
     vertex  3.740958e-01  2.065266e-01  3.906250e-02
   endloop
 endfacet
 facet normal  0.000000e+00  0.000000e+00  1.000000e+00
   outer loop
     vertex  3.132362e-01  2.946969e-01  3.906250e-02
     vertex  2.330446e-01  3.657405e-01  3.906250e-02
     vertex  1.381813e-01  4.155286e-01  3.906250e-02
   endloop
 endfacet
 facet normal  0.000000e+00  0.000000e+00  1.000000e+00
   outer loop
     vertex  3.132362e-01  2.946969e-01  3.906250e-02
     vertex  1.381813e-01  4.155286e-01  3.906250e-02
     vertex  3.415956e-02  4.411677e-01  3.906250e-02
   endloop
 endfacet
 facet normal  0.000000e+00  0.000000e+00  1.000000e+00
   outer loop
     vertex  3.132362e-01  2.946969e-01  3.906250e-02
     vertex  3.415956e-02  4.411677e-01  3.906250e-02
     vertex -7.297535e-02  4.411677e-01  3.906250e-02
   endloop
 endfacet
 facet normal  0.000000e+00  0.000000e+00  1.000000e+00
   outer loop
     vertex  3.132362e-01  2.946969e-01  3.906250e-02
     vertex -7.297535e-02  4.411677e-01  3.906250e-02
     vertex -1.769971e-01  4.155286e-01  3.906250e-02
   endloop
 endfacet
 facet normal  0.000000e+00  0.000000e+00  1.000000e+00
   outer loop
     vertex  3.132362e-01  2.946969e-01  3.906250e-02
     vertex -1.769971e-01  4.155286e-01  3.906250e-02
     vertex -2.718604e-01  3.657405e-01  3.906250e-02
   endloop
 endfacet
 facet normal  0.000000e+00  0.000000e+00  1.000000e+00
   outer loop
     vertex  3.132362e-01  2.946969e-01  3.906250e-02
     vertex -2.718604e-01  3.657405e-01  3.906250e-02
     vertex -3.520520e-01  2.946969e-01  3.906250e-02
   endloop
 endfacet
 facet normal  0.000000e+00  0.000000e+00  1.000000e+00
   outer loop
     vertex  3.132362e-01  2.946969e-01  3.906250e-02
     vertex -3.520520e-01  2.946969e-01  3.906250e-02
     vertex -4.129115e-01  2.065266e-01  3.906250e-02
   endloop
 endfacet
 facet normal  0.000000e+00  0.000000e+00  1.000000e+00
   outer loop
     vertex  3.132362e-01  2.946969e-01  3.906250e-02
     vertex -4.129115e-01  2.065266e-01  3.906250e-02
     vertex -4.509021e-01  1.063538e-01  3.906250e-02
   endloop
 endfacet
 facet normal  0.000000e+00  0.000000e+00  1.000000e+00
   outer loop
     vertex  3.132362e-01  2.946969e-01  3.906250e-02
     vertex -4.509021e-01  1.063538e-01  3.906250e-02
     vertex -4.638158e-01  4.491378e-16  3.906250e-02
   endloop
 endfacet
 facet normal  0.000000e+00  0.000000e+00  1.000000e+00
   outer loop
     vertex  3.132362e-01  2.946969e-01  3.906250e-02
     vertex -4.638158e-01  4.491378e-16  3.906250e-02
     vertex -4.509021e-01 -1.063538e-01  3.906250e-02
   endloop
 endfacet
 facet normal  0.000000e+00  0.000000e+00  1.000000e+00
   outer loop
     vertex  3.132362e-01  2.946969e-01  3.906250e-02
     vertex -4.509021e-01 -1.063538e-01  3.906250e-02
     vertex -4.129115e-01 -2.065266e-01  3.906250e-02
   endloop
 endfacet
 facet normal  0.000000e+00  0.000000e+00  1.000000e+00
   outer loop
     vertex  3.132362e-01  2.946969e-01  3.906250e-02
     vertex -4.129115e-01 -2.065266e-01  3.906250e-02
     vertex -3.520520e-01 -2.946969e-01  3.906250e-02
   endloop
 endfacet
 facet normal  0.000000e+00  0.000000e+00  1.000000e+00
   outer loop
     vertex  3.132362e-01  2.946969e-01  3.906250e-02
     vertex -3.520520e-01 -2.946969e-01  3.906250e-02
     vertex -2.718604e-01 -3.657405e-01  3.906250e-02
   endloop
 endfacet
 facet normal  0.000000e+00  0.000000e+00  1.000000e+00
   outer loop
     vertex  3.132362e-01  2.946969e-01  3.906250e-02
     vertex -2.718604e-01 -3.657405e-01  3.906250e-02
     vertex -1.769971e-01 -4.155286e-01  3.906250e-02
   endloop
 endfacet
 facet normal  0.000000e+00  0.000000e+00  1.000000e+00
   outer loop
     vertex  3.132362e-01  2.946969e-01  3.906250e-02
     vertex -1.769971e-01 -4.155286e-01  3.906250e-02
     vertex -7.297535e-02 -4.411677e-01  3.906250e-02
   endloop
 endfacet
 facet normal  0.000000e+00  0.000000e+00  1.000000e+00
   outer loop
     vertex  3.132362e-01  2.946969e-01  3.906250e-02
     vertex -7.297535e-02 -4.411677e-01  3.906250e-02
     vertex  3.415956e-02 -4.411677e-01  3.906250e-02
   endloop
 endfacet
 facet normal  0.000000e+00  0.000000e+00  1.000000e+00
   outer loop
     vertex  3.132362e-01  2.946969e-01  3.906250e-02
     vertex  3.415956e-02 -4.411677e-01  3.906250e-02
     vertex  1.381813e-01 -4.155286e-01  3.906250e-02
   endloop
 endfacet
 facet normal  0.000000e+00  0.000000e+00  1.000000e+00
   outer loop
     vertex  3.132362e-01  2.946969e-01  3.906250e-02
     vertex  1.381813e-01 -4.155286e-01  3.906250e-02
     vertex  2.330446e-01 -3.657405e-01  3.906250e-02
   endloop
 endfacet
 facet normal  0.000000e+00  0.000000e+00  1.000000e+00
   outer loop
     vertex  3.132362e-01  2.946969e-01  3.906250e-02
     vertex  3.740958e-01 -2.065266e-01  3.906250e-02
     vertex  4.120863e-01 -1.063538e-01  3.906250e-02
   endloop
 endfacet
 facet normal  0.000000e+00  0.000000e+00  1.000000e+00
   outer loop
     vertex  3.132362e-01  2.946969e-01  3.906250e-02
     vertex  4.120863e-01 -1.063538e-01  3.906250e-02
     vertex  4.250000e-01  0.000000e+00  3.906250e-02
   endloop
 endfacet
 facet normal  0.000000e+00  0.000000e+00  1.000000e+00
   outer loop
     vertex  3.132362e-01  2.946969e-01  3.906250e-02
     vertex  2.330446e-01 -3.657405e-01  3.906250e-02
     vertex  3.740958e-01 -2.065266e-01  3.906250e-02
   endloop
 endfacet
endsolid
