solid 
 facet normal  0.000000e+00  0.000000e+00 -1.000000e+00
   outer loop
     vertex  7.312500e-01  5.051668e-17 -5.000000e-01
     vertex -9.375000e-02 -1.093750e-01 -5.000000e-01
     vertex -9.375000e-02  0.000000e+00 -5.000000e-01
   endloop
 endfacet
 facet normal  0.000000e+00 -0.000000e+00 -1.000000e+00
   outer loop
     vertex  7.312500e-01  5.051668e-17 -5.000000e-01
     vertex  7.312500e-01 -1.093750e-01 -5.000000e-01
     vertex -9.375000e-02 -1.093750e-01 -5.000000e-01
   endloop
 endfacet
 facet normal  1.000000e+00  0.000000e+00  0.000000e+00
   outer loop
     vertex  7.312500e-01  1.136625e-16  5.312500e-01
     vertex  7.312500e-01 -1.093750e-01 -5.000000e-01
     vertex  7.312500e-01  5.051668e-17 -5.000000e-01
   endloop
 endfacet
 facet normal  1.000000e+00  0.000000e+00  0.000000e+00
   outer loop
     vertex  7.312500e-01  1.136625e-16  5.312500e-01
     vertex  7.312500e-01 -1.093750e-01  5.312500e-01
     vertex  7.312500e-01 -1.093750e-01 -5.000000e-01
   endloop
 endfacet
 facet normal -0.000000e+00  0.000000e+00  1.000000e+00
   outer loop
     vertex -9.375000e-02  6.314585e-17  5.312500e-01
     vertex  7.312500e-01 -1.093750e-01  5.312500e-01
     vertex  7.312500e-01  1.136625e-16  5.312500e-01
   endloop
 endfacet
 facet normal  0.000000e+00  0.000000e+00  1.000000e+00
   outer loop
     vertex -9.375000e-02  6.314585e-17  5.312500e-01
     vertex -9.375000e-02 -1.093750e-01  5.312500e-01
     vertex  7.312500e-01 -1.093750e-01  5.312500e-01
   endloop
 endfacet
 facet normal -1.000000e+00  0.000000e+00  0.000000e+00
   outer loop
     vertex -9.375000e-02  0.000000e+00 -5.000000e-01
     vertex -9.375000e-02 -1.093750e-01  5.312500e-01
     vertex -9.375000e-02  6.314585e-17  5.312500e-01
   endloop
 endfacet
 facet normal -1.000000e+00  0.000000e+00  0.000000e+00
   outer loop
     vertex -9.375000e-02  0.000000e+00 -5.000000e-01
     vertex -9.375000e-02 -1.093750e-01 -5.000000e-01
     vertex -9.375000e-02 -1.093750e-01  5.312500e-01
   endloop
 endfacet
 facet normal -6.123234e-17  1.000000e+00 -6.123234e-17
   outer loop
     vertex  7.312500e-01  1.136625e-16  5.312500e-01
     vertex  7.312500e-01  5.051668e-17 -5.000000e-01
     vertex -9.375000e-02  0.000000e+00 -5.000000e-01
   endloop
 endfacet
 facet normal -6.123234e-17  1.000000e+00 -6.123234e-17
   outer loop
     vertex  7.312500e-01  1.136625e-16  5.312500e-01
     vertex -9.375000e-02  0.000000e+00 -5.000000e-01
     vertex -9.375000e-02  6.314585e-17  5.312500e-01
   endloop
 endfacet
 facet normal  0.000000e+00 -1.000000e+00 -0.000000e+00
   outer loop
     vertex  7.312500e-01 -1.093750e-01  5.312500e-01
     vertex -9.375000e-02 -1.093750e-01 -5.000000e-01
     vertex  7.312500e-01 -1.093750e-01 -5.000000e-01
   endloop
 endfacet
 facet normal -0.000000e+00 -1.000000e+00  0.000000e+00
   outer loop
     vertex  7.312500e-01 -1.093750e-01  5.312500e-01
     vertex -9.375000e-02 -1.093750e-01  5.312500e-01
     vertex -9.375000e-02 -1.093750e-01 -5.000000e-01
   endloop
 endfacet
endsolid
