solid 
 facet normal -0.000000e+00  0.000000e+00 -1.000000e+00
   outer loop
     vertex -4.132550e-02 -3.482197e-02  0.000000e+00
     vertex -4.735443e-02 -5.138384e-02  0.000000e+00
     vertex -6.077556e-02 -1.799339e-02  0.000000e+00
   endloop
 endfacet
 facet normal  0.000000e+00  0.000000e+00 -1.000000e+00
   outer loop
     vertex -3.766055e-02 -1.758214e-02  0.000000e+00
     vertex -4.132550e-02 -3.482197e-02  0.000000e+00
     vertex -6.077556e-02 -1.799339e-02  0.000000e+00
   endloop
 endfacet
 facet normal -0.000000e+00  0.000000e+00 -1.000000e+00
   outer loop
     vertex -3.643092e-02  0.000000e+00  0.000000e+00
     vertex -6.077556e-02 -1.799339e-02  0.000000e+00
     vertex -6.077556e-02  1.799339e-02  0.000000e+00
   endloop
 endfacet
 facet normal  0.000000e+00  0.000000e+00 -1.000000e+00
   outer loop
     vertex -3.643092e-02  0.000000e+00  0.000000e+00
     vertex -3.766055e-02 -1.758214e-02  0.000000e+00
     vertex -6.077556e-02 -1.799339e-02  0.000000e+00
   endloop
 endfacet
 facet normal -0.000000e+00 -0.000000e+00 -1.000000e+00
   outer loop
     vertex -3.766055e-02  1.758214e-02  0.000000e+00
     vertex -3.643092e-02  0.000000e+00  0.000000e+00
     vertex -6.077556e-02  1.799339e-02  0.000000e+00
   endloop
 endfacet
 facet normal  0.000000e+00 -0.000000e+00 -1.000000e+00
   outer loop
     vertex -4.132550e-02  3.482197e-02  0.000000e+00
     vertex -3.766055e-02  1.758214e-02  0.000000e+00
     vertex -6.077556e-02  1.799339e-02  0.000000e+00
   endloop
 endfacet
 facet normal  0.000000e+00 -0.000000e+00 -1.000000e+00
   outer loop
     vertex -4.735443e-02  5.138384e-02  0.000000e+00
     vertex -4.132550e-02  3.482197e-02  0.000000e+00
     vertex -6.077556e-02  1.799339e-02  0.000000e+00
   endloop
 endfacet
 facet normal  0.000000e+00  0.000000e+00 -1.000000e+00
   outer loop
     vertex  1.888410e-02 -9.379112e-02  0.000000e+00
     vertex -4.735443e-02 -5.138384e-02  0.000000e+00
     vertex -4.132550e-02 -3.482197e-02  0.000000e+00
   endloop
 endfacet
 facet normal  0.000000e+00 -0.000000e+00 -1.000000e+00
   outer loop
     vertex -3.766055e-02 -1.758214e-02  0.000000e+00
     vertex  1.888410e-02 -9.379112e-02  0.000000e+00
     vertex -4.132550e-02 -3.482197e-02  0.000000e+00
   endloop
 endfacet
 facet normal  0.000000e+00  0.000000e+00 -1.000000e+00
   outer loop
     vertex  9.432578e-02 -7.155441e-02  0.000000e+00
     vertex -3.766055e-02 -1.758214e-02  0.000000e+00
     vertex -3.643092e-02  0.000000e+00  0.000000e+00
   endloop
 endfacet
 facet normal -0.000000e+00  0.000000e+00 -1.000000e+00
   outer loop
     vertex  9.432578e-02 -7.155441e-02  0.000000e+00
     vertex  1.888410e-02 -9.379112e-02  0.000000e+00
     vertex -3.766055e-02 -1.758214e-02  0.000000e+00
   endloop
 endfacet
 facet normal  0.000000e+00  0.000000e+00 -1.000000e+00
   outer loop
     vertex  1.888410e-02  9.379112e-02  0.000000e+00
     vertex -3.766055e-02  1.758214e-02  0.000000e+00
     vertex -4.132550e-02  3.482197e-02  0.000000e+00
   endloop
 endfacet
 facet normal  0.000000e+00  0.000000e+00 -1.000000e+00
   outer loop
     vertex  1.888410e-02  9.379112e-02  0.000000e+00
     vertex -4.132550e-02  3.482197e-02  0.000000e+00
     vertex -4.735443e-02  5.138384e-02  0.000000e+00
   endloop
 endfacet
 facet normal -0.000000e+00  0.000000e+00 -1.000000e+00
   outer loop
     vertex  1.269737e-01  0.000000e+00  0.000000e+00
     vertex  9.432578e-02 -7.155441e-02  0.000000e+00
     vertex -3.643092e-02  0.000000e+00  0.000000e+00
   endloop
 endfacet
 facet normal  0.000000e+00  0.000000e+00 -1.000000e+00
   outer loop
     vertex  9.432578e-02  7.155441e-02  0.000000e+00
     vertex -3.643092e-02  0.000000e+00  0.000000e+00
     vertex -3.766055e-02  1.758214e-02  0.000000e+00
   endloop
 endfacet
 facet normal -0.000000e+00  0.000000e+00 -1.000000e+00
   outer loop
     vertex  9.432578e-02  7.155441e-02  0.000000e+00
     vertex -3.766055e-02  1.758214e-02  0.000000e+00
     vertex  1.888410e-02  9.379112e-02  0.000000e+00
   endloop
 endfacet
 facet normal  0.000000e+00 -0.000000e+00 -1.000000e+00
   outer loop
     vertex  9.432578e-02  7.155441e-02  0.000000e+00
     vertex  1.269737e-01  0.000000e+00  0.000000e+00
     vertex -3.643092e-02  0.000000e+00  0.000000e+00
   endloop
 endfacet
 facet normal -0.000000e+00  0.000000e+00 -1.000000e+00
   outer loop
     vertex -6.077556e-02 -1.799339e-02  0.000000e+00
     vertex -2.609136e-01 -7.949170e-02  0.000000e+00
     vertex -2.890625e-01  1.546922e-17  0.000000e+00
   endloop
 endfacet
 facet normal  0.000000e+00  0.000000e+00 -1.000000e+00
   outer loop
     vertex -6.077556e-02 -1.799339e-02  0.000000e+00
     vertex -1.890128e-01 -1.235547e-01  0.000000e+00
     vertex -2.609136e-01 -7.949170e-02  0.000000e+00
   endloop
 endfacet
 facet normal  0.000000e+00  0.000000e+00 -1.000000e+00
   outer loop
     vertex -6.077556e-02 -1.799339e-02  0.000000e+00
     vertex -1.054054e-01 -1.125506e-01  0.000000e+00
     vertex -1.890128e-01 -1.235547e-01  0.000000e+00
   endloop
 endfacet
 facet normal  0.000000e+00 -0.000000e+00 -1.000000e+00
   outer loop
     vertex -6.077556e-02 -1.799339e-02  0.000000e+00
     vertex -4.735443e-02 -5.138384e-02  0.000000e+00
     vertex -1.054054e-01 -1.125506e-01  0.000000e+00
   endloop
 endfacet
 facet normal  0.000000e+00  0.000000e+00 -1.000000e+00
   outer loop
     vertex -6.077556e-02  1.799339e-02  0.000000e+00
     vertex -2.609136e-01  7.949170e-02  0.000000e+00
     vertex -1.890128e-01  1.235547e-01  0.000000e+00
   endloop
 endfacet
 facet normal -0.000000e+00  0.000000e+00 -1.000000e+00
   outer loop
     vertex -6.077556e-02  1.799339e-02  0.000000e+00
     vertex -2.890625e-01  1.546922e-17  0.000000e+00
     vertex -2.609136e-01  7.949170e-02  0.000000e+00
   endloop
 endfacet
 facet normal  0.000000e+00 -0.000000e+00 -1.000000e+00
   outer loop
     vertex -6.077556e-02  1.799339e-02  0.000000e+00
     vertex -6.077556e-02 -1.799339e-02  0.000000e+00
     vertex -2.890625e-01  1.546922e-17  0.000000e+00
   endloop
 endfacet
 facet normal  0.000000e+00  0.000000e+00 -1.000000e+00
   outer loop
     vertex -1.054054e-01  1.125506e-01  0.000000e+00
     vertex -4.735443e-02  5.138384e-02  0.000000e+00
     vertex -6.077556e-02  1.799339e-02  0.000000e+00
   endloop
 endfacet
 facet normal -0.000000e+00 -0.000000e+00 -1.000000e+00
   outer loop
     vertex -1.054054e-01  1.125506e-01  0.000000e+00
     vertex -6.077556e-02  1.799339e-02  0.000000e+00
     vertex -1.890128e-01  1.235547e-01  0.000000e+00
   endloop
 endfacet
 facet normal  9.097756e-01 -4.151005e-01  2.831313e-14
   outer loop
     vertex  9.432578e-02 -7.155441e-02  0.000000e+00
     vertex  1.269737e-01  0.000000e+00  3.906250e-02
     vertex  9.432578e-02 -7.155441e-02  3.906250e-02
   endloop
 endfacet
 facet normal  9.097756e-01 -4.151005e-01  0.000000e+00
   outer loop
     vertex  9.432578e-02 -7.155441e-02  0.000000e+00
     vertex  1.269737e-01  0.000000e+00  0.000000e+00
     vertex  1.269737e-01  0.000000e+00  3.906250e-02
   endloop
 endfacet
 facet normal  2.827277e-01 -9.592002e-01  5.920050e-14
   outer loop
     vertex  1.888410e-02 -9.379112e-02  0.000000e+00
     vertex  9.432578e-02 -7.155441e-02  3.906250e-02
     vertex  1.888410e-02 -9.379112e-02  3.906250e-02
   endloop
 endfacet
 facet normal  2.827277e-01 -9.592002e-01 -2.893757e-14
   outer loop
     vertex  1.888410e-02 -9.379112e-02  0.000000e+00
     vertex  9.432578e-02 -7.155441e-02  0.000000e+00
     vertex  9.432578e-02 -7.155441e-02  3.906250e-02
   endloop
 endfacet
 facet normal -5.391855e-01 -8.421870e-01  2.155772e-13
   outer loop
     vertex -4.735443e-02 -5.138384e-02  0.000000e+00
     vertex  1.888410e-02 -9.379112e-02  3.906250e-02
     vertex -4.735443e-02 -5.138384e-02  3.906250e-02
   endloop
 endfacet
 facet normal -5.391855e-01 -8.421870e-01 -5.886324e-14
   outer loop
     vertex -4.735443e-02 -5.138384e-02  0.000000e+00
     vertex  1.888410e-02 -9.379112e-02  0.000000e+00
     vertex  1.888410e-02 -9.379112e-02  3.906250e-02
   endloop
 endfacet
 facet normal -5.391855e-01  8.421870e-01  2.155772e-13
   outer loop
     vertex -4.735443e-02  5.138384e-02  0.000000e+00
     vertex -4.735443e-02  5.138384e-02  3.906250e-02
     vertex  1.888410e-02  9.379112e-02  3.906250e-02
   endloop
 endfacet
 facet normal  2.827277e-01  9.592002e-01  5.918617e-14
   outer loop
     vertex  1.888410e-02  9.379112e-02  0.000000e+00
     vertex  1.888410e-02  9.379112e-02  3.906250e-02
     vertex  9.432578e-02  7.155441e-02  3.906250e-02
   endloop
 endfacet
 facet normal -5.391855e-01  8.421870e-01 -5.972373e-14
   outer loop
     vertex  1.888410e-02  9.379112e-02  0.000000e+00
     vertex -4.735443e-02  5.138384e-02  0.000000e+00
     vertex  1.888410e-02  9.379112e-02  3.906250e-02
   endloop
 endfacet
 facet normal  9.097756e-01  4.151005e-01  2.966254e-14
   outer loop
     vertex  9.432578e-02  7.155441e-02  0.000000e+00
     vertex  9.432578e-02  7.155441e-02  3.906250e-02
     vertex  1.269737e-01  0.000000e+00  3.906250e-02
   endloop
 endfacet
 facet normal  2.827277e-01  9.592002e-01 -2.971483e-14
   outer loop
     vertex  9.432578e-02  7.155441e-02  0.000000e+00
     vertex  1.888410e-02  9.379112e-02  0.000000e+00
     vertex  9.432578e-02  7.155441e-02  3.906250e-02
   endloop
 endfacet
 facet normal  9.097756e-01  4.151005e-01 -0.000000e+00
   outer loop
     vertex  1.269737e-01  0.000000e+00  0.000000e+00
     vertex  9.432578e-02  7.155441e-02  0.000000e+00
     vertex  1.269737e-01  0.000000e+00  3.906250e-02
   endloop
 endfacet
 facet normal  9.975634e-01 -6.976596e-02  0.000000e+00
   outer loop
     vertex -3.766055e-02 -1.758214e-02  3.906250e-02
     vertex -3.643092e-02  0.000000e+00  3.906250e-02
     vertex -3.643092e-02  0.000000e+00  7.500000e-01
   endloop
 endfacet
 facet normal  9.396429e-01 -3.420021e-01  1.028223e-02
   outer loop
     vertex -4.132550e-02 -3.482197e-02  3.906250e-02
     vertex -3.643092e-02  0.000000e+00  7.500000e-01
     vertex -6.598320e-02 -8.119422e-02  7.500000e-01
   endloop
 endfacet
 facet normal  9.781358e-01 -2.079384e-01  3.450732e-03
   outer loop
     vertex -4.132550e-02 -3.482197e-02  3.906250e-02
     vertex -3.766055e-02 -1.758214e-02  3.906250e-02
     vertex -3.643092e-02  0.000000e+00  7.500000e-01
   endloop
 endfacet
 facet normal  9.396267e-01 -3.420467e-01  1.027875e-02
   outer loop
     vertex -4.735443e-02 -5.138384e-02  3.906250e-02
     vertex -4.132550e-02 -3.482197e-02  3.906250e-02
     vertex -6.598320e-02 -8.119422e-02  7.500000e-01
   endloop
 endfacet
 facet normal  7.253400e-01 -6.883908e-01  1.761539e-13
   outer loop
     vertex -1.054054e-01 -1.125506e-01  0.000000e+00
     vertex -4.735443e-02 -5.138384e-02  0.000000e+00
     vertex -4.735443e-02 -5.138384e-02  3.906250e-02
   endloop
 endfacet
 facet normal  4.999754e-01 -8.659827e-01  9.925351e-03
   outer loop
     vertex -1.054054e-01 -1.125506e-01  0.000000e+00
     vertex -6.598320e-02 -8.119422e-02  7.500000e-01
     vertex -1.408122e-01 -1.243968e-01  7.500000e-01
   endloop
 endfacet
 facet normal  7.283736e-01 -6.851123e-01 -9.641848e-03
   outer loop
     vertex -1.054054e-01 -1.125506e-01  0.000000e+00
     vertex -4.735443e-02 -5.138384e-02  3.906250e-02
     vertex -6.598320e-02 -8.119422e-02  7.500000e-01
   endloop
 endfacet
 facet normal -1.736394e-01 -9.847580e-01  1.005376e-02
   outer loop
     vertex -1.890128e-01 -1.235547e-01  0.000000e+00
     vertex -1.408122e-01 -1.243968e-01  7.500000e-01
     vertex -2.259046e-01 -1.093927e-01  7.500000e-01
   endloop
 endfacet
 facet normal  1.304850e-01 -9.914048e-01 -9.498989e-03
   outer loop
     vertex -1.890128e-01 -1.235547e-01  0.000000e+00
     vertex -1.054054e-01 -1.125506e-01  0.000000e+00
     vertex -1.408122e-01 -1.243968e-01  7.500000e-01
   endloop
 endfacet
 facet normal -7.660051e-01 -6.427546e-01  1.013082e-02
   outer loop
     vertex -2.609136e-01 -7.949170e-02  0.000000e+00
     vertex -2.259046e-01 -1.093927e-01  7.500000e-01
     vertex -2.814447e-01 -4.320254e-02  7.500000e-01
   endloop
 endfacet
 facet normal -5.224927e-01 -8.525897e-01 -9.601729e-03
   outer loop
     vertex -2.609136e-01 -7.949170e-02  0.000000e+00
     vertex -1.890128e-01 -1.235547e-01  0.000000e+00
     vertex -2.259046e-01 -1.093927e-01  7.500000e-01
   endloop
 endfacet
 facet normal -9.999484e-01  0.000000e+00  1.015651e-02
   outer loop
     vertex -2.890625e-01  1.546922e-17  0.000000e+00
     vertex -2.814447e-01 -4.320254e-02  7.500000e-01
     vertex -2.814447e-01  4.320254e-02  7.500000e-01
   endloop
 endfacet
 facet normal -9.426000e-01 -3.337846e-01 -9.653106e-03
   outer loop
     vertex -2.890625e-01  1.546922e-17  0.000000e+00
     vertex -2.609136e-01 -7.949170e-02  0.000000e+00
     vertex -2.814447e-01 -4.320254e-02  7.500000e-01
   endloop
 endfacet
 facet normal -7.660051e-01  6.427546e-01  1.013082e-02
   outer loop
     vertex -2.609136e-01  7.949170e-02  0.000000e+00
     vertex -2.814447e-01  4.320254e-02  7.500000e-01
     vertex -2.259046e-01  1.093927e-01  7.500000e-01
   endloop
 endfacet
 facet normal -9.426000e-01  3.337846e-01 -9.653106e-03
   outer loop
     vertex -2.609136e-01  7.949170e-02  0.000000e+00
     vertex -2.890625e-01  1.546922e-17  0.000000e+00
     vertex -2.814447e-01  4.320254e-02  7.500000e-01
   endloop
 endfacet
 facet normal -1.736394e-01  9.847580e-01  1.005376e-02
   outer loop
     vertex -1.890128e-01  1.235547e-01  0.000000e+00
     vertex -2.259046e-01  1.093927e-01  7.500000e-01
     vertex -1.408122e-01  1.243968e-01  7.500000e-01
   endloop
 endfacet
 facet normal -5.224927e-01  8.525897e-01 -9.601729e-03
   outer loop
     vertex -1.890128e-01  1.235547e-01  0.000000e+00
     vertex -2.609136e-01  7.949170e-02  0.000000e+00
     vertex -2.259046e-01  1.093927e-01  7.500000e-01
   endloop
 endfacet
 facet normal  4.999754e-01  8.659827e-01  9.925351e-03
   outer loop
     vertex -1.054054e-01  1.125506e-01  0.000000e+00
     vertex -1.408122e-01  1.243968e-01  7.500000e-01
     vertex -6.598320e-02  8.119422e-02  7.500000e-01
   endloop
 endfacet
 facet normal  1.304850e-01  9.914048e-01 -9.498989e-03
   outer loop
     vertex -1.054054e-01  1.125506e-01  0.000000e+00
     vertex -1.890128e-01  1.235547e-01  0.000000e+00
     vertex -1.408122e-01  1.243968e-01  7.500000e-01
   endloop
 endfacet
 facet normal  7.283736e-01  6.851123e-01 -9.641848e-03
   outer loop
     vertex -4.735443e-02  5.138384e-02  3.906250e-02
     vertex -1.054054e-01  1.125506e-01  0.000000e+00
     vertex -6.598320e-02  8.119422e-02  7.500000e-01
   endloop
 endfacet
 facet normal  7.253400e-01  6.883908e-01  1.762095e-13
   outer loop
     vertex -4.735443e-02  5.138384e-02  0.000000e+00
     vertex -1.054054e-01  1.125506e-01  0.000000e+00
     vertex -4.735443e-02  5.138384e-02  3.906250e-02
   endloop
 endfacet
 facet normal  9.396429e-01  3.420021e-01  1.028223e-02
   outer loop
     vertex -4.132550e-02  3.482197e-02  3.906250e-02
     vertex -6.598320e-02  8.119422e-02  7.500000e-01
     vertex -3.643092e-02  0.000000e+00  7.500000e-01
   endloop
 endfacet
 facet normal  9.396267e-01  3.420467e-01  1.027875e-02
   outer loop
     vertex -4.132550e-02  3.482197e-02  3.906250e-02
     vertex -4.735443e-02  5.138384e-02  3.906250e-02
     vertex -6.598320e-02  8.119422e-02  7.500000e-01
   endloop
 endfacet
 facet normal  9.781358e-01  2.079384e-01  3.450732e-03
   outer loop
     vertex -3.766055e-02  1.758214e-02  3.906250e-02
     vertex -4.132550e-02  3.482197e-02  3.906250e-02
     vertex -3.643092e-02  0.000000e+00  7.500000e-01
   endloop
 endfacet
 facet normal  9.975634e-01  6.976596e-02 -0.000000e+00
   outer loop
     vertex -3.643092e-02  0.000000e+00  3.906250e-02
     vertex -3.766055e-02  1.758214e-02  3.906250e-02
     vertex -3.643092e-02  0.000000e+00  7.500000e-01
   endloop
 endfacet
 facet normal  0.000000e+00  0.000000e+00  1.000000e+00
   outer loop
     vertex  1.888410e-02 -9.379112e-02  3.906250e-02
     vertex -4.132550e-02 -3.482197e-02  3.906250e-02
     vertex -4.735443e-02 -5.138384e-02  3.906250e-02
   endloop
 endfacet
 facet normal  0.000000e+00  0.000000e+00  1.000000e+00
   outer loop
     vertex -3.766055e-02 -1.758214e-02  3.906250e-02
     vertex -4.132550e-02 -3.482197e-02  3.906250e-02
     vertex  1.888410e-02 -9.379112e-02  3.906250e-02
   endloop
 endfacet
 facet normal  0.000000e+00  0.000000e+00  1.000000e+00
   outer loop
     vertex  9.432578e-02 -7.155441e-02  3.906250e-02
     vertex -3.643092e-02  0.000000e+00  3.906250e-02
     vertex -3.766055e-02 -1.758214e-02  3.906250e-02
   endloop
 endfacet
 facet normal  0.000000e+00  0.000000e+00  1.000000e+00
   outer loop
     vertex  9.432578e-02 -7.155441e-02  3.906250e-02
     vertex -3.766055e-02 -1.758214e-02  3.906250e-02
     vertex  1.888410e-02 -9.379112e-02  3.906250e-02
   endloop
 endfacet
 facet normal  0.000000e+00  0.000000e+00  1.000000e+00
   outer loop
     vertex  1.888410e-02  9.379112e-02  3.906250e-02
     vertex -4.735443e-02  5.138384e-02  3.906250e-02
     vertex -4.132550e-02  3.482197e-02  3.906250e-02
   endloop
 endfacet
 facet normal  0.000000e+00  0.000000e+00  1.000000e+00
   outer loop
     vertex  1.888410e-02  9.379112e-02  3.906250e-02
     vertex -4.132550e-02  3.482197e-02  3.906250e-02
     vertex -3.766055e-02  1.758214e-02  3.906250e-02
   endloop
 endfacet
 facet normal  0.000000e+00  0.000000e+00  1.000000e+00
   outer loop
     vertex  1.269737e-01  0.000000e+00  3.906250e-02
     vertex -3.643092e-02  0.000000e+00  3.906250e-02
     vertex  9.432578e-02 -7.155441e-02  3.906250e-02
   endloop
 endfacet
 facet normal  0.000000e+00  0.000000e+00  1.000000e+00
   outer loop
     vertex  9.432578e-02  7.155441e-02  3.906250e-02
     vertex -3.766055e-02  1.758214e-02  3.906250e-02
     vertex -3.643092e-02  0.000000e+00  3.906250e-02
   endloop
 endfacet
 facet normal  0.000000e+00  0.000000e+00  1.000000e+00
   outer loop
     vertex  9.432578e-02  7.155441e-02  3.906250e-02
     vertex  1.888410e-02  9.379112e-02  3.906250e-02
     vertex -3.766055e-02  1.758214e-02  3.906250e-02
   endloop
 endfacet
 facet normal  0.000000e+00  0.000000e+00  1.000000e+00
   outer loop
     vertex  9.432578e-02  7.155441e-02  3.906250e-02
     vertex -3.643092e-02  0.000000e+00  3.906250e-02
     vertex  1.269737e-01  0.000000e+00  3.906250e-02
   endloop
 endfacet
 facet normal  0.000000e+00  0.000000e+00  1.000000e+00
   outer loop
     vertex -6.598320e-02  8.119422e-02  7.500000e-01
     vertex -1.408122e-01  1.243968e-01  7.500000e-01
     vertex -2.259046e-01  1.093927e-01  7.500000e-01
   endloop
 endfacet
 facet normal  0.000000e+00  0.000000e+00  1.000000e+00
   outer loop
     vertex -6.598320e-02  8.119422e-02  7.500000e-01
     vertex -2.259046e-01  1.093927e-01  7.500000e-01
     vertex -2.814447e-01  4.320254e-02  7.500000e-01
   endloop
 endfacet
 facet normal  0.000000e+00  0.000000e+00  1.000000e+00
   outer loop
     vertex -6.598320e-02  8.119422e-02  7.500000e-01
     vertex -2.814447e-01  4.320254e-02  7.500000e-01
     vertex -2.814447e-01 -4.320254e-02  7.500000e-01
   endloop
 endfacet
 facet normal  0.000000e+00  0.000000e+00  1.000000e+00
   outer loop
     vertex -6.598320e-02  8.119422e-02  7.500000e-01
     vertex -2.814447e-01 -4.320254e-02  7.500000e-01
     vertex -2.259046e-01 -1.093927e-01  7.500000e-01
   endloop
 endfacet
 facet normal  0.000000e+00  0.000000e+00  1.000000e+00
   outer loop
     vertex -6.598320e-02  8.119422e-02  7.500000e-01
     vertex -2.259046e-01 -1.093927e-01  7.500000e-01
     vertex -1.408122e-01 -1.243968e-01  7.500000e-01
   endloop
 endfacet
 facet normal  0.000000e+00  0.000000e+00  1.000000e+00
   outer loop
     vertex -6.598320e-02  8.119422e-02  7.500000e-01
     vertex -1.408122e-01 -1.243968e-01  7.500000e-01
     vertex -6.598320e-02 -8.119422e-02  7.500000e-01
   endloop
 endfacet
 facet normal  0.000000e+00  0.000000e+00  1.000000e+00
   outer loop
     vertex -6.598320e-02  8.119422e-02  7.500000e-01
     vertex -6.598320e-02 -8.119422e-02  7.500000e-01
     vertex -3.643092e-02  0.000000e+00  7.500000e-01
   endloop
 endfacet
endsolid
