solid 
 facet normal  0.000000e+00  0.000000e+00 -1.000000e+00
   outer loop
     vertex  5.342928e-01  6.381054e-17 -7.500000e-01
     vertex -5.078125e-01 -6.562500e-01 -7.500000e-01
     vertex -5.078125e-01  0.000000e+00 -7.500000e-01
   endloop
 endfacet
 facet normal  0.000000e+00 -0.000000e+00 -1.000000e+00
   outer loop
     vertex  5.342928e-01  6.381054e-17 -7.500000e-01
     vertex  5.342928e-01 -6.562500e-01 -7.500000e-01
     vertex -5.078125e-01 -6.562500e-01 -7.500000e-01
   endloop
 endfacet
 facet normal  1.000000e+00  0.000000e+00  0.000000e+00
   outer loop
     vertex  5.342928e-01  1.556591e-16  7.500000e-01
     vertex  5.342928e-01 -6.562500e-01 -7.500000e-01
     vertex  5.342928e-01  6.381054e-17 -7.500000e-01
   endloop
 endfacet
 facet normal  1.000000e+00  0.000000e+00  0.000000e+00
   outer loop
     vertex  5.342928e-01  1.556591e-16  7.500000e-01
     vertex  5.342928e-01 -6.562500e-01  7.500000e-01
     vertex  5.342928e-01 -6.562500e-01 -7.500000e-01
   endloop
 endfacet
 facet normal -0.000000e+00  0.000000e+00  1.000000e+00
   outer loop
     vertex -5.078125e-01  9.184851e-17  7.500000e-01
     vertex  5.342928e-01 -6.562500e-01  7.500000e-01
     vertex  5.342928e-01  1.556591e-16  7.500000e-01
   endloop
 endfacet
 facet normal  0.000000e+00  0.000000e+00  1.000000e+00
   outer loop
     vertex -5.078125e-01  9.184851e-17  7.500000e-01
     vertex -5.078125e-01 -6.562500e-01  7.500000e-01
     vertex  5.342928e-01 -6.562500e-01  7.500000e-01
   endloop
 endfacet
 facet normal -1.000000e+00  0.000000e+00  0.000000e+00
   outer loop
     vertex -5.078125e-01  0.000000e+00 -7.500000e-01
     vertex -5.078125e-01 -6.562500e-01  7.500000e-01
     vertex -5.078125e-01  9.184851e-17  7.500000e-01
   endloop
 endfacet
 facet normal -1.000000e+00  0.000000e+00  0.000000e+00
   outer loop
     vertex -5.078125e-01  0.000000e+00 -7.500000e-01
     vertex -5.078125e-01 -6.562500e-01 -7.500000e-01
     vertex -5.078125e-01 -6.562500e-01  7.500000e-01
   endloop
 endfacet
 facet normal -6.123234e-17  1.000000e+00 -6.123234e-17
   outer loop
     vertex  5.342928e-01  1.556591e-16  7.500000e-01
     vertex  5.342928e-01  6.381054e-17 -7.500000e-01
     vertex -5.078125e-01  0.000000e+00 -7.500000e-01
   endloop
 endfacet
 facet normal -6.123234e-17  1.000000e+00 -6.123234e-17
   outer loop
     vertex  5.342928e-01  1.556591e-16  7.500000e-01
     vertex -5.078125e-01  0.000000e+00 -7.500000e-01
     vertex -5.078125e-01  9.184851e-17  7.500000e-01
   endloop
 endfacet
 facet normal  0.000000e+00 -1.000000e+00 -0.000000e+00
   outer loop
     vertex  5.342928e-01 -6.562500e-01  7.500000e-01
     vertex -5.078125e-01 -6.562500e-01 -7.500000e-01
     vertex  5.342928e-01 -6.562500e-01 -7.500000e-01
   endloop
 endfacet
 facet normal -0.000000e+00 -1.000000e+00  0.000000e+00
   outer loop
     vertex  5.342928e-01 -6.562500e-01  7.500000e-01
     vertex -5.078125e-01 -6.562500e-01  7.500000e-01
     vertex -5.078125e-01 -6.562500e-01 -7.500000e-01
   endloop
 endfacet
endsolid
