solid 
 facet normal -1.837495e-01  0.000000e+00 -9.829731e-01
   outer loop
     vertex -7.527763e-02 -4.259555e-18 -2.208487e-01
     vertex  1.027961e-02  0.000000e+00 -2.368421e-01
     vertex  1.027961e-02 -6.406250e-01 -2.368421e-01
   endloop
 endfacet
 facet normal -1.837495e-01 -8.517615e-17 -9.829731e-01
   outer loop
     vertex -7.527763e-02 -4.259555e-18 -2.208487e-01
     vertex  1.027961e-02 -6.406250e-01 -2.368421e-01
     vertex -7.527763e-02 -6.406250e-01 -2.208487e-01
   endloop
 endfacet
 facet normal -5.264322e-01 -7.367264e-17 -8.502171e-01
   outer loop
     vertex -1.492799e-01 -5.985205e-18 -1.750284e-01
     vertex -7.527763e-02 -6.406250e-01 -2.208487e-01
     vertex -1.492799e-01 -6.406250e-01 -1.750284e-01
   endloop
 endfacet
 facet normal -5.264322e-01 -7.777701e-17 -8.502171e-01
   outer loop
     vertex -1.492799e-01 -5.985205e-18 -1.750284e-01
     vertex -7.527763e-02 -4.259555e-18 -2.208487e-01
     vertex -7.527763e-02 -6.406250e-01 -2.208487e-01
   endloop
 endfacet
 facet normal -7.980172e-01 -3.916442e-17 -6.026346e-01
   outer loop
     vertex -2.017328e-01 -4.943891e-18 -1.055696e-01
     vertex -1.492799e-01 -6.406250e-01 -1.750284e-01
     vertex -2.017328e-01 -6.406250e-01 -1.055696e-01
   endloop
 endfacet
 facet normal -7.980172e-01 -5.444391e-17 -6.026346e-01
   outer loop
     vertex -2.017328e-01 -4.943891e-18 -1.055696e-01
     vertex -1.492799e-01 -5.985205e-18 -1.750284e-01
     vertex -1.492799e-01 -6.406250e-01 -1.750284e-01
   endloop
 endfacet
 facet normal -9.618256e-01 -1.630291e-17 -2.736630e-01
   outer loop
     vertex -2.255522e-01 -1.276248e-18 -2.185303e-02
     vertex -2.017328e-01 -6.406250e-01 -1.055696e-01
     vertex -2.255522e-01 -6.406250e-01 -2.185303e-02
   endloop
 endfacet
 facet normal -9.618256e-01 -1.555540e-17 -2.736630e-01
   outer loop
     vertex -2.255522e-01 -1.276248e-18 -2.185303e-02
     vertex -2.017328e-01 -4.943891e-18 -1.055696e-01
     vertex -2.017328e-01 -6.406250e-01 -1.055696e-01
   endloop
 endfacet
 facet normal -9.957342e-01  5.996397e-18  9.226836e-02
   outer loop
     vertex -2.175212e-01  4.522389e-18  6.481492e-02
     vertex -2.255522e-01 -6.406250e-01 -2.185303e-02
     vertex -2.175212e-01 -6.406250e-01  6.481492e-02
   endloop
 endfacet
 facet normal -9.957342e-01  5.833276e-18  9.226836e-02
   outer loop
     vertex -2.175212e-01  4.522389e-18  6.481492e-02
     vertex -2.255522e-01 -1.276248e-18 -2.185303e-02
     vertex -2.255522e-01 -6.406250e-01 -2.185303e-02
   endloop
 endfacet
 facet normal -8.951633e-01  3.862392e-17  4.457384e-01
   outer loop
     vertex -1.787245e-01  1.166888e-17  1.427293e-01
     vertex -2.175212e-01 -6.406250e-01  6.481492e-02
     vertex -1.787245e-01 -6.406250e-01  1.427293e-01
   endloop
 endfacet
 facet normal -8.951633e-01  2.333310e-17  4.457384e-01
   outer loop
     vertex -1.787245e-01  1.166888e-17  1.427293e-01
     vertex -2.175212e-01  4.522389e-18  6.481492e-02
     vertex -2.175212e-01 -6.406250e-01  6.481492e-02
   endloop
 endfacet
 facet normal -6.736956e-01  6.403627e-17  7.390089e-01
   outer loop
     vertex -1.144017e-01  1.919805e-17  2.013672e-01
     vertex -1.787245e-01 -6.406250e-01  1.427293e-01
     vertex -1.144017e-01 -6.406250e-01  2.013672e-01
   endloop
 endfacet
 facet normal -6.736956e-01  6.999931e-17  7.390089e-01
   outer loop
     vertex -1.144017e-01  1.919805e-17  2.013672e-01
     vertex -1.787245e-01  1.166888e-17  1.427293e-01
     vertex -1.787245e-01 -6.406250e-01  1.427293e-01
   endloop
 endfacet
 facet normal -3.612417e-01  8.080017e-17  9.324722e-01
   outer loop
     vertex -3.324002e-02  2.609305e-17  2.328094e-01
     vertex -1.144017e-01 -6.406250e-01  2.013672e-01
     vertex -3.324002e-02 -6.406250e-01  2.328094e-01
   endloop
 endfacet
 facet normal -3.612417e-01  7.777701e-17  9.324722e-01
   outer loop
     vertex -3.324002e-02  2.609305e-17  2.328094e-01
     vertex -1.144017e-01  1.919805e-17  2.013672e-01
     vertex -1.144017e-01 -6.406250e-01  2.013672e-01
   endloop
 endfacet
 facet normal  6.377715e-16  8.665155e-17  1.000000e+00
   outer loop
     vertex  5.379923e-02  3.142267e-17  2.328094e-01
     vertex -3.324002e-02 -6.406250e-01  2.328094e-01
     vertex  5.379923e-02 -6.406250e-01  2.328094e-01
   endloop
 endfacet
 facet normal  6.377715e-16  8.665155e-17  1.000000e+00
   outer loop
     vertex  5.379923e-02  3.142267e-17  2.328094e-01
     vertex -3.324002e-02  2.609305e-17  2.328094e-01
     vertex -3.324002e-02 -6.406250e-01  2.328094e-01
   endloop
 endfacet
 facet normal  3.612417e-01  8.080017e-17  9.324722e-01
   outer loop
     vertex  1.349609e-01  3.446711e-17  2.013672e-01
     vertex  5.379923e-02 -6.406250e-01  2.328094e-01
     vertex  1.349609e-01 -6.406250e-01  2.013672e-01
   endloop
 endfacet
 facet normal  3.612417e-01  7.777701e-17  9.324722e-01
   outer loop
     vertex  1.349609e-01  3.446711e-17  2.013672e-01
     vertex  5.379923e-02  3.142267e-17  2.328094e-01
     vertex  5.379923e-02 -6.406250e-01  2.328094e-01
   endloop
 endfacet
 facet normal  6.736956e-01  6.403627e-17  7.390089e-01
   outer loop
     vertex  1.992837e-01  3.481520e-17  1.427293e-01
     vertex  1.349609e-01 -6.406250e-01  2.013672e-01
     vertex  1.992837e-01 -6.406250e-01  1.427293e-01
   endloop
 endfacet
 facet normal  6.736956e-01  6.222161e-17  7.390089e-01
   outer loop
     vertex  1.992837e-01  3.481520e-17  1.427293e-01
     vertex  1.349609e-01  3.446711e-17  2.013672e-01
     vertex  1.349609e-01 -6.406250e-01  2.013672e-01
   endloop
 endfacet
 facet normal  9.957342e-01  5.996397e-18  9.226836e-02
   outer loop
     vertex  2.380804e-01  3.241994e-17  6.481492e-02
     vertex  2.380804e-01 -6.406250e-01  6.481492e-02
     vertex  2.461114e-01 -6.406250e-01 -2.185303e-02
   endloop
 endfacet
 facet normal  8.951633e-01  2.896794e-17  4.457384e-01
   outer loop
     vertex  2.380804e-01  3.241994e-17  6.481492e-02
     vertex  1.992837e-01 -6.406250e-01  1.427293e-01
     vertex  2.380804e-01 -6.406250e-01  6.481492e-02
   endloop
 endfacet
 facet normal  8.951633e-01  3.888851e-17  4.457384e-01
   outer loop
     vertex  2.380804e-01  3.241994e-17  6.481492e-02
     vertex  1.992837e-01  3.481520e-17  1.427293e-01
     vertex  1.992837e-01 -6.406250e-01  1.427293e-01
   endloop
 endfacet
 facet normal  9.618256e-01 -1.630291e-17 -2.736630e-01
   outer loop
     vertex  2.461114e-01  2.760482e-17 -2.185303e-02
     vertex  2.461114e-01 -6.406250e-01 -2.185303e-02
     vertex  2.222920e-01 -6.406250e-01 -1.055696e-01
   endloop
 endfacet
 facet normal  9.957342e-01  5.496698e-18  9.226836e-02
   outer loop
     vertex  2.461114e-01  2.760482e-17 -2.185303e-02
     vertex  2.380804e-01  3.241994e-17  6.481492e-02
     vertex  2.461114e-01 -6.406250e-01 -2.185303e-02
   endloop
 endfacet
 facet normal  9.618256e-01 -1.778499e-17 -2.736630e-01
   outer loop
     vertex  2.222920e-01  2.102013e-17 -1.055696e-01
     vertex  2.461114e-01  2.760482e-17 -2.185303e-02
     vertex  2.222920e-01 -6.406250e-01 -1.055696e-01
   endloop
 endfacet
 facet normal  7.980172e-01 -5.221923e-17 -6.026346e-01
   outer loop
     vertex  1.698391e-01  1.355520e-17 -1.750284e-01
     vertex  2.222920e-01 -6.406250e-01 -1.055696e-01
     vertex  1.698391e-01 -6.406250e-01 -1.750284e-01
   endloop
 endfacet
 facet normal  7.980172e-01 -3.888851e-17 -6.026346e-01
   outer loop
     vertex  1.698391e-01  1.355520e-17 -1.750284e-01
     vertex  2.222920e-01  2.102013e-17 -1.055696e-01
     vertex  2.222920e-01 -6.406250e-01 -1.055696e-01
   endloop
 endfacet
 facet normal  5.264322e-01 -7.777701e-17 -8.502171e-01
   outer loop
     vertex  9.583684e-02  6.218184e-18 -2.208487e-01
     vertex  1.698391e-01  1.355520e-17 -1.750284e-01
     vertex  1.698391e-01 -6.406250e-01 -1.750284e-01
   endloop
 endfacet
 facet normal  5.264322e-01 -7.367264e-17 -8.502171e-01
   outer loop
     vertex  9.583684e-02  6.218184e-18 -2.208487e-01
     vertex  1.698391e-01 -6.406250e-01 -1.750284e-01
     vertex  9.583684e-02 -6.406250e-01 -2.208487e-01
   endloop
 endfacet
 facet normal  1.837495e-01 -8.555472e-17 -9.829731e-01
   outer loop
     vertex  1.027961e-02  0.000000e+00 -2.368421e-01
     vertex  9.583684e-02  6.218184e-18 -2.208487e-01
     vertex  9.583684e-02 -6.406250e-01 -2.208487e-01
   endloop
 endfacet
 facet normal  1.837495e-01  0.000000e+00 -9.829731e-01
   outer loop
     vertex  1.027961e-02  0.000000e+00 -2.368421e-01
     vertex  9.583684e-02 -6.406250e-01 -2.208487e-01
     vertex  1.027961e-02 -6.406250e-01 -2.368421e-01
   endloop
 endfacet
 facet normal -6.123234e-17  1.000000e+00 -6.123234e-17
   outer loop
     vertex  1.992837e-01  3.481520e-17  1.427293e-01
     vertex  9.583684e-02  6.218184e-18 -2.208487e-01
     vertex  1.027961e-02  0.000000e+00 -2.368421e-01
   endloop
 endfacet
 facet normal -6.123234e-17  1.000000e+00 -6.123234e-17
   outer loop
     vertex  1.992837e-01  3.481520e-17  1.427293e-01
     vertex  1.698391e-01  1.355520e-17 -1.750284e-01
     vertex  9.583684e-02  6.218184e-18 -2.208487e-01
   endloop
 endfacet
 facet normal -6.123234e-17  1.000000e+00 -6.123234e-17
   outer loop
     vertex  1.992837e-01  3.481520e-17  1.427293e-01
     vertex  2.222920e-01  2.102013e-17 -1.055696e-01
     vertex  1.698391e-01  1.355520e-17 -1.750284e-01
   endloop
 endfacet
 facet normal -6.123234e-17  1.000000e+00 -6.123234e-17
   outer loop
     vertex  1.992837e-01  3.481520e-17  1.427293e-01
     vertex  2.461114e-01  2.760482e-17 -2.185303e-02
     vertex  2.222920e-01  2.102013e-17 -1.055696e-01
   endloop
 endfacet
 facet normal -6.123234e-17  1.000000e+00 -6.123234e-17
   outer loop
     vertex  1.992837e-01  3.481520e-17  1.427293e-01
     vertex  2.380804e-01  3.241994e-17  6.481492e-02
     vertex  2.461114e-01  2.760482e-17 -2.185303e-02
   endloop
 endfacet
 facet normal -6.123234e-17  1.000000e+00 -6.123234e-17
   outer loop
     vertex  1.992837e-01  3.481520e-17  1.427293e-01
     vertex  5.379923e-02  3.142267e-17  2.328094e-01
     vertex  1.349609e-01  3.446711e-17  2.013672e-01
   endloop
 endfacet
 facet normal -6.123234e-17  1.000000e+00 -6.123234e-17
   outer loop
     vertex  1.992837e-01  3.481520e-17  1.427293e-01
     vertex -3.324002e-02  2.609305e-17  2.328094e-01
     vertex  5.379923e-02  3.142267e-17  2.328094e-01
   endloop
 endfacet
 facet normal -6.123234e-17  1.000000e+00 -6.123234e-17
   outer loop
     vertex  1.992837e-01  3.481520e-17  1.427293e-01
     vertex -1.144017e-01  1.919805e-17  2.013672e-01
     vertex -3.324002e-02  2.609305e-17  2.328094e-01
   endloop
 endfacet
 facet normal -6.123234e-17  1.000000e+00 -6.123234e-17
   outer loop
     vertex  1.992837e-01  3.481520e-17  1.427293e-01
     vertex -1.787245e-01  1.166888e-17  1.427293e-01
     vertex -1.144017e-01  1.919805e-17  2.013672e-01
   endloop
 endfacet
 facet normal -6.123234e-17  1.000000e+00 -6.123234e-17
   outer loop
     vertex  1.992837e-01  3.481520e-17  1.427293e-01
     vertex -2.175212e-01  4.522389e-18  6.481492e-02
     vertex -1.787245e-01  1.166888e-17  1.427293e-01
   endloop
 endfacet
 facet normal -6.123234e-17  1.000000e+00 -6.123234e-17
   outer loop
     vertex  1.992837e-01  3.481520e-17  1.427293e-01
     vertex -2.255522e-01 -1.276248e-18 -2.185303e-02
     vertex -2.175212e-01  4.522389e-18  6.481492e-02
   endloop
 endfacet
 facet normal -6.123234e-17  1.000000e+00 -6.123234e-17
   outer loop
     vertex  1.992837e-01  3.481520e-17  1.427293e-01
     vertex -2.017328e-01 -4.943891e-18 -1.055696e-01
     vertex -2.255522e-01 -1.276248e-18 -2.185303e-02
   endloop
 endfacet
 facet normal -6.123234e-17  1.000000e+00 -6.123234e-17
   outer loop
     vertex  1.992837e-01  3.481520e-17  1.427293e-01
     vertex -1.492799e-01 -5.985205e-18 -1.750284e-01
     vertex -2.017328e-01 -4.943891e-18 -1.055696e-01
   endloop
 endfacet
 facet normal -6.123234e-17  1.000000e+00 -6.123234e-17
   outer loop
     vertex  1.992837e-01  3.481520e-17  1.427293e-01
     vertex -7.527763e-02 -4.259555e-18 -2.208487e-01
     vertex -1.492799e-01 -5.985205e-18 -1.750284e-01
   endloop
 endfacet
 facet normal -6.123234e-17  1.000000e+00 -6.123234e-17
   outer loop
     vertex  1.992837e-01  3.481520e-17  1.427293e-01
     vertex  1.027961e-02  0.000000e+00 -2.368421e-01
     vertex -7.527763e-02 -4.259555e-18 -2.208487e-01
   endloop
 endfacet
 facet normal  0.000000e+00 -1.000000e+00  0.000000e+00
   outer loop
     vertex  1.992837e-01 -6.406250e-01  1.427293e-01
     vertex  1.027961e-02 -6.406250e-01 -2.368421e-01
     vertex  9.583684e-02 -6.406250e-01 -2.208487e-01
   endloop
 endfacet
 facet normal  0.000000e+00 -1.000000e+00  0.000000e+00
   outer loop
     vertex  1.992837e-01 -6.406250e-01  1.427293e-01
     vertex  9.583684e-02 -6.406250e-01 -2.208487e-01
     vertex  1.698391e-01 -6.406250e-01 -1.750284e-01
   endloop
 endfacet
 facet normal  0.000000e+00 -1.000000e+00 -0.000000e+00
   outer loop
     vertex  1.992837e-01 -6.406250e-01  1.427293e-01
     vertex  1.698391e-01 -6.406250e-01 -1.750284e-01
     vertex  2.222920e-01 -6.406250e-01 -1.055696e-01
   endloop
 endfacet
 facet normal  0.000000e+00 -1.000000e+00  0.000000e+00
   outer loop
     vertex  1.992837e-01 -6.406250e-01  1.427293e-01
     vertex  2.222920e-01 -6.406250e-01 -1.055696e-01
     vertex  2.461114e-01 -6.406250e-01 -2.185303e-02
   endloop
 endfacet
 facet normal  0.000000e+00 -1.000000e+00  0.000000e+00
   outer loop
     vertex  1.992837e-01 -6.406250e-01  1.427293e-01
     vertex  2.461114e-01 -6.406250e-01 -2.185303e-02
     vertex  2.380804e-01 -6.406250e-01  6.481492e-02
   endloop
 endfacet
 facet normal  0.000000e+00 -1.000000e+00  0.000000e+00
   outer loop
     vertex  1.992837e-01 -6.406250e-01  1.427293e-01
     vertex  1.349609e-01 -6.406250e-01  2.013672e-01
     vertex  5.379923e-02 -6.406250e-01  2.328094e-01
   endloop
 endfacet
 facet normal  0.000000e+00 -1.000000e+00  0.000000e+00
   outer loop
     vertex  1.992837e-01 -6.406250e-01  1.427293e-01
     vertex  5.379923e-02 -6.406250e-01  2.328094e-01
     vertex -3.324002e-02 -6.406250e-01  2.328094e-01
   endloop
 endfacet
 facet normal  0.000000e+00 -1.000000e+00  0.000000e+00
   outer loop
     vertex  1.992837e-01 -6.406250e-01  1.427293e-01
     vertex -3.324002e-02 -6.406250e-01  2.328094e-01
     vertex -1.144017e-01 -6.406250e-01  2.013672e-01
   endloop
 endfacet
 facet normal  0.000000e+00 -1.000000e+00  0.000000e+00
   outer loop
     vertex  1.992837e-01 -6.406250e-01  1.427293e-01
     vertex -1.144017e-01 -6.406250e-01  2.013672e-01
     vertex -1.787245e-01 -6.406250e-01  1.427293e-01
   endloop
 endfacet
 facet normal -0.000000e+00 -1.000000e+00  0.000000e+00
   outer loop
     vertex  1.992837e-01 -6.406250e-01  1.427293e-01
     vertex -1.787245e-01 -6.406250e-01  1.427293e-01
     vertex -2.175212e-01 -6.406250e-01  6.481492e-02
   endloop
 endfacet
 facet normal  0.000000e+00 -1.000000e+00  0.000000e+00
   outer loop
     vertex  1.992837e-01 -6.406250e-01  1.427293e-01
     vertex -2.175212e-01 -6.406250e-01  6.481492e-02
     vertex -2.255522e-01 -6.406250e-01 -2.185303e-02
   endloop
 endfacet
 facet normal  0.000000e+00 -1.000000e+00  0.000000e+00
   outer loop
     vertex  1.992837e-01 -6.406250e-01  1.427293e-01
     vertex -2.255522e-01 -6.406250e-01 -2.185303e-02
     vertex -2.017328e-01 -6.406250e-01 -1.055696e-01
   endloop
 endfacet
 facet normal  0.000000e+00 -1.000000e+00  0.000000e+00
   outer loop
     vertex  1.992837e-01 -6.406250e-01  1.427293e-01
     vertex -2.017328e-01 -6.406250e-01 -1.055696e-01
     vertex -1.492799e-01 -6.406250e-01 -1.750284e-01
   endloop
 endfacet
 facet normal  0.000000e+00 -1.000000e+00  0.000000e+00
   outer loop
     vertex  1.992837e-01 -6.406250e-01  1.427293e-01
     vertex -1.492799e-01 -6.406250e-01 -1.750284e-01
     vertex -7.527763e-02 -6.406250e-01 -2.208487e-01
   endloop
 endfacet
 facet normal  0.000000e+00 -1.000000e+00  0.000000e+00
   outer loop
     vertex  1.992837e-01 -6.406250e-01  1.427293e-01
     vertex -7.527763e-02 -6.406250e-01 -2.208487e-01
     vertex  1.027961e-02 -6.406250e-01 -2.368421e-01
   endloop
 endfacet
endsolid
