solid 
 facet normal  9.927089e-01 -1.205367e-01  0.000000e+00
   outer loop
     vertex  6.227102e-01 -3.800746e-01  0.000000e+00
     vertex  6.328125e-01 -2.968750e-01  0.000000e+00
     vertex  6.328125e-01 -2.968750e-01  2.343750e-01
   endloop
 endfacet
 facet normal  9.927089e-01 -1.205367e-01  0.000000e+00
   outer loop
     vertex  6.227102e-01 -3.800746e-01  0.000000e+00
     vertex  6.328125e-01 -2.968750e-01  2.343750e-01
     vertex  6.227102e-01 -3.800746e-01  2.343750e-01
   endloop
 endfacet
 facet normal  9.350162e-01 -3.546049e-01  0.000000e+00
   outer loop
     vertex  5.929906e-01 -4.584389e-01  0.000000e+00
     vertex  6.227102e-01 -3.800746e-01  2.343750e-01
     vertex  5.929906e-01 -4.584389e-01  2.343750e-01
   endloop
 endfacet
 facet normal  9.350162e-01 -3.546049e-01  0.000000e+00
   outer loop
     vertex  5.929906e-01 -4.584389e-01  0.000000e+00
     vertex  6.227102e-01 -3.800746e-01  0.000000e+00
     vertex  6.227102e-01 -3.800746e-01  2.343750e-01
   endloop
 endfacet
 facet normal  8.229839e-01 -5.680647e-01  0.000000e+00
   outer loop
     vertex  5.453807e-01 -5.274137e-01  0.000000e+00
     vertex  5.929906e-01 -4.584389e-01  2.343750e-01
     vertex  5.453807e-01 -5.274137e-01  2.343750e-01
   endloop
 endfacet
 facet normal  8.229839e-01 -5.680647e-01  0.000000e+00
   outer loop
     vertex  5.453807e-01 -5.274137e-01  0.000000e+00
     vertex  5.929906e-01 -4.584389e-01  0.000000e+00
     vertex  5.929906e-01 -4.584389e-01  2.343750e-01
   endloop
 endfacet
 facet normal  6.631227e-01 -7.485107e-01  0.000000e+00
   outer loop
     vertex  4.826475e-01 -5.829905e-01  0.000000e+00
     vertex  5.453807e-01 -5.274137e-01  2.343750e-01
     vertex  4.826475e-01 -5.829905e-01  2.343750e-01
   endloop
 endfacet
 facet normal  6.631227e-01 -7.485107e-01  0.000000e+00
   outer loop
     vertex  4.826475e-01 -5.829905e-01  0.000000e+00
     vertex  5.453807e-01 -5.274137e-01  0.000000e+00
     vertex  5.453807e-01 -5.274137e-01  2.343750e-01
   endloop
 endfacet
 facet normal  4.647232e-01 -8.854560e-01  0.000000e+00
   outer loop
     vertex  4.084369e-01 -6.219392e-01  0.000000e+00
     vertex  4.826475e-01 -5.829905e-01  2.343750e-01
     vertex  4.084369e-01 -6.219392e-01  2.343750e-01
   endloop
 endfacet
 facet normal  4.647232e-01 -8.854560e-01  0.000000e+00
   outer loop
     vertex  4.084369e-01 -6.219392e-01  0.000000e+00
     vertex  4.826475e-01 -5.829905e-01  0.000000e+00
     vertex  4.826475e-01 -5.829905e-01  2.343750e-01
   endloop
 endfacet
 facet normal  2.393157e-01 -9.709418e-01  0.000000e+00
   outer loop
     vertex  3.270616e-01 -6.419964e-01  0.000000e+00
     vertex  4.084369e-01 -6.219392e-01  2.343750e-01
     vertex  3.270616e-01 -6.419964e-01  2.343750e-01
   endloop
 endfacet
 facet normal  2.393157e-01 -9.709418e-01  0.000000e+00
   outer loop
     vertex  3.270616e-01 -6.419964e-01  0.000000e+00
     vertex  4.084369e-01 -6.219392e-01  0.000000e+00
     vertex  4.084369e-01 -6.219392e-01  2.343750e-01
   endloop
 endfacet
 facet normal  0.000000e+00 -1.000000e+00  0.000000e+00
   outer loop
     vertex  2.432509e-01 -6.419964e-01  0.000000e+00
     vertex  3.270616e-01 -6.419964e-01  2.343750e-01
     vertex  2.432509e-01 -6.419964e-01  2.343750e-01
   endloop
 endfacet
 facet normal  0.000000e+00 -1.000000e+00  0.000000e+00
   outer loop
     vertex  2.432509e-01 -6.419964e-01  0.000000e+00
     vertex  3.270616e-01 -6.419964e-01  0.000000e+00
     vertex  3.270616e-01 -6.419964e-01  2.343750e-01
   endloop
 endfacet
 facet normal -2.393157e-01 -9.709418e-01  0.000000e+00
   outer loop
     vertex  1.618756e-01 -6.219392e-01  0.000000e+00
     vertex  2.432509e-01 -6.419964e-01  2.343750e-01
     vertex  1.618756e-01 -6.219392e-01  2.343750e-01
   endloop
 endfacet
 facet normal -2.393157e-01 -9.709418e-01  0.000000e+00
   outer loop
     vertex  1.618756e-01 -6.219392e-01  0.000000e+00
     vertex  2.432509e-01 -6.419964e-01  0.000000e+00
     vertex  2.432509e-01 -6.419964e-01  2.343750e-01
   endloop
 endfacet
 facet normal -4.647232e-01 -8.854560e-01  0.000000e+00
   outer loop
     vertex  8.766499e-02 -5.829905e-01  0.000000e+00
     vertex  1.618756e-01 -6.219392e-01  2.343750e-01
     vertex  8.766499e-02 -5.829905e-01  2.343750e-01
   endloop
 endfacet
 facet normal -4.647232e-01 -8.854560e-01  0.000000e+00
   outer loop
     vertex  8.766499e-02 -5.829905e-01  0.000000e+00
     vertex  1.618756e-01 -6.219392e-01  0.000000e+00
     vertex  1.618756e-01 -6.219392e-01  2.343750e-01
   endloop
 endfacet
 facet normal -6.631227e-01 -7.485107e-01  0.000000e+00
   outer loop
     vertex  2.493181e-02 -5.274137e-01  0.000000e+00
     vertex  8.766499e-02 -5.829905e-01  2.343750e-01
     vertex  2.493181e-02 -5.274137e-01  2.343750e-01
   endloop
 endfacet
 facet normal -6.631227e-01 -7.485107e-01  0.000000e+00
   outer loop
     vertex  2.493181e-02 -5.274137e-01  0.000000e+00
     vertex  8.766499e-02 -5.829905e-01  0.000000e+00
     vertex  8.766499e-02 -5.829905e-01  2.343750e-01
   endloop
 endfacet
 facet normal -8.229839e-01 -5.680647e-01  0.000000e+00
   outer loop
     vertex -2.267807e-02 -4.584389e-01  0.000000e+00
     vertex  2.493181e-02 -5.274137e-01  2.343750e-01
     vertex -2.267807e-02 -4.584389e-01  2.343750e-01
   endloop
 endfacet
 facet normal -8.229839e-01 -5.680647e-01  0.000000e+00
   outer loop
     vertex -2.267807e-02 -4.584389e-01  0.000000e+00
     vertex  2.493181e-02 -5.274137e-01  0.000000e+00
     vertex  2.493181e-02 -5.274137e-01  2.343750e-01
   endloop
 endfacet
 facet normal -9.350162e-01 -3.546049e-01  0.000000e+00
   outer loop
     vertex -5.239774e-02 -3.800746e-01  0.000000e+00
     vertex -2.267807e-02 -4.584389e-01  2.343750e-01
     vertex -5.239774e-02 -3.800746e-01  2.343750e-01
   endloop
 endfacet
 facet normal -9.350162e-01 -3.546049e-01  0.000000e+00
   outer loop
     vertex -5.239774e-02 -3.800746e-01  0.000000e+00
     vertex -2.267807e-02 -4.584389e-01  0.000000e+00
     vertex -2.267807e-02 -4.584389e-01  2.343750e-01
   endloop
 endfacet
 facet normal -9.927089e-01 -1.205367e-01  0.000000e+00
   outer loop
     vertex -6.250000e-02 -2.968750e-01  0.000000e+00
     vertex -5.239774e-02 -3.800746e-01  2.343750e-01
     vertex -6.250000e-02 -2.968750e-01  2.343750e-01
   endloop
 endfacet
 facet normal -9.927089e-01 -1.205367e-01  0.000000e+00
   outer loop
     vertex -6.250000e-02 -2.968750e-01  0.000000e+00
     vertex -5.239774e-02 -3.800746e-01  0.000000e+00
     vertex -5.239774e-02 -3.800746e-01  2.343750e-01
   endloop
 endfacet
 facet normal  1.000000e+00  0.000000e+00  0.000000e+00
   outer loop
     vertex  6.328125e-01  3.984375e-01  0.000000e+00
     vertex  6.328125e-01 -2.968750e-01  2.343750e-01
     vertex  6.328125e-01 -2.968750e-01  0.000000e+00
   endloop
 endfacet
 facet normal  1.000000e+00  0.000000e+00 -0.000000e+00
   outer loop
     vertex  6.328125e-01  3.984375e-01  0.000000e+00
     vertex  6.328125e-01  3.984375e-01  2.343750e-01
     vertex  6.328125e-01 -2.968750e-01  2.343750e-01
   endloop
 endfacet
 facet normal  0.000000e+00  1.000000e+00  0.000000e+00
   outer loop
     vertex -6.250000e-02  3.984375e-01  0.000000e+00
     vertex  6.328125e-01  3.984375e-01  2.343750e-01
     vertex  6.328125e-01  3.984375e-01  0.000000e+00
   endloop
 endfacet
 facet normal  0.000000e+00  1.000000e+00  0.000000e+00
   outer loop
     vertex -6.250000e-02  3.984375e-01  0.000000e+00
     vertex -6.250000e-02  3.984375e-01  2.343750e-01
     vertex  6.328125e-01  3.984375e-01  2.343750e-01
   endloop
 endfacet
 facet normal -1.000000e+00  0.000000e+00  0.000000e+00
   outer loop
     vertex -6.250000e-02 -2.968750e-01  0.000000e+00
     vertex -6.250000e-02  3.984375e-01  2.343750e-01
     vertex -6.250000e-02  3.984375e-01  0.000000e+00
   endloop
 endfacet
 facet normal -1.000000e+00  0.000000e+00  0.000000e+00
   outer loop
     vertex -6.250000e-02 -2.968750e-01  0.000000e+00
     vertex -6.250000e-02 -2.968750e-01  2.343750e-01
     vertex -6.250000e-02  3.984375e-01  2.343750e-01
   endloop
 endfacet
 facet normal -0.000000e+00  0.000000e+00 -1.000000e+00
   outer loop
     vertex  6.328125e-01 -2.968750e-01  0.000000e+00
     vertex -5.239774e-02 -3.800746e-01  0.000000e+00
     vertex -6.250000e-02 -2.968750e-01  0.000000e+00
   endloop
 endfacet
 facet normal  0.000000e+00  0.000000e+00 -1.000000e+00
   outer loop
     vertex  6.328125e-01 -2.968750e-01  0.000000e+00
     vertex -2.267807e-02 -4.584389e-01  0.000000e+00
     vertex -5.239774e-02 -3.800746e-01  0.000000e+00
   endloop
 endfacet
 facet normal  0.000000e+00  0.000000e+00 -1.000000e+00
   outer loop
     vertex  6.328125e-01 -2.968750e-01  0.000000e+00
     vertex  2.493181e-02 -5.274137e-01  0.000000e+00
     vertex -2.267807e-02 -4.584389e-01  0.000000e+00
   endloop
 endfacet
 facet normal  0.000000e+00  0.000000e+00 -1.000000e+00
   outer loop
     vertex  6.328125e-01 -2.968750e-01  0.000000e+00
     vertex  8.766499e-02 -5.829905e-01  0.000000e+00
     vertex  2.493181e-02 -5.274137e-01  0.000000e+00
   endloop
 endfacet
 facet normal  0.000000e+00  0.000000e+00 -1.000000e+00
   outer loop
     vertex  6.328125e-01 -2.968750e-01  0.000000e+00
     vertex  1.618756e-01 -6.219392e-01  0.000000e+00
     vertex  8.766499e-02 -5.829905e-01  0.000000e+00
   endloop
 endfacet
 facet normal  0.000000e+00  0.000000e+00 -1.000000e+00
   outer loop
     vertex  6.328125e-01 -2.968750e-01  0.000000e+00
     vertex  2.432509e-01 -6.419964e-01  0.000000e+00
     vertex  1.618756e-01 -6.219392e-01  0.000000e+00
   endloop
 endfacet
 facet normal  0.000000e+00  0.000000e+00 -1.000000e+00
   outer loop
     vertex  6.328125e-01 -2.968750e-01  0.000000e+00
     vertex  3.270616e-01 -6.419964e-01  0.000000e+00
     vertex  2.432509e-01 -6.419964e-01  0.000000e+00
   endloop
 endfacet
 facet normal  0.000000e+00  0.000000e+00 -1.000000e+00
   outer loop
     vertex  6.328125e-01 -2.968750e-01  0.000000e+00
     vertex  4.084369e-01 -6.219392e-01  0.000000e+00
     vertex  3.270616e-01 -6.419964e-01  0.000000e+00
   endloop
 endfacet
 facet normal  0.000000e+00  0.000000e+00 -1.000000e+00
   outer loop
     vertex  6.328125e-01 -2.968750e-01  0.000000e+00
     vertex  4.826475e-01 -5.829905e-01  0.000000e+00
     vertex  4.084369e-01 -6.219392e-01  0.000000e+00
   endloop
 endfacet
 facet normal  0.000000e+00  0.000000e+00 -1.000000e+00
   outer loop
     vertex  6.328125e-01 -2.968750e-01  0.000000e+00
     vertex  5.453807e-01 -5.274137e-01  0.000000e+00
     vertex  4.826475e-01 -5.829905e-01  0.000000e+00
   endloop
 endfacet
 facet normal  0.000000e+00  0.000000e+00 -1.000000e+00
   outer loop
     vertex  6.328125e-01 -2.968750e-01  0.000000e+00
     vertex  5.929906e-01 -4.584389e-01  0.000000e+00
     vertex  5.453807e-01 -5.274137e-01  0.000000e+00
   endloop
 endfacet
 facet normal  0.000000e+00  0.000000e+00 -1.000000e+00
   outer loop
     vertex  6.328125e-01 -2.968750e-01  0.000000e+00
     vertex  6.227102e-01 -3.800746e-01  0.000000e+00
     vertex  5.929906e-01 -4.584389e-01  0.000000e+00
   endloop
 endfacet
 facet normal -0.000000e+00  0.000000e+00 -1.000000e+00
   outer loop
     vertex  6.328125e-01  3.984375e-01  0.000000e+00
     vertex -6.250000e-02 -2.968750e-01  0.000000e+00
     vertex -6.250000e-02  3.984375e-01  0.000000e+00
   endloop
 endfacet
 facet normal  0.000000e+00 -0.000000e+00 -1.000000e+00
   outer loop
     vertex  6.328125e-01  3.984375e-01  0.000000e+00
     vertex  6.328125e-01 -2.968750e-01  0.000000e+00
     vertex -6.250000e-02 -2.968750e-01  0.000000e+00
   endloop
 endfacet
 facet normal  0.000000e+00  0.000000e+00  1.000000e+00
   outer loop
     vertex  6.328125e-01 -2.968750e-01  2.343750e-01
     vertex -6.250000e-02 -2.968750e-01  2.343750e-01
     vertex -5.239774e-02 -3.800746e-01  2.343750e-01
   endloop
 endfacet
 facet normal  0.000000e+00  0.000000e+00  1.000000e+00
   outer loop
     vertex  6.328125e-01 -2.968750e-01  2.343750e-01
     vertex -5.239774e-02 -3.800746e-01  2.343750e-01
     vertex -2.267807e-02 -4.584389e-01  2.343750e-01
   endloop
 endfacet
 facet normal  0.000000e+00  0.000000e+00  1.000000e+00
   outer loop
     vertex  6.328125e-01 -2.968750e-01  2.343750e-01
     vertex -2.267807e-02 -4.584389e-01  2.343750e-01
     vertex  2.493181e-02 -5.274137e-01  2.343750e-01
   endloop
 endfacet
 facet normal  0.000000e+00  0.000000e+00  1.000000e+00
   outer loop
     vertex  6.328125e-01 -2.968750e-01  2.343750e-01
     vertex  2.493181e-02 -5.274137e-01  2.343750e-01
     vertex  8.766499e-02 -5.829905e-01  2.343750e-01
   endloop
 endfacet
 facet normal  0.000000e+00  0.000000e+00  1.000000e+00
   outer loop
     vertex  6.328125e-01 -2.968750e-01  2.343750e-01
     vertex  8.766499e-02 -5.829905e-01  2.343750e-01
     vertex  1.618756e-01 -6.219392e-01  2.343750e-01
   endloop
 endfacet
 facet normal  0.000000e+00  0.000000e+00  1.000000e+00
   outer loop
     vertex  6.328125e-01 -2.968750e-01  2.343750e-01
     vertex  1.618756e-01 -6.219392e-01  2.343750e-01
     vertex  2.432509e-01 -6.419964e-01  2.343750e-01
   endloop
 endfacet
 facet normal  0.000000e+00  0.000000e+00  1.000000e+00
   outer loop
     vertex  6.328125e-01 -2.968750e-01  2.343750e-01
     vertex  2.432509e-01 -6.419964e-01  2.343750e-01
     vertex  3.270616e-01 -6.419964e-01  2.343750e-01
   endloop
 endfacet
 facet normal  0.000000e+00  0.000000e+00  1.000000e+00
   outer loop
     vertex  6.328125e-01 -2.968750e-01  2.343750e-01
     vertex  3.270616e-01 -6.419964e-01  2.343750e-01
     vertex  4.084369e-01 -6.219392e-01  2.343750e-01
   endloop
 endfacet
 facet normal  0.000000e+00  0.000000e+00  1.000000e+00
   outer loop
     vertex  6.328125e-01 -2.968750e-01  2.343750e-01
     vertex  4.084369e-01 -6.219392e-01  2.343750e-01
     vertex  4.826475e-01 -5.829905e-01  2.343750e-01
   endloop
 endfacet
 facet normal  0.000000e+00  0.000000e+00  1.000000e+00
   outer loop
     vertex  6.328125e-01 -2.968750e-01  2.343750e-01
     vertex  4.826475e-01 -5.829905e-01  2.343750e-01
     vertex  5.453807e-01 -5.274137e-01  2.343750e-01
   endloop
 endfacet
 facet normal  0.000000e+00  0.000000e+00  1.000000e+00
   outer loop
     vertex  6.328125e-01 -2.968750e-01  2.343750e-01
     vertex  5.453807e-01 -5.274137e-01  2.343750e-01
     vertex  5.929906e-01 -4.584389e-01  2.343750e-01
   endloop
 endfacet
 facet normal  0.000000e+00  0.000000e+00  1.000000e+00
   outer loop
     vertex  6.328125e-01 -2.968750e-01  2.343750e-01
     vertex  5.929906e-01 -4.584389e-01  2.343750e-01
     vertex  6.227102e-01 -3.800746e-01  2.343750e-01
   endloop
 endfacet
 facet normal  0.000000e+00  0.000000e+00  1.000000e+00
   outer loop
     vertex  6.328125e-01  3.984375e-01  2.343750e-01
     vertex -6.250000e-02  3.984375e-01  2.343750e-01
     vertex -6.250000e-02 -2.968750e-01  2.343750e-01
   endloop
 endfacet
 facet normal  0.000000e+00  0.000000e+00  1.000000e+00
   outer loop
     vertex  6.328125e-01  3.984375e-01  2.343750e-01
     vertex -6.250000e-02 -2.968750e-01  2.343750e-01
     vertex  6.328125e-01 -2.968750e-01  2.343750e-01
   endloop
 endfacet
endsolid
