solid 
 facet normal -1.205367e-01  0.000000e+00 -9.927089e-01
   outer loop
     vertex -7.592547e-02 -4.929600e-18 -3.717685e-01
     vertex  1.570724e-02  0.000000e+00 -3.828947e-01
     vertex  1.570724e-02 -7.500000e-01 -3.828947e-01
   endloop
 endfacet
 facet normal -1.205367e-01 -0.000000e+00 -9.927089e-01
   outer loop
     vertex -7.592547e-02 -4.929600e-18 -3.717685e-01
     vertex  1.570724e-02 -7.500000e-01 -3.828947e-01
     vertex -7.592547e-02 -7.500000e-01 -3.717685e-01
   endloop
 endfacet
 facet normal -3.546049e-01 -0.000000e+00 -9.350162e-01
   outer loop
     vertex -1.622328e-01 -8.210141e-18 -3.390365e-01
     vertex -7.592547e-02 -7.500000e-01 -3.717685e-01
     vertex -1.622328e-01 -7.500000e-01 -3.390365e-01
   endloop
 endfacet
 facet normal -3.546049e-01  0.000000e+00 -9.350162e-01
   outer loop
     vertex -1.622328e-01 -8.210141e-18 -3.390365e-01
     vertex -7.592547e-02 -4.929600e-18 -3.717685e-01
     vertex -7.592547e-02 -7.500000e-01 -3.717685e-01
   endloop
 endfacet
 facet normal -5.680647e-01 -0.000000e+00 -8.229839e-01
   outer loop
     vertex -2.381989e-01 -9.650968e-18 -2.866008e-01
     vertex -1.622328e-01 -7.500000e-01 -3.390365e-01
     vertex -2.381989e-01 -7.500000e-01 -2.866008e-01
   endloop
 endfacet
 facet normal -5.680647e-01  0.000000e+00 -8.229839e-01
   outer loop
     vertex -2.381989e-01 -9.650968e-18 -2.866008e-01
     vertex -1.622328e-01 -8.210141e-18 -3.390365e-01
     vertex -1.622328e-01 -7.500000e-01 -3.390365e-01
   endloop
 endfacet
 facet normal -7.485107e-01 -4.908094e-17 -6.631227e-01
   outer loop
     vertex -2.994090e-01 -9.168346e-18 -2.175090e-01
     vertex -2.381989e-01 -7.500000e-01 -2.866008e-01
     vertex -2.994090e-01 -7.500000e-01 -2.175090e-01
   endloop
 endfacet
 facet normal -7.485107e-01  0.000000e+00 -6.631227e-01
   outer loop
     vertex -2.994090e-01 -9.168346e-18 -2.175090e-01
     vertex -2.381989e-01 -9.650968e-18 -2.866008e-01
     vertex -2.381989e-01 -7.500000e-01 -2.866008e-01
   endloop
 endfacet
 facet normal -8.854560e-01 -3.439642e-17 -4.647232e-01
   outer loop
     vertex -3.423056e-01 -6.790324e-18 -1.357763e-01
     vertex -2.994090e-01 -7.500000e-01 -2.175090e-01
     vertex -3.423056e-01 -7.500000e-01 -1.357763e-01
   endloop
 endfacet
 facet normal -8.854560e-01 -3.132207e-17 -4.647232e-01
   outer loop
     vertex -3.423056e-01 -6.790324e-18 -1.357763e-01
     vertex -2.994090e-01 -9.168346e-18 -2.175090e-01
     vertex -2.994090e-01 -7.500000e-01 -2.175090e-01
   endloop
 endfacet
 facet normal -9.709418e-01 -1.328469e-17 -2.393157e-01
   outer loop
     vertex -3.643958e-01 -2.655103e-18 -4.615286e-02
     vertex -3.423056e-01 -7.500000e-01 -1.357763e-01
     vertex -3.643958e-01 -7.500000e-01 -4.615286e-02
   endloop
 endfacet
 facet normal -9.709418e-01 -1.879324e-17 -2.393157e-01
   outer loop
     vertex -3.643958e-01 -2.655103e-18 -4.615286e-02
     vertex -3.423056e-01 -6.790324e-18 -1.357763e-01
     vertex -3.423056e-01 -7.500000e-01 -1.357763e-01
   endloop
 endfacet
 facet normal -9.709418e-01  1.328469e-17  2.393157e-01
   outer loop
     vertex -3.643958e-01  2.996992e-18  4.615286e-02
     vertex -3.643958e-01 -7.500000e-01  4.615286e-02
     vertex -3.423056e-01 -7.500000e-01  1.357763e-01
   endloop
 endfacet
 facet normal -1.000000e+00  1.335340e-31  2.405535e-15
   outer loop
     vertex -3.643958e-01  2.996992e-18  4.615286e-02
     vertex -3.643958e-01 -7.500000e-01 -4.615286e-02
     vertex -3.643958e-01 -7.500000e-01  4.615286e-02
   endloop
 endfacet
 facet normal -1.000000e+00  1.335340e-31  2.405535e-15
   outer loop
     vertex -3.643958e-01  2.996992e-18  4.615286e-02
     vertex -3.643958e-01 -2.655103e-18 -4.615286e-02
     vertex -3.643958e-01 -7.500000e-01 -4.615286e-02
   endloop
 endfacet
 facet normal -9.709418e-01  1.771292e-17  2.393157e-01
   outer loop
     vertex -3.423056e-01  9.837483e-18  1.357763e-01
     vertex -3.643958e-01  2.996992e-18  4.615286e-02
     vertex -3.423056e-01 -7.500000e-01  1.357763e-01
   endloop
 endfacet
 facet normal -8.854560e-01  3.439642e-17  4.647232e-01
   outer loop
     vertex -2.994090e-01  1.746882e-17  2.175090e-01
     vertex -3.423056e-01 -7.500000e-01  1.357763e-01
     vertex -2.994090e-01 -7.500000e-01  2.175090e-01
   endloop
 endfacet
 facet normal -8.854560e-01  3.758648e-17  4.647232e-01
   outer loop
     vertex -2.994090e-01  1.746882e-17  2.175090e-01
     vertex -3.423056e-01  9.837483e-18  1.357763e-01
     vertex -3.423056e-01 -7.500000e-01  1.357763e-01
   endloop
 endfacet
 facet normal -7.485107e-01  0.000000e+00  6.631227e-01
   outer loop
     vertex -2.381989e-01  2.544751e-17  2.866008e-01
     vertex -2.994090e-01 -7.500000e-01  2.175090e-01
     vertex -2.381989e-01 -7.500000e-01  2.866008e-01
   endloop
 endfacet
 facet normal -7.485107e-01  5.011530e-17  6.631227e-01
   outer loop
     vertex -2.381989e-01  2.544751e-17  2.866008e-01
     vertex -2.994090e-01  1.746882e-17  2.175090e-01
     vertex -2.994090e-01 -7.500000e-01  2.175090e-01
   endloop
 endfacet
 facet normal -5.680647e-01  0.000000e+00  8.229839e-01
   outer loop
     vertex -1.622328e-01  3.330985e-17  3.390365e-01
     vertex -2.381989e-01  2.544751e-17  2.866008e-01
     vertex -2.381989e-01 -7.500000e-01  2.866008e-01
   endloop
 endfacet
 facet normal -5.680647e-01  0.000000e+00  8.229839e-01
   outer loop
     vertex -1.622328e-01  3.330985e-17  3.390365e-01
     vertex -2.381989e-01 -7.500000e-01  2.866008e-01
     vertex -1.622328e-01 -7.500000e-01  3.390365e-01
   endloop
 endfacet
 facet normal -3.546049e-01  0.000000e+00  9.350162e-01
   outer loop
     vertex -7.592547e-02  4.059891e-17  3.717685e-01
     vertex -1.622328e-01  3.330985e-17  3.390365e-01
     vertex -1.622328e-01 -7.500000e-01  3.390365e-01
   endloop
 endfacet
 facet normal -1.205367e-01  0.000000e+00  9.927089e-01
   outer loop
     vertex -7.592547e-02  4.059891e-17  3.717685e-01
     vertex -7.592547e-02 -7.500000e-01  3.717685e-01
     vertex  1.570724e-02 -7.500000e-01  3.828947e-01
   endloop
 endfacet
 facet normal -3.546049e-01  0.000000e+00  9.350162e-01
   outer loop
     vertex -7.592547e-02  4.059891e-17  3.717685e-01
     vertex -1.622328e-01 -7.500000e-01  3.390365e-01
     vertex -7.592547e-02 -7.500000e-01  3.717685e-01
   endloop
 endfacet
 facet normal -1.205367e-01  0.000000e+00  9.927089e-01
   outer loop
     vertex  1.570724e-02  4.689108e-17  3.828947e-01
     vertex -7.592547e-02  4.059891e-17  3.717685e-01
     vertex  1.570724e-02 -7.500000e-01  3.828947e-01
   endloop
 endfacet
 facet normal  1.205367e-01  0.000000e+00  9.927089e-01
   outer loop
     vertex  1.570724e-02  4.689108e-17  3.828947e-01
     vertex  1.570724e-02 -7.500000e-01  3.828947e-01
     vertex  1.073399e-01 -7.500000e-01  3.717685e-01
   endloop
 endfacet
 facet normal  1.205367e-01  0.000000e+00  9.927089e-01
   outer loop
     vertex  1.073399e-01  5.182068e-17  3.717685e-01
     vertex  1.570724e-02  4.689108e-17  3.828947e-01
     vertex  1.073399e-01 -7.500000e-01  3.717685e-01
   endloop
 endfacet
 facet normal  3.546049e-01  0.000000e+00  9.350162e-01
   outer loop
     vertex  1.936473e-01  5.510122e-17  3.390365e-01
     vertex  1.073399e-01  5.182068e-17  3.717685e-01
     vertex  1.073399e-01 -7.500000e-01  3.717685e-01
   endloop
 endfacet
 facet normal  5.680647e-01  0.000000e+00  8.229839e-01
   outer loop
     vertex  1.936473e-01  5.510122e-17  3.390365e-01
     vertex  1.936473e-01 -7.500000e-01  3.390365e-01
     vertex  2.696134e-01 -7.500000e-01  2.866008e-01
   endloop
 endfacet
 facet normal  3.546049e-01  0.000000e+00  9.350162e-01
   outer loop
     vertex  1.936473e-01  5.510122e-17  3.390365e-01
     vertex  1.073399e-01 -7.500000e-01  3.717685e-01
     vertex  1.936473e-01 -7.500000e-01  3.390365e-01
   endloop
 endfacet
 facet normal  5.680647e-01  0.000000e+00  8.229839e-01
   outer loop
     vertex  2.696134e-01  5.654205e-17  2.866008e-01
     vertex  1.936473e-01  5.510122e-17  3.390365e-01
     vertex  2.696134e-01 -7.500000e-01  2.866008e-01
   endloop
 endfacet
 facet normal  7.485107e-01  0.000000e+00  6.631227e-01
   outer loop
     vertex  2.696134e-01  5.654205e-17  2.866008e-01
     vertex  2.696134e-01 -7.500000e-01  2.866008e-01
     vertex  3.308234e-01 -7.500000e-01  2.175090e-01
   endloop
 endfacet
 facet normal  7.485107e-01  4.908094e-17  6.631227e-01
   outer loop
     vertex  3.308234e-01  5.605943e-17  2.175090e-01
     vertex  2.696134e-01  5.654205e-17  2.866008e-01
     vertex  3.308234e-01 -7.500000e-01  2.175090e-01
   endloop
 endfacet
 facet normal  8.854560e-01  3.758648e-17  4.647232e-01
   outer loop
     vertex  3.737200e-01  5.368141e-17  1.357763e-01
     vertex  3.308234e-01  5.605943e-17  2.175090e-01
     vertex  3.308234e-01 -7.500000e-01  2.175090e-01
   endloop
 endfacet
 facet normal  8.854560e-01  3.439642e-17  4.647232e-01
   outer loop
     vertex  3.737200e-01  5.368141e-17  1.357763e-01
     vertex  3.308234e-01 -7.500000e-01  2.175090e-01
     vertex  3.737200e-01 -7.500000e-01  1.357763e-01
   endloop
 endfacet
 facet normal  1.000000e+00  0.000000e+00  0.000000e+00
   outer loop
     vertex  3.958102e-01  4.954618e-17  4.615286e-02
     vertex  3.958102e-01 -7.500000e-01  4.615286e-02
     vertex  3.958102e-01 -7.500000e-01 -4.615286e-02
   endloop
 endfacet
 facet normal  9.709418e-01  1.328469e-17  2.393157e-01
   outer loop
     vertex  3.958102e-01  4.954618e-17  4.615286e-02
     vertex  3.737200e-01 -7.500000e-01  1.357763e-01
     vertex  3.958102e-01 -7.500000e-01  4.615286e-02
   endloop
 endfacet
 facet normal  9.709418e-01  1.879324e-17  2.393157e-01
   outer loop
     vertex  3.958102e-01  4.954618e-17  4.615286e-02
     vertex  3.737200e-01  5.368141e-17  1.357763e-01
     vertex  3.737200e-01 -7.500000e-01  1.357763e-01
   endloop
 endfacet
 facet normal  1.000000e+00  0.000000e+00 -0.000000e+00
   outer loop
     vertex  3.958102e-01  4.389409e-17 -4.615286e-02
     vertex  3.958102e-01  4.954618e-17  4.615286e-02
     vertex  3.958102e-01 -7.500000e-01 -4.615286e-02
   endloop
 endfacet
 facet normal  8.854560e-01 -3.439642e-17 -4.647232e-01
   outer loop
     vertex  3.737200e-01  3.705360e-17 -1.357763e-01
     vertex  3.737200e-01 -7.500000e-01 -1.357763e-01
     vertex  3.308234e-01 -7.500000e-01 -2.175090e-01
   endloop
 endfacet
 facet normal  9.709418e-01 -1.771292e-17 -2.393157e-01
   outer loop
     vertex  3.737200e-01  3.705360e-17 -1.357763e-01
     vertex  3.958102e-01 -7.500000e-01 -4.615286e-02
     vertex  3.737200e-01 -7.500000e-01 -1.357763e-01
   endloop
 endfacet
 facet normal  9.709418e-01 -1.252883e-17 -2.393157e-01
   outer loop
     vertex  3.737200e-01  3.705360e-17 -1.357763e-01
     vertex  3.958102e-01  4.389409e-17 -4.615286e-02
     vertex  3.958102e-01 -7.500000e-01 -4.615286e-02
   endloop
 endfacet
 facet normal  8.854560e-01 -3.439642e-17 -4.647232e-01
   outer loop
     vertex  3.308234e-01  2.942226e-17 -2.175090e-01
     vertex  3.737200e-01  3.705360e-17 -1.357763e-01
     vertex  3.308234e-01 -7.500000e-01 -2.175090e-01
   endloop
 endfacet
 facet normal  5.680647e-01  0.000000e+00 -8.229839e-01
   outer loop
     vertex  2.696134e-01  2.144357e-17 -2.866008e-01
     vertex  2.696134e-01 -7.500000e-01 -2.866008e-01
     vertex  1.936473e-01 -7.500000e-01 -3.390365e-01
   endloop
 endfacet
 facet normal  7.485107e-01  0.000000e+00 -6.631227e-01
   outer loop
     vertex  2.696134e-01  2.144357e-17 -2.866008e-01
     vertex  3.308234e-01 -7.500000e-01 -2.175090e-01
     vertex  2.696134e-01 -7.500000e-01 -2.866008e-01
   endloop
 endfacet
 facet normal  7.485107e-01 -5.011530e-17 -6.631227e-01
   outer loop
     vertex  2.696134e-01  2.144357e-17 -2.866008e-01
     vertex  3.308234e-01  2.942226e-17 -2.175090e-01
     vertex  3.308234e-01 -7.500000e-01 -2.175090e-01
   endloop
 endfacet
 facet normal  3.546049e-01  0.000000e+00 -9.350162e-01
   outer loop
     vertex  1.936473e-01  1.358123e-17 -3.390365e-01
     vertex  1.936473e-01 -7.500000e-01 -3.390365e-01
     vertex  1.073399e-01 -7.500000e-01 -3.717685e-01
   endloop
 endfacet
 facet normal  5.680647e-01  0.000000e+00 -8.229839e-01
   outer loop
     vertex  1.936473e-01  1.358123e-17 -3.390365e-01
     vertex  2.696134e-01  2.144357e-17 -2.866008e-01
     vertex  1.936473e-01 -7.500000e-01 -3.390365e-01
   endloop
 endfacet
 facet normal  3.546049e-01  0.000000e+00 -9.350162e-01
   outer loop
     vertex  1.073399e-01  6.292170e-18 -3.717685e-01
     vertex  1.936473e-01  1.358123e-17 -3.390365e-01
     vertex  1.073399e-01 -7.500000e-01 -3.717685e-01
   endloop
 endfacet
 facet normal  1.205367e-01  0.000000e+00 -9.927089e-01
   outer loop
     vertex  1.570724e-02  0.000000e+00 -3.828947e-01
     vertex  1.073399e-01 -7.500000e-01 -3.717685e-01
     vertex  1.570724e-02 -7.500000e-01 -3.828947e-01
   endloop
 endfacet
 facet normal  1.205367e-01  0.000000e+00 -9.927089e-01
   outer loop
     vertex  1.570724e-02  0.000000e+00 -3.828947e-01
     vertex  1.073399e-01  6.292170e-18 -3.717685e-01
     vertex  1.073399e-01 -7.500000e-01 -3.717685e-01
   endloop
 endfacet
 facet normal  1.205367e-01  0.000000e+00  9.927089e-01
   outer loop
     vertex -7.401646e-02 -4.338452e-18 -3.640233e-01
     vertex  1.570724e-02 -7.500000e-01 -3.749178e-01
     vertex  1.570724e-02  4.884488e-19 -3.749178e-01
   endloop
 endfacet
 facet normal  1.205367e-01  0.000000e+00  9.927089e-01
   outer loop
     vertex -7.401646e-02 -4.338452e-18 -3.640233e-01
     vertex -7.401646e-02 -7.500000e-01 -3.640233e-01
     vertex  1.570724e-02 -7.500000e-01 -3.749178e-01
   endloop
 endfacet
 facet normal  3.546049e-01  0.000000e+00  9.350162e-01
   outer loop
     vertex -1.585257e-01 -7.550647e-18 -3.319732e-01
     vertex -1.585257e-01 -7.500000e-01 -3.319732e-01
     vertex -7.401646e-02 -7.500000e-01 -3.640233e-01
   endloop
 endfacet
 facet normal  3.546049e-01  0.000000e+00  9.350162e-01
   outer loop
     vertex -1.585257e-01 -7.550647e-18 -3.319732e-01
     vertex -7.401646e-02 -7.500000e-01 -3.640233e-01
     vertex -7.401646e-02 -4.338452e-18 -3.640233e-01
   endloop
 endfacet
 facet normal  5.680647e-01  0.000000e+00  8.229839e-01
   outer loop
     vertex -2.329092e-01 -8.961457e-18 -2.806300e-01
     vertex -2.329092e-01 -7.500000e-01 -2.806300e-01
     vertex -1.585257e-01 -7.500000e-01 -3.319732e-01
   endloop
 endfacet
 facet normal  5.680647e-01  0.000000e+00  8.229839e-01
   outer loop
     vertex -2.329092e-01 -8.961457e-18 -2.806300e-01
     vertex -1.585257e-01 -7.500000e-01 -3.319732e-01
     vertex -1.585257e-01 -7.550647e-18 -3.319732e-01
   endloop
 endfacet
 facet normal  7.485107e-01  4.908094e-17  6.631227e-01
   outer loop
     vertex -2.928440e-01 -8.488890e-18 -2.129776e-01
     vertex -2.928440e-01 -7.500000e-01 -2.129776e-01
     vertex -2.329092e-01 -7.500000e-01 -2.806300e-01
   endloop
 endfacet
 facet normal  7.485107e-01  0.000000e+00  6.631227e-01
   outer loop
     vertex -2.928440e-01 -8.488890e-18 -2.129776e-01
     vertex -2.329092e-01 -7.500000e-01 -2.806300e-01
     vertex -2.329092e-01 -8.961457e-18 -2.806300e-01
   endloop
 endfacet
 facet normal  8.854560e-01  3.439642e-17  4.647232e-01
   outer loop
     vertex -3.348470e-01 -6.160410e-18 -1.329477e-01
     vertex -3.348470e-01 -7.500000e-01 -1.329477e-01
     vertex -2.928440e-01 -7.500000e-01 -2.129776e-01
   endloop
 endfacet
 facet normal  8.854560e-01  3.838619e-17  4.647232e-01
   outer loop
     vertex -3.348470e-01 -6.160410e-18 -1.329477e-01
     vertex -2.928440e-01 -7.500000e-01 -2.129776e-01
     vertex -2.928440e-01 -8.488890e-18 -2.129776e-01
   endloop
 endfacet
 facet normal  9.709418e-01  1.328469e-17  2.393157e-01
   outer loop
     vertex -3.564770e-01 -2.111340e-18 -4.519134e-02
     vertex -3.564770e-01 -7.500000e-01 -4.519134e-02
     vertex -3.348470e-01 -7.500000e-01 -1.329477e-01
   endloop
 endfacet
 facet normal  9.709418e-01  1.599425e-17  2.393157e-01
   outer loop
     vertex -3.564770e-01 -2.111340e-18 -4.519134e-02
     vertex -3.348470e-01 -7.500000e-01 -1.329477e-01
     vertex -3.348470e-01 -6.160410e-18 -1.329477e-01
   endloop
 endfacet
 facet normal  9.709418e-01 -1.328469e-17 -2.393157e-01
   outer loop
     vertex -3.564770e-01  3.423003e-18  4.519134e-02
     vertex -3.348470e-01 -7.500000e-01  1.329477e-01
     vertex -3.564770e-01 -7.500000e-01  4.519134e-02
   endloop
 endfacet
 facet normal  1.000000e+00 -1.363751e-31 -2.456716e-15
   outer loop
     vertex -3.564770e-01  3.423003e-18  4.519134e-02
     vertex -3.564770e-01 -7.500000e-01  4.519134e-02
     vertex -3.564770e-01 -7.500000e-01 -4.519134e-02
   endloop
 endfacet
 facet normal  1.000000e+00 -1.363751e-31 -2.456716e-15
   outer loop
     vertex -3.564770e-01  3.423003e-18  4.519134e-02
     vertex -3.564770e-01 -7.500000e-01 -4.519134e-02
     vertex -3.564770e-01 -2.111340e-18 -4.519134e-02
   endloop
 endfacet
 facet normal  9.709418e-01 -1.771292e-17 -2.393157e-01
   outer loop
     vertex -3.348470e-01  1.012098e-17  1.329477e-01
     vertex -3.348470e-01 -7.500000e-01  1.329477e-01
     vertex -3.564770e-01  3.423003e-18  4.519134e-02
   endloop
 endfacet
 facet normal  8.854560e-01 -3.439642e-17 -4.647232e-01
   outer loop
     vertex -2.928440e-01  1.759334e-17  2.129776e-01
     vertex -2.928440e-01 -7.500000e-01  2.129776e-01
     vertex -3.348470e-01 -7.500000e-01  1.329477e-01
   endloop
 endfacet
 facet normal  8.854560e-01 -3.198849e-17 -4.647232e-01
   outer loop
     vertex -2.928440e-01  1.759334e-17  2.129776e-01
     vertex -3.348470e-01 -7.500000e-01  1.329477e-01
     vertex -3.348470e-01  1.012098e-17  1.329477e-01
   endloop
 endfacet
 facet normal  7.485107e-01  0.000000e+00 -6.631227e-01
   outer loop
     vertex -2.329092e-01  2.540580e-17  2.806300e-01
     vertex -2.329092e-01 -7.500000e-01  2.806300e-01
     vertex -2.928440e-01 -7.500000e-01  2.129776e-01
   endloop
 endfacet
 facet normal  7.485107e-01 -5.118159e-17 -6.631227e-01
   outer loop
     vertex -2.329092e-01  2.540580e-17  2.806300e-01
     vertex -2.928440e-01 -7.500000e-01  2.129776e-01
     vertex -2.928440e-01  1.759334e-17  2.129776e-01
   endloop
 endfacet
 facet normal  5.680647e-01  0.000000e+00 -8.229839e-01
   outer loop
     vertex -1.585257e-01  3.310434e-17  3.319732e-01
     vertex -2.329092e-01 -7.500000e-01  2.806300e-01
     vertex -2.329092e-01  2.540580e-17  2.806300e-01
   endloop
 endfacet
 facet normal  5.680647e-01  0.000000e+00 -8.229839e-01
   outer loop
     vertex -1.585257e-01  3.310434e-17  3.319732e-01
     vertex -1.585257e-01 -7.500000e-01  3.319732e-01
     vertex -2.329092e-01 -7.500000e-01  2.806300e-01
   endloop
 endfacet
 facet normal  3.546049e-01  0.000000e+00 -9.350162e-01
   outer loop
     vertex -7.401646e-02  4.024155e-17  3.640233e-01
     vertex -1.585257e-01 -7.500000e-01  3.319732e-01
     vertex -1.585257e-01  3.310434e-17  3.319732e-01
   endloop
 endfacet
 facet normal  1.205367e-01  0.000000e+00 -9.927089e-01
   outer loop
     vertex -7.401646e-02  4.024155e-17  3.640233e-01
     vertex  1.570724e-02 -7.500000e-01  3.749178e-01
     vertex -7.401646e-02 -7.500000e-01  3.640233e-01
   endloop
 endfacet
 facet normal  3.546049e-01  0.000000e+00 -9.350162e-01
   outer loop
     vertex -7.401646e-02  4.024155e-17  3.640233e-01
     vertex -7.401646e-02 -7.500000e-01  3.640233e-01
     vertex -1.585257e-01 -7.500000e-01  3.319732e-01
   endloop
 endfacet
 facet normal  1.205367e-01  0.000000e+00 -9.927089e-01
   outer loop
     vertex  1.570724e-02  4.640263e-17  3.749178e-01
     vertex  1.570724e-02 -7.500000e-01  3.749178e-01
     vertex -7.401646e-02  4.024155e-17  3.640233e-01
   endloop
 endfacet
 facet normal -1.205367e-01 -0.000000e+00 -9.927089e-01
   outer loop
     vertex  1.570724e-02  4.640263e-17  3.749178e-01
     vertex  1.054309e-01 -7.500000e-01  3.640233e-01
     vertex  1.570724e-02 -7.500000e-01  3.749178e-01
   endloop
 endfacet
 facet normal -1.205367e-01 -0.000000e+00 -9.927089e-01
   outer loop
     vertex  1.054309e-01  5.122953e-17  3.640233e-01
     vertex  1.054309e-01 -7.500000e-01  3.640233e-01
     vertex  1.570724e-02  4.640263e-17  3.749178e-01
   endloop
 endfacet
 facet normal -3.546049e-01  0.000000e+00 -9.350162e-01
   outer loop
     vertex  1.899402e-01  5.444173e-17  3.319732e-01
     vertex  1.054309e-01 -7.500000e-01  3.640233e-01
     vertex  1.054309e-01  5.122953e-17  3.640233e-01
   endloop
 endfacet
 facet normal -5.680647e-01 -0.000000e+00 -8.229839e-01
   outer loop
     vertex  1.899402e-01  5.444173e-17  3.319732e-01
     vertex  2.643237e-01 -7.500000e-01  2.806300e-01
     vertex  1.899402e-01 -7.500000e-01  3.319732e-01
   endloop
 endfacet
 facet normal -3.546049e-01 -0.000000e+00 -9.350162e-01
   outer loop
     vertex  1.899402e-01  5.444173e-17  3.319732e-01
     vertex  1.899402e-01 -7.500000e-01  3.319732e-01
     vertex  1.054309e-01 -7.500000e-01  3.640233e-01
   endloop
 endfacet
 facet normal -5.680647e-01 -0.000000e+00 -8.229839e-01
   outer loop
     vertex  2.643237e-01  5.585254e-17  2.806300e-01
     vertex  2.643237e-01 -7.500000e-01  2.806300e-01
     vertex  1.899402e-01  5.444173e-17  3.319732e-01
   endloop
 endfacet
 facet normal -7.485107e-01 -0.000000e+00 -6.631227e-01
   outer loop
     vertex  2.643237e-01  5.585254e-17  2.806300e-01
     vertex  3.242585e-01 -7.500000e-01  2.129776e-01
     vertex  2.643237e-01 -7.500000e-01  2.806300e-01
   endloop
 endfacet
 facet normal -7.485107e-01 -4.908094e-17 -6.631227e-01
   outer loop
     vertex  3.242585e-01  5.537997e-17  2.129776e-01
     vertex  3.242585e-01 -7.500000e-01  2.129776e-01
     vertex  2.643237e-01  5.585254e-17  2.806300e-01
   endloop
 endfacet
 facet normal -8.854560e-01 -3.198849e-17 -4.647232e-01
   outer loop
     vertex  3.662614e-01  5.305149e-17  1.329477e-01
     vertex  3.242585e-01 -7.500000e-01  2.129776e-01
     vertex  3.242585e-01  5.537997e-17  2.129776e-01
   endloop
 endfacet
 facet normal -8.854560e-01 -3.439642e-17 -4.647232e-01
   outer loop
     vertex  3.662614e-01  5.305149e-17  1.329477e-01
     vertex  3.662614e-01 -7.500000e-01  1.329477e-01
     vertex  3.242585e-01 -7.500000e-01  2.129776e-01
   endloop
 endfacet
 facet normal -1.000000e+00 -0.000000e+00  0.000000e+00
   outer loop
     vertex  3.878914e-01  4.900242e-17  4.519134e-02
     vertex  3.878914e-01 -7.500000e-01 -4.519134e-02
     vertex  3.878914e-01 -7.500000e-01  4.519134e-02
   endloop
 endfacet
 facet normal -9.709418e-01 -1.328469e-17 -2.393157e-01
   outer loop
     vertex  3.878914e-01  4.900242e-17  4.519134e-02
     vertex  3.878914e-01 -7.500000e-01  4.519134e-02
     vertex  3.662614e-01 -7.500000e-01  1.329477e-01
   endloop
 endfacet
 facet normal -9.709418e-01 -1.919310e-17 -2.393157e-01
   outer loop
     vertex  3.878914e-01  4.900242e-17  4.519134e-02
     vertex  3.662614e-01 -7.500000e-01  1.329477e-01
     vertex  3.662614e-01  5.305149e-17  1.329477e-01
   endloop
 endfacet
 facet normal -1.000000e+00  0.000000e+00  0.000000e+00
   outer loop
     vertex  3.878914e-01  4.346808e-17 -4.519134e-02
     vertex  3.878914e-01 -7.500000e-01 -4.519134e-02
     vertex  3.878914e-01  4.900242e-17  4.519134e-02
   endloop
 endfacet
 facet normal -8.854560e-01  3.439642e-17  4.647232e-01
   outer loop
     vertex  3.662614e-01  3.677010e-17 -1.329477e-01
     vertex  3.242585e-01 -7.500000e-01 -2.129776e-01
     vertex  3.662614e-01 -7.500000e-01 -1.329477e-01
   endloop
 endfacet
 facet normal -9.709418e-01  1.771292e-17  2.393157e-01
   outer loop
     vertex  3.662614e-01  3.677010e-17 -1.329477e-01
     vertex  3.662614e-01 -7.500000e-01 -1.329477e-01
     vertex  3.878914e-01 -7.500000e-01 -4.519134e-02
   endloop
 endfacet
 facet normal -9.709418e-01  1.599425e-17  2.393157e-01
   outer loop
     vertex  3.662614e-01  3.677010e-17 -1.329477e-01
     vertex  3.878914e-01 -7.500000e-01 -4.519134e-02
     vertex  3.878914e-01  4.346808e-17 -4.519134e-02
   endloop
 endfacet
 facet normal -8.854560e-01  3.439642e-17  4.647232e-01
   outer loop
     vertex  3.242585e-01  2.929774e-17 -2.129776e-01
     vertex  3.242585e-01 -7.500000e-01 -2.129776e-01
     vertex  3.662614e-01  3.677010e-17 -1.329477e-01
   endloop
 endfacet
 facet normal -5.680647e-01  0.000000e+00  8.229839e-01
   outer loop
     vertex  2.643237e-01  2.148528e-17 -2.806300e-01
     vertex  1.899402e-01 -7.500000e-01 -3.319732e-01
     vertex  2.643237e-01 -7.500000e-01 -2.806300e-01
   endloop
 endfacet
 facet normal -7.485107e-01  0.000000e+00  6.631227e-01
   outer loop
     vertex  2.643237e-01  2.148528e-17 -2.806300e-01
     vertex  2.643237e-01 -7.500000e-01 -2.806300e-01
     vertex  3.242585e-01 -7.500000e-01 -2.129776e-01
   endloop
 endfacet
 facet normal -7.485107e-01  3.838619e-17  6.631227e-01
   outer loop
     vertex  2.643237e-01  2.148528e-17 -2.806300e-01
     vertex  3.242585e-01 -7.500000e-01 -2.129776e-01
     vertex  3.242585e-01  2.929774e-17 -2.129776e-01
   endloop
 endfacet
 facet normal -3.546049e-01  0.000000e+00  9.350162e-01
   outer loop
     vertex  1.899402e-01  1.378674e-17 -3.319732e-01
     vertex  1.054309e-01 -7.500000e-01 -3.640233e-01
     vertex  1.899402e-01 -7.500000e-01 -3.319732e-01
   endloop
 endfacet
 facet normal -5.680647e-01  0.000000e+00  8.229839e-01
   outer loop
     vertex  1.899402e-01  1.378674e-17 -3.319732e-01
     vertex  1.899402e-01 -7.500000e-01 -3.319732e-01
     vertex  2.643237e-01  2.148528e-17 -2.806300e-01
   endloop
 endfacet
 facet normal -3.546049e-01  0.000000e+00  9.350162e-01
   outer loop
     vertex  1.054309e-01  6.649532e-18 -3.640233e-01
     vertex  1.054309e-01 -7.500000e-01 -3.640233e-01
     vertex  1.899402e-01  1.378674e-17 -3.319732e-01
   endloop
 endfacet
 facet normal -1.205367e-01  0.000000e+00  9.927089e-01
   outer loop
     vertex  1.570724e-02  4.884488e-19 -3.749178e-01
     vertex  1.570724e-02 -7.500000e-01 -3.749178e-01
     vertex  1.054309e-01 -7.500000e-01 -3.640233e-01
   endloop
 endfacet
 facet normal -1.205367e-01  0.000000e+00  9.927089e-01
   outer loop
     vertex  1.570724e-02  4.884488e-19 -3.749178e-01
     vertex  1.054309e-01 -7.500000e-01 -3.640233e-01
     vertex  1.054309e-01  6.649532e-18 -3.640233e-01
   endloop
 endfacet
 facet normal -6.123234e-17  1.000000e+00 -6.123234e-17
   outer loop
     vertex -2.928440e-01 -8.488890e-18 -2.129776e-01
     vertex -2.381989e-01 -9.650968e-18 -2.866008e-01
     vertex -2.994090e-01 -9.168346e-18 -2.175090e-01
   endloop
 endfacet
 facet normal -6.123234e-17  1.000000e+00 -6.123234e-17
   outer loop
     vertex -2.928440e-01 -8.488890e-18 -2.129776e-01
     vertex -2.329092e-01 -8.961457e-18 -2.806300e-01
     vertex -2.381989e-01 -9.650968e-18 -2.866008e-01
   endloop
 endfacet
 facet normal -6.123234e-17  1.000000e+00 -6.123234e-17
   outer loop
     vertex -1.585257e-01 -7.550647e-18 -3.319732e-01
     vertex -1.622328e-01 -8.210141e-18 -3.390365e-01
     vertex -2.381989e-01 -9.650968e-18 -2.866008e-01
   endloop
 endfacet
 facet normal -6.123234e-17  1.000000e+00 -6.123234e-17
   outer loop
     vertex -1.585257e-01 -7.550647e-18 -3.319732e-01
     vertex -2.381989e-01 -9.650968e-18 -2.866008e-01
     vertex -2.329092e-01 -8.961457e-18 -2.806300e-01
   endloop
 endfacet
 facet normal -6.123234e-17  1.000000e+00 -6.123234e-17
   outer loop
     vertex -3.348470e-01 -6.160410e-18 -1.329477e-01
     vertex -2.994090e-01 -9.168346e-18 -2.175090e-01
     vertex -3.423056e-01 -6.790324e-18 -1.357763e-01
   endloop
 endfacet
 facet normal -6.123234e-17  1.000000e+00 -6.123234e-17
   outer loop
     vertex -3.348470e-01 -6.160410e-18 -1.329477e-01
     vertex -2.928440e-01 -8.488890e-18 -2.129776e-01
     vertex -2.994090e-01 -9.168346e-18 -2.175090e-01
   endloop
 endfacet
 facet normal -6.123234e-17  1.000000e+00 -6.123234e-17
   outer loop
     vertex -7.401646e-02 -4.338452e-18 -3.640233e-01
     vertex -7.592547e-02 -4.929600e-18 -3.717685e-01
     vertex -1.622328e-01 -8.210141e-18 -3.390365e-01
   endloop
 endfacet
 facet normal -6.123234e-17  1.000000e+00 -6.123234e-17
   outer loop
     vertex -7.401646e-02 -4.338452e-18 -3.640233e-01
     vertex -1.622328e-01 -8.210141e-18 -3.390365e-01
     vertex -1.585257e-01 -7.550647e-18 -3.319732e-01
   endloop
 endfacet
 facet normal -6.123234e-17  1.000000e+00 -6.123234e-17
   outer loop
     vertex -3.564770e-01 -2.111340e-18 -4.519134e-02
     vertex -3.423056e-01 -6.790324e-18 -1.357763e-01
     vertex -3.643958e-01 -2.655103e-18 -4.615286e-02
   endloop
 endfacet
 facet normal -6.123234e-17  1.000000e+00 -6.123234e-17
   outer loop
     vertex -3.564770e-01 -2.111340e-18 -4.519134e-02
     vertex -3.348470e-01 -6.160410e-18 -1.329477e-01
     vertex -3.423056e-01 -6.790324e-18 -1.357763e-01
   endloop
 endfacet
 facet normal -6.123234e-17  1.000000e+00 -6.123234e-17
   outer loop
     vertex  1.570724e-02  4.884488e-19 -3.749178e-01
     vertex  1.570724e-02  0.000000e+00 -3.828947e-01
     vertex -7.592547e-02 -4.929600e-18 -3.717685e-01
   endloop
 endfacet
 facet normal -6.123234e-17  1.000000e+00 -6.123234e-17
   outer loop
     vertex  1.570724e-02  4.884488e-19 -3.749178e-01
     vertex -7.592547e-02 -4.929600e-18 -3.717685e-01
     vertex -7.401646e-02 -4.338452e-18 -3.640233e-01
   endloop
 endfacet
 facet normal -6.123234e-17  1.000000e+00 -6.123234e-17
   outer loop
     vertex -3.564770e-01  3.423003e-18  4.519134e-02
     vertex -3.643958e-01 -2.655103e-18 -4.615286e-02
     vertex -3.643958e-01  2.996992e-18  4.615286e-02
   endloop
 endfacet
 facet normal -6.123234e-17  1.000000e+00 -6.123234e-17
   outer loop
     vertex -3.564770e-01  3.423003e-18  4.519134e-02
     vertex -3.564770e-01 -2.111340e-18 -4.519134e-02
     vertex -3.643958e-01 -2.655103e-18 -4.615286e-02
   endloop
 endfacet
 facet normal -6.123234e-17  1.000000e+00 -6.123234e-17
   outer loop
     vertex  1.054309e-01  6.649532e-18 -3.640233e-01
     vertex  1.073399e-01  6.292170e-18 -3.717685e-01
     vertex  1.570724e-02  0.000000e+00 -3.828947e-01
   endloop
 endfacet
 facet normal -6.123234e-17  1.000000e+00 -6.123234e-17
   outer loop
     vertex  1.054309e-01  6.649532e-18 -3.640233e-01
     vertex  1.570724e-02  0.000000e+00 -3.828947e-01
     vertex  1.570724e-02  4.884488e-19 -3.749178e-01
   endloop
 endfacet
 facet normal -6.123234e-17  1.000000e+00 -6.123234e-17
   outer loop
     vertex -3.348470e-01  1.012098e-17  1.329477e-01
     vertex -3.643958e-01  2.996992e-18  4.615286e-02
     vertex -3.423056e-01  9.837483e-18  1.357763e-01
   endloop
 endfacet
 facet normal -6.123234e-17  1.000000e+00 -6.123234e-17
   outer loop
     vertex -3.348470e-01  1.012098e-17  1.329477e-01
     vertex -3.564770e-01  3.423003e-18  4.519134e-02
     vertex -3.643958e-01  2.996992e-18  4.615286e-02
   endloop
 endfacet
 facet normal -6.123234e-17  1.000000e+00 -6.123234e-17
   outer loop
     vertex  1.899402e-01  1.378674e-17 -3.319732e-01
     vertex  1.936473e-01  1.358123e-17 -3.390365e-01
     vertex  1.073399e-01  6.292170e-18 -3.717685e-01
   endloop
 endfacet
 facet normal -6.123234e-17  1.000000e+00 -6.123234e-17
   outer loop
     vertex  1.899402e-01  1.378674e-17 -3.319732e-01
     vertex  1.073399e-01  6.292170e-18 -3.717685e-01
     vertex  1.054309e-01  6.649532e-18 -3.640233e-01
   endloop
 endfacet
 facet normal -6.123234e-17  1.000000e+00 -6.123234e-17
   outer loop
     vertex -2.928440e-01  1.759334e-17  2.129776e-01
     vertex -3.423056e-01  9.837483e-18  1.357763e-01
     vertex -2.994090e-01  1.746882e-17  2.175090e-01
   endloop
 endfacet
 facet normal -6.123234e-17  1.000000e+00 -6.123234e-17
   outer loop
     vertex -2.928440e-01  1.759334e-17  2.129776e-01
     vertex -3.348470e-01  1.012098e-17  1.329477e-01
     vertex -3.423056e-01  9.837483e-18  1.357763e-01
   endloop
 endfacet
 facet normal -6.123234e-17  1.000000e+00 -6.123234e-17
   outer loop
     vertex  2.643237e-01  2.148528e-17 -2.806300e-01
     vertex  2.696134e-01  2.144357e-17 -2.866008e-01
     vertex  1.936473e-01  1.358123e-17 -3.390365e-01
   endloop
 endfacet
 facet normal -6.123234e-17  1.000000e+00 -6.123234e-17
   outer loop
     vertex  2.643237e-01  2.148528e-17 -2.806300e-01
     vertex  1.936473e-01  1.358123e-17 -3.390365e-01
     vertex  1.899402e-01  1.378674e-17 -3.319732e-01
   endloop
 endfacet
 facet normal -6.123234e-17  1.000000e+00 -6.123234e-17
   outer loop
     vertex -2.381989e-01  2.544751e-17  2.866008e-01
     vertex -2.329092e-01  2.540580e-17  2.806300e-01
     vertex -2.928440e-01  1.759334e-17  2.129776e-01
   endloop
 endfacet
 facet normal -6.123234e-17  1.000000e+00 -6.123234e-17
   outer loop
     vertex -2.381989e-01  2.544751e-17  2.866008e-01
     vertex -2.928440e-01  1.759334e-17  2.129776e-01
     vertex -2.994090e-01  1.746882e-17  2.175090e-01
   endloop
 endfacet
 facet normal -6.123234e-17  1.000000e+00 -6.123234e-17
   outer loop
     vertex  3.308234e-01  2.942226e-17 -2.175090e-01
     vertex  2.696134e-01  2.144357e-17 -2.866008e-01
     vertex  2.643237e-01  2.148528e-17 -2.806300e-01
   endloop
 endfacet
 facet normal -6.123234e-17  1.000000e+00 -6.123234e-17
   outer loop
     vertex  3.308234e-01  2.942226e-17 -2.175090e-01
     vertex  2.643237e-01  2.148528e-17 -2.806300e-01
     vertex  3.242585e-01  2.929774e-17 -2.129776e-01
   endloop
 endfacet
 facet normal -6.123234e-17  1.000000e+00 -6.123234e-17
   outer loop
     vertex -1.585257e-01  3.310434e-17  3.319732e-01
     vertex -2.329092e-01  2.540580e-17  2.806300e-01
     vertex -2.381989e-01  2.544751e-17  2.866008e-01
   endloop
 endfacet
 facet normal -6.123234e-17  1.000000e+00 -6.123234e-17
   outer loop
     vertex -1.622328e-01  3.330985e-17  3.390365e-01
     vertex -1.585257e-01  3.310434e-17  3.319732e-01
     vertex -2.381989e-01  2.544751e-17  2.866008e-01
   endloop
 endfacet
 facet normal -6.123234e-17  1.000000e+00 -6.123234e-17
   outer loop
     vertex  3.737200e-01  3.705360e-17 -1.357763e-01
     vertex  3.308234e-01  2.942226e-17 -2.175090e-01
     vertex  3.242585e-01  2.929774e-17 -2.129776e-01
   endloop
 endfacet
 facet normal -6.123234e-17  1.000000e+00 -6.123234e-17
   outer loop
     vertex  3.737200e-01  3.705360e-17 -1.357763e-01
     vertex  3.242585e-01  2.929774e-17 -2.129776e-01
     vertex  3.662614e-01  3.677010e-17 -1.329477e-01
   endloop
 endfacet
 facet normal -6.123234e-17  1.000000e+00 -6.123234e-17
   outer loop
     vertex -7.592547e-02  4.059891e-17  3.717685e-01
     vertex -1.585257e-01  3.310434e-17  3.319732e-01
     vertex -1.622328e-01  3.330985e-17  3.390365e-01
   endloop
 endfacet
 facet normal -6.123234e-17  1.000000e+00 -6.123234e-17
   outer loop
     vertex -7.592547e-02  4.059891e-17  3.717685e-01
     vertex -7.401646e-02  4.024155e-17  3.640233e-01
     vertex -1.585257e-01  3.310434e-17  3.319732e-01
   endloop
 endfacet
 facet normal -6.123234e-17  1.000000e+00 -6.123234e-17
   outer loop
     vertex  3.958102e-01  4.389409e-17 -4.615286e-02
     vertex  3.737200e-01  3.705360e-17 -1.357763e-01
     vertex  3.662614e-01  3.677010e-17 -1.329477e-01
   endloop
 endfacet
 facet normal -6.123234e-17  1.000000e+00 -6.123234e-17
   outer loop
     vertex  3.958102e-01  4.389409e-17 -4.615286e-02
     vertex  3.662614e-01  3.677010e-17 -1.329477e-01
     vertex  3.878914e-01  4.346808e-17 -4.519134e-02
   endloop
 endfacet
 facet normal -6.123234e-17  1.000000e+00 -6.123234e-17
   outer loop
     vertex  1.570724e-02  4.640263e-17  3.749178e-01
     vertex -7.401646e-02  4.024155e-17  3.640233e-01
     vertex -7.592547e-02  4.059891e-17  3.717685e-01
   endloop
 endfacet
 facet normal -6.123234e-17  1.000000e+00 -6.123234e-17
   outer loop
     vertex  1.570724e-02  4.689108e-17  3.828947e-01
     vertex  1.570724e-02  4.640263e-17  3.749178e-01
     vertex -7.592547e-02  4.059891e-17  3.717685e-01
   endloop
 endfacet
 facet normal -6.123234e-17  1.000000e+00 -6.123234e-17
   outer loop
     vertex  3.958102e-01  4.954618e-17  4.615286e-02
     vertex  3.958102e-01  4.389409e-17 -4.615286e-02
     vertex  3.878914e-01  4.346808e-17 -4.519134e-02
   endloop
 endfacet
 facet normal -6.123234e-17  1.000000e+00 -6.123234e-17
   outer loop
     vertex  3.958102e-01  4.954618e-17  4.615286e-02
     vertex  3.878914e-01  4.346808e-17 -4.519134e-02
     vertex  3.878914e-01  4.900242e-17  4.519134e-02
   endloop
 endfacet
 facet normal -6.123234e-17  1.000000e+00 -6.123234e-17
   outer loop
     vertex  1.073399e-01  5.182068e-17  3.717685e-01
     vertex  1.054309e-01  5.122953e-17  3.640233e-01
     vertex  1.570724e-02  4.640263e-17  3.749178e-01
   endloop
 endfacet
 facet normal -6.123234e-17  1.000000e+00 -6.123234e-17
   outer loop
     vertex  1.073399e-01  5.182068e-17  3.717685e-01
     vertex  1.570724e-02  4.640263e-17  3.749178e-01
     vertex  1.570724e-02  4.689108e-17  3.828947e-01
   endloop
 endfacet
 facet normal -6.123234e-17  1.000000e+00 -6.123234e-17
   outer loop
     vertex  3.737200e-01  5.368141e-17  1.357763e-01
     vertex  3.878914e-01  4.900242e-17  4.519134e-02
     vertex  3.662614e-01  5.305149e-17  1.329477e-01
   endloop
 endfacet
 facet normal -6.123234e-17  1.000000e+00 -6.123234e-17
   outer loop
     vertex  3.737200e-01  5.368141e-17  1.357763e-01
     vertex  3.958102e-01  4.954618e-17  4.615286e-02
     vertex  3.878914e-01  4.900242e-17  4.519134e-02
   endloop
 endfacet
 facet normal -6.123234e-17  1.000000e+00 -6.123234e-17
   outer loop
     vertex  1.899402e-01  5.444173e-17  3.319732e-01
     vertex  1.054309e-01  5.122953e-17  3.640233e-01
     vertex  1.073399e-01  5.182068e-17  3.717685e-01
   endloop
 endfacet
 facet normal -6.123234e-17  1.000000e+00 -6.123234e-17
   outer loop
     vertex  1.936473e-01  5.510122e-17  3.390365e-01
     vertex  1.899402e-01  5.444173e-17  3.319732e-01
     vertex  1.073399e-01  5.182068e-17  3.717685e-01
   endloop
 endfacet
 facet normal -6.123234e-17  1.000000e+00 -6.123234e-17
   outer loop
     vertex  3.308234e-01  5.605943e-17  2.175090e-01
     vertex  3.737200e-01  5.368141e-17  1.357763e-01
     vertex  3.662614e-01  5.305149e-17  1.329477e-01
   endloop
 endfacet
 facet normal -6.123234e-17  1.000000e+00 -6.123234e-17
   outer loop
     vertex  3.308234e-01  5.605943e-17  2.175090e-01
     vertex  3.662614e-01  5.305149e-17  1.329477e-01
     vertex  3.242585e-01  5.537997e-17  2.129776e-01
   endloop
 endfacet
 facet normal -6.123234e-17  1.000000e+00 -6.123234e-17
   outer loop
     vertex  2.696134e-01  5.654205e-17  2.866008e-01
     vertex  3.242585e-01  5.537997e-17  2.129776e-01
     vertex  2.643237e-01  5.585254e-17  2.806300e-01
   endloop
 endfacet
 facet normal -6.123234e-17  1.000000e+00 -6.123234e-17
   outer loop
     vertex  2.696134e-01  5.654205e-17  2.866008e-01
     vertex  2.643237e-01  5.585254e-17  2.806300e-01
     vertex  1.899402e-01  5.444173e-17  3.319732e-01
   endloop
 endfacet
 facet normal -6.123234e-17  1.000000e+00 -6.123234e-17
   outer loop
     vertex  2.696134e-01  5.654205e-17  2.866008e-01
     vertex  1.899402e-01  5.444173e-17  3.319732e-01
     vertex  1.936473e-01  5.510122e-17  3.390365e-01
   endloop
 endfacet
 facet normal -6.123234e-17  1.000000e+00 -6.123234e-17
   outer loop
     vertex  2.696134e-01  5.654205e-17  2.866008e-01
     vertex  3.308234e-01  5.605943e-17  2.175090e-01
     vertex  3.242585e-01  5.537997e-17  2.129776e-01
   endloop
 endfacet
 facet normal  0.000000e+00 -1.000000e+00 -0.000000e+00
   outer loop
     vertex -2.928440e-01 -7.500000e-01 -2.129776e-01
     vertex -2.994090e-01 -7.500000e-01 -2.175090e-01
     vertex -2.381989e-01 -7.500000e-01 -2.866008e-01
   endloop
 endfacet
 facet normal  0.000000e+00 -1.000000e+00  0.000000e+00
   outer loop
     vertex -2.928440e-01 -7.500000e-01 -2.129776e-01
     vertex -2.381989e-01 -7.500000e-01 -2.866008e-01
     vertex -2.329092e-01 -7.500000e-01 -2.806300e-01
   endloop
 endfacet
 facet normal -0.000000e+00 -1.000000e+00  0.000000e+00
   outer loop
     vertex -1.585257e-01 -7.500000e-01 -3.319732e-01
     vertex -2.381989e-01 -7.500000e-01 -2.866008e-01
     vertex -1.622328e-01 -7.500000e-01 -3.390365e-01
   endloop
 endfacet
 facet normal  0.000000e+00 -1.000000e+00  0.000000e+00
   outer loop
     vertex -1.585257e-01 -7.500000e-01 -3.319732e-01
     vertex -2.329092e-01 -7.500000e-01 -2.806300e-01
     vertex -2.381989e-01 -7.500000e-01 -2.866008e-01
   endloop
 endfacet
 facet normal  0.000000e+00 -1.000000e+00 -0.000000e+00
   outer loop
     vertex -3.348470e-01 -7.500000e-01 -1.329477e-01
     vertex -3.423056e-01 -7.500000e-01 -1.357763e-01
     vertex -2.994090e-01 -7.500000e-01 -2.175090e-01
   endloop
 endfacet
 facet normal  0.000000e+00 -1.000000e+00  0.000000e+00
   outer loop
     vertex -3.348470e-01 -7.500000e-01 -1.329477e-01
     vertex -2.994090e-01 -7.500000e-01 -2.175090e-01
     vertex -2.928440e-01 -7.500000e-01 -2.129776e-01
   endloop
 endfacet
 facet normal -0.000000e+00 -1.000000e+00  0.000000e+00
   outer loop
     vertex -7.401646e-02 -7.500000e-01 -3.640233e-01
     vertex -1.622328e-01 -7.500000e-01 -3.390365e-01
     vertex -7.592547e-02 -7.500000e-01 -3.717685e-01
   endloop
 endfacet
 facet normal  0.000000e+00 -1.000000e+00  0.000000e+00
   outer loop
     vertex -7.401646e-02 -7.500000e-01 -3.640233e-01
     vertex -1.585257e-01 -7.500000e-01 -3.319732e-01
     vertex -1.622328e-01 -7.500000e-01 -3.390365e-01
   endloop
 endfacet
 facet normal  0.000000e+00 -1.000000e+00 -0.000000e+00
   outer loop
     vertex -3.564770e-01 -7.500000e-01 -4.519134e-02
     vertex -3.643958e-01 -7.500000e-01 -4.615286e-02
     vertex -3.423056e-01 -7.500000e-01 -1.357763e-01
   endloop
 endfacet
 facet normal  0.000000e+00 -1.000000e+00  0.000000e+00
   outer loop
     vertex -3.564770e-01 -7.500000e-01 -4.519134e-02
     vertex -3.423056e-01 -7.500000e-01 -1.357763e-01
     vertex -3.348470e-01 -7.500000e-01 -1.329477e-01
   endloop
 endfacet
 facet normal -0.000000e+00 -1.000000e+00 -0.000000e+00
   outer loop
     vertex  1.570724e-02 -7.500000e-01 -3.749178e-01
     vertex -7.592547e-02 -7.500000e-01 -3.717685e-01
     vertex  1.570724e-02 -7.500000e-01 -3.828947e-01
   endloop
 endfacet
 facet normal  0.000000e+00 -1.000000e+00  0.000000e+00
   outer loop
     vertex  1.570724e-02 -7.500000e-01 -3.749178e-01
     vertex -7.401646e-02 -7.500000e-01 -3.640233e-01
     vertex -7.592547e-02 -7.500000e-01 -3.717685e-01
   endloop
 endfacet
 facet normal -0.000000e+00 -1.000000e+00  0.000000e+00
   outer loop
     vertex -3.564770e-01 -7.500000e-01  4.519134e-02
     vertex -3.643958e-01 -7.500000e-01  4.615286e-02
     vertex -3.643958e-01 -7.500000e-01 -4.615286e-02
   endloop
 endfacet
 facet normal  0.000000e+00 -1.000000e+00  0.000000e+00
   outer loop
     vertex -3.564770e-01 -7.500000e-01  4.519134e-02
     vertex -3.643958e-01 -7.500000e-01 -4.615286e-02
     vertex -3.564770e-01 -7.500000e-01 -4.519134e-02
   endloop
 endfacet
 facet normal  0.000000e+00 -1.000000e+00 -0.000000e+00
   outer loop
     vertex  1.054309e-01 -7.500000e-01 -3.640233e-01
     vertex  1.570724e-02 -7.500000e-01 -3.828947e-01
     vertex  1.073399e-01 -7.500000e-01 -3.717685e-01
   endloop
 endfacet
 facet normal  0.000000e+00 -1.000000e+00  0.000000e+00
   outer loop
     vertex  1.054309e-01 -7.500000e-01 -3.640233e-01
     vertex  1.570724e-02 -7.500000e-01 -3.749178e-01
     vertex  1.570724e-02 -7.500000e-01 -3.828947e-01
   endloop
 endfacet
 facet normal -0.000000e+00 -1.000000e+00  0.000000e+00
   outer loop
     vertex -3.348470e-01 -7.500000e-01  1.329477e-01
     vertex -3.423056e-01 -7.500000e-01  1.357763e-01
     vertex -3.643958e-01 -7.500000e-01  4.615286e-02
   endloop
 endfacet
 facet normal  0.000000e+00 -1.000000e+00  0.000000e+00
   outer loop
     vertex -3.348470e-01 -7.500000e-01  1.329477e-01
     vertex -3.643958e-01 -7.500000e-01  4.615286e-02
     vertex -3.564770e-01 -7.500000e-01  4.519134e-02
   endloop
 endfacet
 facet normal  0.000000e+00 -1.000000e+00 -0.000000e+00
   outer loop
     vertex  1.899402e-01 -7.500000e-01 -3.319732e-01
     vertex  1.073399e-01 -7.500000e-01 -3.717685e-01
     vertex  1.936473e-01 -7.500000e-01 -3.390365e-01
   endloop
 endfacet
 facet normal  0.000000e+00 -1.000000e+00  0.000000e+00
   outer loop
     vertex  1.899402e-01 -7.500000e-01 -3.319732e-01
     vertex  1.054309e-01 -7.500000e-01 -3.640233e-01
     vertex  1.073399e-01 -7.500000e-01 -3.717685e-01
   endloop
 endfacet
 facet normal -0.000000e+00 -1.000000e+00  0.000000e+00
   outer loop
     vertex -2.928440e-01 -7.500000e-01  2.129776e-01
     vertex -2.994090e-01 -7.500000e-01  2.175090e-01
     vertex -3.423056e-01 -7.500000e-01  1.357763e-01
   endloop
 endfacet
 facet normal  0.000000e+00 -1.000000e+00  0.000000e+00
   outer loop
     vertex -2.928440e-01 -7.500000e-01  2.129776e-01
     vertex -3.423056e-01 -7.500000e-01  1.357763e-01
     vertex -3.348470e-01 -7.500000e-01  1.329477e-01
   endloop
 endfacet
 facet normal  0.000000e+00 -1.000000e+00 -0.000000e+00
   outer loop
     vertex  2.643237e-01 -7.500000e-01 -2.806300e-01
     vertex  1.936473e-01 -7.500000e-01 -3.390365e-01
     vertex  2.696134e-01 -7.500000e-01 -2.866008e-01
   endloop
 endfacet
 facet normal  0.000000e+00 -1.000000e+00  0.000000e+00
   outer loop
     vertex  2.643237e-01 -7.500000e-01 -2.806300e-01
     vertex  1.899402e-01 -7.500000e-01 -3.319732e-01
     vertex  1.936473e-01 -7.500000e-01 -3.390365e-01
   endloop
 endfacet
 facet normal  0.000000e+00 -1.000000e+00 -0.000000e+00
   outer loop
     vertex -2.381989e-01 -7.500000e-01  2.866008e-01
     vertex -2.928440e-01 -7.500000e-01  2.129776e-01
     vertex -2.329092e-01 -7.500000e-01  2.806300e-01
   endloop
 endfacet
 facet normal  0.000000e+00 -1.000000e+00  0.000000e+00
   outer loop
     vertex -2.381989e-01 -7.500000e-01  2.866008e-01
     vertex -2.994090e-01 -7.500000e-01  2.175090e-01
     vertex -2.928440e-01 -7.500000e-01  2.129776e-01
   endloop
 endfacet
 facet normal  0.000000e+00 -1.000000e+00  0.000000e+00
   outer loop
     vertex  3.308234e-01 -7.500000e-01 -2.175090e-01
     vertex  2.643237e-01 -7.500000e-01 -2.806300e-01
     vertex  2.696134e-01 -7.500000e-01 -2.866008e-01
   endloop
 endfacet
 facet normal -0.000000e+00 -1.000000e+00  0.000000e+00
   outer loop
     vertex  3.308234e-01 -7.500000e-01 -2.175090e-01
     vertex  3.242585e-01 -7.500000e-01 -2.129776e-01
     vertex  2.643237e-01 -7.500000e-01 -2.806300e-01
   endloop
 endfacet
 facet normal  0.000000e+00 -1.000000e+00  0.000000e+00
   outer loop
     vertex -1.622328e-01 -7.500000e-01  3.390365e-01
     vertex -2.381989e-01 -7.500000e-01  2.866008e-01
     vertex -2.329092e-01 -7.500000e-01  2.806300e-01
   endloop
 endfacet
 facet normal  0.000000e+00 -1.000000e+00 -0.000000e+00
   outer loop
     vertex -1.622328e-01 -7.500000e-01  3.390365e-01
     vertex -2.329092e-01 -7.500000e-01  2.806300e-01
     vertex -1.585257e-01 -7.500000e-01  3.319732e-01
   endloop
 endfacet
 facet normal  0.000000e+00 -1.000000e+00  0.000000e+00
   outer loop
     vertex  3.737200e-01 -7.500000e-01 -1.357763e-01
     vertex  3.242585e-01 -7.500000e-01 -2.129776e-01
     vertex  3.308234e-01 -7.500000e-01 -2.175090e-01
   endloop
 endfacet
 facet normal -0.000000e+00 -1.000000e+00  0.000000e+00
   outer loop
     vertex  3.737200e-01 -7.500000e-01 -1.357763e-01
     vertex  3.662614e-01 -7.500000e-01 -1.329477e-01
     vertex  3.242585e-01 -7.500000e-01 -2.129776e-01
   endloop
 endfacet
 facet normal  0.000000e+00 -1.000000e+00  0.000000e+00
   outer loop
     vertex -7.592547e-02 -7.500000e-01  3.717685e-01
     vertex -1.622328e-01 -7.500000e-01  3.390365e-01
     vertex -1.585257e-01 -7.500000e-01  3.319732e-01
   endloop
 endfacet
 facet normal  0.000000e+00 -1.000000e+00 -0.000000e+00
   outer loop
     vertex -7.592547e-02 -7.500000e-01  3.717685e-01
     vertex -1.585257e-01 -7.500000e-01  3.319732e-01
     vertex -7.401646e-02 -7.500000e-01  3.640233e-01
   endloop
 endfacet
 facet normal -0.000000e+00 -1.000000e+00  0.000000e+00
   outer loop
     vertex  3.958102e-01 -7.500000e-01 -4.615286e-02
     vertex  3.878914e-01 -7.500000e-01 -4.519134e-02
     vertex  3.662614e-01 -7.500000e-01 -1.329477e-01
   endloop
 endfacet
 facet normal  0.000000e+00 -1.000000e+00  0.000000e+00
   outer loop
     vertex  3.958102e-01 -7.500000e-01 -4.615286e-02
     vertex  3.662614e-01 -7.500000e-01 -1.329477e-01
     vertex  3.737200e-01 -7.500000e-01 -1.357763e-01
   endloop
 endfacet
 facet normal  0.000000e+00 -1.000000e+00  0.000000e+00
   outer loop
     vertex  1.570724e-02 -7.500000e-01  3.828947e-01
     vertex -7.592547e-02 -7.500000e-01  3.717685e-01
     vertex -7.401646e-02 -7.500000e-01  3.640233e-01
   endloop
 endfacet
 facet normal  0.000000e+00 -1.000000e+00  0.000000e+00
   outer loop
     vertex  1.570724e-02 -7.500000e-01  3.828947e-01
     vertex -7.401646e-02 -7.500000e-01  3.640233e-01
     vertex  1.570724e-02 -7.500000e-01  3.749178e-01
   endloop
 endfacet
 facet normal  0.000000e+00 -1.000000e+00 -0.000000e+00
   outer loop
     vertex  3.958102e-01 -7.500000e-01  4.615286e-02
     vertex  3.878914e-01 -7.500000e-01 -4.519134e-02
     vertex  3.958102e-01 -7.500000e-01 -4.615286e-02
   endloop
 endfacet
 facet normal  0.000000e+00 -1.000000e+00  0.000000e+00
   outer loop
     vertex  3.958102e-01 -7.500000e-01  4.615286e-02
     vertex  3.878914e-01 -7.500000e-01  4.519134e-02
     vertex  3.878914e-01 -7.500000e-01 -4.519134e-02
   endloop
 endfacet
 facet normal  0.000000e+00 -1.000000e+00  0.000000e+00
   outer loop
     vertex  1.073399e-01 -7.500000e-01  3.717685e-01
     vertex  1.570724e-02 -7.500000e-01  3.828947e-01
     vertex  1.570724e-02 -7.500000e-01  3.749178e-01
   endloop
 endfacet
 facet normal -0.000000e+00 -1.000000e+00  0.000000e+00
   outer loop
     vertex  1.073399e-01 -7.500000e-01  3.717685e-01
     vertex  1.570724e-02 -7.500000e-01  3.749178e-01
     vertex  1.054309e-01 -7.500000e-01  3.640233e-01
   endloop
 endfacet
 facet normal  0.000000e+00 -1.000000e+00 -0.000000e+00
   outer loop
     vertex  3.737200e-01 -7.500000e-01  1.357763e-01
     vertex  3.662614e-01 -7.500000e-01  1.329477e-01
     vertex  3.878914e-01 -7.500000e-01  4.519134e-02
   endloop
 endfacet
 facet normal  0.000000e+00 -1.000000e+00  0.000000e+00
   outer loop
     vertex  3.737200e-01 -7.500000e-01  1.357763e-01
     vertex  3.878914e-01 -7.500000e-01  4.519134e-02
     vertex  3.958102e-01 -7.500000e-01  4.615286e-02
   endloop
 endfacet
 facet normal  0.000000e+00 -1.000000e+00  0.000000e+00
   outer loop
     vertex  1.936473e-01 -7.500000e-01  3.390365e-01
     vertex  1.073399e-01 -7.500000e-01  3.717685e-01
     vertex  1.054309e-01 -7.500000e-01  3.640233e-01
   endloop
 endfacet
 facet normal -0.000000e+00 -1.000000e+00  0.000000e+00
   outer loop
     vertex  1.936473e-01 -7.500000e-01  3.390365e-01
     vertex  1.054309e-01 -7.500000e-01  3.640233e-01
     vertex  1.899402e-01 -7.500000e-01  3.319732e-01
   endloop
 endfacet
 facet normal  0.000000e+00 -1.000000e+00  0.000000e+00
   outer loop
     vertex  3.308234e-01 -7.500000e-01  2.175090e-01
     vertex  3.662614e-01 -7.500000e-01  1.329477e-01
     vertex  3.737200e-01 -7.500000e-01  1.357763e-01
   endloop
 endfacet
 facet normal  0.000000e+00 -1.000000e+00 -0.000000e+00
   outer loop
     vertex  3.308234e-01 -7.500000e-01  2.175090e-01
     vertex  3.242585e-01 -7.500000e-01  2.129776e-01
     vertex  3.662614e-01 -7.500000e-01  1.329477e-01
   endloop
 endfacet
 facet normal  0.000000e+00 -1.000000e+00 -0.000000e+00
   outer loop
     vertex  2.696134e-01 -7.500000e-01  2.866008e-01
     vertex  2.643237e-01 -7.500000e-01  2.806300e-01
     vertex  3.242585e-01 -7.500000e-01  2.129776e-01
   endloop
 endfacet
 facet normal -0.000000e+00 -1.000000e+00  0.000000e+00
   outer loop
     vertex  2.696134e-01 -7.500000e-01  2.866008e-01
     vertex  1.899402e-01 -7.500000e-01  3.319732e-01
     vertex  2.643237e-01 -7.500000e-01  2.806300e-01
   endloop
 endfacet
 facet normal  0.000000e+00 -1.000000e+00  0.000000e+00
   outer loop
     vertex  2.696134e-01 -7.500000e-01  2.866008e-01
     vertex  3.242585e-01 -7.500000e-01  2.129776e-01
     vertex  3.308234e-01 -7.500000e-01  2.175090e-01
   endloop
 endfacet
 facet normal  0.000000e+00 -1.000000e+00  0.000000e+00
   outer loop
     vertex  2.696134e-01 -7.500000e-01  2.866008e-01
     vertex  1.936473e-01 -7.500000e-01  3.390365e-01
     vertex  1.899402e-01 -7.500000e-01  3.319732e-01
   endloop
 endfacet
endsolid
