solid 
 facet normal  9.927089e-01  0.000000e+00 -1.205367e-01
   outer loop
     vertex  3.489322e-01  3.810508e-17 -8.600407e-02
     vertex  3.593750e-01  4.401074e-17 -8.217466e-17
     vertex  3.593750e-01 -5.468750e-02 -7.882602e-17
   endloop
 endfacet
 facet normal  9.927089e-01  0.000000e+00 -1.205367e-01
   outer loop
     vertex  3.489322e-01  3.810508e-17 -8.600407e-02
     vertex  3.593750e-01 -5.468750e-02 -7.882602e-17
     vertex  3.489322e-01 -5.468750e-02 -8.600407e-02
   endloop
 endfacet
 facet normal  9.350162e-01 -1.799728e-16 -3.546049e-01
   outer loop
     vertex  3.182108e-01  3.126376e-17 -1.670099e-01
     vertex  3.489322e-01 -5.468750e-02 -8.600407e-02
     vertex  3.182108e-01 -5.468750e-02 -1.670099e-01
   endloop
 endfacet
 facet normal  9.350162e-01  0.000000e+00 -3.546049e-01
   outer loop
     vertex  3.182108e-01  3.126376e-17 -1.670099e-01
     vertex  3.489322e-01  3.810508e-17 -8.600407e-02
     vertex  3.489322e-01 -5.468750e-02 -8.600407e-02
   endloop
 endfacet
 facet normal  8.229839e-01 -2.883102e-16 -5.680647e-01
   outer loop
     vertex  2.689961e-01  2.388437e-17 -2.383097e-01
     vertex  3.182108e-01 -5.468750e-02 -1.670099e-01
     vertex  2.689961e-01 -5.468750e-02 -2.383097e-01
   endloop
 endfacet
 facet normal  8.229839e-01 -2.746037e-16 -5.680647e-01
   outer loop
     vertex  2.689961e-01  2.388437e-17 -2.383097e-01
     vertex  3.182108e-01  3.126376e-17 -1.670099e-01
     vertex  3.182108e-01 -5.468750e-02 -1.670099e-01
   endloop
 endfacet
 facet normal  6.631227e-01  3.365550e-16 -7.485107e-01
   outer loop
     vertex  2.041483e-01  1.639578e-17 -2.957598e-01
     vertex  2.689961e-01 -5.468750e-02 -2.383097e-01
     vertex  2.041483e-01 -5.468750e-02 -2.957598e-01
   endloop
 endfacet
 facet normal  6.631227e-01 -3.661383e-16 -7.485107e-01
   outer loop
     vertex  2.041483e-01  1.639578e-17 -2.957598e-01
     vertex  2.689961e-01  2.388437e-17 -2.383097e-01
     vertex  2.689961e-01 -5.468750e-02 -2.383097e-01
   endloop
 endfacet
 facet normal  4.647232e-01  2.358612e-16 -8.854560e-01
   outer loop
     vertex  1.274361e-01  9.233204e-18 -3.360215e-01
     vertex  2.041483e-01 -5.468750e-02 -2.957598e-01
     vertex  1.274361e-01 -5.468750e-02 -3.360215e-01
   endloop
 endfacet
 facet normal  4.647232e-01  2.746037e-16 -8.854560e-01
   outer loop
     vertex  1.274361e-01  9.233204e-18 -3.360215e-01
     vertex  2.041483e-01  1.639578e-17 -2.957598e-01
     vertex  2.041483e-01 -5.468750e-02 -2.957598e-01
   endloop
 endfacet
 facet normal  2.393157e-01  0.000000e+00 -9.709418e-01
   outer loop
     vertex  4.331787e-02  2.812898e-18 -3.567548e-01
     vertex  1.274361e-01 -5.468750e-02 -3.360215e-01
     vertex  4.331787e-02 -5.468750e-02 -3.567548e-01
   endloop
 endfacet
 facet normal  2.393157e-01  1.373018e-16 -9.709418e-01
   outer loop
     vertex  4.331787e-02  2.812898e-18 -3.567548e-01
     vertex  1.274361e-01  9.233204e-18 -3.360215e-01
     vertex  1.274361e-01 -5.468750e-02 -3.360215e-01
   endloop
 endfacet
 facet normal  0.000000e+00  0.000000e+00 -1.000000e+00
   outer loop
     vertex -4.331787e-02 -2.492011e-18 -3.567548e-01
     vertex  4.331787e-02 -5.468750e-02 -3.567548e-01
     vertex -4.331787e-02 -5.468750e-02 -3.567548e-01
   endloop
 endfacet
 facet normal  0.000000e+00  0.000000e+00 -1.000000e+00
   outer loop
     vertex -4.331787e-02 -2.492011e-18 -3.567548e-01
     vertex  4.331787e-02  2.812898e-18 -3.567548e-01
     vertex  4.331787e-02 -5.468750e-02 -3.567548e-01
   endloop
 endfacet
 facet normal -2.393157e-01 -1.214600e-16 -9.709418e-01
   outer loop
     vertex -1.274361e-01 -6.373221e-18 -3.360215e-01
     vertex -4.331787e-02 -5.468750e-02 -3.567548e-01
     vertex -1.274361e-01 -5.468750e-02 -3.360215e-01
   endloop
 endfacet
 facet normal -2.393157e-01  0.000000e+00 -9.709418e-01
   outer loop
     vertex -1.274361e-01 -6.373221e-18 -3.360215e-01
     vertex -4.331787e-02 -2.492011e-18 -3.567548e-01
     vertex -4.331787e-02 -5.468750e-02 -3.567548e-01
   endloop
 endfacet
 facet normal -4.647232e-01 -2.358612e-16 -8.854560e-01
   outer loop
     vertex -2.041483e-01 -8.605170e-18 -2.957598e-01
     vertex -1.274361e-01 -5.468750e-02 -3.360215e-01
     vertex -2.041483e-01 -5.468750e-02 -2.957598e-01
   endloop
 endfacet
 facet normal -4.647232e-01 -1.830691e-16 -8.854560e-01
   outer loop
     vertex -2.041483e-01 -8.605170e-18 -2.957598e-01
     vertex -1.274361e-01 -6.373221e-18 -3.360215e-01
     vertex -1.274361e-01 -5.468750e-02 -3.360215e-01
   endloop
 endfacet
 facet normal -6.631227e-01 -3.798921e-16 -7.485107e-01
   outer loop
     vertex -2.689961e-01 -9.058146e-18 -2.383097e-01
     vertex -2.041483e-01 -5.468750e-02 -2.957598e-01
     vertex -2.689961e-01 -5.468750e-02 -2.383097e-01
   endloop
 endfacet
 facet normal -6.631227e-01 -2.746037e-16 -7.485107e-01
   outer loop
     vertex -2.689961e-01 -9.058146e-18 -2.383097e-01
     vertex -2.041483e-01 -8.605170e-18 -2.957598e-01
     vertex -2.041483e-01 -5.468750e-02 -2.957598e-01
   endloop
 endfacet
 facet normal -8.229839e-01 -2.883102e-16 -5.680647e-01
   outer loop
     vertex -3.182108e-01 -7.705824e-18 -1.670099e-01
     vertex -2.689961e-01 -5.468750e-02 -2.383097e-01
     vertex -3.182108e-01 -5.468750e-02 -1.670099e-01
   endloop
 endfacet
 facet normal -8.229839e-01 -2.746037e-16 -5.680647e-01
   outer loop
     vertex -3.182108e-01 -7.705824e-18 -1.670099e-01
     vertex -2.689961e-01 -9.058146e-18 -2.383097e-01
     vertex -2.689961e-01 -5.468750e-02 -2.383097e-01
   endloop
 endfacet
 facet normal -9.350162e-01 -0.000000e+00 -3.546049e-01
   outer loop
     vertex -3.489322e-01 -4.626794e-18 -8.600407e-02
     vertex -3.182108e-01 -5.468750e-02 -1.670099e-01
     vertex -3.489322e-01 -5.468750e-02 -8.600407e-02
   endloop
 endfacet
 facet normal -9.350162e-01 -1.830691e-16 -3.546049e-01
   outer loop
     vertex -3.489322e-01 -4.626794e-18 -8.600407e-02
     vertex -3.182108e-01 -7.705824e-18 -1.670099e-01
     vertex -3.182108e-01 -5.468750e-02 -1.670099e-01
   endloop
 endfacet
 facet normal -9.927089e-01 -7.380743e-18 -1.205367e-01
   outer loop
     vertex -3.593750e-01  0.000000e+00  0.000000e+00
     vertex -3.489322e-01 -5.468750e-02 -8.600407e-02
     vertex -3.593750e-01 -5.468750e-02  3.348644e-18
   endloop
 endfacet
 facet normal -9.927089e-01  0.000000e+00 -1.205367e-01
   outer loop
     vertex -3.593750e-01  0.000000e+00  0.000000e+00
     vertex -3.489322e-01 -4.626794e-18 -8.600407e-02
     vertex -3.489322e-01 -5.468750e-02 -8.600407e-02
   endloop
 endfacet
 facet normal -1.000000e+00  0.000000e+00  0.000000e+00
   outer loop
     vertex -3.593750e-01  0.000000e+00  0.000000e+00
     vertex -3.593750e-01 -5.468750e-02  4.161184e-01
     vertex -3.593750e-01  2.547990e-17  4.161184e-01
   endloop
 endfacet
 facet normal -1.000000e+00  0.000000e+00  0.000000e+00
   outer loop
     vertex -3.593750e-01  0.000000e+00  0.000000e+00
     vertex -3.593750e-01 -5.468750e-02  3.348644e-18
     vertex -3.593750e-01 -5.468750e-02  4.161184e-01
   endloop
 endfacet
 facet normal  1.000000e+00  0.000000e+00  0.000000e+00
   outer loop
     vertex  3.593750e-01  6.949065e-17  4.161184e-01
     vertex  3.593750e-01 -5.468750e-02 -7.882602e-17
     vertex  3.593750e-01  4.401074e-17 -8.217466e-17
   endloop
 endfacet
 facet normal  1.000000e+00  0.000000e+00  0.000000e+00
   outer loop
     vertex  3.593750e-01  6.949065e-17  4.161184e-01
     vertex  3.593750e-01 -5.468750e-02  4.161184e-01
     vertex  3.593750e-01 -5.468750e-02 -7.882602e-17
   endloop
 endfacet
 facet normal -9.927089e-01  0.000000e+00 -1.205367e-01
   outer loop
     vertex -3.489322e-01 -4.626794e-18 -8.600407e-02
     vertex -3.593750e-01  0.000000e+00  0.000000e+00
     vertex -3.593750e-01  5.468750e-02 -3.348644e-18
   endloop
 endfacet
 facet normal -9.927089e-01  0.000000e+00 -1.205367e-01
   outer loop
     vertex -3.489322e-01 -4.626794e-18 -8.600407e-02
     vertex -3.593750e-01  5.468750e-02 -3.348644e-18
     vertex -3.489322e-01  5.468750e-02 -8.600407e-02
   endloop
 endfacet
 facet normal -9.350162e-01  0.000000e+00 -3.546049e-01
   outer loop
     vertex -3.182108e-01 -7.705824e-18 -1.670099e-01
     vertex -3.489322e-01  5.468750e-02 -8.600407e-02
     vertex -3.182108e-01  5.468750e-02 -1.670099e-01
   endloop
 endfacet
 facet normal -9.350162e-01  0.000000e+00 -3.546049e-01
   outer loop
     vertex -3.182108e-01 -7.705824e-18 -1.670099e-01
     vertex -3.489322e-01 -4.626794e-18 -8.600407e-02
     vertex -3.489322e-01  5.468750e-02 -8.600407e-02
   endloop
 endfacet
 facet normal -8.229839e-01  0.000000e+00 -5.680647e-01
   outer loop
     vertex -2.689961e-01 -9.058146e-18 -2.383097e-01
     vertex -3.182108e-01  5.468750e-02 -1.670099e-01
     vertex -2.689961e-01  5.468750e-02 -2.383097e-01
   endloop
 endfacet
 facet normal -8.229839e-01  0.000000e+00 -5.680647e-01
   outer loop
     vertex -2.689961e-01 -9.058146e-18 -2.383097e-01
     vertex -3.182108e-01 -7.705824e-18 -1.670099e-01
     vertex -3.182108e-01  5.468750e-02 -1.670099e-01
   endloop
 endfacet
 facet normal -6.631227e-01  0.000000e+00 -7.485107e-01
   outer loop
     vertex -2.041483e-01 -8.605170e-18 -2.957598e-01
     vertex -2.689961e-01  5.468750e-02 -2.383097e-01
     vertex -2.041483e-01  5.468750e-02 -2.957598e-01
   endloop
 endfacet
 facet normal -6.631227e-01  0.000000e+00 -7.485107e-01
   outer loop
     vertex -2.041483e-01 -8.605170e-18 -2.957598e-01
     vertex -2.689961e-01 -9.058146e-18 -2.383097e-01
     vertex -2.689961e-01  5.468750e-02 -2.383097e-01
   endloop
 endfacet
 facet normal -4.647232e-01  0.000000e+00 -8.854560e-01
   outer loop
     vertex -1.274361e-01 -6.373221e-18 -3.360215e-01
     vertex -2.041483e-01  5.468750e-02 -2.957598e-01
     vertex -1.274361e-01  5.468750e-02 -3.360215e-01
   endloop
 endfacet
 facet normal -4.647232e-01  0.000000e+00 -8.854560e-01
   outer loop
     vertex -1.274361e-01 -6.373221e-18 -3.360215e-01
     vertex -2.041483e-01 -8.605170e-18 -2.957598e-01
     vertex -2.041483e-01  5.468750e-02 -2.957598e-01
   endloop
 endfacet
 facet normal -2.393157e-01  0.000000e+00 -9.709418e-01
   outer loop
     vertex -4.331787e-02 -2.492011e-18 -3.567548e-01
     vertex -1.274361e-01  5.468750e-02 -3.360215e-01
     vertex -4.331787e-02  5.468750e-02 -3.567548e-01
   endloop
 endfacet
 facet normal -2.393157e-01  0.000000e+00 -9.709418e-01
   outer loop
     vertex -4.331787e-02 -2.492011e-18 -3.567548e-01
     vertex -1.274361e-01 -6.373221e-18 -3.360215e-01
     vertex -1.274361e-01  5.468750e-02 -3.360215e-01
   endloop
 endfacet
 facet normal  0.000000e+00  0.000000e+00 -1.000000e+00
   outer loop
     vertex  4.331787e-02  2.812898e-18 -3.567548e-01
     vertex -4.331787e-02  5.468750e-02 -3.567548e-01
     vertex  4.331787e-02  5.468750e-02 -3.567548e-01
   endloop
 endfacet
 facet normal -0.000000e+00  0.000000e+00 -1.000000e+00
   outer loop
     vertex  4.331787e-02  2.812898e-18 -3.567548e-01
     vertex -4.331787e-02 -2.492011e-18 -3.567548e-01
     vertex -4.331787e-02  5.468750e-02 -3.567548e-01
   endloop
 endfacet
 facet normal  2.393157e-01  0.000000e+00 -9.709418e-01
   outer loop
     vertex  1.274361e-01  9.233204e-18 -3.360215e-01
     vertex  4.331787e-02  5.468750e-02 -3.567548e-01
     vertex  1.274361e-01  5.468750e-02 -3.360215e-01
   endloop
 endfacet
 facet normal  2.393157e-01  0.000000e+00 -9.709418e-01
   outer loop
     vertex  1.274361e-01  9.233204e-18 -3.360215e-01
     vertex  4.331787e-02  2.812898e-18 -3.567548e-01
     vertex  4.331787e-02  5.468750e-02 -3.567548e-01
   endloop
 endfacet
 facet normal  4.647232e-01  0.000000e+00 -8.854560e-01
   outer loop
     vertex  2.041483e-01  1.639578e-17 -2.957598e-01
     vertex  1.274361e-01  5.468750e-02 -3.360215e-01
     vertex  2.041483e-01  5.468750e-02 -2.957598e-01
   endloop
 endfacet
 facet normal  4.647232e-01  0.000000e+00 -8.854560e-01
   outer loop
     vertex  2.041483e-01  1.639578e-17 -2.957598e-01
     vertex  1.274361e-01  9.233204e-18 -3.360215e-01
     vertex  1.274361e-01  5.468750e-02 -3.360215e-01
   endloop
 endfacet
 facet normal  6.631227e-01  0.000000e+00 -7.485107e-01
   outer loop
     vertex  2.689961e-01  2.388437e-17 -2.383097e-01
     vertex  2.041483e-01  5.468750e-02 -2.957598e-01
     vertex  2.689961e-01  5.468750e-02 -2.383097e-01
   endloop
 endfacet
 facet normal  6.631227e-01  0.000000e+00 -7.485107e-01
   outer loop
     vertex  2.689961e-01  2.388437e-17 -2.383097e-01
     vertex  2.041483e-01  1.639578e-17 -2.957598e-01
     vertex  2.041483e-01  5.468750e-02 -2.957598e-01
   endloop
 endfacet
 facet normal  8.229839e-01  0.000000e+00 -5.680647e-01
   outer loop
     vertex  3.182108e-01  3.126376e-17 -1.670099e-01
     vertex  2.689961e-01  5.468750e-02 -2.383097e-01
     vertex  3.182108e-01  5.468750e-02 -1.670099e-01
   endloop
 endfacet
 facet normal  8.229839e-01  0.000000e+00 -5.680647e-01
   outer loop
     vertex  3.182108e-01  3.126376e-17 -1.670099e-01
     vertex  2.689961e-01  2.388437e-17 -2.383097e-01
     vertex  2.689961e-01  5.468750e-02 -2.383097e-01
   endloop
 endfacet
 facet normal  9.350162e-01  0.000000e+00 -3.546049e-01
   outer loop
     vertex  3.489322e-01  3.810508e-17 -8.600407e-02
     vertex  3.182108e-01  5.468750e-02 -1.670099e-01
     vertex  3.489322e-01  5.468750e-02 -8.600407e-02
   endloop
 endfacet
 facet normal  9.350162e-01  0.000000e+00 -3.546049e-01
   outer loop
     vertex  3.489322e-01  3.810508e-17 -8.600407e-02
     vertex  3.182108e-01  3.126376e-17 -1.670099e-01
     vertex  3.182108e-01  5.468750e-02 -1.670099e-01
   endloop
 endfacet
 facet normal  9.927089e-01 -7.380743e-18 -1.205367e-01
   outer loop
     vertex  3.593750e-01  4.401074e-17 -8.217466e-17
     vertex  3.489322e-01  5.468750e-02 -8.600407e-02
     vertex  3.593750e-01  5.468750e-02 -8.552330e-17
   endloop
 endfacet
 facet normal  9.927089e-01  0.000000e+00 -1.205367e-01
   outer loop
     vertex  3.593750e-01  4.401074e-17 -8.217466e-17
     vertex  3.489322e-01  3.810508e-17 -8.600407e-02
     vertex  3.489322e-01  5.468750e-02 -8.600407e-02
   endloop
 endfacet
 facet normal -0.000000e+00 -1.000000e+00  0.000000e+00
   outer loop
     vertex -1.998504e-01 -5.468750e-02 -2.895333e-01
     vertex -2.689961e-01 -5.468750e-02 -2.383097e-01
     vertex -2.041483e-01 -5.468750e-02 -2.957598e-01
   endloop
 endfacet
 facet normal  0.000000e+00 -1.000000e+00  0.000000e+00
   outer loop
     vertex -1.998504e-01 -5.468750e-02 -2.895333e-01
     vertex -2.633330e-01 -5.468750e-02 -2.332927e-01
     vertex -2.689961e-01 -5.468750e-02 -2.383097e-01
   endloop
 endfacet
 facet normal  0.000000e+00 -1.000000e+00 -0.000000e+00
   outer loop
     vertex -3.115116e-01 -5.468750e-02 -1.634939e-01
     vertex -3.182108e-01 -5.468750e-02 -1.670099e-01
     vertex -2.689961e-01 -5.468750e-02 -2.383097e-01
   endloop
 endfacet
 facet normal  0.000000e+00 -1.000000e+00  0.000000e+00
   outer loop
     vertex -3.115116e-01 -5.468750e-02 -1.634939e-01
     vertex -2.689961e-01 -5.468750e-02 -2.383097e-01
     vertex -2.633330e-01 -5.468750e-02 -2.332927e-01
   endloop
 endfacet
 facet normal -0.000000e+00 -1.000000e+00  0.000000e+00
   outer loop
     vertex -1.247533e-01 -5.468750e-02 -3.289473e-01
     vertex -2.041483e-01 -5.468750e-02 -2.957598e-01
     vertex -1.274361e-01 -5.468750e-02 -3.360215e-01
   endloop
 endfacet
 facet normal  0.000000e+00 -1.000000e+00  0.000000e+00
   outer loop
     vertex -1.247533e-01 -5.468750e-02 -3.289473e-01
     vertex -1.998504e-01 -5.468750e-02 -2.895333e-01
     vertex -2.041483e-01 -5.468750e-02 -2.957598e-01
   endloop
 endfacet
 facet normal  0.000000e+00 -1.000000e+00 -0.000000e+00
   outer loop
     vertex -3.415863e-01 -5.468750e-02 -8.419345e-02
     vertex -3.489322e-01 -5.468750e-02 -8.600407e-02
     vertex -3.182108e-01 -5.468750e-02 -1.670099e-01
   endloop
 endfacet
 facet normal  0.000000e+00 -1.000000e+00  0.000000e+00
   outer loop
     vertex -3.415863e-01 -5.468750e-02 -8.419345e-02
     vertex -3.182108e-01 -5.468750e-02 -1.670099e-01
     vertex -3.115116e-01 -5.468750e-02 -1.634939e-01
   endloop
 endfacet
 facet normal  2.210982e-16 -1.000000e+00  8.970307e-16
   outer loop
     vertex -4.240591e-02 -5.468750e-02 -3.492441e-01
     vertex -1.274361e-01 -5.468750e-02 -3.360215e-01
     vertex -4.331787e-02 -5.468750e-02 -3.567548e-01
   endloop
 endfacet
 facet normal  7.706037e-17 -1.000000e+00 -2.922514e-17
   outer loop
     vertex -4.240591e-02 -5.468750e-02 -3.492441e-01
     vertex -1.247533e-01 -5.468750e-02 -3.289473e-01
     vertex -1.274361e-01 -5.468750e-02 -3.360215e-01
   endloop
 endfacet
 facet normal  1.183933e-30 -1.000000e+00  3.227240e-16
   outer loop
     vertex -3.518092e-01 -5.468750e-02 -2.440694e-17
     vertex -3.593750e-01 -5.468750e-02  3.348644e-18
     vertex -3.489322e-01 -5.468750e-02 -8.600407e-02
   endloop
 endfacet
 facet normal -7.889383e-17 -1.000000e+00  3.200848e-16
   outer loop
     vertex -3.518092e-01 -5.468750e-02 -2.440694e-17
     vertex -3.489322e-01 -5.468750e-02 -8.600407e-02
     vertex -3.415863e-01 -5.468750e-02 -8.419345e-02
   endloop
 endfacet
 facet normal  8.009274e-17 -1.000000e+00  9.725020e-18
   outer loop
     vertex  4.240591e-02 -5.468750e-02 -3.492441e-01
     vertex -4.331787e-02 -5.468750e-02 -3.567548e-01
     vertex  4.331787e-02 -5.468750e-02 -3.567548e-01
   endloop
 endfacet
 facet normal  0.000000e+00 -1.000000e+00  9.238769e-16
   outer loop
     vertex  4.240591e-02 -5.468750e-02 -3.492441e-01
     vertex -4.240591e-02 -5.468750e-02 -3.492441e-01
     vertex -4.331787e-02 -5.468750e-02 -3.567548e-01
   endloop
 endfacet
 facet normal  7.543804e-17 -1.000000e+00  2.860988e-17
   outer loop
     vertex  1.247533e-01 -5.468750e-02 -3.289473e-01
     vertex  4.331787e-02 -5.468750e-02 -3.567548e-01
     vertex  1.274361e-01 -5.468750e-02 -3.360215e-01
   endloop
 endfacet
 facet normal  8.181517e-17 -1.000000e+00  9.934160e-18
   outer loop
     vertex  1.247533e-01 -5.468750e-02 -3.289473e-01
     vertex  4.240591e-02 -5.468750e-02 -3.492441e-01
     vertex  4.331787e-02 -5.468750e-02 -3.567548e-01
   endloop
 endfacet
 facet normal  6.639916e-17 -1.000000e+00  4.583203e-17
   outer loop
     vertex  1.998504e-01 -5.468750e-02 -2.895333e-01
     vertex  1.274361e-01 -5.468750e-02 -3.360215e-01
     vertex  2.041483e-01 -5.468750e-02 -2.957598e-01
   endloop
 endfacet
 facet normal  7.706037e-17 -1.000000e+00  2.922514e-17
   outer loop
     vertex  1.998504e-01 -5.468750e-02 -2.895333e-01
     vertex  1.247533e-01 -5.468750e-02 -3.289473e-01
     vertex  1.274361e-01 -5.468750e-02 -3.360215e-01
   endloop
 endfacet
 facet normal  5.465197e-17 -1.000000e+00  6.168932e-17
   outer loop
     vertex  2.689961e-01 -5.468750e-02 -2.383097e-01
     vertex  2.633330e-01 -5.468750e-02 -2.332927e-01
     vertex  1.998504e-01 -5.468750e-02 -2.895333e-01
   endloop
 endfacet
 facet normal  6.639916e-17 -1.000000e+00  4.583203e-17
   outer loop
     vertex  2.689961e-01 -5.468750e-02 -2.383097e-01
     vertex  1.998504e-01 -5.468750e-02 -2.895333e-01
     vertex  2.041483e-01 -5.468750e-02 -2.957598e-01
   endloop
 endfacet
 facet normal -0.000000e+00 -1.000000e+00  0.000000e+00
   outer loop
     vertex -3.518092e-01 -5.468750e-02  4.161184e-01
     vertex -3.593750e-01 -5.468750e-02  4.161184e-01
     vertex -3.593750e-01 -5.468750e-02  3.348644e-18
   endloop
 endfacet
 facet normal  0.000000e+00 -1.000000e+00 -0.000000e+00
   outer loop
     vertex -3.518092e-01 -5.468750e-02  4.161184e-01
     vertex -3.593750e-01 -5.468750e-02  3.348644e-18
     vertex -3.518092e-01 -5.468750e-02 -2.440694e-17
   endloop
 endfacet
 facet normal  3.830066e-17 -1.000000e+00  7.297581e-17
   outer loop
     vertex  3.182108e-01 -5.468750e-02 -1.670099e-01
     vertex  3.115116e-01 -5.468750e-02 -1.634939e-01
     vertex  2.633330e-01 -5.468750e-02 -2.332927e-01
   endloop
 endfacet
 facet normal  5.350140e-17 -1.000000e+00  6.039059e-17
   outer loop
     vertex  3.182108e-01 -5.468750e-02 -1.670099e-01
     vertex  2.633330e-01 -5.468750e-02 -2.332927e-01
     vertex  2.689961e-01 -5.468750e-02 -2.383097e-01
   endloop
 endfacet
 facet normal  1.972346e-17 -1.000000e+00  8.002121e-17
   outer loop
     vertex  3.489322e-01 -5.468750e-02 -8.600407e-02
     vertex  3.415863e-01 -5.468750e-02 -8.419345e-02
     vertex  3.115116e-01 -5.468750e-02 -1.634939e-01
   endloop
 endfacet
 facet normal  3.749433e-17 -1.000000e+00  7.143948e-17
   outer loop
     vertex  3.489322e-01 -5.468750e-02 -8.600407e-02
     vertex  3.115116e-01 -5.468750e-02 -1.634939e-01
     vertex  3.182108e-01 -5.468750e-02 -1.670099e-01
   endloop
 endfacet
 facet normal -8.415516e-31 -1.000000e+00 -1.648321e-16
   outer loop
     vertex  3.593750e-01 -5.468750e-02 -7.882602e-17
     vertex  3.518092e-01 -5.468750e-02 -4.019883e-17
     vertex  3.415863e-01 -5.468750e-02 -8.419345e-02
   endloop
 endfacet
 facet normal -3.861645e-17 -1.000000e+00 -1.566731e-16
   outer loop
     vertex  3.593750e-01 -5.468750e-02 -7.882602e-17
     vertex  3.415863e-01 -5.468750e-02 -8.419345e-02
     vertex  3.489322e-01 -5.468750e-02 -8.600407e-02
   endloop
 endfacet
 facet normal -0.000000e+00 -1.000000e+00  0.000000e+00
   outer loop
     vertex  3.593750e-01 -5.468750e-02  4.161184e-01
     vertex  1.248355e-01 -5.468750e-02  4.161184e-01
     vertex  3.518092e-01 -5.468750e-02 -4.019883e-17
   endloop
 endfacet
 facet normal  0.000000e+00 -1.000000e+00 -0.000000e+00
   outer loop
     vertex  3.593750e-01 -5.468750e-02  4.161184e-01
     vertex  3.518092e-01 -5.468750e-02 -4.019883e-17
     vertex  3.593750e-01 -5.468750e-02 -7.882602e-17
   endloop
 endfacet
 facet normal -0.000000e+00  0.000000e+00  1.000000e+00
   outer loop
     vertex -3.593750e-01  2.547990e-17  4.161184e-01
     vertex -3.518092e-01 -5.468750e-02  4.161184e-01
     vertex -3.518092e-01  2.594318e-17  4.161184e-01
   endloop
 endfacet
 facet normal  0.000000e+00  0.000000e+00  1.000000e+00
   outer loop
     vertex -3.593750e-01  2.547990e-17  4.161184e-01
     vertex -3.593750e-01 -5.468750e-02  4.161184e-01
     vertex -3.518092e-01 -5.468750e-02  4.161184e-01
   endloop
 endfacet
 facet normal -1.000000e+00  0.000000e+00  0.000000e+00
   outer loop
     vertex -3.593750e-01  0.000000e+00  0.000000e+00
     vertex -3.593750e-01  2.547990e-17  4.161184e-01
     vertex -3.593750e-01  5.468750e-02  4.161184e-01
   endloop
 endfacet
 facet normal -1.000000e+00  0.000000e+00  0.000000e+00
   outer loop
     vertex -3.593750e-01  0.000000e+00  0.000000e+00
     vertex -3.593750e-01  5.468750e-02  4.161184e-01
     vertex -3.593750e-01  5.468750e-02 -3.348644e-18
   endloop
 endfacet
 facet normal -0.000000e+00  0.000000e+00  1.000000e+00
   outer loop
     vertex  1.248355e-01  5.512925e-17  4.161184e-01
     vertex  3.593750e-01 -5.468750e-02  4.161184e-01
     vertex  3.593750e-01  6.949065e-17  4.161184e-01
   endloop
 endfacet
 facet normal  0.000000e+00  0.000000e+00  1.000000e+00
   outer loop
     vertex  1.248355e-01  5.512925e-17  4.161184e-01
     vertex  1.248355e-01 -5.468750e-02  4.161184e-01
     vertex  3.593750e-01 -5.468750e-02  4.161184e-01
   endloop
 endfacet
 facet normal  1.000000e+00  0.000000e+00  0.000000e+00
   outer loop
     vertex  3.593750e-01  6.949065e-17  4.161184e-01
     vertex  3.593750e-01  4.401074e-17 -8.217466e-17
     vertex  3.593750e-01  5.468750e-02 -8.552330e-17
   endloop
 endfacet
 facet normal  1.000000e+00 -0.000000e+00  0.000000e+00
   outer loop
     vertex  3.593750e-01  6.949065e-17  4.161184e-01
     vertex  3.593750e-01  5.468750e-02 -8.552330e-17
     vertex  3.593750e-01  5.468750e-02  4.161184e-01
   endloop
 endfacet
 facet normal  0.000000e+00  1.000000e+00  0.000000e+00
   outer loop
     vertex -1.998504e-01  5.468750e-02 -2.895333e-01
     vertex -2.041483e-01  5.468750e-02 -2.957598e-01
     vertex -2.689961e-01  5.468750e-02 -2.383097e-01
   endloop
 endfacet
 facet normal  0.000000e+00  1.000000e+00  0.000000e+00
   outer loop
     vertex -1.998504e-01  5.468750e-02 -2.895333e-01
     vertex -2.689961e-01  5.468750e-02 -2.383097e-01
     vertex -2.633330e-01  5.468750e-02 -2.332927e-01
   endloop
 endfacet
 facet normal  0.000000e+00  1.000000e+00  0.000000e+00
   outer loop
     vertex -3.115116e-01  5.468750e-02 -1.634939e-01
     vertex -2.689961e-01  5.468750e-02 -2.383097e-01
     vertex -3.182108e-01  5.468750e-02 -1.670099e-01
   endloop
 endfacet
 facet normal  0.000000e+00  1.000000e+00  0.000000e+00
   outer loop
     vertex -3.115116e-01  5.468750e-02 -1.634939e-01
     vertex -2.633330e-01  5.468750e-02 -2.332927e-01
     vertex -2.689961e-01  5.468750e-02 -2.383097e-01
   endloop
 endfacet
 facet normal  0.000000e+00  1.000000e+00  0.000000e+00
   outer loop
     vertex -1.247533e-01  5.468750e-02 -3.289473e-01
     vertex -1.274361e-01  5.468750e-02 -3.360215e-01
     vertex -2.041483e-01  5.468750e-02 -2.957598e-01
   endloop
 endfacet
 facet normal  0.000000e+00  1.000000e+00  0.000000e+00
   outer loop
     vertex -1.247533e-01  5.468750e-02 -3.289473e-01
     vertex -2.041483e-01  5.468750e-02 -2.957598e-01
     vertex -1.998504e-01  5.468750e-02 -2.895333e-01
   endloop
 endfacet
 facet normal  0.000000e+00  1.000000e+00  0.000000e+00
   outer loop
     vertex -3.415863e-01  5.468750e-02 -8.419345e-02
     vertex -3.182108e-01  5.468750e-02 -1.670099e-01
     vertex -3.489322e-01  5.468750e-02 -8.600407e-02
   endloop
 endfacet
 facet normal  0.000000e+00  1.000000e+00  0.000000e+00
   outer loop
     vertex -3.415863e-01  5.468750e-02 -8.419345e-02
     vertex -3.115116e-01  5.468750e-02 -1.634939e-01
     vertex -3.182108e-01  5.468750e-02 -1.670099e-01
   endloop
 endfacet
 facet normal -2.210982e-16  1.000000e+00 -8.970307e-16
   outer loop
     vertex -4.240591e-02  5.468750e-02 -3.492441e-01
     vertex -4.331787e-02  5.468750e-02 -3.567548e-01
     vertex -1.274361e-01  5.468750e-02 -3.360215e-01
   endloop
 endfacet
 facet normal -7.706037e-17  1.000000e+00  2.922514e-17
   outer loop
     vertex -4.240591e-02  5.468750e-02 -3.492441e-01
     vertex -1.274361e-01  5.468750e-02 -3.360215e-01
     vertex -1.247533e-01  5.468750e-02 -3.289473e-01
   endloop
 endfacet
 facet normal -1.183933e-30  1.000000e+00 -3.227240e-16
   outer loop
     vertex -3.518092e-01  5.468750e-02 -3.110422e-17
     vertex -3.489322e-01  5.468750e-02 -8.600407e-02
     vertex -3.593750e-01  5.468750e-02 -3.348644e-18
   endloop
 endfacet
 facet normal  7.889383e-17  1.000000e+00 -3.200848e-16
   outer loop
     vertex -3.518092e-01  5.468750e-02 -3.110422e-17
     vertex -3.415863e-01  5.468750e-02 -8.419345e-02
     vertex -3.489322e-01  5.468750e-02 -8.600407e-02
   endloop
 endfacet
 facet normal -8.009274e-17  1.000000e+00 -9.725020e-18
   outer loop
     vertex  4.240591e-02  5.468750e-02 -3.492441e-01
     vertex  4.331787e-02  5.468750e-02 -3.567548e-01
     vertex -4.331787e-02  5.468750e-02 -3.567548e-01
   endloop
 endfacet
 facet normal  0.000000e+00  1.000000e+00 -9.238769e-16
   outer loop
     vertex  4.240591e-02  5.468750e-02 -3.492441e-01
     vertex -4.331787e-02  5.468750e-02 -3.567548e-01
     vertex -4.240591e-02  5.468750e-02 -3.492441e-01
   endloop
 endfacet
 facet normal -7.543804e-17  1.000000e+00 -2.860988e-17
   outer loop
     vertex  1.247533e-01  5.468750e-02 -3.289473e-01
     vertex  1.274361e-01  5.468750e-02 -3.360215e-01
     vertex  4.331787e-02  5.468750e-02 -3.567548e-01
   endloop
 endfacet
 facet normal -8.181517e-17  1.000000e+00 -9.934160e-18
   outer loop
     vertex  1.247533e-01  5.468750e-02 -3.289473e-01
     vertex  4.331787e-02  5.468750e-02 -3.567548e-01
     vertex  4.240591e-02  5.468750e-02 -3.492441e-01
   endloop
 endfacet
 facet normal -6.639916e-17  1.000000e+00 -4.583203e-17
   outer loop
     vertex  1.998504e-01  5.468750e-02 -2.895333e-01
     vertex  2.041483e-01  5.468750e-02 -2.957598e-01
     vertex  1.274361e-01  5.468750e-02 -3.360215e-01
   endloop
 endfacet
 facet normal -7.706037e-17  1.000000e+00 -2.922514e-17
   outer loop
     vertex  1.998504e-01  5.468750e-02 -2.895333e-01
     vertex  1.274361e-01  5.468750e-02 -3.360215e-01
     vertex  1.247533e-01  5.468750e-02 -3.289473e-01
   endloop
 endfacet
 facet normal -5.465197e-17  1.000000e+00 -6.168932e-17
   outer loop
     vertex  2.689961e-01  5.468750e-02 -2.383097e-01
     vertex  1.998504e-01  5.468750e-02 -2.895333e-01
     vertex  2.633330e-01  5.468750e-02 -2.332927e-01
   endloop
 endfacet
 facet normal -6.639916e-17  1.000000e+00 -4.583203e-17
   outer loop
     vertex  2.689961e-01  5.468750e-02 -2.383097e-01
     vertex  2.041483e-01  5.468750e-02 -2.957598e-01
     vertex  1.998504e-01  5.468750e-02 -2.895333e-01
   endloop
 endfacet
 facet normal  0.000000e+00  1.000000e+00  0.000000e+00
   outer loop
     vertex -3.518092e-01  5.468750e-02  4.161184e-01
     vertex -3.593750e-01  5.468750e-02 -3.348644e-18
     vertex -3.593750e-01  5.468750e-02  4.161184e-01
   endloop
 endfacet
 facet normal  0.000000e+00  1.000000e+00  0.000000e+00
   outer loop
     vertex -3.518092e-01  5.468750e-02  4.161184e-01
     vertex -3.518092e-01  5.468750e-02 -3.110422e-17
     vertex -3.593750e-01  5.468750e-02 -3.348644e-18
   endloop
 endfacet
 facet normal -3.830066e-17  1.000000e+00 -7.297581e-17
   outer loop
     vertex  3.182108e-01  5.468750e-02 -1.670099e-01
     vertex  2.633330e-01  5.468750e-02 -2.332927e-01
     vertex  3.115116e-01  5.468750e-02 -1.634939e-01
   endloop
 endfacet
 facet normal -5.350140e-17  1.000000e+00 -6.039059e-17
   outer loop
     vertex  3.182108e-01  5.468750e-02 -1.670099e-01
     vertex  2.689961e-01  5.468750e-02 -2.383097e-01
     vertex  2.633330e-01  5.468750e-02 -2.332927e-01
   endloop
 endfacet
 facet normal -1.972346e-17  1.000000e+00 -8.002121e-17
   outer loop
     vertex  3.489322e-01  5.468750e-02 -8.600407e-02
     vertex  3.115116e-01  5.468750e-02 -1.634939e-01
     vertex  3.415863e-01  5.468750e-02 -8.419345e-02
   endloop
 endfacet
 facet normal -3.749433e-17  1.000000e+00 -7.143948e-17
   outer loop
     vertex  3.489322e-01  5.468750e-02 -8.600407e-02
     vertex  3.182108e-01  5.468750e-02 -1.670099e-01
     vertex  3.115116e-01  5.468750e-02 -1.634939e-01
   endloop
 endfacet
 facet normal  8.415516e-31  1.000000e+00  1.648321e-16
   outer loop
     vertex  3.593750e-01  5.468750e-02 -8.552330e-17
     vertex  3.415863e-01  5.468750e-02 -8.419345e-02
     vertex  3.518092e-01  5.468750e-02 -4.689612e-17
   endloop
 endfacet
 facet normal  3.861645e-17  1.000000e+00  1.566731e-16
   outer loop
     vertex  3.593750e-01  5.468750e-02 -8.552330e-17
     vertex  3.489322e-01  5.468750e-02 -8.600407e-02
     vertex  3.415863e-01  5.468750e-02 -8.419345e-02
   endloop
 endfacet
 facet normal  0.000000e+00  1.000000e+00  0.000000e+00
   outer loop
     vertex  3.593750e-01  5.468750e-02  4.161184e-01
     vertex  3.518092e-01  5.468750e-02 -4.689612e-17
     vertex  1.248355e-01  5.468750e-02  4.161184e-01
   endloop
 endfacet
 facet normal  0.000000e+00  1.000000e+00  0.000000e+00
   outer loop
     vertex  3.593750e-01  5.468750e-02  4.161184e-01
     vertex  3.593750e-01  5.468750e-02 -8.552330e-17
     vertex  3.518092e-01  5.468750e-02 -4.689612e-17
   endloop
 endfacet
 facet normal -8.778956e-01  0.000000e+00 -4.788521e-01
   outer loop
     vertex  3.518092e-01  4.354747e-17 -4.354747e-17
     vertex  1.248355e-01 -5.468750e-02  4.161184e-01
     vertex  1.248355e-01  5.512925e-17  4.161184e-01
   endloop
 endfacet
 facet normal -8.778956e-01 -2.932124e-17 -4.788521e-01
   outer loop
     vertex  3.518092e-01  4.354747e-17 -4.354747e-17
     vertex  3.518092e-01 -5.468750e-02 -4.019883e-17
     vertex  1.248355e-01 -5.468750e-02  4.161184e-01
   endloop
 endfacet
 facet normal -9.927089e-01  0.000000e+00  1.205367e-01
   outer loop
     vertex  3.415863e-01  3.776614e-17 -8.419345e-02
     vertex  3.518092e-01 -5.468750e-02 -4.019883e-17
     vertex  3.518092e-01  4.354747e-17 -4.354747e-17
   endloop
 endfacet
 facet normal -9.927089e-01 -1.007660e-15  1.205367e-01
   outer loop
     vertex  3.415863e-01  3.776614e-17 -8.419345e-02
     vertex  3.415863e-01 -5.468750e-02 -8.419345e-02
     vertex  3.518092e-01 -5.468750e-02 -4.019883e-17
   endloop
 endfacet
 facet normal -9.350162e-01 -9.490986e-16  3.546049e-01
   outer loop
     vertex  3.115116e-01  3.106884e-17 -1.634939e-01
     vertex  3.115116e-01 -5.468750e-02 -1.634939e-01
     vertex  3.415863e-01 -5.468750e-02 -8.419345e-02
   endloop
 endfacet
 facet normal -9.350162e-01 -9.350305e-16  3.546049e-01
   outer loop
     vertex  3.115116e-01  3.106884e-17 -1.634939e-01
     vertex  3.415863e-01 -5.468750e-02 -8.419345e-02
     vertex  3.415863e-01  3.776614e-17 -8.419345e-02
   endloop
 endfacet
 facet normal -8.229839e-01 -8.353789e-16  5.680647e-01
   outer loop
     vertex  2.633330e-01  2.384481e-17 -2.332927e-01
     vertex  2.633330e-01 -5.468750e-02 -2.332927e-01
     vertex  3.115116e-01 -5.468750e-02 -1.634939e-01
   endloop
 endfacet
 facet normal -8.229839e-01 -8.415274e-16  5.680647e-01
   outer loop
     vertex  2.633330e-01  2.384481e-17 -2.332927e-01
     vertex  3.115116e-01 -5.468750e-02 -1.634939e-01
     vertex  3.115116e-01  3.106884e-17 -1.634939e-01
   endloop
 endfacet
 facet normal -6.631227e-01  7.597841e-16  7.485107e-01
   outer loop
     vertex  1.998504e-01  1.651388e-17 -2.895333e-01
     vertex  1.998504e-01 -5.468750e-02 -2.895333e-01
     vertex  2.633330e-01 -5.468750e-02 -2.332927e-01
   endloop
 endfacet
 facet normal -6.631227e-01 -7.480244e-16  7.485107e-01
   outer loop
     vertex  1.998504e-01  1.651388e-17 -2.895333e-01
     vertex  2.633330e-01 -5.468750e-02 -2.332927e-01
     vertex  2.633330e-01  2.384481e-17 -2.332927e-01
   endloop
 endfacet
 facet normal -4.647232e-01  8.987919e-16  8.854560e-01
   outer loop
     vertex  1.247533e-01  9.502092e-18 -3.289473e-01
     vertex  1.247533e-01 -5.468750e-02 -3.289473e-01
     vertex  1.998504e-01 -5.468750e-02 -2.895333e-01
   endloop
 endfacet
 facet normal -4.647232e-01  9.350305e-16  8.854560e-01
   outer loop
     vertex  1.247533e-01  9.502092e-18 -3.289473e-01
     vertex  1.998504e-01 -5.468750e-02 -2.895333e-01
     vertex  1.998504e-01  1.651388e-17 -2.895333e-01
   endloop
 endfacet
 facet normal -2.393157e-01  9.855652e-16  9.709418e-01
   outer loop
     vertex  4.240591e-02  3.216951e-18 -3.492441e-01
     vertex  4.240591e-02 -5.468750e-02 -3.492441e-01
     vertex  1.247533e-01 -5.468750e-02 -3.289473e-01
   endloop
 endfacet
 facet normal -2.393157e-01  9.817820e-16  9.709418e-01
   outer loop
     vertex  4.240591e-02  3.216951e-18 -3.492441e-01
     vertex  1.247533e-01 -5.468750e-02 -3.289473e-01
     vertex  1.247533e-01  9.502092e-18 -3.289473e-01
   endloop
 endfacet
 facet normal  0.000000e+00  1.015061e-15  1.000000e+00
   outer loop
     vertex -4.240591e-02 -1.976276e-18 -3.492441e-01
     vertex -4.240591e-02 -5.468750e-02 -3.492441e-01
     vertex  4.240591e-02 -5.468750e-02 -3.492441e-01
   endloop
 endfacet
 facet normal -6.215456e-32  1.015061e-15  1.000000e+00
   outer loop
     vertex -4.240591e-02 -1.976276e-18 -3.492441e-01
     vertex  4.240591e-02 -5.468750e-02 -3.492441e-01
     vertex  4.240591e-02  3.216951e-18 -3.492441e-01
   endloop
 endfacet
 facet normal  2.393157e-01  9.855652e-16  9.709418e-01
   outer loop
     vertex -1.247533e-01 -5.775777e-18 -3.289473e-01
     vertex -1.247533e-01 -5.468750e-02 -3.289473e-01
     vertex -4.240591e-02 -5.468750e-02 -3.492441e-01
   endloop
 endfacet
 facet normal  2.393157e-01  9.817820e-16  9.709418e-01
   outer loop
     vertex -1.247533e-01 -5.775777e-18 -3.289473e-01
     vertex -4.240591e-02 -5.468750e-02 -3.492441e-01
     vertex -4.240591e-02 -1.976276e-18 -3.492441e-01
   endloop
 endfacet
 facet normal  4.647232e-01  8.987919e-16  8.854560e-01
   outer loop
     vertex -1.998504e-01 -7.960738e-18 -2.895333e-01
     vertex -1.998504e-01 -5.468750e-02 -2.895333e-01
     vertex -1.247533e-01 -5.468750e-02 -3.289473e-01
   endloop
 endfacet
 facet normal  4.647232e-01  9.350305e-16  8.854560e-01
   outer loop
     vertex -1.998504e-01 -7.960738e-18 -2.895333e-01
     vertex -1.247533e-01 -5.468750e-02 -3.289473e-01
     vertex -1.247533e-01 -5.775777e-18 -3.289473e-01
   endloop
 endfacet
 facet normal  6.631227e-01  6.731100e-16  7.485107e-01
   outer loop
     vertex -2.633330e-01 -8.404177e-18 -2.332927e-01
     vertex -2.633330e-01 -5.468750e-02 -2.332927e-01
     vertex -1.998504e-01 -5.468750e-02 -2.895333e-01
   endloop
 endfacet
 facet normal  6.631227e-01  7.480244e-16  7.485107e-01
   outer loop
     vertex -2.633330e-01 -8.404177e-18 -2.332927e-01
     vertex -1.998504e-01 -5.468750e-02 -2.895333e-01
     vertex -1.998504e-01 -7.960738e-18 -2.895333e-01
   endloop
 endfacet
 facet normal  8.229839e-01  8.353789e-16  5.680647e-01
   outer loop
     vertex -3.115116e-01 -7.080325e-18 -1.634939e-01
     vertex -3.115116e-01 -5.468750e-02 -1.634939e-01
     vertex -2.633330e-01 -5.468750e-02 -2.332927e-01
   endloop
 endfacet
 facet normal  8.229839e-01  8.415274e-16  5.680647e-01
   outer loop
     vertex -3.115116e-01 -7.080325e-18 -1.634939e-01
     vertex -2.633330e-01 -5.468750e-02 -2.332927e-01
     vertex -2.633330e-01 -8.404177e-18 -2.332927e-01
   endloop
 endfacet
 facet normal  9.350162e-01  9.490986e-16  3.546049e-01
   outer loop
     vertex -3.415863e-01 -4.066117e-18 -8.419345e-02
     vertex -3.415863e-01 -5.468750e-02 -8.419345e-02
     vertex -3.115116e-01 -5.468750e-02 -1.634939e-01
   endloop
 endfacet
 facet normal  9.350162e-01  9.350305e-16  3.546049e-01
   outer loop
     vertex -3.415863e-01 -4.066117e-18 -8.419345e-02
     vertex -3.115116e-01 -5.468750e-02 -1.634939e-01
     vertex -3.115116e-01 -7.080325e-18 -1.634939e-01
   endloop
 endfacet
 facet normal  9.927089e-01  7.380743e-18  1.205367e-01
   outer loop
     vertex -3.518092e-01  4.632710e-19 -2.775558e-17
     vertex -3.518092e-01 -5.468750e-02 -2.440694e-17
     vertex -3.415863e-01 -5.468750e-02 -8.419345e-02
   endloop
 endfacet
 facet normal  9.927089e-01  1.028534e-15  1.205367e-01
   outer loop
     vertex -3.518092e-01  4.632710e-19 -2.775558e-17
     vertex -3.415863e-01 -5.468750e-02 -8.419345e-02
     vertex -3.415863e-01 -4.066117e-18 -8.419345e-02
   endloop
 endfacet
 facet normal  1.000000e+00  0.000000e+00  0.000000e+00
   outer loop
     vertex -3.518092e-01  2.594318e-17  4.161184e-01
     vertex -3.518092e-01 -5.468750e-02 -2.440694e-17
     vertex -3.518092e-01  4.632710e-19 -2.775558e-17
   endloop
 endfacet
 facet normal  1.000000e+00  0.000000e+00  0.000000e+00
   outer loop
     vertex -3.518092e-01  2.594318e-17  4.161184e-01
     vertex -3.518092e-01 -5.468750e-02  4.161184e-01
     vertex -3.518092e-01 -5.468750e-02 -2.440694e-17
   endloop
 endfacet
 facet normal  0.000000e+00  0.000000e+00  1.000000e+00
   outer loop
     vertex -3.593750e-01  2.547990e-17  4.161184e-01
     vertex -3.518092e-01  2.594318e-17  4.161184e-01
     vertex -3.518092e-01  5.468750e-02  4.161184e-01
   endloop
 endfacet
 facet normal  0.000000e+00  0.000000e+00  1.000000e+00
   outer loop
     vertex -3.593750e-01  2.547990e-17  4.161184e-01
     vertex -3.518092e-01  5.468750e-02  4.161184e-01
     vertex -3.593750e-01  5.468750e-02  4.161184e-01
   endloop
 endfacet
 facet normal  0.000000e+00  0.000000e+00  1.000000e+00
   outer loop
     vertex  1.248355e-01  5.512925e-17  4.161184e-01
     vertex  3.593750e-01  6.949065e-17  4.161184e-01
     vertex  3.593750e-01  5.468750e-02  4.161184e-01
   endloop
 endfacet
 facet normal  0.000000e+00  0.000000e+00  1.000000e+00
   outer loop
     vertex  1.248355e-01  5.512925e-17  4.161184e-01
     vertex  3.593750e-01  5.468750e-02  4.161184e-01
     vertex  1.248355e-01  5.468750e-02  4.161184e-01
   endloop
 endfacet
 facet normal -8.778956e-01  0.000000e+00 -4.788521e-01
   outer loop
     vertex  3.518092e-01  4.354747e-17 -4.354747e-17
     vertex  1.248355e-01  5.512925e-17  4.161184e-01
     vertex  1.248355e-01  5.468750e-02  4.161184e-01
   endloop
 endfacet
 facet normal -8.778956e-01 -2.932124e-17 -4.788521e-01
   outer loop
     vertex  3.518092e-01  4.354747e-17 -4.354747e-17
     vertex  1.248355e-01  5.468750e-02  4.161184e-01
     vertex  3.518092e-01  5.468750e-02 -4.689612e-17
   endloop
 endfacet
 facet normal  9.927089e-01  0.000000e+00  1.205367e-01
   outer loop
     vertex -3.415863e-01 -4.066117e-18 -8.419345e-02
     vertex -3.518092e-01  5.468750e-02 -3.110422e-17
     vertex -3.518092e-01  4.632710e-19 -2.775558e-17
   endloop
 endfacet
 facet normal  9.927089e-01 -0.000000e+00  1.205367e-01
   outer loop
     vertex -3.415863e-01 -4.066117e-18 -8.419345e-02
     vertex -3.415863e-01  5.468750e-02 -8.419345e-02
     vertex -3.518092e-01  5.468750e-02 -3.110422e-17
   endloop
 endfacet
 facet normal  9.350162e-01 -0.000000e+00  3.546049e-01
   outer loop
     vertex -3.115116e-01 -7.080325e-18 -1.634939e-01
     vertex -3.115116e-01  5.468750e-02 -1.634939e-01
     vertex -3.415863e-01  5.468750e-02 -8.419345e-02
   endloop
 endfacet
 facet normal  9.350162e-01  0.000000e+00  3.546049e-01
   outer loop
     vertex -3.115116e-01 -7.080325e-18 -1.634939e-01
     vertex -3.415863e-01  5.468750e-02 -8.419345e-02
     vertex -3.415863e-01 -4.066117e-18 -8.419345e-02
   endloop
 endfacet
 facet normal  8.229839e-01 -0.000000e+00  5.680647e-01
   outer loop
     vertex -2.633330e-01 -8.404177e-18 -2.332927e-01
     vertex -2.633330e-01  5.468750e-02 -2.332927e-01
     vertex -3.115116e-01  5.468750e-02 -1.634939e-01
   endloop
 endfacet
 facet normal  8.229839e-01  0.000000e+00  5.680647e-01
   outer loop
     vertex -2.633330e-01 -8.404177e-18 -2.332927e-01
     vertex -3.115116e-01  5.468750e-02 -1.634939e-01
     vertex -3.115116e-01 -7.080325e-18 -1.634939e-01
   endloop
 endfacet
 facet normal  6.631227e-01 -0.000000e+00  7.485107e-01
   outer loop
     vertex -1.998504e-01 -7.960738e-18 -2.895333e-01
     vertex -1.998504e-01  5.468750e-02 -2.895333e-01
     vertex -2.633330e-01  5.468750e-02 -2.332927e-01
   endloop
 endfacet
 facet normal  6.631227e-01  0.000000e+00  7.485107e-01
   outer loop
     vertex -1.998504e-01 -7.960738e-18 -2.895333e-01
     vertex -2.633330e-01  5.468750e-02 -2.332927e-01
     vertex -2.633330e-01 -8.404177e-18 -2.332927e-01
   endloop
 endfacet
 facet normal  4.647232e-01 -0.000000e+00  8.854560e-01
   outer loop
     vertex -1.247533e-01 -5.775777e-18 -3.289473e-01
     vertex -1.247533e-01  5.468750e-02 -3.289473e-01
     vertex -1.998504e-01  5.468750e-02 -2.895333e-01
   endloop
 endfacet
 facet normal  4.647232e-01  0.000000e+00  8.854560e-01
   outer loop
     vertex -1.247533e-01 -5.775777e-18 -3.289473e-01
     vertex -1.998504e-01  5.468750e-02 -2.895333e-01
     vertex -1.998504e-01 -7.960738e-18 -2.895333e-01
   endloop
 endfacet
 facet normal  2.393157e-01 -0.000000e+00  9.709418e-01
   outer loop
     vertex -4.240591e-02 -1.976276e-18 -3.492441e-01
     vertex -4.240591e-02  5.468750e-02 -3.492441e-01
     vertex -1.247533e-01  5.468750e-02 -3.289473e-01
   endloop
 endfacet
 facet normal  2.393157e-01  0.000000e+00  9.709418e-01
   outer loop
     vertex -4.240591e-02 -1.976276e-18 -3.492441e-01
     vertex -1.247533e-01  5.468750e-02 -3.289473e-01
     vertex -1.247533e-01 -5.775777e-18 -3.289473e-01
   endloop
 endfacet
 facet normal  0.000000e+00 -0.000000e+00  1.000000e+00
   outer loop
     vertex  4.240591e-02  3.216951e-18 -3.492441e-01
     vertex  4.240591e-02  5.468750e-02 -3.492441e-01
     vertex -4.240591e-02  5.468750e-02 -3.492441e-01
   endloop
 endfacet
 facet normal  0.000000e+00  0.000000e+00  1.000000e+00
   outer loop
     vertex  4.240591e-02  3.216951e-18 -3.492441e-01
     vertex -4.240591e-02  5.468750e-02 -3.492441e-01
     vertex -4.240591e-02 -1.976276e-18 -3.492441e-01
   endloop
 endfacet
 facet normal -2.393157e-01  0.000000e+00  9.709418e-01
   outer loop
     vertex  1.247533e-01  9.502092e-18 -3.289473e-01
     vertex  1.247533e-01  5.468750e-02 -3.289473e-01
     vertex  4.240591e-02  5.468750e-02 -3.492441e-01
   endloop
 endfacet
 facet normal -2.393157e-01  0.000000e+00  9.709418e-01
   outer loop
     vertex  1.247533e-01  9.502092e-18 -3.289473e-01
     vertex  4.240591e-02  5.468750e-02 -3.492441e-01
     vertex  4.240591e-02  3.216951e-18 -3.492441e-01
   endloop
 endfacet
 facet normal -4.647232e-01  0.000000e+00  8.854560e-01
   outer loop
     vertex  1.998504e-01  1.651388e-17 -2.895333e-01
     vertex  1.998504e-01  5.468750e-02 -2.895333e-01
     vertex  1.247533e-01  5.468750e-02 -3.289473e-01
   endloop
 endfacet
 facet normal -4.647232e-01  0.000000e+00  8.854560e-01
   outer loop
     vertex  1.998504e-01  1.651388e-17 -2.895333e-01
     vertex  1.247533e-01  5.468750e-02 -3.289473e-01
     vertex  1.247533e-01  9.502092e-18 -3.289473e-01
   endloop
 endfacet
 facet normal -6.631227e-01  0.000000e+00  7.485107e-01
   outer loop
     vertex  2.633330e-01  2.384481e-17 -2.332927e-01
     vertex  2.633330e-01  5.468750e-02 -2.332927e-01
     vertex  1.998504e-01  5.468750e-02 -2.895333e-01
   endloop
 endfacet
 facet normal -6.631227e-01  0.000000e+00  7.485107e-01
   outer loop
     vertex  2.633330e-01  2.384481e-17 -2.332927e-01
     vertex  1.998504e-01  5.468750e-02 -2.895333e-01
     vertex  1.998504e-01  1.651388e-17 -2.895333e-01
   endloop
 endfacet
 facet normal -8.229839e-01  0.000000e+00  5.680647e-01
   outer loop
     vertex  3.115116e-01  3.106884e-17 -1.634939e-01
     vertex  3.115116e-01  5.468750e-02 -1.634939e-01
     vertex  2.633330e-01  5.468750e-02 -2.332927e-01
   endloop
 endfacet
 facet normal -8.229839e-01  0.000000e+00  5.680647e-01
   outer loop
     vertex  3.115116e-01  3.106884e-17 -1.634939e-01
     vertex  2.633330e-01  5.468750e-02 -2.332927e-01
     vertex  2.633330e-01  2.384481e-17 -2.332927e-01
   endloop
 endfacet
 facet normal -9.350162e-01  0.000000e+00  3.546049e-01
   outer loop
     vertex  3.415863e-01  3.776614e-17 -8.419345e-02
     vertex  3.415863e-01  5.468750e-02 -8.419345e-02
     vertex  3.115116e-01  5.468750e-02 -1.634939e-01
   endloop
 endfacet
 facet normal -9.350162e-01  0.000000e+00  3.546049e-01
   outer loop
     vertex  3.415863e-01  3.776614e-17 -8.419345e-02
     vertex  3.115116e-01  5.468750e-02 -1.634939e-01
     vertex  3.115116e-01  3.106884e-17 -1.634939e-01
   endloop
 endfacet
 facet normal -9.927089e-01  7.380743e-18  1.205367e-01
   outer loop
     vertex  3.518092e-01  4.354747e-17 -4.354747e-17
     vertex  3.518092e-01  5.468750e-02 -4.689612e-17
     vertex  3.415863e-01  5.468750e-02 -8.419345e-02
   endloop
 endfacet
 facet normal -9.927089e-01  0.000000e+00  1.205367e-01
   outer loop
     vertex  3.518092e-01  4.354747e-17 -4.354747e-17
     vertex  3.415863e-01  5.468750e-02 -8.419345e-02
     vertex  3.415863e-01  3.776614e-17 -8.419345e-02
   endloop
 endfacet
 facet normal  1.000000e+00  0.000000e+00  0.000000e+00
   outer loop
     vertex -3.518092e-01  2.594318e-17  4.161184e-01
     vertex -3.518092e-01  4.632710e-19 -2.775558e-17
     vertex -3.518092e-01  5.468750e-02 -3.110422e-17
   endloop
 endfacet
 facet normal  1.000000e+00 -0.000000e+00  0.000000e+00
   outer loop
     vertex -3.518092e-01  2.594318e-17  4.161184e-01
     vertex -3.518092e-01  5.468750e-02 -3.110422e-17
     vertex -3.518092e-01  5.468750e-02  4.161184e-01
   endloop
 endfacet
endsolid
