solid 
 facet normal  0.000000e+00  0.000000e+00 -1.000000e+00
   outer loop
     vertex  1.953125e-01  5.644856e-17  1.718750e-01
     vertex -7.265625e-01 -8.750000e-01  1.718750e-01
     vertex -7.265625e-01  0.000000e+00  1.718750e-01
   endloop
 endfacet
 facet normal  0.000000e+00 -0.000000e+00 -1.000000e+00
   outer loop
     vertex  1.953125e-01  5.644856e-17  1.718750e-01
     vertex  1.953125e-01 -8.750000e-01  1.718750e-01
     vertex -7.265625e-01 -8.750000e-01  1.718750e-01
   endloop
 endfacet
 facet normal -9.863939e-01  0.000000e+00  1.643990e-01
   outer loop
     vertex  8.593750e-02  9.567553e-18 -4.843750e-01
     vertex  1.953125e-01 -8.750000e-01  1.718750e-01
     vertex  1.953125e-01  5.644856e-17  1.718750e-01
   endloop
 endfacet
 facet normal -9.863939e-01  0.000000e+00  1.643990e-01
   outer loop
     vertex  8.593750e-02  9.567553e-18 -4.843750e-01
     vertex  8.593750e-02 -8.750000e-01 -4.843750e-01
     vertex  1.953125e-01 -8.750000e-01  1.718750e-01
   endloop
 endfacet
 facet normal  2.324953e-02  0.000000e+00 -9.997297e-01
   outer loop
     vertex  7.578125e-01  5.166479e-17 -4.687500e-01
     vertex  8.593750e-02 -8.750000e-01 -4.843750e-01
     vertex  8.593750e-02  9.567553e-18 -4.843750e-01
   endloop
 endfacet
 facet normal  2.324953e-02  0.000000e+00 -9.997297e-01
   outer loop
     vertex  7.578125e-01  5.166479e-17 -4.687500e-01
     vertex  7.578125e-01 -8.750000e-01 -4.687500e-01
     vertex  8.593750e-02 -8.750000e-01 -4.843750e-01
   endloop
 endfacet
 facet normal  1.000000e+00  0.000000e+00  0.000000e+00
   outer loop
     vertex  7.578125e-01  1.014161e-16  3.437500e-01
     vertex  7.578125e-01 -8.750000e-01 -4.687500e-01
     vertex  7.578125e-01  5.166479e-17 -4.687500e-01
   endloop
 endfacet
 facet normal  1.000000e+00  0.000000e+00  0.000000e+00
   outer loop
     vertex  7.578125e-01  1.014161e-16  3.437500e-01
     vertex  7.578125e-01 -8.750000e-01  3.437500e-01
     vertex  7.578125e-01 -8.750000e-01 -4.687500e-01
   endloop
 endfacet
 facet normal  7.071068e-01  0.000000e+00  7.071068e-01
   outer loop
     vertex  1.015625e-01  1.014161e-16  1.000000e+00
     vertex  7.578125e-01 -8.750000e-01  3.437500e-01
     vertex  7.578125e-01  1.014161e-16  3.437500e-01
   endloop
 endfacet
 facet normal  7.071068e-01  0.000000e+00  7.071068e-01
   outer loop
     vertex  1.015625e-01  1.014161e-16  1.000000e+00
     vertex  1.015625e-01 -8.750000e-01  1.000000e+00
     vertex  7.578125e-01 -8.750000e-01  3.437500e-01
   endloop
 endfacet
 facet normal -0.000000e+00  0.000000e+00  1.000000e+00
   outer loop
     vertex -7.265625e-01  5.070803e-17  1.000000e+00
     vertex  1.015625e-01 -8.750000e-01  1.000000e+00
     vertex  1.015625e-01  1.014161e-16  1.000000e+00
   endloop
 endfacet
 facet normal  0.000000e+00  0.000000e+00  1.000000e+00
   outer loop
     vertex -7.265625e-01  5.070803e-17  1.000000e+00
     vertex -7.265625e-01 -8.750000e-01  1.000000e+00
     vertex  1.015625e-01 -8.750000e-01  1.000000e+00
   endloop
 endfacet
 facet normal -1.000000e+00  0.000000e+00  0.000000e+00
   outer loop
     vertex -7.265625e-01  0.000000e+00  1.718750e-01
     vertex -7.265625e-01 -8.750000e-01  1.000000e+00
     vertex -7.265625e-01  5.070803e-17  1.000000e+00
   endloop
 endfacet
 facet normal -1.000000e+00  0.000000e+00  0.000000e+00
   outer loop
     vertex -7.265625e-01  0.000000e+00  1.718750e-01
     vertex -7.265625e-01 -8.750000e-01  1.718750e-01
     vertex -7.265625e-01 -8.750000e-01  1.000000e+00
   endloop
 endfacet
 facet normal -6.123234e-17  1.000000e+00 -6.123234e-17
   outer loop
     vertex  1.953125e-01  5.644856e-17  1.718750e-01
     vertex  7.578125e-01  5.166479e-17 -4.687500e-01
     vertex  8.593750e-02  9.567553e-18 -4.843750e-01
   endloop
 endfacet
 facet normal -6.123234e-17  1.000000e+00 -6.123234e-17
   outer loop
     vertex  7.578125e-01  1.014161e-16  3.437500e-01
     vertex  7.578125e-01  5.166479e-17 -4.687500e-01
     vertex  1.953125e-01  5.644856e-17  1.718750e-01
   endloop
 endfacet
 facet normal -6.123234e-17  1.000000e+00 -6.123234e-17
   outer loop
     vertex  1.015625e-01  1.014161e-16  1.000000e+00
     vertex  1.953125e-01  5.644856e-17  1.718750e-01
     vertex -7.265625e-01  0.000000e+00  1.718750e-01
   endloop
 endfacet
 facet normal -6.123234e-17  1.000000e+00 -6.123234e-17
   outer loop
     vertex  1.015625e-01  1.014161e-16  1.000000e+00
     vertex -7.265625e-01  0.000000e+00  1.718750e-01
     vertex -7.265625e-01  5.070803e-17  1.000000e+00
   endloop
 endfacet
 facet normal -6.123234e-17  1.000000e+00 -6.123234e-17
   outer loop
     vertex  1.015625e-01  1.014161e-16  1.000000e+00
     vertex  7.578125e-01  1.014161e-16  3.437500e-01
     vertex  1.953125e-01  5.644856e-17  1.718750e-01
   endloop
 endfacet
 facet normal  0.000000e+00 -1.000000e+00 -0.000000e+00
   outer loop
     vertex  1.953125e-01 -8.750000e-01  1.718750e-01
     vertex  8.593750e-02 -8.750000e-01 -4.843750e-01
     vertex  7.578125e-01 -8.750000e-01 -4.687500e-01
   endloop
 endfacet
 facet normal  0.000000e+00 -1.000000e+00 -0.000000e+00
   outer loop
     vertex  7.578125e-01 -8.750000e-01  3.437500e-01
     vertex  1.953125e-01 -8.750000e-01  1.718750e-01
     vertex  7.578125e-01 -8.750000e-01 -4.687500e-01
   endloop
 endfacet
 facet normal  0.000000e+00 -1.000000e+00 -0.000000e+00
   outer loop
     vertex  1.015625e-01 -8.750000e-01  1.000000e+00
     vertex -7.265625e-01 -8.750000e-01  1.718750e-01
     vertex  1.953125e-01 -8.750000e-01  1.718750e-01
   endloop
 endfacet
 facet normal -0.000000e+00 -1.000000e+00  0.000000e+00
   outer loop
     vertex  1.015625e-01 -8.750000e-01  1.000000e+00
     vertex -7.265625e-01 -8.750000e-01  1.000000e+00
     vertex -7.265625e-01 -8.750000e-01  1.718750e-01
   endloop
 endfacet
 facet normal  0.000000e+00 -1.000000e+00  0.000000e+00
   outer loop
     vertex  1.015625e-01 -8.750000e-01  1.000000e+00
     vertex  1.953125e-01 -8.750000e-01  1.718750e-01
     vertex  7.578125e-01 -8.750000e-01  3.437500e-01
   endloop
 endfacet
endsolid
