solid 
 facet normal  0.000000e+00  0.000000e+00 -1.000000e+00
   outer loop
     vertex  7.500000e-01  9.184851e-17 -7.187500e-01
     vertex -7.500000e-01 -3.906250e-02 -7.187500e-01
     vertex -7.500000e-01  0.000000e+00 -7.187500e-01
   endloop
 endfacet
 facet normal  0.000000e+00 -0.000000e+00 -1.000000e+00
   outer loop
     vertex  7.500000e-01  9.184851e-17 -7.187500e-01
     vertex  7.500000e-01 -3.906250e-02 -7.187500e-01
     vertex -7.500000e-01 -3.906250e-02 -7.187500e-01
   endloop
 endfacet
 facet normal -1.000000e+00  0.000000e+00  0.000000e+00
   outer loop
     vertex -7.500000e-01 -7.812500e-03 -3.125000e-01
     vertex -7.500000e-01 -3.906250e-02  2.335526e-02
     vertex -7.500000e-01 -7.812500e-03  2.335526e-02
   endloop
 endfacet
 facet normal -1.000000e+00  0.000000e+00  0.000000e+00
   outer loop
     vertex -7.500000e-01 -3.906250e-02 -7.187500e-01
     vertex -7.500000e-01 -3.906250e-02  2.335526e-02
     vertex -7.500000e-01 -7.812500e-03 -3.125000e-01
   endloop
 endfacet
 facet normal -1.000000e+00  0.000000e+00  0.000000e+00
   outer loop
     vertex -7.500000e-01  0.000000e+00 -7.187500e-01
     vertex -7.500000e-01 -7.812500e-03 -3.125000e-01
     vertex -7.500000e-01  0.000000e+00 -3.125000e-01
   endloop
 endfacet
 facet normal -1.000000e+00  0.000000e+00  0.000000e+00
   outer loop
     vertex -7.500000e-01  0.000000e+00 -7.187500e-01
     vertex -7.500000e-01 -3.906250e-02 -7.187500e-01
     vertex -7.500000e-01 -7.812500e-03 -3.125000e-01
   endloop
 endfacet
 facet normal  1.000000e+00  0.000000e+00  0.000000e+00
   outer loop
     vertex  7.500000e-01 -7.812500e-03 -3.125000e-01
     vertex  7.500000e-01 -3.906250e-02 -7.187500e-01
     vertex  7.500000e-01  9.184851e-17 -7.187500e-01
   endloop
 endfacet
 facet normal  1.000000e+00  0.000000e+00  0.000000e+00
   outer loop
     vertex  7.500000e-01  9.184851e-17 -3.125000e-01
     vertex  7.500000e-01 -7.812500e-03 -3.125000e-01
     vertex  7.500000e-01  9.184851e-17 -7.187500e-01
   endloop
 endfacet
 facet normal  1.000000e+00  0.000000e+00  0.000000e+00
   outer loop
     vertex  7.500000e-01 -3.906250e-02  2.335526e-02
     vertex  7.500000e-01 -3.906250e-02 -7.187500e-01
     vertex  7.500000e-01 -7.812500e-03 -3.125000e-01
   endloop
 endfacet
 facet normal  1.000000e+00  0.000000e+00  0.000000e+00
   outer loop
     vertex  7.500000e-01 -7.812500e-03  2.335526e-02
     vertex  7.500000e-01 -3.906250e-02  2.335526e-02
     vertex  7.500000e-01 -7.812500e-03 -3.125000e-01
   endloop
 endfacet
 facet normal -6.123234e-17  1.000000e+00  0.000000e+00
   outer loop
     vertex  7.500000e-01  9.184851e-17 -3.125000e-01
     vertex -7.500000e-01  0.000000e+00 -7.187500e-01
     vertex -7.500000e-01  0.000000e+00 -3.125000e-01
   endloop
 endfacet
 facet normal -6.123234e-17  1.000000e+00  0.000000e+00
   outer loop
     vertex  7.500000e-01  9.184851e-17 -3.125000e-01
     vertex  7.500000e-01  9.184851e-17 -7.187500e-01
     vertex -7.500000e-01  0.000000e+00 -7.187500e-01
   endloop
 endfacet
 facet normal  0.000000e+00 -1.000000e+00 -0.000000e+00
   outer loop
     vertex  7.500000e-01 -3.906250e-02  2.335526e-02
     vertex -7.500000e-01 -3.906250e-02 -7.187500e-01
     vertex  7.500000e-01 -3.906250e-02 -7.187500e-01
   endloop
 endfacet
 facet normal -0.000000e+00 -1.000000e+00  0.000000e+00
   outer loop
     vertex  7.500000e-01 -3.906250e-02  2.335526e-02
     vertex -7.500000e-01 -3.906250e-02  2.335526e-02
     vertex -7.500000e-01 -3.906250e-02 -7.187500e-01
   endloop
 endfacet
 facet normal -1.000000e+00  0.000000e+00  0.000000e+00
   outer loop
     vertex -7.500000e-01  0.000000e+00 -3.125000e-01
     vertex -7.500000e-01 -7.812500e-03  2.335526e-02
     vertex -7.500000e-01  4.544084e-17  2.335526e-02
   endloop
 endfacet
 facet normal -1.000000e+00  0.000000e+00  0.000000e+00
   outer loop
     vertex -7.500000e-01  0.000000e+00 -3.125000e-01
     vertex -7.500000e-01 -7.812500e-03 -3.125000e-01
     vertex -7.500000e-01 -7.812500e-03  2.335526e-02
   endloop
 endfacet
 facet normal -0.000000e+00  0.000000e+00  1.000000e+00
   outer loop
     vertex -7.500000e-01 -7.812500e-03  2.335526e-02
     vertex  7.500000e-01 -3.906250e-02  2.335526e-02
     vertex  7.500000e-01 -7.812500e-03  2.335526e-02
   endloop
 endfacet
 facet normal  0.000000e+00  0.000000e+00  1.000000e+00
   outer loop
     vertex -7.500000e-01 -7.812500e-03  2.335526e-02
     vertex -7.500000e-01 -3.906250e-02  2.335526e-02
     vertex  7.500000e-01 -3.906250e-02  2.335526e-02
   endloop
 endfacet
 facet normal  1.000000e+00  0.000000e+00  0.000000e+00
   outer loop
     vertex  7.500000e-01  1.372894e-16  2.335526e-02
     vertex  7.500000e-01 -7.812500e-03 -3.125000e-01
     vertex  7.500000e-01  9.184851e-17 -3.125000e-01
   endloop
 endfacet
 facet normal  1.000000e+00  0.000000e+00  0.000000e+00
   outer loop
     vertex  7.500000e-01  1.372894e-16  2.335526e-02
     vertex  7.500000e-01 -7.812500e-03  2.335526e-02
     vertex  7.500000e-01 -7.812500e-03 -3.125000e-01
   endloop
 endfacet
 facet normal -6.123234e-17  1.000000e+00 -1.352989e-16
   outer loop
     vertex  7.500000e-01  1.372894e-16  2.335526e-02
     vertex -7.500000e-01  0.000000e+00 -3.125000e-01
     vertex -7.500000e-01  4.544084e-17  2.335526e-02
   endloop
 endfacet
 facet normal -6.123234e-17  1.000000e+00 -1.352989e-16
   outer loop
     vertex  7.500000e-01  1.372894e-16  2.335526e-02
     vertex  7.500000e-01  9.184851e-17 -3.125000e-01
     vertex -7.500000e-01  0.000000e+00 -3.125000e-01
   endloop
 endfacet
 facet normal -1.000000e+00  0.000000e+00  0.000000e+00
   outer loop
     vertex -7.500000e-01  4.544084e-17  2.335526e-02
     vertex -7.500000e-01 -7.812500e-03  4.296053e-01
     vertex -7.500000e-01  4.544084e-17  4.296053e-01
   endloop
 endfacet
 facet normal -1.000000e+00  0.000000e+00  0.000000e+00
   outer loop
     vertex -7.500000e-01  4.544084e-17  2.335526e-02
     vertex -7.500000e-01 -7.812500e-03  2.335526e-02
     vertex -7.500000e-01 -7.812500e-03  4.296053e-01
   endloop
 endfacet
 facet normal -0.000000e+00 -1.000000e+00  0.000000e+00
   outer loop
     vertex  7.500000e-01 -7.812500e-03  4.296053e-01
     vertex -7.500000e-01 -7.812500e-03  4.296053e-01
     vertex -7.500000e-01 -7.812500e-03  2.335526e-02
   endloop
 endfacet
 facet normal  0.000000e+00 -1.000000e+00 -0.000000e+00
   outer loop
     vertex  7.500000e-01 -7.812500e-03  4.296053e-01
     vertex -7.500000e-01 -7.812500e-03  2.335526e-02
     vertex  7.500000e-01 -7.812500e-03  2.335526e-02
   endloop
 endfacet
 facet normal  1.000000e+00  0.000000e+00  0.000000e+00
   outer loop
     vertex  7.500000e-01  1.372894e-16  4.296053e-01
     vertex  7.500000e-01 -7.812500e-03  2.335526e-02
     vertex  7.500000e-01  1.372894e-16  2.335526e-02
   endloop
 endfacet
 facet normal  1.000000e+00  0.000000e+00  0.000000e+00
   outer loop
     vertex  7.500000e-01  1.372894e-16  4.296053e-01
     vertex  7.500000e-01 -7.812500e-03  4.296053e-01
     vertex  7.500000e-01 -7.812500e-03  2.335526e-02
   endloop
 endfacet
 facet normal -6.123234e-17  1.000000e+00  0.000000e+00
   outer loop
     vertex  7.500000e-01  1.372894e-16  4.296053e-01
     vertex -7.500000e-01  4.544084e-17  2.335526e-02
     vertex -7.500000e-01  4.544084e-17  4.296053e-01
   endloop
 endfacet
 facet normal -6.123234e-17  1.000000e+00  0.000000e+00
   outer loop
     vertex  7.500000e-01  1.372894e-16  4.296053e-01
     vertex  7.500000e-01  1.372894e-16  2.335526e-02
     vertex -7.500000e-01  4.544084e-17  2.335526e-02
   endloop
 endfacet
 facet normal -0.000000e+00  0.000000e+00  1.000000e+00
   outer loop
     vertex -7.500000e-01  4.544084e-17  4.296053e-01
     vertex  7.500000e-01 -7.812500e-03  4.296053e-01
     vertex  7.500000e-01  1.372894e-16  4.296053e-01
   endloop
 endfacet
 facet normal  0.000000e+00  0.000000e+00  1.000000e+00
   outer loop
     vertex -7.500000e-01  4.544084e-17  4.296053e-01
     vertex -7.500000e-01 -7.812500e-03  4.296053e-01
     vertex  7.500000e-01 -7.812500e-03  4.296053e-01
   endloop
 endfacet
endsolid
