solid 
 facet normal  0.000000e+00  0.000000e+00 -1.000000e+00
   outer loop
     vertex  7.500000e-01  9.184851e-17 -3.750000e-01
     vertex -7.500000e-01 -3.750000e-01 -3.750000e-01
     vertex -7.500000e-01  0.000000e+00 -3.750000e-01
   endloop
 endfacet
 facet normal  0.000000e+00 -0.000000e+00 -1.000000e+00
   outer loop
     vertex  7.500000e-01  9.184851e-17 -3.750000e-01
     vertex  7.500000e-01 -3.750000e-01 -3.750000e-01
     vertex -7.500000e-01 -3.750000e-01 -3.750000e-01
   endloop
 endfacet
 facet normal  1.000000e+00  0.000000e+00  0.000000e+00
   outer loop
     vertex  7.500000e-01  4.592425e-17 -2.031250e-01
     vertex  7.500000e-01 -3.750000e-01 -3.750000e-01
     vertex  7.500000e-01  9.184851e-17 -3.750000e-01
   endloop
 endfacet
 facet normal  1.000000e+00  0.000000e+00  0.000000e+00
   outer loop
     vertex  7.500000e-01  6.912809e-17  1.758224e-01
     vertex  7.500000e-01 -3.750000e-01  3.828947e-01
     vertex  7.500000e-01 -3.750000e-01 -3.750000e-01
   endloop
 endfacet
 facet normal  1.000000e+00  0.000000e+00  0.000000e+00
   outer loop
     vertex  7.500000e-01  6.912809e-17  1.758224e-01
     vertex  7.500000e-01 -3.750000e-01 -3.750000e-01
     vertex  7.500000e-01  4.592425e-17 -2.031250e-01
   endloop
 endfacet
 facet normal  1.000000e+00  0.000000e+00  0.000000e+00
   outer loop
     vertex  7.500000e-01  1.382562e-16  3.828947e-01
     vertex  7.500000e-01 -3.750000e-01  3.828947e-01
     vertex  7.500000e-01  6.912809e-17  1.758224e-01
   endloop
 endfacet
 facet normal -0.000000e+00  0.000000e+00  1.000000e+00
   outer loop
     vertex -7.500000e-01  4.640767e-17  3.828947e-01
     vertex  7.500000e-01 -3.750000e-01  3.828947e-01
     vertex  7.500000e-01  1.382562e-16  3.828947e-01
   endloop
 endfacet
 facet normal  0.000000e+00  0.000000e+00  1.000000e+00
   outer loop
     vertex -7.500000e-01  4.640767e-17  3.828947e-01
     vertex -7.500000e-01 -3.750000e-01  3.828947e-01
     vertex  7.500000e-01 -3.750000e-01  3.828947e-01
   endloop
 endfacet
 facet normal -1.000000e+00  0.000000e+00  0.000000e+00
   outer loop
     vertex -7.500000e-01  0.000000e+00 -3.750000e-01
     vertex -7.500000e-01 -3.750000e-01  3.828947e-01
     vertex -7.500000e-01  4.640767e-17  3.828947e-01
   endloop
 endfacet
 facet normal -1.000000e+00  0.000000e+00  0.000000e+00
   outer loop
     vertex -7.500000e-01  0.000000e+00 -3.750000e-01
     vertex -7.500000e-01 -3.750000e-01 -3.750000e-01
     vertex -7.500000e-01 -3.750000e-01  3.828947e-01
   endloop
 endfacet
 facet normal  1.403241e-17  1.000000e+00 -6.123234e-17
   outer loop
     vertex  2.320383e-17  2.320383e-17  1.758224e-01
     vertex -7.500000e-01  0.000000e+00 -3.750000e-01
     vertex -7.500000e-01  4.640767e-17  3.828947e-01
   endloop
 endfacet
 facet normal  1.403241e-17  1.000000e+00 -6.123234e-17
   outer loop
     vertex  2.320383e-17  2.320383e-17  1.758224e-01
     vertex  0.000000e+00  0.000000e+00 -2.031250e-01
     vertex -7.500000e-01  0.000000e+00 -3.750000e-01
   endloop
 endfacet
 facet normal -6.123234e-17  1.000000e+00  2.671957e-16
   outer loop
     vertex  7.500000e-01  9.184851e-17 -3.750000e-01
     vertex -7.500000e-01  0.000000e+00 -3.750000e-01
     vertex  0.000000e+00  0.000000e+00 -2.031250e-01
   endloop
 endfacet
 facet normal -6.123234e-17  1.000000e+00  2.671957e-16
   outer loop
     vertex  7.500000e-01  4.592425e-17 -2.031250e-01
     vertex  7.500000e-01  9.184851e-17 -3.750000e-01
     vertex  0.000000e+00  0.000000e+00 -2.031250e-01
   endloop
 endfacet
 facet normal -6.123234e-17  1.000000e+00 -3.338354e-16
   outer loop
     vertex  7.500000e-01  1.382562e-16  3.828947e-01
     vertex  7.500000e-01  6.912809e-17  1.758224e-01
     vertex  2.320383e-17  2.320383e-17  1.758224e-01
   endloop
 endfacet
 facet normal -6.123234e-17  1.000000e+00 -3.338354e-16
   outer loop
     vertex  7.500000e-01  1.382562e-16  3.828947e-01
     vertex  2.320383e-17  2.320383e-17  1.758224e-01
     vertex -7.500000e-01  4.640767e-17  3.828947e-01
   endloop
 endfacet
 facet normal -6.123234e-17  1.000000e+00 -6.123234e-17
   outer loop
     vertex  7.500000e-01  6.912809e-17  1.758224e-01
     vertex  7.500000e-01  4.592425e-17 -2.031250e-01
     vertex  0.000000e+00  0.000000e+00 -2.031250e-01
   endloop
 endfacet
 facet normal -6.123234e-17  1.000000e+00 -6.123234e-17
   outer loop
     vertex  7.500000e-01  6.912809e-17  1.758224e-01
     vertex  0.000000e+00  0.000000e+00 -2.031250e-01
     vertex  2.320383e-17  2.320383e-17  1.758224e-01
   endloop
 endfacet
 facet normal  0.000000e+00 -1.000000e+00 -0.000000e+00
   outer loop
     vertex  7.500000e-01 -3.750000e-01  3.828947e-01
     vertex -7.500000e-01 -3.750000e-01 -3.750000e-01
     vertex  7.500000e-01 -3.750000e-01 -3.750000e-01
   endloop
 endfacet
 facet normal -0.000000e+00 -1.000000e+00  0.000000e+00
   outer loop
     vertex  7.500000e-01 -3.750000e-01  3.828947e-01
     vertex -7.500000e-01 -3.750000e-01  3.828947e-01
     vertex -7.500000e-01 -3.750000e-01 -3.750000e-01
   endloop
 endfacet
endsolid
