solid 
 facet normal  9.863613e-01 -1.645946e-01  0.000000e+00
   outer loop
     vertex -2.353825e-01 -3.436870e-01  0.000000e+00
     vertex -2.210526e-01 -2.578125e-01  0.000000e+00
     vertex -2.210526e-01 -2.578125e-01  5.234375e-01
   endloop
 endfacet
 facet normal  9.863613e-01 -1.645946e-01  0.000000e+00
   outer loop
     vertex -2.353825e-01 -3.436870e-01  0.000000e+00
     vertex -2.210526e-01 -2.578125e-01  5.234375e-01
     vertex -2.353825e-01 -3.436870e-01  5.234375e-01
   endloop
 endfacet
 facet normal  8.794738e-01 -4.759474e-01  0.000000e+00
   outer loop
     vertex -2.768194e-01 -4.202556e-01  0.000000e+00
     vertex -2.353825e-01 -3.436870e-01  5.234375e-01
     vertex -2.768194e-01 -4.202556e-01  5.234375e-01
   endloop
 endfacet
 facet normal  8.794738e-01 -4.759474e-01  0.000000e+00
   outer loop
     vertex -2.768194e-01 -4.202556e-01  0.000000e+00
     vertex -2.353825e-01 -3.436870e-01  0.000000e+00
     vertex -2.353825e-01 -3.436870e-01  5.234375e-01
   endloop
 endfacet
 facet normal  6.772816e-01 -7.357239e-01  0.000000e+00
   outer loop
     vertex -3.408729e-01 -4.792210e-01  0.000000e+00
     vertex -2.768194e-01 -4.202556e-01  5.234375e-01
     vertex -3.408729e-01 -4.792210e-01  5.234375e-01
   endloop
 endfacet
 facet normal  6.772816e-01 -7.357239e-01  0.000000e+00
   outer loop
     vertex -3.408729e-01 -4.792210e-01  0.000000e+00
     vertex -2.768194e-01 -4.202556e-01  0.000000e+00
     vertex -2.768194e-01 -4.202556e-01  5.234375e-01
   endloop
 endfacet
 facet normal  4.016954e-01 -9.157733e-01  0.000000e+00
   outer loop
     vertex -4.206019e-01 -5.141934e-01  0.000000e+00
     vertex -3.408729e-01 -4.792210e-01  5.234375e-01
     vertex -4.206019e-01 -5.141934e-01  5.234375e-01
   endloop
 endfacet
 facet normal  4.016954e-01 -9.157733e-01  0.000000e+00
   outer loop
     vertex -4.206019e-01 -5.141934e-01  0.000000e+00
     vertex -3.408729e-01 -4.792210e-01  0.000000e+00
     vertex -3.408729e-01 -4.792210e-01  5.234375e-01
   endloop
 endfacet
 facet normal  8.257935e-02 -9.965845e-01  0.000000e+00
   outer loop
     vertex -5.073664e-01 -5.213829e-01  0.000000e+00
     vertex -4.206019e-01 -5.141934e-01  5.234375e-01
     vertex -5.073664e-01 -5.213829e-01  5.234375e-01
   endloop
 endfacet
 facet normal  8.257935e-02 -9.965845e-01  0.000000e+00
   outer loop
     vertex -5.073664e-01 -5.213829e-01  0.000000e+00
     vertex -4.206019e-01 -5.141934e-01  0.000000e+00
     vertex -4.206019e-01 -5.141934e-01  5.234375e-01
   endloop
 endfacet
 facet normal -2.454855e-01 -9.694003e-01  0.000000e+00
   outer loop
     vertex -5.917642e-01 -5.000104e-01  0.000000e+00
     vertex -5.073664e-01 -5.213829e-01  5.234375e-01
     vertex -5.917642e-01 -5.000104e-01  5.234375e-01
   endloop
 endfacet
 facet normal -2.454855e-01 -9.694003e-01  0.000000e+00
   outer loop
     vertex -5.917642e-01 -5.000104e-01  0.000000e+00
     vertex -5.073664e-01 -5.213829e-01  0.000000e+00
     vertex -5.073664e-01 -5.213829e-01  5.234375e-01
   endloop
 endfacet
 facet normal -5.469482e-01 -8.371665e-01  0.000000e+00
   outer loop
     vertex -6.646495e-01 -4.523921e-01  0.000000e+00
     vertex -5.917642e-01 -5.000104e-01  5.234375e-01
     vertex -6.646495e-01 -4.523921e-01  5.234375e-01
   endloop
 endfacet
 facet normal -5.469482e-01 -8.371665e-01  0.000000e+00
   outer loop
     vertex -6.646495e-01 -4.523921e-01  0.000000e+00
     vertex -5.917642e-01 -5.000104e-01  0.000000e+00
     vertex -5.917642e-01 -5.000104e-01  5.234375e-01
   endloop
 endfacet
 facet normal -7.891405e-01 -6.142127e-01  0.000000e+00
   outer loop
     vertex -7.181240e-01 -3.836881e-01  0.000000e+00
     vertex -6.646495e-01 -4.523921e-01  5.234375e-01
     vertex -7.181240e-01 -3.836881e-01  5.234375e-01
   endloop
 endfacet
 facet normal -7.891405e-01 -6.142127e-01  0.000000e+00
   outer loop
     vertex -7.181240e-01 -3.836881e-01  0.000000e+00
     vertex -6.646495e-01 -4.523921e-01  0.000000e+00
     vertex -6.646495e-01 -4.523921e-01  5.234375e-01
   endloop
 endfacet
 facet normal -1.000000e+00  0.000000e+00  0.000000e+00
   outer loop
     vertex -7.463929e-01 -3.013434e-01  0.000000e+00
     vertex -7.463929e-01 -3.013434e-01  5.234375e-01
     vertex -7.463929e-01 -2.142816e-01  5.234375e-01
   endloop
 endfacet
 facet normal -9.458172e-01 -3.246995e-01  0.000000e+00
   outer loop
     vertex -7.463929e-01 -3.013434e-01  0.000000e+00
     vertex -7.181240e-01 -3.836881e-01  5.234375e-01
     vertex -7.463929e-01 -3.013434e-01  5.234375e-01
   endloop
 endfacet
 facet normal -9.458172e-01 -3.246995e-01  0.000000e+00
   outer loop
     vertex -7.463929e-01 -3.013434e-01  0.000000e+00
     vertex -7.181240e-01 -3.836881e-01  0.000000e+00
     vertex -7.181240e-01 -3.836881e-01  5.234375e-01
   endloop
 endfacet
 facet normal -1.000000e+00  0.000000e+00  0.000000e+00
   outer loop
     vertex -7.463929e-01 -2.142816e-01  0.000000e+00
     vertex -7.463929e-01 -3.013434e-01  0.000000e+00
     vertex -7.463929e-01 -2.142816e-01  5.234375e-01
   endloop
 endfacet
 facet normal -9.458172e-01  3.246995e-01  0.000000e+00
   outer loop
     vertex -7.181240e-01 -1.319369e-01  0.000000e+00
     vertex -7.463929e-01 -2.142816e-01  5.234375e-01
     vertex -7.181240e-01 -1.319369e-01  5.234375e-01
   endloop
 endfacet
 facet normal -9.458172e-01  3.246995e-01  0.000000e+00
   outer loop
     vertex -7.181240e-01 -1.319369e-01  0.000000e+00
     vertex -7.463929e-01 -2.142816e-01  0.000000e+00
     vertex -7.463929e-01 -2.142816e-01  5.234375e-01
   endloop
 endfacet
 facet normal -7.891405e-01  6.142127e-01  0.000000e+00
   outer loop
     vertex -6.646495e-01 -6.323289e-02  0.000000e+00
     vertex -7.181240e-01 -1.319369e-01  5.234375e-01
     vertex -6.646495e-01 -6.323289e-02  5.234375e-01
   endloop
 endfacet
 facet normal -7.891405e-01  6.142127e-01  0.000000e+00
   outer loop
     vertex -6.646495e-01 -6.323289e-02  0.000000e+00
     vertex -7.181240e-01 -1.319369e-01  0.000000e+00
     vertex -7.181240e-01 -1.319369e-01  5.234375e-01
   endloop
 endfacet
 facet normal -5.469482e-01  8.371665e-01  0.000000e+00
   outer loop
     vertex -5.917642e-01 -1.561455e-02  0.000000e+00
     vertex -6.646495e-01 -6.323289e-02  5.234375e-01
     vertex -5.917642e-01 -1.561455e-02  5.234375e-01
   endloop
 endfacet
 facet normal -5.469482e-01  8.371665e-01  0.000000e+00
   outer loop
     vertex -5.917642e-01 -1.561455e-02  0.000000e+00
     vertex -6.646495e-01 -6.323289e-02  0.000000e+00
     vertex -6.646495e-01 -6.323289e-02  5.234375e-01
   endloop
 endfacet
 facet normal -2.454855e-01  9.694003e-01  0.000000e+00
   outer loop
     vertex -5.073664e-01  5.757872e-03  0.000000e+00
     vertex -5.917642e-01 -1.561455e-02  5.234375e-01
     vertex -5.073664e-01  5.757872e-03  5.234375e-01
   endloop
 endfacet
 facet normal -2.454855e-01  9.694003e-01  0.000000e+00
   outer loop
     vertex -5.073664e-01  5.757872e-03  0.000000e+00
     vertex -5.917642e-01 -1.561455e-02  0.000000e+00
     vertex -5.917642e-01 -1.561455e-02  5.234375e-01
   endloop
 endfacet
 facet normal  8.257935e-02  9.965845e-01  0.000000e+00
   outer loop
     vertex -4.206019e-01 -1.431640e-03  0.000000e+00
     vertex -5.073664e-01  5.757872e-03  0.000000e+00
     vertex -5.073664e-01  5.757872e-03  5.234375e-01
   endloop
 endfacet
 facet normal  4.016954e-01  9.157733e-01 -0.000000e+00
   outer loop
     vertex -4.206019e-01 -1.431640e-03  0.000000e+00
     vertex -4.206019e-01 -1.431640e-03  5.234375e-01
     vertex -3.408729e-01 -3.640400e-02  5.234375e-01
   endloop
 endfacet
 facet normal  8.257935e-02  9.965845e-01 -0.000000e+00
   outer loop
     vertex -4.206019e-01 -1.431640e-03  0.000000e+00
     vertex -5.073664e-01  5.757872e-03  5.234375e-01
     vertex -4.206019e-01 -1.431640e-03  5.234375e-01
   endloop
 endfacet
 facet normal  4.016954e-01  9.157733e-01 -0.000000e+00
   outer loop
     vertex -3.408729e-01 -3.640400e-02  0.000000e+00
     vertex -4.206019e-01 -1.431640e-03  0.000000e+00
     vertex -3.408729e-01 -3.640400e-02  5.234375e-01
   endloop
 endfacet
 facet normal  6.772816e-01  7.357239e-01  0.000000e+00
   outer loop
     vertex -2.768194e-01 -9.536940e-02  0.000000e+00
     vertex -3.408729e-01 -3.640400e-02  0.000000e+00
     vertex -3.408729e-01 -3.640400e-02  5.234375e-01
   endloop
 endfacet
 facet normal  6.772816e-01  7.357239e-01 -0.000000e+00
   outer loop
     vertex -2.768194e-01 -9.536940e-02  0.000000e+00
     vertex -3.408729e-01 -3.640400e-02  5.234375e-01
     vertex -2.768194e-01 -9.536940e-02  5.234375e-01
   endloop
 endfacet
 facet normal  8.794738e-01  4.759474e-01  0.000000e+00
   outer loop
     vertex -2.353825e-01 -1.719380e-01  0.000000e+00
     vertex -2.768194e-01 -9.536940e-02  0.000000e+00
     vertex -2.768194e-01 -9.536940e-02  5.234375e-01
   endloop
 endfacet
 facet normal  8.794738e-01  4.759474e-01 -0.000000e+00
   outer loop
     vertex -2.353825e-01 -1.719380e-01  0.000000e+00
     vertex -2.768194e-01 -9.536940e-02  5.234375e-01
     vertex -2.353825e-01 -1.719380e-01  5.234375e-01
   endloop
 endfacet
 facet normal  9.863613e-01  1.645946e-01 -0.000000e+00
   outer loop
     vertex -2.210526e-01 -2.578125e-01  0.000000e+00
     vertex -2.353825e-01 -1.719380e-01  5.234375e-01
     vertex -2.210526e-01 -2.578125e-01  5.234375e-01
   endloop
 endfacet
 facet normal  9.863613e-01  1.645946e-01  0.000000e+00
   outer loop
     vertex -2.210526e-01 -2.578125e-01  0.000000e+00
     vertex -2.353825e-01 -1.719380e-01  0.000000e+00
     vertex -2.353825e-01 -1.719380e-01  5.234375e-01
   endloop
 endfacet
 facet normal  0.000000e+00  0.000000e+00 -1.000000e+00
   outer loop
     vertex -5.917642e-01 -1.561455e-02  0.000000e+00
     vertex -7.181240e-01 -1.319369e-01  0.000000e+00
     vertex -6.646495e-01 -6.323289e-02  0.000000e+00
   endloop
 endfacet
 facet normal  0.000000e+00  0.000000e+00 -1.000000e+00
   outer loop
     vertex -2.768194e-01 -9.536940e-02  0.000000e+00
     vertex -2.353825e-01 -1.719380e-01  0.000000e+00
     vertex -2.210526e-01 -2.578125e-01  0.000000e+00
   endloop
 endfacet
 facet normal  0.000000e+00  0.000000e+00 -1.000000e+00
   outer loop
     vertex -2.768194e-01 -9.536940e-02  0.000000e+00
     vertex -4.206019e-01 -1.431640e-03  0.000000e+00
     vertex -3.408729e-01 -3.640400e-02  0.000000e+00
   endloop
 endfacet
 facet normal  0.000000e+00  0.000000e+00 -1.000000e+00
   outer loop
     vertex -2.768194e-01 -9.536940e-02  0.000000e+00
     vertex -5.073664e-01  5.757872e-03  0.000000e+00
     vertex -4.206019e-01 -1.431640e-03  0.000000e+00
   endloop
 endfacet
 facet normal  0.000000e+00  0.000000e+00 -1.000000e+00
   outer loop
     vertex -2.768194e-01 -9.536940e-02  0.000000e+00
     vertex -5.917642e-01 -1.561455e-02  0.000000e+00
     vertex -5.073664e-01  5.757872e-03  0.000000e+00
   endloop
 endfacet
 facet normal  0.000000e+00  0.000000e+00 -1.000000e+00
   outer loop
     vertex -2.768194e-01 -9.536940e-02  0.000000e+00
     vertex -7.463929e-01 -2.142816e-01  0.000000e+00
     vertex -7.181240e-01 -1.319369e-01  0.000000e+00
   endloop
 endfacet
 facet normal  0.000000e+00  0.000000e+00 -1.000000e+00
   outer loop
     vertex -2.768194e-01 -9.536940e-02  0.000000e+00
     vertex -7.463929e-01 -3.013434e-01  0.000000e+00
     vertex -7.463929e-01 -2.142816e-01  0.000000e+00
   endloop
 endfacet
 facet normal  0.000000e+00  0.000000e+00 -1.000000e+00
   outer loop
     vertex -2.768194e-01 -9.536940e-02  0.000000e+00
     vertex -7.181240e-01 -3.836881e-01  0.000000e+00
     vertex -7.463929e-01 -3.013434e-01  0.000000e+00
   endloop
 endfacet
 facet normal  0.000000e+00  0.000000e+00 -1.000000e+00
   outer loop
     vertex -2.768194e-01 -9.536940e-02  0.000000e+00
     vertex -6.646495e-01 -4.523921e-01  0.000000e+00
     vertex -7.181240e-01 -3.836881e-01  0.000000e+00
   endloop
 endfacet
 facet normal  0.000000e+00  0.000000e+00 -1.000000e+00
   outer loop
     vertex -2.768194e-01 -9.536940e-02  0.000000e+00
     vertex -5.917642e-01 -5.000104e-01  0.000000e+00
     vertex -6.646495e-01 -4.523921e-01  0.000000e+00
   endloop
 endfacet
 facet normal  0.000000e+00  0.000000e+00 -1.000000e+00
   outer loop
     vertex -2.768194e-01 -9.536940e-02  0.000000e+00
     vertex -5.073664e-01 -5.213829e-01  0.000000e+00
     vertex -5.917642e-01 -5.000104e-01  0.000000e+00
   endloop
 endfacet
 facet normal  0.000000e+00  0.000000e+00 -1.000000e+00
   outer loop
     vertex -2.768194e-01 -9.536940e-02  0.000000e+00
     vertex -4.206019e-01 -5.141934e-01  0.000000e+00
     vertex -5.073664e-01 -5.213829e-01  0.000000e+00
   endloop
 endfacet
 facet normal  0.000000e+00  0.000000e+00 -1.000000e+00
   outer loop
     vertex -2.768194e-01 -9.536940e-02  0.000000e+00
     vertex -3.408729e-01 -4.792210e-01  0.000000e+00
     vertex -4.206019e-01 -5.141934e-01  0.000000e+00
   endloop
 endfacet
 facet normal  0.000000e+00  0.000000e+00 -1.000000e+00
   outer loop
     vertex -2.768194e-01 -9.536940e-02  0.000000e+00
     vertex -2.768194e-01 -4.202556e-01  0.000000e+00
     vertex -3.408729e-01 -4.792210e-01  0.000000e+00
   endloop
 endfacet
 facet normal  0.000000e+00 -0.000000e+00 -1.000000e+00
   outer loop
     vertex -2.768194e-01 -9.536940e-02  0.000000e+00
     vertex -2.353825e-01 -3.436870e-01  0.000000e+00
     vertex -2.768194e-01 -4.202556e-01  0.000000e+00
   endloop
 endfacet
 facet normal  0.000000e+00  0.000000e+00 -1.000000e+00
   outer loop
     vertex -2.768194e-01 -9.536940e-02  0.000000e+00
     vertex -2.210526e-01 -2.578125e-01  0.000000e+00
     vertex -2.353825e-01 -3.436870e-01  0.000000e+00
   endloop
 endfacet
 facet normal -0.000000e+00  0.000000e+00 -1.000000e+00
   outer loop
     vertex -2.768194e-01 -9.536940e-02  0.000000e+00
     vertex -7.181240e-01 -1.319369e-01  0.000000e+00
     vertex -5.917642e-01 -1.561455e-02  0.000000e+00
   endloop
 endfacet
 facet normal  0.000000e+00  0.000000e+00  1.000000e+00
   outer loop
     vertex -5.917642e-01 -1.561455e-02  5.234375e-01
     vertex -6.646495e-01 -6.323289e-02  5.234375e-01
     vertex -7.181240e-01 -1.319369e-01  5.234375e-01
   endloop
 endfacet
 facet normal  0.000000e+00  0.000000e+00  1.000000e+00
   outer loop
     vertex -2.768194e-01 -9.536940e-02  5.234375e-01
     vertex -2.210526e-01 -2.578125e-01  5.234375e-01
     vertex -2.353825e-01 -1.719380e-01  5.234375e-01
   endloop
 endfacet
 facet normal  0.000000e+00  0.000000e+00  1.000000e+00
   outer loop
     vertex -2.768194e-01 -9.536940e-02  5.234375e-01
     vertex -3.408729e-01 -3.640400e-02  5.234375e-01
     vertex -4.206019e-01 -1.431640e-03  5.234375e-01
   endloop
 endfacet
 facet normal  0.000000e+00  0.000000e+00  1.000000e+00
   outer loop
     vertex -2.768194e-01 -9.536940e-02  5.234375e-01
     vertex -4.206019e-01 -1.431640e-03  5.234375e-01
     vertex -5.073664e-01  5.757872e-03  5.234375e-01
   endloop
 endfacet
 facet normal  0.000000e+00  0.000000e+00  1.000000e+00
   outer loop
     vertex -2.768194e-01 -9.536940e-02  5.234375e-01
     vertex -5.073664e-01  5.757872e-03  5.234375e-01
     vertex -5.917642e-01 -1.561455e-02  5.234375e-01
   endloop
 endfacet
 facet normal  0.000000e+00  0.000000e+00  1.000000e+00
   outer loop
     vertex -2.768194e-01 -9.536940e-02  5.234375e-01
     vertex -7.181240e-01 -1.319369e-01  5.234375e-01
     vertex -7.463929e-01 -2.142816e-01  5.234375e-01
   endloop
 endfacet
 facet normal  0.000000e+00  0.000000e+00  1.000000e+00
   outer loop
     vertex -2.768194e-01 -9.536940e-02  5.234375e-01
     vertex -7.463929e-01 -2.142816e-01  5.234375e-01
     vertex -7.463929e-01 -3.013434e-01  5.234375e-01
   endloop
 endfacet
 facet normal  0.000000e+00  0.000000e+00  1.000000e+00
   outer loop
     vertex -2.768194e-01 -9.536940e-02  5.234375e-01
     vertex -7.463929e-01 -3.013434e-01  5.234375e-01
     vertex -7.181240e-01 -3.836881e-01  5.234375e-01
   endloop
 endfacet
 facet normal  0.000000e+00  0.000000e+00  1.000000e+00
   outer loop
     vertex -2.768194e-01 -9.536940e-02  5.234375e-01
     vertex -7.181240e-01 -3.836881e-01  5.234375e-01
     vertex -6.646495e-01 -4.523921e-01  5.234375e-01
   endloop
 endfacet
 facet normal  0.000000e+00  0.000000e+00  1.000000e+00
   outer loop
     vertex -2.768194e-01 -9.536940e-02  5.234375e-01
     vertex -6.646495e-01 -4.523921e-01  5.234375e-01
     vertex -5.917642e-01 -5.000104e-01  5.234375e-01
   endloop
 endfacet
 facet normal  0.000000e+00  0.000000e+00  1.000000e+00
   outer loop
     vertex -2.768194e-01 -9.536940e-02  5.234375e-01
     vertex -5.917642e-01 -5.000104e-01  5.234375e-01
     vertex -5.073664e-01 -5.213829e-01  5.234375e-01
   endloop
 endfacet
 facet normal  0.000000e+00  0.000000e+00  1.000000e+00
   outer loop
     vertex -2.768194e-01 -9.536940e-02  5.234375e-01
     vertex -5.073664e-01 -5.213829e-01  5.234375e-01
     vertex -4.206019e-01 -5.141934e-01  5.234375e-01
   endloop
 endfacet
 facet normal  0.000000e+00  0.000000e+00  1.000000e+00
   outer loop
     vertex -2.768194e-01 -9.536940e-02  5.234375e-01
     vertex -4.206019e-01 -5.141934e-01  5.234375e-01
     vertex -3.408729e-01 -4.792210e-01  5.234375e-01
   endloop
 endfacet
 facet normal  0.000000e+00  0.000000e+00  1.000000e+00
   outer loop
     vertex -2.768194e-01 -9.536940e-02  5.234375e-01
     vertex -3.408729e-01 -4.792210e-01  5.234375e-01
     vertex -2.768194e-01 -4.202556e-01  5.234375e-01
   endloop
 endfacet
 facet normal  0.000000e+00  0.000000e+00  1.000000e+00
   outer loop
     vertex -2.768194e-01 -9.536940e-02  5.234375e-01
     vertex -2.768194e-01 -4.202556e-01  5.234375e-01
     vertex -2.353825e-01 -3.436870e-01  5.234375e-01
   endloop
 endfacet
 facet normal  0.000000e+00  0.000000e+00  1.000000e+00
   outer loop
     vertex -2.768194e-01 -9.536940e-02  5.234375e-01
     vertex -2.353825e-01 -3.436870e-01  5.234375e-01
     vertex -2.210526e-01 -2.578125e-01  5.234375e-01
   endloop
 endfacet
 facet normal  0.000000e+00  0.000000e+00  1.000000e+00
   outer loop
     vertex -2.768194e-01 -9.536940e-02  5.234375e-01
     vertex -5.917642e-01 -1.561455e-02  5.234375e-01
     vertex -7.181240e-01 -1.319369e-01  5.234375e-01
   endloop
 endfacet
endsolid
