solid 
 facet normal  0.000000e+00 -1.000000e+00  0.000000e+00
   outer loop
     vertex  4.453125e-01 -2.421875e-01  0.000000e+00
     vertex -5.312500e-01 -2.421875e-01  7.812500e-03
     vertex -5.312500e-01 -2.421875e-01  0.000000e+00
   endloop
 endfacet
 facet normal  0.000000e+00 -1.000000e+00  0.000000e+00
   outer loop
     vertex  4.453125e-01 -2.421875e-01  0.000000e+00
     vertex  4.453125e-01 -2.421875e-01  7.812500e-03
     vertex -5.312500e-01 -2.421875e-01  7.812500e-03
   endloop
 endfacet
 facet normal  1.000000e+00  0.000000e+00  0.000000e+00
   outer loop
     vertex  4.453125e-01  7.343750e-01  0.000000e+00
     vertex  4.453125e-01 -2.421875e-01  7.812500e-03
     vertex  4.453125e-01 -2.421875e-01  0.000000e+00
   endloop
 endfacet
 facet normal  1.000000e+00  0.000000e+00 -0.000000e+00
   outer loop
     vertex  4.453125e-01  7.343750e-01  0.000000e+00
     vertex  4.453125e-01  7.343750e-01  7.812500e-03
     vertex  4.453125e-01 -2.421875e-01  7.812500e-03
   endloop
 endfacet
 facet normal  0.000000e+00  1.000000e+00  0.000000e+00
   outer loop
     vertex -5.312500e-01  7.343750e-01  0.000000e+00
     vertex  4.453125e-01  7.343750e-01  7.812500e-03
     vertex  4.453125e-01  7.343750e-01  0.000000e+00
   endloop
 endfacet
 facet normal  0.000000e+00  1.000000e+00  0.000000e+00
   outer loop
     vertex -5.312500e-01  7.343750e-01  0.000000e+00
     vertex -5.312500e-01  7.343750e-01  7.812500e-03
     vertex  4.453125e-01  7.343750e-01  7.812500e-03
   endloop
 endfacet
 facet normal -1.000000e+00  0.000000e+00  0.000000e+00
   outer loop
     vertex -5.312500e-01 -2.421875e-01  0.000000e+00
     vertex -5.312500e-01  7.343750e-01  7.812500e-03
     vertex -5.312500e-01  7.343750e-01  0.000000e+00
   endloop
 endfacet
 facet normal -1.000000e+00  0.000000e+00  0.000000e+00
   outer loop
     vertex -5.312500e-01 -2.421875e-01  0.000000e+00
     vertex -5.312500e-01 -2.421875e-01  7.812500e-03
     vertex -5.312500e-01  7.343750e-01  7.812500e-03
   endloop
 endfacet
 facet normal  0.000000e+00 -0.000000e+00 -1.000000e+00
   outer loop
     vertex  4.453125e-01  7.343750e-01  0.000000e+00
     vertex  4.453125e-01 -2.421875e-01  0.000000e+00
     vertex -5.312500e-01 -2.421875e-01  0.000000e+00
   endloop
 endfacet
 facet normal -0.000000e+00  0.000000e+00 -1.000000e+00
   outer loop
     vertex  4.453125e-01  7.343750e-01  0.000000e+00
     vertex -5.312500e-01 -2.421875e-01  0.000000e+00
     vertex -5.312500e-01  7.343750e-01  0.000000e+00
   endloop
 endfacet
 facet normal  0.000000e+00  0.000000e+00  1.000000e+00
   outer loop
     vertex  4.453125e-01  7.343750e-01  7.812500e-03
     vertex -5.312500e-01 -2.421875e-01  7.812500e-03
     vertex  4.453125e-01 -2.421875e-01  7.812500e-03
   endloop
 endfacet
 facet normal  0.000000e+00  0.000000e+00  1.000000e+00
   outer loop
     vertex  4.453125e-01  7.343750e-01  7.812500e-03
     vertex -5.312500e-01  7.343750e-01  7.812500e-03
     vertex -5.312500e-01 -2.421875e-01  7.812500e-03
   endloop
 endfacet
endsolid
