solid 
 facet normal -0.000000e+00  0.000000e+00 -1.000000e+00
   outer loop
     vertex -2.031250e-01  3.348644e-17 -4.687500e-01
     vertex -7.500000e-01  0.000000e+00 -4.687500e-01
     vertex -7.500000e-01  6.250000e-02 -4.687500e-01
   endloop
 endfacet
 facet normal  0.000000e+00  0.000000e+00 -1.000000e+00
   outer loop
     vertex -2.031250e-01  3.348644e-17 -4.687500e-01
     vertex -7.500000e-01  6.250000e-02 -4.687500e-01
     vertex -2.031250e-01  6.250000e-02 -4.687500e-01
   endloop
 endfacet
 facet normal  3.401361e-01  0.000000e+00  9.403762e-01
   outer loop
     vertex -4.736842e-01  2.291177e-17 -3.708882e-01
     vertex -2.031250e-01  3.348644e-17 -4.687500e-01
     vertex -2.031250e-01  6.250000e-02 -4.687500e-01
   endloop
 endfacet
 facet normal  3.401361e-01 -0.000000e+00  9.403762e-01
   outer loop
     vertex -4.736842e-01  2.291177e-17 -3.708882e-01
     vertex -2.031250e-01  6.250000e-02 -4.687500e-01
     vertex -4.736842e-01  6.250000e-02 -3.708882e-01
   endloop
 endfacet
 facet normal -3.338471e-01  0.000000e+00  9.426272e-01
   outer loop
     vertex -7.500000e-01  0.000000e+00 -4.687500e-01
     vertex -4.736842e-01  2.291177e-17 -3.708882e-01
     vertex -4.736842e-01  6.250000e-02 -3.708882e-01
   endloop
 endfacet
 facet normal -3.338471e-01  0.000000e+00  9.426272e-01
   outer loop
     vertex -7.500000e-01  0.000000e+00 -4.687500e-01
     vertex -4.736842e-01  6.250000e-02 -3.708882e-01
     vertex -7.500000e-01  6.250000e-02 -4.687500e-01
   endloop
 endfacet
 facet normal  6.123234e-17 -1.000000e+00  6.123234e-17
   outer loop
     vertex -2.031250e-01  3.348644e-17 -4.687500e-01
     vertex -4.736842e-01  2.291177e-17 -3.708882e-01
     vertex -7.500000e-01  0.000000e+00 -4.687500e-01
   endloop
 endfacet
 facet normal  0.000000e+00  1.000000e+00  0.000000e+00
   outer loop
     vertex -2.031250e-01  6.250000e-02 -4.687500e-01
     vertex -7.500000e-01  6.250000e-02 -4.687500e-01
     vertex -4.736842e-01  6.250000e-02 -3.708882e-01
   endloop
 endfacet
endsolid
