solid 
 facet normal  0.000000e+00  0.000000e+00 -1.000000e+00
   outer loop
     vertex  4.140625e-01  3.683508e-17  1.250000e-01
     vertex -1.875000e-01 -7.578125e-01  1.250000e-01
     vertex -1.875000e-01  0.000000e+00  1.250000e-01
   endloop
 endfacet
 facet normal  0.000000e+00 -0.000000e+00 -1.000000e+00
   outer loop
     vertex  4.140625e-01  3.683508e-17  1.250000e-01
     vertex  4.140625e-01 -7.578125e-01  1.250000e-01
     vertex -1.875000e-01 -7.578125e-01  1.250000e-01
   endloop
 endfacet
 facet normal -1.000000e+00  0.000000e+00  0.000000e+00
   outer loop
     vertex -1.875000e-01  0.000000e+00  1.250000e-01
     vertex -1.875000e-01 -7.578125e-01  4.859375e-01
     vertex -1.875000e-01  2.210105e-17  4.859375e-01
   endloop
 endfacet
 facet normal -1.000000e+00  0.000000e+00  0.000000e+00
   outer loop
     vertex -1.875000e-01  0.000000e+00  1.250000e-01
     vertex -1.875000e-01 -7.578125e-01  1.250000e-01
     vertex -1.875000e-01 -7.578125e-01  4.859375e-01
   endloop
 endfacet
 facet normal  1.000000e+00  0.000000e+00  0.000000e+00
   outer loop
     vertex  4.140625e-01  5.893613e-17  4.859375e-01
     vertex  4.140625e-01 -7.578125e-01  1.250000e-01
     vertex  4.140625e-01  3.683508e-17  1.250000e-01
   endloop
 endfacet
 facet normal  1.000000e+00  0.000000e+00  0.000000e+00
   outer loop
     vertex  4.140625e-01  5.893613e-17  4.859375e-01
     vertex  4.140625e-01 -7.578125e-01  4.859375e-01
     vertex  4.140625e-01 -7.578125e-01  1.250000e-01
   endloop
 endfacet
 facet normal -0.000000e+00  0.000000e+00 -1.000000e+00
   outer loop
     vertex  4.140625e-01  3.683508e-17  1.250000e-01
     vertex -1.875000e-01  0.000000e+00  1.250000e-01
     vertex -1.875000e-01  7.578125e-01  1.250000e-01
   endloop
 endfacet
 facet normal  0.000000e+00  0.000000e+00 -1.000000e+00
   outer loop
     vertex  4.140625e-01  3.683508e-17  1.250000e-01
     vertex -1.875000e-01  7.578125e-01  1.250000e-01
     vertex  4.140625e-01  7.578125e-01  1.250000e-01
   endloop
 endfacet
 facet normal  0.000000e+00 -1.000000e+00 -0.000000e+00
   outer loop
     vertex  4.140625e-01 -7.578125e-01  4.859375e-01
     vertex -1.875000e-01 -7.578125e-01  1.250000e-01
     vertex  4.140625e-01 -7.578125e-01  1.250000e-01
   endloop
 endfacet
 facet normal -0.000000e+00 -1.000000e+00  0.000000e+00
   outer loop
     vertex  4.140625e-01 -7.578125e-01  4.859375e-01
     vertex -1.875000e-01 -7.578125e-01  4.859375e-01
     vertex -1.875000e-01 -7.578125e-01  1.250000e-01
   endloop
 endfacet
 facet normal -0.000000e+00  0.000000e+00  1.000000e+00
   outer loop
     vertex -1.875000e-01  2.210105e-17  4.859375e-01
     vertex  4.140625e-01 -7.578125e-01  4.859375e-01
     vertex  4.140625e-01  5.893613e-17  4.859375e-01
   endloop
 endfacet
 facet normal  0.000000e+00  0.000000e+00  1.000000e+00
   outer loop
     vertex -1.875000e-01  2.210105e-17  4.859375e-01
     vertex -1.875000e-01 -7.578125e-01  4.859375e-01
     vertex  4.140625e-01 -7.578125e-01  4.859375e-01
   endloop
 endfacet
 facet normal -1.000000e+00  0.000000e+00  0.000000e+00
   outer loop
     vertex -1.875000e-01  0.000000e+00  1.250000e-01
     vertex -1.875000e-01  2.210105e-17  4.859375e-01
     vertex -1.875000e-01  7.578125e-01  4.859375e-01
   endloop
 endfacet
 facet normal -1.000000e+00  0.000000e+00  0.000000e+00
   outer loop
     vertex -1.875000e-01  0.000000e+00  1.250000e-01
     vertex -1.875000e-01  7.578125e-01  4.859375e-01
     vertex -1.875000e-01  7.578125e-01  1.250000e-01
   endloop
 endfacet
 facet normal  1.000000e+00  0.000000e+00  0.000000e+00
   outer loop
     vertex  4.140625e-01  5.893613e-17  4.859375e-01
     vertex  4.140625e-01  3.683508e-17  1.250000e-01
     vertex  4.140625e-01  7.578125e-01  1.250000e-01
   endloop
 endfacet
 facet normal  1.000000e+00 -0.000000e+00  0.000000e+00
   outer loop
     vertex  4.140625e-01  5.893613e-17  4.859375e-01
     vertex  4.140625e-01  7.578125e-01  1.250000e-01
     vertex  4.140625e-01  7.578125e-01  4.859375e-01
   endloop
 endfacet
 facet normal  0.000000e+00  1.000000e+00  0.000000e+00
   outer loop
     vertex  4.140625e-01  7.578125e-01  4.859375e-01
     vertex  4.140625e-01  7.578125e-01  1.250000e-01
     vertex -1.875000e-01  7.578125e-01  1.250000e-01
   endloop
 endfacet
 facet normal  0.000000e+00  1.000000e+00  0.000000e+00
   outer loop
     vertex  4.140625e-01  7.578125e-01  4.859375e-01
     vertex -1.875000e-01  7.578125e-01  1.250000e-01
     vertex -1.875000e-01  7.578125e-01  4.859375e-01
   endloop
 endfacet
 facet normal  0.000000e+00  0.000000e+00  1.000000e+00
   outer loop
     vertex -1.875000e-01  2.210105e-17  4.859375e-01
     vertex  4.140625e-01  5.893613e-17  4.859375e-01
     vertex  4.140625e-01  7.578125e-01  4.859375e-01
   endloop
 endfacet
 facet normal  0.000000e+00  0.000000e+00  1.000000e+00
   outer loop
     vertex -1.875000e-01  2.210105e-17  4.859375e-01
     vertex  4.140625e-01  7.578125e-01  4.859375e-01
     vertex -1.875000e-01  7.578125e-01  4.859375e-01
   endloop
 endfacet
endsolid
