solid 
 facet normal  0.000000e+00  0.000000e+00 -1.000000e+00
   outer loop
     vertex -1.015625e-01  2.822428e-17 -4.687500e-01
     vertex -5.625000e-01 -7.500000e-01 -4.687500e-01
     vertex -5.625000e-01  0.000000e+00 -4.687500e-01
   endloop
 endfacet
 facet normal  0.000000e+00 -0.000000e+00 -1.000000e+00
   outer loop
     vertex -1.015625e-01  2.822428e-17 -4.687500e-01
     vertex -1.015625e-01 -7.500000e-01 -4.687500e-01
     vertex -5.625000e-01 -7.500000e-01 -4.687500e-01
   endloop
 endfacet
 facet normal  1.000000e+00  0.000000e+00  0.000000e+00
   outer loop
     vertex -1.015625e-01  5.644856e-17 -7.812500e-03
     vertex -1.015625e-01 -7.500000e-01 -4.687500e-01
     vertex -1.015625e-01  2.822428e-17 -4.687500e-01
   endloop
 endfacet
 facet normal  1.000000e+00  0.000000e+00  0.000000e+00
   outer loop
     vertex -1.015625e-01  5.644856e-17 -7.812500e-03
     vertex -1.015625e-01 -7.500000e-01 -7.812500e-03
     vertex -1.015625e-01 -7.500000e-01 -4.687500e-01
   endloop
 endfacet
 facet normal -0.000000e+00  0.000000e+00  1.000000e+00
   outer loop
     vertex -5.625000e-01  2.822428e-17 -7.812500e-03
     vertex -1.015625e-01 -7.500000e-01 -7.812500e-03
     vertex -1.015625e-01  5.644856e-17 -7.812500e-03
   endloop
 endfacet
 facet normal  0.000000e+00  0.000000e+00  1.000000e+00
   outer loop
     vertex -5.625000e-01  2.822428e-17 -7.812500e-03
     vertex -5.625000e-01 -7.500000e-01 -7.812500e-03
     vertex -1.015625e-01 -7.500000e-01 -7.812500e-03
   endloop
 endfacet
 facet normal -1.000000e+00  0.000000e+00  0.000000e+00
   outer loop
     vertex -5.625000e-01  0.000000e+00 -4.687500e-01
     vertex -5.625000e-01 -7.500000e-01 -7.812500e-03
     vertex -5.625000e-01  2.822428e-17 -7.812500e-03
   endloop
 endfacet
 facet normal -1.000000e+00  0.000000e+00  0.000000e+00
   outer loop
     vertex -5.625000e-01  0.000000e+00 -4.687500e-01
     vertex -5.625000e-01 -7.500000e-01 -4.687500e-01
     vertex -5.625000e-01 -7.500000e-01 -7.812500e-03
   endloop
 endfacet
 facet normal -6.123234e-17  1.000000e+00 -6.123234e-17
   outer loop
     vertex -1.015625e-01  5.644856e-17 -7.812500e-03
     vertex -1.015625e-01  2.822428e-17 -4.687500e-01
     vertex -5.625000e-01  0.000000e+00 -4.687500e-01
   endloop
 endfacet
 facet normal -6.123234e-17  1.000000e+00 -6.123234e-17
   outer loop
     vertex -1.015625e-01  5.644856e-17 -7.812500e-03
     vertex -5.625000e-01  0.000000e+00 -4.687500e-01
     vertex -5.625000e-01  2.822428e-17 -7.812500e-03
   endloop
 endfacet
 facet normal  0.000000e+00 -1.000000e+00 -0.000000e+00
   outer loop
     vertex -1.015625e-01 -7.500000e-01 -7.812500e-03
     vertex -5.625000e-01 -7.500000e-01 -4.687500e-01
     vertex -1.015625e-01 -7.500000e-01 -4.687500e-01
   endloop
 endfacet
 facet normal -0.000000e+00 -1.000000e+00  0.000000e+00
   outer loop
     vertex -1.015625e-01 -7.500000e-01 -7.812500e-03
     vertex -5.625000e-01 -7.500000e-01 -7.812500e-03
     vertex -5.625000e-01 -7.500000e-01 -4.687500e-01
   endloop
 endfacet
endsolid
