solid 
 facet normal  0.000000e+00  0.000000e+00 -1.000000e+00
   outer loop
     vertex  7.187500e-01  8.993500e-17 -2.500000e-01
     vertex -7.500000e-01 -1.718750e-01 -2.500000e-01
     vertex -7.500000e-01  0.000000e+00 -2.500000e-01
   endloop
 endfacet
 facet normal  0.000000e+00 -0.000000e+00 -1.000000e+00
   outer loop
     vertex  7.187500e-01  8.993500e-17 -2.500000e-01
     vertex  7.187500e-01 -1.718750e-01 -2.500000e-01
     vertex -7.500000e-01 -1.718750e-01 -2.500000e-01
   endloop
 endfacet
 facet normal  1.000000e+00  0.000000e+00  0.000000e+00
   outer loop
     vertex  7.187500e-01  1.609363e-16  9.095395e-01
     vertex  7.187500e-01 -1.718750e-01 -2.500000e-01
     vertex  7.187500e-01  8.993500e-17 -2.500000e-01
   endloop
 endfacet
 facet normal  1.000000e+00  0.000000e+00  0.000000e+00
   outer loop
     vertex  7.187500e-01  1.609363e-16  9.095395e-01
     vertex  7.187500e-01 -1.718750e-01  9.095395e-01
     vertex  7.187500e-01 -1.718750e-01 -2.500000e-01
   endloop
 endfacet
 facet normal -0.000000e+00  0.000000e+00  1.000000e+00
   outer loop
     vertex -7.500000e-01  7.100132e-17  9.095395e-01
     vertex  7.187500e-01 -1.718750e-01  9.095395e-01
     vertex  7.187500e-01  1.609363e-16  9.095395e-01
   endloop
 endfacet
 facet normal  0.000000e+00  0.000000e+00  1.000000e+00
   outer loop
     vertex -7.500000e-01  7.100132e-17  9.095395e-01
     vertex -7.500000e-01 -1.718750e-01  9.095395e-01
     vertex  7.187500e-01 -1.718750e-01  9.095395e-01
   endloop
 endfacet
 facet normal -1.000000e+00  0.000000e+00  0.000000e+00
   outer loop
     vertex -7.500000e-01  0.000000e+00 -2.500000e-01
     vertex -7.500000e-01 -1.718750e-01  9.095395e-01
     vertex -7.500000e-01  7.100132e-17  9.095395e-01
   endloop
 endfacet
 facet normal -1.000000e+00  0.000000e+00  0.000000e+00
   outer loop
     vertex -7.500000e-01  0.000000e+00 -2.500000e-01
     vertex -7.500000e-01 -1.718750e-01 -2.500000e-01
     vertex -7.500000e-01 -1.718750e-01  9.095395e-01
   endloop
 endfacet
 facet normal -6.123234e-17  1.000000e+00 -6.123234e-17
   outer loop
     vertex  7.187500e-01  1.609363e-16  9.095395e-01
     vertex  7.187500e-01  8.993500e-17 -2.500000e-01
     vertex -7.500000e-01  0.000000e+00 -2.500000e-01
   endloop
 endfacet
 facet normal -6.123234e-17  1.000000e+00 -6.123234e-17
   outer loop
     vertex  7.187500e-01  1.609363e-16  9.095395e-01
     vertex -7.500000e-01  0.000000e+00 -2.500000e-01
     vertex -7.500000e-01  7.100132e-17  9.095395e-01
   endloop
 endfacet
 facet normal  0.000000e+00 -1.000000e+00 -0.000000e+00
   outer loop
     vertex  7.187500e-01 -1.718750e-01  9.095395e-01
     vertex -7.500000e-01 -1.718750e-01 -2.500000e-01
     vertex  7.187500e-01 -1.718750e-01 -2.500000e-01
   endloop
 endfacet
 facet normal -0.000000e+00 -1.000000e+00  0.000000e+00
   outer loop
     vertex  7.187500e-01 -1.718750e-01  9.095395e-01
     vertex -7.500000e-01 -1.718750e-01  9.095395e-01
     vertex -7.500000e-01 -1.718750e-01 -2.500000e-01
   endloop
 endfacet
endsolid
