solid 
 facet normal  8.090170e-01 -5.877853e-01  0.000000e+00
   outer loop
     vertex  1.659669e-01  2.018041e-01  0.000000e+00
     vertex  2.123355e-01  2.656250e-01  0.000000e+00
     vertex  2.123355e-01  2.656250e-01  3.906250e-02
   endloop
 endfacet
 facet normal  8.090170e-01 -5.877853e-01  0.000000e+00
   outer loop
     vertex  1.659669e-01  2.018041e-01  0.000000e+00
     vertex  2.123355e-01  2.656250e-01  3.906250e-02
     vertex  1.659669e-01  2.018041e-01  3.906250e-02
   endloop
 endfacet
 facet normal -3.090170e-01 -9.510565e-01  0.000000e+00
   outer loop
     vertex  9.094096e-02  2.261815e-01  0.000000e+00
     vertex  1.659669e-01  2.018041e-01  3.906250e-02
     vertex  9.094096e-02  2.261815e-01  3.906250e-02
   endloop
 endfacet
 facet normal -3.090170e-01 -9.510565e-01  0.000000e+00
   outer loop
     vertex  9.094096e-02  2.261815e-01  0.000000e+00
     vertex  1.659669e-01  2.018041e-01  0.000000e+00
     vertex  1.659669e-01  2.018041e-01  3.906250e-02
   endloop
 endfacet
 facet normal -1.000000e+00  0.000000e+00  0.000000e+00
   outer loop
     vertex  9.094096e-02  3.050685e-01  0.000000e+00
     vertex  9.094096e-02  2.261815e-01  3.906250e-02
     vertex  9.094096e-02  3.050685e-01  3.906250e-02
   endloop
 endfacet
 facet normal -1.000000e+00  0.000000e+00  0.000000e+00
   outer loop
     vertex  9.094096e-02  3.050685e-01  0.000000e+00
     vertex  9.094096e-02  2.261815e-01  0.000000e+00
     vertex  9.094096e-02  2.261815e-01  3.906250e-02
   endloop
 endfacet
 facet normal -3.090170e-01  9.510565e-01  0.000000e+00
   outer loop
     vertex  1.659669e-01  3.294459e-01  0.000000e+00
     vertex  9.094096e-02  3.050685e-01  3.906250e-02
     vertex  1.659669e-01  3.294459e-01  3.906250e-02
   endloop
 endfacet
 facet normal -3.090170e-01  9.510565e-01  0.000000e+00
   outer loop
     vertex  1.659669e-01  3.294459e-01  0.000000e+00
     vertex  9.094096e-02  3.050685e-01  0.000000e+00
     vertex  9.094096e-02  3.050685e-01  3.906250e-02
   endloop
 endfacet
 facet normal  8.090170e-01  5.877853e-01 -0.000000e+00
   outer loop
     vertex  2.123355e-01  2.656250e-01  0.000000e+00
     vertex  1.659669e-01  3.294459e-01  3.906250e-02
     vertex  2.123355e-01  2.656250e-01  3.906250e-02
   endloop
 endfacet
 facet normal  8.090170e-01  5.877853e-01  0.000000e+00
   outer loop
     vertex  2.123355e-01  2.656250e-01  0.000000e+00
     vertex  1.659669e-01  3.294459e-01  0.000000e+00
     vertex  1.659669e-01  3.294459e-01  3.906250e-02
   endloop
 endfacet
 facet normal  0.000000e+00  0.000000e+00 -1.000000e+00
   outer loop
     vertex  1.659669e-01  3.294459e-01  0.000000e+00
     vertex  9.094096e-02  2.261815e-01  0.000000e+00
     vertex  9.094096e-02  3.050685e-01  0.000000e+00
   endloop
 endfacet
 facet normal  0.000000e+00  0.000000e+00 -1.000000e+00
   outer loop
     vertex  1.659669e-01  3.294459e-01  0.000000e+00
     vertex  1.659669e-01  2.018041e-01  0.000000e+00
     vertex  9.094096e-02  2.261815e-01  0.000000e+00
   endloop
 endfacet
 facet normal  0.000000e+00 -0.000000e+00 -1.000000e+00
   outer loop
     vertex  1.659669e-01  3.294459e-01  0.000000e+00
     vertex  2.123355e-01  2.656250e-01  0.000000e+00
     vertex  1.659669e-01  2.018041e-01  0.000000e+00
   endloop
 endfacet
 facet normal  0.000000e+00  0.000000e+00  1.000000e+00
   outer loop
     vertex  1.659669e-01  3.294459e-01  3.906250e-02
     vertex  9.094096e-02  3.050685e-01  3.906250e-02
     vertex  9.094096e-02  2.261815e-01  3.906250e-02
   endloop
 endfacet
 facet normal  0.000000e+00  0.000000e+00  1.000000e+00
   outer loop
     vertex  1.659669e-01  3.294459e-01  3.906250e-02
     vertex  9.094096e-02  2.261815e-01  3.906250e-02
     vertex  1.659669e-01  2.018041e-01  3.906250e-02
   endloop
 endfacet
 facet normal  0.000000e+00  0.000000e+00  1.000000e+00
   outer loop
     vertex  1.659669e-01  3.294459e-01  3.906250e-02
     vertex  1.659669e-01  2.018041e-01  3.906250e-02
     vertex  2.123355e-01  2.656250e-01  3.906250e-02
   endloop
 endfacet
 facet normal  8.090170e-01 -5.877853e-01  0.000000e+00
   outer loop
     vertex -2.875901e-01  6.250870e-02  0.000000e+00
     vertex -2.421875e-01  1.250000e-01  0.000000e+00
     vertex -2.421875e-01  1.250000e-01  3.125000e-02
   endloop
 endfacet
 facet normal  8.090170e-01 -5.877853e-01  0.000000e+00
   outer loop
     vertex -2.875901e-01  6.250870e-02  0.000000e+00
     vertex -2.421875e-01  1.250000e-01  3.125000e-02
     vertex -2.875901e-01  6.250870e-02  3.125000e-02
   endloop
 endfacet
 facet normal -3.090170e-01 -9.510565e-01  0.000000e+00
   outer loop
     vertex -3.610530e-01  8.637826e-02  0.000000e+00
     vertex -2.875901e-01  6.250870e-02  3.125000e-02
     vertex -3.610530e-01  8.637826e-02  3.125000e-02
   endloop
 endfacet
 facet normal -3.090170e-01 -9.510565e-01  0.000000e+00
   outer loop
     vertex -3.610530e-01  8.637826e-02  0.000000e+00
     vertex -2.875901e-01  6.250870e-02  0.000000e+00
     vertex -2.875901e-01  6.250870e-02  3.125000e-02
   endloop
 endfacet
 facet normal -1.000000e+00  7.186515e-16  0.000000e+00
   outer loop
     vertex -3.610530e-01  1.636217e-01  0.000000e+00
     vertex -3.610530e-01  8.637826e-02  3.125000e-02
     vertex -3.610530e-01  1.636217e-01  3.125000e-02
   endloop
 endfacet
 facet normal -1.000000e+00  7.186515e-16  0.000000e+00
   outer loop
     vertex -3.610530e-01  1.636217e-01  0.000000e+00
     vertex -3.610530e-01  8.637826e-02  0.000000e+00
     vertex -3.610530e-01  8.637826e-02  3.125000e-02
   endloop
 endfacet
 facet normal -3.090170e-01  9.510565e-01  0.000000e+00
   outer loop
     vertex -2.875901e-01  1.874913e-01  0.000000e+00
     vertex -3.610530e-01  1.636217e-01  3.125000e-02
     vertex -2.875901e-01  1.874913e-01  3.125000e-02
   endloop
 endfacet
 facet normal -3.090170e-01  9.510565e-01  0.000000e+00
   outer loop
     vertex -2.875901e-01  1.874913e-01  0.000000e+00
     vertex -3.610530e-01  1.636217e-01  0.000000e+00
     vertex -3.610530e-01  1.636217e-01  3.125000e-02
   endloop
 endfacet
 facet normal  8.090170e-01  5.877853e-01 -0.000000e+00
   outer loop
     vertex -2.421875e-01  1.250000e-01  0.000000e+00
     vertex -2.875901e-01  1.874913e-01  3.125000e-02
     vertex -2.421875e-01  1.250000e-01  3.125000e-02
   endloop
 endfacet
 facet normal  8.090170e-01  5.877853e-01  0.000000e+00
   outer loop
     vertex -2.421875e-01  1.250000e-01  0.000000e+00
     vertex -2.875901e-01  1.874913e-01  0.000000e+00
     vertex -2.875901e-01  1.874913e-01  3.125000e-02
   endloop
 endfacet
 facet normal  0.000000e+00  0.000000e+00 -1.000000e+00
   outer loop
     vertex -2.875901e-01  1.874913e-01  0.000000e+00
     vertex -3.610530e-01  8.637826e-02  0.000000e+00
     vertex -3.610530e-01  1.636217e-01  0.000000e+00
   endloop
 endfacet
 facet normal  0.000000e+00  0.000000e+00 -1.000000e+00
   outer loop
     vertex -2.875901e-01  1.874913e-01  0.000000e+00
     vertex -2.875901e-01  6.250870e-02  0.000000e+00
     vertex -3.610530e-01  8.637826e-02  0.000000e+00
   endloop
 endfacet
 facet normal  0.000000e+00 -0.000000e+00 -1.000000e+00
   outer loop
     vertex -2.875901e-01  1.874913e-01  0.000000e+00
     vertex -2.421875e-01  1.250000e-01  0.000000e+00
     vertex -2.875901e-01  6.250870e-02  0.000000e+00
   endloop
 endfacet
 facet normal  0.000000e+00  0.000000e+00  1.000000e+00
   outer loop
     vertex -2.875901e-01  1.874913e-01  3.125000e-02
     vertex -3.610530e-01  1.636217e-01  3.125000e-02
     vertex -3.610530e-01  8.637826e-02  3.125000e-02
   endloop
 endfacet
 facet normal  0.000000e+00  0.000000e+00  1.000000e+00
   outer loop
     vertex -2.875901e-01  1.874913e-01  3.125000e-02
     vertex -3.610530e-01  8.637826e-02  3.125000e-02
     vertex -2.875901e-01  6.250870e-02  3.125000e-02
   endloop
 endfacet
 facet normal  0.000000e+00  0.000000e+00  1.000000e+00
   outer loop
     vertex -2.875901e-01  1.874913e-01  3.125000e-02
     vertex -2.875901e-01  6.250870e-02  3.125000e-02
     vertex -2.421875e-01  1.250000e-01  3.125000e-02
   endloop
 endfacet
 facet normal  9.238795e-01 -3.826834e-01  0.000000e+00
   outer loop
     vertex  4.564531e-01 -2.756965e-01  0.000000e+00
     vertex  4.865132e-01 -2.031250e-01  0.000000e+00
     vertex  4.865132e-01 -2.031250e-01  3.125000e-02
   endloop
 endfacet
 facet normal  9.238795e-01 -3.826834e-01  0.000000e+00
   outer loop
     vertex  4.564531e-01 -2.756965e-01  0.000000e+00
     vertex  4.865132e-01 -2.031250e-01  3.125000e-02
     vertex  4.564531e-01 -2.756965e-01  3.125000e-02
   endloop
 endfacet
 facet normal  3.826834e-01 -9.238795e-01  0.000000e+00
   outer loop
     vertex  3.838816e-01 -3.057566e-01  0.000000e+00
     vertex  4.564531e-01 -2.756965e-01  3.125000e-02
     vertex  3.838816e-01 -3.057566e-01  3.125000e-02
   endloop
 endfacet
 facet normal  3.826834e-01 -9.238795e-01  0.000000e+00
   outer loop
     vertex  3.838816e-01 -3.057566e-01  0.000000e+00
     vertex  4.564531e-01 -2.756965e-01  0.000000e+00
     vertex  4.564531e-01 -2.756965e-01  3.125000e-02
   endloop
 endfacet
 facet normal -3.826834e-01 -9.238795e-01  0.000000e+00
   outer loop
     vertex  3.113101e-01 -2.756965e-01  0.000000e+00
     vertex  3.838816e-01 -3.057566e-01  3.125000e-02
     vertex  3.113101e-01 -2.756965e-01  3.125000e-02
   endloop
 endfacet
 facet normal -3.826834e-01 -9.238795e-01  0.000000e+00
   outer loop
     vertex  3.113101e-01 -2.756965e-01  0.000000e+00
     vertex  3.838816e-01 -3.057566e-01  0.000000e+00
     vertex  3.838816e-01 -3.057566e-01  3.125000e-02
   endloop
 endfacet
 facet normal -9.238795e-01 -3.826834e-01  0.000000e+00
   outer loop
     vertex  2.812500e-01 -2.031250e-01  0.000000e+00
     vertex  3.113101e-01 -2.756965e-01  3.125000e-02
     vertex  2.812500e-01 -2.031250e-01  3.125000e-02
   endloop
 endfacet
 facet normal -9.238795e-01 -3.826834e-01  0.000000e+00
   outer loop
     vertex  2.812500e-01 -2.031250e-01  0.000000e+00
     vertex  3.113101e-01 -2.756965e-01  0.000000e+00
     vertex  3.113101e-01 -2.756965e-01  3.125000e-02
   endloop
 endfacet
 facet normal -9.238795e-01  3.826834e-01  0.000000e+00
   outer loop
     vertex  3.113101e-01 -1.305535e-01  0.000000e+00
     vertex  2.812500e-01 -2.031250e-01  3.125000e-02
     vertex  3.113101e-01 -1.305535e-01  3.125000e-02
   endloop
 endfacet
 facet normal -9.238795e-01  3.826834e-01  0.000000e+00
   outer loop
     vertex  3.113101e-01 -1.305535e-01  0.000000e+00
     vertex  2.812500e-01 -2.031250e-01  0.000000e+00
     vertex  2.812500e-01 -2.031250e-01  3.125000e-02
   endloop
 endfacet
 facet normal -3.826834e-01  9.238795e-01  0.000000e+00
   outer loop
     vertex  3.838816e-01 -1.004934e-01  0.000000e+00
     vertex  3.113101e-01 -1.305535e-01  3.125000e-02
     vertex  3.838816e-01 -1.004934e-01  3.125000e-02
   endloop
 endfacet
 facet normal -3.826834e-01  9.238795e-01  0.000000e+00
   outer loop
     vertex  3.838816e-01 -1.004934e-01  0.000000e+00
     vertex  3.113101e-01 -1.305535e-01  0.000000e+00
     vertex  3.113101e-01 -1.305535e-01  3.125000e-02
   endloop
 endfacet
 facet normal  3.826834e-01  9.238795e-01 -0.000000e+00
   outer loop
     vertex  4.564531e-01 -1.305535e-01  0.000000e+00
     vertex  3.838816e-01 -1.004934e-01  3.125000e-02
     vertex  4.564531e-01 -1.305535e-01  3.125000e-02
   endloop
 endfacet
 facet normal  3.826834e-01  9.238795e-01  0.000000e+00
   outer loop
     vertex  4.564531e-01 -1.305535e-01  0.000000e+00
     vertex  3.838816e-01 -1.004934e-01  0.000000e+00
     vertex  3.838816e-01 -1.004934e-01  3.125000e-02
   endloop
 endfacet
 facet normal  9.238795e-01  3.826834e-01 -0.000000e+00
   outer loop
     vertex  4.865132e-01 -2.031250e-01  0.000000e+00
     vertex  4.564531e-01 -1.305535e-01  3.125000e-02
     vertex  4.865132e-01 -2.031250e-01  3.125000e-02
   endloop
 endfacet
 facet normal  9.238795e-01  3.826834e-01  0.000000e+00
   outer loop
     vertex  4.865132e-01 -2.031250e-01  0.000000e+00
     vertex  4.564531e-01 -1.305535e-01  0.000000e+00
     vertex  4.564531e-01 -1.305535e-01  3.125000e-02
   endloop
 endfacet
 facet normal  0.000000e+00  0.000000e+00 -1.000000e+00
   outer loop
     vertex  4.564531e-01 -1.305535e-01  0.000000e+00
     vertex  3.113101e-01 -1.305535e-01  0.000000e+00
     vertex  3.838816e-01 -1.004934e-01  0.000000e+00
   endloop
 endfacet
 facet normal -0.000000e+00  0.000000e+00 -1.000000e+00
   outer loop
     vertex  4.564531e-01 -1.305535e-01  0.000000e+00
     vertex  2.812500e-01 -2.031250e-01  0.000000e+00
     vertex  3.113101e-01 -1.305535e-01  0.000000e+00
   endloop
 endfacet
 facet normal  0.000000e+00  0.000000e+00 -1.000000e+00
   outer loop
     vertex  4.564531e-01 -1.305535e-01  0.000000e+00
     vertex  3.113101e-01 -2.756965e-01  0.000000e+00
     vertex  2.812500e-01 -2.031250e-01  0.000000e+00
   endloop
 endfacet
 facet normal  0.000000e+00  0.000000e+00 -1.000000e+00
   outer loop
     vertex  4.564531e-01 -1.305535e-01  0.000000e+00
     vertex  3.838816e-01 -3.057566e-01  0.000000e+00
     vertex  3.113101e-01 -2.756965e-01  0.000000e+00
   endloop
 endfacet
 facet normal  0.000000e+00  0.000000e+00 -1.000000e+00
   outer loop
     vertex  4.564531e-01 -1.305535e-01  0.000000e+00
     vertex  4.564531e-01 -2.756965e-01  0.000000e+00
     vertex  3.838816e-01 -3.057566e-01  0.000000e+00
   endloop
 endfacet
 facet normal  0.000000e+00 -0.000000e+00 -1.000000e+00
   outer loop
     vertex  4.564531e-01 -1.305535e-01  0.000000e+00
     vertex  4.865132e-01 -2.031250e-01  0.000000e+00
     vertex  4.564531e-01 -2.756965e-01  0.000000e+00
   endloop
 endfacet
 facet normal  0.000000e+00  0.000000e+00  1.000000e+00
   outer loop
     vertex  4.564531e-01 -1.305535e-01  3.125000e-02
     vertex  3.838816e-01 -1.004934e-01  3.125000e-02
     vertex  3.113101e-01 -1.305535e-01  3.125000e-02
   endloop
 endfacet
 facet normal  0.000000e+00  0.000000e+00  1.000000e+00
   outer loop
     vertex  4.564531e-01 -1.305535e-01  3.125000e-02
     vertex  3.113101e-01 -1.305535e-01  3.125000e-02
     vertex  2.812500e-01 -2.031250e-01  3.125000e-02
   endloop
 endfacet
 facet normal  0.000000e+00  0.000000e+00  1.000000e+00
   outer loop
     vertex  4.564531e-01 -1.305535e-01  3.125000e-02
     vertex  2.812500e-01 -2.031250e-01  3.125000e-02
     vertex  3.113101e-01 -2.756965e-01  3.125000e-02
   endloop
 endfacet
 facet normal  0.000000e+00  0.000000e+00  1.000000e+00
   outer loop
     vertex  4.564531e-01 -1.305535e-01  3.125000e-02
     vertex  3.113101e-01 -2.756965e-01  3.125000e-02
     vertex  3.838816e-01 -3.057566e-01  3.125000e-02
   endloop
 endfacet
 facet normal  0.000000e+00  0.000000e+00  1.000000e+00
   outer loop
     vertex  4.564531e-01 -1.305535e-01  3.125000e-02
     vertex  3.838816e-01 -3.057566e-01  3.125000e-02
     vertex  4.564531e-01 -2.756965e-01  3.125000e-02
   endloop
 endfacet
 facet normal  0.000000e+00  0.000000e+00  1.000000e+00
   outer loop
     vertex  4.564531e-01 -1.305535e-01  3.125000e-02
     vertex  4.564531e-01 -2.756965e-01  3.125000e-02
     vertex  4.865132e-01 -2.031250e-01  3.125000e-02
   endloop
 endfacet
endsolid
