solid 
 facet normal  0.000000e+00 -1.000000e+00  0.000000e+00
   outer loop
     vertex  3.789474e-01  0.000000e+00  0.000000e+00
     vertex  0.000000e+00  0.000000e+00  2.343750e-02
     vertex  0.000000e+00  0.000000e+00  0.000000e+00
   endloop
 endfacet
 facet normal  0.000000e+00 -1.000000e+00  0.000000e+00
   outer loop
     vertex  3.789474e-01  0.000000e+00  0.000000e+00
     vertex  3.789474e-01  0.000000e+00  2.343750e-02
     vertex  0.000000e+00  0.000000e+00  2.343750e-02
   endloop
 endfacet
 facet normal -1.000000e+00  2.079953e-14  0.000000e+00
   outer loop
     vertex  0.000000e+00  0.000000e+00  0.000000e+00
     vertex  6.897261e-15  3.316066e-01  2.343750e-02
     vertex  6.897261e-15  3.316066e-01  0.000000e+00
   endloop
 endfacet
 facet normal -1.000000e+00  2.079953e-14  0.000000e+00
   outer loop
     vertex  0.000000e+00  0.000000e+00  0.000000e+00
     vertex  0.000000e+00  0.000000e+00  2.343750e-02
     vertex  6.897261e-15  3.316066e-01  2.343750e-02
   endloop
 endfacet
 facet normal  1.000000e+00  0.000000e+00  0.000000e+00
   outer loop
     vertex  3.789474e-01  3.026535e-01  0.000000e+00
     vertex  3.789474e-01  0.000000e+00  2.343750e-02
     vertex  3.789474e-01  0.000000e+00  0.000000e+00
   endloop
 endfacet
 facet normal  1.000000e+00  0.000000e+00 -0.000000e+00
   outer loop
     vertex  3.789474e-01  3.026535e-01  0.000000e+00
     vertex  3.789474e-01  3.026535e-01  2.343750e-02
     vertex  3.789474e-01  0.000000e+00  2.343750e-02
   endloop
 endfacet
 facet normal -0.000000e+00  0.000000e+00 -1.000000e+00
   outer loop
     vertex  6.841699e-02  2.890261e-01  0.000000e+00
     vertex  0.000000e+00  0.000000e+00  0.000000e+00
     vertex  6.897261e-15  3.316066e-01  0.000000e+00
   endloop
 endfacet
 facet normal -0.000000e+00  0.000000e+00 -1.000000e+00
   outer loop
     vertex  1.450001e-01  2.639460e-01  0.000000e+00
     vertex  0.000000e+00  0.000000e+00  0.000000e+00
     vertex  6.841699e-02  2.890261e-01  0.000000e+00
   endloop
 endfacet
 facet normal  0.000000e+00 -0.000000e+00 -1.000000e+00
   outer loop
     vertex  2.253512e-01  2.578069e-01  0.000000e+00
     vertex  3.789474e-01  0.000000e+00  0.000000e+00
     vertex  0.000000e+00  0.000000e+00  0.000000e+00
   endloop
 endfacet
 facet normal -0.000000e+00  0.000000e+00 -1.000000e+00
   outer loop
     vertex  2.253512e-01  2.578069e-01  0.000000e+00
     vertex  0.000000e+00  0.000000e+00  0.000000e+00
     vertex  1.450001e-01  2.639460e-01  0.000000e+00
   endloop
 endfacet
 facet normal  0.000000e+00 -0.000000e+00 -1.000000e+00
   outer loop
     vertex  3.048556e-01  2.709612e-01  0.000000e+00
     vertex  3.789474e-01  0.000000e+00  0.000000e+00
     vertex  2.253512e-01  2.578069e-01  0.000000e+00
   endloop
 endfacet
 facet normal  0.000000e+00 -0.000000e+00 -1.000000e+00
   outer loop
     vertex  3.789474e-01  3.026535e-01  0.000000e+00
     vertex  3.789474e-01  0.000000e+00  0.000000e+00
     vertex  3.048556e-01  2.709612e-01  0.000000e+00
   endloop
 endfacet
 facet normal  0.000000e+00  0.000000e+00  1.000000e+00
   outer loop
     vertex  6.841699e-02  2.890261e-01  2.343750e-02
     vertex  6.897261e-15  3.316066e-01  2.343750e-02
     vertex  0.000000e+00  0.000000e+00  2.343750e-02
   endloop
 endfacet
 facet normal  0.000000e+00  0.000000e+00  1.000000e+00
   outer loop
     vertex  1.450001e-01  2.639460e-01  2.343750e-02
     vertex  6.841699e-02  2.890261e-01  2.343750e-02
     vertex  0.000000e+00  0.000000e+00  2.343750e-02
   endloop
 endfacet
 facet normal  0.000000e+00  0.000000e+00  1.000000e+00
   outer loop
     vertex  2.253512e-01  2.578069e-01  2.343750e-02
     vertex  0.000000e+00  0.000000e+00  2.343750e-02
     vertex  3.789474e-01  0.000000e+00  2.343750e-02
   endloop
 endfacet
 facet normal  0.000000e+00  0.000000e+00  1.000000e+00
   outer loop
     vertex  2.253512e-01  2.578069e-01  2.343750e-02
     vertex  1.450001e-01  2.639460e-01  2.343750e-02
     vertex  0.000000e+00  0.000000e+00  2.343750e-02
   endloop
 endfacet
 facet normal  0.000000e+00  0.000000e+00  1.000000e+00
   outer loop
     vertex  3.048556e-01  2.709612e-01  2.343750e-02
     vertex  2.253512e-01  2.578069e-01  2.343750e-02
     vertex  3.789474e-01  0.000000e+00  2.343750e-02
   endloop
 endfacet
 facet normal  0.000000e+00  0.000000e+00  1.000000e+00
   outer loop
     vertex  3.789474e-01  3.026535e-01  2.343750e-02
     vertex  3.048556e-01  2.709612e-01  2.343750e-02
     vertex  3.789474e-01  0.000000e+00  2.343750e-02
   endloop
 endfacet
 facet normal -3.932767e-01  9.194202e-01  0.000000e+00
   outer loop
     vertex  3.048556e-01  2.709612e-01  0.000000e+00
     vertex  3.789474e-01  3.026535e-01  2.343750e-02
     vertex  3.789474e-01  3.026535e-01  0.000000e+00
   endloop
 endfacet
 facet normal -3.932767e-01  9.194202e-01  0.000000e+00
   outer loop
     vertex  3.048556e-01  2.709612e-01  0.000000e+00
     vertex  3.048556e-01  2.709612e-01  2.343750e-02
     vertex  3.789474e-01  3.026535e-01  2.343750e-02
   endloop
 endfacet
 facet normal -1.632347e-01  9.865873e-01  0.000000e+00
   outer loop
     vertex  2.253512e-01  2.578069e-01  0.000000e+00
     vertex  2.253512e-01  2.578069e-01  2.343750e-02
     vertex  3.048556e-01  2.709612e-01  2.343750e-02
   endloop
 endfacet
 facet normal -1.632347e-01  9.865873e-01  0.000000e+00
   outer loop
     vertex  2.253512e-01  2.578069e-01  0.000000e+00
     vertex  3.048556e-01  2.709612e-01  2.343750e-02
     vertex  3.048556e-01  2.709612e-01  0.000000e+00
   endloop
 endfacet
 facet normal  7.618196e-02  9.970939e-01 -0.000000e+00
   outer loop
     vertex  1.450001e-01  2.639460e-01  0.000000e+00
     vertex  1.450001e-01  2.639460e-01  2.343750e-02
     vertex  2.253512e-01  2.578069e-01  2.343750e-02
   endloop
 endfacet
 facet normal  7.618196e-02  9.970939e-01  0.000000e+00
   outer loop
     vertex  1.450001e-01  2.639460e-01  0.000000e+00
     vertex  2.253512e-01  2.578069e-01  2.343750e-02
     vertex  2.253512e-01  2.578069e-01  0.000000e+00
   endloop
 endfacet
 facet normal  5.283911e-01  8.490011e-01 -0.000000e+00
   outer loop
     vertex  6.841699e-02  2.890261e-01  0.000000e+00
     vertex  6.897261e-15  3.316066e-01  2.343750e-02
     vertex  6.841699e-02  2.890261e-01  2.343750e-02
   endloop
 endfacet
 facet normal  3.112234e-01  9.503368e-01 -0.000000e+00
   outer loop
     vertex  6.841699e-02  2.890261e-01  0.000000e+00
     vertex  6.841699e-02  2.890261e-01  2.343750e-02
     vertex  1.450001e-01  2.639460e-01  2.343750e-02
   endloop
 endfacet
 facet normal  3.112234e-01  9.503368e-01  0.000000e+00
   outer loop
     vertex  6.841699e-02  2.890261e-01  0.000000e+00
     vertex  1.450001e-01  2.639460e-01  2.343750e-02
     vertex  1.450001e-01  2.639460e-01  0.000000e+00
   endloop
 endfacet
 facet normal  5.283911e-01  8.490011e-01 -0.000000e+00
   outer loop
     vertex  6.897261e-15  3.316066e-01  0.000000e+00
     vertex  6.897261e-15  3.316066e-01  2.343750e-02
     vertex  6.841699e-02  2.890261e-01  0.000000e+00
   endloop
 endfacet
endsolid
