solid 
 facet normal  0.000000e+00  0.000000e+00 -1.000000e+00
   outer loop
     vertex  5.546875e-01  7.988907e-17 -3.359375e-01
     vertex -7.500000e-01 -1.171875e-01 -3.359375e-01
     vertex -7.500000e-01  0.000000e+00 -3.359375e-01
   endloop
 endfacet
 facet normal  0.000000e+00 -0.000000e+00 -1.000000e+00
   outer loop
     vertex  5.546875e-01  7.988907e-17 -3.359375e-01
     vertex  5.546875e-01 -1.171875e-01 -3.359375e-01
     vertex -7.500000e-01 -1.171875e-01 -3.359375e-01
   endloop
 endfacet
 facet normal  1.000000e+00  0.000000e+00  0.000000e+00
   outer loop
     vertex  5.546875e-01  1.328681e-16  5.292763e-01
     vertex  5.546875e-01 -1.171875e-01 -3.359375e-01
     vertex  5.546875e-01  7.988907e-17 -3.359375e-01
   endloop
 endfacet
 facet normal  1.000000e+00  0.000000e+00  0.000000e+00
   outer loop
     vertex  5.546875e-01  1.328681e-16  5.292763e-01
     vertex  5.546875e-01 -1.171875e-01  5.292763e-01
     vertex  5.546875e-01 -1.171875e-01 -3.359375e-01
   endloop
 endfacet
 facet normal -0.000000e+00  0.000000e+00  1.000000e+00
   outer loop
     vertex -7.500000e-01  5.297907e-17  5.292763e-01
     vertex  5.546875e-01 -1.171875e-01  5.292763e-01
     vertex  5.546875e-01  1.328681e-16  5.292763e-01
   endloop
 endfacet
 facet normal  0.000000e+00  0.000000e+00  1.000000e+00
   outer loop
     vertex -7.500000e-01  5.297907e-17  5.292763e-01
     vertex -7.500000e-01 -1.171875e-01  5.292763e-01
     vertex  5.546875e-01 -1.171875e-01  5.292763e-01
   endloop
 endfacet
 facet normal -1.000000e+00  0.000000e+00  0.000000e+00
   outer loop
     vertex -7.500000e-01  0.000000e+00 -3.359375e-01
     vertex -7.500000e-01 -1.171875e-01  5.292763e-01
     vertex -7.500000e-01  5.297907e-17  5.292763e-01
   endloop
 endfacet
 facet normal -1.000000e+00  0.000000e+00  0.000000e+00
   outer loop
     vertex -7.500000e-01  0.000000e+00 -3.359375e-01
     vertex -7.500000e-01 -1.171875e-01 -3.359375e-01
     vertex -7.500000e-01 -1.171875e-01  5.292763e-01
   endloop
 endfacet
 facet normal -6.123234e-17  1.000000e+00 -6.123234e-17
   outer loop
     vertex  5.546875e-01  1.328681e-16  5.292763e-01
     vertex  5.546875e-01  7.988907e-17 -3.359375e-01
     vertex -7.500000e-01  0.000000e+00 -3.359375e-01
   endloop
 endfacet
 facet normal -6.123234e-17  1.000000e+00 -6.123234e-17
   outer loop
     vertex  5.546875e-01  1.328681e-16  5.292763e-01
     vertex -7.500000e-01  0.000000e+00 -3.359375e-01
     vertex -7.500000e-01  5.297907e-17  5.292763e-01
   endloop
 endfacet
 facet normal  0.000000e+00 -1.000000e+00 -0.000000e+00
   outer loop
     vertex  5.546875e-01 -1.171875e-01  5.292763e-01
     vertex -7.500000e-01 -1.171875e-01 -3.359375e-01
     vertex  5.546875e-01 -1.171875e-01 -3.359375e-01
   endloop
 endfacet
 facet normal -0.000000e+00 -1.000000e+00  0.000000e+00
   outer loop
     vertex  5.546875e-01 -1.171875e-01  5.292763e-01
     vertex -7.500000e-01 -1.171875e-01  5.292763e-01
     vertex -7.500000e-01 -1.171875e-01 -3.359375e-01
   endloop
 endfacet
endsolid
