solid 
 facet normal  0.000000e+00 -1.000000e+00  0.000000e+00
   outer loop
     vertex  0.000000e+00 -1.250000e-01 -6.250000e-02
     vertex  1.015625e-01 -1.250000e-01  2.247533e-01
     vertex -2.093783e-17 -1.250000e-01  2.247533e-01
   endloop
 endfacet
 facet normal  0.000000e+00 -1.000000e+00  0.000000e+00
   outer loop
     vertex  0.000000e+00 -1.250000e-01 -6.250000e-02
     vertex  1.015625e-01 -1.250000e-01 -6.250000e-02
     vertex  1.015625e-01 -1.250000e-01  2.247533e-01
   endloop
 endfacet
 facet normal -1.000000e+00  2.242812e-17 -7.288980e-17
   outer loop
     vertex -1.926351e-17 -5.034722e-02  2.247533e-01
     vertex  0.000000e+00 -1.250000e-01 -6.250000e-02
     vertex -2.093783e-17 -1.250000e-01  2.247533e-01
   endloop
 endfacet
 facet normal -1.000000e+00  3.749399e-33 -6.706107e-17
   outer loop
     vertex  1.903992e-33  3.828125e-01 -6.250000e-02
     vertex  0.000000e+00 -1.250000e-01 -6.250000e-02
     vertex -1.926351e-17 -5.034722e-02  2.247533e-01
   endloop
 endfacet
 facet normal  0.000000e+00 -1.000000e+00  0.000000e+00
   outer loop
     vertex  1.015625e-01 -1.250000e-01 -6.250000e-02
     vertex  5.000000e-01 -1.250000e-01  2.247533e-01
     vertex  1.015625e-01 -1.250000e-01  2.247533e-01
   endloop
 endfacet
 facet normal  0.000000e+00 -1.000000e+00  0.000000e+00
   outer loop
     vertex  1.015625e-01 -1.250000e-01 -6.250000e-02
     vertex  5.000000e-01 -1.250000e-01 -1.171875e-01
     vertex  5.000000e-01 -1.250000e-01  2.247533e-01
   endloop
 endfacet
 facet normal  0.000000e+00 -1.000000e+00  0.000000e+00
   outer loop
     vertex  0.000000e+00 -1.250000e-01 -1.171875e-01
     vertex  1.015625e-01 -1.250000e-01 -6.250000e-02
     vertex  0.000000e+00 -1.250000e-01 -6.250000e-02
   endloop
 endfacet
 facet normal  0.000000e+00 -1.000000e+00  0.000000e+00
   outer loop
     vertex  0.000000e+00 -1.250000e-01 -1.171875e-01
     vertex  5.000000e-01 -1.250000e-01 -1.171875e-01
     vertex  1.015625e-01 -1.250000e-01 -6.250000e-02
   endloop
 endfacet
 facet normal  0.000000e+00 -1.000000e+00  0.000000e+00
   outer loop
     vertex -2.093783e-17 -1.250000e-01  2.247533e-01
     vertex  1.015625e-01 -1.250000e-01  2.742599e-01
     vertex -2.062059e-17 -1.250000e-01  2.742599e-01
   endloop
 endfacet
 facet normal  0.000000e+00 -1.000000e+00  0.000000e+00
   outer loop
     vertex -2.093783e-17 -1.250000e-01  2.247533e-01
     vertex  1.015625e-01 -1.250000e-01  2.247533e-01
     vertex  1.015625e-01 -1.250000e-01  2.742599e-01
   endloop
 endfacet
 facet normal -1.000000e+00  2.242812e-17  6.408036e-18
   outer loop
     vertex -1.926351e-17 -5.034722e-02  2.247533e-01
     vertex -2.093783e-17 -1.250000e-01  2.247533e-01
     vertex -2.062059e-17 -1.250000e-01  2.742599e-01
   endloop
 endfacet
 facet normal -1.000000e+00  3.749399e-33  0.000000e+00
   outer loop
     vertex  1.903992e-33  3.828125e-01 -6.250000e-02
     vertex  0.000000e+00 -1.250000e-01 -1.171875e-01
     vertex  0.000000e+00 -1.250000e-01 -6.250000e-02
   endloop
 endfacet
 facet normal -1.000000e+00  3.749399e-33 -1.607105e-44
   outer loop
     vertex  1.903992e-33  3.828125e-01 -6.250000e-02
     vertex  1.933284e-33  3.906250e-01 -1.171875e-01
     vertex  0.000000e+00 -1.250000e-01 -1.171875e-01
   endloop
 endfacet
 facet normal -1.000000e+00 -3.796887e-18 -7.278653e-17
   outer loop
     vertex -2.093783e-17  3.906250e-01  2.247533e-01
     vertex  1.903992e-33  3.828125e-01 -6.250000e-02
     vertex -1.926351e-17 -5.034722e-02  2.247533e-01
   endloop
 endfacet
 facet normal -1.000000e+00 -4.286264e-16 -6.123234e-17
   outer loop
     vertex  1.933284e-33  3.906250e-01 -1.171875e-01
     vertex  1.903992e-33  3.828125e-01 -6.250000e-02
     vertex -2.093783e-17  3.906250e-01  2.247533e-01
   endloop
 endfacet
 facet normal  0.000000e+00 -0.000000e+00 -1.000000e+00
   outer loop
     vertex  1.933284e-33  3.906250e-01 -1.171875e-01
     vertex  5.000000e-01 -1.250000e-01 -1.171875e-01
     vertex  0.000000e+00 -1.250000e-01 -1.171875e-01
   endloop
 endfacet
 facet normal  0.000000e+00  0.000000e+00 -1.000000e+00
   outer loop
     vertex  1.933284e-33  3.906250e-01 -1.171875e-01
     vertex  5.000000e-01  3.906250e-01 -1.171875e-01
     vertex  5.000000e-01 -1.250000e-01 -1.171875e-01
   endloop
 endfacet
 facet normal  1.000000e+00  0.000000e+00  0.000000e+00
   outer loop
     vertex  5.000000e-01  3.906250e-01  2.247533e-01
     vertex  5.000000e-01 -1.250000e-01 -1.171875e-01
     vertex  5.000000e-01  3.906250e-01 -1.171875e-01
   endloop
 endfacet
 facet normal  1.000000e+00  0.000000e+00  0.000000e+00
   outer loop
     vertex  5.000000e-01  3.906250e-01  2.247533e-01
     vertex  5.000000e-01 -1.250000e-01  2.247533e-01
     vertex  5.000000e-01 -1.250000e-01 -1.171875e-01
   endloop
 endfacet
 facet normal  0.000000e+00 -0.000000e+00  1.000000e+00
   outer loop
     vertex  1.015625e-01 -5.034722e-02  2.247533e-01
     vertex  5.000000e-01  3.906250e-01  2.247533e-01
     vertex -2.093783e-17  3.906250e-01  2.247533e-01
   endloop
 endfacet
 facet normal -0.000000e+00  0.000000e+00  1.000000e+00
   outer loop
     vertex  1.015625e-01 -5.034722e-02  2.247533e-01
     vertex  5.000000e-01 -1.250000e-01  2.247533e-01
     vertex  5.000000e-01  3.906250e-01  2.247533e-01
   endloop
 endfacet
 facet normal  0.000000e+00  0.000000e+00  1.000000e+00
   outer loop
     vertex  1.015625e-01 -1.250000e-01  2.247533e-01
     vertex  5.000000e-01 -1.250000e-01  2.247533e-01
     vertex  1.015625e-01 -5.034722e-02  2.247533e-01
   endloop
 endfacet
 facet normal  0.000000e+00 -0.000000e+00  1.000000e+00
   outer loop
     vertex -1.926351e-17 -5.034722e-02  2.247533e-01
     vertex  1.015625e-01 -5.034722e-02  2.247533e-01
     vertex -2.093783e-17  3.906250e-01  2.247533e-01
   endloop
 endfacet
 facet normal  1.000000e+00  0.000000e+00  0.000000e+00
   outer loop
     vertex  1.015625e-01 -5.034722e-02  2.247533e-01
     vertex  1.015625e-01 -1.250000e-01  2.742599e-01
     vertex  1.015625e-01 -1.250000e-01  2.247533e-01
   endloop
 endfacet
 facet normal  0.000000e+00  5.526741e-01  8.333975e-01
   outer loop
     vertex -2.062059e-17 -1.250000e-01  2.742599e-01
     vertex  1.015625e-01 -5.034722e-02  2.247533e-01
     vertex -1.926351e-17 -5.034722e-02  2.247533e-01
   endloop
 endfacet
 facet normal -0.000000e+00  5.526741e-01  8.333975e-01
   outer loop
     vertex -2.062059e-17 -1.250000e-01  2.742599e-01
     vertex  1.015625e-01 -1.250000e-01  2.742599e-01
     vertex  1.015625e-01 -5.034722e-02  2.247533e-01
   endloop
 endfacet
 facet normal  0.000000e+00  1.000000e+00  0.000000e+00
   outer loop
     vertex -2.093783e-17  3.906250e-01  2.247533e-01
     vertex  5.000000e-01  3.906250e-01 -1.171875e-01
     vertex  1.933284e-33  3.906250e-01 -1.171875e-01
   endloop
 endfacet
 facet normal -0.000000e+00  1.000000e+00  0.000000e+00
   outer loop
     vertex -2.093783e-17  3.906250e-01  2.247533e-01
     vertex  5.000000e-01  3.906250e-01  2.247533e-01
     vertex  5.000000e-01  3.906250e-01 -1.171875e-01
   endloop
 endfacet
endsolid
