solid 
 facet normal  0.000000e+00 -1.000000e+00  0.000000e+00
   outer loop
     vertex -4.266972e-01 -2.343750e-01  7.500000e-01
     vertex -4.266972e-01 -2.343750e-01  7.578125e-01
     vertex -5.312500e-01 -2.343750e-01  7.578125e-01
   endloop
 endfacet
 facet normal  0.000000e+00 -1.000000e+00  0.000000e+00
   outer loop
     vertex -5.312500e-01 -2.343750e-01  0.000000e+00
     vertex -4.266972e-01 -2.343750e-01  7.500000e-01
     vertex -5.312500e-01 -2.343750e-01  7.578125e-01
   endloop
 endfacet
 facet normal  0.000000e+00 -1.000000e+00  0.000000e+00
   outer loop
     vertex  7.890625e-01 -2.343750e-01  0.000000e+00
     vertex  7.890625e-01 -2.343750e-01  7.500000e-01
     vertex -4.266972e-01 -2.343750e-01  7.500000e-01
   endloop
 endfacet
 facet normal  0.000000e+00 -1.000000e+00  0.000000e+00
   outer loop
     vertex  7.890625e-01 -2.343750e-01  0.000000e+00
     vertex -4.266972e-01 -2.343750e-01  7.500000e-01
     vertex -5.312500e-01 -2.343750e-01  0.000000e+00
   endloop
 endfacet
 facet normal  0.000000e+00 -0.000000e+00 -1.000000e+00
   outer loop
     vertex  7.890625e-01  1.085938e+00  0.000000e+00
     vertex  7.890625e-01 -2.343750e-01  0.000000e+00
     vertex -5.312500e-01 -2.343750e-01  0.000000e+00
   endloop
 endfacet
 facet normal -0.000000e+00  0.000000e+00 -1.000000e+00
   outer loop
     vertex  7.890625e-01  1.085938e+00  0.000000e+00
     vertex -5.312500e-01 -2.343750e-01  0.000000e+00
     vertex -5.312500e-01  1.085938e+00  0.000000e+00
   endloop
 endfacet
 facet normal  1.000000e+00  0.000000e+00  0.000000e+00
   outer loop
     vertex  7.890625e-01 -2.343750e-01  0.000000e+00
     vertex  7.890625e-01  4.823498e-01  7.500000e-01
     vertex  7.890625e-01 -2.343750e-01  7.500000e-01
   endloop
 endfacet
 facet normal  1.000000e+00  0.000000e+00  0.000000e+00
   outer loop
     vertex  7.890625e-01  1.085938e+00  7.578125e-01
     vertex  7.890625e-01  4.823498e-01  7.578125e-01
     vertex  7.890625e-01  4.823498e-01  7.500000e-01
   endloop
 endfacet
 facet normal  1.000000e+00  0.000000e+00  0.000000e+00
   outer loop
     vertex  7.890625e-01  1.085938e+00  0.000000e+00
     vertex  7.890625e-01  4.823498e-01  7.500000e-01
     vertex  7.890625e-01 -2.343750e-01  0.000000e+00
   endloop
 endfacet
 facet normal  1.000000e+00  0.000000e+00 -0.000000e+00
   outer loop
     vertex  7.890625e-01  1.085938e+00  0.000000e+00
     vertex  7.890625e-01  1.085938e+00  7.578125e-01
     vertex  7.890625e-01  4.823498e-01  7.500000e-01
   endloop
 endfacet
 facet normal -0.000000e+00  0.000000e+00 -1.000000e+00
   outer loop
     vertex  7.890625e-01 -2.343750e-01  7.500000e-01
     vertex -3.524429e-01 -3.840900e-01  7.500000e-01
     vertex -4.266972e-01 -2.343750e-01  7.500000e-01
   endloop
 endfacet
 facet normal  0.000000e+00  0.000000e+00 -1.000000e+00
   outer loop
     vertex  7.890625e-01 -2.343750e-01  7.500000e-01
     vertex -2.456076e-01 -5.125987e-01  7.500000e-01
     vertex -3.524429e-01 -3.840900e-01  7.500000e-01
   endloop
 endfacet
 facet normal  0.000000e+00  0.000000e+00 -1.000000e+00
   outer loop
     vertex  7.890625e-01 -2.343750e-01  7.500000e-01
     vertex -1.119723e-01 -6.129475e-01  7.500000e-01
     vertex -2.456076e-01 -5.125987e-01  7.500000e-01
   endloop
 endfacet
 facet normal  0.000000e+00  0.000000e+00 -1.000000e+00
   outer loop
     vertex  7.890625e-01 -2.343750e-01  7.500000e-01
     vertex  4.123199e-02 -6.797062e-01  7.500000e-01
     vertex -1.119723e-01 -6.129475e-01  7.500000e-01
   endloop
 endfacet
 facet normal  0.000000e+00  0.000000e+00 -1.000000e+00
   outer loop
     vertex  7.890625e-01 -2.343750e-01  7.500000e-01
     vertex  2.057151e-01 -7.092626e-01  7.500000e-01
     vertex  4.123199e-02 -6.797062e-01  7.500000e-01
   endloop
 endfacet
 facet normal  0.000000e+00  0.000000e+00 -1.000000e+00
   outer loop
     vertex  7.890625e-01 -2.343750e-01  7.500000e-01
     vertex  3.725767e-01 -7.000173e-01  7.500000e-01
     vertex  2.057151e-01 -7.092626e-01  7.500000e-01
   endloop
 endfacet
 facet normal  0.000000e+00  0.000000e+00 -1.000000e+00
   outer loop
     vertex  7.890625e-01 -2.343750e-01  7.500000e-01
     vertex  5.327878e-01 -6.524706e-01  7.500000e-01
     vertex  3.725767e-01 -7.000173e-01  7.500000e-01
   endloop
 endfacet
 facet normal  0.000000e+00  0.000000e+00 -1.000000e+00
   outer loop
     vertex  7.890625e-01 -2.343750e-01  7.500000e-01
     vertex  6.776791e-01 -5.691952e-01  7.500000e-01
     vertex  5.327878e-01 -6.524706e-01  7.500000e-01
   endloop
 endfacet
 facet normal  0.000000e+00 -0.000000e+00 -1.000000e+00
   outer loop
     vertex  7.890625e-01 -2.343750e-01  7.500000e-01
     vertex  7.994105e-01 -4.546974e-01  7.500000e-01
     vertex  6.776791e-01 -5.691952e-01  7.500000e-01
   endloop
 endfacet
 facet normal -0.000000e+00  0.000000e+00 -1.000000e+00
   outer loop
     vertex  8.913948e-01 -3.151726e-01  7.500000e-01
     vertex  7.994105e-01 -4.546974e-01  7.500000e-01
     vertex  7.890625e-01 -2.343750e-01  7.500000e-01
   endloop
 endfacet
 facet normal  0.000000e+00  0.000000e+00 -1.000000e+00
   outer loop
     vertex  9.486548e-01 -1.581708e-01  7.500000e-01
     vertex  8.913948e-01 -3.151726e-01  7.500000e-01
     vertex  7.890625e-01 -2.343750e-01  7.500000e-01
   endloop
 endfacet
 facet normal  0.000000e+00  0.000000e+00 -1.000000e+00
   outer loop
     vertex  9.680921e-01  7.812500e-03  7.500000e-01
     vertex  9.486548e-01 -1.581708e-01  7.500000e-01
     vertex  7.890625e-01 -2.343750e-01  7.500000e-01
   endloop
 endfacet
 facet normal  0.000000e+00 -0.000000e+00 -1.000000e+00
   outer loop
     vertex  9.474140e-01  1.789371e-01  7.500000e-01
     vertex  9.680921e-01  7.812500e-03  7.500000e-01
     vertex  7.890625e-01 -2.343750e-01  7.500000e-01
   endloop
 endfacet
 facet normal  0.000000e+00 -0.000000e+00 -1.000000e+00
   outer loop
     vertex  8.865699e-01  3.402108e-01  7.500000e-01
     vertex  9.474140e-01  1.789371e-01  7.500000e-01
     vertex  7.890625e-01 -2.343750e-01  7.500000e-01
   endloop
 endfacet
 facet normal  0.000000e+00  0.000000e+00 -1.000000e+00
   outer loop
     vertex  7.890625e-01  4.823498e-01  7.500000e-01
     vertex  8.865699e-01  3.402108e-01  7.500000e-01
     vertex  7.890625e-01 -2.343750e-01  7.500000e-01
   endloop
 endfacet
 facet normal  9.932131e-01 -1.163089e-01  0.000000e+00
   outer loop
     vertex  9.486548e-01 -1.581708e-01  7.500000e-01
     vertex  9.680921e-01  7.812500e-03  7.500000e-01
     vertex  9.680921e-01  7.812500e-03  1.031250e+00
   endloop
 endfacet
 facet normal  9.927057e-01 -1.205363e-01  2.529906e-03
   outer loop
     vertex  9.486548e-01 -1.581708e-01  7.500000e-01
     vertex  9.680921e-01  7.812500e-03  1.031250e+00
     vertex  9.472161e-01 -1.641169e-01  1.031250e+00
   endloop
 endfacet
 facet normal  9.350051e-01 -3.546007e-01  4.875713e-03
   outer loop
     vertex  8.913948e-01 -3.151726e-01  7.500000e-01
     vertex  9.472161e-01 -1.641169e-01  1.031250e+00
     vertex  8.858013e-01 -3.260544e-01  1.031250e+00
   endloop
 endfacet
 facet normal  9.394665e-01 -3.426321e-01 -2.437900e-03
   outer loop
     vertex  8.913948e-01 -3.151726e-01  7.500000e-01
     vertex  9.486548e-01 -1.581708e-01  7.500000e-01
     vertex  9.472161e-01 -1.641169e-01  1.031250e+00
   endloop
 endfacet
 facet normal  8.229635e-01 -5.680507e-01  7.037226e-03
   outer loop
     vertex  7.994105e-01 -4.546974e-01  7.500000e-01
     vertex  8.858013e-01 -3.260544e-01  1.031250e+00
     vertex  7.874169e-01 -4.685888e-01  1.031250e+00
   endloop
 endfacet
 facet normal  8.348806e-01 -5.504111e-01 -4.691619e-03
   outer loop
     vertex  7.994105e-01 -4.546974e-01  7.500000e-01
     vertex  8.913948e-01 -3.151726e-01  7.500000e-01
     vertex  8.858013e-01 -3.260544e-01  1.031250e+00
   endloop
 endfacet
 facet normal  6.630957e-01 -7.484803e-01  9.014278e-03
   outer loop
     vertex  6.776791e-01 -5.691952e-01  7.500000e-01
     vertex  7.874169e-01 -4.685888e-01  1.031250e+00
     vertex  6.577807e-01 -5.834364e-01  1.031250e+00
   endloop
 endfacet
 facet normal  6.851179e-01 -7.284008e-01 -6.760972e-03
   outer loop
     vertex  6.776791e-01 -5.691952e-01  7.500000e-01
     vertex  7.994105e-01 -4.546974e-01  7.500000e-01
     vertex  7.874169e-01 -4.685888e-01  1.031250e+00
   endloop
 endfacet
 facet normal  4.646960e-01 -8.854043e-01  1.080673e-02
   outer loop
     vertex  5.327878e-01 -6.524706e-01  7.500000e-01
     vertex  6.577807e-01 -5.834364e-01  1.031250e+00
     vertex  5.044267e-01 -6.639229e-01  1.031250e+00
   endloop
 endfacet
 facet normal  4.982853e-01 -8.669700e-01 -8.645801e-03
   outer loop
     vertex  5.327878e-01 -6.524706e-01  7.500000e-01
     vertex  6.776791e-01 -5.691952e-01  7.500000e-01
     vertex  6.577807e-01 -5.834364e-01  1.031250e+00
   endloop
 endfacet
 facet normal  2.392972e-01 -9.708670e-01  1.241446e-02
   outer loop
     vertex  3.725767e-01 -7.000173e-01  7.500000e-01
     vertex  5.044267e-01 -6.639229e-01  1.031250e+00
     vertex  3.362671e-01 -7.053705e-01  1.031250e+00
   endloop
 endfacet
 facet normal  2.844954e-01 -9.586216e-01 -1.034597e-02
   outer loop
     vertex  3.725767e-01 -7.000173e-01  7.500000e-01
     vertex  5.327878e-01 -6.524706e-01  7.500000e-01
     vertex  5.044267e-01 -6.639229e-01  1.031250e+00
   endloop
 endfacet
 facet normal -2.563896e-15 -9.999043e-01  1.383738e-02
   outer loop
     vertex  2.057151e-01 -7.092626e-01  7.500000e-01
     vertex  3.362671e-01 -7.053705e-01  1.031250e+00
     vertex  1.630750e-01 -7.053705e-01  1.031250e+00
   endloop
 endfacet
 facet normal  5.531828e-02 -9.983983e-01 -1.186138e-02
   outer loop
     vertex  2.057151e-01 -7.092626e-01  7.500000e-01
     vertex  3.725767e-01 -7.000173e-01  7.500000e-01
     vertex  3.362671e-01 -7.053705e-01  1.031250e+00
   endloop
 endfacet
 facet normal -2.392885e-01 -9.708315e-01  1.507540e-02
   outer loop
     vertex  4.123199e-02 -6.797062e-01  7.500000e-01
     vertex  1.630750e-01 -7.053705e-01  1.031250e+00
     vertex -5.084564e-03 -6.639229e-01  1.031250e+00
   endloop
 endfacet
 facet normal -1.768445e-01 -9.841504e-01 -1.319192e-02
   outer loop
     vertex  4.123199e-02 -6.797062e-01  7.500000e-01
     vertex  2.057151e-01 -7.092626e-01  7.500000e-01
     vertex  1.630750e-01 -7.053705e-01  1.031250e+00
   endloop
 endfacet
 facet normal -4.646627e-01 -8.853409e-01  1.612845e-02
   outer loop
     vertex -1.119723e-01 -6.129475e-01  7.500000e-01
     vertex -5.084564e-03 -6.639229e-01  1.031250e+00
     vertex -1.584386e-01 -5.834364e-01  1.031250e+00
   endloop
 endfacet
 facet normal -3.994308e-01 -9.166512e-01 -1.433753e-02
   outer loop
     vertex -1.119723e-01 -6.129475e-01  7.500000e-01
     vertex  4.123199e-02 -6.797062e-01  7.500000e-01
     vertex -5.084564e-03 -6.639229e-01  1.031250e+00
   endloop
 endfacet
 facet normal -6.003977e-01 -7.995553e-01 -1.529814e-02
   outer loop
     vertex -2.456076e-01 -5.125987e-01  7.500000e-01
     vertex -1.119723e-01 -6.129475e-01  7.500000e-01
     vertex -1.584386e-01 -5.834364e-01  1.031250e+00
   endloop
 endfacet
 facet normal -6.630269e-01 -7.484026e-01  1.699649e-02
   outer loop
     vertex -2.456076e-01 -5.125987e-01  7.500000e-01
     vertex -1.584386e-01 -5.834364e-01  1.031250e+00
     vertex -2.880748e-01 -4.685888e-01  1.031250e+00
   endloop
 endfacet
 facet normal -7.688727e-01 -6.391998e-01 -1.607370e-02
   outer loop
     vertex -3.524429e-01 -3.840900e-01  7.500000e-01
     vertex -2.456076e-01 -5.125987e-01  7.500000e-01
     vertex -2.880748e-01 -4.685888e-01  1.031250e+00
   endloop
 endfacet
 facet normal -8.228552e-01 -5.679760e-01  1.767947e-02
   outer loop
     vertex -3.524429e-01 -3.840900e-01  7.500000e-01
     vertex -2.880748e-01 -4.685888e-01  1.031250e+00
     vertex -3.864592e-01 -3.260544e-01  1.031250e+00
   endloop
 endfacet
 facet normal -8.960889e-01 -4.435546e-01 -1.685209e-02
   outer loop
     vertex -4.266972e-01 -2.343750e-01  7.578125e-01
     vertex -3.524429e-01 -3.840900e-01  7.500000e-01
     vertex -3.864592e-01 -3.260544e-01  1.031250e+00
   endloop
 endfacet
 facet normal -9.348528e-01 -3.545429e-01  1.869653e-02
   outer loop
     vertex -4.266972e-01 -2.343750e-01  7.578125e-01
     vertex -3.864592e-01 -3.260544e-01  1.031250e+00
     vertex -4.478740e-01 -1.641169e-01  1.031250e+00
   endloop
 endfacet
 facet normal -8.958663e-01 -4.443236e-01  0.000000e+00
   outer loop
     vertex -4.266972e-01 -2.343750e-01  7.500000e-01
     vertex -3.524429e-01 -3.840900e-01  7.500000e-01
     vertex -4.266972e-01 -2.343750e-01  7.578125e-01
   endloop
 endfacet
 facet normal -9.738220e-01 -2.266617e-01 -1.717979e-02
   outer loop
     vertex -4.641259e-01 -7.356758e-02  7.578125e-01
     vertex -4.266972e-01 -2.343750e-01  7.578125e-01
     vertex -4.478740e-01 -1.641169e-01  1.031250e+00
   endloop
 endfacet
 facet normal -9.925281e-01 -1.205147e-01  1.908279e-02
   outer loop
     vertex -4.641259e-01 -7.356758e-02  7.578125e-01
     vertex -4.478740e-01 -1.641169e-01  1.031250e+00
     vertex -4.687500e-01  7.812500e-03  1.031250e+00
   endloop
 endfacet
 facet normal -9.998473e-01  1.643004e-03 -1.739739e-02
   outer loop
     vertex -4.638546e-01  9.153803e-02  7.578125e-01
     vertex -4.641259e-01 -7.356758e-02  7.578125e-01
     vertex -4.687500e-01  7.812500e-03  1.031250e+00
   endloop
 endfacet
 facet normal -9.925272e-01  1.205146e-01  1.913170e-02
   outer loop
     vertex -4.638546e-01  9.153803e-02  7.578125e-01
     vertex -4.687500e-01  7.812500e-03  1.031250e+00
     vertex -4.478740e-01  1.797419e-01  1.031250e+00
   endloop
 endfacet
 facet normal -9.730702e-01  2.298606e-01 -1.727761e-02
   outer loop
     vertex -4.258976e-01  2.522216e-01  7.578125e-01
     vertex -4.638546e-01  9.153803e-02  7.578125e-01
     vertex -4.478740e-01  1.797419e-01  1.031250e+00
   endloop
 endfacet
 facet normal -9.348502e-01  3.545419e-01  1.884325e-02
   outer loop
     vertex -4.258976e-01  2.522216e-01  7.578125e-01
     vertex -4.478740e-01  1.797419e-01  1.031250e+00
     vertex -3.864592e-01  3.416794e-01  1.031250e+00
   endloop
 endfacet
 facet normal -8.949042e-01  4.459413e-01 -1.682045e-02
   outer loop
     vertex -3.522597e-01  3.999964e-01  7.578125e-01
     vertex -4.258976e-01  2.522216e-01  7.578125e-01
     vertex -3.864592e-01  3.416794e-01  1.031250e+00
   endloop
 endfacet
 facet normal -8.228473e-01  5.679705e-01  1.821748e-02
   outer loop
     vertex -3.522597e-01  3.999964e-01  7.578125e-01
     vertex -3.864592e-01  3.416794e-01  1.031250e+00
     vertex -2.880748e-01  4.842138e-01  1.031250e+00
   endloop
 endfacet
 facet normal -7.694752e-01  6.384756e-01 -1.602595e-02
   outer loop
     vertex -2.468301e-01  5.270575e-01  7.578125e-01
     vertex -3.522597e-01  3.999964e-01  7.578125e-01
     vertex -2.880748e-01  4.842138e-01  1.031250e+00
   endloop
 endfacet
 facet normal -6.630239e-01  7.483993e-01  1.725441e-02
   outer loop
     vertex -2.468301e-01  5.270575e-01  7.578125e-01
     vertex -2.880748e-01  4.842138e-01  1.031250e+00
     vertex -1.584386e-01  5.990614e-01  1.031250e+00
   endloop
 endfacet
 facet normal -4.646640e-01  8.853433e-01  1.595413e-02
   outer loop
     vertex -1.151772e-01  6.266942e-01  7.578125e-01
     vertex -1.584386e-01  5.990614e-01  1.031250e+00
     vertex -5.084564e-03  6.795479e-01  1.031250e+00
   endloop
 endfacet
 facet normal -6.034044e-01  7.972962e-01 -1.489417e-02
   outer loop
     vertex -1.151772e-01  6.266942e-01  7.578125e-01
     vertex -2.468301e-01  5.270575e-01  7.578125e-01
     vertex -1.584386e-01  5.990614e-01  1.031250e+00
   endloop
 endfacet
 facet normal -2.392911e-01  9.708423e-01  1.431675e-02
   outer loop
     vertex  3.574549e-02  6.936439e-01  7.578125e-01
     vertex -5.084564e-03  6.795479e-01  1.031250e+00
     vertex  1.630750e-01  7.209955e-01  1.031250e+00
   endloop
 endfacet
 facet normal -4.054591e-01  9.140146e-01 -1.342521e-02
   outer loop
     vertex  3.574549e-02  6.936439e-01  7.578125e-01
     vertex -1.151772e-01  6.266942e-01  7.578125e-01
     vertex -5.084564e-03  6.795479e-01  1.031250e+00
   endloop
 endfacet
 facet normal  0.000000e+00  9.999238e-01  1.234241e-02
   outer loop
     vertex  1.979670e-01  7.243706e-01  7.578125e-01
     vertex  1.630750e-01  7.209955e-01  1.031250e+00
     vertex  3.362671e-01  7.209955e-01  1.031250e+00
   endloop
 endfacet
 facet normal -1.860906e-01  9.824639e-01 -1.161920e-02
   outer loop
     vertex  1.979670e-01  7.243706e-01  7.578125e-01
     vertex  3.574549e-02  6.936439e-01  7.578125e-01
     vertex  1.630750e-01  7.209955e-01  1.031250e+00
   endloop
 endfacet
 facet normal  2.393036e-01  9.708930e-01  1.003132e-02
   outer loop
     vertex  3.629192e-01  7.172515e-01  7.578125e-01
     vertex  3.362671e-01  7.209955e-01  1.031250e+00
     vertex  5.044267e-01  6.795479e-01  1.031250e+00
   endloop
 endfacet
 facet normal  4.311656e-02  9.990251e-01 -9.476328e-03
   outer loop
     vertex  3.629192e-01  7.172515e-01  7.578125e-01
     vertex  1.979670e-01  7.243706e-01  7.578125e-01
     vertex  3.362671e-01  7.209955e-01  1.031250e+00
   endloop
 endfacet
 facet normal  4.647105e-01  8.854319e-01  7.383725e-03
   outer loop
     vertex  5.218902e-01  6.726625e-01  7.578125e-01
     vertex  5.044267e-01  6.795479e-01  1.031250e+00
     vertex  6.577807e-01  5.990614e-01  1.031250e+00
   endloop
 endfacet
 facet normal  2.700562e-01  9.628191e-01 -6.996829e-03
   outer loop
     vertex  5.218902e-01  6.726625e-01  7.578125e-01
     vertex  3.629192e-01  7.172515e-01  7.578125e-01
     vertex  5.044267e-01  6.795479e-01  1.031250e+00
   endloop
 endfacet
 facet normal  6.631162e-01  7.485035e-01  4.399959e-03
   outer loop
     vertex  6.664836e-01  5.929588e-01  7.578125e-01
     vertex  6.577807e-01  5.990614e-01  1.031250e+00
     vertex  7.874169e-01  4.842138e-01  1.031250e+00
   endloop
 endfacet
 facet normal  4.827393e-01  8.757541e-01 -4.181009e-03
   outer loop
     vertex  6.664836e-01  5.929588e-01  7.578125e-01
     vertex  5.218902e-01  6.726625e-01  7.578125e-01
     vertex  6.577807e-01  5.990614e-01  1.031250e+00
   endloop
 endfacet
 facet normal  8.229834e-01  5.680644e-01  1.080433e-03
   outer loop
     vertex  7.890625e-01  4.823498e-01  7.578125e-01
     vertex  7.874169e-01  4.842138e-01  1.031250e+00
     vertex  8.858013e-01  3.416794e-01  1.031250e+00
   endloop
 endfacet
 facet normal  6.699271e-01  7.424261e-01 -1.029248e-03
   outer loop
     vertex  7.890625e-01  4.823498e-01  7.578125e-01
     vertex  6.664836e-01  5.929588e-01  7.578125e-01
     vertex  7.874169e-01  4.842138e-01  1.031250e+00
   endloop
 endfacet
 facet normal  8.246188e-01  5.656888e-01  0.000000e+00
   outer loop
     vertex  8.865699e-01  3.402108e-01  7.500000e-01
     vertex  7.890625e-01  4.823498e-01  7.500000e-01
     vertex  7.890625e-01  4.823498e-01  7.578125e-01
   endloop
 endfacet
 facet normal  9.350160e-01  3.546048e-01  7.036567e-04
   outer loop
     vertex  8.865699e-01  3.402108e-01  7.500000e-01
     vertex  8.858013e-01  3.416794e-01  1.031250e+00
     vertex  9.472161e-01  1.797419e-01  1.031250e+00
   endloop
 endfacet
 facet normal  8.246006e-01  5.657149e-01 -7.004671e-04
   outer loop
     vertex  8.865699e-01  3.402108e-01  7.500000e-01
     vertex  7.890625e-01  4.823498e-01  7.578125e-01
     vertex  8.858013e-01  3.416794e-01  1.031250e+00
   endloop
 endfacet
 facet normal  9.927088e-01  1.205367e-01  3.535161e-04
   outer loop
     vertex  9.474140e-01  1.789371e-01  7.500000e-01
     vertex  9.472161e-01  1.797419e-01  1.031250e+00
     vertex  9.680921e-01  7.812500e-03  1.031250e+00
   endloop
 endfacet
 facet normal  9.356284e-01  3.529863e-01 -3.518285e-04
   outer loop
     vertex  9.474140e-01  1.789371e-01  7.500000e-01
     vertex  8.865699e-01  3.402108e-01  7.500000e-01
     vertex  9.472161e-01  1.797419e-01  1.031250e+00
   endloop
 endfacet
 facet normal  9.927782e-01  1.199640e-01 -0.000000e+00
   outer loop
     vertex  9.680921e-01  7.812500e-03  7.500000e-01
     vertex  9.474140e-01  1.789371e-01  7.500000e-01
     vertex  9.680921e-01  7.812500e-03  1.031250e+00
   endloop
 endfacet
 facet normal  0.000000e+00  0.000000e+00  1.000000e+00
   outer loop
     vertex -4.641259e-01 -7.356758e-02  7.578125e-01
     vertex -5.312500e-01 -2.343750e-01  7.578125e-01
     vertex -4.266972e-01 -2.343750e-01  7.578125e-01
   endloop
 endfacet
 facet normal  0.000000e+00  0.000000e+00  1.000000e+00
   outer loop
     vertex -4.638546e-01  9.153803e-02  7.578125e-01
     vertex -5.312500e-01 -2.343750e-01  7.578125e-01
     vertex -4.641259e-01 -7.356758e-02  7.578125e-01
   endloop
 endfacet
 facet normal  0.000000e+00  0.000000e+00  1.000000e+00
   outer loop
     vertex -5.312500e-01  1.085938e+00  7.578125e-01
     vertex -4.638546e-01  9.153803e-02  7.578125e-01
     vertex -4.258976e-01  2.522216e-01  7.578125e-01
   endloop
 endfacet
 facet normal  0.000000e+00  0.000000e+00  1.000000e+00
   outer loop
     vertex -5.312500e-01  1.085938e+00  7.578125e-01
     vertex -4.258976e-01  2.522216e-01  7.578125e-01
     vertex -3.522597e-01  3.999964e-01  7.578125e-01
   endloop
 endfacet
 facet normal  0.000000e+00  0.000000e+00  1.000000e+00
   outer loop
     vertex -5.312500e-01  1.085938e+00  7.578125e-01
     vertex -3.522597e-01  3.999964e-01  7.578125e-01
     vertex -2.468301e-01  5.270575e-01  7.578125e-01
   endloop
 endfacet
 facet normal  0.000000e+00  0.000000e+00  1.000000e+00
   outer loop
     vertex -5.312500e-01  1.085938e+00  7.578125e-01
     vertex -2.468301e-01  5.270575e-01  7.578125e-01
     vertex -1.151772e-01  6.266942e-01  7.578125e-01
   endloop
 endfacet
 facet normal  0.000000e+00  0.000000e+00  1.000000e+00
   outer loop
     vertex  3.574549e-02  6.936439e-01  7.578125e-01
     vertex -5.312500e-01  1.085938e+00  7.578125e-01
     vertex -1.151772e-01  6.266942e-01  7.578125e-01
   endloop
 endfacet
 facet normal  0.000000e+00  0.000000e+00  1.000000e+00
   outer loop
     vertex  1.979670e-01  7.243706e-01  7.578125e-01
     vertex -5.312500e-01  1.085938e+00  7.578125e-01
     vertex  3.574549e-02  6.936439e-01  7.578125e-01
   endloop
 endfacet
 facet normal  0.000000e+00  0.000000e+00  1.000000e+00
   outer loop
     vertex  7.890625e-01  1.085938e+00  7.578125e-01
     vertex  1.979670e-01  7.243706e-01  7.578125e-01
     vertex  3.629192e-01  7.172515e-01  7.578125e-01
   endloop
 endfacet
 facet normal  0.000000e+00  0.000000e+00  1.000000e+00
   outer loop
     vertex  7.890625e-01  1.085938e+00  7.578125e-01
     vertex  3.629192e-01  7.172515e-01  7.578125e-01
     vertex  5.218902e-01  6.726625e-01  7.578125e-01
   endloop
 endfacet
 facet normal  0.000000e+00  0.000000e+00  1.000000e+00
   outer loop
     vertex  7.890625e-01  1.085938e+00  7.578125e-01
     vertex  5.218902e-01  6.726625e-01  7.578125e-01
     vertex  6.664836e-01  5.929588e-01  7.578125e-01
   endloop
 endfacet
 facet normal  0.000000e+00  0.000000e+00  1.000000e+00
   outer loop
     vertex  7.890625e-01  1.085938e+00  7.578125e-01
     vertex  6.664836e-01  5.929588e-01  7.578125e-01
     vertex  7.890625e-01  4.823498e-01  7.578125e-01
   endloop
 endfacet
 facet normal  0.000000e+00  0.000000e+00  1.000000e+00
   outer loop
     vertex  7.890625e-01  1.085938e+00  7.578125e-01
     vertex -5.312500e-01  1.085938e+00  7.578125e-01
     vertex  1.979670e-01  7.243706e-01  7.578125e-01
   endloop
 endfacet
 facet normal  0.000000e+00  0.000000e+00  1.000000e+00
   outer loop
     vertex -5.312500e-01  1.085938e+00  7.578125e-01
     vertex -5.312500e-01 -2.343750e-01  7.578125e-01
     vertex -4.638546e-01  9.153803e-02  7.578125e-01
   endloop
 endfacet
 facet normal -1.000000e+00  0.000000e+00  0.000000e+00
   outer loop
     vertex -5.312500e-01 -2.343750e-01  0.000000e+00
     vertex -5.312500e-01  1.085938e+00  7.578125e-01
     vertex -5.312500e-01  1.085938e+00  0.000000e+00
   endloop
 endfacet
 facet normal -1.000000e+00  0.000000e+00  0.000000e+00
   outer loop
     vertex -5.312500e-01 -2.343750e-01  0.000000e+00
     vertex -5.312500e-01 -2.343750e-01  7.578125e-01
     vertex -5.312500e-01  1.085938e+00  7.578125e-01
   endloop
 endfacet
 facet normal  0.000000e+00  1.000000e+00  0.000000e+00
   outer loop
     vertex -5.312500e-01  1.085938e+00  0.000000e+00
     vertex  7.890625e-01  1.085938e+00  7.578125e-01
     vertex  7.890625e-01  1.085938e+00  0.000000e+00
   endloop
 endfacet
 facet normal  0.000000e+00  1.000000e+00  0.000000e+00
   outer loop
     vertex -5.312500e-01  1.085938e+00  0.000000e+00
     vertex -5.312500e-01  1.085938e+00  7.578125e-01
     vertex  7.890625e-01  1.085938e+00  7.578125e-01
   endloop
 endfacet
 facet normal  0.000000e+00  0.000000e+00  1.000000e+00
   outer loop
     vertex -4.478740e-01  1.797419e-01  1.031250e+00
     vertex -4.687500e-01  7.812500e-03  1.031250e+00
     vertex -4.478740e-01 -1.641169e-01  1.031250e+00
   endloop
 endfacet
 facet normal  0.000000e+00  0.000000e+00  1.000000e+00
   outer loop
     vertex  8.858013e-01 -3.260544e-01  1.031250e+00
     vertex  5.044267e-01 -6.639229e-01  1.031250e+00
     vertex  6.577807e-01 -5.834364e-01  1.031250e+00
   endloop
 endfacet
 facet normal  0.000000e+00  0.000000e+00  1.000000e+00
   outer loop
     vertex  8.858013e-01 -3.260544e-01  1.031250e+00
     vertex  6.577807e-01 -5.834364e-01  1.031250e+00
     vertex  7.874169e-01 -4.685888e-01  1.031250e+00
   endloop
 endfacet
 facet normal  0.000000e+00  0.000000e+00  1.000000e+00
   outer loop
     vertex  9.472161e-01 -1.641169e-01  1.031250e+00
     vertex  5.044267e-01 -6.639229e-01  1.031250e+00
     vertex  8.858013e-01 -3.260544e-01  1.031250e+00
   endloop
 endfacet
 facet normal  0.000000e+00  0.000000e+00  1.000000e+00
   outer loop
     vertex  9.680921e-01  7.812500e-03  1.031250e+00
     vertex -2.880748e-01 -4.685888e-01  1.031250e+00
     vertex -1.584386e-01 -5.834364e-01  1.031250e+00
   endloop
 endfacet
 facet normal  0.000000e+00  0.000000e+00  1.000000e+00
   outer loop
     vertex  9.680921e-01  7.812500e-03  1.031250e+00
     vertex -1.584386e-01 -5.834364e-01  1.031250e+00
     vertex -5.084564e-03 -6.639229e-01  1.031250e+00
   endloop
 endfacet
 facet normal  0.000000e+00  0.000000e+00  1.000000e+00
   outer loop
     vertex  9.680921e-01  7.812500e-03  1.031250e+00
     vertex -5.084564e-03 -6.639229e-01  1.031250e+00
     vertex  1.630750e-01 -7.053705e-01  1.031250e+00
   endloop
 endfacet
 facet normal  0.000000e+00  0.000000e+00  1.000000e+00
   outer loop
     vertex  9.680921e-01  7.812500e-03  1.031250e+00
     vertex  1.630750e-01 -7.053705e-01  1.031250e+00
     vertex  3.362671e-01 -7.053705e-01  1.031250e+00
   endloop
 endfacet
 facet normal  0.000000e+00  0.000000e+00  1.000000e+00
   outer loop
     vertex  9.680921e-01  7.812500e-03  1.031250e+00
     vertex  3.362671e-01 -7.053705e-01  1.031250e+00
     vertex  5.044267e-01 -6.639229e-01  1.031250e+00
   endloop
 endfacet
 facet normal  0.000000e+00  0.000000e+00  1.000000e+00
   outer loop
     vertex  9.680921e-01  7.812500e-03  1.031250e+00
     vertex  5.044267e-01 -6.639229e-01  1.031250e+00
     vertex  9.472161e-01 -1.641169e-01  1.031250e+00
   endloop
 endfacet
 facet normal  0.000000e+00  0.000000e+00  1.000000e+00
   outer loop
     vertex  5.044267e-01  6.795479e-01  1.031250e+00
     vertex  3.362671e-01  7.209955e-01  1.031250e+00
     vertex  1.630750e-01  7.209955e-01  1.031250e+00
   endloop
 endfacet
 facet normal  0.000000e+00  0.000000e+00  1.000000e+00
   outer loop
     vertex  5.044267e-01  6.795479e-01  1.031250e+00
     vertex  1.630750e-01  7.209955e-01  1.031250e+00
     vertex -5.084564e-03  6.795479e-01  1.031250e+00
   endloop
 endfacet
 facet normal  0.000000e+00  0.000000e+00  1.000000e+00
   outer loop
     vertex  7.874169e-01  4.842138e-01  1.031250e+00
     vertex  9.680921e-01  7.812500e-03  1.031250e+00
     vertex  9.472161e-01  1.797419e-01  1.031250e+00
   endloop
 endfacet
 facet normal  0.000000e+00  0.000000e+00  1.000000e+00
   outer loop
     vertex  7.874169e-01  4.842138e-01  1.031250e+00
     vertex  9.472161e-01  1.797419e-01  1.031250e+00
     vertex  8.858013e-01  3.416794e-01  1.031250e+00
   endloop
 endfacet
 facet normal  0.000000e+00  0.000000e+00  1.000000e+00
   outer loop
     vertex  7.874169e-01  4.842138e-01  1.031250e+00
     vertex  6.577807e-01  5.990614e-01  1.031250e+00
     vertex  5.044267e-01  6.795479e-01  1.031250e+00
   endloop
 endfacet
 facet normal  0.000000e+00  0.000000e+00  1.000000e+00
   outer loop
     vertex  7.874169e-01  4.842138e-01  1.031250e+00
     vertex -5.084564e-03  6.795479e-01  1.031250e+00
     vertex -1.584386e-01  5.990614e-01  1.031250e+00
   endloop
 endfacet
 facet normal  0.000000e+00  0.000000e+00  1.000000e+00
   outer loop
     vertex  7.874169e-01  4.842138e-01  1.031250e+00
     vertex -1.584386e-01  5.990614e-01  1.031250e+00
     vertex -2.880748e-01  4.842138e-01  1.031250e+00
   endloop
 endfacet
 facet normal  0.000000e+00  0.000000e+00  1.000000e+00
   outer loop
     vertex  7.874169e-01  4.842138e-01  1.031250e+00
     vertex -2.880748e-01  4.842138e-01  1.031250e+00
     vertex -3.864592e-01  3.416794e-01  1.031250e+00
   endloop
 endfacet
 facet normal  0.000000e+00  0.000000e+00  1.000000e+00
   outer loop
     vertex  7.874169e-01  4.842138e-01  1.031250e+00
     vertex -3.864592e-01  3.416794e-01  1.031250e+00
     vertex -4.478740e-01  1.797419e-01  1.031250e+00
   endloop
 endfacet
 facet normal  0.000000e+00  0.000000e+00  1.000000e+00
   outer loop
     vertex  7.874169e-01  4.842138e-01  1.031250e+00
     vertex -4.478740e-01 -1.641169e-01  1.031250e+00
     vertex -3.864592e-01 -3.260544e-01  1.031250e+00
   endloop
 endfacet
 facet normal  0.000000e+00  0.000000e+00  1.000000e+00
   outer loop
     vertex  7.874169e-01  4.842138e-01  1.031250e+00
     vertex -3.864592e-01 -3.260544e-01  1.031250e+00
     vertex -2.880748e-01 -4.685888e-01  1.031250e+00
   endloop
 endfacet
 facet normal  0.000000e+00  0.000000e+00  1.000000e+00
   outer loop
     vertex  7.874169e-01  4.842138e-01  1.031250e+00
     vertex -4.478740e-01  1.797419e-01  1.031250e+00
     vertex -4.478740e-01 -1.641169e-01  1.031250e+00
   endloop
 endfacet
 facet normal  0.000000e+00  0.000000e+00  1.000000e+00
   outer loop
     vertex  7.874169e-01  4.842138e-01  1.031250e+00
     vertex -2.880748e-01 -4.685888e-01  1.031250e+00
     vertex  9.680921e-01  7.812500e-03  1.031250e+00
   endloop
 endfacet
 facet normal  0.000000e+00  0.000000e+00  1.000000e+00
   outer loop
     vertex  7.874169e-01  4.842138e-01  1.031250e+00
     vertex  5.044267e-01  6.795479e-01  1.031250e+00
     vertex -5.084564e-03  6.795479e-01  1.031250e+00
   endloop
 endfacet
endsolid
