solid 
 facet normal  0.000000e+00  0.000000e+00 -1.000000e+00
   outer loop
     vertex  0.000000e+00  4.592425e-17 -2.968750e-01
     vertex -7.500000e-01 -3.750000e-01 -2.968750e-01
     vertex -7.500000e-01  0.000000e+00 -2.968750e-01
   endloop
 endfacet
 facet normal  0.000000e+00 -0.000000e+00 -1.000000e+00
   outer loop
     vertex  0.000000e+00  4.592425e-17 -2.968750e-01
     vertex  2.296213e-17 -3.750000e-01 -2.968750e-01
     vertex -7.500000e-01 -3.750000e-01 -2.968750e-01
   endloop
 endfacet
 facet normal -1.000000e+00  0.000000e+00  0.000000e+00
   outer loop
     vertex -7.500000e-01  0.000000e+00 -2.968750e-01
     vertex -7.500000e-01 -3.750000e-01  8.207237e-02
     vertex -7.500000e-01  2.320383e-17  8.207237e-02
   endloop
 endfacet
 facet normal -1.000000e+00  0.000000e+00  0.000000e+00
   outer loop
     vertex -7.500000e-01  0.000000e+00 -2.968750e-01
     vertex -7.500000e-01 -3.750000e-01 -2.968750e-01
     vertex -7.500000e-01 -3.750000e-01  8.207237e-02
   endloop
 endfacet
 facet normal  0.000000e+00 -0.000000e+00 -1.000000e+00
   outer loop
     vertex  2.296213e-17 -3.750000e-01 -2.968750e-01
     vertex  7.734375e-01 -5.390625e-01 -2.968750e-01
     vertex  0.000000e+00 -5.390625e-01 -2.968750e-01
   endloop
 endfacet
 facet normal  0.000000e+00  0.000000e+00 -1.000000e+00
   outer loop
     vertex  0.000000e+00  4.592425e-17 -2.968750e-01
     vertex  7.734375e-01  2.343750e-01 -2.968750e-01
     vertex  7.734375e-01 -5.390625e-01 -2.968750e-01
   endloop
 endfacet
 facet normal  0.000000e+00  0.000000e+00 -1.000000e+00
   outer loop
     vertex  0.000000e+00  4.592425e-17 -2.968750e-01
     vertex  7.734375e-01 -5.390625e-01 -2.968750e-01
     vertex  2.296213e-17 -3.750000e-01 -2.968750e-01
   endloop
 endfacet
 facet normal  0.000000e+00 -0.000000e+00 -1.000000e+00
   outer loop
     vertex  2.899926e-33  2.343750e-01 -2.968750e-01
     vertex  7.734375e-01  2.343750e-01 -2.968750e-01
     vertex  0.000000e+00  4.592425e-17 -2.968750e-01
   endloop
 endfacet
 facet normal -6.123234e-17  1.000000e+00 -4.821530e-17
   outer loop
     vertex -8.338878e-18  5.905658e-17 -2.450658e-02
     vertex  0.000000e+00  4.592425e-17 -2.968750e-01
     vertex -7.500000e-01  0.000000e+00 -2.968750e-01
   endloop
 endfacet
 facet normal -5.650510e-17  1.000000e+00 -6.123234e-17
   outer loop
     vertex -8.338878e-18  5.905658e-17 -2.450658e-02
     vertex -7.500000e-01  0.000000e+00 -2.968750e-01
     vertex -7.500000e-01  2.320383e-17  8.207237e-02
   endloop
 endfacet
 facet normal -6.123234e-17  1.000000e+00 -9.449810e-17
   outer loop
     vertex  0.000000e+00  6.912809e-17  8.207237e-02
     vertex -8.338878e-18  5.905658e-17 -2.450658e-02
     vertex -7.500000e-01  2.320383e-17  8.207237e-02
   endloop
 endfacet
 facet normal  0.000000e+00 -1.000000e+00 -0.000000e+00
   outer loop
     vertex  8.943144e-18 -3.750000e-01 -2.139803e-01
     vertex -7.500000e-01 -3.750000e-01 -2.968750e-01
     vertex  2.296213e-17 -3.750000e-01 -2.968750e-01
   endloop
 endfacet
 facet normal -0.000000e+00 -1.000000e+00  0.000000e+00
   outer loop
     vertex  8.943144e-18 -3.750000e-01 -2.139803e-01
     vertex -7.500000e-01 -3.750000e-01  8.207237e-02
     vertex -7.500000e-01 -3.750000e-01 -2.968750e-01
   endloop
 endfacet
 facet normal -0.000000e+00 -1.000000e+00  0.000000e+00
   outer loop
     vertex  2.296213e-17 -3.750000e-01  8.207237e-02
     vertex -7.500000e-01 -3.750000e-01  8.207237e-02
     vertex  8.943144e-18 -3.750000e-01 -2.139803e-01
   endloop
 endfacet
 facet normal -0.000000e+00  0.000000e+00  1.000000e+00
   outer loop
     vertex -7.500000e-01  2.320383e-17  8.207237e-02
     vertex  2.296213e-17 -3.750000e-01  8.207237e-02
     vertex  0.000000e+00  6.912809e-17  8.207237e-02
   endloop
 endfacet
 facet normal  0.000000e+00  0.000000e+00  1.000000e+00
   outer loop
     vertex -7.500000e-01  2.320383e-17  8.207237e-02
     vertex -7.500000e-01 -3.750000e-01  8.207237e-02
     vertex  2.296213e-17 -3.750000e-01  8.207237e-02
   endloop
 endfacet
 facet normal  0.000000e+00 -4.509677e-01  8.925403e-01
   outer loop
     vertex -8.338878e-18  5.905658e-17 -2.450658e-02
     vertex  7.734375e-01  2.343750e-01  9.391447e-02
     vertex -2.392895e-17  2.343750e-01  9.391447e-02
   endloop
 endfacet
 facet normal -1.449425e-15 -4.509677e-01  8.925403e-01
   outer loop
     vertex -8.338878e-18  5.905658e-17 -2.450658e-02
     vertex  7.734375e-01 -5.390625e-01 -2.968750e-01
     vertex  7.734375e-01  2.343750e-01  9.391447e-02
   endloop
 endfacet
 facet normal -1.738252e-13 -4.509677e-01  8.925403e-01
   outer loop
     vertex  8.943144e-18 -3.750000e-01 -2.139803e-01
     vertex  7.734375e-01 -5.390625e-01 -2.968750e-01
     vertex -8.338878e-18  5.905658e-17 -2.450658e-02
   endloop
 endfacet
 facet normal  0.000000e+00 -4.509677e-01  8.925403e-01
   outer loop
     vertex  0.000000e+00 -5.390625e-01 -2.968750e-01
     vertex  7.734375e-01 -5.390625e-01 -2.968750e-01
     vertex  8.943144e-18 -3.750000e-01 -2.139803e-01
   endloop
 endfacet
 facet normal  0.000000e+00  1.000000e+00  0.000000e+00
   outer loop
     vertex -2.392895e-17  2.343750e-01  9.391447e-02
     vertex  7.734375e-01  2.343750e-01 -2.968750e-01
     vertex  2.899926e-33  2.343750e-01 -2.968750e-01
   endloop
 endfacet
 facet normal -0.000000e+00  1.000000e+00  0.000000e+00
   outer loop
     vertex -2.392895e-17  2.343750e-01  9.391447e-02
     vertex  7.734375e-01  2.343750e-01  9.391447e-02
     vertex  7.734375e-01  2.343750e-01 -2.968750e-01
   endloop
 endfacet
 facet normal -1.000000e+00  1.399596e-16 -1.691179e-16
   outer loop
     vertex  8.943144e-18 -3.750000e-01 -2.139803e-01
     vertex  2.296213e-17 -3.750000e-01 -2.968750e-01
     vertex  0.000000e+00 -5.390625e-01 -2.968750e-01
   endloop
 endfacet
 facet normal -1.000000e+00  1.206792e-32 -3.061617e-17
   outer loop
     vertex -8.338878e-18  5.905658e-17 -2.450658e-02
     vertex  2.899926e-33  2.343750e-01 -2.968750e-01
     vertex  0.000000e+00  4.592425e-17 -2.968750e-01
   endloop
 endfacet
 facet normal -1.000000e+00 -3.557921e-17 -6.123234e-17
   outer loop
     vertex -2.392895e-17  2.343750e-01  9.391447e-02
     vertex  2.899926e-33  2.343750e-01 -2.968750e-01
     vertex -8.338878e-18  5.905658e-17 -2.450658e-02
   endloop
 endfacet
 facet normal  1.000000e+00  0.000000e+00  0.000000e+00
   outer loop
     vertex  7.734375e-01  2.343750e-01  9.391447e-02
     vertex  7.734375e-01 -5.390625e-01 -2.968750e-01
     vertex  7.734375e-01  2.343750e-01 -2.968750e-01
   endloop
 endfacet
 facet normal  1.000000e+00  7.001112e-17 -4.735301e-17
   outer loop
     vertex -8.338878e-18  5.905658e-17 -2.450658e-02
     vertex  2.296213e-17 -3.750000e-01  8.207237e-02
     vertex  8.943144e-18 -3.750000e-01 -2.139803e-01
   endloop
 endfacet
 facet normal  1.000000e+00  6.123234e-17 -7.824132e-17
   outer loop
     vertex  0.000000e+00  6.912809e-17  8.207237e-02
     vertex  2.296213e-17 -3.750000e-01  8.207237e-02
     vertex -8.338878e-18  5.905658e-17 -2.450658e-02
   endloop
 endfacet
endsolid
