solid 
 facet normal  0.000000e+00 -1.000000e+00  0.000000e+00
   outer loop
     vertex  5.468750e-01 -2.343750e-02  0.000000e+00
     vertex -2.031250e-01 -2.343750e-02  2.968750e-01
     vertex -2.031250e-01 -2.343750e-02  0.000000e+00
   endloop
 endfacet
 facet normal  0.000000e+00 -1.000000e+00  0.000000e+00
   outer loop
     vertex  5.468750e-01 -2.343750e-02  0.000000e+00
     vertex  5.468750e-01 -2.343750e-02  2.968750e-01
     vertex -2.031250e-01 -2.343750e-02  2.968750e-01
   endloop
 endfacet
 facet normal  1.000000e+00  0.000000e+00  0.000000e+00
   outer loop
     vertex  5.468750e-01  2.467105e-04  0.000000e+00
     vertex  5.468750e-01 -2.343750e-02  2.968750e-01
     vertex  5.468750e-01 -2.343750e-02  0.000000e+00
   endloop
 endfacet
 facet normal  1.000000e+00  0.000000e+00 -0.000000e+00
   outer loop
     vertex  5.468750e-01  2.467105e-04  0.000000e+00
     vertex  5.468750e-01  2.467105e-04  2.968750e-01
     vertex  5.468750e-01 -2.343750e-02  2.968750e-01
   endloop
 endfacet
 facet normal  0.000000e+00  1.000000e+00  0.000000e+00
   outer loop
     vertex -2.031250e-01  2.467105e-04  0.000000e+00
     vertex  5.468750e-01  2.467105e-04  2.968750e-01
     vertex  5.468750e-01  2.467105e-04  0.000000e+00
   endloop
 endfacet
 facet normal  0.000000e+00  1.000000e+00  0.000000e+00
   outer loop
     vertex -2.031250e-01  2.467105e-04  0.000000e+00
     vertex -2.031250e-01  2.467105e-04  2.968750e-01
     vertex  5.468750e-01  2.467105e-04  2.968750e-01
   endloop
 endfacet
 facet normal -1.000000e+00  0.000000e+00  0.000000e+00
   outer loop
     vertex -2.031250e-01 -2.343750e-02  0.000000e+00
     vertex -2.031250e-01  2.467105e-04  2.968750e-01
     vertex -2.031250e-01  2.467105e-04  0.000000e+00
   endloop
 endfacet
 facet normal -1.000000e+00  0.000000e+00  0.000000e+00
   outer loop
     vertex -2.031250e-01 -2.343750e-02  0.000000e+00
     vertex -2.031250e-01 -2.343750e-02  2.968750e-01
     vertex -2.031250e-01  2.467105e-04  2.968750e-01
   endloop
 endfacet
 facet normal  0.000000e+00 -0.000000e+00 -1.000000e+00
   outer loop
     vertex  5.468750e-01  2.467105e-04  0.000000e+00
     vertex  5.468750e-01 -2.343750e-02  0.000000e+00
     vertex -2.031250e-01 -2.343750e-02  0.000000e+00
   endloop
 endfacet
 facet normal -0.000000e+00  0.000000e+00 -1.000000e+00
   outer loop
     vertex  5.468750e-01  2.467105e-04  0.000000e+00
     vertex -2.031250e-01 -2.343750e-02  0.000000e+00
     vertex -2.031250e-01  2.467105e-04  0.000000e+00
   endloop
 endfacet
 facet normal  0.000000e+00  0.000000e+00  1.000000e+00
   outer loop
     vertex  5.468750e-01  2.467105e-04  2.968750e-01
     vertex -2.031250e-01 -2.343750e-02  2.968750e-01
     vertex  5.468750e-01 -2.343750e-02  2.968750e-01
   endloop
 endfacet
 facet normal  0.000000e+00  0.000000e+00  1.000000e+00
   outer loop
     vertex  5.468750e-01  2.467105e-04  2.968750e-01
     vertex -2.031250e-01  2.467105e-04  2.968750e-01
     vertex -2.031250e-01 -2.343750e-02  2.968750e-01
   endloop
 endfacet
endsolid
