solid 
 facet normal -7.071068e-01  0.000000e+00 -7.071068e-01
   outer loop
     vertex  0.000000e+00 -4.699269e-32  9.668264e-19
     vertex  7.894737e-03  0.000000e+00 -7.894737e-03
     vertex  7.894737e-03 -7.500000e-01 -7.894737e-03
   endloop
 endfacet
 facet normal -7.071068e-01 -4.329780e-17 -7.071068e-01
   outer loop
     vertex  0.000000e+00 -4.699269e-32  9.668264e-19
     vertex  7.894737e-03 -7.500000e-01 -7.894737e-03
     vertex  0.000000e+00 -7.500000e-01  4.689108e-17
   endloop
 endfacet
 facet normal -7.071068e-01  4.252334e-17  7.071068e-01
   outer loop
     vertex  7.894737e-03  9.668264e-19  7.894737e-03
     vertex  0.000000e+00 -7.500000e-01  4.689108e-17
     vertex  7.894737e-03 -7.500000e-01  7.894737e-03
   endloop
 endfacet
 facet normal -7.071068e-01  4.369886e-17  7.071068e-01
   outer loop
     vertex  7.894737e-03  9.668264e-19  7.894737e-03
     vertex  0.000000e+00 -4.699269e-32  9.668264e-19
     vertex  0.000000e+00 -7.500000e-01  4.689108e-17
   endloop
 endfacet
 facet normal  7.071068e-01  4.329780e-17  7.071068e-01
   outer loop
     vertex  1.578947e-02  9.668264e-19 -9.668264e-19
     vertex  7.894737e-03 -7.500000e-01  7.894737e-03
     vertex  1.578947e-02 -7.500000e-01  4.495743e-17
   endloop
 endfacet
 facet normal  7.071068e-01  4.208039e-17  7.071068e-01
   outer loop
     vertex  1.578947e-02  9.668264e-19 -9.668264e-19
     vertex  7.894737e-03  9.668264e-19  7.894737e-03
     vertex  7.894737e-03 -7.500000e-01  7.894737e-03
   endloop
 endfacet
 facet normal  7.071068e-01  0.000000e+00 -7.071068e-01
   outer loop
     vertex  7.894737e-03  0.000000e+00 -7.894737e-03
     vertex  1.578947e-02 -7.500000e-01  4.495743e-17
     vertex  7.894737e-03 -7.500000e-01 -7.894737e-03
   endloop
 endfacet
 facet normal  7.071068e-01 -4.369886e-17 -7.071068e-01
   outer loop
     vertex  7.894737e-03  0.000000e+00 -7.894737e-03
     vertex  1.578947e-02  9.668264e-19 -9.668264e-19
     vertex  1.578947e-02 -7.500000e-01  4.495743e-17
   endloop
 endfacet
 facet normal -6.123234e-17  1.000000e+00 -6.123234e-17
   outer loop
     vertex  7.894737e-03  9.668264e-19  7.894737e-03
     vertex  1.578947e-02  9.668264e-19 -9.668264e-19
     vertex  7.894737e-03  0.000000e+00 -7.894737e-03
   endloop
 endfacet
 facet normal -6.123234e-17  1.000000e+00 -6.123234e-17
   outer loop
     vertex  7.894737e-03  9.668264e-19  7.894737e-03
     vertex  7.894737e-03  0.000000e+00 -7.894737e-03
     vertex  0.000000e+00 -4.699269e-32  9.668264e-19
   endloop
 endfacet
 facet normal  0.000000e+00 -1.000000e+00 -0.000000e+00
   outer loop
     vertex  7.894737e-03 -7.500000e-01  7.894737e-03
     vertex  7.894737e-03 -7.500000e-01 -7.894737e-03
     vertex  1.578947e-02 -7.500000e-01  4.495743e-17
   endloop
 endfacet
 facet normal  0.000000e+00 -1.000000e+00  0.000000e+00
   outer loop
     vertex  7.894737e-03 -7.500000e-01  7.894737e-03
     vertex  0.000000e+00 -7.500000e-01  4.689108e-17
     vertex  7.894737e-03 -7.500000e-01 -7.894737e-03
   endloop
 endfacet
 facet normal -7.071068e-01  0.000000e+00 -7.071068e-01
   outer loop
     vertex  1.100329e-01  4.028443e-20  3.746452e-18
     vertex  1.409539e-01  4.028443e-20 -3.092105e-02
     vertex  1.409539e-01 -4.687500e-01 -3.092105e-02
   endloop
 endfacet
 facet normal -7.071068e-01 -4.329780e-17 -7.071068e-01
   outer loop
     vertex  1.100329e-01  4.028443e-20  3.746452e-18
     vertex  1.409539e-01 -4.687500e-01 -3.092105e-02
     vertex  1.100329e-01 -4.687500e-01  3.244911e-17
   endloop
 endfacet
 facet normal -7.071068e-01  4.710277e-17  7.071068e-01
   outer loop
     vertex  1.409539e-01  3.827021e-18  3.092105e-02
     vertex  1.100329e-01 -4.687500e-01  3.244911e-17
     vertex  1.409539e-01 -4.687500e-01  3.092105e-02
   endloop
 endfacet
 facet normal -7.071068e-01  3.702523e-17  7.071068e-01
   outer loop
     vertex  1.409539e-01  3.827021e-18  3.092105e-02
     vertex  1.100329e-01  4.028443e-20  3.746452e-18
     vertex  1.100329e-01 -4.687500e-01  3.244911e-17
   endloop
 endfacet
 facet normal  7.071068e-01  4.329780e-17  7.071068e-01
   outer loop
     vertex  1.718750e-01  3.827021e-18 -3.827021e-18
     vertex  1.409539e-01 -4.687500e-01  3.092105e-02
     vertex  1.718750e-01 -4.687500e-01  2.487564e-17
   endloop
 endfacet
 facet normal  7.071068e-01  4.760387e-17  7.071068e-01
   outer loop
     vertex  1.718750e-01  3.827021e-18 -3.827021e-18
     vertex  1.409539e-01  3.827021e-18  3.092105e-02
     vertex  1.409539e-01 -4.687500e-01  3.092105e-02
   endloop
 endfacet
 facet normal  7.071068e-01  0.000000e+00 -7.071068e-01
   outer loop
     vertex  1.409539e-01  4.028443e-20 -3.092105e-02
     vertex  1.718750e-01 -4.687500e-01  2.487564e-17
     vertex  1.409539e-01 -4.687500e-01 -3.092105e-02
   endloop
 endfacet
 facet normal  7.071068e-01 -4.231455e-17 -7.071068e-01
   outer loop
     vertex  1.409539e-01  4.028443e-20 -3.092105e-02
     vertex  1.718750e-01  3.827021e-18 -3.827021e-18
     vertex  1.718750e-01 -4.687500e-01  2.487564e-17
   endloop
 endfacet
 facet normal -6.123234e-17  1.000000e+00 -6.123234e-17
   outer loop
     vertex  1.718750e-01  3.827021e-18 -3.827021e-18
     vertex  1.100329e-01  4.028443e-20  3.746452e-18
     vertex  1.409539e-01  3.827021e-18  3.092105e-02
   endloop
 endfacet
 facet normal -6.123234e-17  1.000000e+00 -6.123234e-17
   outer loop
     vertex  1.718750e-01  3.827021e-18 -3.827021e-18
     vertex  1.409539e-01  4.028443e-20 -3.092105e-02
     vertex  1.100329e-01  4.028443e-20  3.746452e-18
   endloop
 endfacet
 facet normal  0.000000e+00 -1.000000e+00  0.000000e+00
   outer loop
     vertex  1.718750e-01 -4.687500e-01  2.487564e-17
     vertex  1.409539e-01 -4.687500e-01  3.092105e-02
     vertex  1.100329e-01 -4.687500e-01  3.244911e-17
   endloop
 endfacet
 facet normal -0.000000e+00 -1.000000e+00  0.000000e+00
   outer loop
     vertex  1.718750e-01 -4.687500e-01  2.487564e-17
     vertex  1.100329e-01 -4.687500e-01  3.244911e-17
     vertex  1.409539e-01 -4.687500e-01 -3.092105e-02
   endloop
 endfacet
endsolid
