solid 
 facet normal -0.000000e+00 -1.000000e+00  0.000000e+00
   outer loop
     vertex  6.726558e-01 -6.796875e-01  9.375000e-02
     vertex -7.500000e-01 -6.796875e-01  1.171875e-01
     vertex -7.500000e-01 -6.796875e-01  0.000000e+00
   endloop
 endfacet
 facet normal  0.000000e+00 -1.000000e+00  0.000000e+00
   outer loop
     vertex  6.726558e-01 -6.796875e-01  9.375000e-02
     vertex  6.726558e-01 -6.796875e-01  1.015625e-01
     vertex -7.500000e-01 -6.796875e-01  1.171875e-01
   endloop
 endfacet
 facet normal -0.000000e+00 -1.000000e+00  0.000000e+00
   outer loop
     vertex  7.500000e-01 -6.796875e-01  1.171875e-01
     vertex -7.500000e-01 -6.796875e-01  1.171875e-01
     vertex  6.726558e-01 -6.796875e-01  1.015625e-01
   endloop
 endfacet
 facet normal  0.000000e+00 -1.000000e+00  0.000000e+00
   outer loop
     vertex  7.500000e-01 -6.796875e-01  1.015625e-01
     vertex  7.500000e-01 -6.796875e-01  1.171875e-01
     vertex  6.726558e-01 -6.796875e-01  1.015625e-01
   endloop
 endfacet
 facet normal  0.000000e+00 -1.000000e+00  0.000000e+00
   outer loop
     vertex  7.500000e-01 -6.796875e-01  0.000000e+00
     vertex  7.500000e-01 -6.796875e-01  9.375000e-02
     vertex  6.726558e-01 -6.796875e-01  9.375000e-02
   endloop
 endfacet
 facet normal  0.000000e+00 -1.000000e+00  0.000000e+00
   outer loop
     vertex  7.500000e-01 -6.796875e-01  0.000000e+00
     vertex  6.726558e-01 -6.796875e-01  9.375000e-02
     vertex -7.500000e-01 -6.796875e-01  0.000000e+00
   endloop
 endfacet
 facet normal  0.000000e+00  0.000000e+00 -1.000000e+00
   outer loop
     vertex  7.500000e-01 -6.796875e-01  0.000000e+00
     vertex -7.500000e-01 -6.796875e-01  0.000000e+00
     vertex -7.500000e-01  5.992599e-01  0.000000e+00
   endloop
 endfacet
 facet normal  0.000000e+00 -0.000000e+00 -1.000000e+00
   outer loop
     vertex  7.500000e-01  6.150493e-01  0.000000e+00
     vertex  7.500000e-01 -6.796875e-01  0.000000e+00
     vertex -7.500000e-01  5.992599e-01  0.000000e+00
   endloop
 endfacet
 facet normal  1.000000e+00  0.000000e+00  0.000000e+00
   outer loop
     vertex  7.500000e-01 -6.638595e-01  1.015625e-01
     vertex  7.500000e-01 -6.796875e-01  1.171875e-01
     vertex  7.500000e-01 -6.796875e-01  1.015625e-01
   endloop
 endfacet
 facet normal  1.000000e+00  0.000000e+00  0.000000e+00
   outer loop
     vertex  7.500000e-01 -6.796875e-01  0.000000e+00
     vertex  7.500000e-01 -6.638595e-01  9.375000e-02
     vertex  7.500000e-01 -6.796875e-01  9.375000e-02
   endloop
 endfacet
 facet normal  1.000000e+00  0.000000e+00  0.000000e+00
   outer loop
     vertex  7.500000e-01  6.150493e-01  1.171875e-01
     vertex  7.500000e-01 -6.638595e-01  1.015625e-01
     vertex  7.500000e-01 -6.638595e-01  9.375000e-02
   endloop
 endfacet
 facet normal  1.000000e+00  0.000000e+00  0.000000e+00
   outer loop
     vertex  7.500000e-01  6.150493e-01  1.171875e-01
     vertex  7.500000e-01 -6.796875e-01  1.171875e-01
     vertex  7.500000e-01 -6.638595e-01  1.015625e-01
   endloop
 endfacet
 facet normal  1.000000e+00  0.000000e+00  0.000000e+00
   outer loop
     vertex  7.500000e-01  6.150493e-01  0.000000e+00
     vertex  7.500000e-01 -6.638595e-01  9.375000e-02
     vertex  7.500000e-01 -6.796875e-01  0.000000e+00
   endloop
 endfacet
 facet normal  1.000000e+00  0.000000e+00 -0.000000e+00
   outer loop
     vertex  7.500000e-01  6.150493e-01  0.000000e+00
     vertex  7.500000e-01  6.150493e-01  1.171875e-01
     vertex  7.500000e-01 -6.638595e-01  9.375000e-02
   endloop
 endfacet
 facet normal  0.000000e+00  0.000000e+00  1.000000e+00
   outer loop
     vertex  7.500000e-01 -6.796875e-01  9.375000e-02
     vertex  6.851847e-01 -6.423180e-01  9.375000e-02
     vertex  6.726558e-01 -6.796875e-01  9.375000e-02
   endloop
 endfacet
 facet normal  0.000000e+00  0.000000e+00  1.000000e+00
   outer loop
     vertex  7.237983e-01 -6.344160e-01  9.375000e-02
     vertex  7.500000e-01 -6.796875e-01  9.375000e-02
     vertex  7.500000e-01 -6.638595e-01  9.375000e-02
   endloop
 endfacet
 facet normal  0.000000e+00  0.000000e+00  1.000000e+00
   outer loop
     vertex  7.237983e-01 -6.344160e-01  9.375000e-02
     vertex  6.851847e-01 -6.423180e-01  9.375000e-02
     vertex  7.500000e-01 -6.796875e-01  9.375000e-02
   endloop
 endfacet
 facet normal -7.470359e-01 -6.647837e-01  0.000000e+00
   outer loop
     vertex  7.237983e-01 -6.344160e-01  1.015625e-01
     vertex  7.500000e-01 -6.638595e-01  9.375000e-02
     vertex  7.500000e-01 -6.638595e-01  1.015625e-01
   endloop
 endfacet
 facet normal -7.470359e-01 -6.647837e-01 -0.000000e+00
   outer loop
     vertex  7.237983e-01 -6.344160e-01  1.015625e-01
     vertex  7.237983e-01 -6.344160e-01  9.375000e-02
     vertex  7.500000e-01 -6.638595e-01  9.375000e-02
   endloop
 endfacet
 facet normal  2.004881e-01 -9.796961e-01  0.000000e+00
   outer loop
     vertex  6.851847e-01 -6.423180e-01  1.015625e-01
     vertex  6.851847e-01 -6.423180e-01  9.375000e-02
     vertex  7.237983e-01 -6.344160e-01  9.375000e-02
   endloop
 endfacet
 facet normal  2.004881e-01 -9.796961e-01  0.000000e+00
   outer loop
     vertex  6.851847e-01 -6.423180e-01  1.015625e-01
     vertex  7.237983e-01 -6.344160e-01  9.375000e-02
     vertex  7.237983e-01 -6.344160e-01  1.015625e-01
   endloop
 endfacet
 facet normal  9.481312e-01 -3.178794e-01  0.000000e+00
   outer loop
     vertex  6.726558e-01 -6.796875e-01  1.015625e-01
     vertex  6.726558e-01 -6.796875e-01  9.375000e-02
     vertex  6.851847e-01 -6.423180e-01  9.375000e-02
   endloop
 endfacet
 facet normal  9.481312e-01 -3.178794e-01  0.000000e+00
   outer loop
     vertex  6.726558e-01 -6.796875e-01  1.015625e-01
     vertex  6.851847e-01 -6.423180e-01  9.375000e-02
     vertex  6.851847e-01 -6.423180e-01  1.015625e-01
   endloop
 endfacet
 facet normal  0.000000e+00  0.000000e+00 -1.000000e+00
   outer loop
     vertex  7.500000e-01 -6.796875e-01  1.015625e-01
     vertex  6.726558e-01 -6.796875e-01  1.015625e-01
     vertex  6.851847e-01 -6.423180e-01  1.015625e-01
   endloop
 endfacet
 facet normal  0.000000e+00  0.000000e+00 -1.000000e+00
   outer loop
     vertex  7.237983e-01 -6.344160e-01  1.015625e-01
     vertex  7.500000e-01 -6.638595e-01  1.015625e-01
     vertex  7.500000e-01 -6.796875e-01  1.015625e-01
   endloop
 endfacet
 facet normal  0.000000e+00 -0.000000e+00 -1.000000e+00
   outer loop
     vertex  7.237983e-01 -6.344160e-01  1.015625e-01
     vertex  7.500000e-01 -6.796875e-01  1.015625e-01
     vertex  6.851847e-01 -6.423180e-01  1.015625e-01
   endloop
 endfacet
 facet normal  0.000000e+00  0.000000e+00  1.000000e+00
   outer loop
     vertex  7.500000e-01 -6.796875e-01  1.171875e-01
     vertex -7.500000e-01  5.992599e-01  1.171875e-01
     vertex -7.500000e-01 -6.796875e-01  1.171875e-01
   endloop
 endfacet
 facet normal  0.000000e+00  0.000000e+00  1.000000e+00
   outer loop
     vertex  7.500000e-01  6.150493e-01  1.171875e-01
     vertex -7.500000e-01  5.992599e-01  1.171875e-01
     vertex  7.500000e-01 -6.796875e-01  1.171875e-01
   endloop
 endfacet
 facet normal -1.000000e+00  0.000000e+00  0.000000e+00
   outer loop
     vertex -7.500000e-01 -6.796875e-01  0.000000e+00
     vertex -7.500000e-01  5.992599e-01  1.171875e-01
     vertex -7.500000e-01  5.992599e-01  0.000000e+00
   endloop
 endfacet
 facet normal -1.000000e+00  0.000000e+00  0.000000e+00
   outer loop
     vertex -7.500000e-01 -6.796875e-01  0.000000e+00
     vertex -7.500000e-01 -6.796875e-01  1.171875e-01
     vertex -7.500000e-01  5.992599e-01  1.171875e-01
   endloop
 endfacet
 facet normal -1.052573e-02  9.999446e-01  0.000000e+00
   outer loop
     vertex -7.500000e-01  5.992599e-01  0.000000e+00
     vertex  7.500000e-01  6.150493e-01  1.171875e-01
     vertex  7.500000e-01  6.150493e-01  0.000000e+00
   endloop
 endfacet
 facet normal -1.052573e-02  9.999446e-01  0.000000e+00
   outer loop
     vertex -7.500000e-01  5.992599e-01  0.000000e+00
     vertex -7.500000e-01  5.992599e-01  1.171875e-01
     vertex  7.500000e-01  6.150493e-01  1.171875e-01
   endloop
 endfacet
 facet normal -7.071068e-01 -7.071068e-01  0.000000e+00
   outer loop
     vertex  7.072368e-02  5.004112e-01  9.375000e-02
     vertex  1.101974e-01  4.609375e-01  8.593750e-02
     vertex  1.101974e-01  4.609375e-01  9.375000e-02
   endloop
 endfacet
 facet normal -7.071068e-01 -7.071068e-01 -0.000000e+00
   outer loop
     vertex  7.072368e-02  5.004112e-01  9.375000e-02
     vertex  7.072368e-02  5.004112e-01  8.593750e-02
     vertex  1.101974e-01  4.609375e-01  8.593750e-02
   endloop
 endfacet
 facet normal  7.071068e-01 -7.071068e-01  0.000000e+00
   outer loop
     vertex  3.125000e-02  4.609375e-01  9.375000e-02
     vertex  3.125000e-02  4.609375e-01  8.593750e-02
     vertex  7.072368e-02  5.004112e-01  8.593750e-02
   endloop
 endfacet
 facet normal  7.071068e-01 -7.071068e-01  0.000000e+00
   outer loop
     vertex  3.125000e-02  4.609375e-01  9.375000e-02
     vertex  7.072368e-02  5.004112e-01  8.593750e-02
     vertex  7.072368e-02  5.004112e-01  9.375000e-02
   endloop
 endfacet
 facet normal  7.071068e-01  7.071068e-01  0.000000e+00
   outer loop
     vertex  7.072368e-02  4.214638e-01  9.375000e-02
     vertex  7.072368e-02  4.214638e-01  8.593750e-02
     vertex  3.125000e-02  4.609375e-01  8.593750e-02
   endloop
 endfacet
 facet normal  7.071068e-01  7.071068e-01  0.000000e+00
   outer loop
     vertex  7.072368e-02  4.214638e-01  9.375000e-02
     vertex  3.125000e-02  4.609375e-01  8.593750e-02
     vertex  3.125000e-02  4.609375e-01  9.375000e-02
   endloop
 endfacet
 facet normal -7.071068e-01  7.071068e-01  0.000000e+00
   outer loop
     vertex  1.101974e-01  4.609375e-01  9.375000e-02
     vertex  1.101974e-01  4.609375e-01  8.593750e-02
     vertex  7.072368e-02  4.214638e-01  8.593750e-02
   endloop
 endfacet
 facet normal -7.071068e-01  7.071068e-01  0.000000e+00
   outer loop
     vertex  1.101974e-01  4.609375e-01  9.375000e-02
     vertex  7.072368e-02  4.214638e-01  8.593750e-02
     vertex  7.072368e-02  4.214638e-01  9.375000e-02
   endloop
 endfacet
 facet normal  0.000000e+00  0.000000e+00 -1.000000e+00
   outer loop
     vertex  1.101974e-01  4.609375e-01  9.375000e-02
     vertex  3.125000e-02  4.609375e-01  9.375000e-02
     vertex  7.072368e-02  5.004112e-01  9.375000e-02
   endloop
 endfacet
 facet normal -0.000000e+00  0.000000e+00 -1.000000e+00
   outer loop
     vertex  1.101974e-01  4.609375e-01  9.375000e-02
     vertex  7.072368e-02  4.214638e-01  9.375000e-02
     vertex  3.125000e-02  4.609375e-01  9.375000e-02
   endloop
 endfacet
 facet normal  0.000000e+00  0.000000e+00  1.000000e+00
   outer loop
     vertex  1.101974e-01  4.609375e-01  8.593750e-02
     vertex  7.072368e-02  5.004112e-01  8.593750e-02
     vertex  3.125000e-02  4.609375e-01  8.593750e-02
   endloop
 endfacet
 facet normal  0.000000e+00  0.000000e+00  1.000000e+00
   outer loop
     vertex  1.101974e-01  4.609375e-01  8.593750e-02
     vertex  3.125000e-02  4.609375e-01  8.593750e-02
     vertex  7.072368e-02  4.214638e-01  8.593750e-02
   endloop
 endfacet
 facet normal -7.071068e-01 -7.071068e-01  0.000000e+00
   outer loop
     vertex  6.879112e-01 -5.308388e-01  1.015625e-01
     vertex  7.273849e-01 -5.703125e-01  9.375000e-02
     vertex  7.273849e-01 -5.703125e-01  1.015625e-01
   endloop
 endfacet
 facet normal -7.071068e-01 -7.071068e-01 -0.000000e+00
   outer loop
     vertex  6.879112e-01 -5.308388e-01  1.015625e-01
     vertex  6.879112e-01 -5.308388e-01  9.375000e-02
     vertex  7.273849e-01 -5.703125e-01  9.375000e-02
   endloop
 endfacet
 facet normal  7.071068e-01 -7.071068e-01  0.000000e+00
   outer loop
     vertex  6.484375e-01 -5.703125e-01  1.015625e-01
     vertex  6.484375e-01 -5.703125e-01  9.375000e-02
     vertex  6.879112e-01 -5.308388e-01  9.375000e-02
   endloop
 endfacet
 facet normal  7.071068e-01 -7.071068e-01  0.000000e+00
   outer loop
     vertex  6.484375e-01 -5.703125e-01  1.015625e-01
     vertex  6.879112e-01 -5.308388e-01  9.375000e-02
     vertex  6.879112e-01 -5.308388e-01  1.015625e-01
   endloop
 endfacet
 facet normal  7.071068e-01  7.071068e-01  0.000000e+00
   outer loop
     vertex  6.879112e-01 -6.097862e-01  1.015625e-01
     vertex  6.879112e-01 -6.097862e-01  9.375000e-02
     vertex  6.484375e-01 -5.703125e-01  9.375000e-02
   endloop
 endfacet
 facet normal  7.071068e-01  7.071068e-01  0.000000e+00
   outer loop
     vertex  6.879112e-01 -6.097862e-01  1.015625e-01
     vertex  6.484375e-01 -5.703125e-01  9.375000e-02
     vertex  6.484375e-01 -5.703125e-01  1.015625e-01
   endloop
 endfacet
 facet normal -7.071068e-01  7.071068e-01  0.000000e+00
   outer loop
     vertex  7.273849e-01 -5.703125e-01  1.015625e-01
     vertex  7.273849e-01 -5.703125e-01  9.375000e-02
     vertex  6.879112e-01 -6.097862e-01  9.375000e-02
   endloop
 endfacet
 facet normal -7.071068e-01  7.071068e-01  0.000000e+00
   outer loop
     vertex  7.273849e-01 -5.703125e-01  1.015625e-01
     vertex  6.879112e-01 -6.097862e-01  9.375000e-02
     vertex  6.879112e-01 -6.097862e-01  1.015625e-01
   endloop
 endfacet
 facet normal  0.000000e+00 -0.000000e+00 -1.000000e+00
   outer loop
     vertex  6.879112e-01 -5.308388e-01  1.015625e-01
     vertex  6.879112e-01 -6.097862e-01  1.015625e-01
     vertex  6.484375e-01 -5.703125e-01  1.015625e-01
   endloop
 endfacet
 facet normal  0.000000e+00  0.000000e+00 -1.000000e+00
   outer loop
     vertex  6.879112e-01 -5.308388e-01  1.015625e-01
     vertex  7.273849e-01 -5.703125e-01  1.015625e-01
     vertex  6.879112e-01 -6.097862e-01  1.015625e-01
   endloop
 endfacet
 facet normal  0.000000e+00  0.000000e+00  1.000000e+00
   outer loop
     vertex  6.879112e-01 -5.308388e-01  9.375000e-02
     vertex  6.484375e-01 -5.703125e-01  9.375000e-02
     vertex  6.879112e-01 -6.097862e-01  9.375000e-02
   endloop
 endfacet
 facet normal  0.000000e+00  0.000000e+00  1.000000e+00
   outer loop
     vertex  6.879112e-01 -5.308388e-01  9.375000e-02
     vertex  6.879112e-01 -6.097862e-01  9.375000e-02
     vertex  7.273849e-01 -5.703125e-01  9.375000e-02
   endloop
 endfacet
 facet normal -7.071068e-01 -7.071068e-01  0.000000e+00
   outer loop
     vertex -5.777138e-01  5.238487e-01  1.015625e-01
     vertex -5.382401e-01  4.843750e-01  9.375000e-02
     vertex -5.382401e-01  4.843750e-01  1.015625e-01
   endloop
 endfacet
 facet normal -7.071068e-01 -7.071068e-01 -0.000000e+00
   outer loop
     vertex -5.777138e-01  5.238487e-01  1.015625e-01
     vertex -5.777138e-01  5.238487e-01  9.375000e-02
     vertex -5.382401e-01  4.843750e-01  9.375000e-02
   endloop
 endfacet
 facet normal  7.071068e-01 -7.071068e-01  0.000000e+00
   outer loop
     vertex -6.171875e-01  4.843750e-01  1.015625e-01
     vertex -6.171875e-01  4.843750e-01  9.375000e-02
     vertex -5.777138e-01  5.238487e-01  9.375000e-02
   endloop
 endfacet
 facet normal  7.071068e-01 -7.071068e-01  0.000000e+00
   outer loop
     vertex -6.171875e-01  4.843750e-01  1.015625e-01
     vertex -5.777138e-01  5.238487e-01  9.375000e-02
     vertex -5.777138e-01  5.238487e-01  1.015625e-01
   endloop
 endfacet
 facet normal  7.071068e-01  7.071068e-01  0.000000e+00
   outer loop
     vertex -5.777138e-01  4.449013e-01  1.015625e-01
     vertex -5.777138e-01  4.449013e-01  9.375000e-02
     vertex -6.171875e-01  4.843750e-01  9.375000e-02
   endloop
 endfacet
 facet normal  7.071068e-01  7.071068e-01  0.000000e+00
   outer loop
     vertex -5.777138e-01  4.449013e-01  1.015625e-01
     vertex -6.171875e-01  4.843750e-01  9.375000e-02
     vertex -6.171875e-01  4.843750e-01  1.015625e-01
   endloop
 endfacet
 facet normal -7.071068e-01  7.071068e-01  0.000000e+00
   outer loop
     vertex -5.382401e-01  4.843750e-01  1.015625e-01
     vertex -5.382401e-01  4.843750e-01  9.375000e-02
     vertex -5.777138e-01  4.449013e-01  9.375000e-02
   endloop
 endfacet
 facet normal -7.071068e-01  7.071068e-01  0.000000e+00
   outer loop
     vertex -5.382401e-01  4.843750e-01  1.015625e-01
     vertex -5.777138e-01  4.449013e-01  9.375000e-02
     vertex -5.777138e-01  4.449013e-01  1.015625e-01
   endloop
 endfacet
 facet normal  0.000000e+00 -0.000000e+00 -1.000000e+00
   outer loop
     vertex -5.777138e-01  5.238487e-01  1.015625e-01
     vertex -5.777138e-01  4.449013e-01  1.015625e-01
     vertex -6.171875e-01  4.843750e-01  1.015625e-01
   endloop
 endfacet
 facet normal  0.000000e+00  0.000000e+00 -1.000000e+00
   outer loop
     vertex -5.777138e-01  5.238487e-01  1.015625e-01
     vertex -5.382401e-01  4.843750e-01  1.015625e-01
     vertex -5.777138e-01  4.449013e-01  1.015625e-01
   endloop
 endfacet
 facet normal  0.000000e+00  0.000000e+00  1.000000e+00
   outer loop
     vertex -5.777138e-01  5.238487e-01  9.375000e-02
     vertex -6.171875e-01  4.843750e-01  9.375000e-02
     vertex -5.777138e-01  4.449013e-01  9.375000e-02
   endloop
 endfacet
 facet normal  0.000000e+00  0.000000e+00  1.000000e+00
   outer loop
     vertex -5.777138e-01  5.238487e-01  9.375000e-02
     vertex -5.777138e-01  4.449013e-01  9.375000e-02
     vertex -5.382401e-01  4.843750e-01  9.375000e-02
   endloop
 endfacet
endsolid
