solid 
 facet normal  0.000000e+00  5.000000e-01  8.660254e-01
   outer loop
     vertex -2.417066e-18  5.356780e-02  3.947368e-02
     vertex -4.834132e-18 -1.480263e-02  7.894737e-02
     vertex  7.500000e-01 -1.480263e-02  7.894737e-02
   endloop
 endfacet
 facet normal -5.608641e-17  5.000000e-01  8.660254e-01
   outer loop
     vertex -2.417066e-18  5.356780e-02  3.947368e-02
     vertex  7.500000e-01 -1.480263e-02  7.894737e-02
     vertex  7.500000e-01  5.356780e-02  3.947368e-02
   endloop
 endfacet
 facet normal  4.553754e-32  1.000000e+00 -7.031412e-16
   outer loop
     vertex  2.417066e-18  5.356780e-02 -3.947368e-02
     vertex  7.500000e-01  5.356780e-02  3.947368e-02
     vertex  7.500000e-01  5.356780e-02 -3.947368e-02
   endloop
 endfacet
 facet normal  3.903218e-32  1.000000e+00 -7.031412e-16
   outer loop
     vertex  2.417066e-18  5.356780e-02 -3.947368e-02
     vertex -2.417066e-18  5.356780e-02  3.947368e-02
     vertex  7.500000e-01  5.356780e-02  3.947368e-02
   endloop
 endfacet
 facet normal  4.807407e-17  5.000000e-01 -8.660254e-01
   outer loop
     vertex  4.834132e-18 -1.480263e-02 -7.894737e-02
     vertex  7.500000e-01  5.356780e-02 -3.947368e-02
     vertex  7.500000e-01 -1.480263e-02 -7.894737e-02
   endloop
 endfacet
 facet normal  5.127072e-17  5.000000e-01 -8.660254e-01
   outer loop
     vertex  4.834132e-18 -1.480263e-02 -7.894737e-02
     vertex  2.417066e-18  5.356780e-02 -3.947368e-02
     vertex  7.500000e-01  5.356780e-02 -3.947368e-02
   endloop
 endfacet
 facet normal  5.608641e-17 -5.000000e-01 -8.660254e-01
   outer loop
     vertex  2.417066e-18 -8.317306e-02 -3.947368e-02
     vertex  7.500000e-01 -1.480263e-02 -7.894737e-02
     vertex  7.500000e-01 -8.317306e-02 -3.947368e-02
   endloop
 endfacet
 facet normal  4.394633e-17 -5.000000e-01 -8.660254e-01
   outer loop
     vertex  2.417066e-18 -8.317306e-02 -3.947368e-02
     vertex  4.834132e-18 -1.480263e-02 -7.894737e-02
     vertex  7.500000e-01 -1.480263e-02 -7.894737e-02
   endloop
 endfacet
 facet normal -5.608641e-17 -5.000000e-01  8.660254e-01
   outer loop
     vertex -2.417066e-18 -8.317306e-02  3.947368e-02
     vertex  7.500000e-01 -8.317306e-02  3.947368e-02
     vertex  7.500000e-01 -1.480263e-02  7.894737e-02
   endloop
 endfacet
 facet normal -1.138439e-32 -1.000000e+00  1.757853e-16
   outer loop
     vertex -2.417066e-18 -8.317306e-02  3.947368e-02
     vertex  7.500000e-01 -8.317306e-02 -3.947368e-02
     vertex  7.500000e-01 -8.317306e-02  3.947368e-02
   endloop
 endfacet
 facet normal -1.301073e-32 -1.000000e+00  1.757853e-16
   outer loop
     vertex -2.417066e-18 -8.317306e-02  3.947368e-02
     vertex  2.417066e-18 -8.317306e-02 -3.947368e-02
     vertex  7.500000e-01 -8.317306e-02 -3.947368e-02
   endloop
 endfacet
 facet normal  0.000000e+00 -5.000000e-01  8.660254e-01
   outer loop
     vertex -4.834132e-18 -1.480263e-02  7.894737e-02
     vertex -2.417066e-18 -8.317306e-02  3.947368e-02
     vertex  7.500000e-01 -1.480263e-02  7.894737e-02
   endloop
 endfacet
 facet normal -1.000000e+00 -2.612888e-33 -6.123234e-17
   outer loop
     vertex -2.417066e-18  5.356780e-02  3.947368e-02
     vertex -2.417066e-18 -8.317306e-02  3.947368e-02
     vertex -4.834132e-18 -1.480263e-02  7.894737e-02
   endloop
 endfacet
 facet normal -1.000000e+00 -2.612888e-33 -6.123234e-17
   outer loop
     vertex -2.417066e-18  5.356780e-02  3.947368e-02
     vertex  2.417066e-18 -8.317306e-02 -3.947368e-02
     vertex -2.417066e-18 -8.317306e-02  3.947368e-02
   endloop
 endfacet
 facet normal -1.000000e+00  8.920199e-33 -6.123234e-17
   outer loop
     vertex -2.417066e-18  5.356780e-02  3.947368e-02
     vertex  4.834132e-18 -1.480263e-02 -7.894737e-02
     vertex  2.417066e-18 -8.317306e-02 -3.947368e-02
   endloop
 endfacet
 facet normal -1.000000e+00  0.000000e+00 -6.123234e-17
   outer loop
     vertex -2.417066e-18  5.356780e-02  3.947368e-02
     vertex  2.417066e-18  5.356780e-02 -3.947368e-02
     vertex  4.834132e-18 -1.480263e-02 -7.894737e-02
   endloop
 endfacet
 facet normal  1.000000e+00  0.000000e+00  0.000000e+00
   outer loop
     vertex  7.500000e-01  5.356780e-02  3.947368e-02
     vertex  7.500000e-01 -1.480263e-02  7.894737e-02
     vertex  7.500000e-01 -8.317306e-02  3.947368e-02
   endloop
 endfacet
 facet normal  1.000000e+00  0.000000e+00  0.000000e+00
   outer loop
     vertex  7.500000e-01  5.356780e-02  3.947368e-02
     vertex  7.500000e-01 -8.317306e-02  3.947368e-02
     vertex  7.500000e-01 -8.317306e-02 -3.947368e-02
   endloop
 endfacet
 facet normal  1.000000e+00  0.000000e+00  0.000000e+00
   outer loop
     vertex  7.500000e-01  5.356780e-02  3.947368e-02
     vertex  7.500000e-01 -8.317306e-02 -3.947368e-02
     vertex  7.500000e-01 -1.480263e-02 -7.894737e-02
   endloop
 endfacet
 facet normal  1.000000e+00  0.000000e+00  0.000000e+00
   outer loop
     vertex  7.500000e-01  5.356780e-02  3.947368e-02
     vertex  7.500000e-01 -1.480263e-02 -7.894737e-02
     vertex  7.500000e-01  5.356780e-02 -3.947368e-02
   endloop
 endfacet
endsolid
