solid 
 facet normal  9.863613e-01 -1.645946e-01  0.000000e+00
   outer loop
     vertex  1.630550e-01 -8.587446e-02  0.000000e+00
     vertex  1.773849e-01  0.000000e+00  0.000000e+00
     vertex  1.773849e-01  0.000000e+00  7.500000e-01
   endloop
 endfacet
 facet normal  9.863613e-01 -1.645946e-01  0.000000e+00
   outer loop
     vertex  1.630550e-01 -8.587446e-02  0.000000e+00
     vertex  1.773849e-01  0.000000e+00  7.500000e-01
     vertex  1.630550e-01 -8.587446e-02  7.500000e-01
   endloop
 endfacet
 facet normal  8.794738e-01 -4.759474e-01  0.000000e+00
   outer loop
     vertex  1.216181e-01 -1.624431e-01  0.000000e+00
     vertex  1.630550e-01 -8.587446e-02  7.500000e-01
     vertex  1.216181e-01 -1.624431e-01  7.500000e-01
   endloop
 endfacet
 facet normal  8.794738e-01 -4.759474e-01  0.000000e+00
   outer loop
     vertex  1.216181e-01 -1.624431e-01  0.000000e+00
     vertex  1.630550e-01 -8.587446e-02  0.000000e+00
     vertex  1.630550e-01 -8.587446e-02  7.500000e-01
   endloop
 endfacet
 facet normal  6.772816e-01 -7.357239e-01  0.000000e+00
   outer loop
     vertex  5.756458e-02 -2.214085e-01  0.000000e+00
     vertex  1.216181e-01 -1.624431e-01  7.500000e-01
     vertex  5.756458e-02 -2.214085e-01  7.500000e-01
   endloop
 endfacet
 facet normal  6.772816e-01 -7.357239e-01  0.000000e+00
   outer loop
     vertex  5.756458e-02 -2.214085e-01  0.000000e+00
     vertex  1.216181e-01 -1.624431e-01  0.000000e+00
     vertex  1.216181e-01 -1.624431e-01  7.500000e-01
   endloop
 endfacet
 facet normal  4.016954e-01 -9.157733e-01  0.000000e+00
   outer loop
     vertex -2.216436e-02 -2.563809e-01  0.000000e+00
     vertex  5.756458e-02 -2.214085e-01  7.500000e-01
     vertex -2.216436e-02 -2.563809e-01  7.500000e-01
   endloop
 endfacet
 facet normal  4.016954e-01 -9.157733e-01  0.000000e+00
   outer loop
     vertex -2.216436e-02 -2.563809e-01  0.000000e+00
     vertex  5.756458e-02 -2.214085e-01  0.000000e+00
     vertex  5.756458e-02 -2.214085e-01  7.500000e-01
   endloop
 endfacet
 facet normal  8.257935e-02 -9.965845e-01  0.000000e+00
   outer loop
     vertex -1.089289e-01 -2.635704e-01  0.000000e+00
     vertex -2.216436e-02 -2.563809e-01  7.500000e-01
     vertex -1.089289e-01 -2.635704e-01  7.500000e-01
   endloop
 endfacet
 facet normal  8.257935e-02 -9.965845e-01  0.000000e+00
   outer loop
     vertex -1.089289e-01 -2.635704e-01  0.000000e+00
     vertex -2.216436e-02 -2.563809e-01  0.000000e+00
     vertex -2.216436e-02 -2.563809e-01  7.500000e-01
   endloop
 endfacet
 facet normal -2.454855e-01 -9.694003e-01  0.000000e+00
   outer loop
     vertex -1.933267e-01 -2.421979e-01  0.000000e+00
     vertex -1.089289e-01 -2.635704e-01  7.500000e-01
     vertex -1.933267e-01 -2.421979e-01  7.500000e-01
   endloop
 endfacet
 facet normal -2.454855e-01 -9.694003e-01  0.000000e+00
   outer loop
     vertex -1.933267e-01 -2.421979e-01  0.000000e+00
     vertex -1.089289e-01 -2.635704e-01  0.000000e+00
     vertex -1.089289e-01 -2.635704e-01  7.500000e-01
   endloop
 endfacet
 facet normal -7.891405e-01 -6.142127e-01  0.000000e+00
   outer loop
     vertex -2.662120e-01 -1.945796e-01  0.000000e+00
     vertex -2.662120e-01 -1.945796e-01  7.500000e-01
     vertex -3.196865e-01 -1.258756e-01  7.500000e-01
   endloop
 endfacet
 facet normal -5.469482e-01 -8.371665e-01  0.000000e+00
   outer loop
     vertex -2.662120e-01 -1.945796e-01  0.000000e+00
     vertex -1.933267e-01 -2.421979e-01  7.500000e-01
     vertex -2.662120e-01 -1.945796e-01  7.500000e-01
   endloop
 endfacet
 facet normal -5.469482e-01 -8.371665e-01  0.000000e+00
   outer loop
     vertex -2.662120e-01 -1.945796e-01  0.000000e+00
     vertex -1.933267e-01 -2.421979e-01  0.000000e+00
     vertex -1.933267e-01 -2.421979e-01  7.500000e-01
   endloop
 endfacet
 facet normal -7.891405e-01 -6.142127e-01  0.000000e+00
   outer loop
     vertex -3.196865e-01 -1.258756e-01  0.000000e+00
     vertex -2.662120e-01 -1.945796e-01  0.000000e+00
     vertex -3.196865e-01 -1.258756e-01  7.500000e-01
   endloop
 endfacet
 facet normal -9.458172e-01 -3.246995e-01  0.000000e+00
   outer loop
     vertex -3.479554e-01 -4.353094e-02  0.000000e+00
     vertex -3.196865e-01 -1.258756e-01  7.500000e-01
     vertex -3.479554e-01 -4.353094e-02  7.500000e-01
   endloop
 endfacet
 facet normal -9.458172e-01 -3.246995e-01  0.000000e+00
   outer loop
     vertex -3.479554e-01 -4.353094e-02  0.000000e+00
     vertex -3.196865e-01 -1.258756e-01  0.000000e+00
     vertex -3.196865e-01 -1.258756e-01  7.500000e-01
   endloop
 endfacet
 facet normal -9.458172e-01  3.246995e-01  0.000000e+00
   outer loop
     vertex -3.479554e-01  4.353094e-02  0.000000e+00
     vertex -3.479554e-01  4.353094e-02  7.500000e-01
     vertex -3.196865e-01  1.258756e-01  7.500000e-01
   endloop
 endfacet
 facet normal -1.000000e+00  0.000000e+00  0.000000e+00
   outer loop
     vertex -3.479554e-01  4.353094e-02  0.000000e+00
     vertex -3.479554e-01 -4.353094e-02  7.500000e-01
     vertex -3.479554e-01  4.353094e-02  7.500000e-01
   endloop
 endfacet
 facet normal -1.000000e+00  0.000000e+00  0.000000e+00
   outer loop
     vertex -3.479554e-01  4.353094e-02  0.000000e+00
     vertex -3.479554e-01 -4.353094e-02  0.000000e+00
     vertex -3.479554e-01 -4.353094e-02  7.500000e-01
   endloop
 endfacet
 facet normal -9.458172e-01  3.246995e-01  0.000000e+00
   outer loop
     vertex -3.196865e-01  1.258756e-01  0.000000e+00
     vertex -3.479554e-01  4.353094e-02  0.000000e+00
     vertex -3.196865e-01  1.258756e-01  7.500000e-01
   endloop
 endfacet
 facet normal -7.891405e-01  6.142127e-01  0.000000e+00
   outer loop
     vertex -2.662120e-01  1.945796e-01  0.000000e+00
     vertex -3.196865e-01  1.258756e-01  7.500000e-01
     vertex -2.662120e-01  1.945796e-01  7.500000e-01
   endloop
 endfacet
 facet normal -7.891405e-01  6.142127e-01  0.000000e+00
   outer loop
     vertex -2.662120e-01  1.945796e-01  0.000000e+00
     vertex -3.196865e-01  1.258756e-01  0.000000e+00
     vertex -3.196865e-01  1.258756e-01  7.500000e-01
   endloop
 endfacet
 facet normal -5.469482e-01  8.371665e-01  0.000000e+00
   outer loop
     vertex -1.933267e-01  2.421979e-01  0.000000e+00
     vertex -2.662120e-01  1.945796e-01  7.500000e-01
     vertex -1.933267e-01  2.421979e-01  7.500000e-01
   endloop
 endfacet
 facet normal -5.469482e-01  8.371665e-01  0.000000e+00
   outer loop
     vertex -1.933267e-01  2.421979e-01  0.000000e+00
     vertex -2.662120e-01  1.945796e-01  0.000000e+00
     vertex -2.662120e-01  1.945796e-01  7.500000e-01
   endloop
 endfacet
 facet normal -2.454855e-01  9.694003e-01  0.000000e+00
   outer loop
     vertex -1.089289e-01  2.635704e-01  0.000000e+00
     vertex -1.933267e-01  2.421979e-01  7.500000e-01
     vertex -1.089289e-01  2.635704e-01  7.500000e-01
   endloop
 endfacet
 facet normal -2.454855e-01  9.694003e-01  0.000000e+00
   outer loop
     vertex -1.089289e-01  2.635704e-01  0.000000e+00
     vertex -1.933267e-01  2.421979e-01  0.000000e+00
     vertex -1.933267e-01  2.421979e-01  7.500000e-01
   endloop
 endfacet
 facet normal  8.257935e-02  9.965845e-01  0.000000e+00
   outer loop
     vertex -2.216436e-02  2.563809e-01  0.000000e+00
     vertex -1.089289e-01  2.635704e-01  0.000000e+00
     vertex -1.089289e-01  2.635704e-01  7.500000e-01
   endloop
 endfacet
 facet normal  8.257935e-02  9.965845e-01 -0.000000e+00
   outer loop
     vertex -2.216436e-02  2.563809e-01  0.000000e+00
     vertex -1.089289e-01  2.635704e-01  7.500000e-01
     vertex -2.216436e-02  2.563809e-01  7.500000e-01
   endloop
 endfacet
 facet normal  4.016954e-01  9.157733e-01  0.000000e+00
   outer loop
     vertex  5.756458e-02  2.214085e-01  0.000000e+00
     vertex -2.216436e-02  2.563809e-01  0.000000e+00
     vertex -2.216436e-02  2.563809e-01  7.500000e-01
   endloop
 endfacet
 facet normal  4.016954e-01  9.157733e-01 -0.000000e+00
   outer loop
     vertex  5.756458e-02  2.214085e-01  0.000000e+00
     vertex -2.216436e-02  2.563809e-01  7.500000e-01
     vertex  5.756458e-02  2.214085e-01  7.500000e-01
   endloop
 endfacet
 facet normal  6.772816e-01  7.357239e-01  0.000000e+00
   outer loop
     vertex  1.216181e-01  1.624431e-01  0.000000e+00
     vertex  5.756458e-02  2.214085e-01  0.000000e+00
     vertex  5.756458e-02  2.214085e-01  7.500000e-01
   endloop
 endfacet
 facet normal  8.794738e-01  4.759474e-01 -0.000000e+00
   outer loop
     vertex  1.216181e-01  1.624431e-01  0.000000e+00
     vertex  1.216181e-01  1.624431e-01  7.500000e-01
     vertex  1.630550e-01  8.587446e-02  7.500000e-01
   endloop
 endfacet
 facet normal  6.772816e-01  7.357239e-01 -0.000000e+00
   outer loop
     vertex  1.216181e-01  1.624431e-01  0.000000e+00
     vertex  5.756458e-02  2.214085e-01  7.500000e-01
     vertex  1.216181e-01  1.624431e-01  7.500000e-01
   endloop
 endfacet
 facet normal  8.794738e-01  4.759474e-01 -0.000000e+00
   outer loop
     vertex  1.630550e-01  8.587446e-02  0.000000e+00
     vertex  1.216181e-01  1.624431e-01  0.000000e+00
     vertex  1.630550e-01  8.587446e-02  7.500000e-01
   endloop
 endfacet
 facet normal  9.863613e-01  1.645946e-01  0.000000e+00
   outer loop
     vertex  1.773849e-01  0.000000e+00  0.000000e+00
     vertex  1.630550e-01  8.587446e-02  0.000000e+00
     vertex  1.630550e-01  8.587446e-02  7.500000e-01
   endloop
 endfacet
 facet normal  9.863613e-01  1.645946e-01 -0.000000e+00
   outer loop
     vertex  1.773849e-01  0.000000e+00  0.000000e+00
     vertex  1.630550e-01  8.587446e-02  7.500000e-01
     vertex  1.773849e-01  0.000000e+00  7.500000e-01
   endloop
 endfacet
 facet normal -9.594930e-01  2.817326e-01  0.000000e+00
   outer loop
     vertex  4.269668e-02 -8.340807e-02  0.000000e+00
     vertex  6.718750e-02  0.000000e+00  7.500000e-01
     vertex  6.718750e-02  0.000000e+00  0.000000e+00
   endloop
 endfacet
 facet normal -9.594930e-01  2.817326e-01  0.000000e+00
   outer loop
     vertex  4.269668e-02 -8.340807e-02  0.000000e+00
     vertex  4.269668e-02 -8.340807e-02  7.500000e-01
     vertex  6.718750e-02  0.000000e+00  7.500000e-01
   endloop
 endfacet
 facet normal -6.548607e-01  7.557496e-01  0.000000e+00
   outer loop
     vertex -2.300012e-02 -1.403347e-01  0.000000e+00
     vertex -2.300012e-02 -1.403347e-01  7.500000e-01
     vertex  4.269668e-02 -8.340807e-02  7.500000e-01
   endloop
 endfacet
 facet normal -6.548607e-01  7.557496e-01  0.000000e+00
   outer loop
     vertex -2.300012e-02 -1.403347e-01  0.000000e+00
     vertex  4.269668e-02 -8.340807e-02  7.500000e-01
     vertex  4.269668e-02 -8.340807e-02  0.000000e+00
   endloop
 endfacet
 facet normal -1.423148e-01  9.898214e-01  0.000000e+00
   outer loop
     vertex -1.090446e-01 -1.527060e-01  0.000000e+00
     vertex -1.090446e-01 -1.527060e-01  7.500000e-01
     vertex -2.300012e-02 -1.403347e-01  7.500000e-01
   endloop
 endfacet
 facet normal -1.423148e-01  9.898214e-01  0.000000e+00
   outer loop
     vertex -1.090446e-01 -1.527060e-01  0.000000e+00
     vertex -2.300012e-02 -1.403347e-01  7.500000e-01
     vertex -2.300012e-02 -1.403347e-01  0.000000e+00
   endloop
 endfacet
 facet normal  4.154150e-01  9.096320e-01 -0.000000e+00
   outer loop
     vertex -1.881183e-01 -1.165943e-01  0.000000e+00
     vertex -1.881183e-01 -1.165943e-01  7.500000e-01
     vertex -1.090446e-01 -1.527060e-01  7.500000e-01
   endloop
 endfacet
 facet normal  4.154150e-01  9.096320e-01  0.000000e+00
   outer loop
     vertex -1.881183e-01 -1.165943e-01  0.000000e+00
     vertex -1.090446e-01 -1.527060e-01  7.500000e-01
     vertex -1.090446e-01 -1.527060e-01  0.000000e+00
   endloop
 endfacet
 facet normal  8.412535e-01  5.406408e-01 -0.000000e+00
   outer loop
     vertex -2.351159e-01 -4.346466e-02  0.000000e+00
     vertex -2.351159e-01 -4.346466e-02  7.500000e-01
     vertex -1.881183e-01 -1.165943e-01  7.500000e-01
   endloop
 endfacet
 facet normal  8.412535e-01  5.406408e-01  0.000000e+00
   outer loop
     vertex -2.351159e-01 -4.346466e-02  0.000000e+00
     vertex -1.881183e-01 -1.165943e-01  7.500000e-01
     vertex -1.881183e-01 -1.165943e-01  0.000000e+00
   endloop
 endfacet
 facet normal  1.000000e+00  0.000000e+00 -0.000000e+00
   outer loop
     vertex -2.351159e-01  4.346466e-02  0.000000e+00
     vertex -2.351159e-01  4.346466e-02  7.500000e-01
     vertex -2.351159e-01 -4.346466e-02  7.500000e-01
   endloop
 endfacet
 facet normal  1.000000e+00  0.000000e+00  0.000000e+00
   outer loop
     vertex -2.351159e-01  4.346466e-02  0.000000e+00
     vertex -2.351159e-01 -4.346466e-02  7.500000e-01
     vertex -2.351159e-01 -4.346466e-02  0.000000e+00
   endloop
 endfacet
 facet normal  4.154150e-01 -9.096320e-01  0.000000e+00
   outer loop
     vertex -1.881183e-01  1.165943e-01  0.000000e+00
     vertex -1.090446e-01  1.527060e-01  7.500000e-01
     vertex -1.881183e-01  1.165943e-01  7.500000e-01
   endloop
 endfacet
 facet normal  8.412535e-01 -5.406408e-01  0.000000e+00
   outer loop
     vertex -1.881183e-01  1.165943e-01  0.000000e+00
     vertex -1.881183e-01  1.165943e-01  7.500000e-01
     vertex -2.351159e-01  4.346466e-02  7.500000e-01
   endloop
 endfacet
 facet normal  8.412535e-01 -5.406408e-01  0.000000e+00
   outer loop
     vertex -1.881183e-01  1.165943e-01  0.000000e+00
     vertex -2.351159e-01  4.346466e-02  7.500000e-01
     vertex -2.351159e-01  4.346466e-02  0.000000e+00
   endloop
 endfacet
 facet normal -1.423148e-01 -9.898214e-01  0.000000e+00
   outer loop
     vertex -1.090446e-01  1.527060e-01  0.000000e+00
     vertex -2.300012e-02  1.403347e-01  7.500000e-01
     vertex -1.090446e-01  1.527060e-01  7.500000e-01
   endloop
 endfacet
 facet normal  4.154150e-01 -9.096320e-01  0.000000e+00
   outer loop
     vertex -1.090446e-01  1.527060e-01  0.000000e+00
     vertex -1.090446e-01  1.527060e-01  7.500000e-01
     vertex -1.881183e-01  1.165943e-01  0.000000e+00
   endloop
 endfacet
 facet normal -1.423148e-01 -9.898214e-01  0.000000e+00
   outer loop
     vertex -2.300012e-02  1.403347e-01  0.000000e+00
     vertex -2.300012e-02  1.403347e-01  7.500000e-01
     vertex -1.090446e-01  1.527060e-01  0.000000e+00
   endloop
 endfacet
 facet normal -9.594930e-01 -2.817326e-01  0.000000e+00
   outer loop
     vertex  4.269668e-02  8.340807e-02  0.000000e+00
     vertex  6.718750e-02  0.000000e+00  7.500000e-01
     vertex  4.269668e-02  8.340807e-02  7.500000e-01
   endloop
 endfacet
 facet normal -6.548607e-01 -7.557496e-01  0.000000e+00
   outer loop
     vertex  4.269668e-02  8.340807e-02  0.000000e+00
     vertex  4.269668e-02  8.340807e-02  7.500000e-01
     vertex -2.300012e-02  1.403347e-01  7.500000e-01
   endloop
 endfacet
 facet normal -6.548607e-01 -7.557496e-01  0.000000e+00
   outer loop
     vertex  4.269668e-02  8.340807e-02  0.000000e+00
     vertex -2.300012e-02  1.403347e-01  7.500000e-01
     vertex -2.300012e-02  1.403347e-01  0.000000e+00
   endloop
 endfacet
 facet normal -9.594930e-01 -2.817326e-01  0.000000e+00
   outer loop
     vertex  6.718750e-02  0.000000e+00  0.000000e+00
     vertex  6.718750e-02  0.000000e+00  7.500000e-01
     vertex  4.269668e-02  8.340807e-02  0.000000e+00
   endloop
 endfacet
 facet normal  0.000000e+00  0.000000e+00 -1.000000e+00
   outer loop
     vertex -1.881183e-01 -1.165943e-01  0.000000e+00
     vertex -2.662120e-01 -1.945796e-01  0.000000e+00
     vertex -3.196865e-01 -1.258756e-01  0.000000e+00
   endloop
 endfacet
 facet normal  0.000000e+00  0.000000e+00 -1.000000e+00
   outer loop
     vertex -1.881183e-01 -1.165943e-01  0.000000e+00
     vertex -1.933267e-01 -2.421979e-01  0.000000e+00
     vertex -2.662120e-01 -1.945796e-01  0.000000e+00
   endloop
 endfacet
 facet normal  0.000000e+00  0.000000e+00 -1.000000e+00
   outer loop
     vertex -2.351159e-01 -4.346466e-02  0.000000e+00
     vertex -3.196865e-01 -1.258756e-01  0.000000e+00
     vertex -3.479554e-01 -4.353094e-02  0.000000e+00
   endloop
 endfacet
 facet normal  0.000000e+00 -0.000000e+00 -1.000000e+00
   outer loop
     vertex -2.351159e-01 -4.346466e-02  0.000000e+00
     vertex -1.881183e-01 -1.165943e-01  0.000000e+00
     vertex -3.196865e-01 -1.258756e-01  0.000000e+00
   endloop
 endfacet
 facet normal  0.000000e+00 -0.000000e+00 -1.000000e+00
   outer loop
     vertex -1.090446e-01 -1.527060e-01  0.000000e+00
     vertex -1.089289e-01 -2.635704e-01  0.000000e+00
     vertex -1.933267e-01 -2.421979e-01  0.000000e+00
   endloop
 endfacet
 facet normal  0.000000e+00  0.000000e+00 -1.000000e+00
   outer loop
     vertex -1.090446e-01 -1.527060e-01  0.000000e+00
     vertex -2.216436e-02 -2.563809e-01  0.000000e+00
     vertex -1.089289e-01 -2.635704e-01  0.000000e+00
   endloop
 endfacet
 facet normal -0.000000e+00  0.000000e+00 -1.000000e+00
   outer loop
     vertex -1.090446e-01 -1.527060e-01  0.000000e+00
     vertex -1.933267e-01 -2.421979e-01  0.000000e+00
     vertex -1.881183e-01 -1.165943e-01  0.000000e+00
   endloop
 endfacet
 facet normal  0.000000e+00  0.000000e+00 -1.000000e+00
   outer loop
     vertex -2.351159e-01  4.346466e-02  0.000000e+00
     vertex -3.479554e-01  4.353094e-02  0.000000e+00
     vertex -3.196865e-01  1.258756e-01  0.000000e+00
   endloop
 endfacet
 facet normal -0.000000e+00  0.000000e+00 -1.000000e+00
   outer loop
     vertex -2.351159e-01  4.346466e-02  0.000000e+00
     vertex -3.479554e-01 -4.353094e-02  0.000000e+00
     vertex -3.479554e-01  4.353094e-02  0.000000e+00
   endloop
 endfacet
 facet normal  0.000000e+00 -0.000000e+00 -1.000000e+00
   outer loop
     vertex -2.351159e-01  4.346466e-02  0.000000e+00
     vertex -2.351159e-01 -4.346466e-02  0.000000e+00
     vertex -3.479554e-01 -4.353094e-02  0.000000e+00
   endloop
 endfacet
 facet normal  0.000000e+00  0.000000e+00 -1.000000e+00
   outer loop
     vertex -2.300012e-02 -1.403347e-01  0.000000e+00
     vertex  5.756458e-02 -2.214085e-01  0.000000e+00
     vertex -2.216436e-02 -2.563809e-01  0.000000e+00
   endloop
 endfacet
 facet normal  0.000000e+00 -0.000000e+00 -1.000000e+00
   outer loop
     vertex -2.300012e-02 -1.403347e-01  0.000000e+00
     vertex -2.216436e-02 -2.563809e-01  0.000000e+00
     vertex -1.090446e-01 -1.527060e-01  0.000000e+00
   endloop
 endfacet
 facet normal  0.000000e+00  0.000000e+00 -1.000000e+00
   outer loop
     vertex -1.881183e-01  1.165943e-01  0.000000e+00
     vertex -3.196865e-01  1.258756e-01  0.000000e+00
     vertex -2.662120e-01  1.945796e-01  0.000000e+00
   endloop
 endfacet
 facet normal -0.000000e+00  0.000000e+00 -1.000000e+00
   outer loop
     vertex -1.881183e-01  1.165943e-01  0.000000e+00
     vertex -2.351159e-01  4.346466e-02  0.000000e+00
     vertex -3.196865e-01  1.258756e-01  0.000000e+00
   endloop
 endfacet
 facet normal  0.000000e+00  0.000000e+00 -1.000000e+00
   outer loop
     vertex  4.269668e-02 -8.340807e-02  0.000000e+00
     vertex  1.216181e-01 -1.624431e-01  0.000000e+00
     vertex  5.756458e-02 -2.214085e-01  0.000000e+00
   endloop
 endfacet
 facet normal  0.000000e+00 -0.000000e+00 -1.000000e+00
   outer loop
     vertex  4.269668e-02 -8.340807e-02  0.000000e+00
     vertex  5.756458e-02 -2.214085e-01  0.000000e+00
     vertex -2.300012e-02 -1.403347e-01  0.000000e+00
   endloop
 endfacet
 facet normal  0.000000e+00  0.000000e+00 -1.000000e+00
   outer loop
     vertex -1.933267e-01  2.421979e-01  0.000000e+00
     vertex -1.090446e-01  1.527060e-01  0.000000e+00
     vertex -1.881183e-01  1.165943e-01  0.000000e+00
   endloop
 endfacet
 facet normal  0.000000e+00 -0.000000e+00 -1.000000e+00
   outer loop
     vertex -1.933267e-01  2.421979e-01  0.000000e+00
     vertex -1.881183e-01  1.165943e-01  0.000000e+00
     vertex -2.662120e-01  1.945796e-01  0.000000e+00
   endloop
 endfacet
 facet normal  0.000000e+00  0.000000e+00 -1.000000e+00
   outer loop
     vertex  1.630550e-01 -8.587446e-02  0.000000e+00
     vertex  4.269668e-02 -8.340807e-02  0.000000e+00
     vertex  6.718750e-02  0.000000e+00  0.000000e+00
   endloop
 endfacet
 facet normal -0.000000e+00  0.000000e+00 -1.000000e+00
   outer loop
     vertex  1.630550e-01 -8.587446e-02  0.000000e+00
     vertex  1.216181e-01 -1.624431e-01  0.000000e+00
     vertex  4.269668e-02 -8.340807e-02  0.000000e+00
   endloop
 endfacet
 facet normal  0.000000e+00  0.000000e+00 -1.000000e+00
   outer loop
     vertex -1.089289e-01  2.635704e-01  0.000000e+00
     vertex -1.090446e-01  1.527060e-01  0.000000e+00
     vertex -1.933267e-01  2.421979e-01  0.000000e+00
   endloop
 endfacet
 facet normal -0.000000e+00  0.000000e+00 -1.000000e+00
   outer loop
     vertex  1.773849e-01  0.000000e+00  0.000000e+00
     vertex  1.630550e-01 -8.587446e-02  0.000000e+00
     vertex  6.718750e-02  0.000000e+00  0.000000e+00
   endloop
 endfacet
 facet normal  0.000000e+00  0.000000e+00 -1.000000e+00
   outer loop
     vertex -2.216436e-02  2.563809e-01  0.000000e+00
     vertex -2.300012e-02  1.403347e-01  0.000000e+00
     vertex -1.090446e-01  1.527060e-01  0.000000e+00
   endloop
 endfacet
 facet normal -0.000000e+00  0.000000e+00 -1.000000e+00
   outer loop
     vertex -2.216436e-02  2.563809e-01  0.000000e+00
     vertex -1.090446e-01  1.527060e-01  0.000000e+00
     vertex -1.089289e-01  2.635704e-01  0.000000e+00
   endloop
 endfacet
 facet normal  0.000000e+00  0.000000e+00 -1.000000e+00
   outer loop
     vertex  1.630550e-01  8.587446e-02  0.000000e+00
     vertex  6.718750e-02  0.000000e+00  0.000000e+00
     vertex  4.269668e-02  8.340807e-02  0.000000e+00
   endloop
 endfacet
 facet normal  0.000000e+00 -0.000000e+00 -1.000000e+00
   outer loop
     vertex  1.630550e-01  8.587446e-02  0.000000e+00
     vertex  1.773849e-01  0.000000e+00  0.000000e+00
     vertex  6.718750e-02  0.000000e+00  0.000000e+00
   endloop
 endfacet
 facet normal  0.000000e+00  0.000000e+00 -1.000000e+00
   outer loop
     vertex  5.756458e-02  2.214085e-01  0.000000e+00
     vertex  4.269668e-02  8.340807e-02  0.000000e+00
     vertex -2.300012e-02  1.403347e-01  0.000000e+00
   endloop
 endfacet
 facet normal -0.000000e+00  0.000000e+00 -1.000000e+00
   outer loop
     vertex  5.756458e-02  2.214085e-01  0.000000e+00
     vertex -2.300012e-02  1.403347e-01  0.000000e+00
     vertex -2.216436e-02  2.563809e-01  0.000000e+00
   endloop
 endfacet
 facet normal -0.000000e+00  0.000000e+00 -1.000000e+00
   outer loop
     vertex  1.216181e-01  1.624431e-01  0.000000e+00
     vertex  4.269668e-02  8.340807e-02  0.000000e+00
     vertex  5.756458e-02  2.214085e-01  0.000000e+00
   endloop
 endfacet
 facet normal  0.000000e+00 -0.000000e+00 -1.000000e+00
   outer loop
     vertex  1.216181e-01  1.624431e-01  0.000000e+00
     vertex  1.630550e-01  8.587446e-02  0.000000e+00
     vertex  4.269668e-02  8.340807e-02  0.000000e+00
   endloop
 endfacet
 facet normal  0.000000e+00  0.000000e+00  1.000000e+00
   outer loop
     vertex -1.881183e-01 -1.165943e-01  7.500000e-01
     vertex -3.196865e-01 -1.258756e-01  7.500000e-01
     vertex -2.662120e-01 -1.945796e-01  7.500000e-01
   endloop
 endfacet
 facet normal  0.000000e+00  0.000000e+00  1.000000e+00
   outer loop
     vertex -1.881183e-01 -1.165943e-01  7.500000e-01
     vertex -2.662120e-01 -1.945796e-01  7.500000e-01
     vertex -1.933267e-01 -2.421979e-01  7.500000e-01
   endloop
 endfacet
 facet normal  0.000000e+00  0.000000e+00  1.000000e+00
   outer loop
     vertex -2.351159e-01 -4.346466e-02  7.500000e-01
     vertex -3.479554e-01 -4.353094e-02  7.500000e-01
     vertex -3.196865e-01 -1.258756e-01  7.500000e-01
   endloop
 endfacet
 facet normal  0.000000e+00  0.000000e+00  1.000000e+00
   outer loop
     vertex -2.351159e-01 -4.346466e-02  7.500000e-01
     vertex -3.196865e-01 -1.258756e-01  7.500000e-01
     vertex -1.881183e-01 -1.165943e-01  7.500000e-01
   endloop
 endfacet
 facet normal  0.000000e+00  0.000000e+00  1.000000e+00
   outer loop
     vertex -1.090446e-01 -1.527060e-01  7.500000e-01
     vertex -1.933267e-01 -2.421979e-01  7.500000e-01
     vertex -1.089289e-01 -2.635704e-01  7.500000e-01
   endloop
 endfacet
 facet normal  0.000000e+00  0.000000e+00  1.000000e+00
   outer loop
     vertex -1.090446e-01 -1.527060e-01  7.500000e-01
     vertex -1.089289e-01 -2.635704e-01  7.500000e-01
     vertex -2.216436e-02 -2.563809e-01  7.500000e-01
   endloop
 endfacet
 facet normal  0.000000e+00  0.000000e+00  1.000000e+00
   outer loop
     vertex -1.090446e-01 -1.527060e-01  7.500000e-01
     vertex -1.881183e-01 -1.165943e-01  7.500000e-01
     vertex -1.933267e-01 -2.421979e-01  7.500000e-01
   endloop
 endfacet
 facet normal  0.000000e+00  0.000000e+00  1.000000e+00
   outer loop
     vertex -2.351159e-01  4.346466e-02  7.500000e-01
     vertex -3.196865e-01  1.258756e-01  7.500000e-01
     vertex -3.479554e-01  4.353094e-02  7.500000e-01
   endloop
 endfacet
 facet normal  0.000000e+00  0.000000e+00  1.000000e+00
   outer loop
     vertex -2.351159e-01  4.346466e-02  7.500000e-01
     vertex -3.479554e-01  4.353094e-02  7.500000e-01
     vertex -3.479554e-01 -4.353094e-02  7.500000e-01
   endloop
 endfacet
 facet normal  0.000000e+00  0.000000e+00  1.000000e+00
   outer loop
     vertex -2.351159e-01  4.346466e-02  7.500000e-01
     vertex -3.479554e-01 -4.353094e-02  7.500000e-01
     vertex -2.351159e-01 -4.346466e-02  7.500000e-01
   endloop
 endfacet
 facet normal  0.000000e+00  0.000000e+00  1.000000e+00
   outer loop
     vertex -2.300012e-02 -1.403347e-01  7.500000e-01
     vertex -2.216436e-02 -2.563809e-01  7.500000e-01
     vertex  5.756458e-02 -2.214085e-01  7.500000e-01
   endloop
 endfacet
 facet normal  0.000000e+00  0.000000e+00  1.000000e+00
   outer loop
     vertex -2.300012e-02 -1.403347e-01  7.500000e-01
     vertex -1.090446e-01 -1.527060e-01  7.500000e-01
     vertex -2.216436e-02 -2.563809e-01  7.500000e-01
   endloop
 endfacet
 facet normal  0.000000e+00  0.000000e+00  1.000000e+00
   outer loop
     vertex -1.881183e-01  1.165943e-01  7.500000e-01
     vertex -2.662120e-01  1.945796e-01  7.500000e-01
     vertex -3.196865e-01  1.258756e-01  7.500000e-01
   endloop
 endfacet
 facet normal  0.000000e+00  0.000000e+00  1.000000e+00
   outer loop
     vertex -1.881183e-01  1.165943e-01  7.500000e-01
     vertex -3.196865e-01  1.258756e-01  7.500000e-01
     vertex -2.351159e-01  4.346466e-02  7.500000e-01
   endloop
 endfacet
 facet normal  0.000000e+00  0.000000e+00  1.000000e+00
   outer loop
     vertex  4.269668e-02 -8.340807e-02  7.500000e-01
     vertex  5.756458e-02 -2.214085e-01  7.500000e-01
     vertex  1.216181e-01 -1.624431e-01  7.500000e-01
   endloop
 endfacet
 facet normal  0.000000e+00  0.000000e+00  1.000000e+00
   outer loop
     vertex  4.269668e-02 -8.340807e-02  7.500000e-01
     vertex -2.300012e-02 -1.403347e-01  7.500000e-01
     vertex  5.756458e-02 -2.214085e-01  7.500000e-01
   endloop
 endfacet
 facet normal  0.000000e+00  0.000000e+00  1.000000e+00
   outer loop
     vertex -1.933267e-01  2.421979e-01  7.500000e-01
     vertex -1.881183e-01  1.165943e-01  7.500000e-01
     vertex -1.090446e-01  1.527060e-01  7.500000e-01
   endloop
 endfacet
 facet normal  0.000000e+00  0.000000e+00  1.000000e+00
   outer loop
     vertex -1.933267e-01  2.421979e-01  7.500000e-01
     vertex -2.662120e-01  1.945796e-01  7.500000e-01
     vertex -1.881183e-01  1.165943e-01  7.500000e-01
   endloop
 endfacet
 facet normal  0.000000e+00  0.000000e+00  1.000000e+00
   outer loop
     vertex  1.630550e-01 -8.587446e-02  7.500000e-01
     vertex  6.718750e-02  0.000000e+00  7.500000e-01
     vertex  4.269668e-02 -8.340807e-02  7.500000e-01
   endloop
 endfacet
 facet normal  0.000000e+00  0.000000e+00  1.000000e+00
   outer loop
     vertex  1.630550e-01 -8.587446e-02  7.500000e-01
     vertex  4.269668e-02 -8.340807e-02  7.500000e-01
     vertex  1.216181e-01 -1.624431e-01  7.500000e-01
   endloop
 endfacet
 facet normal  0.000000e+00  0.000000e+00  1.000000e+00
   outer loop
     vertex -1.089289e-01  2.635704e-01  7.500000e-01
     vertex -1.933267e-01  2.421979e-01  7.500000e-01
     vertex -1.090446e-01  1.527060e-01  7.500000e-01
   endloop
 endfacet
 facet normal  0.000000e+00  0.000000e+00  1.000000e+00
   outer loop
     vertex  1.773849e-01  0.000000e+00  7.500000e-01
     vertex  6.718750e-02  0.000000e+00  7.500000e-01
     vertex  1.630550e-01 -8.587446e-02  7.500000e-01
   endloop
 endfacet
 facet normal  0.000000e+00  0.000000e+00  1.000000e+00
   outer loop
     vertex -2.216436e-02  2.563809e-01  7.500000e-01
     vertex -1.090446e-01  1.527060e-01  7.500000e-01
     vertex -2.300012e-02  1.403347e-01  7.500000e-01
   endloop
 endfacet
 facet normal  0.000000e+00  0.000000e+00  1.000000e+00
   outer loop
     vertex -2.216436e-02  2.563809e-01  7.500000e-01
     vertex -1.089289e-01  2.635704e-01  7.500000e-01
     vertex -1.090446e-01  1.527060e-01  7.500000e-01
   endloop
 endfacet
 facet normal  0.000000e+00  0.000000e+00  1.000000e+00
   outer loop
     vertex  1.630550e-01  8.587446e-02  7.500000e-01
     vertex  4.269668e-02  8.340807e-02  7.500000e-01
     vertex  6.718750e-02  0.000000e+00  7.500000e-01
   endloop
 endfacet
 facet normal  0.000000e+00  0.000000e+00  1.000000e+00
   outer loop
     vertex  1.630550e-01  8.587446e-02  7.500000e-01
     vertex  6.718750e-02  0.000000e+00  7.500000e-01
     vertex  1.773849e-01  0.000000e+00  7.500000e-01
   endloop
 endfacet
 facet normal  0.000000e+00  0.000000e+00  1.000000e+00
   outer loop
     vertex  5.756458e-02  2.214085e-01  7.500000e-01
     vertex -2.300012e-02  1.403347e-01  7.500000e-01
     vertex  4.269668e-02  8.340807e-02  7.500000e-01
   endloop
 endfacet
 facet normal  0.000000e+00  0.000000e+00  1.000000e+00
   outer loop
     vertex  5.756458e-02  2.214085e-01  7.500000e-01
     vertex -2.216436e-02  2.563809e-01  7.500000e-01
     vertex -2.300012e-02  1.403347e-01  7.500000e-01
   endloop
 endfacet
 facet normal  0.000000e+00  0.000000e+00  1.000000e+00
   outer loop
     vertex  1.216181e-01  1.624431e-01  7.500000e-01
     vertex  5.756458e-02  2.214085e-01  7.500000e-01
     vertex  4.269668e-02  8.340807e-02  7.500000e-01
   endloop
 endfacet
 facet normal  0.000000e+00  0.000000e+00  1.000000e+00
   outer loop
     vertex  1.216181e-01  1.624431e-01  7.500000e-01
     vertex  4.269668e-02  8.340807e-02  7.500000e-01
     vertex  1.630550e-01  8.587446e-02  7.500000e-01
   endloop
 endfacet
endsolid
