solid 
 facet normal  0.000000e+00 -1.000000e+00  0.000000e+00
   outer loop
     vertex  2.328125e-01 -3.046875e-01  0.000000e+00
     vertex -5.234375e-01 -3.046875e-01  1.562500e-02
     vertex -5.234375e-01 -3.046875e-01  0.000000e+00
   endloop
 endfacet
 facet normal  0.000000e+00 -1.000000e+00  0.000000e+00
   outer loop
     vertex  2.328125e-01 -3.046875e-01  0.000000e+00
     vertex  2.328125e-01 -3.046875e-01  1.562500e-02
     vertex -5.234375e-01 -3.046875e-01  1.562500e-02
   endloop
 endfacet
 facet normal  1.000000e+00  0.000000e+00  0.000000e+00
   outer loop
     vertex  2.328125e-01  6.406250e-01  0.000000e+00
     vertex  2.328125e-01 -3.046875e-01  1.562500e-02
     vertex  2.328125e-01 -3.046875e-01  0.000000e+00
   endloop
 endfacet
 facet normal  1.000000e+00  0.000000e+00 -0.000000e+00
   outer loop
     vertex  2.328125e-01  6.406250e-01  0.000000e+00
     vertex  2.328125e-01  6.406250e-01  1.562500e-02
     vertex  2.328125e-01 -3.046875e-01  1.562500e-02
   endloop
 endfacet
 facet normal  0.000000e+00  1.000000e+00  0.000000e+00
   outer loop
     vertex -5.234375e-01  6.406250e-01  0.000000e+00
     vertex  2.328125e-01  6.406250e-01  1.562500e-02
     vertex  2.328125e-01  6.406250e-01  0.000000e+00
   endloop
 endfacet
 facet normal  0.000000e+00  1.000000e+00  0.000000e+00
   outer loop
     vertex -5.234375e-01  6.406250e-01  0.000000e+00
     vertex -5.234375e-01  6.406250e-01  1.562500e-02
     vertex  2.328125e-01  6.406250e-01  1.562500e-02
   endloop
 endfacet
 facet normal -1.000000e+00  0.000000e+00  0.000000e+00
   outer loop
     vertex -5.234375e-01 -3.046875e-01  0.000000e+00
     vertex -5.234375e-01  6.406250e-01  1.562500e-02
     vertex -5.234375e-01  6.406250e-01  0.000000e+00
   endloop
 endfacet
 facet normal -1.000000e+00  0.000000e+00  0.000000e+00
   outer loop
     vertex -5.234375e-01 -3.046875e-01  0.000000e+00
     vertex -5.234375e-01 -3.046875e-01  1.562500e-02
     vertex -5.234375e-01  6.406250e-01  1.562500e-02
   endloop
 endfacet
 facet normal  0.000000e+00 -0.000000e+00 -1.000000e+00
   outer loop
     vertex  2.328125e-01  6.406250e-01  0.000000e+00
     vertex  2.328125e-01 -3.046875e-01  0.000000e+00
     vertex -5.234375e-01 -3.046875e-01  0.000000e+00
   endloop
 endfacet
 facet normal -0.000000e+00  0.000000e+00 -1.000000e+00
   outer loop
     vertex  2.328125e-01  6.406250e-01  0.000000e+00
     vertex -5.234375e-01 -3.046875e-01  0.000000e+00
     vertex -5.234375e-01  6.406250e-01  0.000000e+00
   endloop
 endfacet
 facet normal  0.000000e+00  0.000000e+00  1.000000e+00
   outer loop
     vertex  2.328125e-01  6.406250e-01  1.562500e-02
     vertex -5.234375e-01 -3.046875e-01  1.562500e-02
     vertex  2.328125e-01 -3.046875e-01  1.562500e-02
   endloop
 endfacet
 facet normal  0.000000e+00  0.000000e+00  1.000000e+00
   outer loop
     vertex  2.328125e-01  6.406250e-01  1.562500e-02
     vertex -5.234375e-01  6.406250e-01  1.562500e-02
     vertex -5.234375e-01 -3.046875e-01  1.562500e-02
   endloop
 endfacet
endsolid
