solid 
 facet normal -7.071068e-01  0.000000e+00 -7.071068e-01
   outer loop
     vertex -1.250000e-01  5.970383e-33  1.933653e-18
     vertex -1.092105e-01  0.000000e+00 -1.578947e-02
     vertex -1.092105e-01 -7.500000e-01 -1.578947e-02
   endloop
 endfacet
 facet normal -7.071068e-01 -4.329780e-17 -7.071068e-01
   outer loop
     vertex -1.250000e-01  5.970383e-33  1.933653e-18
     vertex -1.092105e-01 -7.500000e-01 -1.578947e-02
     vertex -1.250000e-01 -7.500000e-01  4.785791e-17
   endloop
 endfacet
 facet normal -7.071068e-01  4.252334e-17  7.071068e-01
   outer loop
     vertex -1.092105e-01  1.933653e-18  1.578947e-02
     vertex -1.250000e-01 -7.500000e-01  4.785791e-17
     vertex -1.092105e-01 -7.500000e-01  1.578947e-02
   endloop
 endfacet
 facet normal -7.071068e-01  4.208039e-17  7.071068e-01
   outer loop
     vertex -1.092105e-01  1.933653e-18  1.578947e-02
     vertex -1.250000e-01  5.970383e-33  1.933653e-18
     vertex -1.250000e-01 -7.500000e-01  4.785791e-17
   endloop
 endfacet
 facet normal  7.071068e-01  4.329780e-17  7.071068e-01
   outer loop
     vertex -9.342105e-02  1.933653e-18 -1.933653e-18
     vertex -1.092105e-01 -7.500000e-01  1.578947e-02
     vertex -9.342105e-02 -7.500000e-01  4.399060e-17
   endloop
 endfacet
 facet normal  7.071068e-01  4.208039e-17  7.071068e-01
   outer loop
     vertex -9.342105e-02  1.933653e-18 -1.933653e-18
     vertex -1.092105e-01  1.933653e-18  1.578947e-02
     vertex -1.092105e-01 -7.500000e-01  1.578947e-02
   endloop
 endfacet
 facet normal  7.071068e-01  0.000000e+00 -7.071068e-01
   outer loop
     vertex -1.092105e-01  0.000000e+00 -1.578947e-02
     vertex -9.342105e-02 -7.500000e-01  4.399060e-17
     vertex -1.092105e-01 -7.500000e-01 -1.578947e-02
   endloop
 endfacet
 facet normal  7.071068e-01 -4.531734e-17 -7.071068e-01
   outer loop
     vertex -1.092105e-01  0.000000e+00 -1.578947e-02
     vertex -9.342105e-02  1.933653e-18 -1.933653e-18
     vertex -9.342105e-02 -7.500000e-01  4.399060e-17
   endloop
 endfacet
 facet normal  7.071068e-01  0.000000e+00  7.071068e-01
   outer loop
     vertex -1.217105e-01  2.014222e-19  1.329386e-18
     vertex -1.092105e-01 -7.500000e-01 -1.250000e-02
     vertex -1.092105e-01  2.014222e-19 -1.250000e-02
   endloop
 endfacet
 facet normal  7.071068e-01  4.329780e-17  7.071068e-01
   outer loop
     vertex -1.217105e-01  2.014222e-19  1.329386e-18
     vertex -1.217105e-01 -7.500000e-01  4.725364e-17
     vertex -1.092105e-01 -7.500000e-01 -1.250000e-02
   endloop
 endfacet
 facet normal  7.071068e-01 -4.415885e-17 -7.071068e-01
   outer loop
     vertex -1.092105e-01  1.732231e-18  1.250000e-02
     vertex -1.092105e-01 -7.500000e-01  1.250000e-02
     vertex -1.217105e-01 -7.500000e-01  4.725364e-17
   endloop
 endfacet
 facet normal  7.071068e-01 -4.088782e-17 -7.071068e-01
   outer loop
     vertex -1.092105e-01  1.732231e-18  1.250000e-02
     vertex -1.217105e-01 -7.500000e-01  4.725364e-17
     vertex -1.217105e-01  2.014222e-19  1.329386e-18
   endloop
 endfacet
 facet normal -7.071068e-01 -4.329780e-17 -7.071068e-01
   outer loop
     vertex -9.671053e-02  1.732231e-18 -1.732231e-18
     vertex -9.671053e-02 -7.500000e-01  4.419202e-17
     vertex -1.092105e-01 -7.500000e-01  1.250000e-02
   endloop
 endfacet
 facet normal -7.071068e-01 -4.497661e-17 -7.071068e-01
   outer loop
     vertex -9.671053e-02  1.732231e-18 -1.732231e-18
     vertex -1.092105e-01 -7.500000e-01  1.250000e-02
     vertex -1.092105e-01  1.732231e-18  1.250000e-02
   endloop
 endfacet
 facet normal -7.071068e-01  0.000000e+00  7.071068e-01
   outer loop
     vertex -1.092105e-01  2.014222e-19 -1.250000e-02
     vertex -1.092105e-01 -7.500000e-01 -1.250000e-02
     vertex -9.671053e-02 -7.500000e-01  4.419202e-17
   endloop
 endfacet
 facet normal -7.071068e-01  4.293222e-17  7.071068e-01
   outer loop
     vertex -1.092105e-01  2.014222e-19 -1.250000e-02
     vertex -9.671053e-02 -7.500000e-01  4.419202e-17
     vertex -9.671053e-02  1.732231e-18 -1.732231e-18
   endloop
 endfacet
 facet normal -6.123234e-17  1.000000e+00 -6.123234e-17
   outer loop
     vertex -1.217105e-01  2.014222e-19  1.329386e-18
     vertex -1.092105e-01  0.000000e+00 -1.578947e-02
     vertex -1.250000e-01  5.970383e-33  1.933653e-18
   endloop
 endfacet
 facet normal -6.123234e-17  1.000000e+00 -6.123234e-17
   outer loop
     vertex -1.217105e-01  2.014222e-19  1.329386e-18
     vertex -1.092105e-01  2.014222e-19 -1.250000e-02
     vertex -1.092105e-01  0.000000e+00 -1.578947e-02
   endloop
 endfacet
 facet normal -6.123234e-17  1.000000e+00 -6.123234e-17
   outer loop
     vertex -9.342105e-02  1.933653e-18 -1.933653e-18
     vertex -1.092105e-01  2.014222e-19 -1.250000e-02
     vertex -9.671053e-02  1.732231e-18 -1.732231e-18
   endloop
 endfacet
 facet normal -6.123234e-17  1.000000e+00 -6.123234e-17
   outer loop
     vertex -9.342105e-02  1.933653e-18 -1.933653e-18
     vertex -1.092105e-01  0.000000e+00 -1.578947e-02
     vertex -1.092105e-01  2.014222e-19 -1.250000e-02
   endloop
 endfacet
 facet normal -6.123234e-17  1.000000e+00 -6.123234e-17
   outer loop
     vertex -1.092105e-01  1.933653e-18  1.578947e-02
     vertex -9.671053e-02  1.732231e-18 -1.732231e-18
     vertex -1.092105e-01  1.732231e-18  1.250000e-02
   endloop
 endfacet
 facet normal -6.123234e-17  1.000000e+00 -6.123234e-17
   outer loop
     vertex -1.092105e-01  1.933653e-18  1.578947e-02
     vertex -1.092105e-01  1.732231e-18  1.250000e-02
     vertex -1.217105e-01  2.014222e-19  1.329386e-18
   endloop
 endfacet
 facet normal -6.123234e-17  1.000000e+00 -6.123234e-17
   outer loop
     vertex -1.092105e-01  1.933653e-18  1.578947e-02
     vertex -1.217105e-01  2.014222e-19  1.329386e-18
     vertex -1.250000e-01  5.970383e-33  1.933653e-18
   endloop
 endfacet
 facet normal -6.123234e-17  1.000000e+00 -6.123234e-17
   outer loop
     vertex -1.092105e-01  1.933653e-18  1.578947e-02
     vertex -9.342105e-02  1.933653e-18 -1.933653e-18
     vertex -9.671053e-02  1.732231e-18 -1.732231e-18
   endloop
 endfacet
 facet normal -0.000000e+00 -1.000000e+00 -0.000000e+00
   outer loop
     vertex -1.217105e-01 -7.500000e-01  4.725364e-17
     vertex -1.250000e-01 -7.500000e-01  4.785791e-17
     vertex -1.092105e-01 -7.500000e-01 -1.578947e-02
   endloop
 endfacet
 facet normal  0.000000e+00 -1.000000e+00  0.000000e+00
   outer loop
     vertex -1.217105e-01 -7.500000e-01  4.725364e-17
     vertex -1.092105e-01 -7.500000e-01 -1.578947e-02
     vertex -1.092105e-01 -7.500000e-01 -1.250000e-02
   endloop
 endfacet
 facet normal -0.000000e+00 -1.000000e+00  0.000000e+00
   outer loop
     vertex -9.342105e-02 -7.500000e-01  4.399060e-17
     vertex -9.671053e-02 -7.500000e-01  4.419202e-17
     vertex -1.092105e-01 -7.500000e-01 -1.250000e-02
   endloop
 endfacet
 facet normal  0.000000e+00 -1.000000e+00  0.000000e+00
   outer loop
     vertex -9.342105e-02 -7.500000e-01  4.399060e-17
     vertex -1.092105e-01 -7.500000e-01 -1.250000e-02
     vertex -1.092105e-01 -7.500000e-01 -1.578947e-02
   endloop
 endfacet
 facet normal  0.000000e+00 -1.000000e+00  0.000000e+00
   outer loop
     vertex -1.092105e-01 -7.500000e-01  1.578947e-02
     vertex -1.092105e-01 -7.500000e-01  1.250000e-02
     vertex -9.671053e-02 -7.500000e-01  4.419202e-17
   endloop
 endfacet
 facet normal  0.000000e+00 -1.000000e+00 -0.000000e+00
   outer loop
     vertex -1.092105e-01 -7.500000e-01  1.578947e-02
     vertex -1.217105e-01 -7.500000e-01  4.725364e-17
     vertex -1.092105e-01 -7.500000e-01  1.250000e-02
   endloop
 endfacet
 facet normal  0.000000e+00 -1.000000e+00  0.000000e+00
   outer loop
     vertex -1.092105e-01 -7.500000e-01  1.578947e-02
     vertex -1.250000e-01 -7.500000e-01  4.785791e-17
     vertex -1.217105e-01 -7.500000e-01  4.725364e-17
   endloop
 endfacet
 facet normal  0.000000e+00 -1.000000e+00  0.000000e+00
   outer loop
     vertex -1.092105e-01 -7.500000e-01  1.578947e-02
     vertex -9.671053e-02 -7.500000e-01  4.419202e-17
     vertex -9.342105e-02 -7.500000e-01  4.399060e-17
   endloop
 endfacet
endsolid
