solid 
 facet normal -2.500543e-01 -0.000000e+00 -9.682318e-01
   outer loop
     vertex -3.862664e-01 -1.401395e-17 -3.894737e-01
     vertex -3.862664e-01 -7.812500e-03 -3.894737e-01
     vertex -4.637352e-01 -7.812500e-03 -3.694667e-01
   endloop
 endfacet
 facet normal -2.500543e-01 -0.000000e+00 -9.682318e-01
   outer loop
     vertex -4.637352e-01 -1.753247e-17 -3.694667e-01
     vertex -3.862664e-01 -1.401395e-17 -3.894737e-01
     vertex -4.637352e-01 -7.812500e-03 -3.694667e-01
   endloop
 endfacet
 facet normal -5.982735e-01 -0.000000e+00 -8.012919e-01
   outer loop
     vertex -5.278471e-01 -1.852710e-17 -3.215985e-01
     vertex -4.637352e-01 -7.812500e-03 -3.694667e-01
     vertex -5.278471e-01 -7.812500e-03 -3.215985e-01
   endloop
 endfacet
 facet normal -5.982735e-01  0.000000e+00 -8.012919e-01
   outer loop
     vertex -5.278471e-01 -1.852710e-17 -3.215985e-01
     vertex -4.637352e-01 -1.753247e-17 -3.694667e-01
     vertex -4.637352e-01 -7.812500e-03 -3.694667e-01
   endloop
 endfacet
 facet normal -8.572749e-01 -0.000000e+00 -5.148589e-01
   outer loop
     vertex -5.690412e-01 -1.684953e-17 -2.530074e-01
     vertex -5.278471e-01 -7.812500e-03 -3.215985e-01
     vertex -5.690412e-01 -7.812500e-03 -2.530074e-01
   endloop
 endfacet
 facet normal -8.572749e-01  0.000000e+00 -5.148589e-01
   outer loop
     vertex -5.690412e-01 -1.684953e-17 -2.530074e-01
     vertex -5.278471e-01 -1.852710e-17 -3.215985e-01
     vertex -5.278471e-01 -7.812500e-03 -3.215985e-01
   endloop
 endfacet
 facet normal -9.884347e-01 -0.000000e+00 -1.516473e-01
   outer loop
     vertex -5.811746e-01 -1.274991e-17 -1.739222e-01
     vertex -5.690412e-01 -7.812500e-03 -2.530074e-01
     vertex -5.811746e-01 -7.812500e-03 -1.739222e-01
   endloop
 endfacet
 facet normal -9.884347e-01  0.000000e+00 -1.516473e-01
   outer loop
     vertex -5.811746e-01 -1.274991e-17 -1.739222e-01
     vertex -5.690412e-01 -1.684953e-17 -2.530074e-01
     vertex -5.690412e-01 -7.812500e-03 -2.530074e-01
   endloop
 endfacet
 facet normal -9.721935e-01  0.000000e+00  2.341788e-01
   outer loop
     vertex -5.624378e-01 -6.839608e-18 -9.613645e-02
     vertex -5.811746e-01 -7.812500e-03 -1.739222e-01
     vertex -5.624378e-01 -7.812500e-03 -9.613645e-02
   endloop
 endfacet
 facet normal -9.721935e-01  0.000000e+00  2.341788e-01
   outer loop
     vertex -5.624378e-01 -6.839608e-18 -9.613645e-02
     vertex -5.811746e-01 -1.274991e-17 -1.739222e-01
     vertex -5.811746e-01 -7.812500e-03 -1.739222e-01
   endloop
 endfacet
 facet normal -8.109735e-01  0.000000e+00  5.850829e-01
   outer loop
     vertex -5.156250e-01 -1.107410e-33 -3.125000e-02
     vertex -5.624378e-01 -7.812500e-03 -9.613645e-02
     vertex -5.156250e-01 -7.812500e-03 -3.125000e-02
   endloop
 endfacet
 facet normal -8.109735e-01  0.000000e+00  5.850829e-01
   outer loop
     vertex -5.156250e-01 -1.107410e-33 -3.125000e-02
     vertex -5.624378e-01 -6.839608e-18 -9.613645e-02
     vertex -5.624378e-01 -7.812500e-03 -9.613645e-02
   endloop
 endfacet
 facet normal  4.678877e-01  0.000000e+00 -8.837879e-01
   outer loop
     vertex  2.903783e-01  4.935347e-17 -3.125000e-02
     vertex -3.862664e-01 -7.812500e-03 -3.894737e-01
     vertex -3.862664e-01 -1.401395e-17 -3.894737e-01
   endloop
 endfacet
 facet normal  4.678877e-01  0.000000e+00 -8.837879e-01
   outer loop
     vertex  2.903783e-01  4.935347e-17 -3.125000e-02
     vertex  2.903783e-01 -7.812500e-03 -3.125000e-02
     vertex -3.862664e-01 -7.812500e-03 -3.894737e-01
   endloop
 endfacet
 facet normal  9.938837e-01  0.000000e+00 -1.104315e-01
   outer loop
     vertex  3.401316e-01  7.981857e-17  4.165296e-01
     vertex  2.903783e-01 -7.812500e-03 -3.125000e-02
     vertex  2.903783e-01  4.935347e-17 -3.125000e-02
   endloop
 endfacet
 facet normal  9.938837e-01  0.000000e+00 -1.104315e-01
   outer loop
     vertex  3.401316e-01  7.981857e-17  4.165296e-01
     vertex  3.401316e-01 -7.812500e-03  4.165296e-01
     vertex  2.903783e-01 -7.812500e-03 -3.125000e-02
   endloop
 endfacet
 facet normal  9.539937e-01  0.000000e+00  2.998266e-01
   outer loop
     vertex  2.306743e-01  9.444182e-17  7.648026e-01
     vertex  3.401316e-01 -7.812500e-03  4.165296e-01
     vertex  3.401316e-01  7.981857e-17  4.165296e-01
   endloop
 endfacet
 facet normal  9.539937e-01  0.000000e+00  2.998266e-01
   outer loop
     vertex  2.306743e-01  9.444182e-17  7.648026e-01
     vertex  2.306743e-01 -7.812500e-03  7.648026e-01
     vertex  3.401316e-01 -7.812500e-03  4.165296e-01
   endloop
 endfacet
 facet normal -1.240347e-01  0.000000e+00  9.922779e-01
   outer loop
     vertex -1.673520e-01  6.702323e-17  7.150493e-01
     vertex  2.306743e-01 -7.812500e-03  7.648026e-01
     vertex  2.306743e-01  9.444182e-17  7.648026e-01
   endloop
 endfacet
 facet normal -1.240347e-01  0.000000e+00  9.922779e-01
   outer loop
     vertex -1.673520e-01  6.702323e-17  7.150493e-01
     vertex -1.673520e-01 -7.812500e-03  7.150493e-01
     vertex  2.306743e-01 -7.812500e-03  7.648026e-01
   endloop
 endfacet
 facet normal -4.640070e-01  0.000000e+00  8.858315e-01
   outer loop
     vertex -3.763158e-01  4.752556e-17  6.055921e-01
     vertex -1.673520e-01 -7.812500e-03  7.150493e-01
     vertex -1.673520e-01  6.702323e-17  7.150493e-01
   endloop
 endfacet
 facet normal -4.640070e-01  0.000000e+00  8.858315e-01
   outer loop
     vertex -3.763158e-01  4.752556e-17  6.055921e-01
     vertex -3.763158e-01 -7.812500e-03  6.055921e-01
     vertex -1.673520e-01 -7.812500e-03  7.150493e-01
   endloop
 endfacet
 facet normal -9.821552e-01  0.000000e+00 -1.880723e-01
   outer loop
     vertex -2.867599e-01  2.437208e-17  1.379112e-01
     vertex -3.763158e-01 -7.812500e-03  6.055921e-01
     vertex -3.763158e-01  4.752556e-17  6.055921e-01
   endloop
 endfacet
 facet normal -9.821552e-01 -0.000000e+00 -1.880723e-01
   outer loop
     vertex -2.867599e-01  2.437208e-17  1.379112e-01
     vertex -2.867599e-01 -7.812500e-03  1.379112e-01
     vertex -3.763158e-01 -7.812500e-03  6.055921e-01
   endloop
 endfacet
 facet normal -5.943911e-01  0.000000e+00  8.041761e-01
   outer loop
     vertex -5.156250e-01 -1.107410e-33 -3.125000e-02
     vertex -2.867599e-01 -7.812500e-03  1.379112e-01
     vertex -2.867599e-01  2.437208e-17  1.379112e-01
   endloop
 endfacet
 facet normal -5.943911e-01  0.000000e+00  8.041761e-01
   outer loop
     vertex -5.156250e-01 -1.107410e-33 -3.125000e-02
     vertex -5.156250e-01 -7.812500e-03 -3.125000e-02
     vertex -2.867599e-01 -7.812500e-03  1.379112e-01
   endloop
 endfacet
 facet normal -6.123234e-17  1.000000e+00 -6.123234e-17
   outer loop
     vertex -5.624378e-01 -6.839608e-18 -9.613645e-02
     vertex -5.690412e-01 -1.684953e-17 -2.530074e-01
     vertex -5.811746e-01 -1.274991e-17 -1.739222e-01
   endloop
 endfacet
 facet normal -6.123234e-17  1.000000e+00 -6.123234e-17
   outer loop
     vertex -5.624378e-01 -6.839608e-18 -9.613645e-02
     vertex -5.278471e-01 -1.852710e-17 -3.215985e-01
     vertex -5.690412e-01 -1.684953e-17 -2.530074e-01
   endloop
 endfacet
 facet normal -6.123234e-17  1.000000e+00 -6.123234e-17
   outer loop
     vertex -5.624378e-01 -6.839608e-18 -9.613645e-02
     vertex -4.637352e-01 -1.753247e-17 -3.694667e-01
     vertex -5.278471e-01 -1.852710e-17 -3.215985e-01
   endloop
 endfacet
 facet normal -6.123234e-17  1.000000e+00 -6.123234e-17
   outer loop
     vertex -5.156250e-01 -1.107410e-33 -3.125000e-02
     vertex -3.862664e-01 -1.401395e-17 -3.894737e-01
     vertex -4.637352e-01 -1.753247e-17 -3.694667e-01
   endloop
 endfacet
 facet normal -6.123234e-17  1.000000e+00 -6.123234e-17
   outer loop
     vertex -5.156250e-01 -1.107410e-33 -3.125000e-02
     vertex -4.637352e-01 -1.753247e-17 -3.694667e-01
     vertex -5.624378e-01 -6.839608e-18 -9.613645e-02
   endloop
 endfacet
 facet normal -6.123234e-17  1.000000e+00 -6.123234e-17
   outer loop
     vertex -2.867599e-01  2.437208e-17  1.379112e-01
     vertex -3.862664e-01 -1.401395e-17 -3.894737e-01
     vertex -5.156250e-01 -1.107410e-33 -3.125000e-02
   endloop
 endfacet
 facet normal -6.123234e-17  1.000000e+00 -6.123234e-17
   outer loop
     vertex  2.903783e-01  4.935347e-17 -3.125000e-02
     vertex -3.862664e-01 -1.401395e-17 -3.894737e-01
     vertex -2.867599e-01  2.437208e-17  1.379112e-01
   endloop
 endfacet
 facet normal -6.123234e-17  1.000000e+00 -6.123234e-17
   outer loop
     vertex -1.673520e-01  6.702323e-17  7.150493e-01
     vertex -2.867599e-01  2.437208e-17  1.379112e-01
     vertex -3.763158e-01  4.752556e-17  6.055921e-01
   endloop
 endfacet
 facet normal -6.123234e-17  1.000000e+00 -6.123234e-17
   outer loop
     vertex  3.401316e-01  7.981857e-17  4.165296e-01
     vertex  2.903783e-01  4.935347e-17 -3.125000e-02
     vertex -2.867599e-01  2.437208e-17  1.379112e-01
   endloop
 endfacet
 facet normal -6.123234e-17  1.000000e+00 -6.123234e-17
   outer loop
     vertex  3.401316e-01  7.981857e-17  4.165296e-01
     vertex -2.867599e-01  2.437208e-17  1.379112e-01
     vertex -1.673520e-01  6.702323e-17  7.150493e-01
   endloop
 endfacet
 facet normal -6.123234e-17  1.000000e+00 -6.123234e-17
   outer loop
     vertex  2.306743e-01  9.444182e-17  7.648026e-01
     vertex  3.401316e-01  7.981857e-17  4.165296e-01
     vertex -1.673520e-01  6.702323e-17  7.150493e-01
   endloop
 endfacet
 facet normal  5.841811e-17 -1.000000e+00  5.283233e-17
   outer loop
     vertex -5.624378e-01 -7.812500e-03 -9.613645e-02
     vertex -5.811746e-01 -7.812500e-03 -1.739222e-01
     vertex -5.690412e-01 -7.812500e-03 -2.530074e-01
   endloop
 endfacet
 facet normal  4.668113e-17 -1.000000e+00  5.332639e-17
   outer loop
     vertex -5.624378e-01 -7.812500e-03 -9.613645e-02
     vertex -5.690412e-01 -7.812500e-03 -2.530074e-01
     vertex -5.278471e-01 -7.812500e-03 -3.215985e-01
   endloop
 endfacet
 facet normal  3.892720e-17 -1.000000e+00  5.213677e-17
   outer loop
     vertex -5.624378e-01 -7.812500e-03 -9.613645e-02
     vertex -5.278471e-01 -7.812500e-03 -3.215985e-01
     vertex -4.637352e-01 -7.812500e-03 -3.694667e-01
   endloop
 endfacet
 facet normal  2.469567e-16 -1.000000e+00  8.917880e-17
   outer loop
     vertex -5.156250e-01 -7.812500e-03 -3.125000e-02
     vertex -4.637352e-01 -7.812500e-03 -3.694667e-01
     vertex -3.862664e-01 -7.812500e-03 -3.894737e-01
   endloop
 endfacet
 facet normal  6.360733e-17 -1.000000e+00  6.104904e-17
   outer loop
     vertex -5.156250e-01 -7.812500e-03 -3.125000e-02
     vertex -5.624378e-01 -7.812500e-03 -9.613645e-02
     vertex -4.637352e-01 -7.812500e-03 -3.694667e-01
   endloop
 endfacet
 facet normal  0.000000e+00 -1.000000e+00  0.000000e+00
   outer loop
     vertex -2.867599e-01 -7.812500e-03  1.379112e-01
     vertex -5.156250e-01 -7.812500e-03 -3.125000e-02
     vertex -3.862664e-01 -7.812500e-03 -3.894737e-01
   endloop
 endfacet
 facet normal -0.000000e+00 -1.000000e+00  0.000000e+00
   outer loop
     vertex  2.903783e-01 -7.812500e-03 -3.125000e-02
     vertex -2.867599e-01 -7.812500e-03  1.379112e-01
     vertex -3.862664e-01 -7.812500e-03 -3.894737e-01
   endloop
 endfacet
 facet normal  0.000000e+00 -1.000000e+00  0.000000e+00
   outer loop
     vertex -1.673520e-01 -7.812500e-03  7.150493e-01
     vertex -3.763158e-01 -7.812500e-03  6.055921e-01
     vertex -2.867599e-01 -7.812500e-03  1.379112e-01
   endloop
 endfacet
 facet normal  0.000000e+00 -1.000000e+00  0.000000e+00
   outer loop
     vertex  3.401316e-01 -7.812500e-03  4.165296e-01
     vertex -2.867599e-01 -7.812500e-03  1.379112e-01
     vertex  2.903783e-01 -7.812500e-03 -3.125000e-02
   endloop
 endfacet
 facet normal -0.000000e+00 -1.000000e+00  0.000000e+00
   outer loop
     vertex  3.401316e-01 -7.812500e-03  4.165296e-01
     vertex -1.673520e-01 -7.812500e-03  7.150493e-01
     vertex -2.867599e-01 -7.812500e-03  1.379112e-01
   endloop
 endfacet
 facet normal  0.000000e+00 -1.000000e+00 -0.000000e+00
   outer loop
     vertex  2.306743e-01 -7.812500e-03  7.648026e-01
     vertex -1.673520e-01 -7.812500e-03  7.150493e-01
     vertex  3.401316e-01 -7.812500e-03  4.165296e-01
   endloop
 endfacet
endsolid
