solid 
 facet normal  0.000000e+00 -1.000000e+00  0.000000e+00
   outer loop
     vertex  3.593750e-02 -3.125000e-01  0.000000e+00
     vertex -4.765625e-01 -3.125000e-01  3.359375e-01
     vertex -4.765625e-01 -3.125000e-01  0.000000e+00
   endloop
 endfacet
 facet normal  0.000000e+00 -1.000000e+00  0.000000e+00
   outer loop
     vertex  3.593750e-02 -3.125000e-01  0.000000e+00
     vertex  3.593750e-02 -3.125000e-01  3.359375e-01
     vertex -4.765625e-01 -3.125000e-01  3.359375e-01
   endloop
 endfacet
 facet normal  1.000000e+00  0.000000e+00  0.000000e+00
   outer loop
     vertex  3.593750e-02  3.281250e-01  0.000000e+00
     vertex  3.593750e-02 -3.125000e-01  3.359375e-01
     vertex  3.593750e-02 -3.125000e-01  0.000000e+00
   endloop
 endfacet
 facet normal  1.000000e+00  0.000000e+00 -0.000000e+00
   outer loop
     vertex  3.593750e-02  3.281250e-01  0.000000e+00
     vertex  3.593750e-02  3.281250e-01  3.359375e-01
     vertex  3.593750e-02 -3.125000e-01  3.359375e-01
   endloop
 endfacet
 facet normal  0.000000e+00  1.000000e+00  0.000000e+00
   outer loop
     vertex -4.765625e-01  3.281250e-01  0.000000e+00
     vertex  3.593750e-02  3.281250e-01  3.359375e-01
     vertex  3.593750e-02  3.281250e-01  0.000000e+00
   endloop
 endfacet
 facet normal  0.000000e+00  1.000000e+00  0.000000e+00
   outer loop
     vertex -4.765625e-01  3.281250e-01  0.000000e+00
     vertex -4.765625e-01  3.281250e-01  3.359375e-01
     vertex  3.593750e-02  3.281250e-01  3.359375e-01
   endloop
 endfacet
 facet normal -1.000000e+00  0.000000e+00  0.000000e+00
   outer loop
     vertex -4.765625e-01 -3.125000e-01  0.000000e+00
     vertex -4.765625e-01  3.281250e-01  3.359375e-01
     vertex -4.765625e-01  3.281250e-01  0.000000e+00
   endloop
 endfacet
 facet normal -1.000000e+00  0.000000e+00  0.000000e+00
   outer loop
     vertex -4.765625e-01 -3.125000e-01  0.000000e+00
     vertex -4.765625e-01 -3.125000e-01  3.359375e-01
     vertex -4.765625e-01  3.281250e-01  3.359375e-01
   endloop
 endfacet
 facet normal  0.000000e+00 -0.000000e+00 -1.000000e+00
   outer loop
     vertex  3.593750e-02  3.281250e-01  0.000000e+00
     vertex  3.593750e-02 -3.125000e-01  0.000000e+00
     vertex -4.765625e-01 -3.125000e-01  0.000000e+00
   endloop
 endfacet
 facet normal -0.000000e+00  0.000000e+00 -1.000000e+00
   outer loop
     vertex  3.593750e-02  3.281250e-01  0.000000e+00
     vertex -4.765625e-01 -3.125000e-01  0.000000e+00
     vertex -4.765625e-01  3.281250e-01  0.000000e+00
   endloop
 endfacet
 facet normal  0.000000e+00  0.000000e+00  1.000000e+00
   outer loop
     vertex  3.593750e-02  3.281250e-01  3.359375e-01
     vertex -4.765625e-01 -3.125000e-01  3.359375e-01
     vertex  3.593750e-02 -3.125000e-01  3.359375e-01
   endloop
 endfacet
 facet normal  0.000000e+00  0.000000e+00  1.000000e+00
   outer loop
     vertex  3.593750e-02  3.281250e-01  3.359375e-01
     vertex -4.765625e-01  3.281250e-01  3.359375e-01
     vertex -4.765625e-01 -3.125000e-01  3.359375e-01
   endloop
 endfacet
endsolid
