solid 
 facet normal -1.205367e-01  0.000000e+00 -9.927089e-01
   outer loop
     vertex -1.734813e-01 -9.757559e-18 -7.358717e-01
     vertex  7.894737e-03  0.000000e+00 -7.578947e-01
     vertex  7.894737e-03 -3.750000e-01 -7.578947e-01
   endloop
 endfacet
 facet normal -1.205367e-01 -0.000000e+00 -9.927089e-01
   outer loop
     vertex -1.734813e-01 -9.757559e-18 -7.358717e-01
     vertex  7.894737e-03 -3.750000e-01 -7.578947e-01
     vertex -1.734813e-01 -3.750000e-01 -7.358717e-01
   endloop
 endfacet
 facet normal -3.546049e-01 -0.000000e+00 -9.350162e-01
   outer loop
     vertex -3.443165e-01 -1.625100e-17 -6.710825e-01
     vertex -1.734813e-01 -3.750000e-01 -7.358717e-01
     vertex -3.443165e-01 -3.750000e-01 -6.710825e-01
   endloop
 endfacet
 facet normal -3.546049e-01  0.000000e+00 -9.350162e-01
   outer loop
     vertex -3.443165e-01 -1.625100e-17 -6.710825e-01
     vertex -1.734813e-01 -9.757559e-18 -7.358717e-01
     vertex -1.734813e-01 -3.750000e-01 -7.358717e-01
   endloop
 endfacet
 facet normal -5.680647e-01 -0.000000e+00 -8.229839e-01
   outer loop
     vertex -4.946824e-01 -1.910295e-17 -5.672924e-01
     vertex -3.443165e-01 -3.750000e-01 -6.710825e-01
     vertex -4.946824e-01 -3.750000e-01 -5.672924e-01
   endloop
 endfacet
 facet normal -5.680647e-01  0.000000e+00 -8.229839e-01
   outer loop
     vertex -4.946824e-01 -1.910295e-17 -5.672924e-01
     vertex -3.443165e-01 -1.625100e-17 -6.710825e-01
     vertex -3.443165e-01 -3.750000e-01 -6.710825e-01
   endloop
 endfacet
 facet normal -7.485107e-01 -9.816187e-17 -6.631227e-01
   outer loop
     vertex -6.158404e-01 -1.814765e-17 -4.305333e-01
     vertex -4.946824e-01 -3.750000e-01 -5.672924e-01
     vertex -6.158404e-01 -3.750000e-01 -4.305333e-01
   endloop
 endfacet
 facet normal -7.485107e-01  0.000000e+00 -6.631227e-01
   outer loop
     vertex -6.158404e-01 -1.814765e-17 -4.305333e-01
     vertex -4.946824e-01 -1.910295e-17 -5.672924e-01
     vertex -4.946824e-01 -3.750000e-01 -5.672924e-01
   endloop
 endfacet
 facet normal -8.854560e-01 -6.879285e-17 -4.647232e-01
   outer loop
     vertex -7.007492e-01 -1.344064e-17 -2.687532e-01
     vertex -6.158404e-01 -3.750000e-01 -4.305333e-01
     vertex -7.007492e-01 -3.750000e-01 -2.687532e-01
   endloop
 endfacet
 facet normal -8.854560e-01 -7.595601e-17 -4.647232e-01
   outer loop
     vertex -7.007492e-01 -1.344064e-17 -2.687532e-01
     vertex -6.158404e-01 -1.814765e-17 -4.305333e-01
     vertex -6.158404e-01 -3.750000e-01 -4.305333e-01
   endloop
 endfacet
 facet normal -9.709418e-01 -8.856459e-18 -2.393157e-01
   outer loop
     vertex -7.444741e-01 -5.255462e-18 -9.135412e-02
     vertex -7.007492e-01 -3.750000e-01 -2.687532e-01
     vertex -7.444741e-01 -3.750000e-01 -9.135412e-02
   endloop
 endfacet
 facet normal -9.709418e-01 -3.797800e-17 -2.393157e-01
   outer loop
     vertex -7.444741e-01 -5.255462e-18 -9.135412e-02
     vertex -7.007492e-01 -1.344064e-17 -2.687532e-01
     vertex -7.007492e-01 -3.750000e-01 -2.687532e-01
   endloop
 endfacet
 facet normal -1.000000e+00  6.746249e-32  1.822944e-15
   outer loop
     vertex -7.444741e-01  5.932190e-18  9.135412e-02
     vertex -7.444741e-01 -3.750000e-01 -9.135412e-02
     vertex -7.444741e-01 -3.750000e-01  9.135412e-02
   endloop
 endfacet
 facet normal -1.000000e+00  1.799000e-31  1.822944e-15
   outer loop
     vertex -7.444741e-01  5.932190e-18  9.135412e-02
     vertex -7.444741e-01 -5.255462e-18 -9.135412e-02
     vertex -7.444741e-01 -3.750000e-01 -9.135412e-02
   endloop
 endfacet
 facet normal -9.709418e-01  3.542583e-17  2.393157e-01
   outer loop
     vertex -7.007492e-01  1.947213e-17  2.687532e-01
     vertex -7.444741e-01 -3.750000e-01  9.135412e-02
     vertex -7.007492e-01 -3.750000e-01  2.687532e-01
   endloop
 endfacet
 facet normal -9.709418e-01  1.265933e-17  2.393157e-01
   outer loop
     vertex -7.007492e-01  1.947213e-17  2.687532e-01
     vertex -7.444741e-01  5.932190e-18  9.135412e-02
     vertex -7.444741e-01 -3.750000e-01  9.135412e-02
   endloop
 endfacet
 facet normal -8.854560e-01  6.879285e-17  4.647232e-01
   outer loop
     vertex -6.158404e-01  3.457747e-17  4.305333e-01
     vertex -7.007492e-01 -3.750000e-01  2.687532e-01
     vertex -6.158404e-01 -3.750000e-01  4.305333e-01
   endloop
 endfacet
 facet normal -8.854560e-01  7.595601e-17  4.647232e-01
   outer loop
     vertex -6.158404e-01  3.457747e-17  4.305333e-01
     vertex -7.007492e-01  1.947213e-17  2.687532e-01
     vertex -7.007492e-01 -3.750000e-01  2.687532e-01
   endloop
 endfacet
 facet normal -7.485107e-01  0.000000e+00  6.631227e-01
   outer loop
     vertex -4.946824e-01  5.037033e-17  5.672924e-01
     vertex -6.158404e-01 -3.750000e-01  4.305333e-01
     vertex -4.946824e-01 -3.750000e-01  5.672924e-01
   endloop
 endfacet
 facet normal -7.485107e-01  1.012747e-16  6.631227e-01
   outer loop
     vertex -4.946824e-01  5.037033e-17  5.672924e-01
     vertex -6.158404e-01  3.457747e-17  4.305333e-01
     vertex -6.158404e-01 -3.750000e-01  4.305333e-01
   endloop
 endfacet
 facet normal -5.680647e-01  0.000000e+00  8.229839e-01
   outer loop
     vertex -3.443165e-01  6.593290e-17  6.710825e-01
     vertex -4.946824e-01  5.037033e-17  5.672924e-01
     vertex -4.946824e-01 -3.750000e-01  5.672924e-01
   endloop
 endfacet
 facet normal -5.680647e-01  0.000000e+00  8.229839e-01
   outer loop
     vertex -3.443165e-01  6.593290e-17  6.710825e-01
     vertex -4.946824e-01 -3.750000e-01  5.672924e-01
     vertex -3.443165e-01 -3.750000e-01  6.710825e-01
   endloop
 endfacet
 facet normal -3.546049e-01  0.000000e+00  9.350162e-01
   outer loop
     vertex -1.734813e-01  8.036073e-17  7.358717e-01
     vertex -3.443165e-01  6.593290e-17  6.710825e-01
     vertex -3.443165e-01 -3.750000e-01  6.710825e-01
   endloop
 endfacet
 facet normal -3.546049e-01  0.000000e+00  9.350162e-01
   outer loop
     vertex -1.734813e-01  8.036073e-17  7.358717e-01
     vertex -3.443165e-01 -3.750000e-01  6.710825e-01
     vertex -1.734813e-01 -3.750000e-01  7.358717e-01
   endloop
 endfacet
 facet normal -1.205367e-01  0.000000e+00  9.927089e-01
   outer loop
     vertex  7.894737e-03  9.281534e-17  7.578947e-01
     vertex -1.734813e-01  8.036073e-17  7.358717e-01
     vertex -1.734813e-01 -3.750000e-01  7.358717e-01
   endloop
 endfacet
 facet normal -1.205367e-01  0.000000e+00  9.927089e-01
   outer loop
     vertex  7.894737e-03  9.281534e-17  7.578947e-01
     vertex -1.734813e-01 -3.750000e-01  7.358717e-01
     vertex  7.894737e-03 -3.750000e-01  7.578947e-01
   endloop
 endfacet
 facet normal  1.205367e-01  0.000000e+00  9.927089e-01
   outer loop
     vertex  1.892708e-01  1.025729e-16  7.358717e-01
     vertex  7.894737e-03  9.281534e-17  7.578947e-01
     vertex  7.894737e-03 -3.750000e-01  7.578947e-01
   endloop
 endfacet
 facet normal  1.205367e-01  0.000000e+00  9.927089e-01
   outer loop
     vertex  1.892708e-01  1.025729e-16  7.358717e-01
     vertex  7.894737e-03 -3.750000e-01  7.578947e-01
     vertex  1.892708e-01 -3.750000e-01  7.358717e-01
   endloop
 endfacet
 facet normal  3.546049e-01  0.000000e+00  9.350162e-01
   outer loop
     vertex  3.601060e-01  1.090663e-16  6.710825e-01
     vertex  1.892708e-01  1.025729e-16  7.358717e-01
     vertex  1.892708e-01 -3.750000e-01  7.358717e-01
   endloop
 endfacet
 facet normal  3.546049e-01  0.000000e+00  9.350162e-01
   outer loop
     vertex  3.601060e-01  1.090663e-16  6.710825e-01
     vertex  1.892708e-01 -3.750000e-01  7.358717e-01
     vertex  3.601060e-01 -3.750000e-01  6.710825e-01
   endloop
 endfacet
 facet normal  5.680647e-01  0.000000e+00  8.229839e-01
   outer loop
     vertex  5.104719e-01  1.119183e-16  5.672924e-01
     vertex  3.601060e-01  1.090663e-16  6.710825e-01
     vertex  3.601060e-01 -3.750000e-01  6.710825e-01
   endloop
 endfacet
 facet normal  5.680647e-01  0.000000e+00  8.229839e-01
   outer loop
     vertex  5.104719e-01  1.119183e-16  5.672924e-01
     vertex  3.601060e-01 -3.750000e-01  6.710825e-01
     vertex  5.104719e-01 -3.750000e-01  5.672924e-01
   endloop
 endfacet
 facet normal  7.485107e-01  0.000000e+00  6.631227e-01
   outer loop
     vertex  6.316299e-01  1.109630e-16  4.305333e-01
     vertex  5.104719e-01  1.119183e-16  5.672924e-01
     vertex  5.104719e-01 -3.750000e-01  5.672924e-01
   endloop
 endfacet
 facet normal  7.485107e-01  9.816187e-17  6.631227e-01
   outer loop
     vertex  6.316299e-01  1.109630e-16  4.305333e-01
     vertex  5.104719e-01 -3.750000e-01  5.672924e-01
     vertex  6.316299e-01 -3.750000e-01  4.305333e-01
   endloop
 endfacet
 facet normal  8.854560e-01  7.595601e-17  4.647232e-01
   outer loop
     vertex  7.165386e-01  1.062560e-16  2.687532e-01
     vertex  6.316299e-01  1.109630e-16  4.305333e-01
     vertex  6.316299e-01 -3.750000e-01  4.305333e-01
   endloop
 endfacet
 facet normal  8.854560e-01  6.879285e-17  4.647232e-01
   outer loop
     vertex  7.165386e-01  1.062560e-16  2.687532e-01
     vertex  6.316299e-01 -3.750000e-01  4.305333e-01
     vertex  7.165386e-01 -3.750000e-01  2.687532e-01
   endloop
 endfacet
 facet normal  9.709418e-01  8.856459e-18  2.393157e-01
   outer loop
     vertex  7.602636e-01  9.807080e-17  9.135412e-02
     vertex  7.165386e-01 -3.750000e-01  2.687532e-01
     vertex  7.602636e-01 -3.750000e-01  9.135412e-02
   endloop
 endfacet
 facet normal  9.709418e-01  3.797800e-17  2.393157e-01
   outer loop
     vertex  7.602636e-01  9.807080e-17  9.135412e-02
     vertex  7.165386e-01  1.062560e-16  2.687532e-01
     vertex  7.165386e-01 -3.750000e-01  2.687532e-01
   endloop
 endfacet
 facet normal  1.000000e+00  0.000000e+00  0.000000e+00
   outer loop
     vertex  7.602636e-01  8.688315e-17 -9.135412e-02
     vertex  7.602636e-01 -3.750000e-01  9.135412e-02
     vertex  7.602636e-01 -3.750000e-01 -9.135412e-02
   endloop
 endfacet
 facet normal  1.000000e+00  0.000000e+00 -0.000000e+00
   outer loop
     vertex  7.602636e-01  8.688315e-17 -9.135412e-02
     vertex  7.602636e-01  9.807080e-17  9.135412e-02
     vertex  7.602636e-01 -3.750000e-01  9.135412e-02
   endloop
 endfacet
 facet normal  9.709418e-01 -3.542583e-17 -2.393157e-01
   outer loop
     vertex  7.165386e-01  7.334321e-17 -2.687532e-01
     vertex  7.602636e-01 -3.750000e-01 -9.135412e-02
     vertex  7.165386e-01 -3.750000e-01 -2.687532e-01
   endloop
 endfacet
 facet normal  9.709418e-01  0.000000e+00 -2.393157e-01
   outer loop
     vertex  7.165386e-01  7.334321e-17 -2.687532e-01
     vertex  7.602636e-01  8.688315e-17 -9.135412e-02
     vertex  7.602636e-01 -3.750000e-01 -9.135412e-02
   endloop
 endfacet
 facet normal  8.854560e-01 -6.879285e-17 -4.647232e-01
   outer loop
     vertex  6.316299e-01  5.823787e-17 -4.305333e-01
     vertex  7.165386e-01 -3.750000e-01 -2.687532e-01
     vertex  6.316299e-01 -3.750000e-01 -4.305333e-01
   endloop
 endfacet
 facet normal  8.854560e-01 -5.063734e-17 -4.647232e-01
   outer loop
     vertex  6.316299e-01  5.823787e-17 -4.305333e-01
     vertex  7.165386e-01  7.334321e-17 -2.687532e-01
     vertex  7.165386e-01 -3.750000e-01 -2.687532e-01
   endloop
 endfacet
 facet normal  7.485107e-01  0.000000e+00 -6.631227e-01
   outer loop
     vertex  5.104719e-01  4.244501e-17 -5.672924e-01
     vertex  6.316299e-01 -3.750000e-01 -4.305333e-01
     vertex  5.104719e-01 -3.750000e-01 -5.672924e-01
   endloop
 endfacet
 facet normal  7.485107e-01 -1.012747e-16 -6.631227e-01
   outer loop
     vertex  5.104719e-01  4.244501e-17 -5.672924e-01
     vertex  6.316299e-01  5.823787e-17 -4.305333e-01
     vertex  6.316299e-01 -3.750000e-01 -4.305333e-01
   endloop
 endfacet
 facet normal  5.680647e-01  0.000000e+00 -8.229839e-01
   outer loop
     vertex  3.601060e-01  2.688244e-17 -6.710825e-01
     vertex  5.104719e-01 -3.750000e-01 -5.672924e-01
     vertex  3.601060e-01 -3.750000e-01 -6.710825e-01
   endloop
 endfacet
 facet normal  5.680647e-01  0.000000e+00 -8.229839e-01
   outer loop
     vertex  3.601060e-01  2.688244e-17 -6.710825e-01
     vertex  5.104719e-01  4.244501e-17 -5.672924e-01
     vertex  5.104719e-01 -3.750000e-01 -5.672924e-01
   endloop
 endfacet
 facet normal  1.205367e-01  0.000000e+00 -9.927089e-01
   outer loop
     vertex  1.892708e-01  1.245460e-17 -7.358717e-01
     vertex  1.892708e-01 -3.750000e-01 -7.358717e-01
     vertex  7.894737e-03 -3.750000e-01 -7.578947e-01
   endloop
 endfacet
 facet normal  3.546049e-01  0.000000e+00 -9.350162e-01
   outer loop
     vertex  1.892708e-01  1.245460e-17 -7.358717e-01
     vertex  3.601060e-01 -3.750000e-01 -6.710825e-01
     vertex  1.892708e-01 -3.750000e-01 -7.358717e-01
   endloop
 endfacet
 facet normal  3.546049e-01  0.000000e+00 -9.350162e-01
   outer loop
     vertex  1.892708e-01  1.245460e-17 -7.358717e-01
     vertex  3.601060e-01  2.688244e-17 -6.710825e-01
     vertex  3.601060e-01 -3.750000e-01 -6.710825e-01
   endloop
 endfacet
 facet normal  1.205367e-01  0.000000e+00 -9.927089e-01
   outer loop
     vertex  7.894737e-03  0.000000e+00 -7.578947e-01
     vertex  1.892708e-01  1.245460e-17 -7.358717e-01
     vertex  7.894737e-03 -3.750000e-01 -7.578947e-01
   endloop
 endfacet
 facet normal  1.205367e-01  0.000000e+00 -9.927089e-01
   outer loop
     vertex  1.892708e-01  1.245460e-17 -7.358717e-01
     vertex  7.894737e-03  0.000000e+00 -7.578947e-01
     vertex  7.894737e-03  3.750000e-01 -7.578947e-01
   endloop
 endfacet
 facet normal  1.205367e-01 -2.939009e-16 -9.927089e-01
   outer loop
     vertex  1.892708e-01  1.245460e-17 -7.358717e-01
     vertex  7.894737e-03  3.750000e-01 -7.578947e-01
     vertex  1.892708e-01  3.750000e-01 -7.358717e-01
   endloop
 endfacet
 facet normal  3.546049e-01 -2.768204e-16 -9.350162e-01
   outer loop
     vertex  3.601060e-01  2.688244e-17 -6.710825e-01
     vertex  1.892708e-01  3.750000e-01 -7.358717e-01
     vertex  3.601060e-01  3.750000e-01 -6.710825e-01
   endloop
 endfacet
 facet normal  3.546049e-01 -2.785054e-16 -9.350162e-01
   outer loop
     vertex  3.601060e-01  2.688244e-17 -6.710825e-01
     vertex  1.892708e-01  1.245460e-17 -7.358717e-01
     vertex  1.892708e-01  3.750000e-01 -7.358717e-01
   endloop
 endfacet
 facet normal  5.680647e-01 -2.436522e-16 -8.229839e-01
   outer loop
     vertex  5.104719e-01  4.244501e-17 -5.672924e-01
     vertex  3.601060e-01  3.750000e-01 -6.710825e-01
     vertex  5.104719e-01  3.750000e-01 -5.672924e-01
   endloop
 endfacet
 facet normal  5.680647e-01 -2.531867e-16 -8.229839e-01
   outer loop
     vertex  5.104719e-01  4.244501e-17 -5.672924e-01
     vertex  3.601060e-01  2.688244e-17 -6.710825e-01
     vertex  3.601060e-01  3.750000e-01 -6.710825e-01
   endloop
 endfacet
 facet normal  7.485107e-01  0.000000e+00 -6.631227e-01
   outer loop
     vertex  6.316299e-01  5.823787e-17 -4.305333e-01
     vertex  5.104719e-01  3.750000e-01 -5.672924e-01
     vertex  6.316299e-01  3.750000e-01 -4.305333e-01
   endloop
 endfacet
 facet normal  7.485107e-01 -2.025494e-16 -6.631227e-01
   outer loop
     vertex  6.316299e-01  5.823787e-17 -4.305333e-01
     vertex  5.104719e-01  4.244501e-17 -5.672924e-01
     vertex  5.104719e-01  3.750000e-01 -5.672924e-01
   endloop
 endfacet
 facet normal  8.854560e-01  0.000000e+00 -4.647232e-01
   outer loop
     vertex  7.165386e-01  7.334321e-17 -2.687532e-01
     vertex  6.316299e-01  3.750000e-01 -4.305333e-01
     vertex  7.165386e-01  3.750000e-01 -2.687532e-01
   endloop
 endfacet
 facet normal  8.854560e-01  0.000000e+00 -4.647232e-01
   outer loop
     vertex  7.165386e-01  7.334321e-17 -2.687532e-01
     vertex  6.316299e-01  5.823787e-17 -4.305333e-01
     vertex  6.316299e-01  3.750000e-01 -4.305333e-01
   endloop
 endfacet
 facet normal  9.709418e-01 -1.771292e-17 -2.393157e-01
   outer loop
     vertex  7.602636e-01  8.688315e-17 -9.135412e-02
     vertex  7.165386e-01  3.750000e-01 -2.687532e-01
     vertex  7.602636e-01  3.750000e-01 -9.135412e-02
   endloop
 endfacet
 facet normal  9.709418e-01  0.000000e+00 -2.393157e-01
   outer loop
     vertex  7.602636e-01  8.688315e-17 -9.135412e-02
     vertex  7.165386e-01  7.334321e-17 -2.687532e-01
     vertex  7.165386e-01  3.750000e-01 -2.687532e-01
   endloop
 endfacet
 facet normal  1.000000e+00  0.000000e+00  0.000000e+00
   outer loop
     vertex  7.602636e-01  9.807080e-17  9.135412e-02
     vertex  7.602636e-01  3.750000e-01 -9.135412e-02
     vertex  7.602636e-01  3.750000e-01  9.135412e-02
   endloop
 endfacet
 facet normal  1.000000e+00  0.000000e+00  0.000000e+00
   outer loop
     vertex  7.602636e-01  9.807080e-17  9.135412e-02
     vertex  7.602636e-01  8.688315e-17 -9.135412e-02
     vertex  7.602636e-01  3.750000e-01 -9.135412e-02
   endloop
 endfacet
 facet normal  9.709418e-01 -0.000000e+00  2.393157e-01
   outer loop
     vertex  7.165386e-01  1.062560e-16  2.687532e-01
     vertex  7.602636e-01  3.750000e-01  9.135412e-02
     vertex  7.165386e-01  3.750000e-01  2.687532e-01
   endloop
 endfacet
 facet normal  9.709418e-01  2.531867e-17  2.393157e-01
   outer loop
     vertex  7.165386e-01  1.062560e-16  2.687532e-01
     vertex  7.602636e-01  9.807080e-17  9.135412e-02
     vertex  7.602636e-01  3.750000e-01  9.135412e-02
   endloop
 endfacet
 facet normal  8.854560e-01 -0.000000e+00  4.647232e-01
   outer loop
     vertex  6.316299e-01  1.109630e-16  4.305333e-01
     vertex  7.165386e-01  3.750000e-01  2.687532e-01
     vertex  6.316299e-01  3.750000e-01  4.305333e-01
   endloop
 endfacet
 facet normal  8.854560e-01  0.000000e+00  4.647232e-01
   outer loop
     vertex  6.316299e-01  1.109630e-16  4.305333e-01
     vertex  7.165386e-01  1.062560e-16  2.687532e-01
     vertex  7.165386e-01  3.750000e-01  2.687532e-01
   endloop
 endfacet
 facet normal  7.485107e-01  1.963237e-16  6.631227e-01
   outer loop
     vertex  5.104719e-01  1.119183e-16  5.672924e-01
     vertex  6.316299e-01  3.750000e-01  4.305333e-01
     vertex  5.104719e-01  3.750000e-01  5.672924e-01
   endloop
 endfacet
 facet normal  7.485107e-01  0.000000e+00  6.631227e-01
   outer loop
     vertex  5.104719e-01  1.119183e-16  5.672924e-01
     vertex  6.316299e-01  1.109630e-16  4.305333e-01
     vertex  6.316299e-01  3.750000e-01  4.305333e-01
   endloop
 endfacet
 facet normal  5.680647e-01  2.436522e-16  8.229839e-01
   outer loop
     vertex  3.601060e-01  1.090663e-16  6.710825e-01
     vertex  5.104719e-01  3.750000e-01  5.672924e-01
     vertex  3.601060e-01  3.750000e-01  6.710825e-01
   endloop
 endfacet
 facet normal  5.680647e-01  2.278680e-16  8.229839e-01
   outer loop
     vertex  3.601060e-01  1.090663e-16  6.710825e-01
     vertex  5.104719e-01  1.119183e-16  5.672924e-01
     vertex  5.104719e-01  3.750000e-01  5.672924e-01
   endloop
 endfacet
 facet normal  3.546049e-01  2.785054e-16  9.350162e-01
   outer loop
     vertex  1.892708e-01  1.025729e-16  7.358717e-01
     vertex  3.601060e-01  1.090663e-16  6.710825e-01
     vertex  3.601060e-01  3.750000e-01  6.710825e-01
   endloop
 endfacet
 facet normal  3.546049e-01  2.768204e-16  9.350162e-01
   outer loop
     vertex  1.892708e-01  1.025729e-16  7.358717e-01
     vertex  3.601060e-01  3.750000e-01  6.710825e-01
     vertex  1.892708e-01  3.750000e-01  7.358717e-01
   endloop
 endfacet
 facet normal  1.205367e-01  2.911647e-16  9.927089e-01
   outer loop
     vertex  7.894737e-03  9.281534e-17  7.578947e-01
     vertex  1.892708e-01  1.025729e-16  7.358717e-01
     vertex  1.892708e-01  3.750000e-01  7.358717e-01
   endloop
 endfacet
 facet normal  1.205367e-01  2.939009e-16  9.927089e-01
   outer loop
     vertex  7.894737e-03  9.281534e-17  7.578947e-01
     vertex  1.892708e-01  3.750000e-01  7.358717e-01
     vertex  7.894737e-03  3.750000e-01  7.578947e-01
   endloop
 endfacet
 facet normal -1.205367e-01  2.939009e-16  9.927089e-01
   outer loop
     vertex -1.734813e-01  8.036073e-17  7.358717e-01
     vertex  7.894737e-03  3.750000e-01  7.578947e-01
     vertex -1.734813e-01  3.750000e-01  7.358717e-01
   endloop
 endfacet
 facet normal -1.205367e-01  2.911647e-16  9.927089e-01
   outer loop
     vertex -1.734813e-01  8.036073e-17  7.358717e-01
     vertex  7.894737e-03  9.281534e-17  7.578947e-01
     vertex  7.894737e-03  3.750000e-01  7.578947e-01
   endloop
 endfacet
 facet normal -3.546049e-01  2.768204e-16  9.350162e-01
   outer loop
     vertex -3.443165e-01  6.593290e-17  6.710825e-01
     vertex -1.734813e-01  3.750000e-01  7.358717e-01
     vertex -3.443165e-01  3.750000e-01  6.710825e-01
   endloop
 endfacet
 facet normal -3.546049e-01  2.785054e-16  9.350162e-01
   outer loop
     vertex -3.443165e-01  6.593290e-17  6.710825e-01
     vertex -1.734813e-01  8.036073e-17  7.358717e-01
     vertex -1.734813e-01  3.750000e-01  7.358717e-01
   endloop
 endfacet
 facet normal -5.680647e-01  2.436522e-16  8.229839e-01
   outer loop
     vertex -4.946824e-01  5.037033e-17  5.672924e-01
     vertex -3.443165e-01  3.750000e-01  6.710825e-01
     vertex -4.946824e-01  3.750000e-01  5.672924e-01
   endloop
 endfacet
 facet normal -5.680647e-01  2.278680e-16  8.229839e-01
   outer loop
     vertex -4.946824e-01  5.037033e-17  5.672924e-01
     vertex -3.443165e-01  6.593290e-17  6.710825e-01
     vertex -3.443165e-01  3.750000e-01  6.710825e-01
   endloop
 endfacet
 facet normal -7.485107e-01  0.000000e+00  6.631227e-01
   outer loop
     vertex -6.158404e-01  3.457747e-17  4.305333e-01
     vertex -4.946824e-01  3.750000e-01  5.672924e-01
     vertex -6.158404e-01  3.750000e-01  4.305333e-01
   endloop
 endfacet
 facet normal -8.854560e-01  0.000000e+00  4.647232e-01
   outer loop
     vertex -6.158404e-01  3.457747e-17  4.305333e-01
     vertex -6.158404e-01  3.750000e-01  4.305333e-01
     vertex -7.007492e-01  3.750000e-01  2.687532e-01
   endloop
 endfacet
 facet normal -7.485107e-01  2.025494e-16  6.631227e-01
   outer loop
     vertex -6.158404e-01  3.457747e-17  4.305333e-01
     vertex -4.946824e-01  5.037033e-17  5.672924e-01
     vertex -4.946824e-01  3.750000e-01  5.672924e-01
   endloop
 endfacet
 facet normal -8.854560e-01  0.000000e+00  4.647232e-01
   outer loop
     vertex -7.007492e-01  1.947213e-17  2.687532e-01
     vertex -6.158404e-01  3.457747e-17  4.305333e-01
     vertex -7.007492e-01  3.750000e-01  2.687532e-01
   endloop
 endfacet
 facet normal -9.709418e-01  1.771292e-17  2.393157e-01
   outer loop
     vertex -7.444741e-01  5.932190e-18  9.135412e-02
     vertex -7.007492e-01  3.750000e-01  2.687532e-01
     vertex -7.444741e-01  3.750000e-01  9.135412e-02
   endloop
 endfacet
 facet normal -1.000000e+00  1.349250e-31  1.822944e-15
   outer loop
     vertex -7.444741e-01  5.932190e-18  9.135412e-02
     vertex -7.444741e-01  3.750000e-01  9.135412e-02
     vertex -7.444741e-01  3.750000e-01 -9.135412e-02
   endloop
 endfacet
 facet normal -9.709418e-01  0.000000e+00  2.393157e-01
   outer loop
     vertex -7.444741e-01  5.932190e-18  9.135412e-02
     vertex -7.007492e-01  1.947213e-17  2.687532e-01
     vertex -7.007492e-01  3.750000e-01  2.687532e-01
   endloop
 endfacet
 facet normal -1.000000e+00  1.349250e-31  1.822944e-15
   outer loop
     vertex -7.444741e-01 -5.255462e-18 -9.135412e-02
     vertex -7.444741e-01  5.932190e-18  9.135412e-02
     vertex -7.444741e-01  3.750000e-01 -9.135412e-02
   endloop
 endfacet
 facet normal -9.709418e-01  0.000000e+00 -2.393157e-01
   outer loop
     vertex -7.007492e-01 -1.344064e-17 -2.687532e-01
     vertex -7.444741e-01  3.750000e-01 -9.135412e-02
     vertex -7.007492e-01  3.750000e-01 -2.687532e-01
   endloop
 endfacet
 facet normal -9.709418e-01 -2.531867e-17 -2.393157e-01
   outer loop
     vertex -7.007492e-01 -1.344064e-17 -2.687532e-01
     vertex -7.444741e-01 -5.255462e-18 -9.135412e-02
     vertex -7.444741e-01  3.750000e-01 -9.135412e-02
   endloop
 endfacet
 facet normal -8.854560e-01  0.000000e+00 -4.647232e-01
   outer loop
     vertex -6.158404e-01 -1.814765e-17 -4.305333e-01
     vertex -7.007492e-01  3.750000e-01 -2.687532e-01
     vertex -6.158404e-01  3.750000e-01 -4.305333e-01
   endloop
 endfacet
 facet normal -8.854560e-01  0.000000e+00 -4.647232e-01
   outer loop
     vertex -6.158404e-01 -1.814765e-17 -4.305333e-01
     vertex -7.007492e-01 -1.344064e-17 -2.687532e-01
     vertex -7.007492e-01  3.750000e-01 -2.687532e-01
   endloop
 endfacet
 facet normal -7.485107e-01 -1.963237e-16 -6.631227e-01
   outer loop
     vertex -4.946824e-01 -1.910295e-17 -5.672924e-01
     vertex -6.158404e-01  3.750000e-01 -4.305333e-01
     vertex -4.946824e-01  3.750000e-01 -5.672924e-01
   endloop
 endfacet
 facet normal -7.485107e-01  0.000000e+00 -6.631227e-01
   outer loop
     vertex -4.946824e-01 -1.910295e-17 -5.672924e-01
     vertex -6.158404e-01 -1.814765e-17 -4.305333e-01
     vertex -6.158404e-01  3.750000e-01 -4.305333e-01
   endloop
 endfacet
 facet normal -5.680647e-01 -2.436522e-16 -8.229839e-01
   outer loop
     vertex -3.443165e-01 -1.625100e-17 -6.710825e-01
     vertex -4.946824e-01  3.750000e-01 -5.672924e-01
     vertex -3.443165e-01  3.750000e-01 -6.710825e-01
   endloop
 endfacet
 facet normal -5.680647e-01 -2.531867e-16 -8.229839e-01
   outer loop
     vertex -3.443165e-01 -1.625100e-17 -6.710825e-01
     vertex -4.946824e-01 -1.910295e-17 -5.672924e-01
     vertex -4.946824e-01  3.750000e-01 -5.672924e-01
   endloop
 endfacet
 facet normal -3.546049e-01 -2.768204e-16 -9.350162e-01
   outer loop
     vertex -1.734813e-01 -9.757559e-18 -7.358717e-01
     vertex -3.443165e-01  3.750000e-01 -6.710825e-01
     vertex -1.734813e-01  3.750000e-01 -7.358717e-01
   endloop
 endfacet
 facet normal -3.546049e-01 -2.785054e-16 -9.350162e-01
   outer loop
     vertex -1.734813e-01 -9.757559e-18 -7.358717e-01
     vertex -3.443165e-01 -1.625100e-17 -6.710825e-01
     vertex -3.443165e-01  3.750000e-01 -6.710825e-01
   endloop
 endfacet
 facet normal -1.205367e-01  0.000000e+00 -9.927089e-01
   outer loop
     vertex  7.894737e-03  0.000000e+00 -7.578947e-01
     vertex -1.734813e-01  3.750000e-01 -7.358717e-01
     vertex  7.894737e-03  3.750000e-01 -7.578947e-01
   endloop
 endfacet
 facet normal -1.205367e-01 -3.038240e-16 -9.927089e-01
   outer loop
     vertex  7.894737e-03  0.000000e+00 -7.578947e-01
     vertex -1.734813e-01 -9.757559e-18 -7.358717e-01
     vertex -1.734813e-01  3.750000e-01 -7.358717e-01
   endloop
 endfacet
 facet normal  8.269006e-17 -1.000000e+00  7.325700e-17
   outer loop
     vertex -1.544937e-01 -3.750000e-01 -1.935270e-01
     vertex -6.158404e-01 -3.750000e-01 -4.305333e-01
     vertex -4.946824e-01 -3.750000e-01 -5.672924e-01
   endloop
 endfacet
 facet normal  6.296056e-17 -1.000000e+00  9.121412e-17
   outer loop
     vertex -1.544937e-01 -3.750000e-01 -1.935270e-01
     vertex -4.946824e-01 -3.750000e-01 -5.672924e-01
     vertex -3.443165e-01 -3.750000e-01 -6.710825e-01
   endloop
 endfacet
 facet normal  9.831674e-17 -1.000000e+00  5.160061e-17
   outer loop
     vertex -2.108906e-01 -3.750000e-01 -1.263158e-01
     vertex -7.007492e-01 -3.750000e-01 -2.687532e-01
     vertex -6.158404e-01 -3.750000e-01 -4.305333e-01
   endloop
 endfacet
 facet normal  8.407996e-17 -1.000000e+00  7.055146e-17
   outer loop
     vertex -2.108906e-01 -3.750000e-01 -1.263158e-01
     vertex -6.158404e-01 -3.750000e-01 -4.305333e-01
     vertex -1.544937e-01 -3.750000e-01 -1.935270e-01
   endloop
 endfacet
 facet normal  3.938796e-17 -1.000000e+00  1.038575e-16
   outer loop
     vertex -7.851035e-02 -3.750000e-01 -2.373960e-01
     vertex -3.443165e-01 -3.750000e-01 -6.710825e-01
     vertex -1.734813e-01 -3.750000e-01 -7.358717e-01
   endloop
 endfacet
 facet normal  5.458468e-17 -1.000000e+00  9.454344e-17
   outer loop
     vertex -7.851035e-02 -3.750000e-01 -2.373960e-01
     vertex -1.544937e-01 -3.750000e-01 -1.935270e-01
     vertex -3.443165e-01 -3.750000e-01 -6.710825e-01
   endloop
 endfacet
 facet normal  1.077302e-16 -1.000000e+00  2.655311e-17
   outer loop
     vertex -2.408988e-01 -3.750000e-01 -4.386901e-02
     vertex -7.444741e-01 -3.750000e-01 -9.135412e-02
     vertex -7.007492e-01 -3.750000e-01 -2.687532e-01
   endloop
 endfacet
 facet normal  1.024755e-16 -1.000000e+00  3.729805e-17
   outer loop
     vertex -2.408988e-01 -3.750000e-01 -4.386901e-02
     vertex -7.007492e-01 -3.750000e-01 -2.687532e-01
     vertex -2.108906e-01 -3.750000e-01 -1.263158e-01
   endloop
 endfacet
 facet normal -3.060555e-16 -1.000000e+00 -0.000000e+00
   outer loop
     vertex  7.894737e-03 -3.750000e-01 -2.526316e-01
     vertex  7.894737e-03 -3.750000e-01 -7.578947e-01
     vertex  1.892708e-01 -3.750000e-01 -7.358717e-01
   endloop
 endfacet
 facet normal  3.060555e-16 -1.000000e+00  0.000000e+00
   outer loop
     vertex  7.894737e-03 -3.750000e-01 -2.526316e-01
     vertex -1.734813e-01 -3.750000e-01 -7.358717e-01
     vertex  7.894737e-03 -3.750000e-01 -7.578947e-01
   endloop
 endfacet
 facet normal  1.899787e-17 -1.000000e+00  1.077423e-16
   outer loop
     vertex  7.894737e-03 -3.750000e-01 -2.526316e-01
     vertex -7.851035e-02 -3.750000e-01 -2.373960e-01
     vertex -1.734813e-01 -3.750000e-01 -7.358717e-01
   endloop
 endfacet
 facet normal  1.365668e-16 -1.000000e+00  2.792561e-16
   outer loop
     vertex -2.408988e-01 -3.750000e-01  4.386901e-02
     vertex -7.007492e-01 -3.750000e-01  2.687532e-01
     vertex -7.444741e-01 -3.750000e-01  9.135412e-02
   endloop
 endfacet
 facet normal  1.102341e-16 -1.000000e+00 -1.339670e-31
   outer loop
     vertex -2.408988e-01 -3.750000e-01  4.386901e-02
     vertex -7.444741e-01 -3.750000e-01  9.135412e-02
     vertex -7.444741e-01 -3.750000e-01 -9.135412e-02
   endloop
 endfacet
 facet normal  1.102341e-16 -1.000000e+00 -1.046163e-31
   outer loop
     vertex -2.408988e-01 -3.750000e-01  4.386901e-02
     vertex -7.444741e-01 -3.750000e-01 -9.135412e-02
     vertex -2.408988e-01 -3.750000e-01 -4.386901e-02
   endloop
 endfacet
 facet normal  2.636553e-16 -1.000000e+00  1.615942e-16
   outer loop
     vertex  9.429983e-02 -3.750000e-01 -2.373960e-01
     vertex  1.892708e-01 -3.750000e-01 -7.358717e-01
     vertex  3.601060e-01 -3.750000e-01 -6.710825e-01
   endloop
 endfacet
 facet normal -1.899787e-17 -1.000000e+00  1.077423e-16
   outer loop
     vertex  9.429983e-02 -3.750000e-01 -2.373960e-01
     vertex  7.894737e-03 -3.750000e-01 -2.526316e-01
     vertex  1.892708e-01 -3.750000e-01 -7.358717e-01
   endloop
 endfacet
 facet normal  0.000000e+00 -1.000000e+00  0.000000e+00
   outer loop
     vertex -2.108906e-01 -3.750000e-01  1.263158e-01
     vertex -6.158404e-01 -3.750000e-01  4.305333e-01
     vertex -7.007492e-01 -3.750000e-01  2.687532e-01
   endloop
 endfacet
 facet normal -0.000000e+00 -1.000000e+00  0.000000e+00
   outer loop
     vertex -2.108906e-01 -3.750000e-01  1.263158e-01
     vertex -7.007492e-01 -3.750000e-01  2.687532e-01
     vertex -2.408988e-01 -3.750000e-01  4.386901e-02
   endloop
 endfacet
 facet normal  0.000000e+00 -1.000000e+00  0.000000e+00
   outer loop
     vertex  1.702832e-01 -3.750000e-01 -1.935270e-01
     vertex  3.601060e-01 -3.750000e-01 -6.710825e-01
     vertex  5.104719e-01 -3.750000e-01 -5.672924e-01
   endloop
 endfacet
 facet normal  0.000000e+00 -1.000000e+00 -0.000000e+00
   outer loop
     vertex  1.702832e-01 -3.750000e-01 -1.935270e-01
     vertex  9.429983e-02 -3.750000e-01 -2.373960e-01
     vertex  3.601060e-01 -3.750000e-01 -6.710825e-01
   endloop
 endfacet
 facet normal -0.000000e+00 -1.000000e+00  0.000000e+00
   outer loop
     vertex -1.544937e-01 -3.750000e-01  1.935270e-01
     vertex -6.158404e-01 -3.750000e-01  4.305333e-01
     vertex -2.108906e-01 -3.750000e-01  1.263158e-01
   endloop
 endfacet
 facet normal  0.000000e+00 -1.000000e+00 -0.000000e+00
   outer loop
     vertex -4.946824e-01 -3.750000e-01  5.672924e-01
     vertex -6.158404e-01 -3.750000e-01  4.305333e-01
     vertex -1.544937e-01 -3.750000e-01  1.935270e-01
   endloop
 endfacet
 facet normal  0.000000e+00 -1.000000e+00  0.000000e+00
   outer loop
     vertex  6.316299e-01 -3.750000e-01 -4.305333e-01
     vertex  2.266801e-01 -3.750000e-01 -1.263158e-01
     vertex  1.702832e-01 -3.750000e-01 -1.935270e-01
   endloop
 endfacet
 facet normal -0.000000e+00 -1.000000e+00  0.000000e+00
   outer loop
     vertex  6.316299e-01 -3.750000e-01 -4.305333e-01
     vertex  1.702832e-01 -3.750000e-01 -1.935270e-01
     vertex  5.104719e-01 -3.750000e-01 -5.672924e-01
   endloop
 endfacet
 facet normal  0.000000e+00 -1.000000e+00  0.000000e+00
   outer loop
     vertex -3.443165e-01 -3.750000e-01  6.710825e-01
     vertex -1.544937e-01 -3.750000e-01  1.935270e-01
     vertex -7.851035e-02 -3.750000e-01  2.373960e-01
   endloop
 endfacet
 facet normal  0.000000e+00 -1.000000e+00 -0.000000e+00
   outer loop
     vertex -3.443165e-01 -3.750000e-01  6.710825e-01
     vertex -4.946824e-01 -3.750000e-01  5.672924e-01
     vertex -1.544937e-01 -3.750000e-01  1.935270e-01
   endloop
 endfacet
 facet normal  0.000000e+00 -1.000000e+00  0.000000e+00
   outer loop
     vertex  7.165386e-01 -3.750000e-01 -2.687532e-01
     vertex  2.566883e-01 -3.750000e-01 -4.386901e-02
     vertex  2.266801e-01 -3.750000e-01 -1.263158e-01
   endloop
 endfacet
 facet normal -0.000000e+00 -1.000000e+00  0.000000e+00
   outer loop
     vertex  7.165386e-01 -3.750000e-01 -2.687532e-01
     vertex  2.266801e-01 -3.750000e-01 -1.263158e-01
     vertex  6.316299e-01 -3.750000e-01 -4.305333e-01
   endloop
 endfacet
 facet normal  2.636553e-16 -1.000000e+00  1.615942e-16
   outer loop
     vertex -1.734813e-01 -3.750000e-01  7.358717e-01
     vertex -3.443165e-01 -3.750000e-01  6.710825e-01
     vertex -7.851035e-02 -3.750000e-01  2.373960e-01
   endloop
 endfacet
 facet normal -1.899787e-17 -1.000000e+00  1.077423e-16
   outer loop
     vertex -1.734813e-01 -3.750000e-01  7.358717e-01
     vertex -7.851035e-02 -3.750000e-01  2.373960e-01
     vertex  7.894737e-03 -3.750000e-01  2.526316e-01
   endloop
 endfacet
 facet normal  1.365668e-16 -1.000000e+00  2.792561e-16
   outer loop
     vertex  7.602636e-01 -3.750000e-01 -9.135412e-02
     vertex  2.566883e-01 -3.750000e-01 -4.386901e-02
     vertex  7.165386e-01 -3.750000e-01 -2.687532e-01
   endloop
 endfacet
 facet normal -1.334013e-17 -1.000000e+00  1.098658e-16
   outer loop
     vertex  7.894737e-03 -3.750000e-01  7.578947e-01
     vertex -1.734813e-01 -3.750000e-01  7.358717e-01
     vertex  7.894737e-03 -3.750000e-01  2.526316e-01
   endloop
 endfacet
 facet normal  1.102341e-16 -1.000000e+00  0.000000e+00
   outer loop
     vertex  7.602636e-01 -3.750000e-01  9.135412e-02
     vertex  2.566883e-01 -3.750000e-01 -4.386901e-02
     vertex  7.602636e-01 -3.750000e-01 -9.135412e-02
   endloop
 endfacet
 facet normal  1.102341e-16 -1.000000e+00  0.000000e+00
   outer loop
     vertex  7.602636e-01 -3.750000e-01  9.135412e-02
     vertex  2.566883e-01 -3.750000e-01  4.386901e-02
     vertex  2.566883e-01 -3.750000e-01 -4.386901e-02
   endloop
 endfacet
 facet normal  1.334013e-17 -1.000000e+00  1.098658e-16
   outer loop
     vertex  1.892708e-01 -3.750000e-01  7.358717e-01
     vertex  7.894737e-03 -3.750000e-01  7.578947e-01
     vertex  7.894737e-03 -3.750000e-01  2.526316e-01
   endloop
 endfacet
 facet normal  1.899787e-17 -1.000000e+00  1.077423e-16
   outer loop
     vertex  1.892708e-01 -3.750000e-01  7.358717e-01
     vertex  7.894737e-03 -3.750000e-01  2.526316e-01
     vertex  9.429983e-02 -3.750000e-01  2.373960e-01
   endloop
 endfacet
 facet normal  1.077302e-16 -1.000000e+00  2.655311e-17
   outer loop
     vertex  7.165386e-01 -3.750000e-01  2.687532e-01
     vertex  2.566883e-01 -3.750000e-01  4.386901e-02
     vertex  7.602636e-01 -3.750000e-01  9.135412e-02
   endloop
 endfacet
 facet normal  1.024755e-16 -1.000000e+00  3.729805e-17
   outer loop
     vertex  7.165386e-01 -3.750000e-01  2.687532e-01
     vertex  2.266801e-01 -3.750000e-01  1.263158e-01
     vertex  2.566883e-01 -3.750000e-01  4.386901e-02
   endloop
 endfacet
 facet normal  3.938796e-17 -1.000000e+00  1.038575e-16
   outer loop
     vertex  3.601060e-01 -3.750000e-01  6.710825e-01
     vertex  1.892708e-01 -3.750000e-01  7.358717e-01
     vertex  9.429983e-02 -3.750000e-01  2.373960e-01
   endloop
 endfacet
 facet normal  5.458468e-17 -1.000000e+00  9.454344e-17
   outer loop
     vertex  3.601060e-01 -3.750000e-01  6.710825e-01
     vertex  9.429983e-02 -3.750000e-01  2.373960e-01
     vertex  1.702832e-01 -3.750000e-01  1.935270e-01
   endloop
 endfacet
 facet normal  9.831674e-17 -1.000000e+00  5.160061e-17
   outer loop
     vertex  6.316299e-01 -3.750000e-01  4.305333e-01
     vertex  2.266801e-01 -3.750000e-01  1.263158e-01
     vertex  7.165386e-01 -3.750000e-01  2.687532e-01
   endloop
 endfacet
 facet normal  8.407996e-17 -1.000000e+00  7.055146e-17
   outer loop
     vertex  6.316299e-01 -3.750000e-01  4.305333e-01
     vertex  1.702832e-01 -3.750000e-01  1.935270e-01
     vertex  2.266801e-01 -3.750000e-01  1.263158e-01
   endloop
 endfacet
 facet normal  8.269006e-17 -1.000000e+00  7.325700e-17
   outer loop
     vertex  5.104719e-01 -3.750000e-01  5.672924e-01
     vertex  1.702832e-01 -3.750000e-01  1.935270e-01
     vertex  6.316299e-01 -3.750000e-01  4.305333e-01
   endloop
 endfacet
 facet normal  6.296056e-17 -1.000000e+00  9.121412e-17
   outer loop
     vertex  5.104719e-01 -3.750000e-01  5.672924e-01
     vertex  3.601060e-01 -3.750000e-01  6.710825e-01
     vertex  1.702832e-01 -3.750000e-01  1.935270e-01
   endloop
 endfacet
 facet normal -8.269006e-17  1.000000e+00 -7.325700e-17
   outer loop
     vertex -1.544937e-01  3.750000e-01 -1.935270e-01
     vertex -4.946824e-01  3.750000e-01 -5.672924e-01
     vertex -6.158404e-01  3.750000e-01 -4.305333e-01
   endloop
 endfacet
 facet normal -6.296056e-17  1.000000e+00 -9.121412e-17
   outer loop
     vertex -1.544937e-01  3.750000e-01 -1.935270e-01
     vertex -3.443165e-01  3.750000e-01 -6.710825e-01
     vertex -4.946824e-01  3.750000e-01 -5.672924e-01
   endloop
 endfacet
 facet normal -9.831674e-17  1.000000e+00 -5.160061e-17
   outer loop
     vertex -2.108906e-01  3.750000e-01 -1.263158e-01
     vertex -6.158404e-01  3.750000e-01 -4.305333e-01
     vertex -7.007492e-01  3.750000e-01 -2.687532e-01
   endloop
 endfacet
 facet normal -8.407996e-17  1.000000e+00 -7.055146e-17
   outer loop
     vertex -2.108906e-01  3.750000e-01 -1.263158e-01
     vertex -1.544937e-01  3.750000e-01 -1.935270e-01
     vertex -6.158404e-01  3.750000e-01 -4.305333e-01
   endloop
 endfacet
 facet normal -3.938796e-17  1.000000e+00 -1.038575e-16
   outer loop
     vertex -7.851035e-02  3.750000e-01 -2.373960e-01
     vertex -1.734813e-01  3.750000e-01 -7.358717e-01
     vertex -3.443165e-01  3.750000e-01 -6.710825e-01
   endloop
 endfacet
 facet normal -5.458468e-17  1.000000e+00 -9.454344e-17
   outer loop
     vertex -7.851035e-02  3.750000e-01 -2.373960e-01
     vertex -3.443165e-01  3.750000e-01 -6.710825e-01
     vertex -1.544937e-01  3.750000e-01 -1.935270e-01
   endloop
 endfacet
 facet normal -1.077302e-16  1.000000e+00 -2.655311e-17
   outer loop
     vertex -2.408988e-01  3.750000e-01 -4.386901e-02
     vertex -7.007492e-01  3.750000e-01 -2.687532e-01
     vertex -7.444741e-01  3.750000e-01 -9.135412e-02
   endloop
 endfacet
 facet normal -1.024755e-16  1.000000e+00 -3.729805e-17
   outer loop
     vertex -2.408988e-01  3.750000e-01 -4.386901e-02
     vertex -2.108906e-01  3.750000e-01 -1.263158e-01
     vertex -7.007492e-01  3.750000e-01 -2.687532e-01
   endloop
 endfacet
 facet normal  3.060555e-16  1.000000e+00  0.000000e+00
   outer loop
     vertex  7.894737e-03  3.750000e-01 -2.526316e-01
     vertex  1.892708e-01  3.750000e-01 -7.358717e-01
     vertex  7.894737e-03  3.750000e-01 -7.578947e-01
   endloop
 endfacet
 facet normal -3.060555e-16  1.000000e+00  0.000000e+00
   outer loop
     vertex  7.894737e-03  3.750000e-01 -2.526316e-01
     vertex  7.894737e-03  3.750000e-01 -7.578947e-01
     vertex -1.734813e-01  3.750000e-01 -7.358717e-01
   endloop
 endfacet
 facet normal -1.899787e-17  1.000000e+00 -1.077423e-16
   outer loop
     vertex  7.894737e-03  3.750000e-01 -2.526316e-01
     vertex -1.734813e-01  3.750000e-01 -7.358717e-01
     vertex -7.851035e-02  3.750000e-01 -2.373960e-01
   endloop
 endfacet
 facet normal -1.365668e-16  1.000000e+00 -2.792561e-16
   outer loop
     vertex -2.408988e-01  3.750000e-01  4.386901e-02
     vertex -7.444741e-01  3.750000e-01  9.135412e-02
     vertex -7.007492e-01  3.750000e-01  2.687532e-01
   endloop
 endfacet
 facet normal -1.102341e-16  1.000000e+00  1.339670e-31
   outer loop
     vertex -2.408988e-01  3.750000e-01  4.386901e-02
     vertex -7.444741e-01  3.750000e-01 -9.135412e-02
     vertex -7.444741e-01  3.750000e-01  9.135412e-02
   endloop
 endfacet
 facet normal -1.102341e-16  1.000000e+00  1.046163e-31
   outer loop
     vertex -2.408988e-01  3.750000e-01  4.386901e-02
     vertex -2.408988e-01  3.750000e-01 -4.386901e-02
     vertex -7.444741e-01  3.750000e-01 -9.135412e-02
   endloop
 endfacet
 facet normal -2.636553e-16  1.000000e+00 -1.615942e-16
   outer loop
     vertex  9.429983e-02  3.750000e-01 -2.373960e-01
     vertex  3.601060e-01  3.750000e-01 -6.710825e-01
     vertex  1.892708e-01  3.750000e-01 -7.358717e-01
   endloop
 endfacet
 facet normal  1.899787e-17  1.000000e+00 -1.077423e-16
   outer loop
     vertex  9.429983e-02  3.750000e-01 -2.373960e-01
     vertex  1.892708e-01  3.750000e-01 -7.358717e-01
     vertex  7.894737e-03  3.750000e-01 -2.526316e-01
   endloop
 endfacet
 facet normal  0.000000e+00  1.000000e+00  0.000000e+00
   outer loop
     vertex -2.108906e-01  3.750000e-01  1.263158e-01
     vertex -7.007492e-01  3.750000e-01  2.687532e-01
     vertex -6.158404e-01  3.750000e-01  4.305333e-01
   endloop
 endfacet
 facet normal  0.000000e+00  1.000000e+00  0.000000e+00
   outer loop
     vertex -2.108906e-01  3.750000e-01  1.263158e-01
     vertex -2.408988e-01  3.750000e-01  4.386901e-02
     vertex -7.007492e-01  3.750000e-01  2.687532e-01
   endloop
 endfacet
 facet normal  0.000000e+00  1.000000e+00  0.000000e+00
   outer loop
     vertex  1.702832e-01  3.750000e-01 -1.935270e-01
     vertex  5.104719e-01  3.750000e-01 -5.672924e-01
     vertex  3.601060e-01  3.750000e-01 -6.710825e-01
   endloop
 endfacet
 facet normal  0.000000e+00  1.000000e+00  0.000000e+00
   outer loop
     vertex  1.702832e-01  3.750000e-01 -1.935270e-01
     vertex  3.601060e-01  3.750000e-01 -6.710825e-01
     vertex  9.429983e-02  3.750000e-01 -2.373960e-01
   endloop
 endfacet
 facet normal  0.000000e+00  1.000000e+00  0.000000e+00
   outer loop
     vertex -1.544937e-01  3.750000e-01  1.935270e-01
     vertex -2.108906e-01  3.750000e-01  1.263158e-01
     vertex -6.158404e-01  3.750000e-01  4.305333e-01
   endloop
 endfacet
 facet normal  0.000000e+00  1.000000e+00  0.000000e+00
   outer loop
     vertex -4.946824e-01  3.750000e-01  5.672924e-01
     vertex -1.544937e-01  3.750000e-01  1.935270e-01
     vertex -6.158404e-01  3.750000e-01  4.305333e-01
   endloop
 endfacet
 facet normal  0.000000e+00  1.000000e+00  0.000000e+00
   outer loop
     vertex  6.316299e-01  3.750000e-01 -4.305333e-01
     vertex  1.702832e-01  3.750000e-01 -1.935270e-01
     vertex  2.266801e-01  3.750000e-01 -1.263158e-01
   endloop
 endfacet
 facet normal  0.000000e+00  1.000000e+00  0.000000e+00
   outer loop
     vertex  6.316299e-01  3.750000e-01 -4.305333e-01
     vertex  5.104719e-01  3.750000e-01 -5.672924e-01
     vertex  1.702832e-01  3.750000e-01 -1.935270e-01
   endloop
 endfacet
 facet normal  0.000000e+00  1.000000e+00  0.000000e+00
   outer loop
     vertex -3.443165e-01  3.750000e-01  6.710825e-01
     vertex -7.851035e-02  3.750000e-01  2.373960e-01
     vertex -1.544937e-01  3.750000e-01  1.935270e-01
   endloop
 endfacet
 facet normal  0.000000e+00  1.000000e+00  0.000000e+00
   outer loop
     vertex -3.443165e-01  3.750000e-01  6.710825e-01
     vertex -1.544937e-01  3.750000e-01  1.935270e-01
     vertex -4.946824e-01  3.750000e-01  5.672924e-01
   endloop
 endfacet
 facet normal  0.000000e+00  1.000000e+00  0.000000e+00
   outer loop
     vertex  7.165386e-01  3.750000e-01 -2.687532e-01
     vertex  2.266801e-01  3.750000e-01 -1.263158e-01
     vertex  2.566883e-01  3.750000e-01 -4.386901e-02
   endloop
 endfacet
 facet normal  0.000000e+00  1.000000e+00  0.000000e+00
   outer loop
     vertex  7.165386e-01  3.750000e-01 -2.687532e-01
     vertex  6.316299e-01  3.750000e-01 -4.305333e-01
     vertex  2.266801e-01  3.750000e-01 -1.263158e-01
   endloop
 endfacet
 facet normal -2.636553e-16  1.000000e+00 -1.615942e-16
   outer loop
     vertex -1.734813e-01  3.750000e-01  7.358717e-01
     vertex -7.851035e-02  3.750000e-01  2.373960e-01
     vertex -3.443165e-01  3.750000e-01  6.710825e-01
   endloop
 endfacet
 facet normal  1.899787e-17  1.000000e+00 -1.077423e-16
   outer loop
     vertex -1.734813e-01  3.750000e-01  7.358717e-01
     vertex  7.894737e-03  3.750000e-01  2.526316e-01
     vertex -7.851035e-02  3.750000e-01  2.373960e-01
   endloop
 endfacet
 facet normal -1.365668e-16  1.000000e+00 -2.792561e-16
   outer loop
     vertex  7.602636e-01  3.750000e-01 -9.135412e-02
     vertex  7.165386e-01  3.750000e-01 -2.687532e-01
     vertex  2.566883e-01  3.750000e-01 -4.386901e-02
   endloop
 endfacet
 facet normal  1.334013e-17  1.000000e+00 -1.098658e-16
   outer loop
     vertex  7.894737e-03  3.750000e-01  7.578947e-01
     vertex  7.894737e-03  3.750000e-01  2.526316e-01
     vertex -1.734813e-01  3.750000e-01  7.358717e-01
   endloop
 endfacet
 facet normal -1.102341e-16  1.000000e+00  0.000000e+00
   outer loop
     vertex  7.602636e-01  3.750000e-01  9.135412e-02
     vertex  7.602636e-01  3.750000e-01 -9.135412e-02
     vertex  2.566883e-01  3.750000e-01 -4.386901e-02
   endloop
 endfacet
 facet normal -1.102341e-16  1.000000e+00  0.000000e+00
   outer loop
     vertex  7.602636e-01  3.750000e-01  9.135412e-02
     vertex  2.566883e-01  3.750000e-01 -4.386901e-02
     vertex  2.566883e-01  3.750000e-01  4.386901e-02
   endloop
 endfacet
 facet normal -1.334013e-17  1.000000e+00 -1.098658e-16
   outer loop
     vertex  1.892708e-01  3.750000e-01  7.358717e-01
     vertex  7.894737e-03  3.750000e-01  2.526316e-01
     vertex  7.894737e-03  3.750000e-01  7.578947e-01
   endloop
 endfacet
 facet normal -1.899787e-17  1.000000e+00 -1.077423e-16
   outer loop
     vertex  1.892708e-01  3.750000e-01  7.358717e-01
     vertex  9.429983e-02  3.750000e-01  2.373960e-01
     vertex  7.894737e-03  3.750000e-01  2.526316e-01
   endloop
 endfacet
 facet normal -1.077302e-16  1.000000e+00 -2.655311e-17
   outer loop
     vertex  7.165386e-01  3.750000e-01  2.687532e-01
     vertex  7.602636e-01  3.750000e-01  9.135412e-02
     vertex  2.566883e-01  3.750000e-01  4.386901e-02
   endloop
 endfacet
 facet normal -1.024755e-16  1.000000e+00 -3.729805e-17
   outer loop
     vertex  7.165386e-01  3.750000e-01  2.687532e-01
     vertex  2.566883e-01  3.750000e-01  4.386901e-02
     vertex  2.266801e-01  3.750000e-01  1.263158e-01
   endloop
 endfacet
 facet normal -3.938796e-17  1.000000e+00 -1.038575e-16
   outer loop
     vertex  3.601060e-01  3.750000e-01  6.710825e-01
     vertex  9.429983e-02  3.750000e-01  2.373960e-01
     vertex  1.892708e-01  3.750000e-01  7.358717e-01
   endloop
 endfacet
 facet normal -5.458468e-17  1.000000e+00 -9.454344e-17
   outer loop
     vertex  3.601060e-01  3.750000e-01  6.710825e-01
     vertex  1.702832e-01  3.750000e-01  1.935270e-01
     vertex  9.429983e-02  3.750000e-01  2.373960e-01
   endloop
 endfacet
 facet normal -9.831674e-17  1.000000e+00 -5.160061e-17
   outer loop
     vertex  6.316299e-01  3.750000e-01  4.305333e-01
     vertex  7.165386e-01  3.750000e-01  2.687532e-01
     vertex  2.266801e-01  3.750000e-01  1.263158e-01
   endloop
 endfacet
 facet normal -8.407996e-17  1.000000e+00 -7.055146e-17
   outer loop
     vertex  6.316299e-01  3.750000e-01  4.305333e-01
     vertex  2.266801e-01  3.750000e-01  1.263158e-01
     vertex  1.702832e-01  3.750000e-01  1.935270e-01
   endloop
 endfacet
 facet normal -8.269006e-17  1.000000e+00 -7.325700e-17
   outer loop
     vertex  5.104719e-01  3.750000e-01  5.672924e-01
     vertex  6.316299e-01  3.750000e-01  4.305333e-01
     vertex  1.702832e-01  3.750000e-01  1.935270e-01
   endloop
 endfacet
 facet normal -6.296056e-17  1.000000e+00 -9.121412e-17
   outer loop
     vertex  5.104719e-01  3.750000e-01  5.672924e-01
     vertex  1.702832e-01  3.750000e-01  1.935270e-01
     vertex  3.601060e-01  3.750000e-01  6.710825e-01
   endloop
 endfacet
 facet normal  1.736482e-01  0.000000e+00  9.848078e-01
   outer loop
     vertex -7.851035e-02  2.658057e-17 -2.373960e-01
     vertex  7.894737e-03 -3.750000e-01 -2.526316e-01
     vertex  7.894737e-03  3.093845e-17 -2.526316e-01
   endloop
 endfacet
 facet normal  1.736482e-01  7.289042e-17  9.848078e-01
   outer loop
     vertex -7.851035e-02  2.658057e-17 -2.373960e-01
     vertex -7.851035e-02 -3.750000e-01 -2.373960e-01
     vertex  7.894737e-03 -3.750000e-01 -2.526316e-01
   endloop
 endfacet
 facet normal  5.000000e-01  6.409876e-17  8.660254e-01
   outer loop
     vertex -1.544937e-01  2.461413e-17 -1.935270e-01
     vertex -1.544937e-01 -3.750000e-01 -1.935270e-01
     vertex -7.851035e-02 -3.750000e-01 -2.373960e-01
   endloop
 endfacet
 facet normal  5.000000e-01  5.272434e-17  8.660254e-01
   outer loop
     vertex -1.544937e-01  2.461413e-17 -1.935270e-01
     vertex -7.851035e-02 -3.750000e-01 -2.373960e-01
     vertex -7.851035e-02  2.658057e-17 -2.373960e-01
   endloop
 endfacet
 facet normal  7.660444e-01  4.757584e-17  6.427876e-01
   outer loop
     vertex -2.108906e-01  2.527632e-17 -1.263158e-01
     vertex -2.108906e-01 -3.750000e-01 -1.263158e-01
     vertex -1.544937e-01 -3.750000e-01 -1.935270e-01
   endloop
 endfacet
 facet normal  7.660444e-01  5.272434e-17  6.427876e-01
   outer loop
     vertex -2.108906e-01  2.527632e-17 -1.263158e-01
     vertex -1.544937e-01 -3.750000e-01 -1.935270e-01
     vertex -1.544937e-01  2.461413e-17 -1.935270e-01
   endloop
 endfacet
 facet normal  9.396926e-01  2.531458e-17  3.420201e-01
   outer loop
     vertex -2.408988e-01  2.848726e-17 -4.386901e-02
     vertex -2.408988e-01 -3.750000e-01 -4.386901e-02
     vertex -2.108906e-01 -3.750000e-01 -1.263158e-01
   endloop
 endfacet
 facet normal  9.396926e-01  2.636217e-17  3.420201e-01
   outer loop
     vertex -2.408988e-01  2.848726e-17 -4.386901e-02
     vertex -2.108906e-01 -3.750000e-01 -1.263158e-01
     vertex -2.108906e-01  2.527632e-17 -1.263158e-01
   endloop
 endfacet
 facet normal  1.000000e+00 -7.024293e-32 -9.490381e-16
   outer loop
     vertex -2.408988e-01  3.385966e-17  4.386901e-02
     vertex -2.408988e-01 -3.750000e-01  4.386901e-02
     vertex -2.408988e-01 -3.750000e-01 -4.386901e-02
   endloop
 endfacet
 facet normal  1.000000e+00 -4.682862e-32 -9.490381e-16
   outer loop
     vertex -2.408988e-01  3.385966e-17  4.386901e-02
     vertex -2.408988e-01 -3.750000e-01 -4.386901e-02
     vertex -2.408988e-01  2.848726e-17 -4.386901e-02
   endloop
 endfacet
 facet normal  9.396926e-01 -2.531458e-17 -3.420201e-01
   outer loop
     vertex -2.108906e-01  4.074554e-17  1.263158e-01
     vertex -2.108906e-01 -3.750000e-01  1.263158e-01
     vertex -2.408988e-01 -3.750000e-01  4.386901e-02
   endloop
 endfacet
 facet normal  9.396926e-01 -2.636217e-17 -3.420201e-01
   outer loop
     vertex -2.108906e-01  4.074554e-17  1.263158e-01
     vertex -2.408988e-01 -3.750000e-01  4.386901e-02
     vertex -2.408988e-01  3.385966e-17  4.386901e-02
   endloop
 endfacet
 facet normal  7.660444e-01 -4.757584e-17 -6.427876e-01
   outer loop
     vertex -1.544937e-01  4.831436e-17  1.935270e-01
     vertex -1.544937e-01 -3.750000e-01  1.935270e-01
     vertex -2.108906e-01 -3.750000e-01  1.263158e-01
   endloop
 endfacet
 facet normal  7.660444e-01 -5.272434e-17 -6.427876e-01
   outer loop
     vertex -1.544937e-01  4.831436e-17  1.935270e-01
     vertex -2.108906e-01 -3.750000e-01  1.263158e-01
     vertex -2.108906e-01  4.074554e-17  1.263158e-01
   endloop
 endfacet
 facet normal  5.000000e-01 -6.409876e-17 -8.660254e-01
   outer loop
     vertex -7.851035e-02  5.565320e-17  2.373960e-01
     vertex -7.851035e-02 -3.750000e-01  2.373960e-01
     vertex -1.544937e-01 -3.750000e-01  1.935270e-01
   endloop
 endfacet
 facet normal  5.000000e-01 -6.590542e-17 -8.660254e-01
   outer loop
     vertex -7.851035e-02  5.565320e-17  2.373960e-01
     vertex -1.544937e-01 -3.750000e-01  1.935270e-01
     vertex -1.544937e-01  4.831436e-17  1.935270e-01
   endloop
 endfacet
 facet normal  1.736482e-01 -1.457808e-16 -9.848078e-01
   outer loop
     vertex  7.894737e-03  6.187689e-17  2.526316e-01
     vertex  7.894737e-03 -3.750000e-01  2.526316e-01
     vertex -7.851035e-02 -3.750000e-01  2.373960e-01
   endloop
 endfacet
 facet normal  1.736482e-01 -7.249596e-17 -9.848078e-01
   outer loop
     vertex  7.894737e-03  6.187689e-17  2.526316e-01
     vertex -7.851035e-02 -3.750000e-01  2.373960e-01
     vertex -7.851035e-02  5.565320e-17  2.373960e-01
   endloop
 endfacet
 facet normal -1.736482e-01 -7.289042e-17 -9.848078e-01
   outer loop
     vertex  9.429983e-02  6.623477e-17  2.373960e-01
     vertex  9.429983e-02 -3.750000e-01  2.373960e-01
     vertex  7.894737e-03 -3.750000e-01  2.526316e-01
   endloop
 endfacet
 facet normal -1.736482e-01 -1.449919e-16 -9.848078e-01
   outer loop
     vertex  9.429983e-02  6.623477e-17  2.373960e-01
     vertex  7.894737e-03 -3.750000e-01  2.526316e-01
     vertex  7.894737e-03  6.187689e-17  2.526316e-01
   endloop
 endfacet
 facet normal -5.000000e-01 -6.409876e-17 -8.660254e-01
   outer loop
     vertex  1.702832e-01  6.820120e-17  1.935270e-01
     vertex  1.702832e-01 -3.750000e-01  1.935270e-01
     vertex  9.429983e-02 -3.750000e-01  2.373960e-01
   endloop
 endfacet
 facet normal -5.000000e-01 -6.590542e-17 -8.660254e-01
   outer loop
     vertex  1.702832e-01  6.820120e-17  1.935270e-01
     vertex  9.429983e-02 -3.750000e-01  2.373960e-01
     vertex  9.429983e-02  6.623477e-17  2.373960e-01
   endloop
 endfacet
 facet normal -9.396926e-01 -2.531458e-17 -3.420201e-01
   outer loop
     vertex  2.266801e-01  6.753902e-17  1.263158e-01
     vertex  2.566883e-01 -3.750000e-01  4.386901e-02
     vertex  2.266801e-01 -3.750000e-01  1.263158e-01
   endloop
 endfacet
 facet normal -7.660444e-01 -4.757584e-17 -6.427876e-01
   outer loop
     vertex  2.266801e-01  6.753902e-17  1.263158e-01
     vertex  2.266801e-01 -3.750000e-01  1.263158e-01
     vertex  1.702832e-01 -3.750000e-01  1.935270e-01
   endloop
 endfacet
 facet normal -7.660444e-01 -5.272434e-17 -6.427876e-01
   outer loop
     vertex  2.266801e-01  6.753902e-17  1.263158e-01
     vertex  1.702832e-01 -3.750000e-01  1.935270e-01
     vertex  1.702832e-01  6.820120e-17  1.935270e-01
   endloop
 endfacet
 facet normal -9.396926e-01 -2.531458e-17 -3.420201e-01
   outer loop
     vertex  2.566883e-01  6.432808e-17  4.386901e-02
     vertex  2.566883e-01 -3.750000e-01  4.386901e-02
     vertex  2.266801e-01  6.753902e-17  1.263158e-01
   endloop
 endfacet
 facet normal -9.396926e-01  2.531458e-17  3.420201e-01
   outer loop
     vertex  2.566883e-01  5.895568e-17 -4.386901e-02
     vertex  2.266801e-01 -3.750000e-01 -1.263158e-01
     vertex  2.566883e-01 -3.750000e-01 -4.386901e-02
   endloop
 endfacet
 facet normal -1.000000e+00  0.000000e+00  0.000000e+00
   outer loop
     vertex  2.566883e-01  5.895568e-17 -4.386901e-02
     vertex  2.566883e-01 -3.750000e-01 -4.386901e-02
     vertex  2.566883e-01 -3.750000e-01  4.386901e-02
   endloop
 endfacet
 facet normal -1.000000e+00  0.000000e+00  0.000000e+00
   outer loop
     vertex  2.566883e-01  5.895568e-17 -4.386901e-02
     vertex  2.566883e-01 -3.750000e-01  4.386901e-02
     vertex  2.566883e-01  6.432808e-17  4.386901e-02
   endloop
 endfacet
 facet normal -9.396926e-01  2.531458e-17  3.420201e-01
   outer loop
     vertex  2.266801e-01  5.206980e-17 -1.263158e-01
     vertex  2.266801e-01 -3.750000e-01 -1.263158e-01
     vertex  2.566883e-01  5.895568e-17 -4.386901e-02
   endloop
 endfacet
 facet normal -7.660444e-01  5.272434e-17  6.427876e-01
   outer loop
     vertex  1.702832e-01  4.450098e-17 -1.935270e-01
     vertex  2.266801e-01 -3.750000e-01 -1.263158e-01
     vertex  2.266801e-01  5.206980e-17 -1.263158e-01
   endloop
 endfacet
 facet normal -7.660444e-01  4.757584e-17  6.427876e-01
   outer loop
     vertex  1.702832e-01  4.450098e-17 -1.935270e-01
     vertex  1.702832e-01 -3.750000e-01 -1.935270e-01
     vertex  2.266801e-01 -3.750000e-01 -1.263158e-01
   endloop
 endfacet
 facet normal -5.000000e-01  5.272434e-17  8.660254e-01
   outer loop
     vertex  9.429983e-02  3.716214e-17 -2.373960e-01
     vertex  1.702832e-01 -3.750000e-01 -1.935270e-01
     vertex  1.702832e-01  4.450098e-17 -1.935270e-01
   endloop
 endfacet
 facet normal -5.000000e-01  6.409876e-17  8.660254e-01
   outer loop
     vertex  9.429983e-02  3.716214e-17 -2.373960e-01
     vertex  9.429983e-02 -3.750000e-01 -2.373960e-01
     vertex  1.702832e-01 -3.750000e-01 -1.935270e-01
   endloop
 endfacet
 facet normal -1.736482e-01  7.249596e-17  9.848078e-01
   outer loop
     vertex  7.894737e-03  3.093845e-17 -2.526316e-01
     vertex  9.429983e-02 -3.750000e-01 -2.373960e-01
     vertex  9.429983e-02  3.716214e-17 -2.373960e-01
   endloop
 endfacet
 facet normal -1.736482e-01  0.000000e+00  9.848078e-01
   outer loop
     vertex  7.894737e-03  3.093845e-17 -2.526316e-01
     vertex  7.894737e-03 -3.750000e-01 -2.526316e-01
     vertex  9.429983e-02 -3.750000e-01 -2.373960e-01
   endloop
 endfacet
 facet normal -1.736482e-01  0.000000e+00  9.848078e-01
   outer loop
     vertex  9.429983e-02  3.716214e-17 -2.373960e-01
     vertex  7.894737e-03  3.750000e-01 -2.526316e-01
     vertex  7.894737e-03  3.093845e-17 -2.526316e-01
   endloop
 endfacet
 facet normal -1.736482e-01  0.000000e+00  9.848078e-01
   outer loop
     vertex  9.429983e-02  3.716214e-17 -2.373960e-01
     vertex  9.429983e-02  3.750000e-01 -2.373960e-01
     vertex  7.894737e-03  3.750000e-01 -2.526316e-01
   endloop
 endfacet
 facet normal -5.000000e-01  0.000000e+00  8.660254e-01
   outer loop
     vertex  1.702832e-01  4.450098e-17 -1.935270e-01
     vertex  1.702832e-01  3.750000e-01 -1.935270e-01
     vertex  9.429983e-02  3.750000e-01 -2.373960e-01
   endloop
 endfacet
 facet normal -5.000000e-01  0.000000e+00  8.660254e-01
   outer loop
     vertex  1.702832e-01  4.450098e-17 -1.935270e-01
     vertex  9.429983e-02  3.750000e-01 -2.373960e-01
     vertex  9.429983e-02  3.716214e-17 -2.373960e-01
   endloop
 endfacet
 facet normal -7.660444e-01  0.000000e+00  6.427876e-01
   outer loop
     vertex  2.266801e-01  5.206980e-17 -1.263158e-01
     vertex  2.266801e-01  3.750000e-01 -1.263158e-01
     vertex  1.702832e-01  3.750000e-01 -1.935270e-01
   endloop
 endfacet
 facet normal -7.660444e-01  0.000000e+00  6.427876e-01
   outer loop
     vertex  2.266801e-01  5.206980e-17 -1.263158e-01
     vertex  1.702832e-01  3.750000e-01 -1.935270e-01
     vertex  1.702832e-01  4.450098e-17 -1.935270e-01
   endloop
 endfacet
 facet normal -9.396926e-01  1.898593e-17  3.420201e-01
   outer loop
     vertex  2.566883e-01  5.895568e-17 -4.386901e-02
     vertex  2.566883e-01  3.750000e-01 -4.386901e-02
     vertex  2.266801e-01  3.750000e-01 -1.263158e-01
   endloop
 endfacet
 facet normal -9.396926e-01  0.000000e+00  3.420201e-01
   outer loop
     vertex  2.566883e-01  5.895568e-17 -4.386901e-02
     vertex  2.266801e-01  3.750000e-01 -1.263158e-01
     vertex  2.266801e-01  5.206980e-17 -1.263158e-01
   endloop
 endfacet
 facet normal -1.000000e+00  0.000000e+00  0.000000e+00
   outer loop
     vertex  2.566883e-01  6.432808e-17  4.386901e-02
     vertex  2.566883e-01  3.750000e-01  4.386901e-02
     vertex  2.566883e-01  3.750000e-01 -4.386901e-02
   endloop
 endfacet
 facet normal -1.000000e+00  0.000000e+00 -0.000000e+00
   outer loop
     vertex  2.566883e-01  6.432808e-17  4.386901e-02
     vertex  2.566883e-01  3.750000e-01 -4.386901e-02
     vertex  2.566883e-01  5.895568e-17 -4.386901e-02
   endloop
 endfacet
 facet normal -9.396926e-01  0.000000e+00 -3.420201e-01
   outer loop
     vertex  2.266801e-01  6.753902e-17  1.263158e-01
     vertex  2.266801e-01  3.750000e-01  1.263158e-01
     vertex  2.566883e-01  3.750000e-01  4.386901e-02
   endloop
 endfacet
 facet normal -9.396926e-01 -2.636217e-17 -3.420201e-01
   outer loop
     vertex  2.266801e-01  6.753902e-17  1.263158e-01
     vertex  2.566883e-01  3.750000e-01  4.386901e-02
     vertex  2.566883e-01  6.432808e-17  4.386901e-02
   endloop
 endfacet
 facet normal -7.660444e-01  0.000000e+00 -6.427876e-01
   outer loop
     vertex  1.702832e-01  6.820120e-17  1.935270e-01
     vertex  1.702832e-01  3.750000e-01  1.935270e-01
     vertex  2.266801e-01  3.750000e-01  1.263158e-01
   endloop
 endfacet
 facet normal -5.000000e-01  0.000000e+00 -8.660254e-01
   outer loop
     vertex  1.702832e-01  6.820120e-17  1.935270e-01
     vertex  9.429983e-02  3.750000e-01  2.373960e-01
     vertex  1.702832e-01  3.750000e-01  1.935270e-01
   endloop
 endfacet
 facet normal -7.660444e-01  0.000000e+00 -6.427876e-01
   outer loop
     vertex  1.702832e-01  6.820120e-17  1.935270e-01
     vertex  2.266801e-01  3.750000e-01  1.263158e-01
     vertex  2.266801e-01  6.753902e-17  1.263158e-01
   endloop
 endfacet
 facet normal -5.000000e-01  0.000000e+00 -8.660254e-01
   outer loop
     vertex  9.429983e-02  6.623477e-17  2.373960e-01
     vertex  9.429983e-02  3.750000e-01  2.373960e-01
     vertex  1.702832e-01  6.820120e-17  1.935270e-01
   endloop
 endfacet
 facet normal -1.736482e-01  0.000000e+00 -9.848078e-01
   outer loop
     vertex  7.894737e-03  6.187689e-17  2.526316e-01
     vertex  7.894737e-03  3.750000e-01  2.526316e-01
     vertex  9.429983e-02  3.750000e-01  2.373960e-01
   endloop
 endfacet
 facet normal -1.736482e-01  0.000000e+00 -9.848078e-01
   outer loop
     vertex  7.894737e-03  6.187689e-17  2.526316e-01
     vertex  9.429983e-02  3.750000e-01  2.373960e-01
     vertex  9.429983e-02  6.623477e-17  2.373960e-01
   endloop
 endfacet
 facet normal  1.736482e-01  0.000000e+00 -9.848078e-01
   outer loop
     vertex -7.851035e-02  5.565320e-17  2.373960e-01
     vertex -7.851035e-02  3.750000e-01  2.373960e-01
     vertex  7.894737e-03  3.750000e-01  2.526316e-01
   endloop
 endfacet
 facet normal  1.736482e-01  0.000000e+00 -9.848078e-01
   outer loop
     vertex -7.851035e-02  5.565320e-17  2.373960e-01
     vertex  7.894737e-03  3.750000e-01  2.526316e-01
     vertex  7.894737e-03  6.187689e-17  2.526316e-01
   endloop
 endfacet
 facet normal  5.000000e-01  0.000000e+00 -8.660254e-01
   outer loop
     vertex -1.544937e-01  4.831436e-17  1.935270e-01
     vertex -1.544937e-01  3.750000e-01  1.935270e-01
     vertex -7.851035e-02  3.750000e-01  2.373960e-01
   endloop
 endfacet
 facet normal  5.000000e-01  0.000000e+00 -8.660254e-01
   outer loop
     vertex -1.544937e-01  4.831436e-17  1.935270e-01
     vertex -7.851035e-02  3.750000e-01  2.373960e-01
     vertex -7.851035e-02  5.565320e-17  2.373960e-01
   endloop
 endfacet
 facet normal  7.660444e-01  0.000000e+00 -6.427876e-01
   outer loop
     vertex -2.108906e-01  4.074554e-17  1.263158e-01
     vertex -2.108906e-01  3.750000e-01  1.263158e-01
     vertex -1.544937e-01  3.750000e-01  1.935270e-01
   endloop
 endfacet
 facet normal  9.396926e-01  0.000000e+00 -3.420201e-01
   outer loop
     vertex -2.108906e-01  4.074554e-17  1.263158e-01
     vertex -2.408988e-01  3.750000e-01  4.386901e-02
     vertex -2.108906e-01  3.750000e-01  1.263158e-01
   endloop
 endfacet
 facet normal  7.660444e-01  0.000000e+00 -6.427876e-01
   outer loop
     vertex -2.108906e-01  4.074554e-17  1.263158e-01
     vertex -1.544937e-01  3.750000e-01  1.935270e-01
     vertex -1.544937e-01  4.831436e-17  1.935270e-01
   endloop
 endfacet
 facet normal  1.000000e+00 -5.268220e-32 -9.490381e-16
   outer loop
     vertex -2.408988e-01  3.385966e-17  4.386901e-02
     vertex -2.408988e-01  3.750000e-01 -4.386901e-02
     vertex -2.408988e-01  3.750000e-01  4.386901e-02
   endloop
 endfacet
 facet normal  9.396926e-01 -1.898593e-17 -3.420201e-01
   outer loop
     vertex -2.408988e-01  3.385966e-17  4.386901e-02
     vertex -2.408988e-01  3.750000e-01  4.386901e-02
     vertex -2.108906e-01  4.074554e-17  1.263158e-01
   endloop
 endfacet
 facet normal  1.000000e+00 -5.268220e-32 -9.490381e-16
   outer loop
     vertex -2.408988e-01  2.848726e-17 -4.386901e-02
     vertex -2.408988e-01  3.750000e-01 -4.386901e-02
     vertex -2.408988e-01  3.385966e-17  4.386901e-02
   endloop
 endfacet
 facet normal  9.396926e-01  2.636217e-17  3.420201e-01
   outer loop
     vertex -2.108906e-01  2.527632e-17 -1.263158e-01
     vertex -2.408988e-01  3.750000e-01 -4.386901e-02
     vertex -2.408988e-01  2.848726e-17 -4.386901e-02
   endloop
 endfacet
 facet normal  9.396926e-01 -0.000000e+00  3.420201e-01
   outer loop
     vertex -2.108906e-01  2.527632e-17 -1.263158e-01
     vertex -2.108906e-01  3.750000e-01 -1.263158e-01
     vertex -2.408988e-01  3.750000e-01 -4.386901e-02
   endloop
 endfacet
 facet normal  7.660444e-01  0.000000e+00  6.427876e-01
   outer loop
     vertex -1.544937e-01  2.461413e-17 -1.935270e-01
     vertex -2.108906e-01  3.750000e-01 -1.263158e-01
     vertex -2.108906e-01  2.527632e-17 -1.263158e-01
   endloop
 endfacet
 facet normal  7.660444e-01 -0.000000e+00  6.427876e-01
   outer loop
     vertex -1.544937e-01  2.461413e-17 -1.935270e-01
     vertex -1.544937e-01  3.750000e-01 -1.935270e-01
     vertex -2.108906e-01  3.750000e-01 -1.263158e-01
   endloop
 endfacet
 facet normal  5.000000e-01  0.000000e+00  8.660254e-01
   outer loop
     vertex -7.851035e-02  2.658057e-17 -2.373960e-01
     vertex -1.544937e-01  3.750000e-01 -1.935270e-01
     vertex -1.544937e-01  2.461413e-17 -1.935270e-01
   endloop
 endfacet
 facet normal  5.000000e-01 -0.000000e+00  8.660254e-01
   outer loop
     vertex -7.851035e-02  2.658057e-17 -2.373960e-01
     vertex -7.851035e-02  3.750000e-01 -2.373960e-01
     vertex -1.544937e-01  3.750000e-01 -1.935270e-01
   endloop
 endfacet
 facet normal  1.736482e-01  0.000000e+00  9.848078e-01
   outer loop
     vertex  7.894737e-03  3.093845e-17 -2.526316e-01
     vertex -7.851035e-02  3.750000e-01 -2.373960e-01
     vertex -7.851035e-02  2.658057e-17 -2.373960e-01
   endloop
 endfacet
 facet normal  1.736482e-01 -0.000000e+00  9.848078e-01
   outer loop
     vertex  7.894737e-03  3.093845e-17 -2.526316e-01
     vertex  7.894737e-03  3.750000e-01 -2.526316e-01
     vertex -7.851035e-02  3.750000e-01 -2.373960e-01
   endloop
 endfacet
endsolid
