solid 
 facet normal  8.660254e-01 -5.000000e-01  0.000000e+00
   outer loop
     vertex  2.820724e-02 -4.785930e-02  0.000000e+00
     vertex  5.583882e-02  0.000000e+00  0.000000e+00
     vertex  5.583882e-02  0.000000e+00  7.500000e-01
   endloop
 endfacet
 facet normal  7.069782e-01 -7.069782e-01  1.906741e-02
   outer loop
     vertex  2.820724e-02 -4.785930e-02  0.000000e+00
     vertex  5.583882e-02  0.000000e+00  7.500000e-01
     vertex  5.756579e-04 -5.526316e-02  7.500000e-01
   endloop
 endfacet
 facet normal -7.069782e-01 -7.069782e-01  1.906741e-02
   outer loop
     vertex -2.705592e-02 -4.785930e-02  0.000000e+00
     vertex  5.756579e-04 -5.526316e-02  7.500000e-01
     vertex -5.468750e-02  6.767785e-18  7.500000e-01
   endloop
 endfacet
 facet normal -7.533289e-16 -9.999513e-01 -9.871331e-03
   outer loop
     vertex -2.705592e-02 -4.785930e-02  0.000000e+00
     vertex  2.820724e-02 -4.785930e-02  0.000000e+00
     vertex  5.756579e-04 -5.526316e-02  7.500000e-01
   endloop
 endfacet
 facet normal -8.660254e-01 -5.000000e-01 -4.754912e-15
   outer loop
     vertex -5.468750e-02  1.598599e-15 -1.195944e-18
     vertex -2.705592e-02 -4.785930e-02  0.000000e+00
     vertex -5.468750e-02  6.767785e-18  7.500000e-01
   endloop
 endfacet
 facet normal -7.070050e-01  7.070050e-01  1.696563e-02
   outer loop
     vertex -1.562500e-02  5.283517e-02  1.760544e-01
     vertex -5.468750e-02  6.767785e-18  7.500000e-01
     vertex  5.756579e-04  5.526316e-02  7.500000e-01
   endloop
 endfacet
 facet normal -8.041004e-01  5.944936e-01 -2.173667e-15
   outer loop
     vertex -1.562500e-02  5.283517e-02  1.760544e-01
     vertex -5.468750e-02  1.598599e-15 -1.195944e-18
     vertex -5.468750e-02  6.767785e-18  7.500000e-01
   endloop
 endfacet
 facet normal  1.386152e-02  9.999039e-01  0.000000e+00
   outer loop
     vertex  1.823470e-02  5.236578e-02  0.000000e+00
     vertex -1.562500e-02  5.283517e-02  0.000000e+00
     vertex -1.562500e-02  5.283517e-02  1.760544e-01
   endloop
 endfacet
 facet normal -7.091819e-03  9.999667e-01 -4.030023e-03
   outer loop
     vertex  1.823470e-02  5.236578e-02  0.000000e+00
     vertex -1.562500e-02  5.283517e-02  1.760544e-01
     vertex  5.756579e-04  5.526316e-02  7.500000e-01
   endloop
 endfacet
 facet normal  7.069567e-01  7.069567e-01  2.060502e-02
   outer loop
     vertex  4.546391e-02  3.223447e-02  0.000000e+00
     vertex  5.756579e-04  5.526316e-02  7.500000e-01
     vertex  5.583882e-02  0.000000e+00  7.500000e-01
   endloop
 endfacet
 facet normal  5.944583e-01  8.040527e-01  1.089056e-02
   outer loop
     vertex  4.546391e-02  3.223447e-02  0.000000e+00
     vertex  1.823470e-02  5.236578e-02  0.000000e+00
     vertex  5.756579e-04  5.526316e-02  7.500000e-01
   endloop
 endfacet
 facet normal  9.519096e-01  3.063791e-01 -0.000000e+00
   outer loop
     vertex  5.583882e-02  0.000000e+00  0.000000e+00
     vertex  4.546391e-02  3.223447e-02  0.000000e+00
     vertex  5.583882e-02  0.000000e+00  7.500000e-01
   endloop
 endfacet
 facet normal  1.154181e-16  4.164792e-17 -1.000000e+00
   outer loop
     vertex -4.432566e-02  5.498825e-18  0.000000e+00
     vertex -2.705592e-02 -4.785930e-02  0.000000e+00
     vertex -5.468750e-02  1.598599e-15 -1.195944e-18
   endloop
 endfacet
 facet normal  0.000000e+00  0.000000e+00 -1.000000e+00
   outer loop
     vertex -4.432566e-02  5.498825e-18  0.000000e+00
     vertex -2.187500e-02 -3.888568e-02  0.000000e+00
     vertex -2.705592e-02 -4.785930e-02  0.000000e+00
   endloop
 endfacet
 facet normal  0.000000e+00 -0.000000e+00 -1.000000e+00
   outer loop
     vertex  2.302632e-02 -3.888568e-02  0.000000e+00
     vertex  2.820724e-02 -4.785930e-02  0.000000e+00
     vertex -2.705592e-02 -4.785930e-02  0.000000e+00
   endloop
 endfacet
 facet normal -0.000000e+00  0.000000e+00 -1.000000e+00
   outer loop
     vertex  2.302632e-02 -3.888568e-02  0.000000e+00
     vertex -2.705592e-02 -4.785930e-02  0.000000e+00
     vertex -2.187500e-02 -3.888568e-02  0.000000e+00
   endloop
 endfacet
 facet normal -0.000000e+00  0.000000e+00 -1.000000e+00
   outer loop
     vertex  5.583882e-02  0.000000e+00  0.000000e+00
     vertex  2.302632e-02 -3.888568e-02  0.000000e+00
     vertex  4.547697e-02  0.000000e+00  0.000000e+00
   endloop
 endfacet
 facet normal  0.000000e+00  0.000000e+00 -1.000000e+00
   outer loop
     vertex  5.583882e-02  0.000000e+00  0.000000e+00
     vertex  2.820724e-02 -4.785930e-02  0.000000e+00
     vertex  2.302632e-02 -3.888568e-02  0.000000e+00
   endloop
 endfacet
 facet normal -0.000000e+00  0.000000e+00 -1.000000e+00
   outer loop
     vertex  1.287694e-02  4.318341e-02  0.000000e+00
     vertex -1.562500e-02  4.187681e-02  0.000000e+00
     vertex -1.562500e-02  5.283517e-02  0.000000e+00
   endloop
 endfacet
 facet normal  0.000000e+00 -0.000000e+00 -1.000000e+00
   outer loop
     vertex  1.823470e-02  5.236578e-02  0.000000e+00
     vertex  3.641190e-02  2.705351e-02  0.000000e+00
     vertex  1.287694e-02  4.318341e-02  0.000000e+00
   endloop
 endfacet
 facet normal -0.000000e+00  0.000000e+00 -1.000000e+00
   outer loop
     vertex  1.823470e-02  5.236578e-02  0.000000e+00
     vertex  1.287694e-02  4.318341e-02  0.000000e+00
     vertex -1.562500e-02  5.283517e-02  0.000000e+00
   endloop
 endfacet
 facet normal  0.000000e+00 -0.000000e+00 -1.000000e+00
   outer loop
     vertex  4.546391e-02  3.223447e-02  0.000000e+00
     vertex  4.547697e-02  0.000000e+00  0.000000e+00
     vertex  3.641190e-02  2.705351e-02  0.000000e+00
   endloop
 endfacet
 facet normal  0.000000e+00  0.000000e+00 -1.000000e+00
   outer loop
     vertex  4.546391e-02  3.223447e-02  0.000000e+00
     vertex  5.583882e-02  0.000000e+00  0.000000e+00
     vertex  4.547697e-02  0.000000e+00  0.000000e+00
   endloop
 endfacet
 facet normal -0.000000e+00  0.000000e+00 -1.000000e+00
   outer loop
     vertex  4.546391e-02  3.223447e-02  0.000000e+00
     vertex  3.641190e-02  2.705351e-02  0.000000e+00
     vertex  1.823470e-02  5.236578e-02  0.000000e+00
   endloop
 endfacet
 facet normal -1.000000e+00  0.000000e+00  0.000000e+00
   outer loop
     vertex -1.562500e-02  4.187681e-02  1.581943e-01
     vertex -1.562500e-02  5.283517e-02  0.000000e+00
     vertex -1.562500e-02  4.187681e-02  0.000000e+00
   endloop
 endfacet
 facet normal -1.000000e+00  2.751650e-15  0.000000e+00
   outer loop
     vertex -1.562500e-02  5.283517e-02  0.000000e+00
     vertex -1.562500e-02  4.905259e-02  1.701813e-01
     vertex -1.562500e-02  5.283517e-02  1.760544e-01
   endloop
 endfacet
 facet normal -1.000000e+00  9.619493e-17 -5.902220e-17
   outer loop
     vertex -1.562500e-02  5.283517e-02  0.000000e+00
     vertex -1.562500e-02  4.539922e-02  1.642270e-01
     vertex -1.562500e-02  4.905259e-02  1.701813e-01
   endloop
 endfacet
 facet normal -1.000000e+00 -2.641505e-15 -1.829811e-16
   outer loop
     vertex -1.562500e-02  5.283517e-02  0.000000e+00
     vertex -1.562500e-02  4.187681e-02  1.581943e-01
     vertex -1.562500e-02  4.539922e-02  1.642270e-01
   endloop
 endfacet
 facet normal  7.933621e-01  5.117880e-01 -3.296204e-01
   outer loop
     vertex -5.468750e-02  1.598599e-15 -1.195944e-18
     vertex -1.562500e-02  5.283517e-02  1.760544e-01
     vertex -1.562500e-02  4.905259e-02  1.701813e-01
   endloop
 endfacet
 facet normal  7.703282e-01  5.434979e-01 -3.334733e-01
   outer loop
     vertex -5.468750e-02  1.598599e-15 -1.195944e-18
     vertex -1.562500e-02  4.905259e-02  1.701813e-01
     vertex -1.562500e-02  4.539922e-02  1.642270e-01
   endloop
 endfacet
 facet normal  7.448186e-01  5.762321e-01 -3.364548e-01
   outer loop
     vertex -5.468750e-02  1.598599e-15 -1.195944e-18
     vertex -1.562500e-02  4.539922e-02  1.642270e-01
     vertex -1.562500e-02  4.187681e-02  1.581943e-01
   endloop
 endfacet
 facet normal  1.486570e-13  9.667025e-01 -2.559030e-01
   outer loop
     vertex -4.432566e-02  5.498825e-18  0.000000e+00
     vertex -5.468750e-02  1.598599e-15 -1.195944e-18
     vertex -1.562500e-02  4.187681e-02  1.581943e-01
   endloop
 endfacet
 facet normal  0.000000e+00  0.000000e+00  1.000000e+00
   outer loop
     vertex  5.756579e-04 -4.490132e-02  7.500000e-01
     vertex -5.468750e-02  6.767785e-18  7.500000e-01
     vertex  5.756579e-04 -5.526316e-02  7.500000e-01
   endloop
 endfacet
 facet normal  0.000000e+00  0.000000e+00  1.000000e+00
   outer loop
     vertex  5.756579e-04 -4.490132e-02  7.500000e-01
     vertex -4.432566e-02  5.498825e-18  7.500000e-01
     vertex -5.468750e-02  6.767785e-18  7.500000e-01
   endloop
 endfacet
 facet normal  0.000000e+00  0.000000e+00  1.000000e+00
   outer loop
     vertex  5.756579e-04  5.526316e-02  7.500000e-01
     vertex -4.432566e-02  5.498825e-18  7.500000e-01
     vertex  5.756579e-04  4.490132e-02  7.500000e-01
   endloop
 endfacet
 facet normal  0.000000e+00  0.000000e+00  1.000000e+00
   outer loop
     vertex  5.756579e-04  5.526316e-02  7.500000e-01
     vertex -5.468750e-02  6.767785e-18  7.500000e-01
     vertex -4.432566e-02  5.498825e-18  7.500000e-01
   endloop
 endfacet
 facet normal  0.000000e+00  0.000000e+00  1.000000e+00
   outer loop
     vertex  5.583882e-02  0.000000e+00  7.500000e-01
     vertex  5.756579e-04  4.490132e-02  7.500000e-01
     vertex  4.547697e-02  0.000000e+00  7.500000e-01
   endloop
 endfacet
 facet normal  0.000000e+00  0.000000e+00  1.000000e+00
   outer loop
     vertex  5.583882e-02  0.000000e+00  7.500000e-01
     vertex  4.547697e-02  0.000000e+00  7.500000e-01
     vertex  5.756579e-04 -4.490132e-02  7.500000e-01
   endloop
 endfacet
 facet normal  0.000000e+00  0.000000e+00  1.000000e+00
   outer loop
     vertex  5.583882e-02  0.000000e+00  7.500000e-01
     vertex  5.756579e-04 -4.490132e-02  7.500000e-01
     vertex  5.756579e-04 -5.526316e-02  7.500000e-01
   endloop
 endfacet
 facet normal  0.000000e+00  0.000000e+00  1.000000e+00
   outer loop
     vertex  5.583882e-02  0.000000e+00  7.500000e-01
     vertex  5.756579e-04  5.526316e-02  7.500000e-01
     vertex  5.756579e-04  4.490132e-02  7.500000e-01
   endloop
 endfacet
 facet normal -8.660254e-01  5.000000e-01  0.000000e+00
   outer loop
     vertex  2.302632e-02 -3.888568e-02  0.000000e+00
     vertex  4.547697e-02  0.000000e+00  7.500000e-01
     vertex  4.547697e-02  0.000000e+00  0.000000e+00
   endloop
 endfacet
 facet normal -7.070219e-01  7.070219e-01 -1.549323e-02
   outer loop
     vertex  2.302632e-02 -3.888568e-02  0.000000e+00
     vertex  5.756579e-04 -4.490132e-02  7.500000e-01
     vertex  4.547697e-02  0.000000e+00  7.500000e-01
   endloop
 endfacet
 facet normal  7.070219e-01  7.070219e-01 -1.549323e-02
   outer loop
     vertex -2.187500e-02 -3.888568e-02  0.000000e+00
     vertex -4.432566e-02  5.498825e-18  7.500000e-01
     vertex  5.756579e-04 -4.490132e-02  7.500000e-01
   endloop
 endfacet
 facet normal  6.181263e-16  9.999678e-01  8.020590e-03
   outer loop
     vertex -2.187500e-02 -3.888568e-02  0.000000e+00
     vertex  5.756579e-04 -4.490132e-02  7.500000e-01
     vertex  2.302632e-02 -3.888568e-02  0.000000e+00
   endloop
 endfacet
 facet normal  8.660254e-01  5.000000e-01 -7.852098e-15
   outer loop
     vertex -4.432566e-02  5.498825e-18  0.000000e+00
     vertex -4.432566e-02  5.498825e-18  7.500000e-01
     vertex -2.187500e-02 -3.888568e-02  0.000000e+00
   endloop
 endfacet
 facet normal  7.070192e-01 -7.070192e-01 -1.574130e-02
   outer loop
     vertex -1.562500e-02  4.187681e-02  1.581943e-01
     vertex  5.756579e-04  4.490132e-02  7.500000e-01
     vertex -4.432566e-02  5.498825e-18  7.500000e-01
   endloop
 endfacet
 facet normal  8.248654e-01 -5.653292e-01 -7.477446e-15
   outer loop
     vertex -1.562500e-02  4.187681e-02  1.581943e-01
     vertex -4.432566e-02  5.498825e-18  7.500000e-01
     vertex -4.432566e-02  5.498825e-18  0.000000e+00
   endloop
 endfacet
 facet normal  4.579443e-02 -9.989509e-01  0.000000e+00
   outer loop
     vertex  1.287694e-02  4.318341e-02  0.000000e+00
     vertex -1.562500e-02  4.187681e-02  1.581943e-01
     vertex -1.562500e-02  4.187681e-02  0.000000e+00
   endloop
 endfacet
 facet normal  6.428659e-02 -9.979259e-01  3.340205e-03
   outer loop
     vertex  1.287694e-02  4.318341e-02  0.000000e+00
     vertex  5.756579e-04  4.490132e-02  7.500000e-01
     vertex -1.562500e-02  4.187681e-02  1.581943e-01
   endloop
 endfacet
 facet normal -7.070051e-01 -7.070051e-01 -1.695721e-02
   outer loop
     vertex  3.641190e-02  2.705351e-02  0.000000e+00
     vertex  4.547697e-02  0.000000e+00  7.500000e-01
     vertex  5.756579e-04  4.490132e-02  7.500000e-01
   endloop
 endfacet
 facet normal -5.653138e-01 -8.248429e-01 -7.382772e-03
   outer loop
     vertex  3.641190e-02  2.705351e-02  0.000000e+00
     vertex  5.756579e-04  4.490132e-02  7.500000e-01
     vertex  1.287694e-02  4.318341e-02  0.000000e+00
   endloop
 endfacet
 facet normal -9.481854e-01 -3.177176e-01  0.000000e+00
   outer loop
     vertex  4.547697e-02  0.000000e+00  0.000000e+00
     vertex  4.547697e-02  0.000000e+00  7.500000e-01
     vertex  3.641190e-02  2.705351e-02  0.000000e+00
   endloop
 endfacet
endsolid
