solid 
 facet normal -0.000000e+00  0.000000e+00 -1.000000e+00
   outer loop
     vertex  1.093750e-01  1.530808e-17 -6.250000e-02
     vertex -1.406250e-01  0.000000e+00 -6.250000e-02
     vertex -1.406250e-01  7.500000e-01 -6.250000e-02
   endloop
 endfacet
 facet normal  0.000000e+00  0.000000e+00 -1.000000e+00
   outer loop
     vertex  1.093750e-01  1.530808e-17 -6.250000e-02
     vertex -1.406250e-01  7.500000e-01 -6.250000e-02
     vertex  1.093750e-01  7.500000e-01 -6.250000e-02
   endloop
 endfacet
 facet normal  1.000000e+00  0.000000e+00  0.000000e+00
   outer loop
     vertex  1.093750e-01  3.061617e-17  1.875000e-01
     vertex  1.093750e-01  1.530808e-17 -6.250000e-02
     vertex  1.093750e-01  7.500000e-01 -6.250000e-02
   endloop
 endfacet
 facet normal  1.000000e+00 -0.000000e+00  0.000000e+00
   outer loop
     vertex  1.093750e-01  3.061617e-17  1.875000e-01
     vertex  1.093750e-01  7.500000e-01 -6.250000e-02
     vertex  1.093750e-01  7.500000e-01  1.875000e-01
   endloop
 endfacet
 facet normal  0.000000e+00  0.000000e+00  1.000000e+00
   outer loop
     vertex -1.406250e-01  1.530808e-17  1.875000e-01
     vertex  1.093750e-01  3.061617e-17  1.875000e-01
     vertex  1.093750e-01  7.500000e-01  1.875000e-01
   endloop
 endfacet
 facet normal  0.000000e+00  0.000000e+00  1.000000e+00
   outer loop
     vertex -1.406250e-01  1.530808e-17  1.875000e-01
     vertex  1.093750e-01  7.500000e-01  1.875000e-01
     vertex -1.406250e-01  7.500000e-01  1.875000e-01
   endloop
 endfacet
 facet normal -1.000000e+00  0.000000e+00  0.000000e+00
   outer loop
     vertex -1.406250e-01  0.000000e+00 -6.250000e-02
     vertex -1.406250e-01  1.530808e-17  1.875000e-01
     vertex -1.406250e-01  7.500000e-01  1.875000e-01
   endloop
 endfacet
 facet normal -1.000000e+00  0.000000e+00  0.000000e+00
   outer loop
     vertex -1.406250e-01  0.000000e+00 -6.250000e-02
     vertex -1.406250e-01  7.500000e-01  1.875000e-01
     vertex -1.406250e-01  7.500000e-01 -6.250000e-02
   endloop
 endfacet
 facet normal -7.071068e-01  0.000000e+00  7.071068e-01
   outer loop
     vertex  2.779605e-02  1.804743e-17  6.381579e-02
     vertex -1.430921e-02  7.500000e-01  2.171053e-02
     vertex -1.430921e-02  1.289102e-17  2.171053e-02
   endloop
 endfacet
 facet normal -7.071068e-01  0.000000e+00  7.071068e-01
   outer loop
     vertex  2.779605e-02  1.804743e-17  6.381579e-02
     vertex  2.779605e-02  7.500000e-01  6.381579e-02
     vertex -1.430921e-02  7.500000e-01  2.171053e-02
   endloop
 endfacet
 facet normal -7.071068e-01  0.000000e+00 -7.071068e-01
   outer loop
     vertex -1.430921e-02  1.804743e-17  1.059211e-01
     vertex -1.430921e-02  7.500000e-01  1.059211e-01
     vertex  2.779605e-02  7.500000e-01  6.381579e-02
   endloop
 endfacet
 facet normal -7.071068e-01  0.000000e+00 -7.071068e-01
   outer loop
     vertex -1.430921e-02  1.804743e-17  1.059211e-01
     vertex  2.779605e-02  7.500000e-01  6.381579e-02
     vertex  2.779605e-02  1.804743e-17  6.381579e-02
   endloop
 endfacet
 facet normal  7.071068e-01  0.000000e+00 -7.071068e-01
   outer loop
     vertex -5.641447e-02  1.289102e-17  6.381579e-02
     vertex -5.641447e-02  7.500000e-01  6.381579e-02
     vertex -1.430921e-02  7.500000e-01  1.059211e-01
   endloop
 endfacet
 facet normal  7.071068e-01  0.000000e+00 -7.071068e-01
   outer loop
     vertex -5.641447e-02  1.289102e-17  6.381579e-02
     vertex -1.430921e-02  7.500000e-01  1.059211e-01
     vertex -1.430921e-02  1.804743e-17  1.059211e-01
   endloop
 endfacet
 facet normal  7.071068e-01 -0.000000e+00  7.071068e-01
   outer loop
     vertex -1.430921e-02  1.289102e-17  2.171053e-02
     vertex -1.430921e-02  7.500000e-01  2.171053e-02
     vertex -5.641447e-02  7.500000e-01  6.381579e-02
   endloop
 endfacet
 facet normal  7.071068e-01  0.000000e+00  7.071068e-01
   outer loop
     vertex -1.430921e-02  1.289102e-17  2.171053e-02
     vertex -5.641447e-02  7.500000e-01  6.381579e-02
     vertex -5.641447e-02  1.289102e-17  6.381579e-02
   endloop
 endfacet
 facet normal  6.123234e-17 -1.000000e+00  6.123234e-17
   outer loop
     vertex -5.641447e-02  1.289102e-17  6.381579e-02
     vertex -1.406250e-01  0.000000e+00 -6.250000e-02
     vertex -1.430921e-02  1.289102e-17  2.171053e-02
   endloop
 endfacet
 facet normal  6.123234e-17 -1.000000e+00  6.123234e-17
   outer loop
     vertex  1.093750e-01  1.530808e-17 -6.250000e-02
     vertex -1.430921e-02  1.289102e-17  2.171053e-02
     vertex -1.406250e-01  0.000000e+00 -6.250000e-02
   endloop
 endfacet
 facet normal  6.123234e-17 -1.000000e+00  6.123234e-17
   outer loop
     vertex -1.406250e-01  1.530808e-17  1.875000e-01
     vertex -1.406250e-01  0.000000e+00 -6.250000e-02
     vertex -5.641447e-02  1.289102e-17  6.381579e-02
   endloop
 endfacet
 facet normal  6.123234e-17 -1.000000e+00  6.123234e-17
   outer loop
     vertex  2.779605e-02  1.804743e-17  6.381579e-02
     vertex -1.430921e-02  1.289102e-17  2.171053e-02
     vertex  1.093750e-01  1.530808e-17 -6.250000e-02
   endloop
 endfacet
 facet normal  6.123234e-17 -1.000000e+00  6.123234e-17
   outer loop
     vertex -1.430921e-02  1.804743e-17  1.059211e-01
     vertex -1.406250e-01  1.530808e-17  1.875000e-01
     vertex -5.641447e-02  1.289102e-17  6.381579e-02
   endloop
 endfacet
 facet normal  6.123234e-17 -1.000000e+00  6.123234e-17
   outer loop
     vertex  1.093750e-01  3.061617e-17  1.875000e-01
     vertex -1.430921e-02  1.804743e-17  1.059211e-01
     vertex  2.779605e-02  1.804743e-17  6.381579e-02
   endloop
 endfacet
 facet normal  6.123234e-17 -1.000000e+00  6.123234e-17
   outer loop
     vertex  1.093750e-01  3.061617e-17  1.875000e-01
     vertex  2.779605e-02  1.804743e-17  6.381579e-02
     vertex  1.093750e-01  1.530808e-17 -6.250000e-02
   endloop
 endfacet
 facet normal  6.123234e-17 -1.000000e+00  6.123234e-17
   outer loop
     vertex  1.093750e-01  3.061617e-17  1.875000e-01
     vertex -1.406250e-01  1.530808e-17  1.875000e-01
     vertex -1.430921e-02  1.804743e-17  1.059211e-01
   endloop
 endfacet
 facet normal  0.000000e+00  1.000000e+00  0.000000e+00
   outer loop
     vertex -5.641447e-02  7.500000e-01  6.381579e-02
     vertex -1.430921e-02  7.500000e-01  2.171053e-02
     vertex -1.406250e-01  7.500000e-01 -6.250000e-02
   endloop
 endfacet
 facet normal  0.000000e+00  1.000000e+00  0.000000e+00
   outer loop
     vertex  1.093750e-01  7.500000e-01 -6.250000e-02
     vertex -1.406250e-01  7.500000e-01 -6.250000e-02
     vertex -1.430921e-02  7.500000e-01  2.171053e-02
   endloop
 endfacet
 facet normal  0.000000e+00  1.000000e+00  0.000000e+00
   outer loop
     vertex -1.406250e-01  7.500000e-01  1.875000e-01
     vertex -5.641447e-02  7.500000e-01  6.381579e-02
     vertex -1.406250e-01  7.500000e-01 -6.250000e-02
   endloop
 endfacet
 facet normal  0.000000e+00  1.000000e+00  0.000000e+00
   outer loop
     vertex  2.779605e-02  7.500000e-01  6.381579e-02
     vertex  1.093750e-01  7.500000e-01 -6.250000e-02
     vertex -1.430921e-02  7.500000e-01  2.171053e-02
   endloop
 endfacet
 facet normal  0.000000e+00  1.000000e+00  0.000000e+00
   outer loop
     vertex -1.430921e-02  7.500000e-01  1.059211e-01
     vertex -5.641447e-02  7.500000e-01  6.381579e-02
     vertex -1.406250e-01  7.500000e-01  1.875000e-01
   endloop
 endfacet
 facet normal  0.000000e+00  1.000000e+00  0.000000e+00
   outer loop
     vertex  1.093750e-01  7.500000e-01  1.875000e-01
     vertex  2.779605e-02  7.500000e-01  6.381579e-02
     vertex -1.430921e-02  7.500000e-01  1.059211e-01
   endloop
 endfacet
 facet normal  0.000000e+00  1.000000e+00  0.000000e+00
   outer loop
     vertex  1.093750e-01  7.500000e-01  1.875000e-01
     vertex  1.093750e-01  7.500000e-01 -6.250000e-02
     vertex  2.779605e-02  7.500000e-01  6.381579e-02
   endloop
 endfacet
 facet normal  0.000000e+00  1.000000e+00  0.000000e+00
   outer loop
     vertex  1.093750e-01  7.500000e-01  1.875000e-01
     vertex -1.430921e-02  7.500000e-01  1.059211e-01
     vertex -1.406250e-01  7.500000e-01  1.875000e-01
   endloop
 endfacet
endsolid
