solid 
 facet normal  9.767442e-01 -2.144080e-01  0.000000e+00
   outer loop
     vertex -1.107785e-01 -8.266650e-03  1.328125e-01
     vertex -1.089638e-01  0.000000e+00  1.328125e-01
     vertex -1.089638e-01  0.000000e+00  6.171875e-01
   endloop
 endfacet
 facet normal  9.767442e-01 -2.144080e-01  0.000000e+00
   outer loop
     vertex -1.107785e-01 -8.266650e-03  9.375000e-02
     vertex -1.089638e-01  0.000000e+00  0.000000e+00
     vertex -1.089638e-01  0.000000e+00  9.375000e-02
   endloop
 endfacet
 facet normal  7.070575e-01 -7.070575e-01  1.180680e-02
   outer loop
     vertex -1.158887e-01 -1.501320e-02  1.328125e-01
     vertex -1.089638e-01  0.000000e+00  6.171875e-01
     vertex -1.287007e-01 -1.973684e-02  6.171875e-01
   endloop
 endfacet
 facet normal  7.971160e-01 -6.037819e-01  7.318250e-03
   outer loop
     vertex -1.158887e-01 -1.501320e-02  1.328125e-01
     vertex -1.107785e-01 -8.266650e-03  1.328125e-01
     vertex -1.089638e-01  0.000000e+00  6.171875e-01
   endloop
 endfacet
 facet normal  7.965681e-01 -6.033669e-01 -3.778497e-02
   outer loop
     vertex -1.158887e-01 -1.501320e-02  9.375000e-02
     vertex -1.089638e-01  0.000000e+00  0.000000e+00
     vertex -1.107785e-01 -8.266650e-03  9.375000e-02
   endloop
 endfacet
 facet normal  4.709468e-01 -8.821532e-01  3.854006e-03
   outer loop
     vertex -1.233548e-01 -1.899908e-02  1.328125e-01
     vertex -1.158887e-01 -1.501320e-02  1.328125e-01
     vertex -1.287007e-01 -1.973684e-02  6.171875e-01
   endloop
 endfacet
 facet normal  4.708570e-01 -8.819849e-01 -1.990857e-02
   outer loop
     vertex -1.287007e-01 -1.973684e-02  0.000000e+00
     vertex -1.158887e-01 -1.501320e-02  9.375000e-02
     vertex -1.233548e-01 -1.899908e-02  9.375000e-02
   endloop
 endfacet
 facet normal  1.367115e-01 -9.906109e-01  0.000000e+00
   outer loop
     vertex -1.287007e-01 -1.973684e-02  0.000000e+00
     vertex -1.233548e-01 -1.899908e-02  9.375000e-02
     vertex -1.233548e-01 -1.899908e-02  1.328125e-01
   endloop
 endfacet
 facet normal  7.057946e-01 -7.057946e-01 -6.089283e-02
   outer loop
     vertex -1.287007e-01 -1.973684e-02  0.000000e+00
     vertex -1.089638e-01  0.000000e+00  0.000000e+00
     vertex -1.158887e-01 -1.501320e-02  9.375000e-02
   endloop
 endfacet
 facet normal  1.367115e-01 -9.906109e-01  0.000000e+00
   outer loop
     vertex -1.287007e-01 -1.973684e-02  0.000000e+00
     vertex -1.233548e-01 -1.899908e-02  1.328125e-01
     vertex -1.287007e-01 -1.973684e-02  6.171875e-01
   endloop
 endfacet
 facet normal -7.071068e-01 -7.071068e-01  0.000000e+00
   outer loop
     vertex -1.484375e-01  2.417066e-18  0.000000e+00
     vertex -1.287007e-01 -1.973684e-02  6.171875e-01
     vertex -1.484375e-01  2.417066e-18  6.171875e-01
   endloop
 endfacet
 facet normal -7.071068e-01 -7.071068e-01  0.000000e+00
   outer loop
     vertex -1.484375e-01  2.417066e-18  0.000000e+00
     vertex -1.287007e-01 -1.973684e-02  0.000000e+00
     vertex -1.287007e-01 -1.973684e-02  6.171875e-01
   endloop
 endfacet
 facet normal -7.071068e-01  7.071068e-01  0.000000e+00
   outer loop
     vertex -1.287007e-01  1.973684e-02  0.000000e+00
     vertex -1.484375e-01  2.417066e-18  6.171875e-01
     vertex -1.287007e-01  1.973684e-02  6.171875e-01
   endloop
 endfacet
 facet normal -7.071068e-01  7.071068e-01  0.000000e+00
   outer loop
     vertex -1.287007e-01  1.973684e-02  0.000000e+00
     vertex -1.484375e-01  2.417066e-18  0.000000e+00
     vertex -1.484375e-01  2.417066e-18  6.171875e-01
   endloop
 endfacet
 facet normal  1.367115e-01  9.906109e-01 -0.000000e+00
   outer loop
     vertex -1.287007e-01  1.973684e-02  0.000000e+00
     vertex -1.287007e-01  1.973684e-02  6.171875e-01
     vertex -1.233548e-01  1.899908e-02  1.328125e-01
   endloop
 endfacet
 facet normal  1.367115e-01  9.906109e-01 -0.000000e+00
   outer loop
     vertex -1.233548e-01  1.899908e-02  9.375000e-02
     vertex -1.287007e-01  1.973684e-02  0.000000e+00
     vertex -1.233548e-01  1.899908e-02  1.328125e-01
   endloop
 endfacet
 facet normal  7.070575e-01  7.070575e-01  1.180680e-02
   outer loop
     vertex -1.158887e-01  1.501320e-02  1.328125e-01
     vertex -1.287007e-01  1.973684e-02  6.171875e-01
     vertex -1.089638e-01  0.000000e+00  6.171875e-01
   endloop
 endfacet
 facet normal  4.709468e-01  8.821532e-01  3.854006e-03
   outer loop
     vertex -1.158887e-01  1.501320e-02  1.328125e-01
     vertex -1.233548e-01  1.899908e-02  1.328125e-01
     vertex -1.287007e-01  1.973684e-02  6.171875e-01
   endloop
 endfacet
 facet normal  4.708570e-01  8.819849e-01 -1.990857e-02
   outer loop
     vertex -1.158887e-01  1.501320e-02  9.375000e-02
     vertex -1.287007e-01  1.973684e-02  0.000000e+00
     vertex -1.233548e-01  1.899908e-02  9.375000e-02
   endloop
 endfacet
 facet normal  7.971160e-01  6.037819e-01  7.318250e-03
   outer loop
     vertex -1.107785e-01  8.266650e-03  1.328125e-01
     vertex -1.158887e-01  1.501320e-02  1.328125e-01
     vertex -1.089638e-01  0.000000e+00  6.171875e-01
   endloop
 endfacet
 facet normal  9.767442e-01  2.144080e-01 -0.000000e+00
   outer loop
     vertex -1.089638e-01  0.000000e+00  1.328125e-01
     vertex -1.107785e-01  8.266650e-03  1.328125e-01
     vertex -1.089638e-01  0.000000e+00  6.171875e-01
   endloop
 endfacet
 facet normal  7.965681e-01  6.033669e-01 -3.778497e-02
   outer loop
     vertex -1.089638e-01  0.000000e+00  0.000000e+00
     vertex -1.158887e-01  1.501320e-02  9.375000e-02
     vertex -1.107785e-01  8.266650e-03  9.375000e-02
   endloop
 endfacet
 facet normal  9.767442e-01  2.144080e-01 -0.000000e+00
   outer loop
     vertex -1.089638e-01  0.000000e+00  0.000000e+00
     vertex -1.107785e-01  8.266650e-03  9.375000e-02
     vertex -1.089638e-01  0.000000e+00  9.375000e-02
   endloop
 endfacet
 facet normal  7.057946e-01  7.057946e-01 -6.089283e-02
   outer loop
     vertex -1.089638e-01  0.000000e+00  0.000000e+00
     vertex -1.287007e-01  1.973684e-02  0.000000e+00
     vertex -1.158887e-01  1.501320e-02  9.375000e-02
   endloop
 endfacet
 facet normal  0.000000e+00  0.000000e+00 -1.000000e+00
   outer loop
     vertex -1.089638e-01  0.000000e+00  0.000000e+00
     vertex -1.484375e-01  2.417066e-18  0.000000e+00
     vertex -1.287007e-01  1.973684e-02  0.000000e+00
   endloop
 endfacet
 facet normal -0.000000e+00  0.000000e+00 -1.000000e+00
   outer loop
     vertex -1.089638e-01  0.000000e+00  0.000000e+00
     vertex -1.287007e-01 -1.973684e-02  0.000000e+00
     vertex -1.484375e-01  2.417066e-18  0.000000e+00
   endloop
 endfacet
 facet normal  0.000000e+00 -0.000000e+00 -1.000000e+00
   outer loop
     vertex -1.158887e-01 -1.501320e-02  9.375000e-02
     vertex -8.187475e-02 -8.759659e-02  9.375000e-02
     vertex -1.233548e-01 -1.899908e-02  9.375000e-02
   endloop
 endfacet
 facet normal  0.000000e+00 -0.000000e+00 -1.000000e+00
   outer loop
     vertex -1.107785e-01 -8.266650e-03  9.375000e-02
     vertex -8.187475e-02 -8.759659e-02  9.375000e-02
     vertex -1.158887e-01 -1.501320e-02  9.375000e-02
   endloop
 endfacet
 facet normal  0.000000e+00  0.000000e+00 -1.000000e+00
   outer loop
     vertex -1.089638e-01  0.000000e+00  9.375000e-02
     vertex -4.938597e-03 -1.101143e-01  9.375000e-02
     vertex -8.187475e-02 -8.759659e-02  9.375000e-02
   endloop
 endfacet
 facet normal  0.000000e+00 -0.000000e+00 -1.000000e+00
   outer loop
     vertex -1.089638e-01  0.000000e+00  9.375000e-02
     vertex -8.187475e-02 -8.759659e-02  9.375000e-02
     vertex -1.107785e-01 -8.266650e-03  9.375000e-02
   endloop
 endfacet
 facet normal -0.000000e+00  0.000000e+00 -1.000000e+00
   outer loop
     vertex  6.698165e-02 -7.470672e-02  9.375000e-02
     vertex -4.938597e-03 -1.101143e-01  9.375000e-02
     vertex -1.089638e-01  0.000000e+00  9.375000e-02
   endloop
 endfacet
 facet normal  0.000000e+00  0.000000e+00 -1.000000e+00
   outer loop
     vertex -8.187475e-02  8.759659e-02  9.375000e-02
     vertex -1.158887e-01  1.501320e-02  9.375000e-02
     vertex -1.233548e-01  1.899908e-02  9.375000e-02
   endloop
 endfacet
 facet normal  0.000000e+00  0.000000e+00 -1.000000e+00
   outer loop
     vertex -8.187475e-02  8.759659e-02  9.375000e-02
     vertex -1.107785e-01  8.266650e-03  9.375000e-02
     vertex -1.158887e-01  1.501320e-02  9.375000e-02
   endloop
 endfacet
 facet normal  0.000000e+00  0.000000e+00 -1.000000e+00
   outer loop
     vertex -8.187475e-02  8.759659e-02  9.375000e-02
     vertex -1.089638e-01  0.000000e+00  9.375000e-02
     vertex -1.107785e-01  8.266650e-03  9.375000e-02
   endloop
 endfacet
 facet normal -0.000000e+00  0.000000e+00 -1.000000e+00
   outer loop
     vertex  9.605263e-02  0.000000e+00  9.375000e-02
     vertex  6.698165e-02 -7.470672e-02  9.375000e-02
     vertex -1.089638e-01  0.000000e+00  9.375000e-02
   endloop
 endfacet
 facet normal  0.000000e+00  0.000000e+00 -1.000000e+00
   outer loop
     vertex -4.938597e-03  1.101143e-01  9.375000e-02
     vertex -1.089638e-01  0.000000e+00  9.375000e-02
     vertex -8.187475e-02  8.759659e-02  9.375000e-02
   endloop
 endfacet
 facet normal  0.000000e+00 -0.000000e+00 -1.000000e+00
   outer loop
     vertex  6.698165e-02  7.470672e-02  9.375000e-02
     vertex  9.605263e-02  0.000000e+00  9.375000e-02
     vertex -1.089638e-01  0.000000e+00  9.375000e-02
   endloop
 endfacet
 facet normal -0.000000e+00  0.000000e+00 -1.000000e+00
   outer loop
     vertex  6.698165e-02  7.470672e-02  9.375000e-02
     vertex -1.089638e-01  0.000000e+00  9.375000e-02
     vertex -4.938597e-03  1.101143e-01  9.375000e-02
   endloop
 endfacet
 facet normal  9.319273e-01 -3.626452e-01  0.000000e+00
   outer loop
     vertex  6.698165e-02 -7.470672e-02  9.375000e-02
     vertex  9.605263e-02  0.000000e+00  1.328125e-01
     vertex  6.698165e-02 -7.470672e-02  1.328125e-01
   endloop
 endfacet
 facet normal  9.319273e-01 -3.626452e-01  0.000000e+00
   outer loop
     vertex  6.698165e-02 -7.470672e-02  9.375000e-02
     vertex  9.605263e-02  0.000000e+00  9.375000e-02
     vertex  9.605263e-02  0.000000e+00  1.328125e-01
   endloop
 endfacet
 facet normal  4.416904e-01 -8.971675e-01  0.000000e+00
   outer loop
     vertex -4.938597e-03 -1.101143e-01  9.375000e-02
     vertex  6.698165e-02 -7.470672e-02  1.328125e-01
     vertex -4.938597e-03 -1.101143e-01  1.328125e-01
   endloop
 endfacet
 facet normal  4.416904e-01 -8.971675e-01  0.000000e+00
   outer loop
     vertex -4.938597e-03 -1.101143e-01  9.375000e-02
     vertex  6.698165e-02 -7.470672e-02  9.375000e-02
     vertex  6.698165e-02 -7.470672e-02  1.328125e-01
   endloop
 endfacet
 facet normal -2.808960e-01 -9.597382e-01  0.000000e+00
   outer loop
     vertex -8.187475e-02 -8.759659e-02  9.375000e-02
     vertex -4.938597e-03 -1.101143e-01  1.328125e-01
     vertex -8.187475e-02 -8.759659e-02  1.328125e-01
   endloop
 endfacet
 facet normal -2.808960e-01 -9.597382e-01  0.000000e+00
   outer loop
     vertex -8.187475e-02 -8.759659e-02  9.375000e-02
     vertex -4.938597e-03 -1.101143e-01  9.375000e-02
     vertex -4.938597e-03 -1.101143e-01  1.328125e-01
   endloop
 endfacet
 facet normal -8.557181e-01 -5.174422e-01  0.000000e+00
   outer loop
     vertex -1.233548e-01 -1.899908e-02  9.375000e-02
     vertex -8.187475e-02 -8.759659e-02  1.328125e-01
     vertex -1.233548e-01 -1.899908e-02  1.328125e-01
   endloop
 endfacet
 facet normal -8.557181e-01 -5.174422e-01  0.000000e+00
   outer loop
     vertex -1.233548e-01 -1.899908e-02  9.375000e-02
     vertex -8.187475e-02 -8.759659e-02  9.375000e-02
     vertex -8.187475e-02 -8.759659e-02  1.328125e-01
   endloop
 endfacet
 facet normal  0.000000e+00  0.000000e+00  1.000000e+00
   outer loop
     vertex -1.158887e-01 -1.501320e-02  1.328125e-01
     vertex -1.233548e-01 -1.899908e-02  1.328125e-01
     vertex -8.187475e-02 -8.759659e-02  1.328125e-01
   endloop
 endfacet
 facet normal  0.000000e+00  0.000000e+00  1.000000e+00
   outer loop
     vertex -1.107785e-01 -8.266650e-03  1.328125e-01
     vertex -1.158887e-01 -1.501320e-02  1.328125e-01
     vertex -8.187475e-02 -8.759659e-02  1.328125e-01
   endloop
 endfacet
 facet normal  0.000000e+00  0.000000e+00  1.000000e+00
   outer loop
     vertex -1.089638e-01  0.000000e+00  1.328125e-01
     vertex -8.187475e-02 -8.759659e-02  1.328125e-01
     vertex -4.938597e-03 -1.101143e-01  1.328125e-01
   endloop
 endfacet
 facet normal  0.000000e+00  0.000000e+00  1.000000e+00
   outer loop
     vertex -1.089638e-01  0.000000e+00  1.328125e-01
     vertex -1.107785e-01 -8.266650e-03  1.328125e-01
     vertex -8.187475e-02 -8.759659e-02  1.328125e-01
   endloop
 endfacet
 facet normal  0.000000e+00  0.000000e+00  1.000000e+00
   outer loop
     vertex  6.698165e-02 -7.470672e-02  1.328125e-01
     vertex -1.089638e-01  0.000000e+00  1.328125e-01
     vertex -4.938597e-03 -1.101143e-01  1.328125e-01
   endloop
 endfacet
 facet normal  0.000000e+00  0.000000e+00  1.000000e+00
   outer loop
     vertex -8.187475e-02  8.759659e-02  1.328125e-01
     vertex -1.233548e-01  1.899908e-02  1.328125e-01
     vertex -1.158887e-01  1.501320e-02  1.328125e-01
   endloop
 endfacet
 facet normal  0.000000e+00  0.000000e+00  1.000000e+00
   outer loop
     vertex -8.187475e-02  8.759659e-02  1.328125e-01
     vertex -1.158887e-01  1.501320e-02  1.328125e-01
     vertex -1.107785e-01  8.266650e-03  1.328125e-01
   endloop
 endfacet
 facet normal  0.000000e+00  0.000000e+00  1.000000e+00
   outer loop
     vertex -8.187475e-02  8.759659e-02  1.328125e-01
     vertex -1.107785e-01  8.266650e-03  1.328125e-01
     vertex -1.089638e-01  0.000000e+00  1.328125e-01
   endloop
 endfacet
 facet normal  0.000000e+00  0.000000e+00  1.000000e+00
   outer loop
     vertex  9.605263e-02  0.000000e+00  1.328125e-01
     vertex -1.089638e-01  0.000000e+00  1.328125e-01
     vertex  6.698165e-02 -7.470672e-02  1.328125e-01
   endloop
 endfacet
 facet normal  0.000000e+00  0.000000e+00  1.000000e+00
   outer loop
     vertex -4.938597e-03  1.101143e-01  1.328125e-01
     vertex -8.187475e-02  8.759659e-02  1.328125e-01
     vertex -1.089638e-01  0.000000e+00  1.328125e-01
   endloop
 endfacet
 facet normal  0.000000e+00  0.000000e+00  1.000000e+00
   outer loop
     vertex  6.698165e-02  7.470672e-02  1.328125e-01
     vertex -1.089638e-01  0.000000e+00  1.328125e-01
     vertex  9.605263e-02  0.000000e+00  1.328125e-01
   endloop
 endfacet
 facet normal  0.000000e+00  0.000000e+00  1.000000e+00
   outer loop
     vertex  6.698165e-02  7.470672e-02  1.328125e-01
     vertex -4.938597e-03  1.101143e-01  1.328125e-01
     vertex -1.089638e-01  0.000000e+00  1.328125e-01
   endloop
 endfacet
 facet normal  0.000000e+00  0.000000e+00  1.000000e+00
   outer loop
     vertex -1.089638e-01  0.000000e+00  6.171875e-01
     vertex -1.287007e-01  1.973684e-02  6.171875e-01
     vertex -1.484375e-01  2.417066e-18  6.171875e-01
   endloop
 endfacet
 facet normal  0.000000e+00  0.000000e+00  1.000000e+00
   outer loop
     vertex -1.089638e-01  0.000000e+00  6.171875e-01
     vertex -1.484375e-01  2.417066e-18  6.171875e-01
     vertex -1.287007e-01 -1.973684e-02  6.171875e-01
   endloop
 endfacet
 facet normal -8.557181e-01  5.174422e-01  0.000000e+00
   outer loop
     vertex -8.187475e-02  8.759659e-02  9.375000e-02
     vertex -1.233548e-01  1.899908e-02  9.375000e-02
     vertex -1.233548e-01  1.899908e-02  1.328125e-01
   endloop
 endfacet
 facet normal -8.557181e-01  5.174422e-01  0.000000e+00
   outer loop
     vertex -8.187475e-02  8.759659e-02  9.375000e-02
     vertex -1.233548e-01  1.899908e-02  1.328125e-01
     vertex -8.187475e-02  8.759659e-02  1.328125e-01
   endloop
 endfacet
 facet normal -2.808960e-01  9.597382e-01  0.000000e+00
   outer loop
     vertex -4.938597e-03  1.101143e-01  9.375000e-02
     vertex -8.187475e-02  8.759659e-02  1.328125e-01
     vertex -4.938597e-03  1.101143e-01  1.328125e-01
   endloop
 endfacet
 facet normal -2.808960e-01  9.597382e-01  0.000000e+00
   outer loop
     vertex -4.938597e-03  1.101143e-01  9.375000e-02
     vertex -8.187475e-02  8.759659e-02  9.375000e-02
     vertex -8.187475e-02  8.759659e-02  1.328125e-01
   endloop
 endfacet
 facet normal  4.416904e-01  8.971675e-01 -0.000000e+00
   outer loop
     vertex  6.698165e-02  7.470672e-02  9.375000e-02
     vertex -4.938597e-03  1.101143e-01  1.328125e-01
     vertex  6.698165e-02  7.470672e-02  1.328125e-01
   endloop
 endfacet
 facet normal  4.416904e-01  8.971675e-01  0.000000e+00
   outer loop
     vertex  6.698165e-02  7.470672e-02  9.375000e-02
     vertex -4.938597e-03  1.101143e-01  9.375000e-02
     vertex -4.938597e-03  1.101143e-01  1.328125e-01
   endloop
 endfacet
 facet normal  9.319273e-01  3.626452e-01 -0.000000e+00
   outer loop
     vertex  9.605263e-02  0.000000e+00  9.375000e-02
     vertex  6.698165e-02  7.470672e-02  1.328125e-01
     vertex  9.605263e-02  0.000000e+00  1.328125e-01
   endloop
 endfacet
 facet normal  9.319273e-01  3.626452e-01  0.000000e+00
   outer loop
     vertex  9.605263e-02  0.000000e+00  9.375000e-02
     vertex  6.698165e-02  7.470672e-02  9.375000e-02
     vertex  6.698165e-02  7.470672e-02  1.328125e-01
   endloop
 endfacet
endsolid
