solid 
 facet normal  0.000000e+00 -0.000000e+00 -1.000000e+00
   outer loop
     vertex  4.100906e-33  5.000000e-01 -6.406250e-01
     vertex  6.953125e-01 -5.937500e-01 -6.406250e-01
     vertex  0.000000e+00 -5.937500e-01 -6.406250e-01
   endloop
 endfacet
 facet normal  0.000000e+00  0.000000e+00 -1.000000e+00
   outer loop
     vertex  4.100906e-33  5.000000e-01 -6.406250e-01
     vertex  6.953125e-01  5.000000e-01 -6.406250e-01
     vertex  6.953125e-01 -5.937500e-01 -6.406250e-01
   endloop
 endfacet
 facet normal  0.000000e+00  1.000000e+00  0.000000e+00
   outer loop
     vertex -6.697287e-17  5.000000e-01  4.531250e-01
     vertex  6.953125e-01  5.000000e-01 -6.406250e-01
     vertex  4.100906e-33  5.000000e-01 -6.406250e-01
   endloop
 endfacet
 facet normal -0.000000e+00  1.000000e+00  0.000000e+00
   outer loop
     vertex -6.697287e-17  5.000000e-01  4.531250e-01
     vertex  6.953125e-01  5.000000e-01  4.531250e-01
     vertex  6.953125e-01  5.000000e-01 -6.406250e-01
   endloop
 endfacet
 facet normal  0.000000e+00  0.000000e+00  1.000000e+00
   outer loop
     vertex -6.697287e-17 -5.937500e-01  4.531250e-01
     vertex  6.953125e-01  5.000000e-01  4.531250e-01
     vertex -6.697287e-17  5.000000e-01  4.531250e-01
   endloop
 endfacet
 facet normal  0.000000e+00  0.000000e+00  1.000000e+00
   outer loop
     vertex -6.697287e-17 -5.937500e-01  4.531250e-01
     vertex  6.953125e-01 -5.937500e-01  4.531250e-01
     vertex  6.953125e-01  5.000000e-01  4.531250e-01
   endloop
 endfacet
 facet normal  0.000000e+00 -1.000000e+00  0.000000e+00
   outer loop
     vertex  0.000000e+00 -5.937500e-01 -6.406250e-01
     vertex  6.953125e-01 -5.937500e-01  4.531250e-01
     vertex -6.697287e-17 -5.937500e-01  4.531250e-01
   endloop
 endfacet
 facet normal  0.000000e+00 -1.000000e+00  0.000000e+00
   outer loop
     vertex  0.000000e+00 -5.937500e-01 -6.406250e-01
     vertex  6.953125e-01 -5.937500e-01 -6.406250e-01
     vertex  6.953125e-01 -5.937500e-01  4.531250e-01
   endloop
 endfacet
 facet normal -1.000000e+00  0.000000e+00 -6.123234e-17
   outer loop
     vertex -6.697287e-17  5.000000e-01  4.531250e-01
     vertex  4.100906e-33  5.000000e-01 -6.406250e-01
     vertex  0.000000e+00 -5.937500e-01 -6.406250e-01
   endloop
 endfacet
 facet normal -1.000000e+00 -0.000000e+00 -6.123234e-17
   outer loop
     vertex -6.697287e-17  5.000000e-01  4.531250e-01
     vertex  0.000000e+00 -5.937500e-01 -6.406250e-01
     vertex -6.697287e-17 -5.937500e-01  4.531250e-01
   endloop
 endfacet
 facet normal  1.000000e+00  0.000000e+00  0.000000e+00
   outer loop
     vertex  6.953125e-01  5.000000e-01  4.531250e-01
     vertex  6.953125e-01 -5.937500e-01 -6.406250e-01
     vertex  6.953125e-01  5.000000e-01 -6.406250e-01
   endloop
 endfacet
 facet normal  1.000000e+00  0.000000e+00  0.000000e+00
   outer loop
     vertex  6.953125e-01  5.000000e-01  4.531250e-01
     vertex  6.953125e-01 -5.937500e-01  4.531250e-01
     vertex  6.953125e-01 -5.937500e-01 -6.406250e-01
   endloop
 endfacet
endsolid
